<?xml version="1.0" encoding="UTF-8"?>
<svg xmlns="http://www.w3.org/2000/svg" xmlns:xlink="http://www.w3.org/1999/xlink" width="157" height="40" viewBox="0 0 157 40">
<path fill-rule="nonzero" fill="rgb(69.999695%, 85.058594%, 87.998962%)" fill-opacity="0.5" stroke-width="0.3985" stroke-linecap="butt" stroke-linejoin="miter" stroke="rgb(0%, 0%, 0%)" stroke-opacity="0.5" stroke-miterlimit="10" d="M 0.0000144493 85.041562 L 56.692492 85.041562 L 70.297281 95.244687 L 124.724247 95.244687 L 153.64077 121.268125 L 56.352666 121.268125 Z M 0.0000144493 85.041562 " transform="matrix(1.00005, 0, 0, -1, 1.460923, 123.065)"/>
<path fill="none" stroke-width="0.3985" stroke-linecap="butt" stroke-linejoin="miter" stroke="rgb(0%, 0%, 0%)" stroke-opacity="1" stroke-miterlimit="10" d="M 0.0000144493 85.041562 L 56.352666 121.268125 " transform="matrix(1.00005, 0, 0, -1, 1.460923, 123.065)"/>
<path fill="none" stroke-width="0.3985" stroke-linecap="butt" stroke-linejoin="miter" stroke="rgb(0%, 0%, 0%)" stroke-opacity="1" stroke-miterlimit="10" d="M 28.346253 85.041562 L 80.675668 121.268125 " transform="matrix(1.00005, 0, 0, -1, 1.460923, 123.065)"/>
<path fill="none" stroke-width="0.3985" stroke-linecap="butt" stroke-linejoin="miter" stroke="rgb(0%, 0%, 0%)" stroke-opacity="1" stroke-miterlimit="10" d="M 56.692492 85.041562 L 104.994765 121.268125 " transform="matrix(1.00005, 0, 0, -1, 1.460923, 123.065)"/>
<path fill="none" stroke-width="0.3985" stroke-linecap="butt" stroke-linejoin="miter" stroke="rgb(0%, 0%, 0%)" stroke-opacity="1" stroke-miterlimit="10" d="M 97.510764 95.244687 L 129.317767 121.268125 " transform="matrix(1.00005, 0, 0, -1, 1.460923, 123.065)"/>
<path fill="none" stroke-width="0.3985" stroke-linecap="butt" stroke-linejoin="miter" stroke="rgb(0%, 0%, 0%)" stroke-opacity="1" stroke-miterlimit="10" d="M 124.724247 95.244687 L 153.64077 121.268125 " transform="matrix(1.00005, 0, 0, -1, 1.460923, 123.065)"/>
<path fill="none" stroke-width="0.3985" stroke-linecap="butt" stroke-linejoin="miter" stroke="rgb(0%, 0%, 0%)" stroke-opacity="1" stroke-miterlimit="10" d="M 124.724247 95.244687 L 15.870315 95.244687 " transform="matrix(1.00005, 0, 0, -1, 1.460923, 123.065)"/>
<path fill="none" stroke-width="0.3985" stroke-linecap="butt" stroke-linejoin="miter" stroke="rgb(0%, 0%, 0%)" stroke-opacity="1" stroke-miterlimit="10" d="M 134.930768 104.432187 L 30.162569 104.432187 " transform="matrix(1.00005, 0, 0, -1, 1.460923, 123.065)"/>
<path fill="none" stroke-width="0.3985" stroke-linecap="butt" stroke-linejoin="miter" stroke="rgb(0%, 0%, 0%)" stroke-opacity="1" stroke-miterlimit="10" d="M 144.567005 113.104062 L 43.654082 113.104062 " transform="matrix(1.00005, 0, 0, -1, 1.460923, 123.065)"/>
<path fill="none" stroke-width="0.3985" stroke-linecap="butt" stroke-linejoin="miter" stroke="rgb(0%, 0%, 0%)" stroke-opacity="1" stroke-miterlimit="10" d="M 153.64077 121.268125 L 56.352666 121.268125 " transform="matrix(1.00005, 0, 0, -1, 1.460923, 123.065)"/>
<path fill="none" stroke-width="0.3985" stroke-linecap="butt" stroke-linejoin="miter" stroke="rgb(0%, 0%, 0%)" stroke-opacity="1" stroke-miterlimit="10" d="M 0.0000144493 85.041562 L 56.692492 85.041562 " transform="matrix(1.00005, 0, 0, -1, 1.460923, 123.065)"/>
</svg>
