<?xml version="1.0" encoding="UTF-8"?>
<svg xmlns="http://www.w3.org/2000/svg" xmlns:xlink="http://www.w3.org/1999/xlink" width="54" height="80" viewBox="0 0 54 80">
<path fill-rule="nonzero" fill="rgb(92.391968%, 80.941772%, 81.176758%)" fill-opacity="1" stroke-width="0.3985" stroke-linecap="butt" stroke-linejoin="miter" stroke="rgb(0%, 0%, 0%)" stroke-opacity="1" stroke-miterlimit="10" d="M 25.513197 0.00130685 C 25.513197 2.114398 14.091664 3.825181 -0.00166289 3.825181 C -14.091084 3.825181 -25.512616 2.114398 -25.512616 0.00130685 C -25.512616 -2.111784 -14.091084 -3.826474 -0.00166289 -3.826474 C 14.091664 -3.826474 25.513197 -2.111784 25.513197 0.00130685 Z M 25.513197 0.00130685 " transform="matrix(1.00003, 0, 0, -1.00009, 26.974319, 5.626307)"/>
<path fill-rule="nonzero" fill="rgb(96.195984%, 90.470886%, 90.586853%)" fill-opacity="1" stroke-width="0.3985" stroke-linecap="butt" stroke-linejoin="miter" stroke="rgb(0%, 0%, 0%)" stroke-opacity="1" stroke-miterlimit="10" d="M 25.513197 0.00130685 C 25.513197 -2.111784 14.091664 -3.826474 -0.00166289 -3.826474 C -14.091084 -3.826474 -25.512616 -2.111784 -25.512616 0.00130685 L -25.512616 -68.031633 C -25.512616 -70.382984 -14.091084 -72.285156 -0.00166289 -72.285156 C 14.091664 -72.285156 25.513197 -70.382984 25.513197 -68.031633 Z M 25.513197 0.00130685 " transform="matrix(1.00003, 0, 0, -1.00009, 26.974319, 5.626307)"/>
<path fill="none" stroke-width="0.3985" stroke-linecap="butt" stroke-linejoin="miter" stroke="rgb(0%, 0%, 0%)" stroke-opacity="1" stroke-dasharray="2.98883 2.98883" stroke-miterlimit="10" d="M -25.512616 -68.031633 C -25.512616 -65.684188 -14.091084 -63.782015 -0.00166289 -63.782015 C 14.091664 -63.782015 25.513197 -65.684188 25.513197 -68.031633 " transform="matrix(1.00003, 0, 0, -1.00009, 26.974319, 5.626307)"/>
</svg>
