<svg xmlns="http://www.w3.org/2000/svg" xmlns:xlink="http://www.w3.org/1999/xlink" version="1.1" width="267" height="53" viewBox="0 0 267 53">
<defs>
<path id="font_1_1" d="M.2939911 .64004519C.2939911 .66400149 .2939911 .6660156 .2709961 .6660156 .20899964 .60227969 .12098694 .60227969 .08898926 .60227969V.57128909C.10899353 .57128909 .16799927 .57128909 .21998596 .5972748V.07902527C.21998596 .042999269 .21699524 .0309906 .1269989 .0309906H.09498596V0C.12998963 .0029907227 .21699524 .0029907227 .25698854 .0029907227 .29699708 .0029907227 .38398744 .0029907227 .4189911 0V.0309906H.3869934C.29699708 .0309906 .2939911 .041992189 .2939911 .07902527V.64004519Z"/>
<path id="font_1_3" d="M.13198853 .327713V.35173036C.13198853 .6047821 .2559967 .64100649 .30699159 .64100649 .33099366 .64100649 .37298585 .634964 .394989 .6007538 .37998963 .6007538 .33999635 .6007538 .33999635 .5557556 .33999635 .524765 .3639984 .5097656 .38598634 .5097656 .4019928 .5097656 .43199159 .51875308 .43199159 .5577545 .43199159 .6178589 .3880005 .6660156 .30499269 .6660156 .1769867 .6660156 .041992189 .5367584 .041992189 .31570436 .041992189 .048553468 .1579895-.022460938 .25099183-.022460938 .3619995-.022460938 .45700074 .07156372 .45700074 .2036438 .45700074 .33070375 .36799623 .4267578 .25698854 .4267578 .18899536 .4267578 .1519928 .37573243 .13198853 .327713M.25099183 .0055389406C.18798828 .0055389406 .1579895 .06556702 .1519928 .080566409 .13398743 .127594 .13398743 .2076416 .13398743 .22564698 .13398743 .30369569 .1659851 .40374757 .2559967 .40374757 .27198792 .40374757 .31799317 .40374757 .34899903 .34172059 .36698915 .30470277 .36698915 .2536621 .36698915 .20463562 .36698915 .15661621 .36698915 .10658264 .34999085 .0705719 .31999208 .010528564 .27398683 .0055389406 .25099183 .0055389406Z"/>
<path id="font_1_4" d="M.1749878 .43066407V.5467529C.1749878 .63479617 .22299195 .68307498 .2669983 .68307498 .269989 .68307498 .2849884 .68307498 .2999878 .675827 .28799439 .6717987 .269989 .6587982 .269989 .6338043 .269989 .61079409 .28599549 .5907898 .31298829 .5907898 .34199525 .5907898 .35699464 .61079409 .35699464 .63479617 .35699464 .6717987 .31999208 .7050781 .2669983 .7050781 .19699097 .7050781 .11199951 .65179446 .11199951 .5457611V.43066407H.032989503V.3996582H.11199951V.07595825C.11199951 .0309906 .100997928 .0309906 .033996583 .0309906V0C.07299805 .0009918213 .11999512 .0029907227 .147995 .0029907227 .18798828 .0029907227 .23498535 .0029907227 .2749939 0V.0309906H.2539978C.17999268 .0309906 .17799378 .04197693 .17799378 .07795715V.3996582H.2919922V.43066407H.1749878Z"/>
<path id="font_1_5" d="M.17298889 .3996582H.31599427V.43066407H.17298889V.6147156H.147995C.14698792 .5326996 .116989139 .42565919 .018997193 .42166139V.3996582H.10398865V.12416077C.10398865 .0012512207 .19699097-.0107421879 .23298645-.0107421879 .3039856-.0107421879 .33198548 .06021118 .33198548 .12416077V.18112183H.30699159V.12615967C.30699159 .052215578 .2769928 .014251709 .23999024 .014251709 .17298889 .014251709 .17298889 .10517883 .17298889 .122161868V.3996582Z"/>
<path id="font_2_1" d="M.5049896 .18203736H.47099305C.46798707 .16001892 .45799256 .100997928 .44499208 .09098816 .43699647 .084991458 .3600006 .084991458 .34599305 .084991458H.1619873C.2669983 .17803955 .3019867 .20603943 .3619995 .25306703 .43598939 .312088 .5049896 .374115 .5049896 .46914674 .5049896 .5900879 .39898683 .6640625 .2709961 .6640625 .14698792 .6640625 .06298828 .57710269 .06298828 .4851532 .06298828 .43414308 .10598755 .42915345 .115997318 .42915345 .13999939 .42915345 .16899109 .44615174 .16899109 .48214723 .16899109 .5001526 .1619873 .53515627 .10998535 .53515627 .14099121 .6060791 .20899964 .62805178 .2559967 .62805178 .35598756 .62805178 .4079895 .5501404 .4079895 .46914674 .4079895 .38212586 .34599305 .3130951 .31399537 .27708436L.07299805 .038986207C.06298828 .02999878 .06298828 .027999878 .06298828 0H.47499085L.5049896 .18203736Z"/>
<path id="font_1_2" d="M.2939911 .16503906V.07800293C.2939911 .041992189 .2919922 .0309906 .21798706 .0309906H.19699097V0C.23799134 .0029907227 .2899933 .0029907227 .33198548 .0029907227 .37399293 .0029907227 .4269867 .0029907227 .46798707 0V.0309906H.44699098C.37298585 .0309906 .37098695 .041992189 .37098695 .07800293V.16503906H.47099305V.19602967H.37098695V.65075686C.37098695 .67074587 .37098695 .6767578 .35499574 .6767578 .34599305 .6767578 .34298707 .6767578 .33499146 .66474917L.027999878 .19602967V.16503906H.2939911M.2999878 .19602967H.055999757L.2999878 .5688019V.19602967Z"/>
</defs>
<path transform="matrix(1.00002,0,0,-1.00003,1.6603737,123.26831)" stroke-width=".79701" stroke-linecap="butt" stroke-miterlimit="10" stroke-linejoin="miter" fill="none" stroke="#000000" d="M0 85.04042 56.35277 121.2672"/>
<path transform="matrix(1.00002,0,0,-1.00003,1.6603737,123.26831)" stroke-width=".79701" stroke-linecap="butt" stroke-miterlimit="10" stroke-linejoin="miter" fill="none" stroke="#000000" d="M28.3468 85.04042 80.67436 121.2672"/>
<path transform="matrix(1.00002,0,0,-1.00003,1.6603737,123.26831)" stroke-width=".79701" stroke-linecap="butt" stroke-miterlimit="10" stroke-linejoin="miter" fill="none" stroke="#000000" d="M56.69362 85.04042 104.99599 121.2672"/>
<path transform="matrix(1.00002,0,0,-1.00003,1.6603737,123.26831)" stroke-width=".79701" stroke-linecap="butt" stroke-miterlimit="10" stroke-linejoin="miter" fill="none" stroke="#000000" d="M85.04042 85.04042 129.3176 121.2672"/>
<path transform="matrix(1.00002,0,0,-1.00003,1.6603737,123.26831)" stroke-width=".79701" stroke-linecap="butt" stroke-miterlimit="10" stroke-linejoin="miter" fill="none" stroke="#000000" d="M113.38724 85.04042 153.6392 121.2672"/>
<path transform="matrix(1.00002,0,0,-1.00003,1.6603737,123.26831)" stroke-width=".79701" stroke-linecap="butt" stroke-miterlimit="10" stroke-linejoin="miter" fill="none" stroke="#000000" d="M113.38724 85.04042H0"/>
<path transform="matrix(1.00002,0,0,-1.00003,1.6603737,123.26831)" stroke-width=".79701" stroke-linecap="butt" stroke-miterlimit="10" stroke-linejoin="miter" fill="none" stroke="#000000" d="M124.72403 95.24355H15.87152"/>
<path transform="matrix(1.00002,0,0,-1.00003,1.6603737,123.26831)" stroke-width=".79701" stroke-linecap="butt" stroke-miterlimit="10" stroke-linejoin="miter" fill="none" stroke="#000000" d="M134.93193 104.43065H30.16258"/>
<path transform="matrix(1.00002,0,0,-1.00003,1.6603737,123.26831)" stroke-width=".79701" stroke-linecap="butt" stroke-miterlimit="10" stroke-linejoin="miter" fill="none" stroke="#000000" d="M144.56888 113.1039H43.65431"/>
<path transform="matrix(1.00002,0,0,-1.00003,1.6603737,123.26831)" stroke-width=".79701" stroke-linecap="butt" stroke-miterlimit="10" stroke-linejoin="miter" fill="none" stroke="#000000" d="M153.6392 121.2672H56.35277"/>
<g>
<path transform="matrix(1.00002,0,0,-1.00003,1.6603737,123.26831)" d="M0 85.04042H113.38724L153.6392 121.2672H56.35277" fill="#d9b38c" fill-opacity=".5"/>
<path transform="matrix(1.00002,0,0,-1.00003,1.6603737,123.26831)" stroke-width=".3985" stroke-linecap="butt" stroke-miterlimit="10" stroke-linejoin="miter" fill="none" stroke="#000000" stroke-opacity=".5" d="M0 85.04042H113.38724L153.6392 121.2672H56.35277"/>
</g>
<path transform="matrix(1.00002,0,0,-1.00003,1.6603737,123.26831)" d="M161.12425 102.30466C165.22481 99.93721 168.36241 104.1892 172.46295 106.55666 168.36241 108.9241 165.22481 104.6721 161.12425 102.30466" fill="#d9b38c"/>
<path transform="matrix(1.00002,0,0,-1.00003,1.6603737,123.26831)" stroke-width=".3985" stroke-linecap="butt" stroke-miterlimit="10" stroke-linejoin="miter" fill="none" stroke="#000000" d="M161.12425 102.30466C165.22481 99.93721 168.36241 104.1892 172.46295 106.55666 168.36241 108.9241 165.22481 104.6721 161.12425 102.30466"/>
<path transform="matrix(1.00002,0,0,-1.00003,1.6603737,123.26831)" d="M166.79361 102.30466C170.89415 99.93721 174.03176 104.1892 178.13231 106.55666 174.03176 108.9241 170.89415 104.6721 166.79361 102.30466" fill="#d9b38c"/>
<path transform="matrix(1.00002,0,0,-1.00003,1.6603737,123.26831)" stroke-width=".3985" stroke-linecap="butt" stroke-miterlimit="10" stroke-linejoin="miter" fill="none" stroke="#000000" d="M166.79361 102.30466C170.89415 99.93721 174.03176 104.1892 178.13231 106.55666 174.03176 108.9241 170.89415 104.6721 166.79361 102.30466"/>
<path transform="matrix(1.00002,0,0,-1.00003,1.6603737,123.26831)" d="M172.46295 102.30466C176.5635 99.93721 179.70111 104.1892 183.80165 106.55666 179.70111 108.9241 176.5635 104.6721 172.46295 102.30466" fill="#d9b38c"/>
<path transform="matrix(1.00002,0,0,-1.00003,1.6603737,123.26831)" stroke-width=".3985" stroke-linecap="butt" stroke-miterlimit="10" stroke-linejoin="miter" fill="none" stroke="#000000" d="M172.46295 102.30466C176.5635 99.93721 179.70111 104.1892 183.80165 106.55666 179.70111 108.9241 176.5635 104.6721 172.46295 102.30466"/>
<path transform="matrix(1.00002,0,0,-1.00003,1.6603737,123.26831)" d="M178.13231 102.30466C182.23287 99.93721 185.37046 104.1892 189.47101 106.55666 185.37046 108.9241 182.23287 104.6721 178.13231 102.30466" fill="#d9b38c"/>
<path transform="matrix(1.00002,0,0,-1.00003,1.6603737,123.26831)" stroke-width=".3985" stroke-linecap="butt" stroke-miterlimit="10" stroke-linejoin="miter" fill="none" stroke="#000000" d="M178.13231 102.30466C182.23287 99.93721 185.37046 104.1892 189.47101 106.55666 185.37046 108.9241 182.23287 104.6721 178.13231 102.30466"/>
<path transform="matrix(1.00002,0,0,-1.00003,1.6603737,123.26831)" d="M183.80165 102.30466C187.9022 99.93721 191.03981 104.1892 195.14035 106.55666 191.03981 108.9241 187.9022 104.6721 183.80165 102.30466" fill="#d9b38c"/>
<path transform="matrix(1.00002,0,0,-1.00003,1.6603737,123.26831)" stroke-width=".3985" stroke-linecap="butt" stroke-miterlimit="10" stroke-linejoin="miter" fill="none" stroke="#000000" d="M183.80165 102.30466C187.9022 99.93721 191.03981 104.1892 195.14035 106.55666 191.03981 108.9241 187.9022 104.6721 183.80165 102.30466"/>
<path transform="matrix(1.00002,0,0,-1.00003,1.6603737,123.26831)" d="M189.47101 102.30466C193.57157 99.93721 196.70915 104.1892 200.80971 106.55666 196.70915 108.9241 193.57157 104.6721 189.47101 102.30466" fill="#d9b38c"/>
<path transform="matrix(1.00002,0,0,-1.00003,1.6603737,123.26831)" stroke-width=".3985" stroke-linecap="butt" stroke-miterlimit="10" stroke-linejoin="miter" fill="none" stroke="#000000" d="M189.47101 102.30466C193.57157 99.93721 196.70915 104.1892 200.80971 106.55666 196.70915 108.9241 193.57157 104.6721 189.47101 102.30466"/>
<path transform="matrix(1.00002,0,0,-1.00003,1.6603737,123.26831)" d="M195.14035 102.30466C199.2409 99.93721 202.37851 104.1892 206.47905 106.55666 202.37851 108.9241 199.2409 104.6721 195.14035 102.30466" fill="#d9b38c"/>
<path transform="matrix(1.00002,0,0,-1.00003,1.6603737,123.26831)" stroke-width=".3985" stroke-linecap="butt" stroke-miterlimit="10" stroke-linejoin="miter" fill="none" stroke="#000000" d="M195.14035 102.30466C199.2409 99.93721 202.37851 104.1892 206.47905 106.55666 202.37851 108.9241 199.2409 104.6721 195.14035 102.30466"/>
<path transform="matrix(1.00002,0,0,-1.00003,1.6603737,123.26831)" d="M200.80971 102.30466C204.91027 99.93721 208.04785 104.1892 212.1484 106.55666 208.04785 108.9241 204.91027 104.6721 200.80971 102.30466" fill="#d9b38c"/>
<path transform="matrix(1.00002,0,0,-1.00003,1.6603737,123.26831)" stroke-width=".3985" stroke-linecap="butt" stroke-miterlimit="10" stroke-linejoin="miter" fill="none" stroke="#000000" d="M200.80971 102.30466C204.91027 99.93721 208.04785 104.1892 212.1484 106.55666 208.04785 108.9241 204.91027 104.6721 200.80971 102.30466"/>
<path transform="matrix(1.00002,0,0,-1.00003,1.6603737,123.26831)" d="M206.47905 102.30466C210.5796 99.93721 213.71721 104.1892 217.81775 106.55666 213.71721 108.9241 210.5796 104.6721 206.47905 102.30466" fill="#d9b38c"/>
<path transform="matrix(1.00002,0,0,-1.00003,1.6603737,123.26831)" stroke-width=".3985" stroke-linecap="butt" stroke-miterlimit="10" stroke-linejoin="miter" fill="none" stroke="#000000" d="M206.47905 102.30466C210.5796 99.93721 213.71721 104.1892 217.81775 106.55666 213.71721 108.9241 210.5796 104.6721 206.47905 102.30466"/>
<path transform="matrix(1.00002,0,0,-1.00003,1.6603737,123.26831)" d="M212.1484 102.30466C216.24897 99.93721 219.38655 104.1892 223.4871 106.55666 219.38655 108.9241 216.24897 104.6721 212.1484 102.30466" fill="#d9b38c"/>
<path transform="matrix(1.00002,0,0,-1.00003,1.6603737,123.26831)" stroke-width=".3985" stroke-linecap="butt" stroke-miterlimit="10" stroke-linejoin="miter" fill="none" stroke="#000000" d="M212.1484 102.30466C216.24897 99.93721 219.38655 104.1892 223.4871 106.55666 219.38655 108.9241 216.24897 104.6721 212.1484 102.30466"/>
<path transform="matrix(1.00002,0,0,-1.00003,1.6603737,123.26831)" d="M217.81775 102.30466C221.9183 99.93721 225.05591 104.1892 229.15645 106.55666 225.05591 108.9241 221.9183 104.6721 217.81775 102.30466" fill="#d9b38c"/>
<path transform="matrix(1.00002,0,0,-1.00003,1.6603737,123.26831)" stroke-width=".3985" stroke-linecap="butt" stroke-miterlimit="10" stroke-linejoin="miter" fill="none" stroke="#000000" d="M217.81775 102.30466C221.9183 99.93721 225.05591 104.1892 229.15645 106.55666 225.05591 108.9241 221.9183 104.6721 217.81775 102.30466"/>
<path transform="matrix(1.00002,0,0,-1.00003,1.6603737,123.26831)" d="M223.4871 102.30466C227.58766 99.93721 230.72525 104.1892 234.8258 106.55666 230.72525 108.9241 227.58766 104.6721 223.4871 102.30466" fill="#d9b38c"/>
<path transform="matrix(1.00002,0,0,-1.00003,1.6603737,123.26831)" stroke-width=".3985" stroke-linecap="butt" stroke-miterlimit="10" stroke-linejoin="miter" fill="none" stroke="#000000" d="M223.4871 102.30466C227.58766 99.93721 230.72525 104.1892 234.8258 106.55666 230.72525 108.9241 227.58766 104.6721 223.4871 102.30466"/>
<path transform="matrix(1.00002,0,0,-1.00003,1.6603737,123.26831)" d="M229.15645 102.30466C233.257 99.93721 236.3946 104.1892 240.49515 106.55666 236.3946 108.9241 233.257 104.6721 229.15645 102.30466" fill="#d9b38c"/>
<path transform="matrix(1.00002,0,0,-1.00003,1.6603737,123.26831)" stroke-width=".3985" stroke-linecap="butt" stroke-miterlimit="10" stroke-linejoin="miter" fill="none" stroke="#000000" d="M229.15645 102.30466C233.257 99.93721 236.3946 104.1892 240.49515 106.55666 236.3946 108.9241 233.257 104.6721 229.15645 102.30466"/>
<path transform="matrix(1.00002,0,0,-1.00003,1.6603737,123.26831)" d="M234.8258 102.30466C238.92636 99.93721 242.06395 104.1892 246.1645 106.55666 242.06395 108.9241 238.92636 104.6721 234.8258 102.30466" fill="#d9b38c"/>
<path transform="matrix(1.00002,0,0,-1.00003,1.6603737,123.26831)" stroke-width=".3985" stroke-linecap="butt" stroke-miterlimit="10" stroke-linejoin="miter" fill="none" stroke="#000000" d="M234.8258 102.30466C238.92636 99.93721 242.06395 104.1892 246.1645 106.55666 242.06395 108.9241 238.92636 104.6721 234.8258 102.30466"/>
<path transform="matrix(1.00002,0,0,-1.00003,1.6603737,123.26831)" d="M240.49515 102.30466C244.5957 99.93721 247.7333 104.1892 251.83385 106.55666 247.7333 108.9241 244.5957 104.6721 240.49515 102.30466" fill="#d9b38c"/>
<path transform="matrix(1.00002,0,0,-1.00003,1.6603737,123.26831)" stroke-width=".3985" stroke-linecap="butt" stroke-miterlimit="10" stroke-linejoin="miter" fill="none" stroke="#000000" d="M240.49515 102.30466C244.5957 99.93721 247.7333 104.1892 251.83385 106.55666 247.7333 108.9241 244.5957 104.6721 240.49515 102.30466"/>
<path transform="matrix(1.00002,0,0,-1.00003,1.6603737,123.26831)" d="M246.1645 102.30466C250.26506 99.93721 253.40265 104.1892 257.5032 106.55666 253.40265 108.9241 250.26506 104.6721 246.1645 102.30466" fill="#d9b38c"/>
<path transform="matrix(1.00002,0,0,-1.00003,1.6603737,123.26831)" stroke-width=".3985" stroke-linecap="butt" stroke-miterlimit="10" stroke-linejoin="miter" fill="none" stroke="#000000" d="M246.1645 102.30466C250.26506 99.93721 253.40265 104.1892 257.5032 106.55666 253.40265 108.9241 250.26506 104.6721 246.1645 102.30466"/>
<path transform="matrix(1.00002,0,0,-1.00003,1.6603737,123.26831)" d="M251.83385 102.30466C255.9344 99.93721 259.072 104.1892 263.17256 106.55666 259.072 108.9241 255.9344 104.6721 251.83385 102.30466" fill="#d9b38c"/>
<path transform="matrix(1.00002,0,0,-1.00003,1.6603737,123.26831)" stroke-width=".3985" stroke-linecap="butt" stroke-miterlimit="10" stroke-linejoin="miter" fill="none" stroke="#000000" d="M251.83385 102.30466C255.9344 99.93721 259.072 104.1892 263.17256 106.55666 259.072 108.9241 255.9344 104.6721 251.83385 102.30466"/>
<path transform="matrix(1.00002,0,0,-1.00003,1.6603737,123.26831)" stroke-width=".3985" stroke-linecap="butt" stroke-miterlimit="10" stroke-linejoin="miter" fill="none" stroke="#000000" d="M265.89363 104.43065"/>
<use data-text="1" xlink:href="#font_1_1" transform="matrix(9.962799,0,0,-9.962899,46.849279,50.69513)"/>
<use data-text="6" xlink:href="#font_1_3" transform="matrix(9.962799,0,0,-9.962899,51.830678,50.69513)"/>
<use data-text="f" xlink:href="#font_1_4" transform="matrix(9.962799,0,0,-9.962899,58.465906,50.69513)"/>
<use data-text="t" xlink:href="#font_1_5" transform="matrix(9.962799,0,0,-9.962899,61.504556,50.69513)"/>
<use data-text="2" xlink:href="#font_2_1" transform="matrix(6.97394,0,0,-6.9740097,65.39165,46.239)"/>
<use data-text="4" xlink:href="#font_1_2" transform="matrix(9.962799,0,0,-9.962899,208.39351,31.105538)"/>
<use data-text="f" xlink:href="#font_1_4" transform="matrix(9.962799,0,0,-9.962899,215.02873,31.105538)"/>
<use data-text="t" xlink:href="#font_1_5" transform="matrix(9.962799,0,0,-9.962899,218.0674,31.105538)"/>
</svg>
