<svg xmlns="http://www.w3.org/2000/svg" xmlns:xlink="http://www.w3.org/1999/xlink" version="1.1" width="98" height="67" viewBox="0 0 98 67">
<defs>
<path id="font_1_1" d="M.49198915 .40434266C.45498658 .39733888 .44400025 .3653412 .44400025 .3503418 .44400025 .33132936 .45799256 .31433106 .48298646 .31433106 .5109863 .31433106 .5379944 .33833314 .5379944 .3733368 .5379944 .41937257 .48799134 .4423828 .44099427 .4423828 .3809967 .4423828 .34599305 .38934327 .33399964 .3683319 .31498719 .41737367 .2709961 .4423828 .22299195 .4423828 .115997318 .4423828 .057998659 .31433106 .057998659 .28833009 .057998659 .2793274 .06498718 .2763214 .07199097 .2763214 .08099365 .2763214 .083999637 .2813263 .085998538 .287323 .116989139 .38633729 .18299866 .41737367 .22099304 .41737367 .25 .41737367 .27598573 .3983307 .27598573 .35133363 .27598573 .31533814 .23298645 .15530396 .21998596 .107284549 .21199036 .076293949 .18199158 .014251709 .1269989 .014251709 .10699463 .014251709 .085998538 .021270752 .07598877 .027282715 .102996829 .032287599 .12298584 .055282594 .12298584 .08128357 .12298584 .106292728 .10398865 .11729431 .084991458 .11729431 .055999757 .11729431 .02999878 .092285159 .02999878 .058288576 .02999878 .009246826 .083999637-.0107421879 .12599182-.0107421879 .18399048-.0107421879 .21798706 .03729248 .23298645 .06428528 .2579956-.0017547608 .31698609-.0107421879 .34399415-.0107421879 .45199586-.0107421879 .5089874 .11929321 .5089874 .14329529 .5089874 .14830017 .5059967 .15530396 .49598695 .15530396 .4850006 .15530396 .48399354 .1512909 .47898866 .1362915 .45700074 .06428528 .39898683 .014251709 .34700013 .014251709 .31799317 .014251709 .29100038 .032287599 .29100038 .08029175 .29100038 .10229492 .30499269 .15730286 .31399537 .1953125 .31799317 .21331787 .34498597 .32133485 .34700013 .32833863 .35899354 .3643341 .3889923 .41737367 .43998719 .41737367 .45799256 .41737367 .47698976 .41436769 .49198915 .40434266Z"/>
<path id="font_2_72" d="M.26098634 0V.0309906C.19499207 .0309906 .18399048 .0309906 .18399048 .07701111V.69433596L.035995485 .6826172V.6516113C.10398865 .6516113 .11299133 .64460757 .11299133 .5956421V.07696533C.11299133 .0309906 .101989749 .0309906 .035995485 .0309906V0C.08299255 .0019989014 .101989749 .0029907227 .147995 .0029907227 .19499207 .0029907227 .21199036 .0019989014 .26098634 0Z"/>
<path id="font_2_35" d="M.5359955 .21636963C.5359955 .34144593 .43699647 .4423828 .31698609 .4423828 .24899292 .4423828 .20199585 .4073944 .17799378 .38046266V.69433596L.02999878 .68333438V.6523285C.09799194 .6523285 .10699463 .6453247 .10699463 .596344V.00024414063H.1349945L.17199707 .061279298C.20298767 .01725769 .25299073-.0107421879 .30699159-.0107421879 .42599488-.0107421879 .5359955 .08529663 .5359955 .21636963M.44999696 .21737671C.44999696 .17034912 .44400025 .11730957 .41799928 .07728577 .3959961 .045272829 .35499574 .014251709 .3019867 .014251709 .25698854 .014251709 .21899414 .038269044 .19499207 .075286868 .18099976 .09629822 .18099976 .0973053 .18099976 .11631775V.31944276C.18099976 .3384552 .18099976 .33944703 .19198609 .35546876 .22599793 .40141297 .2749939 .41737367 .31298829 .41737367 .35598756 .41737367 .3959961 .39343263 .42199708 .3514557 .44799806 .3084259 .44999696 .24938965 .44999696 .21737671Z"/>
<path id="font_3_1" d="M.3039856 .6392822C.3039856 .6642761 .30299378 .666275 .27799989 .666275 .21598816 .60227969 .12399292 .60227969 .09298706 .60227969V.57128909C.11199951 .57128909 .17298889 .57128909 .22698975 .5972748V.08001709C.22698975 .042999269 .22399903 .0309906 .1309967 .0309906H.09899902V0C.1349945 .0029907227 .22399903 .0029907227 .2649994 .0029907227 .30599977 .0029907227 .3959961 .0029907227 .43199159 0V.0309906H.3999939C.30699159 .0309906 .3039856 .042999269 .3039856 .08001709V.6392822Z"/>
</defs>
<path transform="matrix(1.00005,0,0,-1.00003,5.996149,65.29857)" d="M40.82033 0H49.8915L45.35591 9.07117Z" fill="#d9b38c"/>
<path transform="matrix(1.00005,0,0,-1.00003,5.996149,65.29857)" stroke-width=".3985" stroke-linecap="butt" stroke-miterlimit="10" stroke-linejoin="miter" fill="none" stroke="#000000" d="M40.82033 0H49.8915L45.35591 9.07117Z"/>
<path transform="matrix(1.00005,0,0,-1.00003,5.996149,65.29857)" d="M0 8.16399V9.07117H90.71185V8.16399ZM90.71185 9.07117" fill="#d9b38c"/>
<path transform="matrix(1.00005,0,0,-1.00003,5.996149,65.29857)" stroke-width=".3985" stroke-linecap="butt" stroke-miterlimit="10" stroke-linejoin="miter" fill="none" stroke="#000000" d="M0 8.16399V9.07117H90.71185V8.16399ZM90.71185 9.07117"/>
<path transform="matrix(1.00005,0,0,-1.00003,5.996149,65.29857)" d="M-4.53558 9.07117V36.28473H22.67795V9.07117ZM22.67795 36.28473" fill="#e7c2c3"/>
<path transform="matrix(1.00005,0,0,-1.00003,5.996149,65.29857)" stroke-width=".3985" stroke-linecap="butt" stroke-miterlimit="10" stroke-linejoin="miter" fill="none" stroke="#000000" d="M-4.53558 9.07117V36.28473H22.67795V9.07117ZM22.67795 36.28473"/>
<use data-text="x" xlink:href="#font_1_1" transform="matrix(8.966848,0,0,-8.966669,7.0762035,45.68198)"/>
<use data-text="l" xlink:href="#font_2_72" transform="matrix(8.966848,0,0,-8.966669,15.375619,45.68198)"/>
<use data-text="b" xlink:href="#font_2_35" transform="matrix(8.966848,0,0,-8.966669,17.940136,45.68198)"/>
<path transform="matrix(1.00005,0,0,-1.00003,5.996149,65.29857)" d="M72.56947 9.07117V22.67795H90.71185V9.07117ZM90.71185 22.67795" fill="#bfdfe6"/>
<path transform="matrix(1.00005,0,0,-1.00003,5.996149,65.29857)" stroke-width=".3985" stroke-linecap="butt" stroke-miterlimit="10" stroke-linejoin="miter" fill="none" stroke="#000000" d="M72.56947 9.07117V22.67795H90.71185V9.07117ZM90.71185 22.67795"/>
<use data-text="1" xlink:href="#font_3_1" transform="matrix(8.966848,0,0,-8.966669,79.95684,52.485185)"/>
<use data-text="l" xlink:href="#font_2_72" transform="matrix(8.966848,0,0,-8.966669,87.64023,52.485185)"/>
<use data-text="b" xlink:href="#font_2_35" transform="matrix(8.966848,0,0,-8.966669,90.20474,52.485185)"/>
<path transform="matrix(1.00005,0,0,-1.00003,5.996149,65.29857)" d="M72.56947 22.67795V36.28473H90.71185V22.67795ZM90.71185 36.28473" fill="#bfdfe6"/>
<path transform="matrix(1.00005,0,0,-1.00003,5.996149,65.29857)" stroke-width=".3985" stroke-linecap="butt" stroke-miterlimit="10" stroke-linejoin="miter" fill="none" stroke="#000000" d="M72.56947 22.67795V36.28473H90.71185V22.67795ZM90.71185 36.28473"/>
<use data-text="1" xlink:href="#font_3_1" transform="matrix(8.966848,0,0,-8.966669,79.95684,38.878778)"/>
<use data-text="l" xlink:href="#font_2_72" transform="matrix(8.966848,0,0,-8.966669,87.64023,38.878778)"/>
<use data-text="b" xlink:href="#font_2_35" transform="matrix(8.966848,0,0,-8.966669,90.20474,38.878778)"/>
<path transform="matrix(1.00005,0,0,-1.00003,5.996149,65.29857)" d="M72.56947 36.28473V49.8915H90.71185V36.28473ZM90.71185 49.8915" fill="#bfdfe6"/>
<path transform="matrix(1.00005,0,0,-1.00003,5.996149,65.29857)" stroke-width=".3985" stroke-linecap="butt" stroke-miterlimit="10" stroke-linejoin="miter" fill="none" stroke="#000000" d="M72.56947 36.28473V49.8915H90.71185V36.28473ZM90.71185 49.8915"/>
<use data-text="1" xlink:href="#font_3_1" transform="matrix(8.966848,0,0,-8.966669,79.95684,25.271367)"/>
<use data-text="l" xlink:href="#font_2_72" transform="matrix(8.966848,0,0,-8.966669,87.64023,25.271367)"/>
<use data-text="b" xlink:href="#font_2_35" transform="matrix(8.966848,0,0,-8.966669,90.20474,25.271367)"/>
<path transform="matrix(1.00005,0,0,-1.00003,5.996149,65.29857)" d="M72.56947 49.8915V63.49829H90.71185V49.8915ZM90.71185 63.49829" fill="#bfdfe6"/>
<path transform="matrix(1.00005,0,0,-1.00003,5.996149,65.29857)" stroke-width=".3985" stroke-linecap="butt" stroke-miterlimit="10" stroke-linejoin="miter" fill="none" stroke="#000000" d="M72.56947 49.8915V63.49829H90.71185V49.8915ZM90.71185 63.49829"/>
<use data-text="1" xlink:href="#font_3_1" transform="matrix(8.966848,0,0,-8.966669,79.95684,11.663963)"/>
<use data-text="l" xlink:href="#font_2_72" transform="matrix(8.966848,0,0,-8.966669,87.64023,11.663963)"/>
<use data-text="b" xlink:href="#font_2_35" transform="matrix(8.966848,0,0,-8.966669,90.20474,11.663963)"/>
</svg>
