<svg xmlns="http://www.w3.org/2000/svg" xmlns:xlink="http://www.w3.org/1999/xlink" version="1.1" width="177" height="145" viewBox="0 0 177 145">
<defs>
<path id="font_1_1" d="M.69898989 .22743225C.71499636 .22743225 .7369995 .22743225 .7369995 .25042726 .7369995 .2734375 .71499636 .2734375 .69898989 .2734375H.12599182C.10998535 .2734375 .08799744 .2734375 .08799744 .25042726 .08799744 .22743225 .10998535 .22743225 .12599182 .22743225H.69898989Z"/>
<path id="font_2_1" d="M.3939972 .6468048C.3939972 .6667938 .3939972 .6748047 .37298585 .6748047 .3600006 .6748047 .35899354 .6737976 .34899903 .65979006L.02999878 .197052V.1640625H.31199647V.08100891C.31199647 .04399109 .30899049 .032989503 .23199463 .032989503H.20899964V0C.2939911 .0029907227 .29599 .0029907227 .35299684 .0029907227 .4099884 .0029907227 .4119873 .0029907227 .49699403 0V.032989503H.47399903C.39698792 .032989503 .3939972 .04399109 .3939972 .08100891V.1640625H.5V.197052H.3939972V.6468048M.31900025 .5658417V.197052H.06498718L.31900025 .5658417Z"/>
<path id="font_3_42" d="M.6649933 .23271179C.6649933 .24272156 .6649933 .24972534 .6519928 .24972534 .6409912 .24972534 .6409912 .24372864 .6399994 .23371887 .6319885 .09059143 .5249939 .008529663 .41600038 .008529663 .35499574 .008529663 .15899658 .042556764 .15899658 .34080506 .15899658 .64004519 .35398866 .67407229 .4149933 .67407229 .5239868 .67407229 .61299136 .58299258 .6329956 .4368744 .6349945 .42286683 .6349945 .41986085 .6489868 .41986085 .6649933 .41986085 .6649933 .42286683 .6649933 .44387818V.68107607C.6649933 .69807437 .6649933 .7050781 .6539917 .7050781 .6499939 .7050781 .6459961 .7050781 .6380005 .69306948L.58799746 .61901858C.5509949 .6550598 .5 .7050781 .4039917 .7050781 .21699524 .7050781 .055999757 .5459595 .055999757 .34179688 .055999757 .1346283 .21798706-.022460938 .4039917-.022460938 .5669861-.022460938 .6649933 .116622928 .6649933 .23271179Z"/>
<path id="font_3_28" d="M.48298646 .08912659V.14511109H.45799256V.08912659C.45799256 .03112793 .43299867 .025131226 .42199708 .025131226 .3889923 .025131226 .3849945 .070129398 .3849945 .07511902V.27508546C.3849945 .31707765 .3849945 .3560791 .34899903 .39312745 .30999757 .43223573 .2599945 .4482422 .21199036 .4482422 .12998963 .4482422 .06098938 .40115357 .06098938 .335083 .06098938 .30508424 .08099365 .28808595 .10699463 .28808595 .1349945 .28808595 .15299988 .30807496 .15299988 .33407594 .15299988 .3460846 .147995 .37908937 .101989749 .38008119 .1289978 .41519166 .17799378 .426239 .20999146 .426239 .25898744 .426239 .31599427 .38710023 .31599427 .29808045V.26107789C.2649994 .25808717 .19499207 .25508119 .13198853 .22509766 .056991579 .19110108 .03199768 .13911438 .03199768 .09512329 .03199768 .014251709 .1289978-.0107421879 .19198609-.0107421879 .2579956-.0107421879 .3039856 .029251099 .32299806 .07624817 .32699586 .036132814 .35398866-.005859375 .40098573-.005859375 .42199708-.005859375 .48298646 .008132935 .48298646 .08912659M.31599427 .14013672C.31599427 .04525757 .24398804 .011245728 .19898987 .011245728 .1499939 .011245728 .10899353 .04624939 .10899353 .09625244 .10899353 .15124512 .15098572 .23425293 .31599427 .24024964V.14013672Z"/>
<path id="font_3_96" d="M.3639984 .38137818C.3639984 .41337586 .33299256 .4423828 .2899933 .4423828 .21699524 .4423828 .18099976 .37538148 .16699219 .3323822V.4423828L.027999878 .43066407V.3996582C.09799194 .3996582 .10598755 .39266969 .10598755 .34370423V.07595825C.10598755 .0309906 .09498596 .0309906 .027999878 .0309906V0L.14199829 .0029907227C.18199158 .0029907227 .22898865 .0029907227 .2689972 0V.0309906H.24798584C.17399597 .0309906 .17199707 .04197693 .17199707 .07795715V.23181153C.17199707 .33137513 .21398926 .42037965 .2899933 .42037965 .29699708 .42037965 .29899598 .42037965 .30099488 .41937257 .2979889 .41838075 .27799989 .40637208 .27799989 .3803711 .27799989 .35237123 .29899598 .33737184 .32099916 .33737184 .33898927 .33737184 .3639984 .3493805 .3639984 .38137818Z"/>
<path id="font_3_72" d="M.25498963 0V.0309906C.18798828 .0309906 .1769867 .0309906 .1769867 .07601929V.69433596L.032989503 .6826172V.6516113C.102996829 .6516113 .11099243 .64460757 .11099243 .5956421V.07595825C.11099243 .0309906 .099990848 .0309906 .032989503 .0309906V0L.14399719 .0029907227 .25498963 0Z"/>
<path id="font_3_502" d="M.20599365 .58932498C.20599365 .6493225 .18199158 .69433596 .13899231 .69433596 .10398865 .69433596 .085998538 .6673279 .085998538 .6413269 .085998538 .6153259 .102996829 .58833315 .13899231 .58833315 .15899658 .58833315 .17298889 .59832766 .1789856 .60432437 .17999268 .60632327 .18199158 .6073303 .18199158 .6073303 .18199158 .6073303 .18399048 .59332278 .18399048 .58932498 .18399048 .5573578 .1769867 .4854126 .11399841 .42347718 .101989749 .41148377 .101989749 .40948487 .101989749 .40649415 .101989749 .39949037 .10699463 .3955078 .11199951 .3955078 .12298584 .3955078 .20599365 .47143556 .20599365 .58932498Z"/>
<path id="font_3_98" d="M.3600006 .12823487C.3600006 .18122864 .32998658 .21122742 .31799317 .22323609 .2849884 .25523377 .24598694 .26322938 .20399475 .27124024 .147995 .28224183 .08099365 .29522706 .08099365 .35324098 .08099365 .38822938 .10699463 .42922975 .19299317 .42922975 .30299378 .42922975 .30799867 .3392334 .30999757 .30822755 .31098939 .2992401 .32199098 .2992401 .32199098 .2992401 .33499146 .2992401 .33499146 .30422975 .33499146 .32322694V.4242401C.33499146 .4412384 .33499146 .4482422 .32398988 .4482422 .31900025 .4482422 .31698609 .4482422 .3039856 .43623353 .30099488 .43223573 .29100038 .42323304 .2869873 .42022706 .24899292 .4482422 .20799256 .4482422 .19299317 .4482422 .070999149 .4482422 .032989503 .38124085 .032989503 .3252411 .032989503 .29023744 .04899597 .26223756 .07598877 .24023438 .10798645 .2142334 .13598633 .2082367 .20799256 .19422913 .22999573 .19021607 .31199647 .17422486 .31199647 .10221863 .31199647 .051223756 .2769928 .011245728 .19898987 .011245728 .114990238 .011245728 .07899475 .068222049 .05999756 .1532135 .056991579 .16621399 .055999757 .17021179 .04598999 .17021179 .032989503 .17021179 .032989503 .16322327 .032989503 .1452179V.013214111C.032989503-.003753662 .032989503-.0107421879 .04399109-.0107421879 .04899597-.0107421879 .049987794-.009750366 .068984989 .009246826 .070999149 .011245728 .070999149 .013214111 .08898926 .032226564 .1329956-.009750366 .17799378-.0107421879 .19898987-.0107421879 .31399537-.0107421879 .3600006 .05621338 .3600006 .1282196V.12823487Z"/>
<path id="font_3_63" d="M.5349884 0V.0309906C.48298646 .0309906 .45799256 .0309906 .45700074 .061019899V.25221253C.45700074 .3383026 .45700074 .36932374 .42599488 .405365 .4119873 .42237855 .3789978 .4423828 .32099916 .4423828 .23699951 .4423828 .19299317 .38233949 .1769867 .34629823H.17599488V.69433596L.03199768 .6826172V.6516113C.101989749 .6516113 .10998535 .64463809 .10998535 .59580996V.076034549C.10998535 .0309906 .09899902 .0309906 .03199768 .0309906V0L.14498902 .0029907227 .25698854 0V.0309906C.18998719 .0309906 .1789856 .0309906 .1789856 .076034549V.2602234C.1789856 .36431886 .25 .42037965 .31399537 .42037965 .3769989 .42037965 .3880005 .36631776 .3880005 .30926515V.076034549C.3880005 .0309906 .3769989 .0309906 .30999757 .0309906V0L.4229889 .0029907227 .5349884 0Z"/>
<path id="font_3_81" d="M.47099305 .21424866C.47099305 .34223939 .37098695 .4482422 .25 .4482422 .125 .4482422 .027999878 .3392334 .027999878 .21424866 .027999878 .085250858 .13198853-.0107421879 .24899292-.0107421879 .36999513-.0107421879 .47099305 .087249759 .47099305 .21424866M.3880005 .22224427C.3880005 .18624878 .3880005 .13224793 .3659973 .08824158 .34399415 .04324341 .2999878 .014251709 .25 .014251709 .20698548 .014251709 .16299439 .035247804 .13598633 .08125305 .11099243 .12524414 .11099243 .18624878 .11099243 .22224427 .11099243 .26124574 .11099243 .31523133 .1349945 .35923768 .1619873 .40522767 .20899964 .426239 .24899292 .426239 .29299928 .426239 .33599855 .40423585 .3619995 .36123658 .3880005 .3182373 .3880005 .26023866 .3880005 .22224427Z"/>
<path id="font_3_109" d="M.5349884 0V.0309906C.46499635 .0309906 .45700074 .037994386 .45700074 .08705139V.4423828L.30999757 .43066407V.3996582C.37998963 .3996582 .3880005 .39266969 .3880005 .34373475V.16601563C.3880005 .07910156 .33999635 .011245728 .2669983 .011245728 .18299866 .011245728 .1789856 .058135988 .1789856 .11009216V.4423828L.03199768 .43066407V.3996582C.10998535 .3996582 .10998535 .39666749 .10998535 .3078003V.15802002C.10998535 .080093387 .10998535-.0107421879 .2619934-.0107421879 .31799317-.0107421879 .3619995 .017242432 .3909912 .07910156V-.0107421879L.5349884 0Z"/>
<path id="font_3_50" d="M.4149933 .11933899C.4149933 .12934876 .40699769 .13134766 .4019928 .13134766 .3929901 .13134766 .3909912 .12535095 .3889923 .11734009 .35398866 .014251709 .2639923 .014251709 .2539978 .014251709 .20399475 .014251709 .1639862 .044281007 .14099121 .08131409 .11099243 .12934876 .11099243 .19540406 .11099243 .23144531H.3899994C.4119873 .23144531 .4149933 .23144531 .4149933 .2524414 .4149933 .35131837 .36099244 .4482422 .23599243 .4482422 .11999512 .4482422 .027999878 .34532167 .027999878 .22042847 .027999878 .08631897 .1329956-.0107421879 .24798584-.0107421879 .36999513-.0107421879 .4149933 .10032654 .4149933 .11933899M.34899903 .2524414H.11199951C.117996219 .40126039 .20199585 .426239 .23599243 .426239 .33898927 .426239 .34899903 .2913971 .34899903 .2524414Z"/>
<path id="font_3_84" d="M.5209961 .21636963C.5209961 .34336854 .42399598 .4423828 .31199647 .4423828 .23399353 .4423828 .19198609 .39837647 .17199707 .3763733V.4423828L.027999878 .43066407V.3996582C.09899902 .3996582 .10598755 .3936615 .10598755 .34973146V-.117996219C.10598755-.16308594 .09498596-.16308594 .027999878-.16308594V-.1940918L.13999939-.19110108 .25299073-.1940918V-.16308594C.18598938-.16308594 .1749878-.16308594 .1749878-.117996219V.050186159 .059173585C.17999268 .04319763 .22200012-.0107421879 .2979889-.0107421879 .4169922-.0107421879 .5209961 .087127689 .5209961 .21594239V.21636963M.43798829 .21594239C.43798829 .09512329 .36799623 .011245728 .2939911 .011245728 .2539978 .011245728 .21598816 .031219483 .18899536 .07215881 .1749878 .09312439 .1749878 .09411621 .1749878 .114089969V.33674623C.20399475 .38838197 .25299073 .41737367 .3039856 .41737367 .3769989 .41737367 .43798829 .32937623 .43798829 .21636963V.21594239Z"/>
<path id="font_3_105" d="M.33198548 .12385559V.18066406H.30699159V.12585449C.30699159 .052108766 .2769928 .014251709 .23999024 .014251709 .17298889 .014251709 .17298889 .10491943 .17298889 .12187195V.3996582H.31599427V.43066407H.17298889V.6142578H.147995C.14698792 .5324249 .116989139 .42565919 .018997193 .42166139V.3996582H.10398865V.12408447C.10398865 .0012512207 .19699097-.0107421879 .23298645-.0107421879 .3039856-.0107421879 .33198548 .060180665 .33198548 .12408447V.12385559Z"/>
<path id="font_4_1" d="M.33099366-.2400055C.33099366-.23701477 .33099366-.23500061 .31399537-.21800232 .18899536-.0920105 .15699768 .09700012 .15699768 .25 .15699768 .42399598 .19499207 .59799197 .31799317 .72299197 .33099366 .73498538 .33099366 .7369995 .33099366 .73999026 .33099366 .746994 .32699586 .75 .32099916 .75 .31098939 .75 .22099304 .6819916 .1619873 .5549927 .11099243 .44499208 .09899902 .33399964 .09899902 .25 .09899902 .17199707 .10998535 .050994874 .16499329-.06201172 .22499085-.18501282 .31098939-.25 .32099916-.25 .32699586-.25 .33099366-.24700928 .33099366-.2400055Z"/>
<path id="font_5_1" d="M.6589966 .23046875C.6759949 .23046875 .69400027 .23046875 .69400027 .25045777 .69400027 .27046205 .6759949 .27046205 .6589966 .27046205H.117996219C.100997928 .27046205 .08299255 .27046205 .08299255 .25045777 .08299255 .23046875 .100997928 .23046875 .117996219 .23046875H.6589966Z"/>
<path id="font_4_4" d="M.2899933 .35191346C.37199403 .37893678 .42999269 .4490509 .42999269 .52809146 .42999269 .6100464 .34199525 .6660156 .24598694 .6660156 .14498902 .6660156 .068984989 .60606387 .068984989 .53009036 .068984989 .49710084 .09098816 .47808839 .11999512 .47808839 .15098572 .47808839 .17098999 .50009158 .17098999 .5290985 .17098999 .57910159 .12399292 .57910159 .10899353 .57910159 .13999939 .62802127 .20599365 .64100649 .24198914 .64100649 .2829895 .64100649 .33799745 .6190338 .33799745 .5290985 .33799745 .51708987 .33599855 .45906068 .30999757 .4149933 .27999879 .36691285 .24598694 .36390687 .22099304 .36291505 .21299744 .36190797 .18899536 .35990907 .18199158 .35990907 .17399597 .35890199 .16699219 .35791017 .16699219 .3479004 .16699219 .33691407 .17399597 .33691407 .19099427 .33691407H.23498535C.31698609 .33691407 .35398866 .2686615 .35398866 .17037964 .35398866 .034469606 .2849884 .0055389406 .24099732 .0055389406 .19799805 .0055389406 .12298584 .022491456 .08799744 .08137512 .12298584 .07637024 .1539917 .09837341 .1539917 .1363678 .1539917 .17237854 .1269989 .19238281 .09799194 .19238281 .07398987 .19238281 .041992189 .17837525 .041992189 .1343689 .041992189 .043441774 .1349945-.022460938 .24398804-.022460938 .3659973-.022460938 .45700074 .06838989 .45700074 .17037964 .45700074 .252594 .3939972 .33088685 .2899933 .35191346Z"/>
<path id="font_6_1" d="M.20298767 .0009918213C.20298767 .066986087 .17799378 .10598755 .13899231 .10598755 .10598755 .10598755 .085998538 .08099365 .085998538 .052993776 .085998538 .025985718 .10598755 0 .13899231 0 .15098572 0 .1639862 .0039978029 .17399597 .0129852299 .1769867 .01499939 .17799378 .015991211 .1789856 .015991211 .17999268 .015991211 .18099976 .01499939 .18099976 .0009918213 .18099976-.07316589 .1459961-.13328552 .11299133-.16635132 .101989749-.17736817 .101989749-.17936707 .101989749-.18237305 .101989749-.18936157 .10699463-.19335938 .11199951-.19335938 .12298584-.19335938 .20298767-.116256717 .20298767 .0009918213Z"/>
<path id="font_4_3" d="M.1269989 .07699585 .23298645 .18003845C.3889923 .31811524 .44898988 .3721466 .44898988 .47216798 .44898988 .5860901 .35899354 .6660156 .23699951 .6660156 .12399292 .6660156 .049987794 .57411196 .049987794 .48516847 .049987794 .4291687 .099990848 .4291687 .102996829 .4291687 .11999512 .4291687 .15499878 .44117738 .15499878 .48217774 .15499878 .5081787 .13699341 .5341797 .101989749 .5341797 .09399414 .5341797 .09199524 .5341797 .08898926 .5331726 .11199951 .59806826 .1659851 .63500979 .22399903 .63500979 .31498719 .63500979 .35798646 .5541382 .35798646 .47216798 .35798646 .39215089 .30799867 .31311036 .25299073 .25108338L.06098938 .036987306C.049987794 .025985718 .049987794 .023986817 .049987794 0H.42099L.44898988 .17404175H.42399598C.4189911 .14402771 .4119873 .1000061 .4019928 .084991458 .394989 .07699585 .32899476 .07699585 .30699159 .07699585H.1269989Z"/>
<path id="font_4_2" d="M.2889862 .25C.2889862 .32798768 .27799989 .44898988 .22299195 .56199648 .16299439 .68499758 .07699585 .75 .066986087 .75 .06098938 .75 .056991579 .74598696 .056991579 .73999026 .056991579 .7369995 .056991579 .73498538 .07598877 .71699526 .17399597 .6179962 .23098755 .45899964 .23098755 .25 .23098755 .07899475 .19400025-.09700012 .069992069-.2230072 .056991579-.23500061 .056991579-.23701477 .056991579-.2400055 .056991579-.2460022 .06098938-.25 .066986087-.25 .07699585-.25 .16699219-.18200684 .22599793-.055007936 .2769928 .054992677 .2889862 .16600037 .2889862 .25Z"/>
<path id="font_3_59" d="M.4850006 .40411378C.4850006 .42111207 .47299195 .453125 .43399049 .453125 .4139862 .453125 .36999513 .44711305 .32798768 .40611268 .28599549 .43937684 .24398804 .4423828 .22200012 .4423828 .1289978 .4423828 .05999756 .37338258 .05999756 .29638673 .05999756 .25239564 .08198547 .21440125 .10699463 .19340515 .09399414 .17840576 .07598877 .14538574 .07598877 .11035156 .07598877 .07899475 .08898926 .04083252 .11999512 .020828248 .05999756 .003829956 .027999878-.039138795 .027999878-.07911682 .027999878-.15107727 .1269989-.20605469 .24899292-.20605469 .36698915-.20605469 .47099305-.15507508 .47099305-.07711792 .47099305-.042144777 .45700074 .008834839 .4059906 .036834718 .35299684 .064834598 .29499818 .064834598 .23399353 .064834598 .20899964 .064834598 .1659851 .064834598 .15899658 .065841678 .1269989 .069885257 .10598755 .101242069 .10598755 .13334656 .10598755 .13735962 .10598755 .16040039 .12298584 .18040467 .1619873 .15240479 .20298767 .14941406 .22200012 .14941406 .31498719 .14941406 .38398744 .21839905 .38398744 .2953949 .38398744 .3323822 .36799623 .36938478 .34298707 .39237977 .3789978 .42637635 .4149933 .43138124 .43299867 .43138124 .43299867 .43112184 .43998719 .43112184 .44299317 .43011476 .43199159 .42611695 .4269867 .41513063 .4269867 .40315248 .4269867 .38616944 .43998719 .37417604 .45599366 .37417604 .46598817 .37417604 .4850006 .3811798 .4850006 .4041443V.40411378M.30899049 .29626466C.30899049 .26930238 .30799867 .2373352 .29299928 .21235657 .2849884 .20037842 .2619934 .17240906 .22200012 .17240906 .1349945 .17240906 .1349945 .2722931 .1349945 .29527284 .1349945 .3222351 .13598633 .35420228 .15098572 .3791809 .15899658 .3913269 .18199158 .41937257 .22200012 .41937257 .30899049 .41937257 .30899049 .31922914 .30899049 .29618836V.29626466M.4189911-.07911682C.4189911-.13308716 .34799195-.18305969 .25-.18305969 .14898682-.18305969 .07998657-.13209534 .07998657-.07911682 .07998657-.03314209 .117996219 .003829956 .1619873 .0068359377H.22099304C.30699159 .0068359377 .4189911 .0068359377 .4189911-.07911682Z"/>
<path id="font_3_66" d="M.24699402 0V.0309906C.18099976 .0309906 .1769867 .035995485 .1769867 .075042728V.4423828L.036987306 .43066407V.3996582C.101989749 .3996582 .11099243 .3936615 .11099243 .3447113V.07595825C.11099243 .0309906 .099990848 .0309906 .032989503 .0309906V0L.14299011 .0029907227C.17799378 .0029907227 .21299744 .0009918213 .24699402 0M.19198609 .603775C.19198609 .6307678 .16899109 .6567688 .13899231 .6567688 .10499573 .6567688 .084991458 .6287689 .084991458 .603775 .084991458 .57676699 .10798645 .55078127 .13798523 .55078127 .17199707 .55078127 .19198609 .5787811 .19198609 .603775Z"/>
<path id="font_3_77" d="M.5349884 0V.0309906C.48298646 .0309906 .45799256 .0309906 .45700074 .061019899V.25221253C.45700074 .3383026 .45700074 .36932374 .42599488 .405365 .4119873 .42237855 .3789978 .4423828 .32099916 .4423828 .24798584 .4423828 .20098877 .39935304 .17298889 .33729554V.4423828L.03199768 .43066407V.3996582C.101989749 .3996582 .10998535 .39266969 .10998535 .34370423V.07595825C.10998535 .0309906 .09899902 .0309906 .03199768 .0309906V0L.14498902 .0029907227 .25698854 0V.0309906C.18998719 .0309906 .1789856 .0309906 .1789856 .07595825V.25978089C.1789856 .36431886 .25 .42037965 .31399537 .42037965 .3769989 .42037965 .3880005 .36631776 .3880005 .30926515V.076034549C.3880005 .0309906 .3769989 .0309906 .30999757 .0309906V0L.4229889 .0029907227 .5349884 0Z"/>
<path id="font_3_114" d="M.7029877 .3996582V.43066407C.68099978 .4286499 .6519928 .42765809 .6299896 .42765809L.5369873 .43066407V.3996582C.57299807 .39866639 .59498599 .38075257 .59498599 .35176087 .59498599 .34576417 .59498599 .34376527 .58999636 .33078004L.49899293 .07513428 .3999939 .35375978C.3959961 .36575318 .394989 .36775209 .394989 .37275697 .394989 .3996582 .43399049 .3996582 .45399476 .3996582V.43066407L.34999085 .42765809C.31999208 .42765809 .29100038 .4286499 .26098634 .43066407V.3996582C.2979889 .3996582 .31399537 .39767457 .32398988 .38476563 .32899476 .37875367 .33999635 .34877015 .34700013 .3297882L.26098634 .08811951 .1659851 .3547516C.16099549 .36676026 .16099549 .36875917 .16099549 .37275697 .16099549 .3996582 .19999695 .3996582 .21998596 .3996582V.43066407L.11099243 .42765809 .017990113 .43066407V.3996582C.067993167 .3996582 .07998657 .39668275 .09199524 .36476136L.21798706 .01121521C.22299195-.0027618409 .22599793-.0107421879 .23899842-.0107421879 .2519989-.0107421879 .2539978-.004760742 .25898744 .009216309L.3600006 .2918396 .46199037 .008224487C.46598817-.0027618409 .46899415-.0107421879 .48199464-.0107421879 .49499513-.0107421879 .49798585-.0017547608 .5019989 .008224487L.61898806 .3357849C.6369934 .38575746 .66799929 .39866639 .7029877 .3996582Z"/>
<path id="font_3_55" d="M.35699464 .63479617C.35699464 .6717987 .31999208 .7050781 .2669983 .7050781 .19699097 .7050781 .11199951 .65179446 .11199951 .5457611V.43066407H.032989503V.3996582H.11199951V.07595825C.11199951 .0309906 .100997928 .0309906 .033996583 .0309906V0L.147995 .0029907227C.18798828 .0029907227 .23498535 .0029907227 .2749939 0V.0309906H.2539978C.17999268 .0309906 .17799378 .04197693 .17799378 .07795715V.3996582H.2919922V.43066407H.1749878V.5467529C.1749878 .63479617 .22299195 .68307498 .2669983 .68307498 .269989 .68307498 .2849884 .68307498 .2999878 .675827 .28799439 .6717987 .269989 .6587982 .269989 .6338043 .269989 .61079409 .28599549 .5907898 .31298829 .5907898 .34199525 .5907898 .35699464 .61079409 .35699464 .63479617Z"/>
</defs>
<path transform="matrix(1.00005,0,0,-1.00006,11.7638859,143.15378)" d="M0 0H163.89252V141.34799H0Z" fill="#fffac2"/>
<path transform="matrix(1.00005,0,0,-1.00006,11.7638859,143.15378)" stroke-width=".3985" stroke-linecap="butt" stroke-miterlimit="10" stroke-linejoin="miter" fill="none" stroke="#d5d6d5" d="M0 0V141.34799M16.38925 0V141.34799M32.7785 0V141.34799M49.16776 0V141.34799M65.557 0V141.34799M81.94626 0V141.34799M98.33551 0V141.34799M114.72476 0V141.34799M131.11402 0V141.34799M147.50327 0V141.34799M163.89252 0V141.34799"/>
<path transform="matrix(1.00005,0,0,-1.00006,11.7638859,143.15378)" stroke-width=".3985" stroke-linecap="butt" stroke-miterlimit="10" stroke-linejoin="miter" fill="none" stroke="#d5d6d5" d="M16.38925 0V141.34799M147.50327 0V141.34799"/>
<path transform="matrix(1.00005,0,0,-1.00006,11.7638859,143.15378)" stroke-width=".3985" stroke-linecap="butt" stroke-miterlimit="10" stroke-linejoin="miter" fill="none" stroke="#d5d6d5" d="M0 0H163.89252M0 14.1348H163.89252M0 28.26959H163.89252M0 42.40439H163.89252M0 56.53918H163.89252M0 70.674H163.89252M0 84.80879H163.89252M0 98.94359H163.89252M0 113.07838H163.89252M0 127.21318H163.89252M0 141.34799H163.89252"/>
<path transform="matrix(1.00005,0,0,-1.00006,11.7638859,143.15378)" stroke-width=".3985" stroke-linecap="butt" stroke-miterlimit="10" stroke-linejoin="miter" fill="none" stroke="#d5d6d5" d="M0 14.1348H163.89252M0 127.21318H163.89252"/>
<path transform="matrix(1.00005,0,0,-1.00006,11.7638859,143.15378)" stroke-width=".19925" stroke-linecap="butt" stroke-miterlimit="10" stroke-linejoin="miter" fill="none" stroke="#929292" d="M0 69.2566V72.09137M16.38925 69.2566V72.09137M32.7785 69.2566V72.09137M49.16776 69.2566V72.09137M65.557 69.2566V72.09137M81.94626 69.2566V72.09137M98.33551 69.2566V72.09137M114.72476 69.2566V72.09137M131.11402 69.2566V72.09137M147.50327 69.2566V72.09137M163.89252 69.2566V72.09137"/>
<path transform="matrix(1.00005,0,0,-1.00006,11.7638859,143.15378)" stroke-width=".19925" stroke-linecap="butt" stroke-miterlimit="10" stroke-linejoin="miter" fill="none" stroke="#929292" d="M16.38925 68.54811V72.79985M147.50327 68.54811V72.79985"/>
<path transform="matrix(1.00005,0,0,-1.00006,11.7638859,143.15378)" stroke-width=".19925" stroke-linecap="butt" stroke-miterlimit="10" stroke-linejoin="miter" fill="none" stroke="#929292" d="M80.5288 0H83.36372M80.5288 14.1348H83.36372M80.5288 28.26959H83.36372M80.5288 42.40439H83.36372M80.5288 56.53918H83.36372M80.5288 70.674H83.36372M80.5288 84.80879H83.36372M80.5288 98.94359H83.36372M80.5288 113.07838H83.36372M80.5288 127.21318H83.36372M80.5288 141.34799H83.36372"/>
<path transform="matrix(1.00005,0,0,-1.00006,11.7638859,143.15378)" stroke-width=".19925" stroke-linecap="butt" stroke-miterlimit="10" stroke-linejoin="miter" fill="none" stroke="#929292" d="M79.82028 14.1348H84.07222M79.82028 127.21318H84.07222"/>
<path transform="matrix(1.00005,0,0,-1.00006,11.7638859,143.15378)" stroke-width=".3985" stroke-linecap="butt" stroke-miterlimit="10" stroke-linejoin="miter" fill="none" stroke="#000000" d="M1.99252 70.674H161.9"/>
<path transform="matrix(-1.00005,-0,0,1.00006,13.756505,72.47554)" d="M1.99252 0-1.19551 1.59401 0 0-1.19551-1.59401"/>
<path transform="matrix(1.00005,0,0,-1.00006,173.67197,72.47554)" d="M1.99252 0-1.19551 1.59401 0 0-1.19551-1.59401"/>
<path transform="matrix(1.00005,0,0,-1.00006,11.7638859,143.15378)" stroke-width=".3985" stroke-linecap="butt" stroke-miterlimit="10" stroke-linejoin="miter" fill="none" stroke="#000000" d="M81.94626 1.99252V139.35547"/>
<path transform="matrix(0,1.00006,1.00005,0,93.71423,141.16114)" d="M1.99252 0-1.19551 1.59401 0 0-1.19551-1.59401"/>
<path transform="matrix(0,-1.00006,-1.00005,-0,93.71423,3.7899476)" d="M1.99252 0-1.19551 1.59401 0 0-1.19551-1.59401"/>
<use data-text="&#x2212;" xlink:href="#font_1_1" transform="matrix(7.970498,0,0,-7.9705779,22.743435,83.258197)"/>
<use data-text="4" xlink:href="#font_2_1" transform="matrix(7.970498,0,0,-7.9705779,29.329762,83.258197)"/>
<use data-text="4" xlink:href="#font_2_1" transform="matrix(7.970498,0,0,-7.9705779,157.15715,83.258197)"/>
<use data-text="&#x2212;" xlink:href="#font_1_1" transform="matrix(7.970498,0,0,-7.9705779,79.13725,131.17105)"/>
<use data-text="4" xlink:href="#font_2_1" transform="matrix(7.970498,0,0,-7.9705779,85.72358,131.17105)"/>
<use data-text="4" xlink:href="#font_2_1" transform="matrix(7.970498,0,0,-7.9705779,85.72458,18.501297)"/>
<path transform="matrix(1.00005,0,0,-1.00006,11.7638859,143.15378)" stroke-width=".3985" stroke-linecap="butt" stroke-miterlimit="10" stroke-linejoin="miter" fill="none" stroke="#9e0c0f" d=""/>
<use data-text="C" xlink:href="#font_3_42" transform="matrix(9.963098,0,0,-9.963197,28.446719,97.69605)" fill="#9e0c0f"/>
<use data-text="a" xlink:href="#font_3_28" transform="matrix(9.963098,0,0,-9.963197,35.640077,97.69605)" fill="#9e0c0f"/>
<use data-text="r" xlink:href="#font_3_96" transform="matrix(9.963098,0,0,-9.963197,40.621629,97.69605)" fill="#9e0c0f"/>
<use data-text="l" xlink:href="#font_3_72" transform="matrix(9.963098,0,0,-9.963197,44.52716,97.69605)" fill="#9e0c0f"/>
<use data-text="&#x2019;" xlink:href="#font_3_502" transform="matrix(9.963098,0,0,-9.963197,47.296899,97.69605)" fill="#9e0c0f"/>
<use data-text="s" xlink:href="#font_3_98" transform="matrix(9.963098,0,0,-9.963197,50.066637,97.69605)" fill="#9e0c0f"/>
<use data-text="h" xlink:href="#font_3_63" transform="matrix(9.963098,0,0,-9.963197,57.29985,97.69605)" fill="#9e0c0f"/>
<use data-text="o" xlink:href="#font_3_81" transform="matrix(9.963098,0,0,-9.963197,62.839334,97.69605)" fill="#9e0c0f"/>
<use data-text="u" xlink:href="#font_3_109" transform="matrix(9.963098,0,0,-9.963197,67.820888,97.69605)" fill="#9e0c0f"/>
<use data-text="s" xlink:href="#font_3_98" transform="matrix(9.963098,0,0,-9.963197,73.36037,97.69605)" fill="#9e0c0f"/>
<use data-text="e" xlink:href="#font_3_50" transform="matrix(9.963098,0,0,-9.963197,77.28583,97.69605)" fill="#9e0c0f"/>
<path transform="matrix(1.00005,0,0,-1.00006,11.7638859,143.15378)" stroke-width=".3985" stroke-linecap="butt" stroke-miterlimit="10" stroke-linejoin="miter" fill="none" stroke="#b3d9d9" d="M78.42644 68.68668 55.95868 55.99854"/>
<path transform="matrix(1.00005,0,0,-1.00006,11.7638859,143.15378)" stroke-width=".3985" stroke-linecap="butt" stroke-miterlimit="10" stroke-linejoin="miter" fill="none" stroke="#9e0c0f" d=""/>
<use data-text="p" xlink:href="#font_3_84" transform="matrix(9.963098,0,0,-9.963197,.7443352,22.54454)" fill="#9e0c0f"/>
<use data-text="e" xlink:href="#font_3_50" transform="matrix(9.963098,0,0,-9.963197,6.552822,22.54454)" fill="#9e0c0f"/>
<use data-text="t" xlink:href="#font_3_105" transform="matrix(9.963098,0,0,-9.963197,10.976437,22.54454)" fill="#9e0c0f"/>
<use data-text="s" xlink:href="#font_3_98" transform="matrix(9.963098,0,0,-9.963197,18.169789,22.54454)" fill="#9e0c0f"/>
<use data-text="h" xlink:href="#font_3_63" transform="matrix(9.963098,0,0,-9.963197,22.09525,22.54454)" fill="#9e0c0f"/>
<use data-text="o" xlink:href="#font_3_81" transform="matrix(9.963098,0,0,-9.963197,27.634732,22.54454)" fill="#9e0c0f"/>
<use data-text="p" xlink:href="#font_3_84" transform="matrix(9.963098,0,0,-9.963197,32.616285,22.54454)" fill="#9e0c0f"/>
<path transform="matrix(1.00005,0,0,-1.00006,11.7638859,143.15378)" stroke-width=".3985" stroke-linecap="butt" stroke-miterlimit="10" stroke-linejoin="miter" fill="none" stroke="#b3d9d9" d="M29.25868 102.33064 15.94067 115.14928"/>
<use data-text="(" xlink:href="#font_4_1" transform="matrix(9.963098,0,0,-9.963197,48.063699,38.19348)" fill="#9e0c0f"/>
<use data-text="&#x2212;" xlink:href="#font_5_1" transform="matrix(9.963098,0,0,-9.963197,51.937894,38.19348)" fill="#9e0c0f"/>
<use data-text="3" xlink:href="#font_4_4" transform="matrix(9.963098,0,0,-9.963197,59.68728,38.19348)" fill="#9e0c0f"/>
<use data-text="," xlink:href="#font_6_1" transform="matrix(9.963098,0,0,-9.963197,64.66853,38.19348)" fill="#9e0c0f"/>
<use data-text="2" xlink:href="#font_4_3" transform="matrix(9.963098,0,0,-9.963197,69.096759,38.19348)" fill="#9e0c0f"/>
<use data-text=")" xlink:href="#font_4_2" transform="matrix(9.963098,0,0,-9.963197,74.0783,38.19348)" fill="#9e0c0f"/>
<path transform="matrix(1.00005,0,0,-1.00006,11.7638859,143.15378)" stroke-width=".3985" stroke-linecap="butt" stroke-miterlimit="10" stroke-linejoin="miter" fill="none" stroke="#9e0c0f" stroke-opacity="0" d=""/>
<use data-text="g" xlink:href="#font_3_59" transform="matrix(9.963098,0,0,-9.963197,-4.417923,114.97209)" fill="#9e0c0f" fill-opacity="0"/>
<use data-text="a" xlink:href="#font_3_28" transform="matrix(9.963098,0,0,-9.963197,.56362536,114.97209)" fill="#9e0c0f" fill-opacity="0"/>
<use data-text="s" xlink:href="#font_3_98" transform="matrix(9.963098,0,0,-9.963197,5.5451738,114.97209)" fill="#9e0c0f" fill-opacity="0"/>
<use data-text="s" xlink:href="#font_3_98" transform="matrix(9.963098,0,0,-9.963197,12.778381,114.97209)" fill="#9e0c0f" fill-opacity="0"/>
<use data-text="t" xlink:href="#font_3_105" transform="matrix(9.963098,0,0,-9.963197,16.703843,114.97209)" fill="#9e0c0f" fill-opacity="0"/>
<use data-text="a" xlink:href="#font_3_28" transform="matrix(9.963098,0,0,-9.963197,20.57949,114.97209)" fill="#9e0c0f" fill-opacity="0"/>
<use data-text="t" xlink:href="#font_3_105" transform="matrix(9.963098,0,0,-9.963197,25.561036,114.97209)" fill="#9e0c0f" fill-opacity="0"/>
<use data-text="i" xlink:href="#font_3_66" transform="matrix(9.963098,0,0,-9.963197,29.436684,114.97209)" fill="#9e0c0f" fill-opacity="0"/>
<use data-text="o" xlink:href="#font_3_81" transform="matrix(9.963098,0,0,-9.963197,32.20642,114.97209)" fill="#9e0c0f" fill-opacity="0"/>
<use data-text="n" xlink:href="#font_3_77" transform="matrix(9.963098,0,0,-9.963197,37.187967,114.97209)" fill="#9e0c0f" fill-opacity="0"/>
<path transform="matrix(1.00005,0,0,-1.00006,11.7638859,143.15378)" stroke-width=".3985" stroke-linecap="butt" stroke-miterlimit="10" stroke-linejoin="miter" fill="none" stroke="#b3d9d9" stroke-opacity="0" d="M45.64793 15.50697 27.43945 22.60815"/>
<path transform="matrix(1.00005,0,0,-1.00006,11.7638859,143.15378)" stroke-width=".3985" stroke-linecap="butt" stroke-miterlimit="10" stroke-linejoin="miter" fill="none" stroke="#9e0c0f" stroke-opacity="0" d=""/>
<use data-text="r" xlink:href="#font_3_96" transform="matrix(9.963098,0,0,-9.963197,144.69052,48.190088)" fill="#9e0c0f" fill-opacity="0"/>
<use data-text="e" xlink:href="#font_3_50" transform="matrix(9.963098,0,0,-9.963197,148.59606,48.190088)" fill="#9e0c0f" fill-opacity="0"/>
<use data-text="s" xlink:href="#font_3_98" transform="matrix(9.963098,0,0,-9.963197,153.01967,48.190088)" fill="#9e0c0f" fill-opacity="0"/>
<use data-text="t" xlink:href="#font_3_105" transform="matrix(9.963098,0,0,-9.963197,156.94513,48.190088)" fill="#9e0c0f" fill-opacity="0"/>
<use data-text="a" xlink:href="#font_3_28" transform="matrix(9.963098,0,0,-9.963197,160.82077,48.190088)" fill="#9e0c0f" fill-opacity="0"/>
<use data-text="u" xlink:href="#font_3_109" transform="matrix(9.963098,0,0,-9.963197,165.80233,48.190088)" fill="#9e0c0f" fill-opacity="0"/>
<use data-text="r" xlink:href="#font_3_96" transform="matrix(9.963098,0,0,-9.963197,171.3418,48.190088)" fill="#9e0c0f" fill-opacity="0"/>
<use data-text="a" xlink:href="#font_3_28" transform="matrix(9.963098,0,0,-9.963197,175.24735,48.190088)" fill="#9e0c0f" fill-opacity="0"/>
<use data-text="n" xlink:href="#font_3_77" transform="matrix(9.963098,0,0,-9.963197,180.2289,48.190088)" fill="#9e0c0f" fill-opacity="0"/>
<use data-text="t" xlink:href="#font_3_105" transform="matrix(9.963098,0,0,-9.963197,185.48941,48.190088)" fill="#9e0c0f" fill-opacity="0"/>
<path transform="matrix(1.00005,0,0,-1.00006,11.7638859,143.15378)" stroke-width=".3985" stroke-linecap="butt" stroke-miterlimit="10" stroke-linejoin="miter" fill="none" stroke="#b3d9d9" stroke-opacity="0" d="M118.24458 111.76653 137.45471 104.60501"/>
<path transform="matrix(1.00005,0,0,-1.00006,11.7638859,143.15378)" stroke-width=".3985" stroke-linecap="butt" stroke-miterlimit="10" stroke-linejoin="miter" fill="none" stroke="#000000" d="M163.89252 70.674"/>
<use data-text="e" xlink:href="#font_3_50" transform="matrix(9.963098,0,0,-9.963197,154.93805,68.84632)"/>
<use data-text="a" xlink:href="#font_3_28" transform="matrix(9.963098,0,0,-9.963197,159.36167,68.84632)"/>
<use data-text="s" xlink:href="#font_3_98" transform="matrix(9.963098,0,0,-9.963197,164.3432,68.84632)"/>
<use data-text="t" xlink:href="#font_3_105" transform="matrix(9.963098,0,0,-9.963197,168.26868,68.84632)"/>
<path transform="matrix(1.00005,0,0,-1.00006,11.7638859,143.15378)" stroke-width=".3985" stroke-linecap="butt" stroke-miterlimit="10" stroke-linejoin="miter" fill="none" stroke="#000000" d="M0 70.674"/>
<use data-text="w" xlink:href="#font_3_114" transform="matrix(9.963098,0,0,-9.963197,15.284061,68.84632)"/>
<use data-text="e" xlink:href="#font_3_50" transform="matrix(9.963098,0,0,-9.963197,22.198452,68.84632)"/>
<use data-text="s" xlink:href="#font_3_98" transform="matrix(9.963098,0,0,-9.963197,26.622067,68.84632)"/>
<use data-text="t" xlink:href="#font_3_105" transform="matrix(9.963098,0,0,-9.963197,30.547528,68.84632)"/>
<path transform="matrix(1.00005,0,0,-1.00006,11.7638859,143.15378)" stroke-width=".3985" stroke-linecap="butt" stroke-miterlimit="10" stroke-linejoin="miter" fill="none" stroke="#000000" d="M81.94626 141.34799"/>
<use data-text="n" xlink:href="#font_3_77" transform="matrix(9.963098,0,0,-9.963197,97.23416,12.231934)"/>
<use data-text="o" xlink:href="#font_3_81" transform="matrix(9.963098,0,0,-9.963197,102.77364,12.231934)"/>
<use data-text="r" xlink:href="#font_3_96" transform="matrix(9.963098,0,0,-9.963197,107.755199,12.231934)"/>
<use data-text="t" xlink:href="#font_3_105" transform="matrix(9.963098,0,0,-9.963197,111.66073,12.231934)"/>
<use data-text="h" xlink:href="#font_3_63" transform="matrix(9.963098,0,0,-9.963197,115.53638,12.231934)"/>
<path transform="matrix(1.00005,0,0,-1.00006,11.7638859,143.15378)" stroke-width=".3985" stroke-linecap="butt" stroke-miterlimit="10" stroke-linejoin="miter" fill="none" stroke="#000000" d="M81.94626 0"/>
<use data-text="s" xlink:href="#font_3_98" transform="matrix(9.963098,0,0,-9.963197,97.23416,139.52457)"/>
<use data-text="o" xlink:href="#font_3_81" transform="matrix(9.963098,0,0,-9.963197,101.15962,139.52457)"/>
<use data-text="u" xlink:href="#font_3_109" transform="matrix(9.963098,0,0,-9.963197,106.14117,139.52457)"/>
<use data-text="t" xlink:href="#font_3_105" transform="matrix(9.963098,0,0,-9.963197,111.68065,139.52457)"/>
<use data-text="h" xlink:href="#font_3_63" transform="matrix(9.963098,0,0,-9.963197,115.5563,139.52457)"/>
<path transform="matrix(1.00005,0,0,-1.00006,11.7638859,143.15378)" stroke-width=".99628" stroke-linecap="butt" stroke-miterlimit="10" stroke-linejoin="miter" fill="none" stroke="#9e0c0f" d="M81.94626 70.674H32.7785"/>
<use data-text="l" xlink:href="#font_3_72" transform="matrix(9.963098,0,0,-9.963197,57.92019,83.31819)" fill="#9e0c0f"/>
<use data-text="e" xlink:href="#font_3_50" transform="matrix(9.963098,0,0,-9.963197,60.68993,83.31819)" fill="#9e0c0f"/>
<use data-text="f" xlink:href="#font_3_55" transform="matrix(9.963098,0,0,-9.963197,65.11355,83.31819)" fill="#9e0c0f"/>
<use data-text="t" xlink:href="#font_3_105" transform="matrix(9.963098,0,0,-9.963197,68.162258,83.31819)" fill="#9e0c0f"/>
<use data-text="3" xlink:href="#font_4_4" transform="matrix(9.963098,0,0,-9.963197,75.35506,83.31819)" fill="#9e0c0f"/>
<path transform="matrix(1.00005,0,0,-1.00006,11.7638859,143.15378)" stroke-width=".99628" stroke-linecap="butt" stroke-miterlimit="10" stroke-linejoin="miter" fill="none" stroke="#9e0c0f" d="M32.7785 70.674V93.22742"/>
<path transform="matrix(0,-1.00006,-1.00005,-0,44.54402,49.92077)" d="M2.8892 0-1.73352 2.31136 0 0-1.73352-2.31136" fill="#9e0c0f"/>
<use data-text="u" xlink:href="#font_3_109" transform="matrix(0,-9.963197,-9.963098,-0,54.784029,69.44237)" fill="#9e0c0f"/>
<use data-text="p" xlink:href="#font_3_84" transform="matrix(0,-9.963197,-9.963098,-0,54.784029,63.90283)" fill="#9e0c0f"/>
<use data-text="2" xlink:href="#font_4_3" transform="matrix(0,-9.963197,-9.963098,-0,54.784029,55.04551)" fill="#9e0c0f"/>
<path transform="matrix(1.00005,0,0,-1.00006,11.7638859,143.15378)" d="M83.93881 70.674C83.93881 71.77446 83.04672 72.66655 81.94626 72.66655 80.84578 72.66655 79.9537 71.77446 79.9537 70.674 79.9537 69.57352 80.84578 68.68144 81.94626 68.68144 83.04672 68.68144 83.93881 69.57352 83.93881 70.674ZM81.94626 70.674" fill="#9e0c0f"/>
<path transform="matrix(1.00005,0,0,-1.00006,11.7638859,143.15378)" stroke-width=".3985" stroke-linecap="butt" stroke-miterlimit="10" stroke-linejoin="miter" fill="none" stroke="#9e0c0f" d="M83.93881 70.674C83.93881 71.77446 83.04672 72.66655 81.94626 72.66655 80.84578 72.66655 79.9537 71.77446 79.9537 70.674 79.9537 69.57352 80.84578 68.68144 81.94626 68.68144 83.04672 68.68144 83.93881 69.57352 83.93881 70.674ZM81.94626 70.674"/>
<path transform="matrix(1.00005,0,0,-1.00006,11.7638859,143.15378)" stroke-width=".3985" stroke-linecap="butt" stroke-miterlimit="10" stroke-linejoin="miter" fill="none" stroke="#9e0c0f" d=""/>
<path transform="matrix(1.00005,0,0,-1.00006,11.7638859,143.15378)" d="M34.77106 98.94359C34.77106 100.04407 33.87897 100.93614 32.7785 100.93614 31.67802 100.93614 30.78595 100.04407 30.78595 98.94359 30.78595 97.84312 31.67802 96.95103 32.7785 96.95103 33.87897 96.95103 34.77106 97.84312 34.77106 98.94359ZM32.7785 98.94359" fill="#9e0c0f"/>
<path transform="matrix(1.00005,0,0,-1.00006,11.7638859,143.15378)" stroke-width=".3985" stroke-linecap="butt" stroke-miterlimit="10" stroke-linejoin="miter" fill="none" stroke="#9e0c0f" d="M34.77106 98.94359C34.77106 100.04407 33.87897 100.93614 32.7785 100.93614 31.67802 100.93614 30.78595 100.04407 30.78595 98.94359 30.78595 97.84312 31.67802 96.95103 32.7785 96.95103 33.87897 96.95103 34.77106 97.84312 34.77106 98.94359ZM32.7785 98.94359"/>
<path transform="matrix(1.00005,0,0,-1.00006,11.7638859,143.15378)" stroke-width=".3985" stroke-linecap="butt" stroke-miterlimit="10" stroke-linejoin="miter" fill="none" stroke="#9e0c0f" d=""/>
<path transform="matrix(1.00005,0,0,-1.00006,11.7638859,143.15378)" d="M51.16031 14.1348C51.16031 15.23526 50.26822 16.12735 49.16776 16.12735 48.06728 16.12735 47.1752 15.23526 47.1752 14.1348 47.1752 13.03432 48.06728 12.14224 49.16776 12.14224 50.26822 12.14224 51.16031 13.03432 51.16031 14.1348ZM49.16776 14.1348" fill="#9e0c0f" fill-opacity="0"/>
<path transform="matrix(1.00005,0,0,-1.00006,11.7638859,143.15378)" stroke-width=".3985" stroke-linecap="butt" stroke-miterlimit="10" stroke-linejoin="miter" fill="none" stroke="#9e0c0f" stroke-opacity="0" d="M51.16031 14.1348C51.16031 15.23526 50.26822 16.12735 49.16776 16.12735 48.06728 16.12735 47.1752 15.23526 47.1752 14.1348 47.1752 13.03432 48.06728 12.14224 49.16776 12.14224 50.26822 12.14224 51.16031 13.03432 51.16031 14.1348ZM49.16776 14.1348"/>
<path transform="matrix(1.00005,0,0,-1.00006,11.7638859,143.15378)" stroke-width=".3985" stroke-linecap="butt" stroke-miterlimit="10" stroke-linejoin="miter" fill="none" stroke="#9e0c0f" stroke-opacity="0" d=""/>
<path transform="matrix(1.00005,0,0,-1.00006,11.7638859,143.15378)" d="M116.71732 113.07838C116.71732 114.17886 115.82524 115.07094 114.72476 115.07094 113.6243 115.07094 112.73221 114.17886 112.73221 113.07838 112.73221 111.97792 113.6243 111.08583 114.72476 111.08583 115.82524 111.08583 116.71732 111.97792 116.71732 113.07838ZM114.72476 113.07838" fill="#9e0c0f" fill-opacity="0"/>
<path transform="matrix(1.00005,0,0,-1.00006,11.7638859,143.15378)" stroke-width=".3985" stroke-linecap="butt" stroke-miterlimit="10" stroke-linejoin="miter" fill="none" stroke="#9e0c0f" stroke-opacity="0" d="M116.71732 113.07838C116.71732 114.17886 115.82524 115.07094 114.72476 115.07094 113.6243 115.07094 112.73221 114.17886 112.73221 113.07838 112.73221 111.97792 113.6243 111.08583 114.72476 111.08583 115.82524 111.08583 116.71732 111.97792 116.71732 113.07838ZM114.72476 113.07838"/>
<path transform="matrix(1.00005,0,0,-1.00006,11.7638859,143.15378)" stroke-width=".3985" stroke-linecap="butt" stroke-miterlimit="10" stroke-linejoin="miter" fill="none" stroke="#9e0c0f" stroke-opacity="0" d=""/>
</svg>
