<svg xmlns="http://www.w3.org/2000/svg" xmlns:xlink="http://www.w3.org/1999/xlink" version="1.1" width="90" height="79" viewBox="0 0 90 79">
<defs>
<path id="font_1_1" d="M.69898989 .22743225C.71499636 .22743225 .7369995 .22743225 .7369995 .25042726 .7369995 .2734375 .71499636 .2734375 .69898989 .2734375H.12599182C.10998535 .2734375 .08799744 .2734375 .08799744 .25042726 .08799744 .22743225 .10998535 .22743225 .12599182 .22743225H.69898989Z"/>
<path id="font_2_1" d="M.3939972 .6468048C.3939972 .6667938 .3939972 .6748047 .37298585 .6748047 .3600006 .6748047 .35899354 .6737976 .34899903 .65979006L.02999878 .197052V.1640625H.31199647V.08100891C.31199647 .04399109 .30899049 .032989503 .23199463 .032989503H.20899964V0C.2939911 .0029907227 .29599 .0029907227 .35299684 .0029907227 .4099884 .0029907227 .4119873 .0029907227 .49699403 0V.032989503H.47399903C.39698792 .032989503 .3939972 .04399109 .3939972 .08100891V.1640625H.5V.197052H.3939972V.6468048M.31900025 .5658417V.197052H.06498718L.31900025 .5658417Z"/>
<path id="font_3_1" d="M.33099366-.2400055C.33099366-.23701477 .33099366-.23500061 .31399537-.21800232 .18899536-.0920105 .15699768 .09700012 .15699768 .25 .15699768 .42399598 .19499207 .59799197 .31799317 .72299197 .33099366 .73498538 .33099366 .7369995 .33099366 .73999026 .33099366 .746994 .32699586 .75 .32099916 .75 .31098939 .75 .22099304 .6819916 .1619873 .5549927 .11099243 .44499208 .09899902 .33399964 .09899902 .25 .09899902 .17199707 .10998535 .050994874 .16499329-.06201172 .22499085-.18501282 .31098939-.25 .32099916-.25 .32699586-.25 .33099366-.24700928 .33099366-.2400055Z"/>
<path id="font_3_3" d="M.2939911 .64004519C.2939911 .66400149 .2939911 .6660156 .2709961 .6660156 .20899964 .60227969 .12098694 .60227969 .08898926 .60227969V.57128909C.10899353 .57128909 .16799927 .57128909 .21998596 .5972748V.07902527C.21998596 .042999269 .21699524 .0309906 .1269989 .0309906H.09498596V0C.12998963 .0029907227 .21699524 .0029907227 .25698854 .0029907227 .29699708 .0029907227 .38398744 .0029907227 .4189911 0V.0309906H.3869934C.29699708 .0309906 .2939911 .041992189 .2939911 .07902527V.64004519Z"/>
<path id="font_4_1" d="M.20298767 .0009918213C.20298767 .066986087 .17799378 .10598755 .13899231 .10598755 .10598755 .10598755 .085998538 .08099365 .085998538 .052993776 .085998538 .025985718 .10598755 0 .13899231 0 .15098572 0 .1639862 .0039978029 .17399597 .0129852299 .1769867 .01499939 .17799378 .015991211 .1789856 .015991211 .17999268 .015991211 .18099976 .01499939 .18099976 .0009918213 .18099976-.07316589 .1459961-.13328552 .11299133-.16635132 .101989749-.17736817 .101989749-.17936707 .101989749-.18237305 .101989749-.18936157 .10699463-.19335938 .11199951-.19335938 .12298584-.19335938 .20298767-.116256717 .20298767 .0009918213Z"/>
<path id="font_3_4" d="M.2899933 .35191346C.37199403 .37893678 .42999269 .4490509 .42999269 .52809146 .42999269 .6100464 .34199525 .6660156 .24598694 .6660156 .14498902 .6660156 .068984989 .60606387 .068984989 .53009036 .068984989 .49710084 .09098816 .47808839 .11999512 .47808839 .15098572 .47808839 .17098999 .50009158 .17098999 .5290985 .17098999 .57910159 .12399292 .57910159 .10899353 .57910159 .13999939 .62802127 .20599365 .64100649 .24198914 .64100649 .2829895 .64100649 .33799745 .6190338 .33799745 .5290985 .33799745 .51708987 .33599855 .45906068 .30999757 .4149933 .27999879 .36691285 .24598694 .36390687 .22099304 .36291505 .21299744 .36190797 .18899536 .35990907 .18199158 .35990907 .17399597 .35890199 .16699219 .35791017 .16699219 .3479004 .16699219 .33691407 .17399597 .33691407 .19099427 .33691407H.23498535C.31698609 .33691407 .35398866 .2686615 .35398866 .17037964 .35398866 .034469606 .2849884 .0055389406 .24099732 .0055389406 .19799805 .0055389406 .12298584 .022491456 .08799744 .08137512 .12298584 .07637024 .1539917 .09837341 .1539917 .1363678 .1539917 .17237854 .1269989 .19238281 .09799194 .19238281 .07398987 .19238281 .041992189 .17837525 .041992189 .1343689 .041992189 .043441774 .1349945-.022460938 .24398804-.022460938 .3659973-.022460938 .45700074 .06838989 .45700074 .17037964 .45700074 .252594 .3939972 .33088685 .2899933 .35191346Z"/>
<path id="font_3_2" d="M.2889862 .25C.2889862 .32798768 .27799989 .44898988 .22299195 .56199648 .16299439 .68499758 .07699585 .75 .066986087 .75 .06098938 .75 .056991579 .74598696 .056991579 .73999026 .056991579 .7369995 .056991579 .73498538 .07598877 .71699526 .17399597 .6179962 .23098755 .45899964 .23098755 .25 .23098755 .07899475 .19400025-.09700012 .069992069-.2230072 .056991579-.23500061 .056991579-.23701477 .056991579-.2400055 .056991579-.2460022 .06098938-.25 .066986087-.25 .07699585-.25 .16699219-.18200684 .22599793-.055007936 .2769928 .054992677 .2889862 .16600037 .2889862 .25Z"/>
</defs>
<path transform="matrix(1.00003,0,0,-1.00003,1.4615555,76.988918)" d="M0 0H87.17422V75.18898H0Z" fill="#fffac2"/>
<path transform="matrix(1.00003,0,0,-1.00003,1.4615555,76.988918)" stroke-width=".3985" stroke-linecap="butt" stroke-miterlimit="10" stroke-linejoin="miter" fill="none" stroke="#d5d6d5" d="M0 0V75.18898M8.71742 0V75.18898M17.43484 0V75.18898M26.15227 0V75.18898M34.86969 0V75.18898M43.58711 0V75.18898M52.30453 0V75.18898M61.02196 0V75.18898M69.73938 0V75.18898M78.4568 0V75.18898M87.17422 0V75.18898"/>
<path transform="matrix(1.00003,0,0,-1.00003,1.4615555,76.988918)" stroke-width=".3985" stroke-linecap="butt" stroke-miterlimit="10" stroke-linejoin="miter" fill="none" stroke="#d5d6d5" d="M8.71742 0V75.18898M78.4568 0V75.18898"/>
<path transform="matrix(1.00003,0,0,-1.00003,1.4615555,76.988918)" stroke-width=".3985" stroke-linecap="butt" stroke-miterlimit="10" stroke-linejoin="miter" fill="none" stroke="#d5d6d5" d="M0 0H87.17422M0 7.51889H87.17422M0 15.0378H87.17422M0 22.55669H87.17422M0 30.07559H87.17422M0 37.59448H87.17422M0 45.11339H87.17422M0 52.63228H87.17422M0 60.15118H87.17422M0 67.67007H87.17422M0 75.18898H87.17422"/>
<path transform="matrix(1.00003,0,0,-1.00003,1.4615555,76.988918)" stroke-width=".3985" stroke-linecap="butt" stroke-miterlimit="10" stroke-linejoin="miter" fill="none" stroke="#d5d6d5" d="M0 7.51889H87.17422M0 67.67007H87.17422"/>
<path transform="matrix(1.00003,0,0,-1.00003,1.4615555,76.988918)" stroke-width=".19925" stroke-linecap="butt" stroke-miterlimit="10" stroke-linejoin="miter" fill="none" stroke="#929292" d="M0 36.1771V39.01187M8.71742 36.1771V39.01187M17.43484 36.1771V39.01187M26.15227 36.1771V39.01187M34.86969 36.1771V39.01187M43.58711 36.1771V39.01187M52.30453 36.1771V39.01187M61.02196 36.1771V39.01187M69.73938 36.1771V39.01187M78.4568 36.1771V39.01187M87.17422 36.1771V39.01187"/>
<path transform="matrix(1.00003,0,0,-1.00003,1.4615555,76.988918)" stroke-width=".19925" stroke-linecap="butt" stroke-miterlimit="10" stroke-linejoin="miter" fill="none" stroke="#929292" d="M8.71742 35.46861V39.72035M78.4568 35.46861V39.72035"/>
<path transform="matrix(1.00003,0,0,-1.00003,1.4615555,76.988918)" stroke-width=".19925" stroke-linecap="butt" stroke-miterlimit="10" stroke-linejoin="miter" fill="none" stroke="#929292" d="M42.16975 0H45.00446M42.16975 7.51889H45.00446M42.16975 15.0378H45.00446M42.16975 22.55669H45.00446M42.16975 30.07559H45.00446M42.16975 37.59448H45.00446M42.16975 45.11339H45.00446M42.16975 52.63228H45.00446M42.16975 60.15118H45.00446M42.16975 67.67007H45.00446M42.16975 75.18898H45.00446"/>
<path transform="matrix(1.00003,0,0,-1.00003,1.4615555,76.988918)" stroke-width=".19925" stroke-linecap="butt" stroke-miterlimit="10" stroke-linejoin="miter" fill="none" stroke="#929292" d="M41.46127 7.51889H45.71292M41.46127 67.67007H45.71292"/>
<path transform="matrix(1.00003,0,0,-1.00003,1.4615555,76.988918)" stroke-width=".3985" stroke-linecap="butt" stroke-miterlimit="10" stroke-linejoin="miter" fill="none" stroke="#000000" d="M1.99252 37.59448H85.18169"/>
<path transform="matrix(-1.00003,-0,0,1.00003,3.4541355,39.393308)" d="M1.99252 0-1.19551 1.59401 0 0-1.19551-1.59401"/>
<path transform="matrix(1.00003,0,0,-1.00003,86.6458,39.393308)" d="M1.99252 0-1.19551 1.59401 0 0-1.19551-1.59401"/>
<path transform="matrix(1.00003,0,0,-1.00003,1.4615555,76.988918)" stroke-width=".3985" stroke-linecap="butt" stroke-miterlimit="10" stroke-linejoin="miter" fill="none" stroke="#000000" d="M43.58711 1.99252V73.19646"/>
<path transform="matrix(0,1.00003,1.00003,0,45.049974,74.99634)" d="M1.99252 0-1.19551 1.59401 0 0-1.19551-1.59401"/>
<path transform="matrix(0,-1.00003,-1.00003,-0,45.049974,3.7902604)" d="M1.99252 0-1.19551 1.59401 0 0-1.19551-1.59401"/>
<use data-text="&#x2212;" xlink:href="#font_1_1" transform="matrix(7.9703395,0,0,-7.9703395,4.768655,50.17611)"/>
<use data-text="4" xlink:href="#font_2_1" transform="matrix(7.9703395,0,0,-7.9703395,11.355853,50.17611)"/>
<use data-text="4" xlink:href="#font_2_1" transform="matrix(7.9703395,0,0,-7.9703395,77.80385,50.17611)"/>
<use data-text="&#x2212;" xlink:href="#font_1_1" transform="matrix(7.9703395,0,0,-7.9703395,30.473427,71.62276)"/>
<use data-text="4" xlink:href="#font_2_1" transform="matrix(7.9703395,0,0,-7.9703395,37.060625,71.62276)"/>
<use data-text="4" xlink:href="#font_2_1" transform="matrix(7.9703395,0,0,-7.9703395,37.060625,11.884964)"/>
<path transform="matrix(1.00003,0,0,-1.00003,1.4615555,76.988918)" stroke-width=".3985" stroke-linecap="butt" stroke-miterlimit="10" stroke-linejoin="miter" fill="none" stroke="#9e0c0f" d=""/>
<use data-text="(" xlink:href="#font_3_1" transform="matrix(9.962899,0,0,-9.962899,57.287237,19.327179)" fill="#9e0c0f"/>
<use data-text="1" xlink:href="#font_3_3" transform="matrix(9.962899,0,0,-9.962899,61.15284,19.327179)" fill="#9e0c0f"/>
<use data-text="," xlink:href="#font_4_1" transform="matrix(9.962899,0,0,-9.962899,66.1435,19.327179)" fill="#9e0c0f"/>
<use data-text="3" xlink:href="#font_3_4" transform="matrix(9.962899,0,0,-9.962899,70.57163,19.327179)" fill="#9e0c0f"/>
<use data-text=")" xlink:href="#font_3_2" transform="matrix(9.962899,0,0,-9.962899,75.553089,19.327179)" fill="#9e0c0f"/>
<path transform="matrix(1.00003,0,0,-1.00003,1.4615555,76.988918)" d="M54.29709 60.15118C54.29709 61.25165 53.405 62.14374 52.30453 62.14374 51.20406 62.14374 50.31198 61.25165 50.31198 60.15118 50.31198 59.0507 51.20406 58.15863 52.30453 58.15863 53.405 58.15863 54.29709 59.0507 54.29709 60.15118ZM52.30453 60.15118" fill="#9e0c0f"/>
<path transform="matrix(1.00003,0,0,-1.00003,1.4615555,76.988918)" stroke-width=".3985" stroke-linecap="butt" stroke-miterlimit="10" stroke-linejoin="miter" fill="none" stroke="#9e0c0f" d="M54.29709 60.15118C54.29709 61.25165 53.405 62.14374 52.30453 62.14374 51.20406 62.14374 50.31198 61.25165 50.31198 60.15118 50.31198 59.0507 51.20406 58.15863 52.30453 58.15863 53.405 58.15863 54.29709 59.0507 54.29709 60.15118ZM52.30453 60.15118"/>
<path transform="matrix(1.00003,0,0,-1.00003,1.4615555,76.988918)" stroke-width=".3985" stroke-linecap="butt" stroke-miterlimit="10" stroke-linejoin="miter" fill="none" stroke="#9e0c0f" d=""/>
</svg>
