<svg xmlns="http://www.w3.org/2000/svg" xmlns:xlink="http://www.w3.org/1999/xlink" version="1.1" width="167" height="145" viewBox="0 0 167 145">
<defs>
<path id="font_1_1" d="M.69898989 .22743225C.71499636 .22743225 .7369995 .22743225 .7369995 .25042726 .7369995 .2734375 .71499636 .2734375 .69898989 .2734375H.12599182C.10998535 .2734375 .08799744 .2734375 .08799744 .25042726 .08799744 .22743225 .10998535 .22743225 .12599182 .22743225H.69898989Z"/>
<path id="font_2_3" d="M.13798523 .33073426C.13798523 .41377259 .14498902 .4868164 .18099976 .54782107 .21099854 .5978241 .2619934 .6390381 .32499696 .6390381 .34498597 .6390381 .3909912 .63601687 .4139862 .60084536 .36898805 .5988312 .36499024 .5648346 .36499024 .553833 .36499024 .5238342 .3880005 .50683596 .4119873 .50683596 .42999269 .50683596 .45899964 .51782229 .45899964 .5558319 .45899964 .615921 .4139862 .66503909 .32398988 .66503909 .18499756 .66503909 .04399109 .53282168 .04399109 .31672669 .04399109 .045532228 .16999817-.021484375 .2669983-.021484375 .31498719-.021484375 .36698915-.0084991459 .4119873 .03453064 .45199586 .07354736 .48599244 .11558533 .48599244 .20263672 .48599244 .33372499 .3869934 .42578126 .27598573 .42578126 .20399475 .42578126 .16099549 .37976075 .13798523 .33073426M.2669983 .008514404C.21398926 .008514404 .18099976 .045532228 .1659851 .07354736 .14299011 .11859131 .14099121 .18663025 .14099121 .22465515 .14099121 .32373048 .19499207 .3977661 .27198792 .3977661 .32199098 .3977661 .35198976 .37176515 .37098695 .33673097 .3919983 .29971314 .3919983 .25468446 .3919983 .2036438 .3919983 .15260315 .3919983 .10858154 .37199403 .07255554 .34599305 .026519776 .31098939 .008514404 .2669983 .008514404Z"/>
<path id="font_2_2" d="M.3939972 .6468048C.3939972 .6667938 .3939972 .6748047 .37298585 .6748047 .3600006 .6748047 .35899354 .6737976 .34899903 .65979006L.02999878 .197052V.1640625H.31199647V.08100891C.31199647 .04399109 .30899049 .032989503 .23199463 .032989503H.20899964V0C.2939911 .0029907227 .29599 .0029907227 .35299684 .0029907227 .4099884 .0029907227 .4119873 .0029907227 .49699403 0V.032989503H.47399903C.39698792 .032989503 .3939972 .04399109 .3939972 .08100891V.1640625H.5V.197052H.3939972V.6468048M.31900025 .5658417V.197052H.06498718L.31900025 .5658417Z"/>
<path id="font_2_1" d="M.28199769 .20405579C.2979889 .21907044 .33999635 .2520752 .35598756 .26608277 .41799928 .32312013 .47698976 .3781433 .47698976 .46917726 .47698976 .588089 .3769989 .66503909 .2519989 .66503909 .13198853 .66503909 .052993776 .57411196 .052993776 .48516847 .052993776 .4361725 .09199524 .4291687 .10598755 .4291687 .1269989 .4291687 .1579895 .4441681 .1579895 .48217774 .1579895 .5341797 .10798645 .5341797 .09599304 .5341797 .125 .6070709 .19198609 .6320343 .24099732 .6320343 .33399964 .6320343 .38198854 .55314639 .38198854 .46917726 .38198854 .36514283 .30899049 .28910829 .19099427 .16804505L.06498718 .037994386C.052993776 .026992798 .052993776 .024993897 .052993776 0H.44799806L.47698976 .17904663H.44599916C.44299317 .1590271 .43499757 .10900879 .4229889 .08999634 .4169922 .08198547 .34098817 .08198547 .32499696 .08198547H.14698792L.28199769 .20405579Z"/>
<clipPath id="clip_3">
<path transform="matrix(1,0,0,-1.00005,1.4610005,144.17421)" d="M0 1.0097H163.87732V142.36986H0Z"/>
</clipPath>
<path id="font_4_2" d="M.48599244 .38136292C.48999024 .39537049 .48999024 .39736939 .48999024 .40437318 .48999024 .42237855 .47599793 .43138124 .46099855 .43138124 .45098878 .43138124 .43499757 .42536927 .42599488 .41036988 .42399598 .405365 .41600038 .37435914 .4119873 .35635377 .40499879 .33035279 .397995 .30334474 .3919983 .27633668L.34700013 .09628296C.34298707 .08126831 .2999878 .011245728 .23399353 .011245728 .18299866 .011245728 .17199707 .055267335 .17199707 .0922699 .17199707 .1382904 .18899536 .20030213 .22299195 .28833009 .23899842 .3293457 .24299622 .3403473 .24299622 .36035157 .24299622 .405365 .21099854 .4423828 .16099549 .4423828 .06599426 .4423828 .0289917 .29733277 .0289917 .28833009 .0289917 .27833558 .038986207 .27833558 .040985109 .27833558 .050994874 .27833558 .051986696 .28033448 .056991579 .29634095 .083999637 .3903656 .12399292 .42037965 .1579895 .42037965 .1659851 .42037965 .18299866 .42037965 .18299866 .3883667 .18299866 .36335755 .17298889 .3373413 .1659851 .31834413 .12599182 .21231079 .10798645 .1552887 .10798645 .10827637 .10798645 .019256592 .17098999-.0107421879 .22999573-.0107421879 .2689972-.0107421879 .30299378 .0062561037 .33099366 .03425598 .31799317-.017745972 .30599977-.06674194 .2659912-.11973572 .23999024-.15385437 .20199585-.18309021 .1559906-.18309021 .14199829-.18309021 .09700012-.18005371 .07998657-.14074707 .09599304-.14074707 .10899353-.14074707 .12298584-.1287384 .1329956-.11973572 .14299011-.10673523 .14299011-.08773804 .14299011-.056747438 .115997318-.052734376 .10598755-.052734376 .08299255-.052734376 .049987794-.068740848 .049987794-.11773682 .049987794-.16796875 .09399414-.20507813 .1559906-.20507813 .25898744-.20507813 .3619995-.11373901 .3899994-.00074768069L.48599244 .38136292Z"/>
<path id="font_5_6" d="M.68699648 .32714845C.70199587 .32714845 .72099307 .32714845 .72099307 .34713746 .72099307 .36714173 .70199587 .36714173 .6879883 .36714173H.08898926C.07499695 .36714173 .055999757 .36714173 .055999757 .34713746 .055999757 .32714845 .07499695 .32714845 .08999634 .32714845H.68699648M.6879883 .13284302C.70199587 .13284302 .72099307 .13284302 .72099307 .15284729 .72099307 .17285156 .70199587 .17285156 .68699648 .17285156H.08999634C.07499695 .17285156 .055999757 .17285156 .055999757 .15284729 .055999757 .13284302 .07499695 .13284302 .08898926 .13284302H.6879883Z"/>
<path id="font_5_2" d="M.1269989 .07699585 .23298645 .18003845C.3889923 .31811524 .44898988 .3721466 .44898988 .47216798 .44898988 .5860901 .35899354 .6660156 .23699951 .6660156 .12399292 .6660156 .049987794 .57411196 .049987794 .48516847 .049987794 .4291687 .099990848 .4291687 .102996829 .4291687 .11999512 .4291687 .15499878 .44117738 .15499878 .48217774 .15499878 .5081787 .13699341 .5341797 .101989749 .5341797 .09399414 .5341797 .09199524 .5341797 .08898926 .5331726 .11199951 .59806826 .1659851 .63500979 .22399903 .63500979 .31498719 .63500979 .35798646 .5541382 .35798646 .47216798 .35798646 .39215089 .30799867 .31311036 .25299073 .25108338L.06098938 .036987306C.049987794 .025985718 .049987794 .023986817 .049987794 0H.42099L.44898988 .17404175H.42399598C.4189911 .14402771 .4119873 .1000061 .4019928 .084991458 .394989 .07699585 .32899476 .07699585 .30699159 .07699585H.1269989Z"/>
<path id="font_4_1" d="M.33399964 .30233766C.33999635 .32835389 .36299134 .42037965 .43299867 .42037965 .43798829 .42037965 .46199037 .42037965 .48298646 .40734864 .45498658 .402359 .43499757 .37734986 .43499757 .35334779 .43499757 .33735658 .44599916 .31835938 .47299195 .31835938 .49499513 .31835938 .5269928 .3363495 .5269928 .37635804 .5269928 .42837525 .46798707 .4423828 .43399049 .4423828 .37599183 .4423828 .34098817 .38935853 .32899476 .36634828 .3039856 .43237306 .25 .4423828 .22099304 .4423828 .116989139 .4423828 .05999756 .3133545 .05999756 .28834535 .05999756 .27833558 .069992069 .27833558 .07199097 .27833558 .07998657 .27833558 .08299255 .28033448 .084991458 .28933717 .11898804 .39535523 .18499756 .42037965 .21899414 .42037965 .23799134 .42037965 .272995 .4113617 .272995 .35334779 .272995 .32235719 .2559967 .25532533 .21899414 .11528015 .20298767 .053268434 .16799927 .011245728 .12399292 .011245728 .117996219 .011245728 .09498596 .011245728 .07398987 .024276734 .09899902 .029266358 .12098694 .05027771 .12098694 .07827759 .12098694 .105270389 .09899902 .11328125 .083999637 .11328125 .053985597 .11328125 .0289917 .08728027 .0289917 .055267335 .0289917 .009246826 .07899475-.0107421879 .12298584-.0107421879 .18899536-.0107421879 .22499085 .059280397 .22799683 .0652771 .23999024 .028274537 .27598573-.0107421879 .33599855-.0107421879 .43899537-.0107421879 .49598695 .118270877 .49598695 .14328003 .49598695 .1532898 .4869995 .1532898 .48399354 .1532898 .47499085 .1532898 .47299195 .14929199 .47099305 .14228821 .43798829 .03527832 .36999513 .011245728 .33799745 .011245728 .29899598 .011245728 .2829895 .043273927 .2829895 .07727051 .2829895 .09927368 .2889862 .121276859 .2999878 .16529846L.33399964 .30233766Z"/>
<path id="font_6_1" d="M.6589966 .23046875C.6759949 .23046875 .69400027 .23046875 .69400027 .25045777 .69400027 .27046205 .6759949 .27046205 .6589966 .27046205H.117996219C.100997928 .27046205 .08299255 .27046205 .08299255 .25045777 .08299255 .23046875 .100997928 .23046875 .117996219 .23046875H.6589966Z"/>
<path id="font_5_4" d="M.2939911 .16503906V.07800293C.2939911 .041992189 .2919922 .0309906 .21798706 .0309906H.19699097V0C.23799134 .0029907227 .2899933 .0029907227 .33198548 .0029907227 .37399293 .0029907227 .4269867 .0029907227 .46798707 0V.0309906H.44699098C.37298585 .0309906 .37098695 .041992189 .37098695 .07800293V.16503906H.47099305V.19602967H.37098695V.65075686C.37098695 .67074587 .37098695 .6767578 .35499574 .6767578 .34599305 .6767578 .34298707 .6767578 .33499146 .66474917L.027999878 .19602967V.16503906H.2939911M.2999878 .19602967H.055999757L.2999878 .5688019V.19602967Z"/>
<path id="font_5_5" d="M.13198853 .327713V.35173036C.13198853 .6047821 .2559967 .64100649 .30699159 .64100649 .33099366 .64100649 .37298585 .634964 .394989 .6007538 .37998963 .6007538 .33999635 .6007538 .33999635 .5557556 .33999635 .524765 .3639984 .5097656 .38598634 .5097656 .4019928 .5097656 .43199159 .51875308 .43199159 .5577545 .43199159 .6178589 .3880005 .6660156 .30499269 .6660156 .1769867 .6660156 .041992189 .5367584 .041992189 .31570436 .041992189 .048553468 .1579895-.022460938 .25099183-.022460938 .3619995-.022460938 .45700074 .07156372 .45700074 .2036438 .45700074 .33070375 .36799623 .4267578 .25698854 .4267578 .18899536 .4267578 .1519928 .37573243 .13198853 .327713M.25099183 .0055389406C.18798828 .0055389406 .1579895 .06556702 .1519928 .080566409 .13398743 .127594 .13398743 .2076416 .13398743 .22564698 .13398743 .30369569 .1659851 .40374757 .2559967 .40374757 .27198792 .40374757 .31799317 .40374757 .34899903 .34172059 .36698915 .30470277 .36698915 .2536621 .36698915 .20463562 .36698915 .15661621 .36698915 .10658264 .34999085 .0705719 .31999208 .010528564 .27398683 .0055389406 .25099183 .0055389406Z"/>
<path id="font_5_3" d="M.2899933 .35191346C.37199403 .37893678 .42999269 .4490509 .42999269 .52809146 .42999269 .6100464 .34199525 .6660156 .24598694 .6660156 .14498902 .6660156 .068984989 .60606387 .068984989 .53009036 .068984989 .49710084 .09098816 .47808839 .11999512 .47808839 .15098572 .47808839 .17098999 .50009158 .17098999 .5290985 .17098999 .57910159 .12399292 .57910159 .10899353 .57910159 .13999939 .62802127 .20599365 .64100649 .24198914 .64100649 .2829895 .64100649 .33799745 .6190338 .33799745 .5290985 .33799745 .51708987 .33599855 .45906068 .30999757 .4149933 .27999879 .36691285 .24598694 .36390687 .22099304 .36291505 .21299744 .36190797 .18899536 .35990907 .18199158 .35990907 .17399597 .35890199 .16699219 .35791017 .16699219 .3479004 .16699219 .33691407 .17399597 .33691407 .19099427 .33691407H.23498535C.31698609 .33691407 .35398866 .2686615 .35398866 .17037964 .35398866 .034469606 .2849884 .0055389406 .24099732 .0055389406 .19799805 .0055389406 .12298584 .022491456 .08799744 .08137512 .12298584 .07637024 .1539917 .09837341 .1539917 .1363678 .1539917 .17237854 .1269989 .19238281 .09799194 .19238281 .07398987 .19238281 .041992189 .17837525 .041992189 .1343689 .041992189 .043441774 .1349945-.022460938 .24398804-.022460938 .3659973-.022460938 .45700074 .06838989 .45700074 .17037964 .45700074 .252594 .3939972 .33088685 .2899933 .35191346Z"/>
<path id="font_5_1" d="M.2939911 .64004519C.2939911 .66400149 .2939911 .6660156 .2709961 .6660156 .20899964 .60227969 .12098694 .60227969 .08898926 .60227969V.57128909C.10899353 .57128909 .16799927 .57128909 .21998596 .5972748V.07902527C.21998596 .042999269 .21699524 .0309906 .1269989 .0309906H.09498596V0C.12998963 .0029907227 .21699524 .0029907227 .25698854 .0029907227 .29699708 .0029907227 .38398744 .0029907227 .4189911 0V.0309906H.3869934C.29699708 .0309906 .2939911 .041992189 .2939911 .07902527V.64004519Z"/>
</defs>
<path transform="matrix(1,0,0,-1.00005,1.4610005,144.17421)" d="M0 1.0097H163.87732V142.36986H0Z" fill="#fffac2"/>
<path transform="matrix(1,0,0,-1.00005,1.4610005,144.17421)" stroke-width=".3985" stroke-linecap="butt" stroke-miterlimit="10" stroke-linejoin="miter" fill="none" stroke="#d5d6d5" d="M0 1.0097V142.36986M11.70552 1.0097V142.36986M23.41104 1.0097V142.36986M35.11656 1.0097V142.36986M46.82208 1.0097V142.36986M58.5276 1.0097V142.36986M70.23314 1.0097V142.36986M81.93866 1.0097V142.36986M93.64418 1.0097V142.36986M105.3497 1.0097V142.36986M117.05522 1.0097V142.36986M128.76074 1.0097V142.36986M140.46628 1.0097V142.36986M152.1718 1.0097V142.36986M163.87732 1.0097V142.36986"/>
<path transform="matrix(1,0,0,-1.00005,1.4610005,144.17421)" stroke-width=".3985" stroke-linecap="butt" stroke-miterlimit="10" stroke-linejoin="miter" fill="none" stroke="#d5d6d5" d="M11.70552 1.0097V142.36986M35.11656 1.0097V142.36986M58.5276 1.0097V142.36986M105.3497 1.0097V142.36986M128.76074 1.0097V142.36986M152.1718 1.0097V142.36986"/>
<path transform="matrix(1,0,0,-1.00005,1.4610005,144.17421)" stroke-width=".3985" stroke-linecap="butt" stroke-miterlimit="10" stroke-linejoin="miter" fill="none" stroke="#d5d6d5" d="M0 1.0097H163.87732M0 11.10686H163.87732M0 21.20401H163.87732M0 31.30116H163.87732M0 41.39833H163.87732M0 51.49548H163.87732M0 61.59264H163.87732M0 71.68979H163.87732M0 81.78694H163.87732M0 91.8841H163.87732M0 101.98125H163.87732M0 112.0784H163.87732M0 122.17555H163.87732M0 132.2727H163.87732M0 142.36986H163.87732"/>
<path transform="matrix(1,0,0,-1.00005,1.4610005,144.17421)" stroke-width=".3985" stroke-linecap="butt" stroke-miterlimit="10" stroke-linejoin="miter" fill="none" stroke="#d5d6d5" d="M0 11.10686H163.87732M0 31.30116H163.87732M0 51.49548H163.87732M0 91.8841H163.87732M0 112.0784H163.87732M0 132.2727H163.87732"/>
<path transform="matrix(1,0,0,-1.00005,1.4610005,144.17421)" stroke-width=".19925" stroke-linecap="butt" stroke-miterlimit="10" stroke-linejoin="miter" fill="none" stroke="#929292" d="M0 70.27238V73.1072M11.70552 70.27238V73.1072M23.41104 70.27238V73.1072M35.11656 70.27238V73.1072M46.82208 70.27238V73.1072M58.5276 70.27238V73.1072M70.23314 70.27238V73.1072M81.93866 70.27238V73.1072M93.64418 70.27238V73.1072M105.3497 70.27238V73.1072M117.05522 70.27238V73.1072M128.76074 70.27238V73.1072M140.46628 70.27238V73.1072M152.1718 70.27238V73.1072M163.87732 70.27238V73.1072"/>
<path transform="matrix(1,0,0,-1.00005,1.4610005,144.17421)" stroke-width=".19925" stroke-linecap="butt" stroke-miterlimit="10" stroke-linejoin="miter" fill="none" stroke="#929292" d="M11.70552 69.5639V73.81564M35.11656 69.5639V73.81564M58.5276 69.5639V73.81564M105.3497 69.5639V73.81564M128.76074 69.5639V73.81564M152.1718 69.5639V73.81564"/>
<path transform="matrix(1,0,0,-1.00005,1.4610005,144.17421)" stroke-width=".19925" stroke-linecap="butt" stroke-miterlimit="10" stroke-linejoin="miter" fill="none" stroke="#929292" d="M80.52133 1.0097H83.35599M80.52133 11.10686H83.35599M80.52133 21.20401H83.35599M80.52133 31.30116H83.35599M80.52133 41.39833H83.35599M80.52133 51.49548H83.35599M80.52133 61.59264H83.35599M80.52133 71.68979H83.35599M80.52133 81.78694H83.35599M80.52133 91.8841H83.35599M80.52133 101.98125H83.35599M80.52133 112.0784H83.35599M80.52133 122.17555H83.35599M80.52133 132.2727H83.35599M80.52133 142.36986H83.35599"/>
<path transform="matrix(1,0,0,-1.00005,1.4610005,144.17421)" stroke-width=".19925" stroke-linecap="butt" stroke-miterlimit="10" stroke-linejoin="miter" fill="none" stroke="#929292" d="M79.81287 11.10686H84.06442M79.81287 31.30116H84.06442M79.81287 51.49548H84.06442M79.81287 91.8841H84.06442M79.81287 112.0784H84.06442M79.81287 132.2727H84.06442"/>
<path transform="matrix(1,0,0,-1.00005,1.4610005,144.17421)" stroke-width=".3985" stroke-linecap="butt" stroke-miterlimit="10" stroke-linejoin="miter" fill="none" stroke="#000000" d="M1.99252 71.68979H161.8848"/>
<path transform="matrix(-1,-0,0,1.00005,3.4535204,72.48084)" d="M1.99252 0-1.19551 1.59401 0 0-1.19551-1.59401"/>
<path transform="matrix(1,0,0,-1.00005,163.3458,72.48084)" d="M1.99252 0-1.19551 1.59401 0 0-1.19551-1.59401"/>
<path transform="matrix(1,0,0,-1.00005,1.4610005,144.17421)" stroke-width=".3985" stroke-linecap="butt" stroke-miterlimit="10" stroke-linejoin="miter" fill="none" stroke="#000000" d="M81.93866 3.00223V140.37734"/>
<path transform="matrix(0,1.00005,1,0,83.39966,141.17183)" d="M1.99252 0-1.19551 1.59401 0 0-1.19551-1.59401"/>
<path transform="matrix(0,-1.00005,-1,-0,83.39966,3.789856)" d="M1.99252 0-1.19551 1.59401 0 0-1.19551-1.59401"/>
<use data-text="&#x2212;" xlink:href="#font_1_1" transform="matrix(7.9701,0,0,-7.970498,7.7560007,83.26317)"/>
<use data-text="6" xlink:href="#font_2_3" transform="matrix(7.9701,0,0,-7.970498,14.343,83.26317)"/>
<use data-text="&#x2212;" xlink:href="#font_1_1" transform="matrix(7.9701,0,0,-7.970498,31.167,83.26317)"/>
<use data-text="4" xlink:href="#font_2_2" transform="matrix(7.9701,0,0,-7.970498,37.753999,83.26317)"/>
<use data-text="&#x2212;" xlink:href="#font_1_1" transform="matrix(7.9701,0,0,-7.970498,54.578,83.26317)"/>
<use data-text="2" xlink:href="#font_2_1" transform="matrix(7.9701,0,0,-7.970498,61.165,83.26317)"/>
<use data-text="2" xlink:href="#font_2_1" transform="matrix(7.9701,0,0,-7.970498,104.694,83.26317)"/>
<use data-text="4" xlink:href="#font_2_2" transform="matrix(7.9701,0,0,-7.970498,128.105,83.26317)"/>
<use data-text="6" xlink:href="#font_2_3" transform="matrix(7.9701,0,0,-7.970498,151.51599,83.26317)"/>
<use data-text="&#x2212;" xlink:href="#font_1_1" transform="matrix(7.9701,0,0,-7.970498,68.824008,135.21976)"/>
<use data-text="6" xlink:href="#font_2_3" transform="matrix(7.9701,0,0,-7.970498,75.411,135.21976)"/>
<use data-text="&#x2212;" xlink:href="#font_1_1" transform="matrix(7.9701,0,0,-7.970498,68.824008,115.02475)"/>
<use data-text="4" xlink:href="#font_2_2" transform="matrix(7.9701,0,0,-7.970498,75.411,115.02475)"/>
<use data-text="&#x2212;" xlink:href="#font_1_1" transform="matrix(7.9701,0,0,-7.970498,68.824008,94.82974)"/>
<use data-text="2" xlink:href="#font_2_1" transform="matrix(7.9701,0,0,-7.970498,75.411,94.82974)"/>
<use data-text="2" xlink:href="#font_2_1" transform="matrix(7.9701,0,0,-7.970498,75.410999,54.853746)"/>
<use data-text="4" xlink:href="#font_2_2" transform="matrix(7.9701,0,0,-7.970498,75.410999,34.658739)"/>
<use data-text="6" xlink:href="#font_2_3" transform="matrix(7.9701,0,0,-7.970498,75.410999,14.462723)"/>
<g clip-path="url(#clip_3)">
<path transform="matrix(1,0,0,-1.00005,1.4610005,144.17421)" stroke-width=".99628" stroke-linecap="butt" stroke-miterlimit="10" stroke-linejoin="miter" fill="none" stroke="#9e0c0f" d="M68.52347 7.14769 67.79446 5.88997 71.20857 11.77997 74.62268 17.66997 78.03677 23.55995 81.45087 29.44995 84.86497 35.33994 88.27908 41.22993 91.69319 47.11992 95.1073 53.00992 98.52138 58.8999 101.93549 64.7899 105.3496 70.67987 108.7637 76.5699 112.1778 82.45988 115.5919 88.34987 119.00601 94.23985 122.4201 100.12985 125.83421 106.01985 129.2483 111.90984 132.66242 117.79984 136.07653 123.6898 139.49063 129.5798 142.90473 135.4698 142.17572 134.2121"/>
<path transform="matrix(-.50146,.8651732,.86513,.50148507,70.337749,136.41666)" d="M7.39124 0 2.37614 1.6717 .70447 0 2.37614-1.6717Z" fill="#9e0c0f"/>
<path transform="matrix(-.50146,.8651732,.86513,.50148507,70.337749,136.41666)" stroke-width=".99628" stroke-linecap="butt" stroke-miterlimit="10" stroke-linejoin="miter" fill="none" stroke="#9e0c0f" d="M7.39124 0 2.37614 1.6717 .70447 0 2.37614-1.6717Z"/>
<path transform="matrix(.50146,-.8651732,-.86513,-.50148507,143.28345,10.564896)" d="M7.39124 0 2.37614 1.6717 .70447 0 2.37614-1.6717Z" fill="#9e0c0f"/>
<path transform="matrix(.50146,-.8651732,-.86513,-.50148507,143.28345,10.564896)" stroke-width=".99628" stroke-linecap="butt" stroke-miterlimit="10" stroke-linejoin="miter" fill="none" stroke="#9e0c0f" d="M7.39124 0 2.37614 1.6717 .70447 0 2.37614-1.6717Z"/>
<use data-text="y" xlink:href="#font_4_2" transform="matrix(4.9958455,-8.619374,-8.618944,-4.9960949,124.52994,63.337739)" fill="#9e0c0f"/>
<use data-text="=" xlink:href="#font_5_6" transform="matrix(4.9958455,-8.619374,-8.618944,-4.9960949,128.54615,56.40857)" fill="#9e0c0f"/>
<use data-text="2" xlink:href="#font_5_2" transform="matrix(4.9958455,-8.619374,-8.618944,-4.9960949,133.81175,47.32375)" fill="#9e0c0f"/>
<use data-text="x" xlink:href="#font_4_1" transform="matrix(4.9958455,-8.619374,-8.618944,-4.9960949,136.31777,43.000116)" fill="#9e0c0f"/>
<use data-text="&#x2212;" xlink:href="#font_6_1" transform="matrix(4.9958455,-8.619374,-8.618944,-4.9960949,140.2828,36.159189)" fill="#9e0c0f"/>
<use data-text="4" xlink:href="#font_5_4" transform="matrix(4.9958455,-8.619374,-8.618944,-4.9960949,145.27886,27.539467)" fill="#9e0c0f"/>
<path transform="matrix(1,0,0,-1.00005,1.4610005,144.17421)" stroke-width=".99628" stroke-linecap="butt" stroke-miterlimit="10" stroke-linejoin="miter" fill="none" stroke="#008099" d="M68.52347 9.16711 67.79446 7.9094 71.20857 13.79941 74.62268 19.68939 78.03677 25.57939 81.45087 31.46938 84.86497 37.35938 88.27908 43.24936 91.69319 49.13936 95.1073 55.02934 98.52138 60.91934 101.93549 66.80933 105.3496 72.69931 108.7637 78.58932 112.1778 84.47932 115.5919 90.3693 119.00601 96.25928 122.4201 102.14928 125.83421 108.03928 129.2483 113.92928 132.66242 119.81926 136.07653 125.70924 139.49063 131.59923 142.90473 137.48925 142.17572 136.23154"/>
<path transform="matrix(-.50146,.8651732,.86513,.50148507,70.337749,134.39714)" d="M7.39124 0 2.37614 1.6717 .70447 0 2.37614-1.6717Z" fill="#008099"/>
<path transform="matrix(-.50146,.8651732,.86513,.50148507,70.337749,134.39714)" stroke-width=".99628" stroke-linecap="butt" stroke-miterlimit="10" stroke-linejoin="miter" fill="none" stroke="#008099" d="M7.39124 0 2.37614 1.6717 .70447 0 2.37614-1.6717Z"/>
<path transform="matrix(.50146,-.8651732,-.86513,-.50148507,143.28345,8.545364)" d="M7.39124 0 2.37614 1.6717 .70447 0 2.37614-1.6717Z" fill="#008099"/>
<path transform="matrix(.50146,-.8651732,-.86513,-.50148507,143.28345,8.545364)" stroke-width=".99628" stroke-linecap="butt" stroke-miterlimit="10" stroke-linejoin="miter" fill="none" stroke="#008099" d="M7.39124 0 2.37614 1.6717 .70447 0 2.37614-1.6717Z"/>
<use data-text="6" xlink:href="#font_5_5" transform="matrix(4.9958455,-8.619374,-8.618944,-4.9960949,108.19394,57.606454)" fill="#008099"/>
<use data-text="x" xlink:href="#font_4_1" transform="matrix(4.9958455,-8.619374,-8.618944,-4.9960949,110.69171,53.297029)" fill="#008099"/>
<use data-text="&#x2212;" xlink:href="#font_6_1" transform="matrix(4.9958455,-8.619374,-8.618944,-4.9960949,114.65726,46.45524)" fill="#008099"/>
<use data-text="3" xlink:href="#font_5_3" transform="matrix(4.9958455,-8.619374,-8.618944,-4.9960949,119.653308,37.83551)" fill="#008099"/>
<use data-text="y" xlink:href="#font_4_2" transform="matrix(4.9958455,-8.619374,-8.618944,-4.9960949,122.15108,33.526086)" fill="#008099"/>
<use data-text="=" xlink:href="#font_5_6" transform="matrix(4.9958455,-8.619374,-8.618944,-4.9960949,126.16728,26.596915)" fill="#008099"/>
<use data-text="1" xlink:href="#font_5_1" transform="matrix(4.9958455,-8.619374,-8.618944,-4.9960949,131.43289,17.512095)" fill="#008099"/>
<use data-text="2" xlink:href="#font_5_2" transform="matrix(4.9958455,-8.619374,-8.618944,-4.9960949,133.93082,13.202406)" fill="#008099"/>
</g>
<path transform="matrix(1,0,0,-1.00005,1.4610005,144.17421)" d="M83.93121 30.29146C83.93121 31.39192 83.03912 32.28401 81.93866 32.28401 80.83818 32.28401 79.9461 31.39192 79.9461 30.29146 79.9461 29.19098 80.83818 28.2989 81.93866 28.2989 83.03912 28.2989 83.93121 29.19098 83.93121 30.29146ZM81.93866 30.29146" fill="#9e0c0f"/>
<path transform="matrix(1,0,0,-1.00005,1.4610005,144.17421)" stroke-width=".3985" stroke-linecap="butt" stroke-miterlimit="10" stroke-linejoin="miter" fill="none" stroke="#9e0c0f" d="M83.93121 30.29146C83.93121 31.39192 83.03912 32.28401 81.93866 32.28401 80.83818 32.28401 79.9461 31.39192 79.9461 30.29146 79.9461 29.19098 80.83818 28.2989 81.93866 28.2989 83.03912 28.2989 83.93121 29.19098 83.93121 30.29146ZM81.93866 30.29146"/>
<path transform="matrix(1,0,0,-1.00005,1.4610005,144.17421)" d="M95.63673 50.48576C95.63673 51.58623 94.74464 52.47832 93.64418 52.47832 92.5437 52.47832 91.65163 51.58623 91.65163 50.48576 91.65163 49.38528 92.5437 48.49321 93.64418 48.49321 94.74464 48.49321 95.63673 49.38528 95.63673 50.48576ZM93.64418 50.48576" fill="#9e0c0f"/>
<path transform="matrix(1,0,0,-1.00005,1.4610005,144.17421)" stroke-width=".3985" stroke-linecap="butt" stroke-miterlimit="10" stroke-linejoin="miter" fill="none" stroke="#9e0c0f" d="M95.63673 50.48576C95.63673 51.58623 94.74464 52.47832 93.64418 52.47832 92.5437 52.47832 91.65163 51.58623 91.65163 50.48576 91.65163 49.38528 92.5437 48.49321 93.64418 48.49321 94.74464 48.49321 95.63673 49.38528 95.63673 50.48576ZM93.64418 50.48576"/>
<path transform="matrix(1,0,0,-1.00005,1.4610005,144.17421)" d="M107.34225 70.68007C107.34225 71.78055 106.45018 72.67262 105.3497 72.67262 104.24924 72.67262 103.35715 71.78055 103.35715 70.68007 103.35715 69.5796 104.24924 68.68752 105.3497 68.68752 106.45018 68.68752 107.34225 69.5796 107.34225 70.68007ZM105.3497 70.68007" fill="#9e0c0f"/>
<path transform="matrix(1,0,0,-1.00005,1.4610005,144.17421)" stroke-width=".3985" stroke-linecap="butt" stroke-miterlimit="10" stroke-linejoin="miter" fill="none" stroke="#9e0c0f" d="M107.34225 70.68007C107.34225 71.78055 106.45018 72.67262 105.3497 72.67262 104.24924 72.67262 103.35715 71.78055 103.35715 70.68007 103.35715 69.5796 104.24924 68.68752 105.3497 68.68752 106.45018 68.68752 107.34225 69.5796 107.34225 70.68007ZM105.3497 70.68007"/>
<path transform="matrix(1,0,0,-1.00005,1.4610005,144.17421)" stroke-width=".3985" stroke-linecap="butt" stroke-miterlimit="10" stroke-linejoin="miter" fill="none" stroke="#9e0c0f" d=""/>
<path transform="matrix(1,0,0,-1.00005,1.4610005,144.17421)" d="M83.93121 31.30116C83.93121 32.40164 83.03912 33.29372 81.93866 33.29372 80.83818 33.29372 79.9461 32.40164 79.9461 31.30116 79.9461 30.2007 80.83818 29.30861 81.93866 29.30861 83.03912 29.30861 83.93121 30.2007 83.93121 31.30116ZM81.93866 31.30116" fill="#008099"/>
<path transform="matrix(1,0,0,-1.00005,1.4610005,144.17421)" stroke-width=".3985" stroke-linecap="butt" stroke-miterlimit="10" stroke-linejoin="miter" fill="none" stroke="#008099" d="M83.93121 31.30116C83.93121 32.40164 83.03912 33.29372 81.93866 33.29372 80.83818 33.29372 79.9461 32.40164 79.9461 31.30116 79.9461 30.2007 80.83818 29.30861 81.93866 29.30861 83.03912 29.30861 83.93121 30.2007 83.93121 31.30116ZM81.93866 31.30116"/>
<path transform="matrix(1,0,0,-1.00005,1.4610005,144.17421)" d="M107.34225 71.68979C107.34225 72.79025 106.45018 73.68234 105.3497 73.68234 104.24924 73.68234 103.35715 72.79025 103.35715 71.68979 103.35715 70.58931 104.24924 69.69724 105.3497 69.69724 106.45018 69.69724 107.34225 70.58931 107.34225 71.68979ZM105.3497 71.68979" fill="#008099"/>
<path transform="matrix(1,0,0,-1.00005,1.4610005,144.17421)" stroke-width=".3985" stroke-linecap="butt" stroke-miterlimit="10" stroke-linejoin="miter" fill="none" stroke="#008099" d="M107.34225 71.68979C107.34225 72.79025 106.45018 73.68234 105.3497 73.68234 104.24924 73.68234 103.35715 72.79025 103.35715 71.68979 103.35715 70.58931 104.24924 69.69724 105.3497 69.69724 106.45018 69.69724 107.34225 70.58931 107.34225 71.68979ZM105.3497 71.68979"/>
<path transform="matrix(1,0,0,-1.00005,1.4610005,144.17421)" stroke-width=".3985" stroke-linecap="butt" stroke-miterlimit="10" stroke-linejoin="miter" fill="none" stroke="#008099" d=""/>
<use data-text="x" xlink:href="#font_4_1" transform="matrix(9.9626,0,0,-9.963098,156.125,68.96046)"/>
<use data-text="y" xlink:href="#font_4_2" transform="matrix(9.9626,0,0,-9.963098,86.91901,9.606491)"/>
</svg>
