<svg xmlns="http://www.w3.org/2000/svg" xmlns:xlink="http://www.w3.org/1999/xlink" version="1.1" width="167" height="145" viewBox="0 0 167 145">
<defs>
<path id="font_1_1" d="M.69898989 .22743225C.71499636 .22743225 .7369995 .22743225 .7369995 .25042726 .7369995 .2734375 .71499636 .2734375 .69898989 .2734375H.12599182C.10998535 .2734375 .08799744 .2734375 .08799744 .25042726 .08799744 .22743225 .10998535 .22743225 .12599182 .22743225H.69898989Z"/>
<path id="font_2_3" d="M.13798523 .33073426C.13798523 .41377259 .14498902 .4868164 .18099976 .54782107 .21099854 .5978241 .2619934 .6390381 .32499696 .6390381 .34498597 .6390381 .3909912 .63601687 .4139862 .60084536 .36898805 .5988312 .36499024 .5648346 .36499024 .553833 .36499024 .5238342 .3880005 .50683596 .4119873 .50683596 .42999269 .50683596 .45899964 .51782229 .45899964 .5558319 .45899964 .615921 .4139862 .66503909 .32398988 .66503909 .18499756 .66503909 .04399109 .53282168 .04399109 .31672669 .04399109 .045532228 .16999817-.021484375 .2669983-.021484375 .31498719-.021484375 .36698915-.0084991459 .4119873 .03453064 .45199586 .07354736 .48599244 .11558533 .48599244 .20263672 .48599244 .33372499 .3869934 .42578126 .27598573 .42578126 .20399475 .42578126 .16099549 .37976075 .13798523 .33073426M.2669983 .008514404C.21398926 .008514404 .18099976 .045532228 .1659851 .07354736 .14299011 .11859131 .14099121 .18663025 .14099121 .22465515 .14099121 .32373048 .19499207 .3977661 .27198792 .3977661 .32199098 .3977661 .35198976 .37176515 .37098695 .33673097 .3919983 .29971314 .3919983 .25468446 .3919983 .2036438 .3919983 .15260315 .3919983 .10858154 .37199403 .07255554 .34599305 .026519776 .31098939 .008514404 .2669983 .008514404Z"/>
<path id="font_2_2" d="M.3939972 .6468048C.3939972 .6667938 .3939972 .6748047 .37298585 .6748047 .3600006 .6748047 .35899354 .6737976 .34899903 .65979006L.02999878 .197052V.1640625H.31199647V.08100891C.31199647 .04399109 .30899049 .032989503 .23199463 .032989503H.20899964V0C.2939911 .0029907227 .29599 .0029907227 .35299684 .0029907227 .4099884 .0029907227 .4119873 .0029907227 .49699403 0V.032989503H.47399903C.39698792 .032989503 .3939972 .04399109 .3939972 .08100891V.1640625H.5V.197052H.3939972V.6468048M.31900025 .5658417V.197052H.06498718L.31900025 .5658417Z"/>
<path id="font_2_1" d="M.28199769 .20405579C.2979889 .21907044 .33999635 .2520752 .35598756 .26608277 .41799928 .32312013 .47698976 .3781433 .47698976 .46917726 .47698976 .588089 .3769989 .66503909 .2519989 .66503909 .13198853 .66503909 .052993776 .57411196 .052993776 .48516847 .052993776 .4361725 .09199524 .4291687 .10598755 .4291687 .1269989 .4291687 .1579895 .4441681 .1579895 .48217774 .1579895 .5341797 .10798645 .5341797 .09599304 .5341797 .125 .6070709 .19198609 .6320343 .24099732 .6320343 .33399964 .6320343 .38198854 .55314639 .38198854 .46917726 .38198854 .36514283 .30899049 .28910829 .19099427 .16804505L.06498718 .037994386C.052993776 .026992798 .052993776 .024993897 .052993776 0H.44799806L.47698976 .17904663H.44599916C.44299317 .1590271 .43499757 .10900879 .4229889 .08999634 .4169922 .08198547 .34098817 .08198547 .32499696 .08198547H.14698792L.28199769 .20405579Z"/>
<path id="font_3_96" d="M.3639984 .38137818C.3639984 .41337586 .33299256 .4423828 .2899933 .4423828 .21699524 .4423828 .18099976 .37538148 .16699219 .3323822V.4423828L.027999878 .43066407V.3996582C.09799194 .3996582 .10598755 .39266969 .10598755 .34370423V.07595825C.10598755 .0309906 .09498596 .0309906 .027999878 .0309906V0L.14199829 .0029907227C.18199158 .0029907227 .22898865 .0029907227 .2689972 0V.0309906H.24798584C.17399597 .0309906 .17199707 .04197693 .17199707 .07795715V.23181153C.17199707 .33137513 .21398926 .42037965 .2899933 .42037965 .29699708 .42037965 .29899598 .42037965 .30099488 .41937257 .2979889 .41838075 .27799989 .40637208 .27799989 .3803711 .27799989 .35237123 .29899598 .33737184 .32099916 .33737184 .33898927 .33737184 .3639984 .3493805 .3639984 .38137818Z"/>
<path id="font_3_28" d="M.48298646 .08912659V.14511109H.45799256V.08912659C.45799256 .03112793 .43299867 .025131226 .42199708 .025131226 .3889923 .025131226 .3849945 .070129398 .3849945 .07511902V.27508546C.3849945 .31707765 .3849945 .3560791 .34899903 .39312745 .30999757 .43223573 .2599945 .4482422 .21199036 .4482422 .12998963 .4482422 .06098938 .40115357 .06098938 .335083 .06098938 .30508424 .08099365 .28808595 .10699463 .28808595 .1349945 .28808595 .15299988 .30807496 .15299988 .33407594 .15299988 .3460846 .147995 .37908937 .101989749 .38008119 .1289978 .41519166 .17799378 .426239 .20999146 .426239 .25898744 .426239 .31599427 .38710023 .31599427 .29808045V.26107789C.2649994 .25808717 .19499207 .25508119 .13198853 .22509766 .056991579 .19110108 .03199768 .13911438 .03199768 .09512329 .03199768 .014251709 .1289978-.0107421879 .19198609-.0107421879 .2579956-.0107421879 .3039856 .029251099 .32299806 .07624817 .32699586 .036132814 .35398866-.005859375 .40098573-.005859375 .42199708-.005859375 .48298646 .008132935 .48298646 .08912659M.31599427 .14013672C.31599427 .04525757 .24398804 .011245728 .19898987 .011245728 .1499939 .011245728 .10899353 .04624939 .10899353 .09625244 .10899353 .15124512 .15098572 .23425293 .31599427 .24024964V.14013672Z"/>
<path id="font_3_105" d="M.33198548 .12385559V.18066406H.30699159V.12585449C.30699159 .052108766 .2769928 .014251709 .23999024 .014251709 .17298889 .014251709 .17298889 .10491943 .17298889 .12187195V.3996582H.31599427V.43066407H.17298889V.6142578H.147995C.14698792 .5324249 .116989139 .42565919 .018997193 .42166139V.3996582H.10398865V.12408447C.10398865 .0012512207 .19699097-.0107421879 .23298645-.0107421879 .3039856-.0107421879 .33198548 .060180665 .33198548 .12408447V.12385559Z"/>
<path id="font_3_50" d="M.4149933 .11933899C.4149933 .12934876 .40699769 .13134766 .4019928 .13134766 .3929901 .13134766 .3909912 .12535095 .3889923 .11734009 .35398866 .014251709 .2639923 .014251709 .2539978 .014251709 .20399475 .014251709 .1639862 .044281007 .14099121 .08131409 .11099243 .12934876 .11099243 .19540406 .11099243 .23144531H.3899994C.4119873 .23144531 .4149933 .23144531 .4149933 .2524414 .4149933 .35131837 .36099244 .4482422 .23599243 .4482422 .11999512 .4482422 .027999878 .34532167 .027999878 .22042847 .027999878 .08631897 .1329956-.0107421879 .24798584-.0107421879 .36999513-.0107421879 .4149933 .10032654 .4149933 .11933899M.34899903 .2524414H.11199951C.117996219 .40126039 .20199585 .426239 .23599243 .426239 .33898927 .426239 .34899903 .2913971 .34899903 .2524414Z"/>
<path id="font_4_1" d="M.33499146 .63612368C.33499146 .6630554 .33299256 .6640625 .30499269 .6640625 .24099732 .6014404 .1499939 .6004486 .10899353 .6004486V.5644531C.1329956 .5644531 .19898987 .5644531 .2539978 .592453V.08203125C.2539978 .04899597 .2539978 .035995485 .1539917 .035995485H.115997318V0C.13398743 .0009918213 .25698854 .0039978029 .2939911 .0039978029 .32499696 .0039978029 .45098878 .0009918213 .47299195 0V.035995485H.43499757C.33499146 .035995485 .33499146 .04899597 .33499146 .08203125V.63612368Z"/>
<path id="font_4_2" d="M.5049896 .18203736H.47099305C.46798707 .16001892 .45799256 .100997928 .44499208 .09098816 .43699647 .084991458 .3600006 .084991458 .34599305 .084991458H.1619873C.2669983 .17803955 .3019867 .20603943 .3619995 .25306703 .43598939 .312088 .5049896 .374115 .5049896 .46914674 .5049896 .5900879 .39898683 .6640625 .2709961 .6640625 .14698792 .6640625 .06298828 .57710269 .06298828 .4851532 .06298828 .43414308 .10598755 .42915345 .115997318 .42915345 .13999939 .42915345 .16899109 .44615174 .16899109 .48214723 .16899109 .5001526 .1619873 .53515627 .10998535 .53515627 .14099121 .6060791 .20899964 .62805178 .2559967 .62805178 .35598756 .62805178 .4079895 .5501404 .4079895 .46914674 .4079895 .38212586 .34599305 .3130951 .31399537 .27708436L.07299805 .038986207C.06298828 .02999878 .06298828 .027999878 .06298828 0H.47499085L.5049896 .18203736Z"/>
<path id="font_4_4" d="M.5289917 .1640625V.20005799H.41799928V.64582827C.41799928 .66682437 .41799928 .6738281 .3959961 .6738281 .38398744 .6738281 .37998963 .6738281 .36999513 .65982058L.038986207 .20005799V.1640625H.33299256V.08201599C.33299256 .04800415 .33299256 .035995485 .2519989 .035995485H.22499085V0C.2749939 .0019989014 .33898927 .0039978029 .375 .0039978029 .4119873 .0039978029 .47599793 .0019989014 .526001 0V.035995485H.49899293C.41799928 .035995485 .41799928 .04800415 .41799928 .08201599V.1640625H.5289917M.33999635 .5658722V.20005799H.07598877L.33999635 .5658722Z"/>
<path id="font_5_1" d="M.68699648 .32714845C.70199587 .32714845 .72099307 .32714845 .72099307 .34713746 .72099307 .36714173 .70199587 .36714173 .6879883 .36714173H.08898926C.07499695 .36714173 .055999757 .36714173 .055999757 .34713746 .055999757 .32714845 .07499695 .32714845 .08999634 .32714845H.68699648M.6879883 .13284302C.70199587 .13284302 .72099307 .13284302 .72099307 .15284729 .72099307 .17285156 .70199587 .17285156 .68699648 .17285156H.08999634C.07499695 .17285156 .055999757 .17285156 .055999757 .15284729 .055999757 .13284302 .07499695 .13284302 .08898926 .13284302H.6879883Z"/>
<path id="font_4_3" d="M.272995 .33428956C.35099793 .33428956 .40699769 .2803192 .40699769 .1733551 .40699769 .04940796 .33499146 .012466431 .2769928 .012466431 .23699951 .012466431 .14898682 .0234375 .10699463 .082351688 .1539917 .084350589 .16499329 .11735535 .16499329 .13835144 .16499329 .17034912 .14099121 .19335938 .10998535 .19335938 .08198547 .19335938 .053985597 .17634583 .053985597 .13534546 .053985597 .041412355 .1579895-.01953125 .2789917-.01953125 .41799928-.01953125 .5139923 .07336426 .5139923 .1733551 .5139923 .2513275 .44999696 .32929994 .33999635 .35229493 .44499208 .39024354 .48298646 .4650879 .48298646 .5260773 .48298646 .60505679 .3919983 .6640625 .2809906 .6640625 .16999817 .6640625 .084991458 .61006167 .084991458 .5300751 .084991458 .49606324 .10699463 .47706605 .13699341 .47706605 .16799927 .47706605 .18798828 .5000763 .18798828 .5280762 .18798828 .5570679 .16799927 .57806399 .13699341 .5800781 .17199707 .62405398 .24099732 .63505557 .27799989 .63505557 .32299806 .63505557 .38598634 .6130676 .38598634 .5260773 .38598634 .48406983 .37199403 .43814088 .34599305 .4072113 .31298829 .36927796 .2849884 .3672943 .23498535 .36428834 .20999146 .3623047 .20799256 .3623047 .20298767 .3612976 .20098877 .3612976 .19299317 .3592987 .19299317 .34829713 .19299317 .33428956 .20199585 .33428956 .21899414 .33428956H.272995Z"/>
<path id="font_4_5" d="M.1499939 .3274536C.1499939 .40945436 .15699768 .48303224 .19499207 .543869 .22898865 .5978699 .2829895 .63505557 .34700013 .63505557 .3769989 .63505557 .4169922 .62701418 .43699647 .5998688 .4119873 .5978699 .3909912 .5808716 .3909912 .5518799 .3909912 .5268707 .4079895 .5048828 .43798829 .5048828 .46798707 .5048828 .48599244 .5248718 .48599244 .5538788 .48599244 .6119385 .44400025 .6640625 .34498597 .6640625 .20098877 .6640625 .053985597 .5318756 .053985597 .3174591 .053985597 .05845642 .17599488-.01953125 .28599549-.01953125 .4079895-.01953125 .5139923 .07345581 .5139923 .20445252 .5139923 .33145143 .41299439 .42546083 .29599 .42546083 .21598816 .42546083 .17199707 .37245179 .1499939 .3274536M.28599549 .012466431C.23599243 .012466431 .19699097 .04145813 .17599488 .08546448 .16099549 .11546326 .15299988 .16545105 .15299988 .22544861 .15299988 .32244874 .21099854 .39746095 .29100038 .39746095 .33699037 .39746095 .36799623 .37945558 .3929901 .342453 .4169922 .30445863 .41799928 .26245118 .41799928 .20445252 .41799928 .14746094 .41799928 .10545349 .3909912 .066467288 .36698915 .031463624 .33499146 .012466431 .28599549 .012466431Z"/>
<path id="font_6_1" d="M.33399964 .30233766C.33999635 .32835389 .36299134 .42037965 .43299867 .42037965 .43798829 .42037965 .46199037 .42037965 .48298646 .40734864 .45498658 .402359 .43499757 .37734986 .43499757 .35334779 .43499757 .33735658 .44599916 .31835938 .47299195 .31835938 .49499513 .31835938 .5269928 .3363495 .5269928 .37635804 .5269928 .42837525 .46798707 .4423828 .43399049 .4423828 .37599183 .4423828 .34098817 .38935853 .32899476 .36634828 .3039856 .43237306 .25 .4423828 .22099304 .4423828 .116989139 .4423828 .05999756 .3133545 .05999756 .28834535 .05999756 .27833558 .069992069 .27833558 .07199097 .27833558 .07998657 .27833558 .08299255 .28033448 .084991458 .28933717 .11898804 .39535523 .18499756 .42037965 .21899414 .42037965 .23799134 .42037965 .272995 .4113617 .272995 .35334779 .272995 .32235719 .2559967 .25532533 .21899414 .11528015 .20298767 .053268434 .16799927 .011245728 .12399292 .011245728 .117996219 .011245728 .09498596 .011245728 .07398987 .024276734 .09899902 .029266358 .12098694 .05027771 .12098694 .07827759 .12098694 .105270389 .09899902 .11328125 .083999637 .11328125 .053985597 .11328125 .0289917 .08728027 .0289917 .055267335 .0289917 .009246826 .07899475-.0107421879 .12298584-.0107421879 .18899536-.0107421879 .22499085 .059280397 .22799683 .0652771 .23999024 .028274537 .27598573-.0107421879 .33599855-.0107421879 .43899537-.0107421879 .49598695 .118270877 .49598695 .14328003 .49598695 .1532898 .4869995 .1532898 .48399354 .1532898 .47499085 .1532898 .47299195 .14929199 .47099305 .14228821 .43798829 .03527832 .36999513 .011245728 .33799745 .011245728 .29899598 .011245728 .2829895 .043273927 .2829895 .07727051 .2829895 .09927368 .2889862 .121276859 .2999878 .16529846L.33399964 .30233766Z"/>
<path id="font_6_2" d="M.48599244 .38136292C.48999024 .39537049 .48999024 .39736939 .48999024 .40437318 .48999024 .42237855 .47599793 .43138124 .46099855 .43138124 .45098878 .43138124 .43499757 .42536927 .42599488 .41036988 .42399598 .405365 .41600038 .37435914 .4119873 .35635377 .40499879 .33035279 .397995 .30334474 .3919983 .27633668L.34700013 .09628296C.34298707 .08126831 .2999878 .011245728 .23399353 .011245728 .18299866 .011245728 .17199707 .055267335 .17199707 .0922699 .17199707 .1382904 .18899536 .20030213 .22299195 .28833009 .23899842 .3293457 .24299622 .3403473 .24299622 .36035157 .24299622 .405365 .21099854 .4423828 .16099549 .4423828 .06599426 .4423828 .0289917 .29733277 .0289917 .28833009 .0289917 .27833558 .038986207 .27833558 .040985109 .27833558 .050994874 .27833558 .051986696 .28033448 .056991579 .29634095 .083999637 .3903656 .12399292 .42037965 .1579895 .42037965 .1659851 .42037965 .18299866 .42037965 .18299866 .3883667 .18299866 .36335755 .17298889 .3373413 .1659851 .31834413 .12599182 .21231079 .10798645 .1552887 .10798645 .10827637 .10798645 .019256592 .17098999-.0107421879 .22999573-.0107421879 .2689972-.0107421879 .30299378 .0062561037 .33099366 .03425598 .31799317-.017745972 .30599977-.06674194 .2659912-.11973572 .23999024-.15385437 .20199585-.18309021 .1559906-.18309021 .14199829-.18309021 .09700012-.18005371 .07998657-.14074707 .09599304-.14074707 .10899353-.14074707 .12298584-.1287384 .1329956-.11973572 .14299011-.10673523 .14299011-.08773804 .14299011-.056747438 .115997318-.052734376 .10598755-.052734376 .08299255-.052734376 .049987794-.068740848 .049987794-.11773682 .049987794-.16796875 .09399414-.20507813 .1559906-.20507813 .25898744-.20507813 .3619995-.11373901 .3899994-.00074768069L.48599244 .38136292Z"/>
</defs>
<path transform="matrix(1.00002,0,0,-1.00005,1.559433,143.16414)" d="M0 0H163.87732V141.36016H0Z" fill="#fffac2"/>
<path transform="matrix(1.00002,0,0,-1.00005,1.559433,143.16414)" stroke-width=".3985" stroke-linecap="butt" stroke-miterlimit="10" stroke-linejoin="miter" fill="none" stroke="#d5d6d5" d="M0 0V141.36016M11.70552 0V141.36016M23.41104 0V141.36016M35.11656 0V141.36016M46.82208 0V141.36016M58.5276 0V141.36016M70.23314 0V141.36016M81.93866 0V141.36016M93.64418 0V141.36016M105.3497 0V141.36016M117.05522 0V141.36016M128.76074 0V141.36016M140.46628 0V141.36016M152.1718 0V141.36016M163.87732 0V141.36016"/>
<path transform="matrix(1.00002,0,0,-1.00005,1.559433,143.16414)" stroke-width=".3985" stroke-linecap="butt" stroke-miterlimit="10" stroke-linejoin="miter" fill="none" stroke="#d5d6d5" d="M11.70552 0V141.36016M35.11656 0V141.36016M58.5276 0V141.36016M105.3497 0V141.36016M128.76074 0V141.36016M152.1718 0V141.36016"/>
<path transform="matrix(1.00002,0,0,-1.00005,1.559433,143.16414)" stroke-width=".3985" stroke-linecap="butt" stroke-miterlimit="10" stroke-linejoin="miter" fill="none" stroke="#d5d6d5" d="M0 0H163.87732M0 10.09715H163.87732M0 20.1943H163.87732M0 30.29146H163.87732M0 40.38861H163.87732M0 50.48576H163.87732M0 60.58292H163.87732M0 70.68007H163.87732M0 80.77722H163.87732M0 90.87437H163.87732M0 100.97153H163.87732M0 111.06868H163.87732M0 121.16585H163.87732M0 131.263H163.87732M0 141.36016H163.87732"/>
<path transform="matrix(1.00002,0,0,-1.00005,1.559433,143.16414)" stroke-width=".3985" stroke-linecap="butt" stroke-miterlimit="10" stroke-linejoin="miter" fill="none" stroke="#d5d6d5" d="M0 10.09715H163.87732M0 30.29146H163.87732M0 50.48576H163.87732M0 90.87437H163.87732M0 111.06868H163.87732M0 131.263H163.87732"/>
<path transform="matrix(1.00002,0,0,-1.00005,1.559433,143.16414)" stroke-width=".19925" stroke-linecap="butt" stroke-miterlimit="10" stroke-linejoin="miter" fill="none" stroke="#929292" d="M0 69.26266V72.09747M11.70552 69.26266V72.09747M23.41104 69.26266V72.09747M35.11656 69.26266V72.09747M46.82208 69.26266V72.09747M58.5276 69.26266V72.09747M70.23314 69.26266V72.09747M81.93866 69.26266V72.09747M93.64418 69.26266V72.09747M105.3497 69.26266V72.09747M117.05522 69.26266V72.09747M128.76074 69.26266V72.09747M140.46628 69.26266V72.09747M152.1718 69.26266V72.09747M163.87732 69.26266V72.09747"/>
<path transform="matrix(1.00002,0,0,-1.00005,1.559433,143.16414)" stroke-width=".19925" stroke-linecap="butt" stroke-miterlimit="10" stroke-linejoin="miter" fill="none" stroke="#929292" d="M11.70552 68.5542V72.80592M35.11656 68.5542V72.80592M58.5276 68.5542V72.80592M105.3497 68.5542V72.80592M128.76074 68.5542V72.80592M152.1718 68.5542V72.80592"/>
<path transform="matrix(1.00002,0,0,-1.00005,1.559433,143.16414)" stroke-width=".19925" stroke-linecap="butt" stroke-miterlimit="10" stroke-linejoin="miter" fill="none" stroke="#929292" d="M80.52133 0H83.35599M80.52133 10.09715H83.35599M80.52133 20.1943H83.35599M80.52133 30.29146H83.35599M80.52133 40.38861H83.35599M80.52133 50.48576H83.35599M80.52133 60.58292H83.35599M80.52133 70.68007H83.35599M80.52133 80.77722H83.35599M80.52133 90.87437H83.35599M80.52133 100.97153H83.35599M80.52133 111.06868H83.35599M80.52133 121.16585H83.35599M80.52133 131.263H83.35599M80.52133 141.36016H83.35599"/>
<path transform="matrix(1.00002,0,0,-1.00005,1.559433,143.16414)" stroke-width=".19925" stroke-linecap="butt" stroke-miterlimit="10" stroke-linejoin="miter" fill="none" stroke="#929292" d="M79.81287 10.09715H84.06442M79.81287 30.29146H84.06442M79.81287 50.48576H84.06442M79.81287 90.87437H84.06442M79.81287 111.06868H84.06442M79.81287 131.263H84.06442"/>
<path transform="matrix(1.00002,0,0,-1.00005,1.559433,143.16414)" stroke-width=".3985" stroke-linecap="butt" stroke-miterlimit="10" stroke-linejoin="miter" fill="none" stroke="#000000" d="M1.99252 70.68007H161.8848"/>
<path transform="matrix(-1.00002,-0,0,1.00005,3.551993,72.48054)" d="M1.99252 0-1.19551 1.59401 0 0-1.19551-1.59401"/>
<path transform="matrix(1.00002,0,0,-1.00005,163.44747,72.48054)" d="M1.99252 0-1.19551 1.59401 0 0-1.19551-1.59401"/>
<path transform="matrix(1.00002,0,0,-1.00005,1.559433,143.16414)" stroke-width=".3985" stroke-linecap="butt" stroke-miterlimit="10" stroke-linejoin="miter" fill="none" stroke="#000000" d="M81.93866 1.99252V139.36763"/>
<path transform="matrix(0,1.00005,1.00002,0,83.49973,141.17153)" d="M1.99252 0-1.19551 1.59401 0 0-1.19551-1.59401"/>
<path transform="matrix(0,-1.00005,-1.00002,-0,83.49973,3.7895509)" d="M1.99252 0-1.19551 1.59401 0 0-1.19551-1.59401"/>
<use data-text="&#x2212;" xlink:href="#font_1_1" transform="matrix(7.9702599,0,0,-7.970498,7.854559,83.26315)"/>
<use data-text="6" xlink:href="#font_2_3" transform="matrix(7.9702599,0,0,-7.970498,14.44169,83.26315)"/>
<use data-text="&#x2212;" xlink:href="#font_1_1" transform="matrix(7.9702599,0,0,-7.970498,31.266028,83.26315)"/>
<use data-text="4" xlink:href="#font_2_2" transform="matrix(7.9702599,0,0,-7.970498,37.853158,83.26315)"/>
<use data-text="&#x2212;" xlink:href="#font_1_1" transform="matrix(7.9702599,0,0,-7.970498,54.677499,83.26315)"/>
<use data-text="2" xlink:href="#font_2_1" transform="matrix(7.9702599,0,0,-7.970498,61.26463,83.26315)"/>
<use data-text="2" xlink:href="#font_2_1" transform="matrix(7.9702599,0,0,-7.970498,104.7945,83.26315)"/>
<use data-text="4" xlink:href="#font_2_2" transform="matrix(7.9702599,0,0,-7.970498,128.20597,83.26315)"/>
<use data-text="6" xlink:href="#font_2_3" transform="matrix(7.9702599,0,0,-7.970498,151.61743,83.26315)"/>
<use data-text="&#x2212;" xlink:href="#font_1_1" transform="matrix(7.9702599,0,0,-7.970498,68.92378,135.21974)"/>
<use data-text="6" xlink:href="#font_2_3" transform="matrix(7.9702599,0,0,-7.970498,75.51091,135.21974)"/>
<use data-text="&#x2212;" xlink:href="#font_1_1" transform="matrix(7.9702599,0,0,-7.970498,68.92378,115.024738)"/>
<use data-text="4" xlink:href="#font_2_2" transform="matrix(7.9702599,0,0,-7.970498,75.51091,115.024738)"/>
<use data-text="&#x2212;" xlink:href="#font_1_1" transform="matrix(7.9702599,0,0,-7.970498,68.92378,94.82872)"/>
<use data-text="2" xlink:href="#font_2_1" transform="matrix(7.9702599,0,0,-7.970498,75.51091,94.82872)"/>
<use data-text="2" xlink:href="#font_2_1" transform="matrix(7.9702599,0,0,-7.970498,75.51091,54.85373)"/>
<use data-text="4" xlink:href="#font_2_2" transform="matrix(7.9702599,0,0,-7.970498,75.51091,34.65773)"/>
<use data-text="6" xlink:href="#font_2_3" transform="matrix(7.9702599,0,0,-7.970498,75.51091,14.4627079)"/>
<path transform="matrix(1.00002,0,0,-1.00005,1.559433,143.16414)" stroke-width=".99628" stroke-linecap="butt" stroke-miterlimit="10" stroke-linejoin="miter" fill="none" stroke="#9e0c0f" d="M7.58615 48.70877 6.82817 48.38216 13.65636 51.32715 20.48454 54.27214 27.31271 57.21712 34.1409 60.16211 40.96909 63.1071 47.79726 66.0521 54.62544 68.99707 61.45363 71.94205 68.2818 74.88704 75.10999 77.83203 81.93817 80.77701 88.76636 83.722 95.59453 86.66698 102.42271 89.61197 109.2509 92.55696 116.07907 95.50194 122.90727 98.44693 129.73546 101.3919 136.56363 104.3369 143.3918 107.28189 150.21999 110.22688 157.04817 113.17184 156.29019 112.84499"/>
<path transform="matrix(-.91821846,.3959998,.39598794,.91824588,9.792598,94.17394)" d="M7.39124 0 2.37614 1.6717 .70447 0 2.37614-1.6717Z" fill="#9e0c0f"/>
<path transform="matrix(-.91821846,.3959998,.39598794,.91824588,9.792598,94.17394)" stroke-width=".99628" stroke-linecap="butt" stroke-miterlimit="10" stroke-linejoin="miter" fill="none" stroke="#9e0c0f" d="M7.39124 0 2.37614 1.6717 .70447 0 2.37614-1.6717Z"/>
<path transform="matrix(.91821846,-.3960298,-.39601795,-.91824588,157.20589,30.592507)" d="M7.39124 0 2.37614 1.6717 .70447 0 2.37614-1.6717Z" fill="#9e0c0f"/>
<path transform="matrix(.91821846,-.3960298,-.39601795,-.91824588,157.20589,30.592507)" stroke-width=".99628" stroke-linecap="butt" stroke-miterlimit="10" stroke-linejoin="miter" fill="none" stroke="#9e0c0f" d="M7.39124 0 2.37614 1.6717 .70447 0 2.37614-1.6717Z"/>
<path transform="matrix(1.00002,0,0,-1.00005,1.559433,143.16414)" stroke-width=".3985" stroke-linecap="butt" stroke-miterlimit="10" stroke-linejoin="miter" fill="none" stroke="#000000" d="M11.70552 50.48576 35.11656 60.58292"/>
<use data-text="r" xlink:href="#font_3_96" transform="matrix(9.962799,0,0,-9.963098,36.96414,114.24069)"/>
<use data-text="a" xlink:href="#font_3_28" transform="matrix(9.962799,0,0,-9.963098,40.86956,114.24069)"/>
<use data-text="t" xlink:href="#font_3_105" transform="matrix(9.962799,0,0,-9.963098,45.85096,114.24069)"/>
<use data-text="e" xlink:href="#font_3_50" transform="matrix(9.962799,0,0,-9.963098,49.72649,114.24069)"/>
<use data-text="1" xlink:href="#font_4_1" transform="matrix(6.97394,0,0,-6.9741489,58.663576,110.317508)"/>
<path transform="matrix(1.00002,0,0,-1.00005,12.106644,-48.732439)" stroke-width=".3985" stroke-linecap="butt" stroke-miterlimit="10" stroke-linejoin="miter" fill="none" stroke="#000000" d="M46.556-160.474H50.527"/>
<use data-text="2" xlink:href="#font_4_2" transform="matrix(6.97394,0,0,-6.9741489,58.663576,117.67587)"/>
<path transform="matrix(1.00002,0,0,-1.00005,1.559433,143.16414)" stroke-width=".3985" stroke-linecap="butt" stroke-miterlimit="10" stroke-linejoin="miter" fill="none" stroke="#b3d9d9" d="M26.93086 52.19579 38.88309 40.85889"/>
<path transform="matrix(1.00002,0,0,-1.00005,1.559433,143.16414)" stroke-width=".3985" stroke-linecap="butt" stroke-miterlimit="10" stroke-linejoin="miter" fill="none" stroke="#000000" d="M35.11656 60.58292 81.93866 80.77722"/>
<use data-text="r" xlink:href="#font_3_96" transform="matrix(9.962799,0,0,-9.963098,1.5824337,50.848535)"/>
<use data-text="a" xlink:href="#font_3_28" transform="matrix(9.962799,0,0,-9.963098,5.487852,50.848535)"/>
<use data-text="t" xlink:href="#font_3_105" transform="matrix(9.962799,0,0,-9.963098,10.469252,50.848535)"/>
<use data-text="e" xlink:href="#font_3_50" transform="matrix(9.962799,0,0,-9.963098,14.344782,50.848535)"/>
<use data-text="2" xlink:href="#font_4_2" transform="matrix(6.97394,0,0,-6.9741489,23.281867,46.925348)"/>
<path transform="matrix(1.00002,0,0,-1.00005,-23.275065,-112.124599)" stroke-width=".3985" stroke-linecap="butt" stroke-miterlimit="10" stroke-linejoin="miter" fill="none" stroke="#000000" d="M46.556-160.474H50.527"/>
<use data-text="4" xlink:href="#font_4_4" transform="matrix(6.97394,0,0,-6.9741489,23.281867,54.283716)"/>
<use data-text="=" xlink:href="#font_5_1" transform="matrix(9.962799,0,0,-9.963098,31.216025,50.848535)"/>
<use data-text="1" xlink:href="#font_4_1" transform="matrix(6.97394,0,0,-6.9741489,42.92726,46.925348)"/>
<path transform="matrix(1.00002,0,0,-1.00005,-23.275065,-112.124599)" stroke-width=".3985" stroke-linecap="butt" stroke-miterlimit="10" stroke-linejoin="miter" fill="none" stroke="#000000" d="M66.201-160.474H70.173"/>
<use data-text="2" xlink:href="#font_4_2" transform="matrix(6.97394,0,0,-6.9741489,42.92726,54.283716)"/>
<path transform="matrix(1.00002,0,0,-1.00005,1.559433,143.16414)" stroke-width=".3985" stroke-linecap="butt" stroke-miterlimit="10" stroke-linejoin="miter" fill="none" stroke="#b3d9d9" d="M55.00778 73.08829 37.07816 85.35553"/>
<path transform="matrix(1.00002,0,0,-1.00005,1.559433,143.16414)" stroke-width=".3985" stroke-linecap="butt" stroke-miterlimit="10" stroke-linejoin="miter" fill="none" stroke="#000000" d="M81.93866 80.77722 152.1718 111.06868"/>
<use data-text="r" xlink:href="#font_3_96" transform="matrix(9.962799,0,0,-9.963098,95.36031,23.87819)"/>
<use data-text="a" xlink:href="#font_3_28" transform="matrix(9.962799,0,0,-9.963098,99.26573,23.87819)"/>
<use data-text="t" xlink:href="#font_3_105" transform="matrix(9.962799,0,0,-9.963098,104.24713,23.87819)"/>
<use data-text="e" xlink:href="#font_3_50" transform="matrix(9.962799,0,0,-9.963098,108.122669,23.87819)"/>
<use data-text="3" xlink:href="#font_4_3" transform="matrix(6.97394,0,0,-6.9741489,117.059749,19.955002)"/>
<path transform="matrix(1.00002,0,0,-1.00005,70.502819,-139.09494)" stroke-width=".3985" stroke-linecap="butt" stroke-miterlimit="10" stroke-linejoin="miter" fill="none" stroke="#000000" d="M46.556-160.474H50.527"/>
<use data-text="6" xlink:href="#font_4_5" transform="matrix(6.97394,0,0,-6.9741489,117.059749,27.31337)"/>
<use data-text="=" xlink:href="#font_5_1" transform="matrix(9.962799,0,0,-9.963098,124.993907,23.87819)"/>
<use data-text="1" xlink:href="#font_4_1" transform="matrix(6.97394,0,0,-6.9741489,136.70514,19.955002)"/>
<path transform="matrix(1.00002,0,0,-1.00005,70.502819,-139.09494)" stroke-width=".3985" stroke-linecap="butt" stroke-miterlimit="10" stroke-linejoin="miter" fill="none" stroke="#000000" d="M66.201-160.474H70.173"/>
<use data-text="2" xlink:href="#font_4_2" transform="matrix(6.97394,0,0,-6.9741489,136.70514,27.31337)"/>
<path transform="matrix(1.00002,0,0,-1.00005,1.559433,143.16414)" stroke-width=".3985" stroke-linecap="butt" stroke-miterlimit="10" stroke-linejoin="miter" fill="none" stroke="#b3d9d9" d="M117.05522 99.44278V112.32463"/>
<path transform="matrix(1.00002,0,0,-1.00005,1.559433,143.16414)" d="M13.69807 50.48576C13.69807 51.58623 12.80598 52.47832 11.70552 52.47832 10.60504 52.47832 9.71297 51.58623 9.71297 50.48576 9.71297 49.38528 10.60504 48.49321 11.70552 48.49321 12.80598 48.49321 13.69807 49.38528 13.69807 50.48576ZM11.70552 50.48576" fill="#9e0c0f"/>
<path transform="matrix(1.00002,0,0,-1.00005,1.559433,143.16414)" stroke-width=".3985" stroke-linecap="butt" stroke-miterlimit="10" stroke-linejoin="miter" fill="none" stroke="#9e0c0f" d="M13.69807 50.48576C13.69807 51.58623 12.80598 52.47832 11.70552 52.47832 10.60504 52.47832 9.71297 51.58623 9.71297 50.48576 9.71297 49.38528 10.60504 48.49321 11.70552 48.49321 12.80598 48.49321 13.69807 49.38528 13.69807 50.48576ZM11.70552 50.48576"/>
<path transform="matrix(1.00002,0,0,-1.00005,1.559433,143.16414)" d="M37.10912 60.58292C37.10912 61.6834 36.21704 62.57547 35.11656 62.57547 34.0161 62.57547 33.12401 61.6834 33.12401 60.58292 33.12401 59.48245 34.0161 58.59036 35.11656 58.59036 36.21704 58.59036 37.10912 59.48245 37.10912 60.58292ZM35.11656 60.58292" fill="#9e0c0f"/>
<path transform="matrix(1.00002,0,0,-1.00005,1.559433,143.16414)" stroke-width=".3985" stroke-linecap="butt" stroke-miterlimit="10" stroke-linejoin="miter" fill="none" stroke="#9e0c0f" d="M37.10912 60.58292C37.10912 61.6834 36.21704 62.57547 35.11656 62.57547 34.0161 62.57547 33.12401 61.6834 33.12401 60.58292 33.12401 59.48245 34.0161 58.59036 35.11656 58.59036 36.21704 58.59036 37.10912 59.48245 37.10912 60.58292ZM35.11656 60.58292"/>
<path transform="matrix(1.00002,0,0,-1.00005,1.559433,143.16414)" d="M83.93121 80.77722C83.93121 81.8777 83.03912 82.76978 81.93866 82.76978 80.83818 82.76978 79.9461 81.8777 79.9461 80.77722 79.9461 79.67676 80.83818 78.78467 81.93866 78.78467 83.03912 78.78467 83.93121 79.67676 83.93121 80.77722ZM81.93866 80.77722" fill="#9e0c0f"/>
<path transform="matrix(1.00002,0,0,-1.00005,1.559433,143.16414)" stroke-width=".3985" stroke-linecap="butt" stroke-miterlimit="10" stroke-linejoin="miter" fill="none" stroke="#9e0c0f" d="M83.93121 80.77722C83.93121 81.8777 83.03912 82.76978 81.93866 82.76978 80.83818 82.76978 79.9461 81.8777 79.9461 80.77722 79.9461 79.67676 80.83818 78.78467 81.93866 78.78467 83.03912 78.78467 83.93121 79.67676 83.93121 80.77722ZM81.93866 80.77722"/>
<path transform="matrix(1.00002,0,0,-1.00005,1.559433,143.16414)" d="M154.16436 111.06868C154.16436 112.16916 153.27227 113.06123 152.1718 113.06123 151.07132 113.06123 150.17925 112.16916 150.17925 111.06868 150.17925 109.96822 151.07132 109.07613 152.1718 109.07613 153.27227 109.07613 154.16436 109.96822 154.16436 111.06868ZM152.1718 111.06868" fill="#9e0c0f"/>
<path transform="matrix(1.00002,0,0,-1.00005,1.559433,143.16414)" stroke-width=".3985" stroke-linecap="butt" stroke-miterlimit="10" stroke-linejoin="miter" fill="none" stroke="#9e0c0f" d="M154.16436 111.06868C154.16436 112.16916 153.27227 113.06123 152.1718 113.06123 151.07132 113.06123 150.17925 112.16916 150.17925 111.06868 150.17925 109.96822 151.07132 109.07613 152.1718 109.07613 153.27227 109.07613 154.16436 109.96822 154.16436 111.06868ZM152.1718 111.06868"/>
<path transform="matrix(1.00002,0,0,-1.00005,1.559433,143.16414)" stroke-width=".3985" stroke-linecap="butt" stroke-miterlimit="10" stroke-linejoin="miter" fill="none" stroke="#9e0c0f" d=""/>
<use data-text="x" xlink:href="#font_6_1" transform="matrix(9.962799,0,0,-9.963098,156.22653,68.960437)"/>
<use data-text="y" xlink:href="#font_6_2" transform="matrix(9.962799,0,0,-9.963098,87.01914,9.606476)"/>
</svg>
