<svg xmlns="http://www.w3.org/2000/svg" xmlns:xlink="http://www.w3.org/1999/xlink" version="1.1" width="145" height="128" viewBox="0 0 145 128">
<defs>
<path id="font_1_1" d="M.3909912 .37405396C.36299134 .37304688 .34298707 .3510437 .34298707 .32904054 .34298707 .31503297 .35198976 .30003358 .37399293 .30003358 .3959961 .30003358 .41999818 .31703187 .41999818 .35603334 .41999818 .40124513 .3769989 .4423828 .30099488 .4423828 .16899109 .4423828 .13198853 .3400421 .13198853 .29605104 .13198853 .21820069 .20599365 .20323181 .23498535 .19725037 .2869873 .18727112 .33898927 .17628479 .33898927 .12133789 .33898927 .095336917 .31599427 .011245728 .19599915 .011245728 .18199158 .011245728 .10499573 .011245728 .08198547 .064331058 .11999512 .059326173 .14498902 .08934021 .14498902 .11734009 .14498902 .14033509 .1289978 .15234375 .10798645 .15234375 .08198547 .15234375 .051986696 .1313324 .051986696 .08633423 .051986696 .029281617 .10899353-.0107421879 .19499207-.0107421879 .35699464-.0107421879 .3959961 .1103363 .3959961 .15533448 .3959961 .19125366 .3769989 .21620178 .36499024 .22817993 .33799745 .25613404 .30899049 .26112367 .2649994 .27009584 .22898865 .27807618 .18899536 .2850647 .18899536 .33003236 .18899536 .3590393 .21299744 .42037965 .30099488 .42037965 .32598878 .42037965 .37599183 .41333009 .3909912 .37405396Z"/>
<path id="font_2_1" d="M.44299317-.84217837 .24699402-.45318605C.24198914-.44317628 .23899842-.43717958 .23098755-.43717958 .22698975-.43717958 .22499085-.43717958 .21499634-.44517518L.10798645-.5161743C.09399414-.525177 .09399414-.5301819 .09399414-.5331726 .09399414-.5391846 .09899902-.5471802 .10798645-.5471802 .11199951-.5471802 .11399841-.5471802 .1269989-.5381775 .13798523-.5301819 .16699219-.5101776 .1789856-.502182L.397995-.9341736C.40499879-.949173 .40699769-.9511719 .42099-.9511719 .42999269-.9511719 .44099427-.9511719 .45098878-.9321747L.95399478 .003829956C.96199038 .016815186 .96199038 .018829346 .96199038 .02381897 .96199038 .03982544 .94898989 .048828126 .9379883 .048828126 .9229889 .048828126 .91799929 .03982544 .9119873 .027816773L.44299317-.84217837Z"/>
<path id="font_3_2" d="M.272995 .33428956C.35099793 .33428956 .40699769 .2803192 .40699769 .1733551 .40699769 .04940796 .33499146 .012466431 .2769928 .012466431 .23699951 .012466431 .14898682 .0234375 .10699463 .082351688 .1539917 .084350589 .16499329 .11735535 .16499329 .13835144 .16499329 .17034912 .14099121 .19335938 .10998535 .19335938 .08198547 .19335938 .053985597 .17634583 .053985597 .13534546 .053985597 .041412355 .1579895-.01953125 .2789917-.01953125 .41799928-.01953125 .5139923 .07336426 .5139923 .1733551 .5139923 .2513275 .44999696 .32929994 .33999635 .35229493 .44499208 .39024354 .48298646 .4650879 .48298646 .5260773 .48298646 .60505679 .3919983 .6640625 .2809906 .6640625 .16999817 .6640625 .084991458 .61006167 .084991458 .5300751 .084991458 .49606324 .10699463 .47706605 .13699341 .47706605 .16799927 .47706605 .18798828 .5000763 .18798828 .5280762 .18798828 .5570679 .16799927 .57806399 .13699341 .5800781 .17199707 .62405398 .24099732 .63505557 .27799989 .63505557 .32299806 .63505557 .38598634 .6130676 .38598634 .5260773 .38598634 .48406983 .37199403 .43814088 .34599305 .4072113 .31298829 .36927796 .2849884 .3672943 .23498535 .36428834 .20999146 .3623047 .20799256 .3623047 .20298767 .3612976 .20098877 .3612976 .19299317 .3592987 .19299317 .34829713 .19299317 .33428956 .20199585 .33428956 .21899414 .33428956H.272995Z"/>
<path id="font_3_1" d="M.5049896 .18203736H.47099305C.46798707 .16001892 .45799256 .100997928 .44499208 .09098816 .43699647 .084991458 .3600006 .084991458 .34599305 .084991458H.1619873C.2669983 .17803955 .3019867 .20603943 .3619995 .25306703 .43598939 .312088 .5049896 .374115 .5049896 .46914674 .5049896 .5900879 .39898683 .6640625 .2709961 .6640625 .14698792 .6640625 .06298828 .57710269 .06298828 .4851532 .06298828 .43414308 .10598755 .42915345 .115997318 .42915345 .13999939 .42915345 .16899109 .44615174 .16899109 .48214723 .16899109 .5001526 .1619873 .53515627 .10998535 .53515627 .14099121 .6060791 .20899964 .62805178 .2559967 .62805178 .35598756 .62805178 .4079895 .5501404 .4079895 .46914674 .4079895 .38212586 .34599305 .3130951 .31399537 .27708436L.07299805 .038986207C.06298828 .02999878 .06298828 .027999878 .06298828 0H.47499085L.5049896 .18203736Z"/>
</defs>
<path transform="matrix(1.00006,0,0,-1.00005,1.4611073,126.52933)" d="M70.867 124.72578 0 0H141.73404L70.867 124.72578V0" fill="#ecd9c6"/>
<path transform="matrix(1.00006,0,0,-1.00005,1.4611073,126.52933)" stroke-width=".3985" stroke-linecap="butt" stroke-miterlimit="10" stroke-linejoin="miter" fill="none" stroke="#000000" d="M70.867 124.72578 0 0H141.73404L70.867 124.72578V0"/>
<use data-text="s" xlink:href="#font_1_1" transform="matrix(9.963197,0,0,-9.963098,28.70674,60.643037)"/>
<use data-text="&#x221a;" xlink:href="#font_2_1" transform="matrix(6.9742186,0,0,-6.9741489,77.047649,70.396518)"/>
<path transform="matrix(1.00006,0,0,-1.00005,57.390466,-66.41632)" stroke-width=".3387" stroke-linecap="butt" stroke-miterlimit="10" stroke-linejoin="miter" fill="none" stroke="#000000" d="M26.201-136.636H30.172"/>
<use data-text="3" xlink:href="#font_3_2" transform="matrix(6.9742186,0,0,-6.9741489,83.59303,76.172809)"/>
<path transform="matrix(1.00006,0,0,-1.00005,57.390466,-66.41632)" stroke-width=".3985" stroke-linecap="butt" stroke-miterlimit="10" stroke-linejoin="miter" fill="none" stroke="#000000" d="M19.656-144.038H30.172"/>
<use data-text="2" xlink:href="#font_3_1" transform="matrix(6.9742186,0,0,-6.9741489,80.32084,83.55617)"/>
<use data-text="s" xlink:href="#font_1_1" transform="matrix(9.963197,0,0,-9.963098,88.760349,80.119998)"/>
</svg>
