<svg xmlns="http://www.w3.org/2000/svg" xmlns:xlink="http://www.w3.org/1999/xlink" version="1.1" width="145" height="74" viewBox="0 0 145 74">
<defs>
<path id="font_1_1" d="M.33499146 .63612368C.33499146 .6630554 .33299256 .6640625 .30499269 .6640625 .24099732 .6014404 .1499939 .6004486 .10899353 .6004486V.5644531C.1329956 .5644531 .19898987 .5644531 .2539978 .592453V.08203125C.2539978 .04899597 .2539978 .035995485 .1539917 .035995485H.115997318V0C.13398743 .0009918213 .25698854 .0039978029 .2939911 .0039978029 .32499696 .0039978029 .45098878 .0009918213 .47299195 0V.035995485H.43499757C.33499146 .035995485 .33499146 .04899597 .33499146 .08203125V.63612368Z"/>
<path id="font_1_2" d="M.15499878 .5588074C.20599365 .5458069 .23599243 .5458069 .2519989 .5458069 .38398744 .5458069 .46199037 .6358032 .46199037 .6508026 .46199037 .6618042 .45498658 .6648102 .44999696 .6648102 .44799806 .6648102 .44599916 .6648102 .44198609 .6618042 .41799928 .6528015 .36499024 .6328125 .29100038 .6328125 .2630005 .6328125 .20999146 .6348114 .14498902 .6598053 .1349945 .6648102 .1329956 .6648102 .13198853 .6648102 .11898804 .6648102 .11898804 .6538086 .11898804 .6378021V.34251405C.11898804 .32548524 .11898804 .3134613 .1349945 .3134613 .14399719 .3134613 .14498902 .3154602 .15499878 .32748414 .19799805 .38259889 .25898744 .390625 .2939911 .390625 .35398866 .390625 .3809967 .34251405 .38598634 .33450318 .4039917 .30143739 .4099884 .26335145 .4099884 .20524597 .4099884 .17524719 .4099884 .116256717 .37998963 .07234192 .35499574 .03640747 .31199647 .012466431 .2630005 .012466431 .19799805 .012466431 .1309967 .04838562 .10598755 .11425781 .14399719 .11125183 .16299439 .13624573 .16299439 .16325379 .16299439 .20625305 .12599182 .21424866 .11299133 .21424866 .11099243 .21424866 .06298828 .21424866 .06298828 .1602478 .06298828 .07034302 .14498902-.01953125 .2649994-.01953125 .3929901-.01953125 .5049896 .07533264 .5049896 .20124817 .5049896 .31445313 .4189911 .41862489 .29499818 .41862489 .25099183 .41862489 .19898987 .4076233 .15499878 .36956788V.5588074Z"/>
</defs>
<path transform="matrix(1.00005,0,0,-1,2.0231019,30.146)" stroke-width=".3985" stroke-linecap="butt" stroke-miterlimit="10" stroke-linejoin="miter" fill="none" stroke="#000000" d="M0 0V28.3468H141.73404V0ZM141.73404 28.3468"/>
<path transform="matrix(1.00005,0,0,-1,2.0231019,30.146)" d="M0 0V28.3468H56.69362V0ZM56.69362 28.3468" fill="#eccecf"/>
<path transform="matrix(1.00005,0,0,-1,2.0231019,30.146)" stroke-width=".3985" stroke-linecap="butt" stroke-miterlimit="10" stroke-linejoin="miter" fill="none" stroke="#000000" d="M0 0V28.3468H56.69362V0ZM56.69362 28.3468"/>
<path transform="matrix(1.00005,0,0,-1,2.0231019,30.146)" stroke-width=".3985" stroke-linecap="butt" stroke-miterlimit="10" stroke-linejoin="miter" fill="none" stroke="#000000" d="M28.3468 0V28.3468"/>
<path transform="matrix(1.00005,0,0,-1,2.0231019,30.146)" stroke-width=".3985" stroke-linecap="butt" stroke-miterlimit="10" stroke-linejoin="miter" fill="none" stroke="#000000" d="M56.69362 0V28.3468"/>
<path transform="matrix(1.00005,0,0,-1,2.0231019,30.146)" stroke-width=".3985" stroke-linecap="butt" stroke-miterlimit="10" stroke-linejoin="miter" fill="none" stroke="#000000" d="M85.04042 0V28.3468"/>
<path transform="matrix(1.00005,0,0,-1,2.0231019,30.146)" stroke-width=".3985" stroke-linecap="butt" stroke-miterlimit="10" stroke-linejoin="miter" fill="none" stroke="#000000" d="M113.38724 0V28.3468"/>
<use data-text="1" xlink:href="#font_1_1" transform="matrix(6.9741489,0,0,-6.9738,14.211709,14.540001)"/>
<path transform="matrix(1.00005,0,0,-1,-9.0084509,-31.682999)" stroke-width=".3985" stroke-linecap="butt" stroke-miterlimit="10" stroke-linejoin="miter" fill="none" stroke="#000000" d="M23.219-47.655H27.19"/>
<use data-text="5" xlink:href="#font_1_2" transform="matrix(6.9741489,0,0,-6.9738,14.211709,21.898003)"/>
<use data-text="1" xlink:href="#font_1_1" transform="matrix(6.9741489,0,0,-6.9738,42.560129,14.540001)"/>
<path transform="matrix(1.00005,0,0,-1,19.339966,-31.682999)" stroke-width=".3985" stroke-linecap="butt" stroke-miterlimit="10" stroke-linejoin="miter" fill="none" stroke="#000000" d="M23.219-47.655H27.19"/>
<use data-text="5" xlink:href="#font_1_2" transform="matrix(6.9741489,0,0,-6.9738,42.560129,21.898003)"/>
<path transform="matrix(1.00005,0,0,-1,2.0231019,30.146)" stroke-width=".3985" stroke-linecap="butt" stroke-miterlimit="10" stroke-linejoin="miter" fill="none" stroke="#000000" d="M0-42.5202V-14.17339H141.73404V-42.5202ZM141.73404-14.17339"/>
<path transform="matrix(1.00005,0,0,-1,2.0231019,30.146)" d="M0-42.5202V-14.17339H56.69362V-42.5202ZM56.69362-14.17339" fill="#eccecf"/>
<path transform="matrix(1.00005,0,0,-1,2.0231019,30.146)" stroke-width=".3985" stroke-linecap="butt" stroke-miterlimit="10" stroke-linejoin="miter" fill="none" stroke="#000000" d="M0-42.5202V-14.17339H56.69362V-42.5202ZM56.69362-14.17339"/>
<path transform="matrix(1.00005,0,0,-1,2.0231019,30.146)" stroke-width=".3985" stroke-linecap="butt" stroke-miterlimit="10" stroke-linejoin="miter" fill="none" stroke="#000000" d="M9.44792-42.5202V-14.17339"/>
<path transform="matrix(1.00005,0,0,-1,2.0231019,30.146)" stroke-width=".3985" stroke-linecap="butt" stroke-miterlimit="10" stroke-linejoin="miter" fill="none" stroke="#000000" d="M18.89886-42.5202V-14.17339"/>
<path transform="matrix(1.00005,0,0,-1,2.0231019,30.146)" stroke-width=".3985" stroke-linecap="butt" stroke-miterlimit="10" stroke-linejoin="miter" fill="none" stroke="#000000" d="M28.3468-42.5202V-14.17339"/>
<path transform="matrix(1.00005,0,0,-1,2.0231019,30.146)" stroke-width=".3985" stroke-linecap="butt" stroke-miterlimit="10" stroke-linejoin="miter" fill="none" stroke="#000000" d="M37.79472-42.5202V-14.17339"/>
<path transform="matrix(1.00005,0,0,-1,2.0231019,30.146)" stroke-width=".3985" stroke-linecap="butt" stroke-miterlimit="10" stroke-linejoin="miter" fill="none" stroke="#000000" d="M47.24567-42.5202V-14.17339"/>
<path transform="matrix(1.00005,0,0,-1,2.0231019,30.146)" stroke-width=".3985" stroke-linecap="butt" stroke-miterlimit="10" stroke-linejoin="miter" fill="none" stroke="#000000" d="M56.69362-42.5202V-14.17339"/>
<path transform="matrix(1.00005,0,0,-1,2.0231019,30.146)" stroke-width=".3985" stroke-linecap="butt" stroke-miterlimit="10" stroke-linejoin="miter" fill="none" stroke="#000000" d="M66.14154-42.5202V-14.17339"/>
<path transform="matrix(1.00005,0,0,-1,2.0231019,30.146)" stroke-width=".3985" stroke-linecap="butt" stroke-miterlimit="10" stroke-linejoin="miter" fill="none" stroke="#000000" d="M75.59248-42.5202V-14.17339"/>
<path transform="matrix(1.00005,0,0,-1,2.0231019,30.146)" stroke-width=".3985" stroke-linecap="butt" stroke-miterlimit="10" stroke-linejoin="miter" fill="none" stroke="#000000" d="M85.04042-42.5202V-14.17339"/>
<path transform="matrix(1.00005,0,0,-1,2.0231019,30.146)" stroke-width=".3985" stroke-linecap="butt" stroke-miterlimit="10" stroke-linejoin="miter" fill="none" stroke="#000000" d="M94.48834-42.5202V-14.17339"/>
<path transform="matrix(1.00005,0,0,-1,2.0231019,30.146)" stroke-width=".3985" stroke-linecap="butt" stroke-miterlimit="10" stroke-linejoin="miter" fill="none" stroke="#000000" d="M103.9393-42.5202V-14.17339"/>
<path transform="matrix(1.00005,0,0,-1,2.0231019,30.146)" stroke-width=".3985" stroke-linecap="butt" stroke-miterlimit="10" stroke-linejoin="miter" fill="none" stroke="#000000" d="M113.38724-42.5202V-14.17339"/>
<path transform="matrix(1.00005,0,0,-1,2.0231019,30.146)" stroke-width=".3985" stroke-linecap="butt" stroke-miterlimit="10" stroke-linejoin="miter" fill="none" stroke="#000000" d="M122.83516-42.5202V-14.17339"/>
<path transform="matrix(1.00005,0,0,-1,2.0231019,30.146)" stroke-width=".3985" stroke-linecap="butt" stroke-miterlimit="10" stroke-linejoin="miter" fill="none" stroke="#000000" d="M132.2861-42.5202V-14.17339"/>
<use data-text="1" xlink:href="#font_1_1" transform="matrix(6.9741489,0,0,-6.9738,4.7642366,57.060998)"/>
<path transform="matrix(1.00005,0,0,-1,-20.442023,10.837999)" stroke-width=".3985" stroke-linecap="butt" stroke-miterlimit="10" stroke-linejoin="miter" fill="none" stroke="#000000" d="M23.219-47.655H31.161"/>
<use data-text="1" xlink:href="#font_1_1" transform="matrix(6.9741489,0,0,-6.9738,2.7781373,64.419)"/>
<use data-text="5" xlink:href="#font_1_2" transform="matrix(6.9741489,0,0,-6.9738,6.7464277,64.419)"/>
<use data-text="1" xlink:href="#font_1_1" transform="matrix(6.9741489,0,0,-6.9738,14.212709,57.060998)"/>
<path transform="matrix(1.00005,0,0,-1,-10.993549,10.837999)" stroke-width=".3985" stroke-linecap="butt" stroke-miterlimit="10" stroke-linejoin="miter" fill="none" stroke="#000000" d="M23.219-47.655H31.161"/>
<use data-text="1" xlink:href="#font_1_1" transform="matrix(6.9741489,0,0,-6.9738,12.22661,64.419)"/>
<use data-text="5" xlink:href="#font_1_2" transform="matrix(6.9741489,0,0,-6.9738,16.1949,64.419)"/>
<use data-text="1" xlink:href="#font_1_1" transform="matrix(6.9741489,0,0,-6.9738,23.660181,57.060998)"/>
<path transform="matrix(1.00005,0,0,-1,-1.5460777,10.837999)" stroke-width=".3985" stroke-linecap="butt" stroke-miterlimit="10" stroke-linejoin="miter" fill="none" stroke="#000000" d="M23.219-47.655H31.161"/>
<use data-text="1" xlink:href="#font_1_1" transform="matrix(6.9741489,0,0,-6.9738,21.674082,64.419)"/>
<use data-text="5" xlink:href="#font_1_2" transform="matrix(6.9741489,0,0,-6.9738,25.642373,64.419)"/>
<use data-text="1" xlink:href="#font_1_1" transform="matrix(6.9741489,0,0,-6.9738,33.111658,57.060998)"/>
<path transform="matrix(1.00005,0,0,-1,7.9053957,10.837999)" stroke-width=".3985" stroke-linecap="butt" stroke-miterlimit="10" stroke-linejoin="miter" fill="none" stroke="#000000" d="M23.219-47.655H31.161"/>
<use data-text="1" xlink:href="#font_1_1" transform="matrix(6.9741489,0,0,-6.9738,31.125555,64.419)"/>
<use data-text="5" xlink:href="#font_1_2" transform="matrix(6.9741489,0,0,-6.9738,35.093847,64.419)"/>
<use data-text="1" xlink:href="#font_1_1" transform="matrix(6.9741489,0,0,-6.9738,42.560129,57.060998)"/>
<path transform="matrix(1.00005,0,0,-1,17.353867,10.837999)" stroke-width=".3985" stroke-linecap="butt" stroke-miterlimit="10" stroke-linejoin="miter" fill="none" stroke="#000000" d="M23.219-47.655H31.161"/>
<use data-text="1" xlink:href="#font_1_1" transform="matrix(6.9741489,0,0,-6.9738,40.574029,64.419)"/>
<use data-text="5" xlink:href="#font_1_2" transform="matrix(6.9741489,0,0,-6.9738,44.542318,64.419)"/>
<use data-text="1" xlink:href="#font_1_1" transform="matrix(6.9741489,0,0,-6.9738,52.0086,57.060998)"/>
<path transform="matrix(1.00005,0,0,-1,26.802338,10.837999)" stroke-width=".3985" stroke-linecap="butt" stroke-miterlimit="10" stroke-linejoin="miter" fill="none" stroke="#000000" d="M23.219-47.655H31.161"/>
<use data-text="1" xlink:href="#font_1_1" transform="matrix(6.9741489,0,0,-6.9738,50.0225,64.419)"/>
<use data-text="5" xlink:href="#font_1_2" transform="matrix(6.9741489,0,0,-6.9738,53.990789,64.419)"/>
</svg>
