<svg xmlns="http://www.w3.org/2000/svg" xmlns:xlink="http://www.w3.org/1999/xlink" version="1.1" width="114" height="105" viewBox="0 0 114 105">
<defs>
<path id="font_1_1" d="M.31399537 .63708499C.31399537 .664032 .31199647 .66503909 .2849884 .66503909 .24398804 .6251831 .19099427 .6013489 .09599304 .6013489V.5683594C.12298584 .5683594 .1769867 .5683594 .23498535 .5953522V.08203125C.23498535 .04499817 .23199463 .032989503 .13699341 .032989503H.101989749V0C.14299011 .0029907227 .22898865 .0029907227 .27398683 .0029907227 .31900025 .0029907227 .4059906 .0029907227 .44699098 0V.032989503H.4119873C.31698609 .032989503 .31399537 .04499817 .31399537 .08203125V.63708499Z"/>
<path id="font_2_2" d="M.5379944 .18702698H.5009918C.49899293 .17301941 .4889984 .10699463 .47399903 .09599304 .46699525 .08999634 .38598634 .08999634 .37199403 .08999634H.18499756L.31298829 .19403076C.34700013 .22103882 .43598939 .28504945 .46699525 .31506349 .49699403 .3450775 .5379944 .39608766 .5379944 .46710206 .5379944 .5920563 .4249878 .66503909 .29100038 .66503909 .1619873 .66503909 .07199097 .58006289 .07199097 .48609925 .07199097 .43510438 .114990238 .42910768 .12599182 .42910768 .15098572 .42910768 .17999268 .44709779 .17999268 .48310853 .17999268 .50509646 .16699219 .5371094 .12298584 .5371094 .1459961 .5880585 .20698548 .6260376 .27598573 .6260376 .3809967 .6260376 .43699647 .5480957 .43699647 .46710206 .43699647 .39608766 .3899994 .32305909 .31999208 .25904847L.08299255 .041992189C.07299805 .03199768 .07199097 .0309906 .07199097 0H.5069885L.5379944 .18702698Z"/>
<path id="font_2_3" d="M.16999817 .5549774C.20298767 .54599 .23799134 .5419922 .27198792 .5419922 .2939911 .5419922 .34999085 .5419922 .41299439 .5769806 .42999269 .58699038 .49198915 .6279907 .49198915 .6490326 .49198915 .6620331 .48199464 .66503909 .47799684 .66503909 .47499085 .66503909 .47399903 .66503909 .46299745 .661026 .4269867 .6470337 .37599183 .63298037 .31098939 .63298037 .2619934 .63298037 .20799256 .64201357 .16299439 .6590271 .15299988 .6630249 .14898682 .66503909 .14498902 .66503909 .1309967 .66503909 .1309967 .6540375 .1309967 .6380005V.33787538C.1309967 .32086183 .1309967 .30885316 .14898682 .30885316 .1579895 .30885316 .16099549 .31285096 .16799927 .32086183 .19299317 .35289 .23699951 .38693238 .31498719 .38693238 .43798829 .38693238 .43798829 .23677063 .43798829 .20472718 .43798829 .16567993 .43499757 .10961914 .4019928 .068573 .37098695 .030532837 .32499696 .014511108 .28199769 .014511108 .21299744 .014511108 .14399719 .05255127 .11999512 .11061096 .16899109 .11161804 .1749878 .15066529 .1749878 .16267395 .1749878 .18971253 .1539917 .21372986 .12298584 .21372986 .11399841 .21372986 .07199097 .20872498 .07199097 .15867615 .07199097 .0665741 .15899658-.021484375 .2849884-.021484375 .42199708-.021484375 .5379944 .07557678 .5379944 .20072937 .5379944 .31484986 .44599916 .4189453 .31698609 .4189453 .2519989 .4189453 .20199585 .39793397 .16999817 .37091065V.5549774Z"/>
<path id="font_3_121" d="M.4889984 .31877137C.4889984 .42585755 .47799684 .49090577 .44499208 .55496218 .40098573 .6430359 .31999208 .66503909 .2649994 .66503909 .13899231 .66503909 .09298706 .5709839 .07899475 .5429535 .042999269 .4698944 .040985109 .3708191 .040985109 .31877137 .040985109 .25271607 .04399109 .15162659 .09199524 .07156372 .13798523-.0024871827 .21199036-.021484375 .2649994-.021484375 .31298829-.021484375 .39898683-.0064849855 .44898988 .09257507 .48599244 .16464234 .4889984 .2537079 .4889984 .31877137M.3999939 .33078004C.3999939 .27172853 .3999939 .18165589 .3880005 .12561035 .36698915 .020523072 .2979889 .006515503 .2649994 .006515503 .23098755 .006515503 .1619873 .022521973 .14099121 .12760926 .12998963 .18466187 .12998963 .2787323 .12998963 .33078004 .12998963 .3998413 .12998963 .4698944 .14099121 .5249481 .1619873 .6270294 .23999024 .6370239 .2649994 .6370239 .29899598 .6370239 .36799623 .62002566 .3880005 .5289459 .3999939 .4738922 .3999939 .39883424 .3999939 .33078004Z"/>
<path id="font_2_4" d="M.16299439 .33073426C.1639862 .38076783 .1659851 .46383668 .20098877 .52589419 .24499512 .60191348 .31098939 .6320343 .37098695 .6320343 .3939972 .6320343 .43998719 .62802127 .46398927 .5998993 .4269867 .5939026 .42099 .5679016 .42099 .55189517 .42099 .52589419 .43899537 .50390627 .46899415 .50390627 .49899293 .50390627 .5179901 .52290347 .5179901 .55389407 .5179901 .6149597 .47200013 .66503909 .36999513 .66503909 .21499634 .66503909 .06298828 .52989199 .06298828 .31672669 .06298828 .07354736 .17599488-.021484375 .30799867-.021484375 .34700013-.021484375 .4149933-.015487671 .47599793 .043533327 .5079956 .075546268 .5469971 .11558533 .5469971 .2036438 .5469971 .2376709 .54299929 .30171205 .48199464 .3587494 .44699098 .3907776 .40299989 .42578126 .31799317 .42578126 .24798584 .42578126 .19699097 .3897705 .16299439 .33073426M.30699159 .014511108C.1659851 .014511108 .1659851 .18663025 .1659851 .22566223 .1659851 .3117218 .22299195 .3937683 .31298829 .3937683 .36499024 .3937683 .394989 .37275697 .4189911 .34074403 .44699098 .30171205 .44699098 .25668336 .44699098 .2036438 .44699098 .13459778 .44499208 .10057068 .41099549 .060546876 .3869934 .030517579 .35499574 .014511108 .30699159 .014511108Z"/>
<path id="font_2_1" d="M.35899354 .6349335C.35899354 .66503909 .35499574 .66503909 .32499696 .66503909 .25898744 .60058596 .15699768 .60058596 .12098694 .60058596V.5615845C.14698792 .5615845 .21299744 .5615845 .272995 .58958438V.08496094C.272995 .051986696 .272995 .038986207 .16999817 .038986207H.1269989V0C.18199158 .0039978029 .2599945 .0039978029 .31599427 .0039978029 .37199403 .0039978029 .44999696 .0039978029 .5049896 0V.038986207H.46199037C.35899354 .038986207 .35899354 .051986696 .35899354 .08496094V.6349335Z"/>
</defs>
<path transform="matrix(1.00003,0,0,-1,10.760834,58.791997)" stroke-width=".79701" stroke-linecap="butt" stroke-miterlimit="10" stroke-linejoin="miter" fill="none" stroke="#929292" d="M0 26.92972V29.76453M18.59718 26.92972V29.76453M37.19437 26.92972V29.76453M55.79155 26.92972V29.76453M74.38875 26.92972V29.76453M92.98593 26.92972V29.76453"/>
<path transform="matrix(1.00003,0,0,-1,10.760834,58.791997)" stroke-width=".79701" stroke-linecap="butt" stroke-miterlimit="10" stroke-linejoin="miter" fill="none" stroke="#929292" d="M92.98593 26.22124V30.47299"/>
<path transform="matrix(1.00003,0,0,-1,10.760834,58.791997)" stroke-width=".3985" stroke-linecap="butt" stroke-miterlimit="10" stroke-linejoin="miter" fill="none" stroke="#000000" d="M-9.29915 28.34712H100.29257"/>
<path transform="matrix(1.00003,0,0,-1,111.05642,30.444876)" d="M1.99252 0-1.19551 1.59401 0 0-1.19551-1.59401"/>
<use data-text="1" xlink:href="#font_1_1" transform="matrix(7.9703395,0,0,-7.9701,101.63257,41.226999)"/>
<path transform="matrix(1.00003,0,0,-1,10.760834,58.791997)" stroke-width=".79701" stroke-linecap="butt" stroke-miterlimit="10" stroke-linejoin="miter" fill="none" stroke="#929292" d="M37.19437 26.22124V30.47299"/>
<use data-text="2" xlink:href="#font_2_2" transform="matrix(5.97778,0,0,-5.9776,46.129899,39.943)"/>
<path transform="matrix(1.00003,0,0,-1,16.974022,-44.735)" stroke-width=".3587" stroke-linecap="butt" stroke-miterlimit="10" stroke-linejoin="miter" fill="none" stroke="#000000" d="M29.155-85.943H32.807"/>
<use data-text="5" xlink:href="#font_2_3" transform="matrix(5.97778,0,0,-5.9776,46.129899,46.326997)"/>
<path transform="matrix(1.00003,0,0,-1,10.760834,58.791997)" stroke-width=".99628" stroke-linecap="butt" stroke-miterlimit="10" stroke-linejoin="miter" fill="none" stroke="#9e0c0f" d="M0 28.34712C0 28.34712 6.71826 56.69424 9.29858 56.69424 11.8789 56.69424 18.59718 28.34712 18.59718 28.34712"/>
<path transform="matrix(1.00003,0,0,-1,10.760834,58.791997)" stroke-width=".99628" stroke-linecap="butt" stroke-miterlimit="10" stroke-linejoin="miter" fill="none" stroke="#9e0c0f" d="M18.59718 28.34712C18.59718 28.34712 25.31544 56.69424 27.89577 56.69424 30.4761 56.69424 37.19437 28.34712 36.52818 31.15828"/>
<path transform="matrix(.23058693,.97299,.9730192,-.23058,47.29011,27.633696)" d="M2.8892 0-1.73352 2.31136 0 0-1.73352-2.31136" fill="#9e0c0f"/>
<use data-text="0" xlink:href="#font_3_121" transform="matrix(7.9703395,0,0,-7.9701,8.64477,41.391)"/>
<path transform="matrix(1.00003,0,0,-1,10.760834,115.485)" stroke-width=".79701" stroke-linecap="butt" stroke-miterlimit="10" stroke-linejoin="miter" fill="none" stroke="#929292" d="M0 26.92972V29.76453M18.59718 26.92972V29.76453M37.19437 26.92972V29.76453M55.79155 26.92972V29.76453M74.38875 26.92972V29.76453M92.98593 26.92972V29.76453"/>
<path transform="matrix(1.00003,0,0,-1,10.760834,115.485)" stroke-width=".79701" stroke-linecap="butt" stroke-miterlimit="10" stroke-linejoin="miter" fill="none" stroke="#929292" d="M92.98593 26.22124V30.47299"/>
<path transform="matrix(1.00003,0,0,-1,10.760834,115.485)" stroke-width=".3985" stroke-linecap="butt" stroke-miterlimit="10" stroke-linejoin="miter" fill="none" stroke="#000000" d="M-9.29915 28.34712H100.29257"/>
<path transform="matrix(1.00003,0,0,-1,111.05642,87.13788)" d="M1.99252 0-1.19551 1.59401 0 0-1.19551-1.59401"/>
<use data-text="1" xlink:href="#font_1_1" transform="matrix(7.9703395,0,0,-7.9701,101.63257,97.92)"/>
<path transform="matrix(1.00003,0,0,-1,10.760834,115.485)" stroke-width=".79701" stroke-linecap="butt" stroke-miterlimit="10" stroke-linejoin="miter" fill="none" stroke="#929292" d="M37.19437 26.22124V30.47299"/>
<use data-text="6" xlink:href="#font_2_4" transform="matrix(5.97778,0,0,-5.9776,46.129899,96.636)"/>
<path transform="matrix(1.00003,0,0,-1,15.147968,11.958004)" stroke-width=".3587" stroke-linecap="butt" stroke-miterlimit="10" stroke-linejoin="miter" fill="none" stroke="#000000" d="M29.155-85.943H36.46"/>
<use data-text="1" xlink:href="#font_2_1" transform="matrix(5.97778,0,0,-5.9776,44.303846,103.020008)"/>
<use data-text="5" xlink:href="#font_2_3" transform="matrix(5.97778,0,0,-5.9776,47.95627,103.020008)"/>
<path transform="matrix(1.00003,0,0,-1,10.760834,115.485)" stroke-width=".99628" stroke-linecap="butt" stroke-miterlimit="10" stroke-linejoin="miter" fill="none" stroke="#9e0c0f" d="M0 28.34712C0 28.34712 2.23941 56.69424 3.0995 56.69424 3.95961 56.69424 6.19905 28.34712 6.19905 28.34712"/>
<path transform="matrix(1.00003,0,0,-1,10.760834,115.485)" stroke-width=".99628" stroke-linecap="butt" stroke-miterlimit="10" stroke-linejoin="miter" fill="none" stroke="#9e0c0f" d="M6.19904 28.34712C6.19904 28.34712 8.43849 56.69424 9.29858 56.69424 10.15869 56.69424 12.3981 28.34712 12.3981 28.34712"/>
<path transform="matrix(1.00003,0,0,-1,10.760834,115.485)" stroke-width=".99628" stroke-linecap="butt" stroke-miterlimit="10" stroke-linejoin="miter" fill="none" stroke="#9e0c0f" d="M12.3981 28.34712C12.3981 28.34712 14.63756 56.69424 15.49765 56.69424 16.35774 56.69424 18.59718 28.34712 18.59718 28.34712"/>
<path transform="matrix(1.00003,0,0,-1,10.760834,115.485)" stroke-width=".99628" stroke-linecap="butt" stroke-miterlimit="10" stroke-linejoin="miter" fill="none" stroke="#9e0c0f" d="M18.59718 28.34712C18.59718 28.34712 20.8366 56.69424 21.6967 56.69424 22.5568 56.69424 24.79625 28.34712 24.79625 28.34712"/>
<path transform="matrix(1.00003,0,0,-1,10.760834,115.485)" stroke-width=".99628" stroke-linecap="butt" stroke-miterlimit="10" stroke-linejoin="miter" fill="none" stroke="#9e0c0f" d="M24.79623 28.34712C24.79623 28.34712 27.03568 56.69424 27.89577 56.69424 28.75587 56.69424 30.99529 28.34712 30.99529 28.34712"/>
<path transform="matrix(1.00003,0,0,-1,10.760834,115.485)" stroke-width=".99628" stroke-linecap="butt" stroke-miterlimit="10" stroke-linejoin="miter" fill="none" stroke="#9e0c0f" d="M30.99529 28.34712C30.99529 28.34712 33.23474 56.69424 34.09483 56.69424 34.95494 56.69424 37.19437 28.34712 36.96686 31.22716"/>
<path transform="matrix(.07875237,.99683,.9968599,-.07875,47.728784,84.25784)" d="M2.8892 0-1.73352 2.31136 0 0-1.73352-2.31136" fill="#9e0c0f"/>
<use data-text="0" xlink:href="#font_3_121" transform="matrix(7.9703395,0,0,-7.9701,8.64477,98.084)"/>
</svg>
