<svg xmlns="http://www.w3.org/2000/svg" xmlns:xlink="http://www.w3.org/1999/xlink" version="1.1" width="177" height="116" viewBox="0 0 177 116">
<defs>
<path id="font_1_1" d="M.31399537 .63708499C.31399537 .664032 .31199647 .66503909 .2849884 .66503909 .24398804 .6251831 .19099427 .6013489 .09599304 .6013489V.5683594C.12298584 .5683594 .1769867 .5683594 .23498535 .5953522V.08203125C.23498535 .04499817 .23199463 .032989503 .13699341 .032989503H.101989749V0C.14299011 .0029907227 .22898865 .0029907227 .27398683 .0029907227 .31900025 .0029907227 .4059906 .0029907227 .44699098 0V.032989503H.4119873C.31698609 .032989503 .31399537 .04499817 .31399537 .08203125V.63708499Z"/>
<path id="font_1_2" d="M.28199769 .20405579C.2979889 .21907044 .33999635 .2520752 .35598756 .26608277 .41799928 .32312013 .47698976 .3781433 .47698976 .46917726 .47698976 .588089 .3769989 .66503909 .2519989 .66503909 .13198853 .66503909 .052993776 .57411196 .052993776 .48516847 .052993776 .4361725 .09199524 .4291687 .10598755 .4291687 .1269989 .4291687 .1579895 .4441681 .1579895 .48217774 .1579895 .5341797 .10798645 .5341797 .09599304 .5341797 .125 .6070709 .19198609 .6320343 .24099732 .6320343 .33399964 .6320343 .38198854 .55314639 .38198854 .46917726 .38198854 .36514283 .30899049 .28910829 .19099427 .16804505L.06498718 .037994386C.052993776 .026992798 .052993776 .024993897 .052993776 0H.44799806L.47698976 .17904663H.44599916C.44299317 .1590271 .43499757 .10900879 .4229889 .08999634 .4169922 .08198547 .34098817 .08198547 .32499696 .08198547H.14698792L.28199769 .20405579Z"/>
<path id="font_1_3" d="M.25299073 .33370973C.33198548 .33370973 .38198854 .27557374 .38198854 .17037964 .38198854 .045440675 .31098939 .008514404 .2579956 .008514404 .20298767 .008514404 .12799073 .0284729 .09298706 .08137512 .1289978 .08137512 .1539917 .10437012 .1539917 .13737488 .1539917 .16937256 .1309967 .19238281 .09899902 .19238281 .07199097 .19238281 .04399109 .17536927 .04399109 .13537598 .04399109 .04045105 .1459961-.021484375 .2599945-.021484375 .3929901-.021484375 .48599244 .070388797 .48599244 .17037964 .48599244 .25352479 .41999818 .32969667 .31799317 .3517456 .39698792 .37982179 .45599366 .4479828 .45599366 .52804568 .45599366 .6080475 .3659973 .66503909 .2619934 .66503909 .15499878 .66503909 .07398987 .6070404 .07398987 .53105166 .07398987 .49404908 .09899902 .4780426 .125 .4780426 .1559906 .4780426 .17599488 .5000458 .17599488 .52905276 .17599488 .56604006 .14399719 .5800476 .12199402 .5810547 .1639862 .6360321 .24099732 .6390381 .25898744 .6390381 .2849884 .6390381 .36099244 .6310272 .36099244 .52804568 .36099244 .45799256 .33198548 .41589356 .31799317 .39985658 .28799439 .36878968 .2649994 .36679078 .20399475 .3627777 .18499756 .36177064 .1769867 .36076356 .1769867 .3477478 .1769867 .33370973 .18598938 .33370973 .20298767 .33370973H.25299073Z"/>
<path id="font_1_4" d="M.3939972 .6468048C.3939972 .6667938 .3939972 .6748047 .37298585 .6748047 .3600006 .6748047 .35899354 .6737976 .34899903 .65979006L.02999878 .197052V.1640625H.31199647V.08100891C.31199647 .04399109 .30899049 .032989503 .23199463 .032989503H.20899964V0C.2939911 .0029907227 .29599 .0029907227 .35299684 .0029907227 .4099884 .0029907227 .4119873 .0029907227 .49699403 0V.032989503H.47399903C.39698792 .032989503 .3939972 .04399109 .3939972 .08100891V.1640625H.5V.197052H.3939972V.6468048M.31900025 .5658417V.197052H.06498718L.31900025 .5658417Z"/>
<path id="font_1_5" d="M.13999939 .5618439C.15299988 .55784609 .19299317 .54785159 .23498535 .54785159 .3600006 .54785159 .43598939 .6358948 .43598939 .6510315 .43598939 .6620331 .42900086 .66503909 .42399598 .66503909 .42199708 .66503909 .41999818 .66503909 .41099549 .6600342 .37199403 .6450348 .32598878 .632843 .27198792 .632843 .21299744 .632843 .1639862 .6480255 .1329956 .6600342 .12298584 .66503909 .12098694 .66503909 .11999512 .66503909 .10699463 .66503909 .10699463 .6540375 .10699463 .6358948V.34292604C.10699463 .32492066 .10699463 .312912 .12298584 .312912 .1309967 .312912 .13398743 .3169098 .13899231 .32492066 .15098572 .33992005 .18899536 .39093019 .27398683 .39093019 .32998658 .39093019 .35699464 .34492494 .3659973 .32591249 .3829956 .28990174 .3849945 .24389649 .3849945 .20487976 .3849945 .1678772 .38398744 .11387634 .35598756 .069732669 .33699037 .039611818 .29699708 .008514404 .24398804 .008514404 .1789856 .008514404 .114990238 .0496521 .09199524 .11488342 .09498596 .11387634 .100997928 .11387634 .101989749 .11387634 .12998963 .11387634 .1519928 .13188172 .1519928 .16288758 .1519928 .19989014 .12298584 .21289063 .102996829 .21289063 .084991458 .21289063 .052993776 .20288086 .052993776 .15988159 .052993776 .069732669 .1309967-.021484375 .24598694-.021484375 .37098695-.021484375 .47698976 .07574463 .47698976 .19989014 .47698976 .31591798 .3929901 .4189453 .2749939 .4189453 .22499085 .4189453 .17799378 .40293885 .13999939 .368927V.5618439Z"/>
<path id="font_1_6" d="M.13798523 .33073426C.13798523 .41377259 .14498902 .4868164 .18099976 .54782107 .21099854 .5978241 .2619934 .6390381 .32499696 .6390381 .34498597 .6390381 .3909912 .63601687 .4139862 .60084536 .36898805 .5988312 .36499024 .5648346 .36499024 .553833 .36499024 .5238342 .3880005 .50683596 .4119873 .50683596 .42999269 .50683596 .45899964 .51782229 .45899964 .5558319 .45899964 .615921 .4139862 .66503909 .32398988 .66503909 .18499756 .66503909 .04399109 .53282168 .04399109 .31672669 .04399109 .045532228 .16999817-.021484375 .2669983-.021484375 .31498719-.021484375 .36698915-.0084991459 .4119873 .03453064 .45199586 .07354736 .48599244 .11558533 .48599244 .20263672 .48599244 .33372499 .3869934 .42578126 .27598573 .42578126 .20399475 .42578126 .16099549 .37976075 .13798523 .33073426M.2669983 .008514404C.21398926 .008514404 .18099976 .045532228 .1659851 .07354736 .14299011 .11859131 .14099121 .18663025 .14099121 .22465515 .14099121 .32373048 .19499207 .3977661 .27198792 .3977661 .32199098 .3977661 .35198976 .37176515 .37098695 .33673097 .3919983 .29971314 .3919983 .25468446 .3919983 .2036438 .3919983 .15260315 .3919983 .10858154 .37199403 .07255554 .34599305 .026519776 .31098939 .008514404 .2669983 .008514404Z"/>
<path id="font_2_2" d="M.5379944 .18702698H.5009918C.49899293 .17301941 .4889984 .10699463 .47399903 .09599304 .46699525 .08999634 .38598634 .08999634 .37199403 .08999634H.18499756L.31298829 .19403076C.34700013 .22103882 .43598939 .28504945 .46699525 .31506349 .49699403 .3450775 .5379944 .39608766 .5379944 .46710206 .5379944 .5920563 .4249878 .66503909 .29100038 .66503909 .1619873 .66503909 .07199097 .58006289 .07199097 .48609925 .07199097 .43510438 .114990238 .42910768 .12599182 .42910768 .15098572 .42910768 .17999268 .44709779 .17999268 .48310853 .17999268 .50509646 .16699219 .5371094 .12298584 .5371094 .1459961 .5880585 .20698548 .6260376 .27598573 .6260376 .3809967 .6260376 .43699647 .5480957 .43699647 .46710206 .43699647 .39608766 .3899994 .32305909 .31999208 .25904847L.08299255 .041992189C.07299805 .03199768 .07199097 .0309906 .07199097 0H.5069885L.5379944 .18702698Z"/>
<path id="font_2_3" d="M.16999817 .5549774C.20298767 .54599 .23799134 .5419922 .27198792 .5419922 .2939911 .5419922 .34999085 .5419922 .41299439 .5769806 .42999269 .58699038 .49198915 .6279907 .49198915 .6490326 .49198915 .6620331 .48199464 .66503909 .47799684 .66503909 .47499085 .66503909 .47399903 .66503909 .46299745 .661026 .4269867 .6470337 .37599183 .63298037 .31098939 .63298037 .2619934 .63298037 .20799256 .64201357 .16299439 .6590271 .15299988 .6630249 .14898682 .66503909 .14498902 .66503909 .1309967 .66503909 .1309967 .6540375 .1309967 .6380005V.33787538C.1309967 .32086183 .1309967 .30885316 .14898682 .30885316 .1579895 .30885316 .16099549 .31285096 .16799927 .32086183 .19299317 .35289 .23699951 .38693238 .31498719 .38693238 .43798829 .38693238 .43798829 .23677063 .43798829 .20472718 .43798829 .16567993 .43499757 .10961914 .4019928 .068573 .37098695 .030532837 .32499696 .014511108 .28199769 .014511108 .21299744 .014511108 .14399719 .05255127 .11999512 .11061096 .16899109 .11161804 .1749878 .15066529 .1749878 .16267395 .1749878 .18971253 .1539917 .21372986 .12298584 .21372986 .11399841 .21372986 .07199097 .20872498 .07199097 .15867615 .07199097 .0665741 .15899658-.021484375 .2849884-.021484375 .42199708-.021484375 .5379944 .07557678 .5379944 .20072937 .5379944 .31484986 .44599916 .4189453 .31698609 .4189453 .2519989 .4189453 .20199585 .39793397 .16999817 .37091065V.5549774Z"/>
<path id="font_3_2" d="M.1269989 .07699585 .23298645 .18003845C.3889923 .31811524 .44898988 .3721466 .44898988 .47216798 .44898988 .5860901 .35899354 .6660156 .23699951 .6660156 .12399292 .6660156 .049987794 .57411196 .049987794 .48516847 .049987794 .4291687 .099990848 .4291687 .102996829 .4291687 .11999512 .4291687 .15499878 .44117738 .15499878 .48217774 .15499878 .5081787 .13699341 .5341797 .101989749 .5341797 .09399414 .5341797 .09199524 .5341797 .08898926 .5331726 .11199951 .59806826 .1659851 .63500979 .22399903 .63500979 .31498719 .63500979 .35798646 .5541382 .35798646 .47216798 .35798646 .39215089 .30799867 .31311036 .25299073 .25108338L.06098938 .036987306C.049987794 .025985718 .049987794 .023986817 .049987794 0H.42099L.44898988 .17404175H.42399598C.4189911 .14402771 .4119873 .1000061 .4019928 .084991458 .394989 .07699585 .32899476 .07699585 .30699159 .07699585H.1269989Z"/>
<path id="font_4_47" d="M.5269928 0V.0309906C.45700074 .0309906 .44898988 .038009645 .44898988 .0871582V.69433596L.30499269 .6826172V.6516113C.375 .6516113 .3829956 .64463809 .3829956 .59580996V.38035584C.35398866 .41636659 .31098939 .4423828 .25698854 .4423828 .13899231 .4423828 .033996583 .3443451 .033996583 .21531677 .033996583 .088272098 .13198853-.0107421879 .24598694-.0107421879 .30999757-.0107421879 .35499574 .023254395 .37998963 .055267335V-.0107421879L.5269928 0M.37998963 .117996219C.37998963 .099990848 .37998963 .09799194 .36898805 .08099365 .33898927 .033218385 .2939911 .011245728 .25099183 .011245728 .20599365 .011245728 .16999817 .037216188 .1459961 .075164798 .11999512 .1161499 .116989139 .17320252 .116989139 .21421814 .116989139 .25125123 .11898804 .31129457 .147995 .35632325 .16899109 .38734437 .20698548 .42037965 .26098634 .42037965 .29599 .42037965 .33799745 .405365 .36898805 .3603363 .37998963 .34332276 .37998963 .34132386 .37998963 .32330323V.117996219Z"/>
<path id="font_4_66" d="M.24699402 0V.0309906C.18099976 .0309906 .1769867 .035995485 .1769867 .075042728V.4423828L.036987306 .43066407V.3996582C.101989749 .3996582 .11099243 .3936615 .11099243 .3447113V.07595825C.11099243 .0309906 .099990848 .0309906 .032989503 .0309906V0L.14299011 .0029907227C.17799378 .0029907227 .21299744 .0009918213 .24699402 0M.19198609 .603775C.19198609 .6307678 .16899109 .6567688 .13899231 .6567688 .10499573 .6567688 .084991458 .6287689 .084991458 .603775 .084991458 .57676699 .10798645 .55078127 .13798523 .55078127 .17199707 .55078127 .19198609 .5787811 .19198609 .603775Z"/>
<path id="font_4_112" d="M.5079956 .3996582V.43066407C.4850006 .4286499 .45599366 .42765809 .43299867 .42765809L.34599305 .43066407V.3996582C.3829956 .39865113 .3939972 .37568666 .3939972 .35671998 .3939972 .34773255 .3919983 .34373475 .3880005 .3327484L.28599549 .078125 .17399597 .35671998C.16799927 .3697052 .16799927 .37368775 .16799927 .37368775 .16799927 .3996582 .20698548 .3996582 .22499085 .3996582V.43066407L.115997318 .42765809C.08898926 .42765809 .04899597 .4286499 .018997193 .43066407V.3996582C.08198547 .3996582 .085998538 .3936615 .09899902 .36271668L.24299622 .008224487C.24899292-.0057525637 .25099183-.0107421879 .2639923-.0107421879 .2769928-.0107421879 .2809906-.0017700195 .2849884 .008224487L.41600038 .3327484C.4249878 .3557129 .44198609 .39865113 .5079956 .3996582Z"/>
<path id="font_4_50" d="M.4149933 .11933899C.4149933 .12934876 .40699769 .13134766 .4019928 .13134766 .3929901 .13134766 .3909912 .12535095 .3889923 .11734009 .35398866 .014251709 .2639923 .014251709 .2539978 .014251709 .20399475 .014251709 .1639862 .044281007 .14099121 .08131409 .11099243 .12934876 .11099243 .19540406 .11099243 .23144531H.3899994C.4119873 .23144531 .4149933 .23144531 .4149933 .2524414 .4149933 .35131837 .36099244 .4482422 .23599243 .4482422 .11999512 .4482422 .027999878 .34532167 .027999878 .22042847 .027999878 .08631897 .1329956-.0107421879 .24798584-.0107421879 .36999513-.0107421879 .4149933 .10032654 .4149933 .11933899M.34899903 .2524414H.11199951C.117996219 .40126039 .20199585 .426239 .23599243 .426239 .33898927 .426239 .34899903 .2913971 .34899903 .2524414Z"/>
<path id="font_4_35" d="M.5209961 .2163086C.5209961 .34335328 .4229889 .4423828 .30899049 .4423828 .23098755 .4423828 .18798828 .39537049 .17199707 .3773651V.69433596L.027999878 .68333438V.6523285C.09799194 .6523285 .10598755 .6453247 .10598755 .596344V.00024414063H.1309967L.16699219 .06227112C.18199158 .039260866 .22399903-.0107421879 .2979889-.0107421879 .4169922-.0107421879 .5209961 .08728027 .5209961 .2163086M.43798829 .21731568C.43798829 .18029785 .43598939 .120285037 .40699769 .07527161 .38598634 .044265748 .34799195 .011245728 .2939911 .011245728 .24899292 .011260986 .21299744 .03526306 .18899536 .072265628 .1749878 .09326172 .1749878 .09625244 .1749878 .11425781V.32034303C.1749878 .3393402 .1749878 .3403473 .18598938 .35635377 .22499085 .41236878 .27999879 .42037965 .3039856 .42037965 .34899903 .42037965 .3849945 .3943634 .40899659 .35635377 .43499757 .31533814 .43798829 .25831605 .43798829 .21730042V.21731568Z"/>
<path id="font_4_118" d="M.5079956 .3996582V.43066407C.4850006 .4286499 .45599366 .42765809 .43299867 .42765809L.34599305 .43066407V.3996582C.3769989 .39866639 .3929901 .3816681 .3929901 .35668946 .3929901 .34669496 .3919983 .34469605 .3869934 .33270265L.28599549 .08685303 .1749878 .35568238C.17098999 .36567689 .16899109 .36967469 .16899109 .3736725 .16899109 .3996582 .20599365 .3996582 .22499085 .3996582V.43066407L.115997318 .42765809C.08898926 .42765809 .04899597 .4286499 .018997193 .43066407V.3996582C.066986087 .3996582 .085998538 .3996582 .099990848 .36468507L.25-.000091552738 .22499085-.059066774C.20298767-.11407471 .1749878-.18309021 .11099243-.18309021 .10598755-.18309021 .08299255-.18309021 .06399536-.16503906 .09498596-.16104126 .102996829-.13905335 .102996829-.123046878 .102996829-.0970459 .083999637-.08103943 .06098938-.08103943 .040985109-.08103943 .018997193-.09403992 .018997193-.124053958 .018997193-.16905213 .06098938-.20507813 .11099243-.20507813 .17399597-.20507813 .21499634-.14804077 .23899842-.091049198L.4149933 .33569337C.44099427 .39865113 .49198915 .3996582 .5079956 .3996582Z"/>
<path id="font_3_3" d="M.44898988 .20022583C.44898988 .3193512 .36698915 .41944886 .25898744 .41944886 .21099854 .41944886 .16799927 .40345765 .13198853 .36842347V.5637665C.1519928 .5577698 .18499756 .55078127 .21699524 .55078127 .33999635 .55078127 .4099884 .6417694 .4099884 .6547699 .4099884 .6607666 .40699769 .6657715 .3999939 .6657715 .39898683 .6657715 .39698792 .6657715 .3919983 .66278079 .37199403 .6537781 .32299806 .6337738 .2559967 .6337738 .21598816 .6337738 .16999817 .6407776 .12298584 .6617737 .114990238 .66477969 .11299133 .66477969 .11099243 .66477969 .100997928 .66477969 .100997928 .6567688 .100997928 .6407776V.34439088C.100997928 .32637025 .100997928 .31835938 .114990238 .31835938 .12199402 .31835938 .12399292 .32136537 .12799073 .32736207 .13899231 .3433838 .17599488 .39746095 .25698854 .39746095 .30899049 .39746095 .33399964 .35139466 .34199525 .33337403 .35798646 .29632569 .3600006 .25727845 .3600006 .20722962 .3600006 .17222595 .3600006 .11222839 .33599855 .07035828 .31199647 .031463624 .2749939 .0055389406 .22898865 .0055389406 .1559906 .0055389406 .09899902 .058380128 .08198547 .11723328 .084991458 .1162262 .08799744 .115234378 .09899902 .115234378 .13198853 .115234378 .14898682 .14022827 .14898682 .16423035 .14898682 .18823242 .13198853 .21322632 .09899902 .21322632 .084991458 .21322632 .049987794 .20622254 .049987794 .16023255 .049987794 .07434082 .11898804-.022460938 .23098755-.022460938 .34700013-.022460938 .44898988 .073349 .44898988 .20022583Z"/>
<path id="font_5_121" d="M.4889984 .31877137C.4889984 .42585755 .47799684 .49090577 .44499208 .55496218 .40098573 .6430359 .31999208 .66503909 .2649994 .66503909 .13899231 .66503909 .09298706 .5709839 .07899475 .5429535 .042999269 .4698944 .040985109 .3708191 .040985109 .31877137 .040985109 .25271607 .04399109 .15162659 .09199524 .07156372 .13798523-.0024871827 .21199036-.021484375 .2649994-.021484375 .31298829-.021484375 .39898683-.0064849855 .44898988 .09257507 .48599244 .16464234 .4889984 .2537079 .4889984 .31877137M.3999939 .33078004C.3999939 .27172853 .3999939 .18165589 .3880005 .12561035 .36698915 .020523072 .2979889 .006515503 .2649994 .006515503 .23098755 .006515503 .1619873 .022521973 .14099121 .12760926 .12998963 .18466187 .12998963 .2787323 .12998963 .33078004 .12998963 .3998413 .12998963 .4698944 .14099121 .5249481 .1619873 .6270294 .23999024 .6370239 .2649994 .6370239 .29899598 .6370239 .36799623 .62002566 .3880005 .5289459 .3999939 .4738922 .3999939 .39883424 .3999939 .33078004Z"/>
<path id="font_2_4" d="M.16299439 .33073426C.1639862 .38076783 .1659851 .46383668 .20098877 .52589419 .24499512 .60191348 .31098939 .6320343 .37098695 .6320343 .3939972 .6320343 .43998719 .62802127 .46398927 .5998993 .4269867 .5939026 .42099 .5679016 .42099 .55189517 .42099 .52589419 .43899537 .50390627 .46899415 .50390627 .49899293 .50390627 .5179901 .52290347 .5179901 .55389407 .5179901 .6149597 .47200013 .66503909 .36999513 .66503909 .21499634 .66503909 .06298828 .52989199 .06298828 .31672669 .06298828 .07354736 .17599488-.021484375 .30799867-.021484375 .34700013-.021484375 .4149933-.015487671 .47599793 .043533327 .5079956 .075546268 .5469971 .11558533 .5469971 .2036438 .5469971 .2376709 .54299929 .30171205 .48199464 .3587494 .44699098 .3907776 .40299989 .42578126 .31799317 .42578126 .24798584 .42578126 .19699097 .3897705 .16299439 .33073426M.30699159 .014511108C.1659851 .014511108 .1659851 .18663025 .1659851 .22566223 .1659851 .3117218 .22299195 .3937683 .31298829 .3937683 .36499024 .3937683 .394989 .37275697 .4189911 .34074403 .44699098 .30171205 .44699098 .25668336 .44699098 .2036438 .44699098 .13459778 .44499208 .10057068 .41099549 .060546876 .3869934 .030517579 .35499574 .014511108 .30699159 .014511108Z"/>
<path id="font_2_1" d="M.35899354 .6349335C.35899354 .66503909 .35499574 .66503909 .32499696 .66503909 .25898744 .60058596 .15699768 .60058596 .12098694 .60058596V.5615845C.14698792 .5615845 .21299744 .5615845 .272995 .58958438V.08496094C.272995 .051986696 .272995 .038986207 .16999817 .038986207H.1269989V0C.18199158 .0039978029 .2599945 .0039978029 .31599427 .0039978029 .37199403 .0039978029 .44999696 .0039978029 .5049896 0V.038986207H.46199037C.35899354 .038986207 .35899354 .051986696 .35899354 .08496094V.6349335Z"/>
<path id="font_3_4" d="M.13198853 .327713V.35173036C.13198853 .6047821 .2559967 .64100649 .30699159 .64100649 .33099366 .64100649 .37298585 .634964 .394989 .6007538 .37998963 .6007538 .33999635 .6007538 .33999635 .5557556 .33999635 .524765 .3639984 .5097656 .38598634 .5097656 .4019928 .5097656 .43199159 .51875308 .43199159 .5577545 .43199159 .6178589 .3880005 .6660156 .30499269 .6660156 .1769867 .6660156 .041992189 .5367584 .041992189 .31570436 .041992189 .048553468 .1579895-.022460938 .25099183-.022460938 .3619995-.022460938 .45700074 .07156372 .45700074 .2036438 .45700074 .33070375 .36799623 .4267578 .25698854 .4267578 .18899536 .4267578 .1519928 .37573243 .13198853 .327713M.25099183 .0055389406C.18798828 .0055389406 .1579895 .06556702 .1519928 .080566409 .13398743 .127594 .13398743 .2076416 .13398743 .22564698 .13398743 .30369569 .1659851 .40374757 .2559967 .40374757 .27198792 .40374757 .31799317 .40374757 .34899903 .34172059 .36698915 .30470277 .36698915 .2536621 .36698915 .20463562 .36698915 .15661621 .36698915 .10658264 .34999085 .0705719 .31999208 .010528564 .27398683 .0055389406 .25099183 .0055389406Z"/>
<path id="font_3_1" d="M.2939911 .64004519C.2939911 .66400149 .2939911 .6660156 .2709961 .6660156 .20899964 .60227969 .12098694 .60227969 .08898926 .60227969V.57128909C.10899353 .57128909 .16799927 .57128909 .21998596 .5972748V.07902527C.21998596 .042999269 .21699524 .0309906 .1269989 .0309906H.09498596V0C.12998963 .0029907227 .21699524 .0029907227 .25698854 .0029907227 .29699708 .0029907227 .38398744 .0029907227 .4189911 0V.0309906H.3869934C.29699708 .0309906 .2939911 .041992189 .2939911 .07902527V.64004519Z"/>
</defs>
<path transform="matrix(1.00003,0,0,-1.00006,26.141388,70.39366)" stroke-width=".79701" stroke-linecap="butt" stroke-miterlimit="10" stroke-linejoin="miter" fill="none" stroke="#929292" d="M22.67679 26.22124V30.47299M45.35358 26.22124V30.47299M68.03036 26.22124V30.47299M90.70715 26.22124V30.47299M113.38394 26.22124V30.47299M136.06075 26.22124V30.47299"/>
<path transform="matrix(1.00003,0,0,-1.00006,26.141388,70.39366)" stroke-width=".3985" stroke-linecap="butt" stroke-miterlimit="10" stroke-linejoin="miter" fill="none" stroke="#000000" d="M-13.60689 28.34712H147.67511"/>
<path transform="matrix(1.00003,0,0,-1.00006,173.82094,42.04484)" d="M1.99252 0-1.19551 1.59401 0 0-1.19551-1.59401"/>
<use data-text="1" xlink:href="#font_1_1" transform="matrix(7.9703395,0,0,-7.9705779,46.702005,52.827608)"/>
<use data-text="2" xlink:href="#font_1_2" transform="matrix(7.9703395,0,0,-7.9705779,69.378688,52.827608)"/>
<use data-text="3" xlink:href="#font_1_3" transform="matrix(7.9703395,0,0,-7.9705779,92.05637,52.827608)"/>
<use data-text="4" xlink:href="#font_1_4" transform="matrix(7.9703395,0,0,-7.9705779,114.73405,52.827608)"/>
<use data-text="5" xlink:href="#font_1_5" transform="matrix(7.9703395,0,0,-7.9705779,137.41173,52.827608)"/>
<use data-text="6" xlink:href="#font_1_6" transform="matrix(7.9703395,0,0,-7.9705779,160.08942,52.827608)"/>
<path transform="matrix(1.00003,0,0,-1.00006,26.141388,70.39366)" stroke-width=".79701" stroke-linecap="butt" stroke-miterlimit="10" stroke-linejoin="miter" fill="none" stroke="#929292" d="M9.07071 26.22124V30.47299"/>
<use data-text="2" xlink:href="#font_2_2" transform="matrix(5.97778,0,0,-5.9779589,33.385606,51.542528)"/>
<path transform="matrix(1.00003,0,0,-1.00006,-25.733172,-48.745485)" stroke-width=".3587" stroke-linecap="butt" stroke-miterlimit="10" stroke-linejoin="miter" fill="none" stroke="#000000" d="M59.117-101.548H62.77"/>
<use data-text="5" xlink:href="#font_2_3" transform="matrix(5.97778,0,0,-5.9779589,33.385606,57.92691)"/>
<path transform="matrix(1.00003,0,0,-1.00006,26.141388,70.39366)" stroke-width=".99628" stroke-linecap="butt" stroke-miterlimit="10" stroke-linejoin="miter" fill="none" stroke="#929292" d="M0 28.34712V56.69424H45.35358V28.34712"/>
<path transform="matrix(1.00003,0,0,-1.00006,26.141388,70.39366)" stroke-width=".99628" stroke-linecap="butt" stroke-miterlimit="10" stroke-linejoin="miter" fill="none" stroke="#929292" d="M9.07071 31.23633V56.69424"/>
<path transform="matrix(0,1.00006,1.00003,0,35.21237,39.155458)" d="M2.8892 0-1.73352 2.31136 0 0-1.73352-2.31136" fill="#929292"/>
<use data-text="2" xlink:href="#font_3_2" transform="matrix(9.962899,0,0,-9.963197,4.0727236,7.834915)" fill="#929292"/>
<use data-text="d" xlink:href="#font_4_47" transform="matrix(9.962899,0,0,-9.963197,12.371975,7.834915)" fill="#929292"/>
<use data-text="i" xlink:href="#font_4_66" transform="matrix(9.962899,0,0,-9.963197,17.91135,7.834915)" fill="#929292"/>
<use data-text="v" xlink:href="#font_4_112" transform="matrix(9.962899,0,0,-9.963197,20.681027,7.834915)" fill="#929292"/>
<use data-text="i" xlink:href="#font_4_66" transform="matrix(9.962899,0,0,-9.963197,25.94144,7.834915)" fill="#929292"/>
<use data-text="d" xlink:href="#font_4_47" transform="matrix(9.962899,0,0,-9.963197,28.711125,7.834915)" fill="#929292"/>
<use data-text="e" xlink:href="#font_4_50" transform="matrix(9.962899,0,0,-9.963197,34.2505,7.834915)" fill="#929292"/>
<use data-text="d" xlink:href="#font_4_47" transform="matrix(9.962899,0,0,-9.963197,38.674024,7.834915)" fill="#929292"/>
<use data-text="b" xlink:href="#font_4_35" transform="matrix(9.962899,0,0,-9.963197,47.521085,7.834915)" fill="#929292"/>
<use data-text="y" xlink:href="#font_4_118" transform="matrix(9.962899,0,0,-9.963197,52.791463,7.834915)" fill="#929292"/>
<use data-text="5" xlink:href="#font_3_3" transform="matrix(9.962899,0,0,-9.963197,61.369443,7.834915)" fill="#929292"/>
<path transform="matrix(1.00003,0,0,-1.00006,26.141388,70.39366)" stroke-width=".99628" stroke-linecap="butt" stroke-miterlimit="10" stroke-linejoin="miter" fill="none" stroke="#929292" d="M18.14142 51.02483V56.69424"/>
<path transform="matrix(1.00003,0,0,-1.00006,26.141388,70.39366)" stroke-width=".99628" stroke-linecap="butt" stroke-miterlimit="10" stroke-linejoin="miter" fill="none" stroke="#929292" d="M27.21214 51.02483V56.69424"/>
<path transform="matrix(1.00003,0,0,-1.00006,26.141388,70.39366)" stroke-width=".99628" stroke-linecap="butt" stroke-miterlimit="10" stroke-linejoin="miter" fill="none" stroke="#929292" d="M36.28285 51.02483V56.69424"/>
<use data-text="0" xlink:href="#font_5_121" transform="matrix(7.9703395,0,0,-7.9705779,24.025326,52.99162)"/>
<path transform="matrix(1.00003,0,0,-1.00006,26.141385,127.09006)" stroke-width=".79701" stroke-linecap="butt" stroke-miterlimit="10" stroke-linejoin="miter" fill="none" stroke="#929292" d="M22.67679 26.22124V30.47299M45.35358 26.22124V30.47299M68.03036 26.22124V30.47299M90.70715 26.22124V30.47299M113.38394 26.22124V30.47299M136.06075 26.22124V30.47299"/>
<path transform="matrix(1.00003,0,0,-1.00006,26.141385,127.09006)" stroke-width=".3985" stroke-linecap="butt" stroke-miterlimit="10" stroke-linejoin="miter" fill="none" stroke="#000000" d="M-13.60689 28.34712H147.67511"/>
<path transform="matrix(1.00003,0,0,-1.00006,173.82094,98.74124)" d="M1.99252 0-1.19551 1.59401 0 0-1.19551-1.59401"/>
<use data-text="1" xlink:href="#font_1_1" transform="matrix(7.9703395,0,0,-7.9705779,46.702005,109.524)"/>
<use data-text="2" xlink:href="#font_1_2" transform="matrix(7.9703395,0,0,-7.9705779,69.37868,109.524)"/>
<use data-text="3" xlink:href="#font_1_3" transform="matrix(7.9703395,0,0,-7.9705779,92.056369,109.524)"/>
<use data-text="4" xlink:href="#font_1_4" transform="matrix(7.9703395,0,0,-7.9705779,114.73404,109.524)"/>
<use data-text="5" xlink:href="#font_1_5" transform="matrix(7.9703395,0,0,-7.9705779,137.41173,109.524)"/>
<use data-text="6" xlink:href="#font_1_6" transform="matrix(7.9703395,0,0,-7.9705779,160.08942,109.524)"/>
<path transform="matrix(1.00003,0,0,-1.00006,26.141385,127.09006)" stroke-width=".79701" stroke-linecap="butt" stroke-miterlimit="10" stroke-linejoin="miter" fill="none" stroke="#929292" d="M9.07071 26.22124V30.47299"/>
<use data-text="6" xlink:href="#font_2_4" transform="matrix(5.97778,0,0,-5.9779589,33.3856,108.23892)"/>
<path transform="matrix(1.00003,0,0,-1.00006,-30.050305,7.9509127)" stroke-width=".3587" stroke-linecap="butt" stroke-miterlimit="10" stroke-linejoin="miter" fill="none" stroke="#000000" d="M61.608-101.548H68.914"/>
<use data-text="1" xlink:href="#font_2_1" transform="matrix(5.97778,0,0,-5.9779589,31.559548,114.62331)"/>
<use data-text="5" xlink:href="#font_2_3" transform="matrix(5.97778,0,0,-5.9779589,35.21197,114.62331)"/>
<path transform="matrix(1.00003,0,0,-1.00006,26.141385,127.09006)" stroke-width=".99628" stroke-linecap="butt" stroke-miterlimit="10" stroke-linejoin="miter" fill="none" stroke="#929292" d="M0 28.34712V56.69424H136.06075V28.34712"/>
<path transform="matrix(1.00003,0,0,-1.00006,26.141385,127.09006)" stroke-width=".99628" stroke-linecap="butt" stroke-miterlimit="10" stroke-linejoin="miter" fill="none" stroke="#929292" d="M9.07071 31.23633V56.69424"/>
<path transform="matrix(0,1.00006,1.00003,0,35.212369,95.85185)" d="M2.8892 0-1.73352 2.31136 0 0-1.73352-2.31136" fill="#929292"/>
<use data-text="6" xlink:href="#font_3_4" transform="matrix(9.962899,0,0,-9.963197,1.581646,64.53131)" fill="#929292"/>
<use data-text="d" xlink:href="#font_4_47" transform="matrix(9.962899,0,0,-9.963197,9.8808979,64.53131)" fill="#929292"/>
<use data-text="i" xlink:href="#font_4_66" transform="matrix(9.962899,0,0,-9.963197,15.420265,64.53131)" fill="#929292"/>
<use data-text="v" xlink:href="#font_4_112" transform="matrix(9.962899,0,0,-9.963197,18.189949,64.53131)" fill="#929292"/>
<use data-text="i" xlink:href="#font_4_66" transform="matrix(9.962899,0,0,-9.963197,23.450364,64.53131)" fill="#929292"/>
<use data-text="d" xlink:href="#font_4_47" transform="matrix(9.962899,0,0,-9.963197,26.220047,64.53131)" fill="#929292"/>
<use data-text="e" xlink:href="#font_4_50" transform="matrix(9.962899,0,0,-9.963197,31.759423,64.53131)" fill="#929292"/>
<use data-text="d" xlink:href="#font_4_47" transform="matrix(9.962899,0,0,-9.963197,36.182947,64.53131)" fill="#929292"/>
<use data-text="b" xlink:href="#font_4_35" transform="matrix(9.962899,0,0,-9.963197,45.039964,64.53131)" fill="#929292"/>
<use data-text="y" xlink:href="#font_4_118" transform="matrix(9.962899,0,0,-9.963197,50.31034,64.53131)" fill="#929292"/>
<use data-text="1" xlink:href="#font_3_1" transform="matrix(9.962899,0,0,-9.963197,58.879365,64.53131)" fill="#929292"/>
<use data-text="5" xlink:href="#font_3_3" transform="matrix(9.962899,0,0,-9.963197,63.860818,64.53131)" fill="#929292"/>
<path transform="matrix(1.00003,0,0,-1.00006,26.141385,127.09006)" stroke-width=".99628" stroke-linecap="butt" stroke-miterlimit="10" stroke-linejoin="miter" fill="none" stroke="#929292" d="M18.14142 51.02483V56.69424"/>
<path transform="matrix(1.00003,0,0,-1.00006,26.141385,127.09006)" stroke-width=".99628" stroke-linecap="butt" stroke-miterlimit="10" stroke-linejoin="miter" fill="none" stroke="#929292" d="M27.21214 51.02483V56.69424"/>
<path transform="matrix(1.00003,0,0,-1.00006,26.141385,127.09006)" stroke-width=".99628" stroke-linecap="butt" stroke-miterlimit="10" stroke-linejoin="miter" fill="none" stroke="#929292" d="M36.28285 51.02483V56.69424"/>
<path transform="matrix(1.00003,0,0,-1.00006,26.141385,127.09006)" stroke-width=".99628" stroke-linecap="butt" stroke-miterlimit="10" stroke-linejoin="miter" fill="none" stroke="#929292" d="M45.35358 51.02483V56.69424"/>
<path transform="matrix(1.00003,0,0,-1.00006,26.141385,127.09006)" stroke-width=".99628" stroke-linecap="butt" stroke-miterlimit="10" stroke-linejoin="miter" fill="none" stroke="#929292" d="M54.42429 51.02483V56.69424"/>
<path transform="matrix(1.00003,0,0,-1.00006,26.141385,127.09006)" stroke-width=".99628" stroke-linecap="butt" stroke-miterlimit="10" stroke-linejoin="miter" fill="none" stroke="#929292" d="M63.49501 51.02483V56.69424"/>
<path transform="matrix(1.00003,0,0,-1.00006,26.141385,127.09006)" stroke-width=".99628" stroke-linecap="butt" stroke-miterlimit="10" stroke-linejoin="miter" fill="none" stroke="#929292" d="M72.56572 51.02483V56.69424"/>
<path transform="matrix(1.00003,0,0,-1.00006,26.141385,127.09006)" stroke-width=".99628" stroke-linecap="butt" stroke-miterlimit="10" stroke-linejoin="miter" fill="none" stroke="#929292" d="M81.63644 51.02483V56.69424"/>
<path transform="matrix(1.00003,0,0,-1.00006,26.141385,127.09006)" stroke-width=".99628" stroke-linecap="butt" stroke-miterlimit="10" stroke-linejoin="miter" fill="none" stroke="#929292" d="M90.70715 51.02483V56.69424"/>
<path transform="matrix(1.00003,0,0,-1.00006,26.141385,127.09006)" stroke-width=".99628" stroke-linecap="butt" stroke-miterlimit="10" stroke-linejoin="miter" fill="none" stroke="#929292" d="M99.77788 51.02483V56.69424"/>
<path transform="matrix(1.00003,0,0,-1.00006,26.141385,127.09006)" stroke-width=".99628" stroke-linecap="butt" stroke-miterlimit="10" stroke-linejoin="miter" fill="none" stroke="#929292" d="M108.84859 51.02483V56.69424"/>
<path transform="matrix(1.00003,0,0,-1.00006,26.141385,127.09006)" stroke-width=".99628" stroke-linecap="butt" stroke-miterlimit="10" stroke-linejoin="miter" fill="none" stroke="#929292" d="M117.91931 51.02483V56.69424"/>
<path transform="matrix(1.00003,0,0,-1.00006,26.141385,127.09006)" stroke-width=".99628" stroke-linecap="butt" stroke-miterlimit="10" stroke-linejoin="miter" fill="none" stroke="#929292" d="M126.99002 51.02483V56.69424"/>
<use data-text="0" xlink:href="#font_5_121" transform="matrix(7.9703395,0,0,-7.9705779,24.025322,109.68802)"/>
</svg>
