<svg xmlns="http://www.w3.org/2000/svg" xmlns:xlink="http://www.w3.org/1999/xlink" version="1.1" width="242" height="210" viewBox="0 0 242 210">
<defs>
<path id="font_1_1" d="M.69898989 .22743225C.71499636 .22743225 .7369995 .22743225 .7369995 .25042726 .7369995 .2734375 .71499636 .2734375 .69898989 .2734375H.12599182C.10998535 .2734375 .08799744 .2734375 .08799744 .25042726 .08799744 .22743225 .10998535 .22743225 .12599182 .22743225H.69898989Z"/>
<path id="font_2_3" d="M.28199769 .20405579C.2979889 .21907044 .33999635 .2520752 .35598756 .26608277 .41799928 .32312013 .47698976 .3781433 .47698976 .46917726 .47698976 .588089 .3769989 .66503909 .2519989 .66503909 .13198853 .66503909 .052993776 .57411196 .052993776 .48516847 .052993776 .4361725 .09199524 .4291687 .10598755 .4291687 .1269989 .4291687 .1579895 .4441681 .1579895 .48217774 .1579895 .5341797 .10798645 .5341797 .09599304 .5341797 .125 .6070709 .19198609 .6320343 .24099732 .6320343 .33399964 .6320343 .38198854 .55314639 .38198854 .46917726 .38198854 .36514283 .30899049 .28910829 .19099427 .16804505L.06498718 .037994386C.052993776 .026992798 .052993776 .024993897 .052993776 0H.44799806L.47698976 .17904663H.44599916C.44299317 .1590271 .43499757 .10900879 .4229889 .08999634 .4169922 .08198547 .34098817 .08198547 .32499696 .08198547H.14698792L.28199769 .20405579Z"/>
<path id="font_2_1" d="M.4889984 .31877137C.4889984 .42585755 .47799684 .49090577 .44499208 .55496218 .40098573 .6430359 .31999208 .66503909 .2649994 .66503909 .13899231 .66503909 .09298706 .5709839 .07899475 .5429535 .042999269 .4698944 .040985109 .3708191 .040985109 .31877137 .040985109 .25271607 .04399109 .15162659 .09199524 .07156372 .13798523-.0024871827 .21199036-.021484375 .2649994-.021484375 .31298829-.021484375 .39898683-.0064849855 .44898988 .09257507 .48599244 .16464234 .4889984 .2537079 .4889984 .31877137M.2649994 .006515503C.23098755 .006515503 .1619873 .022521973 .14099121 .12760926 .12998963 .18466187 .12998963 .2787323 .12998963 .33078004 .12998963 .3998413 .12998963 .4698944 .14099121 .5249481 .1619873 .6270294 .23999024 .6370239 .2649994 .6370239 .29899598 .6370239 .36799623 .62002566 .3880005 .5289459 .3999939 .4738922 .3999939 .39883424 .3999939 .33078004 .3999939 .27172853 .3999939 .18165589 .3880005 .12561035 .36698915 .020523072 .2979889 .006515503 .2649994 .006515503Z"/>
<path id="font_2_5" d="M.3939972 .6468048C.3939972 .6667938 .3939972 .6748047 .37298585 .6748047 .3600006 .6748047 .35899354 .6737976 .34899903 .65979006L.02999878 .197052V.1640625H.31199647V.08100891C.31199647 .04399109 .30899049 .032989503 .23199463 .032989503H.20899964V0C.2939911 .0029907227 .29599 .0029907227 .35299684 .0029907227 .4099884 .0029907227 .4119873 .0029907227 .49699403 0V.032989503H.47399903C.39698792 .032989503 .3939972 .04399109 .3939972 .08100891V.1640625H.5V.197052H.3939972V.6468048M.31900025 .5658417V.197052H.06498718L.31900025 .5658417Z"/>
<path id="font_2_6" d="M.13798523 .33073426C.13798523 .41377259 .14498902 .4868164 .18099976 .54782107 .21099854 .5978241 .2619934 .6390381 .32499696 .6390381 .34498597 .6390381 .3909912 .63601687 .4139862 .60084536 .36898805 .5988312 .36499024 .5648346 .36499024 .553833 .36499024 .5238342 .3880005 .50683596 .4119873 .50683596 .42999269 .50683596 .45899964 .51782229 .45899964 .5558319 .45899964 .615921 .4139862 .66503909 .32398988 .66503909 .18499756 .66503909 .04399109 .53282168 .04399109 .31672669 .04399109 .045532228 .16999817-.021484375 .2669983-.021484375 .31498719-.021484375 .36698915-.0084991459 .4119873 .03453064 .45199586 .07354736 .48599244 .11558533 .48599244 .20263672 .48599244 .33372499 .3869934 .42578126 .27598573 .42578126 .20399475 .42578126 .16099549 .37976075 .13798523 .33073426M.2669983 .008514404C.21398926 .008514404 .18099976 .045532228 .1659851 .07354736 .14299011 .11859131 .14099121 .18663025 .14099121 .22465515 .14099121 .32373048 .19499207 .3977661 .27198792 .3977661 .32199098 .3977661 .35198976 .37176515 .37098695 .33673097 .3919983 .29971314 .3919983 .25468446 .3919983 .2036438 .3919983 .15260315 .3919983 .10858154 .37199403 .07255554 .34599305 .026519776 .31098939 .008514404 .2669983 .008514404Z"/>
<path id="font_2_7" d="M.33198548 .36080934C.3880005 .38783265 .45599366 .4378662 .45599366 .5159302 .45599366 .6110077 .35899354 .66503909 .2659912 .66503909 .1599884 .66503909 .07398987 .59199526 .07398987 .49790956 .07398987 .46089173 .08699036 .42686463 .11199951 .39782716 .1289978 .3768158 .1329956 .3748169 .19499207 .3357849 .070999149 .2807312 .04399109 .20767212 .04399109 .15162659 .04399109 .041534425 .15499878-.021484375 .2639923-.021484375 .3869934-.021484375 .48599244 .061553956 .48599244 .16764832 .48599244 .23069763 .45199586 .2727356 .43598939 .28974916 .4189911 .30575563 .41799928 .3067627 .33198548 .36080934M.1769867 .45487977C.147995 .4718933 .12399292 .5009155 .12399292 .5359497 .12399292 .598999 .19299317 .6390381 .2639923 .6390381 .34199525 .6390381 .4059906 .5859833 .4059906 .5159302 .4059906 .45788575 .36099244 .408844 .3019867 .37982179L.1769867 .45487977M.22599793 .31776429C.22999573 .31576539 .34399415 .24571228 .36099244 .23469544 .3769989 .22569275 .42900086 .19366455 .42900086 .13360596 .42900086 .056549074 .34799195 .008514404 .2659912 .008514404 .1769867 .008514404 .100997928 .06956482 .100997928 .15162659 .100997928 .22668457 .15699768 .28573609 .22599793 .31776429Z"/>
<path id="font_2_2" d="M.31399537 .63708499C.31399537 .664032 .31199647 .66503909 .2849884 .66503909 .24398804 .6251831 .19099427 .6013489 .09599304 .6013489V.5683594C.12298584 .5683594 .1769867 .5683594 .23498535 .5953522V.08203125C.23498535 .04499817 .23199463 .032989503 .13699341 .032989503H.101989749V0C.14299011 .0029907227 .22898865 .0029907227 .27398683 .0029907227 .31900025 .0029907227 .4059906 .0029907227 .44699098 0V.032989503H.4119873C.31698609 .032989503 .31399537 .04499817 .31399537 .08203125V.63708499Z"/>
<path id="font_2_4" d="M.25299073 .33370973C.33198548 .33370973 .38198854 .27557374 .38198854 .17037964 .38198854 .045440675 .31098939 .008514404 .2579956 .008514404 .20298767 .008514404 .12799073 .0284729 .09298706 .08137512 .1289978 .08137512 .1539917 .10437012 .1539917 .13737488 .1539917 .16937256 .1309967 .19238281 .09899902 .19238281 .07199097 .19238281 .04399109 .17536927 .04399109 .13537598 .04399109 .04045105 .1459961-.021484375 .2599945-.021484375 .3929901-.021484375 .48599244 .070388797 .48599244 .17037964 .48599244 .25352479 .41999818 .32969667 .31799317 .3517456 .39698792 .37982179 .45599366 .4479828 .45599366 .52804568 .45599366 .6080475 .3659973 .66503909 .2619934 .66503909 .15499878 .66503909 .07398987 .6070404 .07398987 .53105166 .07398987 .49404908 .09899902 .4780426 .125 .4780426 .1559906 .4780426 .17599488 .5000458 .17599488 .52905276 .17599488 .56604006 .14399719 .5800476 .12199402 .5810547 .1639862 .6360321 .24099732 .6390381 .25898744 .6390381 .2849884 .6390381 .36099244 .6310272 .36099244 .52804568 .36099244 .45799256 .33198548 .41589356 .31799317 .39985658 .28799439 .36878968 .2649994 .36679078 .20399475 .3627777 .18499756 .36177064 .1769867 .36076356 .1769867 .3477478 .1769867 .33370973 .18598938 .33370973 .20298767 .33370973H.25299073Z"/>
<clipPath id="clip_3">
<path transform="matrix(1.00003,0,0,-1,1.4615555,208.01902)" d="M0 0H239.10538V206.22243H0Z"/>
</clipPath>
<path id="font_4_74" d="M.8789978 0V.0309906H.8549957C.7779999 .0309906 .776001 .041992189 .776001 .07795715V.6046295C.776001 .64060977 .7779999 .6516113 .8549957 .6516113H.8789978V.6826172H.70999148C.6839905 .6826172 .6839905 .6816101 .6769867 .66360476L.45799256 .10095215 .24099732 .660614C.23199463 .6826172 .22898865 .6826172 .20599365 .6826172H.036987306V.6516113H.06098938C.13798523 .6516113 .13999939 .64060977 .13999939 .6046295V.10494995C.13999939 .07795715 .13999939 .0309906 .036987306 .0309906V0L.1539917 .0029907227 .2709961 0V.0309906C.16799927 .0309906 .16799927 .07795715 .16799927 .10494995V.6436157H.16899109L.4099884 .021987915C.4149933 .008987427 .41999818 0 .42999269 0 .44099427 0 .44400025 .0079956059 .44799806 .018997193L.69400027 .6516113H.69499209V.07795715C.69499209 .041992189 .69299319 .0309906 .6159973 .0309906H.59199526V0C.6289978 .0029907227 .69699099 .0029907227 .73599246 .0029907227 .7749939 .0029907227 .84199526 .0029907227 .8789978 0Z"/>
<path id="font_4_28" d="M.48298646 .08912659V.14511109H.45799256V.08912659C.45799256 .03112793 .43299867 .025131226 .42199708 .025131226 .3889923 .025131226 .3849945 .070129398 .3849945 .07511902V.27508546C.3849945 .31707765 .3849945 .3560791 .34899903 .39312745 .30999757 .43223573 .2599945 .4482422 .21199036 .4482422 .12998963 .4482422 .06098938 .40115357 .06098938 .335083 .06098938 .30508424 .08099365 .28808595 .10699463 .28808595 .1349945 .28808595 .15299988 .30807496 .15299988 .33407594 .15299988 .3460846 .147995 .37908937 .101989749 .38008119 .1289978 .41519166 .17799378 .426239 .20999146 .426239 .25898744 .426239 .31599427 .38710023 .31599427 .29808045V.26107789C.2649994 .25808717 .19499207 .25508119 .13198853 .22509766 .056991579 .19110108 .03199768 .13911438 .03199768 .09512329 .03199768 .014251709 .1289978-.0107421879 .19198609-.0107421879 .2579956-.0107421879 .3039856 .029251099 .32299806 .07624817 .32699586 .036132814 .35398866-.005859375 .40098573-.005859375 .42199708-.005859375 .48298646 .008132935 .48298646 .08912659M.31599427 .14013672C.31599427 .04525757 .24398804 .011245728 .19898987 .011245728 .1499939 .011245728 .10899353 .04624939 .10899353 .09625244 .10899353 .15124512 .15098572 .23425293 .31599427 .24024964V.14013672Z"/>
<path id="font_4_96" d="M.3639984 .38137818C.3639984 .41337586 .33299256 .4423828 .2899933 .4423828 .21699524 .4423828 .18099976 .37538148 .16699219 .3323822V.4423828L.027999878 .43066407V.3996582C.09799194 .3996582 .10598755 .39266969 .10598755 .34370423V.07595825C.10598755 .0309906 .09498596 .0309906 .027999878 .0309906V0L.14199829 .0029907227C.18199158 .0029907227 .22898865 .0029907227 .2689972 0V.0309906H.24798584C.17399597 .0309906 .17199707 .04197693 .17199707 .07795715V.23181153C.17199707 .33137513 .21398926 .42037965 .2899933 .42037965 .29699708 .42037965 .29899598 .42037965 .30099488 .41937257 .2979889 .41838075 .27799989 .40637208 .27799989 .3803711 .27799989 .35237123 .29899598 .33737184 .32099916 .33737184 .33898927 .33737184 .3639984 .3493805 .3639984 .38137818Z"/>
<path id="font_4_98" d="M.3600006 .12823487C.3600006 .18122864 .32998658 .21122742 .31799317 .22323609 .2849884 .25523377 .24598694 .26322938 .20399475 .27124024 .147995 .28224183 .08099365 .29522706 .08099365 .35324098 .08099365 .38822938 .10699463 .42922975 .19299317 .42922975 .30299378 .42922975 .30799867 .3392334 .30999757 .30822755 .31098939 .2992401 .32199098 .2992401 .32199098 .2992401 .33499146 .2992401 .33499146 .30422975 .33499146 .32322694V.4242401C.33499146 .4412384 .33499146 .4482422 .32398988 .4482422 .31900025 .4482422 .31698609 .4482422 .3039856 .43623353 .30099488 .43223573 .29100038 .42323304 .2869873 .42022706 .24899292 .4482422 .20799256 .4482422 .19299317 .4482422 .070999149 .4482422 .032989503 .38124085 .032989503 .3252411 .032989503 .29023744 .04899597 .26223756 .07598877 .24023438 .10798645 .2142334 .13598633 .2082367 .20799256 .19422913 .22999573 .19021607 .31199647 .17422486 .31199647 .10221863 .31199647 .051223756 .2769928 .011245728 .19898987 .011245728 .114990238 .011245728 .07899475 .068222049 .05999756 .1532135 .056991579 .16621399 .055999757 .17021179 .04598999 .17021179 .032989503 .17021179 .032989503 .16322327 .032989503 .1452179V.013214111C.032989503-.003753662 .032989503-.0107421879 .04399109-.0107421879 .04899597-.0107421879 .049987794-.009750366 .068984989 .009246826 .070999149 .011245728 .070999149 .013214111 .08898926 .032226564 .1329956-.009750366 .17799378-.0107421879 .19898987-.0107421879 .31399537-.0107421879 .3600006 .05621338 .3600006 .1282196V.12823487Z"/>
<path id="font_4_49" d="M.6519928 .2579193H.6269989C.60198977 .10397339 .57899478 .0309906 .40699769 .0309906H.27398683C.22698975 .0309906 .22499085 .037994386 .22499085 .07098389V.33789063H.31498719C.4119873 .33789063 .4229889 .30589295 .4229889 .220932H.44799806V.48606874H.4229889C.4229889 .39994813 .4119873 .36888124 .31498719 .36888124H.22499085V.6087799C.22499085 .6416931 .22698975 .64868167 .27398683 .64868167H.40299989C.55599978 .64868167 .58299258 .59381106 .598999 .45507813H.6239929L.59599307 .6796875H.032989503V.64868167H.056991579C.13398743 .64868167 .13598633 .6377106 .13598633 .6017914V.07797241C.13598633 .041992189 .13398743 .0309906 .056991579 .0309906H.032989503V0H.6100006L.6519928 .2579193Z"/>
<path id="font_4_105" d="M.33198548 .12385559V.18066406H.30699159V.12585449C.30699159 .052108766 .2769928 .014251709 .23999024 .014251709 .17298889 .014251709 .17298889 .10491943 .17298889 .12187195V.3996582H.31599427V.43066407H.17298889V.6142578H.147995C.14698792 .5324249 .116989139 .42565919 .018997193 .42166139V.3996582H.10398865V.12408447C.10398865 .0012512207 .19699097-.0107421879 .23298645-.0107421879 .3039856-.0107421879 .33198548 .060180665 .33198548 .12408447V.12385559Z"/>
<path id="font_4_63" d="M.5349884 0V.0309906C.48298646 .0309906 .45799256 .0309906 .45700074 .061019899V.25221253C.45700074 .3383026 .45700074 .36932374 .42599488 .405365 .4119873 .42237855 .3789978 .4423828 .32099916 .4423828 .23699951 .4423828 .19299317 .38233949 .1769867 .34629823H.17599488V.69433596L.03199768 .6826172V.6516113C.101989749 .6516113 .10998535 .64463809 .10998535 .59580996V.076034549C.10998535 .0309906 .09899902 .0309906 .03199768 .0309906V0L.14498902 .0029907227 .25698854 0V.0309906C.18998719 .0309906 .1789856 .0309906 .1789856 .076034549V.2602234C.1789856 .36431886 .25 .42037965 .31399537 .42037965 .3769989 .42037965 .3880005 .36631776 .3880005 .30926515V.076034549C.3880005 .0309906 .3769989 .0309906 .30999757 .0309906V0L.4229889 .0029907227 .5349884 0Z"/>
<path id="font_5_1" d="M.33399964 .30233766C.33999635 .32835389 .36299134 .42037965 .43299867 .42037965 .43798829 .42037965 .46199037 .42037965 .48298646 .40734864 .45498658 .402359 .43499757 .37734986 .43499757 .35334779 .43499757 .33735658 .44599916 .31835938 .47299195 .31835938 .49499513 .31835938 .5269928 .3363495 .5269928 .37635804 .5269928 .42837525 .46798707 .4423828 .43399049 .4423828 .37599183 .4423828 .34098817 .38935853 .32899476 .36634828 .3039856 .43237306 .25 .4423828 .22099304 .4423828 .116989139 .4423828 .05999756 .3133545 .05999756 .28834535 .05999756 .27833558 .069992069 .27833558 .07199097 .27833558 .07998657 .27833558 .08299255 .28033448 .084991458 .28933717 .11898804 .39535523 .18499756 .42037965 .21899414 .42037965 .23799134 .42037965 .272995 .4113617 .272995 .35334779 .272995 .32235719 .2559967 .25532533 .21899414 .11528015 .20298767 .053268434 .16799927 .011245728 .12399292 .011245728 .117996219 .011245728 .09498596 .011245728 .07398987 .024276734 .09899902 .029266358 .12098694 .05027771 .12098694 .07827759 .12098694 .105270389 .09899902 .11328125 .083999637 .11328125 .053985597 .11328125 .0289917 .08728027 .0289917 .055267335 .0289917 .009246826 .07899475-.0107421879 .12298584-.0107421879 .18899536-.0107421879 .22499085 .059280397 .22799683 .0652771 .23999024 .028274537 .27598573-.0107421879 .33599855-.0107421879 .43899537-.0107421879 .49598695 .118270877 .49598695 .14328003 .49598695 .1532898 .4869995 .1532898 .48399354 .1532898 .47499085 .1532898 .47299195 .14929199 .47099305 .14228821 .43798829 .03527832 .36999513 .011245728 .33799745 .011245728 .29899598 .011245728 .2829895 .043273927 .2829895 .07727051 .2829895 .09927368 .2889862 .121276859 .2999878 .16529846L.33399964 .30233766Z"/>
<path id="font_5_2" d="M.48599244 .38136292C.48999024 .39537049 .48999024 .39736939 .48999024 .40437318 .48999024 .42237855 .47599793 .43138124 .46099855 .43138124 .45098878 .43138124 .43499757 .42536927 .42599488 .41036988 .42399598 .405365 .41600038 .37435914 .4119873 .35635377 .40499879 .33035279 .397995 .30334474 .3919983 .27633668L.34700013 .09628296C.34298707 .08126831 .2999878 .011245728 .23399353 .011245728 .18299866 .011245728 .17199707 .055267335 .17199707 .0922699 .17199707 .1382904 .18899536 .20030213 .22299195 .28833009 .23899842 .3293457 .24299622 .3403473 .24299622 .36035157 .24299622 .405365 .21099854 .4423828 .16099549 .4423828 .06599426 .4423828 .0289917 .29733277 .0289917 .28833009 .0289917 .27833558 .038986207 .27833558 .040985109 .27833558 .050994874 .27833558 .051986696 .28033448 .056991579 .29634095 .083999637 .3903656 .12399292 .42037965 .1579895 .42037965 .1659851 .42037965 .18299866 .42037965 .18299866 .3883667 .18299866 .36335755 .17298889 .3373413 .1659851 .31834413 .12599182 .21231079 .10798645 .1552887 .10798645 .10827637 .10798645 .019256592 .17098999-.0107421879 .22999573-.0107421879 .2689972-.0107421879 .30299378 .0062561037 .33099366 .03425598 .31799317-.017745972 .30599977-.06674194 .2659912-.11973572 .23999024-.15385437 .20199585-.18309021 .1559906-.18309021 .14199829-.18309021 .09700012-.18005371 .07998657-.14074707 .09599304-.14074707 .10899353-.14074707 .12298584-.1287384 .1329956-.11973572 .14299011-.10673523 .14299011-.08773804 .14299011-.056747438 .115997318-.052734376 .10598755-.052734376 .08299255-.052734376 .049987794-.068740848 .049987794-.11773682 .049987794-.16796875 .09399414-.20507813 .1559906-.20507813 .25898744-.20507813 .3619995-.11373901 .3899994-.00074768069L.48599244 .38136292Z"/>
</defs>
<path transform="matrix(1.00003,0,0,-1,1.4615555,208.01902)" d="M0 0H239.10538V206.22243H0Z" fill="#fffac2"/>
<path transform="matrix(1.00003,0,0,-1,1.4615555,208.01902)" stroke-width=".3985" stroke-linecap="butt" stroke-miterlimit="10" stroke-linejoin="miter" fill="none" stroke="#d5d6d5" d="M0 0V206.22243M18.39272 0V206.22243M36.78543 0V206.22243M55.17816 0V206.22243M73.57088 0V206.22243M91.96361 0V206.22243M110.35632 0V206.22243M128.74904 0V206.22243M147.14177 0V206.22243M165.53449 0V206.22243M183.92722 0V206.22243M202.31993 0V206.22243M220.71265 0V206.22243M239.10538 0V206.22243"/>
<path transform="matrix(1.00003,0,0,-1,1.4615555,208.01902)" stroke-width=".3985" stroke-linecap="butt" stroke-miterlimit="10" stroke-linejoin="miter" fill="none" stroke="#d5d6d5" d="M18.39272 0V206.22243M91.96361 0V206.22243M128.74904 0V206.22243M165.53449 0V206.22243M202.31993 0V206.22243"/>
<path transform="matrix(1.00003,0,0,-1,1.4615555,208.01902)" stroke-width=".3985" stroke-linecap="butt" stroke-miterlimit="10" stroke-linejoin="miter" fill="none" stroke="#d5d6d5" d="M0 0H239.10538M0 41.24448H239.10538M0 82.48897H239.10538M0 123.73346H239.10538M0 164.97794H239.10538M0 206.22243H239.10538"/>
<path transform="matrix(1.00003,0,0,-1,1.4615555,208.01902)" stroke-width=".3985" stroke-linecap="butt" stroke-miterlimit="10" stroke-linejoin="miter" fill="none" stroke="#d5d6d5" d="M0 82.48897H239.10538M0 123.73346H239.10538M0 164.97794H239.10538"/>
<path transform="matrix(1.00003,0,0,-1,1.4615555,208.01902)" stroke-width=".19925" stroke-linecap="butt" stroke-miterlimit="10" stroke-linejoin="miter" fill="none" stroke="#929292" d="M0 39.82707V42.66187M18.39272 39.82707V42.66187M36.78543 39.82707V42.66187M55.17816 39.82707V42.66187M73.57088 39.82707V42.66187M91.96361 39.82707V42.66187M110.35632 39.82707V42.66187M128.74904 39.82707V42.66187M147.14177 39.82707V42.66187M165.53449 39.82707V42.66187M183.92722 39.82707V42.66187M202.31993 39.82707V42.66187M220.71265 39.82707V42.66187M239.10538 39.82707V42.66187"/>
<path transform="matrix(1.00003,0,0,-1,1.4615555,208.01902)" stroke-width=".19925" stroke-linecap="butt" stroke-miterlimit="10" stroke-linejoin="miter" fill="none" stroke="#929292" d="M18.39272 39.11859V43.37036M91.96361 39.11859V43.37036M128.74904 39.11859V43.37036M165.53449 39.11859V43.37036M202.31993 39.11859V43.37036"/>
<path transform="matrix(1.00003,0,0,-1,1.4615555,208.01902)" stroke-width=".19925" stroke-linecap="butt" stroke-miterlimit="10" stroke-linejoin="miter" fill="none" stroke="#929292" d="M53.76096 0H56.59538M53.76096 41.24448H56.59538M53.76096 82.48897H56.59538M53.76096 123.73346H56.59538M53.76096 164.97794H56.59538M53.76096 206.22243H56.59538"/>
<path transform="matrix(1.00003,0,0,-1,1.4615555,208.01902)" stroke-width=".19925" stroke-linecap="butt" stroke-miterlimit="10" stroke-linejoin="miter" fill="none" stroke="#929292" d="M53.05252 82.48897H57.30377M53.05252 123.73346H57.30377M53.05252 164.97794H57.30377"/>
<path transform="matrix(1.00003,0,0,-1,1.4615555,208.01902)" stroke-width=".3985" stroke-linecap="butt" stroke-miterlimit="10" stroke-linejoin="miter" fill="none" stroke="#000000" d="M0 41.24448H237.11286"/>
<path transform="matrix(1.00003,0,0,-1,238.58155,166.77454)" d="M1.99252 0-1.19551 1.59401 0 0-1.19551-1.59401"/>
<path transform="matrix(1.00003,0,0,-1,1.4615555,208.01902)" stroke-width=".3985" stroke-linecap="butt" stroke-miterlimit="10" stroke-linejoin="miter" fill="none" stroke="#000000" d="M55.17816 0V204.2299"/>
<path transform="matrix(0,-1,-1.00003,-0,56.641378,3.7891083)" d="M1.99252 0-1.19551 1.59401 0 0-1.19551-1.59401"/>
<use data-text="&#x2212;" xlink:href="#font_1_1" transform="matrix(7.9703395,0,0,-7.9701,12.326881,177.557)"/>
<use data-text="2" xlink:href="#font_2_3" transform="matrix(7.9703395,0,0,-7.9701,18.91408,177.557)"/>
<use data-text="0" xlink:href="#font_2_1" transform="matrix(7.9703395,0,0,-7.9701,23.146328,177.557)"/>
<use data-text="2" xlink:href="#font_2_3" transform="matrix(7.9703395,0,0,-7.9701,89.193187,177.557)"/>
<use data-text="0" xlink:href="#font_2_1" transform="matrix(7.9703395,0,0,-7.9701,93.42544,177.557)"/>
<use data-text="4" xlink:href="#font_2_5" transform="matrix(7.9703395,0,0,-7.9701,125.98029,177.557)"/>
<use data-text="0" xlink:href="#font_2_1" transform="matrix(7.9703395,0,0,-7.9701,130.21254,177.557)"/>
<use data-text="6" xlink:href="#font_2_6" transform="matrix(7.9703395,0,0,-7.9701,162.76642,177.557)"/>
<use data-text="0" xlink:href="#font_2_1" transform="matrix(7.9703395,0,0,-7.9701,166.99866,177.557)"/>
<use data-text="8" xlink:href="#font_2_7" transform="matrix(7.9703395,0,0,-7.9701,199.5535,177.557)"/>
<use data-text="0" xlink:href="#font_2_1" transform="matrix(7.9703395,0,0,-7.9701,203.78575,177.557)"/>
<use data-text="1" xlink:href="#font_2_2" transform="matrix(7.9703395,0,0,-7.9701,44.417848,128.09803)"/>
<use data-text="0" xlink:href="#font_2_1" transform="matrix(7.9703395,0,0,-7.9701,48.6501,128.09803)"/>
<use data-text="2" xlink:href="#font_2_3" transform="matrix(7.9703395,0,0,-7.9701,44.417848,86.854007)"/>
<use data-text="0" xlink:href="#font_2_1" transform="matrix(7.9703395,0,0,-7.9701,48.6501,86.854007)"/>
<use data-text="3" xlink:href="#font_2_4" transform="matrix(7.9703395,0,0,-7.9701,44.417848,45.60901)"/>
<use data-text="0" xlink:href="#font_2_1" transform="matrix(7.9703395,0,0,-7.9701,48.6501,45.60901)"/>
<g clip-path="url(#clip_3)">
<path transform="matrix(1.00003,0,0,-1,1.4615555,208.01902)" stroke-width=".3985" stroke-linecap="butt" stroke-dasharray="2.98883,2.98883" stroke-miterlimit="10" stroke-linejoin="miter" fill="none" stroke="#9e0c0f" d="M18.39272 41.24448C18.39272 41.24448 28.83372 65.86606 32.84386 74.34471 36.85399 82.82335 43.2849 95.28716 47.29503 102.35272 51.30518 109.4183 57.73605 119.61598 61.74619 125.26848 65.75632 130.92096 72.18721 138.85257 76.19734 143.09198 80.20747 147.33138 86.63835 152.99689 90.6485 155.82323 94.65863 158.64955 101.08952 162.04904 105.09967 163.4623 109.10982 164.87555 115.5407 166.00888 119.55083 166.00905 123.56096 166.00922 129.99185 164.87644 134.00199 163.46355 138.01212 162.05066 144.44303 158.65184 148.45316 155.82587 152.46327 152.9999 158.89417 147.33493 162.9043 143.09589 166.91443 138.85683 173.3453 130.92581 177.35546 125.27368 181.3656 119.62157 187.7965 109.42441 191.80664 102.3592 195.81679 95.29399 202.24767 82.83084 206.2578 74.35257 210.26792 65.87428 220.70894 41.25363 220.70894 41.25363"/>
<use data-text="M" xlink:href="#font_4_74" transform="matrix(9.962899,0,0,-9.9626,196.7084,163.13602)" fill="#9e0c0f"/>
<use data-text="a" xlink:href="#font_4_28" transform="matrix(9.962899,0,0,-9.9626,205.84439,163.13602)" fill="#9e0c0f"/>
<use data-text="r" xlink:href="#font_4_96" transform="matrix(9.962899,0,0,-9.9626,210.82584,163.13602)" fill="#9e0c0f"/>
<use data-text="s" xlink:href="#font_4_98" transform="matrix(9.962899,0,0,-9.9626,214.7313,163.13602)" fill="#9e0c0f"/>
<path transform="matrix(1.00003,0,0,-1,1.4615555,208.01902)" stroke-width=".79701" stroke-linecap="butt" stroke-miterlimit="10" stroke-linejoin="miter" fill="none" stroke="#c7502a" d="M0 41.24448H239.10538"/>
<path transform="matrix(1.00003,0,0,-1,1.4615555,208.01902)" stroke-width=".3985" stroke-linecap="butt" stroke-dasharray="2.98883,2.98883" stroke-miterlimit="10" stroke-linejoin="miter" fill="none" stroke="#008099" d="M18.39272 41.24449C18.39272 41.24449 24.60284 54.76054 26.988 58.61719 29.37317 62.47385 33.19815 67.11238 35.5833 69.04065 37.96844 70.9689 41.79341 72.515 44.17856 72.5149 46.56369 72.51479 50.38869 70.96837 52.77385 69.03987 55.159 67.11137 58.98398 62.4725 61.36913 58.61563 63.75429 54.75874 69.96442 41.24216 69.96442 41.24216"/>
<use data-text="E" xlink:href="#font_4_49" transform="matrix(9.962899,0,0,-9.9626,74.94776,163.147)" fill="#008099"/>
<use data-text="a" xlink:href="#font_4_28" transform="matrix(9.962899,0,0,-9.9626,81.7325,163.147)" fill="#008099"/>
<use data-text="r" xlink:href="#font_4_96" transform="matrix(9.962899,0,0,-9.9626,86.71394,163.147)" fill="#008099"/>
<use data-text="t" xlink:href="#font_4_105" transform="matrix(9.962899,0,0,-9.9626,90.6194,163.147)" fill="#008099"/>
<use data-text="h" xlink:href="#font_4_63" transform="matrix(9.962899,0,0,-9.9626,94.494968,163.147)" fill="#008099"/>
</g>
<path transform="matrix(1.00003,0,0,-1,1.4615555,208.01902)" d="M20.38527 41.24448C20.38527 42.34496 19.49318 43.23703 18.39272 43.23703 17.29224 43.23703 16.40016 42.34496 16.40016 41.24448 16.40016 40.14401 17.29224 39.25192 18.39272 39.25192 19.49318 39.25192 20.38527 40.14401 20.38527 41.24448ZM18.39272 41.24448" fill="#9e0c0f"/>
<path transform="matrix(1.00003,0,0,-1,1.4615555,208.01902)" stroke-width=".3985" stroke-linecap="butt" stroke-dasharray="2.98883,2.98883" stroke-miterlimit="10" stroke-linejoin="miter" fill="none" stroke="#9e0c0f" d="M20.38527 41.24448C20.38527 42.34496 19.49318 43.23703 18.39272 43.23703 17.29224 43.23703 16.40016 42.34496 16.40016 41.24448 16.40016 40.14401 17.29224 39.25192 18.39272 39.25192 19.49318 39.25192 20.38527 40.14401 20.38527 41.24448ZM18.39272 41.24448"/>
<path transform="matrix(1.00003,0,0,-1,1.4615555,208.01902)" d="M34.83641 74.34471C34.83641 75.44518 33.94432 76.33727 32.84386 76.33727 31.74338 76.33727 30.8513 75.44518 30.8513 74.34471 30.8513 73.24423 31.74338 72.35216 32.84386 72.35216 33.94432 72.35216 34.83641 73.24423 34.83641 74.34471ZM32.84386 74.34471" fill="#9e0c0f"/>
<path transform="matrix(1.00003,0,0,-1,1.4615555,208.01902)" stroke-width=".3985" stroke-linecap="butt" stroke-dasharray="2.98883,2.98883" stroke-miterlimit="10" stroke-linejoin="miter" fill="none" stroke="#9e0c0f" d="M34.83641 74.34471C34.83641 75.44518 33.94432 76.33727 32.84386 76.33727 31.74338 76.33727 30.8513 75.44518 30.8513 74.34471 30.8513 73.24423 31.74338 72.35216 32.84386 72.35216 33.94432 72.35216 34.83641 73.24423 34.83641 74.34471ZM32.84386 74.34471"/>
<path transform="matrix(1.00003,0,0,-1,1.4615555,208.01902)" d="M49.28758 102.35272C49.28758 103.4532 48.39551 104.34528 47.29503 104.34528 46.19456 104.34528 45.30247 103.4532 45.30247 102.35272 45.30247 101.25226 46.19456 100.36017 47.29503 100.36017 48.39551 100.36017 49.28758 101.25226 49.28758 102.35272ZM47.29503 102.35272" fill="#9e0c0f"/>
<path transform="matrix(1.00003,0,0,-1,1.4615555,208.01902)" stroke-width=".3985" stroke-linecap="butt" stroke-dasharray="2.98883,2.98883" stroke-miterlimit="10" stroke-linejoin="miter" fill="none" stroke="#9e0c0f" d="M49.28758 102.35272C49.28758 103.4532 48.39551 104.34528 47.29503 104.34528 46.19456 104.34528 45.30247 103.4532 45.30247 102.35272 45.30247 101.25226 46.19456 100.36017 47.29503 100.36017 48.39551 100.36017 49.28758 101.25226 49.28758 102.35272ZM47.29503 102.35272"/>
<path transform="matrix(1.00003,0,0,-1,1.4615555,208.01902)" d="M63.73874 125.26848C63.73874 126.36894 62.84666 127.26103 61.74619 127.26103 60.64572 127.26103 59.75363 126.36894 59.75363 125.26848 59.75363 124.168 60.64572 123.27592 61.74619 123.27592 62.84666 123.27592 63.73874 124.168 63.73874 125.26848ZM61.74619 125.26848" fill="#9e0c0f"/>
<path transform="matrix(1.00003,0,0,-1,1.4615555,208.01902)" stroke-width=".3985" stroke-linecap="butt" stroke-dasharray="2.98883,2.98883" stroke-miterlimit="10" stroke-linejoin="miter" fill="none" stroke="#9e0c0f" d="M63.73874 125.26848C63.73874 126.36894 62.84666 127.26103 61.74619 127.26103 60.64572 127.26103 59.75363 126.36894 59.75363 125.26848 59.75363 124.168 60.64572 123.27592 61.74619 123.27592 62.84666 123.27592 63.73874 124.168 63.73874 125.26848ZM61.74619 125.26848"/>
<path transform="matrix(1.00003,0,0,-1,1.4615555,208.01902)" d="M78.1899 143.09198C78.1899 144.19245 77.2978 145.08454 76.19734 145.08454 75.09686 145.08454 74.20479 144.19245 74.20479 143.09198 74.20479 141.9915 75.09686 141.09943 76.19734 141.09943 77.2978 141.09943 78.1899 141.9915 78.1899 143.09198ZM76.19734 143.09198" fill="#9e0c0f"/>
<path transform="matrix(1.00003,0,0,-1,1.4615555,208.01902)" stroke-width=".3985" stroke-linecap="butt" stroke-dasharray="2.98883,2.98883" stroke-miterlimit="10" stroke-linejoin="miter" fill="none" stroke="#9e0c0f" d="M78.1899 143.09198C78.1899 144.19245 77.2978 145.08454 76.19734 145.08454 75.09686 145.08454 74.20479 144.19245 74.20479 143.09198 74.20479 141.9915 75.09686 141.09943 76.19734 141.09943 77.2978 141.09943 78.1899 141.9915 78.1899 143.09198ZM76.19734 143.09198"/>
<path transform="matrix(1.00003,0,0,-1,1.4615555,208.01902)" d="M92.64105 155.82323C92.64105 156.92369 91.74896 157.81578 90.6485 157.81578 89.54802 157.81578 88.65594 156.92369 88.65594 155.82323 88.65594 154.72275 89.54802 153.83068 90.6485 153.83068 91.74896 153.83068 92.64105 154.72275 92.64105 155.82323ZM90.6485 155.82323" fill="#9e0c0f"/>
<path transform="matrix(1.00003,0,0,-1,1.4615555,208.01902)" stroke-width=".3985" stroke-linecap="butt" stroke-dasharray="2.98883,2.98883" stroke-miterlimit="10" stroke-linejoin="miter" fill="none" stroke="#9e0c0f" d="M92.64105 155.82323C92.64105 156.92369 91.74896 157.81578 90.6485 157.81578 89.54802 157.81578 88.65594 156.92369 88.65594 155.82323 88.65594 154.72275 89.54802 153.83068 90.6485 153.83068 91.74896 153.83068 92.64105 154.72275 92.64105 155.82323ZM90.6485 155.82323"/>
<path transform="matrix(1.00003,0,0,-1,1.4615555,208.01902)" d="M107.09222 163.4623C107.09222 164.56276 106.20015 165.45485 105.09967 165.45485 103.9992 165.45485 103.10712 164.56276 103.10712 163.4623 103.10712 162.36182 103.9992 161.46974 105.09967 161.46974 106.20015 161.46974 107.09222 162.36182 107.09222 163.4623ZM105.09967 163.4623" fill="#9e0c0f"/>
<path transform="matrix(1.00003,0,0,-1,1.4615555,208.01902)" stroke-width=".3985" stroke-linecap="butt" stroke-dasharray="2.98883,2.98883" stroke-miterlimit="10" stroke-linejoin="miter" fill="none" stroke="#9e0c0f" d="M107.09222 163.4623C107.09222 164.56276 106.20015 165.45485 105.09967 165.45485 103.9992 165.45485 103.10712 164.56276 103.10712 163.4623 103.10712 162.36182 103.9992 161.46974 105.09967 161.46974 106.20015 161.46974 107.09222 162.36182 107.09222 163.4623ZM105.09967 163.4623"/>
<path transform="matrix(1.00003,0,0,-1,1.4615555,208.01902)" d="M121.54338 166.00905C121.54338 167.10951 120.6513 168.0016 119.55083 168.0016 118.45036 168.0016 117.55827 167.10951 117.55827 166.00905 117.55827 164.90857 118.45036 164.0165 119.55083 164.0165 120.6513 164.0165 121.54338 164.90857 121.54338 166.00905ZM119.55083 166.00905" fill="#9e0c0f"/>
<path transform="matrix(1.00003,0,0,-1,1.4615555,208.01902)" stroke-width=".3985" stroke-linecap="butt" stroke-dasharray="2.98883,2.98883" stroke-miterlimit="10" stroke-linejoin="miter" fill="none" stroke="#9e0c0f" d="M121.54338 166.00905C121.54338 167.10951 120.6513 168.0016 119.55083 168.0016 118.45036 168.0016 117.55827 167.10951 117.55827 166.00905 117.55827 164.90857 118.45036 164.0165 119.55083 164.0165 120.6513 164.0165 121.54338 164.90857 121.54338 166.00905ZM119.55083 166.00905"/>
<path transform="matrix(1.00003,0,0,-1,1.4615555,208.01902)" d="M135.99454 163.46355C135.99454 164.56403 135.10245 165.4561 134.00199 165.4561 132.9015 165.4561 132.00943 164.56403 132.00943 163.46355 132.00943 162.36309 132.9015 161.471 134.00199 161.471 135.10245 161.471 135.99454 162.36309 135.99454 163.46355ZM134.00199 163.46355" fill="#9e0c0f"/>
<path transform="matrix(1.00003,0,0,-1,1.4615555,208.01902)" stroke-width=".3985" stroke-linecap="butt" stroke-dasharray="2.98883,2.98883" stroke-miterlimit="10" stroke-linejoin="miter" fill="none" stroke="#9e0c0f" d="M135.99454 163.46355C135.99454 164.56403 135.10245 165.4561 134.00199 165.4561 132.9015 165.4561 132.00943 164.56403 132.00943 163.46355 132.00943 162.36309 132.9015 161.471 134.00199 161.471 135.10245 161.471 135.99454 162.36309 135.99454 163.46355ZM134.00199 163.46355"/>
<path transform="matrix(1.00003,0,0,-1,1.4615555,208.01902)" d="M150.44571 155.82587C150.44571 156.92633 149.55362 157.81842 148.45316 157.81842 147.35268 157.81842 146.4606 156.92633 146.4606 155.82587 146.4606 154.72539 147.35268 153.83332 148.45316 153.83332 149.55362 153.83332 150.44571 154.72539 150.44571 155.82587ZM148.45316 155.82587" fill="#9e0c0f"/>
<path transform="matrix(1.00003,0,0,-1,1.4615555,208.01902)" stroke-width=".3985" stroke-linecap="butt" stroke-dasharray="2.98883,2.98883" stroke-miterlimit="10" stroke-linejoin="miter" fill="none" stroke="#9e0c0f" d="M150.44571 155.82587C150.44571 156.92633 149.55362 157.81842 148.45316 157.81842 147.35268 157.81842 146.4606 156.92633 146.4606 155.82587 146.4606 154.72539 147.35268 153.83332 148.45316 153.83332 149.55362 153.83332 150.44571 154.72539 150.44571 155.82587ZM148.45316 155.82587"/>
<path transform="matrix(1.00003,0,0,-1,1.4615555,208.01902)" d="M164.89685 143.09589C164.89685 144.19635 164.00478 145.08844 162.9043 145.08844 161.80384 145.08844 160.91175 144.19635 160.91175 143.09589 160.91175 141.9954 161.80384 141.10334 162.9043 141.10334 164.00478 141.10334 164.89685 141.9954 164.89685 143.09589ZM162.9043 143.09589" fill="#9e0c0f"/>
<path transform="matrix(1.00003,0,0,-1,1.4615555,208.01902)" stroke-width=".3985" stroke-linecap="butt" stroke-dasharray="2.98883,2.98883" stroke-miterlimit="10" stroke-linejoin="miter" fill="none" stroke="#9e0c0f" d="M164.89685 143.09589C164.89685 144.19635 164.00478 145.08844 162.9043 145.08844 161.80384 145.08844 160.91175 144.19635 160.91175 143.09589 160.91175 141.9954 161.80384 141.10334 162.9043 141.10334 164.00478 141.10334 164.89685 141.9954 164.89685 143.09589ZM162.9043 143.09589"/>
<path transform="matrix(1.00003,0,0,-1,1.4615555,208.01902)" d="M179.348 125.27368C179.348 126.37416 178.45594 127.26624 177.35546 127.26624 176.25499 127.26624 175.3629 126.37416 175.3629 125.27368 175.3629 124.17322 176.25499 123.28113 177.35546 123.28113 178.45594 123.28113 179.348 124.17322 179.348 125.27368ZM177.35546 125.27368" fill="#9e0c0f"/>
<path transform="matrix(1.00003,0,0,-1,1.4615555,208.01902)" stroke-width=".3985" stroke-linecap="butt" stroke-dasharray="2.98883,2.98883" stroke-miterlimit="10" stroke-linejoin="miter" fill="none" stroke="#9e0c0f" d="M179.348 125.27368C179.348 126.37416 178.45594 127.26624 177.35546 127.26624 176.25499 127.26624 175.3629 126.37416 175.3629 125.27368 175.3629 124.17322 176.25499 123.28113 177.35546 123.28113 178.45594 123.28113 179.348 124.17322 179.348 125.27368ZM177.35546 125.27368"/>
<path transform="matrix(1.00003,0,0,-1,1.4615555,208.01902)" d="M193.7992 102.3592C193.7992 103.45967 192.9071 104.35176 191.80664 104.35176 190.70616 104.35176 189.81409 103.45967 189.81409 102.3592 189.81409 101.25873 190.70616 100.36665 191.80664 100.36665 192.9071 100.36665 193.7992 101.25873 193.7992 102.3592ZM191.80664 102.3592" fill="#9e0c0f"/>
<path transform="matrix(1.00003,0,0,-1,1.4615555,208.01902)" stroke-width=".3985" stroke-linecap="butt" stroke-dasharray="2.98883,2.98883" stroke-miterlimit="10" stroke-linejoin="miter" fill="none" stroke="#9e0c0f" d="M193.7992 102.3592C193.7992 103.45967 192.9071 104.35176 191.80664 104.35176 190.70616 104.35176 189.81409 103.45967 189.81409 102.3592 189.81409 101.25873 190.70616 100.36665 191.80664 100.36665 192.9071 100.36665 193.7992 101.25873 193.7992 102.3592ZM191.80664 102.3592"/>
<path transform="matrix(1.00003,0,0,-1,1.4615555,208.01902)" d="M208.25035 74.35257C208.25035 75.45303 207.35826 76.34512 206.2578 76.34512 205.15732 76.34512 204.26525 75.45303 204.26525 74.35257 204.26525 73.25209 205.15732 72.36002 206.2578 72.36002 207.35826 72.36002 208.25035 73.25209 208.25035 74.35257ZM206.2578 74.35257" fill="#9e0c0f"/>
<path transform="matrix(1.00003,0,0,-1,1.4615555,208.01902)" stroke-width=".3985" stroke-linecap="butt" stroke-dasharray="2.98883,2.98883" stroke-miterlimit="10" stroke-linejoin="miter" fill="none" stroke="#9e0c0f" d="M208.25035 74.35257C208.25035 75.45303 207.35826 76.34512 206.2578 76.34512 205.15732 76.34512 204.26525 75.45303 204.26525 74.35257 204.26525 73.25209 205.15732 72.36002 206.2578 72.36002 207.35826 72.36002 208.25035 73.25209 208.25035 74.35257ZM206.2578 74.35257"/>
<path transform="matrix(1.00003,0,0,-1,1.4615555,208.01902)" d="M222.70149 41.25363C222.70149 42.3541 221.80942 43.24619 220.70894 43.24619 219.60848 43.24619 218.71639 42.3541 218.71639 41.25363 218.71639 40.15317 219.60848 39.26108 220.70894 39.26108 221.80942 39.26108 222.70149 40.15317 222.70149 41.25363ZM220.70894 41.25363" fill="#9e0c0f"/>
<path transform="matrix(1.00003,0,0,-1,1.4615555,208.01902)" stroke-width=".3985" stroke-linecap="butt" stroke-dasharray="2.98883,2.98883" stroke-miterlimit="10" stroke-linejoin="miter" fill="none" stroke="#9e0c0f" d="M222.70149 41.25363C222.70149 42.3541 221.80942 43.24619 220.70894 43.24619 219.60848 43.24619 218.71639 42.3541 218.71639 41.25363 218.71639 40.15317 219.60848 39.26108 220.70894 39.26108 221.80942 39.26108 222.70149 40.15317 222.70149 41.25363ZM220.70894 41.25363"/>
<path transform="matrix(1.00003,0,0,-1,1.4615555,208.01902)" stroke-width=".3985" stroke-linecap="butt" stroke-dasharray="2.98883,2.98883" stroke-miterlimit="10" stroke-linejoin="miter" fill="none" stroke="#9e0c0f" d=""/>
<path transform="matrix(1.00003,0,0,-1,1.4615555,208.01902)" d="M20.38527 41.24449C20.38527 42.34497 19.49318 43.23705 18.39272 43.23705 17.29224 43.23705 16.40016 42.34497 16.40016 41.24449 16.40016 40.14403 17.29224 39.25194 18.39272 39.25194 19.49318 39.25194 20.38527 40.14403 20.38527 41.24449ZM18.39272 41.24449" fill="#008099"/>
<path transform="matrix(1.00003,0,0,-1,1.4615555,208.01902)" stroke-width=".3985" stroke-linecap="butt" stroke-dasharray="2.98883,2.98883" stroke-miterlimit="10" stroke-linejoin="miter" fill="none" stroke="#008099" d="M20.38527 41.24449C20.38527 42.34497 19.49318 43.23705 18.39272 43.23705 17.29224 43.23705 16.40016 42.34497 16.40016 41.24449 16.40016 40.14403 17.29224 39.25194 18.39272 39.25194 19.49318 39.25194 20.38527 40.14403 20.38527 41.24449ZM18.39272 41.24449"/>
<path transform="matrix(1.00003,0,0,-1,1.4615555,208.01902)" d="M28.98056 58.61719C28.98056 59.71767 28.08847 60.60974 26.988 60.60974 25.88753 60.60974 24.99545 59.71767 24.99545 58.61719 24.99545 57.51672 25.88753 56.62463 26.988 56.62463 28.08847 56.62463 28.98056 57.51672 28.98056 58.61719ZM26.988 58.61719" fill="#008099"/>
<path transform="matrix(1.00003,0,0,-1,1.4615555,208.01902)" stroke-width=".3985" stroke-linecap="butt" stroke-dasharray="2.98883,2.98883" stroke-miterlimit="10" stroke-linejoin="miter" fill="none" stroke="#008099" d="M28.98056 58.61719C28.98056 59.71767 28.08847 60.60974 26.988 60.60974 25.88753 60.60974 24.99545 59.71767 24.99545 58.61719 24.99545 57.51672 25.88753 56.62463 26.988 56.62463 28.08847 56.62463 28.98056 57.51672 28.98056 58.61719ZM26.988 58.61719"/>
<path transform="matrix(1.00003,0,0,-1,1.4615555,208.01902)" d="M37.57585 69.04065C37.57585 70.14111 36.68376 71.0332 35.5833 71.0332 34.48282 71.0332 33.59074 70.14111 33.59074 69.04065 33.59074 67.94017 34.48282 67.0481 35.5833 67.0481 36.68376 67.0481 37.57585 67.94017 37.57585 69.04065ZM35.5833 69.04065" fill="#008099"/>
<path transform="matrix(1.00003,0,0,-1,1.4615555,208.01902)" stroke-width=".3985" stroke-linecap="butt" stroke-dasharray="2.98883,2.98883" stroke-miterlimit="10" stroke-linejoin="miter" fill="none" stroke="#008099" d="M37.57585 69.04065C37.57585 70.14111 36.68376 71.0332 35.5833 71.0332 34.48282 71.0332 33.59074 70.14111 33.59074 69.04065 33.59074 67.94017 34.48282 67.0481 35.5833 67.0481 36.68376 67.0481 37.57585 67.94017 37.57585 69.04065ZM35.5833 69.04065"/>
<path transform="matrix(1.00003,0,0,-1,1.4615555,208.01902)" d="M46.17111 72.5149C46.17111 73.61536 45.27902 74.50745 44.17856 74.50745 43.07808 74.50745 42.186 73.61536 42.186 72.5149 42.186 71.41441 43.07808 70.52234 44.17856 70.52234 45.27902 70.52234 46.17111 71.41441 46.17111 72.5149ZM44.17856 72.5149" fill="#008099"/>
<path transform="matrix(1.00003,0,0,-1,1.4615555,208.01902)" stroke-width=".3985" stroke-linecap="butt" stroke-dasharray="2.98883,2.98883" stroke-miterlimit="10" stroke-linejoin="miter" fill="none" stroke="#008099" d="M46.17111 72.5149C46.17111 73.61536 45.27902 74.50745 44.17856 74.50745 43.07808 74.50745 42.186 73.61536 42.186 72.5149 42.186 71.41441 43.07808 70.52234 44.17856 70.52234 45.27902 70.52234 46.17111 71.41441 46.17111 72.5149ZM44.17856 72.5149"/>
<path transform="matrix(1.00003,0,0,-1,1.4615555,208.01902)" d="M54.7664 69.03987C54.7664 70.14034 53.87431 71.03242 52.77385 71.03242 51.67337 71.03242 50.7813 70.14034 50.7813 69.03987 50.7813 67.93939 51.67337 67.04732 52.77385 67.04732 53.87431 67.04732 54.7664 67.93939 54.7664 69.03987ZM52.77385 69.03987" fill="#008099"/>
<path transform="matrix(1.00003,0,0,-1,1.4615555,208.01902)" stroke-width=".3985" stroke-linecap="butt" stroke-dasharray="2.98883,2.98883" stroke-miterlimit="10" stroke-linejoin="miter" fill="none" stroke="#008099" d="M54.7664 69.03987C54.7664 70.14034 53.87431 71.03242 52.77385 71.03242 51.67337 71.03242 50.7813 70.14034 50.7813 69.03987 50.7813 67.93939 51.67337 67.04732 52.77385 67.04732 53.87431 67.04732 54.7664 67.93939 54.7664 69.03987ZM52.77385 69.03987"/>
<path transform="matrix(1.00003,0,0,-1,1.4615555,208.01902)" d="M63.36168 58.61563C63.36168 59.7161 62.4696 60.60818 61.36913 60.60818 60.26866 60.60818 59.37657 59.7161 59.37657 58.61563 59.37657 57.51515 60.26866 56.62308 61.36913 56.62308 62.4696 56.62308 63.36168 57.51515 63.36168 58.61563ZM61.36913 58.61563" fill="#008099"/>
<path transform="matrix(1.00003,0,0,-1,1.4615555,208.01902)" stroke-width=".3985" stroke-linecap="butt" stroke-dasharray="2.98883,2.98883" stroke-miterlimit="10" stroke-linejoin="miter" fill="none" stroke="#008099" d="M63.36168 58.61563C63.36168 59.7161 62.4696 60.60818 61.36913 60.60818 60.26866 60.60818 59.37657 59.7161 59.37657 58.61563 59.37657 57.51515 60.26866 56.62308 61.36913 56.62308 62.4696 56.62308 63.36168 57.51515 63.36168 58.61563ZM61.36913 58.61563"/>
<path transform="matrix(1.00003,0,0,-1,1.4615555,208.01902)" d="M71.95697 41.24216C71.95697 42.34262 71.0649 43.23471 69.96442 43.23471 68.86395 43.23471 67.97186 42.34262 67.97186 41.24216 67.97186 40.14168 68.86395 39.2496 69.96442 39.2496 71.0649 39.2496 71.95697 40.14168 71.95697 41.24216ZM69.96442 41.24216" fill="#008099"/>
<path transform="matrix(1.00003,0,0,-1,1.4615555,208.01902)" stroke-width=".3985" stroke-linecap="butt" stroke-dasharray="2.98883,2.98883" stroke-miterlimit="10" stroke-linejoin="miter" fill="none" stroke="#008099" d="M71.95697 41.24216C71.95697 42.34262 71.0649 43.23471 69.96442 43.23471 68.86395 43.23471 67.97186 42.34262 67.97186 41.24216 67.97186 40.14168 68.86395 39.2496 69.96442 39.2496 71.0649 39.2496 71.95697 40.14168 71.95697 41.24216ZM69.96442 41.24216"/>
<path transform="matrix(1.00003,0,0,-1,1.4615555,208.01902)" stroke-width=".3985" stroke-linecap="butt" stroke-dasharray="2.98883,2.98883" stroke-miterlimit="10" stroke-linejoin="miter" fill="none" stroke="#008099" d=""/>
<path transform="matrix(1.00003,0,0,-1,1.4615555,208.01902)" d="M20.38527 41.24448C20.38527 42.34496 19.49318 43.23703 18.39272 43.23703 17.29224 43.23703 16.40016 42.34496 16.40016 41.24448 16.40016 40.14401 17.29224 39.25192 18.39272 39.25192 19.49318 39.25192 20.38527 40.14401 20.38527 41.24448ZM18.39272 41.24448" fill="#70485b"/>
<path transform="matrix(1.00003,0,0,-1,1.4615555,208.01902)" stroke-width=".3985" stroke-linecap="butt" stroke-miterlimit="10" stroke-linejoin="miter" fill="none" stroke="#70485b" d="M20.38527 41.24448C20.38527 42.34496 19.49318 43.23703 18.39272 43.23703 17.29224 43.23703 16.40016 42.34496 16.40016 41.24448 16.40016 40.14401 17.29224 39.25192 18.39272 39.25192 19.49318 39.25192 20.38527 40.14401 20.38527 41.24448ZM18.39272 41.24448"/>
<path transform="matrix(1.00003,0,0,-1,1.4615555,208.01902)" stroke-width=".3985" stroke-linecap="butt" stroke-miterlimit="10" stroke-linejoin="miter" fill="none" stroke="#70485b" d=""/>
<path transform="matrix(1.00003,0,0,-1,1.4615555,208.01902)" d="M57.17072 41.24448C57.17072 42.34496 56.27863 43.23703 55.17816 43.23703 54.07768 43.23703 53.18561 42.34496 53.18561 41.24448 53.18561 40.14401 54.07768 39.25192 55.17816 39.25192 56.27863 39.25192 57.17072 40.14401 57.17072 41.24448ZM55.17816 41.24448" fill="#70485b"/>
<path transform="matrix(1.00003,0,0,-1,1.4615555,208.01902)" stroke-width=".3985" stroke-linecap="butt" stroke-miterlimit="10" stroke-linejoin="miter" fill="none" stroke="#70485b" d="M57.17072 41.24448C57.17072 42.34496 56.27863 43.23703 55.17816 43.23703 54.07768 43.23703 53.18561 42.34496 53.18561 41.24448 53.18561 40.14401 54.07768 39.25192 55.17816 39.25192 56.27863 39.25192 57.17072 40.14401 57.17072 41.24448ZM55.17816 41.24448"/>
<path transform="matrix(1.00003,0,0,-1,1.4615555,208.01902)" stroke-width=".3985" stroke-linecap="butt" stroke-miterlimit="10" stroke-linejoin="miter" fill="none" stroke="#70485b" d=""/>
<path transform="matrix(1.00003,0,0,-1,1.4615555,208.01902)" d="M222.7052 41.24448C222.7052 42.34496 221.81313 43.23703 220.71265 43.23703 219.61219 43.23703 218.7201 42.34496 218.7201 41.24448 218.7201 40.14401 219.61219 39.25192 220.71265 39.25192 221.81313 39.25192 222.7052 40.14401 222.7052 41.24448ZM220.71265 41.24448" fill="#70485b"/>
<path transform="matrix(1.00003,0,0,-1,1.4615555,208.01902)" stroke-width=".3985" stroke-linecap="butt" stroke-miterlimit="10" stroke-linejoin="miter" fill="none" stroke="#70485b" d="M222.7052 41.24448C222.7052 42.34496 221.81313 43.23703 220.71265 43.23703 219.61219 43.23703 218.7201 42.34496 218.7201 41.24448 218.7201 40.14401 219.61219 39.25192 220.71265 39.25192 221.81313 39.25192 222.7052 40.14401 222.7052 41.24448ZM220.71265 41.24448"/>
<path transform="matrix(1.00003,0,0,-1,1.4615555,208.01902)" stroke-width=".3985" stroke-linecap="butt" stroke-miterlimit="10" stroke-linejoin="miter" fill="none" stroke="#70485b" d=""/>
<use data-text="x" xlink:href="#font_5_1" transform="matrix(9.962899,0,0,-9.9626,231.36048,163.255)"/>
<use data-text="y" xlink:href="#font_5_2" transform="matrix(9.962899,0,0,-9.9626,60.16132,9.606018)"/>
</svg>
