<svg xmlns="http://www.w3.org/2000/svg" xmlns:xlink="http://www.w3.org/1999/xlink" version="1.1" width="242" height="209" viewBox="0 0 242 209">
<defs>
<clipPath id="clip_1">
<path transform="matrix(1,0,0,-1.00005,1.2619991,207.83138)" d="M0 0H239.10538V206.22396H0Z"/>
</clipPath>
<path id="font_2_69" d="M.73599246 0V.0309906C.6819916 .0309906 .6609955 .034988405 .6309967 .07896423L.3999939 .41874696 .5799866 .5916443C.58799746 .5996399 .6409912 .65060427 .7220001 .6516113V.6826172C.69599917 .6796112 .6639862 .6796112 .6369934 .6796112 .6009979 .6796112 .5439911 .6796112 .5099945 .6826172V.6516113C.5499878 .65060427 .55599978 .6276245 .55599978 .6186218 .55599978 .6026306 .54599 .5926361 .5379944 .5856476L.22499085 .28683473V.6046295C.22499085 .64060977 .22698975 .6516113 .3039856 .6516113H.32798768V.6826172C.29299928 .6796112 .21899414 .6796112 .18099976 .6796112 .14299011 .6796112 .067993167 .6796112 .032989503 .6826172V.6516113H.056991579C.13398743 .6516113 .13598633 .64060977 .13598633 .6046295V.07795715C.13598633 .041992189 .13398743 .0309906 .056991579 .0309906H.032989503V0C.067993167 .0029907227 .14199829 .0029907227 .17999268 .0029907227 .21798706 .0029907227 .29299928 .0029907227 .32798768 0V.0309906H.3039856C.22698975 .0309906 .22499085 .041992189 .22499085 .07795715V.2528534L.34098817 .3627777 .5219879 .094955448C.5279999 .08595276 .5369873 .07296753 .5369873 .06097412 .5369873 .0309906 .49798585 .0309906 .47799684 .0309906V0C.5130005 .0029907227 .58299258 .0029907227 .62098696 .0029907227L.73599246 0Z"/>
<path id="font_2_54" d="M.6100006 .45477296 .58200076 .6796875H.032989503V.64868167H.056991579C.13398743 .64868167 .13598633 .63768008 .13598633 .6016998V.07797241C.13598633 .041992189 .13398743 .0309906 .056991579 .0309906H.032989503V0C.067993167 .0029907227 .1459961 .0029907227 .18499756 .0029907227 .22599793 .0029907227 .31698609 .0029907227 .35299684 0V.0309906H.31999208C.22499085 .031188965 .22499085 .044189454 .22499085 .079193118V.3251953H.31098939C.40699769 .3251953 .4169922 .29318238 .4169922 .20819092H.44198609V.4731903H.4169922C.4169922 .38919068 .40699769 .3561859 .31098939 .3561859H.22499085V.6091919C.22499085 .64167788 .22698975 .64868167 .27398683 .64868167H.3939972C.5439911 .64868167 .56900027 .5926819 .58499148 .4546814L.6100006 .45477296Z"/>
<path id="font_2_62" d="M.71598818 0V.0309906H.69200137C.61499026 .0309906 .61299136 .041992189 .61299136 .07797241V.6046448C.61299136 .640625 .61499026 .6516113 .69200137 .6516113H.71598818V.6826172C.68099978 .6796112 .6069946 .6796112 .56900027 .6796112 .5309906 .6796112 .45599366 .6796112 .42099 .6826172V.6516113H.44499208C.5219879 .6516113 .5239868 .640625 .5239868 .6046448V.37083436H.22499085V.6046448C.22499085 .640625 .22698975 .6516113 .3039856 .6516113H.32798768V.6826172C.29299928 .6796112 .21899414 .6796112 .18099976 .6796112 .14299011 .6796112 .067993167 .6796112 .032989503 .6826172V.6516113H.056991579C.13398743 .6516113 .13598633 .640625 .13598633 .6046448V.07797241C.13598633 .041992189 .13398743 .0309906 .056991579 .0309906H.032989503V0C.067993167 .0029907227 .14199829 .0029907227 .17999268 .0029907227 .21798706 .0029907227 .29299928 .0029907227 .32798768 0V.0309906H.3039856C.22698975 .0309906 .22499085 .041992189 .22499085 .07797241V.33984376H.5239868V.07797241C.5239868 .041992189 .5219879 .0309906 .44499208 .0309906H.42099V0C.45599366 .0029907227 .5299988 .0029907227 .56799319 .0029907227 .60598757 .0029907227 .68099978 .0029907227 .71598818 0Z"/>
</defs>
<path transform="matrix(1,0,0,-1.00005,1.2619991,207.83138)" d="M0 0H239.10538V206.22396H0Z" fill="#fffac2"/>
<g clip-path="url(#clip_1)">
<path transform="matrix(1,0,0,-1.00005,1.2619991,207.83138)" stroke-width=".3985" stroke-linecap="butt" stroke-dasharray="2.98883,2.98883" stroke-miterlimit="10" stroke-linejoin="miter" fill="none" stroke="#9e0c0f" d="M18.39272 25.77798C18.39272 25.77798 28.83372 56.55518 32.84386 67.15358 36.85399 77.75197 43.2849 93.33182 47.29503 102.16385 51.30518 110.99588 57.73605 123.74309 61.74619 130.80876 65.75632 137.87442 72.18721 147.78899 76.19734 153.08829 80.20747 158.3876 86.63835 165.46953 90.6485 169.00249 94.65863 172.53545 101.08952 176.78479 105.09967 178.55138 109.10982 180.31797 115.5407 181.73465 119.55083 181.73485 123.56096 181.73506 129.99185 180.31909 134.00199 178.55297 138.01212 176.78682 144.44303 172.53827 148.45316 169.00579 152.46327 165.4733 158.89417 158.39202 162.9043 153.09317 166.91443 147.79433 173.3453 137.8805 177.35546 130.81528 181.3656 123.75008 187.7965 111.00352 191.80664 102.17195 195.81679 93.34038 202.24767 77.76132 206.2578 67.16339 210.26792 56.56548 220.70894 25.78943 220.70894 25.78943"/>
<path transform="matrix(1,0,0,-1.00005,1.2619991,207.83138)" stroke-width=".3985" stroke-linecap="butt" stroke-miterlimit="10" stroke-linejoin="miter" fill="none" stroke="#70485b" d=""/>
<use data-text="K" xlink:href="#font_2_69" transform="matrix(9.9626,0,0,-9.963098,8.383999,178.53192)" fill="#70485b"/>
<path transform="matrix(1,0,0,-1.00005,1.2619991,207.83138)" stroke-width=".3985" stroke-linecap="butt" stroke-miterlimit="10" stroke-linejoin="miter" fill="none" stroke="#70485b" d=""/>
<use data-text="F" xlink:href="#font_2_54" transform="matrix(9.9626,0,0,-9.963098,53.186998,178.53192)" fill="#70485b"/>
<path transform="matrix(1,0,0,-1.00005,1.2619991,207.83138)" stroke-width=".3985" stroke-linecap="butt" stroke-miterlimit="10" stroke-linejoin="miter" fill="none" stroke="#70485b" d=""/>
<use data-text="H" xlink:href="#font_2_62" transform="matrix(9.9626,0,0,-9.963098,225.49399,178.53192)" fill="#70485b"/>
<path transform="matrix(1,0,0,-1.00005,1.2619991,207.83138)" stroke-width=".79701" stroke-linecap="butt" stroke-miterlimit="10" stroke-linejoin="miter" fill="none" stroke="#c7502a" d="M0 25.77798H239.10538"/>
</g>
<path transform="matrix(1,0,0,-1.00005,1.2619991,207.83138)" d="M20.38527 25.77798C20.38527 26.87846 19.49318 27.77054 18.39272 27.77054 17.29224 27.77054 16.40016 26.87846 16.40016 25.77798 16.40016 24.67752 17.29224 23.78543 18.39272 23.78543 19.49318 23.78543 20.38527 24.67752 20.38527 25.77798ZM18.39272 25.77798" fill="#9e0c0f"/>
<path transform="matrix(1,0,0,-1.00005,1.2619991,207.83138)" stroke-width=".3985" stroke-linecap="butt" stroke-dasharray="2.98883,2.98883" stroke-miterlimit="10" stroke-linejoin="miter" fill="none" stroke="#9e0c0f" d="M20.38527 25.77798C20.38527 26.87846 19.49318 27.77054 18.39272 27.77054 17.29224 27.77054 16.40016 26.87846 16.40016 25.77798 16.40016 24.67752 17.29224 23.78543 18.39272 23.78543 19.49318 23.78543 20.38527 24.67752 20.38527 25.77798ZM18.39272 25.77798"/>
<path transform="matrix(1,0,0,-1.00005,1.2619991,207.83138)" d="M34.83641 67.15358C34.83641 68.25404 33.94432 69.14613 32.84386 69.14613 31.74338 69.14613 30.8513 68.25404 30.8513 67.15358 30.8513 66.0531 31.74338 65.16103 32.84386 65.16103 33.94432 65.16103 34.83641 66.0531 34.83641 67.15358ZM32.84386 67.15358" fill="#9e0c0f"/>
<path transform="matrix(1,0,0,-1.00005,1.2619991,207.83138)" stroke-width=".3985" stroke-linecap="butt" stroke-dasharray="2.98883,2.98883" stroke-miterlimit="10" stroke-linejoin="miter" fill="none" stroke="#9e0c0f" d="M34.83641 67.15358C34.83641 68.25404 33.94432 69.14613 32.84386 69.14613 31.74338 69.14613 30.8513 68.25404 30.8513 67.15358 30.8513 66.0531 31.74338 65.16103 32.84386 65.16103 33.94432 65.16103 34.83641 66.0531 34.83641 67.15358ZM32.84386 67.15358"/>
<path transform="matrix(1,0,0,-1.00005,1.2619991,207.83138)" d="M49.28758 102.16385C49.28758 103.26433 48.39551 104.1564 47.29503 104.1564 46.19456 104.1564 45.30247 103.26433 45.30247 102.16385 45.30247 101.06339 46.19456 100.1713 47.29503 100.1713 48.39551 100.1713 49.28758 101.06339 49.28758 102.16385ZM47.29503 102.16385" fill="#9e0c0f"/>
<path transform="matrix(1,0,0,-1.00005,1.2619991,207.83138)" stroke-width=".3985" stroke-linecap="butt" stroke-dasharray="2.98883,2.98883" stroke-miterlimit="10" stroke-linejoin="miter" fill="none" stroke="#9e0c0f" d="M49.28758 102.16385C49.28758 103.26433 48.39551 104.1564 47.29503 104.1564 46.19456 104.1564 45.30247 103.26433 45.30247 102.16385 45.30247 101.06339 46.19456 100.1713 47.29503 100.1713 48.39551 100.1713 49.28758 101.06339 49.28758 102.16385ZM47.29503 102.16385"/>
<path transform="matrix(1,0,0,-1.00005,1.2619991,207.83138)" d="M63.73874 130.80876C63.73874 131.90923 62.84666 132.80132 61.74619 132.80132 60.64572 132.80132 59.75363 131.90923 59.75363 130.80876 59.75363 129.70829 60.64572 128.81621 61.74619 128.81621 62.84666 128.81621 63.73874 129.70829 63.73874 130.80876ZM61.74619 130.80876" fill="#9e0c0f"/>
<path transform="matrix(1,0,0,-1.00005,1.2619991,207.83138)" stroke-width=".3985" stroke-linecap="butt" stroke-dasharray="2.98883,2.98883" stroke-miterlimit="10" stroke-linejoin="miter" fill="none" stroke="#9e0c0f" d="M63.73874 130.80876C63.73874 131.90923 62.84666 132.80132 61.74619 132.80132 60.64572 132.80132 59.75363 131.90923 59.75363 130.80876 59.75363 129.70829 60.64572 128.81621 61.74619 128.81621 62.84666 128.81621 63.73874 129.70829 63.73874 130.80876ZM61.74619 130.80876"/>
<path transform="matrix(1,0,0,-1.00005,1.2619991,207.83138)" d="M78.1899 153.08829C78.1899 154.18877 77.2978 155.08084 76.19734 155.08084 75.09686 155.08084 74.20479 154.18877 74.20479 153.08829 74.20479 151.98783 75.09686 151.09574 76.19734 151.09574 77.2978 151.09574 78.1899 151.98783 78.1899 153.08829ZM76.19734 153.08829" fill="#9e0c0f"/>
<path transform="matrix(1,0,0,-1.00005,1.2619991,207.83138)" stroke-width=".3985" stroke-linecap="butt" stroke-dasharray="2.98883,2.98883" stroke-miterlimit="10" stroke-linejoin="miter" fill="none" stroke="#9e0c0f" d="M78.1899 153.08829C78.1899 154.18877 77.2978 155.08084 76.19734 155.08084 75.09686 155.08084 74.20479 154.18877 74.20479 153.08829 74.20479 151.98783 75.09686 151.09574 76.19734 151.09574 77.2978 151.09574 78.1899 151.98783 78.1899 153.08829ZM76.19734 153.08829"/>
<path transform="matrix(1,0,0,-1.00005,1.2619991,207.83138)" d="M92.64105 169.00249C92.64105 170.10295 91.74896 170.99504 90.6485 170.99504 89.54802 170.99504 88.65594 170.10295 88.65594 169.00249 88.65594 167.90201 89.54802 167.00994 90.6485 167.00994 91.74896 167.00994 92.64105 167.90201 92.64105 169.00249ZM90.6485 169.00249" fill="#9e0c0f"/>
<path transform="matrix(1,0,0,-1.00005,1.2619991,207.83138)" stroke-width=".3985" stroke-linecap="butt" stroke-dasharray="2.98883,2.98883" stroke-miterlimit="10" stroke-linejoin="miter" fill="none" stroke="#9e0c0f" d="M92.64105 169.00249C92.64105 170.10295 91.74896 170.99504 90.6485 170.99504 89.54802 170.99504 88.65594 170.10295 88.65594 169.00249 88.65594 167.90201 89.54802 167.00994 90.6485 167.00994 91.74896 167.00994 92.64105 167.90201 92.64105 169.00249ZM90.6485 169.00249"/>
<path transform="matrix(1,0,0,-1.00005,1.2619991,207.83138)" d="M107.09222 178.55138C107.09222 179.65186 106.20015 180.54393 105.09967 180.54393 103.9992 180.54393 103.10712 179.65186 103.10712 178.55138 103.10712 177.45092 103.9992 176.55883 105.09967 176.55883 106.20015 176.55883 107.09222 177.45092 107.09222 178.55138ZM105.09967 178.55138" fill="#9e0c0f"/>
<path transform="matrix(1,0,0,-1.00005,1.2619991,207.83138)" stroke-width=".3985" stroke-linecap="butt" stroke-dasharray="2.98883,2.98883" stroke-miterlimit="10" stroke-linejoin="miter" fill="none" stroke="#9e0c0f" d="M107.09222 178.55138C107.09222 179.65186 106.20015 180.54393 105.09967 180.54393 103.9992 180.54393 103.10712 179.65186 103.10712 178.55138 103.10712 177.45092 103.9992 176.55883 105.09967 176.55883 106.20015 176.55883 107.09222 177.45092 107.09222 178.55138ZM105.09967 178.55138"/>
<path transform="matrix(1,0,0,-1.00005,1.2619991,207.83138)" d="M121.54338 181.73485C121.54338 182.83533 120.6513 183.7274 119.55083 183.7274 118.45036 183.7274 117.55827 182.83533 117.55827 181.73485 117.55827 180.63439 118.45036 179.7423 119.55083 179.7423 120.6513 179.7423 121.54338 180.63439 121.54338 181.73485ZM119.55083 181.73485" fill="#9e0c0f"/>
<path transform="matrix(1,0,0,-1.00005,1.2619991,207.83138)" stroke-width=".3985" stroke-linecap="butt" stroke-dasharray="2.98883,2.98883" stroke-miterlimit="10" stroke-linejoin="miter" fill="none" stroke="#9e0c0f" d="M121.54338 181.73485C121.54338 182.83533 120.6513 183.7274 119.55083 183.7274 118.45036 183.7274 117.55827 182.83533 117.55827 181.73485 117.55827 180.63439 118.45036 179.7423 119.55083 179.7423 120.6513 179.7423 121.54338 180.63439 121.54338 181.73485ZM119.55083 181.73485"/>
<path transform="matrix(1,0,0,-1.00005,1.2619991,207.83138)" d="M135.99454 178.55297C135.99454 179.65343 135.10245 180.54552 134.00199 180.54552 132.9015 180.54552 132.00943 179.65343 132.00943 178.55297 132.00943 177.45249 132.9015 176.56041 134.00199 176.56041 135.10245 176.56041 135.99454 177.45249 135.99454 178.55297ZM134.00199 178.55297" fill="#9e0c0f"/>
<path transform="matrix(1,0,0,-1.00005,1.2619991,207.83138)" stroke-width=".3985" stroke-linecap="butt" stroke-dasharray="2.98883,2.98883" stroke-miterlimit="10" stroke-linejoin="miter" fill="none" stroke="#9e0c0f" d="M135.99454 178.55297C135.99454 179.65343 135.10245 180.54552 134.00199 180.54552 132.9015 180.54552 132.00943 179.65343 132.00943 178.55297 132.00943 177.45249 132.9015 176.56041 134.00199 176.56041 135.10245 176.56041 135.99454 177.45249 135.99454 178.55297ZM134.00199 178.55297"/>
<path transform="matrix(1,0,0,-1.00005,1.2619991,207.83138)" d="M150.44571 169.00579C150.44571 170.10625 149.55362 170.99834 148.45316 170.99834 147.35268 170.99834 146.4606 170.10625 146.4606 169.00579 146.4606 167.9053 147.35268 167.01323 148.45316 167.01323 149.55362 167.01323 150.44571 167.9053 150.44571 169.00579ZM148.45316 169.00579" fill="#9e0c0f"/>
<path transform="matrix(1,0,0,-1.00005,1.2619991,207.83138)" stroke-width=".3985" stroke-linecap="butt" stroke-dasharray="2.98883,2.98883" stroke-miterlimit="10" stroke-linejoin="miter" fill="none" stroke="#9e0c0f" d="M150.44571 169.00579C150.44571 170.10625 149.55362 170.99834 148.45316 170.99834 147.35268 170.99834 146.4606 170.10625 146.4606 169.00579 146.4606 167.9053 147.35268 167.01323 148.45316 167.01323 149.55362 167.01323 150.44571 167.9053 150.44571 169.00579ZM148.45316 169.00579"/>
<path transform="matrix(1,0,0,-1.00005,1.2619991,207.83138)" d="M164.89685 153.09317C164.89685 154.19365 164.00478 155.08573 162.9043 155.08573 161.80384 155.08573 160.91175 154.19365 160.91175 153.09317 160.91175 151.9927 161.80384 151.10062 162.9043 151.10062 164.00478 151.10062 164.89685 151.9927 164.89685 153.09317ZM162.9043 153.09317" fill="#9e0c0f"/>
<path transform="matrix(1,0,0,-1.00005,1.2619991,207.83138)" stroke-width=".3985" stroke-linecap="butt" stroke-dasharray="2.98883,2.98883" stroke-miterlimit="10" stroke-linejoin="miter" fill="none" stroke="#9e0c0f" d="M164.89685 153.09317C164.89685 154.19365 164.00478 155.08573 162.9043 155.08573 161.80384 155.08573 160.91175 154.19365 160.91175 153.09317 160.91175 151.9927 161.80384 151.10062 162.9043 151.10062 164.00478 151.10062 164.89685 151.9927 164.89685 153.09317ZM162.9043 153.09317"/>
<path transform="matrix(1,0,0,-1.00005,1.2619991,207.83138)" d="M179.348 130.81528C179.348 131.91576 178.45594 132.80783 177.35546 132.80783 176.25499 132.80783 175.3629 131.91576 175.3629 130.81528 175.3629 129.71482 176.25499 128.82273 177.35546 128.82273 178.45594 128.82273 179.348 129.71482 179.348 130.81528ZM177.35546 130.81528" fill="#9e0c0f"/>
<path transform="matrix(1,0,0,-1.00005,1.2619991,207.83138)" stroke-width=".3985" stroke-linecap="butt" stroke-dasharray="2.98883,2.98883" stroke-miterlimit="10" stroke-linejoin="miter" fill="none" stroke="#9e0c0f" d="M179.348 130.81528C179.348 131.91576 178.45594 132.80783 177.35546 132.80783 176.25499 132.80783 175.3629 131.91576 175.3629 130.81528 175.3629 129.71482 176.25499 128.82273 177.35546 128.82273 178.45594 128.82273 179.348 129.71482 179.348 130.81528ZM177.35546 130.81528"/>
<path transform="matrix(1,0,0,-1.00005,1.2619991,207.83138)" d="M193.7992 102.17195C193.7992 103.27243 192.9071 104.1645 191.80664 104.1645 190.70616 104.1645 189.81409 103.27243 189.81409 102.17195 189.81409 101.07149 190.70616 100.1794 191.80664 100.1794 192.9071 100.1794 193.7992 101.07149 193.7992 102.17195ZM191.80664 102.17195" fill="#9e0c0f"/>
<path transform="matrix(1,0,0,-1.00005,1.2619991,207.83138)" stroke-width=".3985" stroke-linecap="butt" stroke-dasharray="2.98883,2.98883" stroke-miterlimit="10" stroke-linejoin="miter" fill="none" stroke="#9e0c0f" d="M193.7992 102.17195C193.7992 103.27243 192.9071 104.1645 191.80664 104.1645 190.70616 104.1645 189.81409 103.27243 189.81409 102.17195 189.81409 101.07149 190.70616 100.1794 191.80664 100.1794 192.9071 100.1794 193.7992 101.07149 193.7992 102.17195ZM191.80664 102.17195"/>
<path transform="matrix(1,0,0,-1.00005,1.2619991,207.83138)" d="M208.25035 67.16339C208.25035 68.26387 207.35826 69.15594 206.2578 69.15594 205.15732 69.15594 204.26525 68.26387 204.26525 67.16339 204.26525 66.06293 205.15732 65.17084 206.2578 65.17084 207.35826 65.17084 208.25035 66.06293 208.25035 67.16339ZM206.2578 67.16339" fill="#9e0c0f"/>
<path transform="matrix(1,0,0,-1.00005,1.2619991,207.83138)" stroke-width=".3985" stroke-linecap="butt" stroke-dasharray="2.98883,2.98883" stroke-miterlimit="10" stroke-linejoin="miter" fill="none" stroke="#9e0c0f" d="M208.25035 67.16339C208.25035 68.26387 207.35826 69.15594 206.2578 69.15594 205.15732 69.15594 204.26525 68.26387 204.26525 67.16339 204.26525 66.06293 205.15732 65.17084 206.2578 65.17084 207.35826 65.17084 208.25035 66.06293 208.25035 67.16339ZM206.2578 67.16339"/>
<path transform="matrix(1,0,0,-1.00005,1.2619991,207.83138)" d="M222.70149 25.78943C222.70149 26.88991 221.80942 27.78198 220.70894 27.78198 219.60848 27.78198 218.71639 26.88991 218.71639 25.78943 218.71639 24.68896 219.60848 23.79688 220.70894 23.79688 221.80942 23.79688 222.70149 24.68896 222.70149 25.78943ZM220.70894 25.78943" fill="#9e0c0f"/>
<path transform="matrix(1,0,0,-1.00005,1.2619991,207.83138)" stroke-width=".3985" stroke-linecap="butt" stroke-dasharray="2.98883,2.98883" stroke-miterlimit="10" stroke-linejoin="miter" fill="none" stroke="#9e0c0f" d="M222.70149 25.78943C222.70149 26.88991 221.80942 27.78198 220.70894 27.78198 219.60848 27.78198 218.71639 26.88991 218.71639 25.78943 218.71639 24.68896 219.60848 23.79688 220.70894 23.79688 221.80942 23.79688 222.70149 24.68896 222.70149 25.78943ZM220.70894 25.78943"/>
<path transform="matrix(1,0,0,-1.00005,1.2619991,207.83138)" stroke-width=".3985" stroke-linecap="butt" stroke-dasharray="2.98883,2.98883" stroke-miterlimit="10" stroke-linejoin="miter" fill="none" stroke="#9e0c0f" d=""/>
<path transform="matrix(1,0,0,-1.00005,1.2619991,207.83138)" d="M20.38527 25.77798C20.38527 26.87846 19.49318 27.77054 18.39272 27.77054 17.29224 27.77054 16.40016 26.87846 16.40016 25.77798 16.40016 24.67752 17.29224 23.78543 18.39272 23.78543 19.49318 23.78543 20.38527 24.67752 20.38527 25.77798ZM18.39272 25.77798" fill="#70485b"/>
<path transform="matrix(1,0,0,-1.00005,1.2619991,207.83138)" stroke-width=".3985" stroke-linecap="butt" stroke-miterlimit="10" stroke-linejoin="miter" fill="none" stroke="#70485b" d="M20.38527 25.77798C20.38527 26.87846 19.49318 27.77054 18.39272 27.77054 17.29224 27.77054 16.40016 26.87846 16.40016 25.77798 16.40016 24.67752 17.29224 23.78543 18.39272 23.78543 19.49318 23.78543 20.38527 24.67752 20.38527 25.77798ZM18.39272 25.77798"/>
<path transform="matrix(1,0,0,-1.00005,1.2619991,207.83138)" stroke-width=".3985" stroke-linecap="butt" stroke-miterlimit="10" stroke-linejoin="miter" fill="none" stroke="#70485b" d=""/>
<path transform="matrix(1,0,0,-1.00005,1.2619991,207.83138)" d="M57.17072 25.77798C57.17072 26.87846 56.27863 27.77054 55.17816 27.77054 54.07768 27.77054 53.18561 26.87846 53.18561 25.77798 53.18561 24.67752 54.07768 23.78543 55.17816 23.78543 56.27863 23.78543 57.17072 24.67752 57.17072 25.77798ZM55.17816 25.77798" fill="#70485b"/>
<path transform="matrix(1,0,0,-1.00005,1.2619991,207.83138)" stroke-width=".3985" stroke-linecap="butt" stroke-miterlimit="10" stroke-linejoin="miter" fill="none" stroke="#70485b" d="M57.17072 25.77798C57.17072 26.87846 56.27863 27.77054 55.17816 27.77054 54.07768 27.77054 53.18561 26.87846 53.18561 25.77798 53.18561 24.67752 54.07768 23.78543 55.17816 23.78543 56.27863 23.78543 57.17072 24.67752 57.17072 25.77798ZM55.17816 25.77798"/>
<path transform="matrix(1,0,0,-1.00005,1.2619991,207.83138)" stroke-width=".3985" stroke-linecap="butt" stroke-miterlimit="10" stroke-linejoin="miter" fill="none" stroke="#70485b" d=""/>
<path transform="matrix(1,0,0,-1.00005,1.2619991,207.83138)" d="M222.7052 25.77798C222.7052 26.87846 221.81313 27.77054 220.71265 27.77054 219.61219 27.77054 218.7201 26.87846 218.7201 25.77798 218.7201 24.67752 219.61219 23.78543 220.71265 23.78543 221.81313 23.78543 222.7052 24.67752 222.7052 25.77798ZM220.71265 25.77798" fill="#70485b"/>
<path transform="matrix(1,0,0,-1.00005,1.2619991,207.83138)" stroke-width=".3985" stroke-linecap="butt" stroke-miterlimit="10" stroke-linejoin="miter" fill="none" stroke="#70485b" d="M222.7052 25.77798C222.7052 26.87846 221.81313 27.77054 220.71265 27.77054 219.61219 27.77054 218.7201 26.87846 218.7201 25.77798 218.7201 24.67752 219.61219 23.78543 220.71265 23.78543 221.81313 23.78543 222.7052 24.67752 222.7052 25.77798ZM220.71265 25.77798"/>
<path transform="matrix(1,0,0,-1.00005,1.2619991,207.83138)" stroke-width=".3985" stroke-linecap="butt" stroke-miterlimit="10" stroke-linejoin="miter" fill="none" stroke="#70485b" d=""/>
</svg>
