<svg xmlns="http://www.w3.org/2000/svg" xmlns:xlink="http://www.w3.org/1999/xlink" version="1.1" width="242" height="210" viewBox="0 0 242 210">
<defs>
<path id="font_1_1" d="M.69898989 .22743225C.71499636 .22743225 .7369995 .22743225 .7369995 .25042726 .7369995 .2734375 .71499636 .2734375 .69898989 .2734375H.12599182C.10998535 .2734375 .08799744 .2734375 .08799744 .25042726 .08799744 .22743225 .10998535 .22743225 .12599182 .22743225H.69898989Z"/>
<path id="font_2_3" d="M.13798523 .33073426C.13798523 .41377259 .14498902 .4868164 .18099976 .54782107 .21099854 .5978241 .2619934 .6390381 .32499696 .6390381 .34498597 .6390381 .3909912 .63601687 .4139862 .60084536 .36898805 .5988312 .36499024 .5648346 .36499024 .553833 .36499024 .5238342 .3880005 .50683596 .4119873 .50683596 .42999269 .50683596 .45899964 .51782229 .45899964 .5558319 .45899964 .615921 .4139862 .66503909 .32398988 .66503909 .18499756 .66503909 .04399109 .53282168 .04399109 .31672669 .04399109 .045532228 .16999817-.021484375 .2669983-.021484375 .31498719-.021484375 .36698915-.0084991459 .4119873 .03453064 .45199586 .07354736 .48599244 .11558533 .48599244 .20263672 .48599244 .33372499 .3869934 .42578126 .27598573 .42578126 .20399475 .42578126 .16099549 .37976075 .13798523 .33073426M.2669983 .008514404C.21398926 .008514404 .18099976 .045532228 .1659851 .07354736 .14299011 .11859131 .14099121 .18663025 .14099121 .22465515 .14099121 .32373048 .19499207 .3977661 .27198792 .3977661 .32199098 .3977661 .35198976 .37176515 .37098695 .33673097 .3919983 .29971314 .3919983 .25468446 .3919983 .2036438 .3919983 .15260315 .3919983 .10858154 .37199403 .07255554 .34599305 .026519776 .31098939 .008514404 .2669983 .008514404Z"/>
<path id="font_2_2" d="M.3939972 .6468048C.3939972 .6667938 .3939972 .6748047 .37298585 .6748047 .3600006 .6748047 .35899354 .6737976 .34899903 .65979006L.02999878 .197052V.1640625H.31199647V.08100891C.31199647 .04399109 .30899049 .032989503 .23199463 .032989503H.20899964V0C.2939911 .0029907227 .29599 .0029907227 .35299684 .0029907227 .4099884 .0029907227 .4119873 .0029907227 .49699403 0V.032989503H.47399903C.39698792 .032989503 .3939972 .04399109 .3939972 .08100891V.1640625H.5V.197052H.3939972V.6468048M.31900025 .5658417V.197052H.06498718L.31900025 .5658417Z"/>
<path id="font_2_1" d="M.28199769 .20405579C.2979889 .21907044 .33999635 .2520752 .35598756 .26608277 .41799928 .32312013 .47698976 .3781433 .47698976 .46917726 .47698976 .588089 .3769989 .66503909 .2519989 .66503909 .13198853 .66503909 .052993776 .57411196 .052993776 .48516847 .052993776 .4361725 .09199524 .4291687 .10598755 .4291687 .1269989 .4291687 .1579895 .4441681 .1579895 .48217774 .1579895 .5341797 .10798645 .5341797 .09599304 .5341797 .125 .6070709 .19198609 .6320343 .24099732 .6320343 .33399964 .6320343 .38198854 .55314639 .38198854 .46917726 .38198854 .36514283 .30899049 .28910829 .19099427 .16804505L.06498718 .037994386C.052993776 .026992798 .052993776 .024993897 .052993776 0H.44799806L.47698976 .17904663H.44599916C.44299317 .1590271 .43499757 .10900879 .4229889 .08999634 .4169922 .08198547 .34098817 .08198547 .32499696 .08198547H.14698792L.28199769 .20405579Z"/>
<clipPath id="clip_3">
<path transform="matrix(1,0,0,-1.00005,1.4610005,208.03639)" d="M0 0H239.11191V206.23003H0Z"/>
</clipPath>
<path id="font_4_1" d="M.33399964 .30233766C.33999635 .32835389 .36299134 .42037965 .43299867 .42037965 .43798829 .42037965 .46199037 .42037965 .48298646 .40734864 .45498658 .402359 .43499757 .37734986 .43499757 .35334779 .43499757 .33735658 .44599916 .31835938 .47299195 .31835938 .49499513 .31835938 .5269928 .3363495 .5269928 .37635804 .5269928 .42837525 .46798707 .4423828 .43399049 .4423828 .37599183 .4423828 .34098817 .38935853 .32899476 .36634828 .3039856 .43237306 .25 .4423828 .22099304 .4423828 .116989139 .4423828 .05999756 .3133545 .05999756 .28834535 .05999756 .27833558 .069992069 .27833558 .07199097 .27833558 .07998657 .27833558 .08299255 .28033448 .084991458 .28933717 .11898804 .39535523 .18499756 .42037965 .21899414 .42037965 .23799134 .42037965 .272995 .4113617 .272995 .35334779 .272995 .32235719 .2559967 .25532533 .21899414 .11528015 .20298767 .053268434 .16799927 .011245728 .12399292 .011245728 .117996219 .011245728 .09498596 .011245728 .07398987 .024276734 .09899902 .029266358 .12098694 .05027771 .12098694 .07827759 .12098694 .105270389 .09899902 .11328125 .083999637 .11328125 .053985597 .11328125 .0289917 .08728027 .0289917 .055267335 .0289917 .009246826 .07899475-.0107421879 .12298584-.0107421879 .18899536-.0107421879 .22499085 .059280397 .22799683 .0652771 .23999024 .028274537 .27598573-.0107421879 .33599855-.0107421879 .43899537-.0107421879 .49598695 .118270877 .49598695 .14328003 .49598695 .1532898 .4869995 .1532898 .48399354 .1532898 .47499085 .1532898 .47299195 .14929199 .47099305 .14228821 .43798829 .03527832 .36999513 .011245728 .33799745 .011245728 .29899598 .011245728 .2829895 .043273927 .2829895 .07727051 .2829895 .09927368 .2889862 .121276859 .2999878 .16529846L.33399964 .30233766Z"/>
<path id="font_4_2" d="M.48599244 .38136292C.48999024 .39537049 .48999024 .39736939 .48999024 .40437318 .48999024 .42237855 .47599793 .43138124 .46099855 .43138124 .45098878 .43138124 .43499757 .42536927 .42599488 .41036988 .42399598 .405365 .41600038 .37435914 .4119873 .35635377 .40499879 .33035279 .397995 .30334474 .3919983 .27633668L.34700013 .09628296C.34298707 .08126831 .2999878 .011245728 .23399353 .011245728 .18299866 .011245728 .17199707 .055267335 .17199707 .0922699 .17199707 .1382904 .18899536 .20030213 .22299195 .28833009 .23899842 .3293457 .24299622 .3403473 .24299622 .36035157 .24299622 .405365 .21099854 .4423828 .16099549 .4423828 .06599426 .4423828 .0289917 .29733277 .0289917 .28833009 .0289917 .27833558 .038986207 .27833558 .040985109 .27833558 .050994874 .27833558 .051986696 .28033448 .056991579 .29634095 .083999637 .3903656 .12399292 .42037965 .1579895 .42037965 .1659851 .42037965 .18299866 .42037965 .18299866 .3883667 .18299866 .36335755 .17298889 .3373413 .1659851 .31834413 .12599182 .21231079 .10798645 .1552887 .10798645 .10827637 .10798645 .019256592 .17098999-.0107421879 .22999573-.0107421879 .2689972-.0107421879 .30299378 .0062561037 .33099366 .03425598 .31799317-.017745972 .30599977-.06674194 .2659912-.11973572 .23999024-.15385437 .20199585-.18309021 .1559906-.18309021 .14199829-.18309021 .09700012-.18005371 .07998657-.14074707 .09599304-.14074707 .10899353-.14074707 .12298584-.1287384 .1329956-.11973572 .14299011-.10673523 .14299011-.08773804 .14299011-.056747438 .115997318-.052734376 .10598755-.052734376 .08299255-.052734376 .049987794-.068740848 .049987794-.11773682 .049987794-.16796875 .09399414-.20507813 .1559906-.20507813 .25898744-.20507813 .3619995-.11373901 .3899994-.00074768069L.48599244 .38136292Z"/>
</defs>
<path transform="matrix(1,0,0,-1.00005,1.4610005,208.03639)" d="M0 0H239.11191V206.23003H0Z" fill="#fffac2"/>
<path transform="matrix(1,0,0,-1.00005,1.4610005,208.03639)" stroke-width=".3985" stroke-linecap="butt" stroke-miterlimit="10" stroke-linejoin="miter" fill="none" stroke="#d5d6d5" d="M0 0V206.23003M17.07942 0V206.23003M34.15884 0V206.23003M51.23827 0V206.23003M68.31769 0V206.23003M85.39711 0V206.23003M102.47653 0V206.23003M119.55595 0V206.23003M136.63538 0V206.23003M153.7148 0V206.23003M170.79422 0V206.23003M187.87364 0V206.23003M204.95307 0V206.23003M222.03249 0V206.23003M239.11191 0V206.23003"/>
<path transform="matrix(1,0,0,-1.00005,1.4610005,208.03639)" stroke-width=".3985" stroke-linecap="butt" stroke-miterlimit="10" stroke-linejoin="miter" fill="none" stroke="#d5d6d5" d="M17.07942 0V206.23003M51.23827 0V206.23003M85.39711 0V206.23003M153.7148 0V206.23003M187.87364 0V206.23003M222.03249 0V206.23003"/>
<path transform="matrix(1,0,0,-1.00005,1.4610005,208.03639)" stroke-width=".3985" stroke-linecap="butt" stroke-miterlimit="10" stroke-linejoin="miter" fill="none" stroke="#d5d6d5" d="M0 0H239.11191M0 14.73071H239.11191M0 29.46143H239.11191M0 44.19214H239.11191M0 58.92287H239.11191M0 73.65358H239.11191M0 88.3843H239.11191M0 103.115H239.11191M0 117.84573H239.11191M0 132.57645H239.11191M0 147.30716H239.11191M0 162.03789H239.11191M0 176.7686H239.11191M0 191.49932H239.11191M0 206.23003H239.11191"/>
<path transform="matrix(1,0,0,-1.00005,1.4610005,208.03639)" stroke-width=".3985" stroke-linecap="butt" stroke-miterlimit="10" stroke-linejoin="miter" fill="none" stroke="#d5d6d5" d="M0 14.73071H239.11191M0 44.19214H239.11191M0 73.65358H239.11191M0 132.57645H239.11191M0 162.03789H239.11191M0 191.49932H239.11191"/>
<path transform="matrix(1,0,0,-1.00005,1.4610005,208.03639)" stroke-width=".19925" stroke-linecap="butt" stroke-miterlimit="10" stroke-linejoin="miter" fill="none" stroke="#929292" d="M0 101.69763V104.5324M17.07942 101.69763V104.5324M34.15884 101.69763V104.5324M51.23827 101.69763V104.5324M68.31769 101.69763V104.5324M85.39711 101.69763V104.5324M102.47653 101.69763V104.5324M119.55595 101.69763V104.5324M136.63538 101.69763V104.5324M153.7148 101.69763V104.5324M170.79422 101.69763V104.5324M187.87364 101.69763V104.5324M204.95307 101.69763V104.5324M222.03249 101.69763V104.5324M239.11191 101.69763V104.5324"/>
<path transform="matrix(1,0,0,-1.00005,1.4610005,208.03639)" stroke-width=".19925" stroke-linecap="butt" stroke-miterlimit="10" stroke-linejoin="miter" fill="none" stroke="#929292" d="M17.07942 100.98914V105.24088M51.23827 100.98914V105.24088M85.39711 100.98914V105.24088M153.7148 100.98914V105.24088M187.87364 100.98914V105.24088M222.03249 100.98914V105.24088"/>
<path transform="matrix(1,0,0,-1.00005,1.4610005,208.03639)" stroke-width=".19925" stroke-linecap="butt" stroke-miterlimit="10" stroke-linejoin="miter" fill="none" stroke="#929292" d="M118.13852 0H120.97339M118.13852 14.73071H120.97339M118.13852 29.46143H120.97339M118.13852 44.19214H120.97339M118.13852 58.92287H120.97339M118.13852 73.65358H120.97339M118.13852 88.3843H120.97339M118.13852 103.115H120.97339M118.13852 117.84573H120.97339M118.13852 132.57645H120.97339M118.13852 147.30716H120.97339M118.13852 162.03789H120.97339M118.13852 176.7686H120.97339M118.13852 191.49932H120.97339M118.13852 206.23003H120.97339"/>
<path transform="matrix(1,0,0,-1.00005,1.4610005,208.03639)" stroke-width=".19925" stroke-linecap="butt" stroke-miterlimit="10" stroke-linejoin="miter" fill="none" stroke="#929292" d="M117.43001 14.73071H121.68187M117.43001 44.19214H121.68187M117.43001 73.65358H121.68187M117.43001 132.57645H121.68187M117.43001 162.03789H121.68187M117.43001 191.49932H121.68187"/>
<path transform="matrix(1,0,0,-1.00005,1.4610005,208.03639)" stroke-width=".3985" stroke-linecap="butt" stroke-miterlimit="10" stroke-linejoin="miter" fill="none" stroke="#000000" d="M1.99252 103.115H237.11939"/>
<path transform="matrix(-1,-0,0,1.00005,3.4535204,104.916248)" d="M1.99252 0-1.19551 1.59401 0 0-1.19551-1.59401"/>
<path transform="matrix(1,0,0,-1.00005,238.58039,104.916248)" d="M1.99252 0-1.19551 1.59401 0 0-1.19551-1.59401"/>
<path transform="matrix(1,0,0,-1.00005,1.4610005,208.03639)" stroke-width=".3985" stroke-linecap="butt" stroke-miterlimit="10" stroke-linejoin="miter" fill="none" stroke="#000000" d="M119.55595 1.99252V204.2375"/>
<path transform="matrix(0,1.00005,1,0,121.016948,206.04378)" d="M1.99252 0-1.19551 1.59401 0 0-1.19551-1.59401"/>
<path transform="matrix(0,-1.00005,-1,-0,121.016948,3.788681)" d="M1.99252 0-1.19551 1.59401 0 0-1.19551-1.59401"/>
<use data-text="&#x2212;" xlink:href="#font_1_1" transform="matrix(7.9701,0,0,-7.970498,13.13,115.698787)"/>
<use data-text="6" xlink:href="#font_2_3" transform="matrix(7.9701,0,0,-7.970498,19.717,115.698787)"/>
<use data-text="&#x2212;" xlink:href="#font_1_1" transform="matrix(7.9701,0,0,-7.970498,47.289,115.698787)"/>
<use data-text="4" xlink:href="#font_2_2" transform="matrix(7.9701,0,0,-7.970498,53.876,115.698787)"/>
<use data-text="&#x2212;" xlink:href="#font_1_1" transform="matrix(7.9701,0,0,-7.970498,81.448,115.698787)"/>
<use data-text="2" xlink:href="#font_2_1" transform="matrix(7.9701,0,0,-7.970498,88.035,115.698787)"/>
<use data-text="2" xlink:href="#font_2_1" transform="matrix(7.9701,0,0,-7.970498,153.059,115.698787)"/>
<use data-text="4" xlink:href="#font_2_2" transform="matrix(7.9701,0,0,-7.970498,187.218,115.698787)"/>
<use data-text="6" xlink:href="#font_2_3" transform="matrix(7.9701,0,0,-7.970498,221.37599,115.698787)"/>
<use data-text="&#x2212;" xlink:href="#font_1_1" transform="matrix(7.9701,0,0,-7.970498,106.44101,195.45777)"/>
<use data-text="6" xlink:href="#font_2_3" transform="matrix(7.9701,0,0,-7.970498,113.02801,195.45777)"/>
<use data-text="&#x2212;" xlink:href="#font_1_1" transform="matrix(7.9701,0,0,-7.970498,106.44101,165.9953)"/>
<use data-text="4" xlink:href="#font_2_2" transform="matrix(7.9701,0,0,-7.970498,113.02801,165.9953)"/>
<use data-text="&#x2212;" xlink:href="#font_1_1" transform="matrix(7.9701,0,0,-7.970498,106.44101,136.53183)"/>
<use data-text="2" xlink:href="#font_2_1" transform="matrix(7.9701,0,0,-7.970498,113.02801,136.53183)"/>
<use data-text="2" xlink:href="#font_2_1" transform="matrix(7.9701,0,0,-7.970498,113.028,78.0219)"/>
<use data-text="4" xlink:href="#font_2_2" transform="matrix(7.9701,0,0,-7.970498,113.028,48.558427)"/>
<use data-text="6" xlink:href="#font_2_3" transform="matrix(7.9701,0,0,-7.970498,113.028,19.095963)"/>
<g clip-path="url(#clip_3)">
<path transform="matrix(1,0,0,-1.00005,1.4610005,208.03639)" stroke-width=".99628" stroke-linecap="butt" stroke-dasharray="2.98883,2.98883" stroke-miterlimit="10" stroke-linejoin="miter" fill="none" stroke="#929292" d="M153.7148 2.8892V203.34082"/>
<path transform="matrix(0,1.00005,1,0,155.1758,205.14705)" d="M2.8892 0-1.73352 2.31136 0 0-1.73352-2.31136" fill="#929292"/>
<path transform="matrix(0,-1.00005,-1,-0,155.1758,4.6854097)" d="M2.8892 0-1.73352 2.31136 0 0-1.73352-2.31136" fill="#929292"/>
<path transform="matrix(1,0,0,-1.00005,1.4610005,208.03639)" stroke-width=".99628" stroke-linecap="butt" stroke-dasharray="2.98883,2.98883" stroke-miterlimit="10" stroke-linejoin="miter" fill="none" stroke="#929292" d="M2.8892 103.85155H236.2227"/>
<path transform="matrix(-1,-0,0,1.00005,4.3502008,104.17966)" d="M2.8892 0-1.73352 2.31136 0 0-1.73352-2.31136" fill="#929292"/>
<path transform="matrix(1,0,0,-1.00005,237.6837,104.17966)" d="M2.8892 0-1.73352 2.31136 0 0-1.73352-2.31136" fill="#929292"/>
<path transform="matrix(1,0,0,-1.00005,1.4610005,208.03639)" stroke-width=".99628" stroke-linecap="butt" stroke-miterlimit="10" stroke-linejoin="miter" fill="none" stroke="#9e0c0f" d="M8.26111 101.38905C2.23048 101.45422 2.23048 101.45422 3.08716 101.44469 3.94385 101.43517 5.31766 101.41954 6.17433 101.40962 7.03102 101.39972 8.40483 101.38354 9.2615 101.37325 10.11818 101.36295 11.492 101.34602 12.34868 101.33524 13.20535 101.32446 14.57918 101.30672 15.43585 101.29547 16.29253 101.28423 17.66635 101.26585 18.52303 101.25407 19.3797 101.2423 20.75352 101.22284 21.6102 101.21046 22.46687 101.19809 23.8407 101.17773 24.69737 101.16481 25.55405 101.15189 26.92787 101.13081 27.78455 101.11723 28.64122 101.10364 30.01503 101.08116 30.87172 101.06685 31.7284 101.05255 33.1022 101.02914 33.9589 101.01411 34.81557 100.99908 36.18938 100.97429 37.04605 100.95844 37.90274 100.94257 39.27655 100.91649 40.13322 100.8998 40.98991 100.8831 42.36372 100.85571 43.2204 100.83807 44.07707 100.82043 45.4509 100.79138 46.30757 100.77267 47.16425 100.75397 48.53807 100.72298 49.39474 100.70314 50.25142 100.6833 51.62524 100.65068 52.48192 100.62964 53.3386 100.6086 54.71242 100.57379 55.56909 100.5514 56.42577 100.52904 57.79959 100.49217 58.65627 100.46834 59.51294 100.44449 60.88676 100.405 61.74344 100.3795 62.60011 100.35402 63.97395 100.31183 64.83063 100.2845 65.6873 100.25716 67.06111 100.21173 67.9178 100.18242 68.77448 100.15309 70.14828 100.10464 71.00497 100.0731 71.86165 100.04158 73.23546 99.98915 74.09213 99.95511 74.94882 99.92108 76.32263 99.86452 77.1793 99.82771 78.036 99.7909 79.4098 99.72969 80.26648 99.68967 81.12315 99.64966 82.49698 99.58289 83.35365 99.53926 84.21033 99.49564 85.58415 99.42293 86.44083 99.37517 87.2975 99.32742 88.67133 99.24745 89.528 99.195 90.38467 99.14258 91.7585 99.055 92.61517 98.99718 93.47185 98.93936 94.84567 98.8425 95.70235 98.77829 96.55902 98.71407 97.93285 98.60602 98.78952 98.53433 99.6462 98.46266 101.02002 98.34215 101.8767 98.26167 102.73337 98.1812 104.10718 98.04529 104.96387 97.95424 105.82054 97.8632 107.19435 97.70923 108.05104 97.60542 108.90771 97.5016 110.28152 97.32545 111.1382 97.20593 111.99489 97.0864 113.3687 96.88287 114.22537 96.74382 115.08206 96.60477 116.45587 96.36745 117.31255 96.20364 118.16922 96.03984 119.54305 95.75903 120.39972 95.56316 121.2564 95.36728 122.63022 95.03023 123.4869 94.79185 124.34357 94.55347 125.71739 94.14137 126.57407 93.84497 127.43074 93.54855 128.80458 93.03418 129.66126 92.65546 130.51793 92.27673 131.89176 91.61653 132.74843 91.11536 133.6051 90.6142 134.97893 89.73825 135.8356 89.04335 136.69228 88.34845 138.06609 87.1369 138.92278 86.10692 139.77945 85.07693 141.15326 83.31104 142.00995 81.61995 142.86663 79.92886 144.24044 77.24818 145.0971 73.91873 145.9538 70.58928 147.3276 67.86008 148.18428 57.62361 149.04097 47.38715 151.27146 .1414 150.88205 8.39383"/>
<path transform="matrix(-.9999,-.010820541,-.01082,.99994996,10.426531,106.64991)" d="M7.39124 0 2.37614 1.6717 .70447 0 2.37614-1.6717Z" fill="#9e0c0f"/>
<path transform="matrix(-.9999,-.010820541,-.01082,.99994996,10.426531,106.64991)" stroke-width=".99628" stroke-linecap="butt" stroke-miterlimit="10" stroke-linejoin="miter" fill="none" stroke="#9e0c0f" d="M7.39124 0 2.37614 1.6717 .70447 0 2.37614-1.6717Z"/>
<path transform="matrix(.04713,.99888989,.99884,-.047132356,152.30983,198.93845)" d="M7.39124 0 2.37614 1.6717 .70447 0 2.37614-1.6717Z" fill="#9e0c0f"/>
<path transform="matrix(.04713,.99888989,.99884,-.047132356,152.30983,198.93845)" stroke-width=".99628" stroke-linecap="butt" stroke-miterlimit="10" stroke-linejoin="miter" fill="none" stroke="#9e0c0f" d="M7.39124 0 2.37614 1.6717 .70447 0 2.37614-1.6717Z"/>
<path transform="matrix(1,0,0,-1.00005,1.4610005,208.03639)" stroke-width=".99628" stroke-linecap="butt" stroke-miterlimit="10" stroke-linejoin="miter" fill="none" stroke="#9e0c0f" d="M156.45529 197.87059C157.3803 172.2575 157.3803 172.2575 157.85007 163.95433 158.31984 155.65117 159.07324 150.08351 159.54302 146.28337 160.01277 142.48323 160.76616 138.76654 161.23593 136.56552 161.7057 134.3645 162.45909 131.86057 162.92887 130.41986 163.39864 128.97916 164.15203 127.20009 164.6218 126.18184 165.09157 125.16359 165.84496 123.83928 166.31473 123.08101 166.7845 122.32275 167.53787 121.30333 168.00765 120.71675 168.47742 120.13016 169.23082 119.32092 169.70059 118.8533 170.17037 118.38567 170.92374 117.728 171.39351 117.34634 171.86328 116.96469 172.61667 116.42004 173.08644 116.10265 173.55622 115.78523 174.3096 115.32678 174.77938 115.05867 175.24915 114.79057 176.00252 114.39972 176.47229 114.17026 176.94207 113.9408 177.69547 113.60352 178.16524 113.40485 178.63501 113.20619 179.38838 112.91208 179.85816 112.73843 180.32793 112.56477 181.08133 112.30627 181.55109 112.15318 182.02086 112.00008 182.77425 111.77092 183.24402 111.63496 183.71379 111.499 184.46718 111.29474 184.93695 111.17316 185.40673 111.05157 186.16011 110.86804 186.62989 110.75862 187.09966 110.64922 187.85305 110.48354 188.32282 110.38461 188.79259 110.28569 189.54596 110.13554 190.01573 110.04565 190.4855 109.95576 191.23889 109.81877 191.70867 109.73676 192.17844 109.65474 192.93183 109.52965 193.4016 109.45451 193.87137 109.37936 194.62476 109.26427 195.09453 109.1951 195.56429 109.12593 196.31769 109.01968 196.78746 108.95589 197.25724 108.89209 198.0106 108.79424 198.48038 108.73521 198.95015 108.6762 199.70355 108.5853 200.17333 108.53046 200.6431 108.47563 201.39647 108.39104 201.86624 108.34 202.33602 108.28894 203.0894 108.21013 203.55916 108.16248 204.02893 108.11484 204.78234 108.04114 205.2521 107.99661 205.72188 107.95209 206.47525 107.88324 206.94503 107.8415 207.4148 107.79977 208.1682 107.73503 208.63797 107.69582 209.10774 107.65659 209.86112 107.59573 210.33089 107.55882 210.80066 107.52191 211.55405 107.46455 212.02382 107.42978 212.49359 107.39499 213.24698 107.34093 213.71675 107.30809 214.18653 107.27527 214.93991 107.22414 215.40969 107.19307 215.87946 107.16199 216.63285 107.11348 217.1026 107.08405 217.57238 107.05463 218.32578 107.00885 218.79555 106.98094 219.26532 106.95302 220.01869 106.90936 220.48847 106.88283 220.95824 106.85628 221.71163 106.8148 222.1814 106.78958 222.65117 106.76437 223.40456 106.72505 223.87433 106.70105 224.3441 106.67705 225.09748 106.63942 225.56725 106.6165 226.03702 106.59357 226.79042 106.55763 227.2602 106.53578 227.72997 106.51392 228.48334 106.4797 228.95311 106.45886 229.42288 106.43803 230.17629 106.4055 230.64606 106.38551 231.11582 106.36554 231.8692 106.33395 232.33898 106.31482 232.80875 106.29567 233.56212 106.26578 234.03189 106.24748 234.50167 106.2292 235.25507 106.20056 235.72484 106.18297 236.19461 106.16537 236.94799 106.13754 237.41776 106.12065 237.88753 106.10376 239.11069 106.06116 230.85387 106.34834"/>
<path transform="matrix(-.03609,-.9993599,-.99931,.036091806,157.94173,10.85997)" d="M7.39124 0 2.37614 1.6717 .70447 0 2.37614-1.6717Z" fill="#9e0c0f"/>
<path transform="matrix(-.03609,-.9993599,-.99931,.036091806,157.94173,10.85997)" stroke-width=".99628" stroke-linecap="butt" stroke-miterlimit="10" stroke-linejoin="miter" fill="none" stroke="#9e0c0f" d="M7.39124 0 2.37614 1.6717 .70447 0 2.37614-1.6717Z"/>
<path transform="matrix(.99937,.034761736,.03476,-.99941989,231.61081,101.65825)" d="M7.39124 0 2.37614 1.6717 .70447 0 2.37614-1.6717Z" fill="#9e0c0f"/>
<path transform="matrix(.99937,.034761736,.03476,-.99941989,231.61081,101.65825)" stroke-width=".99628" stroke-linecap="butt" stroke-miterlimit="10" stroke-linejoin="miter" fill="none" stroke="#9e0c0f" d="M7.39124 0 2.37614 1.6717 .70447 0 2.37614-1.6717Z"/>
</g>
<path transform="matrix(1,0,0,-1.00005,1.4610005,208.03639)" d="M19.07198 101.27367C19.07198 102.37415 18.17989 103.26622 17.07942 103.26622 15.97894 103.26622 15.08687 102.37415 15.08687 101.27367 15.08687 100.1732 15.97894 99.28111 17.07942 99.28111 18.17989 99.28111 19.07198 100.1732 19.07198 101.27367ZM17.07942 101.27367" fill="#9e0c0f"/>
<path transform="matrix(1,0,0,-1.00005,1.4610005,208.03639)" stroke-width=".3985" stroke-linecap="butt" stroke-miterlimit="10" stroke-linejoin="miter" fill="none" stroke="#9e0c0f" d="M19.07198 101.27367C19.07198 102.37415 18.17989 103.26622 17.07942 103.26622 15.97894 103.26622 15.08687 102.37415 15.08687 101.27367 15.08687 100.1732 15.97894 99.28111 17.07942 99.28111 18.17989 99.28111 19.07198 100.1732 19.07198 101.27367ZM17.07942 101.27367"/>
<path transform="matrix(1,0,0,-1.00005,1.4610005,208.03639)" d="M53.23082 100.65498C53.23082 101.75545 52.33873 102.64754 51.23827 102.64754 50.13779 102.64754 49.24571 101.75545 49.24571 100.65498 49.24571 99.5545 50.13779 98.66243 51.23827 98.66243 52.33873 98.66243 53.23082 99.5545 53.23082 100.65498ZM51.23827 100.65498" fill="#9e0c0f"/>
<path transform="matrix(1,0,0,-1.00005,1.4610005,208.03639)" stroke-width=".3985" stroke-linecap="butt" stroke-miterlimit="10" stroke-linejoin="miter" fill="none" stroke="#9e0c0f" d="M53.23082 100.65498C53.23082 101.75545 52.33873 102.64754 51.23827 102.64754 50.13779 102.64754 49.24571 101.75545 49.24571 100.65498 49.24571 99.5545 50.13779 98.66243 51.23827 98.66243 52.33873 98.66243 53.23082 99.5545 53.23082 100.65498ZM51.23827 100.65498"/>
<path transform="matrix(1,0,0,-1.00005,1.4610005,208.03639)" d="M87.38966 99.43233C87.38966 100.5328 86.49757 101.42488 85.39711 101.42488 84.29663 101.42488 83.40456 100.5328 83.40456 99.43233 83.40456 98.33186 84.29663 97.43977 85.39711 97.43977 86.49757 97.43977 87.38966 98.33186 87.38966 99.43233ZM85.39711 99.43233" fill="#9e0c0f"/>
<path transform="matrix(1,0,0,-1.00005,1.4610005,208.03639)" stroke-width=".3985" stroke-linecap="butt" stroke-miterlimit="10" stroke-linejoin="miter" fill="none" stroke="#9e0c0f" d="M87.38966 99.43233C87.38966 100.5328 86.49757 101.42488 85.39711 101.42488 84.29663 101.42488 83.40456 100.5328 83.40456 99.43233 83.40456 98.33186 84.29663 97.43977 85.39711 97.43977 86.49757 97.43977 87.38966 98.33186 87.38966 99.43233ZM85.39711 99.43233"/>
<path transform="matrix(1,0,0,-1.00005,1.4610005,208.03639)" d="M121.54851 95.74965C121.54851 96.85013 120.65642 97.7422 119.55595 97.7422 118.45547 97.7422 117.5634 96.85013 117.5634 95.74965 117.5634 94.64919 118.45547 93.7571 119.55595 93.7571 120.65642 93.7571 121.54851 94.64919 121.54851 95.74965ZM119.55595 95.74965" fill="#9e0c0f"/>
<path transform="matrix(1,0,0,-1.00005,1.4610005,208.03639)" stroke-width=".3985" stroke-linecap="butt" stroke-miterlimit="10" stroke-linejoin="miter" fill="none" stroke="#9e0c0f" d="M121.54851 95.74965C121.54851 96.85013 120.65642 97.7422 119.55595 97.7422 118.45547 97.7422 117.5634 96.85013 117.5634 95.74965 117.5634 94.64919 118.45547 93.7571 119.55595 93.7571 120.65642 93.7571 121.54851 94.64919 121.54851 95.74965ZM119.55595 95.74965"/>
<path transform="matrix(1,0,0,-1.00005,1.4610005,208.03639)" d="M138.62793 88.3843C138.62793 89.48477 137.73584 90.37685 136.63538 90.37685 135.5349 90.37685 134.64282 89.48477 134.64282 88.3843 134.64282 87.28383 135.5349 86.39174 136.63538 86.39174 137.73584 86.39174 138.62793 87.28383 138.62793 88.3843ZM136.63538 88.3843" fill="#9e0c0f"/>
<path transform="matrix(1,0,0,-1.00005,1.4610005,208.03639)" stroke-width=".3985" stroke-linecap="butt" stroke-miterlimit="10" stroke-linejoin="miter" fill="none" stroke="#9e0c0f" d="M138.62793 88.3843C138.62793 89.48477 137.73584 90.37685 136.63538 90.37685 135.5349 90.37685 134.64282 89.48477 134.64282 88.3843 134.64282 87.28383 135.5349 86.39174 136.63538 86.39174 137.73584 86.39174 138.62793 87.28383 138.62793 88.3843ZM136.63538 88.3843"/>
<path transform="matrix(1,0,0,-1.00005,1.4610005,208.03639)" d="M147.16764 73.65358C147.16764 74.75404 146.27556 75.64613 145.17508 75.64613 144.07462 75.64613 143.18253 74.75404 143.18253 73.65358 143.18253 72.5531 144.07462 71.66103 145.17508 71.66103 146.27556 71.66103 147.16764 72.5531 147.16764 73.65358ZM145.17508 73.65358" fill="#9e0c0f"/>
<path transform="matrix(1,0,0,-1.00005,1.4610005,208.03639)" stroke-width=".3985" stroke-linecap="butt" stroke-miterlimit="10" stroke-linejoin="miter" fill="none" stroke="#9e0c0f" d="M147.16764 73.65358C147.16764 74.75404 146.27556 75.64613 145.17508 75.64613 144.07462 75.64613 143.18253 74.75404 143.18253 73.65358 143.18253 72.5531 144.07462 71.66103 145.17508 71.66103 146.27556 71.66103 147.16764 72.5531 147.16764 73.65358ZM145.17508 73.65358"/>
<path transform="matrix(1,0,0,-1.00005,1.4610005,208.03639)" d="M152.29148 29.46143C152.29148 30.5619 151.39939 31.45398 150.29892 31.45398 149.19844 31.45398 148.30637 30.5619 148.30637 29.46143 148.30637 28.36096 149.19844 27.46887 150.29892 27.46887 151.39939 27.46887 152.29148 28.36096 152.29148 29.46143ZM150.29892 29.46143" fill="#9e0c0f"/>
<path transform="matrix(1,0,0,-1.00005,1.4610005,208.03639)" stroke-width=".3985" stroke-linecap="butt" stroke-miterlimit="10" stroke-linejoin="miter" fill="none" stroke="#9e0c0f" d="M152.29148 29.46143C152.29148 30.5619 151.39939 31.45398 150.29892 31.45398 149.19844 31.45398 148.30637 30.5619 148.30637 29.46143 148.30637 28.36096 149.19844 27.46887 150.29892 27.46887 151.39939 27.46887 152.29148 28.36096 152.29148 29.46143ZM150.29892 29.46143"/>
<path transform="matrix(1,0,0,-1.00005,1.4610005,208.03639)" d="M159.12323 176.7686C159.12323 177.86907 158.23116 178.76116 157.13068 178.76116 156.03022 178.76116 155.13813 177.86907 155.13813 176.7686 155.13813 175.66812 156.03022 174.77605 157.13068 174.77605 158.23116 174.77605 159.12323 175.66812 159.12323 176.7686ZM157.13068 176.7686" fill="#9e0c0f"/>
<path transform="matrix(1,0,0,-1.00005,1.4610005,208.03639)" stroke-width=".3985" stroke-linecap="butt" stroke-miterlimit="10" stroke-linejoin="miter" fill="none" stroke="#9e0c0f" d="M159.12323 176.7686C159.12323 177.86907 158.23116 178.76116 157.13068 178.76116 156.03022 178.76116 155.13813 177.86907 155.13813 176.7686 155.13813 175.66812 156.03022 174.77605 157.13068 174.77605 158.23116 174.77605 159.12323 175.66812 159.12323 176.7686ZM157.13068 176.7686"/>
<path transform="matrix(1,0,0,-1.00005,1.4610005,208.03639)" d="M164.24706 132.57645C164.24706 133.67691 163.35498 134.569 162.2545 134.569 161.15404 134.569 160.26195 133.67691 160.26195 132.57645 160.26195 131.47597 161.15404 130.5839 162.2545 130.5839 163.35498 130.5839 164.24706 131.47597 164.24706 132.57645ZM162.2545 132.57645" fill="#9e0c0f"/>
<path transform="matrix(1,0,0,-1.00005,1.4610005,208.03639)" stroke-width=".3985" stroke-linecap="butt" stroke-miterlimit="10" stroke-linejoin="miter" fill="none" stroke="#9e0c0f" d="M164.24706 132.57645C164.24706 133.67691 163.35498 134.569 162.2545 134.569 161.15404 134.569 160.26195 133.67691 160.26195 132.57645 160.26195 131.47597 161.15404 130.5839 162.2545 130.5839 163.35498 130.5839 164.24706 131.47597 164.24706 132.57645ZM162.2545 132.57645"/>
<path transform="matrix(1,0,0,-1.00005,1.4610005,208.03639)" d="M172.78678 117.84573C172.78678 118.9462 171.89469 119.83829 170.79422 119.83829 169.69374 119.83829 168.80167 118.9462 168.80167 117.84573 168.80167 116.74525 169.69374 115.85318 170.79422 115.85318 171.89469 115.85318 172.78678 116.74525 172.78678 117.84573ZM170.79422 117.84573" fill="#9e0c0f"/>
<path transform="matrix(1,0,0,-1.00005,1.4610005,208.03639)" stroke-width=".3985" stroke-linecap="butt" stroke-miterlimit="10" stroke-linejoin="miter" fill="none" stroke="#9e0c0f" d="M172.78678 117.84573C172.78678 118.9462 171.89469 119.83829 170.79422 119.83829 169.69374 119.83829 168.80167 118.9462 168.80167 117.84573 168.80167 116.74525 169.69374 115.85318 170.79422 115.85318 171.89469 115.85318 172.78678 116.74525 172.78678 117.84573ZM170.79422 117.84573"/>
<path transform="matrix(1,0,0,-1.00005,1.4610005,208.03639)" d="M189.8662 110.48038C189.8662 111.58084 188.9741 112.47293 187.87364 112.47293 186.77318 112.47293 185.88109 111.58084 185.88109 110.48038 185.88109 109.3799 186.77318 108.48782 187.87364 108.48782 188.9741 108.48782 189.8662 109.3799 189.8662 110.48038ZM187.87364 110.48038" fill="#9e0c0f"/>
<path transform="matrix(1,0,0,-1.00005,1.4610005,208.03639)" stroke-width=".3985" stroke-linecap="butt" stroke-miterlimit="10" stroke-linejoin="miter" fill="none" stroke="#9e0c0f" d="M189.8662 110.48038C189.8662 111.58084 188.9741 112.47293 187.87364 112.47293 186.77318 112.47293 185.88109 111.58084 185.88109 110.48038 185.88109 109.3799 186.77318 108.48782 187.87364 108.48782 188.9741 108.48782 189.8662 109.3799 189.8662 110.48038ZM187.87364 110.48038"/>
<path transform="matrix(1,0,0,-1.00005,1.4610005,208.03639)" d="M224.02504 106.79768C224.02504 107.89816 223.13297 108.79024 222.03249 108.79024 220.93202 108.79024 220.03993 107.89816 220.03993 106.79768 220.03993 105.69722 220.93202 104.80513 222.03249 104.80513 223.13297 104.80513 224.02504 105.69722 224.02504 106.79768ZM222.03249 106.79768" fill="#9e0c0f"/>
<path transform="matrix(1,0,0,-1.00005,1.4610005,208.03639)" stroke-width=".3985" stroke-linecap="butt" stroke-miterlimit="10" stroke-linejoin="miter" fill="none" stroke="#9e0c0f" d="M224.02504 106.79768C224.02504 107.89816 223.13297 108.79024 222.03249 108.79024 220.93202 108.79024 220.03993 107.89816 220.03993 106.79768 220.03993 105.69722 220.93202 104.80513 222.03249 104.80513 223.13297 104.80513 224.02504 105.69722 224.02504 106.79768ZM222.03249 106.79768"/>
<path transform="matrix(1,0,0,-1.00005,1.4610005,208.03639)" stroke-width=".3985" stroke-linecap="butt" stroke-miterlimit="10" stroke-linejoin="miter" fill="none" stroke="#9e0c0f" d=""/>
<use data-text="x" xlink:href="#font_4_1" transform="matrix(9.9626,0,0,-9.963098,231.359,101.396068)"/>
<use data-text="y" xlink:href="#font_4_2" transform="matrix(9.9626,0,0,-9.963098,124.537,9.605469)"/>
</svg>
