<svg xmlns="http://www.w3.org/2000/svg" xmlns:xlink="http://www.w3.org/1999/xlink" version="1.1" width="242" height="213" viewBox="0 0 242 213">
<defs>
<path id="font_1_2" d="M.31399537 .63708499C.31399537 .664032 .31199647 .66503909 .2849884 .66503909 .24398804 .6251831 .19099427 .6013489 .09599304 .6013489V.5683594C.12298584 .5683594 .1769867 .5683594 .23498535 .5953522V.08203125C.23498535 .04499817 .23199463 .032989503 .13699341 .032989503H.101989749V0C.14299011 .0029907227 .22898865 .0029907227 .27398683 .0029907227 .31900025 .0029907227 .4059906 .0029907227 .44699098 0V.032989503H.4119873C.31698609 .032989503 .31399537 .04499817 .31399537 .08203125V.63708499Z"/>
<path id="font_1_3" d="M.28199769 .20405579C.2979889 .21907044 .33999635 .2520752 .35598756 .26608277 .41799928 .32312013 .47698976 .3781433 .47698976 .46917726 .47698976 .588089 .3769989 .66503909 .2519989 .66503909 .13198853 .66503909 .052993776 .57411196 .052993776 .48516847 .052993776 .4361725 .09199524 .4291687 .10598755 .4291687 .1269989 .4291687 .1579895 .4441681 .1579895 .48217774 .1579895 .5341797 .10798645 .5341797 .09599304 .5341797 .125 .6070709 .19198609 .6320343 .24099732 .6320343 .33399964 .6320343 .38198854 .55314639 .38198854 .46917726 .38198854 .36514283 .30899049 .28910829 .19099427 .16804505L.06498718 .037994386C.052993776 .026992798 .052993776 .024993897 .052993776 0H.44799806L.47698976 .17904663H.44599916C.44299317 .1590271 .43499757 .10900879 .4229889 .08999634 .4169922 .08198547 .34098817 .08198547 .32499696 .08198547H.14698792L.28199769 .20405579Z"/>
<path id="font_1_4" d="M.25299073 .33370973C.33198548 .33370973 .38198854 .27557374 .38198854 .17037964 .38198854 .045440675 .31098939 .008514404 .2579956 .008514404 .20298767 .008514404 .12799073 .0284729 .09298706 .08137512 .1289978 .08137512 .1539917 .10437012 .1539917 .13737488 .1539917 .16937256 .1309967 .19238281 .09899902 .19238281 .07199097 .19238281 .04399109 .17536927 .04399109 .13537598 .04399109 .04045105 .1459961-.021484375 .2599945-.021484375 .3929901-.021484375 .48599244 .070388797 .48599244 .17037964 .48599244 .25352479 .41999818 .32969667 .31799317 .3517456 .39698792 .37982179 .45599366 .4479828 .45599366 .52804568 .45599366 .6080475 .3659973 .66503909 .2619934 .66503909 .15499878 .66503909 .07398987 .6070404 .07398987 .53105166 .07398987 .49404908 .09899902 .4780426 .125 .4780426 .1559906 .4780426 .17599488 .5000458 .17599488 .52905276 .17599488 .56604006 .14399719 .5800476 .12199402 .5810547 .1639862 .6360321 .24099732 .6390381 .25898744 .6390381 .2849884 .6390381 .36099244 .6310272 .36099244 .52804568 .36099244 .45799256 .33198548 .41589356 .31799317 .39985658 .28799439 .36878968 .2649994 .36679078 .20399475 .3627777 .18499756 .36177064 .1769867 .36076356 .1769867 .3477478 .1769867 .33370973 .18598938 .33370973 .20298767 .33370973H.25299073Z"/>
<path id="font_1_5" d="M.3939972 .6468048C.3939972 .6667938 .3939972 .6748047 .37298585 .6748047 .3600006 .6748047 .35899354 .6737976 .34899903 .65979006L.02999878 .197052V.1640625H.31199647V.08100891C.31199647 .04399109 .30899049 .032989503 .23199463 .032989503H.20899964V0C.2939911 .0029907227 .29599 .0029907227 .35299684 .0029907227 .4099884 .0029907227 .4119873 .0029907227 .49699403 0V.032989503H.47399903C.39698792 .032989503 .3939972 .04399109 .3939972 .08100891V.1640625H.5V.197052H.3939972V.6468048M.31900025 .5658417V.197052H.06498718L.31900025 .5658417Z"/>
<path id="font_1_6" d="M.13999939 .5618439C.15299988 .55784609 .19299317 .54785159 .23498535 .54785159 .3600006 .54785159 .43598939 .6358948 .43598939 .6510315 .43598939 .6620331 .42900086 .66503909 .42399598 .66503909 .42199708 .66503909 .41999818 .66503909 .41099549 .6600342 .37199403 .6450348 .32598878 .632843 .27198792 .632843 .21299744 .632843 .1639862 .6480255 .1329956 .6600342 .12298584 .66503909 .12098694 .66503909 .11999512 .66503909 .10699463 .66503909 .10699463 .6540375 .10699463 .6358948V.34292604C.10699463 .32492066 .10699463 .312912 .12298584 .312912 .1309967 .312912 .13398743 .3169098 .13899231 .32492066 .15098572 .33992005 .18899536 .39093019 .27398683 .39093019 .32998658 .39093019 .35699464 .34492494 .3659973 .32591249 .3829956 .28990174 .3849945 .24389649 .3849945 .20487976 .3849945 .1678772 .38398744 .11387634 .35598756 .069732669 .33699037 .039611818 .29699708 .008514404 .24398804 .008514404 .1789856 .008514404 .114990238 .0496521 .09199524 .11488342 .09498596 .11387634 .100997928 .11387634 .101989749 .11387634 .12998963 .11387634 .1519928 .13188172 .1519928 .16288758 .1519928 .19989014 .12298584 .21289063 .102996829 .21289063 .084991458 .21289063 .052993776 .20288086 .052993776 .15988159 .052993776 .069732669 .1309967-.021484375 .24598694-.021484375 .37098695-.021484375 .47698976 .07574463 .47698976 .19989014 .47698976 .31591798 .3929901 .4189453 .2749939 .4189453 .22499085 .4189453 .17799378 .40293885 .13999939 .368927V.5618439Z"/>
<path id="font_1_1" d="M.4889984 .31877137C.4889984 .42585755 .47799684 .49090577 .44499208 .55496218 .40098573 .6430359 .31999208 .66503909 .2649994 .66503909 .13899231 .66503909 .09298706 .5709839 .07899475 .5429535 .042999269 .4698944 .040985109 .3708191 .040985109 .31877137 .040985109 .25271607 .04399109 .15162659 .09199524 .07156372 .13798523-.0024871827 .21199036-.021484375 .2649994-.021484375 .31298829-.021484375 .39898683-.0064849855 .44898988 .09257507 .48599244 .16464234 .4889984 .2537079 .4889984 .31877137M.2649994 .006515503C.23098755 .006515503 .1619873 .022521973 .14099121 .12760926 .12998963 .18466187 .12998963 .2787323 .12998963 .33078004 .12998963 .3998413 .12998963 .4698944 .14099121 .5249481 .1619873 .6270294 .23999024 .6370239 .2649994 .6370239 .29899598 .6370239 .36799623 .62002566 .3880005 .5289459 .3999939 .4738922 .3999939 .39883424 .3999939 .33078004 .3999939 .27172853 .3999939 .18165589 .3880005 .12561035 .36698915 .020523072 .2979889 .006515503 .2649994 .006515503Z"/>
<path id="font_1_7" d="M.13798523 .33073426C.13798523 .41377259 .14498902 .4868164 .18099976 .54782107 .21099854 .5978241 .2619934 .6390381 .32499696 .6390381 .34498597 .6390381 .3909912 .63601687 .4139862 .60084536 .36898805 .5988312 .36499024 .5648346 .36499024 .553833 .36499024 .5238342 .3880005 .50683596 .4119873 .50683596 .42999269 .50683596 .45899964 .51782229 .45899964 .5558319 .45899964 .615921 .4139862 .66503909 .32398988 .66503909 .18499756 .66503909 .04399109 .53282168 .04399109 .31672669 .04399109 .045532228 .16999817-.021484375 .2669983-.021484375 .31498719-.021484375 .36698915-.0084991459 .4119873 .03453064 .45199586 .07354736 .48599244 .11558533 .48599244 .20263672 .48599244 .33372499 .3869934 .42578126 .27598573 .42578126 .20399475 .42578126 .16099549 .37976075 .13798523 .33073426M.2669983 .008514404C.21398926 .008514404 .18099976 .045532228 .1659851 .07354736 .14299011 .11859131 .14099121 .18663025 .14099121 .22465515 .14099121 .32373048 .19499207 .3977661 .27198792 .3977661 .32199098 .3977661 .35198976 .37176515 .37098695 .33673097 .3919983 .29971314 .3919983 .25468446 .3919983 .2036438 .3919983 .15260315 .3919983 .10858154 .37199403 .07255554 .34599305 .026519776 .31098939 .008514404 .2669983 .008514404Z"/>
<path id="font_1_8" d="M.5059967 .608551C.5149994 .6195526 .5149994 .6215515 .5149994 .6435547H.26098634C.23599243 .6435547 .20498657 .64456179 .17999268 .64660647 .12799073 .65068057 .1269989 .6597748 .12399292 .67578127H.09298706L.05899048 .46453858H.08999634C.09199524 .47953797 .102996829 .54855349 .116989139 .5565491 .12799073 .56155398 .20298767 .56155398 .21798706 .56155398H.42999269L.32699586 .4235382C.21299744 .27153016 .18899536 .11351013 .18899536 .03451538 .18899536 .024505616 .18899536-.021484375 .23599243-.021484375 .2829895-.021484375 .2829895 .023513794 .2829895 .035507204V.08351135C.2829895 .2275238 .30699159 .34553529 .35598756 .41053773L.5059967 .608551Z"/>
<path id="font_1_9" d="M.33198548 .36080934C.3880005 .38783265 .45599366 .4378662 .45599366 .5159302 .45599366 .6110077 .35899354 .66503909 .2659912 .66503909 .1599884 .66503909 .07398987 .59199526 .07398987 .49790956 .07398987 .46089173 .08699036 .42686463 .11199951 .39782716 .1289978 .3768158 .1329956 .3748169 .19499207 .3357849 .070999149 .2807312 .04399109 .20767212 .04399109 .15162659 .04399109 .041534425 .15499878-.021484375 .2639923-.021484375 .3869934-.021484375 .48599244 .061553956 .48599244 .16764832 .48599244 .23069763 .45199586 .2727356 .43598939 .28974916 .4189911 .30575563 .41799928 .3067627 .33198548 .36080934M.1769867 .45487977C.147995 .4718933 .12399292 .5009155 .12399292 .5359497 .12399292 .598999 .19299317 .6390381 .2639923 .6390381 .34199525 .6390381 .4059906 .5859833 .4059906 .5159302 .4059906 .45788575 .36099244 .408844 .3019867 .37982179L.1769867 .45487977M.22599793 .31776429C.22999573 .31576539 .34399415 .24571228 .36099244 .23469544 .3769989 .22569275 .42900086 .19366455 .42900086 .13360596 .42900086 .056549074 .34799195 .008514404 .2659912 .008514404 .1769867 .008514404 .100997928 .06956482 .100997928 .15162659 .100997928 .22668457 .15699768 .28573609 .22599793 .31776429Z"/>
<path id="font_1_10" d="M.3919983 .29478456C.3919983 .050704957 .27598573 .008514404 .21798706 .008514404 .19699097 .008514404 .14498902 .011520386 .117996219 .04270935 .1619873 .046707155 .16499329 .079711917 .16499329 .08970642 .16499329 .1197052 .14199829 .13671875 .117996219 .13671875 .099990848 .13671875 .070999149 .12571717 .070999149 .08770752 .070999149 .019577027 .1269989-.021484375 .21899414-.021484375 .35598756-.021484375 .48599244 .114715579 .48599244 .3287964 .48599244 .58898928 .37098695 .66503909 .2679901 .66503909 .1499939 .66503909 .04399109 .5729828 .04399109 .44187928 .04399109 .31278993 .14099121 .21875 .2539978 .21875 .32499696 .21875 .36799623 .26374818 .3919983 .31478883V.29478456M.2579956 .24674988C.21199036 .24674988 .18299866 .26776124 .16099549 .30477906 .13798523 .34181214 .13798523 .3898468 .13798523 .44088746 .13798523 .4999237 .13798523 .54196169 .16499329 .58299258 .18998719 .61901858 .22200012 .6390381 .2689972 .6390381 .33599855 .6390381 .36499024 .5729828 .36799623 .5679779 .3889923 .51893618 .3899994 .44088746 .3899994 .42086793 .3899994 .34181214 .34700013 .24674988 .2579956 .24674988Z"/>
<clipPath id="clip_2">
<path transform="matrix(1.00002,0,0,-1.00003,1.4613705,210.82897)" d="M0 0H239.10128V206.2279H0Z"/>
</clipPath>
<path id="font_3_2" d="M.20599365 .3996582H.2999878C.31999208 .3996582 .32998658 .3996582 .32998658 .41966249 .32998658 .43066407 .31999208 .43066407 .3019867 .43066407H.21398926C.25 .5724945 .25498963 .59246829 .25498963 .59846499 .25498963 .61546328 .24299622 .62545779 .22599793 .62545779 .22299195 .62545779 .19499207 .62446597 .18598938 .58947756L.14698792 .43066407H.052993776C.032989503 .43066407 .022994996 .43066407 .022994996 .4116516 .022994996 .3996582 .0309906 .3996582 .050994874 .3996582H.13899231C.066986087 .11608887 .06298828 .099121097 .06298828 .08114624 .06298828 .02722168 .100997928-.0107421879 .15499878-.0107421879 .25698854-.0107421879 .31399537 .13505554 .31399537 .14305115 .31399537 .1530304 .30599977 .1530304 .3019867 .1530304 .29299928 .1530304 .2919922 .15003968 .2869873 .13905335 .24398804 .035217287 .19099427 .011245728 .15699768 .011245728 .13598633 .011245728 .12599182 .024230957 .12599182 .057174684 .12599182 .08114624 .12799073 .088134769 .13198853 .10510254L.20599365 .3996582Z"/>
<path id="font_3_1" d="M.7630005 .60565188C.7719879 .6416168 .7739868 .6516113 .8470001 .6516113 .8730011 .6516113 .8809967 .6516113 .8809967 .6716156 .8809967 .6826172 .8699951 .6826172 .86698916 .6826172 .83898928 .6826172 .7669983 .6796112 .7389984 .6796112 .70999148 .6796112 .6389923 .6826172 .6100006 .6826172 .60198977 .6826172 .59098818 .6826172 .59098818 .6626129 .59098818 .6516113 .59999087 .6516113 .61898806 .6516113 .62098696 .6516113 .6399994 .6516113 .6569977 .6496124 .6749878 .6476135 .6839905 .6466217 .6839905 .6336212 .6839905 .6296234 .68299868 .6276245 .6799927 .6146393L.6199951 .37083436H.31498719L.37399293 .60565188C.3829956 .6416168 .38598634 .6516113 .45799256 .6516113 .48399354 .6516113 .49198915 .6516113 .49198915 .6716156 .49198915 .6826172 .48098756 .6826172 .47799684 .6826172 .44999696 .6826172 .37799073 .6796112 .34999085 .6796112 .32099916 .6796112 .25 .6826172 .22099304 .6826172 .21299744 .6826172 .20199585 .6826172 .20199585 .6626129 .20199585 .6516113 .21099854 .6516113 .22999573 .6516113 .23199463 .6516113 .25099183 .6516113 .2679901 .6496124 .28599549 .6476135 .29499818 .6466217 .29499818 .6336212 .29499818 .6296234 .2939911 .6266327 .29100038 .6146393L.15699768 .07797241C.14698792 .038986207 .14498902 .0309906 .06599426 .0309906 .04798889 .0309906 .038986207 .0309906 .038986207 .010986328 .038986207 0 .050994874 0 .052993776 0 .08099365 0 .1519928 .0029907227 .17999268 .0029907227 .20098877 .0029907227 .22299195 .0019989014 .24398804 .0019989014 .2659912 .0019989014 .28799439 0 .30899049 0 .31698609 0 .32899476 0 .32899476 .019989014 .32899476 .0309906 .31999208 .0309906 .30099488 .0309906 .2639923 .0309906 .23599243 .0309906 .23599243 .048980714 .23599243 .054977418 .23799134 .0599823 .23899842 .065979007L.30699159 .33984376H.6119995C.56999209 .17391968 .5469971 .07896423 .54299929 .0639801 .5329895 .03199768 .5139923 .0309906 .45199586 .0309906 .43699647 .0309906 .42799378 .0309906 .42799378 .010986328 .42799378 0 .43998719 0 .44198609 0 .46998597 0 .54100039 .0029907227 .56900027 .0029907227 .58999636 .0029907227 .6119995 .0019989014 .6329956 .0019989014 .6549988 .0019989014 .6769867 0 .69799807 0 .70599368 0 .71798709 0 .71798709 .019989014 .71798709 .0309906 .70899966 .0309906 .6899872 .0309906 .6529999 .0309906 .625 .0309906 .625 .048980714 .625 .054977418 .6269989 .0599823 .6279907 .065979007L.7630005 .60565188Z"/>
</defs>
<path transform="matrix(1.00002,0,0,-1.00003,1.4613705,210.82897)" d="M0 0H239.10128V206.2279H0Z" fill="#fffac2"/>
<path transform="matrix(1.00002,0,0,-1.00003,1.4613705,210.82897)" stroke-width=".3985" stroke-linecap="butt" stroke-miterlimit="10" stroke-linejoin="miter" fill="none" stroke="#d5d6d5" d="M0 0V206.2279M17.07866 0V206.2279M34.15732 0V206.2279M51.23598 0V206.2279M68.31464 0V206.2279M85.39331 0V206.2279M102.47197 0V206.2279M119.55063 0V206.2279M136.62929 0V206.2279M153.70796 0V206.2279M170.78662 0V206.2279M187.86528 0V206.2279M204.94394 0V206.2279M222.02262 0V206.2279M239.10128 0V206.2279"/>
<path transform="matrix(1.00002,0,0,-1.00003,1.4613705,210.82897)" stroke-width=".3985" stroke-linecap="butt" stroke-miterlimit="10" stroke-linejoin="miter" fill="none" stroke="#d5d6d5" d="M68.31464 0V206.2279M102.47197 0V206.2279M136.62929 0V206.2279M170.78662 0V206.2279M204.94394 0V206.2279"/>
<path transform="matrix(1.00002,0,0,-1.00003,1.4613705,210.82897)" stroke-width=".3985" stroke-linecap="butt" stroke-miterlimit="10" stroke-linejoin="miter" fill="none" stroke="#d5d6d5" d="M0 0H239.10128M0 9.374H239.10128M0 18.74799H239.10128M0 28.12198H239.10128M0 37.49597H239.10128M0 46.86996H239.10128M0 56.24397H239.10128M0 65.61797H239.10128M0 74.99196H239.10128M0 84.36595H239.10128M0 93.73994H239.10128M0 103.11395H239.10128M0 112.48795H239.10128M0 121.86194H239.10128M0 131.23593H239.10128M0 140.60993H239.10128M0 149.98394H239.10128M0 159.35793H239.10128M0 168.73192H239.10128M0 178.10591H239.10128M0 187.4799H239.10128M0 196.85391H239.10128M0 206.2279H239.10128"/>
<path transform="matrix(1.00002,0,0,-1.00003,1.4613705,210.82897)" stroke-width=".3985" stroke-linecap="butt" stroke-miterlimit="10" stroke-linejoin="miter" fill="none" stroke="#d5d6d5" d="M0 37.49597H239.10128M0 56.24397H239.10128M0 74.99196H239.10128M0 93.73994H239.10128M0 112.48795H239.10128M0 131.23593H239.10128M0 149.98394H239.10128M0 168.73192H239.10128M0 187.4799H239.10128M0 206.2279H239.10128"/>
<path transform="matrix(1.00002,0,0,-1.00003,1.4613705,210.82897)" stroke-width=".19925" stroke-linecap="butt" stroke-miterlimit="10" stroke-linejoin="miter" fill="none" stroke="#929292" d="M0 17.33058V20.16537M17.07866 17.33058V20.16537M34.15732 17.33058V20.16537M51.23598 17.33058V20.16537M68.31464 17.33058V20.16537M85.39331 17.33058V20.16537M102.47197 17.33058V20.16537M119.55063 17.33058V20.16537M136.62929 17.33058V20.16537M153.70796 17.33058V20.16537M170.78662 17.33058V20.16537M187.86528 17.33058V20.16537M204.94394 17.33058V20.16537M222.02262 17.33058V20.16537M239.10128 17.33058V20.16537"/>
<path transform="matrix(1.00002,0,0,-1.00003,1.4613705,210.82897)" stroke-width=".19925" stroke-linecap="butt" stroke-miterlimit="10" stroke-linejoin="miter" fill="none" stroke="#929292" d="M68.31464 16.6221V20.87386M102.47197 16.6221V20.87386M136.62929 16.6221V20.87386M170.78662 16.6221V20.87386M204.94394 16.6221V20.87386"/>
<path transform="matrix(1.00002,0,0,-1.00003,1.4613705,210.82897)" stroke-width=".19925" stroke-linecap="butt" stroke-miterlimit="10" stroke-linejoin="miter" fill="none" stroke="#929292" d="M32.73991 0H35.57474M32.73991 9.374H35.57474M32.73991 18.74799H35.57474M32.73991 28.12198H35.57474M32.73991 37.49597H35.57474M32.73991 46.86996H35.57474M32.73991 56.24397H35.57474M32.73991 65.61797H35.57474M32.73991 74.99196H35.57474M32.73991 84.36595H35.57474M32.73991 93.73994H35.57474M32.73991 103.11395H35.57474M32.73991 112.48795H35.57474M32.73991 121.86194H35.57474M32.73991 131.23593H35.57474M32.73991 140.60993H35.57474M32.73991 149.98394H35.57474M32.73991 159.35793H35.57474M32.73991 168.73192H35.57474M32.73991 178.10591H35.57474M32.73991 187.4799H35.57474M32.73991 196.85391H35.57474M32.73991 206.2279H35.57474"/>
<path transform="matrix(1.00002,0,0,-1.00003,1.4613705,210.82897)" stroke-width=".19925" stroke-linecap="butt" stroke-miterlimit="10" stroke-linejoin="miter" fill="none" stroke="#929292" d="M32.03142 37.49597H36.2832M32.03142 56.24397H36.2832M32.03142 74.99196H36.2832M32.03142 93.73994H36.2832M32.03142 112.48795H36.2832M32.03142 131.23593H36.2832M32.03142 149.98394H36.2832M32.03142 168.73192H36.2832M32.03142 187.4799H36.2832M32.03142 206.2279H36.2832"/>
<path transform="matrix(1.00002,0,0,-1.00003,1.4613705,210.82897)" stroke-width=".3985" stroke-linecap="butt" stroke-miterlimit="10" stroke-linejoin="miter" fill="none" stroke="#000000" d="M1.99252 18.74799H237.10875"/>
<path transform="matrix(-1.00002,-0,0,1.00003,3.4539304,192.08042)" d="M1.99252 0-1.19551 1.59401 0 0-1.19551-1.59401"/>
<path transform="matrix(1.00002,0,0,-1.00003,238.57486,192.08042)" d="M1.99252 0-1.19551 1.59401 0 0-1.19551-1.59401"/>
<path transform="matrix(1.00002,0,0,-1.00003,1.4613705,210.82897)" stroke-width=".3985" stroke-linecap="butt" stroke-miterlimit="10" stroke-linejoin="miter" fill="none" stroke="#000000" d="M34.15732 1.99252V204.23538"/>
<path transform="matrix(0,1.00003,1.00002,0,35.61937,208.83638)" d="M1.99252 0-1.19551 1.59401 0 0-1.19551-1.59401"/>
<path transform="matrix(0,-1.00003,-1.00002,-0,35.61937,6.587448)" d="M1.99252 0-1.19551 1.59401 0 0-1.19551-1.59401"/>
<use data-text="1" xlink:href="#font_1_2" transform="matrix(7.9702599,0,0,-7.9703395,67.66069,202.86273)"/>
<use data-text="2" xlink:href="#font_1_3" transform="matrix(7.9702599,0,0,-7.9703395,101.818378,202.86273)"/>
<use data-text="3" xlink:href="#font_1_4" transform="matrix(7.9702599,0,0,-7.9703395,135.97606,202.86273)"/>
<use data-text="4" xlink:href="#font_1_5" transform="matrix(7.9702599,0,0,-7.9703395,170.13375,202.86273)"/>
<use data-text="5" xlink:href="#font_1_6" transform="matrix(7.9702599,0,0,-7.9703395,204.29242,202.86273)"/>
<use data-text="1" xlink:href="#font_1_2" transform="matrix(7.9702599,0,0,-7.9703395,23.39581,175.89992)"/>
<use data-text="0" xlink:href="#font_1_1" transform="matrix(7.9702599,0,0,-7.9703395,27.628018,175.89992)"/>
<use data-text="2" xlink:href="#font_1_3" transform="matrix(7.9702599,0,0,-7.9703395,23.39581,157.15135)"/>
<use data-text="0" xlink:href="#font_1_1" transform="matrix(7.9702599,0,0,-7.9703395,27.628018,157.15135)"/>
<use data-text="3" xlink:href="#font_1_4" transform="matrix(7.9702599,0,0,-7.9703395,23.39581,138.40279)"/>
<use data-text="0" xlink:href="#font_1_1" transform="matrix(7.9702599,0,0,-7.9703395,27.628018,138.40279)"/>
<use data-text="4" xlink:href="#font_1_5" transform="matrix(7.9702599,0,0,-7.9703395,23.39581,119.65423)"/>
<use data-text="0" xlink:href="#font_1_1" transform="matrix(7.9702599,0,0,-7.9703395,27.628018,119.65423)"/>
<use data-text="5" xlink:href="#font_1_6" transform="matrix(7.9702599,0,0,-7.9703395,23.39581,100.90567)"/>
<use data-text="0" xlink:href="#font_1_1" transform="matrix(7.9702599,0,0,-7.9703395,27.628018,100.90567)"/>
<use data-text="6" xlink:href="#font_1_7" transform="matrix(7.9702599,0,0,-7.9703395,23.39581,82.157108)"/>
<use data-text="0" xlink:href="#font_1_1" transform="matrix(7.9702599,0,0,-7.9703395,27.628018,82.157108)"/>
<use data-text="7" xlink:href="#font_1_8" transform="matrix(7.9702599,0,0,-7.9703395,23.39581,63.40854)"/>
<use data-text="0" xlink:href="#font_1_1" transform="matrix(7.9702599,0,0,-7.9703395,27.628018,63.40854)"/>
<use data-text="8" xlink:href="#font_1_9" transform="matrix(7.9702599,0,0,-7.9703395,23.39581,44.659975)"/>
<use data-text="0" xlink:href="#font_1_1" transform="matrix(7.9702599,0,0,-7.9703395,27.628018,44.659975)"/>
<use data-text="9" xlink:href="#font_1_10" transform="matrix(7.9702599,0,0,-7.9703395,23.39581,25.911408)"/>
<use data-text="0" xlink:href="#font_1_1" transform="matrix(7.9702599,0,0,-7.9703395,27.628018,25.911408)"/>
<use data-text="1" xlink:href="#font_1_2" transform="matrix(7.9702599,0,0,-7.9703395,19.161726,7.162842)"/>
<use data-text="0" xlink:href="#font_1_1" transform="matrix(7.9702599,0,0,-7.9703395,23.393935,7.162842)"/>
<use data-text="0" xlink:href="#font_1_1" transform="matrix(7.9702599,0,0,-7.9703395,27.626145,7.162842)"/>
<g clip-path="url(#clip_2)">
<path transform="matrix(1.00002,0,0,-1.00003,1.4613705,210.82897)" stroke-width=".99628" stroke-linecap="butt" stroke-miterlimit="10" stroke-linejoin="miter" fill="none" stroke="#9e0c0f" d="M32.10788 19.01495 32.93349 22.48306 33.75908 25.91615 34.5847 29.31421 35.41031 32.6772 36.23592 36.00513 37.06154 39.29802 37.88713 42.55586 38.71274 45.77864 39.53836 48.96638 40.36397 52.11906 41.18959 55.2367 42.01518 58.31929 42.84079 61.36682 43.66641 64.37932 44.49202 67.35675 45.31764 70.29913 46.14323 73.20648 46.96884 76.07877 47.79446 78.916 48.62007 81.71819 49.4457 84.48532 50.27129 87.21742 51.0969 89.91444 51.92252 92.57643 52.74812 95.20337 53.57375 97.79526 54.39934 100.35211 55.22495 102.87389 56.05057 105.36063 56.87617 107.81232 57.7018 110.22897 58.52739 112.61055 59.353 114.95708 60.17862 117.26857 61.00423 119.54501 61.82983 121.78642 62.65544 123.99277 63.48105 126.16402 64.30666 128.30027 65.13228 130.40146 65.95789 132.46762 66.7835 134.49869 67.6091 136.49472 68.43471 138.45575 69.26033 140.3816 70.08594 142.27254 70.91154 144.12844 71.73715 145.94915 72.56276 147.73493 73.38838 149.48557 74.21399 151.20125 75.0396 152.88191 75.8652 154.52738 76.69081 156.13788 77.51643 157.71332 78.34204 159.25373 79.16765 160.75902 79.99326 162.22934 80.81886 163.66464 81.64449 165.06476 82.4701 166.42992 83.2957 167.76001 84.1213 169.05506 84.94691 170.315 85.77254 171.53997 86.59814 172.72994 87.42374 173.88469 88.24936 175.00452 89.07497 176.08922 89.90059 177.13896 90.7262 178.1536 91.55179 179.13317 92.37741 180.07772 93.20302 180.98723 94.02863 181.86165 94.85425 182.70108 95.67984 183.5054 96.50545 184.27469 97.33107 185.00894 98.15668 185.70809 98.9823 186.37224 99.80789 187.00138 100.6335 187.59535 101.45912 188.1544 102.28473 188.67832 103.11035 189.1672 103.93594 189.62107 104.76155 190.03981 105.58717 190.42362 106.41278 190.7723 107.2384 191.08592 108.064 191.36457 108.8896 191.60808 109.71523 191.81658 110.54083 191.99002 111.36646 192.1284 112.19205 192.23178 113.01765 192.30002 113.84328 192.33329 114.66888 192.3315 115.49455 192.29463 116.32007 192.22275 117.14574 192.11576 117.97127 191.97377 118.79694 191.79673 119.6226 191.5846 120.44812 191.33747 121.27379 191.0552 122.09932 190.73798 122.92499 190.38565 123.75064 189.99828 124.57617 189.57593 125.40184 189.11844 126.22737 188.62602 127.05304 188.09842 127.87868 187.53578 128.70423 186.93814 129.52989 186.30544 130.35543 185.63773 131.18109 184.93488 132.00673 184.19696 132.83228 183.42415 133.65795 182.61618 134.48348 181.77326 135.30915 180.89511 136.13478 179.982 136.96033 179.03388 137.78598 178.05062 138.61153 177.03249 139.4372 175.97905 140.26284 174.8907 141.08838 173.76738 141.91403 172.60884 142.73958 171.41553 143.56525 170.187 144.39089 168.923 145.21642 167.6247 146.04209 166.2909 146.86763 164.92212 147.6933 163.51828 148.51894 162.07946 149.34447 160.60584 150.17014 159.09674 150.99568 157.55263 151.82134 155.9735 152.64699 154.35936 153.47252 152.71044 154.29819 151.02602 155.12374 149.30713 155.94939 147.55245 156.77504 145.76322 157.60057 143.939 158.42624 142.07929 159.25177 140.18503 160.07744 138.25553 160.90309 136.29053 161.72863 134.291 162.55429 132.25597 163.37982 130.18645 164.20549 128.08165 165.03115 125.9418 165.85668 123.76698 166.68235 121.55687 167.50788 119.31224 168.33354 117.03214 169.1592 114.71652 169.98473 112.36685 170.8104 109.98146 171.63593 107.56131 172.4616 105.10612 173.28725 102.61566 174.11278 100.09021 174.93845 97.52995 175.76398 94.93452 176.58965 92.30354 177.4153 89.63802 178.24083 86.93753 179.0665 84.20197 179.89203 81.43123 180.7177 78.6254 181.54335 75.78412 182.36888 72.90851 183.19455 69.99742 184.02008 67.05183 184.84575 64.07025 185.67139 61.05412 186.49694 58.00325 187.3226 54.91685 188.14813 51.79594 188.9738 48.63951 189.79944 45.44807 190.62499 42.22191 191.45066 38.9602 192.27619 35.66397 193.10186 32.33246 193.92749 28.96548 194.75304 25.56401 195.5787 22.127 196.40424 18.65594"/>
</g>
<path transform="matrix(1.00002,0,0,-1.00003,1.4613705,210.82897)" d="M34.10043 18.74799C34.10043 19.84845 33.20834 20.74054 32.10788 20.74054 31.0074 20.74054 30.11533 19.84845 30.11533 18.74799 30.11533 17.6475 31.0074 16.75543 32.10788 16.75543 33.20834 16.75543 34.10043 17.6475 34.10043 18.74799ZM32.10788 18.74799" fill="#9e0c0f"/>
<path transform="matrix(1.00002,0,0,-1.00003,1.4613705,210.82897)" stroke-width=".3985" stroke-linecap="butt" stroke-miterlimit="10" stroke-linejoin="miter" fill="none" stroke="#9e0c0f" d="M34.10043 18.74799C34.10043 19.84845 33.20834 20.74054 32.10788 20.74054 31.0074 20.74054 30.11533 19.84845 30.11533 18.74799 30.11533 17.6475 31.0074 16.75543 32.10788 16.75543 33.20834 16.75543 34.10043 17.6475 34.10043 18.74799ZM32.10788 18.74799"/>
<path transform="matrix(1.00002,0,0,-1.00003,1.4613705,210.82897)" d="M198.39717 18.74799C198.39717 19.84845 197.50508 20.74054 196.40462 20.74054 195.30414 20.74054 194.41207 19.84845 194.41207 18.74799 194.41207 17.6475 195.30414 16.75543 196.40462 16.75543 197.50508 16.75543 198.39717 17.6475 198.39717 18.74799ZM196.40462 18.74799" fill="#9e0c0f"/>
<path transform="matrix(1.00002,0,0,-1.00003,1.4613705,210.82897)" stroke-width=".3985" stroke-linecap="butt" stroke-miterlimit="10" stroke-linejoin="miter" fill="none" stroke="#9e0c0f" d="M198.39717 18.74799C198.39717 19.84845 197.50508 20.74054 196.40462 20.74054 195.30414 20.74054 194.41207 19.84845 194.41207 18.74799 194.41207 17.6475 195.30414 16.75543 196.40462 16.75543 197.50508 16.75543 198.39717 17.6475 198.39717 18.74799ZM196.40462 18.74799"/>
<path transform="matrix(1.00002,0,0,-1.00003,1.4613705,210.82897)" d="M36.14987 27.55952C36.14987 28.65999 35.25778 29.55208 34.15732 29.55208 33.05684 29.55208 32.16476 28.65999 32.16476 27.55952 32.16476 26.45905 33.05684 25.56697 34.15732 25.56697 35.25778 25.56697 36.14987 26.45905 36.14987 27.55952ZM34.15732 27.55952" fill="#9e0c0f"/>
<path transform="matrix(1.00002,0,0,-1.00003,1.4613705,210.82897)" stroke-width=".3985" stroke-linecap="butt" stroke-miterlimit="10" stroke-linejoin="miter" fill="none" stroke="#9e0c0f" d="M36.14987 27.55952C36.14987 28.65999 35.25778 29.55208 34.15732 29.55208 33.05684 29.55208 32.16476 28.65999 32.16476 27.55952 32.16476 26.45905 33.05684 25.56697 34.15732 25.56697 35.25778 25.56697 36.14987 26.45905 36.14987 27.55952ZM34.15732 27.55952"/>
<path transform="matrix(1.00002,0,0,-1.00003,1.4613705,210.82897)" stroke-width=".3985" stroke-linecap="butt" stroke-miterlimit="10" stroke-linejoin="miter" fill="none" stroke="#9e0c0f" d=""/>
<use data-text="t" xlink:href="#font_3_2" transform="matrix(9.962799,0,0,-9.962899,233.45,188.5603)"/>
<use data-text="H" xlink:href="#font_3_1" transform="matrix(9.962799,0,0,-9.962899,39.139123,14.92308)"/>
</svg>
