<svg xmlns="http://www.w3.org/2000/svg" xmlns:xlink="http://www.w3.org/1999/xlink" version="1.1" width="254" height="209" viewBox="0 0 254 209">
<defs>
<path id="font_1_1" d="M.69898989 .22743225C.71499636 .22743225 .7369995 .22743225 .7369995 .25042726 .7369995 .2734375 .71499636 .2734375 .69898989 .2734375H.12599182C.10998535 .2734375 .08799744 .2734375 .08799744 .25042726 .08799744 .22743225 .10998535 .22743225 .12599182 .22743225H.69898989Z"/>
<path id="font_2_3" d="M.28199769 .20405579C.2979889 .21907044 .33999635 .2520752 .35598756 .26608277 .41799928 .32312013 .47698976 .3781433 .47698976 .46917726 .47698976 .588089 .3769989 .66503909 .2519989 .66503909 .13198853 .66503909 .052993776 .57411196 .052993776 .48516847 .052993776 .4361725 .09199524 .4291687 .10598755 .4291687 .1269989 .4291687 .1579895 .4441681 .1579895 .48217774 .1579895 .5341797 .10798645 .5341797 .09599304 .5341797 .125 .6070709 .19198609 .6320343 .24099732 .6320343 .33399964 .6320343 .38198854 .55314639 .38198854 .46917726 .38198854 .36514283 .30899049 .28910829 .19099427 .16804505L.06498718 .037994386C.052993776 .026992798 .052993776 .024993897 .052993776 0H.44799806L.47698976 .17904663H.44599916C.44299317 .1590271 .43499757 .10900879 .4229889 .08999634 .4169922 .08198547 .34098817 .08198547 .32499696 .08198547H.14698792L.28199769 .20405579Z"/>
<path id="font_2_4" d="M.3939972 .6468048C.3939972 .6667938 .3939972 .6748047 .37298585 .6748047 .3600006 .6748047 .35899354 .6737976 .34899903 .65979006L.02999878 .197052V.1640625H.31199647V.08100891C.31199647 .04399109 .30899049 .032989503 .23199463 .032989503H.20899964V0C.2939911 .0029907227 .29599 .0029907227 .35299684 .0029907227 .4099884 .0029907227 .4119873 .0029907227 .49699403 0V.032989503H.47399903C.39698792 .032989503 .3939972 .04399109 .3939972 .08100891V.1640625H.5V.197052H.3939972V.6468048M.31900025 .5658417V.197052H.06498718L.31900025 .5658417Z"/>
<path id="font_2_5" d="M.13798523 .33073426C.13798523 .41377259 .14498902 .4868164 .18099976 .54782107 .21099854 .5978241 .2619934 .6390381 .32499696 .6390381 .34498597 .6390381 .3909912 .63601687 .4139862 .60084536 .36898805 .5988312 .36499024 .5648346 .36499024 .553833 .36499024 .5238342 .3880005 .50683596 .4119873 .50683596 .42999269 .50683596 .45899964 .51782229 .45899964 .5558319 .45899964 .615921 .4139862 .66503909 .32398988 .66503909 .18499756 .66503909 .04399109 .53282168 .04399109 .31672669 .04399109 .045532228 .16999817-.021484375 .2669983-.021484375 .31498719-.021484375 .36698915-.0084991459 .4119873 .03453064 .45199586 .07354736 .48599244 .11558533 .48599244 .20263672 .48599244 .33372499 .3869934 .42578126 .27598573 .42578126 .20399475 .42578126 .16099549 .37976075 .13798523 .33073426M.2669983 .008514404C.21398926 .008514404 .18099976 .045532228 .1659851 .07354736 .14299011 .11859131 .14099121 .18663025 .14099121 .22465515 .14099121 .32373048 .19499207 .3977661 .27198792 .3977661 .32199098 .3977661 .35198976 .37176515 .37098695 .33673097 .3919983 .29971314 .3919983 .25468446 .3919983 .2036438 .3919983 .15260315 .3919983 .10858154 .37199403 .07255554 .34599305 .026519776 .31098939 .008514404 .2669983 .008514404Z"/>
<path id="font_2_6" d="M.33198548 .36080934C.3880005 .38783265 .45599366 .4378662 .45599366 .5159302 .45599366 .6110077 .35899354 .66503909 .2659912 .66503909 .1599884 .66503909 .07398987 .59199526 .07398987 .49790956 .07398987 .46089173 .08699036 .42686463 .11199951 .39782716 .1289978 .3768158 .1329956 .3748169 .19499207 .3357849 .070999149 .2807312 .04399109 .20767212 .04399109 .15162659 .04399109 .041534425 .15499878-.021484375 .2639923-.021484375 .3869934-.021484375 .48599244 .061553956 .48599244 .16764832 .48599244 .23069763 .45199586 .2727356 .43598939 .28974916 .4189911 .30575563 .41799928 .3067627 .33198548 .36080934M.1769867 .45487977C.147995 .4718933 .12399292 .5009155 .12399292 .5359497 .12399292 .598999 .19299317 .6390381 .2639923 .6390381 .34199525 .6390381 .4059906 .5859833 .4059906 .5159302 .4059906 .45788575 .36099244 .408844 .3019867 .37982179L.1769867 .45487977M.22599793 .31776429C.22999573 .31576539 .34399415 .24571228 .36099244 .23469544 .3769989 .22569275 .42900086 .19366455 .42900086 .13360596 .42900086 .056549074 .34799195 .008514404 .2659912 .008514404 .1769867 .008514404 .100997928 .06956482 .100997928 .15162659 .100997928 .22668457 .15699768 .28573609 .22599793 .31776429Z"/>
<path id="font_2_2" d="M.31399537 .63708499C.31399537 .664032 .31199647 .66503909 .2849884 .66503909 .24398804 .6251831 .19099427 .6013489 .09599304 .6013489V.5683594C.12298584 .5683594 .1769867 .5683594 .23498535 .5953522V.08203125C.23498535 .04499817 .23199463 .032989503 .13699341 .032989503H.101989749V0C.14299011 .0029907227 .22898865 .0029907227 .27398683 .0029907227 .31900025 .0029907227 .4059906 .0029907227 .44699098 0V.032989503H.4119873C.31698609 .032989503 .31399537 .04499817 .31399537 .08203125V.63708499Z"/>
<path id="font_2_1" d="M.4889984 .31877137C.4889984 .42585755 .47799684 .49090577 .44499208 .55496218 .40098573 .6430359 .31999208 .66503909 .2649994 .66503909 .13899231 .66503909 .09298706 .5709839 .07899475 .5429535 .042999269 .4698944 .040985109 .3708191 .040985109 .31877137 .040985109 .25271607 .04399109 .15162659 .09199524 .07156372 .13798523-.0024871827 .21199036-.021484375 .2649994-.021484375 .31298829-.021484375 .39898683-.0064849855 .44898988 .09257507 .48599244 .16464234 .4889984 .2537079 .4889984 .31877137M.2649994 .006515503C.23098755 .006515503 .1619873 .022521973 .14099121 .12760926 .12998963 .18466187 .12998963 .2787323 .12998963 .33078004 .12998963 .3998413 .12998963 .4698944 .14099121 .5249481 .1619873 .6270294 .23999024 .6370239 .2649994 .6370239 .29899598 .6370239 .36799623 .62002566 .3880005 .5289459 .3999939 .4738922 .3999939 .39883424 .3999939 .33078004 .3999939 .27172853 .3999939 .18165589 .3880005 .12561035 .36698915 .020523072 .2979889 .006515503 .2649994 .006515503Z"/>
<path id="font_3_5" d="M.48599244 .38136292C.48999024 .39537049 .48999024 .39736939 .48999024 .40437318 .48999024 .42237855 .47599793 .43138124 .46099855 .43138124 .45098878 .43138124 .43499757 .42536927 .42599488 .41036988 .42399598 .405365 .41600038 .37435914 .4119873 .35635377 .40499879 .33035279 .397995 .30334474 .3919983 .27633668L.34700013 .09628296C.34298707 .08126831 .2999878 .011245728 .23399353 .011245728 .18299866 .011245728 .17199707 .055267335 .17199707 .0922699 .17199707 .1382904 .18899536 .20030213 .22299195 .28833009 .23899842 .3293457 .24299622 .3403473 .24299622 .36035157 .24299622 .405365 .21099854 .4423828 .16099549 .4423828 .06599426 .4423828 .0289917 .29733277 .0289917 .28833009 .0289917 .27833558 .038986207 .27833558 .040985109 .27833558 .050994874 .27833558 .051986696 .28033448 .056991579 .29634095 .083999637 .3903656 .12399292 .42037965 .1579895 .42037965 .1659851 .42037965 .18299866 .42037965 .18299866 .3883667 .18299866 .36335755 .17298889 .3373413 .1659851 .31834413 .12599182 .21231079 .10798645 .1552887 .10798645 .10827637 .10798645 .019256592 .17098999-.0107421879 .22999573-.0107421879 .2689972-.0107421879 .30299378 .0062561037 .33099366 .03425598 .31799317-.017745972 .30599977-.06674194 .2659912-.11973572 .23999024-.15385437 .20199585-.18309021 .1559906-.18309021 .14199829-.18309021 .09700012-.18005371 .07998657-.14074707 .09599304-.14074707 .10899353-.14074707 .12298584-.1287384 .1329956-.11973572 .14299011-.10673523 .14299011-.08773804 .14299011-.056747438 .115997318-.052734376 .10598755-.052734376 .08299255-.052734376 .049987794-.068740848 .049987794-.11773682 .049987794-.16796875 .09399414-.20507813 .1559906-.20507813 .25898744-.20507813 .3619995-.11373901 .3899994-.00074768069L.48599244 .38136292Z"/>
<path id="font_4_6" d="M.68699648 .32714845C.70199587 .32714845 .72099307 .32714845 .72099307 .34713746 .72099307 .36714173 .70199587 .36714173 .6879883 .36714173H.08898926C.07499695 .36714173 .055999757 .36714173 .055999757 .34713746 .055999757 .32714845 .07499695 .32714845 .08999634 .32714845H.68699648M.6879883 .13284302C.70199587 .13284302 .72099307 .13284302 .72099307 .15284729 .72099307 .17285156 .70199587 .17285156 .68699648 .17285156H.08999634C.07499695 .17285156 .055999757 .17285156 .055999757 .15284729 .055999757 .13284302 .07499695 .13284302 .08898926 .13284302H.6879883Z"/>
<path id="font_3_2" d="M.36698915 .3996582H.45298768C.47299195 .3996582 .48298646 .3996582 .48298646 .41966249 .48298646 .43066407 .47299195 .43066407 .45599366 .43066407H.37298585L.3939972 .5449524C.397995 .5660095 .4119873 .6370239 .41799928 .6490326 .4269867 .66804507 .44400025 .68307498 .46499635 .68307498 .46899415 .68307498 .49499513 .68307498 .5139923 .66503909 .46998597 .661026 .45999146 .6260376 .45999146 .6110382 .45999146 .58802798 .47799684 .57603457 .49699403 .57603457 .522995 .57603457 .5519867 .5980377 .5519867 .6360321 .5519867 .6820679 .5059967 .7050781 .46499635 .7050781 .43099977 .7050781 .36799623 .68707278 .33799745 .58802798 .33198548 .56700137 .32899476 .5569763 .30499269 .43066407H.23599243C.21699524 .43066407 .20599365 .43066407 .20599365 .4116516 .20599365 .3996582 .21499634 .3996582 .23399353 .3996582H.2999878L.22499085 .0048828127C.20698548-.09207153 .18998719-.18309021 .13798523-.18309021 .13398743-.18309021 .10899353-.18309021 .08999634-.16506958 .13598633-.1620636 .14498902-.12606812 .14498902-.111068729 .14498902-.08807373 .1269989-.07606506 .10798645-.07606506 .08198547-.07606506 .052993776-.09806824 .052993776-.13606262 .052993776-.18109131 .09700012-.20507813 .13798523-.20507813 .19299317-.20507813 .23298645-.14607239 .25099183-.108062747 .2829895-.04508972 .30599977 .07583618 .30699159 .082839969L.36698915 .3996582Z"/>
<path id="font_4_1" d="M.33099366-.2400055C.33099366-.23701477 .33099366-.23500061 .31399537-.21800232 .18899536-.0920105 .15699768 .09700012 .15699768 .25 .15699768 .42399598 .19499207 .59799197 .31799317 .72299197 .33099366 .73498538 .33099366 .7369995 .33099366 .73999026 .33099366 .746994 .32699586 .75 .32099916 .75 .31098939 .75 .22099304 .6819916 .1619873 .5549927 .11099243 .44499208 .09899902 .33399964 .09899902 .25 .09899902 .17199707 .10998535 .050994874 .16499329-.06201172 .22499085-.18501282 .31098939-.25 .32099916-.25 .32699586-.25 .33099366-.24700928 .33099366-.2400055Z"/>
<path id="font_3_4" d="M.33399964 .30233766C.33999635 .32835389 .36299134 .42037965 .43299867 .42037965 .43798829 .42037965 .46199037 .42037965 .48298646 .40734864 .45498658 .402359 .43499757 .37734986 .43499757 .35334779 .43499757 .33735658 .44599916 .31835938 .47299195 .31835938 .49499513 .31835938 .5269928 .3363495 .5269928 .37635804 .5269928 .42837525 .46798707 .4423828 .43399049 .4423828 .37599183 .4423828 .34098817 .38935853 .32899476 .36634828 .3039856 .43237306 .25 .4423828 .22099304 .4423828 .116989139 .4423828 .05999756 .3133545 .05999756 .28834535 .05999756 .27833558 .069992069 .27833558 .07199097 .27833558 .07998657 .27833558 .08299255 .28033448 .084991458 .28933717 .11898804 .39535523 .18499756 .42037965 .21899414 .42037965 .23799134 .42037965 .272995 .4113617 .272995 .35334779 .272995 .32235719 .2559967 .25532533 .21899414 .11528015 .20298767 .053268434 .16799927 .011245728 .12399292 .011245728 .117996219 .011245728 .09498596 .011245728 .07398987 .024276734 .09899902 .029266358 .12098694 .05027771 .12098694 .07827759 .12098694 .105270389 .09899902 .11328125 .083999637 .11328125 .053985597 .11328125 .0289917 .08728027 .0289917 .055267335 .0289917 .009246826 .07899475-.0107421879 .12298584-.0107421879 .18899536-.0107421879 .22499085 .059280397 .22799683 .0652771 .23999024 .028274537 .27598573-.0107421879 .33599855-.0107421879 .43899537-.0107421879 .49598695 .118270877 .49598695 .14328003 .49598695 .1532898 .4869995 .1532898 .48399354 .1532898 .47499085 .1532898 .47299195 .14929199 .47099305 .14228821 .43798829 .03527832 .36999513 .011245728 .33799745 .011245728 .29899598 .011245728 .2829895 .043273927 .2829895 .07727051 .2829895 .09927368 .2889862 .121276859 .2999878 .16529846L.33399964 .30233766Z"/>
<path id="font_4_2" d="M.2889862 .25C.2889862 .32798768 .27799989 .44898988 .22299195 .56199648 .16299439 .68499758 .07699585 .75 .066986087 .75 .06098938 .75 .056991579 .74598696 .056991579 .73999026 .056991579 .7369995 .056991579 .73498538 .07598877 .71699526 .17399597 .6179962 .23098755 .45899964 .23098755 .25 .23098755 .07899475 .19400025-.09700012 .069992069-.2230072 .056991579-.23500061 .056991579-.23701477 .056991579-.2400055 .056991579-.2460022 .06098938-.25 .066986087-.25 .07699585-.25 .16699219-.18200684 .22599793-.055007936 .2769928 .054992677 .2889862 .16600037 .2889862 .25Z"/>
<path id="font_3_3" d="M.47099305 .3773346C.47200013 .3833313 .47399903 .38833619 .47399903 .39535523 .47399903 .41236878 .46199037 .42237855 .44499208 .42237855 .43499757 .42237855 .4079895 .41537477 .4039917 .3793335 .38598634 .41636659 .35099793 .4423828 .31098939 .4423828 .19699097 .4423828 .07299805 .30226136 .07299805 .15812683 .07299805 .059020997 .13398743 0 .20599365 0 .2649994 0 .31199647 .04701233 .32199098 .058029176L.32299806 .057022096C.3019867-.031982423 .2899933-.07295227 .2899933-.07495117 .28599549-.08395386 .2519989-.18309021 .1459961-.18309021 .1269989-.18309021 .09399414-.18206787 .06599426-.17297364 .09599304-.16394043 .10699463-.13793946 .10699463-.12094116 .10699463-.10494995 .09599304-.0859375 .068984989-.0859375 .04699707-.0859375 .01499939-.10394287 .01499939-.14395142 .01499939-.18508911 .051986696-.20507813 .147995-.20507813 .272995-.20507813 .34498597-.12693787 .3600006-.06695557L.47099305 .3773346M.34098817 .12809754C.33499146 .10206604 .31199647 .077041629 .2899933 .058029176 .2689972 .040008546 .23799134 .021987915 .20899964 .021987915 .15899658 .021987915 .14399719 .074035648 .14399719 .11407471 .14399719 .16212464 .17298889 .28024293 .19999695 .33128358 .22698975 .38034059 .269989 .42037965 .31199647 .42037965 .37799073 .42037965 .3919983 .33929444 .3919983 .33428956 .3919983 .32928468 .3899994 .3232727 .3889923 .3192749L.34098817 .12809754Z"/>
<path id="font_4_3" d="M.45999146 .31976319C.45999146 .39982606 .45498658 .47988893 .41999818 .5539398 .37399293 .65000918 .2919922 .6660156 .25 .6660156 .18998719 .6660156 .116989139 .64001467 .07598877 .54693606 .04399109 .47789 .038986207 .39982606 .038986207 .31976319 .038986207 .24472046 .042999269 .15464783 .083999637 .07859802 .1269989-.0024719239 .19999695-.022460938 .24899292-.022460938 .30299378-.022460938 .3789978-.0014648438 .4229889 .09359741 .45498658 .16265869 .45999146 .2407074 .45999146 .31976319M.24899292-.00047302247C.20999146-.00047302247 .15098572 .024551392 .1329956 .12062073 .12199402 .18066406 .12199402 .2727356 .12199402 .3317871 .12199402 .39582826 .12199402 .46188355 .12998963 .5159149 .14898682 .63500979 .22399903 .64401248 .24899292 .64401248 .28199769 .64401248 .34799195 .6259918 .36698915 .52693179 .3769989 .47088624 .3769989 .39482118 .3769989 .3317871 .3769989 .25672914 .3769989 .18867493 .3659973 .12461853 .35099793 .029556275 .2939911-.00047302247 .24899292-.00047302247Z"/>
<path id="font_3_1" d="M.20298767 .0009918213C.20298767 .066986087 .17799378 .10598755 .13899231 .10598755 .10598755 .10598755 .085998538 .08099365 .085998538 .052993776 .085998538 .025985718 .10598755 0 .13899231 0 .15098572 0 .1639862 .0039978029 .17399597 .0129852299 .1769867 .01499939 .17799378 .015991211 .1789856 .015991211 .17999268 .015991211 .18099976 .01499939 .18099976 .0009918213 .18099976-.07316589 .1459961-.13328552 .11299133-.16635132 .101989749-.17736817 .101989749-.17936707 .101989749-.18237305 .101989749-.18936157 .10699463-.19335938 .11199951-.19335938 .12298584-.19335938 .20298767-.116256717 .20298767 .0009918213Z"/>
<path id="font_4_5" d="M.2939911 .16503906V.07800293C.2939911 .041992189 .2919922 .0309906 .21798706 .0309906H.19699097V0C.23799134 .0029907227 .2899933 .0029907227 .33198548 .0029907227 .37399293 .0029907227 .4269867 .0029907227 .46798707 0V.0309906H.44699098C.37298585 .0309906 .37098695 .041992189 .37098695 .07800293V.16503906H.47099305V.19602967H.37098695V.65075686C.37098695 .67074587 .37098695 .6767578 .35499574 .6767578 .34599305 .6767578 .34298707 .6767578 .33499146 .66474917L.027999878 .19602967V.16503906H.2939911M.2999878 .19602967H.055999757L.2999878 .5688019V.19602967Z"/>
<path id="font_4_4" d="M.2939911 .64004519C.2939911 .66400149 .2939911 .6660156 .2709961 .6660156 .20899964 .60227969 .12098694 .60227969 .08898926 .60227969V.57128909C.10899353 .57128909 .16799927 .57128909 .21998596 .5972748V.07902527C.21998596 .042999269 .21699524 .0309906 .1269989 .0309906H.09498596V0C.12998963 .0029907227 .21699524 .0029907227 .25698854 .0029907227 .29699708 .0029907227 .38398744 .0029907227 .4189911 0V.0309906H.3869934C.29699708 .0309906 .2939911 .041992189 .2939911 .07902527V.64004519Z"/>
</defs>
<path transform="matrix(1,0,0,-1.00003,9.167002,207.37186)" d="M0 0H239.10279V206.22882H0Z" fill="#fffac2"/>
<path transform="matrix(1,0,0,-1.00003,9.167002,207.37186)" stroke-width=".3985" stroke-linecap="butt" stroke-miterlimit="10" stroke-linejoin="miter" fill="none" stroke="#d5d6d5" d="M19.92523 0V206.22882M39.85046 0V206.22882M59.7757 0V206.22882M79.70093 0V206.22882M99.62616 0V206.22882M119.55139 0V206.22882M139.47663 0V206.22882M159.40186 0V206.22882M179.32709 0V206.22882M199.25232 0V206.22882M219.17755 0V206.22882"/>
<path transform="matrix(1,0,0,-1.00003,9.167002,207.37186)" stroke-width=".3985" stroke-linecap="butt" stroke-miterlimit="10" stroke-linejoin="miter" fill="none" stroke="#d5d6d5" d="M39.85046 0V206.22882M119.55139 0V206.22882M159.40186 0V206.22882M199.25232 0V206.22882"/>
<path transform="matrix(1,0,0,-1.00003,9.167002,207.37186)" stroke-width=".3985" stroke-linecap="butt" stroke-miterlimit="10" stroke-linejoin="miter" fill="none" stroke="#d5d6d5" d="M0 12.8893H239.10279M0 25.7786H239.10279M0 38.6679H239.10279M0 51.5572H239.10279M0 64.4465H239.10279M0 77.3358H239.10279M0 90.2251H239.10279M0 103.11441H239.10279M0 116.00371H239.10279M0 128.893H239.10279M0 141.7823H239.10279M0 154.67162H239.10279M0 167.56092H239.10279M0 180.45021H239.10279M0 193.33951H239.10279"/>
<path transform="matrix(1,0,0,-1.00003,9.167002,207.37186)" stroke-width=".3985" stroke-linecap="butt" stroke-miterlimit="10" stroke-linejoin="miter" fill="none" stroke="#d5d6d5" d="M0 51.5572H239.10279M0 77.3358H239.10279M0 103.11441H239.10279M0 128.893H239.10279M0 154.67162H239.10279M0 180.45021H239.10279"/>
<path transform="matrix(1,0,0,-1.00003,9.167002,207.37186)" stroke-width=".19925" stroke-linecap="butt" stroke-miterlimit="10" stroke-linejoin="miter" fill="none" stroke="#929292" d="M19.92523 24.36127V27.19592M39.85046 24.36127V27.19592M59.7757 24.36127V27.19592M79.70093 24.36127V27.19592M99.62616 24.36127V27.19592M119.55139 24.36127V27.19592M139.47663 24.36127V27.19592M159.40186 24.36127V27.19592M179.32709 24.36127V27.19592M199.25232 24.36127V27.19592M219.17755 24.36127V27.19592"/>
<path transform="matrix(1,0,0,-1.00003,9.167002,207.37186)" stroke-width=".19925" stroke-linecap="butt" stroke-miterlimit="10" stroke-linejoin="miter" fill="none" stroke="#929292" d="M39.85046 23.65282V27.90436M119.55139 23.65282V27.90436M159.40186 23.65282V27.90436M199.25232 23.65282V27.90436"/>
<path transform="matrix(1,0,0,-1.00003,9.167002,207.37186)" stroke-width=".19925" stroke-linecap="butt" stroke-miterlimit="10" stroke-linejoin="miter" fill="none" stroke="#929292" d="M78.28352 12.8893H81.11833M78.28352 25.7786H81.11833M78.28352 38.6679H81.11833M78.28352 51.5572H81.11833M78.28352 64.4465H81.11833M78.28352 77.3358H81.11833M78.28352 90.2251H81.11833M78.28352 103.11441H81.11833M78.28352 116.00371H81.11833M78.28352 128.893H81.11833M78.28352 141.7823H81.11833M78.28352 154.67162H81.11833M78.28352 167.56092H81.11833M78.28352 180.45021H81.11833M78.28352 193.33951H81.11833"/>
<path transform="matrix(1,0,0,-1.00003,9.167002,207.37186)" stroke-width=".19925" stroke-linecap="butt" stroke-miterlimit="10" stroke-linejoin="miter" fill="none" stroke="#929292" d="M77.57503 51.5572H81.8268M77.57503 77.3358H81.8268M77.57503 103.11441H81.8268M77.57503 128.893H81.8268M77.57503 154.67162H81.8268M77.57503 180.45021H81.8268"/>
<path transform="matrix(1,0,0,-1.00003,9.167002,207.37186)" stroke-width=".3985" stroke-linecap="butt" stroke-miterlimit="10" stroke-linejoin="miter" fill="none" stroke="#000000" d="M1.99252 25.7786H237.11026"/>
<path transform="matrix(-1,-0,0,1.00003,11.159522,181.59249)" d="M1.99252 0-1.19551 1.59401 0 0-1.19551-1.59401"/>
<path transform="matrix(1,0,0,-1.00003,246.27727,181.59249)" d="M1.99252 0-1.19551 1.59401 0 0-1.19551-1.59401"/>
<path transform="matrix(1,0,0,-1.00003,9.167002,207.37186)" stroke-width=".3985" stroke-linecap="butt" stroke-miterlimit="10" stroke-linejoin="miter" fill="none" stroke="#000000" d="M79.70093 1.99252V204.2363"/>
<path transform="matrix(0,1.00003,1,0,88.86793,205.37928)" d="M1.99252 0-1.19551 1.59401 0 0-1.19551-1.59401"/>
<path transform="matrix(0,-1.00003,-1,-0,88.86793,3.129425)" d="M1.99252 0-1.19551 1.59401 0 0-1.19551-1.59401"/>
<use data-text="&#x2212;" xlink:href="#font_1_1" transform="matrix(7.9701,0,0,-7.9703395,43.607004,192.3744)"/>
<use data-text="2" xlink:href="#font_2_3" transform="matrix(7.9701,0,0,-7.9703395,50.193,192.3744)"/>
<use data-text="2" xlink:href="#font_2_3" transform="matrix(7.9701,0,0,-7.9703395,126.601,192.3744)"/>
<use data-text="4" xlink:href="#font_2_4" transform="matrix(7.9701,0,0,-7.9703395,166.45201,192.3744)"/>
<use data-text="6" xlink:href="#font_2_5" transform="matrix(7.9701,0,0,-7.9703395,206.30199,192.3744)"/>
<use data-text="2" xlink:href="#font_2_3" transform="matrix(7.9701,0,0,-7.9703395,80.879,158.38138)"/>
<use data-text="4" xlink:href="#font_2_4" transform="matrix(7.9701,0,0,-7.9703395,80.879,132.60163)"/>
<use data-text="6" xlink:href="#font_2_5" transform="matrix(7.9701,0,0,-7.9703395,80.879,106.82284)"/>
<use data-text="8" xlink:href="#font_2_6" transform="matrix(7.9701,0,0,-7.9703395,80.879,81.043079)"/>
<use data-text="1" xlink:href="#font_2_2" transform="matrix(7.9701,0,0,-7.9703395,76.644,55.264299)"/>
<use data-text="0" xlink:href="#font_2_1" transform="matrix(7.9701,0,0,-7.9703395,80.87613,55.264299)"/>
<use data-text="1" xlink:href="#font_2_2" transform="matrix(7.9701,0,0,-7.9703395,76.644,29.484513)"/>
<use data-text="2" xlink:href="#font_2_3" transform="matrix(7.9701,0,0,-7.9703395,80.87613,29.484513)"/>
<path transform="matrix(1,0,0,-1.00003,9.167002,207.37186)" stroke-width=".99628" stroke-linecap="butt" stroke-miterlimit="10" stroke-linejoin="miter" fill="none" stroke="#9e0c0f" d="M6.8813 198.18555 11.35405 177.43459 17.56738 151.11432 23.78072 127.30055 29.99408 105.9935 36.20741 87.19315 42.42075 70.89949 48.6341 57.11264 54.84744 45.83241 61.06078 37.05888 67.27412 30.79207 73.48747 27.03198 79.70082 25.7786 85.91415 27.0319 92.12749 30.79192 98.34085 37.05862 104.55418 45.83208 110.76752 57.11221 116.98087 70.89899 123.19421 87.19254 129.40755 105.99283 135.6209 127.29977 141.83425 151.11334 148.04758 177.4338 152.52031 198.18456"/>
<path transform="matrix(-.21068,-.9775494,-.97752,.21068633,16.196742,9.869034)" d="M7.39124 0 2.37614 1.6717 .70447 0 2.37614-1.6717Z" fill="#9e0c0f"/>
<path transform="matrix(-.21068,-.9775494,-.97752,.21068633,16.196742,9.869034)" stroke-width=".99628" stroke-linecap="butt" stroke-miterlimit="10" stroke-linejoin="miter" fill="none" stroke="#9e0c0f" d="M7.39124 0 2.37614 1.6717 .70447 0 2.37614-1.6717Z"/>
<path transform="matrix(.21068,-.9775494,-.97752,-.21068633,161.5389,9.870026)" d="M7.39124 0 2.37614 1.6717 .70447 0 2.37614-1.6717Z" fill="#9e0c0f"/>
<path transform="matrix(.21068,-.9775494,-.97752,-.21068633,161.5389,9.870026)" stroke-width=".99628" stroke-linecap="butt" stroke-miterlimit="10" stroke-linejoin="miter" fill="none" stroke="#9e0c0f" d="M7.39124 0 2.37614 1.6717 .70447 0 2.37614-1.6717Z"/>
<use data-text="y" xlink:href="#font_3_5" transform="matrix(9.9626,0,0,-9.962899,1.5820007,116.44713)" fill="#9e0c0f"/>
<use data-text="=" xlink:href="#font_4_6" transform="matrix(9.9626,0,0,-9.962899,9.591,116.44713)" fill="#9e0c0f"/>
<use data-text="f" xlink:href="#font_3_2" transform="matrix(9.9626,0,0,-9.962899,20.106999,116.44713)" fill="#9e0c0f"/>
<use data-text="(" xlink:href="#font_4_1" transform="matrix(9.9626,0,0,-9.962899,26.056996,116.44713)" fill="#9e0c0f"/>
<use data-text="x" xlink:href="#font_3_4" transform="matrix(9.9626,0,0,-9.962899,29.930996,116.44713)" fill="#9e0c0f"/>
<use data-text=")" xlink:href="#font_4_2" transform="matrix(9.9626,0,0,-9.962899,35.624998,116.44713)" fill="#9e0c0f"/>
<path transform="matrix(1,0,0,-1.00003,9.167002,207.37186)" stroke-width=".99628" stroke-linecap="butt" stroke-miterlimit="10" stroke-linejoin="miter" fill="none" stroke="#008099" d="M89.3546 198.20818 93.53897 179.50066 99.52647 155.05875 105.51399 132.94457 111.5015 113.15819 117.48901 95.69962 123.47653 80.56882 129.46404 67.76584 135.45156 57.29063 141.43906 49.14328 147.42658 43.32368 153.4141 39.8319 159.4016 38.6679 165.38912 39.8317 171.37662 43.32329 177.36414 49.14268 183.35166 57.2899 189.33916 67.7649 195.32668 80.5677 201.31418 95.69829 207.3017 113.15666 213.2892 132.94286 219.27672 155.05684 225.26424 179.49869 229.4486 198.20583"/>
<path transform="matrix(-.21825,-.97585937,-.97583,.21825657,98.67536,9.8452)" d="M7.39124 0 2.37614 1.6717 .70447 0 2.37614-1.6717Z" fill="#008099"/>
<path transform="matrix(-.21825,-.97585937,-.97583,.21825657,98.67536,9.8452)" stroke-width=".99628" stroke-linecap="butt" stroke-miterlimit="10" stroke-linejoin="miter" fill="none" stroke="#008099" d="M7.39124 0 2.37614 1.6717 .70447 0 2.37614-1.6717Z"/>
<path transform="matrix(.21825,-.97585937,-.97583,-.21825657,238.46184,9.847549)" d="M7.39124 0 2.37614 1.6717 .70447 0 2.37614-1.6717Z" fill="#008099"/>
<path transform="matrix(.21825,-.97585937,-.97583,-.21825657,238.46184,9.847549)" stroke-width=".99628" stroke-linecap="butt" stroke-miterlimit="10" stroke-linejoin="miter" fill="none" stroke="#008099" d="M7.39124 0 2.37614 1.6717 .70447 0 2.37614-1.6717Z"/>
<use data-text="y" xlink:href="#font_3_5" transform="matrix(9.9626,0,0,-9.962899,216.193,108.63989)" fill="#008099"/>
<use data-text="=" xlink:href="#font_4_6" transform="matrix(9.9626,0,0,-9.962899,224.202,108.63989)" fill="#008099"/>
<use data-text="g" xlink:href="#font_3_3" transform="matrix(9.9626,0,0,-9.962899,234.71799,108.63989)" fill="#008099"/>
<use data-text="(" xlink:href="#font_4_1" transform="matrix(9.9626,0,0,-9.962899,239.827,108.63989)" fill="#008099"/>
<use data-text="x" xlink:href="#font_3_4" transform="matrix(9.9626,0,0,-9.962899,243.702,108.63989)" fill="#008099"/>
<use data-text=")" xlink:href="#font_4_2" transform="matrix(9.9626,0,0,-9.962899,249.396,108.63989)" fill="#008099"/>
<path transform="matrix(1,0,0,-1.00003,9.167002,207.37186)" stroke-width=".3985" stroke-linecap="butt" stroke-miterlimit="10" stroke-linejoin="miter" fill="none" stroke="#9e0c0f" d=""/>
<use data-text="(" xlink:href="#font_4_1" transform="matrix(9.9626,0,0,-9.962899,92.388,184.08316)" fill="#9e0c0f"/>
<use data-text="0" xlink:href="#font_4_3" transform="matrix(9.9626,0,0,-9.962899,96.253498,184.08316)" fill="#9e0c0f"/>
<use data-text="," xlink:href="#font_3_1" transform="matrix(9.9626,0,0,-9.962899,101.243007,184.08316)" fill="#9e0c0f"/>
<use data-text="0" xlink:href="#font_4_3" transform="matrix(9.9626,0,0,-9.962899,105.671009,184.08316)" fill="#9e0c0f"/>
<use data-text=")" xlink:href="#font_4_2" transform="matrix(9.9626,0,0,-9.962899,110.652309,184.08316)" fill="#9e0c0f"/>
<path transform="matrix(1,0,0,-1.00003,9.167002,207.37186)" stroke-width=".3985" stroke-linecap="butt" stroke-miterlimit="10" stroke-linejoin="miter" fill="none" stroke="#008099" d=""/>
<use data-text="(" xlink:href="#font_4_1" transform="matrix(9.9626,0,0,-9.962899,172.08899,171.19377)" fill="#008099"/>
<use data-text="4" xlink:href="#font_4_5" transform="matrix(9.9626,0,0,-9.962899,175.95449,171.19377)" fill="#008099"/>
<use data-text="," xlink:href="#font_3_1" transform="matrix(9.9626,0,0,-9.962899,180.944,171.19377)" fill="#008099"/>
<use data-text="1" xlink:href="#font_4_4" transform="matrix(9.9626,0,0,-9.962899,185.372,171.19377)" fill="#008099"/>
<use data-text=")" xlink:href="#font_4_2" transform="matrix(9.9626,0,0,-9.962899,190.3533,171.19377)" fill="#008099"/>
<path transform="matrix(1,0,0,-1.00003,9.167002,207.37186)" d="M81.69348 25.7786C81.69348 26.87906 80.80139 27.77115 79.70093 27.77115 78.60045 27.77115 77.70837 26.87906 77.70837 25.7786 77.70837 24.67813 78.60045 23.78604 79.70093 23.78604 80.80139 23.78604 81.69348 24.67813 81.69348 25.7786ZM79.70093 25.7786" fill="#9e0c0f"/>
<path transform="matrix(1,0,0,-1.00003,9.167002,207.37186)" stroke-width=".3985" stroke-linecap="butt" stroke-miterlimit="10" stroke-linejoin="miter" fill="none" stroke="#9e0c0f" d="M81.69348 25.7786C81.69348 26.87906 80.80139 27.77115 79.70093 27.77115 78.60045 27.77115 77.70837 26.87906 77.70837 25.7786 77.70837 24.67813 78.60045 23.78604 79.70093 23.78604 80.80139 23.78604 81.69348 24.67813 81.69348 25.7786ZM79.70093 25.7786"/>
<path transform="matrix(1,0,0,-1.00003,9.167002,207.37186)" stroke-width=".3985" stroke-linecap="butt" stroke-miterlimit="10" stroke-linejoin="miter" fill="none" stroke="#9e0c0f" d=""/>
<path transform="matrix(1,0,0,-1.00003,9.167002,207.37186)" d="M161.39441 38.6679C161.39441 39.76837 160.50234 40.66045 159.40186 40.66045 158.30139 40.66045 157.4093 39.76837 157.4093 38.6679 157.4093 37.56743 158.30139 36.67534 159.40186 36.67534 160.50234 36.67534 161.39441 37.56743 161.39441 38.6679ZM159.40186 38.6679" fill="#008099"/>
<path transform="matrix(1,0,0,-1.00003,9.167002,207.37186)" stroke-width=".3985" stroke-linecap="butt" stroke-miterlimit="10" stroke-linejoin="miter" fill="none" stroke="#008099" d="M161.39441 38.6679C161.39441 39.76837 160.50234 40.66045 159.40186 40.66045 158.30139 40.66045 157.4093 39.76837 157.4093 38.6679 157.4093 37.56743 158.30139 36.67534 159.40186 36.67534 160.50234 36.67534 161.39441 37.56743 161.39441 38.6679ZM159.40186 38.6679"/>
<path transform="matrix(1,0,0,-1.00003,9.167002,207.37186)" stroke-width=".3985" stroke-linecap="butt" stroke-miterlimit="10" stroke-linejoin="miter" fill="none" stroke="#008099" d=""/>
<use data-text="x" xlink:href="#font_3_4" transform="matrix(9.9626,0,0,-9.962899,239.056,178.07297)"/>
<use data-text="y" xlink:href="#font_3_5" transform="matrix(9.9626,0,0,-9.962899,92.388,8.946884)"/>
</svg>
