<svg xmlns="http://www.w3.org/2000/svg" xmlns:xlink="http://www.w3.org/1999/xlink" version="1.1" width="242" height="210" viewBox="0 0 242 210">
<defs>
<path id="font_1_2" d="M.31399537 .63708499C.31399537 .664032 .31199647 .66503909 .2849884 .66503909 .24398804 .6251831 .19099427 .6013489 .09599304 .6013489V.5683594C.12298584 .5683594 .1769867 .5683594 .23498535 .5953522V.08203125C.23498535 .04499817 .23199463 .032989503 .13699341 .032989503H.101989749V0C.14299011 .0029907227 .22898865 .0029907227 .27398683 .0029907227 .31900025 .0029907227 .4059906 .0029907227 .44699098 0V.032989503H.4119873C.31698609 .032989503 .31399537 .04499817 .31399537 .08203125V.63708499Z"/>
<path id="font_1_1" d="M.4889984 .31877137C.4889984 .42585755 .47799684 .49090577 .44499208 .55496218 .40098573 .6430359 .31999208 .66503909 .2649994 .66503909 .13899231 .66503909 .09298706 .5709839 .07899475 .5429535 .042999269 .4698944 .040985109 .3708191 .040985109 .31877137 .040985109 .25271607 .04399109 .15162659 .09199524 .07156372 .13798523-.0024871827 .21199036-.021484375 .2649994-.021484375 .31298829-.021484375 .39898683-.0064849855 .44898988 .09257507 .48599244 .16464234 .4889984 .2537079 .4889984 .31877137M.2649994 .006515503C.23098755 .006515503 .1619873 .022521973 .14099121 .12760926 .12998963 .18466187 .12998963 .2787323 .12998963 .33078004 .12998963 .3998413 .12998963 .4698944 .14099121 .5249481 .1619873 .6270294 .23999024 .6370239 .2649994 .6370239 .29899598 .6370239 .36799623 .62002566 .3880005 .5289459 .3999939 .4738922 .3999939 .39883424 .3999939 .33078004 .3999939 .27172853 .3999939 .18165589 .3880005 .12561035 .36698915 .020523072 .2979889 .006515503 .2649994 .006515503Z"/>
<path id="font_1_3" d="M.28199769 .20405579C.2979889 .21907044 .33999635 .2520752 .35598756 .26608277 .41799928 .32312013 .47698976 .3781433 .47698976 .46917726 .47698976 .588089 .3769989 .66503909 .2519989 .66503909 .13198853 .66503909 .052993776 .57411196 .052993776 .48516847 .052993776 .4361725 .09199524 .4291687 .10598755 .4291687 .1269989 .4291687 .1579895 .4441681 .1579895 .48217774 .1579895 .5341797 .10798645 .5341797 .09599304 .5341797 .125 .6070709 .19198609 .6320343 .24099732 .6320343 .33399964 .6320343 .38198854 .55314639 .38198854 .46917726 .38198854 .36514283 .30899049 .28910829 .19099427 .16804505L.06498718 .037994386C.052993776 .026992798 .052993776 .024993897 .052993776 0H.44799806L.47698976 .17904663H.44599916C.44299317 .1590271 .43499757 .10900879 .4229889 .08999634 .4169922 .08198547 .34098817 .08198547 .32499696 .08198547H.14698792L.28199769 .20405579Z"/>
<path id="font_1_4" d="M.25299073 .33370973C.33198548 .33370973 .38198854 .27557374 .38198854 .17037964 .38198854 .045440675 .31098939 .008514404 .2579956 .008514404 .20298767 .008514404 .12799073 .0284729 .09298706 .08137512 .1289978 .08137512 .1539917 .10437012 .1539917 .13737488 .1539917 .16937256 .1309967 .19238281 .09899902 .19238281 .07199097 .19238281 .04399109 .17536927 .04399109 .13537598 .04399109 .04045105 .1459961-.021484375 .2599945-.021484375 .3929901-.021484375 .48599244 .070388797 .48599244 .17037964 .48599244 .25352479 .41999818 .32969667 .31799317 .3517456 .39698792 .37982179 .45599366 .4479828 .45599366 .52804568 .45599366 .6080475 .3659973 .66503909 .2619934 .66503909 .15499878 .66503909 .07398987 .6070404 .07398987 .53105166 .07398987 .49404908 .09899902 .4780426 .125 .4780426 .1559906 .4780426 .17599488 .5000458 .17599488 .52905276 .17599488 .56604006 .14399719 .5800476 .12199402 .5810547 .1639862 .6360321 .24099732 .6390381 .25898744 .6390381 .2849884 .6390381 .36099244 .6310272 .36099244 .52804568 .36099244 .45799256 .33198548 .41589356 .31799317 .39985658 .28799439 .36878968 .2649994 .36679078 .20399475 .3627777 .18499756 .36177064 .1769867 .36076356 .1769867 .3477478 .1769867 .33370973 .18598938 .33370973 .20298767 .33370973H.25299073Z"/>
<path id="font_1_5" d="M.3939972 .6468048C.3939972 .6667938 .3939972 .6748047 .37298585 .6748047 .3600006 .6748047 .35899354 .6737976 .34899903 .65979006L.02999878 .197052V.1640625H.31199647V.08100891C.31199647 .04399109 .30899049 .032989503 .23199463 .032989503H.20899964V0C.2939911 .0029907227 .29599 .0029907227 .35299684 .0029907227 .4099884 .0029907227 .4119873 .0029907227 .49699403 0V.032989503H.47399903C.39698792 .032989503 .3939972 .04399109 .3939972 .08100891V.1640625H.5V.197052H.3939972V.6468048M.31900025 .5658417V.197052H.06498718L.31900025 .5658417Z"/>
<path id="font_1_6" d="M.13999939 .5618439C.15299988 .55784609 .19299317 .54785159 .23498535 .54785159 .3600006 .54785159 .43598939 .6358948 .43598939 .6510315 .43598939 .6620331 .42900086 .66503909 .42399598 .66503909 .42199708 .66503909 .41999818 .66503909 .41099549 .6600342 .37199403 .6450348 .32598878 .632843 .27198792 .632843 .21299744 .632843 .1639862 .6480255 .1329956 .6600342 .12298584 .66503909 .12098694 .66503909 .11999512 .66503909 .10699463 .66503909 .10699463 .6540375 .10699463 .6358948V.34292604C.10699463 .32492066 .10699463 .312912 .12298584 .312912 .1309967 .312912 .13398743 .3169098 .13899231 .32492066 .15098572 .33992005 .18899536 .39093019 .27398683 .39093019 .32998658 .39093019 .35699464 .34492494 .3659973 .32591249 .3829956 .28990174 .3849945 .24389649 .3849945 .20487976 .3849945 .1678772 .38398744 .11387634 .35598756 .069732669 .33699037 .039611818 .29699708 .008514404 .24398804 .008514404 .1789856 .008514404 .114990238 .0496521 .09199524 .11488342 .09498596 .11387634 .100997928 .11387634 .101989749 .11387634 .12998963 .11387634 .1519928 .13188172 .1519928 .16288758 .1519928 .19989014 .12298584 .21289063 .102996829 .21289063 .084991458 .21289063 .052993776 .20288086 .052993776 .15988159 .052993776 .069732669 .1309967-.021484375 .24598694-.021484375 .37098695-.021484375 .47698976 .07574463 .47698976 .19989014 .47698976 .31591798 .3929901 .4189453 .2749939 .4189453 .22499085 .4189453 .17799378 .40293885 .13999939 .368927V.5618439Z"/>
<path id="font_2_1" d="M.69898989 .22743225C.71499636 .22743225 .7369995 .22743225 .7369995 .25042726 .7369995 .2734375 .71499636 .2734375 .69898989 .2734375H.12599182C.10998535 .2734375 .08799744 .2734375 .08799744 .25042726 .08799744 .22743225 .10998535 .22743225 .12599182 .22743225H.69898989Z"/>
<path id="font_1_7" d="M.13798523 .33073426C.13798523 .41377259 .14498902 .4868164 .18099976 .54782107 .21099854 .5978241 .2619934 .6390381 .32499696 .6390381 .34498597 .6390381 .3909912 .63601687 .4139862 .60084536 .36898805 .5988312 .36499024 .5648346 .36499024 .553833 .36499024 .5238342 .3880005 .50683596 .4119873 .50683596 .42999269 .50683596 .45899964 .51782229 .45899964 .5558319 .45899964 .615921 .4139862 .66503909 .32398988 .66503909 .18499756 .66503909 .04399109 .53282168 .04399109 .31672669 .04399109 .045532228 .16999817-.021484375 .2669983-.021484375 .31498719-.021484375 .36698915-.0084991459 .4119873 .03453064 .45199586 .07354736 .48599244 .11558533 .48599244 .20263672 .48599244 .33372499 .3869934 .42578126 .27598573 .42578126 .20399475 .42578126 .16099549 .37976075 .13798523 .33073426M.2669983 .008514404C.21398926 .008514404 .18099976 .045532228 .1659851 .07354736 .14299011 .11859131 .14099121 .18663025 .14099121 .22465515 .14099121 .32373048 .19499207 .3977661 .27198792 .3977661 .32199098 .3977661 .35198976 .37176515 .37098695 .33673097 .3919983 .29971314 .3919983 .25468446 .3919983 .2036438 .3919983 .15260315 .3919983 .10858154 .37199403 .07255554 .34599305 .026519776 .31098939 .008514404 .2669983 .008514404Z"/>
<clipPath id="clip_3">
<path transform="matrix(1.00002,0,0,-1.00005,1.4613705,208.03639)" d="M0 0H239.10128V206.23003H0Z"/>
</clipPath>
<path id="font_4_1" d="M.33399964 .30233766C.33999635 .32835389 .36299134 .42037965 .43299867 .42037965 .43798829 .42037965 .46199037 .42037965 .48298646 .40734864 .45498658 .402359 .43499757 .37734986 .43499757 .35334779 .43499757 .33735658 .44599916 .31835938 .47299195 .31835938 .49499513 .31835938 .5269928 .3363495 .5269928 .37635804 .5269928 .42837525 .46798707 .4423828 .43399049 .4423828 .37599183 .4423828 .34098817 .38935853 .32899476 .36634828 .3039856 .43237306 .25 .4423828 .22099304 .4423828 .116989139 .4423828 .05999756 .3133545 .05999756 .28834535 .05999756 .27833558 .069992069 .27833558 .07199097 .27833558 .07998657 .27833558 .08299255 .28033448 .084991458 .28933717 .11898804 .39535523 .18499756 .42037965 .21899414 .42037965 .23799134 .42037965 .272995 .4113617 .272995 .35334779 .272995 .32235719 .2559967 .25532533 .21899414 .11528015 .20298767 .053268434 .16799927 .011245728 .12399292 .011245728 .117996219 .011245728 .09498596 .011245728 .07398987 .024276734 .09899902 .029266358 .12098694 .05027771 .12098694 .07827759 .12098694 .105270389 .09899902 .11328125 .083999637 .11328125 .053985597 .11328125 .0289917 .08728027 .0289917 .055267335 .0289917 .009246826 .07899475-.0107421879 .12298584-.0107421879 .18899536-.0107421879 .22499085 .059280397 .22799683 .0652771 .23999024 .028274537 .27598573-.0107421879 .33599855-.0107421879 .43899537-.0107421879 .49598695 .118270877 .49598695 .14328003 .49598695 .1532898 .4869995 .1532898 .48399354 .1532898 .47499085 .1532898 .47299195 .14929199 .47099305 .14228821 .43798829 .03527832 .36999513 .011245728 .33799745 .011245728 .29899598 .011245728 .2829895 .043273927 .2829895 .07727051 .2829895 .09927368 .2889862 .121276859 .2999878 .16529846L.33399964 .30233766Z"/>
<path id="font_4_2" d="M.48599244 .38136292C.48999024 .39537049 .48999024 .39736939 .48999024 .40437318 .48999024 .42237855 .47599793 .43138124 .46099855 .43138124 .45098878 .43138124 .43499757 .42536927 .42599488 .41036988 .42399598 .405365 .41600038 .37435914 .4119873 .35635377 .40499879 .33035279 .397995 .30334474 .3919983 .27633668L.34700013 .09628296C.34298707 .08126831 .2999878 .011245728 .23399353 .011245728 .18299866 .011245728 .17199707 .055267335 .17199707 .0922699 .17199707 .1382904 .18899536 .20030213 .22299195 .28833009 .23899842 .3293457 .24299622 .3403473 .24299622 .36035157 .24299622 .405365 .21099854 .4423828 .16099549 .4423828 .06599426 .4423828 .0289917 .29733277 .0289917 .28833009 .0289917 .27833558 .038986207 .27833558 .040985109 .27833558 .050994874 .27833558 .051986696 .28033448 .056991579 .29634095 .083999637 .3903656 .12399292 .42037965 .1579895 .42037965 .1659851 .42037965 .18299866 .42037965 .18299866 .3883667 .18299866 .36335755 .17298889 .3373413 .1659851 .31834413 .12599182 .21231079 .10798645 .1552887 .10798645 .10827637 .10798645 .019256592 .17098999-.0107421879 .22999573-.0107421879 .2689972-.0107421879 .30299378 .0062561037 .33099366 .03425598 .31799317-.017745972 .30599977-.06674194 .2659912-.11973572 .23999024-.15385437 .20199585-.18309021 .1559906-.18309021 .14199829-.18309021 .09700012-.18005371 .07998657-.14074707 .09599304-.14074707 .10899353-.14074707 .12298584-.1287384 .1329956-.11973572 .14299011-.10673523 .14299011-.08773804 .14299011-.056747438 .115997318-.052734376 .10598755-.052734376 .08299255-.052734376 .049987794-.068740848 .049987794-.11773682 .049987794-.16796875 .09399414-.20507813 .1559906-.20507813 .25898744-.20507813 .3619995-.11373901 .3899994-.00074768069L.48599244 .38136292Z"/>
</defs>
<path transform="matrix(1.00002,0,0,-1.00005,1.4613705,208.03639)" d="M0 0H239.10128V206.23003H0Z" fill="#fffac2"/>
<path transform="matrix(1.00002,0,0,-1.00005,1.4613705,208.03639)" stroke-width=".3985" stroke-linecap="butt" stroke-miterlimit="10" stroke-linejoin="miter" fill="none" stroke="#d5d6d5" d="M0 0V206.23003M34.15732 0V206.23003M68.31464 0V206.23003M102.47197 0V206.23003M136.62929 0V206.23003M170.78662 0V206.23003M204.94394 0V206.23003M239.10128 0V206.23003"/>
<path transform="matrix(1.00002,0,0,-1.00005,1.4613705,208.03639)" stroke-width=".3985" stroke-linecap="butt" stroke-miterlimit="10" stroke-linejoin="miter" fill="none" stroke="#d5d6d5" d="M68.31464 0V206.23003M102.47197 0V206.23003M136.62929 0V206.23003M170.78662 0V206.23003M204.94394 0V206.23003"/>
<path transform="matrix(1.00002,0,0,-1.00005,1.4613705,208.03639)" stroke-width=".3985" stroke-linecap="butt" stroke-miterlimit="10" stroke-linejoin="miter" fill="none" stroke="#d5d6d5" d="M0 0H239.10128M0 20.623H239.10128M0 41.246H239.10128M0 61.869H239.10128M0 82.492H239.10128M0 103.115H239.10128M0 123.73802H239.10128M0 144.36103H239.10128M0 164.98403H239.10128M0 185.60703H239.10128M0 206.23003H239.10128"/>
<path transform="matrix(1.00002,0,0,-1.00005,1.4613705,208.03639)" stroke-width=".3985" stroke-linecap="butt" stroke-miterlimit="10" stroke-linejoin="miter" fill="none" stroke="#d5d6d5" d="M0 20.623H239.10128M0 41.246H239.10128M0 61.869H239.10128M0 82.492H239.10128M0 103.115H239.10128M0 123.73802H239.10128M0 164.98403H239.10128M0 185.60703H239.10128"/>
<path transform="matrix(1.00002,0,0,-1.00005,1.4613705,208.03639)" stroke-width=".19925" stroke-linecap="butt" stroke-miterlimit="10" stroke-linejoin="miter" fill="none" stroke="#929292" d="M0 142.9436V145.77845M34.15732 142.9436V145.77845M68.31464 142.9436V145.77845M102.47197 142.9436V145.77845M136.62929 142.9436V145.77845M170.78662 142.9436V145.77845M204.94394 142.9436V145.77845M239.10128 142.9436V145.77845"/>
<path transform="matrix(1.00002,0,0,-1.00005,1.4613705,208.03639)" stroke-width=".19925" stroke-linecap="butt" stroke-miterlimit="10" stroke-linejoin="miter" fill="none" stroke="#929292" d="M68.31464 142.23509V146.48693M102.47197 142.23509V146.48693M136.62929 142.23509V146.48693M170.78662 142.23509V146.48693M204.94394 142.23509V146.48693"/>
<path transform="matrix(1.00002,0,0,-1.00005,1.4613705,208.03639)" stroke-width=".19925" stroke-linecap="butt" stroke-miterlimit="10" stroke-linejoin="miter" fill="none" stroke="#929292" d="M32.73991 0H35.57474M32.73991 20.623H35.57474M32.73991 41.246H35.57474M32.73991 61.869H35.57474M32.73991 82.492H35.57474M32.73991 103.115H35.57474M32.73991 123.73802H35.57474M32.73991 144.36103H35.57474M32.73991 164.98403H35.57474M32.73991 185.60703H35.57474M32.73991 206.23003H35.57474"/>
<path transform="matrix(1.00002,0,0,-1.00005,1.4613705,208.03639)" stroke-width=".19925" stroke-linecap="butt" stroke-miterlimit="10" stroke-linejoin="miter" fill="none" stroke="#929292" d="M32.03142 20.623H36.2832M32.03142 41.246H36.2832M32.03142 61.869H36.2832M32.03142 82.492H36.2832M32.03142 103.115H36.2832M32.03142 123.73802H36.2832M32.03142 164.98403H36.2832M32.03142 185.60703H36.2832"/>
<path transform="matrix(1.00002,0,0,-1.00005,1.4613705,208.03639)" stroke-width=".3985" stroke-linecap="butt" stroke-miterlimit="10" stroke-linejoin="miter" fill="none" stroke="#000000" d="M1.99252 144.36103H237.10875"/>
<path transform="matrix(-1.00002,-0,0,1.00005,3.4539304,63.66815)" d="M1.99252 0-1.19551 1.59401 0 0-1.19551-1.59401"/>
<path transform="matrix(1.00002,0,0,-1.00005,238.57486,63.66815)" d="M1.99252 0-1.19551 1.59401 0 0-1.19551-1.59401"/>
<path transform="matrix(1.00002,0,0,-1.00005,1.4613705,208.03639)" stroke-width=".3985" stroke-linecap="butt" stroke-miterlimit="10" stroke-linejoin="miter" fill="none" stroke="#000000" d="M34.15732 1.99252V204.2375"/>
<path transform="matrix(0,1.00005,1.00002,0,35.61937,206.04378)" d="M1.99252 0-1.19551 1.59401 0 0-1.19551-1.59401"/>
<path transform="matrix(0,-1.00005,-1.00002,-0,35.61937,3.788681)" d="M1.99252 0-1.19551 1.59401 0 0-1.19551-1.59401"/>
<use data-text="1" xlink:href="#font_1_2" transform="matrix(7.9702599,0,0,-7.970498,65.54265,74.45073)"/>
<use data-text="0" xlink:href="#font_1_1" transform="matrix(7.9702599,0,0,-7.970498,69.77486,74.45073)"/>
<use data-text="2" xlink:href="#font_1_3" transform="matrix(7.9702599,0,0,-7.970498,99.70134,74.45073)"/>
<use data-text="0" xlink:href="#font_1_1" transform="matrix(7.9702599,0,0,-7.970498,103.93355,74.45073)"/>
<use data-text="3" xlink:href="#font_1_4" transform="matrix(7.9702599,0,0,-7.970498,133.85903,74.45073)"/>
<use data-text="0" xlink:href="#font_1_1" transform="matrix(7.9702599,0,0,-7.970498,138.09123,74.45073)"/>
<use data-text="4" xlink:href="#font_1_5" transform="matrix(7.9702599,0,0,-7.970498,168.01671,74.45073)"/>
<use data-text="0" xlink:href="#font_1_1" transform="matrix(7.9702599,0,0,-7.970498,172.24892,74.45073)"/>
<use data-text="5" xlink:href="#font_1_6" transform="matrix(7.9702599,0,0,-7.970498,202.17539,74.45073)"/>
<use data-text="0" xlink:href="#font_1_1" transform="matrix(7.9702599,0,0,-7.970498,206.4076,74.45073)"/>
<use data-text="&#x2212;" xlink:href="#font_2_1" transform="matrix(7.9702599,0,0,-7.970498,21.042763,189.56546)"/>
<use data-text="6" xlink:href="#font_1_7" transform="matrix(7.9702599,0,0,-7.970498,27.629895,189.56546)"/>
<use data-text="&#x2212;" xlink:href="#font_2_1" transform="matrix(7.9702599,0,0,-7.970498,21.042763,168.94144)"/>
<use data-text="5" xlink:href="#font_1_6" transform="matrix(7.9702599,0,0,-7.970498,27.629895,168.94144)"/>
<use data-text="&#x2212;" xlink:href="#font_2_1" transform="matrix(7.9702599,0,0,-7.970498,21.042763,148.31742)"/>
<use data-text="4" xlink:href="#font_1_5" transform="matrix(7.9702599,0,0,-7.970498,27.629895,148.31742)"/>
<use data-text="&#x2212;" xlink:href="#font_2_1" transform="matrix(7.9702599,0,0,-7.970498,21.042763,127.69338)"/>
<use data-text="3" xlink:href="#font_1_4" transform="matrix(7.9702599,0,0,-7.970498,27.629895,127.69338)"/>
<use data-text="&#x2212;" xlink:href="#font_2_1" transform="matrix(7.9702599,0,0,-7.970498,21.042763,107.06935)"/>
<use data-text="2" xlink:href="#font_1_3" transform="matrix(7.9702599,0,0,-7.970498,27.629895,107.06935)"/>
<use data-text="&#x2212;" xlink:href="#font_2_1" transform="matrix(7.9702599,0,0,-7.970498,21.042763,86.44531)"/>
<use data-text="1" xlink:href="#font_1_2" transform="matrix(7.9702599,0,0,-7.970498,27.629895,86.44531)"/>
<use data-text="1" xlink:href="#font_1_2" transform="matrix(7.9702599,0,0,-7.970498,27.629895,45.612276)"/>
<use data-text="2" xlink:href="#font_1_3" transform="matrix(7.9702599,0,0,-7.970498,27.629895,24.98825)"/>
<g clip-path="url(#clip_3)">
<path transform="matrix(1.00002,0,0,-1.00005,1.4613705,208.03639)" stroke-width=".99628" stroke-linecap="butt" stroke-miterlimit="10" stroke-linejoin="miter" fill="none" stroke="#9e0c0f" d="M51.23598 143.30083 57.64047 148.58745 64.04497 153.17801 70.44948 157.07254 76.85397 160.271 83.25847 162.77342 89.66296 164.5798 96.06746 165.69014 102.47197 166.10443 108.87645 165.82266 115.28096 164.84485 121.68546 163.171 128.08997 160.8011 134.49445 157.73516 140.89896 153.97316 147.30345 149.5151 153.70796 144.36104 160.11244 138.51091 166.51696 131.96472 172.92145 124.72249 179.32595 116.78423 185.73044 108.1499 192.13494 98.81952 198.53945 88.79309 204.94394 78.07068"/>
</g>
<path transform="matrix(1.00002,0,0,-1.00005,1.4613705,208.03639)" d="M53.22853 142.29872C53.22853 143.39919 52.33646 144.29128 51.23598 144.29128 50.13551 144.29128 49.24342 143.39919 49.24342 142.29872 49.24342 141.19824 50.13551 140.30617 51.23598 140.30617 52.33646 140.30617 53.22853 141.19824 53.22853 142.29872ZM51.23598 142.29872" fill="#9e0c0f"/>
<path transform="matrix(1.00002,0,0,-1.00005,1.4613705,208.03639)" stroke-width=".3985" stroke-linecap="butt" stroke-miterlimit="10" stroke-linejoin="miter" fill="none" stroke="#9e0c0f" d="M53.22853 142.29872C53.22853 143.39919 52.33646 144.29128 51.23598 144.29128 50.13551 144.29128 49.24342 143.39919 49.24342 142.29872 49.24342 141.19824 50.13551 140.30617 51.23598 140.30617 52.33646 140.30617 53.22853 141.19824 53.22853 142.29872ZM51.23598 142.29872"/>
<path transform="matrix(1.00002,0,0,-1.00005,1.4613705,208.03639)" stroke-width=".3985" stroke-linecap="butt" stroke-miterlimit="10" stroke-linejoin="miter" fill="none" stroke="#9e0c0f" d=""/>
<path transform="matrix(1.00002,0,0,-1.00005,1.4613705,208.03639)" d="M70.30719 156.73482C70.30719 157.8353 69.41512 158.72737 68.31464 158.72737 67.21417 158.72737 66.32208 157.8353 66.32208 156.73482 66.32208 155.63436 67.21417 154.74227 68.31464 154.74227 69.41512 154.74227 70.30719 155.63436 70.30719 156.73482ZM68.31464 156.73482" fill="#9e0c0f"/>
<path transform="matrix(1.00002,0,0,-1.00005,1.4613705,208.03639)" stroke-width=".3985" stroke-linecap="butt" stroke-miterlimit="10" stroke-linejoin="miter" fill="none" stroke="#9e0c0f" d="M70.30719 156.73482C70.30719 157.8353 69.41512 158.72737 68.31464 158.72737 67.21417 158.72737 66.32208 157.8353 66.32208 156.73482 66.32208 155.63436 67.21417 154.74227 68.31464 154.74227 69.41512 154.74227 70.30719 155.63436 70.30719 156.73482ZM68.31464 156.73482"/>
<path transform="matrix(1.00002,0,0,-1.00005,1.4613705,208.03639)" stroke-width=".3985" stroke-linecap="butt" stroke-miterlimit="10" stroke-linejoin="miter" fill="none" stroke="#9e0c0f" d=""/>
<path transform="matrix(1.00002,0,0,-1.00005,1.4613705,208.03639)" d="M104.46452 167.04633C104.46452 168.14679 103.57243 169.03888 102.47197 169.03888 101.37149 169.03888 100.47942 168.14679 100.47942 167.04633 100.47942 165.94585 101.37149 165.05377 102.47197 165.05377 103.57243 165.05377 104.46452 165.94585 104.46452 167.04633ZM102.47197 167.04633" fill="#9e0c0f"/>
<path transform="matrix(1.00002,0,0,-1.00005,1.4613705,208.03639)" stroke-width=".3985" stroke-linecap="butt" stroke-miterlimit="10" stroke-linejoin="miter" fill="none" stroke="#9e0c0f" d="M104.46452 167.04633C104.46452 168.14679 103.57243 169.03888 102.47197 169.03888 101.37149 169.03888 100.47942 168.14679 100.47942 167.04633 100.47942 165.94585 101.37149 165.05377 102.47197 165.05377 103.57243 165.05377 104.46452 165.94585 104.46452 167.04633ZM102.47197 167.04633"/>
<path transform="matrix(1.00002,0,0,-1.00005,1.4613705,208.03639)" stroke-width=".3985" stroke-linecap="butt" stroke-miterlimit="10" stroke-linejoin="miter" fill="none" stroke="#9e0c0f" d=""/>
<path transform="matrix(1.00002,0,0,-1.00005,1.4613705,208.03639)" d="M138.62184 156.73482C138.62184 157.8353 137.72977 158.72737 136.62929 158.72737 135.52883 158.72737 134.63674 157.8353 134.63674 156.73482 134.63674 155.63436 135.52883 154.74227 136.62929 154.74227 137.72977 154.74227 138.62184 155.63436 138.62184 156.73482ZM136.62929 156.73482" fill="#9e0c0f"/>
<path transform="matrix(1.00002,0,0,-1.00005,1.4613705,208.03639)" stroke-width=".3985" stroke-linecap="butt" stroke-miterlimit="10" stroke-linejoin="miter" fill="none" stroke="#9e0c0f" d="M138.62184 156.73482C138.62184 157.8353 137.72977 158.72737 136.62929 158.72737 135.52883 158.72737 134.63674 157.8353 134.63674 156.73482 134.63674 155.63436 135.52883 154.74227 136.62929 154.74227 137.72977 154.74227 138.62184 155.63436 138.62184 156.73482ZM136.62929 156.73482"/>
<path transform="matrix(1.00002,0,0,-1.00005,1.4613705,208.03639)" stroke-width=".3985" stroke-linecap="butt" stroke-miterlimit="10" stroke-linejoin="miter" fill="none" stroke="#9e0c0f" d=""/>
<path transform="matrix(1.00002,0,0,-1.00005,1.4613705,208.03639)" d="M155.70052 144.36103C155.70052 145.46149 154.80843 146.35358 153.70796 146.35358 152.60749 146.35358 151.71541 145.46149 151.71541 144.36103 151.71541 143.26055 152.60749 142.36847 153.70796 142.36847 154.80843 142.36847 155.70052 143.26055 155.70052 144.36103ZM153.70796 144.36103" fill="#9e0c0f"/>
<path transform="matrix(1.00002,0,0,-1.00005,1.4613705,208.03639)" stroke-width=".3985" stroke-linecap="butt" stroke-miterlimit="10" stroke-linejoin="miter" fill="none" stroke="#9e0c0f" d="M155.70052 144.36103C155.70052 145.46149 154.80843 146.35358 153.70796 146.35358 152.60749 146.35358 151.71541 145.46149 151.71541 144.36103 151.71541 143.26055 152.60749 142.36847 153.70796 142.36847 154.80843 142.36847 155.70052 143.26055 155.70052 144.36103ZM153.70796 144.36103"/>
<path transform="matrix(1.00002,0,0,-1.00005,1.4613705,208.03639)" stroke-width=".3985" stroke-linecap="butt" stroke-miterlimit="10" stroke-linejoin="miter" fill="none" stroke="#9e0c0f" d=""/>
<path transform="matrix(1.00002,0,0,-1.00005,1.4613705,208.03639)" d="M172.77918 127.86261C172.77918 128.96309 171.88709 129.85517 170.78662 129.85517 169.68614 129.85517 168.79407 128.96309 168.79407 127.86261 168.79407 126.76215 169.68614 125.87006 170.78662 125.87006 171.88709 125.87006 172.77918 126.76215 172.77918 127.86261ZM170.78662 127.86261" fill="#9e0c0f"/>
<path transform="matrix(1.00002,0,0,-1.00005,1.4613705,208.03639)" stroke-width=".3985" stroke-linecap="butt" stroke-miterlimit="10" stroke-linejoin="miter" fill="none" stroke="#9e0c0f" d="M172.77918 127.86261C172.77918 128.96309 171.88709 129.85517 170.78662 129.85517 169.68614 129.85517 168.79407 128.96309 168.79407 127.86261 168.79407 126.76215 169.68614 125.87006 170.78662 125.87006 171.88709 125.87006 172.77918 126.76215 172.77918 127.86261ZM170.78662 127.86261"/>
<path transform="matrix(1.00002,0,0,-1.00005,1.4613705,208.03639)" stroke-width=".3985" stroke-linecap="butt" stroke-miterlimit="10" stroke-linejoin="miter" fill="none" stroke="#9e0c0f" d=""/>
<path transform="matrix(1.00002,0,0,-1.00005,1.4613705,208.03639)" d="M206.9365 78.3674C206.9365 79.46788 206.04442 80.35995 204.94394 80.35995 203.84348 80.35995 202.95139 79.46788 202.95139 78.3674 202.95139 77.26694 203.84348 76.37485 204.94394 76.37485 206.04442 76.37485 206.9365 77.26694 206.9365 78.3674ZM204.94394 78.3674" fill="#9e0c0f"/>
<path transform="matrix(1.00002,0,0,-1.00005,1.4613705,208.03639)" stroke-width=".3985" stroke-linecap="butt" stroke-miterlimit="10" stroke-linejoin="miter" fill="none" stroke="#9e0c0f" d="M206.9365 78.3674C206.9365 79.46788 206.04442 80.35995 204.94394 80.35995 203.84348 80.35995 202.95139 79.46788 202.95139 78.3674 202.95139 77.26694 203.84348 76.37485 204.94394 76.37485 206.04442 76.37485 206.9365 77.26694 206.9365 78.3674ZM204.94394 78.3674"/>
<path transform="matrix(1.00002,0,0,-1.00005,1.4613705,208.03639)" stroke-width=".3985" stroke-linecap="butt" stroke-miterlimit="10" stroke-linejoin="miter" fill="none" stroke="#9e0c0f" d=""/>
<use data-text="x" xlink:href="#font_4_1" transform="matrix(9.962799,0,0,-9.963098,231.35297,60.14801)"/>
<use data-text="y" xlink:href="#font_4_2" transform="matrix(9.962799,0,0,-9.963098,39.139123,9.605469)"/>
</svg>
