<svg xmlns="http://www.w3.org/2000/svg" xmlns:xlink="http://www.w3.org/1999/xlink" version="1.1" width="242" height="203" viewBox="0 0 242 203">
<defs>
<path id="font_1_1" d="M.69898989 .22743225C.71499636 .22743225 .7369995 .22743225 .7369995 .25042726 .7369995 .2734375 .71499636 .2734375 .69898989 .2734375H.12599182C.10998535 .2734375 .08799744 .2734375 .08799744 .25042726 .08799744 .22743225 .10998535 .22743225 .12599182 .22743225H.69898989Z"/>
<path id="font_2_3" d="M.13798523 .33073426C.13798523 .41377259 .14498902 .4868164 .18099976 .54782107 .21099854 .5978241 .2619934 .6390381 .32499696 .6390381 .34498597 .6390381 .3909912 .63601687 .4139862 .60084536 .36898805 .5988312 .36499024 .5648346 .36499024 .553833 .36499024 .5238342 .3880005 .50683596 .4119873 .50683596 .42999269 .50683596 .45899964 .51782229 .45899964 .5558319 .45899964 .615921 .4139862 .66503909 .32398988 .66503909 .18499756 .66503909 .04399109 .53282168 .04399109 .31672669 .04399109 .045532228 .16999817-.021484375 .2669983-.021484375 .31498719-.021484375 .36698915-.0084991459 .4119873 .03453064 .45199586 .07354736 .48599244 .11558533 .48599244 .20263672 .48599244 .33372499 .3869934 .42578126 .27598573 .42578126 .20399475 .42578126 .16099549 .37976075 .13798523 .33073426M.2669983 .008514404C.21398926 .008514404 .18099976 .045532228 .1659851 .07354736 .14299011 .11859131 .14099121 .18663025 .14099121 .22465515 .14099121 .32373048 .19499207 .3977661 .27198792 .3977661 .32199098 .3977661 .35198976 .37176515 .37098695 .33673097 .3919983 .29971314 .3919983 .25468446 .3919983 .2036438 .3919983 .15260315 .3919983 .10858154 .37199403 .07255554 .34599305 .026519776 .31098939 .008514404 .2669983 .008514404Z"/>
<path id="font_2_2" d="M.3939972 .6468048C.3939972 .6667938 .3939972 .6748047 .37298585 .6748047 .3600006 .6748047 .35899354 .6737976 .34899903 .65979006L.02999878 .197052V.1640625H.31199647V.08100891C.31199647 .04399109 .30899049 .032989503 .23199463 .032989503H.20899964V0C.2939911 .0029907227 .29599 .0029907227 .35299684 .0029907227 .4099884 .0029907227 .4119873 .0029907227 .49699403 0V.032989503H.47399903C.39698792 .032989503 .3939972 .04399109 .3939972 .08100891V.1640625H.5V.197052H.3939972V.6468048M.31900025 .5658417V.197052H.06498718L.31900025 .5658417Z"/>
<path id="font_2_1" d="M.28199769 .20405579C.2979889 .21907044 .33999635 .2520752 .35598756 .26608277 .41799928 .32312013 .47698976 .3781433 .47698976 .46917726 .47698976 .588089 .3769989 .66503909 .2519989 .66503909 .13198853 .66503909 .052993776 .57411196 .052993776 .48516847 .052993776 .4361725 .09199524 .4291687 .10598755 .4291687 .1269989 .4291687 .1579895 .4441681 .1579895 .48217774 .1579895 .5341797 .10798645 .5341797 .09599304 .5341797 .125 .6070709 .19198609 .6320343 .24099732 .6320343 .33399964 .6320343 .38198854 .55314639 .38198854 .46917726 .38198854 .36514283 .30899049 .28910829 .19099427 .16804505L.06498718 .037994386C.052993776 .026992798 .052993776 .024993897 .052993776 0H.44799806L.47698976 .17904663H.44599916C.44299317 .1590271 .43499757 .10900879 .4229889 .08999634 .4169922 .08198547 .34098817 .08198547 .32499696 .08198547H.14698792L.28199769 .20405579Z"/>
<clipPath id="clip_3">
<path transform="matrix(1,0,0,-1.00002,1.4610005,201.04944)" d="M0 0H239.11191V199.24929H0Z"/>
</clipPath>
<path id="font_4_1" d="M.33099366-.2400055C.33099366-.23701477 .33099366-.23500061 .31399537-.21800232 .18899536-.0920105 .15699768 .09700012 .15699768 .25 .15699768 .42399598 .19499207 .59799197 .31799317 .72299197 .33099366 .73498538 .33099366 .7369995 .33099366 .73999026 .33099366 .746994 .32699586 .75 .32099916 .75 .31098939 .75 .22099304 .6819916 .1619873 .5549927 .11099243 .44499208 .09899902 .33399964 .09899902 .25 .09899902 .17199707 .10998535 .050994874 .16499329-.06201172 .22499085-.18501282 .31098939-.25 .32099916-.25 .32699586-.25 .33099366-.24700928 .33099366-.2400055Z"/>
<path id="font_4_3" d="M.2899933 .35191346C.37199403 .37893678 .42999269 .4490509 .42999269 .52809146 .42999269 .6100464 .34199525 .6660156 .24598694 .6660156 .14498902 .6660156 .068984989 .60606387 .068984989 .53009036 .068984989 .49710084 .09098816 .47808839 .11999512 .47808839 .15098572 .47808839 .17098999 .50009158 .17098999 .5290985 .17098999 .57910159 .12399292 .57910159 .10899353 .57910159 .13999939 .62802127 .20599365 .64100649 .24198914 .64100649 .2829895 .64100649 .33799745 .6190338 .33799745 .5290985 .33799745 .51708987 .33599855 .45906068 .30999757 .4149933 .27999879 .36691285 .24598694 .36390687 .22099304 .36291505 .21299744 .36190797 .18899536 .35990907 .18199158 .35990907 .17399597 .35890199 .16699219 .35791017 .16699219 .3479004 .16699219 .33691407 .17399597 .33691407 .19099427 .33691407H.23498535C.31698609 .33691407 .35398866 .2686615 .35398866 .17037964 .35398866 .034469606 .2849884 .0055389406 .24099732 .0055389406 .19799805 .0055389406 .12298584 .022491456 .08799744 .08137512 .12298584 .07637024 .1539917 .09837341 .1539917 .1363678 .1539917 .17237854 .1269989 .19238281 .09799194 .19238281 .07398987 .19238281 .041992189 .17837525 .041992189 .1343689 .041992189 .043441774 .1349945-.022460938 .24398804-.022460938 .3659973-.022460938 .45700074 .06838989 .45700074 .17037964 .45700074 .252594 .3939972 .33088685 .2899933 .35191346Z"/>
<path id="font_5_1" d="M.20298767 .0009918213C.20298767 .066986087 .17799378 .10598755 .13899231 .10598755 .10598755 .10598755 .085998538 .08099365 .085998538 .052993776 .085998538 .025985718 .10598755 0 .13899231 0 .15098572 0 .1639862 .0039978029 .17399597 .0129852299 .1769867 .01499939 .17799378 .015991211 .1789856 .015991211 .17999268 .015991211 .18099976 .01499939 .18099976 .0009918213 .18099976-.07316589 .1459961-.13328552 .11299133-.16635132 .101989749-.17736817 .101989749-.17936707 .101989749-.18237305 .101989749-.18936157 .10699463-.19335938 .11199951-.19335938 .12298584-.19335938 .20298767-.116256717 .20298767 .0009918213Z"/>
<path id="font_6_1" d="M.6589966 .23046875C.6759949 .23046875 .69400027 .23046875 .69400027 .25045777 .69400027 .27046205 .6759949 .27046205 .6589966 .27046205H.117996219C.100997928 .27046205 .08299255 .27046205 .08299255 .25045777 .08299255 .23046875 .100997928 .23046875 .117996219 .23046875H.6589966Z"/>
<path id="font_4_4" d="M.44898988 .20022583C.44898988 .3193512 .36698915 .41944886 .25898744 .41944886 .21099854 .41944886 .16799927 .40345765 .13198853 .36842347V.5637665C.1519928 .5577698 .18499756 .55078127 .21699524 .55078127 .33999635 .55078127 .4099884 .6417694 .4099884 .6547699 .4099884 .6607666 .40699769 .6657715 .3999939 .6657715 .39898683 .6657715 .39698792 .6657715 .3919983 .66278079 .37199403 .6537781 .32299806 .6337738 .2559967 .6337738 .21598816 .6337738 .16999817 .6407776 .12298584 .6617737 .114990238 .66477969 .11299133 .66477969 .11099243 .66477969 .100997928 .66477969 .100997928 .6567688 .100997928 .6407776V.34439088C.100997928 .32637025 .100997928 .31835938 .114990238 .31835938 .12199402 .31835938 .12399292 .32136537 .12799073 .32736207 .13899231 .3433838 .17599488 .39746095 .25698854 .39746095 .30899049 .39746095 .33399964 .35139466 .34199525 .33337403 .35798646 .29632569 .3600006 .25727845 .3600006 .20722962 .3600006 .17222595 .3600006 .11222839 .33599855 .07035828 .31199647 .031463624 .2749939 .0055389406 .22898865 .0055389406 .1559906 .0055389406 .09899902 .058380128 .08198547 .11723328 .084991458 .1162262 .08799744 .115234378 .09899902 .115234378 .13198853 .115234378 .14898682 .14022827 .14898682 .16423035 .14898682 .18823242 .13198853 .21322632 .09899902 .21322632 .084991458 .21322632 .049987794 .20622254 .049987794 .16023255 .049987794 .07434082 .11898804-.022460938 .23098755-.022460938 .34700013-.022460938 .44898988 .073349 .44898988 .20022583Z"/>
<path id="font_4_2" d="M.2889862 .25C.2889862 .32798768 .27799989 .44898988 .22299195 .56199648 .16299439 .68499758 .07699585 .75 .066986087 .75 .06098938 .75 .056991579 .74598696 .056991579 .73999026 .056991579 .7369995 .056991579 .73498538 .07598877 .71699526 .17399597 .6179962 .23098755 .45899964 .23098755 .25 .23098755 .07899475 .19400025-.09700012 .069992069-.2230072 .056991579-.23500061 .056991579-.23701477 .056991579-.2400055 .056991579-.2460022 .06098938-.25 .066986087-.25 .07699585-.25 .16699219-.18200684 .22599793-.055007936 .2769928 .054992677 .2889862 .16600037 .2889862 .25Z"/>
<path id="font_5_2" d="M.33399964 .30233766C.33999635 .32835389 .36299134 .42037965 .43299867 .42037965 .43798829 .42037965 .46199037 .42037965 .48298646 .40734864 .45498658 .402359 .43499757 .37734986 .43499757 .35334779 .43499757 .33735658 .44599916 .31835938 .47299195 .31835938 .49499513 .31835938 .5269928 .3363495 .5269928 .37635804 .5269928 .42837525 .46798707 .4423828 .43399049 .4423828 .37599183 .4423828 .34098817 .38935853 .32899476 .36634828 .3039856 .43237306 .25 .4423828 .22099304 .4423828 .116989139 .4423828 .05999756 .3133545 .05999756 .28834535 .05999756 .27833558 .069992069 .27833558 .07199097 .27833558 .07998657 .27833558 .08299255 .28033448 .084991458 .28933717 .11898804 .39535523 .18499756 .42037965 .21899414 .42037965 .23799134 .42037965 .272995 .4113617 .272995 .35334779 .272995 .32235719 .2559967 .25532533 .21899414 .11528015 .20298767 .053268434 .16799927 .011245728 .12399292 .011245728 .117996219 .011245728 .09498596 .011245728 .07398987 .024276734 .09899902 .029266358 .12098694 .05027771 .12098694 .07827759 .12098694 .105270389 .09899902 .11328125 .083999637 .11328125 .053985597 .11328125 .0289917 .08728027 .0289917 .055267335 .0289917 .009246826 .07899475-.0107421879 .12298584-.0107421879 .18899536-.0107421879 .22499085 .059280397 .22799683 .0652771 .23999024 .028274537 .27598573-.0107421879 .33599855-.0107421879 .43899537-.0107421879 .49598695 .118270877 .49598695 .14328003 .49598695 .1532898 .4869995 .1532898 .48399354 .1532898 .47499085 .1532898 .47299195 .14929199 .47099305 .14228821 .43798829 .03527832 .36999513 .011245728 .33799745 .011245728 .29899598 .011245728 .2829895 .043273927 .2829895 .07727051 .2829895 .09927368 .2889862 .121276859 .2999878 .16529846L.33399964 .30233766Z"/>
<path id="font_5_3" d="M.48599244 .38136292C.48999024 .39537049 .48999024 .39736939 .48999024 .40437318 .48999024 .42237855 .47599793 .43138124 .46099855 .43138124 .45098878 .43138124 .43499757 .42536927 .42599488 .41036988 .42399598 .405365 .41600038 .37435914 .4119873 .35635377 .40499879 .33035279 .397995 .30334474 .3919983 .27633668L.34700013 .09628296C.34298707 .08126831 .2999878 .011245728 .23399353 .011245728 .18299866 .011245728 .17199707 .055267335 .17199707 .0922699 .17199707 .1382904 .18899536 .20030213 .22299195 .28833009 .23899842 .3293457 .24299622 .3403473 .24299622 .36035157 .24299622 .405365 .21099854 .4423828 .16099549 .4423828 .06599426 .4423828 .0289917 .29733277 .0289917 .28833009 .0289917 .27833558 .038986207 .27833558 .040985109 .27833558 .050994874 .27833558 .051986696 .28033448 .056991579 .29634095 .083999637 .3903656 .12399292 .42037965 .1579895 .42037965 .1659851 .42037965 .18299866 .42037965 .18299866 .3883667 .18299866 .36335755 .17298889 .3373413 .1659851 .31834413 .12599182 .21231079 .10798645 .1552887 .10798645 .10827637 .10798645 .019256592 .17098999-.0107421879 .22999573-.0107421879 .2689972-.0107421879 .30299378 .0062561037 .33099366 .03425598 .31799317-.017745972 .30599977-.06674194 .2659912-.11973572 .23999024-.15385437 .20199585-.18309021 .1559906-.18309021 .14199829-.18309021 .09700012-.18005371 .07998657-.14074707 .09599304-.14074707 .10899353-.14074707 .12298584-.1287384 .1329956-.11973572 .14299011-.10673523 .14299011-.08773804 .14299011-.056747438 .115997318-.052734376 .10598755-.052734376 .08299255-.052734376 .049987794-.068740848 .049987794-.11773682 .049987794-.16796875 .09399414-.20507813 .1559906-.20507813 .25898744-.20507813 .3619995-.11373901 .3899994-.00074768069L.48599244 .38136292Z"/>
</defs>
<path transform="matrix(1,0,0,-1.00002,1.4610005,201.04944)" d="M0 0H239.11191V199.24929H0Z" fill="#fffac2"/>
<path transform="matrix(1,0,0,-1.00002,1.4610005,201.04944)" stroke-width=".3985" stroke-linecap="butt" stroke-miterlimit="10" stroke-linejoin="miter" fill="none" stroke="#d5d6d5" d="M0 0V199.24929M17.07942 0V199.24929M34.15884 0V199.24929M51.23827 0V199.24929M68.31769 0V199.24929M85.39711 0V199.24929M102.47653 0V199.24929M119.55595 0V199.24929M136.63538 0V199.24929M153.7148 0V199.24929M170.79422 0V199.24929M187.87364 0V199.24929M204.95307 0V199.24929M222.03249 0V199.24929M239.11191 0V199.24929"/>
<path transform="matrix(1,0,0,-1.00002,1.4610005,201.04944)" stroke-width=".3985" stroke-linecap="butt" stroke-miterlimit="10" stroke-linejoin="miter" fill="none" stroke="#d5d6d5" d="M17.07942 0V199.24929M51.23827 0V199.24929M85.39711 0V199.24929M153.7148 0V199.24929M187.87364 0V199.24929M222.03249 0V199.24929"/>
<path transform="matrix(1,0,0,-1.00002,1.4610005,201.04944)" stroke-width=".3985" stroke-linecap="butt" stroke-miterlimit="10" stroke-linejoin="miter" fill="none" stroke="#d5d6d5" d="M0 0H239.11191M0 14.23209H239.11191M0 28.46417H239.11191M0 42.69627H239.11191M0 56.92836H239.11191M0 71.16045H239.11191M0 85.39255H239.11191M0 99.62463H239.11191M0 113.85674H239.11191M0 128.08882H239.11191M0 142.3209H239.11191M0 156.55301H239.11191M0 170.7851H239.11191M0 185.0172H239.11191M0 199.24929H239.11191"/>
<path transform="matrix(1,0,0,-1.00002,1.4610005,201.04944)" stroke-width=".3985" stroke-linecap="butt" stroke-miterlimit="10" stroke-linejoin="miter" fill="none" stroke="#d5d6d5" d="M0 14.23209H239.11191M0 42.69627H239.11191M0 71.16045H239.11191M0 128.08882H239.11191M0 156.55301H239.11191M0 185.0172H239.11191"/>
<path transform="matrix(1,0,0,-1.00002,1.4610005,201.04944)" stroke-width=".19925" stroke-linecap="butt" stroke-miterlimit="10" stroke-linejoin="miter" fill="none" stroke="#929292" d="M0 98.20718V101.04208M17.07942 98.20718V101.04208M34.15884 98.20718V101.04208M51.23827 98.20718V101.04208M68.31769 98.20718V101.04208M85.39711 98.20718V101.04208M102.47653 98.20718V101.04208M119.55595 98.20718V101.04208M136.63538 98.20718V101.04208M153.7148 98.20718V101.04208M170.79422 98.20718V101.04208M187.87364 98.20718V101.04208M204.95307 98.20718V101.04208M222.03249 98.20718V101.04208M239.11191 98.20718V101.04208"/>
<path transform="matrix(1,0,0,-1.00002,1.4610005,201.04944)" stroke-width=".19925" stroke-linecap="butt" stroke-miterlimit="10" stroke-linejoin="miter" fill="none" stroke="#929292" d="M17.07942 97.49869V101.75058M51.23827 97.49869V101.75058M85.39711 97.49869V101.75058M153.7148 97.49869V101.75058M187.87364 97.49869V101.75058M222.03249 97.49869V101.75058"/>
<path transform="matrix(1,0,0,-1.00002,1.4610005,201.04944)" stroke-width=".19925" stroke-linecap="butt" stroke-miterlimit="10" stroke-linejoin="miter" fill="none" stroke="#929292" d="M118.13852 0H120.97339M118.13852 14.23209H120.97339M118.13852 28.46417H120.97339M118.13852 42.69627H120.97339M118.13852 56.92836H120.97339M118.13852 71.16045H120.97339M118.13852 85.39255H120.97339M118.13852 99.62463H120.97339M118.13852 113.85674H120.97339M118.13852 128.08882H120.97339M118.13852 142.3209H120.97339M118.13852 156.55301H120.97339M118.13852 170.7851H120.97339M118.13852 185.0172H120.97339M118.13852 199.24929H120.97339"/>
<path transform="matrix(1,0,0,-1.00002,1.4610005,201.04944)" stroke-width=".19925" stroke-linecap="butt" stroke-miterlimit="10" stroke-linejoin="miter" fill="none" stroke="#929292" d="M117.43001 14.23209H121.68187M117.43001 42.69627H121.68187M117.43001 71.16045H121.68187M117.43001 128.08882H121.68187M117.43001 156.55301H121.68187M117.43001 185.0172H121.68187"/>
<path transform="matrix(1,0,0,-1.00002,1.4610005,201.04944)" stroke-width=".3985" stroke-linecap="butt" stroke-miterlimit="10" stroke-linejoin="miter" fill="none" stroke="#000000" d="M1.99252 99.62463H237.11939"/>
<path transform="matrix(-1,-0,0,1.00002,3.4535204,101.422809)" d="M1.99252 0-1.19551 1.59401 0 0-1.19551-1.59401"/>
<path transform="matrix(1,0,0,-1.00002,238.58039,101.422809)" d="M1.99252 0-1.19551 1.59401 0 0-1.19551-1.59401"/>
<path transform="matrix(1,0,0,-1.00002,1.4610005,201.04944)" stroke-width=".3985" stroke-linecap="butt" stroke-miterlimit="10" stroke-linejoin="miter" fill="none" stroke="#000000" d="M119.55595 1.99252V197.25676"/>
<path transform="matrix(0,1.00002,1,0,121.016948,199.05689)" d="M1.99252 0-1.19551 1.59401 0 0-1.19551-1.59401"/>
<path transform="matrix(0,-1.00002,-1,-0,121.016948,3.7887269)" d="M1.99252 0-1.19551 1.59401 0 0-1.19551-1.59401"/>
<use data-text="&#x2212;" xlink:href="#font_1_1" transform="matrix(7.9701,0,0,-7.9702599,13.13,112.20466)"/>
<use data-text="6" xlink:href="#font_2_3" transform="matrix(7.9701,0,0,-7.9702599,19.717,112.20466)"/>
<use data-text="&#x2212;" xlink:href="#font_1_1" transform="matrix(7.9701,0,0,-7.9702599,47.289,112.20466)"/>
<use data-text="4" xlink:href="#font_2_2" transform="matrix(7.9701,0,0,-7.9702599,53.876,112.20466)"/>
<use data-text="&#x2212;" xlink:href="#font_1_1" transform="matrix(7.9701,0,0,-7.9702599,81.448,112.20466)"/>
<use data-text="2" xlink:href="#font_2_1" transform="matrix(7.9701,0,0,-7.9702599,88.035,112.20466)"/>
<use data-text="2" xlink:href="#font_2_1" transform="matrix(7.9701,0,0,-7.9702599,153.059,112.20466)"/>
<use data-text="4" xlink:href="#font_2_2" transform="matrix(7.9701,0,0,-7.9702599,187.218,112.20466)"/>
<use data-text="6" xlink:href="#font_2_3" transform="matrix(7.9701,0,0,-7.9702599,221.37599,112.20466)"/>
<use data-text="&#x2212;" xlink:href="#font_1_1" transform="matrix(7.9701,0,0,-7.9702599,106.44101,188.9702)"/>
<use data-text="6" xlink:href="#font_2_3" transform="matrix(7.9701,0,0,-7.9702599,113.02801,188.9702)"/>
<use data-text="&#x2212;" xlink:href="#font_1_1" transform="matrix(7.9701,0,0,-7.9702599,106.44101,160.50563)"/>
<use data-text="4" xlink:href="#font_2_2" transform="matrix(7.9701,0,0,-7.9702599,113.02801,160.50563)"/>
<use data-text="&#x2212;" xlink:href="#font_1_1" transform="matrix(7.9701,0,0,-7.9702599,106.44101,132.04105)"/>
<use data-text="2" xlink:href="#font_2_1" transform="matrix(7.9701,0,0,-7.9702599,113.02801,132.04105)"/>
<use data-text="2" xlink:href="#font_2_1" transform="matrix(7.9701,0,0,-7.9702599,113.028,75.525928)"/>
<use data-text="4" xlink:href="#font_2_2" transform="matrix(7.9701,0,0,-7.9702599,113.028,47.061357)"/>
<use data-text="6" xlink:href="#font_2_3" transform="matrix(7.9701,0,0,-7.9702599,113.028,18.596787)"/>
<g clip-path="url(#clip_3)">
<path transform="matrix(1,0,0,-1.00002,1.4610005,201.04944)" stroke-width=".99628" stroke-linecap="butt" stroke-miterlimit="10" stroke-linejoin="miter" fill="none" stroke="#9e0c0f" d="M130.01419 190.98598 132.45232 171.91379 135.93795 147.01761 139.42357 124.49245 142.90918 104.33841 146.3948 86.5555 149.88042 71.14355 153.36603 58.10265 156.85166 47.43286 160.33728 39.1341 163.82289 33.20639 167.30852 29.64975 170.79413 28.46417 174.27974 29.64964 177.76538 33.20618 181.25099 39.13376 184.7366 47.43242 188.22223 58.10213 191.70784 71.1429 195.19347 86.55475 198.6791 104.33754 202.1647 124.49149 205.65032 147.01653 209.13594 171.91262 211.57407 190.9845"/>
<path transform="matrix(-.12679,-.9919199,-.9919,.12679254,131.56453,10.758423)" d="M7.39124 0 2.37614 1.6717 .70447 0 2.37614-1.6717Z" fill="#9e0c0f"/>
<path transform="matrix(-.12679,-.9919199,-.9919,.12679254,131.56453,10.758423)" stroke-width=".99628" stroke-linecap="butt" stroke-miterlimit="10" stroke-linejoin="miter" fill="none" stroke="#9e0c0f" d="M7.39124 0 2.37614 1.6717 .70447 0 2.37614-1.6717Z"/>
<path transform="matrix(.12679,-.9919199,-.9919,-.12679254,212.94573,10.759903)" d="M7.39124 0 2.37614 1.6717 .70447 0 2.37614-1.6717Z" fill="#9e0c0f"/>
<path transform="matrix(.12679,-.9919199,-.9919,-.12679254,212.94573,10.759903)" stroke-width=".99628" stroke-linecap="butt" stroke-miterlimit="10" stroke-linejoin="miter" fill="none" stroke="#9e0c0f" d="M7.39124 0 2.37614 1.6717 .70447 0 2.37614-1.6717Z"/>
<path transform="matrix(1,0,0,-1.00002,1.4610005,201.04944)" stroke-width=".3985" stroke-linecap="butt" stroke-miterlimit="10" stroke-linejoin="miter" fill="none" stroke="#008099" d=""/>
<use data-text="(" xlink:href="#font_4_1" transform="matrix(9.9626,0,0,-9.962799,157.311,183.57709)" fill="#008099"/>
<use data-text="3" xlink:href="#font_4_3" transform="matrix(9.9626,0,0,-9.962799,161.17649,183.57709)" fill="#008099"/>
<use data-text="," xlink:href="#font_5_1" transform="matrix(9.9626,0,0,-9.962799,166.16699,183.57709)" fill="#008099"/>
<use data-text="&#x2212;" xlink:href="#font_6_1" transform="matrix(9.9626,0,0,-9.962799,170.595,183.57709)" fill="#008099"/>
<use data-text="5" xlink:href="#font_4_4" transform="matrix(9.9626,0,0,-9.962799,178.343,183.57709)" fill="#008099"/>
<use data-text=")" xlink:href="#font_4_2" transform="matrix(9.9626,0,0,-9.962799,183.3243,183.57709)" fill="#008099"/>
</g>
<path transform="matrix(1,0,0,-1.00002,1.4610005,201.04944)" d="M172.78678 28.46417C172.78678 29.56465 171.89469 30.45673 170.79422 30.45673 169.69374 30.45673 168.80167 29.56465 168.80167 28.46417 168.80167 27.36371 169.69374 26.47162 170.79422 26.47162 171.89469 26.47162 172.78678 27.36371 172.78678 28.46417ZM170.79422 28.46417" fill="#008099"/>
<path transform="matrix(1,0,0,-1.00002,1.4610005,201.04944)" stroke-width=".3985" stroke-linecap="butt" stroke-miterlimit="10" stroke-linejoin="miter" fill="none" stroke="#008099" d="M172.78678 28.46417C172.78678 29.56465 171.89469 30.45673 170.79422 30.45673 169.69374 30.45673 168.80167 29.56465 168.80167 28.46417 168.80167 27.36371 169.69374 26.47162 170.79422 26.47162 171.89469 26.47162 172.78678 27.36371 172.78678 28.46417ZM170.79422 28.46417"/>
<path transform="matrix(1,0,0,-1.00002,1.4610005,201.04944)" stroke-width=".3985" stroke-linecap="butt" stroke-miterlimit="10" stroke-linejoin="miter" fill="none" stroke="#008099" d=""/>
<use data-text="x" xlink:href="#font_5_2" transform="matrix(9.9626,0,0,-9.962799,231.359,97.90337)"/>
<use data-text="y" xlink:href="#font_5_3" transform="matrix(9.9626,0,0,-9.962799,124.537,9.605606)"/>
</svg>
