<svg xmlns="http://www.w3.org/2000/svg" xmlns:xlink="http://www.w3.org/1999/xlink" version="1.1" width="242" height="210" viewBox="0 0 242 210">
<defs>
<path id="font_1_1" d="M.69898989 .22743225C.71499636 .22743225 .7369995 .22743225 .7369995 .25042726 .7369995 .2734375 .71499636 .2734375 .69898989 .2734375H.12599182C.10998535 .2734375 .08799744 .2734375 .08799744 .25042726 .08799744 .22743225 .10998535 .22743225 .12599182 .22743225H.69898989Z"/>
<path id="font_2_4" d="M.33198548 .36080934C.3880005 .38783265 .45599366 .4378662 .45599366 .5159302 .45599366 .6110077 .35899354 .66503909 .2659912 .66503909 .1599884 .66503909 .07398987 .59199526 .07398987 .49790956 .07398987 .46089173 .08699036 .42686463 .11199951 .39782716 .1289978 .3768158 .1329956 .3748169 .19499207 .3357849 .070999149 .2807312 .04399109 .20767212 .04399109 .15162659 .04399109 .041534425 .15499878-.021484375 .2639923-.021484375 .3869934-.021484375 .48599244 .061553956 .48599244 .16764832 .48599244 .23069763 .45199586 .2727356 .43598939 .28974916 .4189911 .30575563 .41799928 .3067627 .33198548 .36080934M.1769867 .45487977C.147995 .4718933 .12399292 .5009155 .12399292 .5359497 .12399292 .598999 .19299317 .6390381 .2639923 .6390381 .34199525 .6390381 .4059906 .5859833 .4059906 .5159302 .4059906 .45788575 .36099244 .408844 .3019867 .37982179L.1769867 .45487977M.22599793 .31776429C.22999573 .31576539 .34399415 .24571228 .36099244 .23469544 .3769989 .22569275 .42900086 .19366455 .42900086 .13360596 .42900086 .056549074 .34799195 .008514404 .2659912 .008514404 .1769867 .008514404 .100997928 .06956482 .100997928 .15162659 .100997928 .22668457 .15699768 .28573609 .22599793 .31776429Z"/>
<path id="font_2_3" d="M.13798523 .33073426C.13798523 .41377259 .14498902 .4868164 .18099976 .54782107 .21099854 .5978241 .2619934 .6390381 .32499696 .6390381 .34498597 .6390381 .3909912 .63601687 .4139862 .60084536 .36898805 .5988312 .36499024 .5648346 .36499024 .553833 .36499024 .5238342 .3880005 .50683596 .4119873 .50683596 .42999269 .50683596 .45899964 .51782229 .45899964 .5558319 .45899964 .615921 .4139862 .66503909 .32398988 .66503909 .18499756 .66503909 .04399109 .53282168 .04399109 .31672669 .04399109 .045532228 .16999817-.021484375 .2669983-.021484375 .31498719-.021484375 .36698915-.0084991459 .4119873 .03453064 .45199586 .07354736 .48599244 .11558533 .48599244 .20263672 .48599244 .33372499 .3869934 .42578126 .27598573 .42578126 .20399475 .42578126 .16099549 .37976075 .13798523 .33073426M.2669983 .008514404C.21398926 .008514404 .18099976 .045532228 .1659851 .07354736 .14299011 .11859131 .14099121 .18663025 .14099121 .22465515 .14099121 .32373048 .19499207 .3977661 .27198792 .3977661 .32199098 .3977661 .35198976 .37176515 .37098695 .33673097 .3919983 .29971314 .3919983 .25468446 .3919983 .2036438 .3919983 .15260315 .3919983 .10858154 .37199403 .07255554 .34599305 .026519776 .31098939 .008514404 .2669983 .008514404Z"/>
<path id="font_2_2" d="M.3939972 .6468048C.3939972 .6667938 .3939972 .6748047 .37298585 .6748047 .3600006 .6748047 .35899354 .6737976 .34899903 .65979006L.02999878 .197052V.1640625H.31199647V.08100891C.31199647 .04399109 .30899049 .032989503 .23199463 .032989503H.20899964V0C.2939911 .0029907227 .29599 .0029907227 .35299684 .0029907227 .4099884 .0029907227 .4119873 .0029907227 .49699403 0V.032989503H.47399903C.39698792 .032989503 .3939972 .04399109 .3939972 .08100891V.1640625H.5V.197052H.3939972V.6468048M.31900025 .5658417V.197052H.06498718L.31900025 .5658417Z"/>
<path id="font_2_1" d="M.28199769 .20405579C.2979889 .21907044 .33999635 .2520752 .35598756 .26608277 .41799928 .32312013 .47698976 .3781433 .47698976 .46917726 .47698976 .588089 .3769989 .66503909 .2519989 .66503909 .13198853 .66503909 .052993776 .57411196 .052993776 .48516847 .052993776 .4361725 .09199524 .4291687 .10598755 .4291687 .1269989 .4291687 .1579895 .4441681 .1579895 .48217774 .1579895 .5341797 .10798645 .5341797 .09599304 .5341797 .125 .6070709 .19198609 .6320343 .24099732 .6320343 .33399964 .6320343 .38198854 .55314639 .38198854 .46917726 .38198854 .36514283 .30899049 .28910829 .19099427 .16804505L.06498718 .037994386C.052993776 .026992798 .052993776 .024993897 .052993776 0H.44799806L.47698976 .17904663H.44599916C.44299317 .1590271 .43499757 .10900879 .4229889 .08999634 .4169922 .08198547 .34098817 .08198547 .32499696 .08198547H.14698792L.28199769 .20405579Z"/>
<clipPath id="clip_3">
<path transform="matrix(1.00003,0,0,-1.00003,1.4615555,208.02985)" d="M0 0H239.10584V206.22699H0Z"/>
</clipPath>
<path id="font_4_1" d="M.33399964 .30233766C.33999635 .32835389 .36299134 .42037965 .43299867 .42037965 .43798829 .42037965 .46199037 .42037965 .48298646 .40734864 .45498658 .402359 .43499757 .37734986 .43499757 .35334779 .43499757 .33735658 .44599916 .31835938 .47299195 .31835938 .49499513 .31835938 .5269928 .3363495 .5269928 .37635804 .5269928 .42837525 .46798707 .4423828 .43399049 .4423828 .37599183 .4423828 .34098817 .38935853 .32899476 .36634828 .3039856 .43237306 .25 .4423828 .22099304 .4423828 .116989139 .4423828 .05999756 .3133545 .05999756 .28834535 .05999756 .27833558 .069992069 .27833558 .07199097 .27833558 .07998657 .27833558 .08299255 .28033448 .084991458 .28933717 .11898804 .39535523 .18499756 .42037965 .21899414 .42037965 .23799134 .42037965 .272995 .4113617 .272995 .35334779 .272995 .32235719 .2559967 .25532533 .21899414 .11528015 .20298767 .053268434 .16799927 .011245728 .12399292 .011245728 .117996219 .011245728 .09498596 .011245728 .07398987 .024276734 .09899902 .029266358 .12098694 .05027771 .12098694 .07827759 .12098694 .105270389 .09899902 .11328125 .083999637 .11328125 .053985597 .11328125 .0289917 .08728027 .0289917 .055267335 .0289917 .009246826 .07899475-.0107421879 .12298584-.0107421879 .18899536-.0107421879 .22499085 .059280397 .22799683 .0652771 .23999024 .028274537 .27598573-.0107421879 .33599855-.0107421879 .43899537-.0107421879 .49598695 .118270877 .49598695 .14328003 .49598695 .1532898 .4869995 .1532898 .48399354 .1532898 .47499085 .1532898 .47299195 .14929199 .47099305 .14228821 .43798829 .03527832 .36999513 .011245728 .33799745 .011245728 .29899598 .011245728 .2829895 .043273927 .2829895 .07727051 .2829895 .09927368 .2889862 .121276859 .2999878 .16529846L.33399964 .30233766Z"/>
<path id="font_4_2" d="M.48599244 .38136292C.48999024 .39537049 .48999024 .39736939 .48999024 .40437318 .48999024 .42237855 .47599793 .43138124 .46099855 .43138124 .45098878 .43138124 .43499757 .42536927 .42599488 .41036988 .42399598 .405365 .41600038 .37435914 .4119873 .35635377 .40499879 .33035279 .397995 .30334474 .3919983 .27633668L.34700013 .09628296C.34298707 .08126831 .2999878 .011245728 .23399353 .011245728 .18299866 .011245728 .17199707 .055267335 .17199707 .0922699 .17199707 .1382904 .18899536 .20030213 .22299195 .28833009 .23899842 .3293457 .24299622 .3403473 .24299622 .36035157 .24299622 .405365 .21099854 .4423828 .16099549 .4423828 .06599426 .4423828 .0289917 .29733277 .0289917 .28833009 .0289917 .27833558 .038986207 .27833558 .040985109 .27833558 .050994874 .27833558 .051986696 .28033448 .056991579 .29634095 .083999637 .3903656 .12399292 .42037965 .1579895 .42037965 .1659851 .42037965 .18299866 .42037965 .18299866 .3883667 .18299866 .36335755 .17298889 .3373413 .1659851 .31834413 .12599182 .21231079 .10798645 .1552887 .10798645 .10827637 .10798645 .019256592 .17098999-.0107421879 .22999573-.0107421879 .2689972-.0107421879 .30299378 .0062561037 .33099366 .03425598 .31799317-.017745972 .30599977-.06674194 .2659912-.11973572 .23999024-.15385437 .20199585-.18309021 .1559906-.18309021 .14199829-.18309021 .09700012-.18005371 .07998657-.14074707 .09599304-.14074707 .10899353-.14074707 .12298584-.1287384 .1329956-.11973572 .14299011-.10673523 .14299011-.08773804 .14299011-.056747438 .115997318-.052734376 .10598755-.052734376 .08299255-.052734376 .049987794-.068740848 .049987794-.11773682 .049987794-.16796875 .09399414-.20507813 .1559906-.20507813 .25898744-.20507813 .3619995-.11373901 .3899994-.00074768069L.48599244 .38136292Z"/>
</defs>
<path transform="matrix(1.00003,0,0,-1.00003,1.4615555,208.02985)" d="M0 0H239.10584V206.22699H0Z" fill="#fffac2"/>
<path transform="matrix(1.00003,0,0,-1.00003,1.4615555,208.02985)" stroke-width=".3985" stroke-linecap="butt" stroke-miterlimit="10" stroke-linejoin="miter" fill="none" stroke="#d5d6d5" d="M0 0V206.22699M11.95529 0V206.22699M23.91058 0V206.22699M35.86588 0V206.22699M47.82117 0V206.22699M59.77646 0V206.22699M71.73175 0V206.22699M83.68704 0V206.22699M95.64233 0V206.22699M107.59763 0V206.22699M119.55292 0V206.22699M131.50821 0V206.22699M143.4635 0V206.22699M155.4188 0V206.22699M167.37409 0V206.22699M179.32938 0V206.22699M191.28467 0V206.22699M203.23996 0V206.22699M215.19525 0V206.22699M227.15055 0V206.22699M239.10584 0V206.22699"/>
<path transform="matrix(1.00003,0,0,-1.00003,1.4615555,208.02985)" stroke-width=".3985" stroke-linecap="butt" stroke-miterlimit="10" stroke-linejoin="miter" fill="none" stroke="#d5d6d5" d="M23.91058 0V206.22699M47.82117 0V206.22699M71.73175 0V206.22699M95.64233 0V206.22699M143.4635 0V206.22699M167.37409 0V206.22699M191.28467 0V206.22699M215.19525 0V206.22699"/>
<path transform="matrix(1.00003,0,0,-1.00003,1.4615555,208.02985)" stroke-width=".3985" stroke-linecap="butt" stroke-miterlimit="10" stroke-linejoin="miter" fill="none" stroke="#d5d6d5" d="M0 0H239.10584M0 10.31134H239.10584M0 20.6227H239.10584M0 30.93404H239.10584M0 41.24539H239.10584M0 51.55675H239.10584M0 61.86809H239.10584M0 72.17944H239.10584M0 82.4908H239.10584M0 92.80214H239.10584M0 103.1135H239.10584M0 113.42484H239.10584M0 123.73619H239.10584M0 134.04755H239.10584M0 144.35889H239.10584M0 154.67024H239.10584M0 164.9816H239.10584M0 175.29294H239.10584M0 185.6043H239.10584M0 195.91564H239.10584M0 206.22699H239.10584"/>
<path transform="matrix(1.00003,0,0,-1.00003,1.4615555,208.02985)" stroke-width=".3985" stroke-linecap="butt" stroke-miterlimit="10" stroke-linejoin="miter" fill="none" stroke="#d5d6d5" d="M0 20.6227H239.10584M0 41.24539H239.10584M0 61.86809H239.10584M0 82.4908H239.10584M0 123.73619H239.10584M0 144.35889H239.10584M0 164.9816H239.10584M0 185.6043H239.10584"/>
<path transform="matrix(1.00003,0,0,-1.00003,1.4615555,208.02985)" stroke-width=".19925" stroke-linecap="butt" stroke-miterlimit="10" stroke-linejoin="miter" fill="none" stroke="#929292" d="M0 101.69623V104.53076M11.95529 101.69623V104.53076M23.91058 101.69623V104.53076M35.86588 101.69623V104.53076M47.82117 101.69623V104.53076M59.77646 101.69623V104.53076M71.73175 101.69623V104.53076M83.68704 101.69623V104.53076M95.64233 101.69623V104.53076M107.59763 101.69623V104.53076M119.55292 101.69623V104.53076M131.50821 101.69623V104.53076M143.4635 101.69623V104.53076M155.4188 101.69623V104.53076M167.37409 101.69623V104.53076M179.32938 101.69623V104.53076M191.28467 101.69623V104.53076M203.23996 101.69623V104.53076M215.19525 101.69623V104.53076M227.15055 101.69623V104.53076M239.10584 101.69623V104.53076"/>
<path transform="matrix(1.00003,0,0,-1.00003,1.4615555,208.02985)" stroke-width=".19925" stroke-linecap="butt" stroke-miterlimit="10" stroke-linejoin="miter" fill="none" stroke="#929292" d="M23.91058 100.98778V105.23918M47.82117 100.98778V105.23918M71.73175 100.98778V105.23918M95.64233 100.98778V105.23918M143.4635 100.98778V105.23918M167.37409 100.98778V105.23918M191.28467 100.98778V105.23918M215.19525 100.98778V105.23918"/>
<path transform="matrix(1.00003,0,0,-1.00003,1.4615555,208.02985)" stroke-width=".19925" stroke-linecap="butt" stroke-miterlimit="10" stroke-linejoin="miter" fill="none" stroke="#929292" d="M118.13557 0H120.97025M118.13557 10.31134H120.97025M118.13557 20.6227H120.97025M118.13557 30.93404H120.97025M118.13557 41.24539H120.97025M118.13557 51.55675H120.97025M118.13557 61.86809H120.97025M118.13557 72.17944H120.97025M118.13557 82.4908H120.97025M118.13557 92.80214H120.97025M118.13557 103.1135H120.97025M118.13557 113.42484H120.97025M118.13557 123.73619H120.97025M118.13557 134.04755H120.97025M118.13557 144.35889H120.97025M118.13557 154.67024H120.97025M118.13557 164.9816H120.97025M118.13557 175.29294H120.97025M118.13557 185.6043H120.97025M118.13557 195.91564H120.97025M118.13557 206.22699H120.97025"/>
<path transform="matrix(1.00003,0,0,-1.00003,1.4615555,208.02985)" stroke-width=".19925" stroke-linecap="butt" stroke-miterlimit="10" stroke-linejoin="miter" fill="none" stroke="#929292" d="M117.42708 20.6227H121.67873M117.42708 41.24539H121.67873M117.42708 61.86809H121.67873M117.42708 82.4908H121.67873M117.42708 123.73619H121.67873M117.42708 144.35889H121.67873M117.42708 164.9816H121.67873M117.42708 185.6043H121.67873"/>
<path transform="matrix(1.00003,0,0,-1.00003,1.4615555,208.02985)" stroke-width=".3985" stroke-linecap="butt" stroke-miterlimit="10" stroke-linejoin="miter" fill="none" stroke="#000000" d="M1.99252 103.1135H237.11331"/>
<path transform="matrix(-1.00003,-0,0,1.00003,3.4541355,104.913249)" d="M1.99252 0-1.19551 1.59401 0 0-1.19551-1.59401"/>
<path transform="matrix(1.00003,0,0,-1.00003,238.582,104.913249)" d="M1.99252 0-1.19551 1.59401 0 0-1.19551-1.59401"/>
<path transform="matrix(1.00003,0,0,-1.00003,1.4615555,208.02985)" stroke-width=".3985" stroke-linecap="butt" stroke-miterlimit="10" stroke-linejoin="miter" fill="none" stroke="#000000" d="M119.55292 1.99252V204.23447"/>
<path transform="matrix(0,1.00003,1.00003,0,121.01807,206.03726)" d="M1.99252 0-1.19551 1.59401 0 0-1.19551-1.59401"/>
<path transform="matrix(0,-1.00003,-1.00003,-0,121.01807,3.7892457)" d="M1.99252 0-1.19551 1.59401 0 0-1.19551-1.59401"/>
<use data-text="&#x2212;" xlink:href="#font_1_1" transform="matrix(7.9703395,0,0,-7.9703395,19.96211,115.69507)"/>
<use data-text="8" xlink:href="#font_2_4" transform="matrix(7.9703395,0,0,-7.9703395,26.549309,115.69507)"/>
<use data-text="&#x2212;" xlink:href="#font_1_1" transform="matrix(7.9703395,0,0,-7.9703395,43.87383,115.69507)"/>
<use data-text="6" xlink:href="#font_2_3" transform="matrix(7.9703395,0,0,-7.9703395,50.46103,115.69507)"/>
<use data-text="&#x2212;" xlink:href="#font_1_1" transform="matrix(7.9703395,0,0,-7.9703395,67.784549,115.69507)"/>
<use data-text="4" xlink:href="#font_2_2" transform="matrix(7.9703395,0,0,-7.9703395,74.37174,115.69507)"/>
<use data-text="&#x2212;" xlink:href="#font_1_1" transform="matrix(7.9703395,0,0,-7.9703395,91.696269,115.69507)"/>
<use data-text="2" xlink:href="#font_2_1" transform="matrix(7.9703395,0,0,-7.9703395,98.28346,115.69507)"/>
<use data-text="2" xlink:href="#font_2_1" transform="matrix(7.9703395,0,0,-7.9703395,142.8118,115.69507)"/>
<use data-text="4" xlink:href="#font_2_2" transform="matrix(7.9703395,0,0,-7.9703395,166.72351,115.69507)"/>
<use data-text="6" xlink:href="#font_2_3" transform="matrix(7.9703395,0,0,-7.9703395,190.63523,115.69507)"/>
<use data-text="8" xlink:href="#font_2_4" transform="matrix(7.9703395,0,0,-7.9703395,214.54596,115.69507)"/>
<use data-text="&#x2212;" xlink:href="#font_1_1" transform="matrix(7.9703395,0,0,-7.9703395,106.4417,189.5593)"/>
<use data-text="8" xlink:href="#font_2_4" transform="matrix(7.9703395,0,0,-7.9703395,113.0289,189.5593)"/>
<use data-text="&#x2212;" xlink:href="#font_1_1" transform="matrix(7.9703395,0,0,-7.9703395,106.4417,168.93668)"/>
<use data-text="6" xlink:href="#font_2_3" transform="matrix(7.9703395,0,0,-7.9703395,113.0289,168.93668)"/>
<use data-text="&#x2212;" xlink:href="#font_1_1" transform="matrix(7.9703395,0,0,-7.9703395,106.4417,148.31305)"/>
<use data-text="4" xlink:href="#font_2_2" transform="matrix(7.9703395,0,0,-7.9703395,113.0289,148.31305)"/>
<use data-text="&#x2212;" xlink:href="#font_1_1" transform="matrix(7.9703395,0,0,-7.9703395,106.4417,127.68944)"/>
<use data-text="2" xlink:href="#font_2_1" transform="matrix(7.9703395,0,0,-7.9703395,113.0289,127.68944)"/>
<use data-text="2" xlink:href="#font_2_1" transform="matrix(7.9703395,0,0,-7.9703395,113.02891,86.8582)"/>
<use data-text="4" xlink:href="#font_2_2" transform="matrix(7.9703395,0,0,-7.9703395,113.02891,66.23459)"/>
<use data-text="6" xlink:href="#font_2_3" transform="matrix(7.9703395,0,0,-7.9703395,113.02891,45.61197)"/>
<use data-text="8" xlink:href="#font_2_4" transform="matrix(7.9703395,0,0,-7.9703395,113.02891,24.988358)"/>
<g clip-path="url(#clip_3)">
<path transform="matrix(1.00003,0,0,-1.00003,1.4615555,208.02985)" stroke-width=".99628" stroke-linecap="butt" stroke-miterlimit="10" stroke-linejoin="miter" fill="none" stroke="#9e0c0f" d="M80.5307 198.05274 83.73782 174.94257 88.08057 146.37039 92.42331 120.51924 96.76607 97.38925 101.10883 76.98044 105.45157 59.29279 109.79431 44.32632 114.13705 32.08101 118.4798 22.55685 122.82256 15.75385 127.1653 11.67201 131.50804 10.31134 135.85079 11.67181 140.19353 15.75345 144.53629 22.55626 148.87903 32.08025 153.22177 44.32533 157.56452 59.29169 161.90726 76.97911 166.25002 97.38771 170.59276 120.51747 174.9355 146.36829 179.27825 174.94042 182.48538 198.05034"/>
<path transform="matrix(-.13745412,-.99050977,-.99050977,.13745412,82.09151,10.668945)" d="M7.39124 0 2.37614 1.6717 .70447 0 2.37614-1.6717Z" fill="#9e0c0f"/>
<path transform="matrix(-.13745412,-.99050977,-.99050977,.13745412,82.09151,10.668945)" stroke-width=".99628" stroke-linecap="butt" stroke-miterlimit="10" stroke-linejoin="miter" fill="none" stroke="#9e0c0f" d="M7.39124 0 2.37614 1.6717 .70447 0 2.37614-1.6717Z"/>
<path transform="matrix(.13745412,-.99050977,-.99050977,-.13745412,183.85556,10.671341)" d="M7.39124 0 2.37614 1.6717 .70447 0 2.37614-1.6717Z" fill="#9e0c0f"/>
<path transform="matrix(.13745412,-.99050977,-.99050977,-.13745412,183.85556,10.671341)" stroke-width=".99628" stroke-linecap="butt" stroke-miterlimit="10" stroke-linejoin="miter" fill="none" stroke="#9e0c0f" d="M7.39124 0 2.37614 1.6717 .70447 0 2.37614-1.6717Z"/>
<path transform="matrix(1.00003,0,0,-1.00003,1.4615555,208.02985)" stroke-width=".99628" stroke-linecap="butt" stroke-dasharray="2.98883,2.98883" stroke-miterlimit="10" stroke-linejoin="miter" fill="none" stroke="#929292" d="M131.50821 2.8892V203.33779"/>
<path transform="matrix(0,1.00003,1.00003,0,132.97373,205.14057)" d="M2.8892 0-1.73352 2.31136 0 0-1.73352-2.31136" fill="#929292"/>
<path transform="matrix(0,-1.00003,-1.00003,-0,132.97373,4.685959)" d="M2.8892 0-1.73352 2.31136 0 0-1.73352-2.31136" fill="#929292"/>
</g>
<path transform="matrix(1.00003,0,0,-1.00003,1.4615555,208.02985)" d="M133.50077 10.31134C133.50077 11.41182 132.60868 12.3039 131.50821 12.3039 130.40773 12.3039 129.51566 11.41182 129.51566 10.31134 129.51566 9.21088 130.40773 8.31879 131.50821 8.31879 132.60868 8.31879 133.50077 9.21088 133.50077 10.31134ZM131.50821 10.31134" fill="#9e0c0f"/>
<path transform="matrix(1.00003,0,0,-1.00003,1.4615555,208.02985)" stroke-width=".3985" stroke-linecap="butt" stroke-miterlimit="10" stroke-linejoin="miter" fill="none" stroke="#9e0c0f" d="M133.50077 10.31134C133.50077 11.41182 132.60868 12.3039 131.50821 12.3039 130.40773 12.3039 129.51566 11.41182 129.51566 10.31134 129.51566 9.21088 130.40773 8.31879 131.50821 8.31879 132.60868 8.31879 133.50077 9.21088 133.50077 10.31134ZM131.50821 10.31134"/>
<path transform="matrix(1.00003,0,0,-1.00003,1.4615555,208.02985)" stroke-width=".3985" stroke-linecap="butt" stroke-miterlimit="10" stroke-linejoin="miter" fill="none" stroke="#9e0c0f" d=""/>
<path transform="matrix(1.00003,0,0,-1.00003,1.4615555,208.02985)" d="M97.63489 103.1135C97.63489 104.21396 96.7428 105.10605 95.64233 105.10605 94.54185 105.10605 93.64978 104.21396 93.64978 103.1135 93.64978 102.01302 94.54185 101.12094 95.64233 101.12094 96.7428 101.12094 97.63489 102.01302 97.63489 103.1135ZM95.64233 103.1135" fill="#9e0c0f"/>
<path transform="matrix(1.00003,0,0,-1.00003,1.4615555,208.02985)" stroke-width=".3985" stroke-linecap="butt" stroke-miterlimit="10" stroke-linejoin="miter" fill="none" stroke="#9e0c0f" d="M97.63489 103.1135C97.63489 104.21396 96.7428 105.10605 95.64233 105.10605 94.54185 105.10605 93.64978 104.21396 93.64978 103.1135 93.64978 102.01302 94.54185 101.12094 95.64233 101.12094 96.7428 101.12094 97.63489 102.01302 97.63489 103.1135ZM95.64233 103.1135"/>
<path transform="matrix(1.00003,0,0,-1.00003,1.4615555,208.02985)" stroke-width=".3985" stroke-linecap="butt" stroke-miterlimit="10" stroke-linejoin="miter" fill="none" stroke="#9e0c0f" d=""/>
<path transform="matrix(1.00003,0,0,-1.00003,1.4615555,208.02985)" d="M169.36664 103.1135C169.36664 104.21396 168.47455 105.10605 167.37409 105.10605 166.2736 105.10605 165.38153 104.21396 165.38153 103.1135 165.38153 102.01302 166.2736 101.12094 167.37409 101.12094 168.47455 101.12094 169.36664 102.01302 169.36664 103.1135ZM167.37409 103.1135" fill="#9e0c0f"/>
<path transform="matrix(1.00003,0,0,-1.00003,1.4615555,208.02985)" stroke-width=".3985" stroke-linecap="butt" stroke-miterlimit="10" stroke-linejoin="miter" fill="none" stroke="#9e0c0f" d="M169.36664 103.1135C169.36664 104.21396 168.47455 105.10605 167.37409 105.10605 166.2736 105.10605 165.38153 104.21396 165.38153 103.1135 165.38153 102.01302 166.2736 101.12094 167.37409 101.12094 168.47455 101.12094 169.36664 102.01302 169.36664 103.1135ZM167.37409 103.1135"/>
<path transform="matrix(1.00003,0,0,-1.00003,1.4615555,208.02985)" stroke-width=".3985" stroke-linecap="butt" stroke-miterlimit="10" stroke-linejoin="miter" fill="none" stroke="#9e0c0f" d=""/>
<path transform="matrix(1.00003,0,0,-1.00003,1.4615555,208.02985)" d="M121.54547 20.6227C121.54547 21.72316 120.65338 22.61525 119.55292 22.61525 118.45244 22.61525 117.56036 21.72316 117.56036 20.6227 117.56036 19.52222 118.45244 18.63014 119.55292 18.63014 120.65338 18.63014 121.54547 19.52222 121.54547 20.6227ZM119.55292 20.6227" fill="#9e0c0f"/>
<path transform="matrix(1.00003,0,0,-1.00003,1.4615555,208.02985)" stroke-width=".3985" stroke-linecap="butt" stroke-miterlimit="10" stroke-linejoin="miter" fill="none" stroke="#9e0c0f" d="M121.54547 20.6227C121.54547 21.72316 120.65338 22.61525 119.55292 22.61525 118.45244 22.61525 117.56036 21.72316 117.56036 20.6227 117.56036 19.52222 118.45244 18.63014 119.55292 18.63014 120.65338 18.63014 121.54547 19.52222 121.54547 20.6227ZM119.55292 20.6227"/>
<path transform="matrix(1.00003,0,0,-1.00003,1.4615555,208.02985)" stroke-width=".3985" stroke-linecap="butt" stroke-miterlimit="10" stroke-linejoin="miter" fill="none" stroke="#9e0c0f" d=""/>
<use data-text="x" xlink:href="#font_4_1" transform="matrix(9.962899,0,0,-9.962899,231.36048,101.39364)"/>
<use data-text="y" xlink:href="#font_4_2" transform="matrix(9.962899,0,0,-9.962899,124.53825,9.605881)"/>
</svg>
