<svg xmlns="http://www.w3.org/2000/svg" xmlns:xlink="http://www.w3.org/1999/xlink" version="1.1" width="248" height="209" viewBox="0 0 248 209">
<defs>
<path id="font_1_1" d="M.69898989 .22743225C.71499636 .22743225 .7369995 .22743225 .7369995 .25042726 .7369995 .2734375 .71499636 .2734375 .69898989 .2734375H.12599182C.10998535 .2734375 .08799744 .2734375 .08799744 .25042726 .08799744 .22743225 .10998535 .22743225 .12599182 .22743225H.69898989Z"/>
<path id="font_2_2" d="M.28199769 .20405579C.2979889 .21907044 .33999635 .2520752 .35598756 .26608277 .41799928 .32312013 .47698976 .3781433 .47698976 .46917726 .47698976 .588089 .3769989 .66503909 .2519989 .66503909 .13198853 .66503909 .052993776 .57411196 .052993776 .48516847 .052993776 .4361725 .09199524 .4291687 .10598755 .4291687 .1269989 .4291687 .1579895 .4441681 .1579895 .48217774 .1579895 .5341797 .10798645 .5341797 .09599304 .5341797 .125 .6070709 .19198609 .6320343 .24099732 .6320343 .33399964 .6320343 .38198854 .55314639 .38198854 .46917726 .38198854 .36514283 .30899049 .28910829 .19099427 .16804505L.06498718 .037994386C.052993776 .026992798 .052993776 .024993897 .052993776 0H.44799806L.47698976 .17904663H.44599916C.44299317 .1590271 .43499757 .10900879 .4229889 .08999634 .4169922 .08198547 .34098817 .08198547 .32499696 .08198547H.14698792L.28199769 .20405579Z"/>
<path id="font_2_3" d="M.3939972 .6468048C.3939972 .6667938 .3939972 .6748047 .37298585 .6748047 .3600006 .6748047 .35899354 .6737976 .34899903 .65979006L.02999878 .197052V.1640625H.31199647V.08100891C.31199647 .04399109 .30899049 .032989503 .23199463 .032989503H.20899964V0C.2939911 .0029907227 .29599 .0029907227 .35299684 .0029907227 .4099884 .0029907227 .4119873 .0029907227 .49699403 0V.032989503H.47399903C.39698792 .032989503 .3939972 .04399109 .3939972 .08100891V.1640625H.5V.197052H.3939972V.6468048M.31900025 .5658417V.197052H.06498718L.31900025 .5658417Z"/>
<path id="font_2_4" d="M.13798523 .33073426C.13798523 .41377259 .14498902 .4868164 .18099976 .54782107 .21099854 .5978241 .2619934 .6390381 .32499696 .6390381 .34498597 .6390381 .3909912 .63601687 .4139862 .60084536 .36898805 .5988312 .36499024 .5648346 .36499024 .553833 .36499024 .5238342 .3880005 .50683596 .4119873 .50683596 .42999269 .50683596 .45899964 .51782229 .45899964 .5558319 .45899964 .615921 .4139862 .66503909 .32398988 .66503909 .18499756 .66503909 .04399109 .53282168 .04399109 .31672669 .04399109 .045532228 .16999817-.021484375 .2669983-.021484375 .31498719-.021484375 .36698915-.0084991459 .4119873 .03453064 .45199586 .07354736 .48599244 .11558533 .48599244 .20263672 .48599244 .33372499 .3869934 .42578126 .27598573 .42578126 .20399475 .42578126 .16099549 .37976075 .13798523 .33073426M.2669983 .008514404C.21398926 .008514404 .18099976 .045532228 .1659851 .07354736 .14299011 .11859131 .14099121 .18663025 .14099121 .22465515 .14099121 .32373048 .19499207 .3977661 .27198792 .3977661 .32199098 .3977661 .35198976 .37176515 .37098695 .33673097 .3919983 .29971314 .3919983 .25468446 .3919983 .2036438 .3919983 .15260315 .3919983 .10858154 .37199403 .07255554 .34599305 .026519776 .31098939 .008514404 .2669983 .008514404Z"/>
<path id="font_2_1" d="M.4889984 .31877137C.4889984 .42585755 .47799684 .49090577 .44499208 .55496218 .40098573 .6430359 .31999208 .66503909 .2649994 .66503909 .13899231 .66503909 .09298706 .5709839 .07899475 .5429535 .042999269 .4698944 .040985109 .3708191 .040985109 .31877137 .040985109 .25271607 .04399109 .15162659 .09199524 .07156372 .13798523-.0024871827 .21199036-.021484375 .2649994-.021484375 .31298829-.021484375 .39898683-.0064849855 .44898988 .09257507 .48599244 .16464234 .4889984 .2537079 .4889984 .31877137M.2649994 .006515503C.23098755 .006515503 .1619873 .022521973 .14099121 .12760926 .12998963 .18466187 .12998963 .2787323 .12998963 .33078004 .12998963 .3998413 .12998963 .4698944 .14099121 .5249481 .1619873 .6270294 .23999024 .6370239 .2649994 .6370239 .29899598 .6370239 .36799623 .62002566 .3880005 .5289459 .3999939 .4738922 .3999939 .39883424 .3999939 .33078004 .3999939 .27172853 .3999939 .18165589 .3880005 .12561035 .36698915 .020523072 .2979889 .006515503 .2649994 .006515503Z"/>
<clipPath id="clip_3">
<path transform="matrix(1.00003,0,0,-1.00002,5.9928095,208.02457)" d="M0 0H239.09671V206.22547H0Z"/>
</clipPath>
<path id="font_4_1" d="M.33099366-.2400055C.33099366-.23701477 .33099366-.23500061 .31399537-.21800232 .18899536-.0920105 .15699768 .09700012 .15699768 .25 .15699768 .42399598 .19499207 .59799197 .31799317 .72299197 .33099366 .73498538 .33099366 .7369995 .33099366 .73999026 .33099366 .746994 .32699586 .75 .32099916 .75 .31098939 .75 .22099304 .6819916 .1619873 .5549927 .11099243 .44499208 .09899902 .33399964 .09899902 .25 .09899902 .17199707 .10998535 .050994874 .16499329-.06201172 .22499085-.18501282 .31098939-.25 .32099916-.25 .32699586-.25 .33099366-.24700928 .33099366-.2400055Z"/>
<path id="font_4_3" d="M.45999146 .31976319C.45999146 .39982606 .45498658 .47988893 .41999818 .5539398 .37399293 .65000918 .2919922 .6660156 .25 .6660156 .18998719 .6660156 .116989139 .64001467 .07598877 .54693606 .04399109 .47789 .038986207 .39982606 .038986207 .31976319 .038986207 .24472046 .042999269 .15464783 .083999637 .07859802 .1269989-.0024719239 .19999695-.022460938 .24899292-.022460938 .30299378-.022460938 .3789978-.0014648438 .4229889 .09359741 .45498658 .16265869 .45999146 .2407074 .45999146 .31976319M.24899292-.00047302247C.20999146-.00047302247 .15098572 .024551392 .1329956 .12062073 .12199402 .18066406 .12199402 .2727356 .12199402 .3317871 .12199402 .39582826 .12199402 .46188355 .12998963 .5159149 .14898682 .63500979 .22399903 .64401248 .24899292 .64401248 .28199769 .64401248 .34799195 .6259918 .36698915 .52693179 .3769989 .47088624 .3769989 .39482118 .3769989 .3317871 .3769989 .25672914 .3769989 .18867493 .3659973 .12461853 .35099793 .029556275 .2939911-.00047302247 .24899292-.00047302247Z"/>
<path id="font_5_1" d="M.20298767 .0009918213C.20298767 .066986087 .17799378 .10598755 .13899231 .10598755 .10598755 .10598755 .085998538 .08099365 .085998538 .052993776 .085998538 .025985718 .10598755 0 .13899231 0 .15098572 0 .1639862 .0039978029 .17399597 .0129852299 .1769867 .01499939 .17799378 .015991211 .1789856 .015991211 .17999268 .015991211 .18099976 .01499939 .18099976 .0009918213 .18099976-.07316589 .1459961-.13328552 .11299133-.16635132 .101989749-.17736817 .101989749-.17936707 .101989749-.18237305 .101989749-.18936157 .10699463-.19335938 .11199951-.19335938 .12298584-.19335938 .20298767-.116256717 .20298767 .0009918213Z"/>
<path id="font_4_2" d="M.2889862 .25C.2889862 .32798768 .27799989 .44898988 .22299195 .56199648 .16299439 .68499758 .07699585 .75 .066986087 .75 .06098938 .75 .056991579 .74598696 .056991579 .73999026 .056991579 .7369995 .056991579 .73498538 .07598877 .71699526 .17399597 .6179962 .23098755 .45899964 .23098755 .25 .23098755 .07899475 .19400025-.09700012 .069992069-.2230072 .056991579-.23500061 .056991579-.23701477 .056991579-.2400055 .056991579-.2460022 .06098938-.25 .066986087-.25 .07699585-.25 .16699219-.18200684 .22599793-.055007936 .2769928 .054992677 .2889862 .16600037 .2889862 .25Z"/>
<path id="font_4_4" d="M.2939911 .64004519C.2939911 .66400149 .2939911 .6660156 .2709961 .6660156 .20899964 .60227969 .12098694 .60227969 .08898926 .60227969V.57128909C.10899353 .57128909 .16799927 .57128909 .21998596 .5972748V.07902527C.21998596 .042999269 .21699524 .0309906 .1269989 .0309906H.09498596V0C.12998963 .0029907227 .21699524 .0029907227 .25698854 .0029907227 .29699708 .0029907227 .38398744 .0029907227 .4189911 0V.0309906H.3869934C.29699708 .0309906 .2939911 .041992189 .2939911 .07902527V.64004519Z"/>
<path id="font_4_7" d="M.2939911 .16503906V.07800293C.2939911 .041992189 .2919922 .0309906 .21798706 .0309906H.19699097V0C.23799134 .0029907227 .2899933 .0029907227 .33198548 .0029907227 .37399293 .0029907227 .4269867 .0029907227 .46798707 0V.0309906H.44699098C.37298585 .0309906 .37098695 .041992189 .37098695 .07800293V.16503906H.47099305V.19602967H.37098695V.65075686C.37098695 .67074587 .37098695 .6767578 .35499574 .6767578 .34599305 .6767578 .34298707 .6767578 .33499146 .66474917L.027999878 .19602967V.16503906H.2939911M.2999878 .19602967H.055999757L.2999878 .5688019V.19602967Z"/>
<path id="font_4_9" d="M.16299439 .4569702C.116989139 .486969 .11299133 .52098086 .11299133 .5379791 .11299133 .598999 .17799378 .64100649 .24899292 .64100649 .32199098 .64100649 .38598634 .58898928 .38598634 .51698306 .38598634 .45996095 .34700013 .4119568 .2869873 .37695313L.16299439 .4569702M.30899049 .36193849C.3809967 .3989563 .42999269 .45095826 .42999269 .51698306 .42999269 .6090088 .34098817 .6660156 .25 .6660156 .1499939 .6660156 .068984989 .59199526 .068984989 .49897767 .068984989 .4809723 .070999149 .43595887 .11299133 .38894654 .12399292 .37695313 .16099549 .35194398 .18598938 .33494569 .12799073 .30592347 .041992189 .24984741 .041992189 .15072632 .041992189 .04458618 .14399719-.022460938 .24899292-.022460938 .3619995-.022460938 .45700074 .06060791 .45700074 .16773987 .45700074 .20379639 .44599916 .24885559 .4079895 .2909088 .3889923 .31193543 .37298585 .3219452 .30899049 .36193849M.20899964 .3199463 .33198548 .24183655C.3600006 .2228241 .40699769 .19277954 .40699769 .13169861 .40699769 .05760193 .33198548 .0055389406 .25 .0055389406 .1639862 .0055389406 .09199524 .067611698 .09199524 .15072632 .09199524 .20880127 .12399292 .27288819 .20899964 .3199463Z"/>
<path id="font_4_5" d="M.1269989 .07699585 .23298645 .18003845C.3889923 .31811524 .44898988 .3721466 .44898988 .47216798 .44898988 .5860901 .35899354 .6660156 .23699951 .6660156 .12399292 .6660156 .049987794 .57411196 .049987794 .48516847 .049987794 .4291687 .099990848 .4291687 .102996829 .4291687 .11999512 .4291687 .15499878 .44117738 .15499878 .48217774 .15499878 .5081787 .13699341 .5341797 .101989749 .5341797 .09399414 .5341797 .09199524 .5341797 .08898926 .5331726 .11199951 .59806826 .1659851 .63500979 .22399903 .63500979 .31498719 .63500979 .35798646 .5541382 .35798646 .47216798 .35798646 .39215089 .30799867 .31311036 .25299073 .25108338L.06098938 .036987306C.049987794 .025985718 .049987794 .023986817 .049987794 0H.42099L.44898988 .17404175H.42399598C.4189911 .14402771 .4119873 .1000061 .4019928 .084991458 .394989 .07699585 .32899476 .07699585 .30699159 .07699585H.1269989Z"/>
<path id="font_4_8" d="M.13198853 .327713V.35173036C.13198853 .6047821 .2559967 .64100649 .30699159 .64100649 .33099366 .64100649 .37298585 .634964 .394989 .6007538 .37998963 .6007538 .33999635 .6007538 .33999635 .5557556 .33999635 .524765 .3639984 .5097656 .38598634 .5097656 .4019928 .5097656 .43199159 .51875308 .43199159 .5577545 .43199159 .6178589 .3880005 .6660156 .30499269 .6660156 .1769867 .6660156 .041992189 .5367584 .041992189 .31570436 .041992189 .048553468 .1579895-.022460938 .25099183-.022460938 .3619995-.022460938 .45700074 .07156372 .45700074 .2036438 .45700074 .33070375 .36799623 .4267578 .25698854 .4267578 .18899536 .4267578 .1519928 .37573243 .13198853 .327713M.25099183 .0055389406C.18798828 .0055389406 .1579895 .06556702 .1519928 .080566409 .13398743 .127594 .13398743 .2076416 .13398743 .22564698 .13398743 .30369569 .1659851 .40374757 .2559967 .40374757 .27198792 .40374757 .31799317 .40374757 .34899903 .34172059 .36698915 .30470277 .36698915 .2536621 .36698915 .20463562 .36698915 .15661621 .36698915 .10658264 .34999085 .0705719 .31999208 .010528564 .27398683 .0055389406 .25099183 .0055389406Z"/>
<path id="font_4_6" d="M.2899933 .35191346C.37199403 .37893678 .42999269 .4490509 .42999269 .52809146 .42999269 .6100464 .34199525 .6660156 .24598694 .6660156 .14498902 .6660156 .068984989 .60606387 .068984989 .53009036 .068984989 .49710084 .09098816 .47808839 .11999512 .47808839 .15098572 .47808839 .17098999 .50009158 .17098999 .5290985 .17098999 .57910159 .12399292 .57910159 .10899353 .57910159 .13999939 .62802127 .20599365 .64100649 .24198914 .64100649 .2829895 .64100649 .33799745 .6190338 .33799745 .5290985 .33799745 .51708987 .33599855 .45906068 .30999757 .4149933 .27999879 .36691285 .24598694 .36390687 .22099304 .36291505 .21299744 .36190797 .18899536 .35990907 .18199158 .35990907 .17399597 .35890199 .16699219 .35791017 .16699219 .3479004 .16699219 .33691407 .17399597 .33691407 .19099427 .33691407H.23498535C.31698609 .33691407 .35398866 .2686615 .35398866 .17037964 .35398866 .034469606 .2849884 .0055389406 .24099732 .0055389406 .19799805 .0055389406 .12298584 .022491456 .08799744 .08137512 .12298584 .07637024 .1539917 .09837341 .1539917 .1363678 .1539917 .17237854 .1269989 .19238281 .09799194 .19238281 .07398987 .19238281 .041992189 .17837525 .041992189 .1343689 .041992189 .043441774 .1349945-.022460938 .24398804-.022460938 .3659973-.022460938 .45700074 .06838989 .45700074 .17037964 .45700074 .252594 .3939972 .33088685 .2899933 .35191346Z"/>
<path id="font_5_2" d="M.20599365 .3996582H.2999878C.31999208 .3996582 .32998658 .3996582 .32998658 .41966249 .32998658 .43066407 .31999208 .43066407 .3019867 .43066407H.21398926C.25 .5724945 .25498963 .59246829 .25498963 .59846499 .25498963 .61546328 .24299622 .62545779 .22599793 .62545779 .22299195 .62545779 .19499207 .62446597 .18598938 .58947756L.14698792 .43066407H.052993776C.032989503 .43066407 .022994996 .43066407 .022994996 .4116516 .022994996 .3996582 .0309906 .3996582 .050994874 .3996582H.13899231C.066986087 .11608887 .06298828 .099121097 .06298828 .08114624 .06298828 .02722168 .100997928-.0107421879 .15499878-.0107421879 .25698854-.0107421879 .31399537 .13505554 .31399537 .14305115 .31399537 .1530304 .30599977 .1530304 .3019867 .1530304 .29299928 .1530304 .2919922 .15003968 .2869873 .13905335 .24398804 .035217287 .19099427 .011245728 .15699768 .011245728 .13598633 .011245728 .12599182 .024230957 .12599182 .057174684 .12599182 .08114624 .12799073 .088134769 .13198853 .10510254L.20599365 .3996582Z"/>
<path id="font_5_3" d="M.48599244 .38136292C.48999024 .39537049 .48999024 .39736939 .48999024 .40437318 .48999024 .42237855 .47599793 .43138124 .46099855 .43138124 .45098878 .43138124 .43499757 .42536927 .42599488 .41036988 .42399598 .405365 .41600038 .37435914 .4119873 .35635377 .40499879 .33035279 .397995 .30334474 .3919983 .27633668L.34700013 .09628296C.34298707 .08126831 .2999878 .011245728 .23399353 .011245728 .18299866 .011245728 .17199707 .055267335 .17199707 .0922699 .17199707 .1382904 .18899536 .20030213 .22299195 .28833009 .23899842 .3293457 .24299622 .3403473 .24299622 .36035157 .24299622 .405365 .21099854 .4423828 .16099549 .4423828 .06599426 .4423828 .0289917 .29733277 .0289917 .28833009 .0289917 .27833558 .038986207 .27833558 .040985109 .27833558 .050994874 .27833558 .051986696 .28033448 .056991579 .29634095 .083999637 .3903656 .12399292 .42037965 .1579895 .42037965 .1659851 .42037965 .18299866 .42037965 .18299866 .3883667 .18299866 .36335755 .17298889 .3373413 .1659851 .31834413 .12599182 .21231079 .10798645 .1552887 .10798645 .10827637 .10798645 .019256592 .17098999-.0107421879 .22999573-.0107421879 .2689972-.0107421879 .30299378 .0062561037 .33099366 .03425598 .31799317-.017745972 .30599977-.06674194 .2659912-.11973572 .23999024-.15385437 .20199585-.18309021 .1559906-.18309021 .14199829-.18309021 .09700012-.18005371 .07998657-.14074707 .09599304-.14074707 .10899353-.14074707 .12298584-.1287384 .1329956-.11973572 .14299011-.10673523 .14299011-.08773804 .14299011-.056747438 .115997318-.052734376 .10598755-.052734376 .08299255-.052734376 .049987794-.068740848 .049987794-.11773682 .049987794-.16796875 .09399414-.20507813 .1559906-.20507813 .25898744-.20507813 .3619995-.11373901 .3899994-.00074768069L.48599244 .38136292Z"/>
</defs>
<path transform="matrix(1.00003,0,0,-1.00002,5.9928095,208.02457)" d="M0 0H239.09671V206.22547H0Z" fill="#fffac2"/>
<path transform="matrix(1.00003,0,0,-1.00002,5.9928095,208.02457)" stroke-width=".3985" stroke-linecap="butt" stroke-miterlimit="10" stroke-linejoin="miter" fill="none" stroke="#d5d6d5" d="M0 0V206.22547M29.88708 0V206.22547M59.77417 0V206.22547M89.66125 0V206.22547M119.54836 0V206.22547M149.43544 0V206.22547M179.32253 0V206.22547M209.20963 0V206.22547M239.09671 0V206.22547"/>
<path transform="matrix(1.00003,0,0,-1.00002,5.9928095,208.02457)" stroke-width=".3985" stroke-linecap="butt" stroke-miterlimit="10" stroke-linejoin="miter" fill="none" stroke="#d5d6d5" d="M0 0V206.22547M119.54836 0V206.22547M179.32253 0V206.22547M239.09671 0V206.22547"/>
<path transform="matrix(1.00003,0,0,-1.00002,5.9928095,208.02457)" stroke-width=".3985" stroke-linecap="butt" stroke-miterlimit="10" stroke-linejoin="miter" fill="none" stroke="#d5d6d5" d="M0 11.45697H239.09671M0 34.37091H239.09671M0 57.28485H239.09671M0 80.19879H239.09671M0 103.11273H239.09671M0 126.02667H239.09671M0 148.94062H239.09671M0 171.85456H239.09671M0 194.7685H239.09671"/>
<path transform="matrix(1.00003,0,0,-1.00002,5.9928095,208.02457)" stroke-width=".3985" stroke-linecap="butt" stroke-miterlimit="10" stroke-linejoin="miter" fill="none" stroke="#d5d6d5" d="M0 80.19879H239.09671M0 126.02667H239.09671M0 171.85456H239.09671"/>
<path transform="matrix(1.00003,0,0,-1.00002,5.9928095,208.02457)" stroke-width=".19925" stroke-linecap="butt" stroke-miterlimit="10" stroke-linejoin="miter" fill="none" stroke="#929292" d="M0 32.95352V35.7883M29.88708 32.95352V35.7883M59.77417 32.95352V35.7883M89.66125 32.95352V35.7883M119.54836 32.95352V35.7883M149.43544 32.95352V35.7883M179.32253 32.95352V35.7883M209.20963 32.95352V35.7883M239.09671 32.95352V35.7883"/>
<path transform="matrix(1.00003,0,0,-1.00002,5.9928095,208.02457)" stroke-width=".19925" stroke-linecap="butt" stroke-miterlimit="10" stroke-linejoin="miter" fill="none" stroke="#929292" d="M0 32.24503V36.49677M119.54836 32.24503V36.49677M179.32253 32.24503V36.49677M239.09671 32.24503V36.49677"/>
<path transform="matrix(1.00003,0,0,-1.00002,5.9928095,208.02457)" stroke-width=".19925" stroke-linecap="butt" stroke-miterlimit="10" stroke-linejoin="miter" fill="none" stroke="#929292" d="M58.35677 11.45697H61.19157M58.35677 34.37091H61.19157M58.35677 57.28485H61.19157M58.35677 80.19879H61.19157M58.35677 103.11273H61.19157M58.35677 126.02667H61.19157M58.35677 148.94062H61.19157M58.35677 171.85456H61.19157M58.35677 194.7685H61.19157"/>
<path transform="matrix(1.00003,0,0,-1.00002,5.9928095,208.02457)" stroke-width=".19925" stroke-linecap="butt" stroke-miterlimit="10" stroke-linejoin="miter" fill="none" stroke="#929292" d="M57.64828 80.19879H61.90004M57.64828 126.02667H61.90004M57.64828 171.85456H61.90004"/>
<path transform="matrix(1.00003,0,0,-1.00002,5.9928095,208.02457)" stroke-width=".3985" stroke-linecap="butt" stroke-miterlimit="10" stroke-linejoin="miter" fill="none" stroke="#000000" d="M1.99252 34.37091H237.10419"/>
<path transform="matrix(-1.00003,-0,0,1.00002,7.985389,173.65297)" d="M1.99252 0-1.19551 1.59401 0 0-1.19551-1.59401"/>
<path transform="matrix(1.00003,0,0,-1.00002,243.10413,173.65297)" d="M1.99252 0-1.19551 1.59401 0 0-1.19551-1.59401"/>
<path transform="matrix(1.00003,0,0,-1.00002,5.9928095,208.02457)" stroke-width=".3985" stroke-linecap="butt" stroke-miterlimit="10" stroke-linejoin="miter" fill="none" stroke="#000000" d="M59.77417 1.99252V204.23294"/>
<path transform="matrix(0,1.00002,1.00003,0,65.768779,206.03202)" d="M1.99252 0-1.19551 1.59401 0 0-1.19551-1.59401"/>
<path transform="matrix(0,-1.00002,-1.00003,-0,65.768779,3.7875367)" d="M1.99252 0-1.19551 1.59401 0 0-1.19551-1.59401"/>
<use data-text="&#x2212;" xlink:href="#font_1_1" transform="matrix(7.9703395,0,0,-7.9702599,.5826454,184.43509)"/>
<use data-text="2" xlink:href="#font_2_2" transform="matrix(7.9703395,0,0,-7.9702599,7.169842,184.43509)"/>
<use data-text="2" xlink:href="#font_2_2" transform="matrix(7.9703395,0,0,-7.9702599,123.42734,184.43509)"/>
<use data-text="4" xlink:href="#font_2_3" transform="matrix(7.9703395,0,0,-7.9702599,183.20314,184.43509)"/>
<use data-text="6" xlink:href="#font_2_4" transform="matrix(7.9703395,0,0,-7.9702599,242.97994,184.43509)"/>
<use data-text="2" xlink:href="#font_2_2" transform="matrix(7.9703395,0,0,-7.9702599,53.545236,130.39202)"/>
<use data-text="0" xlink:href="#font_2_1" transform="matrix(7.9703395,0,0,-7.9702599,57.77749,130.39202)"/>
<use data-text="4" xlink:href="#font_2_3" transform="matrix(7.9703395,0,0,-7.9702599,53.545236,84.563098)"/>
<use data-text="0" xlink:href="#font_2_1" transform="matrix(7.9703395,0,0,-7.9702599,57.77749,84.563098)"/>
<use data-text="6" xlink:href="#font_2_4" transform="matrix(7.9703395,0,0,-7.9702599,53.545236,38.735185)"/>
<use data-text="0" xlink:href="#font_2_1" transform="matrix(7.9703395,0,0,-7.9702599,57.77749,38.735185)"/>
<g clip-path="url(#clip_3)">
<path transform="matrix(1.00003,0,0,-1.00002,5.9928095,208.02457)" stroke-width=".99628" stroke-linecap="butt" stroke-miterlimit="10" stroke-linejoin="miter" fill="none" stroke="#9e0c0f" d="M59.77417 34.37091 64.75533 57.79395 69.73648 79.1802 74.71764 98.5297 79.6988 115.8424 84.67996 131.11835 89.66112 144.35752 94.64227 155.55986 99.62346 164.72554 104.60461 171.85433 109.58577 176.94637 114.56693 180.00168 119.5481 181.02017 124.52925 180.0018 129.5104 176.94676 134.49158 171.85494 139.47274 164.72635 144.45389 155.561 149.43505 144.35874 154.41622 131.11975 159.39737 115.84384 164.37853 98.5316 169.35968 79.18253 174.34085 57.79626 179.322 34.37349"/>
<path transform="matrix(1.00003,0,0,-1.00002,5.9928095,208.02457)" stroke-width=".3985" stroke-linecap="butt" stroke-miterlimit="10" stroke-linejoin="miter" fill="none" stroke="#9e0c0f" d=""/>
<use data-text="(" xlink:href="#font_4_1" transform="matrix(9.962899,0,0,-9.962799,40.108839,167.64276)" fill="#9e0c0f"/>
<use data-text="0" xlink:href="#font_4_3" transform="matrix(9.962899,0,0,-9.962799,43.974447,167.64276)" fill="#9e0c0f"/>
<use data-text="," xlink:href="#font_5_1" transform="matrix(9.962899,0,0,-9.962799,48.965105,167.64276)" fill="#9e0c0f"/>
<use data-text="0" xlink:href="#font_4_3" transform="matrix(9.962899,0,0,-9.962799,53.393239,167.64276)" fill="#9e0c0f"/>
<use data-text=")" xlink:href="#font_4_2" transform="matrix(9.962899,0,0,-9.962799,58.374689,167.64276)" fill="#9e0c0f"/>
<path transform="matrix(1.00003,0,0,-1.00002,5.9928095,208.02457)" stroke-width=".3985" stroke-linecap="butt" stroke-miterlimit="10" stroke-linejoin="miter" fill="none" stroke="#9e0c0f" d=""/>
<use data-text="(" xlink:href="#font_4_1" transform="matrix(9.962899,0,0,-9.962799,65.01558,57.653566)" fill="#9e0c0f"/>
<use data-text="1" xlink:href="#font_4_4" transform="matrix(9.962899,0,0,-9.962799,68.881198,57.653566)" fill="#9e0c0f"/>
<use data-text="," xlink:href="#font_5_1" transform="matrix(9.962899,0,0,-9.962799,73.87185,57.653566)" fill="#9e0c0f"/>
<use data-text="4" xlink:href="#font_4_7" transform="matrix(9.962899,0,0,-9.962799,78.29999,57.653566)" fill="#9e0c0f"/>
<use data-text="8" xlink:href="#font_4_9" transform="matrix(9.962899,0,0,-9.962799,83.28143,57.653566)" fill="#9e0c0f"/>
<use data-text=")" xlink:href="#font_4_2" transform="matrix(9.962899,0,0,-9.962799,88.26288,57.653566)" fill="#9e0c0f"/>
<path transform="matrix(1.00003,0,0,-1.00002,5.9928095,208.02457)" stroke-width=".3985" stroke-linecap="butt" stroke-miterlimit="10" stroke-linejoin="miter" fill="none" stroke="#9e0c0f" d=""/>
<use data-text="(" xlink:href="#font_4_1" transform="matrix(9.962899,0,0,-9.962799,111.98399,20.989823)" fill="#9e0c0f"/>
<use data-text="2" xlink:href="#font_4_5" transform="matrix(9.962899,0,0,-9.962799,115.849597,20.989823)" fill="#9e0c0f"/>
<use data-text="," xlink:href="#font_5_1" transform="matrix(9.962899,0,0,-9.962799,120.840259,20.989823)" fill="#9e0c0f"/>
<use data-text="6" xlink:href="#font_4_8" transform="matrix(9.962899,0,0,-9.962799,125.26839,20.989823)" fill="#9e0c0f"/>
<use data-text="4" xlink:href="#font_4_7" transform="matrix(9.962899,0,0,-9.962799,130.24985,20.989823)" fill="#9e0c0f"/>
<use data-text=")" xlink:href="#font_4_2" transform="matrix(9.962899,0,0,-9.962799,135.2313,20.989823)" fill="#9e0c0f"/>
<path transform="matrix(1.00003,0,0,-1.00002,5.9928095,208.02457)" stroke-width=".3985" stroke-linecap="butt" stroke-miterlimit="10" stroke-linejoin="miter" fill="none" stroke="#9e0c0f" d=""/>
<use data-text="(" xlink:href="#font_4_1" transform="matrix(9.962899,0,0,-9.962799,158.95241,57.653566)" fill="#9e0c0f"/>
<use data-text="3" xlink:href="#font_4_6" transform="matrix(9.962899,0,0,-9.962799,162.81801,57.653566)" fill="#9e0c0f"/>
<use data-text="," xlink:href="#font_5_1" transform="matrix(9.962899,0,0,-9.962799,167.80867,57.653566)" fill="#9e0c0f"/>
<use data-text="4" xlink:href="#font_4_7" transform="matrix(9.962899,0,0,-9.962799,172.2368,57.653566)" fill="#9e0c0f"/>
<use data-text="8" xlink:href="#font_4_9" transform="matrix(9.962899,0,0,-9.962799,177.21826,57.653566)" fill="#9e0c0f"/>
<use data-text=")" xlink:href="#font_4_2" transform="matrix(9.962899,0,0,-9.962799,182.1997,57.653566)" fill="#9e0c0f"/>
<path transform="matrix(1.00003,0,0,-1.00002,5.9928095,208.02457)" stroke-width=".3985" stroke-linecap="butt" stroke-miterlimit="10" stroke-linejoin="miter" fill="none" stroke="#9e0c0f" d=""/>
<use data-text="(" xlink:href="#font_4_1" transform="matrix(9.962899,0,0,-9.962799,188.8403,167.64276)" fill="#9e0c0f"/>
<use data-text="4" xlink:href="#font_4_7" transform="matrix(9.962899,0,0,-9.962799,192.7059,167.64276)" fill="#9e0c0f"/>
<use data-text="," xlink:href="#font_5_1" transform="matrix(9.962899,0,0,-9.962799,197.69657,167.64276)" fill="#9e0c0f"/>
<use data-text="0" xlink:href="#font_4_3" transform="matrix(9.962899,0,0,-9.962799,202.1247,167.64276)" fill="#9e0c0f"/>
<use data-text=")" xlink:href="#font_4_2" transform="matrix(9.962899,0,0,-9.962799,207.10614,167.64276)" fill="#9e0c0f"/>
</g>
<path transform="matrix(1.00003,0,0,-1.00002,5.9928095,208.02457)" d="M61.76672 34.37091C61.76672 35.47137 60.87465 36.36346 59.77417 36.36346 58.6737 36.36346 57.78162 35.47137 57.78162 34.37091 57.78162 33.27043 58.6737 32.37836 59.77417 32.37836 60.87465 32.37836 61.76672 33.27043 61.76672 34.37091ZM59.77417 34.37091" fill="#9e0c0f"/>
<path transform="matrix(1.00003,0,0,-1.00002,5.9928095,208.02457)" stroke-width=".3985" stroke-linecap="butt" stroke-miterlimit="10" stroke-linejoin="miter" fill="none" stroke="#9e0c0f" d="M61.76672 34.37091C61.76672 35.47137 60.87465 36.36346 59.77417 36.36346 58.6737 36.36346 57.78162 35.47137 57.78162 34.37091 57.78162 33.27043 58.6737 32.37836 59.77417 32.37836 60.87465 32.37836 61.76672 33.27043 61.76672 34.37091ZM59.77417 34.37091"/>
<path transform="matrix(1.00003,0,0,-1.00002,5.9928095,208.02457)" stroke-width=".3985" stroke-linecap="butt" stroke-miterlimit="10" stroke-linejoin="miter" fill="none" stroke="#9e0c0f" d=""/>
<path transform="matrix(1.00003,0,0,-1.00002,5.9928095,208.02457)" d="M91.65381 144.35784C91.65381 145.4583 90.76173 146.35039 89.66125 146.35039 88.56079 146.35039 87.6687 145.4583 87.6687 144.35784 87.6687 143.25736 88.56079 142.36528 89.66125 142.36528 90.76173 142.36528 91.65381 143.25736 91.65381 144.35784ZM89.66125 144.35784" fill="#9e0c0f"/>
<path transform="matrix(1.00003,0,0,-1.00002,5.9928095,208.02457)" stroke-width=".3985" stroke-linecap="butt" stroke-miterlimit="10" stroke-linejoin="miter" fill="none" stroke="#9e0c0f" d="M91.65381 144.35784C91.65381 145.4583 90.76173 146.35039 89.66125 146.35039 88.56079 146.35039 87.6687 145.4583 87.6687 144.35784 87.6687 143.25736 88.56079 142.36528 89.66125 142.36528 90.76173 142.36528 91.65381 143.25736 91.65381 144.35784ZM89.66125 144.35784"/>
<path transform="matrix(1.00003,0,0,-1.00002,5.9928095,208.02457)" stroke-width=".3985" stroke-linecap="butt" stroke-miterlimit="10" stroke-linejoin="miter" fill="none" stroke="#9e0c0f" d=""/>
<path transform="matrix(1.00003,0,0,-1.00002,5.9928095,208.02457)" d="M121.54091 181.02014C121.54091 182.1206 120.64882 183.0127 119.54836 183.0127 118.44788 183.0127 117.5558 182.1206 117.5558 181.02014 117.5558 179.91967 118.44788 179.02759 119.54836 179.02759 120.64882 179.02759 121.54091 179.91967 121.54091 181.02014ZM119.54836 181.02014" fill="#9e0c0f"/>
<path transform="matrix(1.00003,0,0,-1.00002,5.9928095,208.02457)" stroke-width=".3985" stroke-linecap="butt" stroke-miterlimit="10" stroke-linejoin="miter" fill="none" stroke="#9e0c0f" d="M121.54091 181.02014C121.54091 182.1206 120.64882 183.0127 119.54836 183.0127 118.44788 183.0127 117.5558 182.1206 117.5558 181.02014 117.5558 179.91967 118.44788 179.02759 119.54836 179.02759 120.64882 179.02759 121.54091 179.91967 121.54091 181.02014ZM119.54836 181.02014"/>
<path transform="matrix(1.00003,0,0,-1.00002,5.9928095,208.02457)" stroke-width=".3985" stroke-linecap="butt" stroke-miterlimit="10" stroke-linejoin="miter" fill="none" stroke="#9e0c0f" d=""/>
<path transform="matrix(1.00003,0,0,-1.00002,5.9928095,208.02457)" d="M151.428 144.35784C151.428 145.4583 150.5359 146.35039 149.43544 146.35039 148.33498 146.35039 147.44289 145.4583 147.44289 144.35784 147.44289 143.25736 148.33498 142.36528 149.43544 142.36528 150.5359 142.36528 151.428 143.25736 151.428 144.35784ZM149.43544 144.35784" fill="#9e0c0f"/>
<path transform="matrix(1.00003,0,0,-1.00002,5.9928095,208.02457)" stroke-width=".3985" stroke-linecap="butt" stroke-miterlimit="10" stroke-linejoin="miter" fill="none" stroke="#9e0c0f" d="M151.428 144.35784C151.428 145.4583 150.5359 146.35039 149.43544 146.35039 148.33498 146.35039 147.44289 145.4583 147.44289 144.35784 147.44289 143.25736 148.33498 142.36528 149.43544 142.36528 150.5359 142.36528 151.428 143.25736 151.428 144.35784ZM149.43544 144.35784"/>
<path transform="matrix(1.00003,0,0,-1.00002,5.9928095,208.02457)" stroke-width=".3985" stroke-linecap="butt" stroke-miterlimit="10" stroke-linejoin="miter" fill="none" stroke="#9e0c0f" d=""/>
<path transform="matrix(1.00003,0,0,-1.00002,5.9928095,208.02457)" d="M181.31508 34.37091C181.31508 35.47137 180.423 36.36346 179.32253 36.36346 178.22206 36.36346 177.32997 35.47137 177.32997 34.37091 177.32997 33.27043 178.22206 32.37836 179.32253 32.37836 180.423 32.37836 181.31508 33.27043 181.31508 34.37091ZM179.32253 34.37091" fill="#9e0c0f"/>
<path transform="matrix(1.00003,0,0,-1.00002,5.9928095,208.02457)" stroke-width=".3985" stroke-linecap="butt" stroke-miterlimit="10" stroke-linejoin="miter" fill="none" stroke="#9e0c0f" d="M181.31508 34.37091C181.31508 35.47137 180.423 36.36346 179.32253 36.36346 178.22206 36.36346 177.32997 35.47137 177.32997 34.37091 177.32997 33.27043 178.22206 32.37836 179.32253 32.37836 180.423 32.37836 181.31508 33.27043 181.31508 34.37091ZM179.32253 34.37091"/>
<path transform="matrix(1.00003,0,0,-1.00002,5.9928095,208.02457)" stroke-width=".3985" stroke-linecap="butt" stroke-miterlimit="10" stroke-linejoin="miter" fill="none" stroke="#9e0c0f" d=""/>
<use data-text="t" xlink:href="#font_5_2" transform="matrix(9.962899,0,0,-9.962799,237.97879,170.13282)"/>
<use data-text="y" xlink:href="#font_5_3" transform="matrix(9.962899,0,0,-9.962799,69.28871,9.604599)"/>
</svg>
