<svg xmlns="http://www.w3.org/2000/svg" xmlns:xlink="http://www.w3.org/1999/xlink" version="1.1" width="242" height="209" viewBox="0 0 242 209">
<defs>
<path id="font_1_1" d="M.69898989 .22743225C.71499636 .22743225 .7369995 .22743225 .7369995 .25042726 .7369995 .2734375 .71499636 .2734375 .69898989 .2734375H.12599182C.10998535 .2734375 .08799744 .2734375 .08799744 .25042726 .08799744 .22743225 .10998535 .22743225 .12599182 .22743225H.69898989Z"/>
<path id="font_2_3" d="M.13798523 .33073426C.13798523 .41377259 .14498902 .4868164 .18099976 .54782107 .21099854 .5978241 .2619934 .6390381 .32499696 .6390381 .34498597 .6390381 .3909912 .63601687 .4139862 .60084536 .36898805 .5988312 .36499024 .5648346 .36499024 .553833 .36499024 .5238342 .3880005 .50683596 .4119873 .50683596 .42999269 .50683596 .45899964 .51782229 .45899964 .5558319 .45899964 .615921 .4139862 .66503909 .32398988 .66503909 .18499756 .66503909 .04399109 .53282168 .04399109 .31672669 .04399109 .045532228 .16999817-.021484375 .2669983-.021484375 .31498719-.021484375 .36698915-.0084991459 .4119873 .03453064 .45199586 .07354736 .48599244 .11558533 .48599244 .20263672 .48599244 .33372499 .3869934 .42578126 .27598573 .42578126 .20399475 .42578126 .16099549 .37976075 .13798523 .33073426M.2669983 .008514404C.21398926 .008514404 .18099976 .045532228 .1659851 .07354736 .14299011 .11859131 .14099121 .18663025 .14099121 .22465515 .14099121 .32373048 .19499207 .3977661 .27198792 .3977661 .32199098 .3977661 .35198976 .37176515 .37098695 .33673097 .3919983 .29971314 .3919983 .25468446 .3919983 .2036438 .3919983 .15260315 .3919983 .10858154 .37199403 .07255554 .34599305 .026519776 .31098939 .008514404 .2669983 .008514404Z"/>
<path id="font_2_2" d="M.3939972 .6468048C.3939972 .6667938 .3939972 .6748047 .37298585 .6748047 .3600006 .6748047 .35899354 .6737976 .34899903 .65979006L.02999878 .197052V.1640625H.31199647V.08100891C.31199647 .04399109 .30899049 .032989503 .23199463 .032989503H.20899964V0C.2939911 .0029907227 .29599 .0029907227 .35299684 .0029907227 .4099884 .0029907227 .4119873 .0029907227 .49699403 0V.032989503H.47399903C.39698792 .032989503 .3939972 .04399109 .3939972 .08100891V.1640625H.5V.197052H.3939972V.6468048M.31900025 .5658417V.197052H.06498718L.31900025 .5658417Z"/>
<path id="font_2_1" d="M.28199769 .20405579C.2979889 .21907044 .33999635 .2520752 .35598756 .26608277 .41799928 .32312013 .47698976 .3781433 .47698976 .46917726 .47698976 .588089 .3769989 .66503909 .2519989 .66503909 .13198853 .66503909 .052993776 .57411196 .052993776 .48516847 .052993776 .4361725 .09199524 .4291687 .10598755 .4291687 .1269989 .4291687 .1579895 .4441681 .1579895 .48217774 .1579895 .5341797 .10798645 .5341797 .09599304 .5341797 .125 .6070709 .19198609 .6320343 .24099732 .6320343 .33399964 .6320343 .38198854 .55314639 .38198854 .46917726 .38198854 .36514283 .30899049 .28910829 .19099427 .16804505L.06498718 .037994386C.052993776 .026992798 .052993776 .024993897 .052993776 0H.44799806L.47698976 .17904663H.44599916C.44299317 .1590271 .43499757 .10900879 .4229889 .08999634 .4169922 .08198547 .34098817 .08198547 .32499696 .08198547H.14698792L.28199769 .20405579Z"/>
<path id="font_2_4" d="M.33198548 .36080934C.3880005 .38783265 .45599366 .4378662 .45599366 .5159302 .45599366 .6110077 .35899354 .66503909 .2659912 .66503909 .1599884 .66503909 .07398987 .59199526 .07398987 .49790956 .07398987 .46089173 .08699036 .42686463 .11199951 .39782716 .1289978 .3768158 .1329956 .3748169 .19499207 .3357849 .070999149 .2807312 .04399109 .20767212 .04399109 .15162659 .04399109 .041534425 .15499878-.021484375 .2639923-.021484375 .3869934-.021484375 .48599244 .061553956 .48599244 .16764832 .48599244 .23069763 .45199586 .2727356 .43598939 .28974916 .4189911 .30575563 .41799928 .3067627 .33198548 .36080934M.1769867 .45487977C.147995 .4718933 .12399292 .5009155 .12399292 .5359497 .12399292 .598999 .19299317 .6390381 .2639923 .6390381 .34199525 .6390381 .4059906 .5859833 .4059906 .5159302 .4059906 .45788575 .36099244 .408844 .3019867 .37982179L.1769867 .45487977M.22599793 .31776429C.22999573 .31576539 .34399415 .24571228 .36099244 .23469544 .3769989 .22569275 .42900086 .19366455 .42900086 .13360596 .42900086 .056549074 .34799195 .008514404 .2659912 .008514404 .1769867 .008514404 .100997928 .06956482 .100997928 .15162659 .100997928 .22668457 .15699768 .28573609 .22599793 .31776429Z"/>
<path id="font_3_5" d="M.48599244 .38136292C.48999024 .39537049 .48999024 .39736939 .48999024 .40437318 .48999024 .42237855 .47599793 .43138124 .46099855 .43138124 .45098878 .43138124 .43499757 .42536927 .42599488 .41036988 .42399598 .405365 .41600038 .37435914 .4119873 .35635377 .40499879 .33035279 .397995 .30334474 .3919983 .27633668L.34700013 .09628296C.34298707 .08126831 .2999878 .011245728 .23399353 .011245728 .18299866 .011245728 .17199707 .055267335 .17199707 .0922699 .17199707 .1382904 .18899536 .20030213 .22299195 .28833009 .23899842 .3293457 .24299622 .3403473 .24299622 .36035157 .24299622 .405365 .21099854 .4423828 .16099549 .4423828 .06599426 .4423828 .0289917 .29733277 .0289917 .28833009 .0289917 .27833558 .038986207 .27833558 .040985109 .27833558 .050994874 .27833558 .051986696 .28033448 .056991579 .29634095 .083999637 .3903656 .12399292 .42037965 .1579895 .42037965 .1659851 .42037965 .18299866 .42037965 .18299866 .3883667 .18299866 .36335755 .17298889 .3373413 .1659851 .31834413 .12599182 .21231079 .10798645 .1552887 .10798645 .10827637 .10798645 .019256592 .17098999-.0107421879 .22999573-.0107421879 .2689972-.0107421879 .30299378 .0062561037 .33099366 .03425598 .31799317-.017745972 .30599977-.06674194 .2659912-.11973572 .23999024-.15385437 .20199585-.18309021 .1559906-.18309021 .14199829-.18309021 .09700012-.18005371 .07998657-.14074707 .09599304-.14074707 .10899353-.14074707 .12298584-.1287384 .1329956-.11973572 .14299011-.10673523 .14299011-.08773804 .14299011-.056747438 .115997318-.052734376 .10598755-.052734376 .08299255-.052734376 .049987794-.068740848 .049987794-.11773682 .049987794-.16796875 .09399414-.20507813 .1559906-.20507813 .25898744-.20507813 .3619995-.11373901 .3899994-.00074768069L.48599244 .38136292Z"/>
<path id="font_4_6" d="M.68699648 .32714845C.70199587 .32714845 .72099307 .32714845 .72099307 .34713746 .72099307 .36714173 .70199587 .36714173 .6879883 .36714173H.08898926C.07499695 .36714173 .055999757 .36714173 .055999757 .34713746 .055999757 .32714845 .07499695 .32714845 .08999634 .32714845H.68699648M.6879883 .13284302C.70199587 .13284302 .72099307 .13284302 .72099307 .15284729 .72099307 .17285156 .70199587 .17285156 .68699648 .17285156H.08999634C.07499695 .17285156 .055999757 .17285156 .055999757 .15284729 .055999757 .13284302 .07499695 .13284302 .08898926 .13284302H.6879883Z"/>
<path id="font_3_2" d="M.2869873 .68333438C.2869873 .6843262 .2869873 .69433596 .27398683 .69433596 .25099183 .69433596 .17799378 .6863251 .1519928 .6843262 .14399719 .68333438 .1329956 .6823273 .1329956 .6643219 .1329956 .6523285 .14199829 .6523285 .15699768 .6523285 .20498657 .6523285 .20698548 .6453247 .20698548 .6353302L.20399475 .6153412 .05899048 .039260866C.054992677 .025253296 .054992677 .023254395 .054992677 .01725769 .054992677-.0057525637 .07499695-.0107421879 .083999637-.0107421879 .099990848-.0107421879 .115997318 .0012512207 .12098694 .015258789L.13999939 .091278079 .1619873 .18130493C.16799927 .2033081 .17399597 .22531128 .1789856 .24832154 .18099976 .25431825 .18899536 .28733827 .18998719 .29333497 .19299317 .30233766 .22399903 .35835267 .2579956 .38536073 .27999879 .4013672 .31098939 .42037965 .35398866 .42037965 .39698792 .42037965 .4079895 .3863678 .4079895 .35035707 .4079895 .29634095 .36999513 .18730164 .34599305 .12628174 .33799745 .103271488 .33299256 .091278079 .33299256 .0712738 .33299256 .024261475 .36799623-.0107421879 .4149933-.0107421879 .5089874-.0107421879 .54599 .13528443 .54599 .14329529 .54599 .1532898 .5369873 .1532898 .5339966 .1532898 .5239868 .1532898 .5239868 .15029907 .5189972 .13528443 .5039978 .08227539 .47200013 .011245728 .4169922 .011245728 .3999939 .011245728 .3929901 .021255494 .3929901 .044265748 .3929901 .0692749 .4019928 .09327698 .41099549 .11528015 .4269867 .15829468 .47200013 .2773285 .47200013 .3353424 .47200013 .4003601 .43199159 .4423828 .35699464 .4423828 .2939911 .4423828 .24598694 .41137696 .20899964 .36535646L.2869873 .68333438Z"/>
<path id="font_4_1" d="M.33099366-.2400055C.33099366-.23701477 .33099366-.23500061 .31399537-.21800232 .18899536-.0920105 .15699768 .09700012 .15699768 .25 .15699768 .42399598 .19499207 .59799197 .31799317 .72299197 .33099366 .73498538 .33099366 .7369995 .33099366 .73999026 .33099366 .746994 .32699586 .75 .32099916 .75 .31098939 .75 .22099304 .6819916 .1619873 .5549927 .11099243 .44499208 .09899902 .33399964 .09899902 .25 .09899902 .17199707 .10998535 .050994874 .16499329-.06201172 .22499085-.18501282 .31098939-.25 .32099916-.25 .32699586-.25 .33099366-.24700928 .33099366-.2400055Z"/>
<path id="font_3_4" d="M.33399964 .30233766C.33999635 .32835389 .36299134 .42037965 .43299867 .42037965 .43798829 .42037965 .46199037 .42037965 .48298646 .40734864 .45498658 .402359 .43499757 .37734986 .43499757 .35334779 .43499757 .33735658 .44599916 .31835938 .47299195 .31835938 .49499513 .31835938 .5269928 .3363495 .5269928 .37635804 .5269928 .42837525 .46798707 .4423828 .43399049 .4423828 .37599183 .4423828 .34098817 .38935853 .32899476 .36634828 .3039856 .43237306 .25 .4423828 .22099304 .4423828 .116989139 .4423828 .05999756 .3133545 .05999756 .28834535 .05999756 .27833558 .069992069 .27833558 .07199097 .27833558 .07998657 .27833558 .08299255 .28033448 .084991458 .28933717 .11898804 .39535523 .18499756 .42037965 .21899414 .42037965 .23799134 .42037965 .272995 .4113617 .272995 .35334779 .272995 .32235719 .2559967 .25532533 .21899414 .11528015 .20298767 .053268434 .16799927 .011245728 .12399292 .011245728 .117996219 .011245728 .09498596 .011245728 .07398987 .024276734 .09899902 .029266358 .12098694 .05027771 .12098694 .07827759 .12098694 .105270389 .09899902 .11328125 .083999637 .11328125 .053985597 .11328125 .0289917 .08728027 .0289917 .055267335 .0289917 .009246826 .07899475-.0107421879 .12298584-.0107421879 .18899536-.0107421879 .22499085 .059280397 .22799683 .0652771 .23999024 .028274537 .27598573-.0107421879 .33599855-.0107421879 .43899537-.0107421879 .49598695 .118270877 .49598695 .14328003 .49598695 .1532898 .4869995 .1532898 .48399354 .1532898 .47499085 .1532898 .47299195 .14929199 .47099305 .14228821 .43798829 .03527832 .36999513 .011245728 .33799745 .011245728 .29899598 .011245728 .2829895 .043273927 .2829895 .07727051 .2829895 .09927368 .2889862 .121276859 .2999878 .16529846L.33399964 .30233766Z"/>
<path id="font_4_2" d="M.2889862 .25C.2889862 .32798768 .27799989 .44898988 .22299195 .56199648 .16299439 .68499758 .07699585 .75 .066986087 .75 .06098938 .75 .056991579 .74598696 .056991579 .73999026 .056991579 .7369995 .056991579 .73498538 .07598877 .71699526 .17399597 .6179962 .23098755 .45899964 .23098755 .25 .23098755 .07899475 .19400025-.09700012 .069992069-.2230072 .056991579-.23500061 .056991579-.23701477 .056991579-.2400055 .056991579-.2460022 .06098938-.25 .066986087-.25 .07699585-.25 .16699219-.18200684 .22599793-.055007936 .2769928 .054992677 .2889862 .16600037 .2889862 .25Z"/>
<path id="font_3_3" d="M.39698792 .6252594C.39698792 .6442566 .3829956 .6612549 .35899354 .6612549 .33599855 .6612549 .30599977 .6382599 .30599977 .6082611 .30599977 .58825686 .31999208 .5722656 .34298707 .5722656 .36999513 .5722656 .39698792 .59825137 .39698792 .6252594M.19599915-.049926759C.1769867-.12594605 .1289978-.18309021 .07299805-.18309021 .066986087-.18309021 .051986696-.18309021 .033996583-.17396546 .06399536-.16694641 .07899475-.14094544 .07899475-.12094116 .07899475-.10494995 .067993167-.0859375 .040985109-.0859375 .015991211-.0859375-.013000488-.10694885-.013000488-.14294434-.013000488-.18309021 .026992798-.20507813 .07499695-.20507813 .14498902-.20507813 .23799134-.15194702 .2630005-.05291748L.35499574 .31330873C.3600006 .333313 .3600006 .34732057 .3600006 .35032655 .3600006 .4073639 .31799317 .4423828 .2679901 .4423828 .1659851 .4423828 .10899353 .29730226 .10899353 .2882843 .10899353 .2782898 .11898804 .2782898 .12098694 .2782898 .12998963 .2782898 .1309967 .27928163 .13899231 .29829408 .1639862 .35932923 .20999146 .42037965 .2649994 .42037965 .2789917 .42037965 .29699708 .41636659 .29699708 .37434388 .29699708 .35133363 .2939911 .34031678 .2899933 .32331849L.19599915-.049926759Z"/>
<path id="font_4_3" d="M.45999146 .31976319C.45999146 .39982606 .45498658 .47988893 .41999818 .5539398 .37399293 .65000918 .2919922 .6660156 .25 .6660156 .18998719 .6660156 .116989139 .64001467 .07598877 .54693606 .04399109 .47789 .038986207 .39982606 .038986207 .31976319 .038986207 .24472046 .042999269 .15464783 .083999637 .07859802 .1269989-.0024719239 .19999695-.022460938 .24899292-.022460938 .30299378-.022460938 .3789978-.0014648438 .4229889 .09359741 .45498658 .16265869 .45999146 .2407074 .45999146 .31976319M.24899292-.00047302247C.20999146-.00047302247 .15098572 .024551392 .1329956 .12062073 .12199402 .18066406 .12199402 .2727356 .12199402 .3317871 .12199402 .39582826 .12199402 .46188355 .12998963 .5159149 .14898682 .63500979 .22399903 .64401248 .24899292 .64401248 .28199769 .64401248 .34799195 .6259918 .36698915 .52693179 .3769989 .47088624 .3769989 .39482118 .3769989 .3317871 .3769989 .25672914 .3769989 .18867493 .3659973 .12461853 .35099793 .029556275 .2939911-.00047302247 .24899292-.00047302247Z"/>
<path id="font_3_1" d="M.20298767 .0009918213C.20298767 .066986087 .17799378 .10598755 .13899231 .10598755 .10598755 .10598755 .085998538 .08099365 .085998538 .052993776 .085998538 .025985718 .10598755 0 .13899231 0 .15098572 0 .1639862 .0039978029 .17399597 .0129852299 .1769867 .01499939 .17799378 .015991211 .1789856 .015991211 .17999268 .015991211 .18099976 .01499939 .18099976 .0009918213 .18099976-.07316589 .1459961-.13328552 .11299133-.16635132 .101989749-.17736817 .101989749-.17936707 .101989749-.18237305 .101989749-.18936157 .10699463-.19335938 .11199951-.19335938 .12298584-.19335938 .20298767-.116256717 .20298767 .0009918213Z"/>
<path id="font_5_1" d="M.6589966 .23046875C.6759949 .23046875 .69400027 .23046875 .69400027 .25045777 .69400027 .27046205 .6759949 .27046205 .6589966 .27046205H.117996219C.100997928 .27046205 .08299255 .27046205 .08299255 .25045777 .08299255 .23046875 .100997928 .23046875 .117996219 .23046875H.6589966Z"/>
<path id="font_4_4" d="M.2899933 .35191346C.37199403 .37893678 .42999269 .4490509 .42999269 .52809146 .42999269 .6100464 .34199525 .6660156 .24598694 .6660156 .14498902 .6660156 .068984989 .60606387 .068984989 .53009036 .068984989 .49710084 .09098816 .47808839 .11999512 .47808839 .15098572 .47808839 .17098999 .50009158 .17098999 .5290985 .17098999 .57910159 .12399292 .57910159 .10899353 .57910159 .13999939 .62802127 .20599365 .64100649 .24198914 .64100649 .2829895 .64100649 .33799745 .6190338 .33799745 .5290985 .33799745 .51708987 .33599855 .45906068 .30999757 .4149933 .27999879 .36691285 .24598694 .36390687 .22099304 .36291505 .21299744 .36190797 .18899536 .35990907 .18199158 .35990907 .17399597 .35890199 .16699219 .35791017 .16699219 .3479004 .16699219 .33691407 .17399597 .33691407 .19099427 .33691407H.23498535C.31698609 .33691407 .35398866 .2686615 .35398866 .17037964 .35398866 .034469606 .2849884 .0055389406 .24099732 .0055389406 .19799805 .0055389406 .12298584 .022491456 .08799744 .08137512 .12298584 .07637024 .1539917 .09837341 .1539917 .1363678 .1539917 .17237854 .1269989 .19238281 .09799194 .19238281 .07398987 .19238281 .041992189 .17837525 .041992189 .1343689 .041992189 .043441774 .1349945-.022460938 .24398804-.022460938 .3659973-.022460938 .45700074 .06838989 .45700074 .17037964 .45700074 .252594 .3939972 .33088685 .2899933 .35191346Z"/>
<path id="font_4_5" d="M.2939911 .16503906V.07800293C.2939911 .041992189 .2919922 .0309906 .21798706 .0309906H.19699097V0C.23799134 .0029907227 .2899933 .0029907227 .33198548 .0029907227 .37399293 .0029907227 .4269867 .0029907227 .46798707 0V.0309906H.44699098C.37298585 .0309906 .37098695 .041992189 .37098695 .07800293V.16503906H.47099305V.19602967H.37098695V.65075686C.37098695 .67074587 .37098695 .6767578 .35499574 .6767578 .34599305 .6767578 .34298707 .6767578 .33499146 .66474917L.027999878 .19602967V.16503906H.2939911M.2999878 .19602967H.055999757L.2999878 .5688019V.19602967Z"/>
</defs>
<path transform="matrix(1.00003,0,0,-1.00006,1.4615555,208.07067)" d="M0 .03302H239.10279V206.26186H0Z" fill="#fffac2"/>
<path transform="matrix(1.00003,0,0,-1.00006,1.4615555,208.07067)" stroke-width=".3985" stroke-linecap="butt" stroke-miterlimit="10" stroke-linejoin="miter" fill="none" stroke="#d5d6d5" d="M19.92523 .03302V206.26186M39.85046 .03302V206.26186M59.7757 .03302V206.26186M79.70093 .03302V206.26186M99.62616 .03302V206.26186M119.55139 .03302V206.26186M139.47663 .03302V206.26186M159.40186 .03302V206.26186M179.32709 .03302V206.26186M199.25232 .03302V206.26186M219.17755 .03302V206.26186"/>
<path transform="matrix(1.00003,0,0,-1.00006,1.4615555,208.07067)" stroke-width=".3985" stroke-linecap="butt" stroke-miterlimit="10" stroke-linejoin="miter" fill="none" stroke="#d5d6d5" d="M39.85046 .03302V206.26186M79.70093 .03302V206.26186M119.55139 .03302V206.26186M199.25232 .03302V206.26186"/>
<path transform="matrix(1.00003,0,0,-1.00006,1.4615555,208.07067)" stroke-width=".3985" stroke-linecap="butt" stroke-miterlimit="10" stroke-linejoin="miter" fill="none" stroke="#d5d6d5" d="M0 12.92233H239.10279M0 25.81163H239.10279M0 38.70093H239.10279M0 51.59023H239.10279M0 64.47954H239.10279M0 77.36884H239.10279M0 90.25813H239.10279M0 103.14743H239.10279M0 116.03674H239.10279M0 128.92604H239.10279M0 141.81534H239.10279M0 154.70464H239.10279M0 167.59395H239.10279M0 180.48325H239.10279M0 193.37255H239.10279"/>
<path transform="matrix(1.00003,0,0,-1.00006,1.4615555,208.07067)" stroke-width=".3985" stroke-linecap="butt" stroke-miterlimit="10" stroke-linejoin="miter" fill="none" stroke="#d5d6d5" d="M0 25.81163H239.10279M0 51.59023H239.10279M0 77.36884H239.10279M0 103.14743H239.10279M0 154.70464H239.10279M0 180.48325H239.10279"/>
<path transform="matrix(1.00003,0,0,-1.00006,1.4615555,208.07067)" stroke-width=".19925" stroke-linecap="butt" stroke-miterlimit="10" stroke-linejoin="miter" fill="none" stroke="#929292" d="M19.92523 127.50871V130.34339M39.85046 127.50871V130.34339M59.7757 127.50871V130.34339M79.70093 127.50871V130.34339M99.62616 127.50871V130.34339M119.55139 127.50871V130.34339M139.47663 127.50871V130.34339M159.40186 127.50871V130.34339M179.32709 127.50871V130.34339M199.25232 127.50871V130.34339M219.17755 127.50871V130.34339"/>
<path transform="matrix(1.00003,0,0,-1.00006,1.4615555,208.07067)" stroke-width=".19925" stroke-linecap="butt" stroke-miterlimit="10" stroke-linejoin="miter" fill="none" stroke="#929292" d="M39.85046 126.80026V131.05182M79.70093 126.80026V131.05182M119.55139 126.80026V131.05182M199.25232 126.80026V131.05182"/>
<path transform="matrix(1.00003,0,0,-1.00006,1.4615555,208.07067)" stroke-width=".19925" stroke-linecap="butt" stroke-miterlimit="10" stroke-linejoin="miter" fill="none" stroke="#929292" d="M157.98445 12.92233H160.81926M157.98445 25.81163H160.81926M157.98445 38.70093H160.81926M157.98445 51.59023H160.81926M157.98445 64.47954H160.81926M157.98445 77.36884H160.81926M157.98445 90.25813H160.81926M157.98445 103.14743H160.81926M157.98445 116.03674H160.81926M157.98445 128.92604H160.81926M157.98445 141.81534H160.81926M157.98445 154.70464H160.81926M157.98445 167.59395H160.81926M157.98445 180.48325H160.81926M157.98445 193.37255H160.81926"/>
<path transform="matrix(1.00003,0,0,-1.00006,1.4615555,208.07067)" stroke-width=".19925" stroke-linecap="butt" stroke-miterlimit="10" stroke-linejoin="miter" fill="none" stroke="#929292" d="M157.27597 25.81163H161.52773M157.27597 51.59023H161.52773M157.27597 77.36884H161.52773M157.27597 103.14743H161.52773M157.27597 154.70464H161.52773M157.27597 180.48325H161.52773"/>
<path transform="matrix(1.00003,0,0,-1.00006,1.4615555,208.07067)" stroke-width=".3985" stroke-linecap="butt" stroke-miterlimit="10" stroke-linejoin="miter" fill="none" stroke="#000000" d="M1.99252 128.92604H237.11026"/>
<path transform="matrix(-1.00003,-0,0,1.00006,3.4541355,79.13689)" d="M1.99252 0-1.19551 1.59401 0 0-1.19551-1.59401"/>
<path transform="matrix(1.00003,0,0,-1.00006,238.57895,79.13689)" d="M1.99252 0-1.19551 1.59401 0 0-1.19551-1.59401"/>
<path transform="matrix(1.00003,0,0,-1.00006,1.4615555,208.07067)" stroke-width=".3985" stroke-linecap="butt" stroke-miterlimit="10" stroke-linejoin="miter" fill="none" stroke="#000000" d="M159.40186 2.02554V204.26934"/>
<path transform="matrix(0,1.00006,1.00003,0,160.8682,206.045)" d="M1.99252 0-1.19551 1.59401 0 0-1.19551-1.59401"/>
<path transform="matrix(0,-1.00006,-1.00003,-0,160.8682,3.7890778)" d="M1.99252 0-1.19551 1.59401 0 0-1.19551-1.59401"/>
<use data-text="&#x2212;" xlink:href="#font_1_1" transform="matrix(7.9703395,0,0,-7.9705779,35.902589,89.91957)"/>
<use data-text="6" xlink:href="#font_2_3" transform="matrix(7.9703395,0,0,-7.9705779,42.489786,89.91957)"/>
<use data-text="&#x2212;" xlink:href="#font_1_1" transform="matrix(7.9703395,0,0,-7.9705779,75.75479,89.91957)"/>
<use data-text="4" xlink:href="#font_2_2" transform="matrix(7.9703395,0,0,-7.9705779,82.34199,89.91957)"/>
<use data-text="&#x2212;" xlink:href="#font_1_1" transform="matrix(7.9703395,0,0,-7.9705779,115.60598,89.91957)"/>
<use data-text="2" xlink:href="#font_2_1" transform="matrix(7.9703395,0,0,-7.9705779,122.19318,89.91957)"/>
<use data-text="2" xlink:href="#font_2_1" transform="matrix(7.9703395,0,0,-7.9705779,198.60248,89.91957)"/>
<use data-text="&#x2212;" xlink:href="#font_1_1" transform="matrix(7.9703395,0,0,-7.9705779,146.2919,184.41025)"/>
<use data-text="8" xlink:href="#font_2_4" transform="matrix(7.9703395,0,0,-7.9705779,152.8791,184.41025)"/>
<use data-text="&#x2212;" xlink:href="#font_1_1" transform="matrix(7.9703395,0,0,-7.9705779,146.2919,158.6307)"/>
<use data-text="6" xlink:href="#font_2_3" transform="matrix(7.9703395,0,0,-7.9705779,152.8791,158.6307)"/>
<use data-text="&#x2212;" xlink:href="#font_1_1" transform="matrix(7.9703395,0,0,-7.9705779,146.2919,132.85016)"/>
<use data-text="4" xlink:href="#font_2_2" transform="matrix(7.9703395,0,0,-7.9705779,152.8791,132.85016)"/>
<use data-text="&#x2212;" xlink:href="#font_1_1" transform="matrix(7.9703395,0,0,-7.9705779,146.2919,107.0706)"/>
<use data-text="2" xlink:href="#font_2_1" transform="matrix(7.9703395,0,0,-7.9705779,152.8791,107.0706)"/>
<use data-text="2" xlink:href="#font_2_1" transform="matrix(7.9703395,0,0,-7.9705779,152.87909,55.925539)"/>
<use data-text="4" xlink:href="#font_2_2" transform="matrix(7.9703395,0,0,-7.9705779,152.87909,30.145005)"/>
<path transform="matrix(1.00003,0,0,-1.00006,1.4615555,208.07067)" stroke-width=".99628" stroke-linecap="butt" stroke-miterlimit="10" stroke-linejoin="miter" fill="none" stroke="#9e0c0f" d="M98.44005 8.06104 101.64856 20.63911 106.89886 39.43268 112.14915 56.43648 117.39944 71.6503 122.64975 85.07428 127.90004 96.70845 133.15033 106.5527 138.40065 114.60709 143.65094 120.87163 148.90123 125.3463 154.15154 128.03112 159.40183 128.92604 164.65212 128.03112 169.90242 125.34633 175.15273 120.87167 180.40302 114.60713 185.65332 106.55275 190.90361 96.7085 196.1539 85.07443 201.4042 71.65038 206.6545 56.43657 211.9048 39.43289 217.1551 20.63924 220.3636 8.06114"/>
<path transform="matrix(-.24713743,.9689881,.9689591,.24714482,100.07868,199.32649)" d="M7.39124 0 2.37614 1.6717 .70447 0 2.37614-1.6717Z" fill="#9e0c0f"/>
<path transform="matrix(-.24713743,.9689881,.9689591,.24714482,100.07868,199.32649)" stroke-width=".99628" stroke-linecap="butt" stroke-miterlimit="10" stroke-linejoin="miter" fill="none" stroke="#9e0c0f" d="M7.39124 0 2.37614 1.6717 .70447 0 2.37614-1.6717Z"/>
<path transform="matrix(.24713743,.9689881,.9689591,-.24714482,221.65766,199.3264)" d="M7.39124 0 2.37614 1.6717 .70447 0 2.37614-1.6717Z" fill="#9e0c0f"/>
<path transform="matrix(.24713743,.9689881,.9689591,-.24714482,221.65766,199.3264)" stroke-width=".99628" stroke-linecap="butt" stroke-miterlimit="10" stroke-linejoin="miter" fill="none" stroke="#9e0c0f" d="M7.39124 0 2.37614 1.6717 .70447 0 2.37614-1.6717Z"/>
<use data-text="y" xlink:href="#font_3_5" transform="matrix(9.962899,0,0,-9.963197,196.98642,115.612117)" fill="#9e0c0f"/>
<use data-text="=" xlink:href="#font_4_6" transform="matrix(9.962899,0,0,-9.963197,204.99567,115.612117)" fill="#9e0c0f"/>
<use data-text="h" xlink:href="#font_3_2" transform="matrix(9.962899,0,0,-9.963197,215.51198,115.612117)" fill="#9e0c0f"/>
<use data-text="(" xlink:href="#font_4_1" transform="matrix(9.962899,0,0,-9.963197,221.25215,115.612117)" fill="#9e0c0f"/>
<use data-text="x" xlink:href="#font_3_4" transform="matrix(9.962899,0,0,-9.963197,225.12728,115.612117)" fill="#9e0c0f"/>
<use data-text=")" xlink:href="#font_4_2" transform="matrix(9.962899,0,0,-9.963197,230.82144,115.612117)" fill="#9e0c0f"/>
<path transform="matrix(1.00003,0,0,-1.00006,1.4615555,208.07067)" stroke-width=".99628" stroke-linecap="butt" stroke-miterlimit="10" stroke-linejoin="miter" fill="none" stroke="#008099" d="M26.80653 8.07631 31.27928 28.82724 37.49261 55.1475 43.70595 78.96127 49.91931 100.26834 56.13264 119.06868 62.34598 135.36234 68.55934 149.1492 74.77267 160.42942 80.98601 169.20294 87.19936 175.46976 93.4127 179.22986 99.62605 180.48325 105.83939 179.22994 112.05272 175.46993 118.26608 169.2032 124.47942 160.42975 130.69275 149.14962 136.90612 135.36286 143.11945 119.06929 149.33278 100.26901 155.54613 78.96207 161.75948 55.1485 167.97281 28.82803 172.44556 8.07727"/>
<path transform="matrix(-.21068633,.9775786,.9775494,.21069263,28.417336,199.30519)" d="M7.39124 0 2.37614 1.6717 .70447 0 2.37614-1.6717Z" fill="#008099"/>
<path transform="matrix(-.21068633,.9775786,.9775494,.21069263,28.417336,199.30519)" stroke-width=".99628" stroke-linecap="butt" stroke-miterlimit="10" stroke-linejoin="miter" fill="none" stroke="#008099" d="M7.39124 0 2.37614 1.6717 .70447 0 2.37614-1.6717Z"/>
<path transform="matrix(.21068633,.9775786,.9775494,-.21069263,173.76386,199.30422)" d="M7.39124 0 2.37614 1.6717 .70447 0 2.37614-1.6717Z" fill="#008099"/>
<path transform="matrix(.21068633,.9775786,.9775494,-.21069263,173.76386,199.30422)" stroke-width=".99628" stroke-linecap="butt" stroke-miterlimit="10" stroke-linejoin="miter" fill="none" stroke="#008099" d="M7.39124 0 2.37614 1.6717 .70447 0 2.37614-1.6717Z"/>
<use data-text="y" xlink:href="#font_3_5" transform="matrix(9.962899,0,0,-9.963197,40.756734,43.08777)" fill="#008099"/>
<use data-text="=" xlink:href="#font_4_6" transform="matrix(9.962899,0,0,-9.963197,48.765974,43.08777)" fill="#008099"/>
<use data-text="j" xlink:href="#font_3_3" transform="matrix(9.962899,0,0,-9.963197,59.282289,43.08777)" fill="#008099"/>
<use data-text="(" xlink:href="#font_4_1" transform="matrix(9.962899,0,0,-9.963197,63.95543,43.08777)" fill="#008099"/>
<use data-text="x" xlink:href="#font_3_4" transform="matrix(9.962899,0,0,-9.963197,67.83054,43.08777)" fill="#008099"/>
<use data-text=")" xlink:href="#font_4_2" transform="matrix(9.962899,0,0,-9.963197,73.52472,43.08777)" fill="#008099"/>
<path transform="matrix(1.00003,0,0,-1.00006,1.4615555,208.07067)" stroke-width=".3985" stroke-linecap="butt" stroke-miterlimit="10" stroke-linejoin="miter" fill="none" stroke="#9e0c0f" d=""/>
<use data-text="(" xlink:href="#font_4_1" transform="matrix(9.962899,0,0,-9.963197,164.38846,73.12558)" fill="#9e0c0f"/>
<use data-text="0" xlink:href="#font_4_3" transform="matrix(9.962899,0,0,-9.963197,168.25406,73.12558)" fill="#9e0c0f"/>
<use data-text="," xlink:href="#font_3_1" transform="matrix(9.962899,0,0,-9.963197,173.24472,73.12558)" fill="#9e0c0f"/>
<use data-text="0" xlink:href="#font_4_3" transform="matrix(9.962899,0,0,-9.963197,177.67285,73.12558)" fill="#9e0c0f"/>
<use data-text=")" xlink:href="#font_4_2" transform="matrix(9.962899,0,0,-9.963197,182.6543,73.12558)" fill="#9e0c0f"/>
<path transform="matrix(1.00003,0,0,-1.00006,1.4615555,208.07067)" stroke-width=".3985" stroke-linecap="butt" stroke-miterlimit="10" stroke-linejoin="miter" fill="none" stroke="#008099" d=""/>
<use data-text="(" xlink:href="#font_4_1" transform="matrix(9.962899,0,0,-9.963197,86.146099,21.565476)" fill="#008099"/>
<use data-text="&#x2212;" xlink:href="#font_5_1" transform="matrix(9.962899,0,0,-9.963197,90.02021,21.565476)" fill="#008099"/>
<use data-text="3" xlink:href="#font_4_4" transform="matrix(9.962899,0,0,-9.963197,97.76945,21.565476)" fill="#008099"/>
<use data-text="," xlink:href="#font_3_1" transform="matrix(9.962899,0,0,-9.963197,102.750598,21.565476)" fill="#008099"/>
<use data-text="4" xlink:href="#font_4_5" transform="matrix(9.962899,0,0,-9.963197,107.17873,21.565476)" fill="#008099"/>
<use data-text=")" xlink:href="#font_4_2" transform="matrix(9.962899,0,0,-9.963197,112.16018,21.565476)" fill="#008099"/>
<path transform="matrix(1.00003,0,0,-1.00006,1.4615555,208.07067)" d="M161.39441 128.92604C161.39441 130.0265 160.50234 130.9186 159.40186 130.9186 158.30139 130.9186 157.4093 130.0265 157.4093 128.92604 157.4093 127.82558 158.30139 126.93349 159.40186 126.93349 160.50234 126.93349 161.39441 127.82558 161.39441 128.92604ZM159.40186 128.92604" fill="#9e0c0f"/>
<path transform="matrix(1.00003,0,0,-1.00006,1.4615555,208.07067)" stroke-width=".3985" stroke-linecap="butt" stroke-miterlimit="10" stroke-linejoin="miter" fill="none" stroke="#9e0c0f" d="M161.39441 128.92604C161.39441 130.0265 160.50234 130.9186 159.40186 130.9186 158.30139 130.9186 157.4093 130.0265 157.4093 128.92604 157.4093 127.82558 158.30139 126.93349 159.40186 126.93349 160.50234 126.93349 161.39441 127.82558 161.39441 128.92604ZM159.40186 128.92604"/>
<path transform="matrix(1.00003,0,0,-1.00006,1.4615555,208.07067)" stroke-width=".3985" stroke-linecap="butt" stroke-miterlimit="10" stroke-linejoin="miter" fill="none" stroke="#9e0c0f" d=""/>
<path transform="matrix(1.00003,0,0,-1.00006,1.4615555,208.07067)" d="M101.61871 180.48325C101.61871 181.58371 100.72662 182.4758 99.62616 182.4758 98.52568 182.4758 97.6336 181.58371 97.6336 180.48325 97.6336 179.38278 98.52568 178.49069 99.62616 178.49069 100.72662 178.49069 101.61871 179.38278 101.61871 180.48325ZM99.62616 180.48325" fill="#008099"/>
<path transform="matrix(1.00003,0,0,-1.00006,1.4615555,208.07067)" stroke-width=".3985" stroke-linecap="butt" stroke-miterlimit="10" stroke-linejoin="miter" fill="none" stroke="#008099" d="M101.61871 180.48325C101.61871 181.58371 100.72662 182.4758 99.62616 182.4758 98.52568 182.4758 97.6336 181.58371 97.6336 180.48325 97.6336 179.38278 98.52568 178.49069 99.62616 178.49069 100.72662 178.49069 101.61871 179.38278 101.61871 180.48325ZM99.62616 180.48325"/>
<path transform="matrix(1.00003,0,0,-1.00006,1.4615555,208.07067)" stroke-width=".3985" stroke-linecap="butt" stroke-miterlimit="10" stroke-linejoin="miter" fill="none" stroke="#008099" d=""/>
<use data-text="x" xlink:href="#font_3_4" transform="matrix(9.962899,0,0,-9.963197,231.35749,75.61673)"/>
<use data-text="y" xlink:href="#font_3_5" transform="matrix(9.962899,0,0,-9.963197,164.38846,9.605759)"/>
</svg>
