<svg xmlns="http://www.w3.org/2000/svg" xmlns:xlink="http://www.w3.org/1999/xlink" version="1.1" width="242" height="210" viewBox="0 0 242 210">
<defs>
<path id="font_1_1" d="M.69898989 .22743225C.71499636 .22743225 .7369995 .22743225 .7369995 .25042726 .7369995 .2734375 .71499636 .2734375 .69898989 .2734375H.12599182C.10998535 .2734375 .08799744 .2734375 .08799744 .25042726 .08799744 .22743225 .10998535 .22743225 .12599182 .22743225H.69898989Z"/>
<path id="font_2_2" d="M.3939972 .6468048C.3939972 .6667938 .3939972 .6748047 .37298585 .6748047 .3600006 .6748047 .35899354 .6737976 .34899903 .65979006L.02999878 .197052V.1640625H.31199647V.08100891C.31199647 .04399109 .30899049 .032989503 .23199463 .032989503H.20899964V0C.2939911 .0029907227 .29599 .0029907227 .35299684 .0029907227 .4099884 .0029907227 .4119873 .0029907227 .49699403 0V.032989503H.47399903C.39698792 .032989503 .3939972 .04399109 .3939972 .08100891V.1640625H.5V.197052H.3939972V.6468048M.31900025 .5658417V.197052H.06498718L.31900025 .5658417Z"/>
<path id="font_2_1" d="M.28199769 .20405579C.2979889 .21907044 .33999635 .2520752 .35598756 .26608277 .41799928 .32312013 .47698976 .3781433 .47698976 .46917726 .47698976 .588089 .3769989 .66503909 .2519989 .66503909 .13198853 .66503909 .052993776 .57411196 .052993776 .48516847 .052993776 .4361725 .09199524 .4291687 .10598755 .4291687 .1269989 .4291687 .1579895 .4441681 .1579895 .48217774 .1579895 .5341797 .10798645 .5341797 .09599304 .5341797 .125 .6070709 .19198609 .6320343 .24099732 .6320343 .33399964 .6320343 .38198854 .55314639 .38198854 .46917726 .38198854 .36514283 .30899049 .28910829 .19099427 .16804505L.06498718 .037994386C.052993776 .026992798 .052993776 .024993897 .052993776 0H.44799806L.47698976 .17904663H.44599916C.44299317 .1590271 .43499757 .10900879 .4229889 .08999634 .4169922 .08198547 .34098817 .08198547 .32499696 .08198547H.14698792L.28199769 .20405579Z"/>
<path id="font_2_3" d="M.13798523 .33073426C.13798523 .41377259 .14498902 .4868164 .18099976 .54782107 .21099854 .5978241 .2619934 .6390381 .32499696 .6390381 .34498597 .6390381 .3909912 .63601687 .4139862 .60084536 .36898805 .5988312 .36499024 .5648346 .36499024 .553833 .36499024 .5238342 .3880005 .50683596 .4119873 .50683596 .42999269 .50683596 .45899964 .51782229 .45899964 .5558319 .45899964 .615921 .4139862 .66503909 .32398988 .66503909 .18499756 .66503909 .04399109 .53282168 .04399109 .31672669 .04399109 .045532228 .16999817-.021484375 .2669983-.021484375 .31498719-.021484375 .36698915-.0084991459 .4119873 .03453064 .45199586 .07354736 .48599244 .11558533 .48599244 .20263672 .48599244 .33372499 .3869934 .42578126 .27598573 .42578126 .20399475 .42578126 .16099549 .37976075 .13798523 .33073426M.2669983 .008514404C.21398926 .008514404 .18099976 .045532228 .1659851 .07354736 .14299011 .11859131 .14099121 .18663025 .14099121 .22465515 .14099121 .32373048 .19499207 .3977661 .27198792 .3977661 .32199098 .3977661 .35198976 .37176515 .37098695 .33673097 .3919983 .29971314 .3919983 .25468446 .3919983 .2036438 .3919983 .15260315 .3919983 .10858154 .37199403 .07255554 .34599305 .026519776 .31098939 .008514404 .2669983 .008514404Z"/>
<path id="font_2_4" d="M.33198548 .36080934C.3880005 .38783265 .45599366 .4378662 .45599366 .5159302 .45599366 .6110077 .35899354 .66503909 .2659912 .66503909 .1599884 .66503909 .07398987 .59199526 .07398987 .49790956 .07398987 .46089173 .08699036 .42686463 .11199951 .39782716 .1289978 .3768158 .1329956 .3748169 .19499207 .3357849 .070999149 .2807312 .04399109 .20767212 .04399109 .15162659 .04399109 .041534425 .15499878-.021484375 .2639923-.021484375 .3869934-.021484375 .48599244 .061553956 .48599244 .16764832 .48599244 .23069763 .45199586 .2727356 .43598939 .28974916 .4189911 .30575563 .41799928 .3067627 .33198548 .36080934M.1769867 .45487977C.147995 .4718933 .12399292 .5009155 .12399292 .5359497 .12399292 .598999 .19299317 .6390381 .2639923 .6390381 .34199525 .6390381 .4059906 .5859833 .4059906 .5159302 .4059906 .45788575 .36099244 .408844 .3019867 .37982179L.1769867 .45487977M.22599793 .31776429C.22999573 .31576539 .34399415 .24571228 .36099244 .23469544 .3769989 .22569275 .42900086 .19366455 .42900086 .13360596 .42900086 .056549074 .34799195 .008514404 .2659912 .008514404 .1769867 .008514404 .100997928 .06956482 .100997928 .15162659 .100997928 .22668457 .15699768 .28573609 .22599793 .31776429Z"/>
<clipPath id="clip_3">
<path transform="matrix(1.00005,0,0,-1.00003,1.4609223,208.03086)" d="M0 0H239.10645V206.22882H0Z"/>
</clipPath>
<path id="font_4_1" d="M.33099366-.2400055C.33099366-.23701477 .33099366-.23500061 .31399537-.21800232 .18899536-.0920105 .15699768 .09700012 .15699768 .25 .15699768 .42399598 .19499207 .59799197 .31799317 .72299197 .33099366 .73498538 .33099366 .7369995 .33099366 .73999026 .33099366 .746994 .32699586 .75 .32099916 .75 .31098939 .75 .22099304 .6819916 .1619873 .5549927 .11099243 .44499208 .09899902 .33399964 .09899902 .25 .09899902 .17199707 .10998535 .050994874 .16499329-.06201172 .22499085-.18501282 .31098939-.25 .32099916-.25 .32699586-.25 .33099366-.24700928 .33099366-.2400055Z"/>
<path id="font_4_3" d="M.2939911 .16503906V.07800293C.2939911 .041992189 .2919922 .0309906 .21798706 .0309906H.19699097V0C.23799134 .0029907227 .2899933 .0029907227 .33198548 .0029907227 .37399293 .0029907227 .4269867 .0029907227 .46798707 0V.0309906H.44699098C.37298585 .0309906 .37098695 .041992189 .37098695 .07800293V.16503906H.47099305V.19602967H.37098695V.65075686C.37098695 .67074587 .37098695 .6767578 .35499574 .6767578 .34599305 .6767578 .34298707 .6767578 .33499146 .66474917L.027999878 .19602967V.16503906H.2939911M.2999878 .19602967H.055999757L.2999878 .5688019V.19602967Z"/>
<path id="font_5_1" d="M.20298767 .0009918213C.20298767 .066986087 .17799378 .10598755 .13899231 .10598755 .10598755 .10598755 .085998538 .08099365 .085998538 .052993776 .085998538 .025985718 .10598755 0 .13899231 0 .15098572 0 .1639862 .0039978029 .17399597 .0129852299 .1769867 .01499939 .17799378 .015991211 .1789856 .015991211 .17999268 .015991211 .18099976 .01499939 .18099976 .0009918213 .18099976-.07316589 .1459961-.13328552 .11299133-.16635132 .101989749-.17736817 .101989749-.17936707 .101989749-.18237305 .101989749-.18936157 .10699463-.19335938 .11199951-.19335938 .12298584-.19335938 .20298767-.116256717 .20298767 .0009918213Z"/>
<path id="font_4_4" d="M.16299439 .4569702C.116989139 .486969 .11299133 .52098086 .11299133 .5379791 .11299133 .598999 .17799378 .64100649 .24899292 .64100649 .32199098 .64100649 .38598634 .58898928 .38598634 .51698306 .38598634 .45996095 .34700013 .4119568 .2869873 .37695313L.16299439 .4569702M.30899049 .36193849C.3809967 .3989563 .42999269 .45095826 .42999269 .51698306 .42999269 .6090088 .34098817 .6660156 .25 .6660156 .1499939 .6660156 .068984989 .59199526 .068984989 .49897767 .068984989 .4809723 .070999149 .43595887 .11299133 .38894654 .12399292 .37695313 .16099549 .35194398 .18598938 .33494569 .12799073 .30592347 .041992189 .24984741 .041992189 .15072632 .041992189 .04458618 .14399719-.022460938 .24899292-.022460938 .3619995-.022460938 .45700074 .06060791 .45700074 .16773987 .45700074 .20379639 .44599916 .24885559 .4079895 .2909088 .3889923 .31193543 .37298585 .3219452 .30899049 .36193849M.20899964 .3199463 .33198548 .24183655C.3600006 .2228241 .40699769 .19277954 .40699769 .13169861 .40699769 .05760193 .33198548 .0055389406 .25 .0055389406 .1639862 .0055389406 .09199524 .067611698 .09199524 .15072632 .09199524 .20880127 .12399292 .27288819 .20899964 .3199463Z"/>
<path id="font_4_2" d="M.2889862 .25C.2889862 .32798768 .27799989 .44898988 .22299195 .56199648 .16299439 .68499758 .07699585 .75 .066986087 .75 .06098938 .75 .056991579 .74598696 .056991579 .73999026 .056991579 .7369995 .056991579 .73498538 .07598877 .71699526 .17399597 .6179962 .23098755 .45899964 .23098755 .25 .23098755 .07899475 .19400025-.09700012 .069992069-.2230072 .056991579-.23500061 .056991579-.23701477 .056991579-.2400055 .056991579-.2460022 .06098938-.25 .066986087-.25 .07699585-.25 .16699219-.18200684 .22599793-.055007936 .2769928 .054992677 .2889862 .16600037 .2889862 .25Z"/>
<path id="font_6_98" d="M.3600006 .12823487C.3600006 .18122864 .32998658 .21122742 .31799317 .22323609 .2849884 .25523377 .24598694 .26322938 .20399475 .27124024 .147995 .28224183 .08099365 .29522706 .08099365 .35324098 .08099365 .38822938 .10699463 .42922975 .19299317 .42922975 .30299378 .42922975 .30799867 .3392334 .30999757 .30822755 .31098939 .2992401 .32199098 .2992401 .32199098 .2992401 .33499146 .2992401 .33499146 .30422975 .33499146 .32322694V.4242401C.33499146 .4412384 .33499146 .4482422 .32398988 .4482422 .31900025 .4482422 .31698609 .4482422 .3039856 .43623353 .30099488 .43223573 .29100038 .42323304 .2869873 .42022706 .24899292 .4482422 .20799256 .4482422 .19299317 .4482422 .070999149 .4482422 .032989503 .38124085 .032989503 .3252411 .032989503 .29023744 .04899597 .26223756 .07598877 .24023438 .10798645 .2142334 .13598633 .2082367 .20799256 .19422913 .22999573 .19021607 .31199647 .17422486 .31199647 .10221863 .31199647 .051223756 .2769928 .011245728 .19898987 .011245728 .114990238 .011245728 .07899475 .068222049 .05999756 .1532135 .056991579 .16621399 .055999757 .17021179 .04598999 .17021179 .032989503 .17021179 .032989503 .16322327 .032989503 .1452179V.013214111C.032989503-.003753662 .032989503-.0107421879 .04399109-.0107421879 .04899597-.0107421879 .049987794-.009750366 .068984989 .009246826 .070999149 .011245728 .070999149 .013214111 .08898926 .032226564 .1329956-.009750366 .17799378-.0107421879 .19898987-.0107421879 .31399537-.0107421879 .3600006 .05621338 .3600006 .1282196V.12823487Z"/>
<path id="font_6_84" d="M.5209961 .21636963C.5209961 .34336854 .42399598 .4423828 .31199647 .4423828 .23399353 .4423828 .19198609 .39837647 .17199707 .3763733V.4423828L.027999878 .43066407V.3996582C.09899902 .3996582 .10598755 .3936615 .10598755 .34973146V-.117996219C.10598755-.16308594 .09498596-.16308594 .027999878-.16308594V-.1940918L.13999939-.19110108 .25299073-.1940918V-.16308594C.18598938-.16308594 .1749878-.16308594 .1749878-.117996219V.050186159 .059173585C.17999268 .04319763 .22200012-.0107421879 .2979889-.0107421879 .4169922-.0107421879 .5209961 .087127689 .5209961 .21594239V.21636963M.43798829 .21594239C.43798829 .09512329 .36799623 .011245728 .2939911 .011245728 .2539978 .011245728 .21598816 .031219483 .18899536 .07215881 .1749878 .09312439 .1749878 .09411621 .1749878 .114089969V.33674623C.20399475 .38838197 .25299073 .41737367 .3039856 .41737367 .3769989 .41737367 .43798829 .32937623 .43798829 .21636963V.21594239Z"/>
<path id="font_6_50" d="M.4149933 .11933899C.4149933 .12934876 .40699769 .13134766 .4019928 .13134766 .3929901 .13134766 .3909912 .12535095 .3889923 .11734009 .35398866 .014251709 .2639923 .014251709 .2539978 .014251709 .20399475 .014251709 .1639862 .044281007 .14099121 .08131409 .11099243 .12934876 .11099243 .19540406 .11099243 .23144531H.3899994C.4119873 .23144531 .4149933 .23144531 .4149933 .2524414 .4149933 .35131837 .36099244 .4482422 .23599243 .4482422 .11999512 .4482422 .027999878 .34532167 .027999878 .22042847 .027999878 .08631897 .1329956-.0107421879 .24798584-.0107421879 .36999513-.0107421879 .4149933 .10032654 .4149933 .11933899M.34899903 .2524414H.11199951C.117996219 .40126039 .20199585 .426239 .23599243 .426239 .33898927 .426239 .34899903 .2913971 .34899903 .2524414Z"/>
<path id="font_6_47" d="M.5269928 0V.0309906C.45700074 .0309906 .44898988 .038009645 .44898988 .0871582V.69433596L.30499269 .6826172V.6516113C.375 .6516113 .3829956 .64463809 .3829956 .59580996V.38035584C.35398866 .41636659 .31098939 .4423828 .25698854 .4423828 .13899231 .4423828 .033996583 .3443451 .033996583 .21531677 .033996583 .088272098 .13198853-.0107421879 .24598694-.0107421879 .30999757-.0107421879 .35499574 .023254395 .37998963 .055267335V-.0107421879L.5269928 0M.37998963 .117996219C.37998963 .099990848 .37998963 .09799194 .36898805 .08099365 .33898927 .033218385 .2939911 .011245728 .25099183 .011245728 .20599365 .011245728 .16999817 .037216188 .1459961 .075164798 .11999512 .1161499 .116989139 .17320252 .116989139 .21421814 .116989139 .25125123 .11898804 .31129457 .147995 .35632325 .16899109 .38734437 .20698548 .42037965 .26098634 .42037965 .29599 .42037965 .33799745 .405365 .36898805 .3603363 .37998963 .34332276 .37998963 .34132386 .37998963 .32330323V.117996219Z"/>
<path id="font_6_105" d="M.33198548 .12385559V.18066406H.30699159V.12585449C.30699159 .052108766 .2769928 .014251709 .23999024 .014251709 .17298889 .014251709 .17298889 .10491943 .17298889 .12187195V.3996582H.31599427V.43066407H.17298889V.6142578H.147995C.14698792 .5324249 .116989139 .42565919 .018997193 .42166139V.3996582H.10398865V.12408447C.10398865 .0012512207 .19699097-.0107421879 .23298645-.0107421879 .3039856-.0107421879 .33198548 .060180665 .33198548 .12408447V.12385559Z"/>
<path id="font_6_66" d="M.24699402 0V.0309906C.18099976 .0309906 .1769867 .035995485 .1769867 .075042728V.4423828L.036987306 .43066407V.3996582C.101989749 .3996582 .11099243 .3936615 .11099243 .3447113V.07595825C.11099243 .0309906 .099990848 .0309906 .032989503 .0309906V0L.14299011 .0029907227C.17799378 .0029907227 .21299744 .0009918213 .24699402 0M.19198609 .603775C.19198609 .6307678 .16899109 .6567688 .13899231 .6567688 .10499573 .6567688 .084991458 .6287689 .084991458 .603775 .084991458 .57676699 .10798645 .55078127 .13798523 .55078127 .17199707 .55078127 .19198609 .5787811 .19198609 .603775Z"/>
<path id="font_6_75" d="M.8129883 0V.0309906C.7609863 .0309906 .73599246 .0309906 .7350006 .061019899V.25221253C.7350006 .3383026 .7350006 .36932374 .70399478 .405365 .6899872 .42237855 .6569977 .4423828 .598999 .4423828 .5149994 .4423828 .47099305 .38233949 .45399476 .34429933 .43998719 .43138124 .3659973 .4423828 .32099916 .4423828 .24798584 .4423828 .20098877 .39935304 .17298889 .33729554V.4423828L.03199768 .43066407V.3996582C.101989749 .3996582 .10998535 .39266969 .10998535 .34370423V.07595825C.10998535 .0309906 .09899902 .0309906 .03199768 .0309906V0L.14498902 .0029907227 .25698854 0V.0309906C.18998719 .0309906 .1789856 .0309906 .1789856 .07595825V.25978089C.1789856 .36431886 .25 .42037965 .31399537 .42037965 .3769989 .42037965 .3880005 .36631776 .3880005 .30926515V.076034549C.3880005 .0309906 .3769989 .0309906 .30999757 .0309906V0L.4229889 .0029907227 .5349884 0V.0309906C.46798707 .0309906 .45700074 .0309906 .45700074 .076034549V.2602234C.45700074 .36431886 .5279999 .42037965 .59199526 .42037965 .6549988 .42037965 .66600039 .36631776 .66600039 .30926515V.076034549C.66600039 .0309906 .6549988 .0309906 .58799746 .0309906V0L.70098879 .0029907227 .8129883 0Z"/>
</defs>
<path transform="matrix(1.00005,0,0,-1.00003,1.4609223,208.03086)" d="M0 0H239.10645V206.22882H0Z" fill="#fffac2"/>
<path transform="matrix(1.00005,0,0,-1.00003,1.4609223,208.03086)" stroke-width=".3985" stroke-linecap="butt" stroke-miterlimit="10" stroke-linejoin="miter" fill="none" stroke="#d5d6d5" d="M0 0V206.22882M14.94415 0V206.22882M29.8883 0V206.22882M44.83246 0V206.22882M59.77661 0V206.22882M74.72076 0V206.22882M89.66492 0V206.22882M104.60907 0V206.22882M119.55322 0V206.22882M134.49738 0V206.22882M149.44153 0V206.22882M164.38568 0V206.22882M179.32984 0V206.22882M194.27399 0V206.22882M209.21814 0V206.22882M224.1623 0V206.22882M239.10645 0V206.22882"/>
<path transform="matrix(1.00005,0,0,-1.00003,1.4609223,208.03086)" stroke-width=".3985" stroke-linecap="butt" stroke-miterlimit="10" stroke-linejoin="miter" fill="none" stroke="#d5d6d5" d="M29.8883 0V206.22882M59.77661 0V206.22882M119.55322 0V206.22882M149.44153 0V206.22882M179.32984 0V206.22882M209.21814 0V206.22882"/>
<path transform="matrix(1.00005,0,0,-1.00003,1.4609223,208.03086)" stroke-width=".3985" stroke-linecap="butt" stroke-miterlimit="10" stroke-linejoin="miter" fill="none" stroke="#d5d6d5" d="M0 0H239.10645M0 12.8893H239.10645M0 25.7786H239.10645M0 38.6679H239.10645M0 51.5572H239.10645M0 64.4465H239.10645M0 77.3358H239.10645M0 90.2251H239.10645M0 103.11441H239.10645M0 116.00371H239.10645M0 128.893H239.10645M0 141.7823H239.10645M0 154.67162H239.10645M0 167.56092H239.10645M0 180.45021H239.10645M0 193.33951H239.10645M0 206.22882H239.10645"/>
<path transform="matrix(1.00005,0,0,-1.00003,1.4609223,208.03086)" stroke-width=".3985" stroke-linecap="butt" stroke-miterlimit="10" stroke-linejoin="miter" fill="none" stroke="#d5d6d5" d="M0 25.7786H239.10645M0 51.5572H239.10645M0 103.11441H239.10645M0 128.893H239.10645M0 154.67162H239.10645M0 180.45021H239.10645"/>
<path transform="matrix(1.00005,0,0,-1.00003,1.4609223,208.03086)" stroke-width=".19925" stroke-linecap="butt" stroke-miterlimit="10" stroke-linejoin="miter" fill="none" stroke="#929292" d="M0 75.91847V78.75313M14.94415 75.91847V78.75313M29.8883 75.91847V78.75313M44.83246 75.91847V78.75313M59.77661 75.91847V78.75313M74.72076 75.91847V78.75313M89.66492 75.91847V78.75313M104.60907 75.91847V78.75313M119.55322 75.91847V78.75313M134.49738 75.91847V78.75313M149.44153 75.91847V78.75313M164.38568 75.91847V78.75313M179.32984 75.91847V78.75313M194.27399 75.91847V78.75313M209.21814 75.91847V78.75313M224.1623 75.91847V78.75313M239.10645 75.91847V78.75313"/>
<path transform="matrix(1.00005,0,0,-1.00003,1.4609223,208.03086)" stroke-width=".19925" stroke-linecap="butt" stroke-miterlimit="10" stroke-linejoin="miter" fill="none" stroke="#929292" d="M29.8883 75.21002V79.46156M59.77661 75.21002V79.46156M119.55322 75.21002V79.46156M149.44153 75.21002V79.46156M179.32984 75.21002V79.46156M209.21814 75.21002V79.46156"/>
<path transform="matrix(1.00005,0,0,-1.00003,1.4609223,208.03086)" stroke-width=".19925" stroke-linecap="butt" stroke-miterlimit="10" stroke-linejoin="miter" fill="none" stroke="#929292" d="M88.24767 0H91.08217M88.24767 12.8893H91.08217M88.24767 25.7786H91.08217M88.24767 38.6679H91.08217M88.24767 51.5572H91.08217M88.24767 64.4465H91.08217M88.24767 77.3358H91.08217M88.24767 90.2251H91.08217M88.24767 103.11441H91.08217M88.24767 116.00371H91.08217M88.24767 128.893H91.08217M88.24767 141.7823H91.08217M88.24767 154.67162H91.08217M88.24767 167.56092H91.08217M88.24767 180.45021H91.08217M88.24767 193.33951H91.08217M88.24767 206.22882H91.08217"/>
<path transform="matrix(1.00005,0,0,-1.00003,1.4609223,208.03086)" stroke-width=".19925" stroke-linecap="butt" stroke-miterlimit="10" stroke-linejoin="miter" fill="none" stroke="#929292" d="M87.53922 25.7786H91.7906M87.53922 51.5572H91.7906M87.53922 103.11441H91.7906M87.53922 128.893H91.7906M87.53922 154.67162H91.7906M87.53922 180.45021H91.7906"/>
<path transform="matrix(1.00005,0,0,-1.00003,1.4609223,208.03086)" stroke-width=".3985" stroke-linecap="butt" stroke-miterlimit="10" stroke-linejoin="miter" fill="none" stroke="#000000" d="M1.99252 77.3358H237.1139"/>
<path transform="matrix(-1.00005,-0,0,1.00003,3.4535418,130.69272)" d="M1.99252 0-1.19551 1.59401 0 0-1.19551-1.59401"/>
<path transform="matrix(1.00005,0,0,-1.00003,238.58667,130.69272)" d="M1.99252 0-1.19551 1.59401 0 0-1.19551-1.59401"/>
<path transform="matrix(1.00005,0,0,-1.00003,1.4609223,208.03086)" stroke-width=".3985" stroke-linecap="butt" stroke-miterlimit="10" stroke-linejoin="miter" fill="none" stroke="#000000" d="M89.66492 1.99252V204.2363"/>
<path transform="matrix(0,1.00003,1.00005,0,91.13032,206.03827)" d="M1.99252 0-1.19551 1.59401 0 0-1.19551-1.59401"/>
<path transform="matrix(0,-1.00003,-1.00005,-0,91.13032,3.7884217)" d="M1.99252 0-1.19551 1.59401 0 0-1.19551-1.59401"/>
<use data-text="&#x2212;" xlink:href="#font_1_1" transform="matrix(7.970498,0,0,-7.9703395,25.940146,141.47486)"/>
<use data-text="4" xlink:href="#font_2_2" transform="matrix(7.970498,0,0,-7.9703395,32.527475,141.47486)"/>
<use data-text="&#x2212;" xlink:href="#font_1_1" transform="matrix(7.970498,0,0,-7.9703395,55.829645,141.47486)"/>
<use data-text="2" xlink:href="#font_2_1" transform="matrix(7.970498,0,0,-7.9703395,62.41697,141.47486)"/>
<use data-text="2" xlink:href="#font_2_1" transform="matrix(7.970498,0,0,-7.9703395,118.90279,141.47486)"/>
<use data-text="4" xlink:href="#font_2_2" transform="matrix(7.970498,0,0,-7.9703395,148.79228,141.47486)"/>
<use data-text="6" xlink:href="#font_2_3" transform="matrix(7.970498,0,0,-7.9703395,178.68277,141.47486)"/>
<use data-text="8" xlink:href="#font_2_4" transform="matrix(7.970498,0,0,-7.9703395,208.57227,141.47486)"/>
<use data-text="&#x2212;" xlink:href="#font_1_1" transform="matrix(7.970498,0,0,-7.9703395,76.55367,184.40415)"/>
<use data-text="4" xlink:href="#font_2_2" transform="matrix(7.970498,0,0,-7.9703395,83.141,184.40415)"/>
<use data-text="&#x2212;" xlink:href="#font_1_1" transform="matrix(7.970498,0,0,-7.9703395,76.55367,158.62537)"/>
<use data-text="2" xlink:href="#font_2_1" transform="matrix(7.970498,0,0,-7.9703395,83.141,158.62537)"/>
<use data-text="2" xlink:href="#font_2_1" transform="matrix(7.970498,0,0,-7.9703395,83.14101,107.481838)"/>
<use data-text="4" xlink:href="#font_2_2" transform="matrix(7.970498,0,0,-7.9703395,83.14101,81.70207)"/>
<use data-text="6" xlink:href="#font_2_3" transform="matrix(7.970498,0,0,-7.9703395,83.14101,55.923295)"/>
<use data-text="8" xlink:href="#font_2_4" transform="matrix(7.970498,0,0,-7.9703395,83.14101,30.143509)"/>
<g clip-path="url(#clip_3)">
<path transform="matrix(1.00005,0,0,-1.00003,1.4609223,208.03086)" stroke-width=".99628" stroke-linecap="butt" stroke-miterlimit="10" stroke-linejoin="miter" fill="none" stroke="#9e0c0f" d="M6.39102 14.1 .7285 18.73843 1.45702 18.12749 2.18552 17.50624 2.91405 16.8695 3.64255 16.21732 4.37106 15.54962 5.09958 14.86522 5.82808 14.16661 6.5566 13.4487 7.2851 12.71399 8.01364 11.95738 8.74214 11.18402 9.47066 10.39006 10.19917 9.57672 10.92767 8.74023 11.65619 7.87923 12.38469 6.99501 13.1132 6.08632 13.84172 5.15184 14.57024 4.18643 15.29875 3.19781 16.02725 2.1757 16.75577 1.12265 12.88329 6.89798"/>
<path transform="matrix(-.77357867,-.633669,-.63368168,.77356329,8.397239,194.37683)" d="M7.39124 0 2.37614 1.6717 .70447 0 2.37614-1.6717Z" fill="#9e0c0f"/>
<path transform="matrix(-.77357867,-.633669,-.63368168,.77356329,8.397239,194.37683)" stroke-width=".99628" stroke-linecap="butt" stroke-miterlimit="10" stroke-linejoin="miter" fill="none" stroke="#9e0c0f" d="M7.39124 0 2.37614 1.6717 .70447 0 2.37614-1.6717Z"/>
<path transform="matrix(.55690786,.830565,.8305815,-.55689677,13.952516,200.54755)" d="M7.39124 0 2.37614 1.6717 .70447 0 2.37614-1.6717Z" fill="#9e0c0f"/>
<path transform="matrix(.55690786,.830565,.8305815,-.55689677,13.952516,200.54755)" stroke-width=".99628" stroke-linecap="butt" stroke-miterlimit="10" stroke-linejoin="miter" fill="none" stroke="#9e0c0f" d="M7.39124 0 2.37614 1.6717 .70447 0 2.37614-1.6717Z"/>
<path transform="matrix(1.00005,0,0,-1.00003,1.4609223,208.03086)" stroke-width=".99628" stroke-linecap="butt" stroke-miterlimit="10" stroke-linejoin="miter" fill="none" stroke="#9e0c0f" d="M73.35197 197.89272 73.96356 189.55519 75.179 175.31513 76.39445 162.87177 77.60986 151.83983 78.8253 141.92923 80.04076 132.90029 81.2562 124.59056 82.47162 116.84795 83.68707 109.55905 84.90251 102.62202 86.11795 95.9531 87.33337 89.47493 88.54881 83.12051 89.76425 76.82022 90.97969 70.51605 92.19513 64.14874 93.41057 57.64221 94.626 50.93721 95.84146 43.94606 97.05687 36.59271 98.27231 28.76375 99.48776 20.34961 100.70319 11.19177 100.92976 9.31354"/>
<path transform="matrix(-.07309365,-.99729999,-.9973198,.0730922,74.868068,10.834778)" d="M7.39124 0 2.37614 1.6717 .70447 0 2.37614-1.6717Z" fill="#9e0c0f"/>
<path transform="matrix(-.07309365,-.99729999,-.9973198,.0730922,74.868068,10.834778)" stroke-width=".99628" stroke-linecap="butt" stroke-miterlimit="10" stroke-linejoin="miter" fill="none" stroke="#9e0c0f" d="M7.39124 0 2.37614 1.6717 .70447 0 2.37614-1.6717Z"/>
<path transform="matrix(.11969598,.9928298,.9928496,-.1196936,102.311389,198.01761)" d="M7.39124 0 2.37614 1.6717 .70447 0 2.37614-1.6717Z" fill="#9e0c0f"/>
<path transform="matrix(.11969598,.9928298,.9928496,-.1196936,102.311389,198.01761)" stroke-width=".99628" stroke-linecap="butt" stroke-miterlimit="10" stroke-linejoin="miter" fill="none" stroke="#9e0c0f" d="M7.39124 0 2.37614 1.6717 .70447 0 2.37614-1.6717Z"/>
<path transform="matrix(1.00005,0,0,-1.00003,1.4609223,208.03086)" stroke-width=".99628" stroke-linecap="butt" stroke-miterlimit="10" stroke-linejoin="miter" fill="none" stroke="#9e0c0f" d="M144.41736 198.23369 146.47509 189.85295 150.50252 177.49597 154.52996 167.81354 158.55739 159.99875 162.58484 153.53348 166.61225 148.08774 170.63968 143.43087 174.66712 139.39263 178.69455 135.85579 182.722 132.72757 186.7494 129.9396 190.77684 127.43391 194.80429 125.17058 198.83171 123.11472 202.85916 121.23805 206.88658 119.51474 210.914 117.92961 214.94145 116.46423 218.96887 115.10661 222.99633 113.84216 227.02375 112.66473 231.05117 111.56244 235.07862 110.5291 231.07411 111.49344"/>
<path transform="matrix(-.2384119,-.97115918,-.97117856,.23840717,146.05345,10.475388)" d="M7.39124 0 2.37614 1.6717 .70447 0 2.37614-1.6717Z" fill="#9e0c0f"/>
<path transform="matrix(-.2384119,-.97115918,-.97117856,.23840717,146.05345,10.475388)" stroke-width=".99628" stroke-linecap="butt" stroke-miterlimit="10" stroke-linejoin="miter" fill="none" stroke="#9e0c0f" d="M7.39124 0 2.37614 1.6717 .70447 0 2.37614-1.6717Z"/>
<path transform="matrix(.9721986,.23413703,.23414169,-.97217926,231.86167,96.36911)" d="M7.39124 0 2.37614 1.6717 .70447 0 2.37614-1.6717Z" fill="#9e0c0f"/>
<path transform="matrix(.9721986,.23413703,.23414169,-.97217926,231.86167,96.36911)" stroke-width=".99628" stroke-linecap="butt" stroke-miterlimit="10" stroke-linejoin="miter" fill="none" stroke="#9e0c0f" d="M7.39124 0 2.37614 1.6717 .70447 0 2.37614-1.6717Z"/>
<path transform="matrix(1.00005,0,0,-1.00003,1.4609223,208.03086)" stroke-width=".99628" stroke-linecap="butt" stroke-miterlimit="10" stroke-linejoin="miter" fill="none" stroke="#008099" d="M8.26201 180.45021H9.96266 19.92534 29.888 39.85066 49.81332 59.77602 69.73868 79.70134 89.66402 99.62668 109.58934 119.55203 129.5147 139.47736 149.44002 159.4027 169.36536 179.32802 189.29071 199.25337 209.21604 219.17871 229.14138 230.84203"/>
<path transform="matrix(-1.00005,-0,0,1.00003,10.42786,27.575226)" d="M7.39124 0 2.37614 1.6717 .70447 0 2.37614-1.6717Z" fill="#008099"/>
<path transform="matrix(-1.00005,-0,0,1.00003,10.42786,27.575226)" stroke-width=".99628" stroke-linecap="butt" stroke-miterlimit="10" stroke-linejoin="miter" fill="none" stroke="#008099" d="M7.39124 0 2.37614 1.6717 .70447 0 2.37614-1.6717Z"/>
<path transform="matrix(1.00005,0,0,-1.00003,231.60996,27.575226)" d="M7.39124 0 2.37614 1.6717 .70447 0 2.37614-1.6717Z" fill="#008099"/>
<path transform="matrix(1.00005,0,0,-1.00003,231.60996,27.575226)" stroke-width=".99628" stroke-linecap="butt" stroke-miterlimit="10" stroke-linejoin="miter" fill="none" stroke="#008099" d="M7.39124 0 2.37614 1.6717 .70447 0 2.37614-1.6717Z"/>
<path transform="matrix(1.00005,0,0,-1.00003,1.4609223,208.03086)" stroke-width=".99628" stroke-linecap="butt" stroke-dasharray="2.98883,2.98883" stroke-miterlimit="10" stroke-linejoin="miter" fill="none" stroke="#929292" d="M59.77661 2.8892V203.3396"/>
<path transform="matrix(0,1.00003,1.00005,0,61.24052,205.14157)" d="M2.8892 0-1.73352 2.31136 0 0-1.73352-2.31136" fill="#929292"/>
<path transform="matrix(0,-1.00003,-1.00005,-0,61.24052,4.68515)" d="M2.8892 0-1.73352 2.31136 0 0-1.73352-2.31136" fill="#929292"/>
<path transform="matrix(1.00005,0,0,-1.00003,1.4609223,208.03086)" stroke-width=".99628" stroke-linecap="butt" stroke-dasharray="2.98883,2.98883" stroke-miterlimit="10" stroke-linejoin="miter" fill="none" stroke="#929292" d="M119.55322 2.8892V203.3396"/>
<path transform="matrix(0,1.00003,1.00005,0,121.02012,205.14157)" d="M2.8892 0-1.73352 2.31136 0 0-1.73352-2.31136" fill="#929292"/>
<path transform="matrix(0,-1.00003,-1.00005,-0,121.02012,4.68515)" d="M2.8892 0-1.73352 2.31136 0 0-1.73352-2.31136" fill="#929292"/>
<path transform="matrix(1.00005,0,0,-1.00003,1.4609223,208.03086)" stroke-width=".3985" stroke-linecap="butt" stroke-miterlimit="10" stroke-linejoin="miter" fill="none" stroke="#9e0c0f" d=""/>
<use data-text="(" xlink:href="#font_4_1" transform="matrix(9.963098,0,0,-9.962899,154.42957,21.564255)" fill="#9e0c0f"/>
<use data-text="4" xlink:href="#font_4_3" transform="matrix(9.963098,0,0,-9.962899,158.29524,21.564255)" fill="#9e0c0f"/>
<use data-text="," xlink:href="#font_5_1" transform="matrix(9.963098,0,0,-9.962899,163.28601,21.564255)" fill="#9e0c0f"/>
<use data-text="8" xlink:href="#font_4_4" transform="matrix(9.963098,0,0,-9.962899,167.71424,21.564255)" fill="#9e0c0f"/>
<use data-text=")" xlink:href="#font_4_2" transform="matrix(9.963098,0,0,-9.962899,172.69577,21.564255)" fill="#9e0c0f"/>
</g>
<path transform="matrix(1.00005,0,0,-1.00003,1.4609223,208.03086)" d="M151.43408 180.45021C151.43408 181.55069 150.54199 182.44277 149.44153 182.44277 148.34105 182.44277 147.44898 181.55069 147.44898 180.45021 147.44898 179.34975 148.34105 178.45766 149.44153 178.45766 150.54199 178.45766 151.43408 179.34975 151.43408 180.45021ZM149.44153 180.45021" fill="#9e0c0f"/>
<path transform="matrix(1.00005,0,0,-1.00003,1.4609223,208.03086)" stroke-width=".3985" stroke-linecap="butt" stroke-miterlimit="10" stroke-linejoin="miter" fill="none" stroke="#9e0c0f" d="M151.43408 180.45021C151.43408 181.55069 150.54199 182.44277 149.44153 182.44277 148.34105 182.44277 147.44898 181.55069 147.44898 180.45021 147.44898 179.34975 148.34105 178.45766 149.44153 178.45766 150.54199 178.45766 151.43408 179.34975 151.43408 180.45021ZM149.44153 180.45021"/>
<path transform="matrix(1.00005,0,0,-1.00003,1.4609223,208.03086)" stroke-width=".3985" stroke-linecap="butt" stroke-miterlimit="10" stroke-linejoin="miter" fill="none" stroke="#9e0c0f" d=""/>
<use data-text="s" xlink:href="#font_6_98" transform="matrix(9.963098,0,0,-9.962899,212.92848,125.240367)"/>
<use data-text="p" xlink:href="#font_6_84" transform="matrix(9.963098,0,0,-9.962899,216.85395,125.240367)"/>
<use data-text="e" xlink:href="#font_6_50" transform="matrix(9.963098,0,0,-9.962899,222.6724,125.240367)"/>
<use data-text="e" xlink:href="#font_6_50" transform="matrix(9.963098,0,0,-9.962899,227.09601,125.240367)"/>
<use data-text="d" xlink:href="#font_6_47" transform="matrix(9.963098,0,0,-9.962899,231.51963,125.240367)"/>
<use data-text="t" xlink:href="#font_6_105" transform="matrix(9.963098,0,0,-9.962899,94.65057,11.861969)"/>
<use data-text="i" xlink:href="#font_6_66" transform="matrix(9.963098,0,0,-9.962899,98.526218,11.861969)"/>
<use data-text="m" xlink:href="#font_6_75" transform="matrix(9.963098,0,0,-9.962899,101.29596,11.861969)"/>
<use data-text="e" xlink:href="#font_6_50" transform="matrix(9.963098,0,0,-9.962899,109.595218,11.861969)"/>
</svg>
