<svg xmlns="http://www.w3.org/2000/svg" xmlns:xlink="http://www.w3.org/1999/xlink" version="1.1" width="242" height="209" viewBox="0 0 242 209">
<defs>
<clipPath id="clip_1">
<path transform="matrix(1.00005,0,0,-1.00006,1.2619114,207.83866)" d="M0 0H239.10279V206.22882H0Z"/>
</clipPath>
</defs>
<path transform="matrix(1.00005,0,0,-1.00006,1.2619114,207.83866)" d="M0 0H239.10279V206.22882H0Z" fill="#fffac2"/>
<g clip-path="url(#clip_1)">
<path transform="matrix(1.00005,0,0,-1.00006,1.2619114,207.83866)" d="M39.85046 12.8893V116.00371H92.98442V12.8893H39.85046" fill="#e2b6b7"/>
<path transform="matrix(1.00005,0,0,-1.00006,1.2619114,207.83866)" stroke-width=".3985" stroke-linecap="butt" stroke-miterlimit="10" stroke-linejoin="miter" fill="none" stroke="#9e0c0f" d="M39.85046 12.8893V116.00371H92.98442V12.8893H39.85046"/>
<path transform="matrix(1.00005,0,0,-1.00006,1.2619114,207.83866)" d="M85.01431 23.20073H79.70093V16.75609H85.01431V23.20073H79.70093 82.35762V16.75609 19.97841H79.70093 85.01431" fill="#ffffff"/>
<path transform="matrix(1.00005,0,0,-1.00006,1.2619114,207.83866)" stroke-width=".3985" stroke-linecap="butt" stroke-miterlimit="10" stroke-linejoin="miter" fill="none" stroke="#000000" d="M85.01431 23.20073H79.70093V16.75609H85.01431V23.20073H79.70093 82.35762V16.75609 19.97841H79.70093 85.01431"/>
<path transform="matrix(1.00005,0,0,-1.00006,1.2619114,207.83866)" d="M53.13394 23.20073H47.82056V16.75609H53.13394V23.20073H47.82056 50.47725V16.75609 19.97841H47.82056 53.13394" fill="#ffffff"/>
<path transform="matrix(1.00005,0,0,-1.00006,1.2619114,207.83866)" stroke-width=".3985" stroke-linecap="butt" stroke-miterlimit="10" stroke-linejoin="miter" fill="none" stroke="#000000" d="M53.13394 23.20073H47.82056V16.75609H53.13394V23.20073H47.82056 50.47725V16.75609 19.97841H47.82056 53.13394"/>
<path transform="matrix(1.00005,0,0,-1.00006,1.2619114,207.83866)" d="M71.73083 24.48967V12.8893H61.10403V24.48967H71.73083" fill="#a9a9a9"/>
<path transform="matrix(1.00005,0,0,-1.00006,1.2619114,207.83866)" stroke-width=".3985" stroke-linecap="butt" stroke-miterlimit="10" stroke-linejoin="miter" fill="none" stroke="#000000" d="M71.73083 24.48967V12.8893H61.10403V24.48967H71.73083"/>
<path transform="matrix(1.00005,0,0,-1.00006,1.2619114,207.83866)" stroke-width=".3985" stroke-linecap="butt" stroke-miterlimit="10" stroke-linejoin="miter" fill="none" stroke="#000000" d="M66.41743 12.8893V24.48967"/>
<path transform="matrix(1.00005,0,0,-1.00006,1.2619114,207.83866)" d="M53.13394 36.09004H47.82056V29.64539H53.13394V36.09004H47.82056 50.47725V29.64539 32.8677H47.82056 53.13394" fill="#ffffff"/>
<path transform="matrix(1.00005,0,0,-1.00006,1.2619114,207.83866)" stroke-width=".3985" stroke-linecap="butt" stroke-miterlimit="10" stroke-linejoin="miter" fill="none" stroke="#000000" d="M53.13394 36.09004H47.82056V29.64539H53.13394V36.09004H47.82056 50.47725V29.64539 32.8677H47.82056 53.13394"/>
<path transform="matrix(1.00005,0,0,-1.00006,1.2619114,207.83866)" d="M53.13394 48.97934H47.82056V42.53468H53.13394V48.97934H47.82056 50.47725V42.53468 45.757H47.82056 53.13394" fill="#ffffff"/>
<path transform="matrix(1.00005,0,0,-1.00006,1.2619114,207.83866)" stroke-width=".3985" stroke-linecap="butt" stroke-miterlimit="10" stroke-linejoin="miter" fill="none" stroke="#000000" d="M53.13394 48.97934H47.82056V42.53468H53.13394V48.97934H47.82056 50.47725V42.53468 45.757H47.82056 53.13394"/>
<path transform="matrix(1.00005,0,0,-1.00006,1.2619114,207.83866)" d="M53.13394 61.86864H47.82056V55.424H53.13394V61.86864H47.82056 50.47725V55.424 58.6463H47.82056 53.13394" fill="#ffffff"/>
<path transform="matrix(1.00005,0,0,-1.00006,1.2619114,207.83866)" stroke-width=".3985" stroke-linecap="butt" stroke-miterlimit="10" stroke-linejoin="miter" fill="none" stroke="#000000" d="M53.13394 61.86864H47.82056V55.424H53.13394V61.86864H47.82056 50.47725V55.424 58.6463H47.82056 53.13394"/>
<path transform="matrix(1.00005,0,0,-1.00006,1.2619114,207.83866)" d="M53.13394 74.75793H47.82056V68.3133H53.13394V74.75793H47.82056 50.47725V68.3133 71.53561H47.82056 53.13394" fill="#ffffff"/>
<path transform="matrix(1.00005,0,0,-1.00006,1.2619114,207.83866)" stroke-width=".3985" stroke-linecap="butt" stroke-miterlimit="10" stroke-linejoin="miter" fill="none" stroke="#000000" d="M53.13394 74.75793H47.82056V68.3133H53.13394V74.75793H47.82056 50.47725V68.3133 71.53561H47.82056 53.13394"/>
<path transform="matrix(1.00005,0,0,-1.00006,1.2619114,207.83866)" d="M53.13394 87.64725H47.82056V81.20259H53.13394V87.64725H47.82056 50.47725V81.20259 84.42491H47.82056 53.13394" fill="#ffffff"/>
<path transform="matrix(1.00005,0,0,-1.00006,1.2619114,207.83866)" stroke-width=".3985" stroke-linecap="butt" stroke-miterlimit="10" stroke-linejoin="miter" fill="none" stroke="#000000" d="M53.13394 87.64725H47.82056V81.20259H53.13394V87.64725H47.82056 50.47725V81.20259 84.42491H47.82056 53.13394"/>
<path transform="matrix(1.00005,0,0,-1.00006,1.2619114,207.83866)" d="M53.13394 100.53654H47.82056V94.09189H53.13394V100.53654H47.82056 50.47725V94.09189 97.31421H47.82056 53.13394" fill="#ffffff"/>
<path transform="matrix(1.00005,0,0,-1.00006,1.2619114,207.83866)" stroke-width=".3985" stroke-linecap="butt" stroke-miterlimit="10" stroke-linejoin="miter" fill="none" stroke="#000000" d="M53.13394 100.53654H47.82056V94.09189H53.13394V100.53654H47.82056 50.47725V94.09189 97.31421H47.82056 53.13394"/>
<path transform="matrix(1.00005,0,0,-1.00006,1.2619114,207.83866)" d="M69.07413 36.09004H63.76074V29.64539H69.07413V36.09004H63.76074 66.41743V29.64539 32.8677H63.76074 69.07413" fill="#ffffff"/>
<path transform="matrix(1.00005,0,0,-1.00006,1.2619114,207.83866)" stroke-width=".3985" stroke-linecap="butt" stroke-miterlimit="10" stroke-linejoin="miter" fill="none" stroke="#000000" d="M69.07413 36.09004H63.76074V29.64539H69.07413V36.09004H63.76074 66.41743V29.64539 32.8677H63.76074 69.07413"/>
<path transform="matrix(1.00005,0,0,-1.00006,1.2619114,207.83866)" d="M69.07413 48.97934H63.76074V42.53468H69.07413V48.97934H63.76074 66.41743V42.53468 45.757H63.76074 69.07413" fill="#ffffff"/>
<path transform="matrix(1.00005,0,0,-1.00006,1.2619114,207.83866)" stroke-width=".3985" stroke-linecap="butt" stroke-miterlimit="10" stroke-linejoin="miter" fill="none" stroke="#000000" d="M69.07413 48.97934H63.76074V42.53468H69.07413V48.97934H63.76074 66.41743V42.53468 45.757H63.76074 69.07413"/>
<path transform="matrix(1.00005,0,0,-1.00006,1.2619114,207.83866)" d="M69.07413 61.86864H63.76074V55.424H69.07413V61.86864H63.76074 66.41743V55.424 58.6463H63.76074 69.07413" fill="#ffffff"/>
<path transform="matrix(1.00005,0,0,-1.00006,1.2619114,207.83866)" stroke-width=".3985" stroke-linecap="butt" stroke-miterlimit="10" stroke-linejoin="miter" fill="none" stroke="#000000" d="M69.07413 61.86864H63.76074V55.424H69.07413V61.86864H63.76074 66.41743V55.424 58.6463H63.76074 69.07413"/>
<path transform="matrix(1.00005,0,0,-1.00006,1.2619114,207.83866)" d="M69.07413 74.75793H63.76074V68.3133H69.07413V74.75793H63.76074 66.41743V68.3133 71.53561H63.76074 69.07413" fill="#ffffff"/>
<path transform="matrix(1.00005,0,0,-1.00006,1.2619114,207.83866)" stroke-width=".3985" stroke-linecap="butt" stroke-miterlimit="10" stroke-linejoin="miter" fill="none" stroke="#000000" d="M69.07413 74.75793H63.76074V68.3133H69.07413V74.75793H63.76074 66.41743V68.3133 71.53561H63.76074 69.07413"/>
<path transform="matrix(1.00005,0,0,-1.00006,1.2619114,207.83866)" d="M69.07413 87.64725H63.76074V81.20259H69.07413V87.64725H63.76074 66.41743V81.20259 84.42491H63.76074 69.07413" fill="#ffffff"/>
<path transform="matrix(1.00005,0,0,-1.00006,1.2619114,207.83866)" stroke-width=".3985" stroke-linecap="butt" stroke-miterlimit="10" stroke-linejoin="miter" fill="none" stroke="#000000" d="M69.07413 87.64725H63.76074V81.20259H69.07413V87.64725H63.76074 66.41743V81.20259 84.42491H63.76074 69.07413"/>
<path transform="matrix(1.00005,0,0,-1.00006,1.2619114,207.83866)" d="M69.07413 100.53654H63.76074V94.09189H69.07413V100.53654H63.76074 66.41743V94.09189 97.31421H63.76074 69.07413" fill="#ffffff"/>
<path transform="matrix(1.00005,0,0,-1.00006,1.2619114,207.83866)" stroke-width=".3985" stroke-linecap="butt" stroke-miterlimit="10" stroke-linejoin="miter" fill="none" stroke="#000000" d="M69.07413 100.53654H63.76074V94.09189H69.07413V100.53654H63.76074 66.41743V94.09189 97.31421H63.76074 69.07413"/>
<path transform="matrix(1.00005,0,0,-1.00006,1.2619114,207.83866)" d="M85.01431 36.09004H79.70093V29.64539H85.01431V36.09004H79.70093 82.35762V29.64539 32.8677H79.70093 85.01431" fill="#ffffff"/>
<path transform="matrix(1.00005,0,0,-1.00006,1.2619114,207.83866)" stroke-width=".3985" stroke-linecap="butt" stroke-miterlimit="10" stroke-linejoin="miter" fill="none" stroke="#000000" d="M85.01431 36.09004H79.70093V29.64539H85.01431V36.09004H79.70093 82.35762V29.64539 32.8677H79.70093 85.01431"/>
<path transform="matrix(1.00005,0,0,-1.00006,1.2619114,207.83866)" d="M85.01431 48.97934H79.70093V42.53468H85.01431V48.97934H79.70093 82.35762V42.53468 45.757H79.70093 85.01431" fill="#ffffff"/>
<path transform="matrix(1.00005,0,0,-1.00006,1.2619114,207.83866)" stroke-width=".3985" stroke-linecap="butt" stroke-miterlimit="10" stroke-linejoin="miter" fill="none" stroke="#000000" d="M85.01431 48.97934H79.70093V42.53468H85.01431V48.97934H79.70093 82.35762V42.53468 45.757H79.70093 85.01431"/>
<path transform="matrix(1.00005,0,0,-1.00006,1.2619114,207.83866)" d="M85.01431 61.86864H79.70093V55.424H85.01431V61.86864H79.70093 82.35762V55.424 58.6463H79.70093 85.01431" fill="#ffffff"/>
<path transform="matrix(1.00005,0,0,-1.00006,1.2619114,207.83866)" stroke-width=".3985" stroke-linecap="butt" stroke-miterlimit="10" stroke-linejoin="miter" fill="none" stroke="#000000" d="M85.01431 61.86864H79.70093V55.424H85.01431V61.86864H79.70093 82.35762V55.424 58.6463H79.70093 85.01431"/>
<path transform="matrix(1.00005,0,0,-1.00006,1.2619114,207.83866)" d="M85.01431 74.75793H79.70093V68.3133H85.01431V74.75793H79.70093 82.35762V68.3133 71.53561H79.70093 85.01431" fill="#ffffff"/>
<path transform="matrix(1.00005,0,0,-1.00006,1.2619114,207.83866)" stroke-width=".3985" stroke-linecap="butt" stroke-miterlimit="10" stroke-linejoin="miter" fill="none" stroke="#000000" d="M85.01431 74.75793H79.70093V68.3133H85.01431V74.75793H79.70093 82.35762V68.3133 71.53561H79.70093 85.01431"/>
<path transform="matrix(1.00005,0,0,-1.00006,1.2619114,207.83866)" d="M85.01431 87.64725H79.70093V81.20259H85.01431V87.64725H79.70093 82.35762V81.20259 84.42491H79.70093 85.01431" fill="#ffffff"/>
<path transform="matrix(1.00005,0,0,-1.00006,1.2619114,207.83866)" stroke-width=".3985" stroke-linecap="butt" stroke-miterlimit="10" stroke-linejoin="miter" fill="none" stroke="#000000" d="M85.01431 87.64725H79.70093V81.20259H85.01431V87.64725H79.70093 82.35762V81.20259 84.42491H79.70093 85.01431"/>
<path transform="matrix(1.00005,0,0,-1.00006,1.2619114,207.83866)" d="M85.01431 100.53654H79.70093V94.09189H85.01431V100.53654H79.70093 82.35762V94.09189 97.31421H79.70093 85.01431" fill="#ffffff"/>
<path transform="matrix(1.00005,0,0,-1.00006,1.2619114,207.83866)" stroke-width=".3985" stroke-linecap="butt" stroke-miterlimit="10" stroke-linejoin="miter" fill="none" stroke="#000000" d="M85.01431 100.53654H79.70093V94.09189H85.01431V100.53654H79.70093 82.35762V94.09189 97.31421H79.70093 85.01431"/>
<path transform="matrix(1.00005,0,0,-1.00006,1.2619114,207.83866)" stroke-width=".3985" stroke-linecap="butt" stroke-miterlimit="10" stroke-linejoin="miter" fill="none" stroke="#000000" d="M0 12.8893H239.10279"/>
<path transform="matrix(1.00005,0,0,-1.00006,1.2619114,207.83866)" stroke-width=".3985" stroke-linecap="butt" stroke-miterlimit="10" stroke-linejoin="miter" fill="none" stroke="#008099" d="M79.70093 116.00371C79.70093 116.00371 86.5562 136.119 89.18913 142.8345 91.82207 149.54999 96.0444 159.14875 98.67734 164.40435 101.31027 169.65995 105.53261 176.91757 108.16554 180.71329 110.7985 184.50899 115.02083 189.42542 117.65376 191.76123 120.2867 194.09705 124.50903 196.67234 127.14197 197.54827 129.7749 198.42418 133.99724 198.6583 136.63018 198.07434 139.2631 197.49039 143.48545 195.38336 146.11838 193.33951 148.75133 191.29567 152.97365 186.84741 155.6066 183.34369 158.23954 179.83998 162.46187 173.05069 165.0948 168.08705 167.72774 163.12342 171.95008 153.99277 174.58301 147.56922 177.21595 141.14566 181.43828 129.67397 184.07122 121.79056 186.70415 113.90714 190.92649 100.09433 193.55944 90.75104 196.19237 81.40776 200.4147 65.25375 203.04764 54.45056 205.68058 43.64737 212.53585 12.8891 212.53585 12.8891"/>
</g>
<path transform="matrix(1.00005,0,0,-1.00006,1.2619114,207.83866)" d="M81.69348 116.00371C81.69348 117.10417 80.80139 117.99626 79.70093 117.99626 78.60045 117.99626 77.70837 117.10417 77.70837 116.00371 77.70837 114.90323 78.60045 114.01115 79.70093 114.01115 80.80139 114.01115 81.69348 114.90323 81.69348 116.00371ZM79.70093 116.00371" fill="#008099"/>
<path transform="matrix(1.00005,0,0,-1.00006,1.2619114,207.83866)" stroke-width=".3985" stroke-linecap="butt" stroke-miterlimit="10" stroke-linejoin="miter" fill="none" stroke="#008099" d="M81.69348 116.00371C81.69348 117.10417 80.80139 117.99626 79.70093 117.99626 78.60045 117.99626 77.70837 117.10417 77.70837 116.00371 77.70837 114.90323 78.60045 114.01115 79.70093 114.01115 80.80139 114.01115 81.69348 114.90323 81.69348 116.00371ZM79.70093 116.00371"/>
<path transform="matrix(1.00005,0,0,-1.00006,1.2619114,207.83866)" d="M91.18169 142.8345C91.18169 143.93497 90.28961 144.82706 89.18913 144.82706 88.08867 144.82706 87.19658 143.93497 87.19658 142.8345 87.19658 141.73403 88.08867 140.84195 89.18913 140.84195 90.28961 140.84195 91.18169 141.73403 91.18169 142.8345ZM89.18913 142.8345" fill="#008099"/>
<path transform="matrix(1.00005,0,0,-1.00006,1.2619114,207.83866)" stroke-width=".3985" stroke-linecap="butt" stroke-miterlimit="10" stroke-linejoin="miter" fill="none" stroke="#008099" d="M91.18169 142.8345C91.18169 143.93497 90.28961 144.82706 89.18913 144.82706 88.08867 144.82706 87.19658 143.93497 87.19658 142.8345 87.19658 141.73403 88.08867 140.84195 89.18913 140.84195 90.28961 140.84195 91.18169 141.73403 91.18169 142.8345ZM89.18913 142.8345"/>
<path transform="matrix(1.00005,0,0,-1.00006,1.2619114,207.83866)" d="M100.66989 164.40435C100.66989 165.5048 99.77782 166.3969 98.67734 166.3969 97.57687 166.3969 96.68478 165.5048 96.68478 164.40435 96.68478 163.30387 97.57687 162.41179 98.67734 162.41179 99.77782 162.41179 100.66989 163.30387 100.66989 164.40435ZM98.67734 164.40435" fill="#008099"/>
<path transform="matrix(1.00005,0,0,-1.00006,1.2619114,207.83866)" stroke-width=".3985" stroke-linecap="butt" stroke-miterlimit="10" stroke-linejoin="miter" fill="none" stroke="#008099" d="M100.66989 164.40435C100.66989 165.5048 99.77782 166.3969 98.67734 166.3969 97.57687 166.3969 96.68478 165.5048 96.68478 164.40435 96.68478 163.30387 97.57687 162.41179 98.67734 162.41179 99.77782 162.41179 100.66989 163.30387 100.66989 164.40435ZM98.67734 164.40435"/>
<path transform="matrix(1.00005,0,0,-1.00006,1.2619114,207.83866)" d="M110.1581 180.71329C110.1581 181.81375 109.26602 182.70584 108.16554 182.70584 107.06508 182.70584 106.17299 181.81375 106.17299 180.71329 106.17299 179.61281 107.06508 178.72074 108.16554 178.72074 109.26602 178.72074 110.1581 179.61281 110.1581 180.71329ZM108.16554 180.71329" fill="#008099"/>
<path transform="matrix(1.00005,0,0,-1.00006,1.2619114,207.83866)" stroke-width=".3985" stroke-linecap="butt" stroke-miterlimit="10" stroke-linejoin="miter" fill="none" stroke="#008099" d="M110.1581 180.71329C110.1581 181.81375 109.26602 182.70584 108.16554 182.70584 107.06508 182.70584 106.17299 181.81375 106.17299 180.71329 106.17299 179.61281 107.06508 178.72074 108.16554 178.72074 109.26602 178.72074 110.1581 179.61281 110.1581 180.71329ZM108.16554 180.71329"/>
<path transform="matrix(1.00005,0,0,-1.00006,1.2619114,207.83866)" d="M119.64632 191.76123C119.64632 192.8617 118.75423 193.75379 117.65376 193.75379 116.55328 193.75379 115.66121 192.8617 115.66121 191.76123 115.66121 190.66075 116.55328 189.76868 117.65376 189.76868 118.75423 189.76868 119.64632 190.66075 119.64632 191.76123ZM117.65376 191.76123" fill="#008099"/>
<path transform="matrix(1.00005,0,0,-1.00006,1.2619114,207.83866)" stroke-width=".3985" stroke-linecap="butt" stroke-miterlimit="10" stroke-linejoin="miter" fill="none" stroke="#008099" d="M119.64632 191.76123C119.64632 192.8617 118.75423 193.75379 117.65376 193.75379 116.55328 193.75379 115.66121 192.8617 115.66121 191.76123 115.66121 190.66075 116.55328 189.76868 117.65376 189.76868 118.75423 189.76868 119.64632 190.66075 119.64632 191.76123ZM117.65376 191.76123"/>
<path transform="matrix(1.00005,0,0,-1.00006,1.2619114,207.83866)" d="M129.13452 197.54827C129.13452 198.64873 128.24243 199.54082 127.14197 199.54082 126.04149 199.54082 125.14941 198.64873 125.14941 197.54827 125.14941 196.44779 126.04149 195.55571 127.14197 195.55571 128.24243 195.55571 129.13452 196.44779 129.13452 197.54827ZM127.14197 197.54827" fill="#008099"/>
<path transform="matrix(1.00005,0,0,-1.00006,1.2619114,207.83866)" stroke-width=".3985" stroke-linecap="butt" stroke-miterlimit="10" stroke-linejoin="miter" fill="none" stroke="#008099" d="M129.13452 197.54827C129.13452 198.64873 128.24243 199.54082 127.14197 199.54082 126.04149 199.54082 125.14941 198.64873 125.14941 197.54827 125.14941 196.44779 126.04149 195.55571 127.14197 195.55571 128.24243 195.55571 129.13452 196.44779 129.13452 197.54827ZM127.14197 197.54827"/>
<path transform="matrix(1.00005,0,0,-1.00006,1.2619114,207.83866)" d="M138.62273 198.07434C138.62273 199.1748 137.73065 200.0669 136.63018 200.0669 135.52971 200.0669 134.63762 199.1748 134.63762 198.07434 134.63762 196.97386 135.52971 196.08179 136.63018 196.08179 137.73065 196.08179 138.62273 196.97386 138.62273 198.07434ZM136.63018 198.07434" fill="#008099"/>
<path transform="matrix(1.00005,0,0,-1.00006,1.2619114,207.83866)" stroke-width=".3985" stroke-linecap="butt" stroke-miterlimit="10" stroke-linejoin="miter" fill="none" stroke="#008099" d="M138.62273 198.07434C138.62273 199.1748 137.73065 200.0669 136.63018 200.0669 135.52971 200.0669 134.63762 199.1748 134.63762 198.07434 134.63762 196.97386 135.52971 196.08179 136.63018 196.08179 137.73065 196.08179 138.62273 196.97386 138.62273 198.07434ZM136.63018 198.07434"/>
<path transform="matrix(1.00005,0,0,-1.00006,1.2619114,207.83866)" d="M148.11093 193.33951C148.11093 194.43999 147.21886 195.33206 146.11838 195.33206 145.01792 195.33206 144.12583 194.43999 144.12583 193.33951 144.12583 192.23905 145.01792 191.34696 146.11838 191.34696 147.21886 191.34696 148.11093 192.23905 148.11093 193.33951ZM146.11838 193.33951" fill="#008099"/>
<path transform="matrix(1.00005,0,0,-1.00006,1.2619114,207.83866)" stroke-width=".3985" stroke-linecap="butt" stroke-miterlimit="10" stroke-linejoin="miter" fill="none" stroke="#008099" d="M148.11093 193.33951C148.11093 194.43999 147.21886 195.33206 146.11838 195.33206 145.01792 195.33206 144.12583 194.43999 144.12583 193.33951 144.12583 192.23905 145.01792 191.34696 146.11838 191.34696 147.21886 191.34696 148.11093 192.23905 148.11093 193.33951ZM146.11838 193.33951"/>
<path transform="matrix(1.00005,0,0,-1.00006,1.2619114,207.83866)" d="M157.59915 183.34369C157.59915 184.44417 156.70706 185.33625 155.6066 185.33625 154.50612 185.33625 153.61405 184.44417 153.61405 183.34369 153.61405 182.24323 154.50612 181.35114 155.6066 181.35114 156.70706 181.35114 157.59915 182.24323 157.59915 183.34369ZM155.6066 183.34369" fill="#008099"/>
<path transform="matrix(1.00005,0,0,-1.00006,1.2619114,207.83866)" stroke-width=".3985" stroke-linecap="butt" stroke-miterlimit="10" stroke-linejoin="miter" fill="none" stroke="#008099" d="M157.59915 183.34369C157.59915 184.44417 156.70706 185.33625 155.6066 185.33625 154.50612 185.33625 153.61405 184.44417 153.61405 183.34369 153.61405 182.24323 154.50612 181.35114 155.6066 181.35114 156.70706 181.35114 157.59915 182.24323 157.59915 183.34369ZM155.6066 183.34369"/>
<path transform="matrix(1.00005,0,0,-1.00006,1.2619114,207.83866)" d="M167.08736 168.08705C167.08736 169.18752 166.19527 170.0796 165.0948 170.0796 163.99433 170.0796 163.10225 169.18752 163.10225 168.08705 163.10225 166.98659 163.99433 166.0945 165.0948 166.0945 166.19527 166.0945 167.08736 166.98659 167.08736 168.08705ZM165.0948 168.08705" fill="#008099"/>
<path transform="matrix(1.00005,0,0,-1.00006,1.2619114,207.83866)" stroke-width=".3985" stroke-linecap="butt" stroke-miterlimit="10" stroke-linejoin="miter" fill="none" stroke="#008099" d="M167.08736 168.08705C167.08736 169.18752 166.19527 170.0796 165.0948 170.0796 163.99433 170.0796 163.10225 169.18752 163.10225 168.08705 163.10225 166.98659 163.99433 166.0945 165.0948 166.0945 166.19527 166.0945 167.08736 166.98659 167.08736 168.08705ZM165.0948 168.08705"/>
<path transform="matrix(1.00005,0,0,-1.00006,1.2619114,207.83866)" d="M176.57556 147.56922C176.57556 148.6697 175.68349 149.56177 174.58301 149.56177 173.48255 149.56177 172.59046 148.6697 172.59046 147.56922 172.59046 146.46875 173.48255 145.57666 174.58301 145.57666 175.68349 145.57666 176.57556 146.46875 176.57556 147.56922ZM174.58301 147.56922" fill="#008099"/>
<path transform="matrix(1.00005,0,0,-1.00006,1.2619114,207.83866)" stroke-width=".3985" stroke-linecap="butt" stroke-miterlimit="10" stroke-linejoin="miter" fill="none" stroke="#008099" d="M176.57556 147.56922C176.57556 148.6697 175.68349 149.56177 174.58301 149.56177 173.48255 149.56177 172.59046 148.6697 172.59046 147.56922 172.59046 146.46875 173.48255 145.57666 174.58301 145.57666 175.68349 145.57666 176.57556 146.46875 176.57556 147.56922ZM174.58301 147.56922"/>
<path transform="matrix(1.00005,0,0,-1.00006,1.2619114,207.83866)" d="M186.06377 121.79056C186.06377 122.89102 185.17169 123.78311 184.07122 123.78311 182.97075 123.78311 182.07866 122.89102 182.07866 121.79056 182.07866 120.69008 182.97075 119.798 184.07122 119.798 185.17169 119.798 186.06377 120.69008 186.06377 121.79056ZM184.07122 121.79056" fill="#008099"/>
<path transform="matrix(1.00005,0,0,-1.00006,1.2619114,207.83866)" stroke-width=".3985" stroke-linecap="butt" stroke-miterlimit="10" stroke-linejoin="miter" fill="none" stroke="#008099" d="M186.06377 121.79056C186.06377 122.89102 185.17169 123.78311 184.07122 123.78311 182.97075 123.78311 182.07866 122.89102 182.07866 121.79056 182.07866 120.69008 182.97075 119.798 184.07122 119.798 185.17169 119.798 186.06377 120.69008 186.06377 121.79056ZM184.07122 121.79056"/>
<path transform="matrix(1.00005,0,0,-1.00006,1.2619114,207.83866)" d="M195.55199 90.75104C195.55199 91.85152 194.6599 92.74359 193.55944 92.74359 192.45896 92.74359 191.56688 91.85152 191.56688 90.75104 191.56688 89.65057 192.45896 88.75848 193.55944 88.75848 194.6599 88.75848 195.55199 89.65057 195.55199 90.75104ZM193.55944 90.75104" fill="#008099"/>
<path transform="matrix(1.00005,0,0,-1.00006,1.2619114,207.83866)" stroke-width=".3985" stroke-linecap="butt" stroke-miterlimit="10" stroke-linejoin="miter" fill="none" stroke="#008099" d="M195.55199 90.75104C195.55199 91.85152 194.6599 92.74359 193.55944 92.74359 192.45896 92.74359 191.56688 91.85152 191.56688 90.75104 191.56688 89.65057 192.45896 88.75848 193.55944 88.75848 194.6599 88.75848 195.55199 89.65057 195.55199 90.75104ZM193.55944 90.75104"/>
<path transform="matrix(1.00005,0,0,-1.00006,1.2619114,207.83866)" d="M205.04019 54.45056C205.04019 55.55103 204.1481 56.44312 203.04764 56.44312 201.94716 56.44312 201.05509 55.55103 201.05509 54.45056 201.05509 53.35008 201.94716 52.45801 203.04764 52.45801 204.1481 52.45801 205.04019 53.35008 205.04019 54.45056ZM203.04764 54.45056" fill="#008099"/>
<path transform="matrix(1.00005,0,0,-1.00006,1.2619114,207.83866)" stroke-width=".3985" stroke-linecap="butt" stroke-miterlimit="10" stroke-linejoin="miter" fill="none" stroke="#008099" d="M205.04019 54.45056C205.04019 55.55103 204.1481 56.44312 203.04764 56.44312 201.94716 56.44312 201.05509 55.55103 201.05509 54.45056 201.05509 53.35008 201.94716 52.45801 203.04764 52.45801 204.1481 52.45801 205.04019 53.35008 205.04019 54.45056ZM203.04764 54.45056"/>
<path transform="matrix(1.00005,0,0,-1.00006,1.2619114,207.83866)" d="M214.5284 12.8891C214.5284 13.98956 213.6363 14.88165 212.53585 14.88165 211.43537 14.88165 210.54329 13.98956 210.54329 12.8891 210.54329 11.78862 211.43537 10.89655 212.53585 10.89655 213.6363 10.89655 214.5284 11.78862 214.5284 12.8891ZM212.53585 12.8891" fill="#008099"/>
<path transform="matrix(1.00005,0,0,-1.00006,1.2619114,207.83866)" stroke-width=".3985" stroke-linecap="butt" stroke-miterlimit="10" stroke-linejoin="miter" fill="none" stroke="#008099" d="M214.5284 12.8891C214.5284 13.98956 213.6363 14.88165 212.53585 14.88165 211.43537 14.88165 210.54329 13.98956 210.54329 12.8891 210.54329 11.78862 211.43537 10.89655 212.53585 10.89655 213.6363 10.89655 214.5284 11.78862 214.5284 12.8891ZM212.53585 12.8891"/>
<path transform="matrix(1.00005,0,0,-1.00006,1.2619114,207.83866)" stroke-width=".3985" stroke-linecap="butt" stroke-miterlimit="10" stroke-linejoin="miter" fill="none" stroke="#008099" d=""/>
</svg>
