<svg xmlns="http://www.w3.org/2000/svg" xmlns:xlink="http://www.w3.org/1999/xlink" version="1.1" width="180" height="158" viewBox="0 0 180 158">
<defs>
<path id="font_1_2" d="M.31399537 .63708499C.31399537 .664032 .31199647 .66503909 .2849884 .66503909 .24398804 .6251831 .19099427 .6013489 .09599304 .6013489V.5683594C.12298584 .5683594 .1769867 .5683594 .23498535 .5953522V.08203125C.23498535 .04499817 .23199463 .032989503 .13699341 .032989503H.101989749V0C.14299011 .0029907227 .22898865 .0029907227 .27398683 .0029907227 .31900025 .0029907227 .4059906 .0029907227 .44699098 0V.032989503H.4119873C.31698609 .032989503 .31399537 .04499817 .31399537 .08203125V.63708499Z"/>
<path id="font_1_3" d="M.28199769 .20405579C.2979889 .21907044 .33999635 .2520752 .35598756 .26608277 .41799928 .32312013 .47698976 .3781433 .47698976 .46917726 .47698976 .588089 .3769989 .66503909 .2519989 .66503909 .13198853 .66503909 .052993776 .57411196 .052993776 .48516847 .052993776 .4361725 .09199524 .4291687 .10598755 .4291687 .1269989 .4291687 .1579895 .4441681 .1579895 .48217774 .1579895 .5341797 .10798645 .5341797 .09599304 .5341797 .125 .6070709 .19198609 .6320343 .24099732 .6320343 .33399964 .6320343 .38198854 .55314639 .38198854 .46917726 .38198854 .36514283 .30899049 .28910829 .19099427 .16804505L.06498718 .037994386C.052993776 .026992798 .052993776 .024993897 .052993776 0H.44799806L.47698976 .17904663H.44599916C.44299317 .1590271 .43499757 .10900879 .4229889 .08999634 .4169922 .08198547 .34098817 .08198547 .32499696 .08198547H.14698792L.28199769 .20405579Z"/>
<path id="font_1_4" d="M.25299073 .33370973C.33198548 .33370973 .38198854 .27557374 .38198854 .17037964 .38198854 .045440675 .31098939 .008514404 .2579956 .008514404 .20298767 .008514404 .12799073 .0284729 .09298706 .08137512 .1289978 .08137512 .1539917 .10437012 .1539917 .13737488 .1539917 .16937256 .1309967 .19238281 .09899902 .19238281 .07199097 .19238281 .04399109 .17536927 .04399109 .13537598 .04399109 .04045105 .1459961-.021484375 .2599945-.021484375 .3929901-.021484375 .48599244 .070388797 .48599244 .17037964 .48599244 .25352479 .41999818 .32969667 .31799317 .3517456 .39698792 .37982179 .45599366 .4479828 .45599366 .52804568 .45599366 .6080475 .3659973 .66503909 .2619934 .66503909 .15499878 .66503909 .07398987 .6070404 .07398987 .53105166 .07398987 .49404908 .09899902 .4780426 .125 .4780426 .1559906 .4780426 .17599488 .5000458 .17599488 .52905276 .17599488 .56604006 .14399719 .5800476 .12199402 .5810547 .1639862 .6360321 .24099732 .6390381 .25898744 .6390381 .2849884 .6390381 .36099244 .6310272 .36099244 .52804568 .36099244 .45799256 .33198548 .41589356 .31799317 .39985658 .28799439 .36878968 .2649994 .36679078 .20399475 .3627777 .18499756 .36177064 .1769867 .36076356 .1769867 .3477478 .1769867 .33370973 .18598938 .33370973 .20298767 .33370973H.25299073Z"/>
<path id="font_1_5" d="M.3939972 .6468048C.3939972 .6667938 .3939972 .6748047 .37298585 .6748047 .3600006 .6748047 .35899354 .6737976 .34899903 .65979006L.02999878 .197052V.1640625H.31199647V.08100891C.31199647 .04399109 .30899049 .032989503 .23199463 .032989503H.20899964V0C.2939911 .0029907227 .29599 .0029907227 .35299684 .0029907227 .4099884 .0029907227 .4119873 .0029907227 .49699403 0V.032989503H.47399903C.39698792 .032989503 .3939972 .04399109 .3939972 .08100891V.1640625H.5V.197052H.3939972V.6468048M.31900025 .5658417V.197052H.06498718L.31900025 .5658417Z"/>
<path id="font_1_6" d="M.13999939 .5618439C.15299988 .55784609 .19299317 .54785159 .23498535 .54785159 .3600006 .54785159 .43598939 .6358948 .43598939 .6510315 .43598939 .6620331 .42900086 .66503909 .42399598 .66503909 .42199708 .66503909 .41999818 .66503909 .41099549 .6600342 .37199403 .6450348 .32598878 .632843 .27198792 .632843 .21299744 .632843 .1639862 .6480255 .1329956 .6600342 .12298584 .66503909 .12098694 .66503909 .11999512 .66503909 .10699463 .66503909 .10699463 .6540375 .10699463 .6358948V.34292604C.10699463 .32492066 .10699463 .312912 .12298584 .312912 .1309967 .312912 .13398743 .3169098 .13899231 .32492066 .15098572 .33992005 .18899536 .39093019 .27398683 .39093019 .32998658 .39093019 .35699464 .34492494 .3659973 .32591249 .3829956 .28990174 .3849945 .24389649 .3849945 .20487976 .3849945 .1678772 .38398744 .11387634 .35598756 .069732669 .33699037 .039611818 .29699708 .008514404 .24398804 .008514404 .1789856 .008514404 .114990238 .0496521 .09199524 .11488342 .09498596 .11387634 .100997928 .11387634 .101989749 .11387634 .12998963 .11387634 .1519928 .13188172 .1519928 .16288758 .1519928 .19989014 .12298584 .21289063 .102996829 .21289063 .084991458 .21289063 .052993776 .20288086 .052993776 .15988159 .052993776 .069732669 .1309967-.021484375 .24598694-.021484375 .37098695-.021484375 .47698976 .07574463 .47698976 .19989014 .47698976 .31591798 .3929901 .4189453 .2749939 .4189453 .22499085 .4189453 .17799378 .40293885 .13999939 .368927V.5618439Z"/>
<path id="font_1_1" d="M.4889984 .31877137C.4889984 .42585755 .47799684 .49090577 .44499208 .55496218 .40098573 .6430359 .31999208 .66503909 .2649994 .66503909 .13899231 .66503909 .09298706 .5709839 .07899475 .5429535 .042999269 .4698944 .040985109 .3708191 .040985109 .31877137 .040985109 .25271607 .04399109 .15162659 .09199524 .07156372 .13798523-.0024871827 .21199036-.021484375 .2649994-.021484375 .31298829-.021484375 .39898683-.0064849855 .44898988 .09257507 .48599244 .16464234 .4889984 .2537079 .4889984 .31877137M.2649994 .006515503C.23098755 .006515503 .1619873 .022521973 .14099121 .12760926 .12998963 .18466187 .12998963 .2787323 .12998963 .33078004 .12998963 .3998413 .12998963 .4698944 .14099121 .5249481 .1619873 .6270294 .23999024 .6370239 .2649994 .6370239 .29899598 .6370239 .36799623 .62002566 .3880005 .5289459 .3999939 .4738922 .3999939 .39883424 .3999939 .33078004 .3999939 .27172853 .3999939 .18165589 .3880005 .12561035 .36698915 .020523072 .2979889 .006515503 .2649994 .006515503Z"/>
<clipPath id="clip_2">
<path transform="matrix(1.00002,0,0,-1.00002,12.915638,145.95136)" d="M0 0H163.88492V141.3533H0Z"/>
</clipPath>
<path id="font_3_49" d="M.6519928 .2579193H.6269989C.60198977 .10397339 .57899478 .0309906 .40699769 .0309906H.27398683C.22698975 .0309906 .22499085 .037994386 .22499085 .07098389V.33789063H.31498719C.4119873 .33789063 .4229889 .30589295 .4229889 .220932H.44799806V.48606874H.4229889C.4229889 .39994813 .4119873 .36888124 .31498719 .36888124H.22499085V.6087799C.22499085 .6416931 .22698975 .64868167 .27398683 .64868167H.40299989C.55599978 .64868167 .58299258 .59381106 .598999 .45507813H.6239929L.59599307 .6796875H.032989503V.64868167H.056991579C.13398743 .64868167 .13598633 .6377106 .13598633 .6017914V.07797241C.13598633 .041992189 .13398743 .0309906 .056991579 .0309906H.032989503V0H.6100006L.6519928 .2579193Z"/>
<path id="font_3_123" d="M.80400088 0V.0309906C.7369995 .0309906 .7259979 .0309906 .7259979 .07595825V.44265748L.68699648 .4396515 .58200076 .43165589C.5799866 .43066407 .5779877 .43066407 .56399539 .43066407H.44599916V.5436096C.44599916 .64260867 .5319977 .68307498 .59399417 .68307498 .6239929 .68307498 .6599884 .67292788 .6799927 .6496124 .6389923 .6476135 .6329956 .61961367 .6329956 .6036072 .6329956 .5706024 .6589966 .5576172 .6779938 .5576172 .70098879 .5576172 .723999 .5736084 .723999 .6036072 .723999 .662796 .6689911 .7050781 .59498599 .7050781 .5069885 .7050781 .44999696 .66482546 .43199159 .6496124 .40899659 .68507388 .36698915 .7050781 .31698609 .7050781 .22299195 .7050781 .10598755 .65367129 .10598755 .5446167V.43066407H.026992798V.3996582H.10598755V.07595825C.10598755 .0309906 .09498596 .0309906 .027999878 .0309906V0L.13899231 .0029907227 .25 0V.0309906C.18299866 .0309906 .17199707 .0309906 .17199707 .07595825V.3996582H.3829956V.07595825C.3829956 .0309906 .37199403 .0309906 .30499269 .0309906V0L.41600038 .0029907227 .5269928 0V.0309906C.45999146 .0309906 .44898988 .0309906 .44898988 .07595825V.3996582H.6069946C.6529999 .3996582 .6599884 .38667298 .6599884 .34570313V.07595825C.6599884 .0309906 .6489868 .0309906 .58200076 .0309906V0L.69299319 .0029907227 .80400088 0M.40098573 .6496124C.3619995 .6476135 .35299684 .62361147 .35299684 .6036072 .35299684 .581604 .36499024 .5656128 .3829956 .5606079V.43066407H.16899109V.5436096C.16899109 .6436157 .2559967 .68307498 .31498719 .68307498 .33898927 .68307498 .37399293 .6779938 .40098573 .6496124Z"/>
<path id="font_3_50" d="M.4149933 .11933899C.4149933 .12934876 .40699769 .13134766 .4019928 .13134766 .3929901 .13134766 .3909912 .12535095 .3889923 .11734009 .35398866 .014251709 .2639923 .014251709 .2539978 .014251709 .20399475 .014251709 .1639862 .044281007 .14099121 .08131409 .11099243 .12934876 .11099243 .19540406 .11099243 .23144531H.3899994C.4119873 .23144531 .4149933 .23144531 .4149933 .2524414 .4149933 .35131837 .36099244 .4482422 .23599243 .4482422 .11999512 .4482422 .027999878 .34532167 .027999878 .22042847 .027999878 .08631897 .1329956-.0107421879 .24798584-.0107421879 .36999513-.0107421879 .4149933 .10032654 .4149933 .11933899M.34899903 .2524414H.11199951C.117996219 .40126039 .20199585 .426239 .23599243 .426239 .33898927 .426239 .34899903 .2913971 .34899903 .2524414Z"/>
<path id="font_3_65" d="M.33299256 0V.0309906H.30699159C.22799683 .0309906 .22499085 .041992189 .22499085 .07795715V.6046295C.22499085 .64060977 .22799683 .6516113 .30699159 .6516113H.33299256V.6826172C.2979889 .6796112 .21899414 .6796112 .18099976 .6796112 .14199829 .6796112 .06298828 .6796112 .027999878 .6826172V.6516113H.053985597C.1329956 .6516113 .13598633 .64060977 .13598633 .6046295V.07795715C.13598633 .041992189 .1329956 .0309906 .053985597 .0309906H.027999878V0C.06298828 .0029907227 .14199829 .0029907227 .17999268 .0029907227 .21899414 .0029907227 .2979889 .0029907227 .33299256 0Z"/>
<path id="font_3_112" d="M.5079956 .3996582V.43066407C.4850006 .4286499 .45599366 .42765809 .43299867 .42765809L.34599305 .43066407V.3996582C.3829956 .39865113 .3939972 .37568666 .3939972 .35671998 .3939972 .34773255 .3919983 .34373475 .3880005 .3327484L.28599549 .078125 .17399597 .35671998C.16799927 .3697052 .16799927 .37368775 .16799927 .37368775 .16799927 .3996582 .20698548 .3996582 .22499085 .3996582V.43066407L.115997318 .42765809C.08898926 .42765809 .04899597 .4286499 .018997193 .43066407V.3996582C.08198547 .3996582 .085998538 .3936615 .09899902 .36271668L.24299622 .008224487C.24899292-.0057525637 .25099183-.0107421879 .2639923-.0107421879 .2769928-.0107421879 .2809906-.0017700195 .2849884 .008224487L.41600038 .3327484C.4249878 .3557129 .44198609 .39865113 .5079956 .3996582Z"/>
<path id="font_3_28" d="M.48298646 .08912659V.14511109H.45799256V.08912659C.45799256 .03112793 .43299867 .025131226 .42199708 .025131226 .3889923 .025131226 .3849945 .070129398 .3849945 .07511902V.27508546C.3849945 .31707765 .3849945 .3560791 .34899903 .39312745 .30999757 .43223573 .2599945 .4482422 .21199036 .4482422 .12998963 .4482422 .06098938 .40115357 .06098938 .335083 .06098938 .30508424 .08099365 .28808595 .10699463 .28808595 .1349945 .28808595 .15299988 .30807496 .15299988 .33407594 .15299988 .3460846 .147995 .37908937 .101989749 .38008119 .1289978 .41519166 .17799378 .426239 .20999146 .426239 .25898744 .426239 .31599427 .38710023 .31599427 .29808045V.26107789C.2649994 .25808717 .19499207 .25508119 .13198853 .22509766 .056991579 .19110108 .03199768 .13911438 .03199768 .09512329 .03199768 .014251709 .1289978-.0107421879 .19198609-.0107421879 .2579956-.0107421879 .3039856 .029251099 .32299806 .07624817 .32699586 .036132814 .35398866-.005859375 .40098573-.005859375 .42199708-.005859375 .48298646 .008132935 .48298646 .08912659M.31599427 .14013672C.31599427 .04525757 .24398804 .011245728 .19898987 .011245728 .1499939 .011245728 .10899353 .04624939 .10899353 .09625244 .10899353 .15124512 .15098572 .23425293 .31599427 .24024964V.14013672Z"/>
<path id="font_3_77" d="M.5349884 0V.0309906C.48298646 .0309906 .45799256 .0309906 .45700074 .061019899V.25221253C.45700074 .3383026 .45700074 .36932374 .42599488 .405365 .4119873 .42237855 .3789978 .4423828 .32099916 .4423828 .24798584 .4423828 .20098877 .39935304 .17298889 .33729554V.4423828L.03199768 .43066407V.3996582C.101989749 .3996582 .10998535 .39266969 .10998535 .34370423V.07595825C.10998535 .0309906 .09899902 .0309906 .03199768 .0309906V0L.14498902 .0029907227 .25698854 0V.0309906C.18998719 .0309906 .1789856 .0309906 .1789856 .07595825V.25978089C.1789856 .36431886 .25 .42037965 .31399537 .42037965 .3769989 .42037965 .3880005 .36631776 .3880005 .30926515V.076034549C.3880005 .0309906 .3769989 .0309906 .30999757 .0309906V0L.4229889 .0029907227 .5349884 0Z"/>
<path id="font_3_42" d="M.6649933 .23271179C.6649933 .24272156 .6649933 .24972534 .6519928 .24972534 .6409912 .24972534 .6409912 .24372864 .6399994 .23371887 .6319885 .09059143 .5249939 .008529663 .41600038 .008529663 .35499574 .008529663 .15899658 .042556764 .15899658 .34080506 .15899658 .64004519 .35398866 .67407229 .4149933 .67407229 .5239868 .67407229 .61299136 .58299258 .6329956 .4368744 .6349945 .42286683 .6349945 .41986085 .6489868 .41986085 .6649933 .41986085 .6649933 .42286683 .6649933 .44387818V.68107607C.6649933 .69807437 .6649933 .7050781 .6539917 .7050781 .6499939 .7050781 .6459961 .7050781 .6380005 .69306948L.58799746 .61901858C.5509949 .6550598 .5 .7050781 .4039917 .7050781 .21699524 .7050781 .055999757 .5459595 .055999757 .34179688 .055999757 .1346283 .21798706-.022460938 .4039917-.022460938 .5669861-.022460938 .6649933 .116622928 .6649933 .23271179Z"/>
<path id="font_3_72" d="M.25498963 0V.0309906C.18798828 .0309906 .1769867 .0309906 .1769867 .07601929V.69433596L.032989503 .6826172V.6516113C.102996829 .6516113 .11099243 .64460757 .11099243 .5956421V.07595825C.11099243 .0309906 .099990848 .0309906 .032989503 .0309906V0L.14399719 .0029907227 .25498963 0Z"/>
<path id="font_3_81" d="M.47099305 .21424866C.47099305 .34223939 .37098695 .4482422 .25 .4482422 .125 .4482422 .027999878 .3392334 .027999878 .21424866 .027999878 .085250858 .13198853-.0107421879 .24899292-.0107421879 .36999513-.0107421879 .47099305 .087249759 .47099305 .21424866M.3880005 .22224427C.3880005 .18624878 .3880005 .13224793 .3659973 .08824158 .34399415 .04324341 .2999878 .014251709 .25 .014251709 .20698548 .014251709 .16299439 .035247804 .13598633 .08125305 .11099243 .12524414 .11099243 .18624878 .11099243 .22224427 .11099243 .26124574 .11099243 .31523133 .1349945 .35923768 .1619873 .40522767 .20899964 .426239 .24899292 .426239 .29299928 .426239 .33599855 .40423585 .3619995 .36123658 .3880005 .3182373 .3880005 .26023866 .3880005 .22224427Z"/>
<path id="font_3_105" d="M.33198548 .12385559V.18066406H.30699159V.12585449C.30699159 .052108766 .2769928 .014251709 .23999024 .014251709 .17298889 .014251709 .17298889 .10491943 .17298889 .12187195V.3996582H.31599427V.43066407H.17298889V.6142578H.147995C.14698792 .5324249 .116989139 .42565919 .018997193 .42166139V.3996582H.10398865V.12408447C.10398865 .0012512207 .19699097-.0107421879 .23298645-.0107421879 .3039856-.0107421879 .33198548 .060180665 .33198548 .12408447V.12385559Z"/>
<path id="font_3_66" d="M.24699402 0V.0309906C.18099976 .0309906 .1769867 .035995485 .1769867 .075042728V.4423828L.036987306 .43066407V.3996582C.101989749 .3996582 .11099243 .3936615 .11099243 .3447113V.07595825C.11099243 .0309906 .099990848 .0309906 .032989503 .0309906V0L.14299011 .0029907227C.17799378 .0029907227 .21299744 .0009918213 .24699402 0M.19198609 .603775C.19198609 .6307678 .16899109 .6567688 .13899231 .6567688 .10499573 .6567688 .084991458 .6287689 .084991458 .603775 .084991458 .57676699 .10798645 .55078127 .13798523 .55078127 .17199707 .55078127 .19198609 .5787811 .19198609 .603775Z"/>
<path id="font_3_75" d="M.8129883 0V.0309906C.7609863 .0309906 .73599246 .0309906 .7350006 .061019899V.25221253C.7350006 .3383026 .7350006 .36932374 .70399478 .405365 .6899872 .42237855 .6569977 .4423828 .598999 .4423828 .5149994 .4423828 .47099305 .38233949 .45399476 .34429933 .43998719 .43138124 .3659973 .4423828 .32099916 .4423828 .24798584 .4423828 .20098877 .39935304 .17298889 .33729554V.4423828L.03199768 .43066407V.3996582C.101989749 .3996582 .10998535 .39266969 .10998535 .34370423V.07595825C.10998535 .0309906 .09899902 .0309906 .03199768 .0309906V0L.14498902 .0029907227 .25698854 0V.0309906C.18998719 .0309906 .1789856 .0309906 .1789856 .07595825V.25978089C.1789856 .36431886 .25 .42037965 .31399537 .42037965 .3769989 .42037965 .3880005 .36631776 .3880005 .30926515V.076034549C.3880005 .0309906 .3769989 .0309906 .30999757 .0309906V0L.4229889 .0029907227 .5349884 0V.0309906C.46798707 .0309906 .45700074 .0309906 .45700074 .076034549V.2602234C.45700074 .36431886 .5279999 .42037965 .59199526 .42037965 .6549988 .42037965 .66600039 .36631776 .66600039 .30926515V.076034549C.66600039 .0309906 .6549988 .0309906 .58799746 .0309906V0L.70098879 .0029907227 .8129883 0Z"/>
<path id="font_3_85" d="M.33099366-.2400055C.33099366-.23701477 .33099366-.23500061 .31399537-.21800232 .18899536-.0920105 .15699768 .09700012 .15699768 .25 .15699768 .42399598 .19499207 .59799197 .31799317 .72299197 .33099366 .7350006 .33099366 .7369995 .33099366 .73999026 .33099366 .746994 .32699586 .75 .32099916 .75 .31098939 .75 .22099304 .6819916 .1619873 .5549927 .11099243 .44499208 .09899902 .33399964 .09899902 .25 .09899902 .17199707 .10998535 .050994874 .16499329-.06201172 .22499085-.18501282 .31098939-.25 .32099916-.25 .32699586-.25 .33099366-.24700928 .33099366-.2400055Z"/>
<path id="font_3_98" d="M.3600006 .12823487C.3600006 .18122864 .32998658 .21122742 .31799317 .22323609 .2849884 .25523377 .24598694 .26322938 .20399475 .27124024 .147995 .28224183 .08099365 .29522706 .08099365 .35324098 .08099365 .38822938 .10699463 .42922975 .19299317 .42922975 .30299378 .42922975 .30799867 .3392334 .30999757 .30822755 .31098939 .2992401 .32199098 .2992401 .32199098 .2992401 .33499146 .2992401 .33499146 .30422975 .33499146 .32322694V.4242401C.33499146 .4412384 .33499146 .4482422 .32398988 .4482422 .31900025 .4482422 .31698609 .4482422 .3039856 .43623353 .30099488 .43223573 .29100038 .42323304 .2869873 .42022706 .24899292 .4482422 .20799256 .4482422 .19299317 .4482422 .070999149 .4482422 .032989503 .38124085 .032989503 .3252411 .032989503 .29023744 .04899597 .26223756 .07598877 .24023438 .10798645 .2142334 .13598633 .2082367 .20799256 .19422913 .22999573 .19021607 .31199647 .17422486 .31199647 .10221863 .31199647 .051223756 .2769928 .011245728 .19898987 .011245728 .114990238 .011245728 .07899475 .068222049 .05999756 .1532135 .056991579 .16621399 .055999757 .17021179 .04598999 .17021179 .032989503 .17021179 .032989503 .16322327 .032989503 .1452179V.013214111C.032989503-.003753662 .032989503-.0107421879 .04399109-.0107421879 .04899597-.0107421879 .049987794-.009750366 .068984989 .009246826 .070999149 .011245728 .070999149 .013214111 .08898926 .032226564 .1329956-.009750366 .17799378-.0107421879 .19898987-.0107421879 .31399537-.0107421879 .3600006 .05621338 .3600006 .1282196V.12823487Z"/>
<path id="font_3_86" d="M.2889862 .25C.2889862 .32798768 .27799989 .44898988 .22299195 .56199648 .16299439 .68499758 .07699585 .75 .066986087 .75 .06098938 .75 .056991579 .74598696 .056991579 .73999026 .056991579 .7369995 .056991579 .7350006 .07598877 .71699526 .17399597 .6179962 .23098755 .45899964 .23098755 .25 .23098755 .07899475 .19400025-.09700012 .069992069-.2230072 .056991579-.23500061 .056991579-.23701477 .056991579-.2400055 .056991579-.2460022 .06098938-.25 .066986087-.25 .07699585-.25 .16699219-.18200684 .22599793-.055007936 .2769928 .054992677 .2889862 .16600037 .2889862 .25Z"/>
<path id="font_3_47" d="M.5269928 0V.0309906C.45700074 .0309906 .44898988 .038009645 .44898988 .0871582V.69433596L.30499269 .6826172V.6516113C.375 .6516113 .3829956 .64463809 .3829956 .59580996V.38035584C.35398866 .41636659 .31098939 .4423828 .25698854 .4423828 .13899231 .4423828 .033996583 .3443451 .033996583 .21531677 .033996583 .088272098 .13198853-.0107421879 .24598694-.0107421879 .30999757-.0107421879 .35499574 .023254395 .37998963 .055267335V-.0107421879L.5269928 0M.37998963 .117996219C.37998963 .099990848 .37998963 .09799194 .36898805 .08099365 .33898927 .033218385 .2939911 .011245728 .25099183 .011245728 .20599365 .011245728 .16999817 .037216188 .1459961 .075164798 .11999512 .1161499 .116989139 .17320252 .116989139 .21421814 .116989139 .25125123 .11898804 .31129457 .147995 .35632325 .16899109 .38734437 .20698548 .42037965 .26098634 .42037965 .29599 .42037965 .33799745 .405365 .36898805 .3603363 .37998963 .34332276 .37998963 .34132386 .37998963 .32330323V.117996219Z"/>
<path id="font_3_43" d="M.4149933 .119140628C.4149933 .12911988 .40499879 .12911988 .4019928 .12911988 .3929901 .12911988 .3909912 .12512207 .3889923 .119140628 .3600006 .026229859 .29499818 .014251709 .2579956 .014251709 .20498657 .014251709 .116989139 .0572052 .116989139 .21801758 .116989139 .38093568 .19898987 .42323304 .2519989 .42323304 .26098634 .42323304 .32398988 .42222596 .35899354 .38594056 .31799317 .38293458 .31199647 .3529358 .31199647 .3399353 .31199647 .31393434 .32998658 .2939453 .35798646 .2939453 .38398744 .2939453 .4039917 .3109436 .4039917 .34094239 .4039917 .40911866 .32798768 .4482422 .25099183 .4482422 .12599182 .4482422 .033996583 .3399353 .033996583 .21601868 .033996583 .08816528 .1329956-.0107421879 .24899292-.0107421879 .3829956-.0107421879 .4149933 .10914612 .4149933 .119140628Z"/>
</defs>
<path transform="matrix(1.00002,0,0,-1.00002,12.915638,145.95136)" d="M0 0H163.88492V141.3533H0Z" fill="#fffac2"/>
<path transform="matrix(1.00002,0,0,-1.00002,12.915638,145.95136)" stroke-width=".3985" stroke-linecap="butt" stroke-miterlimit="10" stroke-linejoin="miter" fill="none" stroke="#d5d6d5" d="M32.77698 0V141.3533M65.55397 0V141.3533M98.33095 0V141.3533M131.10794 0V141.3533M163.88492 0V141.3533"/>
<path transform="matrix(1.00002,0,0,-1.00002,12.915638,145.95136)" stroke-width=".3985" stroke-linecap="butt" stroke-miterlimit="10" stroke-linejoin="miter" fill="none" stroke="#d5d6d5" d="M0 0H163.88492M0 9.42355H163.88492M0 18.8471H163.88492M0 28.27066H163.88492M0 37.69421H163.88492M0 47.11777H163.88492M0 56.54132H163.88492M0 65.96487H163.88492M0 75.38843H163.88492M0 84.81198H163.88492M0 94.23553H163.88492M0 103.65909H163.88492M0 113.08264H163.88492M0 122.5062H163.88492M0 131.92975H163.88492M0 141.3533H163.88492"/>
<path transform="matrix(1.00002,0,0,-1.00002,12.915638,145.95136)" stroke-width=".3985" stroke-linecap="butt" stroke-miterlimit="10" stroke-linejoin="miter" fill="none" stroke="#d5d6d5" d="M0 47.11777H163.88492M0 94.23553H163.88492M0 141.3533H163.88492"/>
<path transform="matrix(1.00002,0,0,-1.00002,12.915638,145.95136)" stroke-width=".19925" stroke-linecap="butt" stroke-miterlimit="10" stroke-linejoin="miter" fill="none" stroke="#929292" d="M32.77698-2.12587V2.12587M65.55397-2.12587V2.12587M98.33095-2.12587V2.12587M131.10794-2.12587V2.12587M163.88492-2.12587V2.12587"/>
<path transform="matrix(1.00002,0,0,-1.00002,12.915638,145.95136)" stroke-width=".19925" stroke-linecap="butt" stroke-miterlimit="10" stroke-linejoin="miter" fill="none" stroke="#929292" d="M-1.41737 0H1.41739M-1.41737 9.42355H1.41739M-1.41737 18.8471H1.41739M-1.41737 28.27066H1.41739M-1.41737 37.69421H1.41739M-1.41737 47.11777H1.41739M-1.41737 56.54132H1.41739M-1.41737 65.96487H1.41739M-1.41737 75.38843H1.41739M-1.41737 84.81198H1.41739M-1.41737 94.23553H1.41739M-1.41737 103.65909H1.41739M-1.41737 113.08264H1.41739M-1.41737 122.5062H1.41739M-1.41737 131.92975H1.41739M-1.41737 141.3533H1.41739"/>
<path transform="matrix(1.00002,0,0,-1.00002,12.915638,145.95136)" stroke-width=".19925" stroke-linecap="butt" stroke-miterlimit="10" stroke-linejoin="miter" fill="none" stroke="#929292" d="M-2.12587 47.11777H2.12587M-2.12587 94.23553H2.12587M-2.12587 141.3533H2.12587"/>
<path transform="matrix(1.00002,0,0,-1.00002,12.915638,145.95136)" stroke-width=".3985" stroke-linecap="butt" stroke-miterlimit="10" stroke-linejoin="miter" fill="none" stroke="#000000" d="M0 0H161.8924"/>
<path transform="matrix(1.00002,0,0,-1.00002,174.81127,145.95136)" d="M1.99252 0-1.19551 1.59401 0 0-1.19551-1.59401"/>
<path transform="matrix(1.00002,0,0,-1.00002,12.915638,145.95136)" stroke-width=".3985" stroke-linecap="butt" stroke-miterlimit="10" stroke-linejoin="miter" fill="none" stroke="#000000" d="M0 0V139.36078"/>
<path transform="matrix(0,-1.00002,-1.00002,-0,12.915638,6.587784)" d="M1.99252 0-1.19551 1.59401 0 0-1.19551-1.59401"/>
<use data-text="1" xlink:href="#font_1_2" transform="matrix(7.9702599,0,0,-7.9702599,43.576253,156.73357)"/>
<use data-text="2" xlink:href="#font_1_3" transform="matrix(7.9702599,0,0,-7.9702599,76.35391,156.73357)"/>
<use data-text="3" xlink:href="#font_1_4" transform="matrix(7.9702599,0,0,-7.9702599,109.13156,156.73357)"/>
<use data-text="4" xlink:href="#font_1_5" transform="matrix(7.9702599,0,0,-7.9702599,141.90921,156.73357)"/>
<use data-text="5" xlink:href="#font_1_6" transform="matrix(7.9702599,0,0,-7.9702599,174.68688,156.73357)"/>
<use data-text="5" xlink:href="#font_1_6" transform="matrix(7.9702599,0,0,-7.9702599,4.9264795,101.40047)"/>
<use data-text="1" xlink:href="#font_1_2" transform="matrix(7.9702599,0,0,-7.9702599,.69239428,54.282518)"/>
<use data-text="0" xlink:href="#font_1_1" transform="matrix(7.9702599,0,0,-7.9702599,4.9246027,54.282518)"/>
<use data-text="1" xlink:href="#font_1_2" transform="matrix(7.9702599,0,0,-7.9702599,.69239428,7.163574)"/>
<use data-text="5" xlink:href="#font_1_6" transform="matrix(7.9702599,0,0,-7.9702599,4.9246027,7.163574)"/>
<g clip-path="url(#clip_2)">
<path transform="matrix(1.00002,0,0,-1.00002,12.915638,145.95136)" stroke-width=".99628" stroke-linecap="butt" stroke-miterlimit="10" stroke-linejoin="miter" fill="none" stroke="#9e0c0f" d="M32.77698 9.42355 38.23978 13.61176 43.70258 17.79997 49.16539 21.98819 54.62819 26.1764 60.091 30.36462 65.55382 34.55284 71.01663 38.74104 76.47943 42.9293 81.94225 47.1175 87.40504 51.30571 92.86786 55.49391 98.33066 59.68214 103.79347 63.87038 109.25627 68.0586 114.71907 72.24678 120.1819 76.43501 125.6447 80.62321 131.10752 84.81146 136.57032 88.99966 142.03313 93.1879 147.49593 97.3761 152.95874 101.5643 158.42154 105.75255 161.59156 108.18297"/>
<path transform="matrix(.7935959,-.60841217,-.60841217,-.7935959,174.51042,37.76622)" d="M2.8892 0-1.73352 2.31136 0 0-1.73352-2.31136" fill="#9e0c0f"/>
<use data-text="E" xlink:href="#font_3_49" transform="matrix(7.9060795,-6.0613667,-6.0613667,-7.9060795,110.10386,100.80674)" fill="#9e0c0f"/>
<use data-text="&#xfb00;" xlink:href="#font_3_123" transform="matrix(7.9060795,-6.0613667,-6.0613667,-7.9060795,115.48789,96.67895)" fill="#9e0c0f"/>
<use data-text="e" xlink:href="#font_3_50" transform="matrix(7.9060795,-6.0613667,-6.0613667,-7.9060795,122.07366,91.62983)" fill="#9e0c0f"/>
<path transform="matrix(1.00002,0,0,-1.00002,12.915638,145.95136)" stroke-width=".99628" stroke-linecap="butt" stroke-miterlimit="10" stroke-linejoin="miter" fill="none" stroke="#008099" d="M32.77698 9.42355 38.23978 14.9206 43.70258 20.41763 49.16539 25.91469 54.62819 31.41174 60.091 36.90878 65.55382 42.40584 71.01663 47.90288 76.47943 53.39995 81.94225 58.897 87.40504 64.39404 92.86786 69.89107 98.33066 75.38812 103.79347 80.88521 109.25627 86.38223 114.71907 91.87927 120.1819 97.37634 125.6447 102.87338 131.10752 108.37045 136.57032 113.8675 142.03313 119.36455 147.49593 124.86157 152.95874 130.35861 158.42154 135.85572 161.84786 139.30347"/>
<path transform="matrix(.7048741,-.7093042,-.7093042,-.7048741,174.76673,6.645096)" d="M2.8892 0-1.73352 2.31136 0 0-1.73352-2.31136" fill="#008099"/>
<use data-text="I" xlink:href="#font_3_65" transform="matrix(7.0223786,-7.066514,-7.066514,-7.0223786,106.98984,79.59524)" fill="#008099"/>
<use data-text="v" xlink:href="#font_3_112" transform="matrix(7.0223786,-7.066514,-7.066514,-7.0223786,109.52493,77.04423)" fill="#008099"/>
<use data-text="a" xlink:href="#font_3_28" transform="matrix(7.0223786,-7.066514,-7.066514,-7.0223786,112.83948,73.70884)" fill="#008099"/>
<use data-text="n" xlink:href="#font_3_77" transform="matrix(7.0223786,-7.066514,-7.066514,-7.0223786,116.35068,70.175579)" fill="#008099"/>
<path transform="matrix(1.00002,0,0,-1.00002,12.915638,145.95136)" stroke-width=".99628" stroke-linecap="butt" stroke-miterlimit="10" stroke-linejoin="miter" fill="none" stroke="#1c8464" d="M32.77698 18.8471 37.2155 23.95149 41.65402 29.0559 46.09256 34.16028 50.53108 39.26468 54.9696 44.36908 59.40814 49.4735 63.84666 54.5779 68.28519 59.68231 72.72372 64.78668 77.16225 69.89107 81.60077 74.99547 86.03929 80.09985 90.47781 85.2043 94.91634 90.30869 99.35487 95.41307 103.7934 100.51746 108.23192 105.62184 112.67046 110.72629 117.10898 115.83067 121.5475 120.93506 125.98604 126.03944 130.42456 131.14385 134.86309 136.24829 137.40584 139.17246"/>
<path transform="matrix(.6561731,-.75462517,-.75462517,-.6561731,150.32422,6.776108)" d="M2.8892 0-1.73352 2.31136 0 0-1.73352-2.31136" fill="#1c8464"/>
<use data-text="C" xlink:href="#font_3_42" transform="matrix(6.536991,-7.518128,-7.518128,-6.536991,89.55508,70.50766)" fill="#1c8464"/>
<use data-text="l" xlink:href="#font_3_72" transform="matrix(6.536991,-7.518128,-7.518128,-6.536991,94.27479,65.07957)" fill="#1c8464"/>
<use data-text="e" xlink:href="#font_3_50" transform="matrix(6.536991,-7.518128,-7.518128,-6.536991,96.092067,62.989526)" fill="#1c8464"/>
<use data-text="o" xlink:href="#font_3_81" transform="matrix(6.536991,-7.518128,-7.518128,-6.536991,98.9945,59.651479)" fill="#1c8464"/>
<path transform="matrix(1.00002,0,0,-1.00002,12.915638,145.95136)" stroke-width=".99628" stroke-linecap="butt" stroke-miterlimit="10" stroke-linejoin="miter" fill="none" stroke="#9e0c0f" d="M0 0 1.36566 .00021 2.73137 .00238 4.09705 .00919 5.46274 .02399 6.82841 .05049 8.1941 .09273 9.55978 .15503 10.92548 .24194 12.29115 .35815 13.65685 .50905 15.02252 .69943 16.38821 .93483 17.75389 1.22034 19.11958 1.56242 20.48526 1.96669 21.85097 2.4388 23.21664 2.98444 24.58234 3.61014 25.94803 4.32352 27.3137 5.13112 28.6794 6.03671 30.04507 7.04974 31.41077 8.17491 32.77644 9.42259"/>
<path transform="matrix(1.00002,0,0,-1.00002,12.915638,145.95136)" stroke-width=".99628" stroke-linecap="butt" stroke-miterlimit="10" stroke-linejoin="miter" fill="none" stroke="#008099" d="M0 0 1.36566 .00012 2.73137 .00156 4.09705 .0065 5.46274 .01778 6.82841 .03886 8.1941 .07358 9.55978 .12624 10.92548 .20145 12.29115 .30412 13.65685 .43993 15.02252 .61414 16.38821 .83281 17.75389 1.10161 19.11958 1.42766 20.48526 1.81778 21.85097 2.2786 23.21664 2.81763 24.58234 3.44052 25.94803 4.1586 27.3137 4.9775 28.6794 5.90385 30.04507 6.94797 31.41077 8.11743 32.77644 9.42259"/>
<path transform="matrix(1.00002,0,0,-1.00002,12.915638,145.95136)" stroke-width=".99628" stroke-linecap="butt" stroke-miterlimit="10" stroke-linejoin="miter" fill="none" stroke="#1c8464" d="M0 0 1.36566 .03268 2.73137 .13086 4.09705 .29445 5.46274 .5235 6.82841 .81798 8.1941 1.17789 9.55978 1.60326 10.92548 2.09406 12.29115 2.65027 13.65685 3.27194 15.02252 3.95906 16.38821 4.71162 17.75389 5.5296 19.11958 6.41304 20.48526 7.36188 21.85097 8.37622 23.21664 9.45596 24.58234 10.60114 25.94803 11.81177 27.3137 13.08783 28.6794 14.42935 30.04507 15.83629 31.41077 17.30865 32.77644 18.8465"/>
</g>
<use data-text="t" xlink:href="#font_3_105" transform="matrix(9.962799,0,0,-9.962799,138.92217,139.94124)"/>
<use data-text="i" xlink:href="#font_3_66" transform="matrix(9.962799,0,0,-9.962799,142.7977,139.94124)"/>
<use data-text="m" xlink:href="#font_3_75" transform="matrix(9.962799,0,0,-9.962799,145.56735,139.94124)"/>
<use data-text="e" xlink:href="#font_3_50" transform="matrix(9.962799,0,0,-9.962799,153.86637,139.94124)"/>
<use data-text="(" xlink:href="#font_3_85" transform="matrix(9.962799,0,0,-9.962799,161.5975,139.94124)"/>
<use data-text="s" xlink:href="#font_3_98" transform="matrix(9.962799,0,0,-9.962799,165.47303,139.94124)"/>
<use data-text=")" xlink:href="#font_3_86" transform="matrix(9.962799,0,0,-9.962799,169.39838,139.94124)"/>
<use data-text="d" xlink:href="#font_3_47" transform="matrix(9.962799,0,0,-9.962799,16.435709,15.587753)"/>
<use data-text="i" xlink:href="#font_3_66" transform="matrix(9.962799,0,0,-9.962799,21.975028,15.587753)"/>
<use data-text="s" xlink:href="#font_3_98" transform="matrix(9.962799,0,0,-9.962799,24.744688,15.587753)"/>
<use data-text="t" xlink:href="#font_3_105" transform="matrix(9.962799,0,0,-9.962799,28.67003,15.587753)"/>
<use data-text="a" xlink:href="#font_3_28" transform="matrix(9.962799,0,0,-9.962799,32.545564,15.587753)"/>
<use data-text="n" xlink:href="#font_3_77" transform="matrix(9.962799,0,0,-9.962799,37.526964,15.587753)"/>
<use data-text="c" xlink:href="#font_3_43" transform="matrix(9.962799,0,0,-9.962799,43.066286,15.587753)"/>
<use data-text="e" xlink:href="#font_3_50" transform="matrix(9.962799,0,0,-9.962799,47.48976,15.587753)"/>
<use data-text="(" xlink:href="#font_3_85" transform="matrix(9.962799,0,0,-9.962799,55.220895,15.587753)"/>
<use data-text="m" xlink:href="#font_3_75" transform="matrix(9.962799,0,0,-9.962799,59.096429,15.587753)"/>
<use data-text=")" xlink:href="#font_3_86" transform="matrix(9.962799,0,0,-9.962799,67.39543,15.587753)"/>
</svg>
