<svg xmlns="http://www.w3.org/2000/svg" xmlns:xlink="http://www.w3.org/1999/xlink" version="1.1" width="184" height="158" viewBox="0 0 184 158">
<defs>
<path id="font_1_8" d="M.13999939 .5618439C.15299988 .55784609 .19299317 .54785159 .23498535 .54785159 .3600006 .54785159 .43598939 .6358948 .43598939 .6510315 .43598939 .6620331 .42900086 .66503909 .42399598 .66503909 .42199708 .66503909 .41999818 .66503909 .41099549 .6600342 .37199403 .6450348 .32598878 .632843 .27198792 .632843 .21299744 .632843 .1639862 .6480255 .1329956 .6600342 .12298584 .66503909 .12098694 .66503909 .11999512 .66503909 .10699463 .66503909 .10699463 .6540375 .10699463 .6358948V.34292604C.10699463 .32492066 .10699463 .312912 .12298584 .312912 .1309967 .312912 .13398743 .3169098 .13899231 .32492066 .15098572 .33992005 .18899536 .39093019 .27398683 .39093019 .32998658 .39093019 .35699464 .34492494 .3659973 .32591249 .3829956 .28990174 .3849945 .24389649 .3849945 .20487976 .3849945 .1678772 .38398744 .11387634 .35598756 .069732669 .33699037 .039611818 .29699708 .008514404 .24398804 .008514404 .1789856 .008514404 .114990238 .0496521 .09199524 .11488342 .09498596 .11387634 .100997928 .11387634 .101989749 .11387634 .12998963 .11387634 .1519928 .13188172 .1519928 .16288758 .1519928 .19989014 .12298584 .21289063 .102996829 .21289063 .084991458 .21289063 .052993776 .20288086 .052993776 .15988159 .052993776 .069732669 .1309967-.021484375 .24598694-.021484375 .37098695-.021484375 .47698976 .07574463 .47698976 .19989014 .47698976 .31591798 .3929901 .4189453 .2749939 .4189453 .22499085 .4189453 .17799378 .40293885 .13999939 .368927V.5618439Z"/>
<path id="font_1_3" d="M.4889984 .31877137C.4889984 .42585755 .47799684 .49090577 .44499208 .55496218 .40098573 .6430359 .31999208 .66503909 .2649994 .66503909 .13899231 .66503909 .09298706 .5709839 .07899475 .5429535 .042999269 .4698944 .040985109 .3708191 .040985109 .31877137 .040985109 .25271607 .04399109 .15162659 .09199524 .07156372 .13798523-.0024871827 .21199036-.021484375 .2649994-.021484375 .31298829-.021484375 .39898683-.0064849855 .44898988 .09257507 .48599244 .16464234 .4889984 .2537079 .4889984 .31877137M.2649994 .006515503C.23098755 .006515503 .1619873 .022521973 .14099121 .12760926 .12998963 .18466187 .12998963 .2787323 .12998963 .33078004 .12998963 .3998413 .12998963 .4698944 .14099121 .5249481 .1619873 .6270294 .23999024 .6370239 .2649994 .6370239 .29899598 .6370239 .36799623 .62002566 .3880005 .5289459 .3999939 .4738922 .3999939 .39883424 .3999939 .33078004 .3999939 .27172853 .3999939 .18165589 .3880005 .12561035 .36698915 .020523072 .2979889 .006515503 .2649994 .006515503Z"/>
<path id="font_1_4" d="M.31399537 .63708499C.31399537 .664032 .31199647 .66503909 .2849884 .66503909 .24398804 .6251831 .19099427 .6013489 .09599304 .6013489V.5683594C.12298584 .5683594 .1769867 .5683594 .23498535 .5953522V.08203125C.23498535 .04499817 .23199463 .032989503 .13699341 .032989503H.101989749V0C.14299011 .0029907227 .22898865 .0029907227 .27398683 .0029907227 .31900025 .0029907227 .4059906 .0029907227 .44699098 0V.032989503H.4119873C.31698609 .032989503 .31399537 .04499817 .31399537 .08203125V.63708499Z"/>
<path id="font_1_5" d="M.28199769 .20405579C.2979889 .21907044 .33999635 .2520752 .35598756 .26608277 .41799928 .32312013 .47698976 .3781433 .47698976 .46917726 .47698976 .588089 .3769989 .66503909 .2519989 .66503909 .13198853 .66503909 .052993776 .57411196 .052993776 .48516847 .052993776 .4361725 .09199524 .4291687 .10598755 .4291687 .1269989 .4291687 .1579895 .4441681 .1579895 .48217774 .1579895 .5341797 .10798645 .5341797 .09599304 .5341797 .125 .6070709 .19198609 .6320343 .24099732 .6320343 .33399964 .6320343 .38198854 .55314639 .38198854 .46917726 .38198854 .36514283 .30899049 .28910829 .19099427 .16804505L.06498718 .037994386C.052993776 .026992798 .052993776 .024993897 .052993776 0H.44799806L.47698976 .17904663H.44599916C.44299317 .1590271 .43499757 .10900879 .4229889 .08999634 .4169922 .08198547 .34098817 .08198547 .32499696 .08198547H.14698792L.28199769 .20405579Z"/>
<path id="font_1_1" d="M.33299256-.25C.34098817-.25 .35299684-.25 .35299684-.23800659 .35299684-.23400879 .35198976-.23300171 .33898927-.22000122 .20199585-.09100342 .16799927 .09498596 .16799927 .25 .16799927 .5379944 .2869873 .6729889 .33799745 .71899417 .35198976 .7319946 .35299684 .73298647 .35299684 .73799136 .35299684 .7429962 .34899903 .75 .33898927 .75 .32299806 .75 .272995 .69898989 .2649994 .6899872 .1309967 .5499878 .102996829 .36999513 .102996829 .25 .102996829 .025985718 .19699097-.15400696 .33299256-.25Z"/>
<path id="font_2_2" d="M.18699646 .01499939C.18699646-.050109865 .17298889-.10720825 .11099243-.16934204 .10699463-.17234802 .10499573-.17434693 .10499573-.17933655 .10499573-.18734741 .11299133-.19334412 .11999512-.19334412 .13198853-.19334412 .21499634-.114227298 .21499634 .0029907227 .21499634 .066986087 .19099427 .11099243 .14698792 .11099243 .11199951 .11099243 .09199524 .08299255 .09199524 .055999757 .09199524 .027999878 .11099243 0 .147995 0 .17199707 0 .18699646 .01399231 .18699646 .01499939Z"/>
<path id="font_1_6" d="M.25299073 .33370973C.33198548 .33370973 .38198854 .27557374 .38198854 .17037964 .38198854 .045440675 .31098939 .008514404 .2579956 .008514404 .20298767 .008514404 .12799073 .0284729 .09298706 .08137512 .1289978 .08137512 .1539917 .10437012 .1539917 .13737488 .1539917 .16937256 .1309967 .19238281 .09899902 .19238281 .07199097 .19238281 .04399109 .17536927 .04399109 .13537598 .04399109 .04045105 .1459961-.021484375 .2599945-.021484375 .3929901-.021484375 .48599244 .070388797 .48599244 .17037964 .48599244 .25352479 .41999818 .32969667 .31799317 .3517456 .39698792 .37982179 .45599366 .4479828 .45599366 .52804568 .45599366 .6080475 .3659973 .66503909 .2619934 .66503909 .15499878 .66503909 .07398987 .6070404 .07398987 .53105166 .07398987 .49404908 .09899902 .4780426 .125 .4780426 .1559906 .4780426 .17599488 .5000458 .17599488 .52905276 .17599488 .56604006 .14399719 .5800476 .12199402 .5810547 .1639862 .6360321 .24099732 .6390381 .25898744 .6390381 .2849884 .6390381 .36099244 .6310272 .36099244 .52804568 .36099244 .45799256 .33198548 .41589356 .31799317 .39985658 .28799439 .36878968 .2649994 .36679078 .20399475 .3627777 .18499756 .36177064 .1769867 .36076356 .1769867 .3477478 .1769867 .33370973 .18598938 .33370973 .20298767 .33370973H.25299073Z"/>
<path id="font_2_1" d="M.20298767 .054992677C.20298767 .08898926 .1749878 .11099243 .147995 .11099243 .115997318 .11099243 .09199524 .084991458 .09199524 .055999757 .09199524 .021987915 .11999512 0 .14698792 0 .1789856 0 .20298767 .025985718 .20298767 .054992677Z"/>
<path id="font_1_9" d="M.13798523 .33073426C.13798523 .41377259 .14498902 .4868164 .18099976 .54782107 .21099854 .5978241 .2619934 .6390381 .32499696 .6390381 .34498597 .6390381 .3909912 .63601687 .4139862 .60084536 .36898805 .5988312 .36499024 .5648346 .36499024 .553833 .36499024 .5238342 .3880005 .50683596 .4119873 .50683596 .42999269 .50683596 .45899964 .51782229 .45899964 .5558319 .45899964 .615921 .4139862 .66503909 .32398988 .66503909 .18499756 .66503909 .04399109 .53282168 .04399109 .31672669 .04399109 .045532228 .16999817-.021484375 .2669983-.021484375 .31498719-.021484375 .36698915-.0084991459 .4119873 .03453064 .45199586 .07354736 .48599244 .11558533 .48599244 .20263672 .48599244 .33372499 .3869934 .42578126 .27598573 .42578126 .20399475 .42578126 .16099549 .37976075 .13798523 .33073426M.2669983 .008514404C.21398926 .008514404 .18099976 .045532228 .1659851 .07354736 .14299011 .11859131 .14099121 .18663025 .14099121 .22465515 .14099121 .32373048 .19499207 .3977661 .27198792 .3977661 .32199098 .3977661 .35198976 .37176515 .37098695 .33673097 .3919983 .29971314 .3919983 .25468446 .3919983 .2036438 .3919983 .15260315 .3919983 .10858154 .37199403 .07255554 .34599305 .026519776 .31098939 .008514404 .2669983 .008514404Z"/>
<path id="font_1_2" d="M.30899049 .25C.30899049 .34500123 .29299928 .45899964 .23098755 .57699587 .18199158 .6689911 .09098816 .75 .07299805 .75 .06298828 .75 .05999756 .7429962 .05999756 .73799136 .05999756 .73399356 .05999756 .7319946 .07199097 .7200012 .21199036 .58699038 .24398804 .4039917 .24398804 .25 .24398804-.037002565 .125-.17300415 .07398987-.2190094 .06098938-.23200989 .05999756-.23300171 .05999756-.23800659 .05999756-.24301148 .06298828-.25 .07299805-.25 .08898926-.25 .13899231-.19900513 .14698792-.19000244 .2809906-.05000305 .30899049 .12998963 .30899049 .25Z"/>
<path id="font_1_7" d="M.3939972 .6468048C.3939972 .6667938 .3939972 .6748047 .37298585 .6748047 .3600006 .6748047 .35899354 .6737976 .34899903 .65979006L.02999878 .197052V.1640625H.31199647V.08100891C.31199647 .04399109 .30899049 .032989503 .23199463 .032989503H.20899964V0C.2939911 .0029907227 .29599 .0029907227 .35299684 .0029907227 .4099884 .0029907227 .4119873 .0029907227 .49699403 0V.032989503H.47399903C.39698792 .032989503 .3939972 .04399109 .3939972 .08100891V.1640625H.5V.197052H.3939972V.6468048M.31900025 .5658417V.197052H.06498718L.31900025 .5658417Z"/>
<path id="font_1_11" d="M.33198548 .36080934C.3880005 .38783265 .45599366 .4378662 .45599366 .5159302 .45599366 .6110077 .35899354 .66503909 .2659912 .66503909 .1599884 .66503909 .07398987 .59199526 .07398987 .49790956 .07398987 .46089173 .08699036 .42686463 .11199951 .39782716 .1289978 .3768158 .1329956 .3748169 .19499207 .3357849 .070999149 .2807312 .04399109 .20767212 .04399109 .15162659 .04399109 .041534425 .15499878-.021484375 .2639923-.021484375 .3869934-.021484375 .48599244 .061553956 .48599244 .16764832 .48599244 .23069763 .45199586 .2727356 .43598939 .28974916 .4189911 .30575563 .41799928 .3067627 .33198548 .36080934M.1769867 .45487977C.147995 .4718933 .12399292 .5009155 .12399292 .5359497 .12399292 .598999 .19299317 .6390381 .2639923 .6390381 .34199525 .6390381 .4059906 .5859833 .4059906 .5159302 .4059906 .45788575 .36099244 .408844 .3019867 .37982179L.1769867 .45487977M.22599793 .31776429C.22999573 .31576539 .34399415 .24571228 .36099244 .23469544 .3769989 .22569275 .42900086 .19366455 .42900086 .13360596 .42900086 .056549074 .34799195 .008514404 .2659912 .008514404 .1769867 .008514404 .100997928 .06956482 .100997928 .15162659 .100997928 .22668457 .15699768 .28573609 .22599793 .31776429Z"/>
<path id="font_1_10" d="M.5059967 .608551C.5149994 .6195526 .5149994 .6215515 .5149994 .6435547H.26098634C.23599243 .6435547 .20498657 .64456179 .17999268 .64660647 .12799073 .65068057 .1269989 .6597748 .12399292 .67578127H.09298706L.05899048 .46453858H.08999634C.09199524 .47953797 .102996829 .54855349 .116989139 .5565491 .12799073 .56155398 .20298767 .56155398 .21798706 .56155398H.42999269L.32699586 .4235382C.21299744 .27153016 .18899536 .11351013 .18899536 .03451538 .18899536 .024505616 .18899536-.021484375 .23599243-.021484375 .2829895-.021484375 .2829895 .023513794 .2829895 .035507204V.08351135C.2829895 .2275238 .30699159 .34553529 .35598756 .41053773L.5059967 .608551Z"/>
<path id="font_2_3" d="M.5009918 .39942933C.45700074 .38842774 .45498658 .34942628 .45498658 .34542848 .45498658 .3234253 .47200013 .3084259 .49398805 .3084259 .5159912 .3084259 .5499878 .3254242 .5499878 .36842347 .5499878 .42539979 .4869995 .44140626 .44999696 .44140626 .40299989 .44140626 .36499024 .4084015 .34199525 .36943055 .31999208 .4223938 .2679901 .44140626 .22698975 .44140626 .117996219 .44140626 .056991579 .31643678 .056991579 .28840638 .056991579 .27938844 .06399536 .27539063 .07199097 .27539063 .083999637 .27539063 .085998538 .2803955 .08898926 .29240418 .11199951 .36543275 .17199707 .4133911 .22399903 .4133911 .2630005 .4133911 .28199769 .385437 .28199769 .34942628 .28199769 .32943727 .269989 .2834015 .2619934 .25135804 .25498963 .22232056 .23298645 .13320923 .22799683 .11419678 .21398926 .060195924 .17799378 .018234253 .1329956 .018234253 .1289978 .018234253 .102996829 .018234253 .08198547 .032196046 .12799073 .04319763 .12799073 .08518982 .12799073 .0861969 .12799073 .109191898 .10998535 .12319946 .08799744 .12319946 .06098938 .12319946 .03199768 .10018921 .03199768 .062194826 .03199768 .016220093 .08099365-.009765625 .13198853-.009765625 .18499756-.009765625 .22200012 .030197144 .23999024 .062194826 .2619934 .01322937 .30799867-.009765625 .35598756-.009765625 .46499635-.009765625 .5249939 .1151886 .5249939 .143219 .5249939 .15322876 .5169983 .15623474 .5099945 .15623474 .49798585 .15623474 .49598695 .14923096 .49299623 .13922119 .47299195 .07218933 .41600038 .018234253 .35798646 .018234253 .32499696 .018234253 .30099488 .04019165 .30099488 .0821991 .30099488 .10218811 .30699159 .12519837 .32099916 .18127442 .32798768 .21130371 .34999085 .29942323 .35499574 .31843568 .36898805 .37042237 .4039917 .4133911 .44898988 .4133911 .45399476 .4133911 .47999574 .4133911 .5009918 .39942933Z"/>
<path id="font_3_85" d="M.35299684-.23800659C.35299684-.23400879 .35198976-.23300171 .33898927-.22000122 .20199585-.09100342 .16799927 .09498596 .16799927 .25 .16799927 .5379944 .2869873 .6729889 .33799745 .71899417 .35198976 .7319946 .35299684 .7330017 .35299684 .73799136 .35299684 .7429962 .34899903 .75 .33898927 .75 .32299806 .75 .272995 .69898989 .2649994 .6899872 .1309967 .5499878 .102996829 .36999513 .102996829 .25 .102996829 .025985718 .19699097-.15400696 .33299256-.25 .34098817-.25 .35299684-.25 .35299684-.23800659Z"/>
<path id="font_3_75" d="M.8569946 0V.032989503C.79299929 .032989503 .7809906 .032989503 .7809906 .07803345V.3032837C.7809906 .3843689 .74598696 .44140626 .6369934 .44140626 .54499819 .44140626 .49899293 .37835694 .48298646 .34933473 .46499635 .42140199 .4079895 .44140626 .34298707 .44140626 .24598694 .44140626 .19999695 .37236024 .18699646 .34532167H.18598938V.44140626L.040985109 .43045045V.39746095C.10899353 .39746095 .116989139 .3904419 .116989139 .3413849V.078048709C.116989139 .032989503 .10499573 .032989503 .040985109 .032989503V0C.083999637 .0029907227 .12799073 .0029907227 .15499878 .0029907227 .18399048 .0029907227 .22599793 .0029907227 .2689972 0V.032989503C.20498657 .032989503 .19299317 .032989503 .19299317 .078048709V.25927735C.19299317 .36434938 .27198792 .4133911 .33499146 .4133911 .3999939 .4133911 .41099549 .36235047 .41099549 .3072815V.07803345C.41099549 .032989503 .39898683 .032989503 .33499146 .032989503V0C.37799073 .0029907227 .42199708 .0029907227 .44898988 .0029907227 .47799684 .0029907227 .519989 .0029907227 .5629883 0V.032989503C.49899293 .032989503 .4869995 .032989503 .4869995 .07803345V.25923158C.4869995 .36434938 .56599429 .4133911 .6289978 .4133911 .69400027 .4133911 .7049866 .36235047 .7049866 .3072815V.07803345C.7049866 .032989503 .69299319 .032989503 .6289978 .032989503V0C.6719971 .0029907227 .71598818 .0029907227 .7429962 .0029907227 .7719879 .0029907227 .81399539 .0029907227 .8569946 0Z"/>
<path id="font_3_66" d="M.2599945 .0001373291V.03314209C.19499207 .03314209 .19099427 .038146974 .19099427 .07714844V.44140626L.04499817 .43045045V.39746095C.10899353 .39746095 .117996219 .39144898 .117996219 .34239198V.07814026C.117996219 .03314209 .10598755 .03314209 .041992189 .03314209V0C.08099365 .0029907227 .13699341 .0029907227 .1519928 .0029907227 .16499329 .0029907227 .22499085 .0029907227 .2599945 0V.0001373291M.20298767 .6021881C.20298767 .6351929 .1769867 .6582031 .147995 .6582031 .11898804 .6582031 .09298706 .6351929 .09298706 .6021881 .09298706 .5731964 .115997318 .54719546 .147995 .54719546 .1789856 .54719546 .20298767 .5731964 .20298767 .6021881Z"/>
<path id="font_3_72" d="M.2669983 0V.032989503C.20298767 .032989503 .19099427 .032989503 .19099427 .07801819V.69433596L.041992189 .6826172V.6496124C.10998535 .6496124 .117996219 .64260867 .117996219 .5936432V.07795715C.117996219 .032989503 .10598755 .032989503 .041992189 .032989503V0C.08099365 .0029907227 .13699341 .0029907227 .1539917 .0029907227 .17399597 .0029907227 .22799683 .0029907227 .2669983 0Z"/>
<path id="font_3_50" d="M.44099427 .12036133C.44099427 .12435913 .43798829 .13438416 .4249878 .13438416 .4139862 .13438416 .4119873 .12736511 .4099884 .12136841 .37399293 .024230957 .28799439 .021224976 .269989 .021224976 .22499085 .021224976 .1789856 .042251588 .14898682 .08831787 .11898804 .13438416 .11898804 .19847107 .11898804 .22851563H.41299439C.43499757 .22851563 .44099427 .22851563 .44099427 .25151063 .44099427 .34039308 .3919983 .44628907 .25099183 .44628907 .1269989 .44628907 .02999878 .3433838 .02999878 .21949768 .02999878 .09031677 .13798523-.009765625 .2639923-.009765625 .3909912-.009765625 .44099427 .097335819 .44099427 .12036133M.37298585 .25450135H.11999512C.1289978 .39431764 .21398926 .41827394 .25099183 .41827394 .36799623 .41827394 .37199403 .27748109 .37298585 .25450135Z"/>
<path id="font_3_98" d="M.3829956 .12924195C.3829956 .1772461 .35398866 .24725342 .23498535 .2692566 .22698975 .2712555 .17098999 .28126527 .16699219 .28126527 .13598633 .28826905 .08898926 .30926515 .08898926 .34927369 .08898926 .37927247 .11099243 .4212799 .20599365 .4212799 .31799317 .4212799 .32299806 .33926393 .32499696 .31126405 .32598878 .30326844 .33299256 .30026246 .33999635 .30026246 .35598756 .30026246 .35598756 .30726625 .35598756 .32626344V.4202881C.35598756 .4362793 .35598756 .44628907 .34298707 .44628907 .33799745 .44628907 .33499146 .44628907 .31900025 .4302826 .31698609 .4292755 .30799867 .4202881 .30499269 .4202881 .30499269 .4202881 .3019867 .4202881 .29599 .4242859 .27999879 .43528749 .25099183 .44628907 .20599365 .44628907 .06599426 .44628907 .034988405 .37026979 .034988405 .32226563 .034988405 .27226258 .07199097 .24325562 .07499695 .24024964 .114990238 .21025086 .13798523 .20625305 .20498657 .19424439 .2519989 .18525696 .32899476 .17124939 .32899476 .10324097 .32899476 .0642395 .30299378 .018234253 .21099854 .018234253 .10998535 .018234253 .08099365 .09623718 .067993167 .14924622 .06399536 .1622467 .06298828 .16725159 .050994874 .16725159 .034988405 .16725159 .034988405 .15924073 .034988405 .14024353V.016220093C.034988405 .00022888184 .034988405-.009765625 .04798889-.009765625 .053985597-.009765625 .054992677-.008773804 .07299805 .010223389 .07798767 .0152282719 .08898926 .02822876 .09399414 .033233644 .13899231-.0077667238 .18598938-.009765625 .21199036-.009765625 .33898927-.009765625 .3829956 .06323242 .3829956 .12924195Z"/>
<path id="font_3_86" d="M.30899049 .25C.30899049 .34498597 .29299928 .45899964 .23098755 .57699587 .18199158 .6689911 .09098816 .75 .07299805 .75 .06298828 .75 .05999756 .7429962 .05999756 .73799136 .05999756 .73399356 .05999756 .7319946 .07199097 .7200012 .21199036 .58699038 .24398804 .4039917 .24398804 .25 .24398804-.037002565 .125-.17300415 .07398987-.2190094 .06098938-.23200989 .05999756-.23300171 .05999756-.23800659 .05999756-.24301148 .06298828-.25 .07299805-.25 .08898926-.25 .13899231-.19900513 .14698792-.19000244 .2809906-.05000305 .30899049 .12998963 .30899049 .25Z"/>
<path id="font_2_4" d="M.5179901 .37738038C.5219879 .39138795 .5219879 .39338685 .5219879 .40039063 .5219879 .42539979 .5019989 .43139649 .48999024 .43139649 .4850006 .43139649 .46199037 .43040467 .44898988 .40438844 .44699098 .3993988 .43798829 .3633728 .43299867 .34236146L.37298585 .102264408C.37199403 .09925842 .32899476 .018234253 .2559967 .018234253 .20698548 .018234253 .18998719 .054244996 .18998719 .09925842 .18998719 .1572876 .22399903 .24632263 .24699402 .3043518 .25698854 .32936097 .2599945 .33836366 .2599945 .35636903 .2599945 .4113922 .21598816 .44140626 .16999817 .44140626 .070999149 .44140626 .02999878 .300354 .02999878 .28834535 .02999878 .27934266 .036987306 .27534486 .04499817 .27534486 .057998659 .27534486 .05899048 .28134156 .06199646 .29135133 .08799744 .37838746 .1309967 .4133911 .16699219 .4133911 .18199158 .4133911 .19099427 .4033966 .19099427 .38038636 .19099427 .359375 .18299866 .33636476 .17599488 .31835938 .1349945 .21231079 .117996219 .1612854 .117996219 .11427307 .117996219 .016220093 .19198609-.009765625 .25099183-.009765625 .2979889-.009765625 .33198548 .011230469 .35598756 .034240724 .34199525-.021774292 .33198548-.060791017 .2939911-.108795169 .26098634-.14985657 .22099304-.17610169 .17599488-.17610169 .15899658-.17610169 .12098694-.17308045 .100997928-.14279175 .1539917-.13879395 .1579895-.09379578 .1579895-.08778381 .1579895-.06378174 .13999939-.05078125 .11898804-.05078125 .09700012-.05078125 .06199646-.0677948 .06199646-.11679077 .06199646-.1639862 .10499573-.20410156 .17599488-.20410156 .27799989-.20410156 .3929901-.121795658 .4229889-.00077819827L.5179901 .37738038Z"/>
<path id="font_3_59" d="M.5149994 .40124513C.5149994 .418396 .5019989 .45239259 .45799256 .45239259 .44099427 .45239259 .3929901 .44839479 .34700013 .40625 .32199098 .4243927 .2829895 .44140626 .23599243 .44140626 .13699341 .44140626 .06399536 .37223817 .06399536 .294281 .06399536 .2472992 .08999634 .21231079 .11099243 .19232178 .08898926 .16732788 .08099365 .13531494 .08099365 .111328128 .08099365 .07032776 .100997928 .0393219 .12298584 .022323609 .070999149 .007904053 .02999878-.031097413 .02999878-.0770874 .02999878-.14909363 .1329956-.20507813 .2649994-.20507813 .3899994-.20507813 .5-.15408325 .5-.0750885 .5-.021102906 .46798707 .020904541 .43499757 .037902833 .37599183 .06889343 .32699586 .06889343 .22898865 .06889343H.17298889C.14199829 .07191467 .116989139 .099105838 .116989139 .13536072 .116989139 .15945435 .12298584 .16845703 .12998963 .17745972 .17199707 .15245056 .21099854 .14746094 .23498535 .14746094 .33399964 .14746094 .40699769 .21644593 .40699769 .29444886 .40699769 .3324585 .3899994 .36445619 .3659973 .39045716 .37998963 .40245057 .41299439 .42344667 .46199037 .42445375 .45799256 .42144776 .45298768 .41645814 .45298768 .40045167 .45298768 .3824463 .46598817 .36946107 .48399354 .36946107 .49798585 .36946107 .5149994 .3784485 .5149994 .40145875V.40124513M.32798768 .29444886C.32798768 .2574463 .32299806 .23146057 .30799867 .2114563 .28599549 .18345642 .2539978 .17645264 .23599243 .17645264 .14299011 .1761322 .14299011 .27218629 .14299011 .29418946 .14299011 .33122254 .147995 .35723878 .16299439 .37724305 .17999268 .40023805 .20799256 .4123993 .23498535 .4123993 .32798768 .4123993 .32798768 .3162079 .32798768 .29418946V.29444886M.44099427-.07601929C.44099427-.13005066 .3639984-.17608643 .2649994-.17608643 .16499329-.17610169 .08898926-.13009644 .08898926-.07609558 .08898926-.055099489 .10499573 .00390625 .18699646 .00390625H.2829895C.30999757 .00390625 .44099427 .00390625 .44099427-.07609558V-.07601929Z"/>
<path id="font_3_28" d="M.5139923 .09020996V.14530945H.48298646V.09020996C.48298646 .0491333 .46798707 .033111574 .44699098 .033111574 .4099884 .033111574 .4099884 .079193118 .4099884 .09020996V.29856874C.4099884 .39653016 .31498719 .44628907 .22399903 .44628907 .14099121 .44628907 .066986087 .4143219 .066986087 .34857179 .066986087 .318573 .08799744 .30056764 .11399841 .30056764 .14199829 .30056764 .16099549 .3205719 .16099549 .3475647 .16099549 .37156678 .1459961 .38856507 .12399292 .3935547 .16099549 .41827394 .21499634 .41827394 .22200012 .41827394 .27799989 .41827394 .33399964 .37957765 .33399964 .29756166V.26651C.27598573 .26350404 .20899964 .26049806 .13899231 .23144531 .050994874 .1933899 .033996583 .13528443 .033996583 .10223389 .033996583 .016220093 .1349945-.009765625 .20399475-.009765625 .2769928-.009765625 .32199098 .031219483 .34399415 .07122803 .34899903 .033111574 .375-.0048828127 .4189911-.0048828127 .42900086-.0048828127 .5139923-.00088500979 .5139923 .09010315V.09020996M.33399964 .14111328C.33399964 .04421997 .2519989 .018234253 .21199036 .018234253 .1599884 .018234253 .115997318 .053222658 .115997318 .10122681 .115997318 .16722107 .17799378 .23522949 .33399964 .24023438V.14111328Z"/>
<path id="font_3_81" d="M.5 .21325684C.5 .3382721 .39698792 .44628907 .2649994 .44628907 .1329956 .44628907 .02999878 .3382721 .02999878 .21325684 .02999878 .08824158 .13699341-.009765625 .2649994-.009765625 .3939972-.009765625 .5 .08824158 .5 .21325684M.41099549 .22225952C.41099549 .17625427 .40899659 .12124634 .3809967 .07923889 .35398866 .039230348 .30899049 .021224976 .2649994 .021224976 .21099854 .021224976 .16899109 .047225954 .14698792 .082229617 .12199402 .12324524 .11898804 .17224121 .11898804 .22225952 .11898804 .2602539 .11898804 .32026673 .1499939 .363266 .17599488 .3982849 .21798706 .41827394 .2649994 .41827394 .31698609 .41827394 .3600006 .39328004 .3829956 .35827638 .4099884 .31626893 .41099549 .2622528 .41099549 .22225952Z"/>
<path id="font_3_77" d="M.56199648 0V.032989503C.49798585 .032989503 .48599244 .032989503 .48599244 .07803345V.3032837C.48599244 .38737489 .44799806 .44140626 .34298707 .44140626 .24398804 .44140626 .19898987 .36935426 .18699646 .34532167H.18598938V.44140626L.040985109 .43045045V.39746095C.10899353 .39746095 .116989139 .3904419 .116989139 .3413849V.078048709C.116989139 .032989503 .10499573 .032989503 .040985109 .032989503V0C.083999637 .0029907227 .12799073 .0029907227 .15499878 .0029907227 .18399048 .0029907227 .22599793 .0029907227 .2689972 0V.032989503C.20498657 .032989503 .19299317 .032989503 .19299317 .078048709V.25927735C.19299317 .36434938 .272995 .4133911 .33399964 .4133911 .394989 .4133911 .4099884 .37036134 .4099884 .3072815V.07803345C.4099884 .032989503 .397995 .032989503 .33399964 .032989503V0C.3769989 .0029907227 .42099 .0029907227 .44799806 .0029907227 .47698976 .0029907227 .5189972 .0029907227 .56199648 0Z"/>
</defs>
<path transform="matrix(1.00002,0,0,-1.00005,12.660698,145.67034)" d="M0 0H163.88492V141.35407H0Z" fill="#fffac2"/>
<path transform="matrix(1.00002,0,0,-1.00005,12.660698,145.67034)" stroke-width=".3985" stroke-linecap="butt" stroke-miterlimit="10" stroke-linejoin="miter" fill="none" stroke="#d5d6d5" d="M32.77698 0V141.35407M65.55397 0V141.35407M98.33095 0V141.35407M131.10794 0V141.35407M163.88492 0V141.35407"/>
<path transform="matrix(1.00002,0,0,-1.00005,12.660698,145.67034)" stroke-width=".3985" stroke-linecap="butt" stroke-miterlimit="10" stroke-linejoin="miter" fill="none" stroke="#d5d6d5" d="M0 35.33852H163.88492M0 70.67703H163.88492M0 106.01555H163.88492M0 141.35407H163.88492"/>
<path transform="matrix(1.00002,0,0,-1.00005,12.660698,145.67034)" stroke-width=".19925" stroke-linecap="butt" stroke-miterlimit="10" stroke-linejoin="miter" fill="none" stroke="#929292" d="M0-1.41737V1.41739M6.55539-1.41737V1.41739M13.1108-1.41737V1.41739M19.66618-1.41737V1.41739M26.22159-1.41737V1.41739M32.77698-1.41737V1.41739M39.33238-1.41737V1.41739M45.88777-1.41737V1.41739M52.44318-1.41737V1.41739M58.99857-1.41737V1.41739M65.55397-1.41737V1.41739M72.10936-1.41737V1.41739M78.66476-1.41737V1.41739M85.22015-1.41737V1.41739M91.77556-1.41737V1.41739M98.33095-1.41737V1.41739M104.88635-1.41737V1.41739M111.44174-1.41737V1.41739M117.99715-1.41737V1.41739M124.55254-1.41737V1.41739M131.10794-1.41737V1.41739M137.66333-1.41737V1.41739M144.21874-1.41737V1.41739M150.77413-1.41737V1.41739M157.32953-1.41737V1.41739M163.88492-1.41737V1.41739"/>
<path transform="matrix(1.00002,0,0,-1.00005,12.660698,145.67034)" stroke-width=".19925" stroke-linecap="butt" stroke-miterlimit="10" stroke-linejoin="miter" fill="none" stroke="#929292" d="M32.77698-2.12589V2.12589M65.55397-2.12589V2.12589M98.33095-2.12589V2.12589M131.10794-2.12589V2.12589M163.88492-2.12589V2.12589"/>
<path transform="matrix(1.00002,0,0,-1.00005,12.660698,145.67034)" stroke-width=".19925" stroke-linecap="butt" stroke-miterlimit="10" stroke-linejoin="miter" fill="none" stroke="#929292" d="M-1.41731 0H1.41733M-1.41731 7.0677H1.41733M-1.41731 14.1354H1.41733M-1.41731 21.20311H1.41733M-1.41731 28.27081H1.41733M-1.41731 35.33852H1.41733M-1.41731 42.40622H1.41733M-1.41731 49.47392H1.41733M-1.41731 56.54163H1.41733M-1.41731 63.60933H1.41733M-1.41731 70.67703H1.41733M-1.41731 77.74474H1.41733M-1.41731 84.81244H1.41733M-1.41731 91.88014H1.41733M-1.41731 98.94785H1.41733M-1.41731 106.01555H1.41733M-1.41731 113.08325H1.41733M-1.41731 120.15096H1.41733M-1.41731 127.21866H1.41733M-1.41731 134.28636H1.41733M-1.41731 141.35407H1.41733"/>
<path transform="matrix(1.00002,0,0,-1.00005,12.660698,145.67034)" stroke-width=".19925" stroke-linecap="butt" stroke-miterlimit="10" stroke-linejoin="miter" fill="none" stroke="#929292" d="M-2.1258 35.33852H2.1258M-2.1258 70.67703H2.1258M-2.1258 106.01555H2.1258M-2.1258 141.35407H2.1258"/>
<path transform="matrix(1.00002,0,0,-1.00005,12.660698,145.67034)" stroke-width=".3985" stroke-linecap="butt" stroke-miterlimit="10" stroke-linejoin="miter" fill="none" stroke="#000000" d="M0 0H161.8924"/>
<path transform="matrix(1.00002,0,0,-1.00005,174.55634,145.67034)" d="M1.99252 0-1.19551 1.59401 0 0-1.19551-1.59401"/>
<path transform="matrix(1.00002,0,0,-1.00005,12.660698,145.67034)" stroke-width=".3985" stroke-linecap="butt" stroke-miterlimit="10" stroke-linejoin="miter" fill="none" stroke="#000000" d="M0 0V139.36154"/>
<path transform="matrix(0,-1.00005,-1.00002,-0,12.660698,6.301834)" d="M1.99252 0-1.19551 1.59401 0 0-1.19551-1.59401"/>
<use data-text="5" xlink:href="#font_1_8" transform="matrix(7.9702599,0,0,-7.970498,41.20427,155.78884)"/>
<use data-text="0" xlink:href="#font_1_3" transform="matrix(7.9702599,0,0,-7.970498,45.436479,155.78884)"/>
<use data-text="1" xlink:href="#font_1_4" transform="matrix(7.9702599,0,0,-7.970498,71.86488,155.78884)"/>
<use data-text="0" xlink:href="#font_1_3" transform="matrix(7.9702599,0,0,-7.970498,76.09709,155.78884)"/>
<use data-text="0" xlink:href="#font_1_3" transform="matrix(7.9702599,0,0,-7.970498,80.3293,155.78884)"/>
<use data-text="1" xlink:href="#font_1_4" transform="matrix(7.9702599,0,0,-7.970498,104.64254,155.78884)"/>
<use data-text="5" xlink:href="#font_1_8" transform="matrix(7.9702599,0,0,-7.970498,108.87475,155.78884)"/>
<use data-text="0" xlink:href="#font_1_3" transform="matrix(7.9702599,0,0,-7.970498,113.10696,155.78884)"/>
<use data-text="2" xlink:href="#font_1_5" transform="matrix(7.9702599,0,0,-7.970498,137.4202,155.78884)"/>
<use data-text="0" xlink:href="#font_1_3" transform="matrix(7.9702599,0,0,-7.970498,141.6524,155.78884)"/>
<use data-text="0" xlink:href="#font_1_3" transform="matrix(7.9702599,0,0,-7.970498,145.88462,155.78884)"/>
<use data-text="2" xlink:href="#font_1_5" transform="matrix(7.9702599,0,0,-7.970498,170.19785,155.78884)"/>
<use data-text="5" xlink:href="#font_1_8" transform="matrix(7.9702599,0,0,-7.970498,174.43006,155.78884)"/>
<use data-text="0" xlink:href="#font_1_3" transform="matrix(7.9702599,0,0,-7.970498,178.66226,155.78884)"/>
<use data-text="5" xlink:href="#font_1_8" transform="matrix(7.9702599,0,0,-7.970498,4.9575426,112.8987)"/>
<use data-text="1" xlink:href="#font_1_4" transform="matrix(7.9702599,0,0,-7.970498,.72345736,77.55793)"/>
<use data-text="0" xlink:href="#font_1_3" transform="matrix(7.9702599,0,0,-7.970498,4.9556658,77.55793)"/>
<use data-text="1" xlink:href="#font_1_4" transform="matrix(7.9702599,0,0,-7.970498,.72345736,42.21817)"/>
<use data-text="5" xlink:href="#font_1_8" transform="matrix(7.9702599,0,0,-7.970498,4.9556658,42.21817)"/>
<use data-text="2" xlink:href="#font_1_5" transform="matrix(7.9702599,0,0,-7.970498,.72345736,6.877411)"/>
<use data-text="0" xlink:href="#font_1_3" transform="matrix(7.9702599,0,0,-7.970498,4.9556658,6.877411)"/>
<path transform="matrix(1.00002,0,0,-1.00005,12.660698,145.67034)" stroke-width=".99628" stroke-linecap="butt" stroke-miterlimit="10" stroke-linejoin="miter" fill="none" stroke="#9e0c0f" d="M0 98.94785 6.82848 96.59196 13.65697 94.23607 20.48546 91.88019 27.31395 89.5243 34.14246 87.16841 40.97093 84.81253 47.79944 82.45665 54.62791 80.10077 61.4564 77.74487 68.28491 75.38899 75.11339 73.03311 81.9419 70.67725 88.77039 68.32132 95.59888 65.96544 102.42737 63.60957 109.25584 61.2537 116.08435 58.89781 122.91284 56.5419 129.74134 54.18602 136.56983 51.83015 143.39833 49.47426 150.2268 47.1184 157.0553 44.76248 161.15264 43.34883"/>
<path transform="matrix(.94531896,.3261463,.32613654,-.9453472,173.81656,102.31932)" d="M2.8892 0-1.73352 2.31136 0 0-1.73352-2.31136" fill="#9e0c0f"/>
<path transform="matrix(1.00002,0,0,-1.00005,12.660698,145.67034)" stroke-width=".3985" stroke-linecap="butt" stroke-miterlimit="10" stroke-linejoin="miter" fill="none" stroke="#9e0c0f" d=""/>
<use data-text="(" xlink:href="#font_1_1" transform="matrix(6.902484,-3.985249,-3.9851299,-6.9026906,25.820595,45.614248)" fill="#9e0c0f"/>
<use data-text="2" xlink:href="#font_1_5" transform="matrix(6.902484,-3.985249,-3.9851299,-6.9026906,28.671326,43.968336)" fill="#9e0c0f"/>
<use data-text="0" xlink:href="#font_1_3" transform="matrix(6.902484,-3.985249,-3.9851299,-6.9026906,32.33654,41.85216)" fill="#9e0c0f"/>
<use data-text="," xlink:href="#font_2_2" transform="matrix(6.902484,-3.985249,-3.9851299,-6.9026906,36.007043,39.732946)" fill="#9e0c0f"/>
<use data-text="1" xlink:href="#font_1_4" transform="matrix(6.902484,-3.985249,-3.9851299,-6.9026906,39.266855,37.850858)" fill="#9e0c0f"/>
<use data-text="3" xlink:href="#font_1_6" transform="matrix(6.902484,-3.985249,-3.9851299,-6.9026906,42.93206,35.734685)" fill="#9e0c0f"/>
<use data-text="." xlink:href="#font_2_1" transform="matrix(6.902484,-3.985249,-3.9851299,-6.9026906,46.600534,33.616643)" fill="#9e0c0f"/>
<use data-text="3" xlink:href="#font_1_6" transform="matrix(6.902484,-3.985249,-3.9851299,-6.9026906,48.637475,32.440587)" fill="#9e0c0f"/>
<use data-text="6" xlink:href="#font_1_9" transform="matrix(6.902484,-3.985249,-3.9851299,-6.9026906,52.302698,30.32442)" fill="#9e0c0f"/>
<use data-text=")" xlink:href="#font_1_2" transform="matrix(6.902484,-3.985249,-3.9851299,-6.9026906,55.96792,28.208256)" fill="#9e0c0f"/>
<path transform="matrix(1.00002,0,0,-1.00005,12.660698,145.67034)" stroke-width=".3985" stroke-linecap="butt" stroke-miterlimit="10" stroke-linejoin="miter" fill="none" stroke="#9e0c0f" d=""/>
<use data-text="(" xlink:href="#font_1_1" transform="matrix(6.902484,-3.985249,-3.9851299,-6.9026906,45.486986,52.399587)" fill="#9e0c0f"/>
<use data-text="5" xlink:href="#font_1_8" transform="matrix(6.902484,-3.985249,-3.9851299,-6.9026906,48.337717,50.753675)" fill="#9e0c0f"/>
<use data-text="0" xlink:href="#font_1_3" transform="matrix(6.902484,-3.985249,-3.9851299,-6.9026906,52.00293,48.6375)" fill="#9e0c0f"/>
<use data-text="," xlink:href="#font_2_2" transform="matrix(6.902484,-3.985249,-3.9851299,-6.9026906,55.67343,46.518285)" fill="#9e0c0f"/>
<use data-text="1" xlink:href="#font_1_4" transform="matrix(6.902484,-3.985249,-3.9851299,-6.9026906,58.933244,44.636198)" fill="#9e0c0f"/>
<use data-text="2" xlink:href="#font_1_5" transform="matrix(6.902484,-3.985249,-3.9851299,-6.9026906,62.59845,42.520025)" fill="#9e0c0f"/>
<use data-text="." xlink:href="#font_2_1" transform="matrix(6.902484,-3.985249,-3.9851299,-6.9026906,66.26692,40.40198)" fill="#9e0c0f"/>
<use data-text="4" xlink:href="#font_1_7" transform="matrix(6.902484,-3.985249,-3.9851299,-6.9026906,68.30386,39.225927)" fill="#9e0c0f"/>
<use data-text=")" xlink:href="#font_1_2" transform="matrix(6.902484,-3.985249,-3.9851299,-6.9026906,71.969089,37.10976)" fill="#9e0c0f"/>
<path transform="matrix(1.00002,0,0,-1.00005,12.660698,145.67034)" stroke-width=".3985" stroke-linecap="butt" stroke-miterlimit="10" stroke-linejoin="miter" fill="none" stroke="#9e0c0f" d=""/>
<use data-text="(" xlink:href="#font_1_1" transform="matrix(6.902484,-3.985249,-3.9851299,-6.9026906,65.15338,59.184926)" fill="#9e0c0f"/>
<use data-text="8" xlink:href="#font_1_11" transform="matrix(6.902484,-3.985249,-3.9851299,-6.9026906,68.00411,57.539014)" fill="#9e0c0f"/>
<use data-text="0" xlink:href="#font_1_3" transform="matrix(6.902484,-3.985249,-3.9851299,-6.9026906,71.66933,55.42284)" fill="#9e0c0f"/>
<use data-text="," xlink:href="#font_2_2" transform="matrix(6.902484,-3.985249,-3.9851299,-6.9026906,75.33983,53.303625)" fill="#9e0c0f"/>
<use data-text="1" xlink:href="#font_1_4" transform="matrix(6.902484,-3.985249,-3.9851299,-6.9026906,78.59964,51.421537)" fill="#9e0c0f"/>
<use data-text="1" xlink:href="#font_1_4" transform="matrix(6.902484,-3.985249,-3.9851299,-6.9026906,82.26485,49.305364)" fill="#9e0c0f"/>
<use data-text="." xlink:href="#font_2_1" transform="matrix(6.902484,-3.985249,-3.9851299,-6.9026906,85.93332,47.18732)" fill="#9e0c0f"/>
<use data-text="4" xlink:href="#font_1_7" transform="matrix(6.902484,-3.985249,-3.9851299,-6.9026906,87.97026,46.011266)" fill="#9e0c0f"/>
<use data-text="4" xlink:href="#font_1_7" transform="matrix(6.902484,-3.985249,-3.9851299,-6.9026906,91.63548,43.8951)" fill="#9e0c0f"/>
<use data-text=")" xlink:href="#font_1_2" transform="matrix(6.902484,-3.985249,-3.9851299,-6.9026906,95.300708,41.778936)" fill="#9e0c0f"/>
<path transform="matrix(1.00002,0,0,-1.00005,12.660698,145.67034)" stroke-width=".3985" stroke-linecap="butt" stroke-miterlimit="10" stroke-linejoin="miter" fill="none" stroke="#9e0c0f" d=""/>
<use data-text="(" xlink:href="#font_1_1" transform="matrix(6.902484,-3.985249,-3.9851299,-6.9026906,78.26465,63.70815)" fill="#9e0c0f"/>
<use data-text="1" xlink:href="#font_1_4" transform="matrix(6.902484,-3.985249,-3.9851299,-6.9026906,81.11537,62.062238)" fill="#9e0c0f"/>
<use data-text="0" xlink:href="#font_1_3" transform="matrix(6.902484,-3.985249,-3.9851299,-6.9026906,84.780597,59.946065)" fill="#9e0c0f"/>
<use data-text="0" xlink:href="#font_1_3" transform="matrix(6.902484,-3.985249,-3.9851299,-6.9026906,88.445819,57.8299)" fill="#9e0c0f"/>
<use data-text="," xlink:href="#font_2_2" transform="matrix(6.902484,-3.985249,-3.9851299,-6.9026906,92.117938,55.709745)" fill="#9e0c0f"/>
<use data-text="1" xlink:href="#font_1_4" transform="matrix(6.902484,-3.985249,-3.9851299,-6.9026906,95.37775,53.827657)" fill="#9e0c0f"/>
<use data-text="0" xlink:href="#font_1_3" transform="matrix(6.902484,-3.985249,-3.9851299,-6.9026906,99.04297,51.711484)" fill="#9e0c0f"/>
<use data-text="." xlink:href="#font_2_1" transform="matrix(6.902484,-3.985249,-3.9851299,-6.9026906,102.71144,49.59344)" fill="#9e0c0f"/>
<use data-text="8" xlink:href="#font_1_11" transform="matrix(6.902484,-3.985249,-3.9851299,-6.9026906,104.74837,48.417379)" fill="#9e0c0f"/>
<use data-text=")" xlink:href="#font_1_2" transform="matrix(6.902484,-3.985249,-3.9851299,-6.9026906,108.41359,46.301214)" fill="#9e0c0f"/>
<path transform="matrix(1.00002,0,0,-1.00005,12.660698,145.67034)" stroke-width=".3985" stroke-linecap="butt" stroke-miterlimit="10" stroke-linejoin="miter" fill="none" stroke="#9e0c0f" d=""/>
<use data-text="(" xlink:href="#font_1_1" transform="matrix(6.902484,-3.985249,-3.9851299,-6.9026906,143.81996,86.32628)" fill="#9e0c0f"/>
<use data-text="2" xlink:href="#font_1_5" transform="matrix(6.902484,-3.985249,-3.9851299,-6.9026906,146.67069,84.680377)" fill="#9e0c0f"/>
<use data-text="0" xlink:href="#font_1_3" transform="matrix(6.902484,-3.985249,-3.9851299,-6.9026906,150.3359,82.56419)" fill="#9e0c0f"/>
<use data-text="0" xlink:href="#font_1_3" transform="matrix(6.902484,-3.985249,-3.9851299,-6.9026906,154.00113,80.44803)" fill="#9e0c0f"/>
<use data-text="," xlink:href="#font_2_2" transform="matrix(6.902484,-3.985249,-3.9851299,-6.9026906,157.67325,78.32788)" fill="#9e0c0f"/>
<use data-text="7" xlink:href="#font_1_10" transform="matrix(6.902484,-3.985249,-3.9851299,-6.9026906,160.93306,76.445789)" fill="#9e0c0f"/>
<use data-text="." xlink:href="#font_2_1" transform="matrix(6.902484,-3.985249,-3.9851299,-6.9026906,164.5999,74.328678)" fill="#9e0c0f"/>
<use data-text="6" xlink:href="#font_1_9" transform="matrix(6.902484,-3.985249,-3.9851299,-6.9026906,166.63684,73.15262)" fill="#9e0c0f"/>
<use data-text=")" xlink:href="#font_1_2" transform="matrix(6.902484,-3.985249,-3.9851299,-6.9026906,170.30207,71.03645)" fill="#9e0c0f"/>
<path transform="matrix(1.00002,0,0,-1.00005,12.660698,145.67034)" d="M15.10335 94.42451C15.10335 95.52498 14.21126 96.41707 13.1108 96.41707 12.01031 96.41707 11.11824 95.52498 11.11824 94.42451 11.11824 93.32404 12.01031 92.43196 13.1108 92.43196 14.21126 92.43196 15.10335 93.32404 15.10335 94.42451ZM13.1108 94.42451" fill="#9e0c0f"/>
<path transform="matrix(1.00002,0,0,-1.00005,12.660698,145.67034)" stroke-width=".3985" stroke-linecap="butt" stroke-miterlimit="10" stroke-linejoin="miter" fill="none" stroke="#9e0c0f" d="M15.10335 94.42451C15.10335 95.52498 14.21126 96.41707 13.1108 96.41707 12.01031 96.41707 11.11824 95.52498 11.11824 94.42451 11.11824 93.32404 12.01031 92.43196 13.1108 92.43196 14.21126 92.43196 15.10335 93.32404 15.10335 94.42451ZM13.1108 94.42451"/>
<path transform="matrix(1.00002,0,0,-1.00005,12.660698,145.67034)" stroke-width=".3985" stroke-linecap="butt" stroke-miterlimit="10" stroke-linejoin="miter" fill="none" stroke="#9e0c0f" d=""/>
<path transform="matrix(1.00002,0,0,-1.00005,12.660698,145.67034)" d="M34.76953 87.63953C34.76953 88.73999 33.87746 89.63208 32.77698 89.63208 31.67651 89.63208 30.78442 88.73999 30.78442 87.63953 30.78442 86.53905 31.67651 85.64697 32.77698 85.64697 33.87746 85.64697 34.76953 86.53905 34.76953 87.63953ZM32.77698 87.63953" fill="#9e0c0f"/>
<path transform="matrix(1.00002,0,0,-1.00005,12.660698,145.67034)" stroke-width=".3985" stroke-linecap="butt" stroke-miterlimit="10" stroke-linejoin="miter" fill="none" stroke="#9e0c0f" d="M34.76953 87.63953C34.76953 88.73999 33.87746 89.63208 32.77698 89.63208 31.67651 89.63208 30.78442 88.73999 30.78442 87.63953 30.78442 86.53905 31.67651 85.64697 32.77698 85.64697 33.87746 85.64697 34.76953 86.53905 34.76953 87.63953ZM32.77698 87.63953"/>
<path transform="matrix(1.00002,0,0,-1.00005,12.660698,145.67034)" stroke-width=".3985" stroke-linecap="butt" stroke-miterlimit="10" stroke-linejoin="miter" fill="none" stroke="#9e0c0f" d=""/>
<path transform="matrix(1.00002,0,0,-1.00005,12.660698,145.67034)" d="M54.43573 80.8545C54.43573 81.95499 53.54364 82.84706 52.44318 82.84706 51.3427 82.84706 50.45062 81.95499 50.45062 80.8545 50.45062 79.75404 51.3427 78.86195 52.44318 78.86195 53.54364 78.86195 54.43573 79.75404 54.43573 80.8545ZM52.44318 80.8545" fill="#9e0c0f"/>
<path transform="matrix(1.00002,0,0,-1.00005,12.660698,145.67034)" stroke-width=".3985" stroke-linecap="butt" stroke-miterlimit="10" stroke-linejoin="miter" fill="none" stroke="#9e0c0f" d="M54.43573 80.8545C54.43573 81.95499 53.54364 82.84706 52.44318 82.84706 51.3427 82.84706 50.45062 81.95499 50.45062 80.8545 50.45062 79.75404 51.3427 78.86195 52.44318 78.86195 53.54364 78.86195 54.43573 79.75404 54.43573 80.8545ZM52.44318 80.8545"/>
<path transform="matrix(1.00002,0,0,-1.00005,12.660698,145.67034)" stroke-width=".3985" stroke-linecap="butt" stroke-miterlimit="10" stroke-linejoin="miter" fill="none" stroke="#9e0c0f" d=""/>
<path transform="matrix(1.00002,0,0,-1.00005,12.660698,145.67034)" d="M67.54652 76.33119C67.54652 77.43167 66.65443 78.32375 65.55397 78.32375 64.45349 78.32375 63.56142 77.43167 63.56142 76.33119 63.56142 75.23073 64.45349 74.33864 65.55397 74.33864 66.65443 74.33864 67.54652 75.23073 67.54652 76.33119ZM65.55397 76.33119" fill="#9e0c0f"/>
<path transform="matrix(1.00002,0,0,-1.00005,12.660698,145.67034)" stroke-width=".3985" stroke-linecap="butt" stroke-miterlimit="10" stroke-linejoin="miter" fill="none" stroke="#9e0c0f" d="M67.54652 76.33119C67.54652 77.43167 66.65443 78.32375 65.55397 78.32375 64.45349 78.32375 63.56142 77.43167 63.56142 76.33119 63.56142 75.23073 64.45349 74.33864 65.55397 74.33864 66.65443 74.33864 67.54652 75.23073 67.54652 76.33119ZM65.55397 76.33119"/>
<path transform="matrix(1.00002,0,0,-1.00005,12.660698,145.67034)" stroke-width=".3985" stroke-linecap="butt" stroke-miterlimit="10" stroke-linejoin="miter" fill="none" stroke="#9e0c0f" d=""/>
<path transform="matrix(1.00002,0,0,-1.00005,12.660698,145.67034)" d="M133.1005 53.71454C133.1005 54.81502 132.2084 55.70709 131.10794 55.70709 130.00746 55.70709 129.11539 54.81502 129.11539 53.71454 129.11539 52.61407 130.00746 51.72198 131.10794 51.72198 132.2084 51.72198 133.1005 52.61407 133.1005 53.71454ZM131.10794 53.71454" fill="#9e0c0f"/>
<path transform="matrix(1.00002,0,0,-1.00005,12.660698,145.67034)" stroke-width=".3985" stroke-linecap="butt" stroke-miterlimit="10" stroke-linejoin="miter" fill="none" stroke="#9e0c0f" d="M133.1005 53.71454C133.1005 54.81502 132.2084 55.70709 131.10794 55.70709 130.00746 55.70709 129.11539 54.81502 129.11539 53.71454 129.11539 52.61407 130.00746 51.72198 131.10794 51.72198 132.2084 51.72198 133.1005 52.61407 133.1005 53.71454ZM131.10794 53.71454"/>
<path transform="matrix(1.00002,0,0,-1.00005,12.660698,145.67034)" stroke-width=".3985" stroke-linecap="butt" stroke-miterlimit="10" stroke-linejoin="miter" fill="none" stroke="#9e0c0f" d=""/>
<use data-text="x" xlink:href="#font_2_3" transform="matrix(7.9702599,0,0,-7.970498,140.66327,140.8221)"/>
<use data-text="(" xlink:href="#font_3_85" transform="matrix(7.9702599,0,0,-7.970498,148.25241,140.8221)"/>
<use data-text="m" xlink:href="#font_3_75" transform="matrix(7.9702599,0,0,-7.970498,151.54413,140.8221)"/>
<use data-text="i" xlink:href="#font_3_66" transform="matrix(7.9702599,0,0,-7.970498,158.59781,140.8221)"/>
<use data-text="l" xlink:href="#font_3_72" transform="matrix(7.9702599,0,0,-7.970498,160.94904,140.8221)"/>
<use data-text="e" xlink:href="#font_3_50" transform="matrix(7.9702599,0,0,-7.970498,163.30027,140.8221)"/>
<use data-text="s" xlink:href="#font_3_98" transform="matrix(7.9702599,0,0,-7.970498,167.06223,140.8221)"/>
<use data-text=")" xlink:href="#font_3_86" transform="matrix(7.9702599,0,0,-7.970498,170.40177,140.8221)"/>
<use data-text="y" xlink:href="#font_2_4" transform="matrix(7.9702599,0,0,-7.970498,15.516754,13.142715)"/>
<use data-text="(" xlink:href="#font_3_85" transform="matrix(7.9702599,0,0,-7.970498,22.809899,13.142715)"/>
<use data-text="g" xlink:href="#font_3_59" transform="matrix(7.9702599,0,0,-7.970498,26.101616,13.142715)"/>
<use data-text="a" xlink:href="#font_3_28" transform="matrix(7.9702599,0,0,-7.970498,30.333825,13.142715)"/>
<use data-text="l" xlink:href="#font_3_72" transform="matrix(7.9702599,0,0,-7.970498,34.566034,13.142715)"/>
<use data-text="l" xlink:href="#font_3_72" transform="matrix(7.9702599,0,0,-7.970498,36.91726,13.142715)"/>
<use data-text="o" xlink:href="#font_3_81" transform="matrix(7.9702599,0,0,-7.970498,39.268495,13.142715)"/>
<use data-text="n" xlink:href="#font_3_77" transform="matrix(7.9702599,0,0,-7.970498,43.5007,13.142715)"/>
<use data-text="s" xlink:href="#font_3_98" transform="matrix(7.9702599,0,0,-7.970498,48.203157,13.142715)"/>
<use data-text=")" xlink:href="#font_3_86" transform="matrix(7.9702599,0,0,-7.970498,51.542695,13.142715)"/>
</svg>
