<svg xmlns="http://www.w3.org/2000/svg" xmlns:xlink="http://www.w3.org/1999/xlink" version="1.1" width="167" height="145" viewBox="0 0 167 145">
<defs>
<path id="font_1_1" d="M.69898989 .22743225C.71499636 .22743225 .7369995 .22743225 .7369995 .25042726 .7369995 .2734375 .71499636 .2734375 .69898989 .2734375H.12599182C.10998535 .2734375 .08799744 .2734375 .08799744 .25042726 .08799744 .22743225 .10998535 .22743225 .12599182 .22743225H.69898989Z"/>
<path id="font_2_3" d="M.13798523 .33073426C.13798523 .41377259 .14498902 .4868164 .18099976 .54782107 .21099854 .5978241 .2619934 .6390381 .32499696 .6390381 .34498597 .6390381 .3909912 .63601687 .4139862 .60084536 .36898805 .5988312 .36499024 .5648346 .36499024 .553833 .36499024 .5238342 .3880005 .50683596 .4119873 .50683596 .42999269 .50683596 .45899964 .51782229 .45899964 .5558319 .45899964 .615921 .4139862 .66503909 .32398988 .66503909 .18499756 .66503909 .04399109 .53282168 .04399109 .31672669 .04399109 .045532228 .16999817-.021484375 .2669983-.021484375 .31498719-.021484375 .36698915-.0084991459 .4119873 .03453064 .45199586 .07354736 .48599244 .11558533 .48599244 .20263672 .48599244 .33372499 .3869934 .42578126 .27598573 .42578126 .20399475 .42578126 .16099549 .37976075 .13798523 .33073426M.2669983 .008514404C.21398926 .008514404 .18099976 .045532228 .1659851 .07354736 .14299011 .11859131 .14099121 .18663025 .14099121 .22465515 .14099121 .32373048 .19499207 .3977661 .27198792 .3977661 .32199098 .3977661 .35198976 .37176515 .37098695 .33673097 .3919983 .29971314 .3919983 .25468446 .3919983 .2036438 .3919983 .15260315 .3919983 .10858154 .37199403 .07255554 .34599305 .026519776 .31098939 .008514404 .2669983 .008514404Z"/>
<path id="font_2_2" d="M.3939972 .6468048C.3939972 .6667938 .3939972 .6748047 .37298585 .6748047 .3600006 .6748047 .35899354 .6737976 .34899903 .65979006L.02999878 .197052V.1640625H.31199647V.08100891C.31199647 .04399109 .30899049 .032989503 .23199463 .032989503H.20899964V0C.2939911 .0029907227 .29599 .0029907227 .35299684 .0029907227 .4099884 .0029907227 .4119873 .0029907227 .49699403 0V.032989503H.47399903C.39698792 .032989503 .3939972 .04399109 .3939972 .08100891V.1640625H.5V.197052H.3939972V.6468048M.31900025 .5658417V.197052H.06498718L.31900025 .5658417Z"/>
<path id="font_2_1" d="M.28199769 .20405579C.2979889 .21907044 .33999635 .2520752 .35598756 .26608277 .41799928 .32312013 .47698976 .3781433 .47698976 .46917726 .47698976 .588089 .3769989 .66503909 .2519989 .66503909 .13198853 .66503909 .052993776 .57411196 .052993776 .48516847 .052993776 .4361725 .09199524 .4291687 .10598755 .4291687 .1269989 .4291687 .1579895 .4441681 .1579895 .48217774 .1579895 .5341797 .10798645 .5341797 .09599304 .5341797 .125 .6070709 .19198609 .6320343 .24099732 .6320343 .33399964 .6320343 .38198854 .55314639 .38198854 .46917726 .38198854 .36514283 .30899049 .28910829 .19099427 .16804505L.06498718 .037994386C.052993776 .026992798 .052993776 .024993897 .052993776 0H.44799806L.47698976 .17904663H.44599916C.44299317 .1590271 .43499757 .10900879 .4229889 .08999634 .4169922 .08198547 .34098817 .08198547 .32499696 .08198547H.14698792L.28199769 .20405579Z"/>
<clipPath id="clip_3">
<path transform="matrix(1,0,0,-1.00005,1.4610005,143.16414)" d="M0 0H163.87732V141.36016H0Z"/>
</clipPath>
<path id="font_4_1" d="M.33399964 .30233766C.33999635 .32835389 .36299134 .42037965 .43299867 .42037965 .43798829 .42037965 .46199037 .42037965 .48298646 .40734864 .45498658 .402359 .43499757 .37734986 .43499757 .35334779 .43499757 .33735658 .44599916 .31835938 .47299195 .31835938 .49499513 .31835938 .5269928 .3363495 .5269928 .37635804 .5269928 .42837525 .46798707 .4423828 .43399049 .4423828 .37599183 .4423828 .34098817 .38935853 .32899476 .36634828 .3039856 .43237306 .25 .4423828 .22099304 .4423828 .116989139 .4423828 .05999756 .3133545 .05999756 .28834535 .05999756 .27833558 .069992069 .27833558 .07199097 .27833558 .07998657 .27833558 .08299255 .28033448 .084991458 .28933717 .11898804 .39535523 .18499756 .42037965 .21899414 .42037965 .23799134 .42037965 .272995 .4113617 .272995 .35334779 .272995 .32235719 .2559967 .25532533 .21899414 .11528015 .20298767 .053268434 .16799927 .011245728 .12399292 .011245728 .117996219 .011245728 .09498596 .011245728 .07398987 .024276734 .09899902 .029266358 .12098694 .05027771 .12098694 .07827759 .12098694 .105270389 .09899902 .11328125 .083999637 .11328125 .053985597 .11328125 .0289917 .08728027 .0289917 .055267335 .0289917 .009246826 .07899475-.0107421879 .12298584-.0107421879 .18899536-.0107421879 .22499085 .059280397 .22799683 .0652771 .23999024 .028274537 .27598573-.0107421879 .33599855-.0107421879 .43899537-.0107421879 .49598695 .118270877 .49598695 .14328003 .49598695 .1532898 .4869995 .1532898 .48399354 .1532898 .47499085 .1532898 .47299195 .14929199 .47099305 .14228821 .43798829 .03527832 .36999513 .011245728 .33799745 .011245728 .29899598 .011245728 .2829895 .043273927 .2829895 .07727051 .2829895 .09927368 .2889862 .121276859 .2999878 .16529846L.33399964 .30233766Z"/>
<path id="font_4_2" d="M.48599244 .38136292C.48999024 .39537049 .48999024 .39736939 .48999024 .40437318 .48999024 .42237855 .47599793 .43138124 .46099855 .43138124 .45098878 .43138124 .43499757 .42536927 .42599488 .41036988 .42399598 .405365 .41600038 .37435914 .4119873 .35635377 .40499879 .33035279 .397995 .30334474 .3919983 .27633668L.34700013 .09628296C.34298707 .08126831 .2999878 .011245728 .23399353 .011245728 .18299866 .011245728 .17199707 .055267335 .17199707 .0922699 .17199707 .1382904 .18899536 .20030213 .22299195 .28833009 .23899842 .3293457 .24299622 .3403473 .24299622 .36035157 .24299622 .405365 .21099854 .4423828 .16099549 .4423828 .06599426 .4423828 .0289917 .29733277 .0289917 .28833009 .0289917 .27833558 .038986207 .27833558 .040985109 .27833558 .050994874 .27833558 .051986696 .28033448 .056991579 .29634095 .083999637 .3903656 .12399292 .42037965 .1579895 .42037965 .1659851 .42037965 .18299866 .42037965 .18299866 .3883667 .18299866 .36335755 .17298889 .3373413 .1659851 .31834413 .12599182 .21231079 .10798645 .1552887 .10798645 .10827637 .10798645 .019256592 .17098999-.0107421879 .22999573-.0107421879 .2689972-.0107421879 .30299378 .0062561037 .33099366 .03425598 .31799317-.017745972 .30599977-.06674194 .2659912-.11973572 .23999024-.15385437 .20199585-.18309021 .1559906-.18309021 .14199829-.18309021 .09700012-.18005371 .07998657-.14074707 .09599304-.14074707 .10899353-.14074707 .12298584-.1287384 .1329956-.11973572 .14299011-.10673523 .14299011-.08773804 .14299011-.056747438 .115997318-.052734376 .10598755-.052734376 .08299255-.052734376 .049987794-.068740848 .049987794-.11773682 .049987794-.16796875 .09399414-.20507813 .1559906-.20507813 .25898744-.20507813 .3619995-.11373901 .3899994-.00074768069L.48599244 .38136292Z"/>
</defs>
<path transform="matrix(1,0,0,-1.00005,1.4610005,143.16414)" d="M0 0H163.87732V141.36016H0Z" fill="#fffac2"/>
<path transform="matrix(1,0,0,-1.00005,1.4610005,143.16414)" stroke-width=".3985" stroke-linecap="butt" stroke-miterlimit="10" stroke-linejoin="miter" fill="none" stroke="#d5d6d5" d="M0 0V141.36016M11.70552 0V141.36016M23.41104 0V141.36016M35.11656 0V141.36016M46.82208 0V141.36016M58.5276 0V141.36016M70.23314 0V141.36016M81.93866 0V141.36016M93.64418 0V141.36016M105.3497 0V141.36016M117.05522 0V141.36016M128.76074 0V141.36016M140.46628 0V141.36016M152.1718 0V141.36016M163.87732 0V141.36016"/>
<path transform="matrix(1,0,0,-1.00005,1.4610005,143.16414)" stroke-width=".3985" stroke-linecap="butt" stroke-miterlimit="10" stroke-linejoin="miter" fill="none" stroke="#d5d6d5" d="M11.70552 0V141.36016M35.11656 0V141.36016M58.5276 0V141.36016M105.3497 0V141.36016M128.76074 0V141.36016M152.1718 0V141.36016"/>
<path transform="matrix(1,0,0,-1.00005,1.4610005,143.16414)" stroke-width=".3985" stroke-linecap="butt" stroke-miterlimit="10" stroke-linejoin="miter" fill="none" stroke="#d5d6d5" d="M0 0H163.87732M0 10.09715H163.87732M0 20.1943H163.87732M0 30.29146H163.87732M0 40.38861H163.87732M0 50.48576H163.87732M0 60.58292H163.87732M0 70.68007H163.87732M0 80.77722H163.87732M0 90.87437H163.87732M0 100.97153H163.87732M0 111.06868H163.87732M0 121.16585H163.87732M0 131.263H163.87732M0 141.36016H163.87732"/>
<path transform="matrix(1,0,0,-1.00005,1.4610005,143.16414)" stroke-width=".3985" stroke-linecap="butt" stroke-miterlimit="10" stroke-linejoin="miter" fill="none" stroke="#d5d6d5" d="M0 10.09715H163.87732M0 30.29146H163.87732M0 50.48576H163.87732M0 90.87437H163.87732M0 111.06868H163.87732M0 131.263H163.87732"/>
<path transform="matrix(1,0,0,-1.00005,1.4610005,143.16414)" stroke-width=".19925" stroke-linecap="butt" stroke-miterlimit="10" stroke-linejoin="miter" fill="none" stroke="#929292" d="M0 69.26266V72.09747M11.70552 69.26266V72.09747M23.41104 69.26266V72.09747M35.11656 69.26266V72.09747M46.82208 69.26266V72.09747M58.5276 69.26266V72.09747M70.23314 69.26266V72.09747M81.93866 69.26266V72.09747M93.64418 69.26266V72.09747M105.3497 69.26266V72.09747M117.05522 69.26266V72.09747M128.76074 69.26266V72.09747M140.46628 69.26266V72.09747M152.1718 69.26266V72.09747M163.87732 69.26266V72.09747"/>
<path transform="matrix(1,0,0,-1.00005,1.4610005,143.16414)" stroke-width=".19925" stroke-linecap="butt" stroke-miterlimit="10" stroke-linejoin="miter" fill="none" stroke="#929292" d="M11.70552 68.5542V72.80592M35.11656 68.5542V72.80592M58.5276 68.5542V72.80592M105.3497 68.5542V72.80592M128.76074 68.5542V72.80592M152.1718 68.5542V72.80592"/>
<path transform="matrix(1,0,0,-1.00005,1.4610005,143.16414)" stroke-width=".19925" stroke-linecap="butt" stroke-miterlimit="10" stroke-linejoin="miter" fill="none" stroke="#929292" d="M80.52133 0H83.35599M80.52133 10.09715H83.35599M80.52133 20.1943H83.35599M80.52133 30.29146H83.35599M80.52133 40.38861H83.35599M80.52133 50.48576H83.35599M80.52133 60.58292H83.35599M80.52133 70.68007H83.35599M80.52133 80.77722H83.35599M80.52133 90.87437H83.35599M80.52133 100.97153H83.35599M80.52133 111.06868H83.35599M80.52133 121.16585H83.35599M80.52133 131.263H83.35599M80.52133 141.36016H83.35599"/>
<path transform="matrix(1,0,0,-1.00005,1.4610005,143.16414)" stroke-width=".19925" stroke-linecap="butt" stroke-miterlimit="10" stroke-linejoin="miter" fill="none" stroke="#929292" d="M79.81287 10.09715H84.06442M79.81287 30.29146H84.06442M79.81287 50.48576H84.06442M79.81287 90.87437H84.06442M79.81287 111.06868H84.06442M79.81287 131.263H84.06442"/>
<path transform="matrix(1,0,0,-1.00005,1.4610005,143.16414)" stroke-width=".3985" stroke-linecap="butt" stroke-miterlimit="10" stroke-linejoin="miter" fill="none" stroke="#000000" d="M1.99252 70.68007H161.8848"/>
<path transform="matrix(-1,-0,0,1.00005,3.4535204,72.48054)" d="M1.99252 0-1.19551 1.59401 0 0-1.19551-1.59401"/>
<path transform="matrix(1,0,0,-1.00005,163.3458,72.48054)" d="M1.99252 0-1.19551 1.59401 0 0-1.19551-1.59401"/>
<path transform="matrix(1,0,0,-1.00005,1.4610005,143.16414)" stroke-width=".3985" stroke-linecap="butt" stroke-miterlimit="10" stroke-linejoin="miter" fill="none" stroke="#000000" d="M81.93866 1.99252V139.36763"/>
<path transform="matrix(0,1.00005,1,0,83.39966,141.17153)" d="M1.99252 0-1.19551 1.59401 0 0-1.19551-1.59401"/>
<path transform="matrix(0,-1.00005,-1,-0,83.39966,3.7895509)" d="M1.99252 0-1.19551 1.59401 0 0-1.19551-1.59401"/>
<use data-text="&#x2212;" xlink:href="#font_1_1" transform="matrix(7.9701,0,0,-7.970498,7.7560007,83.26315)"/>
<use data-text="6" xlink:href="#font_2_3" transform="matrix(7.9701,0,0,-7.970498,14.343,83.26315)"/>
<use data-text="&#x2212;" xlink:href="#font_1_1" transform="matrix(7.9701,0,0,-7.970498,31.167,83.26315)"/>
<use data-text="4" xlink:href="#font_2_2" transform="matrix(7.9701,0,0,-7.970498,37.753999,83.26315)"/>
<use data-text="&#x2212;" xlink:href="#font_1_1" transform="matrix(7.9701,0,0,-7.970498,54.578,83.26315)"/>
<use data-text="2" xlink:href="#font_2_1" transform="matrix(7.9701,0,0,-7.970498,61.165,83.26315)"/>
<use data-text="2" xlink:href="#font_2_1" transform="matrix(7.9701,0,0,-7.970498,104.694,83.26315)"/>
<use data-text="4" xlink:href="#font_2_2" transform="matrix(7.9701,0,0,-7.970498,128.105,83.26315)"/>
<use data-text="6" xlink:href="#font_2_3" transform="matrix(7.9701,0,0,-7.970498,151.51599,83.26315)"/>
<use data-text="&#x2212;" xlink:href="#font_1_1" transform="matrix(7.9701,0,0,-7.970498,68.824008,135.21974)"/>
<use data-text="6" xlink:href="#font_2_3" transform="matrix(7.9701,0,0,-7.970498,75.411,135.21974)"/>
<use data-text="&#x2212;" xlink:href="#font_1_1" transform="matrix(7.9701,0,0,-7.970498,68.824008,115.024738)"/>
<use data-text="4" xlink:href="#font_2_2" transform="matrix(7.9701,0,0,-7.970498,75.411,115.024738)"/>
<use data-text="&#x2212;" xlink:href="#font_1_1" transform="matrix(7.9701,0,0,-7.970498,68.824008,94.82872)"/>
<use data-text="2" xlink:href="#font_2_1" transform="matrix(7.9701,0,0,-7.970498,75.411,94.82872)"/>
<use data-text="2" xlink:href="#font_2_1" transform="matrix(7.9701,0,0,-7.970498,75.410999,54.85373)"/>
<use data-text="4" xlink:href="#font_2_2" transform="matrix(7.9701,0,0,-7.970498,75.410999,34.65773)"/>
<use data-text="6" xlink:href="#font_2_3" transform="matrix(7.9701,0,0,-7.970498,75.410999,14.4627079)"/>
<g clip-path="url(#clip_3)">
<path transform="matrix(1,0,0,-1.00005,1.4610005,143.16414)" stroke-width=".99628" stroke-linecap="butt" stroke-miterlimit="10" stroke-linejoin="miter" fill="none" stroke="#929292" d="M128.76074 70.68007H140.46628V98.08232"/>
<path transform="matrix(0,-1.00005,-1,-0,141.92728,45.07692)" d="M2.8892 0-1.73352 2.31136 0 0-1.73352-2.31136" fill="#929292"/>
<path transform="matrix(1,0,0,-1.00005,1.4610005,143.16414)" stroke-width=".99628" stroke-linecap="butt" stroke-miterlimit="10" stroke-linejoin="miter" fill="none" stroke="#929292" d="M81.93866 70.68007H93.64418V98.08232"/>
<path transform="matrix(0,-1.00005,-1,-0,95.10518,45.07692)" d="M2.8892 0-1.73352 2.31136 0 0-1.73352-2.31136" fill="#929292"/>
<path transform="matrix(1,0,0,-1.00005,1.4610005,143.16414)" stroke-width=".99628" stroke-linecap="butt" stroke-miterlimit="10" stroke-linejoin="miter" fill="none" stroke="#929292" d="M70.23314 70.68007H58.5276V98.08232"/>
<path transform="matrix(0,-1.00005,-1,-0,59.9886,45.07692)" d="M2.8892 0-1.73352 2.31136 0 0-1.73352-2.31136" fill="#929292"/>
<path transform="matrix(1,0,0,-1.00005,1.4610005,143.16414)" stroke-width=".99628" stroke-linecap="butt" stroke-miterlimit="10" stroke-linejoin="miter" fill="none" stroke="#929292" d="M23.41104 70.68007H11.70552V98.08232"/>
<path transform="matrix(0,-1.00005,-1,-0,13.16652,45.07692)" d="M2.8892 0-1.73352 2.31136 0 0-1.73352-2.31136" fill="#929292"/>
<path transform="matrix(1,0,0,-1.00005,1.4610005,143.16414)" stroke-width=".99628" stroke-linecap="butt" stroke-miterlimit="10" stroke-linejoin="miter" fill="none" stroke="#9e0c0f" d="M8.26201 100.97153H6.82817 13.65636 20.48454 27.31271 34.1409 40.96909 47.79726 54.62544 61.45363 68.2818 75.10999 81.93817 88.76636 95.59453 102.42271 109.2509 116.07907 122.90727 129.73546 136.56363 143.3918 150.21999 157.04817 155.61434"/>
<path transform="matrix(-1,-0,0,1.00005,10.42749,42.18757)" d="M7.39124 0 2.37614 1.6717 .70447 0 2.37614-1.6717Z" fill="#9e0c0f"/>
<path transform="matrix(-1,-0,0,1.00005,10.42749,42.18757)" stroke-width=".99628" stroke-linecap="butt" stroke-miterlimit="10" stroke-linejoin="miter" fill="none" stroke="#9e0c0f" d="M7.39124 0 2.37614 1.6717 .70447 0 2.37614-1.6717Z"/>
<path transform="matrix(1,0,0,-1.00005,156.37085,42.18757)" d="M7.39124 0 2.37614 1.6717 .70447 0 2.37614-1.6717Z" fill="#9e0c0f"/>
<path transform="matrix(1,0,0,-1.00005,156.37085,42.18757)" stroke-width=".99628" stroke-linecap="butt" stroke-miterlimit="10" stroke-linejoin="miter" fill="none" stroke="#9e0c0f" d="M7.39124 0 2.37614 1.6717 .70447 0 2.37614-1.6717Z"/>
</g>
<path transform="matrix(1,0,0,-1.00005,1.4610005,143.16414)" d="M142.45883 100.97153C142.45883 102.072 141.56674 102.96408 140.46628 102.96408 139.3658 102.96408 138.47373 102.072 138.47373 100.97153 138.47373 99.87106 139.3658 98.97897 140.46628 98.97897 141.56674 98.97897 142.45883 99.87106 142.45883 100.97153ZM140.46628 100.97153" fill="#9e0c0f"/>
<path transform="matrix(1,0,0,-1.00005,1.4610005,143.16414)" stroke-width=".3985" stroke-linecap="butt" stroke-miterlimit="10" stroke-linejoin="miter" fill="none" stroke="#9e0c0f" d="M142.45883 100.97153C142.45883 102.072 141.56674 102.96408 140.46628 102.96408 139.3658 102.96408 138.47373 102.072 138.47373 100.97153 138.47373 99.87106 139.3658 98.97897 140.46628 98.97897 141.56674 98.97897 142.45883 99.87106 142.45883 100.97153ZM140.46628 100.97153"/>
<path transform="matrix(1,0,0,-1.00005,1.4610005,143.16414)" d="M95.63673 100.97153C95.63673 102.072 94.74464 102.96408 93.64418 102.96408 92.5437 102.96408 91.65163 102.072 91.65163 100.97153 91.65163 99.87106 92.5437 98.97897 93.64418 98.97897 94.74464 98.97897 95.63673 99.87106 95.63673 100.97153ZM93.64418 100.97153" fill="#9e0c0f"/>
<path transform="matrix(1,0,0,-1.00005,1.4610005,143.16414)" stroke-width=".3985" stroke-linecap="butt" stroke-miterlimit="10" stroke-linejoin="miter" fill="none" stroke="#9e0c0f" d="M95.63673 100.97153C95.63673 102.072 94.74464 102.96408 93.64418 102.96408 92.5437 102.96408 91.65163 102.072 91.65163 100.97153 91.65163 99.87106 92.5437 98.97897 93.64418 98.97897 94.74464 98.97897 95.63673 99.87106 95.63673 100.97153ZM93.64418 100.97153"/>
<path transform="matrix(1,0,0,-1.00005,1.4610005,143.16414)" d="M60.52016 100.97153C60.52016 102.072 59.62808 102.96408 58.5276 102.96408 57.42714 102.96408 56.53505 102.072 56.53505 100.97153 56.53505 99.87106 57.42714 98.97897 58.5276 98.97897 59.62808 98.97897 60.52016 99.87106 60.52016 100.97153ZM58.5276 100.97153" fill="#9e0c0f"/>
<path transform="matrix(1,0,0,-1.00005,1.4610005,143.16414)" stroke-width=".3985" stroke-linecap="butt" stroke-miterlimit="10" stroke-linejoin="miter" fill="none" stroke="#9e0c0f" d="M60.52016 100.97153C60.52016 102.072 59.62808 102.96408 58.5276 102.96408 57.42714 102.96408 56.53505 102.072 56.53505 100.97153 56.53505 99.87106 57.42714 98.97897 58.5276 98.97897 59.62808 98.97897 60.52016 99.87106 60.52016 100.97153ZM58.5276 100.97153"/>
<path transform="matrix(1,0,0,-1.00005,1.4610005,143.16414)" d="M13.69807 100.97153C13.69807 102.072 12.80598 102.96408 11.70552 102.96408 10.60504 102.96408 9.71297 102.072 9.71297 100.97153 9.71297 99.87106 10.60504 98.97897 11.70552 98.97897 12.80598 98.97897 13.69807 99.87106 13.69807 100.97153ZM11.70552 100.97153" fill="#9e0c0f"/>
<path transform="matrix(1,0,0,-1.00005,1.4610005,143.16414)" stroke-width=".3985" stroke-linecap="butt" stroke-miterlimit="10" stroke-linejoin="miter" fill="none" stroke="#9e0c0f" d="M13.69807 100.97153C13.69807 102.072 12.80598 102.96408 11.70552 102.96408 10.60504 102.96408 9.71297 102.072 9.71297 100.97153 9.71297 99.87106 10.60504 98.97897 11.70552 98.97897 12.80598 98.97897 13.69807 99.87106 13.69807 100.97153ZM11.70552 100.97153"/>
<path transform="matrix(1,0,0,-1.00005,1.4610005,143.16414)" stroke-width=".3985" stroke-linecap="butt" stroke-miterlimit="10" stroke-linejoin="miter" fill="none" stroke="#9e0c0f" d=""/>
<use data-text="x" xlink:href="#font_4_1" transform="matrix(9.9626,0,0,-9.963098,156.125,68.960437)"/>
<use data-text="y" xlink:href="#font_4_2" transform="matrix(9.9626,0,0,-9.963098,86.91901,9.606476)"/>
</svg>
