<svg xmlns="http://www.w3.org/2000/svg" xmlns:xlink="http://www.w3.org/1999/xlink" version="1.1" width="242" height="209" viewBox="0 0 242 209">
<defs>
<path id="font_1_1" d="M.69898989 .22743225C.71499636 .22743225 .7369995 .22743225 .7369995 .25042726 .7369995 .2734375 .71499636 .2734375 .69898989 .2734375H.12599182C.10998535 .2734375 .08799744 .2734375 .08799744 .25042726 .08799744 .22743225 .10998535 .22743225 .12599182 .22743225H.69898989Z"/>
<path id="font_2_5" d="M.3939972 .6468048C.3939972 .6667938 .3939972 .6748047 .37298585 .6748047 .3600006 .6748047 .35899354 .6737976 .34899903 .65979006L.02999878 .197052V.1640625H.31199647V.08100891C.31199647 .04399109 .30899049 .032989503 .23199463 .032989503H.20899964V0C.2939911 .0029907227 .29599 .0029907227 .35299684 .0029907227 .4099884 .0029907227 .4119873 .0029907227 .49699403 0V.032989503H.47399903C.39698792 .032989503 .3939972 .04399109 .3939972 .08100891V.1640625H.5V.197052H.3939972V.6468048M.31900025 .5658417V.197052H.06498718L.31900025 .5658417Z"/>
<path id="font_2_4" d="M.25299073 .33370973C.33198548 .33370973 .38198854 .27557374 .38198854 .17037964 .38198854 .045440675 .31098939 .008514404 .2579956 .008514404 .20298767 .008514404 .12799073 .0284729 .09298706 .08137512 .1289978 .08137512 .1539917 .10437012 .1539917 .13737488 .1539917 .16937256 .1309967 .19238281 .09899902 .19238281 .07199097 .19238281 .04399109 .17536927 .04399109 .13537598 .04399109 .04045105 .1459961-.021484375 .2599945-.021484375 .3929901-.021484375 .48599244 .070388797 .48599244 .17037964 .48599244 .25352479 .41999818 .32969667 .31799317 .3517456 .39698792 .37982179 .45599366 .4479828 .45599366 .52804568 .45599366 .6080475 .3659973 .66503909 .2619934 .66503909 .15499878 .66503909 .07398987 .6070404 .07398987 .53105166 .07398987 .49404908 .09899902 .4780426 .125 .4780426 .1559906 .4780426 .17599488 .5000458 .17599488 .52905276 .17599488 .56604006 .14399719 .5800476 .12199402 .5810547 .1639862 .6360321 .24099732 .6390381 .25898744 .6390381 .2849884 .6390381 .36099244 .6310272 .36099244 .52804568 .36099244 .45799256 .33198548 .41589356 .31799317 .39985658 .28799439 .36878968 .2649994 .36679078 .20399475 .3627777 .18499756 .36177064 .1769867 .36076356 .1769867 .3477478 .1769867 .33370973 .18598938 .33370973 .20298767 .33370973H.25299073Z"/>
<path id="font_2_3" d="M.28199769 .20405579C.2979889 .21907044 .33999635 .2520752 .35598756 .26608277 .41799928 .32312013 .47698976 .3781433 .47698976 .46917726 .47698976 .588089 .3769989 .66503909 .2519989 .66503909 .13198853 .66503909 .052993776 .57411196 .052993776 .48516847 .052993776 .4361725 .09199524 .4291687 .10598755 .4291687 .1269989 .4291687 .1579895 .4441681 .1579895 .48217774 .1579895 .5341797 .10798645 .5341797 .09599304 .5341797 .125 .6070709 .19198609 .6320343 .24099732 .6320343 .33399964 .6320343 .38198854 .55314639 .38198854 .46917726 .38198854 .36514283 .30899049 .28910829 .19099427 .16804505L.06498718 .037994386C.052993776 .026992798 .052993776 .024993897 .052993776 0H.44799806L.47698976 .17904663H.44599916C.44299317 .1590271 .43499757 .10900879 .4229889 .08999634 .4169922 .08198547 .34098817 .08198547 .32499696 .08198547H.14698792L.28199769 .20405579Z"/>
<path id="font_2_2" d="M.31399537 .63708499C.31399537 .664032 .31199647 .66503909 .2849884 .66503909 .24398804 .6251831 .19099427 .6013489 .09599304 .6013489V.5683594C.12298584 .5683594 .1769867 .5683594 .23498535 .5953522V.08203125C.23498535 .04499817 .23199463 .032989503 .13699341 .032989503H.101989749V0C.14299011 .0029907227 .22898865 .0029907227 .27398683 .0029907227 .31900025 .0029907227 .4059906 .0029907227 .44699098 0V.032989503H.4119873C.31698609 .032989503 .31399537 .04499817 .31399537 .08203125V.63708499Z"/>
<path id="font_2_6" d="M.13798523 .33073426C.13798523 .41377259 .14498902 .4868164 .18099976 .54782107 .21099854 .5978241 .2619934 .6390381 .32499696 .6390381 .34498597 .6390381 .3909912 .63601687 .4139862 .60084536 .36898805 .5988312 .36499024 .5648346 .36499024 .553833 .36499024 .5238342 .3880005 .50683596 .4119873 .50683596 .42999269 .50683596 .45899964 .51782229 .45899964 .5558319 .45899964 .615921 .4139862 .66503909 .32398988 .66503909 .18499756 .66503909 .04399109 .53282168 .04399109 .31672669 .04399109 .045532228 .16999817-.021484375 .2669983-.021484375 .31498719-.021484375 .36698915-.0084991459 .4119873 .03453064 .45199586 .07354736 .48599244 .11558533 .48599244 .20263672 .48599244 .33372499 .3869934 .42578126 .27598573 .42578126 .20399475 .42578126 .16099549 .37976075 .13798523 .33073426M.2669983 .008514404C.21398926 .008514404 .18099976 .045532228 .1659851 .07354736 .14299011 .11859131 .14099121 .18663025 .14099121 .22465515 .14099121 .32373048 .19499207 .3977661 .27198792 .3977661 .32199098 .3977661 .35198976 .37176515 .37098695 .33673097 .3919983 .29971314 .3919983 .25468446 .3919983 .2036438 .3919983 .15260315 .3919983 .10858154 .37199403 .07255554 .34599305 .026519776 .31098939 .008514404 .2669983 .008514404Z"/>
<path id="font_2_7" d="M.33198548 .36080934C.3880005 .38783265 .45599366 .4378662 .45599366 .5159302 .45599366 .6110077 .35899354 .66503909 .2659912 .66503909 .1599884 .66503909 .07398987 .59199526 .07398987 .49790956 .07398987 .46089173 .08699036 .42686463 .11199951 .39782716 .1289978 .3768158 .1329956 .3748169 .19499207 .3357849 .070999149 .2807312 .04399109 .20767212 .04399109 .15162659 .04399109 .041534425 .15499878-.021484375 .2639923-.021484375 .3869934-.021484375 .48599244 .061553956 .48599244 .16764832 .48599244 .23069763 .45199586 .2727356 .43598939 .28974916 .4189911 .30575563 .41799928 .3067627 .33198548 .36080934M.1769867 .45487977C.147995 .4718933 .12399292 .5009155 .12399292 .5359497 .12399292 .598999 .19299317 .6390381 .2639923 .6390381 .34199525 .6390381 .4059906 .5859833 .4059906 .5159302 .4059906 .45788575 .36099244 .408844 .3019867 .37982179L.1769867 .45487977M.22599793 .31776429C.22999573 .31576539 .34399415 .24571228 .36099244 .23469544 .3769989 .22569275 .42900086 .19366455 .42900086 .13360596 .42900086 .056549074 .34799195 .008514404 .2659912 .008514404 .1769867 .008514404 .100997928 .06956482 .100997928 .15162659 .100997928 .22668457 .15699768 .28573609 .22599793 .31776429Z"/>
<path id="font_2_1" d="M.4889984 .31877137C.4889984 .42585755 .47799684 .49090577 .44499208 .55496218 .40098573 .6430359 .31999208 .66503909 .2649994 .66503909 .13899231 .66503909 .09298706 .5709839 .07899475 .5429535 .042999269 .4698944 .040985109 .3708191 .040985109 .31877137 .040985109 .25271607 .04399109 .15162659 .09199524 .07156372 .13798523-.0024871827 .21199036-.021484375 .2649994-.021484375 .31298829-.021484375 .39898683-.0064849855 .44898988 .09257507 .48599244 .16464234 .4889984 .2537079 .4889984 .31877137M.2649994 .006515503C.23098755 .006515503 .1619873 .022521973 .14099121 .12760926 .12998963 .18466187 .12998963 .2787323 .12998963 .33078004 .12998963 .3998413 .12998963 .4698944 .14099121 .5249481 .1619873 .6270294 .23999024 .6370239 .2649994 .6370239 .29899598 .6370239 .36799623 .62002566 .3880005 .5289459 .3999939 .4738922 .3999939 .39883424 .3999939 .33078004 .3999939 .27172853 .3999939 .18165589 .3880005 .12561035 .36698915 .020523072 .2979889 .006515503 .2649994 .006515503Z"/>
<clipPath id="clip_3">
<path transform="matrix(1,0,0,-1.00003,1.4610005,208.02886)" d="M0 0H239.11191V206.22638H0Z"/>
</clipPath>
<path id="font_4_4" d="M.48599244 .38136292C.48999024 .39537049 .48999024 .39736939 .48999024 .40437318 .48999024 .42237855 .47599793 .43138124 .46099855 .43138124 .45098878 .43138124 .43499757 .42536927 .42599488 .41036988 .42399598 .405365 .41600038 .37435914 .4119873 .35635377 .40499879 .33035279 .397995 .30334474 .3919983 .27633668L.34700013 .09628296C.34298707 .08126831 .2999878 .011245728 .23399353 .011245728 .18299866 .011245728 .17199707 .055267335 .17199707 .0922699 .17199707 .1382904 .18899536 .20030213 .22299195 .28833009 .23899842 .3293457 .24299622 .3403473 .24299622 .36035157 .24299622 .405365 .21099854 .4423828 .16099549 .4423828 .06599426 .4423828 .0289917 .29733277 .0289917 .28833009 .0289917 .27833558 .038986207 .27833558 .040985109 .27833558 .050994874 .27833558 .051986696 .28033448 .056991579 .29634095 .083999637 .3903656 .12399292 .42037965 .1579895 .42037965 .1659851 .42037965 .18299866 .42037965 .18299866 .3883667 .18299866 .36335755 .17298889 .3373413 .1659851 .31834413 .12599182 .21231079 .10798645 .1552887 .10798645 .10827637 .10798645 .019256592 .17098999-.0107421879 .22999573-.0107421879 .2689972-.0107421879 .30299378 .0062561037 .33099366 .03425598 .31799317-.017745972 .30599977-.06674194 .2659912-.11973572 .23999024-.15385437 .20199585-.18309021 .1559906-.18309021 .14199829-.18309021 .09700012-.18005371 .07998657-.14074707 .09599304-.14074707 .10899353-.14074707 .12298584-.1287384 .1329956-.11973572 .14299011-.10673523 .14299011-.08773804 .14299011-.056747438 .115997318-.052734376 .10598755-.052734376 .08299255-.052734376 .049987794-.068740848 .049987794-.11773682 .049987794-.16796875 .09399414-.20507813 .1559906-.20507813 .25898744-.20507813 .3619995-.11373901 .3899994-.00074768069L.48599244 .38136292Z"/>
<path id="font_5_7" d="M.68699648 .32714845C.70199587 .32714845 .72099307 .32714845 .72099307 .34713746 .72099307 .36714173 .70199587 .36714173 .6879883 .36714173H.08898926C.07499695 .36714173 .055999757 .36714173 .055999757 .34713746 .055999757 .32714845 .07499695 .32714845 .08999634 .32714845H.68699648M.6879883 .13284302C.70199587 .13284302 .72099307 .13284302 .72099307 .15284729 .72099307 .17285156 .70199587 .17285156 .68699648 .17285156H.08999634C.07499695 .17285156 .055999757 .17285156 .055999757 .15284729 .055999757 .13284302 .07499695 .13284302 .08898926 .13284302H.6879883Z"/>
<path id="font_5_5" d="M.1269989 .07699585 .23298645 .18003845C.3889923 .31811524 .44898988 .3721466 .44898988 .47216798 .44898988 .5860901 .35899354 .6660156 .23699951 .6660156 .12399292 .6660156 .049987794 .57411196 .049987794 .48516847 .049987794 .4291687 .099990848 .4291687 .102996829 .4291687 .11999512 .4291687 .15499878 .44117738 .15499878 .48217774 .15499878 .5081787 .13699341 .5341797 .101989749 .5341797 .09399414 .5341797 .09199524 .5341797 .08898926 .5331726 .11199951 .59806826 .1659851 .63500979 .22399903 .63500979 .31498719 .63500979 .35798646 .5541382 .35798646 .47216798 .35798646 .39215089 .30799867 .31311036 .25299073 .25108338L.06098938 .036987306C.049987794 .025985718 .049987794 .023986817 .049987794 0H.42099L.44898988 .17404175H.42399598C.4189911 .14402771 .4119873 .1000061 .4019928 .084991458 .394989 .07699585 .32899476 .07699585 .30699159 .07699585H.1269989Z"/>
<path id="font_4_3" d="M.33399964 .30233766C.33999635 .32835389 .36299134 .42037965 .43299867 .42037965 .43798829 .42037965 .46199037 .42037965 .48298646 .40734864 .45498658 .402359 .43499757 .37734986 .43499757 .35334779 .43499757 .33735658 .44599916 .31835938 .47299195 .31835938 .49499513 .31835938 .5269928 .3363495 .5269928 .37635804 .5269928 .42837525 .46798707 .4423828 .43399049 .4423828 .37599183 .4423828 .34098817 .38935853 .32899476 .36634828 .3039856 .43237306 .25 .4423828 .22099304 .4423828 .116989139 .4423828 .05999756 .3133545 .05999756 .28834535 .05999756 .27833558 .069992069 .27833558 .07199097 .27833558 .07998657 .27833558 .08299255 .28033448 .084991458 .28933717 .11898804 .39535523 .18499756 .42037965 .21899414 .42037965 .23799134 .42037965 .272995 .4113617 .272995 .35334779 .272995 .32235719 .2559967 .25532533 .21899414 .11528015 .20298767 .053268434 .16799927 .011245728 .12399292 .011245728 .117996219 .011245728 .09498596 .011245728 .07398987 .024276734 .09899902 .029266358 .12098694 .05027771 .12098694 .07827759 .12098694 .105270389 .09899902 .11328125 .083999637 .11328125 .053985597 .11328125 .0289917 .08728027 .0289917 .055267335 .0289917 .009246826 .07899475-.0107421879 .12298584-.0107421879 .18899536-.0107421879 .22499085 .059280397 .22799683 .0652771 .23999024 .028274537 .27598573-.0107421879 .33599855-.0107421879 .43899537-.0107421879 .49598695 .118270877 .49598695 .14328003 .49598695 .1532898 .4869995 .1532898 .48399354 .1532898 .47499085 .1532898 .47299195 .14929199 .47099305 .14228821 .43798829 .03527832 .36999513 .011245728 .33799745 .011245728 .29899598 .011245728 .2829895 .043273927 .2829895 .07727051 .2829895 .09927368 .2889862 .121276859 .2999878 .16529846L.33399964 .30233766Z"/>
<path id="font_6_1" d="M.5049896 .18203736H.47099305C.46798707 .16001892 .45799256 .100997928 .44499208 .09098816 .43699647 .084991458 .3600006 .084991458 .34599305 .084991458H.1619873C.2669983 .17803955 .3019867 .20603943 .3619995 .25306703 .43598939 .312088 .5049896 .374115 .5049896 .46914674 .5049896 .5900879 .39898683 .6640625 .2709961 .6640625 .14698792 .6640625 .06298828 .57710269 .06298828 .4851532 .06298828 .43414308 .10598755 .42915345 .115997318 .42915345 .13999939 .42915345 .16899109 .44615174 .16899109 .48214723 .16899109 .5001526 .1619873 .53515627 .10998535 .53515627 .14099121 .6060791 .20899964 .62805178 .2559967 .62805178 .35598756 .62805178 .4079895 .5501404 .4079895 .46914674 .4079895 .38212586 .34599305 .3130951 .31399537 .27708436L.07299805 .038986207C.06298828 .02999878 .06298828 .027999878 .06298828 0H.47499085L.5049896 .18203736Z"/>
<path id="font_5_6" d="M.44898988 .20022583C.44898988 .3193512 .36698915 .41944886 .25898744 .41944886 .21099854 .41944886 .16799927 .40345765 .13198853 .36842347V.5637665C.1519928 .5577698 .18499756 .55078127 .21699524 .55078127 .33999635 .55078127 .4099884 .6417694 .4099884 .6547699 .4099884 .6607666 .40699769 .6657715 .3999939 .6657715 .39898683 .6657715 .39698792 .6657715 .3919983 .66278079 .37199403 .6537781 .32299806 .6337738 .2559967 .6337738 .21598816 .6337738 .16999817 .6407776 .12298584 .6617737 .114990238 .66477969 .11299133 .66477969 .11099243 .66477969 .100997928 .66477969 .100997928 .6567688 .100997928 .6407776V.34439088C.100997928 .32637025 .100997928 .31835938 .114990238 .31835938 .12199402 .31835938 .12399292 .32136537 .12799073 .32736207 .13899231 .3433838 .17599488 .39746095 .25698854 .39746095 .30899049 .39746095 .33399964 .35139466 .34199525 .33337403 .35798646 .29632569 .3600006 .25727845 .3600006 .20722962 .3600006 .17222595 .3600006 .11222839 .33599855 .07035828 .31199647 .031463624 .2749939 .0055389406 .22898865 .0055389406 .1559906 .0055389406 .09899902 .058380128 .08198547 .11723328 .084991458 .1162262 .08799744 .115234378 .09899902 .115234378 .13198853 .115234378 .14898682 .14022827 .14898682 .16423035 .14898682 .18823242 .13198853 .21322632 .09899902 .21322632 .084991458 .21322632 .049987794 .20622254 .049987794 .16023255 .049987794 .07434082 .11898804-.022460938 .23098755-.022460938 .34700013-.022460938 .44898988 .073349 .44898988 .20022583Z"/>
<path id="font_5_1" d="M.33099366-.2400055C.33099366-.23701477 .33099366-.23500061 .31399537-.21800232 .18899536-.0920105 .15699768 .09700012 .15699768 .25 .15699768 .42399598 .19499207 .59799197 .31799317 .72299197 .33099366 .73498538 .33099366 .7369995 .33099366 .73999026 .33099366 .746994 .32699586 .75 .32099916 .75 .31098939 .75 .22099304 .6819916 .1619873 .5549927 .11099243 .44499208 .09899902 .33399964 .09899902 .25 .09899902 .17199707 .10998535 .050994874 .16499329-.06201172 .22499085-.18501282 .31098939-.25 .32099916-.25 .32699586-.25 .33099366-.24700928 .33099366-.2400055Z"/>
<path id="font_5_3" d="M.45999146 .31976319C.45999146 .39982606 .45498658 .47988893 .41999818 .5539398 .37399293 .65000918 .2919922 .6660156 .25 .6660156 .18998719 .6660156 .116989139 .64001467 .07598877 .54693606 .04399109 .47789 .038986207 .39982606 .038986207 .31976319 .038986207 .24472046 .042999269 .15464783 .083999637 .07859802 .1269989-.0024719239 .19999695-.022460938 .24899292-.022460938 .30299378-.022460938 .3789978-.0014648438 .4229889 .09359741 .45498658 .16265869 .45999146 .2407074 .45999146 .31976319M.24899292-.00047302247C.20999146-.00047302247 .15098572 .024551392 .1329956 .12062073 .12199402 .18066406 .12199402 .2727356 .12199402 .3317871 .12199402 .39582826 .12199402 .46188355 .12998963 .5159149 .14898682 .63500979 .22399903 .64401248 .24899292 .64401248 .28199769 .64401248 .34799195 .6259918 .36698915 .52693179 .3769989 .47088624 .3769989 .39482118 .3769989 .3317871 .3769989 .25672914 .3769989 .18867493 .3659973 .12461853 .35099793 .029556275 .2939911-.00047302247 .24899292-.00047302247Z"/>
<path id="font_4_2" d="M.20298767 .0009918213C.20298767 .066986087 .17799378 .10598755 .13899231 .10598755 .10598755 .10598755 .085998538 .08099365 .085998538 .052993776 .085998538 .025985718 .10598755 0 .13899231 0 .15098572 0 .1639862 .0039978029 .17399597 .0129852299 .1769867 .01499939 .17799378 .015991211 .1789856 .015991211 .17999268 .015991211 .18099976 .01499939 .18099976 .0009918213 .18099976-.07316589 .1459961-.13328552 .11299133-.16635132 .101989749-.17736817 .101989749-.17936707 .101989749-.18237305 .101989749-.18936157 .10699463-.19335938 .11199951-.19335938 .12298584-.19335938 .20298767-.116256717 .20298767 .0009918213Z"/>
<path id="font_5_2" d="M.2889862 .25C.2889862 .32798768 .27799989 .44898988 .22299195 .56199648 .16299439 .68499758 .07699585 .75 .066986087 .75 .06098938 .75 .056991579 .74598696 .056991579 .73999026 .056991579 .7369995 .056991579 .73498538 .07598877 .71699526 .17399597 .6179962 .23098755 .45899964 .23098755 .25 .23098755 .07899475 .19400025-.09700012 .069992069-.2230072 .056991579-.23500061 .056991579-.23701477 .056991579-.2400055 .056991579-.2460022 .06098938-.25 .066986087-.25 .07699585-.25 .16699219-.18200684 .22599793-.055007936 .2769928 .054992677 .2889862 .16600037 .2889862 .25Z"/>
<path id="font_6_2" d="M.15499878 .5588074C.20599365 .5458069 .23599243 .5458069 .2519989 .5458069 .38398744 .5458069 .46199037 .6358032 .46199037 .6508026 .46199037 .6618042 .45498658 .6648102 .44999696 .6648102 .44799806 .6648102 .44599916 .6648102 .44198609 .6618042 .41799928 .6528015 .36499024 .6328125 .29100038 .6328125 .2630005 .6328125 .20999146 .6348114 .14498902 .6598053 .1349945 .6648102 .1329956 .6648102 .13198853 .6648102 .11898804 .6648102 .11898804 .6538086 .11898804 .6378021V.34251405C.11898804 .32548524 .11898804 .3134613 .1349945 .3134613 .14399719 .3134613 .14498902 .3154602 .15499878 .32748414 .19799805 .38259889 .25898744 .390625 .2939911 .390625 .35398866 .390625 .3809967 .34251405 .38598634 .33450318 .4039917 .30143739 .4099884 .26335145 .4099884 .20524597 .4099884 .17524719 .4099884 .116256717 .37998963 .07234192 .35499574 .03640747 .31199647 .012466431 .2630005 .012466431 .19799805 .012466431 .1309967 .04838562 .10598755 .11425781 .14399719 .11125183 .16299439 .13624573 .16299439 .16325379 .16299439 .20625305 .12599182 .21424866 .11299133 .21424866 .11099243 .21424866 .06298828 .21424866 .06298828 .1602478 .06298828 .07034302 .14498902-.01953125 .2649994-.01953125 .3929901-.01953125 .5049896 .07533264 .5049896 .20124817 .5049896 .31445313 .4189911 .41862489 .29499818 .41862489 .25099183 .41862489 .19898987 .4076233 .15499878 .36956788V.5588074Z"/>
<path id="font_5_4" d="M.2939911 .64004519C.2939911 .66400149 .2939911 .6660156 .2709961 .6660156 .20899964 .60227969 .12098694 .60227969 .08898926 .60227969V.57128909C.10899353 .57128909 .16799927 .57128909 .21998596 .5972748V.07902527C.21998596 .042999269 .21699524 .0309906 .1269989 .0309906H.09498596V0C.12998963 .0029907227 .21699524 .0029907227 .25698854 .0029907227 .29699708 .0029907227 .38398744 .0029907227 .4189911 0V.0309906H.3869934C.29699708 .0309906 .2939911 .041992189 .2939911 .07902527V.64004519Z"/>
<path id="font_4_1" d="M.19198609 .052993776C.19198609 .08198547 .16799927 .10598755 .13899231 .10598755 .10998535 .10598755 .085998538 .08198547 .085998538 .052993776 .085998538 .023986817 .10998535 0 .13899231 0 .16799927 0 .19198609 .023986817 .19198609 .052993776Z"/>
</defs>
<path transform="matrix(1,0,0,-1.00003,1.4610005,208.02886)" d="M0 0H239.11191V206.22638H0Z" fill="#fffac2"/>
<path transform="matrix(1,0,0,-1.00003,1.4610005,208.02886)" stroke-width=".3985" stroke-linecap="butt" stroke-miterlimit="10" stroke-linejoin="miter" fill="none" stroke="#d5d6d5" d="M0 0V206.22638M23.91118 0V206.22638M47.82237 0V206.22638M71.73357 0V206.22638M95.64476 0V206.22638M119.55595 0V206.22638M143.46715 0V206.22638M167.37834 0V206.22638M191.28952 0V206.22638M215.20072 0V206.22638M239.11191 0V206.22638"/>
<path transform="matrix(1,0,0,-1.00003,1.4610005,208.02886)" stroke-width=".3985" stroke-linecap="butt" stroke-miterlimit="10" stroke-linejoin="miter" fill="none" stroke="#d5d6d5" d="M23.91118 0V206.22638M47.82237 0V206.22638M71.73357 0V206.22638M95.64476 0V206.22638M167.37834 0V206.22638M191.28952 0V206.22638M215.20072 0V206.22638"/>
<path transform="matrix(1,0,0,-1.00003,1.4610005,208.02886)" stroke-width=".3985" stroke-linecap="butt" stroke-miterlimit="10" stroke-linejoin="miter" fill="none" stroke="#d5d6d5" d="M0 7.93178H239.11191M0 15.86356H239.11191M0 23.79535H239.11191M0 31.72713H239.11191M0 39.65892H239.11191M0 47.5907H239.11191M0 55.52248H239.11191M0 63.45427H239.11191M0 71.38605H239.11191M0 79.31784H239.11191M0 87.24962H239.11191M0 95.1814H239.11191M0 103.11319H239.11191M0 111.04497H239.11191M0 118.97676H239.11191M0 126.90854H239.11191M0 134.84033H239.11191M0 142.77211H239.11191M0 150.70389H239.11191M0 158.63568H239.11191M0 166.56746H239.11191M0 174.49925H239.11191M0 182.43103H239.11191M0 190.36281H239.11191M0 198.2946H239.11191M0 206.22638H239.11191"/>
<path transform="matrix(1,0,0,-1.00003,1.4610005,208.02886)" stroke-width=".3985" stroke-linecap="butt" stroke-miterlimit="10" stroke-linejoin="miter" fill="none" stroke="#d5d6d5" d="M0 15.86356H239.11191M0 31.72713H239.11191M0 63.45427H239.11191M0 79.31784H239.11191M0 95.1814H239.11191M0 111.04497H239.11191M0 126.90854H239.11191M0 142.77211H239.11191M0 158.63568H239.11191M0 174.49925H239.11191M0 190.36281H239.11191"/>
<path transform="matrix(1,0,0,-1.00003,1.4610005,208.02886)" stroke-width=".19925" stroke-linecap="butt" stroke-miterlimit="10" stroke-linejoin="miter" fill="none" stroke="#929292" d="M0 46.17336V49.00806M23.91118 46.17336V49.00806M47.82237 46.17336V49.00806M71.73357 46.17336V49.00806M95.64476 46.17336V49.00806M119.55595 46.17336V49.00806M143.46715 46.17336V49.00806M167.37834 46.17336V49.00806M191.28952 46.17336V49.00806M215.20072 46.17336V49.00806M239.11191 46.17336V49.00806"/>
<path transform="matrix(1,0,0,-1.00003,1.4610005,208.02886)" stroke-width=".19925" stroke-linecap="butt" stroke-miterlimit="10" stroke-linejoin="miter" fill="none" stroke="#929292" d="M23.91118 45.46489V49.71649M47.82237 45.46489V49.71649M71.73357 45.46489V49.71649M95.64476 45.46489V49.71649M167.37834 45.46489V49.71649M191.28952 45.46489V49.71649M215.20072 45.46489V49.71649"/>
<path transform="matrix(1,0,0,-1.00003,1.4610005,208.02886)" stroke-width=".19925" stroke-linecap="butt" stroke-miterlimit="10" stroke-linejoin="miter" fill="none" stroke="#929292" d="M118.13852 7.93178H120.97339M118.13852 15.86356H120.97339M118.13852 23.79535H120.97339M118.13852 31.72713H120.97339M118.13852 39.65892H120.97339M118.13852 47.5907H120.97339M118.13852 55.52248H120.97339M118.13852 63.45427H120.97339M118.13852 71.38605H120.97339M118.13852 79.31784H120.97339M118.13852 87.24962H120.97339M118.13852 95.1814H120.97339M118.13852 103.11319H120.97339M118.13852 111.04497H120.97339M118.13852 118.97676H120.97339M118.13852 126.90854H120.97339M118.13852 134.84033H120.97339M118.13852 142.77211H120.97339M118.13852 150.70389H120.97339M118.13852 158.63568H120.97339M118.13852 166.56746H120.97339M118.13852 174.49925H120.97339M118.13852 182.43103H120.97339M118.13852 190.36281H120.97339M118.13852 198.2946H120.97339M118.13852 206.22638H120.97339"/>
<path transform="matrix(1,0,0,-1.00003,1.4610005,208.02886)" stroke-width=".19925" stroke-linecap="butt" stroke-miterlimit="10" stroke-linejoin="miter" fill="none" stroke="#929292" d="M117.43001 15.86356H121.68187M117.43001 31.72713H121.68187M117.43001 63.45427H121.68187M117.43001 79.31784H121.68187M117.43001 95.1814H121.68187M117.43001 111.04497H121.68187M117.43001 126.90854H121.68187M117.43001 142.77211H121.68187M117.43001 158.63568H121.68187M117.43001 174.49925H121.68187M117.43001 190.36281H121.68187"/>
<path transform="matrix(1,0,0,-1.00003,1.4610005,208.02886)" stroke-width=".3985" stroke-linecap="butt" stroke-miterlimit="10" stroke-linejoin="miter" fill="none" stroke="#000000" d="M1.99252 47.5907H237.11939"/>
<path transform="matrix(-1,-0,0,1.00003,3.4535204,160.43672)" d="M1.99252 0-1.19551 1.59401 0 0-1.19551-1.59401"/>
<path transform="matrix(1,0,0,-1.00003,238.58039,160.43672)" d="M1.99252 0-1.19551 1.59401 0 0-1.19551-1.59401"/>
<path transform="matrix(1,0,0,-1.00003,1.4610005,208.02886)" stroke-width=".3985" stroke-linecap="butt" stroke-miterlimit="10" stroke-linejoin="miter" fill="none" stroke="#000000" d="M119.55595 1.99252V204.23386"/>
<path transform="matrix(0,1.00003,1,0,121.016948,206.03627)" d="M1.99252 0-1.19551 1.59401 0 0-1.19551-1.59401"/>
<path transform="matrix(0,-1.00003,-1,-0,121.016948,3.7888642)" d="M1.99252 0-1.19551 1.59401 0 0-1.19551-1.59401"/>
<use data-text="&#x2212;" xlink:href="#font_1_1" transform="matrix(7.9701,0,0,-7.9703395,19.962,171.21875)"/>
<use data-text="4" xlink:href="#font_2_5" transform="matrix(7.9701,0,0,-7.9703395,26.549,171.21875)"/>
<use data-text="&#x2212;" xlink:href="#font_1_1" transform="matrix(7.9701,0,0,-7.9703395,43.873,171.21875)"/>
<use data-text="3" xlink:href="#font_2_4" transform="matrix(7.9701,0,0,-7.9703395,50.46,171.21875)"/>
<use data-text="&#x2212;" xlink:href="#font_1_1" transform="matrix(7.9701,0,0,-7.9703395,67.784,171.21875)"/>
<use data-text="2" xlink:href="#font_2_3" transform="matrix(7.9701,0,0,-7.9703395,74.371,171.21875)"/>
<use data-text="&#x2212;" xlink:href="#font_1_1" transform="matrix(7.9701,0,0,-7.9703395,91.69501,171.21875)"/>
<use data-text="1" xlink:href="#font_2_2" transform="matrix(7.9701,0,0,-7.9703395,98.282009,171.21875)"/>
<use data-text="2" xlink:href="#font_2_3" transform="matrix(7.9701,0,0,-7.9703395,166.722,171.21875)"/>
<use data-text="3" xlink:href="#font_2_4" transform="matrix(7.9701,0,0,-7.9703395,190.633,171.21875)"/>
<use data-text="4" xlink:href="#font_2_5" transform="matrix(7.9701,0,0,-7.9703395,214.545,171.21875)"/>
<use data-text="&#x2212;" xlink:href="#font_1_1" transform="matrix(7.9701,0,0,-7.9703395,106.44101,194.31745)"/>
<use data-text="4" xlink:href="#font_2_5" transform="matrix(7.9701,0,0,-7.9703395,113.02801,194.31745)"/>
<use data-text="&#x2212;" xlink:href="#font_1_1" transform="matrix(7.9701,0,0,-7.9703395,106.44101,178.45397)"/>
<use data-text="2" xlink:href="#font_2_3" transform="matrix(7.9701,0,0,-7.9703395,113.02801,178.45397)"/>
<use data-text="2" xlink:href="#font_2_3" transform="matrix(7.9701,0,0,-7.9703395,113.028,147.14102)"/>
<use data-text="4" xlink:href="#font_2_5" transform="matrix(7.9701,0,0,-7.9703395,113.028,131.27655)"/>
<use data-text="6" xlink:href="#font_2_6" transform="matrix(7.9701,0,0,-7.9703395,113.028,115.41307)"/>
<use data-text="8" xlink:href="#font_2_7" transform="matrix(7.9701,0,0,-7.9703395,113.028,99.5486)"/>
<use data-text="1" xlink:href="#font_2_2" transform="matrix(7.9701,0,0,-7.9703395,108.793,83.68512)"/>
<use data-text="0" xlink:href="#font_2_1" transform="matrix(7.9701,0,0,-7.9703395,113.02513,83.68512)"/>
<use data-text="1" xlink:href="#font_2_2" transform="matrix(7.9701,0,0,-7.9703395,108.793,67.82065)"/>
<use data-text="2" xlink:href="#font_2_3" transform="matrix(7.9701,0,0,-7.9703395,113.02513,67.82065)"/>
<use data-text="1" xlink:href="#font_2_2" transform="matrix(7.9701,0,0,-7.9703395,108.793,51.95717)"/>
<use data-text="4" xlink:href="#font_2_5" transform="matrix(7.9701,0,0,-7.9703395,113.02513,51.95717)"/>
<use data-text="1" xlink:href="#font_2_2" transform="matrix(7.9701,0,0,-7.9703395,108.793,36.092699)"/>
<use data-text="6" xlink:href="#font_2_6" transform="matrix(7.9701,0,0,-7.9703395,113.02513,36.092699)"/>
<use data-text="1" xlink:href="#font_2_2" transform="matrix(7.9701,0,0,-7.9703395,108.793,20.22821)"/>
<use data-text="8" xlink:href="#font_2_7" transform="matrix(7.9701,0,0,-7.9703395,113.02513,20.22821)"/>
<g clip-path="url(#clip_3)">
<path transform="matrix(1,0,0,-1.00003,1.4610005,208.02886)" stroke-width=".99628" stroke-linecap="butt" stroke-miterlimit="10" stroke-linejoin="miter" fill="none" stroke="#9e0c0f" d="M45.94254 198.18079 50.24936 180.86533 56.54996 157.73506 62.85056 136.80759 69.15115 118.08307 75.45174 101.56146 81.75233 87.24265 88.05293 75.12677 94.35353 65.2138 100.65413 57.5037 106.95473 51.99648 113.25533 48.69214 119.55592 47.5907 125.85652 48.69211 132.15712 51.99644 138.45772 57.50363 144.7583 65.21376 151.0589 75.12672 157.3595 87.24257 163.6601 101.56126 169.9607 118.08298 176.26129 136.80747 182.56189 157.73479 188.86249 180.86519 193.16931 198.18064"/>
<path transform="matrix(-.24132,-.97045919,-.97043,.24132726,47.573534,10.525787)" d="M7.39124 0 2.37614 1.6717 .70447 0 2.37614-1.6717Z" fill="#9e0c0f"/>
<path transform="matrix(-.24132,-.97045919,-.97043,.24132726,47.573534,10.525787)" stroke-width=".99628" stroke-linecap="butt" stroke-miterlimit="10" stroke-linejoin="miter" fill="none" stroke="#9e0c0f" d="M7.39124 0 2.37614 1.6717 .70447 0 2.37614-1.6717Z"/>
<path transform="matrix(.24132,-.97045919,-.97043,-.24132726,194.46031,10.52594)" d="M7.39124 0 2.37614 1.6717 .70447 0 2.37614-1.6717Z" fill="#9e0c0f"/>
<path transform="matrix(.24132,-.97045919,-.97043,-.24132726,194.46031,10.52594)" stroke-width=".99628" stroke-linecap="butt" stroke-miterlimit="10" stroke-linejoin="miter" fill="none" stroke="#9e0c0f" d="M7.39124 0 2.37614 1.6717 .70447 0 2.37614-1.6717Z"/>
<use data-text="y" xlink:href="#font_4_4" transform="matrix(9.9626,0,0,-9.962899,36.458,101.77267)" fill="#9e0c0f"/>
<use data-text="=" xlink:href="#font_5_7" transform="matrix(9.9626,0,0,-9.962899,44.467004,101.77267)" fill="#9e0c0f"/>
<use data-text="2" xlink:href="#font_5_5" transform="matrix(9.9626,0,0,-9.962899,54.967584,101.77267)" fill="#9e0c0f"/>
<use data-text="x" xlink:href="#font_4_3" transform="matrix(9.9626,0,0,-9.962899,59.965005,101.77267)" fill="#9e0c0f"/>
<use data-text="2" xlink:href="#font_6_1" transform="matrix(6.9738,0,0,-6.9740097,65.659008,98.15754)" fill="#9e0c0f"/>
<path transform="matrix(1,0,0,-1.00003,1.4610005,208.02886)" stroke-width=".99628" stroke-linecap="butt" stroke-miterlimit="10" stroke-linejoin="miter" fill="none" stroke="#008099" d="M95.1284 7.0752 96.04326 8.59273 101.22401 17.18549 106.40475 25.77823 111.5855 34.37097 116.76624 42.96371 121.94698 51.55646 127.12772 60.14919 132.30847 68.74194 137.48923 77.33467 142.66997 85.92743 147.85071 94.52014 153.03145 103.11295 158.21219 111.70566 163.39295 120.29839 168.57369 128.89113 173.75443 137.4839 178.93518 146.07663 184.11592 154.66936 189.29668 163.26215 194.47742 171.85486 199.65816 180.4476 204.8389 189.04038 210.01964 197.6331 210.9345 199.15064"/>
<path transform="matrix(-.51633,.85637578,.85635,.5163455,96.953159,200.35015)" d="M7.39124 0 2.37614 1.6717 .70447 0 2.37614-1.6717Z" fill="#008099"/>
<path transform="matrix(-.51633,.85637578,.85635,.5163455,96.953159,200.35015)" stroke-width=".99628" stroke-linecap="butt" stroke-miterlimit="10" stroke-linejoin="miter" fill="none" stroke="#008099" d="M7.39124 0 2.37614 1.6717 .70447 0 2.37614-1.6717Z"/>
<path transform="matrix(.51633,-.85637578,-.85635,-.5163455,212.03174,9.47554)" d="M7.39124 0 2.37614 1.6717 .70447 0 2.37614-1.6717Z" fill="#008099"/>
<path transform="matrix(.51633,-.85637578,-.85635,-.5163455,212.03174,9.47554)" stroke-width=".99628" stroke-linecap="butt" stroke-miterlimit="10" stroke-linejoin="miter" fill="none" stroke="#008099" d="M7.39124 0 2.37614 1.6717 .70447 0 2.37614-1.6717Z"/>
<use data-text="y" xlink:href="#font_4_4" transform="matrix(9.9626,0,0,-9.962899,65.520999,199.95862)" fill="#008099"/>
<use data-text="=" xlink:href="#font_5_7" transform="matrix(9.9626,0,0,-9.962899,73.53,199.95862)" fill="#008099"/>
<use data-text="5" xlink:href="#font_5_6" transform="matrix(9.9626,0,0,-9.962899,84.03058,199.95862)" fill="#008099"/>
<use data-text="x" xlink:href="#font_4_3" transform="matrix(9.9626,0,0,-9.962899,89.028,199.95862)" fill="#008099"/>
<path transform="matrix(1,0,0,-1.00003,1.4610005,208.02886)" stroke-width=".3985" stroke-linecap="butt" stroke-miterlimit="10" stroke-linejoin="miter" fill="none" stroke="#70485b" d=""/>
<use data-text="(" xlink:href="#font_5_1" transform="matrix(9.9626,0,0,-9.962899,124.537,171.42876)" fill="#70485b"/>
<use data-text="0" xlink:href="#font_5_3" transform="matrix(9.9626,0,0,-9.962899,128.40248,171.42876)" fill="#70485b"/>
<use data-text="," xlink:href="#font_4_2" transform="matrix(9.9626,0,0,-9.962899,133.393,171.42876)" fill="#70485b"/>
<use data-text="0" xlink:href="#font_5_3" transform="matrix(9.9626,0,0,-9.962899,137.821,171.42876)" fill="#70485b"/>
<use data-text=")" xlink:href="#font_5_2" transform="matrix(9.9626,0,0,-9.962899,142.80229,171.42876)" fill="#70485b"/>
<path transform="matrix(1,0,0,-1.00003,1.4610005,208.02886)" stroke-width=".3985" stroke-linecap="butt" stroke-miterlimit="10" stroke-linejoin="miter" fill="none" stroke="#70485b" d=""/>
<use data-text="(" xlink:href="#font_5_1" transform="matrix(9.9626,0,0,-9.962899,184.315,63.777528)" fill="#70485b"/>
<use data-text="5" xlink:href="#font_6_2" transform="matrix(6.9738,0,0,-6.9740097,189.385,59.8544)" fill="#70485b"/>
<path transform="matrix(1,0,0,-1.00003,165.655,-164.05933)" stroke-width=".3985" stroke-linecap="butt" stroke-miterlimit="10" stroke-linejoin="miter" fill="none" stroke="#70485b" d="M23.73-225.339H27.701"/>
<use data-text="2" xlink:href="#font_6_1" transform="matrix(6.9738,0,0,-6.9740097,189.385,67.21362)" fill="#70485b"/>
<use data-text="," xlink:href="#font_4_2" transform="matrix(9.9626,0,0,-9.962899,194.552,63.777528)" fill="#70485b"/>
<use data-text="1" xlink:href="#font_5_4" transform="matrix(9.9626,0,0,-9.962899,198.979,63.777528)" fill="#70485b"/>
<use data-text="2" xlink:href="#font_5_5" transform="matrix(9.9626,0,0,-9.962899,203.9603,63.777528)" fill="#70485b"/>
<use data-text="." xlink:href="#font_4_1" transform="matrix(9.9626,0,0,-9.962899,208.942,63.777528)" fill="#70485b"/>
<use data-text="5" xlink:href="#font_5_6" transform="matrix(9.9626,0,0,-9.962899,211.70999,63.777528)" fill="#70485b"/>
<use data-text=")" xlink:href="#font_5_2" transform="matrix(9.9626,0,0,-9.962899,216.6913,63.777528)" fill="#70485b"/>
</g>
<path transform="matrix(1,0,0,-1.00003,1.4610005,208.02886)" d="M121.54851 47.5907C121.54851 48.69116 120.65642 49.58325 119.55595 49.58325 118.45547 49.58325 117.5634 48.69116 117.5634 47.5907 117.5634 46.49022 118.45547 45.59814 119.55595 45.59814 120.65642 45.59814 121.54851 46.49022 121.54851 47.5907ZM119.55595 47.5907" fill="#70485b"/>
<path transform="matrix(1,0,0,-1.00003,1.4610005,208.02886)" stroke-width=".3985" stroke-linecap="butt" stroke-miterlimit="10" stroke-linejoin="miter" fill="none" stroke="#70485b" d="M121.54851 47.5907C121.54851 48.69116 120.65642 49.58325 119.55595 49.58325 118.45547 49.58325 117.5634 48.69116 117.5634 47.5907 117.5634 46.49022 118.45547 45.59814 119.55595 45.59814 120.65642 45.59814 121.54851 46.49022 121.54851 47.5907ZM119.55595 47.5907"/>
<path transform="matrix(1,0,0,-1.00003,1.4610005,208.02886)" stroke-width=".3985" stroke-linecap="butt" stroke-miterlimit="10" stroke-linejoin="miter" fill="none" stroke="#70485b" d=""/>
<path transform="matrix(1,0,0,-1.00003,1.4610005,208.02886)" d="M181.32648 146.738C181.32648 147.83847 180.4344 148.73056 179.33393 148.73056 178.23346 148.73056 177.34137 147.83847 177.34137 146.738 177.34137 145.63753 178.23346 144.74546 179.33393 144.74546 180.4344 144.74546 181.32648 145.63753 181.32648 146.738ZM179.33393 146.738" fill="#70485b"/>
<path transform="matrix(1,0,0,-1.00003,1.4610005,208.02886)" stroke-width=".3985" stroke-linecap="butt" stroke-miterlimit="10" stroke-linejoin="miter" fill="none" stroke="#70485b" d="M181.32648 146.738C181.32648 147.83847 180.4344 148.73056 179.33393 148.73056 178.23346 148.73056 177.34137 147.83847 177.34137 146.738 177.34137 145.63753 178.23346 144.74546 179.33393 144.74546 180.4344 144.74546 181.32648 145.63753 181.32648 146.738ZM179.33393 146.738"/>
<path transform="matrix(1,0,0,-1.00003,1.4610005,208.02886)" stroke-width=".3985" stroke-linecap="butt" stroke-miterlimit="10" stroke-linejoin="miter" fill="none" stroke="#70485b" d=""/>
<use data-text="x" xlink:href="#font_4_3" transform="matrix(9.9626,0,0,-9.962899,231.359,156.91632)"/>
<use data-text="y" xlink:href="#font_4_4" transform="matrix(9.9626,0,0,-9.962899,124.537,9.605881)"/>
</svg>
