<svg xmlns="http://www.w3.org/2000/svg" xmlns:xlink="http://www.w3.org/1999/xlink" version="1.1" width="167" height="145" viewBox="0 0 167 145">
<defs>
<path id="font_1_1" d="M.69898989 .22743225C.71499636 .22743225 .7369995 .22743225 .7369995 .25042726 .7369995 .2734375 .71499636 .2734375 .69898989 .2734375H.12599182C.10998535 .2734375 .08799744 .2734375 .08799744 .25042726 .08799744 .22743225 .10998535 .22743225 .12599182 .22743225H.69898989Z"/>
<path id="font_2_3" d="M.13798523 .33073426C.13798523 .41377259 .14498902 .4868164 .18099976 .54782107 .21099854 .5978241 .2619934 .6390381 .32499696 .6390381 .34498597 .6390381 .3909912 .63601687 .4139862 .60084536 .36898805 .5988312 .36499024 .5648346 .36499024 .553833 .36499024 .5238342 .3880005 .50683596 .4119873 .50683596 .42999269 .50683596 .45899964 .51782229 .45899964 .5558319 .45899964 .615921 .4139862 .66503909 .32398988 .66503909 .18499756 .66503909 .04399109 .53282168 .04399109 .31672669 .04399109 .045532228 .16999817-.021484375 .2669983-.021484375 .31498719-.021484375 .36698915-.0084991459 .4119873 .03453064 .45199586 .07354736 .48599244 .11558533 .48599244 .20263672 .48599244 .33372499 .3869934 .42578126 .27598573 .42578126 .20399475 .42578126 .16099549 .37976075 .13798523 .33073426M.2669983 .008514404C.21398926 .008514404 .18099976 .045532228 .1659851 .07354736 .14299011 .11859131 .14099121 .18663025 .14099121 .22465515 .14099121 .32373048 .19499207 .3977661 .27198792 .3977661 .32199098 .3977661 .35198976 .37176515 .37098695 .33673097 .3919983 .29971314 .3919983 .25468446 .3919983 .2036438 .3919983 .15260315 .3919983 .10858154 .37199403 .07255554 .34599305 .026519776 .31098939 .008514404 .2669983 .008514404Z"/>
<path id="font_2_2" d="M.3939972 .6468048C.3939972 .6667938 .3939972 .6748047 .37298585 .6748047 .3600006 .6748047 .35899354 .6737976 .34899903 .65979006L.02999878 .197052V.1640625H.31199647V.08100891C.31199647 .04399109 .30899049 .032989503 .23199463 .032989503H.20899964V0C.2939911 .0029907227 .29599 .0029907227 .35299684 .0029907227 .4099884 .0029907227 .4119873 .0029907227 .49699403 0V.032989503H.47399903C.39698792 .032989503 .3939972 .04399109 .3939972 .08100891V.1640625H.5V.197052H.3939972V.6468048M.31900025 .5658417V.197052H.06498718L.31900025 .5658417Z"/>
<path id="font_2_1" d="M.28199769 .20405579C.2979889 .21907044 .33999635 .2520752 .35598756 .26608277 .41799928 .32312013 .47698976 .3781433 .47698976 .46917726 .47698976 .588089 .3769989 .66503909 .2519989 .66503909 .13198853 .66503909 .052993776 .57411196 .052993776 .48516847 .052993776 .4361725 .09199524 .4291687 .10598755 .4291687 .1269989 .4291687 .1579895 .4441681 .1579895 .48217774 .1579895 .5341797 .10798645 .5341797 .09599304 .5341797 .125 .6070709 .19198609 .6320343 .24099732 .6320343 .33399964 .6320343 .38198854 .55314639 .38198854 .46917726 .38198854 .36514283 .30899049 .28910829 .19099427 .16804505L.06498718 .037994386C.052993776 .026992798 .052993776 .024993897 .052993776 0H.44799806L.47698976 .17904663H.44599916C.44299317 .1590271 .43499757 .10900879 .4229889 .08999634 .4169922 .08198547 .34098817 .08198547 .32499696 .08198547H.14698792L.28199769 .20405579Z"/>
<clipPath id="clip_3">
<path transform="matrix(1,0,0,-1.00005,1.4610005,143.16414)" d="M0 0H163.87732V141.36016H0Z"/>
</clipPath>
<path id="font_4_2" d="M.48599244 .38136292C.48999024 .39537049 .48999024 .39736939 .48999024 .40437318 .48999024 .42237855 .47599793 .43138124 .46099855 .43138124 .45098878 .43138124 .43499757 .42536927 .42599488 .41036988 .42399598 .405365 .41600038 .37435914 .4119873 .35635377 .40499879 .33035279 .397995 .30334474 .3919983 .27633668L.34700013 .09628296C.34298707 .08126831 .2999878 .011245728 .23399353 .011245728 .18299866 .011245728 .17199707 .055267335 .17199707 .0922699 .17199707 .1382904 .18899536 .20030213 .22299195 .28833009 .23899842 .3293457 .24299622 .3403473 .24299622 .36035157 .24299622 .405365 .21099854 .4423828 .16099549 .4423828 .06599426 .4423828 .0289917 .29733277 .0289917 .28833009 .0289917 .27833558 .038986207 .27833558 .040985109 .27833558 .050994874 .27833558 .051986696 .28033448 .056991579 .29634095 .083999637 .3903656 .12399292 .42037965 .1579895 .42037965 .1659851 .42037965 .18299866 .42037965 .18299866 .3883667 .18299866 .36335755 .17298889 .3373413 .1659851 .31834413 .12599182 .21231079 .10798645 .1552887 .10798645 .10827637 .10798645 .019256592 .17098999-.0107421879 .22999573-.0107421879 .2689972-.0107421879 .30299378 .0062561037 .33099366 .03425598 .31799317-.017745972 .30599977-.06674194 .2659912-.11973572 .23999024-.15385437 .20199585-.18309021 .1559906-.18309021 .14199829-.18309021 .09700012-.18005371 .07998657-.14074707 .09599304-.14074707 .10899353-.14074707 .12298584-.1287384 .1329956-.11973572 .14299011-.10673523 .14299011-.08773804 .14299011-.056747438 .115997318-.052734376 .10598755-.052734376 .08299255-.052734376 .049987794-.068740848 .049987794-.11773682 .049987794-.16796875 .09399414-.20507813 .1559906-.20507813 .25898744-.20507813 .3619995-.11373901 .3899994-.00074768069L.48599244 .38136292Z"/>
<path id="font_5_4" d="M.68699648 .32714845C.70199587 .32714845 .72099307 .32714845 .72099307 .34713746 .72099307 .36714173 .70199587 .36714173 .6879883 .36714173H.08898926C.07499695 .36714173 .055999757 .36714173 .055999757 .34713746 .055999757 .32714845 .07499695 .32714845 .08999634 .32714845H.68699648M.6879883 .13284302C.70199587 .13284302 .72099307 .13284302 .72099307 .15284729 .72099307 .17285156 .70199587 .17285156 .68699648 .17285156H.08999634C.07499695 .17285156 .055999757 .17285156 .055999757 .15284729 .055999757 .13284302 .07499695 .13284302 .08898926 .13284302H.6879883Z"/>
<path id="font_6_1" d="M.33499146 .63612368C.33499146 .6630554 .33299256 .6640625 .30499269 .6640625 .24099732 .6014404 .1499939 .6004486 .10899353 .6004486V.5644531C.1329956 .5644531 .19898987 .5644531 .2539978 .592453V.08203125C.2539978 .04899597 .2539978 .035995485 .1539917 .035995485H.115997318V0C.13398743 .0009918213 .25698854 .0039978029 .2939911 .0039978029 .32499696 .0039978029 .45098878 .0009918213 .47299195 0V.035995485H.43499757C.33499146 .035995485 .33499146 .04899597 .33499146 .08203125V.63612368Z"/>
<path id="font_6_2" d="M.5049896 .18203736H.47099305C.46798707 .16001892 .45799256 .100997928 .44499208 .09098816 .43699647 .084991458 .3600006 .084991458 .34599305 .084991458H.1619873C.2669983 .17803955 .3019867 .20603943 .3619995 .25306703 .43598939 .312088 .5049896 .374115 .5049896 .46914674 .5049896 .5900879 .39898683 .6640625 .2709961 .6640625 .14698792 .6640625 .06298828 .57710269 .06298828 .4851532 .06298828 .43414308 .10598755 .42915345 .115997318 .42915345 .13999939 .42915345 .16899109 .44615174 .16899109 .48214723 .16899109 .5001526 .1619873 .53515627 .10998535 .53515627 .14099121 .6060791 .20899964 .62805178 .2559967 .62805178 .35598756 .62805178 .4079895 .5501404 .4079895 .46914674 .4079895 .38212586 .34599305 .3130951 .31399537 .27708436L.07299805 .038986207C.06298828 .02999878 .06298828 .027999878 .06298828 0H.47499085L.5049896 .18203736Z"/>
<path id="font_4_1" d="M.33399964 .30233766C.33999635 .32835389 .36299134 .42037965 .43299867 .42037965 .43798829 .42037965 .46199037 .42037965 .48298646 .40734864 .45498658 .402359 .43499757 .37734986 .43499757 .35334779 .43499757 .33735658 .44599916 .31835938 .47299195 .31835938 .49499513 .31835938 .5269928 .3363495 .5269928 .37635804 .5269928 .42837525 .46798707 .4423828 .43399049 .4423828 .37599183 .4423828 .34098817 .38935853 .32899476 .36634828 .3039856 .43237306 .25 .4423828 .22099304 .4423828 .116989139 .4423828 .05999756 .3133545 .05999756 .28834535 .05999756 .27833558 .069992069 .27833558 .07199097 .27833558 .07998657 .27833558 .08299255 .28033448 .084991458 .28933717 .11898804 .39535523 .18499756 .42037965 .21899414 .42037965 .23799134 .42037965 .272995 .4113617 .272995 .35334779 .272995 .32235719 .2559967 .25532533 .21899414 .11528015 .20298767 .053268434 .16799927 .011245728 .12399292 .011245728 .117996219 .011245728 .09498596 .011245728 .07398987 .024276734 .09899902 .029266358 .12098694 .05027771 .12098694 .07827759 .12098694 .105270389 .09899902 .11328125 .083999637 .11328125 .053985597 .11328125 .0289917 .08728027 .0289917 .055267335 .0289917 .009246826 .07899475-.0107421879 .12298584-.0107421879 .18899536-.0107421879 .22499085 .059280397 .22799683 .0652771 .23999024 .028274537 .27598573-.0107421879 .33599855-.0107421879 .43899537-.0107421879 .49598695 .118270877 .49598695 .14328003 .49598695 .1532898 .4869995 .1532898 .48399354 .1532898 .47499085 .1532898 .47299195 .14929199 .47099305 .14228821 .43798829 .03527832 .36999513 .011245728 .33799745 .011245728 .29899598 .011245728 .2829895 .043273927 .2829895 .07727051 .2829895 .09927368 .2889862 .121276859 .2999878 .16529846L.33399964 .30233766Z"/>
<path id="font_5_1" d="M.40899659 .23046875H.6879883C.70199587 .23046875 .72099307 .23046875 .72099307 .25045777 .72099307 .27046205 .70199587 .27046205 .6879883 .27046205H.40899659V.5500183C.40899659 .56399539 .40899659 .5830078 .3889923 .5830078 .36898805 .5830078 .36898805 .56399539 .36898805 .5500183V.27046205H.08898926C.07499695 .27046205 .055999757 .27046205 .055999757 .25045777 .055999757 .23046875 .07499695 .23046875 .08898926 .23046875H.36898805V-.05000305C.36898805-.06401062 .36898805-.08300781 .3889923-.08300781 .40899659-.08300781 .40899659-.06401062 .40899659-.05000305V.23046875Z"/>
<path id="font_5_2" d="M.2939911 .16503906V.07800293C.2939911 .041992189 .2919922 .0309906 .21798706 .0309906H.19699097V0C.23799134 .0029907227 .2899933 .0029907227 .33198548 .0029907227 .37399293 .0029907227 .4269867 .0029907227 .46798707 0V.0309906H.44699098C.37298585 .0309906 .37098695 .041992189 .37098695 .07800293V.16503906H.47099305V.19602967H.37098695V.65075686C.37098695 .67074587 .37098695 .6767578 .35499574 .6767578 .34599305 .6767578 .34298707 .6767578 .33499146 .66474917L.027999878 .19602967V.16503906H.2939911M.2999878 .19602967H.055999757L.2999878 .5688019V.19602967Z"/>
<path id="font_7_1" d="M.6589966 .23046875C.6759949 .23046875 .69400027 .23046875 .69400027 .25045777 .69400027 .27046205 .6759949 .27046205 .6589966 .27046205H.117996219C.100997928 .27046205 .08299255 .27046205 .08299255 .25045777 .08299255 .23046875 .100997928 .23046875 .117996219 .23046875H.6589966Z"/>
<path id="font_5_3" d="M.44898988 .20022583C.44898988 .3193512 .36698915 .41944886 .25898744 .41944886 .21099854 .41944886 .16799927 .40345765 .13198853 .36842347V.5637665C.1519928 .5577698 .18499756 .55078127 .21699524 .55078127 .33999635 .55078127 .4099884 .6417694 .4099884 .6547699 .4099884 .6607666 .40699769 .6657715 .3999939 .6657715 .39898683 .6657715 .39698792 .6657715 .3919983 .66278079 .37199403 .6537781 .32299806 .6337738 .2559967 .6337738 .21598816 .6337738 .16999817 .6407776 .12298584 .6617737 .114990238 .66477969 .11299133 .66477969 .11099243 .66477969 .100997928 .66477969 .100997928 .6567688 .100997928 .6407776V.34439088C.100997928 .32637025 .100997928 .31835938 .114990238 .31835938 .12199402 .31835938 .12399292 .32136537 .12799073 .32736207 .13899231 .3433838 .17599488 .39746095 .25698854 .39746095 .30899049 .39746095 .33399964 .35139466 .34199525 .33337403 .35798646 .29632569 .3600006 .25727845 .3600006 .20722962 .3600006 .17222595 .3600006 .11222839 .33599855 .07035828 .31199647 .031463624 .2749939 .0055389406 .22898865 .0055389406 .1559906 .0055389406 .09899902 .058380128 .08198547 .11723328 .084991458 .1162262 .08799744 .115234378 .09899902 .115234378 .13198853 .115234378 .14898682 .14022827 .14898682 .16423035 .14898682 .18823242 .13198853 .21322632 .09899902 .21322632 .084991458 .21322632 .049987794 .20622254 .049987794 .16023255 .049987794 .07434082 .11898804-.022460938 .23098755-.022460938 .34700013-.022460938 .44898988 .073349 .44898988 .20022583Z"/>
</defs>
<path transform="matrix(1,0,0,-1.00005,1.4610005,143.16414)" d="M0 0H163.87732V141.36016H0Z" fill="#fffac2"/>
<path transform="matrix(1,0,0,-1.00005,1.4610005,143.16414)" stroke-width=".3985" stroke-linecap="butt" stroke-miterlimit="10" stroke-linejoin="miter" fill="none" stroke="#d5d6d5" d="M0 0V141.36016M11.70552 0V141.36016M23.41104 0V141.36016M35.11656 0V141.36016M46.82208 0V141.36016M58.5276 0V141.36016M70.23314 0V141.36016M81.93866 0V141.36016M93.64418 0V141.36016M105.3497 0V141.36016M117.05522 0V141.36016M128.76074 0V141.36016M140.46628 0V141.36016M152.1718 0V141.36016M163.87732 0V141.36016"/>
<path transform="matrix(1,0,0,-1.00005,1.4610005,143.16414)" stroke-width=".3985" stroke-linecap="butt" stroke-miterlimit="10" stroke-linejoin="miter" fill="none" stroke="#d5d6d5" d="M11.70552 0V141.36016M35.11656 0V141.36016M58.5276 0V141.36016M105.3497 0V141.36016M128.76074 0V141.36016M152.1718 0V141.36016"/>
<path transform="matrix(1,0,0,-1.00005,1.4610005,143.16414)" stroke-width=".3985" stroke-linecap="butt" stroke-miterlimit="10" stroke-linejoin="miter" fill="none" stroke="#d5d6d5" d="M0 0H163.87732M0 10.09715H163.87732M0 20.1943H163.87732M0 30.29146H163.87732M0 40.38861H163.87732M0 50.48576H163.87732M0 60.58292H163.87732M0 70.68007H163.87732M0 80.77722H163.87732M0 90.87437H163.87732M0 100.97153H163.87732M0 111.06868H163.87732M0 121.16585H163.87732M0 131.263H163.87732M0 141.36016H163.87732"/>
<path transform="matrix(1,0,0,-1.00005,1.4610005,143.16414)" stroke-width=".3985" stroke-linecap="butt" stroke-miterlimit="10" stroke-linejoin="miter" fill="none" stroke="#d5d6d5" d="M0 10.09715H163.87732M0 30.29146H163.87732M0 50.48576H163.87732M0 90.87437H163.87732M0 111.06868H163.87732M0 131.263H163.87732"/>
<path transform="matrix(1,0,0,-1.00005,1.4610005,143.16414)" stroke-width=".19925" stroke-linecap="butt" stroke-miterlimit="10" stroke-linejoin="miter" fill="none" stroke="#929292" d="M0 69.26266V72.09747M11.70552 69.26266V72.09747M23.41104 69.26266V72.09747M35.11656 69.26266V72.09747M46.82208 69.26266V72.09747M58.5276 69.26266V72.09747M70.23314 69.26266V72.09747M81.93866 69.26266V72.09747M93.64418 69.26266V72.09747M105.3497 69.26266V72.09747M117.05522 69.26266V72.09747M128.76074 69.26266V72.09747M140.46628 69.26266V72.09747M152.1718 69.26266V72.09747M163.87732 69.26266V72.09747"/>
<path transform="matrix(1,0,0,-1.00005,1.4610005,143.16414)" stroke-width=".19925" stroke-linecap="butt" stroke-miterlimit="10" stroke-linejoin="miter" fill="none" stroke="#929292" d="M11.70552 68.5542V72.80592M35.11656 68.5542V72.80592M58.5276 68.5542V72.80592M105.3497 68.5542V72.80592M128.76074 68.5542V72.80592M152.1718 68.5542V72.80592"/>
<path transform="matrix(1,0,0,-1.00005,1.4610005,143.16414)" stroke-width=".19925" stroke-linecap="butt" stroke-miterlimit="10" stroke-linejoin="miter" fill="none" stroke="#929292" d="M80.52133 0H83.35599M80.52133 10.09715H83.35599M80.52133 20.1943H83.35599M80.52133 30.29146H83.35599M80.52133 40.38861H83.35599M80.52133 50.48576H83.35599M80.52133 60.58292H83.35599M80.52133 70.68007H83.35599M80.52133 80.77722H83.35599M80.52133 90.87437H83.35599M80.52133 100.97153H83.35599M80.52133 111.06868H83.35599M80.52133 121.16585H83.35599M80.52133 131.263H83.35599M80.52133 141.36016H83.35599"/>
<path transform="matrix(1,0,0,-1.00005,1.4610005,143.16414)" stroke-width=".19925" stroke-linecap="butt" stroke-miterlimit="10" stroke-linejoin="miter" fill="none" stroke="#929292" d="M79.81287 10.09715H84.06442M79.81287 30.29146H84.06442M79.81287 50.48576H84.06442M79.81287 90.87437H84.06442M79.81287 111.06868H84.06442M79.81287 131.263H84.06442"/>
<path transform="matrix(1,0,0,-1.00005,1.4610005,143.16414)" stroke-width=".3985" stroke-linecap="butt" stroke-miterlimit="10" stroke-linejoin="miter" fill="none" stroke="#000000" d="M1.99252 70.68007H161.8848"/>
<path transform="matrix(-1,-0,0,1.00005,3.4535204,72.48054)" d="M1.99252 0-1.19551 1.59401 0 0-1.19551-1.59401"/>
<path transform="matrix(1,0,0,-1.00005,163.3458,72.48054)" d="M1.99252 0-1.19551 1.59401 0 0-1.19551-1.59401"/>
<path transform="matrix(1,0,0,-1.00005,1.4610005,143.16414)" stroke-width=".3985" stroke-linecap="butt" stroke-miterlimit="10" stroke-linejoin="miter" fill="none" stroke="#000000" d="M81.93866 1.99252V139.36763"/>
<path transform="matrix(0,1.00005,1,0,83.39966,141.17153)" d="M1.99252 0-1.19551 1.59401 0 0-1.19551-1.59401"/>
<path transform="matrix(0,-1.00005,-1,-0,83.39966,3.7895509)" d="M1.99252 0-1.19551 1.59401 0 0-1.19551-1.59401"/>
<use data-text="&#x2212;" xlink:href="#font_1_1" transform="matrix(7.9701,0,0,-7.970498,7.7560007,83.26315)"/>
<use data-text="6" xlink:href="#font_2_3" transform="matrix(7.9701,0,0,-7.970498,14.343,83.26315)"/>
<use data-text="&#x2212;" xlink:href="#font_1_1" transform="matrix(7.9701,0,0,-7.970498,31.167,83.26315)"/>
<use data-text="4" xlink:href="#font_2_2" transform="matrix(7.9701,0,0,-7.970498,37.753999,83.26315)"/>
<use data-text="&#x2212;" xlink:href="#font_1_1" transform="matrix(7.9701,0,0,-7.970498,54.578,83.26315)"/>
<use data-text="2" xlink:href="#font_2_1" transform="matrix(7.9701,0,0,-7.970498,61.165,83.26315)"/>
<use data-text="2" xlink:href="#font_2_1" transform="matrix(7.9701,0,0,-7.970498,104.694,83.26315)"/>
<use data-text="4" xlink:href="#font_2_2" transform="matrix(7.9701,0,0,-7.970498,128.105,83.26315)"/>
<use data-text="6" xlink:href="#font_2_3" transform="matrix(7.9701,0,0,-7.970498,151.51599,83.26315)"/>
<use data-text="&#x2212;" xlink:href="#font_1_1" transform="matrix(7.9701,0,0,-7.970498,68.824008,135.21974)"/>
<use data-text="6" xlink:href="#font_2_3" transform="matrix(7.9701,0,0,-7.970498,75.411,135.21974)"/>
<use data-text="&#x2212;" xlink:href="#font_1_1" transform="matrix(7.9701,0,0,-7.970498,68.824008,115.024738)"/>
<use data-text="4" xlink:href="#font_2_2" transform="matrix(7.9701,0,0,-7.970498,75.411,115.024738)"/>
<use data-text="&#x2212;" xlink:href="#font_1_1" transform="matrix(7.9701,0,0,-7.970498,68.824008,94.82872)"/>
<use data-text="2" xlink:href="#font_2_1" transform="matrix(7.9701,0,0,-7.970498,75.411,94.82872)"/>
<use data-text="2" xlink:href="#font_2_1" transform="matrix(7.9701,0,0,-7.970498,75.410999,54.85373)"/>
<use data-text="4" xlink:href="#font_2_2" transform="matrix(7.9701,0,0,-7.970498,75.410999,34.65773)"/>
<use data-text="6" xlink:href="#font_2_3" transform="matrix(7.9701,0,0,-7.970498,75.410999,14.4627079)"/>
<g clip-path="url(#clip_3)">
<path transform="matrix(1,0,0,-1.00005,1.4610005,143.16414)" stroke-width=".99628" stroke-linecap="butt" stroke-miterlimit="10" stroke-linejoin="miter" fill="none" stroke="#9e0c0f" d="M7.58615 79.00037 6.34041 78.46326 12.68082 81.19786 19.02122 83.93246 25.36163 86.6671 31.70206 89.4017 38.04247 92.1363 44.38289 94.87091 50.7233 97.60555 57.0637 100.34015 63.40413 103.07475 69.74454 105.80939 76.08495 108.54399 82.42537 111.2786 88.76578 114.01321 95.1062 116.74783 101.44661 119.48244 107.78702 122.21704 114.12743 124.95164 120.46783 127.68628 126.80827 130.42089 133.14868 133.15549 139.48909 135.8901 145.8295 138.62473 144.58376 138.0876"/>
<path transform="matrix(-.9182,.3960198,.396,.91824588,9.694,63.880838)" d="M7.39124 0 2.37614 1.6717 .70447 0 2.37614-1.6717Z" fill="#9e0c0f"/>
<path transform="matrix(-.9182,.3960198,.396,.91824588,9.694,63.880838)" stroke-width=".99628" stroke-linecap="butt" stroke-miterlimit="10" stroke-linejoin="miter" fill="none" stroke="#9e0c0f" d="M7.39124 0 2.37614 1.6717 .70447 0 2.37614-1.6717Z"/>
<path transform="matrix(.9182,-.3960198,-.396,-.91824588,145.3979,5.3486177)" d="M7.39124 0 2.37614 1.6717 .70447 0 2.37614-1.6717Z" fill="#9e0c0f"/>
<path transform="matrix(.9182,-.3960198,-.396,-.91824588,145.3979,5.3486177)" stroke-width=".99628" stroke-linecap="butt" stroke-miterlimit="10" stroke-linejoin="miter" fill="none" stroke="#9e0c0f" d="M7.39124 0 2.37614 1.6717 .70447 0 2.37614-1.6717Z"/>
<use data-text="y" xlink:href="#font_4_2" transform="matrix(9.147659,-3.9453867,-3.9451895,-9.148116,11.669754,55.12786)" fill="#9e0c0f"/>
<use data-text="=" xlink:href="#font_5_4" transform="matrix(9.147659,-3.9453867,-3.9451895,-9.148116,19.023613,51.95614)" fill="#9e0c0f"/>
<use data-text="1" xlink:href="#font_6_1" transform="matrix(6.4033439,-2.7617629,-2.7616249,-6.403663,28.22406,43.71566)" fill="#9e0c0f"/>
<path transform="matrix(.9182,-.3960198,-.396,-.91824588,-69.998,-87.12435)" stroke-width=".3985" stroke-linecap="butt" stroke-miterlimit="10" stroke-linejoin="miter" fill="none" stroke="#9e0c0f" d="M38.381-160.474H42.352"/>
<use data-text="2" xlink:href="#font_6_2" transform="matrix(6.4033439,-2.7617629,-2.7616249,-6.403663,31.137833,50.472116)" fill="#9e0c0f"/>
<use data-text="x" xlink:href="#font_4_1" transform="matrix(9.147659,-3.9453867,-3.9451895,-9.148116,34.52191,45.27172)" fill="#9e0c0f"/>
<use data-text="+" xlink:href="#font_5_1" transform="matrix(9.147659,-3.9453867,-3.9451895,-9.148116,41.78212,42.14039)" fill="#9e0c0f"/>
<use data-text="4" xlink:href="#font_5_2" transform="matrix(9.147659,-3.9453867,-3.9451895,-9.148116,50.92064,38.198945)" fill="#9e0c0f"/>
<path transform="matrix(1,0,0,-1.00005,1.4610005,143.16414)" stroke-width=".99628" stroke-linecap="butt" stroke-miterlimit="10" stroke-linejoin="miter" fill="none" stroke="#008099" d="M6.25587 85.47816 4.38956 87.08795 8.77913 83.30151 13.1687 79.51508 17.55827 75.72865 21.94785 71.94221 26.33742 68.15578 30.72699 64.36935 35.11656 60.58292 39.50613 56.79648 43.8957 53.01006 48.28528 49.22362 52.67485 45.43718 57.06442 41.65076 61.454 37.86432 65.84357 34.07788 70.23314 30.29146 74.62271 26.50502 79.01227 22.71858 83.40184 18.93216 87.79141 15.14572 92.18098 11.35928 96.57056 7.57286 100.96013 3.78642 99.09381 5.39621"/>
<path transform="matrix(-.75719,-.6531726,-.65314,.75722786,8.2503,58.141847)" d="M7.39124 0 2.37614 1.6717 .70447 0 2.37614-1.6717Z" fill="#008099"/>
<path transform="matrix(-.75719,-.6531726,-.65314,.75722786,8.2503,58.141847)" stroke-width=".99628" stroke-linecap="butt" stroke-miterlimit="10" stroke-linejoin="miter" fill="none" stroke="#008099" d="M7.39124 0 2.37614 1.6717 .70447 0 2.37614-1.6717Z"/>
<path transform="matrix(.75719,.6531726,.65314,-.75722786,100.0214,137.30751)" d="M7.39124 0 2.37614 1.6717 .70447 0 2.37614-1.6717Z" fill="#008099"/>
<path transform="matrix(.75719,.6531726,.65314,-.75722786,100.0214,137.30751)" stroke-width=".99628" stroke-linecap="butt" stroke-miterlimit="10" stroke-linejoin="miter" fill="none" stroke="#008099" d="M7.39124 0 2.37614 1.6717 .70447 0 2.37614-1.6717Z"/>
<use data-text="y" xlink:href="#font_4_2" transform="matrix(7.543581,6.5072977,6.5069725,-7.5439579,25.689209,86.70738)" fill="#008099"/>
<use data-text="=" xlink:href="#font_5_4" transform="matrix(7.543581,6.5072977,6.5069725,-7.5439579,31.75354,91.938648)" fill="#008099"/>
<use data-text="&#x2212;" xlink:href="#font_7_1" transform="matrix(7.543581,6.5072977,6.5069725,-7.5439579,39.71615,98.8074)" fill="#008099"/>
<use data-text="x" xlink:href="#font_4_1" transform="matrix(7.543581,6.5072977,6.5069725,-7.5439579,45.58362,103.86885)" fill="#008099"/>
<use data-text="&#x2212;" xlink:href="#font_7_1" transform="matrix(7.543581,6.5072977,6.5069725,-7.5439579,51.57148,109.034137)" fill="#008099"/>
<use data-text="5" xlink:href="#font_5_3" transform="matrix(7.543581,6.5072977,6.5069725,-7.5439579,59.11536,115.54169)" fill="#008099"/>
<path transform="matrix(1,0,0,-1.00005,1.4610005,143.16414)" stroke-width=".99628" stroke-linecap="butt" stroke-miterlimit="10" stroke-linejoin="miter" fill="none" stroke="#929292" d="M81.93866 111.06868H105.3497V118.27663"/>
<path transform="matrix(0,-1.00005,-1,-0,106.8107,24.881608)" d="M2.8892 0-1.73352 2.31136 0 0-1.73352-2.31136" fill="#929292"/>
<path transform="matrix(1,0,0,-1.00005,1.4610005,143.16414)" stroke-width=".99628" stroke-linecap="butt" stroke-miterlimit="10" stroke-linejoin="miter" fill="none" stroke="#929292" d="M81.93866 111.06868H58.5276V103.86075"/>
<path transform="matrix(0,1.00005,1,0,59.9886,39.298204)" d="M2.8892 0-1.73352 2.31136 0 0-1.73352-2.31136" fill="#929292"/>
<path transform="matrix(1,0,0,-1.00005,1.4610005,143.16414)" stroke-width=".99628" stroke-linecap="butt" stroke-miterlimit="10" stroke-linejoin="miter" fill="none" stroke="#929292" d="M81.93866 20.1943H93.64418V12.98636"/>
<path transform="matrix(0,1.00005,1,0,95.10518,130.17713)" d="M2.8892 0-1.73352 2.31136 0 0-1.73352-2.31136" fill="#929292"/>
<path transform="matrix(1,0,0,-1.00005,1.4610005,143.16414)" stroke-width=".99628" stroke-linecap="butt" stroke-miterlimit="10" stroke-linejoin="miter" fill="none" stroke="#929292" d="M81.93866 20.1943H70.23314V27.40224"/>
<path transform="matrix(0,-1.00005,-1,-0,71.69414,115.76053)" d="M2.8892 0-1.73352 2.31136 0 0-1.73352-2.31136" fill="#929292"/>
</g>
<path transform="matrix(1,0,0,-1.00005,1.4610005,143.16414)" d="M83.93121 111.06868C83.93121 112.16916 83.03912 113.06123 81.93866 113.06123 80.83818 113.06123 79.9461 112.16916 79.9461 111.06868 79.9461 109.96822 80.83818 109.07613 81.93866 109.07613 83.03912 109.07613 83.93121 109.96822 83.93121 111.06868ZM81.93866 111.06868" fill="#9e0c0f"/>
<path transform="matrix(1,0,0,-1.00005,1.4610005,143.16414)" stroke-width=".3985" stroke-linecap="butt" stroke-miterlimit="10" stroke-linejoin="miter" fill="none" stroke="#9e0c0f" d="M83.93121 111.06868C83.93121 112.16916 83.03912 113.06123 81.93866 113.06123 80.83818 113.06123 79.9461 112.16916 79.9461 111.06868 79.9461 109.96822 80.83818 109.07613 81.93866 109.07613 83.03912 109.07613 83.93121 109.96822 83.93121 111.06868ZM81.93866 111.06868"/>
<path transform="matrix(1,0,0,-1.00005,1.4610005,143.16414)" d="M107.34225 121.16585C107.34225 122.26631 106.45018 123.1584 105.3497 123.1584 104.24924 123.1584 103.35715 122.26631 103.35715 121.16585 103.35715 120.06537 104.24924 119.1733 105.3497 119.1733 106.45018 119.1733 107.34225 120.06537 107.34225 121.16585ZM105.3497 121.16585" fill="#9e0c0f"/>
<path transform="matrix(1,0,0,-1.00005,1.4610005,143.16414)" stroke-width=".3985" stroke-linecap="butt" stroke-miterlimit="10" stroke-linejoin="miter" fill="none" stroke="#9e0c0f" d="M107.34225 121.16585C107.34225 122.26631 106.45018 123.1584 105.3497 123.1584 104.24924 123.1584 103.35715 122.26631 103.35715 121.16585 103.35715 120.06537 104.24924 119.1733 105.3497 119.1733 106.45018 119.1733 107.34225 120.06537 107.34225 121.16585ZM105.3497 121.16585"/>
<path transform="matrix(1,0,0,-1.00005,1.4610005,143.16414)" d="M60.52016 100.97153C60.52016 102.072 59.62808 102.96408 58.5276 102.96408 57.42714 102.96408 56.53505 102.072 56.53505 100.97153 56.53505 99.87106 57.42714 98.97897 58.5276 98.97897 59.62808 98.97897 60.52016 99.87106 60.52016 100.97153ZM58.5276 100.97153" fill="#9e0c0f"/>
<path transform="matrix(1,0,0,-1.00005,1.4610005,143.16414)" stroke-width=".3985" stroke-linecap="butt" stroke-miterlimit="10" stroke-linejoin="miter" fill="none" stroke="#9e0c0f" d="M60.52016 100.97153C60.52016 102.072 59.62808 102.96408 58.5276 102.96408 57.42714 102.96408 56.53505 102.072 56.53505 100.97153 56.53505 99.87106 57.42714 98.97897 58.5276 98.97897 59.62808 98.97897 60.52016 99.87106 60.52016 100.97153ZM58.5276 100.97153"/>
<path transform="matrix(1,0,0,-1.00005,1.4610005,143.16414)" stroke-width=".3985" stroke-linecap="butt" stroke-miterlimit="10" stroke-linejoin="miter" fill="none" stroke="#9e0c0f" d=""/>
<path transform="matrix(1,0,0,-1.00005,1.4610005,143.16414)" d="M83.93121 20.1943C83.93121 21.29477 83.03912 22.18686 81.93866 22.18686 80.83818 22.18686 79.9461 21.29477 79.9461 20.1943 79.9461 19.09383 80.83818 18.20175 81.93866 18.20175 83.03912 18.20175 83.93121 19.09383 83.93121 20.1943ZM81.93866 20.1943" fill="#008099"/>
<path transform="matrix(1,0,0,-1.00005,1.4610005,143.16414)" stroke-width=".3985" stroke-linecap="butt" stroke-miterlimit="10" stroke-linejoin="miter" fill="none" stroke="#008099" d="M83.93121 20.1943C83.93121 21.29477 83.03912 22.18686 81.93866 22.18686 80.83818 22.18686 79.9461 21.29477 79.9461 20.1943 79.9461 19.09383 80.83818 18.20175 81.93866 18.20175 83.03912 18.20175 83.93121 19.09383 83.93121 20.1943ZM81.93866 20.1943"/>
<path transform="matrix(1,0,0,-1.00005,1.4610005,143.16414)" d="M95.63673 10.09715C95.63673 11.19762 94.74464 12.0897 93.64418 12.0897 92.5437 12.0897 91.65163 11.19762 91.65163 10.09715 91.65163 8.99667 92.5437 8.1046 93.64418 8.1046 94.74464 8.1046 95.63673 8.99667 95.63673 10.09715ZM93.64418 10.09715" fill="#008099"/>
<path transform="matrix(1,0,0,-1.00005,1.4610005,143.16414)" stroke-width=".3985" stroke-linecap="butt" stroke-miterlimit="10" stroke-linejoin="miter" fill="none" stroke="#008099" d="M95.63673 10.09715C95.63673 11.19762 94.74464 12.0897 93.64418 12.0897 92.5437 12.0897 91.65163 11.19762 91.65163 10.09715 91.65163 8.99667 92.5437 8.1046 93.64418 8.1046 94.74464 8.1046 95.63673 8.99667 95.63673 10.09715ZM93.64418 10.09715"/>
<path transform="matrix(1,0,0,-1.00005,1.4610005,143.16414)" d="M72.2257 30.29146C72.2257 31.39192 71.3336 32.28401 70.23314 32.28401 69.13266 32.28401 68.24059 31.39192 68.24059 30.29146 68.24059 29.19098 69.13266 28.2989 70.23314 28.2989 71.3336 28.2989 72.2257 29.19098 72.2257 30.29146ZM70.23314 30.29146" fill="#008099"/>
<path transform="matrix(1,0,0,-1.00005,1.4610005,143.16414)" stroke-width=".3985" stroke-linecap="butt" stroke-miterlimit="10" stroke-linejoin="miter" fill="none" stroke="#008099" d="M72.2257 30.29146C72.2257 31.39192 71.3336 32.28401 70.23314 32.28401 69.13266 32.28401 68.24059 31.39192 68.24059 30.29146 68.24059 29.19098 69.13266 28.2989 70.23314 28.2989 71.3336 28.2989 72.2257 29.19098 72.2257 30.29146ZM70.23314 30.29146"/>
<path transform="matrix(1,0,0,-1.00005,1.4610005,143.16414)" stroke-width=".3985" stroke-linecap="butt" stroke-miterlimit="10" stroke-linejoin="miter" fill="none" stroke="#008099" d=""/>
<use data-text="x" xlink:href="#font_4_1" transform="matrix(9.9626,0,0,-9.963098,156.125,68.960437)"/>
<use data-text="y" xlink:href="#font_4_2" transform="matrix(9.9626,0,0,-9.963098,86.91901,9.606476)"/>
</svg>
