<svg xmlns="http://www.w3.org/2000/svg" xmlns:xlink="http://www.w3.org/1999/xlink" version="1.1" width="378" height="140" viewBox="0 0 378 140">
<defs>
<path id="font_1_107" d="M.47698976 .17900086H.44599916C.44299317 .15899658 .43499757 .10899353 .4229889 .08999634 .4169922 .08198547 .34098817 .08198547 .32499696 .08198547H.14698792L.28199769 .20399475C.2979889 .2190094 .33999635 .2519989 .35598756 .26600648 .41799928 .3230133 .47698976 .37802125 .47698976 .46902467 .47698976 .58802798 .3769989 .66503909 .2519989 .66503909 .13198853 .6651764 .052993776 .574173 .052993776 .48516847 .052993776 .4361725 .09199524 .4291687 .10598755 .4291687 .1269989 .4291687 .1579895 .4441681 .1579895 .48217774 .1579895 .5341797 .10798645 .5341797 .09599304 .5341797 .125 .6070709 .19198609 .6320343 .24099732 .6320343 .33399964 .6320343 .38198854 .55314639 .38198854 .46917726 .38198854 .36517335 .30899049 .2891693 .19099427 .16816712L.06498718 .03817749C.052993776 .026992798 .052993776 .024993897 .052993776 0H.44799806L.47698976 .17900086Z"/>
<path id="font_1_121" d="M.4889984 .31877137C.4889984 .42585755 .47799684 .49090577 .44499208 .55496218 .40098573 .6430359 .31999208 .66503909 .2649994 .66503909 .13899231 .66503909 .09298706 .5709839 .07899475 .5429535 .042999269 .4698944 .040985109 .3708191 .040985109 .31877137 .040985109 .25271607 .04399109 .15162659 .09199524 .07156372 .13798523-.0024871827 .21199036-.021484375 .2649994-.021484375 .31298829-.021484375 .39898683-.0064849855 .44898988 .09257507 .48599244 .16464234 .4889984 .2537079 .4889984 .31877137M.3999939 .33078004C.3999939 .27172853 .3999939 .18165589 .3880005 .12561035 .36698915 .020523072 .2979889 .006515503 .2649994 .006515503 .23098755 .006515503 .1619873 .022521973 .14099121 .12760926 .12998963 .18466187 .12998963 .2787323 .12998963 .33078004 .12998963 .3998413 .12998963 .4698944 .14099121 .5249481 .1619873 .6270294 .23999024 .6370239 .2649994 .6370239 .29899598 .6370239 .36799623 .62002566 .3880005 .5289459 .3999939 .4738922 .3999939 .39883424 .3999939 .33078004Z"/>
<path id="font_1_56" d="M.47698976 .19924927C.47698976 .31576539 .3929901 .4189453 .2749939 .4189453 .22499085 .4189453 .17799378 .40293885 .13999939 .36886598V.5618439C.15299988 .55784609 .19299317 .54785159 .23498535 .54785159 .3600006 .54785159 .43598939 .63586428 .43598939 .6509552 .43598939 .6620178 .42900086 .66503909 .42399598 .66503909 .42399598 .66503909 .41999818 .66503909 .41099549 .66000369 .37199403 .6449127 .32598878 .632843 .27198792 .632843 .21299744 .632843 .1639862 .64793398 .1329956 .66000369 .12298584 .66503909 .11999512 .66503909 .11999512 .66503909 .10699463 .66503909 .10699463 .6539612 .10699463 .63586428V.34277345C.10699463 .32476808 .10699463 .3127594 .12298584 .3127594 .1309967 .3127594 .13398743 .31677247 .13899231 .32476808 .15098572 .33976747 .18899536 .39093019 .27398683 .39093019 .32998658 .39093019 .35699464 .34477235 .3659973 .3257599 .3829956 .2896576 .3849945 .24345398 .3849945 .20426941 .3849945 .16725159 .38398744 .11325073 .35598756 .069366458 .33699037 .03942871 .29699708 .008514404 .24398804 .008514404 .1789856 .008514404 .114990238 .04940796 .09199524 .11425781 .09498596 .11387634 .101989749 .11387634 .101989749 .11387634 .12998963 .11387634 .1519928 .13188172 .1519928 .16288758 .1519928 .19989014 .12298584 .21289063 .102996829 .21289063 .084991458 .21289063 .052993776 .20288086 .052993776 .15988159 .052993776 .069732669 .1309967-.021484375 .24598694-.021484375 .37098695-.021743775 .47698976 .07525635 .47698976 .19924927Z"/>
<path id="font_1_82" d="M.44699098 0V.032989503H.4119873C.31698609 .032989503 .31399537 .04499817 .31399537 .08203125V.6371765C.31399537 .664032 .31199647 .66503909 .2849884 .66503909 .24398804 .6252289 .19099427 .6013489 .09599304 .6013489V.5683594C.12298584 .5683594 .1769867 .5683594 .23498535 .5953522V.08203125C.23498535 .04499817 .23199463 .032989503 .13699341 .032989503H.101989749V0C.14299011 .0029907227 .22898865 .0029907227 .27398683 .0029907227 .31900025 .0029907227 .4059906 .0029907227 .44699098 0Z"/>
<path id="font_2_2" d="M.28199769 .20405579C.2979889 .21907044 .33999635 .2520752 .35598756 .26608277 .41799928 .32312013 .47698976 .3781433 .47698976 .46917726 .47698976 .588089 .3769989 .66503909 .2519989 .66503909 .13198853 .66503909 .052993776 .57411196 .052993776 .48516847 .052993776 .4361725 .09199524 .4291687 .10598755 .4291687 .1269989 .4291687 .1579895 .4441681 .1579895 .48217774 .1579895 .5341797 .10798645 .5341797 .09599304 .5341797 .125 .6070709 .19198609 .6320343 .24099732 .6320343 .33399964 .6320343 .38198854 .55314639 .38198854 .46917726 .38198854 .36514283 .30899049 .28910829 .19099427 .16804505L.06498718 .037994386C.052993776 .026992798 .052993776 .024993897 .052993776 0H.44799806L.47698976 .17904663H.44599916C.44299317 .1590271 .43499757 .10900879 .4229889 .08999634 .4169922 .08198547 .34098817 .08198547 .32499696 .08198547H.14698792L.28199769 .20405579Z"/>
<path id="font_2_1" d="M.4889984 .31877137C.4889984 .42585755 .47799684 .49090577 .44499208 .55496218 .40098573 .6430359 .31999208 .66503909 .2649994 .66503909 .13899231 .66503909 .09298706 .5709839 .07899475 .5429535 .042999269 .4698944 .040985109 .3708191 .040985109 .31877137 .040985109 .25271607 .04399109 .15162659 .09199524 .07156372 .13798523-.0024871827 .21199036-.021484375 .2649994-.021484375 .31298829-.021484375 .39898683-.0064849855 .44898988 .09257507 .48599244 .16464234 .4889984 .2537079 .4889984 .31877137M.2649994 .006515503C.23098755 .006515503 .1619873 .022521973 .14099121 .12760926 .12998963 .18466187 .12998963 .2787323 .12998963 .33078004 .12998963 .3998413 .12998963 .4698944 .14099121 .5249481 .1619873 .6270294 .23999024 .6370239 .2649994 .6370239 .29899598 .6370239 .36799623 .62002566 .3880005 .5289459 .3999939 .4738922 .3999939 .39883424 .3999939 .33078004 .3999939 .27172853 .3999939 .18165589 .3880005 .12561035 .36698915 .020523072 .2979889 .006515503 .2649994 .006515503Z"/>
<path id="font_3_1" d="M.18699646 .01499939C.18699646-.050109865 .17298889-.10720825 .11099243-.16934204 .10699463-.17234802 .10499573-.17434693 .10499573-.17933655 .10499573-.18734741 .11299133-.19334412 .11999512-.19334412 .13198853-.19334412 .21499634-.114227298 .21499634 .0029907227 .21499634 .066986087 .19099427 .11099243 .14698792 .11099243 .11199951 .11099243 .09199524 .08299255 .09199524 .055999757 .09199524 .027999878 .11099243 0 .147995 0 .17199707 0 .18699646 .01399231 .18699646 .01499939Z"/>
<path id="font_2_3" d="M.13999939 .5618439C.15299988 .55784609 .19299317 .54785159 .23498535 .54785159 .3600006 .54785159 .43598939 .6358948 .43598939 .6510315 .43598939 .6620331 .42900086 .66503909 .42399598 .66503909 .42199708 .66503909 .41999818 .66503909 .41099549 .6600342 .37199403 .6450348 .32598878 .632843 .27198792 .632843 .21299744 .632843 .1639862 .6480255 .1329956 .6600342 .12298584 .66503909 .12098694 .66503909 .11999512 .66503909 .10699463 .66503909 .10699463 .6540375 .10699463 .6358948V.34292604C.10699463 .32492066 .10699463 .312912 .12298584 .312912 .1309967 .312912 .13398743 .3169098 .13899231 .32492066 .15098572 .33992005 .18899536 .39093019 .27398683 .39093019 .32998658 .39093019 .35699464 .34492494 .3659973 .32591249 .3829956 .28990174 .3849945 .24389649 .3849945 .20487976 .3849945 .1678772 .38398744 .11387634 .35598756 .069732669 .33699037 .039611818 .29699708 .008514404 .24398804 .008514404 .1789856 .008514404 .114990238 .0496521 .09199524 .11488342 .09498596 .11387634 .100997928 .11387634 .101989749 .11387634 .12998963 .11387634 .1519928 .13188172 .1519928 .16288758 .1519928 .19989014 .12298584 .21289063 .102996829 .21289063 .084991458 .21289063 .052993776 .20288086 .052993776 .15988159 .052993776 .069732669 .1309967-.021484375 .24598694-.021484375 .37098695-.021484375 .47698976 .07574463 .47698976 .19989014 .47698976 .31591798 .3929901 .4189453 .2749939 .4189453 .22499085 .4189453 .17799378 .40293885 .13999939 .368927V.5618439Z"/>
<path id="font_4_96" d="M.3639984 .38137818C.3639984 .41337586 .33299256 .4423828 .2899933 .4423828 .21699524 .4423828 .18099976 .37538148 .16699219 .3323822V.4423828L.027999878 .43066407V.3996582C.09799194 .3996582 .10598755 .39266969 .10598755 .34370423V.07595825C.10598755 .0309906 .09498596 .0309906 .027999878 .0309906V0L.14199829 .0029907227C.18199158 .0029907227 .22898865 .0029907227 .2689972 0V.0309906H.24798584C.17399597 .0309906 .17199707 .04197693 .17199707 .07795715V.23181153C.17199707 .33137513 .21398926 .42037965 .2899933 .42037965 .29699708 .42037965 .29899598 .42037965 .30099488 .41937257 .2979889 .41838075 .27799989 .40637208 .27799989 .3803711 .27799989 .35237123 .29899598 .33737184 .32099916 .33737184 .33898927 .33737184 .3639984 .3493805 .3639984 .38137818Z"/>
<path id="font_4_28" d="M.48298646 .08912659V.14511109H.45799256V.08912659C.45799256 .03112793 .43299867 .025131226 .42199708 .025131226 .3889923 .025131226 .3849945 .070129398 .3849945 .07511902V.27508546C.3849945 .31707765 .3849945 .3560791 .34899903 .39312745 .30999757 .43223573 .2599945 .4482422 .21199036 .4482422 .12998963 .4482422 .06098938 .40115357 .06098938 .335083 .06098938 .30508424 .08099365 .28808595 .10699463 .28808595 .1349945 .28808595 .15299988 .30807496 .15299988 .33407594 .15299988 .3460846 .147995 .37908937 .101989749 .38008119 .1289978 .41519166 .17799378 .426239 .20999146 .426239 .25898744 .426239 .31599427 .38710023 .31599427 .29808045V.26107789C.2649994 .25808717 .19499207 .25508119 .13198853 .22509766 .056991579 .19110108 .03199768 .13911438 .03199768 .09512329 .03199768 .014251709 .1289978-.0107421879 .19198609-.0107421879 .2579956-.0107421879 .3039856 .029251099 .32299806 .07624817 .32699586 .036132814 .35398866-.005859375 .40098573-.005859375 .42199708-.005859375 .48298646 .008132935 .48298646 .08912659M.31599427 .14013672C.31599427 .04525757 .24398804 .011245728 .19898987 .011245728 .1499939 .011245728 .10899353 .04624939 .10899353 .09625244 .10899353 .15124512 .15098572 .23425293 .31599427 .24024964V.14013672Z"/>
<path id="font_4_105" d="M.33198548 .12385559V.18066406H.30699159V.12585449C.30699159 .052108766 .2769928 .014251709 .23999024 .014251709 .17298889 .014251709 .17298889 .10491943 .17298889 .12187195V.3996582H.31599427V.43066407H.17298889V.6142578H.147995C.14698792 .5324249 .116989139 .42565919 .018997193 .42166139V.3996582H.10398865V.12408447C.10398865 .0012512207 .19699097-.0107421879 .23298645-.0107421879 .3039856-.0107421879 .33198548 .060180665 .33198548 .12408447V.12385559Z"/>
<path id="font_4_50" d="M.4149933 .11933899C.4149933 .12934876 .40699769 .13134766 .4019928 .13134766 .3929901 .13134766 .3909912 .12535095 .3889923 .11734009 .35398866 .014251709 .2639923 .014251709 .2539978 .014251709 .20399475 .014251709 .1639862 .044281007 .14099121 .08131409 .11099243 .12934876 .11099243 .19540406 .11099243 .23144531H.3899994C.4119873 .23144531 .4149933 .23144531 .4149933 .2524414 .4149933 .35131837 .36099244 .4482422 .23599243 .4482422 .11999512 .4482422 .027999878 .34532167 .027999878 .22042847 .027999878 .08631897 .1329956-.0107421879 .24798584-.0107421879 .36999513-.0107421879 .4149933 .10032654 .4149933 .11933899M.34899903 .2524414H.11199951C.117996219 .40126039 .20199585 .426239 .23599243 .426239 .33898927 .426239 .34899903 .2913971 .34899903 .2524414Z"/>
<path id="font_5_2" d="M.1269989 .07699585 .23298645 .18003845C.3889923 .31811524 .44898988 .3721466 .44898988 .47216798 .44898988 .5860901 .35899354 .6660156 .23699951 .6660156 .12399292 .6660156 .049987794 .57411196 .049987794 .48516847 .049987794 .4291687 .099990848 .4291687 .102996829 .4291687 .11999512 .4291687 .15499878 .44117738 .15499878 .48217774 .15499878 .5081787 .13699341 .5341797 .101989749 .5341797 .09399414 .5341797 .09199524 .5341797 .08898926 .5331726 .11199951 .59806826 .1659851 .63500979 .22399903 .63500979 .31498719 .63500979 .35798646 .5541382 .35798646 .47216798 .35798646 .39215089 .30799867 .31311036 .25299073 .25108338L.06098938 .036987306C.049987794 .025985718 .049987794 .023986817 .049987794 0H.42099L.44898988 .17404175H.42399598C.4189911 .14402771 .4119873 .1000061 .4019928 .084991458 .394989 .07699585 .32899476 .07699585 .30699159 .07699585H.1269989Z"/>
<path id="font_5_3" d="M.2939911 .16503906V.07800293C.2939911 .041992189 .2919922 .0309906 .21798706 .0309906H.19699097V0C.23799134 .0029907227 .2899933 .0029907227 .33198548 .0029907227 .37399293 .0029907227 .4269867 .0029907227 .46798707 0V.0309906H.44699098C.37298585 .0309906 .37098695 .041992189 .37098695 .07800293V.16503906H.47099305V.19602967H.37098695V.65075686C.37098695 .67074587 .37098695 .6767578 .35499574 .6767578 .34599305 .6767578 .34298707 .6767578 .33499146 .66474917L.027999878 .19602967V.16503906H.2939911M.2999878 .19602967H.055999757L.2999878 .5688019V.19602967Z"/>
<path id="font_6_1" d="M.19198609 .052993776C.19198609 .08198547 .16799927 .10598755 .13899231 .10598755 .10998535 .10598755 .085998538 .08198547 .085998538 .052993776 .085998538 .023986817 .10998535 0 .13899231 0 .16799927 0 .19198609 .023986817 .19198609 .052993776Z"/>
<path id="font_5_5" d="M.36698915 .31781007V.28579713C.36698915 .05178833 .2630005 .0055389406 .20498657 .0055389406 .18798828 .0055389406 .13398743 .007537842 .10699463 .041778566 .15098572 .041778566 .15899658 .07078552 .15899658 .08778381 .15899658 .118774417 .1349945 .13378906 .11299133 .13378906 .09700012 .13378906 .066986087 .12478638 .066986087 .08578491 .066986087 .018615723 .12098694-.022460938 .20599365-.022460938 .33499146-.022460938 .45700074 .11378479 .45700074 .32881166 .45700074 .5979767 .34199525 .6660156 .25299073 .6660156 .19799805 .6660156 .14898682 .64801028 .10598755 .60298159 .06498718 .5579529 .041992189 .5159302 .041992189 .44088746 .041992189 .31581117 .12998963 .21777344 .24198914 .21777344 .30299378 .21777344 .34399415 .25978089 .36698915 .31781007M.24299622 .24076844C.22698975 .24076844 .18099976 .24076844 .1499939 .3038025 .13198853 .3408203 .13198853 .39085389 .13198853 .43988038 .13198853 .49391175 .13198853 .54093936 .15299988 .5779724 .17999268 .6279907 .21798706 .64100649 .25299073 .64100649 .29899598 .64100649 .33198548 .60697939 .34899903 .5619507 .36099244 .52993777 .36499024 .4669037 .36499024 .42086793 .36499024 .3378296 .33099366 .24076844 .24299622 .24076844Z"/>
<path id="font_7_47" d="M.58099368 0V.035995485C.5139923 .035995485 .5059967 .042999269 .5059967 .09202576V.69433596L.35598756 .6826172V.64660647C.4229889 .64660647 .43099977 .6396332 .43099977 .5908203V.3843689C.3939972 .4203949 .34599305 .44140626 .29100038 .44140626 .1579895 .44140626 .04598999 .34132386 .04598999 .21520996 .04598999 .09008789 .1519928-.009765625 .2789917-.009765625 .36099244-.009765625 .4099884 .03414917 .4269867 .05206299V-.009765625L.58099368 0M.4269867 .10499573C.40098573 .05807495 .34999085 .018234253 .2849884 .018234253 .22898865 .018234253 .18899536 .051071168 .16899109 .080078128 .14898682 .11010742 .13699341 .15014649 .13699341 .21421814 .13699341 .23724365 .13699341 .3123169 .17799378 .35932923 .21798706 .40438844 .2669983 .4133911 .29599 .4133911 .34399415 .4133911 .3869934 .39137269 .4149933 .35533143 .4269867 .33932496 .4269867 .33833314 .4269867 .31933595V.10499573Z"/>
<path id="font_7_66" d="M.27398683 0V.035995485C.21598816 .035995485 .20599365 .035995485 .20599365 .07803345V.44140626L.05899048 .43052674V.39453126C.12199402 .39453126 .1309967 .3885193 .1309967 .33952333V.07952881C.1309967 .035995485 .12098694 .035995485 .055999757 .035995485V0C.055999757 0 .12799073 .0039978029 .16799927 .0039978029 .20298767 .0039978029 .23899842 .0029907227 .27398683 0M.21899414 .60214236C.21899414 .6341553 .19400025 .66015627 .1619873 .66015627 .12799073 .66015627 .10499573 .6321411 .10499573 .6031494 .10499573 .57115176 .12998963 .54515078 .1619873 .54515078 .19599915 .54515078 .21899414 .57315066 .21899414 .60214236Z"/>
<path id="font_7_28" d="M.5439911 .09013367V.14515686H.5099945V.09114075C.5099945 .08113098 .5099945 .033111574 .47299195 .033111574 .43598939 .033111574 .43598939 .0801239 .43598939 .09313965V.268219C.43598939 .3212433 .43598939 .35925294 .3899994 .39627076 .34899903 .4302826 .30099488 .44628907 .24198914 .44628907 .14698792 .44628907 .07998657 .41027833 .07998657 .34925843 .07998657 .31723023 .101989749 .30023194 .12799073 .30023194 .15499878 .30023194 .1749878 .3202362 .1749878 .34724427 .1749878 .3642578 .16699219 .38526917 .13999939 .39326478 .17599488 .41827394 .23399353 .41827394 .23999024 .41827394 .29599 .41827394 .35699464 .38127137 .35699464 .29722596V.2662201C.3019867 .26420594 .23599243 .2612152 .16299439 .23420716 .07299805 .20118714 .04499817 .14616394 .04499817 .101135257 .04499817 .0152282719 .14898682-.009765625 .21998596-.009765625 .2999878-.009765625 .34700013 .035232545 .36799623 .07423401 .37199403 .033111574 .39898683-.0048828127 .44499208-.0048828127 .44499208-.0048828127 .5439911-.0048828127 .5439911 .09010315V.09013367M.35699464 .14111328C.35699464 .04522705 .272995 .018234253 .22799683 .018234253 .1769867 .018234253 .1289978 .052230836 .1289978 .10122681 .1289978 .15621948 .1769867 .23323059 .35699464 .24023438V.14111328Z"/>
<path id="font_7_59" d="M.54499819 .40040589C.54499819 .42340089 .526001 .45140077 .48599244 .45140077 .47099305 .45140077 .4169922 .44839479 .36999513 .4053955 .33999635 .42739869 .2979889 .44140626 .2539978 .44140626 .15098572 .44140626 .07598877 .372406 .07598877 .29440309 .07598877 .2554016 .09599304 .21939087 .12399292 .19340515 .115997318 .18440247 .09399414 .1513977 .09399414 .11239624 .09399414 .09939575 .09700012 .05239868 .13598633 .023391724 .09098816 .0082092289 .038986207-.024841309 .038986207-.076934818 .038986207-.15003968 .14898682-.20507813 .28399659-.20507813 .41099549-.20507813 .5289917-.15505982 .5289917-.074920658 .5289917-.0448761 .5169983 .00920105 .46199037 .039260866 .40299989 .0703125 .34399415 .0703125 .24699402 .0703125 .22499085 .0703125 .18899536 .0703125 .18099976 .07130432 .14898682 .078308109 .1309967 .108306888 .1309967 .13729859 .1309967 .16246033 .13798523 .17045594 .14399719 .17845154 .15899658 .16944885 .19499207 .14746094 .25299073 .14746094 .35598756 .14746094 .43099977 .21644593 .43099977 .29444886 .43099977 .33345033 .41299439 .36445619 .3889923 .39045716 .43399049 .42245484 .47299195 .42344667 .48999024 .42344667 .48599244 .41944886 .48098756 .41545106 .48098756 .39945985 .48098756 .37945558 .49598695 .3674469 .5130005 .3674469 .5269928 .3674469 .54499819 .37745667 .54499819 .40045167V.40040589M.35099793 .29444886C.35099793 .27845765 .35099793 .2384491 .33099366 .21244812 .31698609 .19544983 .2899933 .17745972 .2539978 .17745972 .1559906 .17720032 .1559906 .2732849 .1559906 .29429627 .1559906 .310318 .1559906 .3503418 .17599488 .3763733 .18998719 .39338685 .21699524 .4113922 .25299073 .4113922 .35099793 .4113922 .35099793 .31532289 .35099793 .29429627V.29444886M.46798707-.07600403C.46798707-.12904358 .3889923-.17507935 .28399659-.17507935 .1789856-.17507935 .099990848-.12808228 .099990848-.07608032 .099990848-.04107666 .13198853 .0019226074 .19599915 .0029296876H.2539978C.34298707 .0029296876 .46798707 .0029296876 .46798707-.07608032V-.07600403Z"/>
<path id="font_7_77" d="M.58999636 0V.035995485C.5249939 .035995485 .5149994 .035995485 .5149994 .07904053V.3032837C.5149994 .3903656 .47200013 .44140626 .36499024 .44140626 .2829895 .44140626 .22999573 .39637757 .20199585 .34432984H.20098877V.44140626L.053985597 .43052674V.39453126C.12098694 .39453126 .1289978 .3875122 .1289978 .33843995V.079055789C.1289978 .035995485 .11898804 .035995485 .053985597 .035995485V0C.053985597 0 .12599182 .0039978029 .16799927 .0039978029 .20498657 .0039978029 .27398683 .0009918213 .2829895 0V.035995485C.21798706 .035995485 .20799256 .035995485 .20799256 .079055789V.25932313C.20799256 .36434938 .29100038 .4133911 .35699464 .4133911 .4269867 .4133911 .43598939 .3583374 .43598939 .3072815V.07904053C.43598939 .035995485 .42599488 .035995485 .36099244 .035995485V0C.36099244 0 .43299867 .0039978029 .47499085 .0039978029 .5119934 .0039978029 .58099368 .0009918213 .58999636 0Z"/>
<path id="font_7_81" d="M.5289917 .21325684C.5289917 .3382721 .42199708 .44628907 .28399659 .44628907 .1459961 .44628907 .038986207 .3382721 .038986207 .21325684 .038986207 .0892334 .14898682-.009765625 .28399659-.009765625 .4189911-.009765625 .5289917 .0892334 .5289917 .21325684M.43798829 .22225952C.43798829 .17424011 .43499757 .12124634 .4059906 .08023071 .3789978 .042236329 .33299256 .022232056 .28399659 .022232056 .24699402 .022232056 .19299317 .034225465 .1599884 .083236698 .1329956 .12423706 .12998963 .17625427 .12998963 .22225952 .12998963 .2652588 .1309967 .32426454 .1659851 .36727906 .19099427 .39627076 .23298645 .41827394 .28399659 .41827394 .34298707 .41827394 .3849945 .39027406 .40699769 .3592682 .43499757 .32026673 .43798829 .27026368 .43798829 .22225952Z"/>
<path id="font_7_98" d="M.40699769 .1315155C.40699769 .1694336 .3899994 .1993866 .3639984 .2233429 .32598878 .25827027 .27999879 .2662506 .24499512 .2722473 .16499329 .28622438 .099990848 .29818727 .099990848 .35113526 .099990848 .38320924 .1269989 .422287 .22200012 .422287 .33799745 .422287 .34298707 .34114076 .34498597 .3121643 .34599305 .30119325 .35798646 .30119325 .3619995 .30119325 .3789978 .30119325 .3789978 .30818177 .3789978 .32714845V.42027284C.3789978 .43728639 .3789978 .44628907 .36499024 .44628907 .3600006 .44628907 .35798646 .44628907 .34498597 .4342804 .34298707 .43328858 .33299256 .4242859 .32699586 .419281 .29699708 .4402771 .25898744 .44628907 .22200012 .44628907 .07899475 .44628907 .04499817 .3711853 .04499817 .32115174 .04499817 .2892151 .05899048 .2632599 .08299255 .24330139 .12098694 .21035767 .15899658 .20336914 .22099304 .1933899 .2709961 .18440247 .35198976 .17044068 .35198976 .103515628 .35198976 .06437683 .32499696 .018234253 .22898865 .018234253 .1329956 .018234253 .09799194 .08143616 .07998657 .1494751 .07699585 .16244507 .07598877 .16644287 .06199646 .16644287 .04499817 .16644287 .04499817 .15945435 .04499817 .13949585V.016220093C.04499817-.00077819827 .04499817-.009765625 .05899048-.009765625 .067993167-.009765625 .08699036 .011230469 .10699463 .03327942 .15098572-.0077667238 .20498657-.009765625 .22898865-.009765625 .35899354-.009765625 .40699769 .06036377 .40699769 .1315155Z"/>
<path id="font_7_50" d="M.46798707 .12036133C.46798707 .12435913 .46598817 .13438416 .45098878 .13438416 .43798829 .13438416 .43598939 .12837219 .43299867 .11836243 .4019928 .037246705 .32598878 .022232056 .2899933 .022232056 .24299622 .022232056 .19799805 .043258668 .16799927 .08131409 .1309967 .12837219 .12998963 .18945313 .12998963 .22851563H.43998719C.46099855 .22851563 .46798707 .22851563 .46798707 .25050355 .46798707 .33839417 .4189911 .44628907 .269989 .44628907 .13899231 .44628907 .038986207 .34239198 .038986207 .21949768 .038986207 .092315677 .1499939-.009765625 .2829895-.009765625 .41799928-.009765625 .46798707 .09832764 .46798707 .12036133M.397995 .25450135H.1309967C.14199829 .39530946 .23199463 .41827394 .269989 .41827394 .3929901 .41827394 .39698792 .27947999 .397995 .25450135Z"/>
<path id="font_7_118" d="M.56799319 .39465333V.43066407C.5399933 .4286499 .5209961 .426651 .49198915 .426651 .46499635 .426651 .42799378 .42765809 .40098573 .43066407V.39465333C.43399049 .39265443 .44198609 .3726654 .44198609 .3566742 .44198609 .3446808 .43699647 .33569337 .43299867 .32569886L.32199098 .08883667 .19898987 .3526764C.19599915 .3586731 .19299317 .3646698 .19299317 .37167359 .19299317 .39465333 .22698975 .39465333 .24398804 .39465333V.43066407L.1289978 .426651C.09899902 .426651 .05999756 .42765809 .0309906 .43066407V.39465333C.08699036 .39465333 .09799194 .3916626 .11299133 .35968019L.2809906-.00012207031C.27198792-.020111084 .2619934-.039093019 .25299073-.05908203 .23098755-.10707092 .19898987-.17610169 .1309967-.17610169 .10598755-.17610169 .09799194-.1710968 .08799744-.1640625 .08799744-.16397095 .116989139-.15396118 .116989139-.12097168 .116989139-.096069339 .09899902-.078063968 .07398987-.078063968 .04798889-.078063968 .02999878-.096069339 .02999878-.12207031 .02999878-.16908264 .07699585-.20410156 .1309967-.20410156 .21598816-.20396424 .2649994-.114974979 .2789917-.08496094L.47299195 .33270265C.5009918 .3936615 .5519867 .39465333 .56799319 .39465333Z"/>
<path id="font_7_96" d="M.40699769 .37739564C.40699769 .4113922 .375 .44140626 .32798768 .44140626 .27799989 .44140626 .22299195 .4104004 .19299317 .33439637H.19198609V.44140626L.04899597 .43052674V.39453126C.115997318 .39453126 .12399292 .3875122 .12399292 .33843995V.079055789C.12399292 .035995485 .11399841 .035995485 .04899597 .035995485V0C.053985597 0 .12199402 .0039978029 .16299439 .0039978029L.29299928 0V.035995485H.272995C.19898987 .036071779 .19898987 .047073366 .19898987 .081085208V.22807312C.19898987 .31207276 .23799134 .41308595 .33299256 .41308595 .32398988 .40608216 .31599427 .39308167 .31599427 .3770752 .31599427 .3440857 .34199525 .3310852 .36099244 .3310852 .3849945 .3310852 .40699769 .34707643 .40699769 .3770752V.37739564Z"/>
<path id="font_8_1" d="M.6589966 .23046875C.6759949 .23046875 .69400027 .23046875 .69400027 .25045777 .69400027 .27046205 .6759949 .27046205 .6589966 .27046205H.117996219C.100997928 .27046205 .08299255 .27046205 .08299255 .25045777 .08299255 .23046875 .100997928 .23046875 .117996219 .23046875H.6589966Z"/>
<path id="font_5_1" d="M.45999146 .31976319C.45999146 .39982606 .45498658 .47988893 .41999818 .5539398 .37399293 .65000918 .2919922 .6660156 .25 .6660156 .18998719 .6660156 .116989139 .64001467 .07598877 .54693606 .04399109 .47789 .038986207 .39982606 .038986207 .31976319 .038986207 .24472046 .042999269 .15464783 .083999637 .07859802 .1269989-.0024719239 .19999695-.022460938 .24899292-.022460938 .30299378-.022460938 .3789978-.0014648438 .4229889 .09359741 .45498658 .16265869 .45999146 .2407074 .45999146 .31976319M.24899292-.00047302247C.20999146-.00047302247 .15098572 .024551392 .1329956 .12062073 .12199402 .18066406 .12199402 .2727356 .12199402 .3317871 .12199402 .39582826 .12199402 .46188355 .12998963 .5159149 .14898682 .63500979 .22399903 .64401248 .24899292 .64401248 .28199769 .64401248 .34799195 .6259918 .36698915 .52693179 .3769989 .47088624 .3769989 .39482118 .3769989 .3317871 .3769989 .25672914 .3769989 .18867493 .3659973 .12461853 .35099793 .029556275 .2939911-.00047302247 .24899292-.00047302247Z"/>
<path id="font_5_4" d="M.13198853 .327713V.35173036C.13198853 .6047821 .2559967 .64100649 .30699159 .64100649 .33099366 .64100649 .37298585 .634964 .394989 .6007538 .37998963 .6007538 .33999635 .6007538 .33999635 .5557556 .33999635 .524765 .3639984 .5097656 .38598634 .5097656 .4019928 .5097656 .43199159 .51875308 .43199159 .5577545 .43199159 .6178589 .3880005 .6660156 .30499269 .6660156 .1769867 .6660156 .041992189 .5367584 .041992189 .31570436 .041992189 .048553468 .1579895-.022460938 .25099183-.022460938 .3619995-.022460938 .45700074 .07156372 .45700074 .2036438 .45700074 .33070375 .36799623 .4267578 .25698854 .4267578 .18899536 .4267578 .1519928 .37573243 .13198853 .327713M.25099183 .0055389406C.18798828 .0055389406 .1579895 .06556702 .1519928 .080566409 .13398743 .127594 .13398743 .2076416 .13398743 .22564698 .13398743 .30369569 .1659851 .40374757 .2559967 .40374757 .27198792 .40374757 .31799317 .40374757 .34899903 .34172059 .36698915 .30470277 .36698915 .2536621 .36698915 .20463562 .36698915 .15661621 .36698915 .10658264 .34999085 .0705719 .31999208 .010528564 .27398683 .0055389406 .25099183 .0055389406Z"/>
<path id="font_4_118" d="M.5079956 .3996582V.43066407C.4850006 .4286499 .45599366 .42765809 .43299867 .42765809L.34599305 .43066407V.3996582C.3769989 .39866639 .3929901 .3816681 .3929901 .35668946 .3929901 .34669496 .3919983 .34469605 .3869934 .33270265L.28599549 .08685303 .1749878 .35568238C.17098999 .36567689 .16899109 .36967469 .16899109 .3736725 .16899109 .3996582 .20599365 .3996582 .22499085 .3996582V.43066407L.115997318 .42765809C.08898926 .42765809 .04899597 .4286499 .018997193 .43066407V.3996582C.066986087 .3996582 .085998538 .3996582 .099990848 .36468507L.25-.000091552738 .22499085-.059066774C.20298767-.11407471 .1749878-.18309021 .11099243-.18309021 .10598755-.18309021 .08299255-.18309021 .06399536-.16503906 .09498596-.16104126 .102996829-.13905335 .102996829-.123046878 .102996829-.0970459 .083999637-.08103943 .06098938-.08103943 .040985109-.08103943 .018997193-.09403992 .018997193-.124053958 .018997193-.16905213 .06098938-.20507813 .11099243-.20507813 .17399597-.20507813 .21499634-.14804077 .23899842-.091049198L.4149933 .33569337C.44099427 .39865113 .49198915 .3996582 .5079956 .3996582Z"/>
<path id="font_4_43" d="M.4149933 .119140628C.4149933 .12911988 .40499879 .12911988 .4019928 .12911988 .3929901 .12911988 .3909912 .12512207 .3889923 .119140628 .3600006 .026229859 .29499818 .014251709 .2579956 .014251709 .20498657 .014251709 .116989139 .0572052 .116989139 .21801758 .116989139 .38093568 .19898987 .42323304 .2519989 .42323304 .26098634 .42323304 .32398988 .42222596 .35899354 .38594056 .31799317 .38293458 .31199647 .3529358 .31199647 .3399353 .31199647 .31393434 .32998658 .2939453 .35798646 .2939453 .38398744 .2939453 .4039917 .3109436 .4039917 .34094239 .4039917 .40911866 .32798768 .4482422 .25099183 .4482422 .12599182 .4482422 .033996583 .3399353 .033996583 .21601868 .033996583 .08816528 .1329956-.0107421879 .24899292-.0107421879 .3829956-.0107421879 .4149933 .10914612 .4149933 .119140628Z"/>
<path id="font_4_81" d="M.47099305 .21424866C.47099305 .34223939 .37098695 .4482422 .25 .4482422 .125 .4482422 .027999878 .3392334 .027999878 .21424866 .027999878 .085250858 .13198853-.0107421879 .24899292-.0107421879 .36999513-.0107421879 .47099305 .087249759 .47099305 .21424866M.3880005 .22224427C.3880005 .18624878 .3880005 .13224793 .3659973 .08824158 .34399415 .04324341 .2999878 .014251709 .25 .014251709 .20698548 .014251709 .16299439 .035247804 .13598633 .08125305 .11099243 .12524414 .11099243 .18624878 .11099243 .22224427 .11099243 .26124574 .11099243 .31523133 .1349945 .35923768 .1619873 .40522767 .20899964 .426239 .24899292 .426239 .29299928 .426239 .33599855 .40423585 .3619995 .36123658 .3880005 .3182373 .3880005 .26023866 .3880005 .22224427Z"/>
<path id="font_4_109" d="M.5349884 0V.0309906C.46499635 .0309906 .45700074 .037994386 .45700074 .08705139V.4423828L.30999757 .43066407V.3996582C.37998963 .3996582 .3880005 .39266969 .3880005 .34373475V.16601563C.3880005 .07910156 .33999635 .011245728 .2669983 .011245728 .18299866 .011245728 .1789856 .058135988 .1789856 .11009216V.4423828L.03199768 .43066407V.3996582C.10998535 .3996582 .10998535 .39666749 .10998535 .3078003V.15802002C.10998535 .080093387 .10998535-.0107421879 .2619934-.0107421879 .31799317-.0107421879 .3619995 .017242432 .3909912 .07910156V-.0107421879L.5349884 0Z"/>
<path id="font_4_77" d="M.5349884 0V.0309906C.48298646 .0309906 .45799256 .0309906 .45700074 .061019899V.25221253C.45700074 .3383026 .45700074 .36932374 .42599488 .405365 .4119873 .42237855 .3789978 .4423828 .32099916 .4423828 .24798584 .4423828 .20098877 .39935304 .17298889 .33729554V.4423828L.03199768 .43066407V.3996582C.101989749 .3996582 .10998535 .39266969 .10998535 .34370423V.07595825C.10998535 .0309906 .09899902 .0309906 .03199768 .0309906V0L.14498902 .0029907227 .25698854 0V.0309906C.18998719 .0309906 .1789856 .0309906 .1789856 .07595825V.25978089C.1789856 .36431886 .25 .42037965 .31399537 .42037965 .3769989 .42037965 .3880005 .36631776 .3880005 .30926515V.076034549C.3880005 .0309906 .3769989 .0309906 .30999757 .0309906V0L.4229889 .0029907227 .5349884 0Z"/>
</defs>
<path transform="matrix(1.00008,0,0,-1,27.970757,116.868007)" d="M0 0H348.69477V115.0703H0Z" fill="#fffac2"/>
<path transform="matrix(1.00008,0,0,-1,27.970757,116.868007)" stroke-width=".3985" stroke-linecap="butt" stroke-miterlimit="10" stroke-linejoin="miter" fill="none" stroke="#d5d6d5" d=""/>
<path transform="matrix(1.00008,0,0,-1,27.970757,116.868007)" stroke-width=".3985" stroke-linecap="butt" stroke-miterlimit="10" stroke-linejoin="miter" fill="none" stroke="#d5d6d5" d="M58.11578 0V115.0703M116.23158 0V115.0703M174.34738 0V115.0703M232.46318 0V115.0703M290.57896 0V115.0703"/>
<path transform="matrix(1.00008,0,0,-1,27.970757,116.868007)" stroke-width=".3985" stroke-linecap="butt" stroke-miterlimit="10" stroke-linejoin="miter" fill="none" stroke="#d5d6d5" d=""/>
<path transform="matrix(1.00008,0,0,-1,27.970757,116.868007)" stroke-width=".3985" stroke-linecap="butt" stroke-miterlimit="10" stroke-linejoin="miter" fill="none" stroke="#d5d6d5" d="M0 52.30467H348.69477M0 104.60936H348.69477"/>
<path transform="matrix(1.00008,0,0,-1,27.970757,116.868007)" stroke-width=".19925" stroke-linecap="butt" stroke-miterlimit="10" stroke-linejoin="miter" fill="none" stroke="#929292" d=""/>
<path transform="matrix(1.00008,0,0,-1,27.970757,116.868007)" stroke-width=".19925" stroke-linecap="butt" stroke-miterlimit="10" stroke-linejoin="miter" fill="none" stroke="#929292" d="M58.11578-2.12573V2.12573M116.23158-2.12573V2.12573M174.34738-2.12573V2.12573M232.46318-2.12573V2.12573M290.57896-2.12573V2.12573"/>
<path transform="matrix(1.00008,0,0,-1,27.970757,116.868007)" stroke-width=".19925" stroke-linecap="butt" stroke-miterlimit="10" stroke-linejoin="miter" fill="none" stroke="#929292" d=""/>
<path transform="matrix(1.00008,0,0,-1,27.970757,116.868007)" stroke-width=".19925" stroke-linecap="butt" stroke-miterlimit="10" stroke-linejoin="miter" fill="none" stroke="#929292" d="M-2.12523 52.30467H2.12523M-2.12523 104.60936H2.12523"/>
<path transform="matrix(1.00008,0,0,-1,27.970757,116.868007)" stroke-width=".3985" stroke-linecap="butt" stroke-miterlimit="10" stroke-linejoin="miter" fill="none" stroke="#000000" d="M0 0H346.70225"/>
<path transform="matrix(1.00008,0,0,-1,374.70075,116.868007)" d="M1.99252 0-1.19551 1.59401 0 0-1.19551-1.59401"/>
<path transform="matrix(1.00008,0,0,-1,27.970757,116.868007)" stroke-width=".3985" stroke-linecap="butt" stroke-miterlimit="10" stroke-linejoin="miter" fill="none" stroke="#000000" d="M0 0V3.9851L-3.9851 6.97394 3.9851 12.9516 0 15.94043V113.07777"/>
<path transform="matrix(0,-1,-1.00008,-0,27.970757,3.7902375)" d="M1.99252 0-1.19551 1.59401 0 0-1.19551-1.59401"/>
<use data-text="2" xlink:href="#font_1_107" transform="matrix(5.6361086,5.6356575,5.6361086,-5.6356575,78.291339,127.719448)"/>
<use data-text="0" xlink:href="#font_1_121" transform="matrix(5.6361086,5.6356575,5.6361086,-5.6356575,81.28411,130.71199)"/>
<use data-text="0" xlink:href="#font_1_121" transform="matrix(5.6361086,5.6356575,5.6361086,-5.6356575,84.276889,133.70453)"/>
<use data-text="5" xlink:href="#font_1_56" transform="matrix(5.6361086,5.6356575,5.6361086,-5.6356575,87.26966,136.69705)"/>
<use data-text="2" xlink:href="#font_1_107" transform="matrix(5.6361086,5.6356575,5.6361086,-5.6356575,136.41101,127.719448)"/>
<use data-text="0" xlink:href="#font_1_121" transform="matrix(5.6361086,5.6356575,5.6361086,-5.6356575,139.40378,130.71199)"/>
<use data-text="1" xlink:href="#font_1_82" transform="matrix(5.6361086,5.6356575,5.6361086,-5.6356575,142.39655,133.70453)"/>
<use data-text="0" xlink:href="#font_1_121" transform="matrix(5.6361086,5.6356575,5.6361086,-5.6356575,145.38933,136.69705)"/>
<use data-text="2" xlink:href="#font_1_107" transform="matrix(5.6361086,5.6356575,5.6361086,-5.6356575,194.53162,127.719448)"/>
<use data-text="0" xlink:href="#font_1_121" transform="matrix(5.6361086,5.6356575,5.6361086,-5.6356575,197.52439,130.71199)"/>
<use data-text="1" xlink:href="#font_1_82" transform="matrix(5.6361086,5.6356575,5.6361086,-5.6356575,200.51715,133.70453)"/>
<use data-text="5" xlink:href="#font_1_56" transform="matrix(5.6361086,5.6356575,5.6361086,-5.6356575,203.50994,136.69705)"/>
<use data-text="2" xlink:href="#font_1_107" transform="matrix(5.6361086,5.6356575,5.6361086,-5.6356575,252.65225,127.719448)"/>
<use data-text="0" xlink:href="#font_1_121" transform="matrix(5.6361086,5.6356575,5.6361086,-5.6356575,255.64502,130.71199)"/>
<use data-text="2" xlink:href="#font_1_107" transform="matrix(5.6361086,5.6356575,5.6361086,-5.6356575,258.6378,133.70453)"/>
<use data-text="0" xlink:href="#font_1_121" transform="matrix(5.6361086,5.6356575,5.6361086,-5.6356575,261.63056,136.69705)"/>
<use data-text="2" xlink:href="#font_1_107" transform="matrix(5.6361086,5.6356575,5.6361086,-5.6356575,310.77296,127.719448)"/>
<use data-text="0" xlink:href="#font_1_121" transform="matrix(5.6361086,5.6356575,5.6361086,-5.6356575,313.76573,130.71199)"/>
<use data-text="2" xlink:href="#font_1_107" transform="matrix(5.6361086,5.6356575,5.6361086,-5.6356575,316.75849,133.70453)"/>
<use data-text="5" xlink:href="#font_1_56" transform="matrix(5.6361086,5.6356575,5.6361086,-5.6356575,319.75129,136.69705)"/>
<use data-text="2" xlink:href="#font_2_2" transform="matrix(7.9707376,0,0,-7.9701,.69057467,66.357)"/>
<use data-text="0" xlink:href="#font_2_1" transform="matrix(7.9707376,0,0,-7.9701,4.9230425,66.357)"/>
<use data-text="," xlink:href="#font_3_1" transform="matrix(7.9707376,0,0,-7.9701,9.160255,66.357)"/>
<use data-text="0" xlink:href="#font_2_1" transform="matrix(7.9707376,0,0,-7.9701,11.512444,66.357)"/>
<use data-text="0" xlink:href="#font_2_1" transform="matrix(7.9707376,0,0,-7.9701,15.744904,66.357)"/>
<use data-text="0" xlink:href="#font_2_1" transform="matrix(7.9707376,0,0,-7.9701,19.977372,66.357)"/>
<use data-text="2" xlink:href="#font_2_2" transform="matrix(7.9707376,0,0,-7.9701,.69057467,14.052002)"/>
<use data-text="5" xlink:href="#font_2_3" transform="matrix(7.9707376,0,0,-7.9701,4.9230425,14.052002)"/>
<use data-text="," xlink:href="#font_3_1" transform="matrix(7.9707376,0,0,-7.9701,9.160255,14.052002)"/>
<use data-text="0" xlink:href="#font_2_1" transform="matrix(7.9707376,0,0,-7.9701,11.512444,14.052002)"/>
<use data-text="0" xlink:href="#font_2_1" transform="matrix(7.9707376,0,0,-7.9701,15.744904,14.052002)"/>
<use data-text="0" xlink:href="#font_2_1" transform="matrix(7.9707376,0,0,-7.9701,19.977372,14.052002)"/>
<path transform="matrix(1.00008,0,0,-1,27.970757,116.868007)" stroke-width=".99628" stroke-linecap="butt" stroke-miterlimit="10" stroke-linejoin="miter" fill="none" stroke="#9e0c0f" d="M0 25.71297 116.23158 51.12257"/>
<use data-text="r" xlink:href="#font_4_96" transform="matrix(9.963397,0,0,-9.9626,102.838748,104.55501)" fill="#9e0c0f"/>
<use data-text="a" xlink:href="#font_4_28" transform="matrix(9.963397,0,0,-9.9626,106.7444,104.55501)" fill="#9e0c0f"/>
<use data-text="t" xlink:href="#font_4_105" transform="matrix(9.963397,0,0,-9.9626,111.726108,104.55501)" fill="#9e0c0f"/>
<use data-text="e" xlink:href="#font_4_50" transform="matrix(9.963397,0,0,-9.9626,115.60186,104.55501)" fill="#9e0c0f"/>
<use data-text="2" xlink:href="#font_5_2" transform="matrix(9.963397,0,0,-9.9626,123.34338,104.55501)" fill="#9e0c0f"/>
<use data-text="4" xlink:href="#font_5_3" transform="matrix(9.963397,0,0,-9.9626,128.32509,104.55501)" fill="#9e0c0f"/>
<use data-text="2" xlink:href="#font_5_2" transform="matrix(9.963397,0,0,-9.9626,133.3068,104.55501)" fill="#9e0c0f"/>
<use data-text="." xlink:href="#font_6_1" transform="matrix(9.963397,0,0,-9.9626,138.28858,104.55501)" fill="#9e0c0f"/>
<use data-text="9" xlink:href="#font_5_5" transform="matrix(9.963397,0,0,-9.9626,141.0568,104.55501)" fill="#9e0c0f"/>
<use data-text="d" xlink:href="#font_7_47" transform="matrix(6.974358,0,0,-6.9738,148.89443,100.037)" fill="#9e0c0f"/>
<use data-text="i" xlink:href="#font_7_66" transform="matrix(6.974358,0,0,-6.9738,153.29524,100.037)" fill="#9e0c0f"/>
<use data-text="a" xlink:href="#font_7_28" transform="matrix(6.974358,0,0,-6.9738,155.54796,100.037)" fill="#9e0c0f"/>
<use data-text="g" xlink:href="#font_7_59" transform="matrix(6.974358,0,0,-6.9738,159.51638,100.037)" fill="#9e0c0f"/>
<use data-text="n" xlink:href="#font_7_77" transform="matrix(6.974358,0,0,-6.9738,163.48479,100.037)" fill="#9e0c0f"/>
<use data-text="o" xlink:href="#font_7_81" transform="matrix(6.974358,0,0,-6.9738,167.8856,100.037)" fill="#9e0c0f"/>
<use data-text="s" xlink:href="#font_7_98" transform="matrix(6.974358,0,0,-6.9738,171.854,100.037)" fill="#9e0c0f"/>
<use data-text="e" xlink:href="#font_7_50" transform="matrix(6.974358,0,0,-6.9738,175.0134,100.037)" fill="#9e0c0f"/>
<use data-text="s" xlink:href="#font_7_98" transform="matrix(6.974358,0,0,-6.9738,178.55638,100.037)" fill="#9e0c0f"/>
<path transform="matrix(1.00008,0,0,-1,27.156693,-4.676998)" stroke-width=".3985" stroke-linecap="butt" stroke-miterlimit="10" stroke-linejoin="miter" fill="none" stroke="#9e0c0f" d="M121.728-106.742H154.547"/>
<use data-text="y" xlink:href="#font_7_118" transform="matrix(6.974358,0,0,-6.9738,158.01016,107.991)" fill="#9e0c0f"/>
<use data-text="e" xlink:href="#font_7_50" transform="matrix(6.974358,0,0,-6.9738,161.97858,107.991)" fill="#9e0c0f"/>
<use data-text="a" xlink:href="#font_7_28" transform="matrix(6.974358,0,0,-6.9738,165.52155,107.991)" fill="#9e0c0f"/>
<use data-text="r" xlink:href="#font_7_96" transform="matrix(6.974358,0,0,-6.9738,169.48996,107.991)" fill="#9e0c0f"/>
<path transform="matrix(1.00008,0,0,-1,27.970757,116.868007)" stroke-width=".99628" stroke-linecap="butt" stroke-miterlimit="10" stroke-linejoin="miter" fill="none" stroke="#b3d9d9" d="M61.9345 36.81409 88.88773 25.48969"/>
<path transform="matrix(1.00008,0,0,-1,27.970757,116.868007)" stroke-width=".99628" stroke-linecap="butt" stroke-miterlimit="10" stroke-linejoin="miter" fill="none" stroke="#9e0c0f" d="M0 25.71297 34.86948 27.09381"/>
<use data-text="r" xlink:href="#font_4_96" transform="matrix(9.963397,0,0,-9.9626,62.15449,116.569)" fill="#9e0c0f"/>
<use data-text="a" xlink:href="#font_4_28" transform="matrix(9.963397,0,0,-9.9626,66.06015,116.569)" fill="#9e0c0f"/>
<use data-text="t" xlink:href="#font_4_105" transform="matrix(9.963397,0,0,-9.9626,71.041858,116.569)" fill="#9e0c0f"/>
<use data-text="e" xlink:href="#font_4_50" transform="matrix(9.963397,0,0,-9.9626,74.9176,116.569)" fill="#9e0c0f"/>
<use data-text="4" xlink:href="#font_5_3" transform="matrix(9.963397,0,0,-9.9626,82.659137,116.569)" fill="#9e0c0f"/>
<use data-text="4" xlink:href="#font_5_3" transform="matrix(9.963397,0,0,-9.9626,87.64084,116.569)" fill="#9e0c0f"/>
<use data-text="d" xlink:href="#font_7_47" transform="matrix(6.974358,0,0,-6.9738,95.47916,112.05101)" fill="#9e0c0f"/>
<use data-text="i" xlink:href="#font_7_66" transform="matrix(6.974358,0,0,-6.9738,99.879978,112.05101)" fill="#9e0c0f"/>
<use data-text="a" xlink:href="#font_7_28" transform="matrix(6.974358,0,0,-6.9738,102.132709,112.05101)" fill="#9e0c0f"/>
<use data-text="g" xlink:href="#font_7_59" transform="matrix(6.974358,0,0,-6.9738,106.101108,112.05101)" fill="#9e0c0f"/>
<use data-text="n" xlink:href="#font_7_77" transform="matrix(6.974358,0,0,-6.9738,110.06952,112.05101)" fill="#9e0c0f"/>
<use data-text="o" xlink:href="#font_7_81" transform="matrix(6.974358,0,0,-6.9738,114.47034,112.05101)" fill="#9e0c0f"/>
<use data-text="s" xlink:href="#font_7_98" transform="matrix(6.974358,0,0,-6.9738,118.43875,112.05101)" fill="#9e0c0f"/>
<use data-text="e" xlink:href="#font_7_50" transform="matrix(6.974358,0,0,-6.9738,121.59813,112.05101)" fill="#9e0c0f"/>
<use data-text="s" xlink:href="#font_7_98" transform="matrix(6.974358,0,0,-6.9738,125.14111,112.05101)" fill="#9e0c0f"/>
<path transform="matrix(1.00008,0,0,-1,-13.527561,7.337002)" stroke-width=".3985" stroke-linecap="butt" stroke-miterlimit="10" stroke-linejoin="miter" fill="none" stroke="#9e0c0f" d="M108.998-106.742H141.817"/>
<use data-text="y" xlink:href="#font_7_118" transform="matrix(6.974358,0,0,-6.9738,104.59488,120.005008)" fill="#9e0c0f"/>
<use data-text="e" xlink:href="#font_7_50" transform="matrix(6.974358,0,0,-6.9738,108.56329,120.005008)" fill="#9e0c0f"/>
<use data-text="a" xlink:href="#font_7_28" transform="matrix(6.974358,0,0,-6.9738,112.10628,120.005008)" fill="#9e0c0f"/>
<use data-text="r" xlink:href="#font_7_96" transform="matrix(6.974358,0,0,-6.9738,116.07468,120.005008)" fill="#9e0c0f"/>
<path transform="matrix(1.00008,0,0,-1,27.970757,116.868007)" stroke-width=".99628" stroke-linecap="butt" stroke-miterlimit="10" stroke-linejoin="miter" fill="none" stroke="#b3d9d9" d="M21.25343 24.59705 44.75717 13.4753"/>
<path transform="matrix(1.00008,0,0,-1,27.970757,116.868007)" stroke-width=".99628" stroke-linecap="butt" stroke-miterlimit="10" stroke-linejoin="miter" fill="none" stroke="#9e0c0f" d="M174.34738 74.83752 232.46318 53.88428"/>
<use data-text="r" xlink:href="#font_4_96" transform="matrix(9.963397,0,0,-9.9626,248.13936,30.902)" fill="#9e0c0f"/>
<use data-text="a" xlink:href="#font_4_28" transform="matrix(9.963397,0,0,-9.9626,252.04502,30.902)" fill="#9e0c0f"/>
<use data-text="t" xlink:href="#font_4_105" transform="matrix(9.963397,0,0,-9.9626,257.02674,30.902)" fill="#9e0c0f"/>
<use data-text="e" xlink:href="#font_4_50" transform="matrix(9.963397,0,0,-9.9626,260.90248,30.902)" fill="#9e0c0f"/>
<use data-text="&#x2212;" xlink:href="#font_8_1" transform="matrix(9.963397,0,0,-9.9626,268.64399,30.902)" fill="#9e0c0f"/>
<use data-text="4" xlink:href="#font_5_3" transform="matrix(9.963397,0,0,-9.9626,276.39363,30.902)" fill="#9e0c0f"/>
<use data-text="0" xlink:href="#font_5_1" transform="matrix(9.963397,0,0,-9.9626,281.3753,30.902)" fill="#9e0c0f"/>
<use data-text="0" xlink:href="#font_5_1" transform="matrix(9.963397,0,0,-9.9626,286.35704,30.902)" fill="#9e0c0f"/>
<use data-text="." xlink:href="#font_6_1" transform="matrix(9.963397,0,0,-9.9626,291.3388,30.902)" fill="#9e0c0f"/>
<use data-text="6" xlink:href="#font_5_4" transform="matrix(9.963397,0,0,-9.9626,294.10704,30.902)" fill="#9e0c0f"/>
<use data-text="d" xlink:href="#font_7_47" transform="matrix(6.974358,0,0,-6.9738,301.94468,26.384003)" fill="#9e0c0f"/>
<use data-text="i" xlink:href="#font_7_66" transform="matrix(6.974358,0,0,-6.9738,306.3455,26.384003)" fill="#9e0c0f"/>
<use data-text="a" xlink:href="#font_7_28" transform="matrix(6.974358,0,0,-6.9738,308.5982,26.384003)" fill="#9e0c0f"/>
<use data-text="g" xlink:href="#font_7_59" transform="matrix(6.974358,0,0,-6.9738,312.5666,26.384003)" fill="#9e0c0f"/>
<use data-text="n" xlink:href="#font_7_77" transform="matrix(6.974358,0,0,-6.9738,316.53504,26.384003)" fill="#9e0c0f"/>
<use data-text="o" xlink:href="#font_7_81" transform="matrix(6.974358,0,0,-6.9738,320.93586,26.384003)" fill="#9e0c0f"/>
<use data-text="s" xlink:href="#font_7_98" transform="matrix(6.974358,0,0,-6.9738,324.90425,26.384003)" fill="#9e0c0f"/>
<use data-text="e" xlink:href="#font_7_50" transform="matrix(6.974358,0,0,-6.9738,328.06367,26.384003)" fill="#9e0c0f"/>
<use data-text="s" xlink:href="#font_7_98" transform="matrix(6.974358,0,0,-6.9738,331.60664,26.384003)" fill="#9e0c0f"/>
<path transform="matrix(1.00008,0,0,-1,172.4573,-78.33)" stroke-width=".3985" stroke-linecap="butt" stroke-miterlimit="10" stroke-linejoin="miter" fill="none" stroke="#9e0c0f" d="M129.477-106.742H162.296"/>
<use data-text="y" xlink:href="#font_7_118" transform="matrix(6.974358,0,0,-6.9738,311.0604,34.337999)" fill="#9e0c0f"/>
<use data-text="e" xlink:href="#font_7_50" transform="matrix(6.974358,0,0,-6.9738,315.0288,34.337999)" fill="#9e0c0f"/>
<use data-text="a" xlink:href="#font_7_28" transform="matrix(6.974358,0,0,-6.9738,318.57179,34.337999)" fill="#9e0c0f"/>
<use data-text="r" xlink:href="#font_7_96" transform="matrix(6.974358,0,0,-6.9738,322.5402,34.337999)" fill="#9e0c0f"/>
<path transform="matrix(1.00008,0,0,-1,27.970757,116.868007)" stroke-width=".99628" stroke-linecap="butt" stroke-miterlimit="10" stroke-linejoin="miter" fill="none" stroke="#b3d9d9" d="M207.22399 65.86253 236.27696 77.28899"/>
<path transform="matrix(1.00008,0,0,-1,27.970757,116.868007)" d="M1.99255 25.71297C1.99255 26.81345 1.10046 27.70552 0 27.70552-1.10046 27.70552-1.99255 26.81345-1.99255 25.71297-1.99255 24.6125-1.10046 23.72041 0 23.72041 1.10046 23.72041 1.99255 24.6125 1.99255 25.71297ZM0 25.71297"/>
<path transform="matrix(1.00008,0,0,-1,27.970757,116.868007)" stroke-width=".3985" stroke-linecap="butt" stroke-miterlimit="10" stroke-linejoin="miter" fill="none" stroke="#000000" d="M1.99255 25.71297C1.99255 26.81345 1.10046 27.70552 0 27.70552-1.10046 27.70552-1.99255 26.81345-1.99255 25.71297-1.99255 24.6125-1.10046 23.72041 0 23.72041 1.10046 23.72041 1.99255 24.6125 1.99255 25.71297ZM0 25.71297"/>
<path transform="matrix(1.00008,0,0,-1,27.970757,116.868007)" d="M13.6157 29.93918C13.6157 31.03966 12.72362 31.93173 11.62315 31.93173 10.52267 31.93173 9.6306 31.03966 9.6306 29.93918 9.6306 28.83871 10.52267 27.94662 11.62315 27.94662 12.72362 27.94662 13.6157 28.83871 13.6157 29.93918ZM11.62315 29.93918"/>
<path transform="matrix(1.00008,0,0,-1,27.970757,116.868007)" stroke-width=".3985" stroke-linecap="butt" stroke-miterlimit="10" stroke-linejoin="miter" fill="none" stroke="#000000" d="M13.6157 29.93918C13.6157 31.03966 12.72362 31.93173 11.62315 31.93173 10.52267 31.93173 9.6306 31.03966 9.6306 29.93918 9.6306 28.83871 10.52267 27.94662 11.62315 27.94662 12.72362 27.94662 13.6157 28.83871 13.6157 29.93918ZM11.62315 29.93918"/>
<path transform="matrix(1.00008,0,0,-1,27.970757,116.868007)" d="M25.23886 30.117C25.23886 31.21748 24.34679 32.10956 23.2463 32.10956 22.14584 32.10956 21.25375 31.21748 21.25375 30.117 21.25375 29.01654 22.14584 28.12445 23.2463 28.12445 24.34679 28.12445 25.23886 29.01654 25.23886 30.117ZM23.2463 30.117"/>
<path transform="matrix(1.00008,0,0,-1,27.970757,116.868007)" stroke-width=".3985" stroke-linecap="butt" stroke-miterlimit="10" stroke-linejoin="miter" fill="none" stroke="#000000" d="M25.23886 30.117C25.23886 31.21748 24.34679 32.10956 23.2463 32.10956 22.14584 32.10956 21.25375 31.21748 21.25375 30.117 21.25375 29.01654 22.14584 28.12445 23.2463 28.12445 24.34679 28.12445 25.23886 29.01654 25.23886 30.117ZM23.2463 30.117"/>
<path transform="matrix(1.00008,0,0,-1,27.970757,116.868007)" d="M36.86203 27.09381C36.86203 28.19427 35.96994 29.08636 34.86948 29.08636 33.769 29.08636 32.87692 28.19427 32.87692 27.09381 32.87692 25.99333 33.769 25.10126 34.86948 25.10126 35.96994 25.10126 36.86203 25.99333 36.86203 27.09381ZM34.86948 27.09381"/>
<path transform="matrix(1.00008,0,0,-1,27.970757,116.868007)" stroke-width=".3985" stroke-linecap="butt" stroke-miterlimit="10" stroke-linejoin="miter" fill="none" stroke="#000000" d="M36.86203 27.09381C36.86203 28.19427 35.96994 29.08636 34.86948 29.08636 33.769 29.08636 32.87692 28.19427 32.87692 27.09381 32.87692 25.99333 33.769 25.10126 34.86948 25.10126 35.96994 25.10126 36.86203 25.99333 36.86203 27.09381ZM34.86948 27.09381"/>
<path transform="matrix(1.00008,0,0,-1,27.970757,116.868007)" d="M48.48518 36.58188C48.48518 37.68236 47.5931 38.57443 46.49263 38.57443 45.39215 38.57443 44.50008 37.68236 44.50008 36.58188 44.50008 35.48141 45.39215 34.58932 46.49263 34.58932 47.5931 34.58932 48.48518 35.48141 48.48518 36.58188ZM46.49263 36.58188"/>
<path transform="matrix(1.00008,0,0,-1,27.970757,116.868007)" stroke-width=".3985" stroke-linecap="butt" stroke-miterlimit="10" stroke-linejoin="miter" fill="none" stroke="#000000" d="M48.48518 36.58188C48.48518 37.68236 47.5931 38.57443 46.49263 38.57443 45.39215 38.57443 44.50008 37.68236 44.50008 36.58188 44.50008 35.48141 45.39215 34.58932 46.49263 34.58932 47.5931 34.58932 48.48518 35.48141 48.48518 36.58188ZM46.49263 36.58188"/>
<path transform="matrix(1.00008,0,0,-1,27.970757,116.868007)" d="M60.10834 39.0402C60.10834 40.14069 59.21626 41.03276 58.11578 41.03276 57.01532 41.03276 56.12323 40.14069 56.12323 39.0402 56.12323 37.93974 57.01532 37.04765 58.11578 37.04765 59.21626 37.04765 60.10834 37.93974 60.10834 39.0402ZM58.11578 39.0402"/>
<path transform="matrix(1.00008,0,0,-1,27.970757,116.868007)" stroke-width=".3985" stroke-linecap="butt" stroke-miterlimit="10" stroke-linejoin="miter" fill="none" stroke="#000000" d="M60.10834 39.0402C60.10834 40.14069 59.21626 41.03276 58.11578 41.03276 57.01532 41.03276 56.12323 40.14069 56.12323 39.0402 56.12323 37.93974 57.01532 37.04765 58.11578 37.04765 59.21626 37.04765 60.10834 37.93974 60.10834 39.0402ZM58.11578 39.0402"/>
<path transform="matrix(1.00008,0,0,-1,27.970757,116.868007)" d="M71.7315 43.52794C71.7315 44.6284 70.83942 45.5205 69.73895 45.5205 68.63847 45.5205 67.7464 44.6284 67.7464 43.52794 67.7464 42.42747 68.63847 41.53539 69.73895 41.53539 70.83942 41.53539 71.7315 42.42747 71.7315 43.52794ZM69.73895 43.52794"/>
<path transform="matrix(1.00008,0,0,-1,27.970757,116.868007)" stroke-width=".3985" stroke-linecap="butt" stroke-miterlimit="10" stroke-linejoin="miter" fill="none" stroke="#000000" d="M71.7315 43.52794C71.7315 44.6284 70.83942 45.5205 69.73895 45.5205 68.63847 45.5205 67.7464 44.6284 67.7464 43.52794 67.7464 42.42747 68.63847 41.53539 69.73895 41.53539 70.83942 41.53539 71.7315 42.42747 71.7315 43.52794ZM69.73895 43.52794"/>
<path transform="matrix(1.00008,0,0,-1,27.970757,116.868007)" d="M83.35466 46.34195C83.35466 47.44241 82.46257 48.3345 81.3621 48.3345 80.26163 48.3345 79.36955 47.44241 79.36955 46.34195 79.36955 45.24147 80.26163 44.3494 81.3621 44.3494 82.46257 44.3494 83.35466 45.24147 83.35466 46.34195ZM81.3621 46.34195"/>
<path transform="matrix(1.00008,0,0,-1,27.970757,116.868007)" stroke-width=".3985" stroke-linecap="butt" stroke-miterlimit="10" stroke-linejoin="miter" fill="none" stroke="#000000" d="M83.35466 46.34195C83.35466 47.44241 82.46257 48.3345 81.3621 48.3345 80.26163 48.3345 79.36955 47.44241 79.36955 46.34195 79.36955 45.24147 80.26163 44.3494 81.3621 44.3494 82.46257 44.3494 83.35466 45.24147 83.35466 46.34195ZM81.3621 46.34195"/>
<path transform="matrix(1.00008,0,0,-1,27.970757,116.868007)" d="M94.97781 57.10625C94.97781 58.20671 94.08574 59.0988 92.98526 59.0988 91.8848 59.0988 90.9927 58.20671 90.9927 57.10625 90.9927 56.00577 91.8848 55.1137 92.98526 55.1137 94.08574 55.1137 94.97781 56.00577 94.97781 57.10625ZM92.98526 57.10625"/>
<path transform="matrix(1.00008,0,0,-1,27.970757,116.868007)" stroke-width=".3985" stroke-linecap="butt" stroke-miterlimit="10" stroke-linejoin="miter" fill="none" stroke="#000000" d="M94.97781 57.10625C94.97781 58.20671 94.08574 59.0988 92.98526 59.0988 91.8848 59.0988 90.9927 58.20671 90.9927 57.10625 90.9927 56.00577 91.8848 55.1137 92.98526 55.1137 94.08574 55.1137 94.97781 56.00577 94.97781 57.10625ZM92.98526 57.10625"/>
<path transform="matrix(1.00008,0,0,-1,27.970757,116.868007)" d="M106.60098 52.37791C106.60098 53.47838 105.7089 54.37047 104.60843 54.37047 103.50795 54.37047 102.61588 53.47838 102.61588 52.37791 102.61588 51.27744 103.50795 50.38536 104.60843 50.38536 105.7089 50.38536 106.60098 51.27744 106.60098 52.37791ZM104.60843 52.37791"/>
<path transform="matrix(1.00008,0,0,-1,27.970757,116.868007)" stroke-width=".3985" stroke-linecap="butt" stroke-miterlimit="10" stroke-linejoin="miter" fill="none" stroke="#000000" d="M106.60098 52.37791C106.60098 53.47838 105.7089 54.37047 104.60843 54.37047 103.50795 54.37047 102.61588 53.47838 102.61588 52.37791 102.61588 51.27744 103.50795 50.38536 104.60843 50.38536 105.7089 50.38536 106.60098 51.27744 106.60098 52.37791ZM104.60843 52.37791"/>
<path transform="matrix(1.00008,0,0,-1,27.970757,116.868007)" d="M118.22414 51.12257C118.22414 52.22304 117.33205 53.11513 116.23158 53.11513 115.13112 53.11513 114.23903 52.22304 114.23903 51.12257 114.23903 50.0221 115.13112 49.13002 116.23158 49.13002 117.33205 49.13002 118.22414 50.0221 118.22414 51.12257ZM116.23158 51.12257"/>
<path transform="matrix(1.00008,0,0,-1,27.970757,116.868007)" stroke-width=".3985" stroke-linecap="butt" stroke-miterlimit="10" stroke-linejoin="miter" fill="none" stroke="#000000" d="M118.22414 51.12257C118.22414 52.22304 117.33205 53.11513 116.23158 53.11513 115.13112 53.11513 114.23903 52.22304 114.23903 51.12257 114.23903 50.0221 115.13112 49.13002 116.23158 49.13002 117.33205 49.13002 118.22414 50.0221 118.22414 51.12257ZM116.23158 51.12257"/>
<path transform="matrix(1.00008,0,0,-1,27.970757,116.868007)" d="M129.84729 61.3743C129.84729 62.47478 128.95522 63.36685 127.85474 63.36685 126.75427 63.36685 125.86218 62.47478 125.86218 61.3743 125.86218 60.27383 126.75427 59.38174 127.85474 59.38174 128.95522 59.38174 129.84729 60.27383 129.84729 61.3743ZM127.85474 61.3743"/>
<path transform="matrix(1.00008,0,0,-1,27.970757,116.868007)" stroke-width=".3985" stroke-linecap="butt" stroke-miterlimit="10" stroke-linejoin="miter" fill="none" stroke="#000000" d="M129.84729 61.3743C129.84729 62.47478 128.95522 63.36685 127.85474 63.36685 126.75427 63.36685 125.86218 62.47478 125.86218 61.3743 125.86218 60.27383 126.75427 59.38174 127.85474 59.38174 128.95522 59.38174 129.84729 60.27383 129.84729 61.3743ZM127.85474 61.3743"/>
<path transform="matrix(1.00008,0,0,-1,27.970757,116.868007)" d="M141.47046 56.99117C141.47046 58.09163 140.57837 58.98372 139.4779 58.98372 138.37743 58.98372 137.48535 58.09163 137.48535 56.99117 137.48535 55.89069 138.37743 54.99861 139.4779 54.99861 140.57837 54.99861 141.47046 55.89069 141.47046 56.99117ZM139.4779 56.99117"/>
<path transform="matrix(1.00008,0,0,-1,27.970757,116.868007)" stroke-width=".3985" stroke-linecap="butt" stroke-miterlimit="10" stroke-linejoin="miter" fill="none" stroke="#000000" d="M141.47046 56.99117C141.47046 58.09163 140.57837 58.98372 139.4779 58.98372 138.37743 58.98372 137.48535 58.09163 137.48535 56.99117 137.48535 55.89069 138.37743 54.99861 139.4779 54.99861 140.57837 54.99861 141.47046 55.89069 141.47046 56.99117ZM139.4779 56.99117"/>
<path transform="matrix(1.00008,0,0,-1,27.970757,116.868007)" d="M153.09362 66.46878C153.09362 67.56924 152.20154 68.46133 151.10106 68.46133 150.0006 68.46133 149.1085 67.56924 149.1085 66.46878 149.1085 65.3683 150.0006 64.47623 151.10106 64.47623 152.20154 64.47623 153.09362 65.3683 153.09362 66.46878ZM151.10106 66.46878"/>
<path transform="matrix(1.00008,0,0,-1,27.970757,116.868007)" stroke-width=".3985" stroke-linecap="butt" stroke-miterlimit="10" stroke-linejoin="miter" fill="none" stroke="#000000" d="M153.09362 66.46878C153.09362 67.56924 152.20154 68.46133 151.10106 68.46133 150.0006 68.46133 149.1085 67.56924 149.1085 66.46878 149.1085 65.3683 150.0006 64.47623 151.10106 64.47623 152.20154 64.47623 153.09362 65.3683 153.09362 66.46878ZM151.10106 66.46878"/>
<path transform="matrix(1.00008,0,0,-1,27.970757,116.868007)" d="M164.71677 69.94182C164.71677 71.04228 163.82469 71.93437 162.72422 71.93437 161.62375 71.93437 160.73166 71.04228 160.73166 69.94182 160.73166 68.84134 161.62375 67.94926 162.72422 67.94926 163.82469 67.94926 164.71677 68.84134 164.71677 69.94182ZM162.72422 69.94182"/>
<path transform="matrix(1.00008,0,0,-1,27.970757,116.868007)" stroke-width=".3985" stroke-linecap="butt" stroke-miterlimit="10" stroke-linejoin="miter" fill="none" stroke="#000000" d="M164.71677 69.94182C164.71677 71.04228 163.82469 71.93437 162.72422 71.93437 161.62375 71.93437 160.73166 71.04228 160.73166 69.94182 160.73166 68.84134 161.62375 67.94926 162.72422 67.94926 163.82469 67.94926 164.71677 68.84134 164.71677 69.94182ZM162.72422 69.94182"/>
<path transform="matrix(1.00008,0,0,-1,27.970757,116.868007)" d="M176.33994 74.83752C176.33994 75.93799 175.44785 76.83008 174.34738 76.83008 173.2469 76.83008 172.35483 75.93799 172.35483 74.83752 172.35483 73.73705 173.2469 72.84497 174.34738 72.84497 175.44785 72.84497 176.33994 73.73705 176.33994 74.83752ZM174.34738 74.83752"/>
<path transform="matrix(1.00008,0,0,-1,27.970757,116.868007)" stroke-width=".3985" stroke-linecap="butt" stroke-miterlimit="10" stroke-linejoin="miter" fill="none" stroke="#000000" d="M176.33994 74.83752C176.33994 75.93799 175.44785 76.83008 174.34738 76.83008 173.2469 76.83008 172.35483 75.93799 172.35483 74.83752 172.35483 73.73705 173.2469 72.84497 174.34738 72.84497 175.44785 72.84497 176.33994 73.73705 176.33994 74.83752ZM174.34738 74.83752"/>
<path transform="matrix(1.00008,0,0,-1,27.970757,116.868007)" d="M187.96309 74.56555C187.96309 75.66602 187.07102 76.5581 185.97054 76.5581 184.87007 76.5581 183.97798 75.66602 183.97798 74.56555 183.97798 73.46507 184.87007 72.573 185.97054 72.573 187.07102 72.573 187.96309 73.46507 187.96309 74.56555ZM185.97054 74.56555"/>
<path transform="matrix(1.00008,0,0,-1,27.970757,116.868007)" stroke-width=".3985" stroke-linecap="butt" stroke-miterlimit="10" stroke-linejoin="miter" fill="none" stroke="#000000" d="M187.96309 74.56555C187.96309 75.66602 187.07102 76.5581 185.97054 76.5581 184.87007 76.5581 183.97798 75.66602 183.97798 74.56555 183.97798 73.46507 184.87007 72.573 185.97054 72.573 187.07102 72.573 187.96309 73.46507 187.96309 74.56555ZM185.97054 74.56555"/>
<path transform="matrix(1.00008,0,0,-1,27.970757,116.868007)" d="M199.58625 83.80255C199.58625 84.90303 198.69417 85.7951 197.59369 85.7951 196.49323 85.7951 195.60114 84.90303 195.60114 83.80255 195.60114 82.70209 196.49323 81.81 197.59369 81.81 198.69417 81.81 199.58625 82.70209 199.58625 83.80255ZM197.59369 83.80255"/>
<path transform="matrix(1.00008,0,0,-1,27.970757,116.868007)" stroke-width=".3985" stroke-linecap="butt" stroke-miterlimit="10" stroke-linejoin="miter" fill="none" stroke="#000000" d="M199.58625 83.80255C199.58625 84.90303 198.69417 85.7951 197.59369 85.7951 196.49323 85.7951 195.60114 84.90303 195.60114 83.80255 195.60114 82.70209 196.49323 81.81 197.59369 81.81 198.69417 81.81 199.58625 82.70209 199.58625 83.80255ZM197.59369 83.80255"/>
<path transform="matrix(1.00008,0,0,-1,27.970757,116.868007)" d="M211.20941 79.92154C211.20941 81.022 210.31732 81.9141 209.21686 81.9141 208.11638 81.9141 207.2243 81.022 207.2243 79.92154 207.2243 78.82106 208.11638 77.92899 209.21686 77.92899 210.31732 77.92899 211.20941 78.82106 211.20941 79.92154ZM209.21686 79.92154"/>
<path transform="matrix(1.00008,0,0,-1,27.970757,116.868007)" stroke-width=".3985" stroke-linecap="butt" stroke-miterlimit="10" stroke-linejoin="miter" fill="none" stroke="#000000" d="M211.20941 79.92154C211.20941 81.022 210.31732 81.9141 209.21686 81.9141 208.11638 81.9141 207.2243 81.022 207.2243 79.92154 207.2243 78.82106 208.11638 77.92899 209.21686 77.92899 210.31732 77.92899 211.20941 78.82106 211.20941 79.92154ZM209.21686 79.92154"/>
<path transform="matrix(1.00008,0,0,-1,27.970757,116.868007)" d="M222.83257 91.5855C222.83257 92.68597 221.94049 93.57805 220.84001 93.57805 219.73955 93.57805 218.84746 92.68597 218.84746 91.5855 218.84746 90.48503 219.73955 89.59294 220.84001 89.59294 221.94049 89.59294 222.83257 90.48503 222.83257 91.5855ZM220.84001 91.5855"/>
<path transform="matrix(1.00008,0,0,-1,27.970757,116.868007)" stroke-width=".3985" stroke-linecap="butt" stroke-miterlimit="10" stroke-linejoin="miter" fill="none" stroke="#000000" d="M222.83257 91.5855C222.83257 92.68597 221.94049 93.57805 220.84001 93.57805 219.73955 93.57805 218.84746 92.68597 218.84746 91.5855 218.84746 90.48503 219.73955 89.59294 220.84001 89.59294 221.94049 89.59294 222.83257 90.48503 222.83257 91.5855ZM220.84001 91.5855"/>
<path transform="matrix(1.00008,0,0,-1,27.970757,116.868007)" d="M234.45574 53.88428C234.45574 54.98474 233.56365 55.87683 232.46318 55.87683 231.3627 55.87683 230.47063 54.98474 230.47063 53.88428 230.47063 52.7838 231.3627 51.89172 232.46318 51.89172 233.56365 51.89172 234.45574 52.7838 234.45574 53.88428ZM232.46318 53.88428"/>
<path transform="matrix(1.00008,0,0,-1,27.970757,116.868007)" stroke-width=".3985" stroke-linecap="butt" stroke-miterlimit="10" stroke-linejoin="miter" fill="none" stroke="#000000" d="M234.45574 53.88428C234.45574 54.98474 233.56365 55.87683 232.46318 55.87683 231.3627 55.87683 230.47063 54.98474 230.47063 53.88428 230.47063 52.7838 231.3627 51.89172 232.46318 51.89172 233.56365 51.89172 234.45574 52.7838 234.45574 53.88428ZM232.46318 53.88428"/>
<path transform="matrix(1.00008,0,0,-1,27.970757,116.868007)" stroke-width=".3985" stroke-linecap="butt" stroke-miterlimit="10" stroke-linejoin="miter" fill="none" stroke="#000000" d=""/>
<use data-text="y" xlink:href="#font_4_118" transform="matrix(9.963397,0,0,-9.9626,354.87989,111.30601)"/>
<use data-text="e" xlink:href="#font_4_50" transform="matrix(9.963397,0,0,-9.9626,359.87159,111.30601)"/>
<use data-text="a" xlink:href="#font_4_28" transform="matrix(9.963397,0,0,-9.9626,364.29533,111.30601)"/>
<use data-text="r" xlink:href="#font_4_96" transform="matrix(9.963397,0,0,-9.9626,369.277,111.30601)"/>
<use data-text="c" xlink:href="#font_4_43" transform="matrix(9.963397,0,0,-9.9626,31.49104,11.445007)"/>
<use data-text="o" xlink:href="#font_4_81" transform="matrix(9.963397,0,0,-9.9626,35.91479,11.445007)"/>
<use data-text="u" xlink:href="#font_4_109" transform="matrix(9.963397,0,0,-9.9626,40.89649,11.445007)"/>
<use data-text="n" xlink:href="#font_4_77" transform="matrix(9.963397,0,0,-9.9626,46.43614,11.445007)"/>
<use data-text="t" xlink:href="#font_4_105" transform="matrix(9.963397,0,0,-9.9626,51.706777,11.445007)"/>
</svg>
