<svg xmlns="http://www.w3.org/2000/svg" xmlns:xlink="http://www.w3.org/1999/xlink" version="1.1" width="385" height="140" viewBox="0 0 385 140">
<defs>
<path id="font_1_107" d="M.47698976 .17900086H.44599916C.44299317 .15899658 .43499757 .10899353 .4229889 .08999634 .4169922 .08198547 .34098817 .08198547 .32499696 .08198547H.14698792L.28199769 .20399475C.2979889 .2190094 .33999635 .2519989 .35598756 .26600648 .41799928 .3230133 .47698976 .37802125 .47698976 .46902467 .47698976 .58802798 .3769989 .66503909 .2519989 .66503909 .13198853 .6651764 .052993776 .574173 .052993776 .48516847 .052993776 .4361725 .09199524 .4291687 .10598755 .4291687 .1269989 .4291687 .1579895 .4441681 .1579895 .48217774 .1579895 .5341797 .10798645 .5341797 .09599304 .5341797 .125 .6070709 .19198609 .6320343 .24099732 .6320343 .33399964 .6320343 .38198854 .55314639 .38198854 .46917726 .38198854 .36517335 .30899049 .2891693 .19099427 .16816712L.06498718 .03817749C.052993776 .026992798 .052993776 .024993897 .052993776 0H.44799806L.47698976 .17900086Z"/>
<path id="font_1_121" d="M.4889984 .31877137C.4889984 .42585755 .47799684 .49090577 .44499208 .55496218 .40098573 .6430359 .31999208 .66503909 .2649994 .66503909 .13899231 .66503909 .09298706 .5709839 .07899475 .5429535 .042999269 .4698944 .040985109 .3708191 .040985109 .31877137 .040985109 .25271607 .04399109 .15162659 .09199524 .07156372 .13798523-.0024871827 .21199036-.021484375 .2649994-.021484375 .31298829-.021484375 .39898683-.0064849855 .44898988 .09257507 .48599244 .16464234 .4889984 .2537079 .4889984 .31877137M.3999939 .33078004C.3999939 .27172853 .3999939 .18165589 .3880005 .12561035 .36698915 .020523072 .2979889 .006515503 .2649994 .006515503 .23098755 .006515503 .1619873 .022521973 .14099121 .12760926 .12998963 .18466187 .12998963 .2787323 .12998963 .33078004 .12998963 .3998413 .12998963 .4698944 .14099121 .5249481 .1619873 .6270294 .23999024 .6370239 .2649994 .6370239 .29899598 .6370239 .36799623 .62002566 .3880005 .5289459 .3999939 .4738922 .3999939 .39883424 .3999939 .33078004Z"/>
<path id="font_1_56" d="M.47698976 .19924927C.47698976 .31576539 .3929901 .4189453 .2749939 .4189453 .22499085 .4189453 .17799378 .40293885 .13999939 .36886598V.5618439C.15299988 .55784609 .19299317 .54785159 .23498535 .54785159 .3600006 .54785159 .43598939 .63586428 .43598939 .6509552 .43598939 .6620178 .42900086 .66503909 .42399598 .66503909 .42399598 .66503909 .41999818 .66503909 .41099549 .66000369 .37199403 .6449127 .32598878 .632843 .27198792 .632843 .21299744 .632843 .1639862 .64793398 .1329956 .66000369 .12298584 .66503909 .11999512 .66503909 .11999512 .66503909 .10699463 .66503909 .10699463 .6539612 .10699463 .63586428V.34277345C.10699463 .32476808 .10699463 .3127594 .12298584 .3127594 .1309967 .3127594 .13398743 .31677247 .13899231 .32476808 .15098572 .33976747 .18899536 .39093019 .27398683 .39093019 .32998658 .39093019 .35699464 .34477235 .3659973 .3257599 .3829956 .2896576 .3849945 .24345398 .3849945 .20426941 .3849945 .16725159 .38398744 .11325073 .35598756 .069366458 .33699037 .03942871 .29699708 .008514404 .24398804 .008514404 .1789856 .008514404 .114990238 .04940796 .09199524 .11425781 .09498596 .11387634 .101989749 .11387634 .101989749 .11387634 .12998963 .11387634 .1519928 .13188172 .1519928 .16288758 .1519928 .19989014 .12298584 .21289063 .102996829 .21289063 .084991458 .21289063 .052993776 .20288086 .052993776 .15988159 .052993776 .069732669 .1309967-.021484375 .24598694-.021484375 .37098695-.021743775 .47698976 .07525635 .47698976 .19924927Z"/>
<path id="font_1_82" d="M.44699098 0V.032989503H.4119873C.31698609 .032989503 .31399537 .04499817 .31399537 .08203125V.6371765C.31399537 .664032 .31199647 .66503909 .2849884 .66503909 .24398804 .6252289 .19099427 .6013489 .09599304 .6013489V.5683594C.12298584 .5683594 .1769867 .5683594 .23498535 .5953522V.08203125C.23498535 .04499817 .23199463 .032989503 .13699341 .032989503H.101989749V0C.14299011 .0029907227 .22898865 .0029907227 .27398683 .0029907227 .31900025 .0029907227 .4059906 .0029907227 .44699098 0Z"/>
<path id="font_2_2" d="M.28199769 .20405579C.2979889 .21907044 .33999635 .2520752 .35598756 .26608277 .41799928 .32312013 .47698976 .3781433 .47698976 .46917726 .47698976 .588089 .3769989 .66503909 .2519989 .66503909 .13198853 .66503909 .052993776 .57411196 .052993776 .48516847 .052993776 .4361725 .09199524 .4291687 .10598755 .4291687 .1269989 .4291687 .1579895 .4441681 .1579895 .48217774 .1579895 .5341797 .10798645 .5341797 .09599304 .5341797 .125 .6070709 .19198609 .6320343 .24099732 .6320343 .33399964 .6320343 .38198854 .55314639 .38198854 .46917726 .38198854 .36514283 .30899049 .28910829 .19099427 .16804505L.06498718 .037994386C.052993776 .026992798 .052993776 .024993897 .052993776 0H.44799806L.47698976 .17904663H.44599916C.44299317 .1590271 .43499757 .10900879 .4229889 .08999634 .4169922 .08198547 .34098817 .08198547 .32499696 .08198547H.14698792L.28199769 .20405579Z"/>
<path id="font_2_1" d="M.4889984 .31877137C.4889984 .42585755 .47799684 .49090577 .44499208 .55496218 .40098573 .6430359 .31999208 .66503909 .2649994 .66503909 .13899231 .66503909 .09298706 .5709839 .07899475 .5429535 .042999269 .4698944 .040985109 .3708191 .040985109 .31877137 .040985109 .25271607 .04399109 .15162659 .09199524 .07156372 .13798523-.0024871827 .21199036-.021484375 .2649994-.021484375 .31298829-.021484375 .39898683-.0064849855 .44898988 .09257507 .48599244 .16464234 .4889984 .2537079 .4889984 .31877137M.2649994 .006515503C.23098755 .006515503 .1619873 .022521973 .14099121 .12760926 .12998963 .18466187 .12998963 .2787323 .12998963 .33078004 .12998963 .3998413 .12998963 .4698944 .14099121 .5249481 .1619873 .6270294 .23999024 .6370239 .2649994 .6370239 .29899598 .6370239 .36799623 .62002566 .3880005 .5289459 .3999939 .4738922 .3999939 .39883424 .3999939 .33078004 .3999939 .27172853 .3999939 .18165589 .3880005 .12561035 .36698915 .020523072 .2979889 .006515503 .2649994 .006515503Z"/>
<path id="font_3_1" d="M.18699646 .01499939C.18699646-.050109865 .17298889-.10720825 .11099243-.16934204 .10699463-.17234802 .10499573-.17434693 .10499573-.17933655 .10499573-.18734741 .11299133-.19334412 .11999512-.19334412 .13198853-.19334412 .21499634-.114227298 .21499634 .0029907227 .21499634 .066986087 .19099427 .11099243 .14698792 .11099243 .11199951 .11099243 .09199524 .08299255 .09199524 .055999757 .09199524 .027999878 .11099243 0 .147995 0 .17199707 0 .18699646 .01399231 .18699646 .01499939Z"/>
<path id="font_2_3" d="M.13999939 .5618439C.15299988 .55784609 .19299317 .54785159 .23498535 .54785159 .3600006 .54785159 .43598939 .6358948 .43598939 .6510315 .43598939 .6620331 .42900086 .66503909 .42399598 .66503909 .42199708 .66503909 .41999818 .66503909 .41099549 .6600342 .37199403 .6450348 .32598878 .632843 .27198792 .632843 .21299744 .632843 .1639862 .6480255 .1329956 .6600342 .12298584 .66503909 .12098694 .66503909 .11999512 .66503909 .10699463 .66503909 .10699463 .6540375 .10699463 .6358948V.34292604C.10699463 .32492066 .10699463 .312912 .12298584 .312912 .1309967 .312912 .13398743 .3169098 .13899231 .32492066 .15098572 .33992005 .18899536 .39093019 .27398683 .39093019 .32998658 .39093019 .35699464 .34492494 .3659973 .32591249 .3829956 .28990174 .3849945 .24389649 .3849945 .20487976 .3849945 .1678772 .38398744 .11387634 .35598756 .069732669 .33699037 .039611818 .29699708 .008514404 .24398804 .008514404 .1789856 .008514404 .114990238 .0496521 .09199524 .11488342 .09498596 .11387634 .100997928 .11387634 .101989749 .11387634 .12998963 .11387634 .1519928 .13188172 .1519928 .16288758 .1519928 .19989014 .12298584 .21289063 .102996829 .21289063 .084991458 .21289063 .052993776 .20288086 .052993776 .15988159 .052993776 .069732669 .1309967-.021484375 .24598694-.021484375 .37098695-.021484375 .47698976 .07574463 .47698976 .19989014 .47698976 .31591798 .3929901 .4189453 .2749939 .4189453 .22499085 .4189453 .17799378 .40293885 .13999939 .368927V.5618439Z"/>
<clipPath id="clip_4">
<path transform="matrix(1.00006,0,0,-1,27.970818,116.868007)" d="M0 0H348.6969V115.0703H0Z"/>
</clipPath>
<path id="font_5_118" d="M.5079956 .3996582V.43066407C.4850006 .4286499 .45599366 .42765809 .43299867 .42765809L.34599305 .43066407V.3996582C.3769989 .39866639 .3929901 .3816681 .3929901 .35668946 .3929901 .34669496 .3919983 .34469605 .3869934 .33270265L.28599549 .08685303 .1749878 .35568238C.17098999 .36567689 .16899109 .36967469 .16899109 .3736725 .16899109 .3996582 .20599365 .3996582 .22499085 .3996582V.43066407L.115997318 .42765809C.08898926 .42765809 .04899597 .4286499 .018997193 .43066407V.3996582C.066986087 .3996582 .085998538 .3996582 .099990848 .36468507L.25-.000091552738 .22499085-.059066774C.20298767-.11407471 .1749878-.18309021 .11099243-.18309021 .10598755-.18309021 .08299255-.18309021 .06399536-.16503906 .09498596-.16104126 .102996829-.13905335 .102996829-.123046878 .102996829-.0970459 .083999637-.08103943 .06098938-.08103943 .040985109-.08103943 .018997193-.09403992 .018997193-.124053958 .018997193-.16905213 .06098938-.20507813 .11099243-.20507813 .17399597-.20507813 .21499634-.14804077 .23899842-.091049198L.4149933 .33569337C.44099427 .39865113 .49198915 .3996582 .5079956 .3996582Z"/>
<path id="font_5_50" d="M.4149933 .11933899C.4149933 .12934876 .40699769 .13134766 .4019928 .13134766 .3929901 .13134766 .3909912 .12535095 .3889923 .11734009 .35398866 .014251709 .2639923 .014251709 .2539978 .014251709 .20399475 .014251709 .1639862 .044281007 .14099121 .08131409 .11099243 .12934876 .11099243 .19540406 .11099243 .23144531H.3899994C.4119873 .23144531 .4149933 .23144531 .4149933 .2524414 .4149933 .35131837 .36099244 .4482422 .23599243 .4482422 .11999512 .4482422 .027999878 .34532167 .027999878 .22042847 .027999878 .08631897 .1329956-.0107421879 .24798584-.0107421879 .36999513-.0107421879 .4149933 .10032654 .4149933 .11933899M.34899903 .2524414H.11199951C.117996219 .40126039 .20199585 .426239 .23599243 .426239 .33898927 .426239 .34899903 .2913971 .34899903 .2524414Z"/>
<path id="font_5_28" d="M.48298646 .08912659V.14511109H.45799256V.08912659C.45799256 .03112793 .43299867 .025131226 .42199708 .025131226 .3889923 .025131226 .3849945 .070129398 .3849945 .07511902V.27508546C.3849945 .31707765 .3849945 .3560791 .34899903 .39312745 .30999757 .43223573 .2599945 .4482422 .21199036 .4482422 .12998963 .4482422 .06098938 .40115357 .06098938 .335083 .06098938 .30508424 .08099365 .28808595 .10699463 .28808595 .1349945 .28808595 .15299988 .30807496 .15299988 .33407594 .15299988 .3460846 .147995 .37908937 .101989749 .38008119 .1289978 .41519166 .17799378 .426239 .20999146 .426239 .25898744 .426239 .31599427 .38710023 .31599427 .29808045V.26107789C.2649994 .25808717 .19499207 .25508119 .13198853 .22509766 .056991579 .19110108 .03199768 .13911438 .03199768 .09512329 .03199768 .014251709 .1289978-.0107421879 .19198609-.0107421879 .2579956-.0107421879 .3039856 .029251099 .32299806 .07624817 .32699586 .036132814 .35398866-.005859375 .40098573-.005859375 .42199708-.005859375 .48298646 .008132935 .48298646 .08912659M.31599427 .14013672C.31599427 .04525757 .24398804 .011245728 .19898987 .011245728 .1499939 .011245728 .10899353 .04624939 .10899353 .09625244 .10899353 .15124512 .15098572 .23425293 .31599427 .24024964V.14013672Z"/>
<path id="font_5_96" d="M.3639984 .38137818C.3639984 .41337586 .33299256 .4423828 .2899933 .4423828 .21699524 .4423828 .18099976 .37538148 .16699219 .3323822V.4423828L.027999878 .43066407V.3996582C.09799194 .3996582 .10598755 .39266969 .10598755 .34370423V.07595825C.10598755 .0309906 .09498596 .0309906 .027999878 .0309906V0L.14199829 .0029907227C.18199158 .0029907227 .22898865 .0029907227 .2689972 0V.0309906H.24798584C.17399597 .0309906 .17199707 .04197693 .17199707 .07795715V.23181153C.17199707 .33137513 .21398926 .42037965 .2899933 .42037965 .29699708 .42037965 .29899598 .42037965 .30099488 .41937257 .2979889 .41838075 .27799989 .40637208 .27799989 .3803711 .27799989 .35237123 .29899598 .33737184 .32099916 .33737184 .33898927 .33737184 .3639984 .3493805 .3639984 .38137818Z"/>
<path id="font_5_43" d="M.4149933 .119140628C.4149933 .12911988 .40499879 .12911988 .4019928 .12911988 .3929901 .12911988 .3909912 .12512207 .3889923 .119140628 .3600006 .026229859 .29499818 .014251709 .2579956 .014251709 .20498657 .014251709 .116989139 .0572052 .116989139 .21801758 .116989139 .38093568 .19898987 .42323304 .2519989 .42323304 .26098634 .42323304 .32398988 .42222596 .35899354 .38594056 .31799317 .38293458 .31199647 .3529358 .31199647 .3399353 .31199647 .31393434 .32998658 .2939453 .35798646 .2939453 .38398744 .2939453 .4039917 .3109436 .4039917 .34094239 .4039917 .40911866 .32798768 .4482422 .25099183 .4482422 .12599182 .4482422 .033996583 .3399353 .033996583 .21601868 .033996583 .08816528 .1329956-.0107421879 .24899292-.0107421879 .3829956-.0107421879 .4149933 .10914612 .4149933 .119140628Z"/>
<path id="font_5_81" d="M.47099305 .21424866C.47099305 .34223939 .37098695 .4482422 .25 .4482422 .125 .4482422 .027999878 .3392334 .027999878 .21424866 .027999878 .085250858 .13198853-.0107421879 .24899292-.0107421879 .36999513-.0107421879 .47099305 .087249759 .47099305 .21424866M.3880005 .22224427C.3880005 .18624878 .3880005 .13224793 .3659973 .08824158 .34399415 .04324341 .2999878 .014251709 .25 .014251709 .20698548 .014251709 .16299439 .035247804 .13598633 .08125305 .11099243 .12524414 .11099243 .18624878 .11099243 .22224427 .11099243 .26124574 .11099243 .31523133 .1349945 .35923768 .1619873 .40522767 .20899964 .426239 .24899292 .426239 .29299928 .426239 .33599855 .40423585 .3619995 .36123658 .3880005 .3182373 .3880005 .26023866 .3880005 .22224427Z"/>
<path id="font_5_109" d="M.5349884 0V.0309906C.46499635 .0309906 .45700074 .037994386 .45700074 .08705139V.4423828L.30999757 .43066407V.3996582C.37998963 .3996582 .3880005 .39266969 .3880005 .34373475V.16601563C.3880005 .07910156 .33999635 .011245728 .2669983 .011245728 .18299866 .011245728 .1789856 .058135988 .1789856 .11009216V.4423828L.03199768 .43066407V.3996582C.10998535 .3996582 .10998535 .39666749 .10998535 .3078003V.15802002C.10998535 .080093387 .10998535-.0107421879 .2619934-.0107421879 .31799317-.0107421879 .3619995 .017242432 .3909912 .07910156V-.0107421879L.5349884 0Z"/>
<path id="font_5_77" d="M.5349884 0V.0309906C.48298646 .0309906 .45799256 .0309906 .45700074 .061019899V.25221253C.45700074 .3383026 .45700074 .36932374 .42599488 .405365 .4119873 .42237855 .3789978 .4423828 .32099916 .4423828 .24798584 .4423828 .20098877 .39935304 .17298889 .33729554V.4423828L.03199768 .43066407V.3996582C.101989749 .3996582 .10998535 .39266969 .10998535 .34370423V.07595825C.10998535 .0309906 .09899902 .0309906 .03199768 .0309906V0L.14498902 .0029907227 .25698854 0V.0309906C.18998719 .0309906 .1789856 .0309906 .1789856 .07595825V.25978089C.1789856 .36431886 .25 .42037965 .31399537 .42037965 .3769989 .42037965 .3880005 .36631776 .3880005 .30926515V.076034549C.3880005 .0309906 .3769989 .0309906 .30999757 .0309906V0L.4229889 .0029907227 .5349884 0Z"/>
<path id="font_5_105" d="M.33198548 .12385559V.18066406H.30699159V.12585449C.30699159 .052108766 .2769928 .014251709 .23999024 .014251709 .17298889 .014251709 .17298889 .10491943 .17298889 .12187195V.3996582H.31599427V.43066407H.17298889V.6142578H.147995C.14698792 .5324249 .116989139 .42565919 .018997193 .42166139V.3996582H.10398865V.12408447C.10398865 .0012512207 .19699097-.0107421879 .23298645-.0107421879 .3039856-.0107421879 .33198548 .060180665 .33198548 .12408447V.12385559Z"/>
</defs>
<path transform="matrix(1.00006,0,0,-1,27.970818,116.868007)" d="M0 0H348.6969V115.0703H0Z" fill="#fffac2"/>
<path transform="matrix(1.00006,0,0,-1,27.970818,116.868007)" stroke-width=".3985" stroke-linecap="butt" stroke-miterlimit="10" stroke-linejoin="miter" fill="none" stroke="#d5d6d5" d=""/>
<path transform="matrix(1.00006,0,0,-1,27.970818,116.868007)" stroke-width=".3985" stroke-linecap="butt" stroke-miterlimit="10" stroke-linejoin="miter" fill="none" stroke="#d5d6d5" d="M69.73938 0V115.0703M139.47876 0V115.0703M209.21814 0V115.0703M278.95753 0V115.0703M348.6969 0V115.0703"/>
<path transform="matrix(1.00006,0,0,-1,27.970818,116.868007)" stroke-width=".3985" stroke-linecap="butt" stroke-miterlimit="10" stroke-linejoin="miter" fill="none" stroke="#d5d6d5" d=""/>
<path transform="matrix(1.00006,0,0,-1,27.970818,116.868007)" stroke-width=".3985" stroke-linecap="butt" stroke-miterlimit="10" stroke-linejoin="miter" fill="none" stroke="#d5d6d5" d="M0 52.30467H348.6969M0 104.60936H348.6969"/>
<path transform="matrix(1.00006,0,0,-1,27.970818,116.868007)" stroke-width=".19925" stroke-linecap="butt" stroke-miterlimit="10" stroke-linejoin="miter" fill="none" stroke="#929292" d=""/>
<path transform="matrix(1.00006,0,0,-1,27.970818,116.868007)" stroke-width=".19925" stroke-linecap="butt" stroke-miterlimit="10" stroke-linejoin="miter" fill="none" stroke="#929292" d="M69.73938-2.12573V2.12573M139.47876-2.12573V2.12573M209.21814-2.12573V2.12573M278.95753-2.12573V2.12573M348.6969-2.12573V2.12573"/>
<path transform="matrix(1.00006,0,0,-1,27.970818,116.868007)" stroke-width=".19925" stroke-linecap="butt" stroke-miterlimit="10" stroke-linejoin="miter" fill="none" stroke="#929292" d=""/>
<path transform="matrix(1.00006,0,0,-1,27.970818,116.868007)" stroke-width=".19925" stroke-linecap="butt" stroke-miterlimit="10" stroke-linejoin="miter" fill="none" stroke="#929292" d="M-2.12572 52.30467H2.12572M-2.12572 104.60936H2.12572"/>
<path transform="matrix(1.00006,0,0,-1,27.970818,116.868007)" stroke-width=".3985" stroke-linecap="butt" stroke-miterlimit="10" stroke-linejoin="miter" fill="none" stroke="#000000" d="M0 0H346.70436"/>
<path transform="matrix(1.00006,0,0,-1,374.69596,116.868007)" d="M1.99252 0-1.19551 1.59401 0 0-1.19551-1.59401"/>
<path transform="matrix(1.00006,0,0,-1,27.970818,116.868007)" stroke-width=".3985" stroke-linecap="butt" stroke-miterlimit="10" stroke-linejoin="miter" fill="none" stroke="#000000" d="M0 0V3.9851L-3.9851 6.97394 3.9851 12.9516 0 15.94043V113.07777"/>
<path transform="matrix(0,-1,-1.00006,-0,27.970818,3.7902375)" d="M1.99252 0-1.19551 1.59401 0 0-1.19551-1.59401"/>
<use data-text="2" xlink:href="#font_1_107" transform="matrix(5.6359956,5.6356575,5.6359956,-5.6356575,89.91478,127.71915)"/>
<use data-text="0" xlink:href="#font_1_121" transform="matrix(5.6359956,5.6356575,5.6359956,-5.6356575,92.90749,130.71169)"/>
<use data-text="0" xlink:href="#font_1_121" transform="matrix(5.6359956,5.6356575,5.6359956,-5.6356575,95.90021,133.70423)"/>
<use data-text="5" xlink:href="#font_1_56" transform="matrix(5.6359956,5.6356575,5.6359956,-5.6356575,98.89293,136.69676)"/>
<use data-text="2" xlink:href="#font_1_107" transform="matrix(5.6359956,5.6356575,5.6359956,-5.6356575,159.65796,127.71915)"/>
<use data-text="0" xlink:href="#font_1_121" transform="matrix(5.6359956,5.6356575,5.6359956,-5.6356575,162.65067,130.71169)"/>
<use data-text="1" xlink:href="#font_1_82" transform="matrix(5.6359956,5.6356575,5.6359956,-5.6356575,165.64339,133.70423)"/>
<use data-text="0" xlink:href="#font_1_121" transform="matrix(5.6359956,5.6356575,5.6359956,-5.6356575,168.63611,136.69676)"/>
<use data-text="2" xlink:href="#font_1_107" transform="matrix(5.6359956,5.6356575,5.6359956,-5.6356575,229.40114,127.71915)"/>
<use data-text="0" xlink:href="#font_1_121" transform="matrix(5.6359956,5.6356575,5.6359956,-5.6356575,232.39386,130.71169)"/>
<use data-text="1" xlink:href="#font_1_82" transform="matrix(5.6359956,5.6356575,5.6359956,-5.6356575,235.38657,133.70423)"/>
<use data-text="5" xlink:href="#font_1_56" transform="matrix(5.6359956,5.6356575,5.6359956,-5.6356575,238.37929,136.69676)"/>
<use data-text="2" xlink:href="#font_1_107" transform="matrix(5.6359956,5.6356575,5.6359956,-5.6356575,299.14533,127.71915)"/>
<use data-text="0" xlink:href="#font_1_121" transform="matrix(5.6359956,5.6356575,5.6359956,-5.6356575,302.13807,130.71169)"/>
<use data-text="2" xlink:href="#font_1_107" transform="matrix(5.6359956,5.6356575,5.6359956,-5.6356575,305.13078,133.70423)"/>
<use data-text="0" xlink:href="#font_1_121" transform="matrix(5.6359956,5.6356575,5.6359956,-5.6356575,308.12348,136.69676)"/>
<use data-text="2" xlink:href="#font_1_107" transform="matrix(5.6359956,5.6356575,5.6359956,-5.6356575,368.8885,127.71915)"/>
<use data-text="0" xlink:href="#font_1_121" transform="matrix(5.6359956,5.6356575,5.6359956,-5.6356575,371.88124,130.71169)"/>
<use data-text="2" xlink:href="#font_1_107" transform="matrix(5.6359956,5.6356575,5.6359956,-5.6356575,374.87394,133.70423)"/>
<use data-text="5" xlink:href="#font_1_56" transform="matrix(5.6359956,5.6356575,5.6359956,-5.6356575,377.86665,136.69676)"/>
<use data-text="2" xlink:href="#font_2_2" transform="matrix(7.9705779,0,0,-7.9701,.691185,66.357)"/>
<use data-text="0" xlink:href="#font_2_1" transform="matrix(7.9705779,0,0,-7.9701,4.923561,66.357)"/>
<use data-text="," xlink:href="#font_3_1" transform="matrix(7.9705779,0,0,-7.9701,9.16069,66.357)"/>
<use data-text="0" xlink:href="#font_2_1" transform="matrix(7.9705779,0,0,-7.9701,11.512833,66.357)"/>
<use data-text="0" xlink:href="#font_2_1" transform="matrix(7.9705779,0,0,-7.9701,15.745209,66.357)"/>
<use data-text="0" xlink:href="#font_2_1" transform="matrix(7.9705779,0,0,-7.9701,19.977585,66.357)"/>
<use data-text="2" xlink:href="#font_2_2" transform="matrix(7.9705779,0,0,-7.9701,.691185,14.052002)"/>
<use data-text="5" xlink:href="#font_2_3" transform="matrix(7.9705779,0,0,-7.9701,4.923561,14.052002)"/>
<use data-text="," xlink:href="#font_3_1" transform="matrix(7.9705779,0,0,-7.9701,9.16069,14.052002)"/>
<use data-text="0" xlink:href="#font_2_1" transform="matrix(7.9705779,0,0,-7.9701,11.512833,14.052002)"/>
<use data-text="0" xlink:href="#font_2_1" transform="matrix(7.9705779,0,0,-7.9701,15.745209,14.052002)"/>
<use data-text="0" xlink:href="#font_2_1" transform="matrix(7.9705779,0,0,-7.9701,19.977585,14.052002)"/>
<g clip-path="url(#clip_4)">
</g>
<path transform="matrix(1.00006,0,0,-1,27.970818,116.868007)" d="M1.99255 25.71297C1.99255 26.81345 1.10046 27.70552 0 27.70552-1.10046 27.70552-1.99255 26.81345-1.99255 25.71297-1.99255 24.6125-1.10046 23.72041 0 23.72041 1.10046 23.72041 1.99255 24.6125 1.99255 25.71297ZM0 25.71297"/>
<path transform="matrix(1.00006,0,0,-1,27.970818,116.868007)" stroke-width=".3985" stroke-linecap="butt" stroke-miterlimit="10" stroke-linejoin="miter" fill="none" stroke="#000000" d="M1.99255 25.71297C1.99255 26.81345 1.10046 27.70552 0 27.70552-1.10046 27.70552-1.99255 26.81345-1.99255 25.71297-1.99255 24.6125-1.10046 23.72041 0 23.72041 1.10046 23.72041 1.99255 24.6125 1.99255 25.71297ZM0 25.71297"/>
<path transform="matrix(1.00006,0,0,-1,27.970818,116.868007)" d="M15.94043 29.93918C15.94043 31.03966 15.04834 31.93173 13.94788 31.93173 12.8474 31.93173 11.95532 31.03966 11.95532 29.93918 11.95532 28.83871 12.8474 27.94662 13.94788 27.94662 15.04834 27.94662 15.94043 28.83871 15.94043 29.93918ZM13.94788 29.93918"/>
<path transform="matrix(1.00006,0,0,-1,27.970818,116.868007)" stroke-width=".3985" stroke-linecap="butt" stroke-miterlimit="10" stroke-linejoin="miter" fill="none" stroke="#000000" d="M15.94043 29.93918C15.94043 31.03966 15.04834 31.93173 13.94788 31.93173 12.8474 31.93173 11.95532 31.03966 11.95532 29.93918 11.95532 28.83871 12.8474 27.94662 13.94788 27.94662 15.04834 27.94662 15.94043 28.83871 15.94043 29.93918ZM13.94788 29.93918"/>
<path transform="matrix(1.00006,0,0,-1,27.970818,116.868007)" d="M29.8883 30.117C29.8883 31.21748 28.99622 32.10956 27.89575 32.10956 26.79527 32.10956 25.9032 31.21748 25.9032 30.117 25.9032 29.01654 26.79527 28.12445 27.89575 28.12445 28.99622 28.12445 29.8883 29.01654 29.8883 30.117ZM27.89575 30.117"/>
<path transform="matrix(1.00006,0,0,-1,27.970818,116.868007)" stroke-width=".3985" stroke-linecap="butt" stroke-miterlimit="10" stroke-linejoin="miter" fill="none" stroke="#000000" d="M29.8883 30.117C29.8883 31.21748 28.99622 32.10956 27.89575 32.10956 26.79527 32.10956 25.9032 31.21748 25.9032 30.117 25.9032 29.01654 26.79527 28.12445 27.89575 28.12445 28.99622 28.12445 29.8883 29.01654 29.8883 30.117ZM27.89575 30.117"/>
<path transform="matrix(1.00006,0,0,-1,27.970818,116.868007)" d="M43.83618 27.09381C43.83618 28.19427 42.94409 29.08636 41.84363 29.08636 40.74315 29.08636 39.85107 28.19427 39.85107 27.09381 39.85107 25.99333 40.74315 25.10126 41.84363 25.10126 42.94409 25.10126 43.83618 25.99333 43.83618 27.09381ZM41.84363 27.09381"/>
<path transform="matrix(1.00006,0,0,-1,27.970818,116.868007)" stroke-width=".3985" stroke-linecap="butt" stroke-miterlimit="10" stroke-linejoin="miter" fill="none" stroke="#000000" d="M43.83618 27.09381C43.83618 28.19427 42.94409 29.08636 41.84363 29.08636 40.74315 29.08636 39.85107 28.19427 39.85107 27.09381 39.85107 25.99333 40.74315 25.10126 41.84363 25.10126 42.94409 25.10126 43.83618 25.99333 43.83618 27.09381ZM41.84363 27.09381"/>
<path transform="matrix(1.00006,0,0,-1,27.970818,116.868007)" d="M57.78406 36.58188C57.78406 37.68236 56.89197 38.57443 55.7915 38.57443 54.69102 38.57443 53.79895 37.68236 53.79895 36.58188 53.79895 35.48141 54.69102 34.58932 55.7915 34.58932 56.89197 34.58932 57.78406 35.48141 57.78406 36.58188ZM55.7915 36.58188"/>
<path transform="matrix(1.00006,0,0,-1,27.970818,116.868007)" stroke-width=".3985" stroke-linecap="butt" stroke-miterlimit="10" stroke-linejoin="miter" fill="none" stroke="#000000" d="M57.78406 36.58188C57.78406 37.68236 56.89197 38.57443 55.7915 38.57443 54.69102 38.57443 53.79895 37.68236 53.79895 36.58188 53.79895 35.48141 54.69102 34.58932 55.7915 34.58932 56.89197 34.58932 57.78406 35.48141 57.78406 36.58188ZM55.7915 36.58188"/>
<path transform="matrix(1.00006,0,0,-1,27.970818,116.868007)" d="M71.73193 39.0402C71.73193 40.14069 70.83984 41.03276 69.73938 41.03276 68.6389 41.03276 67.74683 40.14069 67.74683 39.0402 67.74683 37.93974 68.6389 37.04765 69.73938 37.04765 70.83984 37.04765 71.73193 37.93974 71.73193 39.0402ZM69.73938 39.0402"/>
<path transform="matrix(1.00006,0,0,-1,27.970818,116.868007)" stroke-width=".3985" stroke-linecap="butt" stroke-miterlimit="10" stroke-linejoin="miter" fill="none" stroke="#000000" d="M71.73193 39.0402C71.73193 40.14069 70.83984 41.03276 69.73938 41.03276 68.6389 41.03276 67.74683 40.14069 67.74683 39.0402 67.74683 37.93974 68.6389 37.04765 69.73938 37.04765 70.83984 37.04765 71.73193 37.93974 71.73193 39.0402ZM69.73938 39.0402"/>
<path transform="matrix(1.00006,0,0,-1,27.970818,116.868007)" d="M85.67981 43.52794C85.67981 44.6284 84.78772 45.5205 83.68726 45.5205 82.58678 45.5205 81.6947 44.6284 81.6947 43.52794 81.6947 42.42747 82.58678 41.53539 83.68726 41.53539 84.78772 41.53539 85.67981 42.42747 85.67981 43.52794ZM83.68726 43.52794"/>
<path transform="matrix(1.00006,0,0,-1,27.970818,116.868007)" stroke-width=".3985" stroke-linecap="butt" stroke-miterlimit="10" stroke-linejoin="miter" fill="none" stroke="#000000" d="M85.67981 43.52794C85.67981 44.6284 84.78772 45.5205 83.68726 45.5205 82.58678 45.5205 81.6947 44.6284 81.6947 43.52794 81.6947 42.42747 82.58678 41.53539 83.68726 41.53539 84.78772 41.53539 85.67981 42.42747 85.67981 43.52794ZM83.68726 43.52794"/>
<path transform="matrix(1.00006,0,0,-1,27.970818,116.868007)" d="M99.62769 46.34195C99.62769 47.44241 98.7356 48.3345 97.63513 48.3345 96.53465 48.3345 95.64258 47.44241 95.64258 46.34195 95.64258 45.24147 96.53465 44.3494 97.63513 44.3494 98.7356 44.3494 99.62769 45.24147 99.62769 46.34195ZM97.63513 46.34195"/>
<path transform="matrix(1.00006,0,0,-1,27.970818,116.868007)" stroke-width=".3985" stroke-linecap="butt" stroke-miterlimit="10" stroke-linejoin="miter" fill="none" stroke="#000000" d="M99.62769 46.34195C99.62769 47.44241 98.7356 48.3345 97.63513 48.3345 96.53465 48.3345 95.64258 47.44241 95.64258 46.34195 95.64258 45.24147 96.53465 44.3494 97.63513 44.3494 98.7356 44.3494 99.62769 45.24147 99.62769 46.34195ZM97.63513 46.34195"/>
<path transform="matrix(1.00006,0,0,-1,27.970818,116.868007)" d="M113.57556 57.10625C113.57556 58.20671 112.68347 59.0988 111.58301 59.0988 110.48253 59.0988 109.59045 58.20671 109.59045 57.10625 109.59045 56.00577 110.48253 55.1137 111.58301 55.1137 112.68347 55.1137 113.57556 56.00577 113.57556 57.10625ZM111.58301 57.10625"/>
<path transform="matrix(1.00006,0,0,-1,27.970818,116.868007)" stroke-width=".3985" stroke-linecap="butt" stroke-miterlimit="10" stroke-linejoin="miter" fill="none" stroke="#000000" d="M113.57556 57.10625C113.57556 58.20671 112.68347 59.0988 111.58301 59.0988 110.48253 59.0988 109.59045 58.20671 109.59045 57.10625 109.59045 56.00577 110.48253 55.1137 111.58301 55.1137 112.68347 55.1137 113.57556 56.00577 113.57556 57.10625ZM111.58301 57.10625"/>
<path transform="matrix(1.00006,0,0,-1,27.970818,116.868007)" d="M127.52344 52.37791C127.52344 53.47838 126.63135 54.37047 125.53088 54.37047 124.4304 54.37047 123.53833 53.47838 123.53833 52.37791 123.53833 51.27744 124.4304 50.38536 125.53088 50.38536 126.63135 50.38536 127.52344 51.27744 127.52344 52.37791ZM125.53088 52.37791"/>
<path transform="matrix(1.00006,0,0,-1,27.970818,116.868007)" stroke-width=".3985" stroke-linecap="butt" stroke-miterlimit="10" stroke-linejoin="miter" fill="none" stroke="#000000" d="M127.52344 52.37791C127.52344 53.47838 126.63135 54.37047 125.53088 54.37047 124.4304 54.37047 123.53833 53.47838 123.53833 52.37791 123.53833 51.27744 124.4304 50.38536 125.53088 50.38536 126.63135 50.38536 127.52344 51.27744 127.52344 52.37791ZM125.53088 52.37791"/>
<path transform="matrix(1.00006,0,0,-1,27.970818,116.868007)" d="M141.47132 51.12257C141.47132 52.22304 140.57923 53.11513 139.47876 53.11513 138.37828 53.11513 137.4862 52.22304 137.4862 51.12257 137.4862 50.0221 138.37828 49.13002 139.47876 49.13002 140.57923 49.13002 141.47132 50.0221 141.47132 51.12257ZM139.47876 51.12257"/>
<path transform="matrix(1.00006,0,0,-1,27.970818,116.868007)" stroke-width=".3985" stroke-linecap="butt" stroke-miterlimit="10" stroke-linejoin="miter" fill="none" stroke="#000000" d="M141.47132 51.12257C141.47132 52.22304 140.57923 53.11513 139.47876 53.11513 138.37828 53.11513 137.4862 52.22304 137.4862 51.12257 137.4862 50.0221 138.37828 49.13002 139.47876 49.13002 140.57923 49.13002 141.47132 50.0221 141.47132 51.12257ZM139.47876 51.12257"/>
<path transform="matrix(1.00006,0,0,-1,27.970818,116.868007)" d="M155.41919 61.3743C155.41919 62.47478 154.5271 63.36685 153.42664 63.36685 152.32616 63.36685 151.43408 62.47478 151.43408 61.3743 151.43408 60.27383 152.32616 59.38174 153.42664 59.38174 154.5271 59.38174 155.41919 60.27383 155.41919 61.3743ZM153.42664 61.3743"/>
<path transform="matrix(1.00006,0,0,-1,27.970818,116.868007)" stroke-width=".3985" stroke-linecap="butt" stroke-miterlimit="10" stroke-linejoin="miter" fill="none" stroke="#000000" d="M155.41919 61.3743C155.41919 62.47478 154.5271 63.36685 153.42664 63.36685 152.32616 63.36685 151.43408 62.47478 151.43408 61.3743 151.43408 60.27383 152.32616 59.38174 153.42664 59.38174 154.5271 59.38174 155.41919 60.27383 155.41919 61.3743ZM153.42664 61.3743"/>
<path transform="matrix(1.00006,0,0,-1,27.970818,116.868007)" d="M169.36707 56.99117C169.36707 58.09163 168.47498 58.98372 167.37451 58.98372 166.27404 58.98372 165.38196 58.09163 165.38196 56.99117 165.38196 55.89069 166.27404 54.99861 167.37451 54.99861 168.47498 54.99861 169.36707 55.89069 169.36707 56.99117ZM167.37451 56.99117"/>
<path transform="matrix(1.00006,0,0,-1,27.970818,116.868007)" stroke-width=".3985" stroke-linecap="butt" stroke-miterlimit="10" stroke-linejoin="miter" fill="none" stroke="#000000" d="M169.36707 56.99117C169.36707 58.09163 168.47498 58.98372 167.37451 58.98372 166.27404 58.98372 165.38196 58.09163 165.38196 56.99117 165.38196 55.89069 166.27404 54.99861 167.37451 54.99861 168.47498 54.99861 169.36707 55.89069 169.36707 56.99117ZM167.37451 56.99117"/>
<path transform="matrix(1.00006,0,0,-1,27.970818,116.868007)" d="M183.31494 66.46878C183.31494 67.56924 182.42285 68.46133 181.32239 68.46133 180.22191 68.46133 179.32984 67.56924 179.32984 66.46878 179.32984 65.3683 180.22191 64.47623 181.32239 64.47623 182.42285 64.47623 183.31494 65.3683 183.31494 66.46878ZM181.32239 66.46878"/>
<path transform="matrix(1.00006,0,0,-1,27.970818,116.868007)" stroke-width=".3985" stroke-linecap="butt" stroke-miterlimit="10" stroke-linejoin="miter" fill="none" stroke="#000000" d="M183.31494 66.46878C183.31494 67.56924 182.42285 68.46133 181.32239 68.46133 180.22191 68.46133 179.32984 67.56924 179.32984 66.46878 179.32984 65.3683 180.22191 64.47623 181.32239 64.47623 182.42285 64.47623 183.31494 65.3683 183.31494 66.46878ZM181.32239 66.46878"/>
<path transform="matrix(1.00006,0,0,-1,27.970818,116.868007)" d="M197.26282 69.94182C197.26282 71.04228 196.37073 71.93437 195.27027 71.93437 194.16979 71.93437 193.27771 71.04228 193.27771 69.94182 193.27771 68.84134 194.16979 67.94926 195.27027 67.94926 196.37073 67.94926 197.26282 68.84134 197.26282 69.94182ZM195.27027 69.94182"/>
<path transform="matrix(1.00006,0,0,-1,27.970818,116.868007)" stroke-width=".3985" stroke-linecap="butt" stroke-miterlimit="10" stroke-linejoin="miter" fill="none" stroke="#000000" d="M197.26282 69.94182C197.26282 71.04228 196.37073 71.93437 195.27027 71.93437 194.16979 71.93437 193.27771 71.04228 193.27771 69.94182 193.27771 68.84134 194.16979 67.94926 195.27027 67.94926 196.37073 67.94926 197.26282 68.84134 197.26282 69.94182ZM195.27027 69.94182"/>
<path transform="matrix(1.00006,0,0,-1,27.970818,116.868007)" d="M211.2107 74.83752C211.2107 75.93799 210.3186 76.83008 209.21814 76.83008 208.11766 76.83008 207.22559 75.93799 207.22559 74.83752 207.22559 73.73705 208.11766 72.84497 209.21814 72.84497 210.3186 72.84497 211.2107 73.73705 211.2107 74.83752ZM209.21814 74.83752"/>
<path transform="matrix(1.00006,0,0,-1,27.970818,116.868007)" stroke-width=".3985" stroke-linecap="butt" stroke-miterlimit="10" stroke-linejoin="miter" fill="none" stroke="#000000" d="M211.2107 74.83752C211.2107 75.93799 210.3186 76.83008 209.21814 76.83008 208.11766 76.83008 207.22559 75.93799 207.22559 74.83752 207.22559 73.73705 208.11766 72.84497 209.21814 72.84497 210.3186 72.84497 211.2107 73.73705 211.2107 74.83752ZM209.21814 74.83752"/>
<path transform="matrix(1.00006,0,0,-1,27.970818,116.868007)" d="M225.15857 74.56555C225.15857 75.66602 224.26648 76.5581 223.16602 76.5581 222.06554 76.5581 221.17346 75.66602 221.17346 74.56555 221.17346 73.46507 222.06554 72.573 223.16602 72.573 224.26648 72.573 225.15857 73.46507 225.15857 74.56555ZM223.16602 74.56555"/>
<path transform="matrix(1.00006,0,0,-1,27.970818,116.868007)" stroke-width=".3985" stroke-linecap="butt" stroke-miterlimit="10" stroke-linejoin="miter" fill="none" stroke="#000000" d="M225.15857 74.56555C225.15857 75.66602 224.26648 76.5581 223.16602 76.5581 222.06554 76.5581 221.17346 75.66602 221.17346 74.56555 221.17346 73.46507 222.06554 72.573 223.16602 72.573 224.26648 72.573 225.15857 73.46507 225.15857 74.56555ZM223.16602 74.56555"/>
<path transform="matrix(1.00006,0,0,-1,27.970818,116.868007)" d="M239.10645 83.80255C239.10645 84.90303 238.21436 85.7951 237.11389 85.7951 236.01342 85.7951 235.12134 84.90303 235.12134 83.80255 235.12134 82.70209 236.01342 81.81 237.11389 81.81 238.21436 81.81 239.10645 82.70209 239.10645 83.80255ZM237.11389 83.80255"/>
<path transform="matrix(1.00006,0,0,-1,27.970818,116.868007)" stroke-width=".3985" stroke-linecap="butt" stroke-miterlimit="10" stroke-linejoin="miter" fill="none" stroke="#000000" d="M239.10645 83.80255C239.10645 84.90303 238.21436 85.7951 237.11389 85.7951 236.01342 85.7951 235.12134 84.90303 235.12134 83.80255 235.12134 82.70209 236.01342 81.81 237.11389 81.81 238.21436 81.81 239.10645 82.70209 239.10645 83.80255ZM237.11389 83.80255"/>
<path transform="matrix(1.00006,0,0,-1,27.970818,116.868007)" d="M253.05432 79.92154C253.05432 81.022 252.16223 81.9141 251.06177 81.9141 249.96129 81.9141 249.06922 81.022 249.06922 79.92154 249.06922 78.82106 249.96129 77.92899 251.06177 77.92899 252.16223 77.92899 253.05432 78.82106 253.05432 79.92154ZM251.06177 79.92154"/>
<path transform="matrix(1.00006,0,0,-1,27.970818,116.868007)" stroke-width=".3985" stroke-linecap="butt" stroke-miterlimit="10" stroke-linejoin="miter" fill="none" stroke="#000000" d="M253.05432 79.92154C253.05432 81.022 252.16223 81.9141 251.06177 81.9141 249.96129 81.9141 249.06922 81.022 249.06922 79.92154 249.06922 78.82106 249.96129 77.92899 251.06177 77.92899 252.16223 77.92899 253.05432 78.82106 253.05432 79.92154ZM251.06177 79.92154"/>
<path transform="matrix(1.00006,0,0,-1,27.970818,116.868007)" d="M267.0022 91.5855C267.0022 92.68597 266.1101 93.57805 265.00965 93.57805 263.90916 93.57805 263.0171 92.68597 263.0171 91.5855 263.0171 90.48503 263.90916 89.59294 265.00965 89.59294 266.1101 89.59294 267.0022 90.48503 267.0022 91.5855ZM265.00965 91.5855"/>
<path transform="matrix(1.00006,0,0,-1,27.970818,116.868007)" stroke-width=".3985" stroke-linecap="butt" stroke-miterlimit="10" stroke-linejoin="miter" fill="none" stroke="#000000" d="M267.0022 91.5855C267.0022 92.68597 266.1101 93.57805 265.00965 93.57805 263.90916 93.57805 263.0171 92.68597 263.0171 91.5855 263.0171 90.48503 263.90916 89.59294 265.00965 89.59294 266.1101 89.59294 267.0022 90.48503 267.0022 91.5855ZM265.00965 91.5855"/>
<path transform="matrix(1.00006,0,0,-1,27.970818,116.868007)" d="M280.95008 53.88428C280.95008 54.98474 280.05799 55.87683 278.95753 55.87683 277.85704 55.87683 276.96498 54.98474 276.96498 53.88428 276.96498 52.7838 277.85704 51.89172 278.95753 51.89172 280.05799 51.89172 280.95008 52.7838 280.95008 53.88428ZM278.95753 53.88428"/>
<path transform="matrix(1.00006,0,0,-1,27.970818,116.868007)" stroke-width=".3985" stroke-linecap="butt" stroke-miterlimit="10" stroke-linejoin="miter" fill="none" stroke="#000000" d="M280.95008 53.88428C280.95008 54.98474 280.05799 55.87683 278.95753 55.87683 277.85704 55.87683 276.96498 54.98474 276.96498 53.88428 276.96498 52.7838 277.85704 51.89172 278.95753 51.89172 280.05799 51.89172 280.95008 52.7838 280.95008 53.88428ZM278.95753 53.88428"/>
<path transform="matrix(1.00006,0,0,-1,27.970818,116.868007)" stroke-width=".3985" stroke-linecap="butt" stroke-miterlimit="10" stroke-linejoin="miter" fill="none" stroke="#000000" d=""/>
<use data-text="y" xlink:href="#font_5_118" transform="matrix(9.963197,0,0,-9.9626,354.87544,111.30601)"/>
<use data-text="e" xlink:href="#font_5_50" transform="matrix(9.963197,0,0,-9.9626,359.86698,111.30601)"/>
<use data-text="a" xlink:href="#font_5_28" transform="matrix(9.963197,0,0,-9.9626,364.29066,111.30601)"/>
<use data-text="r" xlink:href="#font_5_96" transform="matrix(9.963197,0,0,-9.9626,369.27226,111.30601)"/>
<use data-text="c" xlink:href="#font_5_43" transform="matrix(9.963197,0,0,-9.9626,31.491028,11.445007)"/>
<use data-text="o" xlink:href="#font_5_81" transform="matrix(9.963197,0,0,-9.9626,35.91469,11.445007)"/>
<use data-text="u" xlink:href="#font_5_109" transform="matrix(9.963197,0,0,-9.9626,40.896287,11.445007)"/>
<use data-text="n" xlink:href="#font_5_77" transform="matrix(9.963197,0,0,-9.9626,46.43582,11.445007)"/>
<use data-text="t" xlink:href="#font_5_105" transform="matrix(9.963197,0,0,-9.9626,51.70636,11.445007)"/>
</svg>
