<svg xmlns="http://www.w3.org/2000/svg" xmlns:xlink="http://www.w3.org/1999/xlink" version="1.1" width="385" height="140" viewBox="0 0 385 140">
<defs>
<path id="font_1_107" d="M.47698976 .17900086H.44599916C.44299317 .15899658 .43499757 .10899353 .4229889 .08999634 .4169922 .08198547 .34098817 .08198547 .32499696 .08198547H.14698792L.28199769 .20399475C.2979889 .2190094 .33999635 .2519989 .35598756 .26600648 .41799928 .3230133 .47698976 .37802125 .47698976 .46902467 .47698976 .58802798 .3769989 .66503909 .2519989 .66503909 .13198853 .6651764 .052993776 .574173 .052993776 .48516847 .052993776 .4361725 .09199524 .4291687 .10598755 .4291687 .1269989 .4291687 .1579895 .4441681 .1579895 .48217774 .1579895 .5341797 .10798645 .5341797 .09599304 .5341797 .125 .6070709 .19198609 .6320343 .24099732 .6320343 .33399964 .6320343 .38198854 .55314639 .38198854 .46917726 .38198854 .36517335 .30899049 .2891693 .19099427 .16816712L.06498718 .03817749C.052993776 .026992798 .052993776 .024993897 .052993776 0H.44799806L.47698976 .17900086Z"/>
<path id="font_1_121" d="M.4889984 .31877137C.4889984 .42585755 .47799684 .49090577 .44499208 .55496218 .40098573 .6430359 .31999208 .66503909 .2649994 .66503909 .13899231 .66503909 .09298706 .5709839 .07899475 .5429535 .042999269 .4698944 .040985109 .3708191 .040985109 .31877137 .040985109 .25271607 .04399109 .15162659 .09199524 .07156372 .13798523-.0024871827 .21199036-.021484375 .2649994-.021484375 .31298829-.021484375 .39898683-.0064849855 .44898988 .09257507 .48599244 .16464234 .4889984 .2537079 .4889984 .31877137M.3999939 .33078004C.3999939 .27172853 .3999939 .18165589 .3880005 .12561035 .36698915 .020523072 .2979889 .006515503 .2649994 .006515503 .23098755 .006515503 .1619873 .022521973 .14099121 .12760926 .12998963 .18466187 .12998963 .2787323 .12998963 .33078004 .12998963 .3998413 .12998963 .4698944 .14099121 .5249481 .1619873 .6270294 .23999024 .6370239 .2649994 .6370239 .29899598 .6370239 .36799623 .62002566 .3880005 .5289459 .3999939 .4738922 .3999939 .39883424 .3999939 .33078004Z"/>
<path id="font_1_82" d="M.44699098 0V.032989503H.4119873C.31698609 .032989503 .31399537 .04499817 .31399537 .08203125V.6371765C.31399537 .664032 .31199647 .66503909 .2849884 .66503909 .24398804 .6252289 .19099427 .6013489 .09599304 .6013489V.5683594C.12298584 .5683594 .1769867 .5683594 .23498535 .5953522V.08203125C.23498535 .04499817 .23199463 .032989503 .13699341 .032989503H.101989749V0C.14299011 .0029907227 .22898865 .0029907227 .27398683 .0029907227 .31900025 .0029907227 .4059906 .0029907227 .44699098 0Z"/>
<path id="font_1_56" d="M.47698976 .19924927C.47698976 .31576539 .3929901 .4189453 .2749939 .4189453 .22499085 .4189453 .17799378 .40293885 .13999939 .36886598V.5618439C.15299988 .55784609 .19299317 .54785159 .23498535 .54785159 .3600006 .54785159 .43598939 .63586428 .43598939 .6509552 .43598939 .6620178 .42900086 .66503909 .42399598 .66503909 .42399598 .66503909 .41999818 .66503909 .41099549 .66000369 .37199403 .6449127 .32598878 .632843 .27198792 .632843 .21299744 .632843 .1639862 .64793398 .1329956 .66000369 .12298584 .66503909 .11999512 .66503909 .11999512 .66503909 .10699463 .66503909 .10699463 .6539612 .10699463 .63586428V.34277345C.10699463 .32476808 .10699463 .3127594 .12298584 .3127594 .1309967 .3127594 .13398743 .31677247 .13899231 .32476808 .15098572 .33976747 .18899536 .39093019 .27398683 .39093019 .32998658 .39093019 .35699464 .34477235 .3659973 .3257599 .3829956 .2896576 .3849945 .24345398 .3849945 .20426941 .3849945 .16725159 .38398744 .11325073 .35598756 .069366458 .33699037 .03942871 .29699708 .008514404 .24398804 .008514404 .1789856 .008514404 .114990238 .04940796 .09199524 .11425781 .09498596 .11387634 .101989749 .11387634 .101989749 .11387634 .12998963 .11387634 .1519928 .13188172 .1519928 .16288758 .1519928 .19989014 .12298584 .21289063 .102996829 .21289063 .084991458 .21289063 .052993776 .20288086 .052993776 .15988159 .052993776 .069732669 .1309967-.021484375 .24598694-.021484375 .37098695-.021743775 .47698976 .07525635 .47698976 .19924927Z"/>
<path id="font_2_2" d="M.28199769 .20405579C.2979889 .21907044 .33999635 .2520752 .35598756 .26608277 .41799928 .32312013 .47698976 .3781433 .47698976 .46917726 .47698976 .588089 .3769989 .66503909 .2519989 .66503909 .13198853 .66503909 .052993776 .57411196 .052993776 .48516847 .052993776 .4361725 .09199524 .4291687 .10598755 .4291687 .1269989 .4291687 .1579895 .4441681 .1579895 .48217774 .1579895 .5341797 .10798645 .5341797 .09599304 .5341797 .125 .6070709 .19198609 .6320343 .24099732 .6320343 .33399964 .6320343 .38198854 .55314639 .38198854 .46917726 .38198854 .36514283 .30899049 .28910829 .19099427 .16804505L.06498718 .037994386C.052993776 .026992798 .052993776 .024993897 .052993776 0H.44799806L.47698976 .17904663H.44599916C.44299317 .1590271 .43499757 .10900879 .4229889 .08999634 .4169922 .08198547 .34098817 .08198547 .32499696 .08198547H.14698792L.28199769 .20405579Z"/>
<path id="font_2_1" d="M.4889984 .31877137C.4889984 .42585755 .47799684 .49090577 .44499208 .55496218 .40098573 .6430359 .31999208 .66503909 .2649994 .66503909 .13899231 .66503909 .09298706 .5709839 .07899475 .5429535 .042999269 .4698944 .040985109 .3708191 .040985109 .31877137 .040985109 .25271607 .04399109 .15162659 .09199524 .07156372 .13798523-.0024871827 .21199036-.021484375 .2649994-.021484375 .31298829-.021484375 .39898683-.0064849855 .44898988 .09257507 .48599244 .16464234 .4889984 .2537079 .4889984 .31877137M.2649994 .006515503C.23098755 .006515503 .1619873 .022521973 .14099121 .12760926 .12998963 .18466187 .12998963 .2787323 .12998963 .33078004 .12998963 .3998413 .12998963 .4698944 .14099121 .5249481 .1619873 .6270294 .23999024 .6370239 .2649994 .6370239 .29899598 .6370239 .36799623 .62002566 .3880005 .5289459 .3999939 .4738922 .3999939 .39883424 .3999939 .33078004 .3999939 .27172853 .3999939 .18165589 .3880005 .12561035 .36698915 .020523072 .2979889 .006515503 .2649994 .006515503Z"/>
<path id="font_3_1" d="M.18699646 .01499939C.18699646-.050109865 .17298889-.10720825 .11099243-.16934204 .10699463-.17234802 .10499573-.17434693 .10499573-.17933655 .10499573-.18734741 .11299133-.19334412 .11999512-.19334412 .13198853-.19334412 .21499634-.114227298 .21499634 .0029907227 .21499634 .066986087 .19099427 .11099243 .14698792 .11099243 .11199951 .11099243 .09199524 .08299255 .09199524 .055999757 .09199524 .027999878 .11099243 0 .147995 0 .17199707 0 .18699646 .01399231 .18699646 .01499939Z"/>
<path id="font_2_3" d="M.13999939 .5618439C.15299988 .55784609 .19299317 .54785159 .23498535 .54785159 .3600006 .54785159 .43598939 .6358948 .43598939 .6510315 .43598939 .6620331 .42900086 .66503909 .42399598 .66503909 .42199708 .66503909 .41999818 .66503909 .41099549 .6600342 .37199403 .6450348 .32598878 .632843 .27198792 .632843 .21299744 .632843 .1639862 .6480255 .1329956 .6600342 .12298584 .66503909 .12098694 .66503909 .11999512 .66503909 .10699463 .66503909 .10699463 .6540375 .10699463 .6358948V.34292604C.10699463 .32492066 .10699463 .312912 .12298584 .312912 .1309967 .312912 .13398743 .3169098 .13899231 .32492066 .15098572 .33992005 .18899536 .39093019 .27398683 .39093019 .32998658 .39093019 .35699464 .34492494 .3659973 .32591249 .3829956 .28990174 .3849945 .24389649 .3849945 .20487976 .3849945 .1678772 .38398744 .11387634 .35598756 .069732669 .33699037 .039611818 .29699708 .008514404 .24398804 .008514404 .1789856 .008514404 .114990238 .0496521 .09199524 .11488342 .09498596 .11387634 .100997928 .11387634 .101989749 .11387634 .12998963 .11387634 .1519928 .13188172 .1519928 .16288758 .1519928 .19989014 .12298584 .21289063 .102996829 .21289063 .084991458 .21289063 .052993776 .20288086 .052993776 .15988159 .052993776 .069732669 .1309967-.021484375 .24598694-.021484375 .37098695-.021484375 .47698976 .07574463 .47698976 .19989014 .47698976 .31591798 .3929901 .4189453 .2749939 .4189453 .22499085 .4189453 .17799378 .40293885 .13999939 .368927V.5618439Z"/>
<clipPath id="clip_4">
<path transform="matrix(1.00005,0,0,-1,27.968346,116.868007)" d="M0 0H348.6969V115.0703H0Z"/>
</clipPath>
<path id="font_5_118" d="M.5079956 .3996582V.43066407C.4850006 .4286499 .45599366 .42765809 .43299867 .42765809L.34599305 .43066407V.3996582C.3769989 .39866639 .3929901 .3816681 .3929901 .35668946 .3929901 .34669496 .3919983 .34469605 .3869934 .33270265L.28599549 .08685303 .1749878 .35568238C.17098999 .36567689 .16899109 .36967469 .16899109 .3736725 .16899109 .3996582 .20599365 .3996582 .22499085 .3996582V.43066407L.115997318 .42765809C.08898926 .42765809 .04899597 .4286499 .018997193 .43066407V.3996582C.066986087 .3996582 .085998538 .3996582 .099990848 .36468507L.25-.000091552738 .22499085-.059066774C.20298767-.11407471 .1749878-.18309021 .11099243-.18309021 .10598755-.18309021 .08299255-.18309021 .06399536-.16503906 .09498596-.16104126 .102996829-.13905335 .102996829-.123046878 .102996829-.0970459 .083999637-.08103943 .06098938-.08103943 .040985109-.08103943 .018997193-.09403992 .018997193-.124053958 .018997193-.16905213 .06098938-.20507813 .11099243-.20507813 .17399597-.20507813 .21499634-.14804077 .23899842-.091049198L.4149933 .33569337C.44099427 .39865113 .49198915 .3996582 .5079956 .3996582Z"/>
<path id="font_5_50" d="M.4149933 .11933899C.4149933 .12934876 .40699769 .13134766 .4019928 .13134766 .3929901 .13134766 .3909912 .12535095 .3889923 .11734009 .35398866 .014251709 .2639923 .014251709 .2539978 .014251709 .20399475 .014251709 .1639862 .044281007 .14099121 .08131409 .11099243 .12934876 .11099243 .19540406 .11099243 .23144531H.3899994C.4119873 .23144531 .4149933 .23144531 .4149933 .2524414 .4149933 .35131837 .36099244 .4482422 .23599243 .4482422 .11999512 .4482422 .027999878 .34532167 .027999878 .22042847 .027999878 .08631897 .1329956-.0107421879 .24798584-.0107421879 .36999513-.0107421879 .4149933 .10032654 .4149933 .11933899M.34899903 .2524414H.11199951C.117996219 .40126039 .20199585 .426239 .23599243 .426239 .33898927 .426239 .34899903 .2913971 .34899903 .2524414Z"/>
<path id="font_5_28" d="M.48298646 .08912659V.14511109H.45799256V.08912659C.45799256 .03112793 .43299867 .025131226 .42199708 .025131226 .3889923 .025131226 .3849945 .070129398 .3849945 .07511902V.27508546C.3849945 .31707765 .3849945 .3560791 .34899903 .39312745 .30999757 .43223573 .2599945 .4482422 .21199036 .4482422 .12998963 .4482422 .06098938 .40115357 .06098938 .335083 .06098938 .30508424 .08099365 .28808595 .10699463 .28808595 .1349945 .28808595 .15299988 .30807496 .15299988 .33407594 .15299988 .3460846 .147995 .37908937 .101989749 .38008119 .1289978 .41519166 .17799378 .426239 .20999146 .426239 .25898744 .426239 .31599427 .38710023 .31599427 .29808045V.26107789C.2649994 .25808717 .19499207 .25508119 .13198853 .22509766 .056991579 .19110108 .03199768 .13911438 .03199768 .09512329 .03199768 .014251709 .1289978-.0107421879 .19198609-.0107421879 .2579956-.0107421879 .3039856 .029251099 .32299806 .07624817 .32699586 .036132814 .35398866-.005859375 .40098573-.005859375 .42199708-.005859375 .48298646 .008132935 .48298646 .08912659M.31599427 .14013672C.31599427 .04525757 .24398804 .011245728 .19898987 .011245728 .1499939 .011245728 .10899353 .04624939 .10899353 .09625244 .10899353 .15124512 .15098572 .23425293 .31599427 .24024964V.14013672Z"/>
<path id="font_5_96" d="M.3639984 .38137818C.3639984 .41337586 .33299256 .4423828 .2899933 .4423828 .21699524 .4423828 .18099976 .37538148 .16699219 .3323822V.4423828L.027999878 .43066407V.3996582C.09799194 .3996582 .10598755 .39266969 .10598755 .34370423V.07595825C.10598755 .0309906 .09498596 .0309906 .027999878 .0309906V0L.14199829 .0029907227C.18199158 .0029907227 .22898865 .0029907227 .2689972 0V.0309906H.24798584C.17399597 .0309906 .17199707 .04197693 .17199707 .07795715V.23181153C.17199707 .33137513 .21398926 .42037965 .2899933 .42037965 .29699708 .42037965 .29899598 .42037965 .30099488 .41937257 .2979889 .41838075 .27799989 .40637208 .27799989 .3803711 .27799989 .35237123 .29899598 .33737184 .32099916 .33737184 .33898927 .33737184 .3639984 .3493805 .3639984 .38137818Z"/>
<path id="font_5_43" d="M.4149933 .119140628C.4149933 .12911988 .40499879 .12911988 .4019928 .12911988 .3929901 .12911988 .3909912 .12512207 .3889923 .119140628 .3600006 .026229859 .29499818 .014251709 .2579956 .014251709 .20498657 .014251709 .116989139 .0572052 .116989139 .21801758 .116989139 .38093568 .19898987 .42323304 .2519989 .42323304 .26098634 .42323304 .32398988 .42222596 .35899354 .38594056 .31799317 .38293458 .31199647 .3529358 .31199647 .3399353 .31199647 .31393434 .32998658 .2939453 .35798646 .2939453 .38398744 .2939453 .4039917 .3109436 .4039917 .34094239 .4039917 .40911866 .32798768 .4482422 .25099183 .4482422 .12599182 .4482422 .033996583 .3399353 .033996583 .21601868 .033996583 .08816528 .1329956-.0107421879 .24899292-.0107421879 .3829956-.0107421879 .4149933 .10914612 .4149933 .119140628Z"/>
<path id="font_5_81" d="M.47099305 .21424866C.47099305 .34223939 .37098695 .4482422 .25 .4482422 .125 .4482422 .027999878 .3392334 .027999878 .21424866 .027999878 .085250858 .13198853-.0107421879 .24899292-.0107421879 .36999513-.0107421879 .47099305 .087249759 .47099305 .21424866M.3880005 .22224427C.3880005 .18624878 .3880005 .13224793 .3659973 .08824158 .34399415 .04324341 .2999878 .014251709 .25 .014251709 .20698548 .014251709 .16299439 .035247804 .13598633 .08125305 .11099243 .12524414 .11099243 .18624878 .11099243 .22224427 .11099243 .26124574 .11099243 .31523133 .1349945 .35923768 .1619873 .40522767 .20899964 .426239 .24899292 .426239 .29299928 .426239 .33599855 .40423585 .3619995 .36123658 .3880005 .3182373 .3880005 .26023866 .3880005 .22224427Z"/>
<path id="font_5_109" d="M.5349884 0V.0309906C.46499635 .0309906 .45700074 .037994386 .45700074 .08705139V.4423828L.30999757 .43066407V.3996582C.37998963 .3996582 .3880005 .39266969 .3880005 .34373475V.16601563C.3880005 .07910156 .33999635 .011245728 .2669983 .011245728 .18299866 .011245728 .1789856 .058135988 .1789856 .11009216V.4423828L.03199768 .43066407V.3996582C.10998535 .3996582 .10998535 .39666749 .10998535 .3078003V.15802002C.10998535 .080093387 .10998535-.0107421879 .2619934-.0107421879 .31799317-.0107421879 .3619995 .017242432 .3909912 .07910156V-.0107421879L.5349884 0Z"/>
<path id="font_5_77" d="M.5349884 0V.0309906C.48298646 .0309906 .45799256 .0309906 .45700074 .061019899V.25221253C.45700074 .3383026 .45700074 .36932374 .42599488 .405365 .4119873 .42237855 .3789978 .4423828 .32099916 .4423828 .24798584 .4423828 .20098877 .39935304 .17298889 .33729554V.4423828L.03199768 .43066407V.3996582C.101989749 .3996582 .10998535 .39266969 .10998535 .34370423V.07595825C.10998535 .0309906 .09899902 .0309906 .03199768 .0309906V0L.14498902 .0029907227 .25698854 0V.0309906C.18998719 .0309906 .1789856 .0309906 .1789856 .07595825V.25978089C.1789856 .36431886 .25 .42037965 .31399537 .42037965 .3769989 .42037965 .3880005 .36631776 .3880005 .30926515V.076034549C.3880005 .0309906 .3769989 .0309906 .30999757 .0309906V0L.4229889 .0029907227 .5349884 0Z"/>
<path id="font_5_105" d="M.33198548 .12385559V.18066406H.30699159V.12585449C.30699159 .052108766 .2769928 .014251709 .23999024 .014251709 .17298889 .014251709 .17298889 .10491943 .17298889 .12187195V.3996582H.31599427V.43066407H.17298889V.6142578H.147995C.14698792 .5324249 .116989139 .42565919 .018997193 .42166139V.3996582H.10398865V.12408447C.10398865 .0012512207 .19699097-.0107421879 .23298645-.0107421879 .3039856-.0107421879 .33198548 .060180665 .33198548 .12408447V.12385559Z"/>
</defs>
<path transform="matrix(1.00005,0,0,-1,27.968346,116.868007)" d="M0 0H348.6969V115.0703H0Z" fill="#fffac2"/>
<path transform="matrix(1.00005,0,0,-1,27.968346,116.868007)" stroke-width=".3985" stroke-linecap="butt" stroke-miterlimit="10" stroke-linejoin="miter" fill="none" stroke="#d5d6d5" d=""/>
<path transform="matrix(1.00005,0,0,-1,27.968346,116.868007)" stroke-width=".3985" stroke-linecap="butt" stroke-miterlimit="10" stroke-linejoin="miter" fill="none" stroke="#d5d6d5" d="M87.17422 0V115.0703M174.34845 0V115.0703M261.52268 0V115.0703M348.6969 0V115.0703"/>
<path transform="matrix(1.00005,0,0,-1,27.968346,116.868007)" stroke-width=".3985" stroke-linecap="butt" stroke-miterlimit="10" stroke-linejoin="miter" fill="none" stroke="#d5d6d5" d=""/>
<path transform="matrix(1.00005,0,0,-1,27.968346,116.868007)" stroke-width=".3985" stroke-linecap="butt" stroke-miterlimit="10" stroke-linejoin="miter" fill="none" stroke="#d5d6d5" d="M0 52.30467H348.6969M0 104.60936H348.6969"/>
<path transform="matrix(1.00005,0,0,-1,27.968346,116.868007)" stroke-width=".19925" stroke-linecap="butt" stroke-miterlimit="10" stroke-linejoin="miter" fill="none" stroke="#929292" d=""/>
<path transform="matrix(1.00005,0,0,-1,27.968346,116.868007)" stroke-width=".19925" stroke-linecap="butt" stroke-miterlimit="10" stroke-linejoin="miter" fill="none" stroke="#929292" d="M87.17422-2.12573V2.12573M174.34845-2.12573V2.12573M261.52268-2.12573V2.12573M348.6969-2.12573V2.12573"/>
<path transform="matrix(1.00005,0,0,-1,27.968346,116.868007)" stroke-width=".19925" stroke-linecap="butt" stroke-miterlimit="10" stroke-linejoin="miter" fill="none" stroke="#929292" d=""/>
<path transform="matrix(1.00005,0,0,-1,27.968346,116.868007)" stroke-width=".19925" stroke-linecap="butt" stroke-miterlimit="10" stroke-linejoin="miter" fill="none" stroke="#929292" d="M-2.12401 52.30467H2.12401M-2.12401 104.60936H2.12401"/>
<path transform="matrix(1.00005,0,0,-1,27.968346,116.868007)" stroke-width=".3985" stroke-linecap="butt" stroke-miterlimit="10" stroke-linejoin="miter" fill="none" stroke="#000000" d="M0 0H346.70436"/>
<path transform="matrix(1.00005,0,0,-1,374.69,116.868007)" d="M1.99252 0-1.19551 1.59401 0 0-1.19551-1.59401"/>
<path transform="matrix(1.00005,0,0,-1,27.968346,116.868007)" stroke-width=".3985" stroke-linecap="butt" stroke-miterlimit="10" stroke-linejoin="miter" fill="none" stroke="#000000" d="M0 0V3.9851L-3.9851 6.97394 3.9851 12.9516 0 15.94043V113.07777"/>
<path transform="matrix(0,-1,-1.00005,-0,27.968346,3.7902375)" d="M1.99252 0-1.19551 1.59401 0 0-1.19551-1.59401"/>
<use data-text="2" xlink:href="#font_1_107" transform="matrix(5.635939,5.6356575,5.635939,-5.6356575,107.346439,127.71904)"/>
<use data-text="0" xlink:href="#font_1_121" transform="matrix(5.635939,5.6356575,5.635939,-5.6356575,110.33911,130.71157)"/>
<use data-text="1" xlink:href="#font_1_82" transform="matrix(5.635939,5.6356575,5.635939,-5.6356575,113.3318,133.7041)"/>
<use data-text="0" xlink:href="#font_1_121" transform="matrix(5.635939,5.6356575,5.635939,-5.6356575,116.324489,136.69664)"/>
<use data-text="2" xlink:href="#font_1_107" transform="matrix(5.635939,5.6356575,5.635939,-5.6356575,194.52579,127.71904)"/>
<use data-text="0" xlink:href="#font_1_121" transform="matrix(5.635939,5.6356575,5.635939,-5.6356575,197.51847,130.71157)"/>
<use data-text="1" xlink:href="#font_1_82" transform="matrix(5.635939,5.6356575,5.635939,-5.6356575,200.51116,133.7041)"/>
<use data-text="5" xlink:href="#font_1_56" transform="matrix(5.635939,5.6356575,5.635939,-5.6356575,203.50385,136.69664)"/>
<use data-text="2" xlink:href="#font_1_107" transform="matrix(5.635939,5.6356575,5.635939,-5.6356575,281.70417,127.71904)"/>
<use data-text="0" xlink:href="#font_1_121" transform="matrix(5.635939,5.6356575,5.635939,-5.6356575,284.69685,130.71157)"/>
<use data-text="2" xlink:href="#font_1_107" transform="matrix(5.635939,5.6356575,5.635939,-5.6356575,287.6895,133.7041)"/>
<use data-text="0" xlink:href="#font_1_121" transform="matrix(5.635939,5.6356575,5.635939,-5.6356575,290.68223,136.69664)"/>
<use data-text="2" xlink:href="#font_1_107" transform="matrix(5.635939,5.6356575,5.635939,-5.6356575,368.8825,127.71904)"/>
<use data-text="0" xlink:href="#font_1_121" transform="matrix(5.635939,5.6356575,5.635939,-5.6356575,371.87519,130.71157)"/>
<use data-text="2" xlink:href="#font_1_107" transform="matrix(5.635939,5.6356575,5.635939,-5.6356575,374.86787,133.7041)"/>
<use data-text="5" xlink:href="#font_1_56" transform="matrix(5.635939,5.6356575,5.635939,-5.6356575,377.86058,136.69664)"/>
<use data-text="2" xlink:href="#font_2_2" transform="matrix(7.970498,0,0,-7.9701,.6899872,66.357)"/>
<use data-text="0" xlink:href="#font_2_1" transform="matrix(7.970498,0,0,-7.9701,4.922325,66.357)"/>
<use data-text="," xlink:href="#font_3_1" transform="matrix(7.970498,0,0,-7.9701,9.158417,66.357)"/>
<use data-text="0" xlink:href="#font_2_1" transform="matrix(7.970498,0,0,-7.9701,11.511528,66.357)"/>
<use data-text="0" xlink:href="#font_2_1" transform="matrix(7.970498,0,0,-7.9701,15.743866,66.357)"/>
<use data-text="0" xlink:href="#font_2_1" transform="matrix(7.970498,0,0,-7.9701,19.976204,66.357)"/>
<use data-text="2" xlink:href="#font_2_2" transform="matrix(7.970498,0,0,-7.9701,.6899872,14.052002)"/>
<use data-text="5" xlink:href="#font_2_3" transform="matrix(7.970498,0,0,-7.9701,4.922325,14.052002)"/>
<use data-text="," xlink:href="#font_3_1" transform="matrix(7.970498,0,0,-7.9701,9.158417,14.052002)"/>
<use data-text="0" xlink:href="#font_2_1" transform="matrix(7.970498,0,0,-7.9701,11.511528,14.052002)"/>
<use data-text="0" xlink:href="#font_2_1" transform="matrix(7.970498,0,0,-7.9701,15.743866,14.052002)"/>
<use data-text="0" xlink:href="#font_2_1" transform="matrix(7.970498,0,0,-7.9701,19.976204,14.052002)"/>
<g clip-path="url(#clip_4)">
</g>
<path transform="matrix(1.00005,0,0,-1,27.968346,116.868007)" d="M36.86224 46.20595C36.86224 47.30643 35.97015 48.1985 34.86969 48.1985 33.76921 48.1985 32.87714 47.30643 32.87714 46.20595 32.87714 45.10548 33.76921 44.2134 34.86969 44.2134 35.97015 44.2134 36.86224 45.10548 36.86224 46.20595ZM34.86969 46.20595"/>
<path transform="matrix(1.00005,0,0,-1,27.968346,116.868007)" stroke-width=".3985" stroke-linecap="butt" stroke-miterlimit="10" stroke-linejoin="miter" fill="none" stroke="#000000" d="M36.86224 46.20595C36.86224 47.30643 35.97015 48.1985 34.86969 48.1985 33.76921 48.1985 32.87714 47.30643 32.87714 46.20595 32.87714 45.10548 33.76921 44.2134 34.86969 44.2134 35.97015 44.2134 36.86224 45.10548 36.86224 46.20595ZM34.86969 46.20595"/>
<path transform="matrix(1.00005,0,0,-1,27.968346,116.868007)" d="M54.29709 56.76103C54.29709 57.86151 53.405 58.75359 52.30453 58.75359 51.20406 58.75359 50.31198 57.86151 50.31198 56.76103 50.31198 55.66057 51.20406 54.76848 52.30453 54.76848 53.405 54.76848 54.29709 55.66057 54.29709 56.76103ZM52.30453 56.76103"/>
<path transform="matrix(1.00005,0,0,-1,27.968346,116.868007)" stroke-width=".3985" stroke-linecap="butt" stroke-miterlimit="10" stroke-linejoin="miter" fill="none" stroke="#000000" d="M54.29709 56.76103C54.29709 57.86151 53.405 58.75359 52.30453 58.75359 51.20406 58.75359 50.31198 57.86151 50.31198 56.76103 50.31198 55.66057 51.20406 54.76848 52.30453 54.76848 53.405 54.76848 54.29709 55.66057 54.29709 56.76103ZM52.30453 56.76103"/>
<path transform="matrix(1.00005,0,0,-1,27.968346,116.868007)" d="M71.73193 52.08498C71.73193 53.18546 70.83984 54.07753 69.73938 54.07753 68.6389 54.07753 67.74683 53.18546 67.74683 52.08498 67.74683 50.98451 68.6389 50.09242 69.73938 50.09242 70.83984 50.09242 71.73193 50.98451 71.73193 52.08498ZM69.73938 52.08498"/>
<path transform="matrix(1.00005,0,0,-1,27.968346,116.868007)" stroke-width=".3985" stroke-linecap="butt" stroke-miterlimit="10" stroke-linejoin="miter" fill="none" stroke="#000000" d="M71.73193 52.08498C71.73193 53.18546 70.83984 54.07753 69.73938 54.07753 68.6389 54.07753 67.74683 53.18546 67.74683 52.08498 67.74683 50.98451 68.6389 50.09242 69.73938 50.09242 70.83984 50.09242 71.73193 50.98451 71.73193 52.08498ZM69.73938 52.08498"/>
<path transform="matrix(1.00005,0,0,-1,27.968346,116.868007)" d="M89.16678 50.8506C89.16678 51.95107 88.27469 52.84315 87.17422 52.84315 86.07375 52.84315 85.18167 51.95107 85.18167 50.8506 85.18167 49.75012 86.07375 48.85805 87.17422 48.85805 88.27469 48.85805 89.16678 49.75012 89.16678 50.8506ZM87.17422 50.8506"/>
<path transform="matrix(1.00005,0,0,-1,27.968346,116.868007)" stroke-width=".3985" stroke-linecap="butt" stroke-miterlimit="10" stroke-linejoin="miter" fill="none" stroke="#000000" d="M89.16678 50.8506C89.16678 51.95107 88.27469 52.84315 87.17422 52.84315 86.07375 52.84315 85.18167 51.95107 85.18167 50.8506 85.18167 49.75012 86.07375 48.85805 87.17422 48.85805 88.27469 48.85805 89.16678 49.75012 89.16678 50.8506ZM87.17422 50.8506"/>
<path transform="matrix(1.00005,0,0,-1,27.968346,116.868007)" d="M106.60162 61.20692C106.60162 62.3074 105.70953 63.19948 104.60907 63.19948 103.50859 63.19948 102.61652 62.3074 102.61652 61.20692 102.61652 60.10646 103.50859 59.21437 104.60907 59.21437 105.70953 59.21437 106.60162 60.10646 106.60162 61.20692ZM104.60907 61.20692"/>
<path transform="matrix(1.00005,0,0,-1,27.968346,116.868007)" stroke-width=".3985" stroke-linecap="butt" stroke-miterlimit="10" stroke-linejoin="miter" fill="none" stroke="#000000" d="M106.60162 61.20692C106.60162 62.3074 105.70953 63.19948 104.60907 63.19948 103.50859 63.19948 102.61652 62.3074 102.61652 61.20692 102.61652 60.10646 103.50859 59.21437 104.60907 59.21437 105.70953 59.21437 106.60162 60.10646 106.60162 61.20692ZM104.60907 61.20692"/>
<path transform="matrix(1.00005,0,0,-1,27.968346,116.868007)" d="M124.03647 56.76103C124.03647 57.86151 123.14438 58.75359 122.04391 58.75359 120.94344 58.75359 120.05136 57.86151 120.05136 56.76103 120.05136 55.66057 120.94344 54.76848 122.04391 54.76848 123.14438 54.76848 124.03647 55.66057 124.03647 56.76103ZM122.04391 56.76103"/>
<path transform="matrix(1.00005,0,0,-1,27.968346,116.868007)" stroke-width=".3985" stroke-linecap="butt" stroke-miterlimit="10" stroke-linejoin="miter" fill="none" stroke="#000000" d="M124.03647 56.76103C124.03647 57.86151 123.14438 58.75359 122.04391 58.75359 120.94344 58.75359 120.05136 57.86151 120.05136 56.76103 120.05136 55.66057 120.94344 54.76848 122.04391 54.76848 123.14438 54.76848 124.03647 55.66057 124.03647 56.76103ZM122.04391 56.76103"/>
<path transform="matrix(1.00005,0,0,-1,27.968346,116.868007)" d="M141.47132 66.3851C141.47132 67.48557 140.57923 68.37766 139.47876 68.37766 138.37828 68.37766 137.4862 67.48557 137.4862 66.3851 137.4862 65.28464 138.37828 64.39255 139.47876 64.39255 140.57923 64.39255 141.47132 65.28464 141.47132 66.3851ZM139.47876 66.3851"/>
<path transform="matrix(1.00005,0,0,-1,27.968346,116.868007)" stroke-width=".3985" stroke-linecap="butt" stroke-miterlimit="10" stroke-linejoin="miter" fill="none" stroke="#000000" d="M141.47132 66.3851C141.47132 67.48557 140.57923 68.37766 139.47876 68.37766 138.37828 68.37766 137.4862 67.48557 137.4862 66.3851 137.4862 65.28464 138.37828 64.39255 139.47876 64.39255 140.57923 64.39255 141.47132 65.28464 141.47132 66.3851ZM139.47876 66.3851"/>
<path transform="matrix(1.00005,0,0,-1,27.968346,116.868007)" d="M158.90616 69.91043C158.90616 71.0109 158.01407 71.90298 156.9136 71.90298 155.81313 71.90298 154.92105 71.0109 154.92105 69.91043 154.92105 68.80995 155.81313 67.91788 156.9136 67.91788 158.01407 67.91788 158.90616 68.80995 158.90616 69.91043ZM156.9136 69.91043"/>
<path transform="matrix(1.00005,0,0,-1,27.968346,116.868007)" stroke-width=".3985" stroke-linecap="butt" stroke-miterlimit="10" stroke-linejoin="miter" fill="none" stroke="#000000" d="M158.90616 69.91043C158.90616 71.0109 158.01407 71.90298 156.9136 71.90298 155.81313 71.90298 154.92105 71.0109 154.92105 69.91043 154.92105 68.80995 155.81313 67.91788 156.9136 67.91788 158.01407 67.91788 158.90616 68.80995 158.90616 69.91043ZM156.9136 69.91043"/>
<path transform="matrix(1.00005,0,0,-1,27.968346,116.868007)" d="M176.341 74.87938C176.341 75.97984 175.44892 76.87193 174.34845 76.87193 173.24797 76.87193 172.3559 75.97984 172.3559 74.87938 172.3559 73.7789 173.24797 72.88683 174.34845 72.88683 175.44892 72.88683 176.341 73.7789 176.341 74.87938ZM174.34845 74.87938"/>
<path transform="matrix(1.00005,0,0,-1,27.968346,116.868007)" stroke-width=".3985" stroke-linecap="butt" stroke-miterlimit="10" stroke-linejoin="miter" fill="none" stroke="#000000" d="M176.341 74.87938C176.341 75.97984 175.44892 76.87193 174.34845 76.87193 173.24797 76.87193 172.3559 75.97984 172.3559 74.87938 172.3559 73.7789 173.24797 72.88683 174.34845 72.88683 175.44892 72.88683 176.341 73.7789 176.341 74.87938ZM174.34845 74.87938"/>
<path transform="matrix(1.00005,0,0,-1,27.968346,116.868007)" d="M193.77585 74.63878C193.77585 75.73924 192.88376 76.63133 191.7833 76.63133 190.68282 76.63133 189.79074 75.73924 189.79074 74.63878 189.79074 73.5383 190.68282 72.64622 191.7833 72.64622 192.88376 72.64622 193.77585 73.5383 193.77585 74.63878ZM191.7833 74.63878"/>
<path transform="matrix(1.00005,0,0,-1,27.968346,116.868007)" stroke-width=".3985" stroke-linecap="butt" stroke-miterlimit="10" stroke-linejoin="miter" fill="none" stroke="#000000" d="M193.77585 74.63878C193.77585 75.73924 192.88376 76.63133 191.7833 76.63133 190.68282 76.63133 189.79074 75.73924 189.79074 74.63878 189.79074 73.5383 190.68282 72.64622 191.7833 72.64622 192.88376 72.64622 193.77585 73.5383 193.77585 74.63878ZM191.7833 74.63878"/>
<path transform="matrix(1.00005,0,0,-1,27.968346,116.868007)" d="M211.2107 84.23146C211.2107 85.33194 210.3186 86.22401 209.21814 86.22401 208.11766 86.22401 207.22559 85.33194 207.22559 84.23146 207.22559 83.131 208.11766 82.2389 209.21814 82.2389 210.3186 82.2389 211.2107 83.131 211.2107 84.23146ZM209.21814 84.23146"/>
<path transform="matrix(1.00005,0,0,-1,27.968346,116.868007)" stroke-width=".3985" stroke-linecap="butt" stroke-miterlimit="10" stroke-linejoin="miter" fill="none" stroke="#000000" d="M211.2107 84.23146C211.2107 85.33194 210.3186 86.22401 209.21814 86.22401 208.11766 86.22401 207.22559 85.33194 207.22559 84.23146 207.22559 83.131 208.11766 82.2389 209.21814 82.2389 210.3186 82.2389 211.2107 83.131 211.2107 84.23146ZM209.21814 84.23146"/>
<path transform="matrix(1.00005,0,0,-1,27.968346,116.868007)" d="M228.64554 81.27101C228.64554 82.37149 227.75345 83.26357 226.65299 83.26357 225.5525 83.26357 224.66043 82.37149 224.66043 81.27101 224.66043 80.17055 225.5525 79.27846 226.65299 79.27846 227.75345 79.27846 228.64554 80.17055 228.64554 81.27101ZM226.65299 81.27101"/>
<path transform="matrix(1.00005,0,0,-1,27.968346,116.868007)" stroke-width=".3985" stroke-linecap="butt" stroke-miterlimit="10" stroke-linejoin="miter" fill="none" stroke="#000000" d="M228.64554 81.27101C228.64554 82.37149 227.75345 83.26357 226.65299 83.26357 225.5525 83.26357 224.66043 82.37149 224.66043 81.27101 224.66043 80.17055 225.5525 79.27846 226.65299 79.27846 227.75345 79.27846 228.64554 80.17055 228.64554 81.27101ZM226.65299 81.27101"/>
<path transform="matrix(1.00005,0,0,-1,27.968346,116.868007)" d="M246.08039 98.21773C246.08039 99.31819 245.1883 100.21028 244.08783 100.21028 242.98735 100.21028 242.09528 99.31819 242.09528 98.21773 242.09528 97.11725 242.98735 96.22517 244.08783 96.22517 245.1883 96.22517 246.08039 97.11725 246.08039 98.21773ZM244.08783 98.21773"/>
<path transform="matrix(1.00005,0,0,-1,27.968346,116.868007)" stroke-width=".3985" stroke-linecap="butt" stroke-miterlimit="10" stroke-linejoin="miter" fill="none" stroke="#000000" d="M246.08039 98.21773C246.08039 99.31819 245.1883 100.21028 244.08783 100.21028 242.98735 100.21028 242.09528 99.31819 242.09528 98.21773 242.09528 97.11725 242.98735 96.22517 244.08783 96.22517 245.1883 96.22517 246.08039 97.11725 246.08039 98.21773ZM244.08783 98.21773"/>
<path transform="matrix(1.00005,0,0,-1,27.968346,116.868007)" d="M263.51524 70.77869C263.51524 71.87915 262.62315 72.77124 261.52268 72.77124 260.4222 72.77124 259.53013 71.87915 259.53013 70.77869 259.53013 69.6782 260.4222 68.78613 261.52268 68.78613 262.62315 68.78613 263.51524 69.6782 263.51524 70.77869ZM261.52268 70.77869"/>
<path transform="matrix(1.00005,0,0,-1,27.968346,116.868007)" stroke-width=".3985" stroke-linecap="butt" stroke-miterlimit="10" stroke-linejoin="miter" fill="none" stroke="#000000" d="M263.51524 70.77869C263.51524 71.87915 262.62315 72.77124 261.52268 72.77124 260.4222 72.77124 259.53013 71.87915 259.53013 70.77869 259.53013 69.6782 260.4222 68.78613 261.52268 68.78613 262.62315 68.78613 263.51524 69.6782 263.51524 70.77869ZM261.52268 70.77869"/>
<path transform="matrix(1.00005,0,0,-1,27.968346,116.868007)" d="M280.95008 81.07225C280.95008 82.17271 280.05799 83.0648 278.95753 83.0648 277.85704 83.0648 276.96498 82.17271 276.96498 81.07225 276.96498 79.97177 277.85704 79.0797 278.95753 79.0797 280.05799 79.0797 280.95008 79.97177 280.95008 81.07225ZM278.95753 81.07225"/>
<path transform="matrix(1.00005,0,0,-1,27.968346,116.868007)" stroke-width=".3985" stroke-linecap="butt" stroke-miterlimit="10" stroke-linejoin="miter" fill="none" stroke="#000000" d="M280.95008 81.07225C280.95008 82.17271 280.05799 83.0648 278.95753 83.0648 277.85704 83.0648 276.96498 82.17271 276.96498 81.07225 276.96498 79.97177 277.85704 79.0797 278.95753 79.0797 280.05799 79.0797 280.95008 79.97177 280.95008 81.07225ZM278.95753 81.07225"/>
<path transform="matrix(1.00005,0,0,-1,27.968346,116.868007)" d="M298.38493 80.45506C298.38493 81.55554 297.49284 82.44762 296.39237 82.44762 295.2919 82.44762 294.3998 81.55554 294.3998 80.45506 294.3998 79.3546 295.2919 78.46251 296.39237 78.46251 297.49284 78.46251 298.38493 79.3546 298.38493 80.45506ZM296.39237 80.45506"/>
<path transform="matrix(1.00005,0,0,-1,27.968346,116.868007)" stroke-width=".3985" stroke-linecap="butt" stroke-miterlimit="10" stroke-linejoin="miter" fill="none" stroke="#000000" d="M298.38493 80.45506C298.38493 81.55554 297.49284 82.44762 296.39237 82.44762 295.2919 82.44762 294.3998 81.55554 294.3998 80.45506 294.3998 79.3546 295.2919 78.46251 296.39237 78.46251 297.49284 78.46251 298.38493 79.3546 298.38493 80.45506ZM296.39237 80.45506"/>
<path transform="matrix(1.00005,0,0,-1,27.968346,116.868007)" stroke-width=".3985" stroke-linecap="butt" stroke-miterlimit="10" stroke-linejoin="miter" fill="none" stroke="#000000" d=""/>
<use data-text="y" xlink:href="#font_5_118" transform="matrix(9.963098,0,0,-9.9626,354.8697,111.30601)"/>
<use data-text="e" xlink:href="#font_5_50" transform="matrix(9.963098,0,0,-9.9626,359.85124,111.30601)"/>
<use data-text="a" xlink:href="#font_5_28" transform="matrix(9.963098,0,0,-9.9626,364.27485,111.30601)"/>
<use data-text="r" xlink:href="#font_5_96" transform="matrix(9.963098,0,0,-9.9626,369.2564,111.30601)"/>
<use data-text="c" xlink:href="#font_5_43" transform="matrix(9.963098,0,0,-9.9626,31.488522,11.445007)"/>
<use data-text="o" xlink:href="#font_5_81" transform="matrix(9.963098,0,0,-9.9626,35.912137,11.445007)"/>
<use data-text="u" xlink:href="#font_5_109" transform="matrix(9.963098,0,0,-9.9626,40.89369,11.445007)"/>
<use data-text="n" xlink:href="#font_5_77" transform="matrix(9.963098,0,0,-9.9626,46.43317,11.445007)"/>
<use data-text="t" xlink:href="#font_5_105" transform="matrix(9.963098,0,0,-9.9626,51.69369,11.445007)"/>
</svg>
