<svg xmlns="http://www.w3.org/2000/svg" xmlns:xlink="http://www.w3.org/1999/xlink" version="1.1" width="115" height="100" viewBox="0 0 115 100">
<defs>
<path id="font_1_1" d="M.69898989 .22743225C.71499636 .22743225 .7369995 .22743225 .7369995 .25042726 .7369995 .2734375 .71499636 .2734375 .69898989 .2734375H.12599182C.10998535 .2734375 .08799744 .2734375 .08799744 .25042726 .08799744 .22743225 .10998535 .22743225 .12599182 .22743225H.69898989Z"/>
<path id="font_2_3" d="M.13798523 .33073426C.13798523 .41377259 .14498902 .4868164 .18099976 .54782107 .21099854 .5978241 .2619934 .6390381 .32499696 .6390381 .34498597 .6390381 .3909912 .63601687 .4139862 .60084536 .36898805 .5988312 .36499024 .5648346 .36499024 .553833 .36499024 .5238342 .3880005 .50683596 .4119873 .50683596 .42999269 .50683596 .45899964 .51782229 .45899964 .5558319 .45899964 .615921 .4139862 .66503909 .32398988 .66503909 .18499756 .66503909 .04399109 .53282168 .04399109 .31672669 .04399109 .045532228 .16999817-.021484375 .2669983-.021484375 .31498719-.021484375 .36698915-.0084991459 .4119873 .03453064 .45199586 .07354736 .48599244 .11558533 .48599244 .20263672 .48599244 .33372499 .3869934 .42578126 .27598573 .42578126 .20399475 .42578126 .16099549 .37976075 .13798523 .33073426M.2669983 .008514404C.21398926 .008514404 .18099976 .045532228 .1659851 .07354736 .14299011 .11859131 .14099121 .18663025 .14099121 .22465515 .14099121 .32373048 .19499207 .3977661 .27198792 .3977661 .32199098 .3977661 .35198976 .37176515 .37098695 .33673097 .3919983 .29971314 .3919983 .25468446 .3919983 .2036438 .3919983 .15260315 .3919983 .10858154 .37199403 .07255554 .34599305 .026519776 .31098939 .008514404 .2669983 .008514404Z"/>
<path id="font_2_2" d="M.3939972 .6468048C.3939972 .6667938 .3939972 .6748047 .37298585 .6748047 .3600006 .6748047 .35899354 .6737976 .34899903 .65979006L.02999878 .197052V.1640625H.31199647V.08100891C.31199647 .04399109 .30899049 .032989503 .23199463 .032989503H.20899964V0C.2939911 .0029907227 .29599 .0029907227 .35299684 .0029907227 .4099884 .0029907227 .4119873 .0029907227 .49699403 0V.032989503H.47399903C.39698792 .032989503 .3939972 .04399109 .3939972 .08100891V.1640625H.5V.197052H.3939972V.6468048M.31900025 .5658417V.197052H.06498718L.31900025 .5658417Z"/>
<path id="font_2_1" d="M.28199769 .20405579C.2979889 .21907044 .33999635 .2520752 .35598756 .26608277 .41799928 .32312013 .47698976 .3781433 .47698976 .46917726 .47698976 .588089 .3769989 .66503909 .2519989 .66503909 .13198853 .66503909 .052993776 .57411196 .052993776 .48516847 .052993776 .4361725 .09199524 .4291687 .10598755 .4291687 .1269989 .4291687 .1579895 .4441681 .1579895 .48217774 .1579895 .5341797 .10798645 .5341797 .09599304 .5341797 .125 .6070709 .19198609 .6320343 .24099732 .6320343 .33399964 .6320343 .38198854 .55314639 .38198854 .46917726 .38198854 .36514283 .30899049 .28910829 .19099427 .16804505L.06498718 .037994386C.052993776 .026992798 .052993776 .024993897 .052993776 0H.44799806L.47698976 .17904663H.44599916C.44299317 .1590271 .43499757 .10900879 .4229889 .08999634 .4169922 .08198547 .34098817 .08198547 .32499696 .08198547H.14698792L.28199769 .20405579Z"/>
<clipPath id="clip_3">
<path transform="matrix(1.00003,0,0,-1.00002,1.7796555,98.042369)" d="M0 0H111.58556V96.2428H0Z"/>
</clipPath>
<path id="font_4_1" d="M.5009918 .39942933C.45700074 .38842774 .45498658 .34942628 .45498658 .34542848 .45498658 .3234253 .47200013 .3084259 .49398805 .3084259 .5159912 .3084259 .5499878 .3254242 .5499878 .36842347 .5499878 .42539979 .4869995 .44140626 .44999696 .44140626 .40299989 .44140626 .36499024 .4084015 .34199525 .36943055 .31999208 .4223938 .2679901 .44140626 .22698975 .44140626 .117996219 .44140626 .056991579 .31643678 .056991579 .28840638 .056991579 .27938844 .06399536 .27539063 .07199097 .27539063 .083999637 .27539063 .085998538 .2803955 .08898926 .29240418 .11199951 .36543275 .17199707 .4133911 .22399903 .4133911 .2630005 .4133911 .28199769 .385437 .28199769 .34942628 .28199769 .32943727 .269989 .2834015 .2619934 .25135804 .25498963 .22232056 .23298645 .13320923 .22799683 .11419678 .21398926 .060195924 .17799378 .018234253 .1329956 .018234253 .1289978 .018234253 .102996829 .018234253 .08198547 .032196046 .12799073 .04319763 .12799073 .08518982 .12799073 .0861969 .12799073 .109191898 .10998535 .12319946 .08799744 .12319946 .06098938 .12319946 .03199768 .10018921 .03199768 .062194826 .03199768 .016220093 .08099365-.009765625 .13198853-.009765625 .18499756-.009765625 .22200012 .030197144 .23999024 .062194826 .2619934 .01322937 .30799867-.009765625 .35598756-.009765625 .46499635-.009765625 .5249939 .1151886 .5249939 .143219 .5249939 .15322876 .5169983 .15623474 .5099945 .15623474 .49798585 .15623474 .49598695 .14923096 .49299623 .13922119 .47299195 .07218933 .41600038 .018234253 .35798646 .018234253 .32499696 .018234253 .30099488 .04019165 .30099488 .0821991 .30099488 .10218811 .30699159 .12519837 .32099916 .18127442 .32798768 .21130371 .34999085 .29942323 .35499574 .31843568 .36898805 .37042237 .4039917 .4133911 .44898988 .4133911 .45399476 .4133911 .47999574 .4133911 .5009918 .39942933Z"/>
<path id="font_4_2" d="M.5179901 .37738038C.5219879 .39138795 .5219879 .39338685 .5219879 .40039063 .5219879 .42539979 .5019989 .43139649 .48999024 .43139649 .4850006 .43139649 .46199037 .43040467 .44898988 .40438844 .44699098 .3993988 .43798829 .3633728 .43299867 .34236146L.37298585 .102264408C.37199403 .09925842 .32899476 .018234253 .2559967 .018234253 .20698548 .018234253 .18998719 .054244996 .18998719 .09925842 .18998719 .1572876 .22399903 .24632263 .24699402 .3043518 .25698854 .32936097 .2599945 .33836366 .2599945 .35636903 .2599945 .4113922 .21598816 .44140626 .16999817 .44140626 .070999149 .44140626 .02999878 .300354 .02999878 .28834535 .02999878 .27934266 .036987306 .27534486 .04499817 .27534486 .057998659 .27534486 .05899048 .28134156 .06199646 .29135133 .08799744 .37838746 .1309967 .4133911 .16699219 .4133911 .18199158 .4133911 .19099427 .4033966 .19099427 .38038636 .19099427 .359375 .18299866 .33636476 .17599488 .31835938 .1349945 .21231079 .117996219 .1612854 .117996219 .11427307 .117996219 .016220093 .19198609-.009765625 .25099183-.009765625 .2979889-.009765625 .33198548 .011230469 .35598756 .034240724 .34199525-.021774292 .33198548-.060791017 .2939911-.108795169 .26098634-.14985657 .22099304-.17610169 .17599488-.17610169 .15899658-.17610169 .12098694-.17308045 .100997928-.14279175 .1539917-.13879395 .1579895-.09379578 .1579895-.08778381 .1579895-.06378174 .13999939-.05078125 .11898804-.05078125 .09700012-.05078125 .06199646-.0677948 .06199646-.11679077 .06199646-.1639862 .10499573-.20410156 .17599488-.20410156 .27799989-.20410156 .3929901-.121795658 .4229889-.00077819827L.5179901 .37738038Z"/>
</defs>
<path transform="matrix(1.00003,0,0,-1.00002,1.7796555,98.042369)" d="M0 0H111.58556V96.2428H0Z" fill="#fffac2"/>
<path transform="matrix(1.00003,0,0,-1.00002,1.7796555,98.042369)" stroke-width=".3985" stroke-linecap="butt" stroke-miterlimit="10" stroke-linejoin="miter" fill="none" stroke="#d5d6d5" d="M0 0V96.2428M7.97038 0V96.2428M15.94078 0V96.2428M23.91118 0V96.2428M31.88158 0V96.2428M39.85197 0V96.2428M47.82237 0V96.2428M55.79277 0V96.2428M63.76317 0V96.2428M71.73357 0V96.2428M79.70396 0V96.2428M87.67436 0V96.2428M95.64476 0V96.2428M103.61516 0V96.2428M111.58556 0V96.2428"/>
<path transform="matrix(1.00003,0,0,-1.00002,1.7796555,98.042369)" stroke-width=".3985" stroke-linecap="butt" stroke-miterlimit="10" stroke-linejoin="miter" fill="none" stroke="#d5d6d5" d="M7.97038 0V96.2428M23.91118 0V96.2428M39.85197 0V96.2428M71.73357 0V96.2428M87.67436 0V96.2428M103.61516 0V96.2428"/>
<path transform="matrix(1.00003,0,0,-1.00002,1.7796555,98.042369)" stroke-width=".3985" stroke-linecap="butt" stroke-miterlimit="10" stroke-linejoin="miter" fill="none" stroke="#d5d6d5" d="M0 0H111.58556M0 6.87448H111.58556M0 13.74896H111.58556M0 20.62346H111.58556M0 27.49794H111.58556M0 34.37242H111.58556M0 41.24692H111.58556M0 48.1214H111.58556M0 54.99588H111.58556M0 61.87038H111.58556M0 68.74486H111.58556M0 75.61934H111.58556M0 82.49384H111.58556M0 89.36832H111.58556M0 96.2428H111.58556"/>
<path transform="matrix(1.00003,0,0,-1.00002,1.7796555,98.042369)" stroke-width=".3985" stroke-linecap="butt" stroke-miterlimit="10" stroke-linejoin="miter" fill="none" stroke="#d5d6d5" d="M0 6.87448H111.58556M0 20.62346H111.58556M0 34.37242H111.58556M0 61.87038H111.58556M0 75.61934H111.58556M0 89.36832H111.58556"/>
<path transform="matrix(1.00003,0,0,-1.00002,1.7796555,98.042369)" stroke-width=".19925" stroke-linecap="butt" stroke-miterlimit="10" stroke-linejoin="miter" fill="none" stroke="#929292" d="M0 46.70401V49.53879M7.97038 46.70401V49.53879M15.94078 46.70401V49.53879M23.91118 46.70401V49.53879M31.88158 46.70401V49.53879M39.85197 46.70401V49.53879M47.82237 46.70401V49.53879M55.79277 46.70401V49.53879M63.76317 46.70401V49.53879M71.73357 46.70401V49.53879M79.70396 46.70401V49.53879M87.67436 46.70401V49.53879M95.64476 46.70401V49.53879M103.61516 46.70401V49.53879M111.58556 46.70401V49.53879"/>
<path transform="matrix(1.00003,0,0,-1.00002,1.7796555,98.042369)" stroke-width=".19925" stroke-linecap="butt" stroke-miterlimit="10" stroke-linejoin="miter" fill="none" stroke="#929292" d="M7.97038 45.99553V50.24725M23.91118 45.99553V50.24725M39.85197 45.99553V50.24725M71.73357 45.99553V50.24725M87.67436 45.99553V50.24725M103.61516 45.99553V50.24725"/>
<path transform="matrix(1.00003,0,0,-1.00002,1.7796555,98.042369)" stroke-width=".19925" stroke-linecap="butt" stroke-miterlimit="10" stroke-linejoin="miter" fill="none" stroke="#929292" d="M54.3753 0H57.21024M54.3753 6.87448H57.21024M54.3753 13.74896H57.21024M54.3753 20.62346H57.21024M54.3753 27.49794H57.21024M54.3753 34.37242H57.21024M54.3753 41.24692H57.21024M54.3753 48.1214H57.21024M54.3753 54.99588H57.21024M54.3753 61.87038H57.21024M54.3753 68.74486H57.21024M54.3753 75.61934H57.21024M54.3753 82.49384H57.21024M54.3753 89.36832H57.21024M54.3753 96.2428H57.21024"/>
<path transform="matrix(1.00003,0,0,-1.00002,1.7796555,98.042369)" stroke-width=".19925" stroke-linecap="butt" stroke-miterlimit="10" stroke-linejoin="miter" fill="none" stroke="#929292" d="M53.6668 6.87448H57.91875M53.6668 20.62346H57.91875M53.6668 34.37242H57.91875M53.6668 61.87038H57.91875M53.6668 75.61934H57.91875M53.6668 89.36832H57.91875"/>
<path transform="matrix(1.00003,0,0,-1.00002,1.7796555,98.042369)" stroke-width=".3985" stroke-linecap="butt" stroke-miterlimit="10" stroke-linejoin="miter" fill="none" stroke="#000000" d="M1.99252 48.1214H109.59303"/>
<path transform="matrix(-1.00003,-0,0,1.00002,3.7722355,49.920003)" d="M1.99252 0-1.19551 1.59401 0 0-1.19551-1.59401"/>
<path transform="matrix(1.00003,0,0,-1.00002,111.375988,49.920003)" d="M1.99252 0-1.19551 1.59401 0 0-1.19551-1.59401"/>
<path transform="matrix(1.00003,0,0,-1.00002,1.7796555,98.042369)" stroke-width=".3985" stroke-linecap="butt" stroke-miterlimit="10" stroke-linejoin="miter" fill="none" stroke="#000000" d="M55.79277 1.99252V94.25027"/>
<path transform="matrix(0,1.00002,1.00003,0,57.5741,96.049808)" d="M1.99252 0-1.19551 1.59401 0 0-1.19551-1.59401"/>
<path transform="matrix(0,-1.00002,-1.00003,-0,57.5741,3.7902146)" d="M1.99252 0-1.19551 1.59401 0 0-1.19551-1.59401"/>
<use data-text="&#x2212;" xlink:href="#font_1_1" transform="matrix(7.9703395,0,0,-7.9702599,4.339733,60.038606)"/>
<use data-text="6" xlink:href="#font_2_3" transform="matrix(7.9703395,0,0,-7.9702599,10.925932,60.038606)"/>
<use data-text="&#x2212;" xlink:href="#font_1_1" transform="matrix(7.9703395,0,0,-7.9702599,20.28121,60.038606)"/>
<use data-text="4" xlink:href="#font_2_2" transform="matrix(7.9703395,0,0,-7.9702599,26.867409,60.038606)"/>
<use data-text="&#x2212;" xlink:href="#font_1_1" transform="matrix(7.9703395,0,0,-7.9702599,36.22269,60.038606)"/>
<use data-text="2" xlink:href="#font_2_1" transform="matrix(7.9703395,0,0,-7.9702599,42.80889,60.038606)"/>
<use data-text="2" xlink:href="#font_2_1" transform="matrix(7.9703395,0,0,-7.9702599,71.39774,60.038606)"/>
<use data-text="4" xlink:href="#font_2_2" transform="matrix(7.9703395,0,0,-7.9702599,87.339229,60.038606)"/>
<use data-text="6" xlink:href="#font_2_3" transform="matrix(7.9703395,0,0,-7.9702599,103.28071,60.038606)"/>
<use data-text="&#x2212;" xlink:href="#font_1_1" transform="matrix(7.9703395,0,0,-7.9702599,43.2839,93.32127)"/>
<use data-text="6" xlink:href="#font_2_3" transform="matrix(7.9703395,0,0,-7.9702599,49.870103,93.32127)"/>
<use data-text="&#x2212;" xlink:href="#font_1_1" transform="matrix(7.9703395,0,0,-7.9702599,43.2839,79.572)"/>
<use data-text="4" xlink:href="#font_2_2" transform="matrix(7.9703395,0,0,-7.9702599,49.870103,79.572)"/>
<use data-text="&#x2212;" xlink:href="#font_1_1" transform="matrix(7.9703395,0,0,-7.9702599,43.2839,65.82272)"/>
<use data-text="2" xlink:href="#font_2_1" transform="matrix(7.9703395,0,0,-7.9702599,49.870103,65.82272)"/>
<use data-text="2" xlink:href="#font_2_1" transform="matrix(7.9703395,0,0,-7.9702599,49.870103,38.73918)"/>
<use data-text="4" xlink:href="#font_2_2" transform="matrix(7.9703395,0,0,-7.9702599,49.870103,24.989899)"/>
<use data-text="6" xlink:href="#font_2_3" transform="matrix(7.9703395,0,0,-7.9702599,49.870103,11.240623)"/>
<g clip-path="url(#clip_3)">
<path transform="matrix(1.00003,0,0,-1.00002,1.7796555,98.042369)" stroke-width=".99628" stroke-linecap="butt" stroke-miterlimit="10" stroke-linejoin="miter" fill="none" stroke="#9e0c0f" d="M43.99535 89.09525 42.17667 92.2327 44.50136 88.2226 46.82605 84.21246 49.15074 80.20236 51.47545 76.19226 53.80013 72.18216 56.12483 68.17204 58.44952 64.16193 60.77422 60.15184 63.0989 56.14172 65.4236 52.13162 67.74829 48.12152 70.07298 44.11139 72.39767 40.10129 74.72237 36.09119 77.04707 32.08107 79.37175 28.07098 81.69646 24.06087 84.02115 20.05075 86.34584 16.04065 88.67053 12.03055 90.99524 8.02045 93.31992 4.01031 91.50127 7.14778"/>
<path transform="matrix(-.5015151,-.8651273,-.86513599,.5015101,46.129617,9.554817)" d="M7.39124 0 2.37614 1.6717 .70447 0 2.37614-1.6717Z" fill="#9e0c0f"/>
<path transform="matrix(-.5015151,-.8651273,-.86513599,.5015101,46.129617,9.554817)" stroke-width=".99628" stroke-linecap="butt" stroke-miterlimit="10" stroke-linejoin="miter" fill="none" stroke="#9e0c0f" d="M7.39124 0 2.37614 1.6717 .70447 0 2.37614-1.6717Z"/>
<path transform="matrix(.5015151,.8651273,.86513599,-.5015101,92.93035,90.28496)" d="M7.39124 0 2.37614 1.6717 .70447 0 2.37614-1.6717Z" fill="#9e0c0f"/>
<path transform="matrix(.5015151,.8651273,.86513599,-.5015101,92.93035,90.28496)" stroke-width=".99628" stroke-linecap="butt" stroke-miterlimit="10" stroke-linejoin="miter" fill="none" stroke="#9e0c0f" d="M7.39124 0 2.37614 1.6717 .70447 0 2.37614-1.6717Z"/>
</g>
<use data-text="x" xlink:href="#font_4_1" transform="matrix(7.9703395,0,0,-7.9702599,105.74577,47.06434)"/>
<use data-text="y" xlink:href="#font_4_2" transform="matrix(7.9703395,0,0,-7.9702599,60.429418,8.085564)"/>
</svg>
