<svg xmlns="http://www.w3.org/2000/svg" xmlns:xlink="http://www.w3.org/1999/xlink" version="1.1" width="457" height="95" viewBox="0 0 457 95">
<path transform="matrix(1,0,0,-1.00003,15.633999,93.53141)" d="M0 0V61.144H56.69362V0ZM56.69362 61.144" fill="#cce6eb"/>
<path transform="matrix(1,0,0,-1.00003,15.633999,93.53141)" stroke-width=".3985" stroke-linecap="butt" stroke-miterlimit="10" stroke-linejoin="miter" fill="none" stroke="#000000" d="M0 0V91.73006H56.69362V0ZM56.69362 91.73006"/>
<path transform="matrix(1,0,0,-1.00003,15.633999,93.53141)" stroke-width=".3985" stroke-linecap="butt" stroke-miterlimit="10" stroke-linejoin="miter" fill="none" stroke="#000000" d="M0 30.58604H56.69362"/>
<path transform="matrix(1,0,0,-1.00003,15.633999,93.53141)" stroke-width=".3985" stroke-linecap="butt" stroke-miterlimit="10" stroke-linejoin="miter" fill="none" stroke="#000000" d="M0 61.144H56.69362"/>
<path transform="matrix(1,0,0,-1.00003,15.633999,93.53141)" stroke-width=".3985" stroke-linecap="butt" stroke-miterlimit="10" stroke-linejoin="miter" fill="none" stroke="#000000" d="M0 91.73006H-14.17339L0 70.867"/>
<path transform="matrix(1,0,0,-1.00003,15.633999,93.53141)" stroke-width=".3985" stroke-linecap="butt" stroke-miterlimit="10" stroke-linejoin="miter" fill="none" stroke="#000000" d="M56.69362 91.73006H85.04042L99.21382 35.03644 93.54454 29.36716 79.37114 86.06078H56.69362"/>
<path transform="matrix(1,0,0,-1.00003,15.633999,93.53141)" d="M113.38724 0V61.144H170.08086V0ZM170.08086 61.144" fill="#cce6eb"/>
<path transform="matrix(1,0,0,-1.00003,15.633999,93.53141)" stroke-width=".3985" stroke-linecap="butt" stroke-miterlimit="10" stroke-linejoin="miter" fill="none" stroke="#000000" d="M113.38724 0V91.73006H170.08086V0ZM170.08086 91.73006"/>
<path transform="matrix(1,0,0,-1.00003,15.633999,93.53141)" stroke-width=".3985" stroke-linecap="butt" stroke-miterlimit="10" stroke-linejoin="miter" fill="none" stroke="#000000" d="M113.38724 30.58604H170.08086"/>
<path transform="matrix(1,0,0,-1.00003,15.633999,93.53141)" stroke-width=".3985" stroke-linecap="butt" stroke-miterlimit="10" stroke-linejoin="miter" fill="none" stroke="#000000" d="M113.38724 61.144H170.08086"/>
<path transform="matrix(1,0,0,-1.00003,15.633999,93.53141)" stroke-width=".3985" stroke-linecap="butt" stroke-miterlimit="10" stroke-linejoin="miter" fill="none" stroke="#000000" d="M113.38724 91.73006H99.21382L113.38724 70.867"/>
<path transform="matrix(1,0,0,-1.00003,15.633999,93.53141)" stroke-width=".3985" stroke-linecap="butt" stroke-miterlimit="10" stroke-linejoin="miter" fill="none" stroke="#000000" d="M170.08086 91.73006H198.42766L212.60106 35.03644 206.93178 29.36716 192.75838 86.06078H170.08086"/>
<path transform="matrix(1,0,0,-1.00003,15.633999,93.53141)" d="M226.77448 0V61.144H283.4681V0ZM283.4681 61.144" fill="#cce6eb"/>
<path transform="matrix(1,0,0,-1.00003,15.633999,93.53141)" stroke-width=".3985" stroke-linecap="butt" stroke-miterlimit="10" stroke-linejoin="miter" fill="none" stroke="#000000" d="M226.77448 0V91.73006H283.4681V0ZM283.4681 91.73006"/>
<path transform="matrix(1,0,0,-1.00003,15.633999,93.53141)" stroke-width=".3985" stroke-linecap="butt" stroke-miterlimit="10" stroke-linejoin="miter" fill="none" stroke="#000000" d="M226.77448 30.58604H283.4681"/>
<path transform="matrix(1,0,0,-1.00003,15.633999,93.53141)" stroke-width=".3985" stroke-linecap="butt" stroke-miterlimit="10" stroke-linejoin="miter" fill="none" stroke="#000000" d="M226.77448 61.144H283.4681"/>
<path transform="matrix(1,0,0,-1.00003,15.633999,93.53141)" stroke-width=".3985" stroke-linecap="butt" stroke-miterlimit="10" stroke-linejoin="miter" fill="none" stroke="#000000" d="M226.77448 91.73006H212.60106L226.77448 70.867"/>
<path transform="matrix(1,0,0,-1.00003,15.633999,93.53141)" stroke-width=".3985" stroke-linecap="butt" stroke-miterlimit="10" stroke-linejoin="miter" fill="none" stroke="#000000" d="M283.4681 91.73006H311.8149L325.9883 35.03644 320.31904 29.36716 306.1456 86.06078H283.4681"/>
<path transform="matrix(1,0,0,-1.00003,15.633999,93.53141)" d="M340.1617 0V61.144H396.85533V0ZM396.85533 61.144" fill="#cce6eb"/>
<path transform="matrix(1,0,0,-1.00003,15.633999,93.53141)" stroke-width=".3985" stroke-linecap="butt" stroke-miterlimit="10" stroke-linejoin="miter" fill="none" stroke="#000000" d="M340.1617 0V91.73006H396.85533V0ZM396.85533 91.73006"/>
<path transform="matrix(1,0,0,-1.00003,15.633999,93.53141)" stroke-width=".3985" stroke-linecap="butt" stroke-miterlimit="10" stroke-linejoin="miter" fill="none" stroke="#000000" d="M340.1617 30.58604H396.85533"/>
<path transform="matrix(1,0,0,-1.00003,15.633999,93.53141)" stroke-width=".3985" stroke-linecap="butt" stroke-miterlimit="10" stroke-linejoin="miter" fill="none" stroke="#000000" d="M340.1617 61.144H396.85533"/>
<path transform="matrix(1,0,0,-1.00003,15.633999,93.53141)" stroke-width=".3985" stroke-linecap="butt" stroke-miterlimit="10" stroke-linejoin="miter" fill="none" stroke="#000000" d="M340.1617 91.73006H325.9883L340.1617 70.867"/>
<path transform="matrix(1,0,0,-1.00003,15.633999,93.53141)" stroke-width=".3985" stroke-linecap="butt" stroke-miterlimit="10" stroke-linejoin="miter" fill="none" stroke="#000000" d="M396.85533 91.73006H425.20213L439.37553 35.03644 433.70628 29.36716 419.53285 86.06078H396.85533"/>
</svg>
