<?xml version="1.0" encoding="UTF-8"?>
<svg xmlns="http://www.w3.org/2000/svg" xmlns:xlink="http://www.w3.org/1999/xlink" width="457" height="95" viewBox="0 0 457 95">
<path fill-rule="nonzero" fill="rgb(79.998779%, 90.037537%, 91.999817%)" fill-opacity="1" d="M 15.632812 93.53125 L 15.632812 32.386719 L 72.332031 32.386719 L 72.332031 93.53125 Z M 15.632812 93.53125 "/>
<path fill="none" stroke-width="0.3985" stroke-linecap="butt" stroke-linejoin="miter" stroke="rgb(0%, 0%, 0%)" stroke-opacity="1" stroke-miterlimit="10" d="M -0.00181911 0.000155925 L -0.00181911 91.731779 L 56.694565 91.731779 L 56.694565 0.000155925 Z M -0.00181911 0.000155925 " transform="matrix(1.00005, 0, 0, -1.00003, 15.634632, 93.531406)"/>
<path fill="none" stroke-width="0.3985" stroke-linecap="butt" stroke-linejoin="miter" stroke="rgb(0%, 0%, 0%)" stroke-opacity="1" stroke-miterlimit="10" d="M -0.00181911 30.585176 L 56.694565 30.585176 " transform="matrix(1.00005, 0, 0, -1.00003, 15.634632, 93.531406)"/>
<path fill="none" stroke-width="0.3985" stroke-linecap="butt" stroke-linejoin="miter" stroke="rgb(0%, 0%, 0%)" stroke-opacity="1" stroke-miterlimit="10" d="M -0.00181911 61.142853 L 56.694565 61.142853 " transform="matrix(1.00005, 0, 0, -1.00003, 15.634632, 93.531406)"/>
<path fill="none" stroke-width="0.3985" stroke-linecap="butt" stroke-linejoin="miter" stroke="rgb(0%, 0%, 0%)" stroke-opacity="1" stroke-miterlimit="10" d="M -0.00181911 91.731779 L -14.172986 91.731779 L -0.00181911 70.865217 " transform="matrix(1.00005, 0, 0, -1.00003, 15.634632, 93.531406)"/>
<path fill="none" stroke-width="0.3985" stroke-linecap="butt" stroke-linejoin="miter" stroke="rgb(0%, 0%, 0%)" stroke-opacity="1" stroke-miterlimit="10" d="M 56.694565 91.731779 L 85.040804 91.731779 L 99.21197 35.038167 L 93.544285 29.366462 L 79.369212 86.060074 L 56.694565 86.060074 " transform="matrix(1.00005, 0, 0, -1.00003, 15.634632, 93.531406)"/>
<path fill-rule="nonzero" fill="rgb(79.998779%, 90.037537%, 91.999817%)" fill-opacity="1" d="M 129.027344 93.53125 L 129.027344 32.386719 L 185.722656 32.386719 L 185.722656 93.53125 Z M 129.027344 93.53125 "/>
<path fill="none" stroke-width="0.3985" stroke-linecap="butt" stroke-linejoin="miter" stroke="rgb(0%, 0%, 0%)" stroke-opacity="1" stroke-miterlimit="10" d="M 113.387043 0.000155925 L 113.387043 91.731779 L 170.079521 91.731779 L 170.079521 0.000155925 Z M 113.387043 0.000155925 " transform="matrix(1.00005, 0, 0, -1.00003, 15.634632, 93.531406)"/>
<path fill="none" stroke-width="0.3985" stroke-linecap="butt" stroke-linejoin="miter" stroke="rgb(0%, 0%, 0%)" stroke-opacity="1" stroke-miterlimit="10" d="M 113.387043 30.585176 L 170.079521 30.585176 " transform="matrix(1.00005, 0, 0, -1.00003, 15.634632, 93.531406)"/>
<path fill="none" stroke-width="0.3985" stroke-linecap="butt" stroke-linejoin="miter" stroke="rgb(0%, 0%, 0%)" stroke-opacity="1" stroke-miterlimit="10" d="M 113.387043 61.142853 L 170.079521 61.142853 " transform="matrix(1.00005, 0, 0, -1.00003, 15.634632, 93.531406)"/>
<path fill="none" stroke-width="0.3985" stroke-linecap="butt" stroke-linejoin="miter" stroke="rgb(0%, 0%, 0%)" stroke-opacity="1" stroke-miterlimit="10" d="M 113.387043 91.731779 L 99.21197 91.731779 L 113.387043 70.865217 " transform="matrix(1.00005, 0, 0, -1.00003, 15.634632, 93.531406)"/>
<path fill="none" stroke-width="0.3985" stroke-linecap="butt" stroke-linejoin="miter" stroke="rgb(0%, 0%, 0%)" stroke-opacity="1" stroke-miterlimit="10" d="M 170.079521 91.731779 L 198.42576 91.731779 L 212.600832 35.038167 L 206.933147 29.366462 L 192.758074 86.060074 L 170.079521 86.060074 " transform="matrix(1.00005, 0, 0, -1.00003, 15.634632, 93.531406)"/>
<path fill-rule="nonzero" fill="rgb(79.998779%, 90.037537%, 91.999817%)" fill-opacity="1" d="M 242.421875 93.53125 L 242.421875 32.386719 L 299.117188 32.386719 L 299.117188 93.53125 Z M 242.421875 93.53125 "/>
<path fill="none" stroke-width="0.3985" stroke-linecap="butt" stroke-linejoin="miter" stroke="rgb(0%, 0%, 0%)" stroke-opacity="1" stroke-miterlimit="10" d="M 226.775905 0.000155925 L 226.775905 91.731779 L 283.468382 91.731779 L 283.468382 0.000155925 Z M 226.775905 0.000155925 " transform="matrix(1.00005, 0, 0, -1.00003, 15.634632, 93.531406)"/>
<path fill="none" stroke-width="0.3985" stroke-linecap="butt" stroke-linejoin="miter" stroke="rgb(0%, 0%, 0%)" stroke-opacity="1" stroke-miterlimit="10" d="M 226.775905 30.585176 L 283.468382 30.585176 " transform="matrix(1.00005, 0, 0, -1.00003, 15.634632, 93.531406)"/>
<path fill="none" stroke-width="0.3985" stroke-linecap="butt" stroke-linejoin="miter" stroke="rgb(0%, 0%, 0%)" stroke-opacity="1" stroke-miterlimit="10" d="M 226.775905 61.142853 L 283.468382 61.142853 " transform="matrix(1.00005, 0, 0, -1.00003, 15.634632, 93.531406)"/>
<path fill="none" stroke-width="0.3985" stroke-linecap="butt" stroke-linejoin="miter" stroke="rgb(0%, 0%, 0%)" stroke-opacity="1" stroke-miterlimit="10" d="M 226.775905 91.731779 L 212.600832 91.731779 L 226.775905 70.865217 " transform="matrix(1.00005, 0, 0, -1.00003, 15.634632, 93.531406)"/>
<path fill="none" stroke-width="0.3985" stroke-linecap="butt" stroke-linejoin="miter" stroke="rgb(0%, 0%, 0%)" stroke-opacity="1" stroke-miterlimit="10" d="M 283.468382 91.731779 L 311.814621 91.731779 L 325.989694 35.038167 L 320.318102 29.366462 L 306.146936 86.060074 L 283.468382 86.060074 " transform="matrix(1.00005, 0, 0, -1.00003, 15.634632, 93.531406)"/>
<path fill-rule="nonzero" fill="rgb(79.998779%, 90.037537%, 91.999817%)" fill-opacity="1" d="M 355.8125 93.53125 L 355.8125 32.386719 L 412.511719 32.386719 L 412.511719 93.53125 Z M 355.8125 93.53125 "/>
<path fill="none" stroke-width="0.3985" stroke-linecap="butt" stroke-linejoin="miter" stroke="rgb(0%, 0%, 0%)" stroke-opacity="1" stroke-miterlimit="10" d="M 340.16086 0.000155925 L 340.16086 91.731779 L 396.857244 91.731779 L 396.857244 0.000155925 Z M 340.16086 0.000155925 " transform="matrix(1.00005, 0, 0, -1.00003, 15.634632, 93.531406)"/>
<path fill="none" stroke-width="0.3985" stroke-linecap="butt" stroke-linejoin="miter" stroke="rgb(0%, 0%, 0%)" stroke-opacity="1" stroke-miterlimit="10" d="M 340.16086 30.585176 L 396.857244 30.585176 " transform="matrix(1.00005, 0, 0, -1.00003, 15.634632, 93.531406)"/>
<path fill="none" stroke-width="0.3985" stroke-linecap="butt" stroke-linejoin="miter" stroke="rgb(0%, 0%, 0%)" stroke-opacity="1" stroke-miterlimit="10" d="M 340.16086 61.142853 L 396.857244 61.142853 " transform="matrix(1.00005, 0, 0, -1.00003, 15.634632, 93.531406)"/>
<path fill="none" stroke-width="0.3985" stroke-linecap="butt" stroke-linejoin="miter" stroke="rgb(0%, 0%, 0%)" stroke-opacity="1" stroke-miterlimit="10" d="M 340.16086 91.731779 L 325.989694 91.731779 L 340.16086 70.865217 " transform="matrix(1.00005, 0, 0, -1.00003, 15.634632, 93.531406)"/>
<path fill="none" stroke-width="0.3985" stroke-linecap="butt" stroke-linejoin="miter" stroke="rgb(0%, 0%, 0%)" stroke-opacity="1" stroke-miterlimit="10" d="M 396.857244 91.731779 L 425.203483 91.731779 L 439.37465 35.038167 L 433.706964 29.366462 L 419.531892 86.060074 L 396.857244 86.060074 " transform="matrix(1.00005, 0, 0, -1.00003, 15.634632, 93.531406)"/>
</svg>
