<svg xmlns="http://www.w3.org/2000/svg" xmlns:xlink="http://www.w3.org/1999/xlink" version="1.1" width="352" height="118" viewBox="0 0 352 118">
<defs>
<path id="font_1_2" d="M.31399537 .63708499C.31399537 .664032 .31199647 .66503909 .2849884 .66503909 .24398804 .6251831 .19099427 .6013489 .09599304 .6013489V.5683594C.12298584 .5683594 .1769867 .5683594 .23498535 .5953522V.08203125C.23498535 .04499817 .23199463 .032989503 .13699341 .032989503H.101989749V0C.14299011 .0029907227 .22898865 .0029907227 .27398683 .0029907227 .31900025 .0029907227 .4059906 .0029907227 .44699098 0V.032989503H.4119873C.31698609 .032989503 .31399537 .04499817 .31399537 .08203125V.63708499Z"/>
<path id="font_1_1" d="M.4889984 .31877137C.4889984 .42585755 .47799684 .49090577 .44499208 .55496218 .40098573 .6430359 .31999208 .66503909 .2649994 .66503909 .13899231 .66503909 .09298706 .5709839 .07899475 .5429535 .042999269 .4698944 .040985109 .3708191 .040985109 .31877137 .040985109 .25271607 .04399109 .15162659 .09199524 .07156372 .13798523-.0024871827 .21199036-.021484375 .2649994-.021484375 .31298829-.021484375 .39898683-.0064849855 .44898988 .09257507 .48599244 .16464234 .4889984 .2537079 .4889984 .31877137M.2649994 .006515503C.23098755 .006515503 .1619873 .022521973 .14099121 .12760926 .12998963 .18466187 .12998963 .2787323 .12998963 .33078004 .12998963 .3998413 .12998963 .4698944 .14099121 .5249481 .1619873 .6270294 .23999024 .6370239 .2649994 .6370239 .29899598 .6370239 .36799623 .62002566 .3880005 .5289459 .3999939 .4738922 .3999939 .39883424 .3999939 .33078004 .3999939 .27172853 .3999939 .18165589 .3880005 .12561035 .36698915 .020523072 .2979889 .006515503 .2649994 .006515503Z"/>
<path id="font_1_3" d="M.28199769 .20405579C.2979889 .21907044 .33999635 .2520752 .35598756 .26608277 .41799928 .32312013 .47698976 .3781433 .47698976 .46917726 .47698976 .588089 .3769989 .66503909 .2519989 .66503909 .13198853 .66503909 .052993776 .57411196 .052993776 .48516847 .052993776 .4361725 .09199524 .4291687 .10598755 .4291687 .1269989 .4291687 .1579895 .4441681 .1579895 .48217774 .1579895 .5341797 .10798645 .5341797 .09599304 .5341797 .125 .6070709 .19198609 .6320343 .24099732 .6320343 .33399964 .6320343 .38198854 .55314639 .38198854 .46917726 .38198854 .36514283 .30899049 .28910829 .19099427 .16804505L.06498718 .037994386C.052993776 .026992798 .052993776 .024993897 .052993776 0H.44799806L.47698976 .17904663H.44599916C.44299317 .1590271 .43499757 .10900879 .4229889 .08999634 .4169922 .08198547 .34098817 .08198547 .32499696 .08198547H.14698792L.28199769 .20405579Z"/>
<path id="font_1_4" d="M.25299073 .33370973C.33198548 .33370973 .38198854 .27557374 .38198854 .17037964 .38198854 .045440675 .31098939 .008514404 .2579956 .008514404 .20298767 .008514404 .12799073 .0284729 .09298706 .08137512 .1289978 .08137512 .1539917 .10437012 .1539917 .13737488 .1539917 .16937256 .1309967 .19238281 .09899902 .19238281 .07199097 .19238281 .04399109 .17536927 .04399109 .13537598 .04399109 .04045105 .1459961-.021484375 .2599945-.021484375 .3929901-.021484375 .48599244 .070388797 .48599244 .17037964 .48599244 .25352479 .41999818 .32969667 .31799317 .3517456 .39698792 .37982179 .45599366 .4479828 .45599366 .52804568 .45599366 .6080475 .3659973 .66503909 .2619934 .66503909 .15499878 .66503909 .07398987 .6070404 .07398987 .53105166 .07398987 .49404908 .09899902 .4780426 .125 .4780426 .1559906 .4780426 .17599488 .5000458 .17599488 .52905276 .17599488 .56604006 .14399719 .5800476 .12199402 .5810547 .1639862 .6360321 .24099732 .6390381 .25898744 .6390381 .2849884 .6390381 .36099244 .6310272 .36099244 .52804568 .36099244 .45799256 .33198548 .41589356 .31799317 .39985658 .28799439 .36878968 .2649994 .36679078 .20399475 .3627777 .18499756 .36177064 .1769867 .36076356 .1769867 .3477478 .1769867 .33370973 .18598938 .33370973 .20298767 .33370973H.25299073Z"/>
<path id="font_1_5" d="M.3939972 .6468048C.3939972 .6667938 .3939972 .6748047 .37298585 .6748047 .3600006 .6748047 .35899354 .6737976 .34899903 .65979006L.02999878 .197052V.1640625H.31199647V.08100891C.31199647 .04399109 .30899049 .032989503 .23199463 .032989503H.20899964V0C.2939911 .0029907227 .29599 .0029907227 .35299684 .0029907227 .4099884 .0029907227 .4119873 .0029907227 .49699403 0V.032989503H.47399903C.39698792 .032989503 .3939972 .04399109 .3939972 .08100891V.1640625H.5V.197052H.3939972V.6468048M.31900025 .5658417V.197052H.06498718L.31900025 .5658417Z"/>
<path id="font_1_6" d="M.13999939 .5618439C.15299988 .55784609 .19299317 .54785159 .23498535 .54785159 .3600006 .54785159 .43598939 .6358948 .43598939 .6510315 .43598939 .6620331 .42900086 .66503909 .42399598 .66503909 .42199708 .66503909 .41999818 .66503909 .41099549 .6600342 .37199403 .6450348 .32598878 .632843 .27198792 .632843 .21299744 .632843 .1639862 .6480255 .1329956 .6600342 .12298584 .66503909 .12098694 .66503909 .11999512 .66503909 .10699463 .66503909 .10699463 .6540375 .10699463 .6358948V.34292604C.10699463 .32492066 .10699463 .312912 .12298584 .312912 .1309967 .312912 .13398743 .3169098 .13899231 .32492066 .15098572 .33992005 .18899536 .39093019 .27398683 .39093019 .32998658 .39093019 .35699464 .34492494 .3659973 .32591249 .3829956 .28990174 .3849945 .24389649 .3849945 .20487976 .3849945 .1678772 .38398744 .11387634 .35598756 .069732669 .33699037 .039611818 .29699708 .008514404 .24398804 .008514404 .1789856 .008514404 .114990238 .0496521 .09199524 .11488342 .09498596 .11387634 .100997928 .11387634 .101989749 .11387634 .12998963 .11387634 .1519928 .13188172 .1519928 .16288758 .1519928 .19989014 .12298584 .21289063 .102996829 .21289063 .084991458 .21289063 .052993776 .20288086 .052993776 .15988159 .052993776 .069732669 .1309967-.021484375 .24598694-.021484375 .37098695-.021484375 .47698976 .07574463 .47698976 .19989014 .47698976 .31591798 .3929901 .4189453 .2749939 .4189453 .22499085 .4189453 .17799378 .40293885 .13999939 .368927V.5618439Z"/>
<clipPath id="clip_2">
<path transform="matrix(1.00003,0,0,-1.00006,1.4615555,116.87321)" d="M0 0H348.6969V115.06833H0Z"/>
</clipPath>
<path id="font_3_43" d="M.4149933 .119140628C.4149933 .12911988 .40499879 .12911988 .4019928 .12911988 .3929901 .12911988 .3909912 .12512207 .3889923 .119140628 .3600006 .026229859 .29499818 .014251709 .2579956 .014251709 .20498657 .014251709 .116989139 .0572052 .116989139 .21801758 .116989139 .38093568 .19898987 .42323304 .2519989 .42323304 .26098634 .42323304 .32398988 .42222596 .35899354 .38594056 .31799317 .38293458 .31199647 .3529358 .31199647 .3399353 .31199647 .31393434 .32998658 .2939453 .35798646 .2939453 .38398744 .2939453 .4039917 .3109436 .4039917 .34094239 .4039917 .40911866 .32798768 .4482422 .25099183 .4482422 .12599182 .4482422 .033996583 .3399353 .033996583 .21601868 .033996583 .08816528 .1329956-.0107421879 .24899292-.0107421879 .3829956-.0107421879 .4149933 .10914612 .4149933 .119140628Z"/>
<path id="font_3_81" d="M.47099305 .21424866C.47099305 .34223939 .37098695 .4482422 .25 .4482422 .125 .4482422 .027999878 .3392334 .027999878 .21424866 .027999878 .085250858 .13198853-.0107421879 .24899292-.0107421879 .36999513-.0107421879 .47099305 .087249759 .47099305 .21424866M.3880005 .22224427C.3880005 .18624878 .3880005 .13224793 .3659973 .08824158 .34399415 .04324341 .2999878 .014251709 .25 .014251709 .20698548 .014251709 .16299439 .035247804 .13598633 .08125305 .11099243 .12524414 .11099243 .18624878 .11099243 .22224427 .11099243 .26124574 .11099243 .31523133 .1349945 .35923768 .1619873 .40522767 .20899964 .426239 .24899292 .426239 .29299928 .426239 .33599855 .40423585 .3619995 .36123658 .3880005 .3182373 .3880005 .26023866 .3880005 .22224427Z"/>
<path id="font_3_109" d="M.5349884 0V.0309906C.46499635 .0309906 .45700074 .037994386 .45700074 .08705139V.4423828L.30999757 .43066407V.3996582C.37998963 .3996582 .3880005 .39266969 .3880005 .34373475V.16601563C.3880005 .07910156 .33999635 .011245728 .2669983 .011245728 .18299866 .011245728 .1789856 .058135988 .1789856 .11009216V.4423828L.03199768 .43066407V.3996582C.10998535 .3996582 .10998535 .39666749 .10998535 .3078003V.15802002C.10998535 .080093387 .10998535-.0107421879 .2619934-.0107421879 .31799317-.0107421879 .3619995 .017242432 .3909912 .07910156V-.0107421879L.5349884 0Z"/>
<path id="font_3_77" d="M.5349884 0V.0309906C.48298646 .0309906 .45799256 .0309906 .45700074 .061019899V.25221253C.45700074 .3383026 .45700074 .36932374 .42599488 .405365 .4119873 .42237855 .3789978 .4423828 .32099916 .4423828 .24798584 .4423828 .20098877 .39935304 .17298889 .33729554V.4423828L.03199768 .43066407V.3996582C.101989749 .3996582 .10998535 .39266969 .10998535 .34370423V.07595825C.10998535 .0309906 .09899902 .0309906 .03199768 .0309906V0L.14498902 .0029907227 .25698854 0V.0309906C.18998719 .0309906 .1789856 .0309906 .1789856 .07595825V.25978089C.1789856 .36431886 .25 .42037965 .31399537 .42037965 .3769989 .42037965 .3880005 .36631776 .3880005 .30926515V.076034549C.3880005 .0309906 .3769989 .0309906 .30999757 .0309906V0L.4229889 .0029907227 .5349884 0Z"/>
<path id="font_3_105" d="M.33198548 .12385559V.18066406H.30699159V.12585449C.30699159 .052108766 .2769928 .014251709 .23999024 .014251709 .17298889 .014251709 .17298889 .10491943 .17298889 .12187195V.3996582H.31599427V.43066407H.17298889V.6142578H.147995C.14698792 .5324249 .116989139 .42565919 .018997193 .42166139V.3996582H.10398865V.12408447C.10398865 .0012512207 .19699097-.0107421879 .23298645-.0107421879 .3039856-.0107421879 .33198548 .060180665 .33198548 .12408447V.12385559Z"/>
<path id="font_3_55" d="M.35699464 .63479617C.35699464 .6717987 .31999208 .7050781 .2669983 .7050781 .19699097 .7050781 .11199951 .65179446 .11199951 .5457611V.43066407H.032989503V.3996582H.11199951V.07595825C.11199951 .0309906 .100997928 .0309906 .033996583 .0309906V0L.147995 .0029907227C.18798828 .0029907227 .23498535 .0029907227 .2749939 0V.0309906H.2539978C.17999268 .0309906 .17799378 .04197693 .17799378 .07795715V.3996582H.2919922V.43066407H.1749878V.5467529C.1749878 .63479617 .22299195 .68307498 .2669983 .68307498 .269989 .68307498 .2849884 .68307498 .2999878 .675827 .28799439 .6717987 .269989 .6587982 .269989 .6338043 .269989 .61079409 .28599549 .5907898 .31298829 .5907898 .34199525 .5907898 .35699464 .61079409 .35699464 .63479617Z"/>
<path id="font_3_48" d="M.44299317 .1953125C.44299317 .27830506 .397995 .3293152 .3889923 .33831788 .34899903 .38230897 .31298829 .39131166 .2649994 .4033203V.6730957C.34999085 .6690979 .397995 .6251831 .41299439 .5692749 .40899659 .570282 .40699769 .57128909 .39698792 .57128909 .37098695 .57128909 .35099793 .5532837 .35099793 .5252838 .35099793 .49427796 .37599183 .47927857 .39698792 .47927857 .3999939 .47927857 .44299317 .48028565 .44299317 .5292816 .44299317 .6261749 .3769989 .6990967 .2649994 .7050934V.75H.23399353V.70410159C.12298584 .6940918 .055999757 .6042175 .055999757 .51327517 .055999757 .44429017 .09298706 .39631654 .11099243 .37931825 .14898682 .3401184 .18299866 .3321228 .23399353 .3191223V.021224976C.1459961 .026245118 .09899902 .0773468 .085998538 .13948059 .08999634 .13848877 .09799194 .13748169 .101989749 .13748169 .1289978 .13748169 .147995 .15647888 .147995 .18348694 .147995 .21148682 .1269989 .22949219 .101989749 .22949219 .09599304 .22949219 .055999757 .22747803 .055999757 .17848206 .055999757 .08937073 .10899353-.0027770997 .23399353-.010772705V-.055664064H.2649994V-.009765625C.36999513-.00077819827 .44299317 .09239197 .44299317 .19548035V.1953125M.3919983 .16548157C.3919983 .09840393 .34399415 .03125 .2649994 .021224976V.3113098C.3849945 .28631593 .3919983 .1893158 .3919983 .16531372V.16548157M.23399353 .41130067C.11099243 .43728639 .10699463 .5232086 .10699463 .54319766 .10699463 .6031494 .1539917 .6651001 .23399353 .6730957V.41130067Z"/>
<path id="font_3_107" d="M.44898988 .17396546H.42399598C.4189911 .14398194 .4119873 .099990848 .4019928 .084991458 .394989 .07699585 .32899476 .07699585 .30699159 .07699585H.1269989L.23298645 .17996216C.3889923 .31803895 .44898988 .37210084 .44898988 .47216798 .44898988 .5860901 .35899354 .6660156 .23699951 .6660156 .12399292 .6660156 .049987794 .57411196 .049987794 .48516847 .049987794 .4291687 .099990848 .4291687 .102996829 .4291687 .11999512 .4291687 .15499878 .44117738 .15499878 .48217774 .15499878 .5081787 .13699341 .5341797 .101989749 .5341797 .09399414 .5341797 .09199524 .5341797 .08898926 .5331726 .11199951 .59806826 .1659851 .63500979 .22399903 .63500979 .31498719 .63500979 .35798646 .5541382 .35798646 .47216798 .35798646 .39196778 .30799867 .31297303 .25299073 .25097657L.06098938 .036987306C.049987794 .025985718 .049987794 .023986817 .049987794 0H.42099L.44898988 .17396546Z"/>
<path id="font_3_121" d="M.45999146 .31976319C.45999146 .39982606 .45498658 .47988893 .41999818 .5539398 .37399293 .65000918 .2919922 .6660156 .25 .6660156 .18998719 .6660156 .116989139 .64001467 .07598877 .54693606 .04399109 .47789 .038986207 .39982606 .038986207 .31976319 .038986207 .24472046 .042999269 .15464783 .083999637 .07859802 .1269989-.0024719239 .19999695-.022460938 .24899292-.022460938 .30299378-.022460938 .3789978-.0014648438 .4229889 .09359741 .45498658 .16265869 .45999146 .2407074 .45999146 .31976319M.3769989 .3317871C.3769989 .25672914 .3769989 .18867493 .3659973 .12461853 .35099793 .029556275 .2939911-.00047302247 .24899292-.00047302247 .20999146-.00047302247 .15098572 .024551392 .1329956 .12062073 .12199402 .18066406 .12199402 .2727356 .12199402 .3317871 .12199402 .39582826 .12199402 .46188355 .12998963 .5159149 .14898682 .63500979 .22399903 .64401248 .24899292 .64401248 .28199769 .64401248 .34799195 .6259918 .36698915 .52693179 .3769989 .47088624 .3769989 .39482118 .3769989 .3317871Z"/>
<path id="font_3_47" d="M.5269928 0V.0309906C.45700074 .0309906 .44898988 .038009645 .44898988 .0871582V.69433596L.30499269 .6826172V.6516113C.375 .6516113 .3829956 .64463809 .3829956 .59580996V.38035584C.35398866 .41636659 .31098939 .4423828 .25698854 .4423828 .13899231 .4423828 .033996583 .3443451 .033996583 .21531677 .033996583 .088272098 .13198853-.0107421879 .24598694-.0107421879 .30999757-.0107421879 .35499574 .023254395 .37998963 .055267335V-.0107421879L.5269928 0M.37998963 .117996219C.37998963 .099990848 .37998963 .09799194 .36898805 .08099365 .33898927 .033218385 .2939911 .011245728 .25099183 .011245728 .20599365 .011245728 .16999817 .037216188 .1459961 .075164798 .11999512 .1161499 .116989139 .17320252 .116989139 .21421814 .116989139 .25125123 .11898804 .31129457 .147995 .35632325 .16899109 .38734437 .20698548 .42037965 .26098634 .42037965 .29599 .42037965 .33799745 .405365 .36898805 .3603363 .37998963 .34332276 .37998963 .34132386 .37998963 .32330323V.117996219Z"/>
<path id="font_3_96" d="M.3639984 .38137818C.3639984 .41337586 .33299256 .4423828 .2899933 .4423828 .21699524 .4423828 .18099976 .37538148 .16699219 .3323822V.4423828L.027999878 .43066407V.3996582C.09799194 .3996582 .10598755 .39266969 .10598755 .34370423V.07595825C.10598755 .0309906 .09498596 .0309906 .027999878 .0309906V0L.14199829 .0029907227C.18199158 .0029907227 .22898865 .0029907227 .2689972 0V.0309906H.24798584C.17399597 .0309906 .17199707 .04197693 .17199707 .07795715V.23181153C.17199707 .33137513 .21398926 .42037965 .2899933 .42037965 .29699708 .42037965 .29899598 .42037965 .30099488 .41937257 .2979889 .41838075 .27799989 .40637208 .27799989 .3803711 .27799989 .35237123 .29899598 .33737184 .32099916 .33737184 .33898927 .33737184 .3639984 .3493805 .3639984 .38137818Z"/>
<path id="font_3_98" d="M.3600006 .12823487C.3600006 .18122864 .32998658 .21122742 .31799317 .22323609 .2849884 .25523377 .24598694 .26322938 .20399475 .27124024 .147995 .28224183 .08099365 .29522706 .08099365 .35324098 .08099365 .38822938 .10699463 .42922975 .19299317 .42922975 .30299378 .42922975 .30799867 .3392334 .30999757 .30822755 .31098939 .2992401 .32199098 .2992401 .32199098 .2992401 .33499146 .2992401 .33499146 .30422975 .33499146 .32322694V.4242401C.33499146 .4412384 .33499146 .4482422 .32398988 .4482422 .31900025 .4482422 .31698609 .4482422 .3039856 .43623353 .30099488 .43223573 .29100038 .42323304 .2869873 .42022706 .24899292 .4482422 .20799256 .4482422 .19299317 .4482422 .070999149 .4482422 .032989503 .38124085 .032989503 .3252411 .032989503 .29023744 .04899597 .26223756 .07598877 .24023438 .10798645 .2142334 .13598633 .2082367 .20799256 .19422913 .22999573 .19021607 .31199647 .17422486 .31199647 .10221863 .31199647 .051223756 .2769928 .011245728 .19898987 .011245728 .114990238 .011245728 .07899475 .068222049 .05999756 .1532135 .056991579 .16621399 .055999757 .17021179 .04598999 .17021179 .032989503 .17021179 .032989503 .16322327 .032989503 .1452179V.013214111C.032989503-.003753662 .032989503-.0107421879 .04399109-.0107421879 .04899597-.0107421879 .049987794-.009750366 .068984989 .009246826 .070999149 .011245728 .070999149 .013214111 .08898926 .032226564 .1329956-.009750366 .17799378-.0107421879 .19898987-.0107421879 .31399537-.0107421879 .3600006 .05621338 .3600006 .1282196V.12823487Z"/>
<path id="font_3_82" d="M.4189911 0V.0309906H.3869934C.29699708 .0309906 .2939911 .041992189 .2939911 .07902527V.64012148C.2939911 .6640167 .2939911 .6660156 .2709961 .6660156 .20899964 .60227969 .12098694 .60227969 .08898926 .60227969V.57128909C.10899353 .57128909 .16799927 .57128909 .21998596 .5972748V.07902527C.21998596 .042999269 .21699524 .0309906 .1269989 .0309906H.09498596V0C.12998963 .0029907227 .21699524 .0029907227 .25698854 .0029907227 .29699708 .0029907227 .38398744 .0029907227 .4189911 0Z"/>
</defs>
<path transform="matrix(1.00003,0,0,-1.00006,1.4615555,116.87321)" d="M0 0H348.6969V115.06833H0Z" fill="#fffac2"/>
<path transform="matrix(1.00003,0,0,-1.00006,1.4615555,116.87321)" stroke-width=".3985" stroke-linecap="butt" stroke-miterlimit="10" stroke-linejoin="miter" fill="none" stroke="#d5d6d5" d="M9.96277 0V115.06833M19.92554 0V115.06833M29.8883 0V115.06833M39.85107 0V115.06833M49.81384 0V115.06833M59.77661 0V115.06833M69.73938 0V115.06833M79.70215 0V115.06833M89.66492 0V115.06833M99.62769 0V115.06833M109.59045 0V115.06833M119.55322 0V115.06833M129.51599 0V115.06833M139.47876 0V115.06833M149.44153 0V115.06833M159.4043 0V115.06833M169.36707 0V115.06833M179.32984 0V115.06833M189.2926 0V115.06833M199.25537 0V115.06833M209.21814 0V115.06833M219.18091 0V115.06833M229.14368 0V115.06833M239.10645 0V115.06833M249.06922 0V115.06833M259.03199 0V115.06833M268.99476 0V115.06833M278.95753 0V115.06833M288.9203 0V115.06833M298.88307 0V115.06833M308.84584 0V115.06833M318.8086 0V115.06833M328.77137 0V115.06833M338.73414 0V115.06833"/>
<path transform="matrix(1.00003,0,0,-1.00006,1.4615555,116.87321)" stroke-width=".3985" stroke-linecap="butt" stroke-miterlimit="10" stroke-linejoin="miter" fill="none" stroke="#d5d6d5" d="M99.62769 0V115.06833M149.44153 0V115.06833M199.25537 0V115.06833M249.06922 0V115.06833M298.88307 0V115.06833"/>
<path transform="matrix(1.00003,0,0,-1.00006,1.4615555,116.87321)" stroke-width=".3985" stroke-linecap="butt" stroke-miterlimit="10" stroke-linejoin="miter" fill="none" stroke="#d5d6d5" d="M0 7.67122H348.6969M0 15.34244H348.6969M0 23.01366H348.6969M0 30.68488H348.6969M0 38.35611H348.6969M0 46.02733H348.6969M0 53.69855H348.6969M0 61.36977H348.6969M0 69.041H348.6969M0 76.71222H348.6969M0 84.38344H348.6969M0 92.05466H348.6969M0 99.72588H348.6969M0 107.39711H348.6969"/>
<path transform="matrix(1.00003,0,0,-1.00006,1.4615555,116.87321)" stroke-width=".3985" stroke-linecap="butt" stroke-miterlimit="10" stroke-linejoin="miter" fill="none" stroke="#d5d6d5" d="M0 76.71222H348.6969"/>
<path transform="matrix(1.00003,0,0,-1.00006,1.4615555,116.87321)" stroke-width=".19925" stroke-linecap="butt" stroke-miterlimit="10" stroke-linejoin="miter" fill="none" stroke="#929292" d="M9.96277 36.9387V39.7735M19.92554 36.9387V39.7735M29.8883 36.9387V39.7735M39.85107 36.9387V39.7735M49.81384 36.9387V39.7735M59.77661 36.9387V39.7735M69.73938 36.9387V39.7735M79.70215 36.9387V39.7735M89.66492 36.9387V39.7735M99.62769 36.9387V39.7735M109.59045 36.9387V39.7735M119.55322 36.9387V39.7735M129.51599 36.9387V39.7735M139.47876 36.9387V39.7735M149.44153 36.9387V39.7735M159.4043 36.9387V39.7735M169.36707 36.9387V39.7735M179.32984 36.9387V39.7735M189.2926 36.9387V39.7735M199.25537 36.9387V39.7735M209.21814 36.9387V39.7735M219.18091 36.9387V39.7735M229.14368 36.9387V39.7735M239.10645 36.9387V39.7735M249.06922 36.9387V39.7735M259.03199 36.9387V39.7735M268.99476 36.9387V39.7735M278.95753 36.9387V39.7735M288.9203 36.9387V39.7735M298.88307 36.9387V39.7735M308.84584 36.9387V39.7735M318.8086 36.9387V39.7735M328.77137 36.9387V39.7735M338.73414 36.9387V39.7735"/>
<path transform="matrix(1.00003,0,0,-1.00006,1.4615555,116.87321)" stroke-width=".19925" stroke-linecap="butt" stroke-miterlimit="10" stroke-linejoin="miter" fill="none" stroke="#929292" d="M99.62769 36.23021V40.48198M149.44153 36.23021V40.48198M199.25537 36.23021V40.48198M249.06922 36.23021V40.48198M298.88307 36.23021V40.48198"/>
<path transform="matrix(1.00003,0,0,-1.00006,1.4615555,116.87321)" stroke-width=".19925" stroke-linecap="butt" stroke-miterlimit="10" stroke-linejoin="miter" fill="none" stroke="#929292" d="M48.39642 7.67122H51.23126M48.39642 15.34244H51.23126M48.39642 23.01366H51.23126M48.39642 30.68488H51.23126M48.39642 38.35611H51.23126M48.39642 46.02733H51.23126M48.39642 53.69855H51.23126M48.39642 61.36977H51.23126M48.39642 69.041H51.23126M48.39642 76.71222H51.23126M48.39642 84.38344H51.23126M48.39642 92.05466H51.23126M48.39642 99.72588H51.23126M48.39642 107.39711H51.23126"/>
<path transform="matrix(1.00003,0,0,-1.00006,1.4615555,116.87321)" stroke-width=".19925" stroke-linecap="butt" stroke-miterlimit="10" stroke-linejoin="miter" fill="none" stroke="#929292" d="M47.68791 76.71222H51.93976"/>
<path transform="matrix(1.00003,0,0,-1.00006,1.4615555,116.87321)" stroke-width=".3985" stroke-linecap="butt" stroke-miterlimit="10" stroke-linejoin="miter" fill="none" stroke="#000000" d="M1.99252 38.35611H346.70436"/>
<path transform="matrix(-1.00003,-0,0,1.00006,3.4541355,78.5148)" d="M1.99252 0-1.19551 1.59401 0 0-1.19551-1.59401"/>
<path transform="matrix(1.00003,0,0,-1.00006,348.1763,78.5148)" d="M1.99252 0-1.19551 1.59401 0 0-1.19551-1.59401"/>
<path transform="matrix(1.00003,0,0,-1.00006,1.4615555,116.87321)" stroke-width=".3985" stroke-linecap="butt" stroke-miterlimit="10" stroke-linejoin="miter" fill="none" stroke="#000000" d="M49.81384 1.99252V113.0758"/>
<path transform="matrix(0,1.00006,1.00003,0,51.27689,114.88057)" d="M1.99252 0-1.19551 1.59401 0 0-1.19551-1.59401"/>
<path transform="matrix(0,-1.00006,-1.00003,-0,51.27689,3.7906266)" d="M1.99252 0-1.19551 1.59401 0 0-1.19551-1.59401"/>
<use data-text="1" xlink:href="#font_1_2" transform="matrix(7.9703395,0,0,-7.9705779,94.74036,89.297557)"/>
<use data-text="0" xlink:href="#font_1_1" transform="matrix(7.9703395,0,0,-7.9705779,98.97261,89.297557)"/>
<use data-text="0" xlink:href="#font_1_1" transform="matrix(7.9703395,0,0,-7.9705779,103.20486,89.297557)"/>
<use data-text="2" xlink:href="#font_1_3" transform="matrix(7.9703395,0,0,-7.9705779,144.55585,89.297557)"/>
<use data-text="0" xlink:href="#font_1_1" transform="matrix(7.9703395,0,0,-7.9705779,148.7881,89.297557)"/>
<use data-text="0" xlink:href="#font_1_1" transform="matrix(7.9703395,0,0,-7.9705779,153.02036,89.297557)"/>
<use data-text="3" xlink:href="#font_1_4" transform="matrix(7.9703395,0,0,-7.9705779,194.37137,89.297557)"/>
<use data-text="0" xlink:href="#font_1_1" transform="matrix(7.9703395,0,0,-7.9705779,198.6036,89.297557)"/>
<use data-text="0" xlink:href="#font_1_1" transform="matrix(7.9703395,0,0,-7.9705779,202.83586,89.297557)"/>
<use data-text="4" xlink:href="#font_1_5" transform="matrix(7.9703395,0,0,-7.9705779,244.18686,89.297557)"/>
<use data-text="0" xlink:href="#font_1_1" transform="matrix(7.9703395,0,0,-7.9705779,248.4191,89.297557)"/>
<use data-text="0" xlink:href="#font_1_1" transform="matrix(7.9703395,0,0,-7.9705779,252.65135,89.297557)"/>
<use data-text="5" xlink:href="#font_1_6" transform="matrix(7.9703395,0,0,-7.9705779,294.00236,89.297557)"/>
<use data-text="0" xlink:href="#font_1_1" transform="matrix(7.9703395,0,0,-7.9705779,298.23463,89.297557)"/>
<use data-text="0" xlink:href="#font_1_1" transform="matrix(7.9703395,0,0,-7.9705779,302.46687,89.297557)"/>
<use data-text="1" xlink:href="#font_1_2" transform="matrix(7.9703395,0,0,-7.9705779,34.818559,42.724763)"/>
<use data-text="0" xlink:href="#font_1_1" transform="matrix(7.9703395,0,0,-7.9705779,39.05081,42.724763)"/>
<use data-text="0" xlink:href="#font_1_1" transform="matrix(7.9703395,0,0,-7.9705779,43.28306,42.724763)"/>
<g clip-path="url(#clip_2)">
<path transform="matrix(1.00003,0,0,-1.00006,1.4615555,116.87321)" stroke-width=".99628" stroke-linecap="butt" stroke-miterlimit="10" stroke-linejoin="miter" fill="none" stroke="#9e0c0f" d="M8.16544 83.12616 14.52899 82.146 29.05801 79.90855 43.58702 77.67113 58.11603 75.43369 72.64503 73.19626 87.17406 70.95882 101.70305 68.72139 116.23207 66.48395 130.76108 64.2465 145.29009 62.00908 159.81909 59.77165 174.34812 57.53421 188.8771 55.29677 203.40613 53.05934 217.93514 50.82191 232.46414 48.58447 246.99315 46.34703 261.52217 44.1096 276.05116 41.87216 290.58018 39.6347 305.1092 37.39728 319.6382 35.15984 334.1672 32.92241 340.5308 31.94225"/>
<path transform="matrix(-.98833969,-.15218912,-.15218458,.9883692,10.323502,33.84928)" d="M7.39124 0 2.37614 1.6717 .70447 0 2.37614-1.6717Z" fill="#9e0c0f"/>
<path transform="matrix(-.98833969,-.15218912,-.15218458,.9883692,10.323502,33.84928)" stroke-width=".99628" stroke-linecap="butt" stroke-miterlimit="10" stroke-linejoin="miter" fill="none" stroke="#9e0c0f" d="M7.39124 0 2.37614 1.6717 .70447 0 2.37614-1.6717Z"/>
<path transform="matrix(.98833969,.15218912,.15218458,-.9883692,341.3063,84.82184)" d="M7.39124 0 2.37614 1.6717 .70447 0 2.37614-1.6717Z" fill="#9e0c0f"/>
<path transform="matrix(.98833969,.15218912,.15218458,-.9883692,341.3063,84.82184)" stroke-width=".99628" stroke-linecap="butt" stroke-miterlimit="10" stroke-linejoin="miter" fill="none" stroke="#9e0c0f" d="M7.39124 0 2.37614 1.6717 .70447 0 2.37614-1.6717Z"/>
</g>
<path transform="matrix(1.00003,0,0,-1.00006,1.4615555,116.87321)" d="M51.8064 76.71222C51.8064 77.81268 50.9143 78.70477 49.81384 78.70477 48.71336 78.70477 47.82129 77.81268 47.82129 76.71222 47.82129 75.61174 48.71336 74.71967 49.81384 74.71967 50.9143 74.71967 51.8064 75.61174 51.8064 76.71222ZM49.81384 76.71222" fill="#9e0c0f"/>
<path transform="matrix(1.00003,0,0,-1.00006,1.4615555,116.87321)" stroke-width=".3985" stroke-linecap="butt" stroke-miterlimit="10" stroke-linejoin="miter" fill="none" stroke="#9e0c0f" d="M51.8064 76.71222C51.8064 77.81268 50.9143 78.70477 49.81384 78.70477 48.71336 78.70477 47.82129 77.81268 47.82129 76.71222 47.82129 75.61174 48.71336 74.71967 49.81384 74.71967 50.9143 74.71967 51.8064 75.61174 51.8064 76.71222ZM49.81384 76.71222"/>
<path transform="matrix(1.00003,0,0,-1.00006,1.4615555,116.87321)" stroke-width=".3985" stroke-linecap="butt" stroke-miterlimit="10" stroke-linejoin="miter" fill="none" stroke="#9e0c0f" d=""/>
<path transform="matrix(1.00003,0,0,-1.00006,1.4615555,116.87321)" d="M300.8756 38.35611C300.8756 39.45657 299.98353 40.34866 298.88307 40.34866 297.7826 40.34866 296.8905 39.45657 296.8905 38.35611 296.8905 37.25563 297.7826 36.36356 298.88307 36.36356 299.98353 36.36356 300.8756 37.25563 300.8756 38.35611ZM298.88307 38.35611" fill="#9e0c0f"/>
<path transform="matrix(1.00003,0,0,-1.00006,1.4615555,116.87321)" stroke-width=".3985" stroke-linecap="butt" stroke-miterlimit="10" stroke-linejoin="miter" fill="none" stroke="#9e0c0f" d="M300.8756 38.35611C300.8756 39.45657 299.98353 40.34866 298.88307 40.34866 297.7826 40.34866 296.8905 39.45657 296.8905 38.35611 296.8905 37.25563 297.7826 36.36356 298.88307 36.36356 299.98353 36.36356 300.8756 37.25563 300.8756 38.35611ZM298.88307 38.35611"/>
<path transform="matrix(1.00003,0,0,-1.00006,1.4615555,116.87321)" stroke-width=".3985" stroke-linecap="butt" stroke-miterlimit="10" stroke-linejoin="miter" fill="none" stroke="#9e0c0f" d=""/>
<use data-text="c" xlink:href="#font_3_43" transform="matrix(9.962899,0,0,-9.963197,132.87451,103.61041)"/>
<use data-text="o" xlink:href="#font_3_81" transform="matrix(9.962899,0,0,-9.963197,137.29804,103.61041)"/>
<use data-text="u" xlink:href="#font_3_109" transform="matrix(9.962899,0,0,-9.963197,142.27948,103.61041)"/>
<use data-text="n" xlink:href="#font_3_77" transform="matrix(9.962899,0,0,-9.963197,147.81885,103.61041)"/>
<use data-text="t" xlink:href="#font_3_105" transform="matrix(9.962899,0,0,-9.963197,153.08924,103.61041)"/>
<use data-text="o" xlink:href="#font_3_81" transform="matrix(9.962899,0,0,-9.963197,160.27248,103.61041)"/>
<use data-text="f" xlink:href="#font_3_55" transform="matrix(9.962899,0,0,-9.963197,165.25394,103.61041)"/>
<use data-text="$" xlink:href="#font_3_48" transform="matrix(9.962899,0,0,-9.963197,171.62023,103.61041)"/>
<use data-text="2" xlink:href="#font_3_107" transform="matrix(9.962899,0,0,-9.963197,176.60167,103.61041)"/>
<use data-text="0" xlink:href="#font_3_121" transform="matrix(9.962899,0,0,-9.963197,181.58313,103.61041)"/>
<use data-text="d" xlink:href="#font_3_47" transform="matrix(9.962899,0,0,-9.963197,189.88222,103.61041)"/>
<use data-text="o" xlink:href="#font_3_81" transform="matrix(9.962899,0,0,-9.963197,195.4216,103.61041)"/>
<use data-text="n" xlink:href="#font_3_77" transform="matrix(9.962899,0,0,-9.963197,200.40305,103.61041)"/>
<use data-text="o" xlink:href="#font_3_81" transform="matrix(9.962899,0,0,-9.963197,205.94242,103.61041)"/>
<use data-text="r" xlink:href="#font_3_96" transform="matrix(9.962899,0,0,-9.963197,210.92386,103.61041)"/>
<use data-text="s" xlink:href="#font_3_98" transform="matrix(9.962899,0,0,-9.963197,214.82932,103.61041)"/>
<use data-text="c" xlink:href="#font_3_43" transform="matrix(0,-9.963197,-9.962899,-0,29.311387,104.768489)"/>
<use data-text="o" xlink:href="#font_3_81" transform="matrix(0,-9.963197,-9.962899,-0,29.311387,100.344829)"/>
<use data-text="u" xlink:href="#font_3_109" transform="matrix(0,-9.963197,-9.962899,-0,29.311387,95.36323)"/>
<use data-text="n" xlink:href="#font_3_77" transform="matrix(0,-9.963197,-9.962899,-0,29.311387,89.823688)"/>
<use data-text="t" xlink:href="#font_3_105" transform="matrix(0,-9.963197,-9.962899,-0,29.311387,84.553157)"/>
<use data-text="o" xlink:href="#font_3_81" transform="matrix(0,-9.963197,-9.962899,-0,29.311387,77.36969)"/>
<use data-text="f" xlink:href="#font_3_55" transform="matrix(0,-9.963197,-9.962899,-0,29.311387,72.38809)"/>
<use data-text="$" xlink:href="#font_3_48" transform="matrix(0,-9.963197,-9.962899,-0,29.311387,66.02161)"/>
<use data-text="1" xlink:href="#font_3_82" transform="matrix(0,-9.963197,-9.962899,-0,29.311387,61.040006)"/>
<use data-text="0" xlink:href="#font_3_121" transform="matrix(0,-9.963197,-9.962899,-0,29.311387,56.05841)"/>
<use data-text="0" xlink:href="#font_3_121" transform="matrix(0,-9.963197,-9.962899,-0,29.311387,51.076807)"/>
<use data-text="d" xlink:href="#font_3_47" transform="matrix(0,-9.963197,-9.962899,-0,29.311387,42.777467)"/>
<use data-text="o" xlink:href="#font_3_81" transform="matrix(0,-9.963197,-9.962899,-0,29.311387,37.23793)"/>
<use data-text="n" xlink:href="#font_3_77" transform="matrix(0,-9.963197,-9.962899,-0,29.311387,32.256326)"/>
<use data-text="o" xlink:href="#font_3_81" transform="matrix(0,-9.963197,-9.962899,-0,29.311387,26.71679)"/>
<use data-text="r" xlink:href="#font_3_96" transform="matrix(0,-9.963197,-9.962899,-0,29.311387,21.735192)"/>
<use data-text="s" xlink:href="#font_3_98" transform="matrix(0,-9.963197,-9.962899,-0,29.311387,17.829613)"/>
</svg>
