<svg xmlns="http://www.w3.org/2000/svg" xmlns:xlink="http://www.w3.org/1999/xlink" version="1.1" width="115" height="100" viewBox="0 0 115 100">
<defs>
<path id="font_1_1" d="M.69898989 .22743225C.71499636 .22743225 .7369995 .22743225 .7369995 .25042726 .7369995 .2734375 .71499636 .2734375 .69898989 .2734375H.12599182C.10998535 .2734375 .08799744 .2734375 .08799744 .25042726 .08799744 .22743225 .10998535 .22743225 .12599182 .22743225H.69898989Z"/>
<path id="font_2_3" d="M.13798523 .33073426C.13798523 .41377259 .14498902 .4868164 .18099976 .54782107 .21099854 .5978241 .2619934 .6390381 .32499696 .6390381 .34498597 .6390381 .3909912 .63601687 .4139862 .60084536 .36898805 .5988312 .36499024 .5648346 .36499024 .553833 .36499024 .5238342 .3880005 .50683596 .4119873 .50683596 .42999269 .50683596 .45899964 .51782229 .45899964 .5558319 .45899964 .615921 .4139862 .66503909 .32398988 .66503909 .18499756 .66503909 .04399109 .53282168 .04399109 .31672669 .04399109 .045532228 .16999817-.021484375 .2669983-.021484375 .31498719-.021484375 .36698915-.0084991459 .4119873 .03453064 .45199586 .07354736 .48599244 .11558533 .48599244 .20263672 .48599244 .33372499 .3869934 .42578126 .27598573 .42578126 .20399475 .42578126 .16099549 .37976075 .13798523 .33073426M.2669983 .008514404C.21398926 .008514404 .18099976 .045532228 .1659851 .07354736 .14299011 .11859131 .14099121 .18663025 .14099121 .22465515 .14099121 .32373048 .19499207 .3977661 .27198792 .3977661 .32199098 .3977661 .35198976 .37176515 .37098695 .33673097 .3919983 .29971314 .3919983 .25468446 .3919983 .2036438 .3919983 .15260315 .3919983 .10858154 .37199403 .07255554 .34599305 .026519776 .31098939 .008514404 .2669983 .008514404Z"/>
<path id="font_2_2" d="M.3939972 .6468048C.3939972 .6667938 .3939972 .6748047 .37298585 .6748047 .3600006 .6748047 .35899354 .6737976 .34899903 .65979006L.02999878 .197052V.1640625H.31199647V.08100891C.31199647 .04399109 .30899049 .032989503 .23199463 .032989503H.20899964V0C.2939911 .0029907227 .29599 .0029907227 .35299684 .0029907227 .4099884 .0029907227 .4119873 .0029907227 .49699403 0V.032989503H.47399903C.39698792 .032989503 .3939972 .04399109 .3939972 .08100891V.1640625H.5V.197052H.3939972V.6468048M.31900025 .5658417V.197052H.06498718L.31900025 .5658417Z"/>
<path id="font_2_1" d="M.28199769 .20405579C.2979889 .21907044 .33999635 .2520752 .35598756 .26608277 .41799928 .32312013 .47698976 .3781433 .47698976 .46917726 .47698976 .588089 .3769989 .66503909 .2519989 .66503909 .13198853 .66503909 .052993776 .57411196 .052993776 .48516847 .052993776 .4361725 .09199524 .4291687 .10598755 .4291687 .1269989 .4291687 .1579895 .4441681 .1579895 .48217774 .1579895 .5341797 .10798645 .5341797 .09599304 .5341797 .125 .6070709 .19198609 .6320343 .24099732 .6320343 .33399964 .6320343 .38198854 .55314639 .38198854 .46917726 .38198854 .36514283 .30899049 .28910829 .19099427 .16804505L.06498718 .037994386C.052993776 .026992798 .052993776 .024993897 .052993776 0H.44799806L.47698976 .17904663H.44599916C.44299317 .1590271 .43499757 .10900879 .4229889 .08999634 .4169922 .08198547 .34098817 .08198547 .32499696 .08198547H.14698792L.28199769 .20405579Z"/>
<clipPath id="clip_3">
<path transform="matrix(1.00003,0,0,-1.00002,1.7796555,98.042369)" d="M0 0H111.58556V96.2428H0Z"/>
</clipPath>
<path id="font_4_1" d="M.5009918 .39942933C.45700074 .38842774 .45498658 .34942628 .45498658 .34542848 .45498658 .3234253 .47200013 .3084259 .49398805 .3084259 .5159912 .3084259 .5499878 .3254242 .5499878 .36842347 .5499878 .42539979 .4869995 .44140626 .44999696 .44140626 .40299989 .44140626 .36499024 .4084015 .34199525 .36943055 .31999208 .4223938 .2679901 .44140626 .22698975 .44140626 .117996219 .44140626 .056991579 .31643678 .056991579 .28840638 .056991579 .27938844 .06399536 .27539063 .07199097 .27539063 .083999637 .27539063 .085998538 .2803955 .08898926 .29240418 .11199951 .36543275 .17199707 .4133911 .22399903 .4133911 .2630005 .4133911 .28199769 .385437 .28199769 .34942628 .28199769 .32943727 .269989 .2834015 .2619934 .25135804 .25498963 .22232056 .23298645 .13320923 .22799683 .11419678 .21398926 .060195924 .17799378 .018234253 .1329956 .018234253 .1289978 .018234253 .102996829 .018234253 .08198547 .032196046 .12799073 .04319763 .12799073 .08518982 .12799073 .0861969 .12799073 .109191898 .10998535 .12319946 .08799744 .12319946 .06098938 .12319946 .03199768 .10018921 .03199768 .062194826 .03199768 .016220093 .08099365-.009765625 .13198853-.009765625 .18499756-.009765625 .22200012 .030197144 .23999024 .062194826 .2619934 .01322937 .30799867-.009765625 .35598756-.009765625 .46499635-.009765625 .5249939 .1151886 .5249939 .143219 .5249939 .15322876 .5169983 .15623474 .5099945 .15623474 .49798585 .15623474 .49598695 .14923096 .49299623 .13922119 .47299195 .07218933 .41600038 .018234253 .35798646 .018234253 .32499696 .018234253 .30099488 .04019165 .30099488 .0821991 .30099488 .10218811 .30699159 .12519837 .32099916 .18127442 .32798768 .21130371 .34999085 .29942323 .35499574 .31843568 .36898805 .37042237 .4039917 .4133911 .44898988 .4133911 .45399476 .4133911 .47999574 .4133911 .5009918 .39942933Z"/>
<path id="font_4_2" d="M.5179901 .37738038C.5219879 .39138795 .5219879 .39338685 .5219879 .40039063 .5219879 .42539979 .5019989 .43139649 .48999024 .43139649 .4850006 .43139649 .46199037 .43040467 .44898988 .40438844 .44699098 .3993988 .43798829 .3633728 .43299867 .34236146L.37298585 .102264408C.37199403 .09925842 .32899476 .018234253 .2559967 .018234253 .20698548 .018234253 .18998719 .054244996 .18998719 .09925842 .18998719 .1572876 .22399903 .24632263 .24699402 .3043518 .25698854 .32936097 .2599945 .33836366 .2599945 .35636903 .2599945 .4113922 .21598816 .44140626 .16999817 .44140626 .070999149 .44140626 .02999878 .300354 .02999878 .28834535 .02999878 .27934266 .036987306 .27534486 .04499817 .27534486 .057998659 .27534486 .05899048 .28134156 .06199646 .29135133 .08799744 .37838746 .1309967 .4133911 .16699219 .4133911 .18199158 .4133911 .19099427 .4033966 .19099427 .38038636 .19099427 .359375 .18299866 .33636476 .17599488 .31835938 .1349945 .21231079 .117996219 .1612854 .117996219 .11427307 .117996219 .016220093 .19198609-.009765625 .25099183-.009765625 .2979889-.009765625 .33198548 .011230469 .35598756 .034240724 .34199525-.021774292 .33198548-.060791017 .2939911-.108795169 .26098634-.14985657 .22099304-.17610169 .17599488-.17610169 .15899658-.17610169 .12098694-.17308045 .100997928-.14279175 .1539917-.13879395 .1579895-.09379578 .1579895-.08778381 .1579895-.06378174 .13999939-.05078125 .11898804-.05078125 .09700012-.05078125 .06199646-.0677948 .06199646-.11679077 .06199646-.1639862 .10499573-.20410156 .17599488-.20410156 .27799989-.20410156 .3929901-.121795658 .4229889-.00077819827L.5179901 .37738038Z"/>
</defs>
<path transform="matrix(1.00003,0,0,-1.00002,1.7796555,98.042369)" d="M0 0H111.58556V96.2428H0Z" fill="#fffac2"/>
<path transform="matrix(1.00003,0,0,-1.00002,1.7796555,98.042369)" stroke-width=".3985" stroke-linecap="butt" stroke-miterlimit="10" stroke-linejoin="miter" fill="none" stroke="#d5d6d5" d="M0 0V96.2428M7.97038 0V96.2428M15.94078 0V96.2428M23.91118 0V96.2428M31.88158 0V96.2428M39.85197 0V96.2428M47.82237 0V96.2428M55.79277 0V96.2428M63.76317 0V96.2428M71.73357 0V96.2428M79.70396 0V96.2428M87.67436 0V96.2428M95.64476 0V96.2428M103.61516 0V96.2428M111.58556 0V96.2428"/>
<path transform="matrix(1.00003,0,0,-1.00002,1.7796555,98.042369)" stroke-width=".3985" stroke-linecap="butt" stroke-miterlimit="10" stroke-linejoin="miter" fill="none" stroke="#d5d6d5" d="M7.97038 0V96.2428M23.91118 0V96.2428M39.85197 0V96.2428M71.73357 0V96.2428M87.67436 0V96.2428M103.61516 0V96.2428"/>
<path transform="matrix(1.00003,0,0,-1.00002,1.7796555,98.042369)" stroke-width=".3985" stroke-linecap="butt" stroke-miterlimit="10" stroke-linejoin="miter" fill="none" stroke="#d5d6d5" d="M0 0H111.58556M0 6.87448H111.58556M0 13.74896H111.58556M0 20.62346H111.58556M0 27.49794H111.58556M0 34.37242H111.58556M0 41.24692H111.58556M0 48.1214H111.58556M0 54.99588H111.58556M0 61.87038H111.58556M0 68.74486H111.58556M0 75.61934H111.58556M0 82.49384H111.58556M0 89.36832H111.58556M0 96.2428H111.58556"/>
<path transform="matrix(1.00003,0,0,-1.00002,1.7796555,98.042369)" stroke-width=".3985" stroke-linecap="butt" stroke-miterlimit="10" stroke-linejoin="miter" fill="none" stroke="#d5d6d5" d="M0 6.87448H111.58556M0 20.62346H111.58556M0 34.37242H111.58556M0 61.87038H111.58556M0 75.61934H111.58556M0 89.36832H111.58556"/>
<path transform="matrix(1.00003,0,0,-1.00002,1.7796555,98.042369)" stroke-width=".19925" stroke-linecap="butt" stroke-miterlimit="10" stroke-linejoin="miter" fill="none" stroke="#929292" d="M0 46.70401V49.53879M7.97038 46.70401V49.53879M15.94078 46.70401V49.53879M23.91118 46.70401V49.53879M31.88158 46.70401V49.53879M39.85197 46.70401V49.53879M47.82237 46.70401V49.53879M55.79277 46.70401V49.53879M63.76317 46.70401V49.53879M71.73357 46.70401V49.53879M79.70396 46.70401V49.53879M87.67436 46.70401V49.53879M95.64476 46.70401V49.53879M103.61516 46.70401V49.53879M111.58556 46.70401V49.53879"/>
<path transform="matrix(1.00003,0,0,-1.00002,1.7796555,98.042369)" stroke-width=".19925" stroke-linecap="butt" stroke-miterlimit="10" stroke-linejoin="miter" fill="none" stroke="#929292" d="M7.97038 45.99553V50.24725M23.91118 45.99553V50.24725M39.85197 45.99553V50.24725M71.73357 45.99553V50.24725M87.67436 45.99553V50.24725M103.61516 45.99553V50.24725"/>
<path transform="matrix(1.00003,0,0,-1.00002,1.7796555,98.042369)" stroke-width=".19925" stroke-linecap="butt" stroke-miterlimit="10" stroke-linejoin="miter" fill="none" stroke="#929292" d="M54.3753 0H57.21024M54.3753 6.87448H57.21024M54.3753 13.74896H57.21024M54.3753 20.62346H57.21024M54.3753 27.49794H57.21024M54.3753 34.37242H57.21024M54.3753 41.24692H57.21024M54.3753 48.1214H57.21024M54.3753 54.99588H57.21024M54.3753 61.87038H57.21024M54.3753 68.74486H57.21024M54.3753 75.61934H57.21024M54.3753 82.49384H57.21024M54.3753 89.36832H57.21024M54.3753 96.2428H57.21024"/>
<path transform="matrix(1.00003,0,0,-1.00002,1.7796555,98.042369)" stroke-width=".19925" stroke-linecap="butt" stroke-miterlimit="10" stroke-linejoin="miter" fill="none" stroke="#929292" d="M53.6668 6.87448H57.91875M53.6668 20.62346H57.91875M53.6668 34.37242H57.91875M53.6668 61.87038H57.91875M53.6668 75.61934H57.91875M53.6668 89.36832H57.91875"/>
<path transform="matrix(1.00003,0,0,-1.00002,1.7796555,98.042369)" stroke-width=".3985" stroke-linecap="butt" stroke-miterlimit="10" stroke-linejoin="miter" fill="none" stroke="#000000" d="M1.99252 48.1214H109.59303"/>
<path transform="matrix(-1.00003,-0,0,1.00002,3.7722355,49.920003)" d="M1.99252 0-1.19551 1.59401 0 0-1.19551-1.59401"/>
<path transform="matrix(1.00003,0,0,-1.00002,111.375988,49.920003)" d="M1.99252 0-1.19551 1.59401 0 0-1.19551-1.59401"/>
<path transform="matrix(1.00003,0,0,-1.00002,1.7796555,98.042369)" stroke-width=".3985" stroke-linecap="butt" stroke-miterlimit="10" stroke-linejoin="miter" fill="none" stroke="#000000" d="M55.79277 1.99252V94.25027"/>
<path transform="matrix(0,1.00002,1.00003,0,57.5741,96.049808)" d="M1.99252 0-1.19551 1.59401 0 0-1.19551-1.59401"/>
<path transform="matrix(0,-1.00002,-1.00003,-0,57.5741,3.7902146)" d="M1.99252 0-1.19551 1.59401 0 0-1.19551-1.59401"/>
<use data-text="&#x2212;" xlink:href="#font_1_1" transform="matrix(7.9703395,0,0,-7.9702599,4.339733,60.038606)"/>
<use data-text="6" xlink:href="#font_2_3" transform="matrix(7.9703395,0,0,-7.9702599,10.925932,60.038606)"/>
<use data-text="&#x2212;" xlink:href="#font_1_1" transform="matrix(7.9703395,0,0,-7.9702599,20.28121,60.038606)"/>
<use data-text="4" xlink:href="#font_2_2" transform="matrix(7.9703395,0,0,-7.9702599,26.867409,60.038606)"/>
<use data-text="&#x2212;" xlink:href="#font_1_1" transform="matrix(7.9703395,0,0,-7.9702599,36.22269,60.038606)"/>
<use data-text="2" xlink:href="#font_2_1" transform="matrix(7.9703395,0,0,-7.9702599,42.80889,60.038606)"/>
<use data-text="2" xlink:href="#font_2_1" transform="matrix(7.9703395,0,0,-7.9702599,71.39774,60.038606)"/>
<use data-text="4" xlink:href="#font_2_2" transform="matrix(7.9703395,0,0,-7.9702599,87.339229,60.038606)"/>
<use data-text="6" xlink:href="#font_2_3" transform="matrix(7.9703395,0,0,-7.9702599,103.28071,60.038606)"/>
<use data-text="&#x2212;" xlink:href="#font_1_1" transform="matrix(7.9703395,0,0,-7.9702599,43.2839,93.32127)"/>
<use data-text="6" xlink:href="#font_2_3" transform="matrix(7.9703395,0,0,-7.9702599,49.870103,93.32127)"/>
<use data-text="&#x2212;" xlink:href="#font_1_1" transform="matrix(7.9703395,0,0,-7.9702599,43.2839,79.572)"/>
<use data-text="4" xlink:href="#font_2_2" transform="matrix(7.9703395,0,0,-7.9702599,49.870103,79.572)"/>
<use data-text="&#x2212;" xlink:href="#font_1_1" transform="matrix(7.9703395,0,0,-7.9702599,43.2839,65.82272)"/>
<use data-text="2" xlink:href="#font_2_1" transform="matrix(7.9703395,0,0,-7.9702599,49.870103,65.82272)"/>
<use data-text="2" xlink:href="#font_2_1" transform="matrix(7.9703395,0,0,-7.9702599,49.870103,38.73918)"/>
<use data-text="4" xlink:href="#font_2_2" transform="matrix(7.9703395,0,0,-7.9702599,49.870103,24.989899)"/>
<use data-text="6" xlink:href="#font_2_3" transform="matrix(7.9703395,0,0,-7.9702599,49.870103,11.240623)"/>
<g clip-path="url(#clip_3)">
</g>
<path transform="matrix(1.00003,0,0,-1.00002,1.7796555,98.042369)" d="M45.82973 89.36832C45.82973 90.4688 44.93765 91.36087 43.83717 91.36087 42.73671 91.36087 41.84462 90.4688 41.84462 89.36832 41.84462 88.26785 42.73671 87.37576 43.83717 87.37576 44.93765 87.37576 45.82973 88.26785 45.82973 89.36832ZM43.83717 89.36832" fill="#9e0c0f"/>
<path transform="matrix(1.00003,0,0,-1.00002,1.7796555,98.042369)" stroke-width=".3985" stroke-linecap="butt" stroke-miterlimit="10" stroke-linejoin="miter" fill="none" stroke="#9e0c0f" d="M45.82973 89.36832C45.82973 90.4688 44.93765 91.36087 43.83717 91.36087 42.73671 91.36087 41.84462 90.4688 41.84462 89.36832 41.84462 88.26785 42.73671 87.37576 43.83717 87.37576 44.93765 87.37576 45.82973 88.26785 45.82973 89.36832ZM43.83717 89.36832"/>
<path transform="matrix(1.00003,0,0,-1.00002,1.7796555,98.042369)" d="M48.22086 85.24362C48.22086 86.3441 47.32877 87.23618 46.2283 87.23618 45.12782 87.23618 44.23575 86.3441 44.23575 85.24362 44.23575 84.14316 45.12782 83.25107 46.2283 83.25107 47.32877 83.25107 48.22086 84.14316 48.22086 85.24362ZM46.2283 85.24362" fill="#9e0c0f"/>
<path transform="matrix(1.00003,0,0,-1.00002,1.7796555,98.042369)" stroke-width=".3985" stroke-linecap="butt" stroke-miterlimit="10" stroke-linejoin="miter" fill="none" stroke="#9e0c0f" d="M48.22086 85.24362C48.22086 86.3441 47.32877 87.23618 46.2283 87.23618 45.12782 87.23618 44.23575 86.3441 44.23575 85.24362 44.23575 84.14316 45.12782 83.25107 46.2283 83.25107 47.32877 83.25107 48.22086 84.14316 48.22086 85.24362ZM46.2283 85.24362"/>
<path transform="matrix(1.00003,0,0,-1.00002,1.7796555,98.042369)" d="M49.81493 82.49384C49.81493 83.5943 48.92285 84.48639 47.82237 84.48639 46.72191 84.48639 45.82982 83.5943 45.82982 82.49384 45.82982 81.39336 46.72191 80.50128 47.82237 80.50128 48.92285 80.50128 49.81493 81.39336 49.81493 82.49384ZM47.82237 82.49384" fill="#9e0c0f"/>
<path transform="matrix(1.00003,0,0,-1.00002,1.7796555,98.042369)" stroke-width=".3985" stroke-linecap="butt" stroke-miterlimit="10" stroke-linejoin="miter" fill="none" stroke="#9e0c0f" d="M49.81493 82.49384C49.81493 83.5943 48.92285 84.48639 47.82237 84.48639 46.72191 84.48639 45.82982 83.5943 45.82982 82.49384 45.82982 81.39336 46.72191 80.50128 47.82237 80.50128 48.92285 80.50128 49.81493 81.39336 49.81493 82.49384ZM47.82237 82.49384"/>
<path transform="matrix(1.00003,0,0,-1.00002,1.7796555,98.042369)" d="M51.40901 79.74403C51.40901 80.84451 50.51692 81.73659 49.41646 81.73659 48.31598 81.73659 47.4239 80.84451 47.4239 79.74403 47.4239 78.64357 48.31598 77.75148 49.41646 77.75148 50.51692 77.75148 51.40901 78.64357 51.40901 79.74403ZM49.41646 79.74403" fill="#9e0c0f"/>
<path transform="matrix(1.00003,0,0,-1.00002,1.7796555,98.042369)" stroke-width=".3985" stroke-linecap="butt" stroke-miterlimit="10" stroke-linejoin="miter" fill="none" stroke="#9e0c0f" d="M51.40901 79.74403C51.40901 80.84451 50.51692 81.73659 49.41646 81.73659 48.31598 81.73659 47.4239 80.84451 47.4239 79.74403 47.4239 78.64357 48.31598 77.75148 49.41646 77.75148 50.51692 77.75148 51.40901 78.64357 51.40901 79.74403ZM49.41646 79.74403"/>
<path transform="matrix(1.00003,0,0,-1.00002,1.7796555,98.042369)" d="M55.39421 72.86955C55.39421 73.97002 54.50212 74.8621 53.40166 74.8621 52.30118 74.8621 51.4091 73.97002 51.4091 72.86955 51.4091 71.76907 52.30118 70.877 53.40166 70.877 54.50212 70.877 55.39421 71.76907 55.39421 72.86955ZM53.40166 72.86955" fill="#9e0c0f"/>
<path transform="matrix(1.00003,0,0,-1.00002,1.7796555,98.042369)" stroke-width=".3985" stroke-linecap="butt" stroke-miterlimit="10" stroke-linejoin="miter" fill="none" stroke="#9e0c0f" d="M55.39421 72.86955C55.39421 73.97002 54.50212 74.8621 53.40166 74.8621 52.30118 74.8621 51.4091 73.97002 51.4091 72.86955 51.4091 71.76907 52.30118 70.877 53.40166 70.877 54.50212 70.877 55.39421 71.76907 55.39421 72.86955ZM53.40166 72.86955"/>
<path transform="matrix(1.00003,0,0,-1.00002,1.7796555,98.042369)" d="M57.78532 68.74486C57.78532 69.84534 56.89325 70.73741 55.79277 70.73741 54.6923 70.73741 53.80022 69.84534 53.80022 68.74486 53.80022 67.6444 54.6923 66.7523 55.79277 66.7523 56.89325 66.7523 57.78532 67.6444 57.78532 68.74486ZM55.79277 68.74486" fill="#9e0c0f"/>
<path transform="matrix(1.00003,0,0,-1.00002,1.7796555,98.042369)" stroke-width=".3985" stroke-linecap="butt" stroke-miterlimit="10" stroke-linejoin="miter" fill="none" stroke="#9e0c0f" d="M57.78532 68.74486C57.78532 69.84534 56.89325 70.73741 55.79277 70.73741 54.6923 70.73741 53.80022 69.84534 53.80022 68.74486 53.80022 67.6444 54.6923 66.7523 55.79277 66.7523 56.89325 66.7523 57.78532 67.6444 57.78532 68.74486ZM55.79277 68.74486"/>
<path transform="matrix(1.00003,0,0,-1.00002,1.7796555,98.042369)" d="M60.97348 63.24527C60.97348 64.34573 60.0814 65.23782 58.98093 65.23782 57.88046 65.23782 56.98837 64.34573 56.98837 63.24527 56.98837 62.1448 57.88046 61.25272 58.98093 61.25272 60.0814 61.25272 60.97348 62.1448 60.97348 63.24527ZM58.98093 63.24527" fill="#9e0c0f"/>
<path transform="matrix(1.00003,0,0,-1.00002,1.7796555,98.042369)" stroke-width=".3985" stroke-linecap="butt" stroke-miterlimit="10" stroke-linejoin="miter" fill="none" stroke="#9e0c0f" d="M60.97348 63.24527C60.97348 64.34573 60.0814 65.23782 58.98093 65.23782 57.88046 65.23782 56.98837 64.34573 56.98837 63.24527 56.98837 62.1448 57.88046 61.25272 58.98093 61.25272 60.0814 61.25272 60.97348 62.1448 60.97348 63.24527ZM58.98093 63.24527"/>
<path transform="matrix(1.00003,0,0,-1.00002,1.7796555,98.042369)" d="M65.75572 54.99588C65.75572 56.09636 64.86365 56.98843 63.76317 56.98843 62.6627 56.98843 61.77061 56.09636 61.77061 54.99588 61.77061 53.89542 62.6627 53.00333 63.76317 53.00333 64.86365 53.00333 65.75572 53.89542 65.75572 54.99588ZM63.76317 54.99588" fill="#9e0c0f"/>
<path transform="matrix(1.00003,0,0,-1.00002,1.7796555,98.042369)" stroke-width=".3985" stroke-linecap="butt" stroke-miterlimit="10" stroke-linejoin="miter" fill="none" stroke="#9e0c0f" d="M65.75572 54.99588C65.75572 56.09636 64.86365 56.98843 63.76317 56.98843 62.6627 56.98843 61.77061 56.09636 61.77061 54.99588 61.77061 53.89542 62.6627 53.00333 63.76317 53.00333 64.86365 53.00333 65.75572 53.89542 65.75572 54.99588ZM63.76317 54.99588"/>
<path transform="matrix(1.00003,0,0,-1.00002,1.7796555,98.042369)" d="M66.55276 53.62099C66.55276 54.72147 65.66068 55.61354 64.56021 55.61354 63.45973 55.61354 62.56766 54.72147 62.56766 53.62099 62.56766 52.52052 63.45973 51.62843 64.56021 51.62843 65.66068 51.62843 66.55276 52.52052 66.55276 53.62099ZM64.56021 53.62099" fill="#9e0c0f"/>
<path transform="matrix(1.00003,0,0,-1.00002,1.7796555,98.042369)" stroke-width=".3985" stroke-linecap="butt" stroke-miterlimit="10" stroke-linejoin="miter" fill="none" stroke="#9e0c0f" d="M66.55276 53.62099C66.55276 54.72147 65.66068 55.61354 64.56021 55.61354 63.45973 55.61354 62.56766 54.72147 62.56766 53.62099 62.56766 52.52052 63.45973 51.62843 64.56021 51.62843 65.66068 51.62843 66.55276 52.52052 66.55276 53.62099ZM64.56021 53.62099"/>
<path transform="matrix(1.00003,0,0,-1.00002,1.7796555,98.042369)" d="M71.335 45.3716C71.335 46.47208 70.44292 47.36415 69.34245 47.36415 68.24197 47.36415 67.3499 46.47208 67.3499 45.3716 67.3499 44.27113 68.24197 43.37904 69.34245 43.37904 70.44292 43.37904 71.335 44.27113 71.335 45.3716ZM69.34245 45.3716" fill="#9e0c0f"/>
<path transform="matrix(1.00003,0,0,-1.00002,1.7796555,98.042369)" stroke-width=".3985" stroke-linecap="butt" stroke-miterlimit="10" stroke-linejoin="miter" fill="none" stroke="#9e0c0f" d="M71.335 45.3716C71.335 46.47208 70.44292 47.36415 69.34245 47.36415 68.24197 47.36415 67.3499 46.47208 67.3499 45.3716 67.3499 44.27113 68.24197 43.37904 69.34245 43.37904 70.44292 43.37904 71.335 44.27113 71.335 45.3716ZM69.34245 45.3716"/>
<path transform="matrix(1.00003,0,0,-1.00002,1.7796555,98.042369)" d="M73.72612 41.24692C73.72612 42.34738 72.83405 43.23947 71.73357 43.23947 70.6331 43.23947 69.74101 42.34738 69.74101 41.24692 69.74101 40.14644 70.6331 39.25436 71.73357 39.25436 72.83405 39.25436 73.72612 40.14644 73.72612 41.24692ZM71.73357 41.24692" fill="#9e0c0f"/>
<path transform="matrix(1.00003,0,0,-1.00002,1.7796555,98.042369)" stroke-width=".3985" stroke-linecap="butt" stroke-miterlimit="10" stroke-linejoin="miter" fill="none" stroke="#9e0c0f" d="M73.72612 41.24692C73.72612 42.34738 72.83405 43.23947 71.73357 43.23947 70.6331 43.23947 69.74101 42.34738 69.74101 41.24692 69.74101 40.14644 70.6331 39.25436 71.73357 39.25436 72.83405 39.25436 73.72612 40.14644 73.72612 41.24692ZM71.73357 41.24692"/>
<path transform="matrix(1.00003,0,0,-1.00002,1.7796555,98.042369)" d="M76.11723 37.12222C76.11723 38.22269 75.22516 39.11478 74.12468 39.11478 73.02422 39.11478 72.13213 38.22269 72.13213 37.12222 72.13213 36.02174 73.02422 35.12967 74.12468 35.12967 75.22516 35.12967 76.11723 36.02174 76.11723 37.12222ZM74.12468 37.12222" fill="#9e0c0f"/>
<path transform="matrix(1.00003,0,0,-1.00002,1.7796555,98.042369)" stroke-width=".3985" stroke-linecap="butt" stroke-miterlimit="10" stroke-linejoin="miter" fill="none" stroke="#9e0c0f" d="M76.11723 37.12222C76.11723 38.22269 75.22516 39.11478 74.12468 39.11478 73.02422 39.11478 72.13213 38.22269 72.13213 37.12222 72.13213 36.02174 73.02422 35.12967 74.12468 35.12967 75.22516 35.12967 76.11723 36.02174 76.11723 37.12222ZM74.12468 37.12222"/>
<path transform="matrix(1.00003,0,0,-1.00002,1.7796555,98.042369)" d="M78.50836 32.99753C78.50836 34.09799 77.61627 34.99008 76.51581 34.99008 75.41533 34.99008 74.52325 34.09799 74.52325 32.99753 74.52325 31.89706 75.41533 31.00497 76.51581 31.00497 77.61627 31.00497 78.50836 31.89706 78.50836 32.99753ZM76.51581 32.99753" fill="#9e0c0f"/>
<path transform="matrix(1.00003,0,0,-1.00002,1.7796555,98.042369)" stroke-width=".3985" stroke-linecap="butt" stroke-miterlimit="10" stroke-linejoin="miter" fill="none" stroke="#9e0c0f" d="M78.50836 32.99753C78.50836 34.09799 77.61627 34.99008 76.51581 34.99008 75.41533 34.99008 74.52325 34.09799 74.52325 32.99753 74.52325 31.89706 75.41533 31.00497 76.51581 31.00497 77.61627 31.00497 78.50836 31.89706 78.50836 32.99753ZM76.51581 32.99753"/>
<path transform="matrix(1.00003,0,0,-1.00002,1.7796555,98.042369)" d="M81.69652 27.49794C81.69652 28.5984 80.80444 29.4905 79.70396 29.4905 78.6035 29.4905 77.71141 28.5984 77.71141 27.49794 77.71141 26.39746 78.6035 25.50539 79.70396 25.50539 80.80444 25.50539 81.69652 26.39746 81.69652 27.49794ZM79.70396 27.49794" fill="#9e0c0f"/>
<path transform="matrix(1.00003,0,0,-1.00002,1.7796555,98.042369)" stroke-width=".3985" stroke-linecap="butt" stroke-miterlimit="10" stroke-linejoin="miter" fill="none" stroke="#9e0c0f" d="M81.69652 27.49794C81.69652 28.5984 80.80444 29.4905 79.70396 29.4905 78.6035 29.4905 77.71141 28.5984 77.71141 27.49794 77.71141 26.39746 78.6035 25.50539 79.70396 25.50539 80.80444 25.50539 81.69652 26.39746 81.69652 27.49794ZM79.70396 27.49794"/>
<path transform="matrix(1.00003,0,0,-1.00002,1.7796555,98.042369)" d="M85.68172 20.62346C85.68172 21.72392 84.78964 22.61601 83.68916 22.61601 82.5887 22.61601 81.69661 21.72392 81.69661 20.62346 81.69661 19.52298 82.5887 18.6309 83.68916 18.6309 84.78964 18.6309 85.68172 19.52298 85.68172 20.62346ZM83.68916 20.62346" fill="#9e0c0f"/>
<path transform="matrix(1.00003,0,0,-1.00002,1.7796555,98.042369)" stroke-width=".3985" stroke-linecap="butt" stroke-miterlimit="10" stroke-linejoin="miter" fill="none" stroke="#9e0c0f" d="M85.68172 20.62346C85.68172 21.72392 84.78964 22.61601 83.68916 22.61601 82.5887 22.61601 81.69661 21.72392 81.69661 20.62346 81.69661 19.52298 82.5887 18.6309 83.68916 18.6309 84.78964 18.6309 85.68172 19.52298 85.68172 20.62346ZM83.68916 20.62346"/>
<path transform="matrix(1.00003,0,0,-1.00002,1.7796555,98.042369)" d="M89.66692 13.74896C89.66692 14.84944 88.77483 15.74152 87.67436 15.74152 86.5739 15.74152 85.68181 14.84944 85.68181 13.74896 85.68181 12.6485 86.5739 11.75641 87.67436 11.75641 88.77483 11.75641 89.66692 12.6485 89.66692 13.74896ZM87.67436 13.74896" fill="#9e0c0f"/>
<path transform="matrix(1.00003,0,0,-1.00002,1.7796555,98.042369)" stroke-width=".3985" stroke-linecap="butt" stroke-miterlimit="10" stroke-linejoin="miter" fill="none" stroke="#9e0c0f" d="M89.66692 13.74896C89.66692 14.84944 88.77483 15.74152 87.67436 15.74152 86.5739 15.74152 85.68181 14.84944 85.68181 13.74896 85.68181 12.6485 86.5739 11.75641 87.67436 11.75641 88.77483 11.75641 89.66692 12.6485 89.66692 13.74896ZM87.67436 13.74896"/>
<path transform="matrix(1.00003,0,0,-1.00002,1.7796555,98.042369)" d="M92.05803 9.62427C92.05803 10.72475 91.16595 11.61682 90.06548 11.61682 88.96501 11.61682 88.07292 10.72475 88.07292 9.62427 88.07292 8.5238 88.96501 7.63171 90.06548 7.63171 91.16595 7.63171 92.05803 8.5238 92.05803 9.62427ZM90.06548 9.62427" fill="#9e0c0f"/>
<path transform="matrix(1.00003,0,0,-1.00002,1.7796555,98.042369)" stroke-width=".3985" stroke-linecap="butt" stroke-miterlimit="10" stroke-linejoin="miter" fill="none" stroke="#9e0c0f" d="M92.05803 9.62427C92.05803 10.72475 91.16595 11.61682 90.06548 11.61682 88.96501 11.61682 88.07292 10.72475 88.07292 9.62427 88.07292 8.5238 88.96501 7.63171 90.06548 7.63171 91.16595 7.63171 92.05803 8.5238 92.05803 9.62427ZM90.06548 9.62427"/>
<path transform="matrix(1.00003,0,0,-1.00002,1.7796555,98.042369)" d="M96.04323 2.74979C96.04323 3.85027 95.15115 4.74234 94.05067 4.74234 92.95021 4.74234 92.05812 3.85027 92.05812 2.74979 92.05812 1.64932 92.95021 .75723 94.05067 .75723 95.15115 .75723 96.04323 1.64932 96.04323 2.74979ZM94.05067 2.74979" fill="#9e0c0f"/>
<path transform="matrix(1.00003,0,0,-1.00002,1.7796555,98.042369)" stroke-width=".3985" stroke-linecap="butt" stroke-miterlimit="10" stroke-linejoin="miter" fill="none" stroke="#9e0c0f" d="M96.04323 2.74979C96.04323 3.85027 95.15115 4.74234 94.05067 4.74234 92.95021 4.74234 92.05812 3.85027 92.05812 2.74979 92.05812 1.64932 92.95021 .75723 94.05067 .75723 95.15115 .75723 96.04323 1.64932 96.04323 2.74979ZM94.05067 2.74979"/>
<path transform="matrix(1.00003,0,0,-1.00002,1.7796555,98.042369)" stroke-width=".3985" stroke-linecap="butt" stroke-miterlimit="10" stroke-linejoin="miter" fill="none" stroke="#9e0c0f" d=""/>
<use data-text="x" xlink:href="#font_4_1" transform="matrix(7.9703395,0,0,-7.9702599,105.74577,47.06434)"/>
<use data-text="y" xlink:href="#font_4_2" transform="matrix(7.9703395,0,0,-7.9702599,60.429418,8.085564)"/>
</svg>
