<?xml version="1.0" encoding="UTF-8"?>
<svg xmlns="http://www.w3.org/2000/svg" xmlns:xlink="http://www.w3.org/1999/xlink" width="117" height="95" viewBox="0 0 117 95">
<path fill-rule="nonzero" fill="rgb(79.998779%, 90.037537%, 91.999817%)" fill-opacity="1" d="M 15.636719 93.53125 L 15.636719 32.386719 L 26.972656 32.386719 L 26.972656 93.53125 Z M 15.636719 93.53125 "/>
<path fill-rule="nonzero" fill="rgb(94.999695%, 97.509766%, 97.999573%)" fill-opacity="1" d="M 26.972656 93.53125 L 26.972656 32.386719 L 72.332031 32.386719 L 72.332031 93.53125 Z M 26.972656 93.53125 "/>
<path fill="none" stroke-width="0.3985" stroke-linecap="butt" stroke-linejoin="miter" stroke="rgb(0%, 0%, 0%)" stroke-opacity="1" stroke-miterlimit="10" d="M 0.00173968 0.000155925 L 0.00173968 91.731779 L 56.695351 91.731779 L 56.695351 0.000155925 Z M 0.00173968 0.000155925 " transform="matrix(1.00003, 0, 0, -1.00003, 15.634979, 93.531406)"/>
<path fill="none" stroke-width="0.3985" stroke-linecap="butt" stroke-linejoin="miter" stroke="rgb(0%, 0%, 0%)" stroke-opacity="1" stroke-miterlimit="10" d="M 0.00173968 30.585176 L 56.695351 30.585176 " transform="matrix(1.00003, 0, 0, -1.00003, 15.634979, 93.531406)"/>
<path fill="none" stroke-width="0.3985" stroke-linecap="butt" stroke-linejoin="miter" stroke="rgb(0%, 0%, 0%)" stroke-opacity="1" stroke-miterlimit="10" d="M 0.00173968 61.142853 L 56.695351 61.142853 " transform="matrix(1.00003, 0, 0, -1.00003, 15.634979, 93.531406)"/>
<path fill="none" stroke-width="0.3985" stroke-linecap="butt" stroke-linejoin="miter" stroke="rgb(0%, 0%, 0%)" stroke-opacity="1" stroke-miterlimit="10" d="M 0.00173968 91.731779 L -14.173616 91.731779 L 0.00173968 70.865217 " transform="matrix(1.00003, 0, 0, -1.00003, 15.634979, 93.531406)"/>
<path fill="none" stroke-width="0.3985" stroke-linecap="butt" stroke-linejoin="miter" stroke="rgb(0%, 0%, 0%)" stroke-opacity="1" stroke-miterlimit="10" d="M 56.695351 91.731779 L 85.042157 91.731779 L 99.213607 35.038167 L 93.545808 29.366462 L 79.370452 86.060074 L 56.695351 86.060074 " transform="matrix(1.00003, 0, 0, -1.00003, 15.634979, 93.531406)"/>
<path fill="none" stroke-width="0.3985" stroke-linecap="butt" stroke-linejoin="miter" stroke="rgb(0%, 0%, 0%)" stroke-opacity="1" stroke-dasharray="2.98883 2.98883" stroke-miterlimit="10" d="M 11.337337 0.000155925 L 11.337337 91.731779 " transform="matrix(1.00003, 0, 0, -1.00003, 15.634979, 93.531406)"/>
<path fill="none" stroke-width="0.3985" stroke-linecap="butt" stroke-linejoin="miter" stroke="rgb(0%, 0%, 0%)" stroke-opacity="1" stroke-dasharray="2.98883 2.98883" stroke-miterlimit="10" d="M 22.676841 0.000155925 L 22.676841 91.731779 " transform="matrix(1.00003, 0, 0, -1.00003, 15.634979, 93.531406)"/>
<path fill="none" stroke-width="0.3985" stroke-linecap="butt" stroke-linejoin="miter" stroke="rgb(0%, 0%, 0%)" stroke-opacity="1" stroke-dasharray="2.98883 2.98883" stroke-miterlimit="10" d="M 34.016344 0.000155925 L 34.016344 91.731779 " transform="matrix(1.00003, 0, 0, -1.00003, 15.634979, 93.531406)"/>
<path fill="none" stroke-width="0.3985" stroke-linecap="butt" stroke-linejoin="miter" stroke="rgb(0%, 0%, 0%)" stroke-opacity="1" stroke-dasharray="2.98883 2.98883" stroke-miterlimit="10" d="M 45.355848 0.000155925 L 45.355848 91.731779 " transform="matrix(1.00003, 0, 0, -1.00003, 15.634979, 93.531406)"/>
</svg>
