<svg xmlns="http://www.w3.org/2000/svg" xmlns:xlink="http://www.w3.org/1999/xlink" version="1.1" width="117" height="95" viewBox="0 0 117 95">
<path transform="matrix(1.00002,0,0,-1.00003,15.634651,93.53141)" d="M0 0V61.144H11.33855V0ZM11.33855 61.144" fill="#cce6eb"/>
<path transform="matrix(1.00002,0,0,-1.00003,15.634651,93.53141)" d="M11.33855 0V61.144H56.69362V0ZM56.69362 61.144" fill="#f2f9fa"/>
<path transform="matrix(1.00002,0,0,-1.00003,15.634651,93.53141)" stroke-width=".3985" stroke-linecap="butt" stroke-miterlimit="10" stroke-linejoin="miter" fill="none" stroke="#000000" d="M0 0V91.73006H56.69362V0ZM56.69362 91.73006"/>
<path transform="matrix(1.00002,0,0,-1.00003,15.634651,93.53141)" stroke-width=".3985" stroke-linecap="butt" stroke-miterlimit="10" stroke-linejoin="miter" fill="none" stroke="#000000" d="M0 30.58604H56.69362"/>
<path transform="matrix(1.00002,0,0,-1.00003,15.634651,93.53141)" stroke-width=".3985" stroke-linecap="butt" stroke-miterlimit="10" stroke-linejoin="miter" fill="none" stroke="#000000" d="M0 61.144H56.69362"/>
<path transform="matrix(1.00002,0,0,-1.00003,15.634651,93.53141)" stroke-width=".3985" stroke-linecap="butt" stroke-miterlimit="10" stroke-linejoin="miter" fill="none" stroke="#000000" d="M0 91.73006H-14.17339L0 70.867"/>
<path transform="matrix(1.00002,0,0,-1.00003,15.634651,93.53141)" stroke-width=".3985" stroke-linecap="butt" stroke-miterlimit="10" stroke-linejoin="miter" fill="none" stroke="#000000" d="M56.69362 91.73006H85.04042L99.21382 35.03644 93.54454 29.36716 79.37114 86.06078H56.69362"/>
<path transform="matrix(1.00002,0,0,-1.00003,15.634651,93.53141)" stroke-width=".3985" stroke-linecap="butt" stroke-dasharray="2.98883,2.98883" stroke-miterlimit="10" stroke-linejoin="miter" fill="none" stroke="#000000" d="M11.33855 0V91.73006"/>
<path transform="matrix(1.00002,0,0,-1.00003,15.634651,93.53141)" stroke-width=".3985" stroke-linecap="butt" stroke-dasharray="2.98883,2.98883" stroke-miterlimit="10" stroke-linejoin="miter" fill="none" stroke="#000000" d="M22.67752 0V91.73006"/>
<path transform="matrix(1.00002,0,0,-1.00003,15.634651,93.53141)" stroke-width=".3985" stroke-linecap="butt" stroke-dasharray="2.98883,2.98883" stroke-miterlimit="10" stroke-linejoin="miter" fill="none" stroke="#000000" d="M34.01608 0V91.73006"/>
<path transform="matrix(1.00002,0,0,-1.00003,15.634651,93.53141)" stroke-width=".3985" stroke-linecap="butt" stroke-dasharray="2.98883,2.98883" stroke-miterlimit="10" stroke-linejoin="miter" fill="none" stroke="#000000" d="M45.35506 0V91.73006"/>
</svg>
