<svg xmlns="http://www.w3.org/2000/svg" xmlns:xlink="http://www.w3.org/1999/xlink" version="1.1" width="145" height="40" viewBox="0 0 145 40">
<defs>
<path id="font_1_92" d="M.44198609 .56822207C.44198609 .62420657 .4019928 .70410159 .23999024 .70410159 .12399292 .70410159 .05899048 .6371765 .05899048 .571228 .05899048 .52622988 .09498596 .521225 .10598755 .521225 .1289978 .521225 .15299988 .53723147 .15299988 .56822207 .15299988 .57922366 .14898682 .6132202 .10398865 .6152344 .125 .6501465 .1749878 .6760864 .23799134 .6760864 .35099793 .6760864 .35299684 .6132202 .35299684 .57221987 .35299684 .5192261 .33399964 .4992218 .31900025 .48420716 .22399903 .38916017 .21998596 .29611207 .21998596 .23509217V.20507813C.22099304 .19140625 .22898865 .19140625 .23599243 .19140625 .25099183 .19140625 .25099183 .19740296 .25099183 .21739197V.247406C.25099183 .34539796 .30899049 .4143982 .38198854 .46440126 .397995 .47540284 .44198609 .5054016 .44198609 .56840518V.56822207M.29100038 .054992677C.29100038 .08898926 .2639923 .11099243 .23599243 .11099243 .20298767 .11099243 .17999268 .083999637 .17999268 .055999757 .17999268 .024993897 .20498657 0 .23599243 0 .2659912 0 .29100038 .023986817 .29100038 .054992677Z"/>
<path id="font_1_101" d="M.48599244 .20263672C.48599244 .33372499 .3869934 .42578126 .27598573 .42578126 .20399475 .42578126 .16099549 .37976075 .13798523 .33073426 .13798523 .41377259 .14498902 .4868164 .18099976 .54782107 .21099854 .5978241 .2619934 .6390381 .32499696 .6390381 .34498597 .6390381 .3909912 .63601687 .4139862 .60084536 .36898805 .5988312 .36499024 .5648346 .36499024 .553833 .36499024 .5238342 .3880005 .50683596 .4119873 .50683596 .42999269 .50683596 .45899964 .51782229 .45899964 .5558319 .45899964 .615921 .4139862 .66503909 .32398988 .66503909 .18499756 .66503909 .04399109 .53282168 .04399109 .31672669 .04399109 .045532228 .16999817-.021484375 .2669983-.021484375 .31498719-.021224976 .36698915-.008224487 .4119873 .03477478 .45199586 .073776248 .48599244 .11578369 .48599244 .20277405V.20263672M.3919983 .20378113C.3919983 .152771 .3919983 .10877991 .37199403 .072784427 .34599305 .026779175 .31098939 .0087890629 .2669983 .0087890629 .21398926 .0087890629 .18099976 .045776369 .1659851 .073776248 .14299011 .118774417 .14099121 .18678284 .14099121 .22477722 .14099121 .32377626 .19499207 .3977661 .27198792 .3977661 .32199098 .3977661 .35198976 .37176515 .37098695 .33677674 .3919983 .29977418 .3919983 .254776 .3919983 .20378113Z"/>
<path id="font_2_47" d="M.5269928 0V.0309906C.45700074 .0309906 .44898988 .038009645 .44898988 .0871582V.69433596L.30499269 .6826172V.6516113C.375 .6516113 .3829956 .64463809 .3829956 .59580996V.38035584C.35398866 .41636659 .31098939 .4423828 .25698854 .4423828 .13899231 .4423828 .033996583 .3443451 .033996583 .21531677 .033996583 .088272098 .13198853-.0107421879 .24598694-.0107421879 .30999757-.0107421879 .35499574 .023254395 .37998963 .055267335V-.0107421879L.5269928 0M.37998963 .117996219C.37998963 .099990848 .37998963 .09799194 .36898805 .08099365 .33898927 .033218385 .2939911 .011245728 .25099183 .011245728 .20599365 .011245728 .16999817 .037216188 .1459961 .075164798 .11999512 .1161499 .116989139 .17320252 .116989139 .21421814 .116989139 .25125123 .11898804 .31129457 .147995 .35632325 .16899109 .38734437 .20698548 .42037965 .26098634 .42037965 .29599 .42037965 .33799745 .405365 .36898805 .3603363 .37998963 .34332276 .37998963 .34132386 .37998963 .32330323V.117996219Z"/>
<path id="font_2_66" d="M.24699402 0V.0309906C.18099976 .0309906 .1769867 .035995485 .1769867 .075042728V.4423828L.036987306 .43066407V.3996582C.101989749 .3996582 .11099243 .3936615 .11099243 .3447113V.07595825C.11099243 .0309906 .099990848 .0309906 .032989503 .0309906V0L.14299011 .0029907227C.17799378 .0029907227 .21299744 .0009918213 .24699402 0M.19198609 .603775C.19198609 .6307678 .16899109 .6567688 .13899231 .6567688 .10499573 .6567688 .084991458 .6287689 .084991458 .603775 .084991458 .57676699 .10798645 .55078127 .13798523 .55078127 .17199707 .55078127 .19198609 .5787811 .19198609 .603775Z"/>
<path id="font_2_112" d="M.5079956 .3996582V.43066407C.4850006 .4286499 .45599366 .42765809 .43299867 .42765809L.34599305 .43066407V.3996582C.3829956 .39865113 .3939972 .37568666 .3939972 .35671998 .3939972 .34773255 .3919983 .34373475 .3880005 .3327484L.28599549 .078125 .17399597 .35671998C.16799927 .3697052 .16799927 .37368775 .16799927 .37368775 .16799927 .3996582 .20698548 .3996582 .22499085 .3996582V.43066407L.115997318 .42765809C.08898926 .42765809 .04899597 .4286499 .018997193 .43066407V.3996582C.08198547 .3996582 .085998538 .3936615 .09899902 .36271668L.24299622 .008224487C.24899292-.0057525637 .25099183-.0107421879 .2639923-.0107421879 .2769928-.0107421879 .2809906-.0017700195 .2849884 .008224487L.41600038 .3327484C.4249878 .3557129 .44198609 .39865113 .5079956 .3996582Z"/>
<path id="font_2_50" d="M.4149933 .11933899C.4149933 .12934876 .40699769 .13134766 .4019928 .13134766 .3929901 .13134766 .3909912 .12535095 .3889923 .11734009 .35398866 .014251709 .2639923 .014251709 .2539978 .014251709 .20399475 .014251709 .1639862 .044281007 .14099121 .08131409 .11099243 .12934876 .11099243 .19540406 .11099243 .23144531H.3899994C.4119873 .23144531 .4149933 .23144531 .4149933 .2524414 .4149933 .35131837 .36099244 .4482422 .23599243 .4482422 .11999512 .4482422 .027999878 .34532167 .027999878 .22042847 .027999878 .08631897 .1329956-.0107421879 .24798584-.0107421879 .36999513-.0107421879 .4149933 .10032654 .4149933 .11933899M.34899903 .2524414H.11199951C.117996219 .40126039 .20199585 .426239 .23599243 .426239 .33898927 .426239 .34899903 .2913971 .34899903 .2524414Z"/>
<path id="font_2_35" d="M.5209961 .2163086C.5209961 .34335328 .4229889 .4423828 .30899049 .4423828 .23098755 .4423828 .18798828 .39537049 .17199707 .3773651V.69433596L.027999878 .68333438V.6523285C.09799194 .6523285 .10598755 .6453247 .10598755 .596344V.00024414063H.1309967L.16699219 .06227112C.18199158 .039260866 .22399903-.0107421879 .2979889-.0107421879 .4169922-.0107421879 .5209961 .08728027 .5209961 .2163086M.43798829 .21731568C.43798829 .18029785 .43598939 .120285037 .40699769 .07527161 .38598634 .044265748 .34799195 .011245728 .2939911 .011245728 .24899292 .011260986 .21299744 .03526306 .18899536 .072265628 .1749878 .09326172 .1749878 .09625244 .1749878 .11425781V.32034303C.1749878 .3393402 .1749878 .3403473 .18598938 .35635377 .22499085 .41236878 .27999879 .42037965 .3039856 .42037965 .34899903 .42037965 .3849945 .3943634 .40899659 .35635377 .43499757 .31533814 .43798829 .25831605 .43798829 .21730042V.21731568Z"/>
<path id="font_2_118" d="M.5079956 .3996582V.43066407C.4850006 .4286499 .45599366 .42765809 .43299867 .42765809L.34599305 .43066407V.3996582C.3769989 .39866639 .3929901 .3816681 .3929901 .35668946 .3929901 .34669496 .3919983 .34469605 .3869934 .33270265L.28599549 .08685303 .1749878 .35568238C.17098999 .36567689 .16899109 .36967469 .16899109 .3736725 .16899109 .3996582 .20599365 .3996582 .22499085 .3996582V.43066407L.115997318 .42765809C.08898926 .42765809 .04899597 .4286499 .018997193 .43066407V.3996582C.066986087 .3996582 .085998538 .3996582 .099990848 .36468507L.25-.000091552738 .22499085-.059066774C.20298767-.11407471 .1749878-.18309021 .11099243-.18309021 .10598755-.18309021 .08299255-.18309021 .06399536-.16503906 .09498596-.16104126 .102996829-.13905335 .102996829-.123046878 .102996829-.0970459 .083999637-.08103943 .06098938-.08103943 .040985109-.08103943 .018997193-.09403992 .018997193-.124053958 .018997193-.16905213 .06098938-.20507813 .11099243-.20507813 .17399597-.20507813 .21499634-.14804077 .23899842-.091049198L.4149933 .33569337C.44099427 .39865113 .49198915 .3996582 .5079956 .3996582Z"/>
<path id="font_3_1" d="M.1269989 .07699585 .23298645 .18003845C.3889923 .31811524 .44898988 .3721466 .44898988 .47216798 .44898988 .5860901 .35899354 .6660156 .23699951 .6660156 .12399292 .6660156 .049987794 .57411196 .049987794 .48516847 .049987794 .4291687 .099990848 .4291687 .102996829 .4291687 .11999512 .4291687 .15499878 .44117738 .15499878 .48217774 .15499878 .5081787 .13699341 .5341797 .101989749 .5341797 .09399414 .5341797 .09199524 .5341797 .08898926 .5331726 .11199951 .59806826 .1659851 .63500979 .22399903 .63500979 .31498719 .63500979 .35798646 .5541382 .35798646 .47216798 .35798646 .39215089 .30799867 .31311036 .25299073 .25108338L.06098938 .036987306C.049987794 .025985718 .049987794 .023986817 .049987794 0H.42099L.44898988 .17404175H.42399598C.4189911 .14402771 .4119873 .1000061 .4019928 .084991458 .394989 .07699585 .32899476 .07699585 .30699159 .07699585H.1269989Z"/>
<path id="font_1_121" d="M.4889984 .31877137C.4889984 .42585755 .47799684 .49090577 .44499208 .55496218 .40098573 .6430359 .31999208 .66503909 .2649994 .66503909 .13899231 .66503909 .09298706 .5709839 .07899475 .5429535 .042999269 .4698944 .040985109 .3708191 .040985109 .31877137 .040985109 .25271607 .04399109 .15162659 .09199524 .07156372 .13798523-.0024871827 .21199036-.021484375 .2649994-.021484375 .31298829-.021484375 .39898683-.0064849855 .44898988 .09257507 .48599244 .16464234 .4889984 .2537079 .4889984 .31877137M.3999939 .33078004C.3999939 .27172853 .3999939 .18165589 .3880005 .12561035 .36698915 .020523072 .2979889 .006515503 .2649994 .006515503 .23098755 .006515503 .1619873 .022521973 .14099121 .12760926 .12998963 .18466187 .12998963 .2787323 .12998963 .33078004 .12998963 .3998413 .12998963 .4698944 .14099121 .5249481 .1619873 .6270294 .23999024 .6370239 .2649994 .6370239 .29899598 .6370239 .36799623 .62002566 .3880005 .5289459 .3999939 .4738922 .3999939 .39883424 .3999939 .33078004Z"/>
</defs>
<path transform="matrix(1.00009,0,0,-1.00008,13.274725,55.559366)" stroke-width=".79701" stroke-linecap="butt" stroke-miterlimit="10" stroke-linejoin="miter" fill="none" stroke="#929292" d="M52.49547 26.22124V30.47299M91.86707 26.22124V30.47299"/>
<path transform="matrix(1.00009,0,0,-1.00008,13.274725,55.559366)" stroke-width=".3985" stroke-linecap="butt" stroke-miterlimit="10" stroke-linejoin="miter" fill="none" stroke="#000000" d="M-11.8122 28.34712H127.93448"/>
<path transform="matrix(1.00009,0,0,-1.00008,141.22072,27.209977)" d="M1.99252 0-1.19551 1.59401 0 0-1.19551-1.59401"/>
<use data-text="?" xlink:href="#font_1_92" transform="matrix(7.970817,0,0,-7.9707376,63.774267,38.467996)"/>
<use data-text="6" xlink:href="#font_1_101" transform="matrix(7.970817,0,0,-7.9707376,103.0338,38.156976)"/>
<path transform="matrix(1.00009,0,0,-1.00008,13.274725,55.559366)" stroke-width=".3985" stroke-linecap="butt" stroke-miterlimit="10" stroke-linejoin="miter" fill="none" stroke="#000000" d="M56.35396 37.87503C63.35219 44.87328 81.01035 44.87328 91.86707 34.01654"/>
<path transform="matrix(-.70716366,.70715656,.70716366,.70715656,69.833019,17.482022)" d="M5.10841 0 1.48842 1.20667 .28177 0 1.48842-1.20667Z"/>
<path transform="matrix(-.70716366,.70715656,.70716366,.70715656,69.833019,17.482022)" stroke-width=".3985" stroke-linecap="butt" stroke-miterlimit="10" stroke-linejoin="miter" fill="none" stroke="#000000" d="M5.10841 0 1.48842 1.20667 .28177 0 1.48842-1.20667Z"/>
<use data-text="d" xlink:href="#font_2_47" transform="matrix(9.963496,0,0,-9.963397,61.241044,7.834549)"/>
<use data-text="i" xlink:href="#font_2_66" transform="matrix(9.963496,0,0,-9.963397,66.780757,7.834549)"/>
<use data-text="v" xlink:href="#font_2_112" transform="matrix(9.963496,0,0,-9.963397,69.550609,7.834549)"/>
<use data-text="i" xlink:href="#font_2_66" transform="matrix(9.963496,0,0,-9.963397,74.81133,7.834549)"/>
<use data-text="d" xlink:href="#font_2_47" transform="matrix(9.963496,0,0,-9.963397,77.581188,7.834549)"/>
<use data-text="e" xlink:href="#font_2_50" transform="matrix(9.963496,0,0,-9.963397,83.12089,7.834549)"/>
<use data-text="b" xlink:href="#font_2_35" transform="matrix(9.963496,0,0,-9.963397,90.862529,7.834549)"/>
<use data-text="y" xlink:href="#font_2_118" transform="matrix(9.963496,0,0,-9.963397,96.13322,7.834549)"/>
<use data-text="2" xlink:href="#font_3_1" transform="matrix(9.963496,0,0,-9.963397,104.70196,7.834549)"/>
<path transform="matrix(1.00009,0,0,-1.00008,13.274725,55.559366)" d="M54.48802 28.34712C54.48802 29.44759 53.59593 30.33968 52.49547 30.33968 51.39499 30.33968 50.50291 29.44759 50.50291 28.34712 50.50291 27.24664 51.39499 26.35457 52.49547 26.35457 53.59593 26.35457 54.48802 27.24664 54.48802 28.34712ZM52.49547 28.34712"/>
<path transform="matrix(1.00009,0,0,-1.00008,13.274725,55.559366)" stroke-width=".3985" stroke-linecap="butt" stroke-miterlimit="10" stroke-linejoin="miter" fill="none" stroke="#000000" d="M54.48802 28.34712C54.48802 29.44759 53.59593 30.33968 52.49547 30.33968 51.39499 30.33968 50.50291 29.44759 50.50291 28.34712 50.50291 27.24664 51.39499 26.35457 52.49547 26.35457 53.59593 26.35457 54.48802 27.24664 54.48802 28.34712ZM52.49547 28.34712"/>
<path transform="matrix(1.00009,0,0,-1.00008,13.274725,55.559366)" d="M93.85962 28.34712C93.85962 29.44759 92.96754 30.33968 91.86707 30.33968 90.7666 30.33968 89.87451 29.44759 89.87451 28.34712 89.87451 27.24664 90.7666 26.35457 91.86707 26.35457 92.96754 26.35457 93.85962 27.24664 93.85962 28.34712ZM91.86707 28.34712"/>
<path transform="matrix(1.00009,0,0,-1.00008,13.274725,55.559366)" stroke-width=".3985" stroke-linecap="butt" stroke-miterlimit="10" stroke-linejoin="miter" fill="none" stroke="#000000" d="M93.85962 28.34712C93.85962 29.44759 92.96754 30.33968 91.86707 30.33968 90.7666 30.33968 89.87451 29.44759 89.87451 28.34712 89.87451 27.24664 90.7666 26.35457 91.86707 26.35457 92.96754 26.35457 93.85962 27.24664 93.85962 28.34712ZM91.86707 28.34712"/>
<path transform="matrix(1.00009,0,0,-1.00008,13.274725,55.559366)" stroke-width=".3985" stroke-linecap="butt" stroke-miterlimit="10" stroke-linejoin="miter" fill="none" stroke="#000000" d=""/>
<use data-text="0" xlink:href="#font_1_121" transform="matrix(7.970817,0,0,-7.9707376,24.283717,38.156976)"/>
</svg>
