<svg xmlns="http://www.w3.org/2000/svg" xmlns:xlink="http://www.w3.org/1999/xlink" version="1.1" width="145" height="35" viewBox="0 0 145 35">
<defs>
<path id="font_1_92" d="M.44198609 .56822207C.44198609 .62420657 .4019928 .70410159 .23999024 .70410159 .12399292 .70410159 .05899048 .6371765 .05899048 .571228 .05899048 .52622988 .09498596 .521225 .10598755 .521225 .1289978 .521225 .15299988 .53723147 .15299988 .56822207 .15299988 .57922366 .14898682 .6132202 .10398865 .6152344 .125 .6501465 .1749878 .6760864 .23799134 .6760864 .35099793 .6760864 .35299684 .6132202 .35299684 .57221987 .35299684 .5192261 .33399964 .4992218 .31900025 .48420716 .22399903 .38916017 .21998596 .29611207 .21998596 .23509217V.20507813C.22099304 .19140625 .22898865 .19140625 .23599243 .19140625 .25099183 .19140625 .25099183 .19740296 .25099183 .21739197V.247406C.25099183 .34539796 .30899049 .4143982 .38198854 .46440126 .397995 .47540284 .44198609 .5054016 .44198609 .56840518V.56822207M.29100038 .054992677C.29100038 .08898926 .2639923 .11099243 .23599243 .11099243 .20298767 .11099243 .17999268 .083999637 .17999268 .055999757 .17999268 .024993897 .20498657 0 .23599243 0 .2659912 0 .29100038 .023986817 .29100038 .054992677Z"/>
<path id="font_1_101" d="M.48599244 .20263672C.48599244 .33372499 .3869934 .42578126 .27598573 .42578126 .20399475 .42578126 .16099549 .37976075 .13798523 .33073426 .13798523 .41377259 .14498902 .4868164 .18099976 .54782107 .21099854 .5978241 .2619934 .6390381 .32499696 .6390381 .34498597 .6390381 .3909912 .63601687 .4139862 .60084536 .36898805 .5988312 .36499024 .5648346 .36499024 .553833 .36499024 .5238342 .3880005 .50683596 .4119873 .50683596 .42999269 .50683596 .45899964 .51782229 .45899964 .5558319 .45899964 .615921 .4139862 .66503909 .32398988 .66503909 .18499756 .66503909 .04399109 .53282168 .04399109 .31672669 .04399109 .045532228 .16999817-.021484375 .2669983-.021484375 .31498719-.021224976 .36698915-.008224487 .4119873 .03477478 .45199586 .073776248 .48599244 .11578369 .48599244 .20277405V.20263672M.3919983 .20378113C.3919983 .152771 .3919983 .10877991 .37199403 .072784427 .34599305 .026779175 .31098939 .0087890629 .2669983 .0087890629 .21398926 .0087890629 .18099976 .045776369 .1659851 .073776248 .14299011 .118774417 .14099121 .18678284 .14099121 .22477722 .14099121 .32377626 .19499207 .3977661 .27198792 .3977661 .32199098 .3977661 .35198976 .37176515 .37098695 .33677674 .3919983 .29977418 .3919983 .254776 .3919983 .20378113Z"/>
<path id="font_2_28" d="M.48298646 .08912659V.14511109H.45799256V.08912659C.45799256 .03112793 .43299867 .025131226 .42199708 .025131226 .3889923 .025131226 .3849945 .070129398 .3849945 .07511902V.27508546C.3849945 .31707765 .3849945 .3560791 .34899903 .39312745 .30999757 .43223573 .2599945 .4482422 .21199036 .4482422 .12998963 .4482422 .06098938 .40115357 .06098938 .335083 .06098938 .30508424 .08099365 .28808595 .10699463 .28808595 .1349945 .28808595 .15299988 .30807496 .15299988 .33407594 .15299988 .3460846 .147995 .37908937 .101989749 .38008119 .1289978 .41519166 .17799378 .426239 .20999146 .426239 .25898744 .426239 .31599427 .38710023 .31599427 .29808045V.26107789C.2649994 .25808717 .19499207 .25508119 .13198853 .22509766 .056991579 .19110108 .03199768 .13911438 .03199768 .09512329 .03199768 .014251709 .1289978-.0107421879 .19198609-.0107421879 .2579956-.0107421879 .3039856 .029251099 .32299806 .07624817 .32699586 .036132814 .35398866-.005859375 .40098573-.005859375 .42199708-.005859375 .48298646 .008132935 .48298646 .08912659M.31599427 .14013672C.31599427 .04525757 .24398804 .011245728 .19898987 .011245728 .1499939 .011245728 .10899353 .04624939 .10899353 .09625244 .10899353 .15124512 .15098572 .23425293 .31599427 .24024964V.14013672Z"/>
<path id="font_2_47" d="M.5269928 0V.0309906C.45700074 .0309906 .44898988 .038009645 .44898988 .0871582V.69433596L.30499269 .6826172V.6516113C.375 .6516113 .3829956 .64463809 .3829956 .59580996V.38035584C.35398866 .41636659 .31098939 .4423828 .25698854 .4423828 .13899231 .4423828 .033996583 .3443451 .033996583 .21531677 .033996583 .088272098 .13198853-.0107421879 .24598694-.0107421879 .30999757-.0107421879 .35499574 .023254395 .37998963 .055267335V-.0107421879L.5269928 0M.37998963 .117996219C.37998963 .099990848 .37998963 .09799194 .36898805 .08099365 .33898927 .033218385 .2939911 .011245728 .25099183 .011245728 .20599365 .011245728 .16999817 .037216188 .1459961 .075164798 .11999512 .1161499 .116989139 .17320252 .116989139 .21421814 .116989139 .25125123 .11898804 .31129457 .147995 .35632325 .16899109 .38734437 .20698548 .42037965 .26098634 .42037965 .29599 .42037965 .33799745 .405365 .36898805 .3603363 .37998963 .34332276 .37998963 .34132386 .37998963 .32330323V.117996219Z"/>
<path id="font_3_1" d="M.1269989 .07699585 .23298645 .18003845C.3889923 .31811524 .44898988 .3721466 .44898988 .47216798 .44898988 .5860901 .35899354 .6660156 .23699951 .6660156 .12399292 .6660156 .049987794 .57411196 .049987794 .48516847 .049987794 .4291687 .099990848 .4291687 .102996829 .4291687 .11999512 .4291687 .15499878 .44117738 .15499878 .48217774 .15499878 .5081787 .13699341 .5341797 .101989749 .5341797 .09399414 .5341797 .09199524 .5341797 .08898926 .5331726 .11199951 .59806826 .1659851 .63500979 .22399903 .63500979 .31498719 .63500979 .35798646 .5541382 .35798646 .47216798 .35798646 .39215089 .30799867 .31311036 .25299073 .25108338L.06098938 .036987306C.049987794 .025985718 .049987794 .023986817 .049987794 0H.42099L.44898988 .17404175H.42399598C.4189911 .14402771 .4119873 .1000061 .4019928 .084991458 .394989 .07699585 .32899476 .07699585 .30699159 .07699585H.1269989Z"/>
<path id="font_1_121" d="M.4889984 .31877137C.4889984 .42585755 .47799684 .49090577 .44499208 .55496218 .40098573 .6430359 .31999208 .66503909 .2649994 .66503909 .13899231 .66503909 .09298706 .5709839 .07899475 .5429535 .042999269 .4698944 .040985109 .3708191 .040985109 .31877137 .040985109 .25271607 .04399109 .15162659 .09199524 .07156372 .13798523-.0024871827 .21199036-.021484375 .2649994-.021484375 .31298829-.021484375 .39898683-.0064849855 .44898988 .09257507 .48599244 .16464234 .4889984 .2537079 .4889984 .31877137M.3999939 .33078004C.3999939 .27172853 .3999939 .18165589 .3880005 .12561035 .36698915 .020523072 .2979889 .006515503 .2649994 .006515503 .23098755 .006515503 .1619873 .022521973 .14099121 .12760926 .12998963 .18466187 .12998963 .2787323 .12998963 .33078004 .12998963 .3998413 .12998963 .4698944 .14099121 .5249481 .1619873 .6270294 .23999024 .6370239 .2649994 .6370239 .29899598 .6370239 .36799623 .62002566 .3880005 .5289459 .3999939 .4738922 .3999939 .39883424 .3999939 .33078004Z"/>
</defs>
<path transform="matrix(1.00009,0,0,-1.00008,13.274725,50.911996)" stroke-width=".79701" stroke-linecap="butt" stroke-miterlimit="10" stroke-linejoin="miter" fill="none" stroke="#929292" d="M65.61934 26.22124V30.47299M91.86707 26.22124V30.47299"/>
<path transform="matrix(1.00009,0,0,-1.00008,13.274725,50.911996)" stroke-width=".3985" stroke-linecap="butt" stroke-miterlimit="10" stroke-linejoin="miter" fill="none" stroke="#000000" d="M-11.8122 28.34712H127.93448"/>
<path transform="matrix(1.00009,0,0,-1.00008,141.22072,22.562607)" d="M1.99252 0-1.19551 1.59401 0 0-1.19551-1.59401"/>
<use data-text="?" xlink:href="#font_1_92" transform="matrix(7.970817,0,0,-7.9707376,76.899448,33.820627)"/>
<use data-text="6" xlink:href="#font_1_101" transform="matrix(7.970817,0,0,-7.9707376,103.0338,33.509607)"/>
<path transform="matrix(1.00009,0,0,-1.00008,13.274725,50.911996)" stroke-width=".3985" stroke-linecap="butt" stroke-miterlimit="10" stroke-linejoin="miter" fill="none" stroke="#000000" d="M65.61934 34.01654C72.85713 41.25435 84.62927 41.25435 88.00858 37.87503"/>
<path transform="matrix(.70716366,.70715656,.70716366,-.70715656,101.091968,12.834652)" d="M5.10841 0 1.48842 1.20667 .28177 0 1.48842-1.20667Z"/>
<path transform="matrix(.70716366,.70715656,.70716366,-.70715656,101.091968,12.834652)" stroke-width=".3985" stroke-linecap="butt" stroke-miterlimit="10" stroke-linejoin="miter" fill="none" stroke="#000000" d="M5.10841 0 1.48842 1.20667 .28177 0 1.48842-1.20667Z"/>
<use data-text="a" xlink:href="#font_2_28" transform="matrix(9.963496,0,0,-9.963397,79.84471,7.834549)"/>
<use data-text="d" xlink:href="#font_2_47" transform="matrix(9.963496,0,0,-9.963397,84.82646,7.834549)"/>
<use data-text="d" xlink:href="#font_2_47" transform="matrix(9.963496,0,0,-9.963397,90.366168,7.834549)"/>
<use data-text="2" xlink:href="#font_3_1" transform="matrix(9.963496,0,0,-9.963397,99.22346,7.834549)"/>
<path transform="matrix(1.00009,0,0,-1.00008,13.274725,50.911996)" d="M67.6119 28.34712C67.6119 29.44759 66.7198 30.33968 65.61934 30.33968 64.51886 30.33968 63.62679 29.44759 63.62679 28.34712 63.62679 27.24664 64.51886 26.35457 65.61934 26.35457 66.7198 26.35457 67.6119 27.24664 67.6119 28.34712ZM65.61934 28.34712"/>
<path transform="matrix(1.00009,0,0,-1.00008,13.274725,50.911996)" stroke-width=".3985" stroke-linecap="butt" stroke-miterlimit="10" stroke-linejoin="miter" fill="none" stroke="#000000" d="M67.6119 28.34712C67.6119 29.44759 66.7198 30.33968 65.61934 30.33968 64.51886 30.33968 63.62679 29.44759 63.62679 28.34712 63.62679 27.24664 64.51886 26.35457 65.61934 26.35457 66.7198 26.35457 67.6119 27.24664 67.6119 28.34712ZM65.61934 28.34712"/>
<path transform="matrix(1.00009,0,0,-1.00008,13.274725,50.911996)" d="M93.85962 28.34712C93.85962 29.44759 92.96754 30.33968 91.86707 30.33968 90.7666 30.33968 89.87451 29.44759 89.87451 28.34712 89.87451 27.24664 90.7666 26.35457 91.86707 26.35457 92.96754 26.35457 93.85962 27.24664 93.85962 28.34712ZM91.86707 28.34712"/>
<path transform="matrix(1.00009,0,0,-1.00008,13.274725,50.911996)" stroke-width=".3985" stroke-linecap="butt" stroke-miterlimit="10" stroke-linejoin="miter" fill="none" stroke="#000000" d="M93.85962 28.34712C93.85962 29.44759 92.96754 30.33968 91.86707 30.33968 90.7666 30.33968 89.87451 29.44759 89.87451 28.34712 89.87451 27.24664 90.7666 26.35457 91.86707 26.35457 92.96754 26.35457 93.85962 27.24664 93.85962 28.34712ZM91.86707 28.34712"/>
<path transform="matrix(1.00009,0,0,-1.00008,13.274725,50.911996)" stroke-width=".3985" stroke-linecap="butt" stroke-miterlimit="10" stroke-linejoin="miter" fill="none" stroke="#000000" d=""/>
<use data-text="0" xlink:href="#font_1_121" transform="matrix(7.970817,0,0,-7.9707376,24.283717,33.509607)"/>
</svg>
