<svg xmlns="http://www.w3.org/2000/svg" xmlns:xlink="http://www.w3.org/1999/xlink" version="1.1" width="145" height="40" viewBox="0 0 145 40">
<defs>
<path id="font_1_92" d="M.44198609 .56822207C.44198609 .62420657 .4019928 .70410159 .23999024 .70410159 .12399292 .70410159 .05899048 .6371765 .05899048 .571228 .05899048 .52622988 .09498596 .521225 .10598755 .521225 .1289978 .521225 .15299988 .53723147 .15299988 .56822207 .15299988 .57922366 .14898682 .6132202 .10398865 .6152344 .125 .6501465 .1749878 .6760864 .23799134 .6760864 .35099793 .6760864 .35299684 .6132202 .35299684 .57221987 .35299684 .5192261 .33399964 .4992218 .31900025 .48420716 .22399903 .38916017 .21998596 .29611207 .21998596 .23509217V.20507813C.22099304 .19140625 .22898865 .19140625 .23599243 .19140625 .25099183 .19140625 .25099183 .19740296 .25099183 .21739197V.247406C.25099183 .34539796 .30899049 .4143982 .38198854 .46440126 .397995 .47540284 .44198609 .5054016 .44198609 .56840518V.56822207M.29100038 .054992677C.29100038 .08898926 .2639923 .11099243 .23599243 .11099243 .20298767 .11099243 .17999268 .083999637 .17999268 .055999757 .17999268 .024993897 .20498657 0 .23599243 0 .2659912 0 .29100038 .023986817 .29100038 .054992677Z"/>
<path id="font_1_101" d="M.48599244 .20263672C.48599244 .33372499 .3869934 .42578126 .27598573 .42578126 .20399475 .42578126 .16099549 .37976075 .13798523 .33073426 .13798523 .41377259 .14498902 .4868164 .18099976 .54782107 .21099854 .5978241 .2619934 .6390381 .32499696 .6390381 .34498597 .6390381 .3909912 .63601687 .4139862 .60084536 .36898805 .5988312 .36499024 .5648346 .36499024 .553833 .36499024 .5238342 .3880005 .50683596 .4119873 .50683596 .42999269 .50683596 .45899964 .51782229 .45899964 .5558319 .45899964 .615921 .4139862 .66503909 .32398988 .66503909 .18499756 .66503909 .04399109 .53282168 .04399109 .31672669 .04399109 .045532228 .16999817-.021484375 .2669983-.021484375 .31498719-.021224976 .36698915-.008224487 .4119873 .03477478 .45199586 .073776248 .48599244 .11578369 .48599244 .20277405V.20263672M.3919983 .20378113C.3919983 .152771 .3919983 .10877991 .37199403 .072784427 .34599305 .026779175 .31098939 .0087890629 .2669983 .0087890629 .21398926 .0087890629 .18099976 .045776369 .1659851 .073776248 .14299011 .118774417 .14099121 .18678284 .14099121 .22477722 .14099121 .32377626 .19499207 .3977661 .27198792 .3977661 .32199098 .3977661 .35198976 .37176515 .37098695 .33677674 .3919983 .29977418 .3919983 .254776 .3919983 .20378113Z"/>
<path id="font_2_75" d="M.8129883 0V.0309906C.7609863 .0309906 .73599246 .0309906 .7350006 .061019899V.25221253C.7350006 .3383026 .7350006 .36932374 .70399478 .405365 .6899872 .42237855 .6569977 .4423828 .598999 .4423828 .5149994 .4423828 .47099305 .38233949 .45399476 .34429933 .43998719 .43138124 .3659973 .4423828 .32099916 .4423828 .24798584 .4423828 .20098877 .39935304 .17298889 .33729554V.4423828L.03199768 .43066407V.3996582C.101989749 .3996582 .10998535 .39266969 .10998535 .34370423V.07595825C.10998535 .0309906 .09899902 .0309906 .03199768 .0309906V0L.14498902 .0029907227 .25698854 0V.0309906C.18998719 .0309906 .1789856 .0309906 .1789856 .07595825V.25978089C.1789856 .36431886 .25 .42037965 .31399537 .42037965 .3769989 .42037965 .3880005 .36631776 .3880005 .30926515V.076034549C.3880005 .0309906 .3769989 .0309906 .30999757 .0309906V0L.4229889 .0029907227 .5349884 0V.0309906C.46798707 .0309906 .45700074 .0309906 .45700074 .076034549V.2602234C.45700074 .36431886 .5279999 .42037965 .59199526 .42037965 .6549988 .42037965 .66600039 .36631776 .66600039 .30926515V.076034549C.66600039 .0309906 .6549988 .0309906 .58799746 .0309906V0L.70098879 .0029907227 .8129883 0Z"/>
<path id="font_2_109" d="M.5349884 0V.0309906C.46499635 .0309906 .45700074 .037994386 .45700074 .08705139V.4423828L.30999757 .43066407V.3996582C.37998963 .3996582 .3880005 .39266969 .3880005 .34373475V.16601563C.3880005 .07910156 .33999635 .011245728 .2669983 .011245728 .18299866 .011245728 .1789856 .058135988 .1789856 .11009216V.4423828L.03199768 .43066407V.3996582C.10998535 .3996582 .10998535 .39666749 .10998535 .3078003V.15802002C.10998535 .080093387 .10998535-.0107421879 .2619934-.0107421879 .31799317-.0107421879 .3619995 .017242432 .3909912 .07910156V-.0107421879L.5349884 0Z"/>
<path id="font_2_72" d="M.25498963 0V.0309906C.18798828 .0309906 .1769867 .0309906 .1769867 .07601929V.69433596L.032989503 .6826172V.6516113C.102996829 .6516113 .11099243 .64460757 .11099243 .5956421V.07595825C.11099243 .0309906 .099990848 .0309906 .032989503 .0309906V0L.14399719 .0029907227 .25498963 0Z"/>
<path id="font_2_105" d="M.33198548 .12385559V.18066406H.30699159V.12585449C.30699159 .052108766 .2769928 .014251709 .23999024 .014251709 .17298889 .014251709 .17298889 .10491943 .17298889 .12187195V.3996582H.31599427V.43066407H.17298889V.6142578H.147995C.14698792 .5324249 .116989139 .42565919 .018997193 .42166139V.3996582H.10398865V.12408447C.10398865 .0012512207 .19699097-.0107421879 .23298645-.0107421879 .3039856-.0107421879 .33198548 .060180665 .33198548 .12408447V.12385559Z"/>
<path id="font_2_66" d="M.24699402 0V.0309906C.18099976 .0309906 .1769867 .035995485 .1769867 .075042728V.4423828L.036987306 .43066407V.3996582C.101989749 .3996582 .11099243 .3936615 .11099243 .3447113V.07595825C.11099243 .0309906 .099990848 .0309906 .032989503 .0309906V0L.14299011 .0029907227C.17799378 .0029907227 .21299744 .0009918213 .24699402 0M.19198609 .603775C.19198609 .6307678 .16899109 .6567688 .13899231 .6567688 .10499573 .6567688 .084991458 .6287689 .084991458 .603775 .084991458 .57676699 .10798645 .55078127 .13798523 .55078127 .17199707 .55078127 .19198609 .5787811 .19198609 .603775Z"/>
<path id="font_2_84" d="M.5209961 .21636963C.5209961 .34336854 .42399598 .4423828 .31199647 .4423828 .23399353 .4423828 .19198609 .39837647 .17199707 .3763733V.4423828L.027999878 .43066407V.3996582C.09899902 .3996582 .10598755 .3936615 .10598755 .34973146V-.117996219C.10598755-.16308594 .09498596-.16308594 .027999878-.16308594V-.1940918L.13999939-.19110108 .25299073-.1940918V-.16308594C.18598938-.16308594 .1749878-.16308594 .1749878-.117996219V.050186159 .059173585C.17999268 .04319763 .22200012-.0107421879 .2979889-.0107421879 .4169922-.0107421879 .5209961 .087127689 .5209961 .21594239V.21636963M.43798829 .21594239C.43798829 .09512329 .36799623 .011245728 .2939911 .011245728 .2539978 .011245728 .21598816 .031219483 .18899536 .07215881 .1749878 .09312439 .1749878 .09411621 .1749878 .114089969V.33674623C.20399475 .38838197 .25299073 .41737367 .3039856 .41737367 .3769989 .41737367 .43798829 .32937623 .43798829 .21636963V.21594239Z"/>
<path id="font_2_118" d="M.5079956 .3996582V.43066407C.4850006 .4286499 .45599366 .42765809 .43299867 .42765809L.34599305 .43066407V.3996582C.3769989 .39866639 .3929901 .3816681 .3929901 .35668946 .3929901 .34669496 .3919983 .34469605 .3869934 .33270265L.28599549 .08685303 .1749878 .35568238C.17098999 .36567689 .16899109 .36967469 .16899109 .3736725 .16899109 .3996582 .20599365 .3996582 .22499085 .3996582V.43066407L.115997318 .42765809C.08898926 .42765809 .04899597 .4286499 .018997193 .43066407V.3996582C.066986087 .3996582 .085998538 .3996582 .099990848 .36468507L.25-.000091552738 .22499085-.059066774C.20298767-.11407471 .1749878-.18309021 .11099243-.18309021 .10598755-.18309021 .08299255-.18309021 .06399536-.16503906 .09498596-.16104126 .102996829-.13905335 .102996829-.123046878 .102996829-.0970459 .083999637-.08103943 .06098938-.08103943 .040985109-.08103943 .018997193-.09403992 .018997193-.124053958 .018997193-.16905213 .06098938-.20507813 .11099243-.20507813 .17399597-.20507813 .21499634-.14804077 .23899842-.091049198L.4149933 .33569337C.44099427 .39865113 .49198915 .3996582 .5079956 .3996582Z"/>
<path id="font_2_35" d="M.5209961 .2163086C.5209961 .34335328 .4229889 .4423828 .30899049 .4423828 .23098755 .4423828 .18798828 .39537049 .17199707 .3773651V.69433596L.027999878 .68333438V.6523285C.09799194 .6523285 .10598755 .6453247 .10598755 .596344V.00024414063H.1309967L.16699219 .06227112C.18199158 .039260866 .22399903-.0107421879 .2979889-.0107421879 .4169922-.0107421879 .5209961 .08728027 .5209961 .2163086M.43798829 .21731568C.43798829 .18029785 .43598939 .120285037 .40699769 .07527161 .38598634 .044265748 .34799195 .011245728 .2939911 .011245728 .24899292 .011260986 .21299744 .03526306 .18899536 .072265628 .1749878 .09326172 .1749878 .09625244 .1749878 .11425781V.32034303C.1749878 .3393402 .1749878 .3403473 .18598938 .35635377 .22499085 .41236878 .27999879 .42037965 .3039856 .42037965 .34899903 .42037965 .3849945 .3943634 .40899659 .35635377 .43499757 .31533814 .43798829 .25831605 .43798829 .21730042V.21731568Z"/>
<path id="font_3_1" d="M.1269989 .07699585 .23298645 .18003845C.3889923 .31811524 .44898988 .3721466 .44898988 .47216798 .44898988 .5860901 .35899354 .6660156 .23699951 .6660156 .12399292 .6660156 .049987794 .57411196 .049987794 .48516847 .049987794 .4291687 .099990848 .4291687 .102996829 .4291687 .11999512 .4291687 .15499878 .44117738 .15499878 .48217774 .15499878 .5081787 .13699341 .5341797 .101989749 .5341797 .09399414 .5341797 .09199524 .5341797 .08898926 .5331726 .11199951 .59806826 .1659851 .63500979 .22399903 .63500979 .31498719 .63500979 .35798646 .5541382 .35798646 .47216798 .35798646 .39215089 .30799867 .31311036 .25299073 .25108338L.06098938 .036987306C.049987794 .025985718 .049987794 .023986817 .049987794 0H.42099L.44898988 .17404175H.42399598C.4189911 .14402771 .4119873 .1000061 .4019928 .084991458 .394989 .07699585 .32899476 .07699585 .30699159 .07699585H.1269989Z"/>
<path id="font_1_121" d="M.4889984 .31877137C.4889984 .42585755 .47799684 .49090577 .44499208 .55496218 .40098573 .6430359 .31999208 .66503909 .2649994 .66503909 .13899231 .66503909 .09298706 .5709839 .07899475 .5429535 .042999269 .4698944 .040985109 .3708191 .040985109 .31877137 .040985109 .25271607 .04399109 .15162659 .09199524 .07156372 .13798523-.0024871827 .21199036-.021484375 .2649994-.021484375 .31298829-.021484375 .39898683-.0064849855 .44898988 .09257507 .48599244 .16464234 .4889984 .2537079 .4889984 .31877137M.3999939 .33078004C.3999939 .27172853 .3999939 .18165589 .3880005 .12561035 .36698915 .020523072 .2979889 .006515503 .2649994 .006515503 .23098755 .006515503 .1619873 .022521973 .14099121 .12760926 .12998963 .18466187 .12998963 .2787323 .12998963 .33078004 .12998963 .3998413 .12998963 .4698944 .14099121 .5249481 .1619873 .6270294 .23999024 .6370239 .2649994 .6370239 .29899598 .6370239 .36799623 .62002566 .3880005 .5289459 .3999939 .4738922 .3999939 .39883424 .3999939 .33078004Z"/>
</defs>
<path transform="matrix(1.00009,0,0,-1.00008,13.274725,55.559366)" stroke-width=".79701" stroke-linecap="butt" stroke-miterlimit="10" stroke-linejoin="miter" fill="none" stroke="#929292" d="M52.49547 26.22124V30.47299M91.86707 26.22124V30.47299"/>
<path transform="matrix(1.00009,0,0,-1.00008,13.274725,55.559366)" stroke-width=".3985" stroke-linecap="butt" stroke-miterlimit="10" stroke-linejoin="miter" fill="none" stroke="#000000" d="M-11.8122 28.34712H127.93448"/>
<path transform="matrix(1.00009,0,0,-1.00008,141.22072,27.209977)" d="M1.99252 0-1.19551 1.59401 0 0-1.19551-1.59401"/>
<use data-text="?" xlink:href="#font_1_92" transform="matrix(7.970817,0,0,-7.9707376,63.774267,38.467996)"/>
<use data-text="6" xlink:href="#font_1_101" transform="matrix(7.970817,0,0,-7.9707376,103.0338,38.156976)"/>
<path transform="matrix(1.00009,0,0,-1.00008,13.274725,55.559366)" stroke-width=".3985" stroke-linecap="butt" stroke-miterlimit="10" stroke-linejoin="miter" fill="none" stroke="#000000" d="M52.49547 34.01654C63.35219 44.87328 81.01035 44.87328 88.00858 37.87503"/>
<path transform="matrix(.70716366,.70715656,.70716366,-.70715656,101.091968,17.482022)" d="M5.10841 0 1.48842 1.20667 .28177 0 1.48842-1.20667Z"/>
<path transform="matrix(.70716366,.70715656,.70716366,-.70715656,101.091968,17.482022)" stroke-width=".3985" stroke-linecap="butt" stroke-miterlimit="10" stroke-linejoin="miter" fill="none" stroke="#000000" d="M5.10841 0 1.48842 1.20667 .28177 0 1.48842-1.20667Z"/>
<use data-text="m" xlink:href="#font_2_75" transform="matrix(9.963496,0,0,-9.963397,56.119585,7.834549)"/>
<use data-text="u" xlink:href="#font_2_109" transform="matrix(9.963496,0,0,-9.963397,64.15016,7.834549)"/>
<use data-text="l" xlink:href="#font_2_72" transform="matrix(9.963496,0,0,-9.963397,69.689868,7.834549)"/>
<use data-text="t" xlink:href="#font_2_105" transform="matrix(9.963496,0,0,-9.963397,72.45972,7.834549)"/>
<use data-text="i" xlink:href="#font_2_66" transform="matrix(9.963496,0,0,-9.963397,76.33552,7.834549)"/>
<use data-text="p" xlink:href="#font_2_84" transform="matrix(9.963496,0,0,-9.963397,79.10537,7.834549)"/>
<use data-text="l" xlink:href="#font_2_72" transform="matrix(9.963496,0,0,-9.963397,84.64508,7.834549)"/>
<use data-text="y" xlink:href="#font_2_118" transform="matrix(9.963496,0,0,-9.963397,87.41493,7.834549)"/>
<use data-text="b" xlink:href="#font_2_35" transform="matrix(9.963496,0,0,-9.963397,95.98354,7.834549)"/>
<use data-text="y" xlink:href="#font_2_118" transform="matrix(9.963496,0,0,-9.963397,101.254238,7.834549)"/>
<use data-text="2" xlink:href="#font_3_1" transform="matrix(9.963496,0,0,-9.963397,109.82342,7.834549)"/>
<path transform="matrix(1.00009,0,0,-1.00008,13.274725,55.559366)" d="M54.48802 28.34712C54.48802 29.44759 53.59593 30.33968 52.49547 30.33968 51.39499 30.33968 50.50291 29.44759 50.50291 28.34712 50.50291 27.24664 51.39499 26.35457 52.49547 26.35457 53.59593 26.35457 54.48802 27.24664 54.48802 28.34712ZM52.49547 28.34712"/>
<path transform="matrix(1.00009,0,0,-1.00008,13.274725,55.559366)" stroke-width=".3985" stroke-linecap="butt" stroke-miterlimit="10" stroke-linejoin="miter" fill="none" stroke="#000000" d="M54.48802 28.34712C54.48802 29.44759 53.59593 30.33968 52.49547 30.33968 51.39499 30.33968 50.50291 29.44759 50.50291 28.34712 50.50291 27.24664 51.39499 26.35457 52.49547 26.35457 53.59593 26.35457 54.48802 27.24664 54.48802 28.34712ZM52.49547 28.34712"/>
<path transform="matrix(1.00009,0,0,-1.00008,13.274725,55.559366)" d="M93.85962 28.34712C93.85962 29.44759 92.96754 30.33968 91.86707 30.33968 90.7666 30.33968 89.87451 29.44759 89.87451 28.34712 89.87451 27.24664 90.7666 26.35457 91.86707 26.35457 92.96754 26.35457 93.85962 27.24664 93.85962 28.34712ZM91.86707 28.34712"/>
<path transform="matrix(1.00009,0,0,-1.00008,13.274725,55.559366)" stroke-width=".3985" stroke-linecap="butt" stroke-miterlimit="10" stroke-linejoin="miter" fill="none" stroke="#000000" d="M93.85962 28.34712C93.85962 29.44759 92.96754 30.33968 91.86707 30.33968 90.7666 30.33968 89.87451 29.44759 89.87451 28.34712 89.87451 27.24664 90.7666 26.35457 91.86707 26.35457 92.96754 26.35457 93.85962 27.24664 93.85962 28.34712ZM91.86707 28.34712"/>
<path transform="matrix(1.00009,0,0,-1.00008,13.274725,55.559366)" stroke-width=".3985" stroke-linecap="butt" stroke-miterlimit="10" stroke-linejoin="miter" fill="none" stroke="#000000" d=""/>
<use data-text="0" xlink:href="#font_1_121" transform="matrix(7.970817,0,0,-7.9707376,24.283717,38.156976)"/>
</svg>
