<svg xmlns="http://www.w3.org/2000/svg" xmlns:xlink="http://www.w3.org/1999/xlink" version="1.1" width="145" height="35" viewBox="0 0 145 35">
<defs>
<path id="font_1_92" d="M.44198609 .56822207C.44198609 .62420657 .4019928 .70410159 .23999024 .70410159 .12399292 .70410159 .05899048 .6371765 .05899048 .571228 .05899048 .52622988 .09498596 .521225 .10598755 .521225 .1289978 .521225 .15299988 .53723147 .15299988 .56822207 .15299988 .57922366 .14898682 .6132202 .10398865 .6152344 .125 .6501465 .1749878 .6760864 .23799134 .6760864 .35099793 .6760864 .35299684 .6132202 .35299684 .57221987 .35299684 .5192261 .33399964 .4992218 .31900025 .48420716 .22399903 .38916017 .21998596 .29611207 .21998596 .23509217V.20507813C.22099304 .19140625 .22898865 .19140625 .23599243 .19140625 .25099183 .19140625 .25099183 .19740296 .25099183 .21739197V.247406C.25099183 .34539796 .30899049 .4143982 .38198854 .46440126 .397995 .47540284 .44198609 .5054016 .44198609 .56840518V.56822207M.29100038 .054992677C.29100038 .08898926 .2639923 .11099243 .23599243 .11099243 .20298767 .11099243 .17999268 .083999637 .17999268 .055999757 .17999268 .024993897 .20498657 0 .23599243 0 .2659912 0 .29100038 .023986817 .29100038 .054992677Z"/>
<path id="font_1_101" d="M.48599244 .20263672C.48599244 .33372499 .3869934 .42578126 .27598573 .42578126 .20399475 .42578126 .16099549 .37976075 .13798523 .33073426 .13798523 .41377259 .14498902 .4868164 .18099976 .54782107 .21099854 .5978241 .2619934 .6390381 .32499696 .6390381 .34498597 .6390381 .3909912 .63601687 .4139862 .60084536 .36898805 .5988312 .36499024 .5648346 .36499024 .553833 .36499024 .5238342 .3880005 .50683596 .4119873 .50683596 .42999269 .50683596 .45899964 .51782229 .45899964 .5558319 .45899964 .615921 .4139862 .66503909 .32398988 .66503909 .18499756 .66503909 .04399109 .53282168 .04399109 .31672669 .04399109 .045532228 .16999817-.021484375 .2669983-.021484375 .31498719-.021224976 .36698915-.008224487 .4119873 .03477478 .45199586 .073776248 .48599244 .11578369 .48599244 .20277405V.20263672M.3919983 .20378113C.3919983 .152771 .3919983 .10877991 .37199403 .072784427 .34599305 .026779175 .31098939 .0087890629 .2669983 .0087890629 .21398926 .0087890629 .18099976 .045776369 .1659851 .073776248 .14299011 .118774417 .14099121 .18678284 .14099121 .22477722 .14099121 .32377626 .19499207 .3977661 .27198792 .3977661 .32199098 .3977661 .35198976 .37176515 .37098695 .33677674 .3919983 .29977418 .3919983 .254776 .3919983 .20378113Z"/>
<path id="font_2_98" d="M.3600006 .12823487C.3600006 .18122864 .32998658 .21122742 .31799317 .22323609 .2849884 .25523377 .24598694 .26322938 .20399475 .27124024 .147995 .28224183 .08099365 .29522706 .08099365 .35324098 .08099365 .38822938 .10699463 .42922975 .19299317 .42922975 .30299378 .42922975 .30799867 .3392334 .30999757 .30822755 .31098939 .2992401 .32199098 .2992401 .32199098 .2992401 .33499146 .2992401 .33499146 .30422975 .33499146 .32322694V.4242401C.33499146 .4412384 .33499146 .4482422 .32398988 .4482422 .31900025 .4482422 .31698609 .4482422 .3039856 .43623353 .30099488 .43223573 .29100038 .42323304 .2869873 .42022706 .24899292 .4482422 .20799256 .4482422 .19299317 .4482422 .070999149 .4482422 .032989503 .38124085 .032989503 .3252411 .032989503 .29023744 .04899597 .26223756 .07598877 .24023438 .10798645 .2142334 .13598633 .2082367 .20799256 .19422913 .22999573 .19021607 .31199647 .17422486 .31199647 .10221863 .31199647 .051223756 .2769928 .011245728 .19898987 .011245728 .114990238 .011245728 .07899475 .068222049 .05999756 .1532135 .056991579 .16621399 .055999757 .17021179 .04598999 .17021179 .032989503 .17021179 .032989503 .16322327 .032989503 .1452179V.013214111C.032989503-.003753662 .032989503-.0107421879 .04399109-.0107421879 .04899597-.0107421879 .049987794-.009750366 .068984989 .009246826 .070999149 .011245728 .070999149 .013214111 .08898926 .032226564 .1329956-.009750366 .17799378-.0107421879 .19898987-.0107421879 .31399537-.0107421879 .3600006 .05621338 .3600006 .1282196V.12823487Z"/>
<path id="font_2_109" d="M.5349884 0V.0309906C.46499635 .0309906 .45700074 .037994386 .45700074 .08705139V.4423828L.30999757 .43066407V.3996582C.37998963 .3996582 .3880005 .39266969 .3880005 .34373475V.16601563C.3880005 .07910156 .33999635 .011245728 .2669983 .011245728 .18299866 .011245728 .1789856 .058135988 .1789856 .11009216V.4423828L.03199768 .43066407V.3996582C.10998535 .3996582 .10998535 .39666749 .10998535 .3078003V.15802002C.10998535 .080093387 .10998535-.0107421879 .2619934-.0107421879 .31799317-.0107421879 .3619995 .017242432 .3909912 .07910156V-.0107421879L.5349884 0Z"/>
<path id="font_2_35" d="M.5209961 .2163086C.5209961 .34335328 .4229889 .4423828 .30899049 .4423828 .23098755 .4423828 .18798828 .39537049 .17199707 .3773651V.69433596L.027999878 .68333438V.6523285C.09799194 .6523285 .10598755 .6453247 .10598755 .596344V.00024414063H.1309967L.16699219 .06227112C.18199158 .039260866 .22399903-.0107421879 .2979889-.0107421879 .4169922-.0107421879 .5209961 .08728027 .5209961 .2163086M.43798829 .21731568C.43798829 .18029785 .43598939 .120285037 .40699769 .07527161 .38598634 .044265748 .34799195 .011245728 .2939911 .011245728 .24899292 .011260986 .21299744 .03526306 .18899536 .072265628 .1749878 .09326172 .1749878 .09625244 .1749878 .11425781V.32034303C.1749878 .3393402 .1749878 .3403473 .18598938 .35635377 .22499085 .41236878 .27999879 .42037965 .3039856 .42037965 .34899903 .42037965 .3849945 .3943634 .40899659 .35635377 .43499757 .31533814 .43798829 .25831605 .43798829 .21730042V.21731568Z"/>
<path id="font_2_105" d="M.33198548 .12385559V.18066406H.30699159V.12585449C.30699159 .052108766 .2769928 .014251709 .23999024 .014251709 .17298889 .014251709 .17298889 .10491943 .17298889 .12187195V.3996582H.31599427V.43066407H.17298889V.6142578H.147995C.14698792 .5324249 .116989139 .42565919 .018997193 .42166139V.3996582H.10398865V.12408447C.10398865 .0012512207 .19699097-.0107421879 .23298645-.0107421879 .3039856-.0107421879 .33198548 .060180665 .33198548 .12408447V.12385559Z"/>
<path id="font_2_96" d="M.3639984 .38137818C.3639984 .41337586 .33299256 .4423828 .2899933 .4423828 .21699524 .4423828 .18099976 .37538148 .16699219 .3323822V.4423828L.027999878 .43066407V.3996582C.09799194 .3996582 .10598755 .39266969 .10598755 .34370423V.07595825C.10598755 .0309906 .09498596 .0309906 .027999878 .0309906V0L.14199829 .0029907227C.18199158 .0029907227 .22898865 .0029907227 .2689972 0V.0309906H.24798584C.17399597 .0309906 .17199707 .04197693 .17199707 .07795715V.23181153C.17199707 .33137513 .21398926 .42037965 .2899933 .42037965 .29699708 .42037965 .29899598 .42037965 .30099488 .41937257 .2979889 .41838075 .27799989 .40637208 .27799989 .3803711 .27799989 .35237123 .29899598 .33737184 .32099916 .33737184 .33898927 .33737184 .3639984 .3493805 .3639984 .38137818Z"/>
<path id="font_2_28" d="M.48298646 .08912659V.14511109H.45799256V.08912659C.45799256 .03112793 .43299867 .025131226 .42199708 .025131226 .3889923 .025131226 .3849945 .070129398 .3849945 .07511902V.27508546C.3849945 .31707765 .3849945 .3560791 .34899903 .39312745 .30999757 .43223573 .2599945 .4482422 .21199036 .4482422 .12998963 .4482422 .06098938 .40115357 .06098938 .335083 .06098938 .30508424 .08099365 .28808595 .10699463 .28808595 .1349945 .28808595 .15299988 .30807496 .15299988 .33407594 .15299988 .3460846 .147995 .37908937 .101989749 .38008119 .1289978 .41519166 .17799378 .426239 .20999146 .426239 .25898744 .426239 .31599427 .38710023 .31599427 .29808045V.26107789C.2649994 .25808717 .19499207 .25508119 .13198853 .22509766 .056991579 .19110108 .03199768 .13911438 .03199768 .09512329 .03199768 .014251709 .1289978-.0107421879 .19198609-.0107421879 .2579956-.0107421879 .3039856 .029251099 .32299806 .07624817 .32699586 .036132814 .35398866-.005859375 .40098573-.005859375 .42199708-.005859375 .48298646 .008132935 .48298646 .08912659M.31599427 .14013672C.31599427 .04525757 .24398804 .011245728 .19898987 .011245728 .1499939 .011245728 .10899353 .04624939 .10899353 .09625244 .10899353 .15124512 .15098572 .23425293 .31599427 .24024964V.14013672Z"/>
<path id="font_2_43" d="M.4149933 .119140628C.4149933 .12911988 .40499879 .12911988 .4019928 .12911988 .3929901 .12911988 .3909912 .12512207 .3889923 .119140628 .3600006 .026229859 .29499818 .014251709 .2579956 .014251709 .20498657 .014251709 .116989139 .0572052 .116989139 .21801758 .116989139 .38093568 .19898987 .42323304 .2519989 .42323304 .26098634 .42323304 .32398988 .42222596 .35899354 .38594056 .31799317 .38293458 .31199647 .3529358 .31199647 .3399353 .31199647 .31393434 .32998658 .2939453 .35798646 .2939453 .38398744 .2939453 .4039917 .3109436 .4039917 .34094239 .4039917 .40911866 .32798768 .4482422 .25099183 .4482422 .12599182 .4482422 .033996583 .3399353 .033996583 .21601868 .033996583 .08816528 .1329956-.0107421879 .24899292-.0107421879 .3829956-.0107421879 .4149933 .10914612 .4149933 .119140628Z"/>
<path id="font_3_1" d="M.1269989 .07699585 .23298645 .18003845C.3889923 .31811524 .44898988 .3721466 .44898988 .47216798 .44898988 .5860901 .35899354 .6660156 .23699951 .6660156 .12399292 .6660156 .049987794 .57411196 .049987794 .48516847 .049987794 .4291687 .099990848 .4291687 .102996829 .4291687 .11999512 .4291687 .15499878 .44117738 .15499878 .48217774 .15499878 .5081787 .13699341 .5341797 .101989749 .5341797 .09399414 .5341797 .09199524 .5341797 .08898926 .5331726 .11199951 .59806826 .1659851 .63500979 .22399903 .63500979 .31498719 .63500979 .35798646 .5541382 .35798646 .47216798 .35798646 .39215089 .30799867 .31311036 .25299073 .25108338L.06098938 .036987306C.049987794 .025985718 .049987794 .023986817 .049987794 0H.42099L.44898988 .17404175H.42399598C.4189911 .14402771 .4119873 .1000061 .4019928 .084991458 .394989 .07699585 .32899476 .07699585 .30699159 .07699585H.1269989Z"/>
<path id="font_1_121" d="M.4889984 .31877137C.4889984 .42585755 .47799684 .49090577 .44499208 .55496218 .40098573 .6430359 .31999208 .66503909 .2649994 .66503909 .13899231 .66503909 .09298706 .5709839 .07899475 .5429535 .042999269 .4698944 .040985109 .3708191 .040985109 .31877137 .040985109 .25271607 .04399109 .15162659 .09199524 .07156372 .13798523-.0024871827 .21199036-.021484375 .2649994-.021484375 .31298829-.021484375 .39898683-.0064849855 .44898988 .09257507 .48599244 .16464234 .4889984 .2537079 .4889984 .31877137M.3999939 .33078004C.3999939 .27172853 .3999939 .18165589 .3880005 .12561035 .36698915 .020523072 .2979889 .006515503 .2649994 .006515503 .23098755 .006515503 .1619873 .022521973 .14099121 .12760926 .12998963 .18466187 .12998963 .2787323 .12998963 .33078004 .12998963 .3998413 .12998963 .4698944 .14099121 .5249481 .1619873 .6270294 .23999024 .6370239 .2649994 .6370239 .29899598 .6370239 .36799623 .62002566 .3880005 .5289459 .3999939 .4738922 .3999939 .39883424 .3999939 .33078004Z"/>
</defs>
<path transform="matrix(1.00009,0,0,-1.00008,13.274725,50.911996)" stroke-width=".79701" stroke-linecap="butt" stroke-miterlimit="10" stroke-linejoin="miter" fill="none" stroke="#929292" d="M65.61934 26.22124V30.47299M91.86707 26.22124V30.47299"/>
<path transform="matrix(1.00009,0,0,-1.00008,13.274725,50.911996)" stroke-width=".3985" stroke-linecap="butt" stroke-miterlimit="10" stroke-linejoin="miter" fill="none" stroke="#000000" d="M-11.8122 28.34712H127.93448"/>
<path transform="matrix(1.00009,0,0,-1.00008,141.22072,22.562607)" d="M1.99252 0-1.19551 1.59401 0 0-1.19551-1.59401"/>
<use data-text="?" xlink:href="#font_1_92" transform="matrix(7.970817,0,0,-7.9707376,76.899448,33.820627)"/>
<use data-text="6" xlink:href="#font_1_101" transform="matrix(7.970817,0,0,-7.9707376,103.0338,33.509607)"/>
<path transform="matrix(1.00009,0,0,-1.00008,13.274725,50.911996)" stroke-width=".3985" stroke-linecap="butt" stroke-miterlimit="10" stroke-linejoin="miter" fill="none" stroke="#000000" d="M69.47783 37.87503C72.85713 41.25435 84.62927 41.25435 91.86707 34.01654"/>
<path transform="matrix(-.70716366,.70715656,.70716366,.70715656,82.95808,12.834652)" d="M5.10841 0 1.48842 1.20667 .28177 0 1.48842-1.20667Z"/>
<path transform="matrix(-.70716366,.70715656,.70716366,.70715656,82.95808,12.834652)" stroke-width=".3985" stroke-linecap="butt" stroke-miterlimit="10" stroke-linejoin="miter" fill="none" stroke="#000000" d="M5.10841 0 1.48842 1.20667 .28177 0 1.48842-1.20667Z"/>
<use data-text="s" xlink:href="#font_2_98" transform="matrix(9.963496,0,0,-9.963397,69.84082,7.834549)"/>
<use data-text="u" xlink:href="#font_2_109" transform="matrix(9.963496,0,0,-9.963397,73.76643,7.834549)"/>
<use data-text="b" xlink:href="#font_2_35" transform="matrix(9.963496,0,0,-9.963397,79.30614,7.834549)"/>
<use data-text="t" xlink:href="#font_2_105" transform="matrix(9.963496,0,0,-9.963397,84.84585,7.834549)"/>
<use data-text="r" xlink:href="#font_2_96" transform="matrix(9.963496,0,0,-9.963397,88.72165,7.834549)"/>
<use data-text="a" xlink:href="#font_2_28" transform="matrix(9.963496,0,0,-9.963397,92.627338,7.834549)"/>
<use data-text="c" xlink:href="#font_2_43" transform="matrix(9.963496,0,0,-9.963397,97.609088,7.834549)"/>
<use data-text="t" xlink:href="#font_2_105" transform="matrix(9.963496,0,0,-9.963397,102.032878,7.834549)"/>
<use data-text="2" xlink:href="#font_3_1" transform="matrix(9.963496,0,0,-9.963397,109.226367,7.834549)"/>
<path transform="matrix(1.00009,0,0,-1.00008,13.274725,50.911996)" d="M67.6119 28.34712C67.6119 29.44759 66.7198 30.33968 65.61934 30.33968 64.51886 30.33968 63.62679 29.44759 63.62679 28.34712 63.62679 27.24664 64.51886 26.35457 65.61934 26.35457 66.7198 26.35457 67.6119 27.24664 67.6119 28.34712ZM65.61934 28.34712"/>
<path transform="matrix(1.00009,0,0,-1.00008,13.274725,50.911996)" stroke-width=".3985" stroke-linecap="butt" stroke-miterlimit="10" stroke-linejoin="miter" fill="none" stroke="#000000" d="M67.6119 28.34712C67.6119 29.44759 66.7198 30.33968 65.61934 30.33968 64.51886 30.33968 63.62679 29.44759 63.62679 28.34712 63.62679 27.24664 64.51886 26.35457 65.61934 26.35457 66.7198 26.35457 67.6119 27.24664 67.6119 28.34712ZM65.61934 28.34712"/>
<path transform="matrix(1.00009,0,0,-1.00008,13.274725,50.911996)" d="M93.85962 28.34712C93.85962 29.44759 92.96754 30.33968 91.86707 30.33968 90.7666 30.33968 89.87451 29.44759 89.87451 28.34712 89.87451 27.24664 90.7666 26.35457 91.86707 26.35457 92.96754 26.35457 93.85962 27.24664 93.85962 28.34712ZM91.86707 28.34712"/>
<path transform="matrix(1.00009,0,0,-1.00008,13.274725,50.911996)" stroke-width=".3985" stroke-linecap="butt" stroke-miterlimit="10" stroke-linejoin="miter" fill="none" stroke="#000000" d="M93.85962 28.34712C93.85962 29.44759 92.96754 30.33968 91.86707 30.33968 90.7666 30.33968 89.87451 29.44759 89.87451 28.34712 89.87451 27.24664 90.7666 26.35457 91.86707 26.35457 92.96754 26.35457 93.85962 27.24664 93.85962 28.34712ZM91.86707 28.34712"/>
<path transform="matrix(1.00009,0,0,-1.00008,13.274725,50.911996)" stroke-width=".3985" stroke-linecap="butt" stroke-miterlimit="10" stroke-linejoin="miter" fill="none" stroke="#000000" d=""/>
<use data-text="0" xlink:href="#font_1_121" transform="matrix(7.970817,0,0,-7.9707376,24.283717,33.509607)"/>
</svg>
