<svg xmlns="http://www.w3.org/2000/svg" xmlns:xlink="http://www.w3.org/1999/xlink" version="1.1" width="167" height="145" viewBox="0 0 167 145">
<defs>
<clipPath id="clip_1">
<path transform="matrix(1,0,0,-1.00006,1.4610005,143.15378)" d="M0 0H163.89252V141.34799H0Z"/>
</clipPath>
<path id="font_2_4" d="M.48599244 .38136292C.48999024 .39537049 .48999024 .39736939 .48999024 .40437318 .48999024 .42237855 .47599793 .43138124 .46099855 .43138124 .45098878 .43138124 .43499757 .42536927 .42599488 .41036988 .42399598 .405365 .41600038 .37435914 .4119873 .35635377 .40499879 .33035279 .397995 .30334474 .3919983 .27633668L.34700013 .09628296C.34298707 .08126831 .2999878 .011245728 .23399353 .011245728 .18299866 .011245728 .17199707 .055267335 .17199707 .0922699 .17199707 .1382904 .18899536 .20030213 .22299195 .28833009 .23899842 .3293457 .24299622 .3403473 .24299622 .36035157 .24299622 .405365 .21099854 .4423828 .16099549 .4423828 .06599426 .4423828 .0289917 .29733277 .0289917 .28833009 .0289917 .27833558 .038986207 .27833558 .040985109 .27833558 .050994874 .27833558 .051986696 .28033448 .056991579 .29634095 .083999637 .3903656 .12399292 .42037965 .1579895 .42037965 .1659851 .42037965 .18299866 .42037965 .18299866 .3883667 .18299866 .36335755 .17298889 .3373413 .1659851 .31834413 .12599182 .21231079 .10798645 .1552887 .10798645 .10827637 .10798645 .019256592 .17098999-.0107421879 .22999573-.0107421879 .2689972-.0107421879 .30299378 .0062561037 .33099366 .03425598 .31799317-.017745972 .30599977-.06674194 .2659912-.11973572 .23999024-.15385437 .20199585-.18309021 .1559906-.18309021 .14199829-.18309021 .09700012-.18005371 .07998657-.14074707 .09599304-.14074707 .10899353-.14074707 .12298584-.1287384 .1329956-.11973572 .14299011-.10673523 .14299011-.08773804 .14299011-.056747438 .115997318-.052734376 .10598755-.052734376 .08299255-.052734376 .049987794-.068740848 .049987794-.11773682 .049987794-.16796875 .09399414-.20507813 .1559906-.20507813 .25898744-.20507813 .3619995-.11373901 .3899994-.00074768069L.48599244 .38136292Z"/>
<path id="font_3_4" d="M.68699648 .32714845C.70199587 .32714845 .72099307 .32714845 .72099307 .34713746 .72099307 .36714173 .70199587 .36714173 .6879883 .36714173H.08898926C.07499695 .36714173 .055999757 .36714173 .055999757 .34713746 .055999757 .32714845 .07499695 .32714845 .08999634 .32714845H.68699648M.6879883 .13284302C.70199587 .13284302 .72099307 .13284302 .72099307 .15284729 .72099307 .17285156 .70199587 .17285156 .68699648 .17285156H.08999634C.07499695 .17285156 .055999757 .17285156 .055999757 .15284729 .055999757 .13284302 .07499695 .13284302 .08898926 .13284302H.6879883Z"/>
<path id="font_2_2" d="M.08799744 .059265138C.084991458 .044265748 .07899475 .021255494 .07899475 .01625061 .07899475-.0017547608 .09298706-.0107421879 .10798645-.0107421879 .11999512-.0107421879 .13798523-.002746582 .14498902 .01725769 .1459961 .019256592 .1579895 .06626892 .1639862 .091278079L.18598938 .18130493C.19198609 .2033081 .19799805 .22531128 .20298767 .24832154 .20698548 .26531983 .21499634 .29434205 .21598816 .29833985 .23098755 .3293457 .28399659 .42037965 .3789978 .42037965 .42399598 .42037965 .43299867 .38336183 .43299867 .35035707 .43299867 .3253479 .42599488 .29733277 .41799928 .26733399L.3899994 .1512909 .36999513 .07527161C.3659973 .055267335 .35699464 .021255494 .35699464 .01625061 .35699464-.0017547608 .37098695-.0107421879 .38598634-.0107421879 .4169922-.0107421879 .4229889 .014251709 .43099977 .04626465 .44499208 .10227966 .48199464 .24832154 .4909973 .28733827 .49398805 .30033876 .5469971 .42037965 .6559906 .42037965 .69898989 .42037965 .70999148 .3863678 .70999148 .35035707 .70999148 .29333497 .66799929 .17930603 .647995 .12628174 .6389923 .10227966 .6349945 .091278079 .6349945 .0712738 .6349945 .024261475 .66999819-.0107421879 .71699526-.0107421879 .8109894-.0107421879 .84799197 .13528443 .84799197 .14329529 .84799197 .1532898 .83898928 .1532898 .83599856 .1532898 .82598879 .1532898 .82598879 .15029907 .82099917 .13528443 .80599978 .08227539 .7739868 .011245728 .71899417 .011245728 .70199587 .011245728 .69499209 .021255494 .69499209 .044265748 .69499209 .0692749 .70399478 .09327698 .71299746 .11528015 .7319946 .16729737 .7739868 .27833558 .7739868 .3353424 .7739868 .4003601 .73399356 .4423828 .6589966 .4423828 .58399966 .4423828 .5329895 .3983612 .49598695 .34535218 .49499513 .35835267 .49198915 .3923645 .46398927 .41636659 .43899537 .43737794 .40699769 .4423828 .38198854 .4423828 .2919922 .4423828 .24299622 .37835694 .22599793 .35534669 .22099304 .41236878 .1789856 .4423828 .13398743 .4423828 .08799744 .4423828 .068984989 .4033661 .05999756 .38536073 .041992189 .35035707 .0289917 .29133607 .0289917 .28833009 .0289917 .27833558 .038986207 .27833558 .040985109 .27833558 .050994874 .27833558 .051986696 .2793274 .057998659 .30133058 .07499695 .37236024 .09498596 .42037965 .1309967 .42037965 .14698792 .42037965 .1619873 .41236878 .1619873 .37435914 .1619873 .35334779 .15899658 .3423462 .1459961 .29032899L.08799744 .059265138Z"/>
<path id="font_3_1" d="M.33099366-.2400055C.33099366-.23701477 .33099366-.23500061 .31399537-.21800232 .18899536-.0920105 .15699768 .09700012 .15699768 .25 .15699768 .42399598 .19499207 .59799197 .31799317 .72299197 .33099366 .73498538 .33099366 .7369995 .33099366 .73999026 .33099366 .746994 .32699586 .75 .32099916 .75 .31098939 .75 .22099304 .6819916 .1619873 .5549927 .11099243 .44499208 .09899902 .33399964 .09899902 .25 .09899902 .17199707 .10998535 .050994874 .16499329-.06201172 .22499085-.18501282 .31098939-.25 .32099916-.25 .32699586-.25 .33099366-.24700928 .33099366-.2400055Z"/>
<path id="font_2_3" d="M.33399964 .30233766C.33999635 .32835389 .36299134 .42037965 .43299867 .42037965 .43798829 .42037965 .46199037 .42037965 .48298646 .40734864 .45498658 .402359 .43499757 .37734986 .43499757 .35334779 .43499757 .33735658 .44599916 .31835938 .47299195 .31835938 .49499513 .31835938 .5269928 .3363495 .5269928 .37635804 .5269928 .42837525 .46798707 .4423828 .43399049 .4423828 .37599183 .4423828 .34098817 .38935853 .32899476 .36634828 .3039856 .43237306 .25 .4423828 .22099304 .4423828 .116989139 .4423828 .05999756 .3133545 .05999756 .28834535 .05999756 .27833558 .069992069 .27833558 .07199097 .27833558 .07998657 .27833558 .08299255 .28033448 .084991458 .28933717 .11898804 .39535523 .18499756 .42037965 .21899414 .42037965 .23799134 .42037965 .272995 .4113617 .272995 .35334779 .272995 .32235719 .2559967 .25532533 .21899414 .11528015 .20298767 .053268434 .16799927 .011245728 .12399292 .011245728 .117996219 .011245728 .09498596 .011245728 .07398987 .024276734 .09899902 .029266358 .12098694 .05027771 .12098694 .07827759 .12098694 .105270389 .09899902 .11328125 .083999637 .11328125 .053985597 .11328125 .0289917 .08728027 .0289917 .055267335 .0289917 .009246826 .07899475-.0107421879 .12298584-.0107421879 .18899536-.0107421879 .22499085 .059280397 .22799683 .0652771 .23999024 .028274537 .27598573-.0107421879 .33599855-.0107421879 .43899537-.0107421879 .49598695 .118270877 .49598695 .14328003 .49598695 .1532898 .4869995 .1532898 .48399354 .1532898 .47499085 .1532898 .47299195 .14929199 .47099305 .14228821 .43798829 .03527832 .36999513 .011245728 .33799745 .011245728 .29899598 .011245728 .2829895 .043273927 .2829895 .07727051 .2829895 .09927368 .2889862 .121276859 .2999878 .16529846L.33399964 .30233766Z"/>
<path id="font_4_1" d="M.6589966 .23046875C.6759949 .23046875 .69400027 .23046875 .69400027 .25045777 .69400027 .27046205 .6759949 .27046205 .6589966 .27046205H.117996219C.100997928 .27046205 .08299255 .27046205 .08299255 .25045777 .08299255 .23046875 .100997928 .23046875 .117996219 .23046875H.6589966Z"/>
<path id="font_5_1" d="M.5159912 .31925965C.5159912 .42918397 .5029907 .50813296 .45700074 .5780945 .42599488 .62405398 .3639984 .6640625 .28399659 .6640625 .051986696 .6640625 .051986696 .39120484 .051986696 .31925965 .051986696 .2472992 .051986696-.01953125 .28399659-.01953125 .5159912-.01953125 .5159912 .2472992 .5159912 .31925965M.28399659 .008468628C.23799134 .008468628 .1769867 .035446168 .15699768 .117385867 .14299011 .17634583 .14299011 .25830079 .14299011 .33224488 .14299011 .40519715 .14299011 .4811554 .1579895 .53611758 .1789856 .6150665 .24299622 .63604739 .28399659 .63604739 .33799745 .63604739 .3899994 .6030731 .4079895 .545105 .42399598 .4911499 .4249878 .41918946 .4249878 .33224488 .4249878 .25830079 .4249878 .18434143 .4119873 .12138367 .3919983 .030441285 .32398988 .008468628 .28399659 .008468628Z"/>
<path id="font_3_2" d="M.2889862 .25C.2889862 .32798768 .27799989 .44898988 .22299195 .56199648 .16299439 .68499758 .07699585 .75 .066986087 .75 .06098938 .75 .056991579 .74598696 .056991579 .73999026 .056991579 .7369995 .056991579 .73498538 .07598877 .71699526 .17399597 .6179962 .23098755 .45899964 .23098755 .25 .23098755 .07899475 .19400025-.09700012 .069992069-.2230072 .056991579-.23500061 .056991579-.23701477 .056991579-.2400055 .056991579-.2460022 .06098938-.25 .066986087-.25 .07699585-.25 .16699219-.18200684 .22599793-.055007936 .2769928 .054992677 .2889862 .16600037 .2889862 .25Z"/>
<path id="font_3_3" d="M.40899659 .23046875H.6879883C.70199587 .23046875 .72099307 .23046875 .72099307 .25045777 .72099307 .27046205 .70199587 .27046205 .6879883 .27046205H.40899659V.5500183C.40899659 .56399539 .40899659 .5830078 .3889923 .5830078 .36898805 .5830078 .36898805 .56399539 .36898805 .5500183V.27046205H.08898926C.07499695 .27046205 .055999757 .27046205 .055999757 .25045777 .055999757 .23046875 .07499695 .23046875 .08898926 .23046875H.36898805V-.05000305C.36898805-.06401062 .36898805-.08300781 .3889923-.08300781 .40899659-.08300781 .40899659-.06401062 .40899659-.05000305V.23046875Z"/>
<path id="font_2_1" d="M.20298767 .0009918213C.20298767 .066986087 .17799378 .10598755 .13899231 .10598755 .10598755 .10598755 .085998538 .08099365 .085998538 .052993776 .085998538 .025985718 .10598755 0 .13899231 0 .15098572 0 .1639862 .0039978029 .17399597 .0129852299 .1769867 .01499939 .17799378 .015991211 .1789856 .015991211 .17999268 .015991211 .18099976 .01499939 .18099976 .0009918213 .18099976-.07316589 .1459961-.13328552 .11299133-.16635132 .101989749-.17736817 .101989749-.17936707 .101989749-.18237305 .101989749-.18936157 .10699463-.19335938 .11199951-.19335938 .12298584-.19335938 .20298767-.116256717 .20298767 .0009918213Z"/>
</defs>
<path transform="matrix(1,0,0,-1.00006,1.4610005,143.15378)" d="M0 0H163.89252V141.34799H0Z" fill="#fffac2"/>
<path transform="matrix(1,0,0,-1.00006,1.4610005,143.15378)" stroke-width=".19925" stroke-linecap="butt" stroke-miterlimit="10" stroke-linejoin="miter" fill="none" stroke="#929292" d="M0 12.7174V15.55219M16.38925 12.7174V15.55219M32.7785 12.7174V15.55219M49.16776 12.7174V15.55219M65.557 12.7174V15.55219M81.94626 12.7174V15.55219M98.33551 12.7174V15.55219M114.72476 12.7174V15.55219M131.11402 12.7174V15.55219"/>
<path transform="matrix(1,0,0,-1.00006,1.4610005,143.15378)" stroke-width=".19925" stroke-linecap="butt" stroke-miterlimit="10" stroke-linejoin="miter" fill="none" stroke="#929292" d="M14.97179 0H17.8067M14.97179 14.1348H17.8067M14.97179 28.26959H17.8067M14.97179 42.40439H17.8067M14.97179 56.53918H17.8067M14.97179 70.674H17.8067M14.97179 84.80879H17.8067M14.97179 98.94359H17.8067M14.97179 113.07838H17.8067"/>
<path transform="matrix(1,0,0,-1.00006,1.4610005,143.15378)" stroke-width=".3985" stroke-linecap="butt" stroke-miterlimit="10" stroke-linejoin="miter" fill="none" stroke="#000000" d="M1.99252 14.1348H161.9"/>
<path transform="matrix(-1,-0,0,1.00006,3.4535204,129.01813)" d="M1.99252 0-1.19551 1.59401 0 0-1.19551-1.59401"/>
<path transform="matrix(1,0,0,-1.00006,163.361,129.01813)" d="M1.99252 0-1.19551 1.59401 0 0-1.19551-1.59401"/>
<path transform="matrix(1,0,0,-1.00006,1.4610005,143.15378)" stroke-width=".3985" stroke-linecap="butt" stroke-miterlimit="10" stroke-linejoin="miter" fill="none" stroke="#000000" d="M16.38925 1.99252V139.35547"/>
<path transform="matrix(0,1.00006,1,0,17.85025,141.16114)" d="M1.99252 0-1.19551 1.59401 0 0-1.19551-1.59401"/>
<path transform="matrix(0,-1.00006,-1,-0,17.85025,3.7899476)" d="M1.99252 0-1.19551 1.59401 0 0-1.19551-1.59401"/>
<g clip-path="url(#clip_1)">
<path transform="matrix(1,0,0,-1.00006,1.4610005,143.15378)" stroke-width=".99628" stroke-linecap="butt" stroke-miterlimit="10" stroke-linejoin="miter" fill="none" stroke="#9e0c0f" d="M8.02185 48.4206 6.82874 48.12671 13.65749 49.80933 20.48622 51.49193 27.31497 53.17451 34.1437 54.85712 40.97246 56.53972 47.80121 58.22232 54.62996 59.90492 61.45871 61.58754 68.28745 63.27014 75.1162 64.95274 81.94493 66.63536 88.77368 68.31796 95.60243 70.00056 102.43118 71.68315 109.25992 73.36575 116.08867 75.04836 122.91742 76.73096 129.74616 78.41357 136.5749 80.09618 143.40366 81.77878 150.2324 83.46138 157.06114 85.144 155.86804 84.85011"/>
<path transform="matrix(-.97093,.23924436,.23923,.9709882,10.166841,94.56174)" d="M7.39124 0 2.37614 1.6717 .70447 0 2.37614-1.6717Z" fill="#9e0c0f"/>
<path transform="matrix(-.97093,.23924436,.23923,.9709882,10.166841,94.56174)" stroke-width=".99628" stroke-linecap="butt" stroke-miterlimit="10" stroke-linejoin="miter" fill="none" stroke="#9e0c0f" d="M7.39124 0 2.37614 1.6717 .70447 0 2.37614-1.6717Z"/>
<path transform="matrix(.97093,-.23924436,-.23923,-.9709882,156.64504,58.46714)" d="M7.39124 0 2.37614 1.6717 .70447 0 2.37614-1.6717Z" fill="#9e0c0f"/>
<path transform="matrix(.97093,-.23924436,-.23923,-.9709882,156.64504,58.46714)" stroke-width=".99628" stroke-linecap="butt" stroke-miterlimit="10" stroke-linejoin="miter" fill="none" stroke="#9e0c0f" d="M7.39124 0 2.37614 1.6717 .70447 0 2.37614-1.6717Z"/>
<use data-text="y" xlink:href="#font_2_4" transform="matrix(9.672987,-2.3834959,-2.3833528,-9.673567,40.026285,80.70491)" fill="#9e0c0f"/>
<use data-text="=" xlink:href="#font_3_4" transform="matrix(9.672987,-2.3834959,-2.3833528,-9.673567,47.80246,78.7888)" fill="#9e0c0f"/>
<use data-text="m" xlink:href="#font_2_2" transform="matrix(9.672987,-2.3834959,-2.3833528,-9.673567,58.012758,76.2729)" fill="#9e0c0f"/>
<use data-text="(" xlink:href="#font_3_1" transform="matrix(9.672987,-2.3834959,-2.3833528,-9.673567,68.118198,73.78285)" fill="#9e0c0f"/>
<use data-text="x" xlink:href="#font_2_3" transform="matrix(9.672987,-2.3834959,-2.3833528,-9.673567,71.87958,72.85602)" fill="#9e0c0f"/>
<use data-text="&#x2212;" xlink:href="#font_4_1" transform="matrix(9.672987,-2.3834959,-2.3833528,-9.673567,79.55769,70.964069)" fill="#9e0c0f"/>
<use data-text="x" xlink:href="#font_2_3" transform="matrix(9.672987,-2.3834959,-2.3833528,-9.673567,89.23107,68.580478)" fill="#9e0c0f"/>
<use data-text="0" xlink:href="#font_5_1" transform="matrix(6.771072,-1.6684424,-1.6683422,-6.7714779,95.11696,68.66887)" fill="#9e0c0f"/>
<use data-text=")" xlink:href="#font_3_2" transform="matrix(9.672987,-2.3834959,-2.3833528,-9.673567,99.09863,66.14903)" fill="#9e0c0f"/>
<use data-text="+" xlink:href="#font_3_3" transform="matrix(9.672987,-2.3834959,-2.3833528,-9.673567,104.99915,64.695117)" fill="#9e0c0f"/>
<use data-text="y" xlink:href="#font_2_4" transform="matrix(9.672987,-2.3834959,-2.3833528,-9.673567,114.68303,62.30893)" fill="#9e0c0f"/>
<use data-text="0" xlink:href="#font_5_1" transform="matrix(6.771072,-1.6684424,-1.6683422,-6.7714779,119.78247,62.59111)" fill="#9e0c0f"/>
<path transform="matrix(1,0,0,-1.00006,1.4610005,143.15378)" stroke-width=".3985" stroke-linecap="butt" stroke-miterlimit="10" stroke-linejoin="miter" fill="none" stroke="#9e0c0f" d=""/>
<use data-text="(" xlink:href="#font_3_1" transform="matrix(9.9626,0,0,-9.963197,103.31601,83.4682)" fill="#9e0c0f"/>
<use data-text="x" xlink:href="#font_2_3" transform="matrix(9.9626,0,0,-9.963197,107.19,83.4682)" fill="#9e0c0f"/>
<use data-text="0" xlink:href="#font_5_1" transform="matrix(6.9738,0,0,-6.9742186,112.884,84.962299)" fill="#9e0c0f"/>
<use data-text="," xlink:href="#font_2_1" transform="matrix(9.9626,0,0,-9.963197,117.354007,83.4682)" fill="#9e0c0f"/>
<use data-text="y" xlink:href="#font_2_4" transform="matrix(9.9626,0,0,-9.963197,121.76744,83.4682)" fill="#9e0c0f"/>
<use data-text="0" xlink:href="#font_5_1" transform="matrix(6.9738,0,0,-6.9742186,126.66601,84.962299)" fill="#9e0c0f"/>
<use data-text=")" xlink:href="#font_3_2" transform="matrix(9.9626,0,0,-9.963197,131.13501,83.4682)" fill="#9e0c0f"/>
</g>
<path transform="matrix(1,0,0,-1.00006,1.4610005,143.15378)" d="M100.32806 70.674C100.32806 71.77446 99.43597 72.66655 98.33551 72.66655 97.23503 72.66655 96.34296 71.77446 96.34296 70.674 96.34296 69.57352 97.23503 68.68144 98.33551 68.68144 99.43597 68.68144 100.32806 69.57352 100.32806 70.674ZM98.33551 70.674" fill="#9e0c0f"/>
<path transform="matrix(1,0,0,-1.00006,1.4610005,143.15378)" stroke-width=".3985" stroke-linecap="butt" stroke-miterlimit="10" stroke-linejoin="miter" fill="none" stroke="#9e0c0f" d="M100.32806 70.674C100.32806 71.77446 99.43597 72.66655 98.33551 72.66655 97.23503 72.66655 96.34296 71.77446 96.34296 70.674 96.34296 69.57352 97.23503 68.68144 98.33551 68.68144 99.43597 68.68144 100.32806 69.57352 100.32806 70.674ZM98.33551 70.674"/>
<path transform="matrix(1,0,0,-1.00006,1.4610005,143.15378)" stroke-width=".3985" stroke-linecap="butt" stroke-miterlimit="10" stroke-linejoin="miter" fill="none" stroke="#9e0c0f" d=""/>
<use data-text="x" xlink:href="#font_2_3" transform="matrix(9.9626,0,0,-9.963197,156.14,125.49772)"/>
<use data-text="y" xlink:href="#font_2_4" transform="matrix(9.9626,0,0,-9.963197,21.37,9.606766)"/>
</svg>
