<svg xmlns="http://www.w3.org/2000/svg" xmlns:xlink="http://www.w3.org/1999/xlink" version="1.1" width="115" height="101" viewBox="0 0 115 101">
<defs>
<path id="font_1_1" d="M.69898989 .22743225C.71499636 .22743225 .7369995 .22743225 .7369995 .25042726 .7369995 .2734375 .71499636 .2734375 .69898989 .2734375H.12599182C.10998535 .2734375 .08799744 .2734375 .08799744 .25042726 .08799744 .22743225 .10998535 .22743225 .12599182 .22743225H.69898989Z"/>
<path id="font_2_9" d="M.13798523 .33073426C.13798523 .41377259 .14498902 .4868164 .18099976 .54782107 .21099854 .5978241 .2619934 .6390381 .32499696 .6390381 .34498597 .6390381 .3909912 .63601687 .4139862 .60084536 .36898805 .5988312 .36499024 .5648346 .36499024 .553833 .36499024 .5238342 .3880005 .50683596 .4119873 .50683596 .42999269 .50683596 .45899964 .51782229 .45899964 .5558319 .45899964 .615921 .4139862 .66503909 .32398988 .66503909 .18499756 .66503909 .04399109 .53282168 .04399109 .31672669 .04399109 .045532228 .16999817-.021484375 .2669983-.021484375 .31498719-.021484375 .36698915-.0084991459 .4119873 .03453064 .45199586 .07354736 .48599244 .11558533 .48599244 .20263672 .48599244 .33372499 .3869934 .42578126 .27598573 .42578126 .20399475 .42578126 .16099549 .37976075 .13798523 .33073426M.2669983 .008514404C.21398926 .008514404 .18099976 .045532228 .1659851 .07354736 .14299011 .11859131 .14099121 .18663025 .14099121 .22465515 .14099121 .32373048 .19499207 .3977661 .27198792 .3977661 .32199098 .3977661 .35198976 .37176515 .37098695 .33673097 .3919983 .29971314 .3919983 .25468446 .3919983 .2036438 .3919983 .15260315 .3919983 .10858154 .37199403 .07255554 .34599305 .026519776 .31098939 .008514404 .2669983 .008514404Z"/>
<path id="font_2_7" d="M.3939972 .6468048C.3939972 .6667938 .3939972 .6748047 .37298585 .6748047 .3600006 .6748047 .35899354 .6737976 .34899903 .65979006L.02999878 .197052V.1640625H.31199647V.08100891C.31199647 .04399109 .30899049 .032989503 .23199463 .032989503H.20899964V0C.2939911 .0029907227 .29599 .0029907227 .35299684 .0029907227 .4099884 .0029907227 .4119873 .0029907227 .49699403 0V.032989503H.47399903C.39698792 .032989503 .3939972 .04399109 .3939972 .08100891V.1640625H.5V.197052H.3939972V.6468048M.31900025 .5658417V.197052H.06498718L.31900025 .5658417Z"/>
<path id="font_2_5" d="M.28199769 .20405579C.2979889 .21907044 .33999635 .2520752 .35598756 .26608277 .41799928 .32312013 .47698976 .3781433 .47698976 .46917726 .47698976 .588089 .3769989 .66503909 .2519989 .66503909 .13198853 .66503909 .052993776 .57411196 .052993776 .48516847 .052993776 .4361725 .09199524 .4291687 .10598755 .4291687 .1269989 .4291687 .1579895 .4441681 .1579895 .48217774 .1579895 .5341797 .10798645 .5341797 .09599304 .5341797 .125 .6070709 .19198609 .6320343 .24099732 .6320343 .33399964 .6320343 .38198854 .55314639 .38198854 .46917726 .38198854 .36514283 .30899049 .28910829 .19099427 .16804505L.06498718 .037994386C.052993776 .026992798 .052993776 .024993897 .052993776 0H.44799806L.47698976 .17904663H.44599916C.44299317 .1590271 .43499757 .10900879 .4229889 .08999634 .4169922 .08198547 .34098817 .08198547 .32499696 .08198547H.14698792L.28199769 .20405579Z"/>
<path id="font_2_11" d="M.33198548 .36080934C.3880005 .38783265 .45599366 .4378662 .45599366 .5159302 .45599366 .6110077 .35899354 .66503909 .2659912 .66503909 .1599884 .66503909 .07398987 .59199526 .07398987 .49790956 .07398987 .46089173 .08699036 .42686463 .11199951 .39782716 .1289978 .3768158 .1329956 .3748169 .19499207 .3357849 .070999149 .2807312 .04399109 .20767212 .04399109 .15162659 .04399109 .041534425 .15499878-.021484375 .2639923-.021484375 .3869934-.021484375 .48599244 .061553956 .48599244 .16764832 .48599244 .23069763 .45199586 .2727356 .43598939 .28974916 .4189911 .30575563 .41799928 .3067627 .33198548 .36080934M.1769867 .45487977C.147995 .4718933 .12399292 .5009155 .12399292 .5359497 .12399292 .598999 .19299317 .6390381 .2639923 .6390381 .34199525 .6390381 .4059906 .5859833 .4059906 .5159302 .4059906 .45788575 .36099244 .408844 .3019867 .37982179L.1769867 .45487977M.22599793 .31776429C.22999573 .31576539 .34399415 .24571228 .36099244 .23469544 .3769989 .22569275 .42900086 .19366455 .42900086 .13360596 .42900086 .056549074 .34799195 .008514404 .2659912 .008514404 .1769867 .008514404 .100997928 .06956482 .100997928 .15162659 .100997928 .22668457 .15699768 .28573609 .22599793 .31776429Z"/>
<clipPath id="clip_3">
<path transform="matrix(1.00003,0,0,-1.00003,1.7796555,98.04356)" d="M0 0H111.58556V96.2428H0Z"/>
</clipPath>
<path id="font_2_1" d="M.33299256-.25C.34098817-.25 .35299684-.25 .35299684-.23800659 .35299684-.23400879 .35198976-.23300171 .33898927-.22000122 .20199585-.09100342 .16799927 .09498596 .16799927 .25 .16799927 .5379944 .2869873 .6729889 .33799745 .71899417 .35198976 .7319946 .35299684 .73298647 .35299684 .73799136 .35299684 .7429962 .34899903 .75 .33898927 .75 .32299806 .75 .272995 .69898989 .2649994 .6899872 .1309967 .5499878 .102996829 .36999513 .102996829 .25 .102996829 .025985718 .19699097-.15400696 .33299256-.25Z"/>
<path id="font_4_1" d="M.18699646 .01499939C.18699646-.050109865 .17298889-.10720825 .11099243-.16934204 .10699463-.17234802 .10499573-.17434693 .10499573-.17933655 .10499573-.18734741 .11299133-.19334412 .11999512-.19334412 .13198853-.19334412 .21499634-.114227298 .21499634 .0029907227 .21499634 .066986087 .19099427 .11099243 .14698792 .11099243 .11199951 .11099243 .09199524 .08299255 .09199524 .055999757 .09199524 .027999878 .11099243 0 .147995 0 .17199707 0 .18699646 .01399231 .18699646 .01499939Z"/>
<path id="font_2_12" d="M.3919983 .29478456C.3919983 .050704957 .27598573 .008514404 .21798706 .008514404 .19699097 .008514404 .14498902 .011520386 .117996219 .04270935 .1619873 .046707155 .16499329 .079711917 .16499329 .08970642 .16499329 .1197052 .14199829 .13671875 .117996219 .13671875 .099990848 .13671875 .070999149 .12571717 .070999149 .08770752 .070999149 .019577027 .1269989-.021484375 .21899414-.021484375 .35598756-.021484375 .48599244 .114715579 .48599244 .3287964 .48599244 .58898928 .37098695 .66503909 .2679901 .66503909 .1499939 .66503909 .04399109 .5729828 .04399109 .44187928 .04399109 .31278993 .14099121 .21875 .2539978 .21875 .32499696 .21875 .36799623 .26374818 .3919983 .31478883V.29478456M.2579956 .24674988C.21199036 .24674988 .18299866 .26776124 .16099549 .30477906 .13798523 .34181214 .13798523 .3898468 .13798523 .44088746 .13798523 .4999237 .13798523 .54196169 .16499329 .58299258 .18998719 .61901858 .22200012 .6390381 .2689972 .6390381 .33599855 .6390381 .36499024 .5729828 .36799623 .5679779 .3889923 .51893618 .3899994 .44088746 .3899994 .42086793 .3899994 .34181214 .34700013 .24674988 .2579956 .24674988Z"/>
<path id="font_2_2" d="M.30899049 .25C.30899049 .34500123 .29299928 .45899964 .23098755 .57699587 .18199158 .6689911 .09098816 .75 .07299805 .75 .06298828 .75 .05999756 .7429962 .05999756 .73799136 .05999756 .73399356 .05999756 .7319946 .07199097 .7200012 .21199036 .58699038 .24398804 .4039917 .24398804 .25 .24398804-.037002565 .125-.17300415 .07398987-.2190094 .06098938-.23200989 .05999756-.23300171 .05999756-.23800659 .05999756-.24301148 .06298828-.25 .07299805-.25 .08898926-.25 .13899231-.19900513 .14698792-.19000244 .2809906-.05000305 .30899049 .12998963 .30899049 .25Z"/>
<path id="font_2_4" d="M.31399537 .63708499C.31399537 .664032 .31199647 .66503909 .2849884 .66503909 .24398804 .6251831 .19099427 .6013489 .09599304 .6013489V.5683594C.12298584 .5683594 .1769867 .5683594 .23498535 .5953522V.08203125C.23498535 .04499817 .23199463 .032989503 .13699341 .032989503H.101989749V0C.14299011 .0029907227 .22898865 .0029907227 .27398683 .0029907227 .31900025 .0029907227 .4059906 .0029907227 .44699098 0V.032989503H.4119873C.31698609 .032989503 .31399537 .04499817 .31399537 .08203125V.63708499Z"/>
<path id="font_2_10" d="M.5059967 .608551C.5149994 .6195526 .5149994 .6215515 .5149994 .6435547H.26098634C.23599243 .6435547 .20498657 .64456179 .17999268 .64660647 .12799073 .65068057 .1269989 .6597748 .12399292 .67578127H.09298706L.05899048 .46453858H.08999634C.09199524 .47953797 .102996829 .54855349 .116989139 .5565491 .12799073 .56155398 .20298767 .56155398 .21798706 .56155398H.42999269L.32699586 .4235382C.21299744 .27153016 .18899536 .11351013 .18899536 .03451538 .18899536 .024505616 .18899536-.021484375 .23599243-.021484375 .2829895-.021484375 .2829895 .023513794 .2829895 .035507204V.08351135C.2829895 .2275238 .30699159 .34553529 .35598756 .41053773L.5059967 .608551Z"/>
<path id="font_2_3" d="M.4889984 .31877137C.4889984 .42585755 .47799684 .49090577 .44499208 .55496218 .40098573 .6430359 .31999208 .66503909 .2649994 .66503909 .13899231 .66503909 .09298706 .5709839 .07899475 .5429535 .042999269 .4698944 .040985109 .3708191 .040985109 .31877137 .040985109 .25271607 .04399109 .15162659 .09199524 .07156372 .13798523-.0024871827 .21199036-.021484375 .2649994-.021484375 .31298829-.021484375 .39898683-.0064849855 .44898988 .09257507 .48599244 .16464234 .4889984 .2537079 .4889984 .31877137M.2649994 .006515503C.23098755 .006515503 .1619873 .022521973 .14099121 .12760926 .12998963 .18466187 .12998963 .2787323 .12998963 .33078004 .12998963 .3998413 .12998963 .4698944 .14099121 .5249481 .1619873 .6270294 .23999024 .6370239 .2649994 .6370239 .29899598 .6370239 .36799623 .62002566 .3880005 .5289459 .3999939 .4738922 .3999939 .39883424 .3999939 .33078004 .3999939 .27172853 .3999939 .18165589 .3880005 .12561035 .36698915 .020523072 .2979889 .006515503 .2649994 .006515503Z"/>
<path id="font_2_8" d="M.13999939 .5618439C.15299988 .55784609 .19299317 .54785159 .23498535 .54785159 .3600006 .54785159 .43598939 .6358948 .43598939 .6510315 .43598939 .6620331 .42900086 .66503909 .42399598 .66503909 .42199708 .66503909 .41999818 .66503909 .41099549 .6600342 .37199403 .6450348 .32598878 .632843 .27198792 .632843 .21299744 .632843 .1639862 .6480255 .1329956 .6600342 .12298584 .66503909 .12098694 .66503909 .11999512 .66503909 .10699463 .66503909 .10699463 .6540375 .10699463 .6358948V.34292604C.10699463 .32492066 .10699463 .312912 .12298584 .312912 .1309967 .312912 .13398743 .3169098 .13899231 .32492066 .15098572 .33992005 .18899536 .39093019 .27398683 .39093019 .32998658 .39093019 .35699464 .34492494 .3659973 .32591249 .3829956 .28990174 .3849945 .24389649 .3849945 .20487976 .3849945 .1678772 .38398744 .11387634 .35598756 .069732669 .33699037 .039611818 .29699708 .008514404 .24398804 .008514404 .1789856 .008514404 .114990238 .0496521 .09199524 .11488342 .09498596 .11387634 .100997928 .11387634 .101989749 .11387634 .12998963 .11387634 .1519928 .13188172 .1519928 .16288758 .1519928 .19989014 .12298584 .21289063 .102996829 .21289063 .084991458 .21289063 .052993776 .20288086 .052993776 .15988159 .052993776 .069732669 .1309967-.021484375 .24598694-.021484375 .37098695-.021484375 .47698976 .07574463 .47698976 .19989014 .47698976 .31591798 .3929901 .4189453 .2749939 .4189453 .22499085 .4189453 .17799378 .40293885 .13999939 .368927V.5618439Z"/>
<path id="font_2_6" d="M.25299073 .33370973C.33198548 .33370973 .38198854 .27557374 .38198854 .17037964 .38198854 .045440675 .31098939 .008514404 .2579956 .008514404 .20298767 .008514404 .12799073 .0284729 .09298706 .08137512 .1289978 .08137512 .1539917 .10437012 .1539917 .13737488 .1539917 .16937256 .1309967 .19238281 .09899902 .19238281 .07199097 .19238281 .04399109 .17536927 .04399109 .13537598 .04399109 .04045105 .1459961-.021484375 .2599945-.021484375 .3929901-.021484375 .48599244 .070388797 .48599244 .17037964 .48599244 .25352479 .41999818 .32969667 .31799317 .3517456 .39698792 .37982179 .45599366 .4479828 .45599366 .52804568 .45599366 .6080475 .3659973 .66503909 .2619934 .66503909 .15499878 .66503909 .07398987 .6070404 .07398987 .53105166 .07398987 .49404908 .09899902 .4780426 .125 .4780426 .1559906 .4780426 .17599488 .5000458 .17599488 .52905276 .17599488 .56604006 .14399719 .5800476 .12199402 .5810547 .1639862 .6360321 .24099732 .6390381 .25898744 .6390381 .2849884 .6390381 .36099244 .6310272 .36099244 .52804568 .36099244 .45799256 .33198548 .41589356 .31799317 .39985658 .28799439 .36878968 .2649994 .36679078 .20399475 .3627777 .18499756 .36177064 .1769867 .36076356 .1769867 .3477478 .1769867 .33370973 .18598938 .33370973 .20298767 .33370973H.25299073Z"/>
<path id="font_4_2" d="M.5009918 .39942933C.45700074 .38842774 .45498658 .34942628 .45498658 .34542848 .45498658 .3234253 .47200013 .3084259 .49398805 .3084259 .5159912 .3084259 .5499878 .3254242 .5499878 .36842347 .5499878 .42539979 .4869995 .44140626 .44999696 .44140626 .40299989 .44140626 .36499024 .4084015 .34199525 .36943055 .31999208 .4223938 .2679901 .44140626 .22698975 .44140626 .117996219 .44140626 .056991579 .31643678 .056991579 .28840638 .056991579 .27938844 .06399536 .27539063 .07199097 .27539063 .083999637 .27539063 .085998538 .2803955 .08898926 .29240418 .11199951 .36543275 .17199707 .4133911 .22399903 .4133911 .2630005 .4133911 .28199769 .385437 .28199769 .34942628 .28199769 .32943727 .269989 .2834015 .2619934 .25135804 .25498963 .22232056 .23298645 .13320923 .22799683 .11419678 .21398926 .060195924 .17799378 .018234253 .1329956 .018234253 .1289978 .018234253 .102996829 .018234253 .08198547 .032196046 .12799073 .04319763 .12799073 .08518982 .12799073 .0861969 .12799073 .109191898 .10998535 .12319946 .08799744 .12319946 .06098938 .12319946 .03199768 .10018921 .03199768 .062194826 .03199768 .016220093 .08099365-.009765625 .13198853-.009765625 .18499756-.009765625 .22200012 .030197144 .23999024 .062194826 .2619934 .01322937 .30799867-.009765625 .35598756-.009765625 .46499635-.009765625 .5249939 .1151886 .5249939 .143219 .5249939 .15322876 .5169983 .15623474 .5099945 .15623474 .49798585 .15623474 .49598695 .14923096 .49299623 .13922119 .47299195 .07218933 .41600038 .018234253 .35798646 .018234253 .32499696 .018234253 .30099488 .04019165 .30099488 .0821991 .30099488 .10218811 .30699159 .12519837 .32099916 .18127442 .32798768 .21130371 .34999085 .29942323 .35499574 .31843568 .36898805 .37042237 .4039917 .4133911 .44898988 .4133911 .45399476 .4133911 .47999574 .4133911 .5009918 .39942933Z"/>
<path id="font_4_3" d="M.5179901 .37738038C.5219879 .39138795 .5219879 .39338685 .5219879 .40039063 .5219879 .42539979 .5019989 .43139649 .48999024 .43139649 .4850006 .43139649 .46199037 .43040467 .44898988 .40438844 .44699098 .3993988 .43798829 .3633728 .43299867 .34236146L.37298585 .102264408C.37199403 .09925842 .32899476 .018234253 .2559967 .018234253 .20698548 .018234253 .18998719 .054244996 .18998719 .09925842 .18998719 .1572876 .22399903 .24632263 .24699402 .3043518 .25698854 .32936097 .2599945 .33836366 .2599945 .35636903 .2599945 .4113922 .21598816 .44140626 .16999817 .44140626 .070999149 .44140626 .02999878 .300354 .02999878 .28834535 .02999878 .27934266 .036987306 .27534486 .04499817 .27534486 .057998659 .27534486 .05899048 .28134156 .06199646 .29135133 .08799744 .37838746 .1309967 .4133911 .16699219 .4133911 .18199158 .4133911 .19099427 .4033966 .19099427 .38038636 .19099427 .359375 .18299866 .33636476 .17599488 .31835938 .1349945 .21231079 .117996219 .1612854 .117996219 .11427307 .117996219 .016220093 .19198609-.009765625 .25099183-.009765625 .2979889-.009765625 .33198548 .011230469 .35598756 .034240724 .34199525-.021774292 .33198548-.060791017 .2939911-.108795169 .26098634-.14985657 .22099304-.17610169 .17599488-.17610169 .15899658-.17610169 .12098694-.17308045 .100997928-.14279175 .1539917-.13879395 .1579895-.09379578 .1579895-.08778381 .1579895-.06378174 .13999939-.05078125 .11898804-.05078125 .09700012-.05078125 .06199646-.0677948 .06199646-.11679077 .06199646-.1639862 .10499573-.20410156 .17599488-.20410156 .27799989-.20410156 .3929901-.121795658 .4229889-.00077819827L.5179901 .37738038Z"/>
</defs>
<path transform="matrix(1.00003,0,0,-1.00003,1.7796555,98.04356)" d="M0 0H111.58556V96.2428H0Z" fill="#fffac2"/>
<path transform="matrix(1.00003,0,0,-1.00003,1.7796555,98.04356)" stroke-width=".3985" stroke-linecap="butt" stroke-miterlimit="10" stroke-linejoin="miter" fill="none" stroke="#d5d6d5" d="M7.97038 0V96.2428M15.94078 0V96.2428M23.91118 0V96.2428M31.88158 0V96.2428M39.85197 0V96.2428M47.82237 0V96.2428M55.79277 0V96.2428M63.76317 0V96.2428M71.73357 0V96.2428M79.70396 0V96.2428M87.67436 0V96.2428M95.64476 0V96.2428M103.61516 0V96.2428"/>
<path transform="matrix(1.00003,0,0,-1.00003,1.7796555,98.04356)" stroke-width=".3985" stroke-linecap="butt" stroke-miterlimit="10" stroke-linejoin="miter" fill="none" stroke="#d5d6d5" d="M7.97038 0V96.2428M23.91118 0V96.2428M39.85197 0V96.2428M71.73357 0V96.2428M87.67436 0V96.2428M103.61516 0V96.2428"/>
<path transform="matrix(1.00003,0,0,-1.00003,1.7796555,98.04356)" stroke-width=".3985" stroke-linecap="butt" stroke-miterlimit="10" stroke-linejoin="miter" fill="none" stroke="#d5d6d5" d="M0 17.49869H111.58556M0 26.24803H111.58556M0 34.99738H111.58556M0 43.74672H111.58556M0 52.49608H111.58556M0 61.24542H111.58556M0 69.99477H111.58556M0 78.74411H111.58556M0 87.49345H111.58556"/>
<path transform="matrix(1.00003,0,0,-1.00003,1.7796555,98.04356)" stroke-width=".3985" stroke-linecap="butt" stroke-miterlimit="10" stroke-linejoin="miter" fill="none" stroke="#d5d6d5" d="M0 26.24803H111.58556M0 43.74672H111.58556M0 61.24542H111.58556M0 78.74411H111.58556"/>
<path transform="matrix(1.00003,0,0,-1.00003,1.7796555,98.04356)" stroke-width=".19925" stroke-linecap="butt" stroke-miterlimit="10" stroke-linejoin="miter" fill="none" stroke="#929292" d="M7.97038 7.33203V10.16664M15.94078 7.33203V10.16664M23.91118 7.33203V10.16664M31.88158 7.33203V10.16664M39.85197 7.33203V10.16664M47.82237 7.33203V10.16664M55.79277 7.33203V10.16664M63.76317 7.33203V10.16664M71.73357 7.33203V10.16664M79.70396 7.33203V10.16664M87.67436 7.33203V10.16664M95.64476 7.33203V10.16664M103.61516 7.33203V10.16664"/>
<path transform="matrix(1.00003,0,0,-1.00003,1.7796555,98.04356)" stroke-width=".19925" stroke-linecap="butt" stroke-miterlimit="10" stroke-linejoin="miter" fill="none" stroke="#929292" d="M7.97038 6.6236V10.87506M23.91118 6.6236V10.87506M39.85197 6.6236V10.87506M71.73357 6.6236V10.87506M87.67436 6.6236V10.87506M103.61516 6.6236V10.87506"/>
<path transform="matrix(1.00003,0,0,-1.00003,1.7796555,98.04356)" stroke-width=".19925" stroke-linecap="butt" stroke-miterlimit="10" stroke-linejoin="miter" fill="none" stroke="#929292" d="M54.3753 17.49869H57.21024M54.3753 26.24803H57.21024M54.3753 34.99738H57.21024M54.3753 43.74672H57.21024M54.3753 52.49608H57.21024M54.3753 61.24542H57.21024M54.3753 69.99477H57.21024M54.3753 78.74411H57.21024M54.3753 87.49345H57.21024"/>
<path transform="matrix(1.00003,0,0,-1.00003,1.7796555,98.04356)" stroke-width=".19925" stroke-linecap="butt" stroke-miterlimit="10" stroke-linejoin="miter" fill="none" stroke="#929292" d="M53.6668 26.24803H57.91875M53.6668 43.74672H57.91875M53.6668 61.24542H57.91875M53.6668 78.74411H57.91875"/>
<path transform="matrix(1.00003,0,0,-1.00003,1.7796555,98.04356)" stroke-width=".3985" stroke-linecap="butt" stroke-miterlimit="10" stroke-linejoin="miter" fill="none" stroke="#000000" d="M1.99252 8.74934H109.59303"/>
<path transform="matrix(-1.00003,-0,0,1.00003,3.7722355,89.29395)" d="M1.99252 0-1.19551 1.59401 0 0-1.19551-1.59401"/>
<path transform="matrix(1.00003,0,0,-1.00003,111.375988,89.29395)" d="M1.99252 0-1.19551 1.59401 0 0-1.19551-1.59401"/>
<path transform="matrix(1.00003,0,0,-1.00003,1.7796555,98.04356)" stroke-width=".3985" stroke-linecap="butt" stroke-miterlimit="10" stroke-linejoin="miter" fill="none" stroke="#000000" d="M55.79277 1.99252V94.25027"/>
<path transform="matrix(0,1.00003,1.00003,0,57.5741,96.05098)" d="M1.99252 0-1.19551 1.59401 0 0-1.19551-1.59401"/>
<path transform="matrix(0,-1.00003,-1.00003,-0,57.5741,3.7904587)" d="M1.99252 0-1.19551 1.59401 0 0-1.19551-1.59401"/>
<use data-text="&#x2212;" xlink:href="#font_1_1" transform="matrix(7.9703395,0,0,-7.9703395,4.339733,99.4116)"/>
<use data-text="6" xlink:href="#font_2_9" transform="matrix(7.9703395,0,0,-7.9703395,10.925932,99.4116)"/>
<use data-text="&#x2212;" xlink:href="#font_1_1" transform="matrix(7.9703395,0,0,-7.9703395,20.28121,99.4116)"/>
<use data-text="4" xlink:href="#font_2_7" transform="matrix(7.9703395,0,0,-7.9703395,26.867409,99.4116)"/>
<use data-text="&#x2212;" xlink:href="#font_1_1" transform="matrix(7.9703395,0,0,-7.9703395,36.22269,99.4116)"/>
<use data-text="2" xlink:href="#font_2_5" transform="matrix(7.9703395,0,0,-7.9703395,42.80889,99.4116)"/>
<use data-text="2" xlink:href="#font_2_5" transform="matrix(7.9703395,0,0,-7.9703395,71.39774,99.4116)"/>
<use data-text="4" xlink:href="#font_2_7" transform="matrix(7.9703395,0,0,-7.9703395,87.339229,99.4116)"/>
<use data-text="6" xlink:href="#font_2_9" transform="matrix(7.9703395,0,0,-7.9703395,103.28071,99.4116)"/>
<use data-text="2" xlink:href="#font_2_5" transform="matrix(7.9703395,0,0,-7.9703395,49.870103,74.36285)"/>
<use data-text="4" xlink:href="#font_2_7" transform="matrix(7.9703395,0,0,-7.9703395,49.870103,56.86332)"/>
<use data-text="6" xlink:href="#font_2_9" transform="matrix(7.9703395,0,0,-7.9703395,49.870103,39.3648)"/>
<use data-text="8" xlink:href="#font_2_11" transform="matrix(7.9703395,0,0,-7.9703395,49.870103,21.865265)"/>
<g clip-path="url(#clip_3)">
<path transform="matrix(1.00003,0,0,-1.00003,1.7796555,98.04356)" stroke-width=".3985" stroke-linecap="butt" stroke-miterlimit="10" stroke-linejoin="miter" fill="none" stroke="#9e0c0f" d=""/>
<use data-text="(" xlink:href="#font_2_1" transform="matrix(6.9025528,-3.9851697,-3.9851697,-6.9025528,18.153252,26.403466)" fill="#9e0c0f"/>
<use data-text="&#x2212;" xlink:href="#font_1_1" transform="matrix(6.9025528,-3.9851697,-3.9851697,-6.9025528,21.005173,24.756913)" fill="#9e0c0f"/>
<use data-text="2" xlink:href="#font_2_5" transform="matrix(6.9025528,-3.9851697,-3.9851697,-6.9025528,26.709023,21.463814)" fill="#9e0c0f"/>
<use data-text="," xlink:href="#font_4_1" transform="matrix(6.9025528,-3.9851697,-3.9851697,-6.9025528,30.37677,19.346253)" fill="#9e0c0f"/>
<use data-text="9" xlink:href="#font_2_12" transform="matrix(6.9025528,-3.9851697,-3.9851697,-6.9025528,33.635736,17.464692)" fill="#9e0c0f"/>
<use data-text=")" xlink:href="#font_2_2" transform="matrix(6.9025528,-3.9851697,-3.9851697,-6.9025528,37.300996,15.348564)" fill="#9e0c0f"/>
<path transform="matrix(1.00003,0,0,-1.00003,1.7796555,98.04356)" stroke-width=".3985" stroke-linecap="butt" stroke-miterlimit="10" stroke-linejoin="miter" fill="none" stroke="#9e0c0f" d=""/>
<use data-text="(" xlink:href="#font_2_1" transform="matrix(6.9025528,-3.9851697,-3.9851697,-6.9025528,26.124493,43.902994)" fill="#9e0c0f"/>
<use data-text="&#x2212;" xlink:href="#font_1_1" transform="matrix(6.9025528,-3.9851697,-3.9851697,-6.9025528,28.976414,42.25644)" fill="#9e0c0f"/>
<use data-text="1" xlink:href="#font_2_4" transform="matrix(6.9025528,-3.9851697,-3.9851697,-6.9025528,34.680265,38.96334)" fill="#9e0c0f"/>
<use data-text="," xlink:href="#font_4_1" transform="matrix(6.9025528,-3.9851697,-3.9851697,-6.9025528,38.34801,36.84578)" fill="#9e0c0f"/>
<use data-text="7" xlink:href="#font_2_10" transform="matrix(6.9025528,-3.9851697,-3.9851697,-6.9025528,41.606977,34.96422)" fill="#9e0c0f"/>
<use data-text=")" xlink:href="#font_2_2" transform="matrix(6.9025528,-3.9851697,-3.9851697,-6.9025528,45.272237,32.84809)" fill="#9e0c0f"/>
<path transform="matrix(1.00003,0,0,-1.00003,1.7796555,98.04356)" stroke-width=".3985" stroke-linecap="butt" stroke-miterlimit="10" stroke-linejoin="miter" fill="none" stroke="#9e0c0f" d=""/>
<use data-text="(" xlink:href="#font_2_1" transform="matrix(6.9025528,-3.9851697,-3.9851697,-6.9025528,61.04354,45.84305)" fill="#9e0c0f"/>
<use data-text="0" xlink:href="#font_2_3" transform="matrix(6.9025528,-3.9851697,-3.9851697,-6.9025528,63.894296,44.197168)" fill="#9e0c0f"/>
<use data-text="," xlink:href="#font_4_1" transform="matrix(6.9025528,-3.9851697,-3.9851697,-6.9025528,67.56235,42.07943)" fill="#9e0c0f"/>
<use data-text="5" xlink:href="#font_2_8" transform="matrix(6.9025528,-3.9851697,-3.9851697,-6.9025528,70.82218,40.197374)" fill="#9e0c0f"/>
<use data-text=")" xlink:href="#font_2_2" transform="matrix(6.9025528,-3.9851697,-3.9851697,-6.9025528,74.48744,38.081254)" fill="#9e0c0f"/>
<path transform="matrix(1.00003,0,0,-1.00003,1.7796555,98.04356)" stroke-width=".3985" stroke-linecap="butt" stroke-miterlimit="10" stroke-linejoin="miter" fill="none" stroke="#9e0c0f" d=""/>
<use data-text="(" xlink:href="#font_2_1" transform="matrix(6.9025528,-3.9851697,-3.9851697,-6.9025528,69.014789,63.342576)" fill="#9e0c0f"/>
<use data-text="1" xlink:href="#font_2_4" transform="matrix(6.9025528,-3.9851697,-3.9851697,-6.9025528,71.86554,61.696695)" fill="#9e0c0f"/>
<use data-text="," xlink:href="#font_4_1" transform="matrix(6.9025528,-3.9851697,-3.9851697,-6.9025528,75.533588,59.578958)" fill="#9e0c0f"/>
<use data-text="3" xlink:href="#font_2_6" transform="matrix(6.9025528,-3.9851697,-3.9851697,-6.9025528,78.79343,57.6969)" fill="#9e0c0f"/>
<use data-text=")" xlink:href="#font_2_2" transform="matrix(6.9025528,-3.9851697,-3.9851697,-6.9025528,82.45868,55.58078)" fill="#9e0c0f"/>
<path transform="matrix(1.00003,0,0,-1.00003,1.7796555,98.04356)" stroke-width=".3985" stroke-linecap="butt" stroke-miterlimit="10" stroke-linejoin="miter" fill="none" stroke="#9e0c0f" d=""/>
<use data-text="(" xlink:href="#font_2_1" transform="matrix(6.9025528,-3.9851697,-3.9851697,-6.9025528,76.985019,80.8421)" fill="#9e0c0f"/>
<use data-text="2" xlink:href="#font_2_5" transform="matrix(6.9025528,-3.9851697,-3.9851697,-6.9025528,79.83577,79.19622)" fill="#9e0c0f"/>
<use data-text="," xlink:href="#font_4_1" transform="matrix(6.9025528,-3.9851697,-3.9851697,-6.9025528,83.50383,77.07848)" fill="#9e0c0f"/>
<use data-text="1" xlink:href="#font_2_4" transform="matrix(6.9025528,-3.9851697,-3.9851697,-6.9025528,86.76366,75.19643)" fill="#9e0c0f"/>
<use data-text=")" xlink:href="#font_2_2" transform="matrix(6.9025528,-3.9851697,-3.9851697,-6.9025528,90.428928,73.08031)" fill="#9e0c0f"/>
</g>
<path transform="matrix(1.00003,0,0,-1.00003,1.7796555,98.04356)" d="M41.84453 87.49345C41.84453 88.59393 40.95245 89.48601 39.85197 89.48601 38.75151 89.48601 37.85942 88.59393 37.85942 87.49345 37.85942 86.39299 38.75151 85.5009 39.85197 85.5009 40.95245 85.5009 41.84453 86.39299 41.84453 87.49345ZM39.85197 87.49345" fill="#9e0c0f"/>
<path transform="matrix(1.00003,0,0,-1.00003,1.7796555,98.04356)" stroke-width=".3985" stroke-linecap="butt" stroke-miterlimit="10" stroke-linejoin="miter" fill="none" stroke="#9e0c0f" d="M41.84453 87.49345C41.84453 88.59393 40.95245 89.48601 39.85197 89.48601 38.75151 89.48601 37.85942 88.59393 37.85942 87.49345 37.85942 86.39299 38.75151 85.5009 39.85197 85.5009 40.95245 85.5009 41.84453 86.39299 41.84453 87.49345ZM39.85197 87.49345"/>
<path transform="matrix(1.00003,0,0,-1.00003,1.7796555,98.04356)" stroke-width=".3985" stroke-linecap="butt" stroke-miterlimit="10" stroke-linejoin="miter" fill="none" stroke="#9e0c0f" d=""/>
<path transform="matrix(1.00003,0,0,-1.00003,1.7796555,98.04356)" d="M49.81493 69.99477C49.81493 71.09523 48.92285 71.98732 47.82237 71.98732 46.72191 71.98732 45.82982 71.09523 45.82982 69.99477 45.82982 68.89429 46.72191 68.00221 47.82237 68.00221 48.92285 68.00221 49.81493 68.89429 49.81493 69.99477ZM47.82237 69.99477" fill="#9e0c0f"/>
<path transform="matrix(1.00003,0,0,-1.00003,1.7796555,98.04356)" stroke-width=".3985" stroke-linecap="butt" stroke-miterlimit="10" stroke-linejoin="miter" fill="none" stroke="#9e0c0f" d="M49.81493 69.99477C49.81493 71.09523 48.92285 71.98732 47.82237 71.98732 46.72191 71.98732 45.82982 71.09523 45.82982 69.99477 45.82982 68.89429 46.72191 68.00221 47.82237 68.00221 48.92285 68.00221 49.81493 68.89429 49.81493 69.99477ZM47.82237 69.99477"/>
<path transform="matrix(1.00003,0,0,-1.00003,1.7796555,98.04356)" stroke-width=".3985" stroke-linecap="butt" stroke-miterlimit="10" stroke-linejoin="miter" fill="none" stroke="#9e0c0f" d=""/>
<path transform="matrix(1.00003,0,0,-1.00003,1.7796555,98.04356)" d="M57.78532 52.49608C57.78532 53.59654 56.89325 54.48863 55.79277 54.48863 54.6923 54.48863 53.80022 53.59654 53.80022 52.49608 53.80022 51.3956 54.6923 50.50352 55.79277 50.50352 56.89325 50.50352 57.78532 51.3956 57.78532 52.49608ZM55.79277 52.49608" fill="#9e0c0f"/>
<path transform="matrix(1.00003,0,0,-1.00003,1.7796555,98.04356)" stroke-width=".3985" stroke-linecap="butt" stroke-miterlimit="10" stroke-linejoin="miter" fill="none" stroke="#9e0c0f" d="M57.78532 52.49608C57.78532 53.59654 56.89325 54.48863 55.79277 54.48863 54.6923 54.48863 53.80022 53.59654 53.80022 52.49608 53.80022 51.3956 54.6923 50.50352 55.79277 50.50352 56.89325 50.50352 57.78532 51.3956 57.78532 52.49608ZM55.79277 52.49608"/>
<path transform="matrix(1.00003,0,0,-1.00003,1.7796555,98.04356)" stroke-width=".3985" stroke-linecap="butt" stroke-miterlimit="10" stroke-linejoin="miter" fill="none" stroke="#9e0c0f" d=""/>
<path transform="matrix(1.00003,0,0,-1.00003,1.7796555,98.04356)" d="M65.75572 34.99738C65.75572 36.09785 64.86365 36.98993 63.76317 36.98993 62.6627 36.98993 61.77061 36.09785 61.77061 34.99738 61.77061 33.89691 62.6627 33.00482 63.76317 33.00482 64.86365 33.00482 65.75572 33.89691 65.75572 34.99738ZM63.76317 34.99738" fill="#9e0c0f"/>
<path transform="matrix(1.00003,0,0,-1.00003,1.7796555,98.04356)" stroke-width=".3985" stroke-linecap="butt" stroke-miterlimit="10" stroke-linejoin="miter" fill="none" stroke="#9e0c0f" d="M65.75572 34.99738C65.75572 36.09785 64.86365 36.98993 63.76317 36.98993 62.6627 36.98993 61.77061 36.09785 61.77061 34.99738 61.77061 33.89691 62.6627 33.00482 63.76317 33.00482 64.86365 33.00482 65.75572 33.89691 65.75572 34.99738ZM63.76317 34.99738"/>
<path transform="matrix(1.00003,0,0,-1.00003,1.7796555,98.04356)" stroke-width=".3985" stroke-linecap="butt" stroke-miterlimit="10" stroke-linejoin="miter" fill="none" stroke="#9e0c0f" d=""/>
<path transform="matrix(1.00003,0,0,-1.00003,1.7796555,98.04356)" d="M73.72612 17.49869C73.72612 18.59915 72.83405 19.49124 71.73357 19.49124 70.6331 19.49124 69.74101 18.59915 69.74101 17.49869 69.74101 16.39821 70.6331 15.50613 71.73357 15.50613 72.83405 15.50613 73.72612 16.39821 73.72612 17.49869ZM71.73357 17.49869" fill="#9e0c0f"/>
<path transform="matrix(1.00003,0,0,-1.00003,1.7796555,98.04356)" stroke-width=".3985" stroke-linecap="butt" stroke-miterlimit="10" stroke-linejoin="miter" fill="none" stroke="#9e0c0f" d="M73.72612 17.49869C73.72612 18.59915 72.83405 19.49124 71.73357 19.49124 70.6331 19.49124 69.74101 18.59915 69.74101 17.49869 69.74101 16.39821 70.6331 15.50613 71.73357 15.50613 72.83405 15.50613 73.72612 16.39821 73.72612 17.49869ZM71.73357 17.49869"/>
<path transform="matrix(1.00003,0,0,-1.00003,1.7796555,98.04356)" stroke-width=".3985" stroke-linecap="butt" stroke-miterlimit="10" stroke-linejoin="miter" fill="none" stroke="#9e0c0f" d=""/>
<use data-text="x" xlink:href="#font_4_2" transform="matrix(7.9703395,0,0,-7.9703395,105.74577,86.43821)"/>
<use data-text="y" xlink:href="#font_4_3" transform="matrix(7.9703395,0,0,-7.9703395,60.429418,8.085854)"/>
</svg>
