<svg xmlns="http://www.w3.org/2000/svg" xmlns:xlink="http://www.w3.org/1999/xlink" version="1.1" width="167" height="145" viewBox="0 0 167 145">
<defs>
<path id="font_1_1" d="M.69898989 .22743225C.71499636 .22743225 .7369995 .22743225 .7369995 .25042726 .7369995 .2734375 .71499636 .2734375 .69898989 .2734375H.12599182C.10998535 .2734375 .08799744 .2734375 .08799744 .25042726 .08799744 .22743225 .10998535 .22743225 .12599182 .22743225H.69898989Z"/>
<path id="font_2_2" d="M.31399537 .63708499C.31399537 .664032 .31199647 .66503909 .2849884 .66503909 .24398804 .6251831 .19099427 .6013489 .09599304 .6013489V.5683594C.12298584 .5683594 .1769867 .5683594 .23498535 .5953522V.08203125C.23498535 .04499817 .23199463 .032989503 .13699341 .032989503H.101989749V0C.14299011 .0029907227 .22898865 .0029907227 .27398683 .0029907227 .31900025 .0029907227 .4059906 .0029907227 .44699098 0V.032989503H.4119873C.31698609 .032989503 .31399537 .04499817 .31399537 .08203125V.63708499Z"/>
<path id="font_2_6" d="M.13999939 .5618439C.15299988 .55784609 .19299317 .54785159 .23498535 .54785159 .3600006 .54785159 .43598939 .6358948 .43598939 .6510315 .43598939 .6620331 .42900086 .66503909 .42399598 .66503909 .42199708 .66503909 .41999818 .66503909 .41099549 .6600342 .37199403 .6450348 .32598878 .632843 .27198792 .632843 .21299744 .632843 .1639862 .6480255 .1329956 .6600342 .12298584 .66503909 .12098694 .66503909 .11999512 .66503909 .10699463 .66503909 .10699463 .6540375 .10699463 .6358948V.34292604C.10699463 .32492066 .10699463 .312912 .12298584 .312912 .1309967 .312912 .13398743 .3169098 .13899231 .32492066 .15098572 .33992005 .18899536 .39093019 .27398683 .39093019 .32998658 .39093019 .35699464 .34492494 .3659973 .32591249 .3829956 .28990174 .3849945 .24389649 .3849945 .20487976 .3849945 .1678772 .38398744 .11387634 .35598756 .069732669 .33699037 .039611818 .29699708 .008514404 .24398804 .008514404 .1789856 .008514404 .114990238 .0496521 .09199524 .11488342 .09498596 .11387634 .100997928 .11387634 .101989749 .11387634 .12998963 .11387634 .1519928 .13188172 .1519928 .16288758 .1519928 .19989014 .12298584 .21289063 .102996829 .21289063 .084991458 .21289063 .052993776 .20288086 .052993776 .15988159 .052993776 .069732669 .1309967-.021484375 .24598694-.021484375 .37098695-.021484375 .47698976 .07574463 .47698976 .19989014 .47698976 .31591798 .3929901 .4189453 .2749939 .4189453 .22499085 .4189453 .17799378 .40293885 .13999939 .368927V.5618439Z"/>
<path id="font_2_1" d="M.4889984 .31877137C.4889984 .42585755 .47799684 .49090577 .44499208 .55496218 .40098573 .6430359 .31999208 .66503909 .2649994 .66503909 .13899231 .66503909 .09298706 .5709839 .07899475 .5429535 .042999269 .4698944 .040985109 .3708191 .040985109 .31877137 .040985109 .25271607 .04399109 .15162659 .09199524 .07156372 .13798523-.0024871827 .21199036-.021484375 .2649994-.021484375 .31298829-.021484375 .39898683-.0064849855 .44898988 .09257507 .48599244 .16464234 .4889984 .2537079 .4889984 .31877137M.2649994 .006515503C.23098755 .006515503 .1619873 .022521973 .14099121 .12760926 .12998963 .18466187 .12998963 .2787323 .12998963 .33078004 .12998963 .3998413 .12998963 .4698944 .14099121 .5249481 .1619873 .6270294 .23999024 .6370239 .2649994 .6370239 .29899598 .6370239 .36799623 .62002566 .3880005 .5289459 .3999939 .4738922 .3999939 .39883424 .3999939 .33078004 .3999939 .27172853 .3999939 .18165589 .3880005 .12561035 .36698915 .020523072 .2979889 .006515503 .2649994 .006515503Z"/>
<path id="font_2_3" d="M.28199769 .20405579C.2979889 .21907044 .33999635 .2520752 .35598756 .26608277 .41799928 .32312013 .47698976 .3781433 .47698976 .46917726 .47698976 .588089 .3769989 .66503909 .2519989 .66503909 .13198853 .66503909 .052993776 .57411196 .052993776 .48516847 .052993776 .4361725 .09199524 .4291687 .10598755 .4291687 .1269989 .4291687 .1579895 .4441681 .1579895 .48217774 .1579895 .5341797 .10798645 .5341797 .09599304 .5341797 .125 .6070709 .19198609 .6320343 .24099732 .6320343 .33399964 .6320343 .38198854 .55314639 .38198854 .46917726 .38198854 .36514283 .30899049 .28910829 .19099427 .16804505L.06498718 .037994386C.052993776 .026992798 .052993776 .024993897 .052993776 0H.44799806L.47698976 .17904663H.44599916C.44299317 .1590271 .43499757 .10900879 .4229889 .08999634 .4169922 .08198547 .34098817 .08198547 .32499696 .08198547H.14698792L.28199769 .20405579Z"/>
<path id="font_2_4" d="M.25299073 .33370973C.33198548 .33370973 .38198854 .27557374 .38198854 .17037964 .38198854 .045440675 .31098939 .008514404 .2579956 .008514404 .20298767 .008514404 .12799073 .0284729 .09298706 .08137512 .1289978 .08137512 .1539917 .10437012 .1539917 .13737488 .1539917 .16937256 .1309967 .19238281 .09899902 .19238281 .07199097 .19238281 .04399109 .17536927 .04399109 .13537598 .04399109 .04045105 .1459961-.021484375 .2599945-.021484375 .3929901-.021484375 .48599244 .070388797 .48599244 .17037964 .48599244 .25352479 .41999818 .32969667 .31799317 .3517456 .39698792 .37982179 .45599366 .4479828 .45599366 .52804568 .45599366 .6080475 .3659973 .66503909 .2619934 .66503909 .15499878 .66503909 .07398987 .6070404 .07398987 .53105166 .07398987 .49404908 .09899902 .4780426 .125 .4780426 .1559906 .4780426 .17599488 .5000458 .17599488 .52905276 .17599488 .56604006 .14399719 .5800476 .12199402 .5810547 .1639862 .6360321 .24099732 .6390381 .25898744 .6390381 .2849884 .6390381 .36099244 .6310272 .36099244 .52804568 .36099244 .45799256 .33198548 .41589356 .31799317 .39985658 .28799439 .36878968 .2649994 .36679078 .20399475 .3627777 .18499756 .36177064 .1769867 .36076356 .1769867 .3477478 .1769867 .33370973 .18598938 .33370973 .20298767 .33370973H.25299073Z"/>
<path id="font_2_5" d="M.3939972 .6468048C.3939972 .6667938 .3939972 .6748047 .37298585 .6748047 .3600006 .6748047 .35899354 .6737976 .34899903 .65979006L.02999878 .197052V.1640625H.31199647V.08100891C.31199647 .04399109 .30899049 .032989503 .23199463 .032989503H.20899964V0C.2939911 .0029907227 .29599 .0029907227 .35299684 .0029907227 .4099884 .0029907227 .4119873 .0029907227 .49699403 0V.032989503H.47399903C.39698792 .032989503 .3939972 .04399109 .3939972 .08100891V.1640625H.5V.197052H.3939972V.6468048M.31900025 .5658417V.197052H.06498718L.31900025 .5658417Z"/>
<clipPath id="clip_3">
<path transform="matrix(1.00006,0,0,-1.00006,1.4611073,143.1518)" d="M0 0H163.8872V141.34647H0Z"/>
</clipPath>
<path id="font_4_1" d="M.33099366-.2400055C.33099366-.23701477 .33099366-.23500061 .31399537-.21800232 .18899536-.0920105 .15699768 .09700012 .15699768 .25 .15699768 .42399598 .19499207 .59799197 .31799317 .72299197 .33099366 .73498538 .33099366 .7369995 .33099366 .73999026 .33099366 .746994 .32699586 .75 .32099916 .75 .31098939 .75 .22099304 .6819916 .1619873 .5549927 .11099243 .44499208 .09899902 .33399964 .09899902 .25 .09899902 .17199707 .10998535 .050994874 .16499329-.06201172 .22499085-.18501282 .31098939-.25 .32099916-.25 .32699586-.25 .33099366-.24700928 .33099366-.2400055Z"/>
<path id="font_5_1" d="M.6589966 .23046875C.6759949 .23046875 .69400027 .23046875 .69400027 .25045777 .69400027 .27046205 .6759949 .27046205 .6589966 .27046205H.117996219C.100997928 .27046205 .08299255 .27046205 .08299255 .25045777 .08299255 .23046875 .100997928 .23046875 .117996219 .23046875H.6589966Z"/>
<path id="font_4_8" d="M.44898988 .20022583C.44898988 .3193512 .36698915 .41944886 .25898744 .41944886 .21099854 .41944886 .16799927 .40345765 .13198853 .36842347V.5637665C.1519928 .5577698 .18499756 .55078127 .21699524 .55078127 .33999635 .55078127 .4099884 .6417694 .4099884 .6547699 .4099884 .6607666 .40699769 .6657715 .3999939 .6657715 .39898683 .6657715 .39698792 .6657715 .3919983 .66278079 .37199403 .6537781 .32299806 .6337738 .2559967 .6337738 .21598816 .6337738 .16999817 .6407776 .12298584 .6617737 .114990238 .66477969 .11299133 .66477969 .11099243 .66477969 .100997928 .66477969 .100997928 .6567688 .100997928 .6407776V.34439088C.100997928 .32637025 .100997928 .31835938 .114990238 .31835938 .12199402 .31835938 .12399292 .32136537 .12799073 .32736207 .13899231 .3433838 .17599488 .39746095 .25698854 .39746095 .30899049 .39746095 .33399964 .35139466 .34199525 .33337403 .35798646 .29632569 .3600006 .25727845 .3600006 .20722962 .3600006 .17222595 .3600006 .11222839 .33599855 .07035828 .31199647 .031463624 .2749939 .0055389406 .22898865 .0055389406 .1559906 .0055389406 .09899902 .058380128 .08198547 .11723328 .084991458 .1162262 .08799744 .115234378 .09899902 .115234378 .13198853 .115234378 .14898682 .14022827 .14898682 .16423035 .14898682 .18823242 .13198853 .21322632 .09899902 .21322632 .084991458 .21322632 .049987794 .20622254 .049987794 .16023255 .049987794 .07434082 .11898804-.022460938 .23098755-.022460938 .34700013-.022460938 .44898988 .073349 .44898988 .20022583Z"/>
<path id="font_6_1" d="M.20298767 .0009918213C.20298767 .066986087 .17799378 .10598755 .13899231 .10598755 .10598755 .10598755 .085998538 .08099365 .085998538 .052993776 .085998538 .025985718 .10598755 0 .13899231 0 .15098572 0 .1639862 .0039978029 .17399597 .0129852299 .1769867 .01499939 .17799378 .015991211 .1789856 .015991211 .17999268 .015991211 .18099976 .01499939 .18099976 .0009918213 .18099976-.07316589 .1459961-.13328552 .11299133-.16635132 .101989749-.17736817 .101989749-.17936707 .101989749-.18237305 .101989749-.18936157 .10699463-.19335938 .11199951-.19335938 .12298584-.19335938 .20298767-.116256717 .20298767 .0009918213Z"/>
<path id="font_4_7" d="M.2939911 .16503906V.07800293C.2939911 .041992189 .2919922 .0309906 .21798706 .0309906H.19699097V0C.23799134 .0029907227 .2899933 .0029907227 .33198548 .0029907227 .37399293 .0029907227 .4269867 .0029907227 .46798707 0V.0309906H.44699098C.37298585 .0309906 .37098695 .041992189 .37098695 .07800293V.16503906H.47099305V.19602967H.37098695V.65075686C.37098695 .67074587 .37098695 .6767578 .35499574 .6767578 .34599305 .6767578 .34298707 .6767578 .33499146 .66474917L.027999878 .19602967V.16503906H.2939911M.2999878 .19602967H.055999757L.2999878 .5688019V.19602967Z"/>
<path id="font_4_5" d="M.1269989 .07699585 .23298645 .18003845C.3889923 .31811524 .44898988 .3721466 .44898988 .47216798 .44898988 .5860901 .35899354 .6660156 .23699951 .6660156 .12399292 .6660156 .049987794 .57411196 .049987794 .48516847 .049987794 .4291687 .099990848 .4291687 .102996829 .4291687 .11999512 .4291687 .15499878 .44117738 .15499878 .48217774 .15499878 .5081787 .13699341 .5341797 .101989749 .5341797 .09399414 .5341797 .09199524 .5341797 .08898926 .5331726 .11199951 .59806826 .1659851 .63500979 .22399903 .63500979 .31498719 .63500979 .35798646 .5541382 .35798646 .47216798 .35798646 .39215089 .30799867 .31311036 .25299073 .25108338L.06098938 .036987306C.049987794 .025985718 .049987794 .023986817 .049987794 0H.42099L.44898988 .17404175H.42399598C.4189911 .14402771 .4119873 .1000061 .4019928 .084991458 .394989 .07699585 .32899476 .07699585 .30699159 .07699585H.1269989Z"/>
<path id="font_4_2" d="M.2889862 .25C.2889862 .32798768 .27799989 .44898988 .22299195 .56199648 .16299439 .68499758 .07699585 .75 .066986087 .75 .06098938 .75 .056991579 .74598696 .056991579 .73999026 .056991579 .7369995 .056991579 .73498538 .07598877 .71699526 .17399597 .6179962 .23098755 .45899964 .23098755 .25 .23098755 .07899475 .19400025-.09700012 .069992069-.2230072 .056991579-.23500061 .056991579-.23701477 .056991579-.2400055 .056991579-.2460022 .06098938-.25 .066986087-.25 .07699585-.25 .16699219-.18200684 .22599793-.055007936 .2769928 .054992677 .2889862 .16600037 .2889862 .25Z"/>
<path id="font_4_3" d="M.45999146 .31976319C.45999146 .39982606 .45498658 .47988893 .41999818 .5539398 .37399293 .65000918 .2919922 .6660156 .25 .6660156 .18998719 .6660156 .116989139 .64001467 .07598877 .54693606 .04399109 .47789 .038986207 .39982606 .038986207 .31976319 .038986207 .24472046 .042999269 .15464783 .083999637 .07859802 .1269989-.0024719239 .19999695-.022460938 .24899292-.022460938 .30299378-.022460938 .3789978-.0014648438 .4229889 .09359741 .45498658 .16265869 .45999146 .2407074 .45999146 .31976319M.24899292-.00047302247C.20999146-.00047302247 .15098572 .024551392 .1329956 .12062073 .12199402 .18066406 .12199402 .2727356 .12199402 .3317871 .12199402 .39582826 .12199402 .46188355 .12998963 .5159149 .14898682 .63500979 .22399903 .64401248 .24899292 .64401248 .28199769 .64401248 .34799195 .6259918 .36698915 .52693179 .3769989 .47088624 .3769989 .39482118 .3769989 .3317871 .3769989 .25672914 .3769989 .18867493 .3659973 .12461853 .35099793 .029556275 .2939911-.00047302247 .24899292-.00047302247Z"/>
<path id="font_4_6" d="M.2899933 .35191346C.37199403 .37893678 .42999269 .4490509 .42999269 .52809146 .42999269 .6100464 .34199525 .6660156 .24598694 .6660156 .14498902 .6660156 .068984989 .60606387 .068984989 .53009036 .068984989 .49710084 .09098816 .47808839 .11999512 .47808839 .15098572 .47808839 .17098999 .50009158 .17098999 .5290985 .17098999 .57910159 .12399292 .57910159 .10899353 .57910159 .13999939 .62802127 .20599365 .64100649 .24198914 .64100649 .2829895 .64100649 .33799745 .6190338 .33799745 .5290985 .33799745 .51708987 .33599855 .45906068 .30999757 .4149933 .27999879 .36691285 .24598694 .36390687 .22099304 .36291505 .21299744 .36190797 .18899536 .35990907 .18199158 .35990907 .17399597 .35890199 .16699219 .35791017 .16699219 .3479004 .16699219 .33691407 .17399597 .33691407 .19099427 .33691407H.23498535C.31698609 .33691407 .35398866 .2686615 .35398866 .17037964 .35398866 .034469606 .2849884 .0055389406 .24099732 .0055389406 .19799805 .0055389406 .12298584 .022491456 .08799744 .08137512 .12298584 .07637024 .1539917 .09837341 .1539917 .1363678 .1539917 .17237854 .1269989 .19238281 .09799194 .19238281 .07398987 .19238281 .041992189 .17837525 .041992189 .1343689 .041992189 .043441774 .1349945-.022460938 .24398804-.022460938 .3659973-.022460938 .45700074 .06838989 .45700074 .17037964 .45700074 .252594 .3939972 .33088685 .2899933 .35191346Z"/>
<path id="font_4_4" d="M.2939911 .64004519C.2939911 .66400149 .2939911 .6660156 .2709961 .6660156 .20899964 .60227969 .12098694 .60227969 .08898926 .60227969V.57128909C.10899353 .57128909 .16799927 .57128909 .21998596 .5972748V.07902527C.21998596 .042999269 .21699524 .0309906 .1269989 .0309906H.09498596V0C.12998963 .0029907227 .21699524 .0029907227 .25698854 .0029907227 .29699708 .0029907227 .38398744 .0029907227 .4189911 0V.0309906H.3869934C.29699708 .0309906 .2939911 .041992189 .2939911 .07902527V.64004519Z"/>
<path id="font_4_9" d="M.16299439 .4569702C.116989139 .486969 .11299133 .52098086 .11299133 .5379791 .11299133 .598999 .17799378 .64100649 .24899292 .64100649 .32199098 .64100649 .38598634 .58898928 .38598634 .51698306 .38598634 .45996095 .34700013 .4119568 .2869873 .37695313L.16299439 .4569702M.30899049 .36193849C.3809967 .3989563 .42999269 .45095826 .42999269 .51698306 .42999269 .6090088 .34098817 .6660156 .25 .6660156 .1499939 .6660156 .068984989 .59199526 .068984989 .49897767 .068984989 .4809723 .070999149 .43595887 .11299133 .38894654 .12399292 .37695313 .16099549 .35194398 .18598938 .33494569 .12799073 .30592347 .041992189 .24984741 .041992189 .15072632 .041992189 .04458618 .14399719-.022460938 .24899292-.022460938 .3619995-.022460938 .45700074 .06060791 .45700074 .16773987 .45700074 .20379639 .44599916 .24885559 .4079895 .2909088 .3889923 .31193543 .37298585 .3219452 .30899049 .36193849M.20899964 .3199463 .33198548 .24183655C.3600006 .2228241 .40699769 .19277954 .40699769 .13169861 .40699769 .05760193 .33198548 .0055389406 .25 .0055389406 .1639862 .0055389406 .09199524 .067611698 .09199524 .15072632 .09199524 .20880127 .12399292 .27288819 .20899964 .3199463Z"/>
<path id="font_6_2" d="M.33399964 .30233766C.33999635 .32835389 .36299134 .42037965 .43299867 .42037965 .43798829 .42037965 .46199037 .42037965 .48298646 .40734864 .45498658 .402359 .43499757 .37734986 .43499757 .35334779 .43499757 .33735658 .44599916 .31835938 .47299195 .31835938 .49499513 .31835938 .5269928 .3363495 .5269928 .37635804 .5269928 .42837525 .46798707 .4423828 .43399049 .4423828 .37599183 .4423828 .34098817 .38935853 .32899476 .36634828 .3039856 .43237306 .25 .4423828 .22099304 .4423828 .116989139 .4423828 .05999756 .3133545 .05999756 .28834535 .05999756 .27833558 .069992069 .27833558 .07199097 .27833558 .07998657 .27833558 .08299255 .28033448 .084991458 .28933717 .11898804 .39535523 .18499756 .42037965 .21899414 .42037965 .23799134 .42037965 .272995 .4113617 .272995 .35334779 .272995 .32235719 .2559967 .25532533 .21899414 .11528015 .20298767 .053268434 .16799927 .011245728 .12399292 .011245728 .117996219 .011245728 .09498596 .011245728 .07398987 .024276734 .09899902 .029266358 .12098694 .05027771 .12098694 .07827759 .12098694 .105270389 .09899902 .11328125 .083999637 .11328125 .053985597 .11328125 .0289917 .08728027 .0289917 .055267335 .0289917 .009246826 .07899475-.0107421879 .12298584-.0107421879 .18899536-.0107421879 .22499085 .059280397 .22799683 .0652771 .23999024 .028274537 .27598573-.0107421879 .33599855-.0107421879 .43899537-.0107421879 .49598695 .118270877 .49598695 .14328003 .49598695 .1532898 .4869995 .1532898 .48399354 .1532898 .47499085 .1532898 .47299195 .14929199 .47099305 .14228821 .43798829 .03527832 .36999513 .011245728 .33799745 .011245728 .29899598 .011245728 .2829895 .043273927 .2829895 .07727051 .2829895 .09927368 .2889862 .121276859 .2999878 .16529846L.33399964 .30233766Z"/>
<path id="font_6_3" d="M.48599244 .38136292C.48999024 .39537049 .48999024 .39736939 .48999024 .40437318 .48999024 .42237855 .47599793 .43138124 .46099855 .43138124 .45098878 .43138124 .43499757 .42536927 .42599488 .41036988 .42399598 .405365 .41600038 .37435914 .4119873 .35635377 .40499879 .33035279 .397995 .30334474 .3919983 .27633668L.34700013 .09628296C.34298707 .08126831 .2999878 .011245728 .23399353 .011245728 .18299866 .011245728 .17199707 .055267335 .17199707 .0922699 .17199707 .1382904 .18899536 .20030213 .22299195 .28833009 .23899842 .3293457 .24299622 .3403473 .24299622 .36035157 .24299622 .405365 .21099854 .4423828 .16099549 .4423828 .06599426 .4423828 .0289917 .29733277 .0289917 .28833009 .0289917 .27833558 .038986207 .27833558 .040985109 .27833558 .050994874 .27833558 .051986696 .28033448 .056991579 .29634095 .083999637 .3903656 .12399292 .42037965 .1579895 .42037965 .1659851 .42037965 .18299866 .42037965 .18299866 .3883667 .18299866 .36335755 .17298889 .3373413 .1659851 .31834413 .12599182 .21231079 .10798645 .1552887 .10798645 .10827637 .10798645 .019256592 .17098999-.0107421879 .22999573-.0107421879 .2689972-.0107421879 .30299378 .0062561037 .33099366 .03425598 .31799317-.017745972 .30599977-.06674194 .2659912-.11973572 .23999024-.15385437 .20199585-.18309021 .1559906-.18309021 .14199829-.18309021 .09700012-.18005371 .07998657-.14074707 .09599304-.14074707 .10899353-.14074707 .12298584-.1287384 .1329956-.11973572 .14299011-.10673523 .14299011-.08773804 .14299011-.056747438 .115997318-.052734376 .10598755-.052734376 .08299255-.052734376 .049987794-.068740848 .049987794-.11773682 .049987794-.16796875 .09399414-.20507813 .1559906-.20507813 .25898744-.20507813 .3619995-.11373901 .3899994-.00074768069L.48599244 .38136292Z"/>
</defs>
<path transform="matrix(1.00006,0,0,-1.00006,1.4611073,143.1518)" d="M0 0H163.8872V141.34647H0Z" fill="#fffac2"/>
<path transform="matrix(1.00006,0,0,-1.00006,1.4611073,143.1518)" stroke-width=".3985" stroke-linecap="butt" stroke-miterlimit="10" stroke-linejoin="miter" fill="none" stroke="#d5d6d5" d="M18.20969 0V141.34647M36.41937 0V141.34647M54.62906 0V141.34647M91.04845 0V141.34647M109.25813 0V141.34647M127.46782 0V141.34647M145.6775 0V141.34647"/>
<path transform="matrix(1.00006,0,0,-1.00006,1.4611073,143.1518)" stroke-width=".3985" stroke-linecap="butt" stroke-miterlimit="10" stroke-linejoin="miter" fill="none" stroke="#d5d6d5" d="M0 15.70515H163.8872M0 31.41032H163.8872M0 47.11548H163.8872M0 78.52582H163.8872M0 94.23097H163.8872M0 109.93614H163.8872M0 125.6413H163.8872"/>
<path transform="matrix(1.00006,0,0,-1.00006,1.4611073,143.1518)" stroke-width=".19925" stroke-linecap="butt" stroke-miterlimit="10" stroke-linejoin="miter" fill="none" stroke="#929292" d="M18.20969 60.69476V64.94652M36.41937 60.69476V64.94652M54.62906 60.69476V64.94652M91.04845 60.69476V64.94652M109.25813 60.69476V64.94652M127.46782 60.69476V64.94652M145.6775 60.69476V64.94652"/>
<path transform="matrix(1.00006,0,0,-1.00006,1.4611073,143.1518)" stroke-width=".19925" stroke-linecap="butt" stroke-miterlimit="10" stroke-linejoin="miter" fill="none" stroke="#929292" d="M70.7128 15.70515H74.96469M70.7128 31.41032H74.96469M70.7128 47.11548H74.96469M70.7128 78.52582H74.96469M70.7128 94.23097H74.96469M70.7128 109.93614H74.96469M70.7128 125.6413H74.96469"/>
<path transform="matrix(1.00006,0,0,-1.00006,1.4611073,143.1518)" stroke-width=".3985" stroke-linecap="butt" stroke-miterlimit="10" stroke-linejoin="miter" fill="none" stroke="#000000" d="M1.99252 62.82065H161.89469"/>
<path transform="matrix(-1.00006,-0,0,1.00006,3.4537469,80.32738)" d="M1.99252 0-1.19551 1.59401 0 0-1.19551-1.59401"/>
<path transform="matrix(1.00006,0,0,-1.00006,163.3655,80.32738)" d="M1.99252 0-1.19551 1.59401 0 0-1.19551-1.59401"/>
<path transform="matrix(1.00006,0,0,-1.00006,1.4611073,143.1518)" stroke-width=".3985" stroke-linecap="butt" stroke-miterlimit="10" stroke-linejoin="miter" fill="none" stroke="#000000" d="M72.83875 1.99252V139.35395"/>
<path transform="matrix(0,1.00006,1.00006,0,74.30422,141.15915)" d="M1.99252 0-1.19551 1.59401 0 0-1.19551-1.59401"/>
<path transform="matrix(0,-1.00006,-1.00006,-0,74.30422,3.7894898)" d="M1.99252 0-1.19551 1.59401 0 0-1.19551-1.59401"/>
<use data-text="&#x2212;" xlink:href="#font_1_1" transform="matrix(7.9705779,0,0,-7.9705779,12.143748,91.10967)"/>
<use data-text="1" xlink:href="#font_2_2" transform="matrix(7.9705779,0,0,-7.9705779,18.731144,91.10967)"/>
<use data-text="5" xlink:href="#font_2_6" transform="matrix(7.9705779,0,0,-7.9705779,22.96352,91.10967)"/>
<use data-text="&#x2212;" xlink:href="#font_1_1" transform="matrix(7.9705779,0,0,-7.9705779,30.35484,91.10967)"/>
<use data-text="1" xlink:href="#font_2_2" transform="matrix(7.9705779,0,0,-7.9705779,36.942235,91.10967)"/>
<use data-text="0" xlink:href="#font_2_1" transform="matrix(7.9705779,0,0,-7.9705779,41.17461,91.10967)"/>
<use data-text="&#x2212;" xlink:href="#font_1_1" transform="matrix(7.9705779,0,0,-7.9705779,50.68306,91.10967)"/>
<use data-text="5" xlink:href="#font_2_6" transform="matrix(7.9705779,0,0,-7.9705779,57.270456,91.10967)"/>
<use data-text="5" xlink:href="#font_2_6" transform="matrix(7.9705779,0,0,-7.9705779,90.39744,91.10967)"/>
<use data-text="1" xlink:href="#font_2_2" transform="matrix(7.9705779,0,0,-7.9705779,106.4914,91.10967)"/>
<use data-text="0" xlink:href="#font_2_1" transform="matrix(7.9705779,0,0,-7.9705779,110.723789,91.10967)"/>
<use data-text="1" xlink:href="#font_2_2" transform="matrix(7.9705779,0,0,-7.9705779,124.7025,91.10967)"/>
<use data-text="5" xlink:href="#font_2_6" transform="matrix(7.9705779,0,0,-7.9705779,128.93488,91.10967)"/>
<use data-text="2" xlink:href="#font_2_3" transform="matrix(7.9705779,0,0,-7.9705779,142.91259,91.10967)"/>
<use data-text="0" xlink:href="#font_2_1" transform="matrix(7.9705779,0,0,-7.9705779,147.14496,91.10967)"/>
<use data-text="&#x2212;" xlink:href="#font_1_1" transform="matrix(7.9705779,0,0,-7.9705779,55.493349,129.59899)"/>
<use data-text="3" xlink:href="#font_2_4" transform="matrix(7.9705779,0,0,-7.9705779,62.08074,129.59899)"/>
<use data-text="0" xlink:href="#font_2_1" transform="matrix(7.9705779,0,0,-7.9705779,66.31312,129.59899)"/>
<use data-text="&#x2212;" xlink:href="#font_1_1" transform="matrix(7.9705779,0,0,-7.9705779,55.493349,113.893039)"/>
<use data-text="2" xlink:href="#font_2_3" transform="matrix(7.9705779,0,0,-7.9705779,62.08074,113.893039)"/>
<use data-text="0" xlink:href="#font_2_1" transform="matrix(7.9705779,0,0,-7.9705779,66.31312,113.893039)"/>
<use data-text="&#x2212;" xlink:href="#font_1_1" transform="matrix(7.9705779,0,0,-7.9705779,55.493349,98.187099)"/>
<use data-text="1" xlink:href="#font_2_2" transform="matrix(7.9705779,0,0,-7.9705779,62.08074,98.187099)"/>
<use data-text="0" xlink:href="#font_2_1" transform="matrix(7.9705779,0,0,-7.9705779,66.31312,98.187099)"/>
<use data-text="1" xlink:href="#font_2_2" transform="matrix(7.9705779,0,0,-7.9705779,62.079744,67.18924)"/>
<use data-text="0" xlink:href="#font_2_1" transform="matrix(7.9705779,0,0,-7.9705779,66.31212,67.18924)"/>
<use data-text="2" xlink:href="#font_2_3" transform="matrix(7.9705779,0,0,-7.9705779,62.079744,51.4833)"/>
<use data-text="0" xlink:href="#font_2_1" transform="matrix(7.9705779,0,0,-7.9705779,66.31212,51.4833)"/>
<use data-text="3" xlink:href="#font_2_4" transform="matrix(7.9705779,0,0,-7.9705779,62.079744,35.77736)"/>
<use data-text="0" xlink:href="#font_2_1" transform="matrix(7.9705779,0,0,-7.9705779,66.31212,35.77736)"/>
<use data-text="4" xlink:href="#font_2_5" transform="matrix(7.9705779,0,0,-7.9705779,62.079744,20.071412)"/>
<use data-text="0" xlink:href="#font_2_1" transform="matrix(7.9705779,0,0,-7.9705779,66.31212,20.071412)"/>
<g clip-path="url(#clip_3)">
<path transform="matrix(1.00006,0,0,-1.00006,1.4611073,143.1518)" stroke-width=".99628" stroke-linecap="butt" stroke-miterlimit="10" stroke-linejoin="miter" fill="none" stroke="#9e0c0f" d="M48.23137 135.40013 47.54865 136.10672 52.60683 130.87195 57.66502 125.63718 62.72319 120.40244 67.78137 115.16766 72.83955 109.93295 77.89772 104.6982 82.95592 99.46336 88.0141 94.2286 93.07227 88.99387 98.13045 83.7591 103.18863 78.52434 108.24681 73.28957 113.305 68.0548 118.36317 62.82004 123.42134 57.58527 128.47953 52.35051 133.53772 47.11574 138.59589 41.88097 143.65407 36.64621 148.71225 31.41144 153.77042 26.1767 158.8286 20.94193 158.14589 21.64851"/>
<path transform="matrix(-.6948917,-.7191631,-.7191631,.6948917,50.18492,8.250183)" d="M7.39124 0 2.37614 1.6717 .70447 0 2.37614-1.6717Z" fill="#9e0c0f"/>
<path transform="matrix(-.6948917,-.7191631,-.7191631,.6948917,50.18492,8.250183)" stroke-width=".99628" stroke-linecap="butt" stroke-miterlimit="10" stroke-linejoin="miter" fill="none" stroke="#9e0c0f" d="M7.39124 0 2.37614 1.6717 .70447 0 2.37614-1.6717Z"/>
<path transform="matrix(.6948917,.7191631,.7191631,-.6948917,159.12694,120.99536)" d="M7.39124 0 2.37614 1.6717 .70447 0 2.37614-1.6717Z" fill="#9e0c0f"/>
<path transform="matrix(.6948917,.7191631,.7191631,-.6948917,159.12694,120.99536)" stroke-width=".99628" stroke-linecap="butt" stroke-miterlimit="10" stroke-linejoin="miter" fill="none" stroke="#9e0c0f" d="M7.39124 0 2.37614 1.6717 .70447 0 2.37614-1.6717Z"/>
<path transform="matrix(1.00006,0,0,-1.00006,1.4611073,143.1518)" stroke-width=".3985" stroke-linecap="butt" stroke-miterlimit="10" stroke-linejoin="miter" fill="none" stroke="#9e0c0f" d=""/>
<use data-text="(" xlink:href="#font_4_1" transform="matrix(9.963197,0,0,-9.963197,17.701083,25.354737)" fill="#9e0c0f"/>
<use data-text="&#x2212;" xlink:href="#font_5_1" transform="matrix(9.963197,0,0,-9.963197,21.575314,25.354737)" fill="#9e0c0f"/>
<use data-text="5" xlink:href="#font_4_8" transform="matrix(9.963197,0,0,-9.963197,29.32478,25.354737)" fill="#9e0c0f"/>
<use data-text="," xlink:href="#font_6_1" transform="matrix(9.963197,0,0,-9.963197,34.306077,25.354737)" fill="#9e0c0f"/>
<use data-text="4" xlink:href="#font_4_7" transform="matrix(9.963197,0,0,-9.963197,38.734346,25.354737)" fill="#9e0c0f"/>
<use data-text="2" xlink:href="#font_4_5" transform="matrix(9.963197,0,0,-9.963197,43.715944,25.354737)" fill="#9e0c0f"/>
<use data-text=")" xlink:href="#font_4_2" transform="matrix(9.963197,0,0,-9.963197,48.697546,25.354737)" fill="#9e0c0f"/>
<path transform="matrix(1.00006,0,0,-1.00006,1.4611073,143.1518)" stroke-width=".3985" stroke-linecap="butt" stroke-miterlimit="10" stroke-linejoin="miter" fill="none" stroke="#9e0c0f" d=""/>
<use data-text="(" xlink:href="#font_4_1" transform="matrix(9.963197,0,0,-9.963197,77.824687,27.197846)" fill="#9e0c0f"/>
<use data-text="0" xlink:href="#font_4_3" transform="matrix(9.963197,0,0,-9.963197,81.69041,27.197846)" fill="#9e0c0f"/>
<use data-text="," xlink:href="#font_6_1" transform="matrix(9.963197,0,0,-9.963197,86.68121,27.197846)" fill="#9e0c0f"/>
<use data-text="3" xlink:href="#font_4_6" transform="matrix(9.963197,0,0,-9.963197,91.10948,27.197846)" fill="#9e0c0f"/>
<use data-text="0" xlink:href="#font_4_3" transform="matrix(9.963197,0,0,-9.963197,96.09108,27.197846)" fill="#9e0c0f"/>
<use data-text=")" xlink:href="#font_4_2" transform="matrix(9.963197,0,0,-9.963197,101.07268,27.197846)" fill="#9e0c0f"/>
<path transform="matrix(1.00006,0,0,-1.00006,1.4611073,143.1518)" stroke-width=".3985" stroke-linecap="butt" stroke-miterlimit="10" stroke-linejoin="miter" fill="none" stroke="#9e0c0f" d=""/>
<use data-text="(" xlink:href="#font_4_1" transform="matrix(9.963197,0,0,-9.963197,103.77424,119.591388)" fill="#9e0c0f"/>
<use data-text="2" xlink:href="#font_4_5" transform="matrix(9.963197,0,0,-9.963197,107.63996,119.591388)" fill="#9e0c0f"/>
<use data-text="0" xlink:href="#font_4_3" transform="matrix(9.963197,0,0,-9.963197,112.62156,119.591388)" fill="#9e0c0f"/>
<use data-text="," xlink:href="#font_6_1" transform="matrix(9.963197,0,0,-9.963197,117.612079,119.591388)" fill="#9e0c0f"/>
<use data-text="&#x2212;" xlink:href="#font_5_1" transform="matrix(9.963197,0,0,-9.963197,122.04034,119.591388)" fill="#9e0c0f"/>
<use data-text="1" xlink:href="#font_4_4" transform="matrix(9.963197,0,0,-9.963197,129.7898,119.591388)" fill="#9e0c0f"/>
<use data-text="8" xlink:href="#font_4_9" transform="matrix(9.963197,0,0,-9.963197,134.77141,119.591388)" fill="#9e0c0f"/>
<use data-text=")" xlink:href="#font_4_2" transform="matrix(9.963197,0,0,-9.963197,139.753,119.591388)" fill="#9e0c0f"/>
</g>
<path transform="matrix(1.00006,0,0,-1.00006,1.4611073,143.1518)" d="M56.62161 128.78234C56.62161 129.88282 55.72954 130.77489 54.62906 130.77489 53.5286 130.77489 52.6365 129.88282 52.6365 128.78234 52.6365 127.68187 53.5286 126.78978 54.62906 126.78978 55.72954 126.78978 56.62161 127.68187 56.62161 128.78234ZM54.62906 128.78234" fill="#9e0c0f"/>
<path transform="matrix(1.00006,0,0,-1.00006,1.4611073,143.1518)" stroke-width=".3985" stroke-linecap="butt" stroke-miterlimit="10" stroke-linejoin="miter" fill="none" stroke="#9e0c0f" d="M56.62161 128.78234C56.62161 129.88282 55.72954 130.77489 54.62906 130.77489 53.5286 130.77489 52.6365 129.88282 52.6365 128.78234 52.6365 127.68187 53.5286 126.78978 54.62906 126.78978 55.72954 126.78978 56.62161 127.68187 56.62161 128.78234ZM54.62906 128.78234"/>
<path transform="matrix(1.00006,0,0,-1.00006,1.4611073,143.1518)" stroke-width=".3985" stroke-linecap="butt" stroke-miterlimit="10" stroke-linejoin="miter" fill="none" stroke="#9e0c0f" d=""/>
<path transform="matrix(1.00006,0,0,-1.00006,1.4611073,143.1518)" d="M74.8313 109.93614C74.8313 111.0366 73.93922 111.9287 72.83875 111.9287 71.73828 111.9287 70.84619 111.0366 70.84619 109.93614 70.84619 108.83566 71.73828 107.94359 72.83875 107.94359 73.93922 107.94359 74.8313 108.83566 74.8313 109.93614ZM72.83875 109.93614" fill="#9e0c0f"/>
<path transform="matrix(1.00006,0,0,-1.00006,1.4611073,143.1518)" stroke-width=".3985" stroke-linecap="butt" stroke-miterlimit="10" stroke-linejoin="miter" fill="none" stroke="#9e0c0f" d="M74.8313 109.93614C74.8313 111.0366 73.93922 111.9287 72.83875 111.9287 71.73828 111.9287 70.84619 111.0366 70.84619 109.93614 70.84619 108.83566 71.73828 107.94359 72.83875 107.94359 73.93922 107.94359 74.8313 108.83566 74.8313 109.93614ZM72.83875 109.93614"/>
<path transform="matrix(1.00006,0,0,-1.00006,1.4611073,143.1518)" stroke-width=".3985" stroke-linecap="butt" stroke-miterlimit="10" stroke-linejoin="miter" fill="none" stroke="#9e0c0f" d=""/>
<path transform="matrix(1.00006,0,0,-1.00006,1.4611073,143.1518)" d="M147.67006 34.55135C147.67006 35.65182 146.77799 36.5439 145.6775 36.5439 144.57704 36.5439 143.68495 35.65182 143.68495 34.55135 143.68495 33.45088 144.57704 32.55879 145.6775 32.55879 146.77799 32.55879 147.67006 33.45088 147.67006 34.55135ZM145.6775 34.55135" fill="#9e0c0f"/>
<path transform="matrix(1.00006,0,0,-1.00006,1.4611073,143.1518)" stroke-width=".3985" stroke-linecap="butt" stroke-miterlimit="10" stroke-linejoin="miter" fill="none" stroke="#9e0c0f" d="M147.67006 34.55135C147.67006 35.65182 146.77799 36.5439 145.6775 36.5439 144.57704 36.5439 143.68495 35.65182 143.68495 34.55135 143.68495 33.45088 144.57704 32.55879 145.6775 32.55879 146.77799 32.55879 147.67006 33.45088 147.67006 34.55135ZM145.6775 34.55135"/>
<path transform="matrix(1.00006,0,0,-1.00006,1.4611073,143.1518)" stroke-width=".3985" stroke-linecap="butt" stroke-miterlimit="10" stroke-linejoin="miter" fill="none" stroke="#9e0c0f" d=""/>
<use data-text="x" xlink:href="#font_6_2" transform="matrix(9.963197,0,0,-9.963197,156.14339,76.80782)"/>
<use data-text="y" xlink:href="#font_6_3" transform="matrix(9.963197,0,0,-9.963197,77.824687,9.606781)"/>
</svg>
