<svg xmlns="http://www.w3.org/2000/svg" xmlns:xlink="http://www.w3.org/1999/xlink" version="1.1" width="115" height="100" viewBox="0 0 115 100">
<defs>
<path id="font_1_1" d="M.69898989 .22743225C.71499636 .22743225 .7369995 .22743225 .7369995 .25042726 .7369995 .2734375 .71499636 .2734375 .69898989 .2734375H.12599182C.10998535 .2734375 .08799744 .2734375 .08799744 .25042726 .08799744 .22743225 .10998535 .22743225 .12599182 .22743225H.69898989Z"/>
<path id="font_2_3" d="M.13798523 .33073426C.13798523 .41377259 .14498902 .4868164 .18099976 .54782107 .21099854 .5978241 .2619934 .6390381 .32499696 .6390381 .34498597 .6390381 .3909912 .63601687 .4139862 .60084536 .36898805 .5988312 .36499024 .5648346 .36499024 .553833 .36499024 .5238342 .3880005 .50683596 .4119873 .50683596 .42999269 .50683596 .45899964 .51782229 .45899964 .5558319 .45899964 .615921 .4139862 .66503909 .32398988 .66503909 .18499756 .66503909 .04399109 .53282168 .04399109 .31672669 .04399109 .045532228 .16999817-.021484375 .2669983-.021484375 .31498719-.021484375 .36698915-.0084991459 .4119873 .03453064 .45199586 .07354736 .48599244 .11558533 .48599244 .20263672 .48599244 .33372499 .3869934 .42578126 .27598573 .42578126 .20399475 .42578126 .16099549 .37976075 .13798523 .33073426M.2669983 .008514404C.21398926 .008514404 .18099976 .045532228 .1659851 .07354736 .14299011 .11859131 .14099121 .18663025 .14099121 .22465515 .14099121 .32373048 .19499207 .3977661 .27198792 .3977661 .32199098 .3977661 .35198976 .37176515 .37098695 .33673097 .3919983 .29971314 .3919983 .25468446 .3919983 .2036438 .3919983 .15260315 .3919983 .10858154 .37199403 .07255554 .34599305 .026519776 .31098939 .008514404 .2669983 .008514404Z"/>
<path id="font_2_2" d="M.3939972 .6468048C.3939972 .6667938 .3939972 .6748047 .37298585 .6748047 .3600006 .6748047 .35899354 .6737976 .34899903 .65979006L.02999878 .197052V.1640625H.31199647V.08100891C.31199647 .04399109 .30899049 .032989503 .23199463 .032989503H.20899964V0C.2939911 .0029907227 .29599 .0029907227 .35299684 .0029907227 .4099884 .0029907227 .4119873 .0029907227 .49699403 0V.032989503H.47399903C.39698792 .032989503 .3939972 .04399109 .3939972 .08100891V.1640625H.5V.197052H.3939972V.6468048M.31900025 .5658417V.197052H.06498718L.31900025 .5658417Z"/>
<path id="font_2_1" d="M.28199769 .20405579C.2979889 .21907044 .33999635 .2520752 .35598756 .26608277 .41799928 .32312013 .47698976 .3781433 .47698976 .46917726 .47698976 .588089 .3769989 .66503909 .2519989 .66503909 .13198853 .66503909 .052993776 .57411196 .052993776 .48516847 .052993776 .4361725 .09199524 .4291687 .10598755 .4291687 .1269989 .4291687 .1579895 .4441681 .1579895 .48217774 .1579895 .5341797 .10798645 .5341797 .09599304 .5341797 .125 .6070709 .19198609 .6320343 .24099732 .6320343 .33399964 .6320343 .38198854 .55314639 .38198854 .46917726 .38198854 .36514283 .30899049 .28910829 .19099427 .16804505L.06498718 .037994386C.052993776 .026992798 .052993776 .024993897 .052993776 0H.44799806L.47698976 .17904663H.44599916C.44299317 .1590271 .43499757 .10900879 .4229889 .08999634 .4169922 .08198547 .34098817 .08198547 .32499696 .08198547H.14698792L.28199769 .20405579Z"/>
<clipPath id="clip_3">
<path transform="matrix(1.00005,0,0,-1.00002,2.0219517,98.042369)" d="M0 0H111.58556V96.2428H0Z"/>
</clipPath>
<path id="font_4_1" d="M.33399964 .30233766C.33999635 .32835389 .36299134 .42037965 .43299867 .42037965 .43798829 .42037965 .46199037 .42037965 .48298646 .40734864 .45498658 .402359 .43499757 .37734986 .43499757 .35334779 .43499757 .33735658 .44599916 .31835938 .47299195 .31835938 .49499513 .31835938 .5269928 .3363495 .5269928 .37635804 .5269928 .42837525 .46798707 .4423828 .43399049 .4423828 .37599183 .4423828 .34098817 .38935853 .32899476 .36634828 .3039856 .43237306 .25 .4423828 .22099304 .4423828 .116989139 .4423828 .05999756 .3133545 .05999756 .28834535 .05999756 .27833558 .069992069 .27833558 .07199097 .27833558 .07998657 .27833558 .08299255 .28033448 .084991458 .28933717 .11898804 .39535523 .18499756 .42037965 .21899414 .42037965 .23799134 .42037965 .272995 .4113617 .272995 .35334779 .272995 .32235719 .2559967 .25532533 .21899414 .11528015 .20298767 .053268434 .16799927 .011245728 .12399292 .011245728 .117996219 .011245728 .09498596 .011245728 .07398987 .024276734 .09899902 .029266358 .12098694 .05027771 .12098694 .07827759 .12098694 .105270389 .09899902 .11328125 .083999637 .11328125 .053985597 .11328125 .0289917 .08728027 .0289917 .055267335 .0289917 .009246826 .07899475-.0107421879 .12298584-.0107421879 .18899536-.0107421879 .22499085 .059280397 .22799683 .0652771 .23999024 .028274537 .27598573-.0107421879 .33599855-.0107421879 .43899537-.0107421879 .49598695 .118270877 .49598695 .14328003 .49598695 .1532898 .4869995 .1532898 .48399354 .1532898 .47499085 .1532898 .47299195 .14929199 .47099305 .14228821 .43798829 .03527832 .36999513 .011245728 .33799745 .011245728 .29899598 .011245728 .2829895 .043273927 .2829895 .07727051 .2829895 .09927368 .2889862 .121276859 .2999878 .16529846L.33399964 .30233766Z"/>
<path id="font_4_2" d="M.48599244 .38136292C.48999024 .39537049 .48999024 .39736939 .48999024 .40437318 .48999024 .42237855 .47599793 .43138124 .46099855 .43138124 .45098878 .43138124 .43499757 .42536927 .42599488 .41036988 .42399598 .405365 .41600038 .37435914 .4119873 .35635377 .40499879 .33035279 .397995 .30334474 .3919983 .27633668L.34700013 .09628296C.34298707 .08126831 .2999878 .011245728 .23399353 .011245728 .18299866 .011245728 .17199707 .055267335 .17199707 .0922699 .17199707 .1382904 .18899536 .20030213 .22299195 .28833009 .23899842 .3293457 .24299622 .3403473 .24299622 .36035157 .24299622 .405365 .21099854 .4423828 .16099549 .4423828 .06599426 .4423828 .0289917 .29733277 .0289917 .28833009 .0289917 .27833558 .038986207 .27833558 .040985109 .27833558 .050994874 .27833558 .051986696 .28033448 .056991579 .29634095 .083999637 .3903656 .12399292 .42037965 .1579895 .42037965 .1659851 .42037965 .18299866 .42037965 .18299866 .3883667 .18299866 .36335755 .17298889 .3373413 .1659851 .31834413 .12599182 .21231079 .10798645 .1552887 .10798645 .10827637 .10798645 .019256592 .17098999-.0107421879 .22999573-.0107421879 .2689972-.0107421879 .30299378 .0062561037 .33099366 .03425598 .31799317-.017745972 .30599977-.06674194 .2659912-.11973572 .23999024-.15385437 .20199585-.18309021 .1559906-.18309021 .14199829-.18309021 .09700012-.18005371 .07998657-.14074707 .09599304-.14074707 .10899353-.14074707 .12298584-.1287384 .1329956-.11973572 .14299011-.10673523 .14299011-.08773804 .14299011-.056747438 .115997318-.052734376 .10598755-.052734376 .08299255-.052734376 .049987794-.068740848 .049987794-.11773682 .049987794-.16796875 .09399414-.20507813 .1559906-.20507813 .25898744-.20507813 .3619995-.11373901 .3899994-.00074768069L.48599244 .38136292Z"/>
</defs>
<path transform="matrix(1.00005,0,0,-1.00002,2.0219517,98.042369)" d="M0 0H111.58556V96.2428H0Z" fill="#fffac2"/>
<path transform="matrix(1.00005,0,0,-1.00002,2.0219517,98.042369)" stroke-width=".3985" stroke-linecap="butt" stroke-miterlimit="10" stroke-linejoin="miter" fill="none" stroke="#d5d6d5" d="M0 0V96.2428M7.97038 0V96.2428M15.94078 0V96.2428M23.91118 0V96.2428M31.88158 0V96.2428M39.85197 0V96.2428M47.82237 0V96.2428M55.79277 0V96.2428M63.76317 0V96.2428M71.73357 0V96.2428M79.70396 0V96.2428M87.67436 0V96.2428M95.64476 0V96.2428M103.61516 0V96.2428M111.58556 0V96.2428"/>
<path transform="matrix(1.00005,0,0,-1.00002,2.0219517,98.042369)" stroke-width=".3985" stroke-linecap="butt" stroke-miterlimit="10" stroke-linejoin="miter" fill="none" stroke="#d5d6d5" d="M7.97038 0V96.2428M23.91118 0V96.2428M39.85197 0V96.2428M71.73357 0V96.2428M87.67436 0V96.2428M103.61516 0V96.2428"/>
<path transform="matrix(1.00005,0,0,-1.00002,2.0219517,98.042369)" stroke-width=".3985" stroke-linecap="butt" stroke-miterlimit="10" stroke-linejoin="miter" fill="none" stroke="#d5d6d5" d="M0 0H111.58556M0 6.87448H111.58556M0 13.74896H111.58556M0 20.62346H111.58556M0 27.49794H111.58556M0 34.37242H111.58556M0 41.24692H111.58556M0 48.1214H111.58556M0 54.99588H111.58556M0 61.87038H111.58556M0 68.74486H111.58556M0 75.61934H111.58556M0 82.49384H111.58556M0 89.36832H111.58556M0 96.2428H111.58556"/>
<path transform="matrix(1.00005,0,0,-1.00002,2.0219517,98.042369)" stroke-width=".3985" stroke-linecap="butt" stroke-miterlimit="10" stroke-linejoin="miter" fill="none" stroke="#d5d6d5" d="M0 6.87448H111.58556M0 20.62346H111.58556M0 34.37242H111.58556M0 61.87038H111.58556M0 75.61934H111.58556M0 89.36832H111.58556"/>
<path transform="matrix(1.00005,0,0,-1.00002,2.0219517,98.042369)" stroke-width=".19925" stroke-linecap="butt" stroke-miterlimit="10" stroke-linejoin="miter" fill="none" stroke="#929292" d="M0 46.70401V49.53879M7.97038 46.70401V49.53879M15.94078 46.70401V49.53879M23.91118 46.70401V49.53879M31.88158 46.70401V49.53879M39.85197 46.70401V49.53879M47.82237 46.70401V49.53879M55.79277 46.70401V49.53879M63.76317 46.70401V49.53879M71.73357 46.70401V49.53879M79.70396 46.70401V49.53879M87.67436 46.70401V49.53879M95.64476 46.70401V49.53879M103.61516 46.70401V49.53879M111.58556 46.70401V49.53879"/>
<path transform="matrix(1.00005,0,0,-1.00002,2.0219517,98.042369)" stroke-width=".19925" stroke-linecap="butt" stroke-miterlimit="10" stroke-linejoin="miter" fill="none" stroke="#929292" d="M7.97038 45.99553V50.24725M23.91118 45.99553V50.24725M39.85197 45.99553V50.24725M71.73357 45.99553V50.24725M87.67436 45.99553V50.24725M103.61516 45.99553V50.24725"/>
<path transform="matrix(1.00005,0,0,-1.00002,2.0219517,98.042369)" stroke-width=".19925" stroke-linecap="butt" stroke-miterlimit="10" stroke-linejoin="miter" fill="none" stroke="#929292" d="M54.3753 0H57.21024M54.3753 6.87448H57.21024M54.3753 13.74896H57.21024M54.3753 20.62346H57.21024M54.3753 27.49794H57.21024M54.3753 34.37242H57.21024M54.3753 41.24692H57.21024M54.3753 48.1214H57.21024M54.3753 54.99588H57.21024M54.3753 61.87038H57.21024M54.3753 68.74486H57.21024M54.3753 75.61934H57.21024M54.3753 82.49384H57.21024M54.3753 89.36832H57.21024M54.3753 96.2428H57.21024"/>
<path transform="matrix(1.00005,0,0,-1.00002,2.0219517,98.042369)" stroke-width=".19925" stroke-linecap="butt" stroke-miterlimit="10" stroke-linejoin="miter" fill="none" stroke="#929292" d="M53.6668 6.87448H57.91875M53.6668 20.62346H57.91875M53.6668 34.37242H57.91875M53.6668 61.87038H57.91875M53.6668 75.61934H57.91875M53.6668 89.36832H57.91875"/>
<path transform="matrix(1.00005,0,0,-1.00002,2.0219517,98.042369)" stroke-width=".3985" stroke-linecap="butt" stroke-miterlimit="10" stroke-linejoin="miter" fill="none" stroke="#000000" d="M1.99252 48.1214H109.59303"/>
<path transform="matrix(-1.00005,-0,0,1.00002,4.014571,49.920003)" d="M1.99252 0-1.19551 1.59401 0 0-1.19551-1.59401"/>
<path transform="matrix(1.00005,0,0,-1.00002,111.62045,49.920003)" d="M1.99252 0-1.19551 1.59401 0 0-1.19551-1.59401"/>
<path transform="matrix(1.00005,0,0,-1.00002,2.0219517,98.042369)" stroke-width=".3985" stroke-linecap="butt" stroke-miterlimit="10" stroke-linejoin="miter" fill="none" stroke="#000000" d="M55.79277 1.99252V94.25027"/>
<path transform="matrix(0,1.00002,1.00005,0,57.817514,96.049808)" d="M1.99252 0-1.19551 1.59401 0 0-1.19551-1.59401"/>
<path transform="matrix(0,-1.00002,-1.00005,-0,57.817514,3.7902146)" d="M1.99252 0-1.19551 1.59401 0 0-1.19551-1.59401"/>
<use data-text="&#x2212;" xlink:href="#font_1_1" transform="matrix(7.970498,0,0,-7.9702599,4.582079,60.702619)"/>
<use data-text="6" xlink:href="#font_2_3" transform="matrix(7.970498,0,0,-7.9702599,11.168409,60.702619)"/>
<use data-text="&#x2212;" xlink:href="#font_1_1" transform="matrix(7.970498,0,0,-7.9702599,20.523875,60.702619)"/>
<use data-text="4" xlink:href="#font_2_2" transform="matrix(7.970498,0,0,-7.9702599,27.110205,60.702619)"/>
<use data-text="&#x2212;" xlink:href="#font_1_1" transform="matrix(7.970498,0,0,-7.9702599,36.465677,60.702619)"/>
<use data-text="2" xlink:href="#font_2_1" transform="matrix(7.970498,0,0,-7.9702599,43.052003,60.702619)"/>
<use data-text="2" xlink:href="#font_2_1" transform="matrix(7.970498,0,0,-7.9702599,71.641429,60.702619)"/>
<use data-text="4" xlink:href="#font_2_2" transform="matrix(7.970498,0,0,-7.9702599,87.58322,60.702619)"/>
<use data-text="6" xlink:href="#font_2_3" transform="matrix(7.970498,0,0,-7.9702599,103.52502,60.702619)"/>
<use data-text="&#x2212;" xlink:href="#font_1_1" transform="matrix(7.970498,0,0,-7.9702599,43.241014,93.32127)"/>
<use data-text="6" xlink:href="#font_2_3" transform="matrix(7.970498,0,0,-7.9702599,49.82734,93.32127)"/>
<use data-text="&#x2212;" xlink:href="#font_1_1" transform="matrix(7.970498,0,0,-7.9702599,43.241014,79.572)"/>
<use data-text="4" xlink:href="#font_2_2" transform="matrix(7.970498,0,0,-7.9702599,49.82734,79.572)"/>
<use data-text="&#x2212;" xlink:href="#font_1_1" transform="matrix(7.970498,0,0,-7.9702599,43.241014,65.82272)"/>
<use data-text="2" xlink:href="#font_2_1" transform="matrix(7.970498,0,0,-7.9702599,49.82734,65.82272)"/>
<use data-text="2" xlink:href="#font_2_1" transform="matrix(7.970498,0,0,-7.9702599,49.82734,38.73918)"/>
<use data-text="4" xlink:href="#font_2_2" transform="matrix(7.970498,0,0,-7.9702599,49.82734,24.989899)"/>
<use data-text="6" xlink:href="#font_2_3" transform="matrix(7.970498,0,0,-7.9702599,49.82734,11.240623)"/>
<g clip-path="url(#clip_3)">
<path transform="matrix(1.00005,0,0,-1.00002,2.0219517,98.042369)" stroke-width=".99628" stroke-linecap="butt" stroke-miterlimit="10" stroke-linejoin="miter" fill="none" stroke="#9e0c0f" d="M12.77779 4.69229 10.37808 3.03659 14.77838 6.07277 19.17867 9.10895 23.57898 12.14511 27.97926 15.18127 32.37956 18.21747 36.77986 21.25363 41.18016 24.28983 45.58044 27.32599 49.98076 30.36217 54.38104 33.39835 58.78134 36.43451 63.18164 39.47069 67.58194 42.50685 71.98222 45.54303 76.38254 48.57921 80.78282 51.61539 85.18312 54.65157 89.5834 57.68774 93.98372 60.7239 98.384 63.76009 102.78429 66.79625 107.1846 69.83243 104.7849 68.17673"/>
<path transform="matrix(-.82308116,.5679014,.56791839,.8230565,15.380219,92.949909)" d="M7.39124 0 2.37614 1.6717 .70447 0 2.37614-1.6717Z" fill="#9e0c0f"/>
<path transform="matrix(-.82308116,.5679014,.56791839,.8230565,15.380219,92.949909)" stroke-width=".99628" stroke-linecap="butt" stroke-miterlimit="10" stroke-linejoin="miter" fill="none" stroke="#9e0c0f" d="M7.39124 0 2.37614 1.6717 .70447 0 2.37614-1.6717Z"/>
<path transform="matrix(.82308116,-.5679014,-.56791839,-.8230565,106.23223,30.26435)" d="M7.39124 0 2.37614 1.6717 .70447 0 2.37614-1.6717Z" fill="#9e0c0f"/>
<path transform="matrix(.82308116,-.5679014,-.56791839,-.8230565,106.23223,30.26435)" stroke-width=".99628" stroke-linecap="butt" stroke-miterlimit="10" stroke-linejoin="miter" fill="none" stroke="#9e0c0f" d="M7.39124 0 2.37614 1.6717 .70447 0 2.37614-1.6717Z"/>
</g>
<use data-text="x" xlink:href="#font_4_1" transform="matrix(9.963098,0,0,-9.962799,104.39906,46.400339)"/>
<use data-text="y" xlink:href="#font_4_2" transform="matrix(9.963098,0,0,-9.962799,61.337915,9.607597)"/>
</svg>
