<svg xmlns="http://www.w3.org/2000/svg" xmlns:xlink="http://www.w3.org/1999/xlink" version="1.1" width="167" height="145" viewBox="0 0 167 145">
<defs>
<path id="font_1_1" d="M.69898989 .22743225C.71499636 .22743225 .7369995 .22743225 .7369995 .25042726 .7369995 .2734375 .71499636 .2734375 .69898989 .2734375H.12599182C.10998535 .2734375 .08799744 .2734375 .08799744 .25042726 .08799744 .22743225 .10998535 .22743225 .12599182 .22743225H.69898989Z"/>
<path id="font_2_3" d="M.13798523 .33073426C.13798523 .41377259 .14498902 .4868164 .18099976 .54782107 .21099854 .5978241 .2619934 .6390381 .32499696 .6390381 .34498597 .6390381 .3909912 .63601687 .4139862 .60084536 .36898805 .5988312 .36499024 .5648346 .36499024 .553833 .36499024 .5238342 .3880005 .50683596 .4119873 .50683596 .42999269 .50683596 .45899964 .51782229 .45899964 .5558319 .45899964 .615921 .4139862 .66503909 .32398988 .66503909 .18499756 .66503909 .04399109 .53282168 .04399109 .31672669 .04399109 .045532228 .16999817-.021484375 .2669983-.021484375 .31498719-.021484375 .36698915-.0084991459 .4119873 .03453064 .45199586 .07354736 .48599244 .11558533 .48599244 .20263672 .48599244 .33372499 .3869934 .42578126 .27598573 .42578126 .20399475 .42578126 .16099549 .37976075 .13798523 .33073426M.2669983 .008514404C.21398926 .008514404 .18099976 .045532228 .1659851 .07354736 .14299011 .11859131 .14099121 .18663025 .14099121 .22465515 .14099121 .32373048 .19499207 .3977661 .27198792 .3977661 .32199098 .3977661 .35198976 .37176515 .37098695 .33673097 .3919983 .29971314 .3919983 .25468446 .3919983 .2036438 .3919983 .15260315 .3919983 .10858154 .37199403 .07255554 .34599305 .026519776 .31098939 .008514404 .2669983 .008514404Z"/>
<path id="font_2_2" d="M.3939972 .6468048C.3939972 .6667938 .3939972 .6748047 .37298585 .6748047 .3600006 .6748047 .35899354 .6737976 .34899903 .65979006L.02999878 .197052V.1640625H.31199647V.08100891C.31199647 .04399109 .30899049 .032989503 .23199463 .032989503H.20899964V0C.2939911 .0029907227 .29599 .0029907227 .35299684 .0029907227 .4099884 .0029907227 .4119873 .0029907227 .49699403 0V.032989503H.47399903C.39698792 .032989503 .3939972 .04399109 .3939972 .08100891V.1640625H.5V.197052H.3939972V.6468048M.31900025 .5658417V.197052H.06498718L.31900025 .5658417Z"/>
<path id="font_2_1" d="M.28199769 .20405579C.2979889 .21907044 .33999635 .2520752 .35598756 .26608277 .41799928 .32312013 .47698976 .3781433 .47698976 .46917726 .47698976 .588089 .3769989 .66503909 .2519989 .66503909 .13198853 .66503909 .052993776 .57411196 .052993776 .48516847 .052993776 .4361725 .09199524 .4291687 .10598755 .4291687 .1269989 .4291687 .1579895 .4441681 .1579895 .48217774 .1579895 .5341797 .10798645 .5341797 .09599304 .5341797 .125 .6070709 .19198609 .6320343 .24099732 .6320343 .33399964 .6320343 .38198854 .55314639 .38198854 .46917726 .38198854 .36514283 .30899049 .28910829 .19099427 .16804505L.06498718 .037994386C.052993776 .026992798 .052993776 .024993897 .052993776 0H.44799806L.47698976 .17904663H.44599916C.44299317 .1590271 .43499757 .10900879 .4229889 .08999634 .4169922 .08198547 .34098817 .08198547 .32499696 .08198547H.14698792L.28199769 .20405579Z"/>
<clipPath id="clip_3">
<path transform="matrix(1,0,0,-1.00005,1.4610005,143.16414)" d="M0 0H163.87732V141.36016H0Z"/>
</clipPath>
<path id="font_4_90" d="M.72698977-.010345459C.72698977-.00033569337 .72698977 .010650635 .71598818 .010650635 .70700076 .010650635 .70599368 .0026550294 .7049866-.0073394777 .69898989-.061340333 .6569977-.09133911 .6139984-.09133911 .5669861-.09133911 .5419922-.05734253 .5179901 .006652832 .6359863 .059570314 .72099307 .1876831 .72099307 .3387909 .72099307 .5429535 .56999209 .7050781 .3880005 .7050781 .20899964 .7050781 .055999757 .54496768 .055999757 .3387909 .055999757 .13664246 .20698548-.022460938 .3889923-.022460938 .41999818-.022460938 .45498658-.016464234 .48399354-.007461548 .49899293-.1023407 .5130005-.19433594 .60598757-.19433594 .70799258-.1945343 .72698977-.061538698 .72698977-.010528564V-.010345459M.62098696 .33866883C.62098696 .2605896 .60899356 .11946106 .5029907 .04147339 .48098756 .097457889 .44898988 .14746094 .3899994 .14746094 .33898927 .14746094 .30799867 .10446167 .30799867 .06347656 .30799867 .036468507 .32099916 .017471314 .32199098 .015472412 .2679901 .035461427 .1559906 .10845947 .1559906 .33866883 .1559906 .59898379 .29599 .68006899 .3880005 .68006899 .4850006 .6794586 .62098696 .5934601 .62098696 .3384552V.33866883M.47698976 .025497437C.44299317 .0065307619 .41099549 .002532959 .3889923 .002532959 .33799745 .002532959 .32998658 .048461915 .32998658 .06347656 .32998658 .09246826 .35099793 .12545777 .3899994 .12545777 .44400025 .12545777 .46598817 .083465579 .47698976 .025497437Z"/>
<path id="font_4_109" d="M.5349884 0V.0309906C.46499635 .0309906 .45700074 .037994386 .45700074 .08705139V.4423828L.30999757 .43066407V.3996582C.37998963 .3996582 .3880005 .39266969 .3880005 .34373475V.16601563C.3880005 .07910156 .33999635 .011245728 .2669983 .011245728 .18299866 .011245728 .1789856 .058135988 .1789856 .11009216V.4423828L.03199768 .43066407V.3996582C.10998535 .3996582 .10998535 .39666749 .10998535 .3078003V.15802002C.10998535 .080093387 .10998535-.0107421879 .2619934-.0107421879 .31799317-.0107421879 .3619995 .017242432 .3909912 .07910156V-.0107421879L.5349884 0Z"/>
<path id="font_4_28" d="M.48298646 .08912659V.14511109H.45799256V.08912659C.45799256 .03112793 .43299867 .025131226 .42199708 .025131226 .3889923 .025131226 .3849945 .070129398 .3849945 .07511902V.27508546C.3849945 .31707765 .3849945 .3560791 .34899903 .39312745 .30999757 .43223573 .2599945 .4482422 .21199036 .4482422 .12998963 .4482422 .06098938 .40115357 .06098938 .335083 .06098938 .30508424 .08099365 .28808595 .10699463 .28808595 .1349945 .28808595 .15299988 .30807496 .15299988 .33407594 .15299988 .3460846 .147995 .37908937 .101989749 .38008119 .1289978 .41519166 .17799378 .426239 .20999146 .426239 .25898744 .426239 .31599427 .38710023 .31599427 .29808045V.26107789C.2649994 .25808717 .19499207 .25508119 .13198853 .22509766 .056991579 .19110108 .03199768 .13911438 .03199768 .09512329 .03199768 .014251709 .1289978-.0107421879 .19198609-.0107421879 .2579956-.0107421879 .3039856 .029251099 .32299806 .07624817 .32699586 .036132814 .35398866-.005859375 .40098573-.005859375 .42199708-.005859375 .48298646 .008132935 .48298646 .08912659M.31599427 .14013672C.31599427 .04525757 .24398804 .011245728 .19898987 .011245728 .1499939 .011245728 .10899353 .04624939 .10899353 .09625244 .10899353 .15124512 .15098572 .23425293 .31599427 .24024964V.14013672Z"/>
<path id="font_4_47" d="M.5269928 0V.0309906C.45700074 .0309906 .44898988 .038009645 .44898988 .0871582V.69433596L.30499269 .6826172V.6516113C.375 .6516113 .3829956 .64463809 .3829956 .59580996V.38035584C.35398866 .41636659 .31098939 .4423828 .25698854 .4423828 .13899231 .4423828 .033996583 .3443451 .033996583 .21531677 .033996583 .088272098 .13198853-.0107421879 .24598694-.0107421879 .30999757-.0107421879 .35499574 .023254395 .37998963 .055267335V-.0107421879L.5269928 0M.37998963 .117996219C.37998963 .099990848 .37998963 .09799194 .36898805 .08099365 .33898927 .033218385 .2939911 .011245728 .25099183 .011245728 .20599365 .011245728 .16999817 .037216188 .1459961 .075164798 .11999512 .1161499 .116989139 .17320252 .116989139 .21421814 .116989139 .25125123 .11898804 .31129457 .147995 .35632325 .16899109 .38734437 .20698548 .42037965 .26098634 .42037965 .29599 .42037965 .33799745 .405365 .36898805 .3603363 .37998963 .34332276 .37998963 .34132386 .37998963 .32330323V.117996219Z"/>
<path id="font_4_96" d="M.3639984 .38137818C.3639984 .41337586 .33299256 .4423828 .2899933 .4423828 .21699524 .4423828 .18099976 .37538148 .16699219 .3323822V.4423828L.027999878 .43066407V.3996582C.09799194 .3996582 .10598755 .39266969 .10598755 .34370423V.07595825C.10598755 .0309906 .09498596 .0309906 .027999878 .0309906V0L.14199829 .0029907227C.18199158 .0029907227 .22898865 .0029907227 .2689972 0V.0309906H.24798584C.17399597 .0309906 .17199707 .04197693 .17199707 .07795715V.23181153C.17199707 .33137513 .21398926 .42037965 .2899933 .42037965 .29699708 .42037965 .29899598 .42037965 .30099488 .41937257 .2979889 .41838075 .27799989 .40637208 .27799989 .3803711 .27799989 .35237123 .29899598 .33737184 .32099916 .33737184 .33898927 .33737184 .3639984 .3493805 .3639984 .38137818Z"/>
<path id="font_4_77" d="M.5349884 0V.0309906C.48298646 .0309906 .45799256 .0309906 .45700074 .061019899V.25221253C.45700074 .3383026 .45700074 .36932374 .42599488 .405365 .4119873 .42237855 .3789978 .4423828 .32099916 .4423828 .24798584 .4423828 .20098877 .39935304 .17298889 .33729554V.4423828L.03199768 .43066407V.3996582C.101989749 .3996582 .10998535 .39266969 .10998535 .34370423V.07595825C.10998535 .0309906 .09899902 .0309906 .03199768 .0309906V0L.14498902 .0029907227 .25698854 0V.0309906C.18998719 .0309906 .1789856 .0309906 .1789856 .07595825V.25978089C.1789856 .36431886 .25 .42037965 .31399537 .42037965 .3769989 .42037965 .3880005 .36631776 .3880005 .30926515V.076034549C.3880005 .0309906 .3769989 .0309906 .30999757 .0309906V0L.4229889 .0029907227 .5349884 0Z"/>
<path id="font_4_105" d="M.33198548 .12385559V.18066406H.30699159V.12585449C.30699159 .052108766 .2769928 .014251709 .23999024 .014251709 .17298889 .014251709 .17298889 .10491943 .17298889 .12187195V.3996582H.31599427V.43066407H.17298889V.6142578H.147995C.14698792 .5324249 .116989139 .42565919 .018997193 .42166139V.3996582H.10398865V.12408447C.10398865 .0012512207 .19699097-.0107421879 .23298645-.0107421879 .3039856-.0107421879 .33198548 .060180665 .33198548 .12408447V.12385559Z"/>
<path id="font_4_65" d="M.33299256 0V.0309906H.30699159C.22799683 .0309906 .22499085 .041992189 .22499085 .07795715V.6046295C.22499085 .64060977 .22799683 .6516113 .30699159 .6516113H.33299256V.6826172C.2979889 .6796112 .21899414 .6796112 .18099976 .6796112 .14199829 .6796112 .06298828 .6796112 .027999878 .6826172V.6516113H.053985597C.1329956 .6516113 .13598633 .64060977 .13598633 .6046295V.07795715C.13598633 .041992189 .1329956 .0309906 .053985597 .0309906H.027999878V0C.06298828 .0029907227 .14199829 .0029907227 .17999268 .0029907227 .21899414 .0029907227 .2979889 .0029907227 .33299256 0Z"/>
<path id="font_4_111" d="M.7299957 .6516113V.6826172C.69898989 .680603 .6589966 .6796112 .6329956 .6796112L.5189972 .6826172V.6516113C.57099917 .6506195 .59199526 .6246033 .59199526 .6016083 .59199526 .5936127 .58898928 .5876007 .58699038 .581604L.4039917 .09954834 .21299744 .60461428C.20698548 .61860659 .20698548 .62260439 .20698548 .62260439 .20698548 .6516113 .2639923 .6516113 .2889862 .6516113V.6826172C.25299073 .6796112 .18399048 .6796112 .1459961 .6796112L.018997193 .6826172V.6516113C.083999637 .6516113 .102996829 .6516113 .116989139 .6136017L.34899903-.00047302247C.35598756-.019470215 .36099244-.022460938 .37399293-.022460938 .3909912-.022460938 .3929901-.017471314 .397995-.0034637452L.62098696 .58461C.6349945 .62161257 .6619873 .6506195 .7299957 .6516113Z"/>
<path id="font_5_1" d="M.33399964 .30233766C.33999635 .32835389 .36299134 .42037965 .43299867 .42037965 .43798829 .42037965 .46199037 .42037965 .48298646 .40734864 .45498658 .402359 .43499757 .37734986 .43499757 .35334779 .43499757 .33735658 .44599916 .31835938 .47299195 .31835938 .49499513 .31835938 .5269928 .3363495 .5269928 .37635804 .5269928 .42837525 .46798707 .4423828 .43399049 .4423828 .37599183 .4423828 .34098817 .38935853 .32899476 .36634828 .3039856 .43237306 .25 .4423828 .22099304 .4423828 .116989139 .4423828 .05999756 .3133545 .05999756 .28834535 .05999756 .27833558 .069992069 .27833558 .07199097 .27833558 .07998657 .27833558 .08299255 .28033448 .084991458 .28933717 .11898804 .39535523 .18499756 .42037965 .21899414 .42037965 .23799134 .42037965 .272995 .4113617 .272995 .35334779 .272995 .32235719 .2559967 .25532533 .21899414 .11528015 .20298767 .053268434 .16799927 .011245728 .12399292 .011245728 .117996219 .011245728 .09498596 .011245728 .07398987 .024276734 .09899902 .029266358 .12098694 .05027771 .12098694 .07827759 .12098694 .105270389 .09899902 .11328125 .083999637 .11328125 .053985597 .11328125 .0289917 .08728027 .0289917 .055267335 .0289917 .009246826 .07899475-.0107421879 .12298584-.0107421879 .18899536-.0107421879 .22499085 .059280397 .22799683 .0652771 .23999024 .028274537 .27598573-.0107421879 .33599855-.0107421879 .43899537-.0107421879 .49598695 .118270877 .49598695 .14328003 .49598695 .1532898 .4869995 .1532898 .48399354 .1532898 .47499085 .1532898 .47299195 .14929199 .47099305 .14228821 .43798829 .03527832 .36999513 .011245728 .33799745 .011245728 .29899598 .011245728 .2829895 .043273927 .2829895 .07727051 .2829895 .09927368 .2889862 .121276859 .2999878 .16529846L.33399964 .30233766Z"/>
<path id="font_5_2" d="M.48599244 .38136292C.48999024 .39537049 .48999024 .39736939 .48999024 .40437318 .48999024 .42237855 .47599793 .43138124 .46099855 .43138124 .45098878 .43138124 .43499757 .42536927 .42599488 .41036988 .42399598 .405365 .41600038 .37435914 .4119873 .35635377 .40499879 .33035279 .397995 .30334474 .3919983 .27633668L.34700013 .09628296C.34298707 .08126831 .2999878 .011245728 .23399353 .011245728 .18299866 .011245728 .17199707 .055267335 .17199707 .0922699 .17199707 .1382904 .18899536 .20030213 .22299195 .28833009 .23899842 .3293457 .24299622 .3403473 .24299622 .36035157 .24299622 .405365 .21099854 .4423828 .16099549 .4423828 .06599426 .4423828 .0289917 .29733277 .0289917 .28833009 .0289917 .27833558 .038986207 .27833558 .040985109 .27833558 .050994874 .27833558 .051986696 .28033448 .056991579 .29634095 .083999637 .3903656 .12399292 .42037965 .1579895 .42037965 .1659851 .42037965 .18299866 .42037965 .18299866 .3883667 .18299866 .36335755 .17298889 .3373413 .1659851 .31834413 .12599182 .21231079 .10798645 .1552887 .10798645 .10827637 .10798645 .019256592 .17098999-.0107421879 .22999573-.0107421879 .2689972-.0107421879 .30299378 .0062561037 .33099366 .03425598 .31799317-.017745972 .30599977-.06674194 .2659912-.11973572 .23999024-.15385437 .20199585-.18309021 .1559906-.18309021 .14199829-.18309021 .09700012-.18005371 .07998657-.14074707 .09599304-.14074707 .10899353-.14074707 .12298584-.1287384 .1329956-.11973572 .14299011-.10673523 .14299011-.08773804 .14299011-.056747438 .115997318-.052734376 .10598755-.052734376 .08299255-.052734376 .049987794-.068740848 .049987794-.11773682 .049987794-.16796875 .09399414-.20507813 .1559906-.20507813 .25898744-.20507813 .3619995-.11373901 .3899994-.00074768069L.48599244 .38136292Z"/>
</defs>
<path transform="matrix(1,0,0,-1.00005,1.4610005,143.16414)" d="M0 0H163.87732V141.36016H0Z" fill="#fffac2"/>
<path transform="matrix(1,0,0,-1.00005,1.4610005,143.16414)" stroke-width=".3985" stroke-linecap="butt" stroke-miterlimit="10" stroke-linejoin="miter" fill="none" stroke="#d5d6d5" d="M0 0V141.36016M11.70552 0V141.36016M23.41104 0V141.36016M35.11656 0V141.36016M46.82208 0V141.36016M58.5276 0V141.36016M70.23314 0V141.36016M81.93866 0V141.36016M93.64418 0V141.36016M105.3497 0V141.36016M117.05522 0V141.36016M128.76074 0V141.36016M140.46628 0V141.36016M152.1718 0V141.36016M163.87732 0V141.36016"/>
<path transform="matrix(1,0,0,-1.00005,1.4610005,143.16414)" stroke-width=".3985" stroke-linecap="butt" stroke-miterlimit="10" stroke-linejoin="miter" fill="none" stroke="#d5d6d5" d="M11.70552 0V141.36016M35.11656 0V141.36016M58.5276 0V141.36016M105.3497 0V141.36016M128.76074 0V141.36016M152.1718 0V141.36016"/>
<path transform="matrix(1,0,0,-1.00005,1.4610005,143.16414)" stroke-width=".3985" stroke-linecap="butt" stroke-miterlimit="10" stroke-linejoin="miter" fill="none" stroke="#d5d6d5" d="M0 0H163.87732M0 10.09715H163.87732M0 20.1943H163.87732M0 30.29146H163.87732M0 40.38861H163.87732M0 50.48576H163.87732M0 60.58292H163.87732M0 70.68007H163.87732M0 80.77722H163.87732M0 90.87437H163.87732M0 100.97153H163.87732M0 111.06868H163.87732M0 121.16585H163.87732M0 131.263H163.87732M0 141.36016H163.87732"/>
<path transform="matrix(1,0,0,-1.00005,1.4610005,143.16414)" stroke-width=".3985" stroke-linecap="butt" stroke-miterlimit="10" stroke-linejoin="miter" fill="none" stroke="#d5d6d5" d="M0 10.09715H163.87732M0 30.29146H163.87732M0 50.48576H163.87732M0 90.87437H163.87732M0 111.06868H163.87732M0 131.263H163.87732"/>
<path transform="matrix(1,0,0,-1.00005,1.4610005,143.16414)" stroke-width=".19925" stroke-linecap="butt" stroke-miterlimit="10" stroke-linejoin="miter" fill="none" stroke="#929292" d="M0 69.26266V72.09747M11.70552 69.26266V72.09747M23.41104 69.26266V72.09747M35.11656 69.26266V72.09747M46.82208 69.26266V72.09747M58.5276 69.26266V72.09747M70.23314 69.26266V72.09747M81.93866 69.26266V72.09747M93.64418 69.26266V72.09747M105.3497 69.26266V72.09747M117.05522 69.26266V72.09747M128.76074 69.26266V72.09747M140.46628 69.26266V72.09747M152.1718 69.26266V72.09747M163.87732 69.26266V72.09747"/>
<path transform="matrix(1,0,0,-1.00005,1.4610005,143.16414)" stroke-width=".19925" stroke-linecap="butt" stroke-miterlimit="10" stroke-linejoin="miter" fill="none" stroke="#929292" d="M11.70552 68.5542V72.80592M35.11656 68.5542V72.80592M58.5276 68.5542V72.80592M105.3497 68.5542V72.80592M128.76074 68.5542V72.80592M152.1718 68.5542V72.80592"/>
<path transform="matrix(1,0,0,-1.00005,1.4610005,143.16414)" stroke-width=".19925" stroke-linecap="butt" stroke-miterlimit="10" stroke-linejoin="miter" fill="none" stroke="#929292" d="M80.52133 0H83.35599M80.52133 10.09715H83.35599M80.52133 20.1943H83.35599M80.52133 30.29146H83.35599M80.52133 40.38861H83.35599M80.52133 50.48576H83.35599M80.52133 60.58292H83.35599M80.52133 70.68007H83.35599M80.52133 80.77722H83.35599M80.52133 90.87437H83.35599M80.52133 100.97153H83.35599M80.52133 111.06868H83.35599M80.52133 121.16585H83.35599M80.52133 131.263H83.35599M80.52133 141.36016H83.35599"/>
<path transform="matrix(1,0,0,-1.00005,1.4610005,143.16414)" stroke-width=".19925" stroke-linecap="butt" stroke-miterlimit="10" stroke-linejoin="miter" fill="none" stroke="#929292" d="M79.81287 10.09715H84.06442M79.81287 30.29146H84.06442M79.81287 50.48576H84.06442M79.81287 90.87437H84.06442M79.81287 111.06868H84.06442M79.81287 131.263H84.06442"/>
<path transform="matrix(1,0,0,-1.00005,1.4610005,143.16414)" stroke-width=".3985" stroke-linecap="butt" stroke-miterlimit="10" stroke-linejoin="miter" fill="none" stroke="#000000" d="M1.99252 70.68007H161.8848"/>
<path transform="matrix(-1,-0,0,1.00005,3.4535204,72.48054)" d="M1.99252 0-1.19551 1.59401 0 0-1.19551-1.59401"/>
<path transform="matrix(1,0,0,-1.00005,163.3458,72.48054)" d="M1.99252 0-1.19551 1.59401 0 0-1.19551-1.59401"/>
<path transform="matrix(1,0,0,-1.00005,1.4610005,143.16414)" stroke-width=".3985" stroke-linecap="butt" stroke-miterlimit="10" stroke-linejoin="miter" fill="none" stroke="#000000" d="M81.93866 1.99252V139.36763"/>
<path transform="matrix(0,1.00005,1,0,83.39966,141.17153)" d="M1.99252 0-1.19551 1.59401 0 0-1.19551-1.59401"/>
<path transform="matrix(0,-1.00005,-1,-0,83.39966,3.7895509)" d="M1.99252 0-1.19551 1.59401 0 0-1.19551-1.59401"/>
<use data-text="&#x2212;" xlink:href="#font_1_1" transform="matrix(7.9701,0,0,-7.970498,7.7560007,83.26315)"/>
<use data-text="6" xlink:href="#font_2_3" transform="matrix(7.9701,0,0,-7.970498,14.343,83.26315)"/>
<use data-text="&#x2212;" xlink:href="#font_1_1" transform="matrix(7.9701,0,0,-7.970498,31.167,83.26315)"/>
<use data-text="4" xlink:href="#font_2_2" transform="matrix(7.9701,0,0,-7.970498,37.753999,83.26315)"/>
<use data-text="&#x2212;" xlink:href="#font_1_1" transform="matrix(7.9701,0,0,-7.970498,54.578,83.26315)"/>
<use data-text="2" xlink:href="#font_2_1" transform="matrix(7.9701,0,0,-7.970498,61.165,83.26315)"/>
<use data-text="2" xlink:href="#font_2_1" transform="matrix(7.9701,0,0,-7.970498,104.694,83.26315)"/>
<use data-text="4" xlink:href="#font_2_2" transform="matrix(7.9701,0,0,-7.970498,128.105,83.26315)"/>
<use data-text="6" xlink:href="#font_2_3" transform="matrix(7.9701,0,0,-7.970498,151.51599,83.26315)"/>
<use data-text="&#x2212;" xlink:href="#font_1_1" transform="matrix(7.9701,0,0,-7.970498,68.824008,135.21974)"/>
<use data-text="6" xlink:href="#font_2_3" transform="matrix(7.9701,0,0,-7.970498,75.411,135.21974)"/>
<use data-text="&#x2212;" xlink:href="#font_1_1" transform="matrix(7.9701,0,0,-7.970498,68.824008,115.024738)"/>
<use data-text="4" xlink:href="#font_2_2" transform="matrix(7.9701,0,0,-7.970498,75.411,115.024738)"/>
<use data-text="&#x2212;" xlink:href="#font_1_1" transform="matrix(7.9701,0,0,-7.970498,68.824008,94.82872)"/>
<use data-text="2" xlink:href="#font_2_1" transform="matrix(7.9701,0,0,-7.970498,75.411,94.82872)"/>
<use data-text="2" xlink:href="#font_2_1" transform="matrix(7.9701,0,0,-7.970498,75.410999,54.85373)"/>
<use data-text="4" xlink:href="#font_2_2" transform="matrix(7.9701,0,0,-7.970498,75.410999,34.65773)"/>
<use data-text="6" xlink:href="#font_2_3" transform="matrix(7.9701,0,0,-7.970498,75.410999,14.4627079)"/>
<g clip-path="url(#clip_3)">
<path transform="matrix(1,0,0,-1.00005,1.4610005,143.16414)" stroke-width=".3985" stroke-linecap="butt" stroke-miterlimit="10" stroke-linejoin="miter" fill="none" stroke="#000000" d="M122.90799 106.02011"/>
<use data-text="Q" xlink:href="#font_4_90" transform="matrix(9.9626,0,0,-9.963098,99.994998,39.683977)"/>
<use data-text="u" xlink:href="#font_4_109" transform="matrix(9.9626,0,0,-9.963098,107.7459,39.683977)"/>
<use data-text="a" xlink:href="#font_4_28" transform="matrix(9.9626,0,0,-9.963098,113.28511,39.683977)"/>
<use data-text="d" xlink:href="#font_4_47" transform="matrix(9.9626,0,0,-9.963098,118.2664,39.683977)"/>
<use data-text="r" xlink:href="#font_4_96" transform="matrix(9.9626,0,0,-9.963098,123.80562,39.683977)"/>
<use data-text="a" xlink:href="#font_4_28" transform="matrix(9.9626,0,0,-9.963098,127.71095,39.683977)"/>
<use data-text="n" xlink:href="#font_4_77" transform="matrix(9.9626,0,0,-9.963098,132.69226,39.683977)"/>
<use data-text="t" xlink:href="#font_4_105" transform="matrix(9.9626,0,0,-9.963098,137.96247,39.683977)"/>
<use data-text="I" xlink:href="#font_4_65" transform="matrix(9.9626,0,0,-9.963098,145.14551,39.683977)"/>
<path transform="matrix(1,0,0,-1.00005,1.4610005,143.16414)" stroke-width=".3985" stroke-linecap="butt" stroke-miterlimit="10" stroke-linejoin="miter" fill="none" stroke="#000000" d="M40.96933 106.02011"/>
<use data-text="Q" xlink:href="#font_4_90" transform="matrix(9.9626,0,0,-9.963098,16.119,39.683977)"/>
<use data-text="u" xlink:href="#font_4_109" transform="matrix(9.9626,0,0,-9.963098,23.869904,39.683977)"/>
<use data-text="a" xlink:href="#font_4_28" transform="matrix(9.9626,0,0,-9.963098,29.409111,39.683977)"/>
<use data-text="d" xlink:href="#font_4_47" transform="matrix(9.9626,0,0,-9.963098,34.390409,39.683977)"/>
<use data-text="r" xlink:href="#font_4_96" transform="matrix(9.9626,0,0,-9.963098,39.929616,39.683977)"/>
<use data-text="a" xlink:href="#font_4_28" transform="matrix(9.9626,0,0,-9.963098,43.834955,39.683977)"/>
<use data-text="n" xlink:href="#font_4_77" transform="matrix(9.9626,0,0,-9.963098,48.816255,39.683977)"/>
<use data-text="t" xlink:href="#font_4_105" transform="matrix(9.9626,0,0,-9.963098,54.08647,39.683977)"/>
<use data-text="I" xlink:href="#font_4_65" transform="matrix(9.9626,0,0,-9.963098,61.269506,39.683977)"/>
<use data-text="I" xlink:href="#font_4_65" transform="matrix(9.9626,0,0,-9.963098,65.14496,39.683977)"/>
<path transform="matrix(1,0,0,-1.00005,1.4610005,143.16414)" stroke-width=".3985" stroke-linecap="butt" stroke-miterlimit="10" stroke-linejoin="miter" fill="none" stroke="#000000" d="M40.96933 35.34003"/>
<use data-text="Q" xlink:href="#font_4_90" transform="matrix(9.9626,0,0,-9.963098,14.181001,110.36751)"/>
<use data-text="u" xlink:href="#font_4_109" transform="matrix(9.9626,0,0,-9.963098,21.931904,110.36751)"/>
<use data-text="a" xlink:href="#font_4_28" transform="matrix(9.9626,0,0,-9.963098,27.471112,110.36751)"/>
<use data-text="d" xlink:href="#font_4_47" transform="matrix(9.9626,0,0,-9.963098,32.452409,110.36751)"/>
<use data-text="r" xlink:href="#font_4_96" transform="matrix(9.9626,0,0,-9.963098,37.991617,110.36751)"/>
<use data-text="a" xlink:href="#font_4_28" transform="matrix(9.9626,0,0,-9.963098,41.896955,110.36751)"/>
<use data-text="n" xlink:href="#font_4_77" transform="matrix(9.9626,0,0,-9.963098,46.878255,110.36751)"/>
<use data-text="t" xlink:href="#font_4_105" transform="matrix(9.9626,0,0,-9.963098,52.14847,110.36751)"/>
<use data-text="I" xlink:href="#font_4_65" transform="matrix(9.9626,0,0,-9.963098,59.331506,110.36751)"/>
<use data-text="I" xlink:href="#font_4_65" transform="matrix(9.9626,0,0,-9.963098,63.20696,110.36751)"/>
<use data-text="I" xlink:href="#font_4_65" transform="matrix(9.9626,0,0,-9.963098,67.08241,110.36751)"/>
<path transform="matrix(1,0,0,-1.00005,1.4610005,143.16414)" stroke-width=".3985" stroke-linecap="butt" stroke-miterlimit="10" stroke-linejoin="miter" fill="none" stroke="#000000" d="M122.90799 35.34003"/>
<use data-text="Q" xlink:href="#font_4_90" transform="matrix(9.9626,0,0,-9.963098,96.259,110.36751)"/>
<use data-text="u" xlink:href="#font_4_109" transform="matrix(9.9626,0,0,-9.963098,104.0099,110.36751)"/>
<use data-text="a" xlink:href="#font_4_28" transform="matrix(9.9626,0,0,-9.963098,109.54911,110.36751)"/>
<use data-text="d" xlink:href="#font_4_47" transform="matrix(9.9626,0,0,-9.963098,114.53041,110.36751)"/>
<use data-text="r" xlink:href="#font_4_96" transform="matrix(9.9626,0,0,-9.963098,120.06961,110.36751)"/>
<use data-text="a" xlink:href="#font_4_28" transform="matrix(9.9626,0,0,-9.963098,123.97495,110.36751)"/>
<use data-text="n" xlink:href="#font_4_77" transform="matrix(9.9626,0,0,-9.963098,128.95626,110.36751)"/>
<use data-text="t" xlink:href="#font_4_105" transform="matrix(9.9626,0,0,-9.963098,134.22647,110.36751)"/>
<use data-text="I" xlink:href="#font_4_65" transform="matrix(9.9626,0,0,-9.963098,141.4095,110.36751)"/>
<use data-text="V" xlink:href="#font_4_111" transform="matrix(9.9626,0,0,-9.963098,145.00601,110.36751)"/>
</g>
<use data-text="x" xlink:href="#font_5_1" transform="matrix(9.9626,0,0,-9.963098,156.125,68.960437)"/>
<use data-text="y" xlink:href="#font_5_2" transform="matrix(9.9626,0,0,-9.963098,86.91901,9.606476)"/>
</svg>
