<svg xmlns="http://www.w3.org/2000/svg" xmlns:xlink="http://www.w3.org/1999/xlink" version="1.1" width="311" height="127" viewBox="0 0 311 127">
<defs>
<path id="font_1_6" d="M.2939911 .16503906V.07800293C.2939911 .041992189 .2919922 .0309906 .21798706 .0309906H.19699097V0C.23799134 .0029907227 .2899933 .0029907227 .33198548 .0029907227 .37399293 .0029907227 .4269867 .0029907227 .46798707 0V.0309906H.44699098C.37298585 .0309906 .37098695 .041992189 .37098695 .07800293V.16503906H.47099305V.19602967H.37098695V.65075686C.37098695 .67074587 .37098695 .6767578 .35499574 .6767578 .34599305 .6767578 .34298707 .6767578 .33499146 .66474917L.027999878 .19602967V.16503906H.2939911M.2999878 .19602967H.055999757L.2999878 .5688019V.19602967Z"/>
<path id="font_2_43" d="M.4149933 .119140628C.4149933 .12911988 .40499879 .12911988 .4019928 .12911988 .3929901 .12911988 .3909912 .12512207 .3889923 .119140628 .3600006 .026229859 .29499818 .014251709 .2579956 .014251709 .20498657 .014251709 .116989139 .0572052 .116989139 .21801758 .116989139 .38093568 .19898987 .42323304 .2519989 .42323304 .26098634 .42323304 .32398988 .42222596 .35899354 .38594056 .31799317 .38293458 .31199647 .3529358 .31199647 .3399353 .31199647 .31393434 .32998658 .2939453 .35798646 .2939453 .38398744 .2939453 .4039917 .3109436 .4039917 .34094239 .4039917 .40911866 .32798768 .4482422 .25099183 .4482422 .12599182 .4482422 .033996583 .3399353 .033996583 .21601868 .033996583 .08816528 .1329956-.0107421879 .24899292-.0107421879 .3829956-.0107421879 .4149933 .10914612 .4149933 .119140628Z"/>
<path id="font_2_75" d="M.8129883 0V.0309906C.7609863 .0309906 .73599246 .0309906 .7350006 .061019899V.25221253C.7350006 .3383026 .7350006 .36932374 .70399478 .405365 .6899872 .42237855 .6569977 .4423828 .598999 .4423828 .5149994 .4423828 .47099305 .38233949 .45399476 .34429933 .43998719 .43138124 .3659973 .4423828 .32099916 .4423828 .24798584 .4423828 .20098877 .39935304 .17298889 .33729554V.4423828L.03199768 .43066407V.3996582C.101989749 .3996582 .10998535 .39266969 .10998535 .34370423V.07595825C.10998535 .0309906 .09899902 .0309906 .03199768 .0309906V0L.14498902 .0029907227 .25698854 0V.0309906C.18998719 .0309906 .1789856 .0309906 .1789856 .07595825V.25978089C.1789856 .36431886 .25 .42037965 .31399537 .42037965 .3769989 .42037965 .3880005 .36631776 .3880005 .30926515V.076034549C.3880005 .0309906 .3769989 .0309906 .30999757 .0309906V0L.4229889 .0029907227 .5349884 0V.0309906C.46798707 .0309906 .45700074 .0309906 .45700074 .076034549V.2602234C.45700074 .36431886 .5279999 .42037965 .59199526 .42037965 .6549988 .42037965 .66600039 .36631776 .66600039 .30926515V.076034549C.66600039 .0309906 .6549988 .0309906 .58799746 .0309906V0L.70098879 .0029907227 .8129883 0Z"/>
<path id="font_1_5" d="M.2899933 .35191346C.37199403 .37893678 .42999269 .4490509 .42999269 .52809146 .42999269 .6100464 .34199525 .6660156 .24598694 .6660156 .14498902 .6660156 .068984989 .60606387 .068984989 .53009036 .068984989 .49710084 .09098816 .47808839 .11999512 .47808839 .15098572 .47808839 .17098999 .50009158 .17098999 .5290985 .17098999 .57910159 .12399292 .57910159 .10899353 .57910159 .13999939 .62802127 .20599365 .64100649 .24198914 .64100649 .2829895 .64100649 .33799745 .6190338 .33799745 .5290985 .33799745 .51708987 .33599855 .45906068 .30999757 .4149933 .27999879 .36691285 .24598694 .36390687 .22099304 .36291505 .21299744 .36190797 .18899536 .35990907 .18199158 .35990907 .17399597 .35890199 .16699219 .35791017 .16699219 .3479004 .16699219 .33691407 .17399597 .33691407 .19099427 .33691407H.23498535C.31698609 .33691407 .35398866 .2686615 .35398866 .17037964 .35398866 .034469606 .2849884 .0055389406 .24099732 .0055389406 .19799805 .0055389406 .12298584 .022491456 .08799744 .08137512 .12298584 .07637024 .1539917 .09837341 .1539917 .1363678 .1539917 .17237854 .1269989 .19238281 .09799194 .19238281 .07398987 .19238281 .041992189 .17837525 .041992189 .1343689 .041992189 .043441774 .1349945-.022460938 .24398804-.022460938 .3659973-.022460938 .45700074 .06838989 .45700074 .17037964 .45700074 .252594 .3939972 .33088685 .2899933 .35191346Z"/>
<path id="font_3_1" d="M.1789856 .114868167C.13899231 .047973634 .099990848 .033981325 .055999757 .0309906 .04399109 .02999878 .034988405 .02999878 .034988405 .010986328 .034988405 .004989624 .039993287 0 .04798889 0 .07499695 0 .10598755 .0029907227 .13398743 .0029907227 .16699219 .0029907227 .20199585 0 .23399353 0 .23999024 0 .25299073 0 .25299073 .018997193 .25299073 .02999878 .24398804 .0309906 .23699951 .0309906 .21398926 .032989503 .18998719 .04096985 .18998719 .06593323 .18998719 .077926639 .19599915 .088897708 .20399475 .102890018L.27999879 .23068238H.5309906C.5329895 .2097168 .5469971 .07392883 .5469971 .063949588 .5469971 .033981325 .49499513 .0309906 .47499085 .0309906 .46099855 .0309906 .45098878 .0309906 .45098878 .010986328 .45098878 0 .46299745 0 .46499635 0 .5059967 0 .548996 .0029907227 .58999636 .0029907227 .61499026 .0029907227 .6779938 0 .7029877 0 .70899966 0 .72099307 0 .72099307 .019989014 .72099307 .0309906 .71099856 .0309906 .69799807 .0309906 .6359863 .0309906 .6359863 .037979127 .6329956 .06694031L.57199099 .691803C.56999209 .71180728 .56999209 .7158203 .5529938 .7158203 .5369873 .7158203 .5329895 .7088165 .5269928 .69880679L.1789856 .114868167M.29899598 .26168824 .49598695 .5917816 .5279999 .26168824H.29899598Z"/>
<path id="font_1_7" d="M.68699648 .32714845C.70199587 .32714845 .72099307 .32714845 .72099307 .34713746 .72099307 .36714173 .70199587 .36714173 .6879883 .36714173H.08898926C.07499695 .36714173 .055999757 .36714173 .055999757 .34713746 .055999757 .32714845 .07499695 .32714845 .08999634 .32714845H.68699648M.6879883 .13284302C.70199587 .13284302 .72099307 .13284302 .72099307 .15284729 .72099307 .17285156 .70199587 .17285156 .68699648 .17285156H.08999634C.07499695 .17285156 .055999757 .17285156 .055999757 .15284729 .055999757 .13284302 .07499695 .13284302 .08898926 .13284302H.6879883Z"/>
<path id="font_4_1" d="M.19198609 .2502594C.19198609 .2792511 .16799927 .30325318 .13899231 .30325318 .10998535 .30325318 .085998538 .2792511 .085998538 .2502594 .085998538 .22125244 .10998535 .19726563 .13899231 .19726563 .16799927 .19726563 .19198609 .22125244 .19198609 .2502594Z"/>
<path id="font_1_3" d="M.2939911 .64004519C.2939911 .66400149 .2939911 .6660156 .2709961 .6660156 .20899964 .60227969 .12098694 .60227969 .08898926 .60227969V.57128909C.10899353 .57128909 .16799927 .57128909 .21998596 .5972748V.07902527C.21998596 .042999269 .21699524 .0309906 .1269989 .0309906H.09498596V0C.12998963 .0029907227 .21699524 .0029907227 .25698854 .0029907227 .29699708 .0029907227 .38398744 .0029907227 .4189911 0V.0309906H.3869934C.29699708 .0309906 .2939911 .041992189 .2939911 .07902527V.64004519Z"/>
<path id="font_1_4" d="M.1269989 .07699585 .23298645 .18003845C.3889923 .31811524 .44898988 .3721466 .44898988 .47216798 .44898988 .5860901 .35899354 .6660156 .23699951 .6660156 .12399292 .6660156 .049987794 .57411196 .049987794 .48516847 .049987794 .4291687 .099990848 .4291687 .102996829 .4291687 .11999512 .4291687 .15499878 .44117738 .15499878 .48217774 .15499878 .5081787 .13699341 .5341797 .101989749 .5341797 .09399414 .5341797 .09199524 .5341797 .08898926 .5331726 .11199951 .59806826 .1659851 .63500979 .22399903 .63500979 .31498719 .63500979 .35798646 .5541382 .35798646 .47216798 .35798646 .39215089 .30799867 .31311036 .25299073 .25108338L.06098938 .036987306C.049987794 .025985718 .049987794 .023986817 .049987794 0H.42099L.44898988 .17404175H.42399598C.4189911 .14402771 .4119873 .1000061 .4019928 .084991458 .394989 .07699585 .32899476 .07699585 .30699159 .07699585H.1269989Z"/>
<path id="font_1_1" d="M.33099366-.2400055C.33099366-.23701477 .33099366-.23500061 .31399537-.21800232 .18899536-.0920105 .15699768 .09700012 .15699768 .25 .15699768 .42399598 .19499207 .59799197 .31799317 .72299197 .33099366 .73498538 .33099366 .7369995 .33099366 .73999026 .33099366 .746994 .32699586 .75 .32099916 .75 .31098939 .75 .22099304 .6819916 .1619873 .5549927 .11099243 .44499208 .09899902 .33399964 .09899902 .25 .09899902 .17199707 .10998535 .050994874 .16499329-.06201172 .22499085-.18501282 .31098939-.25 .32099916-.25 .32699586-.25 .33099366-.24700928 .33099366-.2400055Z"/>
<path id="font_5_1" d="M.5049896 .18203736H.47099305C.46798707 .16001892 .45799256 .100997928 .44499208 .09098816 .43699647 .084991458 .3600006 .084991458 .34599305 .084991458H.1619873C.2669983 .17803955 .3019867 .20603943 .3619995 .25306703 .43598939 .312088 .5049896 .374115 .5049896 .46914674 .5049896 .5900879 .39898683 .6640625 .2709961 .6640625 .14698792 .6640625 .06298828 .57710269 .06298828 .4851532 .06298828 .43414308 .10598755 .42915345 .115997318 .42915345 .13999939 .42915345 .16899109 .44615174 .16899109 .48214723 .16899109 .5001526 .1619873 .53515627 .10998535 .53515627 .14099121 .6060791 .20899964 .62805178 .2559967 .62805178 .35598756 .62805178 .4079895 .5501404 .4079895 .46914674 .4079895 .38212586 .34599305 .3130951 .31399537 .27708436L.07299805 .038986207C.06298828 .02999878 .06298828 .027999878 .06298828 0H.47499085L.5049896 .18203736Z"/>
<path id="font_1_2" d="M.2889862 .25C.2889862 .32798768 .27799989 .44898988 .22299195 .56199648 .16299439 .68499758 .07699585 .75 .066986087 .75 .06098938 .75 .056991579 .74598696 .056991579 .73999026 .056991579 .7369995 .056991579 .73498538 .07598877 .71699526 .17399597 .6179962 .23098755 .45899964 .23098755 .25 .23098755 .07899475 .19400025-.09700012 .069992069-.2230072 .056991579-.23500061 .056991579-.23701477 .056991579-.2400055 .056991579-.2460022 .06098938-.25 .066986087-.25 .07699585-.25 .16699219-.18200684 .22599793-.055007936 .2769928 .054992677 .2889862 .16600037 .2889862 .25Z"/>
</defs>
<path transform="matrix(1.00006,0,0,-1,1.4611073,115.185)" d="M0 85.04042V0H113.38724V85.04042Z" fill="#d9b38c"/>
<path transform="matrix(1.00006,0,0,-1,1.4611073,115.185)" stroke-width=".3985" stroke-linecap="butt" stroke-miterlimit="10" stroke-linejoin="miter" fill="none" stroke="#000000" d="M0 85.04042V0H113.38724V85.04042Z"/>
<use data-text="4" xlink:href="#font_1_6" transform="matrix(9.963197,0,0,-9.9626,47.646875,125.125)"/>
<use data-text="c" xlink:href="#font_2_43" transform="matrix(9.963197,0,0,-9.9626,55.946374,125.125)"/>
<use data-text="m" xlink:href="#font_2_75" transform="matrix(9.963197,0,0,-9.9626,60.370035,125.125)"/>
<use data-text="3" xlink:href="#font_1_5" transform="matrix(9.963197,0,0,-9.9626,118.375118,75.81999)"/>
<use data-text="c" xlink:href="#font_2_43" transform="matrix(9.963197,0,0,-9.9626,126.674617,75.81999)"/>
<use data-text="m" xlink:href="#font_2_75" transform="matrix(9.963197,0,0,-9.9626,131.09827,75.81999)"/>
<use data-text="A" xlink:href="#font_3_1" transform="matrix(9.963197,0,0,-9.9626,29.496788,66.966)"/>
<use data-text="=" xlink:href="#font_1_7" transform="matrix(9.963197,0,0,-9.9626,39.736406,66.966)"/>
<use data-text="4" xlink:href="#font_1_6" transform="matrix(9.963197,0,0,-9.9626,50.23761,66.966)"/>
<use data-text="&#x00b7;" xlink:href="#font_4_1" transform="matrix(9.963197,0,0,-9.9626,57.44847,66.966)"/>
<use data-text="3" xlink:href="#font_1_5" transform="matrix(9.963197,0,0,-9.9626,62.430765,66.966)"/>
<use data-text="=" xlink:href="#font_1_7" transform="matrix(9.963197,0,0,-9.9626,39.736406,83.145008)"/>
<use data-text="1" xlink:href="#font_1_3" transform="matrix(9.963197,0,0,-9.9626,50.23761,83.145008)"/>
<use data-text="2" xlink:href="#font_1_4" transform="matrix(9.963197,0,0,-9.9626,55.219209,83.145008)"/>
<use data-text="(" xlink:href="#font_1_1" transform="matrix(9.963197,0,0,-9.9626,61.864664,83.145008)"/>
<use data-text="c" xlink:href="#font_2_43" transform="matrix(9.963197,0,0,-9.9626,65.75196,83.145008)"/>
<use data-text="m" xlink:href="#font_2_75" transform="matrix(9.963197,0,0,-9.9626,70.17562,83.145008)"/>
<use data-text="2" xlink:href="#font_5_1" transform="matrix(6.9742186,0,0,-6.9738,78.47473,79.032)"/>
<use data-text=")" xlink:href="#font_1_2" transform="matrix(9.963197,0,0,-9.9626,82.944,83.145008)"/>
<path transform="matrix(1.00006,0,0,-1,1.4611073,115.185)" d="M198.42766 113.38724V0H283.4681V113.38724Z" fill="#d9b38c"/>
<path transform="matrix(1.00006,0,0,-1,1.4611073,115.185)" stroke-width=".3985" stroke-linecap="butt" stroke-miterlimit="10" stroke-linejoin="miter" fill="none" stroke="#000000" d="M198.42766 113.38724V0H283.4681V113.38724Z"/>
<use data-text="3" xlink:href="#font_1_5" transform="matrix(9.963197,0,0,-9.9626,231.91194,125.125)"/>
<use data-text="c" xlink:href="#font_2_43" transform="matrix(9.963197,0,0,-9.9626,240.21143,125.125)"/>
<use data-text="m" xlink:href="#font_2_75" transform="matrix(9.963197,0,0,-9.9626,244.6351,125.125)"/>
<use data-text="4" xlink:href="#font_1_6" transform="matrix(9.963197,0,0,-9.9626,288.4663,61.647005)"/>
<use data-text="c" xlink:href="#font_2_43" transform="matrix(9.963197,0,0,-9.9626,296.7658,61.647005)"/>
<use data-text="m" xlink:href="#font_2_75" transform="matrix(9.963197,0,0,-9.9626,301.18949,61.647005)"/>
<use data-text="A" xlink:href="#font_3_1" transform="matrix(9.963197,0,0,-9.9626,213.76183,52.793)"/>
<use data-text="=" xlink:href="#font_1_7" transform="matrix(9.963197,0,0,-9.9626,224.00144,52.793)"/>
<use data-text="3" xlink:href="#font_1_5" transform="matrix(9.963197,0,0,-9.9626,234.50264,52.793)"/>
<use data-text="&#x00b7;" xlink:href="#font_4_1" transform="matrix(9.963197,0,0,-9.9626,241.7135,52.793)"/>
<use data-text="4" xlink:href="#font_1_6" transform="matrix(9.963197,0,0,-9.9626,246.6958,52.793)"/>
<use data-text="=" xlink:href="#font_1_7" transform="matrix(9.963197,0,0,-9.9626,224.00144,68.972)"/>
<use data-text="1" xlink:href="#font_1_3" transform="matrix(9.963197,0,0,-9.9626,234.50264,68.972)"/>
<use data-text="2" xlink:href="#font_1_4" transform="matrix(9.963197,0,0,-9.9626,239.48424,68.972)"/>
<use data-text="(" xlink:href="#font_1_1" transform="matrix(9.963197,0,0,-9.9626,246.1297,68.972)"/>
<use data-text="c" xlink:href="#font_2_43" transform="matrix(9.963197,0,0,-9.9626,250.017,68.972)"/>
<use data-text="m" xlink:href="#font_2_75" transform="matrix(9.963197,0,0,-9.9626,254.44066,68.972)"/>
<use data-text="2" xlink:href="#font_5_1" transform="matrix(6.9742186,0,0,-6.9738,262.73976,64.85899)"/>
<use data-text=")" xlink:href="#font_1_2" transform="matrix(9.963197,0,0,-9.9626,267.20906,68.972)"/>
</svg>
