<svg xmlns="http://www.w3.org/2000/svg" xmlns:xlink="http://www.w3.org/1999/xlink" version="1.1" width="167" height="148" viewBox="0 0 167 148">
<defs>
<path id="font_1_1" d="M.69898989 .22743225C.71499636 .22743225 .7369995 .22743225 .7369995 .25042726 .7369995 .2734375 .71499636 .2734375 .69898989 .2734375H.12599182C.10998535 .2734375 .08799744 .2734375 .08799744 .25042726 .08799744 .22743225 .10998535 .22743225 .12599182 .22743225H.69898989Z"/>
<path id="font_2_6" d="M.13999939 .5618439C.15299988 .55784609 .19299317 .54785159 .23498535 .54785159 .3600006 .54785159 .43598939 .6358948 .43598939 .6510315 .43598939 .6620331 .42900086 .66503909 .42399598 .66503909 .42199708 .66503909 .41999818 .66503909 .41099549 .6600342 .37199403 .6450348 .32598878 .632843 .27198792 .632843 .21299744 .632843 .1639862 .6480255 .1329956 .6600342 .12298584 .66503909 .12098694 .66503909 .11999512 .66503909 .10699463 .66503909 .10699463 .6540375 .10699463 .6358948V.34292604C.10699463 .32492066 .10699463 .312912 .12298584 .312912 .1309967 .312912 .13398743 .3169098 .13899231 .32492066 .15098572 .33992005 .18899536 .39093019 .27398683 .39093019 .32998658 .39093019 .35699464 .34492494 .3659973 .32591249 .3829956 .28990174 .3849945 .24389649 .3849945 .20487976 .3849945 .1678772 .38398744 .11387634 .35598756 .069732669 .33699037 .039611818 .29699708 .008514404 .24398804 .008514404 .1789856 .008514404 .114990238 .0496521 .09199524 .11488342 .09498596 .11387634 .100997928 .11387634 .101989749 .11387634 .12998963 .11387634 .1519928 .13188172 .1519928 .16288758 .1519928 .19989014 .12298584 .21289063 .102996829 .21289063 .084991458 .21289063 .052993776 .20288086 .052993776 .15988159 .052993776 .069732669 .1309967-.021484375 .24598694-.021484375 .37098695-.021484375 .47698976 .07574463 .47698976 .19989014 .47698976 .31591798 .3929901 .4189453 .2749939 .4189453 .22499085 .4189453 .17799378 .40293885 .13999939 .368927V.5618439Z"/>
<path id="font_2_5" d="M.3939972 .6468048C.3939972 .6667938 .3939972 .6748047 .37298585 .6748047 .3600006 .6748047 .35899354 .6737976 .34899903 .65979006L.02999878 .197052V.1640625H.31199647V.08100891C.31199647 .04399109 .30899049 .032989503 .23199463 .032989503H.20899964V0C.2939911 .0029907227 .29599 .0029907227 .35299684 .0029907227 .4099884 .0029907227 .4119873 .0029907227 .49699403 0V.032989503H.47399903C.39698792 .032989503 .3939972 .04399109 .3939972 .08100891V.1640625H.5V.197052H.3939972V.6468048M.31900025 .5658417V.197052H.06498718L.31900025 .5658417Z"/>
<path id="font_2_4" d="M.25299073 .33370973C.33198548 .33370973 .38198854 .27557374 .38198854 .17037964 .38198854 .045440675 .31098939 .008514404 .2579956 .008514404 .20298767 .008514404 .12799073 .0284729 .09298706 .08137512 .1289978 .08137512 .1539917 .10437012 .1539917 .13737488 .1539917 .16937256 .1309967 .19238281 .09899902 .19238281 .07199097 .19238281 .04399109 .17536927 .04399109 .13537598 .04399109 .04045105 .1459961-.021484375 .2599945-.021484375 .3929901-.021484375 .48599244 .070388797 .48599244 .17037964 .48599244 .25352479 .41999818 .32969667 .31799317 .3517456 .39698792 .37982179 .45599366 .4479828 .45599366 .52804568 .45599366 .6080475 .3659973 .66503909 .2619934 .66503909 .15499878 .66503909 .07398987 .6070404 .07398987 .53105166 .07398987 .49404908 .09899902 .4780426 .125 .4780426 .1559906 .4780426 .17599488 .5000458 .17599488 .52905276 .17599488 .56604006 .14399719 .5800476 .12199402 .5810547 .1639862 .6360321 .24099732 .6390381 .25898744 .6390381 .2849884 .6390381 .36099244 .6310272 .36099244 .52804568 .36099244 .45799256 .33198548 .41589356 .31799317 .39985658 .28799439 .36878968 .2649994 .36679078 .20399475 .3627777 .18499756 .36177064 .1769867 .36076356 .1769867 .3477478 .1769867 .33370973 .18598938 .33370973 .20298767 .33370973H.25299073Z"/>
<path id="font_2_3" d="M.28199769 .20405579C.2979889 .21907044 .33999635 .2520752 .35598756 .26608277 .41799928 .32312013 .47698976 .3781433 .47698976 .46917726 .47698976 .588089 .3769989 .66503909 .2519989 .66503909 .13198853 .66503909 .052993776 .57411196 .052993776 .48516847 .052993776 .4361725 .09199524 .4291687 .10598755 .4291687 .1269989 .4291687 .1579895 .4441681 .1579895 .48217774 .1579895 .5341797 .10798645 .5341797 .09599304 .5341797 .125 .6070709 .19198609 .6320343 .24099732 .6320343 .33399964 .6320343 .38198854 .55314639 .38198854 .46917726 .38198854 .36514283 .30899049 .28910829 .19099427 .16804505L.06498718 .037994386C.052993776 .026992798 .052993776 .024993897 .052993776 0H.44799806L.47698976 .17904663H.44599916C.44299317 .1590271 .43499757 .10900879 .4229889 .08999634 .4169922 .08198547 .34098817 .08198547 .32499696 .08198547H.14698792L.28199769 .20405579Z"/>
<path id="font_2_2" d="M.31399537 .63708499C.31399537 .664032 .31199647 .66503909 .2849884 .66503909 .24398804 .6251831 .19099427 .6013489 .09599304 .6013489V.5683594C.12298584 .5683594 .1769867 .5683594 .23498535 .5953522V.08203125C.23498535 .04499817 .23199463 .032989503 .13699341 .032989503H.101989749V0C.14299011 .0029907227 .22898865 .0029907227 .27398683 .0029907227 .31900025 .0029907227 .4059906 .0029907227 .44699098 0V.032989503H.4119873C.31698609 .032989503 .31399537 .04499817 .31399537 .08203125V.63708499Z"/>
<path id="font_2_8" d="M.33198548 .36080934C.3880005 .38783265 .45599366 .4378662 .45599366 .5159302 .45599366 .6110077 .35899354 .66503909 .2659912 .66503909 .1599884 .66503909 .07398987 .59199526 .07398987 .49790956 .07398987 .46089173 .08699036 .42686463 .11199951 .39782716 .1289978 .3768158 .1329956 .3748169 .19499207 .3357849 .070999149 .2807312 .04399109 .20767212 .04399109 .15162659 .04399109 .041534425 .15499878-.021484375 .2639923-.021484375 .3869934-.021484375 .48599244 .061553956 .48599244 .16764832 .48599244 .23069763 .45199586 .2727356 .43598939 .28974916 .4189911 .30575563 .41799928 .3067627 .33198548 .36080934M.1769867 .45487977C.147995 .4718933 .12399292 .5009155 .12399292 .5359497 .12399292 .598999 .19299317 .6390381 .2639923 .6390381 .34199525 .6390381 .4059906 .5859833 .4059906 .5159302 .4059906 .45788575 .36099244 .408844 .3019867 .37982179L.1769867 .45487977M.22599793 .31776429C.22999573 .31576539 .34399415 .24571228 .36099244 .23469544 .3769989 .22569275 .42900086 .19366455 .42900086 .13360596 .42900086 .056549074 .34799195 .008514404 .2659912 .008514404 .1769867 .008514404 .100997928 .06956482 .100997928 .15162659 .100997928 .22668457 .15699768 .28573609 .22599793 .31776429Z"/>
<path id="font_2_7" d="M.13798523 .33073426C.13798523 .41377259 .14498902 .4868164 .18099976 .54782107 .21099854 .5978241 .2619934 .6390381 .32499696 .6390381 .34498597 .6390381 .3909912 .63601687 .4139862 .60084536 .36898805 .5988312 .36499024 .5648346 .36499024 .553833 .36499024 .5238342 .3880005 .50683596 .4119873 .50683596 .42999269 .50683596 .45899964 .51782229 .45899964 .5558319 .45899964 .615921 .4139862 .66503909 .32398988 .66503909 .18499756 .66503909 .04399109 .53282168 .04399109 .31672669 .04399109 .045532228 .16999817-.021484375 .2669983-.021484375 .31498719-.021484375 .36698915-.0084991459 .4119873 .03453064 .45199586 .07354736 .48599244 .11558533 .48599244 .20263672 .48599244 .33372499 .3869934 .42578126 .27598573 .42578126 .20399475 .42578126 .16099549 .37976075 .13798523 .33073426M.2669983 .008514404C.21398926 .008514404 .18099976 .045532228 .1659851 .07354736 .14299011 .11859131 .14099121 .18663025 .14099121 .22465515 .14099121 .32373048 .19499207 .3977661 .27198792 .3977661 .32199098 .3977661 .35198976 .37176515 .37098695 .33673097 .3919983 .29971314 .3919983 .25468446 .3919983 .2036438 .3919983 .15260315 .3919983 .10858154 .37199403 .07255554 .34599305 .026519776 .31098939 .008514404 .2669983 .008514404Z"/>
<path id="font_2_1" d="M.4889984 .31877137C.4889984 .42585755 .47799684 .49090577 .44499208 .55496218 .40098573 .6430359 .31999208 .66503909 .2649994 .66503909 .13899231 .66503909 .09298706 .5709839 .07899475 .5429535 .042999269 .4698944 .040985109 .3708191 .040985109 .31877137 .040985109 .25271607 .04399109 .15162659 .09199524 .07156372 .13798523-.0024871827 .21199036-.021484375 .2649994-.021484375 .31298829-.021484375 .39898683-.0064849855 .44898988 .09257507 .48599244 .16464234 .4889984 .2537079 .4889984 .31877137M.2649994 .006515503C.23098755 .006515503 .1619873 .022521973 .14099121 .12760926 .12998963 .18466187 .12998963 .2787323 .12998963 .33078004 .12998963 .3998413 .12998963 .4698944 .14099121 .5249481 .1619873 .6270294 .23999024 .6370239 .2649994 .6370239 .29899598 .6370239 .36799623 .62002566 .3880005 .5289459 .3999939 .4738922 .3999939 .39883424 .3999939 .33078004 .3999939 .27172853 .3999939 .18165589 .3880005 .12561035 .36698915 .020523072 .2979889 .006515503 .2649994 .006515503Z"/>
<path id="font_3_1" d="M.33099366-.2400055C.33099366-.23701477 .33099366-.23500061 .31399537-.21800232 .18899536-.0920105 .15699768 .09700012 .15699768 .25 .15699768 .42399598 .19499207 .59799197 .31799317 .72299197 .33099366 .73498538 .33099366 .7369995 .33099366 .73999026 .33099366 .746994 .32699586 .75 .32099916 .75 .31098939 .75 .22099304 .6819916 .1619873 .5549927 .11099243 .44499208 .09899902 .33399964 .09899902 .25 .09899902 .17199707 .10998535 .050994874 .16499329-.06201172 .22499085-.18501282 .31098939-.25 .32099916-.25 .32699586-.25 .33099366-.24700928 .33099366-.2400055Z"/>
<path id="font_4_1" d="M.6589966 .23046875C.6759949 .23046875 .69400027 .23046875 .69400027 .25045777 .69400027 .27046205 .6759949 .27046205 .6589966 .27046205H.117996219C.100997928 .27046205 .08299255 .27046205 .08299255 .25045777 .08299255 .23046875 .100997928 .23046875 .117996219 .23046875H.6589966Z"/>
<path id="font_3_6" d="M.2899933 .35191346C.37199403 .37893678 .42999269 .4490509 .42999269 .52809146 .42999269 .6100464 .34199525 .6660156 .24598694 .6660156 .14498902 .6660156 .068984989 .60606387 .068984989 .53009036 .068984989 .49710084 .09098816 .47808839 .11999512 .47808839 .15098572 .47808839 .17098999 .50009158 .17098999 .5290985 .17098999 .57910159 .12399292 .57910159 .10899353 .57910159 .13999939 .62802127 .20599365 .64100649 .24198914 .64100649 .2829895 .64100649 .33799745 .6190338 .33799745 .5290985 .33799745 .51708987 .33599855 .45906068 .30999757 .4149933 .27999879 .36691285 .24598694 .36390687 .22099304 .36291505 .21299744 .36190797 .18899536 .35990907 .18199158 .35990907 .17399597 .35890199 .16699219 .35791017 .16699219 .3479004 .16699219 .33691407 .17399597 .33691407 .19099427 .33691407H.23498535C.31698609 .33691407 .35398866 .2686615 .35398866 .17037964 .35398866 .034469606 .2849884 .0055389406 .24099732 .0055389406 .19799805 .0055389406 .12298584 .022491456 .08799744 .08137512 .12298584 .07637024 .1539917 .09837341 .1539917 .1363678 .1539917 .17237854 .1269989 .19238281 .09799194 .19238281 .07398987 .19238281 .041992189 .17837525 .041992189 .1343689 .041992189 .043441774 .1349945-.022460938 .24398804-.022460938 .3659973-.022460938 .45700074 .06838989 .45700074 .17037964 .45700074 .252594 .3939972 .33088685 .2899933 .35191346Z"/>
<path id="font_5_1" d="M.20298767 .0009918213C.20298767 .066986087 .17799378 .10598755 .13899231 .10598755 .10598755 .10598755 .085998538 .08099365 .085998538 .052993776 .085998538 .025985718 .10598755 0 .13899231 0 .15098572 0 .1639862 .0039978029 .17399597 .0129852299 .1769867 .01499939 .17799378 .015991211 .1789856 .015991211 .17999268 .015991211 .18099976 .01499939 .18099976 .0009918213 .18099976-.07316589 .1459961-.13328552 .11299133-.16635132 .101989749-.17736817 .101989749-.17936707 .101989749-.18237305 .101989749-.18936157 .10699463-.19335938 .11199951-.19335938 .12298584-.19335938 .20298767-.116256717 .20298767 .0009918213Z"/>
<path id="font_3_3" d="M.45999146 .31976319C.45999146 .39982606 .45498658 .47988893 .41999818 .5539398 .37399293 .65000918 .2919922 .6660156 .25 .6660156 .18998719 .6660156 .116989139 .64001467 .07598877 .54693606 .04399109 .47789 .038986207 .39982606 .038986207 .31976319 .038986207 .24472046 .042999269 .15464783 .083999637 .07859802 .1269989-.0024719239 .19999695-.022460938 .24899292-.022460938 .30299378-.022460938 .3789978-.0014648438 .4229889 .09359741 .45498658 .16265869 .45999146 .2407074 .45999146 .31976319M.24899292-.00047302247C.20999146-.00047302247 .15098572 .024551392 .1329956 .12062073 .12199402 .18066406 .12199402 .2727356 .12199402 .3317871 .12199402 .39582826 .12199402 .46188355 .12998963 .5159149 .14898682 .63500979 .22399903 .64401248 .24899292 .64401248 .28199769 .64401248 .34799195 .6259918 .36698915 .52693179 .3769989 .47088624 .3769989 .39482118 .3769989 .3317871 .3769989 .25672914 .3769989 .18867493 .3659973 .12461853 .35099793 .029556275 .2939911-.00047302247 .24899292-.00047302247Z"/>
<path id="font_3_2" d="M.2889862 .25C.2889862 .32798768 .27799989 .44898988 .22299195 .56199648 .16299439 .68499758 .07699585 .75 .066986087 .75 .06098938 .75 .056991579 .74598696 .056991579 .73999026 .056991579 .7369995 .056991579 .73498538 .07598877 .71699526 .17399597 .6179962 .23098755 .45899964 .23098755 .25 .23098755 .07899475 .19400025-.09700012 .069992069-.2230072 .056991579-.23500061 .056991579-.23701477 .056991579-.2400055 .056991579-.2460022 .06098938-.25 .066986087-.25 .07699585-.25 .16699219-.18200684 .22599793-.055007936 .2769928 .054992677 .2889862 .16600037 .2889862 .25Z"/>
<path id="font_3_5" d="M.1269989 .07699585 .23298645 .18003845C.3889923 .31811524 .44898988 .3721466 .44898988 .47216798 .44898988 .5860901 .35899354 .6660156 .23699951 .6660156 .12399292 .6660156 .049987794 .57411196 .049987794 .48516847 .049987794 .4291687 .099990848 .4291687 .102996829 .4291687 .11999512 .4291687 .15499878 .44117738 .15499878 .48217774 .15499878 .5081787 .13699341 .5341797 .101989749 .5341797 .09399414 .5341797 .09199524 .5341797 .08898926 .5331726 .11199951 .59806826 .1659851 .63500979 .22399903 .63500979 .31498719 .63500979 .35798646 .5541382 .35798646 .47216798 .35798646 .39215089 .30799867 .31311036 .25299073 .25108338L.06098938 .036987306C.049987794 .025985718 .049987794 .023986817 .049987794 0H.42099L.44898988 .17404175H.42399598C.4189911 .14402771 .4119873 .1000061 .4019928 .084991458 .394989 .07699585 .32899476 .07699585 .30699159 .07699585H.1269989Z"/>
<path id="font_3_7" d="M.13198853 .327713V.35173036C.13198853 .6047821 .2559967 .64100649 .30699159 .64100649 .33099366 .64100649 .37298585 .634964 .394989 .6007538 .37998963 .6007538 .33999635 .6007538 .33999635 .5557556 .33999635 .524765 .3639984 .5097656 .38598634 .5097656 .4019928 .5097656 .43199159 .51875308 .43199159 .5577545 .43199159 .6178589 .3880005 .6660156 .30499269 .6660156 .1769867 .6660156 .041992189 .5367584 .041992189 .31570436 .041992189 .048553468 .1579895-.022460938 .25099183-.022460938 .3619995-.022460938 .45700074 .07156372 .45700074 .2036438 .45700074 .33070375 .36799623 .4267578 .25698854 .4267578 .18899536 .4267578 .1519928 .37573243 .13198853 .327713M.25099183 .0055389406C.18798828 .0055389406 .1579895 .06556702 .1519928 .080566409 .13398743 .127594 .13398743 .2076416 .13398743 .22564698 .13398743 .30369569 .1659851 .40374757 .2559967 .40374757 .27198792 .40374757 .31799317 .40374757 .34899903 .34172059 .36698915 .30470277 .36698915 .2536621 .36698915 .20463562 .36698915 .15661621 .36698915 .10658264 .34999085 .0705719 .31999208 .010528564 .27398683 .0055389406 .25099183 .0055389406Z"/>
<path id="font_3_4" d="M.2939911 .64004519C.2939911 .66400149 .2939911 .6660156 .2709961 .6660156 .20899964 .60227969 .12098694 .60227969 .08898926 .60227969V.57128909C.10899353 .57128909 .16799927 .57128909 .21998596 .5972748V.07902527C.21998596 .042999269 .21699524 .0309906 .1269989 .0309906H.09498596V0C.12998963 .0029907227 .21699524 .0029907227 .25698854 .0029907227 .29699708 .0029907227 .38398744 .0029907227 .4189911 0V.0309906H.3869934C.29699708 .0309906 .2939911 .041992189 .2939911 .07902527V.64004519Z"/>
<path id="font_3_8" d="M.16299439 .4569702C.116989139 .486969 .11299133 .52098086 .11299133 .5379791 .11299133 .598999 .17799378 .64100649 .24899292 .64100649 .32199098 .64100649 .38598634 .58898928 .38598634 .51698306 .38598634 .45996095 .34700013 .4119568 .2869873 .37695313L.16299439 .4569702M.30899049 .36193849C.3809967 .3989563 .42999269 .45095826 .42999269 .51698306 .42999269 .6090088 .34098817 .6660156 .25 .6660156 .1499939 .6660156 .068984989 .59199526 .068984989 .49897767 .068984989 .4809723 .070999149 .43595887 .11299133 .38894654 .12399292 .37695313 .16099549 .35194398 .18598938 .33494569 .12799073 .30592347 .041992189 .24984741 .041992189 .15072632 .041992189 .04458618 .14399719-.022460938 .24899292-.022460938 .3619995-.022460938 .45700074 .06060791 .45700074 .16773987 .45700074 .20379639 .44599916 .24885559 .4079895 .2909088 .3889923 .31193543 .37298585 .3219452 .30899049 .36193849M.20899964 .3199463 .33198548 .24183655C.3600006 .2228241 .40699769 .19277954 .40699769 .13169861 .40699769 .05760193 .33198548 .0055389406 .25 .0055389406 .1639862 .0055389406 .09199524 .067611698 .09199524 .15072632 .09199524 .20880127 .12399292 .27288819 .20899964 .3199463Z"/>
<path id="font_5_4" d="M.48599244 .38136292C.48999024 .39537049 .48999024 .39736939 .48999024 .40437318 .48999024 .42237855 .47599793 .43138124 .46099855 .43138124 .45098878 .43138124 .43499757 .42536927 .42599488 .41036988 .42399598 .405365 .41600038 .37435914 .4119873 .35635377 .40499879 .33035279 .397995 .30334474 .3919983 .27633668L.34700013 .09628296C.34298707 .08126831 .2999878 .011245728 .23399353 .011245728 .18299866 .011245728 .17199707 .055267335 .17199707 .0922699 .17199707 .1382904 .18899536 .20030213 .22299195 .28833009 .23899842 .3293457 .24299622 .3403473 .24299622 .36035157 .24299622 .405365 .21099854 .4423828 .16099549 .4423828 .06599426 .4423828 .0289917 .29733277 .0289917 .28833009 .0289917 .27833558 .038986207 .27833558 .040985109 .27833558 .050994874 .27833558 .051986696 .28033448 .056991579 .29634095 .083999637 .3903656 .12399292 .42037965 .1579895 .42037965 .1659851 .42037965 .18299866 .42037965 .18299866 .3883667 .18299866 .36335755 .17298889 .3373413 .1659851 .31834413 .12599182 .21231079 .10798645 .1552887 .10798645 .10827637 .10798645 .019256592 .17098999-.0107421879 .22999573-.0107421879 .2689972-.0107421879 .30299378 .0062561037 .33099366 .03425598 .31799317-.017745972 .30599977-.06674194 .2659912-.11973572 .23999024-.15385437 .20199585-.18309021 .1559906-.18309021 .14199829-.18309021 .09700012-.18005371 .07998657-.14074707 .09599304-.14074707 .10899353-.14074707 .12298584-.1287384 .1329956-.11973572 .14299011-.10673523 .14299011-.08773804 .14299011-.056747438 .115997318-.052734376 .10598755-.052734376 .08299255-.052734376 .049987794-.068740848 .049987794-.11773682 .049987794-.16796875 .09399414-.20507813 .1559906-.20507813 .25898744-.20507813 .3619995-.11373901 .3899994-.00074768069L.48599244 .38136292Z"/>
<path id="font_3_9" d="M.68699648 .32714845C.70199587 .32714845 .72099307 .32714845 .72099307 .34713746 .72099307 .36714173 .70199587 .36714173 .6879883 .36714173H.08898926C.07499695 .36714173 .055999757 .36714173 .055999757 .34713746 .055999757 .32714845 .07499695 .32714845 .08999634 .32714845H.68699648M.6879883 .13284302C.70199587 .13284302 .72099307 .13284302 .72099307 .15284729 .72099307 .17285156 .70199587 .17285156 .68699648 .17285156H.08999634C.07499695 .17285156 .055999757 .17285156 .055999757 .15284729 .055999757 .13284302 .07499695 .13284302 .08898926 .13284302H.6879883Z"/>
<path id="font_5_2" d="M.2869873 .68333438C.2869873 .6843262 .2869873 .69433596 .27398683 .69433596 .25099183 .69433596 .17799378 .6863251 .1519928 .6843262 .14399719 .68333438 .1329956 .6823273 .1329956 .6643219 .1329956 .6523285 .14199829 .6523285 .15699768 .6523285 .20498657 .6523285 .20698548 .6453247 .20698548 .6353302L.20399475 .6153412 .05899048 .039260866C.054992677 .025253296 .054992677 .023254395 .054992677 .01725769 .054992677-.0057525637 .07499695-.0107421879 .083999637-.0107421879 .099990848-.0107421879 .115997318 .0012512207 .12098694 .015258789L.13999939 .091278079 .1619873 .18130493C.16799927 .2033081 .17399597 .22531128 .1789856 .24832154 .18099976 .25431825 .18899536 .28733827 .18998719 .29333497 .19299317 .30233766 .22399903 .35835267 .2579956 .38536073 .27999879 .4013672 .31098939 .42037965 .35398866 .42037965 .39698792 .42037965 .4079895 .3863678 .4079895 .35035707 .4079895 .29634095 .36999513 .18730164 .34599305 .12628174 .33799745 .103271488 .33299256 .091278079 .33299256 .0712738 .33299256 .024261475 .36799623-.0107421879 .4149933-.0107421879 .5089874-.0107421879 .54599 .13528443 .54599 .14329529 .54599 .1532898 .5369873 .1532898 .5339966 .1532898 .5239868 .1532898 .5239868 .15029907 .5189972 .13528443 .5039978 .08227539 .47200013 .011245728 .4169922 .011245728 .3999939 .011245728 .3929901 .021255494 .3929901 .044265748 .3929901 .0692749 .4019928 .09327698 .41099549 .11528015 .4269867 .15829468 .47200013 .2773285 .47200013 .3353424 .47200013 .4003601 .43199159 .4423828 .35699464 .4423828 .2939911 .4423828 .24598694 .41137696 .20899964 .36535646L.2869873 .68333438Z"/>
<path id="font_5_3" d="M.33399964 .30233766C.33999635 .32835389 .36299134 .42037965 .43299867 .42037965 .43798829 .42037965 .46199037 .42037965 .48298646 .40734864 .45498658 .402359 .43499757 .37734986 .43499757 .35334779 .43499757 .33735658 .44599916 .31835938 .47299195 .31835938 .49499513 .31835938 .5269928 .3363495 .5269928 .37635804 .5269928 .42837525 .46798707 .4423828 .43399049 .4423828 .37599183 .4423828 .34098817 .38935853 .32899476 .36634828 .3039856 .43237306 .25 .4423828 .22099304 .4423828 .116989139 .4423828 .05999756 .3133545 .05999756 .28834535 .05999756 .27833558 .069992069 .27833558 .07199097 .27833558 .07998657 .27833558 .08299255 .28033448 .084991458 .28933717 .11898804 .39535523 .18499756 .42037965 .21899414 .42037965 .23799134 .42037965 .272995 .4113617 .272995 .35334779 .272995 .32235719 .2559967 .25532533 .21899414 .11528015 .20298767 .053268434 .16799927 .011245728 .12399292 .011245728 .117996219 .011245728 .09498596 .011245728 .07398987 .024276734 .09899902 .029266358 .12098694 .05027771 .12098694 .07827759 .12098694 .105270389 .09899902 .11328125 .083999637 .11328125 .053985597 .11328125 .0289917 .08728027 .0289917 .055267335 .0289917 .009246826 .07899475-.0107421879 .12298584-.0107421879 .18899536-.0107421879 .22499085 .059280397 .22799683 .0652771 .23999024 .028274537 .27598573-.0107421879 .33599855-.0107421879 .43899537-.0107421879 .49598695 .118270877 .49598695 .14328003 .49598695 .1532898 .4869995 .1532898 .48399354 .1532898 .47499085 .1532898 .47299195 .14929199 .47099305 .14228821 .43798829 .03527832 .36999513 .011245728 .33799745 .011245728 .29899598 .011245728 .2829895 .043273927 .2829895 .07727051 .2829895 .09927368 .2889862 .121276859 .2999878 .16529846L.33399964 .30233766Z"/>
</defs>
<path transform="matrix(1,0,0,-1.00006,1.4610005,145.96002)" d="M0 0H163.89252V141.35407H0Z" fill="#fffac2"/>
<path transform="matrix(1,0,0,-1.00006,1.4610005,145.96002)" stroke-width=".3985" stroke-linecap="butt" stroke-miterlimit="10" stroke-linejoin="miter" fill="none" stroke="#d5d6d5" d="M0 0V141.35407M16.38925 0V141.35407M32.7785 0V141.35407M49.16776 0V141.35407M65.557 0V141.35407M81.94626 0V141.35407M98.33551 0V141.35407M114.72476 0V141.35407M131.11402 0V141.35407M147.50327 0V141.35407M163.89252 0V141.35407"/>
<path transform="matrix(1,0,0,-1.00006,1.4610005,145.96002)" stroke-width=".3985" stroke-linecap="butt" stroke-miterlimit="10" stroke-linejoin="miter" fill="none" stroke="#d5d6d5" d="M16.38925 0V141.35407M32.7785 0V141.35407M49.16776 0V141.35407M65.557 0V141.35407M81.94626 0V141.35407M114.72476 0V141.35407M131.11402 0V141.35407M147.50327 0V141.35407"/>
<path transform="matrix(1,0,0,-1.00006,1.4610005,145.96002)" stroke-width=".3985" stroke-linecap="butt" stroke-miterlimit="10" stroke-linejoin="miter" fill="none" stroke="#d5d6d5" d="M0 0H163.89252M0 7.0677H163.89252M0 14.1354H163.89252M0 21.20311H163.89252M0 28.27081H163.89252M0 35.33852H163.89252M0 42.40622H163.89252M0 49.47392H163.89252M0 56.54163H163.89252M0 63.60933H163.89252M0 70.67703H163.89252M0 77.74474H163.89252M0 84.81244H163.89252M0 91.88014H163.89252M0 98.94785H163.89252M0 106.01555H163.89252M0 113.08325H163.89252M0 120.15096H163.89252M0 127.21866H163.89252M0 134.28636H163.89252M0 141.35407H163.89252"/>
<path transform="matrix(1,0,0,-1.00006,1.4610005,145.96002)" stroke-width=".3985" stroke-linecap="butt" stroke-miterlimit="10" stroke-linejoin="miter" fill="none" stroke="#d5d6d5" d="M0 14.1354H163.89252M0 28.27081H163.89252M0 42.40622H163.89252M0 56.54163H163.89252M0 84.81244H163.89252M0 98.94785H163.89252M0 113.08325H163.89252M0 127.21866H163.89252M0 141.35407H163.89252"/>
<path transform="matrix(1,0,0,-1.00006,1.4610005,145.96002)" stroke-width=".19925" stroke-linecap="butt" stroke-miterlimit="10" stroke-linejoin="miter" fill="none" stroke="#929292" d="M0 69.25963V72.09444M16.38925 69.25963V72.09444M32.7785 69.25963V72.09444M49.16776 69.25963V72.09444M65.557 69.25963V72.09444M81.94626 69.25963V72.09444M98.33551 69.25963V72.09444M114.72476 69.25963V72.09444M131.11402 69.25963V72.09444M147.50327 69.25963V72.09444M163.89252 69.25963V72.09444"/>
<path transform="matrix(1,0,0,-1.00006,1.4610005,145.96002)" stroke-width=".19925" stroke-linecap="butt" stroke-miterlimit="10" stroke-linejoin="miter" fill="none" stroke="#929292" d="M16.38925 68.55113V72.80292M32.7785 68.55113V72.80292M49.16776 68.55113V72.80292M65.557 68.55113V72.80292M81.94626 68.55113V72.80292M114.72476 68.55113V72.80292M131.11402 68.55113V72.80292M147.50327 68.55113V72.80292"/>
<path transform="matrix(1,0,0,-1.00006,1.4610005,145.96002)" stroke-width=".19925" stroke-linecap="butt" stroke-miterlimit="10" stroke-linejoin="miter" fill="none" stroke="#929292" d="M96.91805 0H99.75298M96.91805 7.0677H99.75298M96.91805 14.1354H99.75298M96.91805 21.20311H99.75298M96.91805 28.27081H99.75298M96.91805 35.33852H99.75298M96.91805 42.40622H99.75298M96.91805 49.47392H99.75298M96.91805 56.54163H99.75298M96.91805 63.60933H99.75298M96.91805 70.67703H99.75298M96.91805 77.74474H99.75298M96.91805 84.81244H99.75298M96.91805 91.88014H99.75298M96.91805 98.94785H99.75298M96.91805 106.01555H99.75298M96.91805 113.08325H99.75298M96.91805 120.15096H99.75298M96.91805 127.21866H99.75298M96.91805 134.28636H99.75298M96.91805 141.35407H99.75298"/>
<path transform="matrix(1,0,0,-1.00006,1.4610005,145.96002)" stroke-width=".19925" stroke-linecap="butt" stroke-miterlimit="10" stroke-linejoin="miter" fill="none" stroke="#929292" d="M96.20953 14.1354H100.46147M96.20953 28.27081H100.46147M96.20953 42.40622H100.46147M96.20953 56.54163H100.46147M96.20953 84.81244H100.46147M96.20953 98.94785H100.46147M96.20953 113.08325H100.46147M96.20953 127.21866H100.46147M96.20953 141.35407H100.46147"/>
<path transform="matrix(1,0,0,-1.00006,1.4610005,145.96002)" stroke-width=".3985" stroke-linecap="butt" stroke-miterlimit="10" stroke-linejoin="miter" fill="none" stroke="#000000" d="M1.99252 70.67703H161.9"/>
<path transform="matrix(-1,-0,0,1.00006,3.4535204,75.278759)" d="M1.99252 0-1.19551 1.59401 0 0-1.19551-1.59401"/>
<path transform="matrix(1,0,0,-1.00006,163.361,75.278759)" d="M1.99252 0-1.19551 1.59401 0 0-1.19551-1.59401"/>
<path transform="matrix(1,0,0,-1.00006,1.4610005,145.96002)" stroke-width=".3985" stroke-linecap="butt" stroke-miterlimit="10" stroke-linejoin="miter" fill="none" stroke="#000000" d="M98.33551 1.99252V139.36154"/>
<path transform="matrix(0,1.00006,1,0,99.79651,143.96738)" d="M1.99252 0-1.19551 1.59401 0 0-1.19551-1.59401"/>
<path transform="matrix(0,-1.00006,-1,-0,99.79651,6.5901186)" d="M1.99252 0-1.19551 1.59401 0 0-1.19551-1.59401"/>
<use data-text="&#x2212;" xlink:href="#font_1_1" transform="matrix(7.9701,0,0,-7.9705779,12.440001,86.06143)"/>
<use data-text="5" xlink:href="#font_2_6" transform="matrix(7.9701,0,0,-7.9705779,19.027,86.06143)"/>
<use data-text="&#x2212;" xlink:href="#font_1_1" transform="matrix(7.9701,0,0,-7.9705779,28.829,86.06143)"/>
<use data-text="4" xlink:href="#font_2_5" transform="matrix(7.9701,0,0,-7.9705779,35.416,86.06143)"/>
<use data-text="&#x2212;" xlink:href="#font_1_1" transform="matrix(7.9701,0,0,-7.9705779,45.218004,86.06143)"/>
<use data-text="3" xlink:href="#font_2_4" transform="matrix(7.9701,0,0,-7.9705779,51.805,86.06143)"/>
<use data-text="&#x2212;" xlink:href="#font_1_1" transform="matrix(7.9701,0,0,-7.9705779,61.607999,86.06143)"/>
<use data-text="2" xlink:href="#font_2_3" transform="matrix(7.9701,0,0,-7.9705779,68.195,86.06143)"/>
<use data-text="&#x2212;" xlink:href="#font_1_1" transform="matrix(7.9701,0,0,-7.9705779,77.99701,86.06143)"/>
<use data-text="1" xlink:href="#font_2_2" transform="matrix(7.9701,0,0,-7.9705779,84.58401,86.06143)"/>
<use data-text="1" xlink:href="#font_2_2" transform="matrix(7.9701,0,0,-7.9705779,114.069,86.06143)"/>
<use data-text="2" xlink:href="#font_2_3" transform="matrix(7.9701,0,0,-7.9705779,130.458,86.06143)"/>
<use data-text="3" xlink:href="#font_2_4" transform="matrix(7.9701,0,0,-7.9705779,146.847,86.06143)"/>
<use data-text="&#x2212;" xlink:href="#font_1_1" transform="matrix(7.9701,0,0,-7.9705779,85.22101,133.9773)"/>
<use data-text="8" xlink:href="#font_2_8" transform="matrix(7.9701,0,0,-7.9705779,91.80801,133.9773)"/>
<use data-text="&#x2212;" xlink:href="#font_1_1" transform="matrix(7.9701,0,0,-7.9705779,85.22101,119.840457)"/>
<use data-text="6" xlink:href="#font_2_7" transform="matrix(7.9701,0,0,-7.9705779,91.80801,119.840457)"/>
<use data-text="&#x2212;" xlink:href="#font_1_1" transform="matrix(7.9701,0,0,-7.9705779,85.22101,105.704608)"/>
<use data-text="4" xlink:href="#font_2_5" transform="matrix(7.9701,0,0,-7.9705779,91.80801,105.704608)"/>
<use data-text="&#x2212;" xlink:href="#font_1_1" transform="matrix(7.9701,0,0,-7.9705779,85.22101,91.567768)"/>
<use data-text="2" xlink:href="#font_2_3" transform="matrix(7.9701,0,0,-7.9705779,91.80801,91.567768)"/>
<use data-text="2" xlink:href="#font_2_3" transform="matrix(7.9701,0,0,-7.9705779,91.80701,63.71109)"/>
<use data-text="4" xlink:href="#font_2_5" transform="matrix(7.9701,0,0,-7.9705779,91.80701,49.57425)"/>
<use data-text="6" xlink:href="#font_2_7" transform="matrix(7.9701,0,0,-7.9705779,91.80701,35.4384)"/>
<use data-text="8" xlink:href="#font_2_8" transform="matrix(7.9701,0,0,-7.9705779,91.80701,21.302536)"/>
<use data-text="1" xlink:href="#font_2_2" transform="matrix(7.9701,0,0,-7.9705779,87.573,7.1657106)"/>
<use data-text="0" xlink:href="#font_2_1" transform="matrix(7.9701,0,0,-7.9705779,91.80513,7.1657106)"/>
<path transform="matrix(1,0,0,-1.00006,1.4610005,145.96002)" stroke-width=".3985" stroke-linecap="butt" stroke-miterlimit="10" stroke-linejoin="miter" fill="none" stroke="#70485b" d=""/>
<use data-text="(" xlink:href="#font_3_1" transform="matrix(9.9626,0,0,-9.963197,17.221,69.26742)" fill="#70485b"/>
<use data-text="&#x2212;" xlink:href="#font_4_1" transform="matrix(9.9626,0,0,-9.963197,21.095002,69.26742)" fill="#70485b"/>
<use data-text="3" xlink:href="#font_3_6" transform="matrix(9.9626,0,0,-9.963197,28.844002,69.26742)" fill="#70485b"/>
<use data-text="," xlink:href="#font_5_1" transform="matrix(9.9626,0,0,-9.963197,33.825,69.26742)" fill="#70485b"/>
<use data-text="0" xlink:href="#font_3_3" transform="matrix(9.9626,0,0,-9.963197,38.253004,69.26742)" fill="#70485b"/>
<use data-text=")" xlink:href="#font_3_2" transform="matrix(9.9626,0,0,-9.963197,43.234304,69.26742)" fill="#70485b"/>
<path transform="matrix(1,0,0,-1.00006,1.4610005,145.96002)" stroke-width=".3985" stroke-linecap="butt" stroke-miterlimit="10" stroke-linejoin="miter" fill="none" stroke="#c7502a" d=""/>
<use data-text="(" xlink:href="#font_3_1" transform="matrix(9.9626,0,0,-9.963197,25.861,120.178478)" fill="#c7502a"/>
<use data-text="&#x2212;" xlink:href="#font_4_1" transform="matrix(9.9626,0,0,-9.963197,29.735,120.178478)" fill="#c7502a"/>
<use data-text="2" xlink:href="#font_3_5" transform="matrix(9.9626,0,0,-9.963197,37.484,120.178478)" fill="#c7502a"/>
<use data-text="," xlink:href="#font_5_1" transform="matrix(9.9626,0,0,-9.963197,42.465,120.178478)" fill="#c7502a"/>
<use data-text="&#x2212;" xlink:href="#font_4_1" transform="matrix(9.9626,0,0,-9.963197,46.893,120.178478)" fill="#c7502a"/>
<use data-text="6" xlink:href="#font_3_7" transform="matrix(9.9626,0,0,-9.963197,54.642004,120.178478)" fill="#c7502a"/>
<use data-text=")" xlink:href="#font_3_2" transform="matrix(9.9626,0,0,-9.963197,59.623304,120.178478)" fill="#c7502a"/>
<path transform="matrix(1,0,0,-1.00006,1.4610005,145.96002)" stroke-width=".3985" stroke-linecap="butt" stroke-miterlimit="10" stroke-linejoin="miter" fill="none" stroke="#70485b" d=""/>
<use data-text="(" xlink:href="#font_3_1" transform="matrix(9.9626,0,0,-9.963197,119.70601,69.26742)" fill="#70485b"/>
<use data-text="1" xlink:href="#font_3_4" transform="matrix(9.9626,0,0,-9.963197,123.571498,69.26742)" fill="#70485b"/>
<use data-text="," xlink:href="#font_5_1" transform="matrix(9.9626,0,0,-9.963197,128.56201,69.26742)" fill="#70485b"/>
<use data-text="0" xlink:href="#font_3_3" transform="matrix(9.9626,0,0,-9.963197,132.99,69.26742)" fill="#70485b"/>
<use data-text=")" xlink:href="#font_3_2" transform="matrix(9.9626,0,0,-9.963197,137.9713,69.26742)" fill="#70485b"/>
<path transform="matrix(1,0,0,-1.00006,1.4610005,145.96002)" stroke-width=".3985" stroke-linecap="butt" stroke-miterlimit="10" stroke-linejoin="miter" fill="none" stroke="#c7502a" d=""/>
<use data-text="(" xlink:href="#font_3_1" transform="matrix(9.9626,0,0,-9.963197,103.31601,120.178478)" fill="#c7502a"/>
<use data-text="0" xlink:href="#font_3_3" transform="matrix(9.9626,0,0,-9.963197,107.181499,120.178478)" fill="#c7502a"/>
<use data-text="," xlink:href="#font_5_1" transform="matrix(9.9626,0,0,-9.963197,112.172008,120.178478)" fill="#c7502a"/>
<use data-text="&#x2212;" xlink:href="#font_4_1" transform="matrix(9.9626,0,0,-9.963197,116.600009,120.178478)" fill="#c7502a"/>
<use data-text="6" xlink:href="#font_3_7" transform="matrix(9.9626,0,0,-9.963197,124.34801,120.178478)" fill="#c7502a"/>
<use data-text=")" xlink:href="#font_3_2" transform="matrix(9.9626,0,0,-9.963197,129.3293,120.178478)" fill="#c7502a"/>
<path transform="matrix(1,0,0,-1.00006,1.4610005,145.96002)" stroke-width=".3985" stroke-linecap="butt" stroke-miterlimit="10" stroke-linejoin="miter" fill="none" stroke="#008099" d=""/>
<use data-text="(" xlink:href="#font_3_1" transform="matrix(9.9626,0,0,-9.963197,42.25,142.81583)" fill="#008099"/>
<use data-text="&#x2212;" xlink:href="#font_4_1" transform="matrix(9.9626,0,0,-9.963197,46.124,142.81583)" fill="#008099"/>
<use data-text="1" xlink:href="#font_3_4" transform="matrix(9.9626,0,0,-9.963197,53.873,142.81583)" fill="#008099"/>
<use data-text="," xlink:href="#font_5_1" transform="matrix(9.9626,0,0,-9.963197,58.854005,142.81583)" fill="#008099"/>
<use data-text="&#x2212;" xlink:href="#font_4_1" transform="matrix(9.9626,0,0,-9.963197,63.282007,142.81583)" fill="#008099"/>
<use data-text="8" xlink:href="#font_3_8" transform="matrix(9.9626,0,0,-9.963197,71.031009,142.81583)" fill="#008099"/>
<use data-text=")" xlink:href="#font_3_2" transform="matrix(9.9626,0,0,-9.963197,76.01231,142.81583)" fill="#008099"/>
<path transform="matrix(1,0,0,-1.00006,1.4610005,145.96002)" stroke-width=".99628" stroke-linecap="butt" stroke-miterlimit="10" stroke-linejoin="miter" fill="none" stroke="#9e0c0f" d="M34.41145 133.25557 36.87581 121.03442 40.97313 102.4817 45.07043 85.6959 49.16776 70.67703 53.26506 57.42508 57.36238 45.94006 61.45969 36.22197 65.557 28.27081 69.65431 22.08656 73.75163 17.66925 77.84894 15.01886 81.94626 14.1354 86.04356 15.01886 90.14088 17.66925 94.23819 22.08656 98.33551 28.27081 102.43282 36.22197 106.53014 45.94006 110.62746 57.42508 114.72476 70.67703 118.82208 85.6959 122.91939 102.4817 127.01671 121.03442 129.48107 133.25557"/>
<path transform="matrix(-.19765,-.9802688,-.98021,.19766185,36.011705,13.387039)" d="M7.39124 0 2.37614 1.6717 .70447 0 2.37614-1.6717Z" fill="#9e0c0f"/>
<path transform="matrix(-.19765,-.9802688,-.98021,.19766185,36.011705,13.387039)" stroke-width=".99628" stroke-linecap="butt" stroke-miterlimit="10" stroke-linejoin="miter" fill="none" stroke="#9e0c0f" d="M7.39124 0 2.37614 1.6717 .70447 0 2.37614-1.6717Z"/>
<path transform="matrix(.19765,-.9802688,-.98021,-.19766185,130.80281,13.387039)" d="M7.39124 0 2.37614 1.6717 .70447 0 2.37614-1.6717Z" fill="#9e0c0f"/>
<path transform="matrix(.19765,-.9802688,-.98021,-.19766185,130.80281,13.387039)" stroke-width=".99628" stroke-linecap="butt" stroke-miterlimit="10" stroke-linejoin="miter" fill="none" stroke="#9e0c0f" d="M7.39124 0 2.37614 1.6717 .70447 0 2.37614-1.6717Z"/>
<use data-text="y" xlink:href="#font_5_4" transform="matrix(9.9626,0,0,-9.963197,40.678,20.079483)" fill="#9e0c0f"/>
<use data-text="=" xlink:href="#font_3_9" transform="matrix(9.9626,0,0,-9.963197,48.686998,20.079483)" fill="#9e0c0f"/>
<use data-text="h" xlink:href="#font_5_2" transform="matrix(9.9626,0,0,-9.963197,59.202997,20.079483)" fill="#9e0c0f"/>
<use data-text="(" xlink:href="#font_3_1" transform="matrix(9.9626,0,0,-9.963197,64.94299,20.079483)" fill="#9e0c0f"/>
<use data-text="x" xlink:href="#font_5_3" transform="matrix(9.9626,0,0,-9.963197,68.81799,20.079483)" fill="#9e0c0f"/>
<use data-text=")" xlink:href="#font_3_2" transform="matrix(9.9626,0,0,-9.963197,74.51199,20.079483)" fill="#9e0c0f"/>
<path transform="matrix(1,0,0,-1.00006,1.4610005,145.96002)" stroke-width=".99628" stroke-linecap="butt" stroke-dasharray="2.98883,2.98883" stroke-miterlimit="10" stroke-linejoin="miter" fill="none" stroke="#929292" d="M81.94626 2.8892V138.46486"/>
<path transform="matrix(0,1.00006,1,0,83.40726,143.07065)" d="M2.8892 0-1.73352 2.31136 0 0-1.73352-2.31136" fill="#929292"/>
<path transform="matrix(0,-1.00006,-1,-0,83.40726,7.486862)" d="M2.8892 0-1.73352 2.31136 0 0-1.73352-2.31136" fill="#929292"/>
<path transform="matrix(1,0,0,-1.00006,1.4610005,145.96002)" d="M51.16031 70.67703C51.16031 71.7775 50.26822 72.66959 49.16776 72.66959 48.06728 72.66959 47.1752 71.7775 47.1752 70.67703 47.1752 69.57655 48.06728 68.68448 49.16776 68.68448 50.26822 68.68448 51.16031 69.57655 51.16031 70.67703ZM49.16776 70.67703" fill="#70485b"/>
<path transform="matrix(1,0,0,-1.00006,1.4610005,145.96002)" stroke-width=".3985" stroke-linecap="butt" stroke-miterlimit="10" stroke-linejoin="miter" fill="none" stroke="#70485b" d="M51.16031 70.67703C51.16031 71.7775 50.26822 72.66959 49.16776 72.66959 48.06728 72.66959 47.1752 71.7775 47.1752 70.67703 47.1752 69.57655 48.06728 68.68448 49.16776 68.68448 50.26822 68.68448 51.16031 69.57655 51.16031 70.67703ZM49.16776 70.67703"/>
<path transform="matrix(1,0,0,-1.00006,1.4610005,145.96002)" stroke-width=".3985" stroke-linecap="butt" stroke-miterlimit="10" stroke-linejoin="miter" fill="none" stroke="#70485b" d=""/>
<path transform="matrix(1,0,0,-1.00006,1.4610005,145.96002)" d="M67.54956 28.27081C67.54956 29.37128 66.65747 30.26337 65.557 30.26337 64.45653 30.26337 63.56445 29.37128 63.56445 28.27081 63.56445 27.17033 64.45653 26.27826 65.557 26.27826 66.65747 26.27826 67.54956 27.17033 67.54956 28.27081ZM65.557 28.27081" fill="#c7502a"/>
<path transform="matrix(1,0,0,-1.00006,1.4610005,145.96002)" stroke-width=".3985" stroke-linecap="butt" stroke-miterlimit="10" stroke-linejoin="miter" fill="none" stroke="#c7502a" d="M67.54956 28.27081C67.54956 29.37128 66.65747 30.26337 65.557 30.26337 64.45653 30.26337 63.56445 29.37128 63.56445 28.27081 63.56445 27.17033 64.45653 26.27826 65.557 26.27826 66.65747 26.27826 67.54956 27.17033 67.54956 28.27081ZM65.557 28.27081"/>
<path transform="matrix(1,0,0,-1.00006,1.4610005,145.96002)" stroke-width=".3985" stroke-linecap="butt" stroke-miterlimit="10" stroke-linejoin="miter" fill="none" stroke="#c7502a" d=""/>
<path transform="matrix(1,0,0,-1.00006,1.4610005,145.96002)" d="M116.71732 70.67703C116.71732 71.7775 115.82524 72.66959 114.72476 72.66959 113.6243 72.66959 112.73221 71.7775 112.73221 70.67703 112.73221 69.57655 113.6243 68.68448 114.72476 68.68448 115.82524 68.68448 116.71732 69.57655 116.71732 70.67703ZM114.72476 70.67703" fill="#70485b"/>
<path transform="matrix(1,0,0,-1.00006,1.4610005,145.96002)" stroke-width=".3985" stroke-linecap="butt" stroke-miterlimit="10" stroke-linejoin="miter" fill="none" stroke="#70485b" d="M116.71732 70.67703C116.71732 71.7775 115.82524 72.66959 114.72476 72.66959 113.6243 72.66959 112.73221 71.7775 112.73221 70.67703 112.73221 69.57655 113.6243 68.68448 114.72476 68.68448 115.82524 68.68448 116.71732 69.57655 116.71732 70.67703ZM114.72476 70.67703"/>
<path transform="matrix(1,0,0,-1.00006,1.4610005,145.96002)" stroke-width=".3985" stroke-linecap="butt" stroke-miterlimit="10" stroke-linejoin="miter" fill="none" stroke="#70485b" d=""/>
<path transform="matrix(1,0,0,-1.00006,1.4610005,145.96002)" d="M100.32806 28.27081C100.32806 29.37128 99.43597 30.26337 98.33551 30.26337 97.23503 30.26337 96.34296 29.37128 96.34296 28.27081 96.34296 27.17033 97.23503 26.27826 98.33551 26.27826 99.43597 26.27826 100.32806 27.17033 100.32806 28.27081ZM98.33551 28.27081" fill="#c7502a"/>
<path transform="matrix(1,0,0,-1.00006,1.4610005,145.96002)" stroke-width=".3985" stroke-linecap="butt" stroke-miterlimit="10" stroke-linejoin="miter" fill="none" stroke="#c7502a" d="M100.32806 28.27081C100.32806 29.37128 99.43597 30.26337 98.33551 30.26337 97.23503 30.26337 96.34296 29.37128 96.34296 28.27081 96.34296 27.17033 97.23503 26.27826 98.33551 26.27826 99.43597 26.27826 100.32806 27.17033 100.32806 28.27081ZM98.33551 28.27081"/>
<path transform="matrix(1,0,0,-1.00006,1.4610005,145.96002)" stroke-width=".3985" stroke-linecap="butt" stroke-miterlimit="10" stroke-linejoin="miter" fill="none" stroke="#c7502a" d=""/>
<path transform="matrix(1,0,0,-1.00006,1.4610005,145.96002)" d="M83.93881 14.1354C83.93881 15.23587 83.04672 16.12796 81.94626 16.12796 80.84578 16.12796 79.9537 15.23587 79.9537 14.1354 79.9537 13.03493 80.84578 12.14285 81.94626 12.14285 83.04672 12.14285 83.93881 13.03493 83.93881 14.1354ZM81.94626 14.1354" fill="#008099"/>
<path transform="matrix(1,0,0,-1.00006,1.4610005,145.96002)" stroke-width=".3985" stroke-linecap="butt" stroke-miterlimit="10" stroke-linejoin="miter" fill="none" stroke="#008099" d="M83.93881 14.1354C83.93881 15.23587 83.04672 16.12796 81.94626 16.12796 80.84578 16.12796 79.9537 15.23587 79.9537 14.1354 79.9537 13.03493 80.84578 12.14285 81.94626 12.14285 83.04672 12.14285 83.93881 13.03493 83.93881 14.1354ZM81.94626 14.1354"/>
<path transform="matrix(1,0,0,-1.00006,1.4610005,145.96002)" stroke-width=".3985" stroke-linecap="butt" stroke-miterlimit="10" stroke-linejoin="miter" fill="none" stroke="#008099" d=""/>
<use data-text="x" xlink:href="#font_5_3" transform="matrix(9.9626,0,0,-9.963197,156.14,71.758579)"/>
<use data-text="y" xlink:href="#font_5_4" transform="matrix(9.9626,0,0,-9.963197,103.31601,12.407013)"/>
</svg>
