<svg xmlns="http://www.w3.org/2000/svg" xmlns:xlink="http://www.w3.org/1999/xlink" version="1.1" width="242" height="210" viewBox="0 0 242 210">
<defs>
<path id="font_1_1" d="M.69898989 .22743225C.71499636 .22743225 .7369995 .22743225 .7369995 .25042726 .7369995 .2734375 .71499636 .2734375 .69898989 .2734375H.12599182C.10998535 .2734375 .08799744 .2734375 .08799744 .25042726 .08799744 .22743225 .10998535 .22743225 .12599182 .22743225H.69898989Z"/>
<path id="font_2_3" d="M.25299073 .33370973C.33198548 .33370973 .38198854 .27557374 .38198854 .17037964 .38198854 .045440675 .31098939 .008514404 .2579956 .008514404 .20298767 .008514404 .12799073 .0284729 .09298706 .08137512 .1289978 .08137512 .1539917 .10437012 .1539917 .13737488 .1539917 .16937256 .1309967 .19238281 .09899902 .19238281 .07199097 .19238281 .04399109 .17536927 .04399109 .13537598 .04399109 .04045105 .1459961-.021484375 .2599945-.021484375 .3929901-.021484375 .48599244 .070388797 .48599244 .17037964 .48599244 .25352479 .41999818 .32969667 .31799317 .3517456 .39698792 .37982179 .45599366 .4479828 .45599366 .52804568 .45599366 .6080475 .3659973 .66503909 .2619934 .66503909 .15499878 .66503909 .07398987 .6070404 .07398987 .53105166 .07398987 .49404908 .09899902 .4780426 .125 .4780426 .1559906 .4780426 .17599488 .5000458 .17599488 .52905276 .17599488 .56604006 .14399719 .5800476 .12199402 .5810547 .1639862 .6360321 .24099732 .6390381 .25898744 .6390381 .2849884 .6390381 .36099244 .6310272 .36099244 .52804568 .36099244 .45799256 .33198548 .41589356 .31799317 .39985658 .28799439 .36878968 .2649994 .36679078 .20399475 .3627777 .18499756 .36177064 .1769867 .36076356 .1769867 .3477478 .1769867 .33370973 .18598938 .33370973 .20298767 .33370973H.25299073Z"/>
<path id="font_2_2" d="M.28199769 .20405579C.2979889 .21907044 .33999635 .2520752 .35598756 .26608277 .41799928 .32312013 .47698976 .3781433 .47698976 .46917726 .47698976 .588089 .3769989 .66503909 .2519989 .66503909 .13198853 .66503909 .052993776 .57411196 .052993776 .48516847 .052993776 .4361725 .09199524 .4291687 .10598755 .4291687 .1269989 .4291687 .1579895 .4441681 .1579895 .48217774 .1579895 .5341797 .10798645 .5341797 .09599304 .5341797 .125 .6070709 .19198609 .6320343 .24099732 .6320343 .33399964 .6320343 .38198854 .55314639 .38198854 .46917726 .38198854 .36514283 .30899049 .28910829 .19099427 .16804505L.06498718 .037994386C.052993776 .026992798 .052993776 .024993897 .052993776 0H.44799806L.47698976 .17904663H.44599916C.44299317 .1590271 .43499757 .10900879 .4229889 .08999634 .4169922 .08198547 .34098817 .08198547 .32499696 .08198547H.14698792L.28199769 .20405579Z"/>
<path id="font_2_1" d="M.31399537 .63708499C.31399537 .664032 .31199647 .66503909 .2849884 .66503909 .24398804 .6251831 .19099427 .6013489 .09599304 .6013489V.5683594C.12298584 .5683594 .1769867 .5683594 .23498535 .5953522V.08203125C.23498535 .04499817 .23199463 .032989503 .13699341 .032989503H.101989749V0C.14299011 .0029907227 .22898865 .0029907227 .27398683 .0029907227 .31900025 .0029907227 .4059906 .0029907227 .44699098 0V.032989503H.4119873C.31698609 .032989503 .31399537 .04499817 .31399537 .08203125V.63708499Z"/>
<path id="font_2_4" d="M.3939972 .6468048C.3939972 .6667938 .3939972 .6748047 .37298585 .6748047 .3600006 .6748047 .35899354 .6737976 .34899903 .65979006L.02999878 .197052V.1640625H.31199647V.08100891C.31199647 .04399109 .30899049 .032989503 .23199463 .032989503H.20899964V0C.2939911 .0029907227 .29599 .0029907227 .35299684 .0029907227 .4099884 .0029907227 .4119873 .0029907227 .49699403 0V.032989503H.47399903C.39698792 .032989503 .3939972 .04399109 .3939972 .08100891V.1640625H.5V.197052H.3939972V.6468048M.31900025 .5658417V.197052H.06498718L.31900025 .5658417Z"/>
<path id="font_2_5" d="M.13798523 .33073426C.13798523 .41377259 .14498902 .4868164 .18099976 .54782107 .21099854 .5978241 .2619934 .6390381 .32499696 .6390381 .34498597 .6390381 .3909912 .63601687 .4139862 .60084536 .36898805 .5988312 .36499024 .5648346 .36499024 .553833 .36499024 .5238342 .3880005 .50683596 .4119873 .50683596 .42999269 .50683596 .45899964 .51782229 .45899964 .5558319 .45899964 .615921 .4139862 .66503909 .32398988 .66503909 .18499756 .66503909 .04399109 .53282168 .04399109 .31672669 .04399109 .045532228 .16999817-.021484375 .2669983-.021484375 .31498719-.021484375 .36698915-.0084991459 .4119873 .03453064 .45199586 .07354736 .48599244 .11558533 .48599244 .20263672 .48599244 .33372499 .3869934 .42578126 .27598573 .42578126 .20399475 .42578126 .16099549 .37976075 .13798523 .33073426M.2669983 .008514404C.21398926 .008514404 .18099976 .045532228 .1659851 .07354736 .14299011 .11859131 .14099121 .18663025 .14099121 .22465515 .14099121 .32373048 .19499207 .3977661 .27198792 .3977661 .32199098 .3977661 .35198976 .37176515 .37098695 .33673097 .3919983 .29971314 .3919983 .25468446 .3919983 .2036438 .3919983 .15260315 .3919983 .10858154 .37199403 .07255554 .34599305 .026519776 .31098939 .008514404 .2669983 .008514404Z"/>
<path id="font_2_6" d="M.33198548 .36080934C.3880005 .38783265 .45599366 .4378662 .45599366 .5159302 .45599366 .6110077 .35899354 .66503909 .2659912 .66503909 .1599884 .66503909 .07398987 .59199526 .07398987 .49790956 .07398987 .46089173 .08699036 .42686463 .11199951 .39782716 .1289978 .3768158 .1329956 .3748169 .19499207 .3357849 .070999149 .2807312 .04399109 .20767212 .04399109 .15162659 .04399109 .041534425 .15499878-.021484375 .2639923-.021484375 .3869934-.021484375 .48599244 .061553956 .48599244 .16764832 .48599244 .23069763 .45199586 .2727356 .43598939 .28974916 .4189911 .30575563 .41799928 .3067627 .33198548 .36080934M.1769867 .45487977C.147995 .4718933 .12399292 .5009155 .12399292 .5359497 .12399292 .598999 .19299317 .6390381 .2639923 .6390381 .34199525 .6390381 .4059906 .5859833 .4059906 .5159302 .4059906 .45788575 .36099244 .408844 .3019867 .37982179L.1769867 .45487977M.22599793 .31776429C.22999573 .31576539 .34399415 .24571228 .36099244 .23469544 .3769989 .22569275 .42900086 .19366455 .42900086 .13360596 .42900086 .056549074 .34799195 .008514404 .2659912 .008514404 .1769867 .008514404 .100997928 .06956482 .100997928 .15162659 .100997928 .22668457 .15699768 .28573609 .22599793 .31776429Z"/>
<clipPath id="clip_3">
<path transform="matrix(1.00003,0,0,-1.00003,1.4615555,208.03086)" d="M0 0H239.10279V206.22821H0Z"/>
</clipPath>
<path id="font_4_1" d="M.33099366-.2400055C.33099366-.23701477 .33099366-.23500061 .31399537-.21800232 .18899536-.0920105 .15699768 .09700012 .15699768 .25 .15699768 .42399598 .19499207 .59799197 .31799317 .72299197 .33099366 .73498538 .33099366 .7369995 .33099366 .73999026 .33099366 .746994 .32699586 .75 .32099916 .75 .31098939 .75 .22099304 .6819916 .1619873 .5549927 .11099243 .44499208 .09899902 .33399964 .09899902 .25 .09899902 .17199707 .10998535 .050994874 .16499329-.06201172 .22499085-.18501282 .31098939-.25 .32099916-.25 .32699586-.25 .33099366-.24700928 .33099366-.2400055Z"/>
<path id="font_4_5" d="M.2899933 .35191346C.37199403 .37893678 .42999269 .4490509 .42999269 .52809146 .42999269 .6100464 .34199525 .6660156 .24598694 .6660156 .14498902 .6660156 .068984989 .60606387 .068984989 .53009036 .068984989 .49710084 .09098816 .47808839 .11999512 .47808839 .15098572 .47808839 .17098999 .50009158 .17098999 .5290985 .17098999 .57910159 .12399292 .57910159 .10899353 .57910159 .13999939 .62802127 .20599365 .64100649 .24198914 .64100649 .2829895 .64100649 .33799745 .6190338 .33799745 .5290985 .33799745 .51708987 .33599855 .45906068 .30999757 .4149933 .27999879 .36691285 .24598694 .36390687 .22099304 .36291505 .21299744 .36190797 .18899536 .35990907 .18199158 .35990907 .17399597 .35890199 .16699219 .35791017 .16699219 .3479004 .16699219 .33691407 .17399597 .33691407 .19099427 .33691407H.23498535C.31698609 .33691407 .35398866 .2686615 .35398866 .17037964 .35398866 .034469606 .2849884 .0055389406 .24099732 .0055389406 .19799805 .0055389406 .12298584 .022491456 .08799744 .08137512 .12298584 .07637024 .1539917 .09837341 .1539917 .1363678 .1539917 .17237854 .1269989 .19238281 .09799194 .19238281 .07398987 .19238281 .041992189 .17837525 .041992189 .1343689 .041992189 .043441774 .1349945-.022460938 .24398804-.022460938 .3659973-.022460938 .45700074 .06838989 .45700074 .17037964 .45700074 .252594 .3939972 .33088685 .2899933 .35191346Z"/>
<path id="font_5_1" d="M.20298767 .0009918213C.20298767 .066986087 .17799378 .10598755 .13899231 .10598755 .10598755 .10598755 .085998538 .08099365 .085998538 .052993776 .085998538 .025985718 .10598755 0 .13899231 0 .15098572 0 .1639862 .0039978029 .17399597 .0129852299 .1769867 .01499939 .17799378 .015991211 .1789856 .015991211 .17999268 .015991211 .18099976 .01499939 .18099976 .0009918213 .18099976-.07316589 .1459961-.13328552 .11299133-.16635132 .101989749-.17736817 .101989749-.17936707 .101989749-.18237305 .101989749-.18936157 .10699463-.19335938 .11199951-.19335938 .12298584-.19335938 .20298767-.116256717 .20298767 .0009918213Z"/>
<path id="font_4_3" d="M.45999146 .31976319C.45999146 .39982606 .45498658 .47988893 .41999818 .5539398 .37399293 .65000918 .2919922 .6660156 .25 .6660156 .18998719 .6660156 .116989139 .64001467 .07598877 .54693606 .04399109 .47789 .038986207 .39982606 .038986207 .31976319 .038986207 .24472046 .042999269 .15464783 .083999637 .07859802 .1269989-.0024719239 .19999695-.022460938 .24899292-.022460938 .30299378-.022460938 .3789978-.0014648438 .4229889 .09359741 .45498658 .16265869 .45999146 .2407074 .45999146 .31976319M.24899292-.00047302247C.20999146-.00047302247 .15098572 .024551392 .1329956 .12062073 .12199402 .18066406 .12199402 .2727356 .12199402 .3317871 .12199402 .39582826 .12199402 .46188355 .12998963 .5159149 .14898682 .63500979 .22399903 .64401248 .24899292 .64401248 .28199769 .64401248 .34799195 .6259918 .36698915 .52693179 .3769989 .47088624 .3769989 .39482118 .3769989 .3317871 .3769989 .25672914 .3769989 .18867493 .3659973 .12461853 .35099793 .029556275 .2939911-.00047302247 .24899292-.00047302247Z"/>
<path id="font_4_2" d="M.2889862 .25C.2889862 .32798768 .27799989 .44898988 .22299195 .56199648 .16299439 .68499758 .07699585 .75 .066986087 .75 .06098938 .75 .056991579 .74598696 .056991579 .73999026 .056991579 .7369995 .056991579 .73498538 .07598877 .71699526 .17399597 .6179962 .23098755 .45899964 .23098755 .25 .23098755 .07899475 .19400025-.09700012 .069992069-.2230072 .056991579-.23500061 .056991579-.23701477 .056991579-.2400055 .056991579-.2460022 .06098938-.25 .066986087-.25 .07699585-.25 .16699219-.18200684 .22599793-.055007936 .2769928 .054992677 .2889862 .16600037 .2889862 .25Z"/>
<path id="font_6_1" d="M.6589966 .23046875C.6759949 .23046875 .69400027 .23046875 .69400027 .25045777 .69400027 .27046205 .6759949 .27046205 .6589966 .27046205H.117996219C.100997928 .27046205 .08299255 .27046205 .08299255 .25045777 .08299255 .23046875 .100997928 .23046875 .117996219 .23046875H.6589966Z"/>
<path id="font_4_4" d="M.1269989 .07699585 .23298645 .18003845C.3889923 .31811524 .44898988 .3721466 .44898988 .47216798 .44898988 .5860901 .35899354 .6660156 .23699951 .6660156 .12399292 .6660156 .049987794 .57411196 .049987794 .48516847 .049987794 .4291687 .099990848 .4291687 .102996829 .4291687 .11999512 .4291687 .15499878 .44117738 .15499878 .48217774 .15499878 .5081787 .13699341 .5341797 .101989749 .5341797 .09399414 .5341797 .09199524 .5341797 .08898926 .5331726 .11199951 .59806826 .1659851 .63500979 .22399903 .63500979 .31498719 .63500979 .35798646 .5541382 .35798646 .47216798 .35798646 .39215089 .30799867 .31311036 .25299073 .25108338L.06098938 .036987306C.049987794 .025985718 .049987794 .023986817 .049987794 0H.42099L.44898988 .17404175H.42399598C.4189911 .14402771 .4119873 .1000061 .4019928 .084991458 .394989 .07699585 .32899476 .07699585 .30699159 .07699585H.1269989Z"/>
<path id="font_5_2" d="M.33399964 .30233766C.33999635 .32835389 .36299134 .42037965 .43299867 .42037965 .43798829 .42037965 .46199037 .42037965 .48298646 .40734864 .45498658 .402359 .43499757 .37734986 .43499757 .35334779 .43499757 .33735658 .44599916 .31835938 .47299195 .31835938 .49499513 .31835938 .5269928 .3363495 .5269928 .37635804 .5269928 .42837525 .46798707 .4423828 .43399049 .4423828 .37599183 .4423828 .34098817 .38935853 .32899476 .36634828 .3039856 .43237306 .25 .4423828 .22099304 .4423828 .116989139 .4423828 .05999756 .3133545 .05999756 .28834535 .05999756 .27833558 .069992069 .27833558 .07199097 .27833558 .07998657 .27833558 .08299255 .28033448 .084991458 .28933717 .11898804 .39535523 .18499756 .42037965 .21899414 .42037965 .23799134 .42037965 .272995 .4113617 .272995 .35334779 .272995 .32235719 .2559967 .25532533 .21899414 .11528015 .20298767 .053268434 .16799927 .011245728 .12399292 .011245728 .117996219 .011245728 .09498596 .011245728 .07398987 .024276734 .09899902 .029266358 .12098694 .05027771 .12098694 .07827759 .12098694 .105270389 .09899902 .11328125 .083999637 .11328125 .053985597 .11328125 .0289917 .08728027 .0289917 .055267335 .0289917 .009246826 .07899475-.0107421879 .12298584-.0107421879 .18899536-.0107421879 .22499085 .059280397 .22799683 .0652771 .23999024 .028274537 .27598573-.0107421879 .33599855-.0107421879 .43899537-.0107421879 .49598695 .118270877 .49598695 .14328003 .49598695 .1532898 .4869995 .1532898 .48399354 .1532898 .47499085 .1532898 .47299195 .14929199 .47099305 .14228821 .43798829 .03527832 .36999513 .011245728 .33799745 .011245728 .29899598 .011245728 .2829895 .043273927 .2829895 .07727051 .2829895 .09927368 .2889862 .121276859 .2999878 .16529846L.33399964 .30233766Z"/>
<path id="font_5_3" d="M.48599244 .38136292C.48999024 .39537049 .48999024 .39736939 .48999024 .40437318 .48999024 .42237855 .47599793 .43138124 .46099855 .43138124 .45098878 .43138124 .43499757 .42536927 .42599488 .41036988 .42399598 .405365 .41600038 .37435914 .4119873 .35635377 .40499879 .33035279 .397995 .30334474 .3919983 .27633668L.34700013 .09628296C.34298707 .08126831 .2999878 .011245728 .23399353 .011245728 .18299866 .011245728 .17199707 .055267335 .17199707 .0922699 .17199707 .1382904 .18899536 .20030213 .22299195 .28833009 .23899842 .3293457 .24299622 .3403473 .24299622 .36035157 .24299622 .405365 .21099854 .4423828 .16099549 .4423828 .06599426 .4423828 .0289917 .29733277 .0289917 .28833009 .0289917 .27833558 .038986207 .27833558 .040985109 .27833558 .050994874 .27833558 .051986696 .28033448 .056991579 .29634095 .083999637 .3903656 .12399292 .42037965 .1579895 .42037965 .1659851 .42037965 .18299866 .42037965 .18299866 .3883667 .18299866 .36335755 .17298889 .3373413 .1659851 .31834413 .12599182 .21231079 .10798645 .1552887 .10798645 .10827637 .10798645 .019256592 .17098999-.0107421879 .22999573-.0107421879 .2689972-.0107421879 .30299378 .0062561037 .33099366 .03425598 .31799317-.017745972 .30599977-.06674194 .2659912-.11973572 .23999024-.15385437 .20199585-.18309021 .1559906-.18309021 .14199829-.18309021 .09700012-.18005371 .07998657-.14074707 .09599304-.14074707 .10899353-.14074707 .12298584-.1287384 .1329956-.11973572 .14299011-.10673523 .14299011-.08773804 .14299011-.056747438 .115997318-.052734376 .10598755-.052734376 .08299255-.052734376 .049987794-.068740848 .049987794-.11773682 .049987794-.16796875 .09399414-.20507813 .1559906-.20507813 .25898744-.20507813 .3619995-.11373901 .3899994-.00074768069L.48599244 .38136292Z"/>
</defs>
<path transform="matrix(1.00003,0,0,-1.00003,1.4615555,208.03086)" d="M0 0H239.10279V206.22821H0Z" fill="#fffac2"/>
<path transform="matrix(1.00003,0,0,-1.00003,1.4615555,208.03086)" stroke-width=".3985" stroke-linecap="butt" stroke-miterlimit="10" stroke-linejoin="miter" fill="none" stroke="#d5d6d5" d="M0 0V206.22821M26.56697 0V206.22821M53.13394 0V206.22821M79.70093 0V206.22821M106.2679 0V206.22821M132.83489 0V206.22821M159.40186 0V206.22821M185.96884 0V206.22821M212.53582 0V206.22821M239.10279 0V206.22821"/>
<path transform="matrix(1.00003,0,0,-1.00003,1.4615555,208.03086)" stroke-width=".3985" stroke-linecap="butt" stroke-miterlimit="10" stroke-linejoin="miter" fill="none" stroke="#d5d6d5" d="M26.56697 0V206.22821M53.13394 0V206.22821M79.70093 0V206.22821M132.83489 0V206.22821M159.40186 0V206.22821M185.96884 0V206.22821M212.53582 0V206.22821"/>
<path transform="matrix(1.00003,0,0,-1.00003,1.4615555,208.03086)" stroke-width=".3985" stroke-linecap="butt" stroke-miterlimit="10" stroke-linejoin="miter" fill="none" stroke="#d5d6d5" d="M0 0H239.10279M0 11.45712H239.10279M0 22.91425H239.10279M0 34.37137H239.10279M0 45.82849H239.10279M0 57.28561H239.10279M0 68.74274H239.10279M0 80.19986H239.10279M0 91.65698H239.10279M0 103.1141H239.10279M0 114.57123H239.10279M0 126.02835H239.10279M0 137.48548H239.10279M0 148.9426H239.10279M0 160.39972H239.10279M0 171.85684H239.10279M0 183.31397H239.10279M0 194.77109H239.10279M0 206.22821H239.10279"/>
<path transform="matrix(1.00003,0,0,-1.00003,1.4615555,208.03086)" stroke-width=".3985" stroke-linecap="butt" stroke-miterlimit="10" stroke-linejoin="miter" fill="none" stroke="#d5d6d5" d="M0 22.91425H239.10279M0 45.82849H239.10279M0 68.74274H239.10279M0 114.57123H239.10279M0 137.48548H239.10279M0 160.39972H239.10279M0 183.31397H239.10279"/>
<path transform="matrix(1.00003,0,0,-1.00003,1.4615555,208.03086)" stroke-width=".19925" stroke-linecap="butt" stroke-miterlimit="10" stroke-linejoin="miter" fill="none" stroke="#929292" d="M0 90.23967V93.0743M26.56697 90.23967V93.0743M53.13394 90.23967V93.0743M79.70093 90.23967V93.0743M106.2679 90.23967V93.0743M132.83489 90.23967V93.0743M159.40186 90.23967V93.0743M185.96884 90.23967V93.0743M212.53582 90.23967V93.0743M239.10279 90.23967V93.0743"/>
<path transform="matrix(1.00003,0,0,-1.00003,1.4615555,208.03086)" stroke-width=".19925" stroke-linecap="butt" stroke-miterlimit="10" stroke-linejoin="miter" fill="none" stroke="#929292" d="M26.56697 89.5312V93.78273M53.13394 89.5312V93.78273M79.70093 89.5312V93.78273M132.83489 89.5312V93.78273M159.40186 89.5312V93.78273M185.96884 89.5312V93.78273M212.53582 89.5312V93.78273"/>
<path transform="matrix(1.00003,0,0,-1.00003,1.4615555,208.03086)" stroke-width=".19925" stroke-linecap="butt" stroke-miterlimit="10" stroke-linejoin="miter" fill="none" stroke="#929292" d="M104.8505 0H107.6853M104.8505 11.45712H107.6853M104.8505 22.91425H107.6853M104.8505 34.37137H107.6853M104.8505 45.82849H107.6853M104.8505 57.28561H107.6853M104.8505 68.74274H107.6853M104.8505 80.19986H107.6853M104.8505 91.65698H107.6853M104.8505 103.1141H107.6853M104.8505 114.57123H107.6853M104.8505 126.02835H107.6853M104.8505 137.48548H107.6853M104.8505 148.9426H107.6853M104.8505 160.39972H107.6853M104.8505 171.85684H107.6853M104.8505 183.31397H107.6853M104.8505 194.77109H107.6853M104.8505 206.22821H107.6853"/>
<path transform="matrix(1.00003,0,0,-1.00003,1.4615555,208.03086)" stroke-width=".19925" stroke-linecap="butt" stroke-miterlimit="10" stroke-linejoin="miter" fill="none" stroke="#929292" d="M104.14201 22.91425H108.39378M104.14201 45.82849H108.39378M104.14201 68.74274H108.39378M104.14201 114.57123H108.39378M104.14201 137.48548H108.39378M104.14201 160.39972H108.39378M104.14201 183.31397H108.39378"/>
<path transform="matrix(1.00003,0,0,-1.00003,1.4615555,208.03086)" stroke-width=".3985" stroke-linecap="butt" stroke-miterlimit="10" stroke-linejoin="miter" fill="none" stroke="#000000" d="M1.99252 91.65698H237.11026"/>
<path transform="matrix(-1.00003,-0,0,1.00003,3.4541355,116.37112)" d="M1.99252 0-1.19551 1.59401 0 0-1.19551-1.59401"/>
<path transform="matrix(1.00003,0,0,-1.00003,238.57895,116.37112)" d="M1.99252 0-1.19551 1.59401 0 0-1.19551-1.59401"/>
<path transform="matrix(1.00003,0,0,-1.00003,1.4615555,208.03086)" stroke-width=".3985" stroke-linecap="butt" stroke-miterlimit="10" stroke-linejoin="miter" fill="none" stroke="#000000" d="M106.2679 1.99252V204.23569"/>
<path transform="matrix(0,1.00003,1.00003,0,107.73264,206.03827)" d="M1.99252 0-1.19551 1.59401 0 0-1.19551-1.59401"/>
<path transform="matrix(0,-1.00003,-1.00003,-0,107.73264,3.789032)" d="M1.99252 0-1.19551 1.59401 0 0-1.19551-1.59401"/>
<use data-text="&#x2212;" xlink:href="#font_1_1" transform="matrix(7.9703395,0,0,-7.9703395,22.61919,127.15343)"/>
<use data-text="3" xlink:href="#font_2_3" transform="matrix(7.9703395,0,0,-7.9703395,29.206389,127.15343)"/>
<use data-text="&#x2212;" xlink:href="#font_1_1" transform="matrix(7.9703395,0,0,-7.9703395,49.18699,127.15343)"/>
<use data-text="2" xlink:href="#font_2_2" transform="matrix(7.9703395,0,0,-7.9703395,55.774187,127.15343)"/>
<use data-text="&#x2212;" xlink:href="#font_1_1" transform="matrix(7.9703395,0,0,-7.9703395,75.75479,127.15343)"/>
<use data-text="1" xlink:href="#font_2_1" transform="matrix(7.9703395,0,0,-7.9703395,82.34199,127.15343)"/>
<use data-text="1" xlink:href="#font_2_1" transform="matrix(7.9703395,0,0,-7.9703395,132.18347,127.15343)"/>
<use data-text="2" xlink:href="#font_2_2" transform="matrix(7.9703395,0,0,-7.9703395,158.75128,127.15343)"/>
<use data-text="3" xlink:href="#font_2_3" transform="matrix(7.9703395,0,0,-7.9703395,185.31909,127.15343)"/>
<use data-text="4" xlink:href="#font_2_4" transform="matrix(7.9703395,0,0,-7.9703395,211.88687,127.15343)"/>
<use data-text="&#x2212;" xlink:href="#font_1_1" transform="matrix(7.9703395,0,0,-7.9703395,93.15631,187.26923)"/>
<use data-text="6" xlink:href="#font_2_5" transform="matrix(7.9703395,0,0,-7.9703395,99.74351,187.26923)"/>
<use data-text="&#x2212;" xlink:href="#font_1_1" transform="matrix(7.9703395,0,0,-7.9703395,93.15631,164.35454)"/>
<use data-text="4" xlink:href="#font_2_4" transform="matrix(7.9703395,0,0,-7.9703395,99.74351,164.35454)"/>
<use data-text="&#x2212;" xlink:href="#font_1_1" transform="matrix(7.9703395,0,0,-7.9703395,93.15631,141.43886)"/>
<use data-text="2" xlink:href="#font_2_2" transform="matrix(7.9703395,0,0,-7.9703395,99.74351,141.43886)"/>
<use data-text="2" xlink:href="#font_2_2" transform="matrix(7.9703395,0,0,-7.9703395,99.74351,96.02449)"/>
<use data-text="4" xlink:href="#font_2_4" transform="matrix(7.9703395,0,0,-7.9703395,99.74351,73.10979)"/>
<use data-text="6" xlink:href="#font_2_5" transform="matrix(7.9703395,0,0,-7.9703395,99.74351,50.194108)"/>
<use data-text="8" xlink:href="#font_2_6" transform="matrix(7.9703395,0,0,-7.9703395,99.74351,27.279419)"/>
<g clip-path="url(#clip_3)">
<path transform="matrix(1.00003,0,0,-1.00003,1.4615555,208.03086)" stroke-width=".99628" stroke-linecap="butt" stroke-miterlimit="10" stroke-linejoin="miter" fill="none" stroke="#9e0c0f" d="M14.83464 198.30345 21.38417 176.48139 30.30844 149.33219 39.23271 124.76862 48.15698 102.79076 57.08127 83.39844 66.00552 66.59175 74.9298 52.3707 83.85408 40.73528 92.77835 31.68549 101.70262 25.22133 110.62689 21.34282 119.55116 20.04996 128.47544 21.3427 137.39972 25.22107 146.32398 31.68509 155.24825 40.73474 164.17253 52.37004 173.0968 66.59097 182.02108 83.39752 190.94535 102.78978 199.86962 124.76756 208.79389 149.331 217.71817 176.48018 224.26769 198.30185"/>
<path transform="matrix(-.28743864,-.9577588,-.9577588,.28743864,16.499148,10.396179)" d="M7.39124 0 2.37614 1.6717 .70447 0 2.37614-1.6717Z" fill="#9e0c0f"/>
<path transform="matrix(-.28743864,-.9577588,-.9577588,.28743864,16.499148,10.396179)" stroke-width=".99628" stroke-linecap="butt" stroke-miterlimit="10" stroke-linejoin="miter" fill="none" stroke="#9e0c0f" d="M7.39124 0 2.37614 1.6717 .70447 0 2.37614-1.6717Z"/>
<path transform="matrix(.28743864,-.9577588,-.9577588,-.28743864,225.53348,10.397781)" d="M7.39124 0 2.37614 1.6717 .70447 0 2.37614-1.6717Z" fill="#9e0c0f"/>
<path transform="matrix(.28743864,-.9577588,-.9577588,-.28743864,225.53348,10.397781)" stroke-width=".99628" stroke-linecap="butt" stroke-miterlimit="10" stroke-linejoin="miter" fill="none" stroke="#9e0c0f" d="M7.39124 0 2.37614 1.6717 .70447 0 2.37614-1.6717Z"/>
<path transform="matrix(1.00003,0,0,-1.00003,1.4615555,208.03086)" stroke-width=".3985" stroke-linecap="butt" stroke-miterlimit="10" stroke-linejoin="miter" fill="none" stroke="#9e0c0f" d=""/>
<use data-text="(" xlink:href="#font_4_1" transform="matrix(9.962899,0,0,-9.962899,161.77637,110.35992)" fill="#9e0c0f"/>
<use data-text="3" xlink:href="#font_4_5" transform="matrix(9.962899,0,0,-9.962899,165.64199,110.35992)" fill="#9e0c0f"/>
<use data-text="," xlink:href="#font_5_1" transform="matrix(9.962899,0,0,-9.962899,170.63265,110.35992)" fill="#9e0c0f"/>
<use data-text="0" xlink:href="#font_4_3" transform="matrix(9.962899,0,0,-9.962899,175.06078,110.35992)" fill="#9e0c0f"/>
<use data-text=")" xlink:href="#font_4_2" transform="matrix(9.962899,0,0,-9.962899,180.04222,110.35992)" fill="#9e0c0f"/>
<path transform="matrix(1.00003,0,0,-1.00003,1.4615555,208.03086)" stroke-width=".3985" stroke-linecap="butt" stroke-miterlimit="10" stroke-linejoin="miter" fill="none" stroke="#9e0c0f" d=""/>
<use data-text="(" xlink:href="#font_4_1" transform="matrix(9.962899,0,0,-9.962899,58.117258,110.35992)" fill="#9e0c0f"/>
<use data-text="&#x2212;" xlink:href="#font_6_1" transform="matrix(9.962899,0,0,-9.962899,61.99137,110.35992)" fill="#9e0c0f"/>
<use data-text="2" xlink:href="#font_4_4" transform="matrix(9.962899,0,0,-9.962899,69.74061,110.35992)" fill="#9e0c0f"/>
<use data-text="," xlink:href="#font_5_1" transform="matrix(9.962899,0,0,-9.962899,74.721759,110.35992)" fill="#9e0c0f"/>
<use data-text="0" xlink:href="#font_4_3" transform="matrix(9.962899,0,0,-9.962899,79.14989,110.35992)" fill="#9e0c0f"/>
<use data-text=")" xlink:href="#font_4_2" transform="matrix(9.962899,0,0,-9.962899,84.13134,110.35992)" fill="#9e0c0f"/>
</g>
<path transform="matrix(1.00003,0,0,-1.00003,1.4615555,208.03086)" d="M187.9614 91.65698C187.9614 92.75745 187.0693 93.64954 185.96884 93.64954 184.86837 93.64954 183.97629 92.75745 183.97629 91.65698 183.97629 90.5565 184.86837 89.66443 185.96884 89.66443 187.0693 89.66443 187.9614 90.5565 187.9614 91.65698ZM185.96884 91.65698" fill="#9e0c0f"/>
<path transform="matrix(1.00003,0,0,-1.00003,1.4615555,208.03086)" stroke-width=".3985" stroke-linecap="butt" stroke-miterlimit="10" stroke-linejoin="miter" fill="none" stroke="#9e0c0f" d="M187.9614 91.65698C187.9614 92.75745 187.0693 93.64954 185.96884 93.64954 184.86837 93.64954 183.97629 92.75745 183.97629 91.65698 183.97629 90.5565 184.86837 89.66443 185.96884 89.66443 187.0693 89.66443 187.9614 90.5565 187.9614 91.65698ZM185.96884 91.65698"/>
<path transform="matrix(1.00003,0,0,-1.00003,1.4615555,208.03086)" stroke-width=".3985" stroke-linecap="butt" stroke-miterlimit="10" stroke-linejoin="miter" fill="none" stroke="#9e0c0f" d=""/>
<path transform="matrix(1.00003,0,0,-1.00003,1.4615555,208.03086)" d="M55.1265 91.65698C55.1265 92.75745 54.23442 93.64954 53.13394 93.64954 52.03348 93.64954 51.14139 92.75745 51.14139 91.65698 51.14139 90.5565 52.03348 89.66443 53.13394 89.66443 54.23442 89.66443 55.1265 90.5565 55.1265 91.65698ZM53.13394 91.65698" fill="#9e0c0f"/>
<path transform="matrix(1.00003,0,0,-1.00003,1.4615555,208.03086)" stroke-width=".3985" stroke-linecap="butt" stroke-miterlimit="10" stroke-linejoin="miter" fill="none" stroke="#9e0c0f" d="M55.1265 91.65698C55.1265 92.75745 54.23442 93.64954 53.13394 93.64954 52.03348 93.64954 51.14139 92.75745 51.14139 91.65698 51.14139 90.5565 52.03348 89.66443 53.13394 89.66443 54.23442 89.66443 55.1265 90.5565 55.1265 91.65698ZM53.13394 91.65698"/>
<path transform="matrix(1.00003,0,0,-1.00003,1.4615555,208.03086)" stroke-width=".3985" stroke-linecap="butt" stroke-miterlimit="10" stroke-linejoin="miter" fill="none" stroke="#9e0c0f" d=""/>
<use data-text="x" xlink:href="#font_5_2" transform="matrix(9.962899,0,0,-9.962899,231.35749,112.85099)"/>
<use data-text="y" xlink:href="#font_5_3" transform="matrix(9.962899,0,0,-9.962899,111.25285,9.605881)"/>
</svg>
