<svg xmlns="http://www.w3.org/2000/svg" xmlns:xlink="http://www.w3.org/1999/xlink" version="1.1" width="242" height="210" viewBox="0 0 242 210">
<defs>
<path id="font_1_1" d="M.69898989 .22743225C.71499636 .22743225 .7369995 .22743225 .7369995 .25042726 .7369995 .2734375 .71499636 .2734375 .69898989 .2734375H.12599182C.10998535 .2734375 .08799744 .2734375 .08799744 .25042726 .08799744 .22743225 .10998535 .22743225 .12599182 .22743225H.69898989Z"/>
<path id="font_2_1" d="M.13999939 .5618439C.15299988 .55784609 .19299317 .54785159 .23498535 .54785159 .3600006 .54785159 .43598939 .6358948 .43598939 .6510315 .43598939 .6620331 .42900086 .66503909 .42399598 .66503909 .42199708 .66503909 .41999818 .66503909 .41099549 .6600342 .37199403 .6450348 .32598878 .632843 .27198792 .632843 .21299744 .632843 .1639862 .6480255 .1329956 .6600342 .12298584 .66503909 .12098694 .66503909 .11999512 .66503909 .10699463 .66503909 .10699463 .6540375 .10699463 .6358948V.34292604C.10699463 .32492066 .10699463 .312912 .12298584 .312912 .1309967 .312912 .13398743 .3169098 .13899231 .32492066 .15098572 .33992005 .18899536 .39093019 .27398683 .39093019 .32998658 .39093019 .35699464 .34492494 .3659973 .32591249 .3829956 .28990174 .3849945 .24389649 .3849945 .20487976 .3849945 .1678772 .38398744 .11387634 .35598756 .069732669 .33699037 .039611818 .29699708 .008514404 .24398804 .008514404 .1789856 .008514404 .114990238 .0496521 .09199524 .11488342 .09498596 .11387634 .100997928 .11387634 .101989749 .11387634 .12998963 .11387634 .1519928 .13188172 .1519928 .16288758 .1519928 .19989014 .12298584 .21289063 .102996829 .21289063 .084991458 .21289063 .052993776 .20288086 .052993776 .15988159 .052993776 .069732669 .1309967-.021484375 .24598694-.021484375 .37098695-.021484375 .47698976 .07574463 .47698976 .19989014 .47698976 .31591798 .3929901 .4189453 .2749939 .4189453 .22499085 .4189453 .17799378 .40293885 .13999939 .368927V.5618439Z"/>
<clipPath id="clip_3">
<path transform="matrix(1.00003,0,0,-1.00003,1.4615555,208.06285)" d="M0 .03334H239.10584V206.26035H0Z"/>
</clipPath>
<path id="font_4_1" d="M.33399964 .30233766C.33999635 .32835389 .36299134 .42037965 .43299867 .42037965 .43798829 .42037965 .46199037 .42037965 .48298646 .40734864 .45498658 .402359 .43499757 .37734986 .43499757 .35334779 .43499757 .33735658 .44599916 .31835938 .47299195 .31835938 .49499513 .31835938 .5269928 .3363495 .5269928 .37635804 .5269928 .42837525 .46798707 .4423828 .43399049 .4423828 .37599183 .4423828 .34098817 .38935853 .32899476 .36634828 .3039856 .43237306 .25 .4423828 .22099304 .4423828 .116989139 .4423828 .05999756 .3133545 .05999756 .28834535 .05999756 .27833558 .069992069 .27833558 .07199097 .27833558 .07998657 .27833558 .08299255 .28033448 .084991458 .28933717 .11898804 .39535523 .18499756 .42037965 .21899414 .42037965 .23799134 .42037965 .272995 .4113617 .272995 .35334779 .272995 .32235719 .2559967 .25532533 .21899414 .11528015 .20298767 .053268434 .16799927 .011245728 .12399292 .011245728 .117996219 .011245728 .09498596 .011245728 .07398987 .024276734 .09899902 .029266358 .12098694 .05027771 .12098694 .07827759 .12098694 .105270389 .09899902 .11328125 .083999637 .11328125 .053985597 .11328125 .0289917 .08728027 .0289917 .055267335 .0289917 .009246826 .07899475-.0107421879 .12298584-.0107421879 .18899536-.0107421879 .22499085 .059280397 .22799683 .0652771 .23999024 .028274537 .27598573-.0107421879 .33599855-.0107421879 .43899537-.0107421879 .49598695 .118270877 .49598695 .14328003 .49598695 .1532898 .4869995 .1532898 .48399354 .1532898 .47499085 .1532898 .47299195 .14929199 .47099305 .14228821 .43798829 .03527832 .36999513 .011245728 .33799745 .011245728 .29899598 .011245728 .2829895 .043273927 .2829895 .07727051 .2829895 .09927368 .2889862 .121276859 .2999878 .16529846L.33399964 .30233766Z"/>
<path id="font_4_2" d="M.48599244 .38136292C.48999024 .39537049 .48999024 .39736939 .48999024 .40437318 .48999024 .42237855 .47599793 .43138124 .46099855 .43138124 .45098878 .43138124 .43499757 .42536927 .42599488 .41036988 .42399598 .405365 .41600038 .37435914 .4119873 .35635377 .40499879 .33035279 .397995 .30334474 .3919983 .27633668L.34700013 .09628296C.34298707 .08126831 .2999878 .011245728 .23399353 .011245728 .18299866 .011245728 .17199707 .055267335 .17199707 .0922699 .17199707 .1382904 .18899536 .20030213 .22299195 .28833009 .23899842 .3293457 .24299622 .3403473 .24299622 .36035157 .24299622 .405365 .21099854 .4423828 .16099549 .4423828 .06599426 .4423828 .0289917 .29733277 .0289917 .28833009 .0289917 .27833558 .038986207 .27833558 .040985109 .27833558 .050994874 .27833558 .051986696 .28033448 .056991579 .29634095 .083999637 .3903656 .12399292 .42037965 .1579895 .42037965 .1659851 .42037965 .18299866 .42037965 .18299866 .3883667 .18299866 .36335755 .17298889 .3373413 .1659851 .31834413 .12599182 .21231079 .10798645 .1552887 .10798645 .10827637 .10798645 .019256592 .17098999-.0107421879 .22999573-.0107421879 .2689972-.0107421879 .30299378 .0062561037 .33099366 .03425598 .31799317-.017745972 .30599977-.06674194 .2659912-.11973572 .23999024-.15385437 .20199585-.18309021 .1559906-.18309021 .14199829-.18309021 .09700012-.18005371 .07998657-.14074707 .09599304-.14074707 .10899353-.14074707 .12298584-.1287384 .1329956-.11973572 .14299011-.10673523 .14299011-.08773804 .14299011-.056747438 .115997318-.052734376 .10598755-.052734376 .08299255-.052734376 .049987794-.068740848 .049987794-.11773682 .049987794-.16796875 .09399414-.20507813 .1559906-.20507813 .25898744-.20507813 .3619995-.11373901 .3899994-.00074768069L.48599244 .38136292Z"/>
</defs>
<path transform="matrix(1.00003,0,0,-1.00003,1.4615555,208.06285)" d="M0 .03334H239.10584V206.26035H0Z" fill="#fffac2"/>
<path transform="matrix(1.00003,0,0,-1.00003,1.4615555,208.06285)" stroke-width=".3985" stroke-linecap="butt" stroke-miterlimit="10" stroke-linejoin="miter" fill="none" stroke="#d5d6d5" d="M0 .03334V206.26035M11.95529 .03334V206.26035M23.91058 .03334V206.26035M35.86588 .03334V206.26035M47.82117 .03334V206.26035M59.77646 .03334V206.26035M71.73175 .03334V206.26035M83.68704 .03334V206.26035M95.64233 .03334V206.26035M107.59763 .03334V206.26035M119.55292 .03334V206.26035M131.50821 .03334V206.26035M143.4635 .03334V206.26035M155.4188 .03334V206.26035M167.37409 .03334V206.26035M179.32938 .03334V206.26035M191.28467 .03334V206.26035M203.23996 .03334V206.26035M215.19525 .03334V206.26035M227.15055 .03334V206.26035M239.10584 .03334V206.26035"/>
<path transform="matrix(1.00003,0,0,-1.00003,1.4615555,208.06285)" stroke-width=".3985" stroke-linecap="butt" stroke-miterlimit="10" stroke-linejoin="miter" fill="none" stroke="#d5d6d5" d="M59.77646 .03334V206.26035M179.32938 .03334V206.26035"/>
<path transform="matrix(1.00003,0,0,-1.00003,1.4615555,208.06285)" stroke-width=".3985" stroke-linecap="butt" stroke-miterlimit="10" stroke-linejoin="miter" fill="none" stroke="#d5d6d5" d="M0 .03334H239.10584M0 10.3447H239.10584M0 20.65605H239.10584M0 30.96739H239.10584M0 41.27875H239.10584M0 51.59009H239.10584M0 61.90144H239.10584M0 72.2128H239.10584M0 82.52414H239.10584M0 92.8355H239.10584M0 103.14685H239.10584M0 113.45819H239.10584M0 123.76955H239.10584M0 134.08089H239.10584M0 144.39225H239.10584M0 154.7036H239.10584M0 165.01494H239.10584M0 175.3263H239.10584M0 185.63765H239.10584M0 195.94899H239.10584M0 206.26035H239.10584"/>
<path transform="matrix(1.00003,0,0,-1.00003,1.4615555,208.06285)" stroke-width=".3985" stroke-linecap="butt" stroke-miterlimit="10" stroke-linejoin="miter" fill="none" stroke="#d5d6d5" d="M0 51.59009H239.10584M0 154.7036H239.10584"/>
<path transform="matrix(1.00003,0,0,-1.00003,1.4615555,208.06285)" stroke-width=".19925" stroke-linecap="butt" stroke-miterlimit="10" stroke-linejoin="miter" fill="none" stroke="#929292" d="M0 101.72958V104.56412M11.95529 101.72958V104.56412M23.91058 101.72958V104.56412M35.86588 101.72958V104.56412M47.82117 101.72958V104.56412M59.77646 101.72958V104.56412M71.73175 101.72958V104.56412M83.68704 101.72958V104.56412M95.64233 101.72958V104.56412M107.59763 101.72958V104.56412M119.55292 101.72958V104.56412M131.50821 101.72958V104.56412M143.4635 101.72958V104.56412M155.4188 101.72958V104.56412M167.37409 101.72958V104.56412M179.32938 101.72958V104.56412M191.28467 101.72958V104.56412M203.23996 101.72958V104.56412M215.19525 101.72958V104.56412M227.15055 101.72958V104.56412M239.10584 101.72958V104.56412"/>
<path transform="matrix(1.00003,0,0,-1.00003,1.4615555,208.06285)" stroke-width=".19925" stroke-linecap="butt" stroke-miterlimit="10" stroke-linejoin="miter" fill="none" stroke="#929292" d="M59.77646 101.02115V105.27254M179.32938 101.02115V105.27254"/>
<path transform="matrix(1.00003,0,0,-1.00003,1.4615555,208.06285)" stroke-width=".19925" stroke-linecap="butt" stroke-miterlimit="10" stroke-linejoin="miter" fill="none" stroke="#929292" d="M118.13557 .03334H120.97025M118.13557 10.3447H120.97025M118.13557 20.65605H120.97025M118.13557 30.96739H120.97025M118.13557 41.27875H120.97025M118.13557 51.59009H120.97025M118.13557 61.90144H120.97025M118.13557 72.2128H120.97025M118.13557 82.52414H120.97025M118.13557 92.8355H120.97025M118.13557 103.14685H120.97025M118.13557 113.45819H120.97025M118.13557 123.76955H120.97025M118.13557 134.08089H120.97025M118.13557 144.39225H120.97025M118.13557 154.7036H120.97025M118.13557 165.01494H120.97025M118.13557 175.3263H120.97025M118.13557 185.63765H120.97025M118.13557 195.94899H120.97025M118.13557 206.26035H120.97025"/>
<path transform="matrix(1.00003,0,0,-1.00003,1.4615555,208.06285)" stroke-width=".19925" stroke-linecap="butt" stroke-miterlimit="10" stroke-linejoin="miter" fill="none" stroke="#929292" d="M117.42708 51.59009H121.67873M117.42708 154.7036H121.67873"/>
<path transform="matrix(1.00003,0,0,-1.00003,1.4615555,208.06285)" stroke-width=".3985" stroke-linecap="butt" stroke-miterlimit="10" stroke-linejoin="miter" fill="none" stroke="#000000" d="M1.99252 103.14685H237.11331"/>
<path transform="matrix(-1.00003,-0,0,1.00003,3.4541355,104.9129)" d="M1.99252 0-1.19551 1.59401 0 0-1.19551-1.59401"/>
<path transform="matrix(1.00003,0,0,-1.00003,238.582,104.9129)" d="M1.99252 0-1.19551 1.59401 0 0-1.19551-1.59401"/>
<path transform="matrix(1.00003,0,0,-1.00003,1.4615555,208.06285)" stroke-width=".3985" stroke-linecap="butt" stroke-miterlimit="10" stroke-linejoin="miter" fill="none" stroke="#000000" d="M119.55292 2.02586V204.26782"/>
<path transform="matrix(0,1.00003,1.00003,0,121.01807,206.03693)" d="M1.99252 0-1.19551 1.59401 0 0-1.19551-1.59401"/>
<path transform="matrix(0,-1.00003,-1.00003,-0,121.01807,3.7888947)" d="M1.99252 0-1.19551 1.59401 0 0-1.19551-1.59401"/>
<use data-text="&#x2212;" xlink:href="#font_1_1" transform="matrix(7.9703395,0,0,-7.9703395,55.82919,115.695079)"/>
<use data-text="5" xlink:href="#font_2_1" transform="matrix(7.9703395,0,0,-7.9703395,62.41639,115.695079)"/>
<use data-text="5" xlink:href="#font_2_1" transform="matrix(7.9703395,0,0,-7.9703395,178.6789,115.695079)"/>
<use data-text="&#x2212;" xlink:href="#font_1_1" transform="matrix(7.9703395,0,0,-7.9703395,106.4417,158.62436)"/>
<use data-text="5" xlink:href="#font_2_1" transform="matrix(7.9703395,0,0,-7.9703395,113.0289,158.62436)"/>
<use data-text="5" xlink:href="#font_2_1" transform="matrix(7.9703395,0,0,-7.9703395,113.02891,55.92328)"/>
<g clip-path="url(#clip_3)">
<path transform="matrix(1.00003,0,0,-1.00003,1.4615555,208.06285)" stroke-width=".99628" stroke-linecap="butt" stroke-miterlimit="10" stroke-linejoin="miter" fill="none" stroke="#9e0c0f" d="M101.7194 8.14778 103.94527 21.41563 107.53781 40.96904 111.13036 58.6602 114.72292 74.48917 118.31548 88.45592 121.90804 100.56042 125.50058 110.80273 129.09313 119.1828 132.68569 125.70067 136.27823 130.3563 139.87079 133.1497 143.46335 134.08089 147.0559 133.14986 150.64846 130.35662 154.241 125.70113 157.83354 119.1834 161.4261 110.80353 165.01865 100.56142 168.61122 88.45703 172.20377 74.4904 175.79631 58.66165 179.38887 40.97047 182.98142 21.4172 185.20728 8.14964"/>
<path transform="matrix(-.16542496,.98620966,.98620966,.16542496,103.30057,199.22006)" d="M7.39124 0 2.37614 1.6717 .70447 0 2.37614-1.6717Z" fill="#9e0c0f"/>
<path transform="matrix(-.16542496,.98620966,.98620966,.16542496,103.30057,199.22006)" stroke-width=".99628" stroke-linecap="butt" stroke-miterlimit="10" stroke-linejoin="miter" fill="none" stroke="#9e0c0f" d="M7.39124 0 2.37614 1.6717 .70447 0 2.37614-1.6717Z"/>
<path transform="matrix(.16542496,.98620966,.98620966,-.16542496,186.55786,199.2182)" d="M7.39124 0 2.37614 1.6717 .70447 0 2.37614-1.6717Z" fill="#9e0c0f"/>
<path transform="matrix(.16542496,.98620966,.98620966,-.16542496,186.55786,199.2182)" stroke-width=".99628" stroke-linecap="butt" stroke-miterlimit="10" stroke-linejoin="miter" fill="none" stroke="#9e0c0f" d="M7.39124 0 2.37614 1.6717 .70447 0 2.37614-1.6717Z"/>
</g>
<path transform="matrix(1.00003,0,0,-1.00003,1.4615555,208.06285)" d="M124.74947 103.14685C124.74947 104.24731 123.85738 105.1394 122.75691 105.1394 121.65643 105.1394 120.76436 104.24731 120.76436 103.14685 120.76436 102.04637 121.65643 101.1543 122.75691 101.1543 123.85738 101.1543 124.74947 102.04637 124.74947 103.14685ZM122.75691 103.14685" fill="#9e0c0f"/>
<path transform="matrix(1.00003,0,0,-1.00003,1.4615555,208.06285)" stroke-width=".3985" stroke-linecap="butt" stroke-miterlimit="10" stroke-linejoin="miter" fill="none" stroke="#9e0c0f" d="M124.74947 103.14685C124.74947 104.24731 123.85738 105.1394 122.75691 105.1394 121.65643 105.1394 120.76436 104.24731 120.76436 103.14685 120.76436 102.04637 121.65643 101.1543 122.75691 101.1543 123.85738 101.1543 124.74947 102.04637 124.74947 103.14685ZM122.75691 103.14685"/>
<path transform="matrix(1.00003,0,0,-1.00003,1.4615555,208.06285)" d="M166.16262 103.14685C166.16262 104.24731 165.27054 105.1394 164.17006 105.1394 163.0696 105.1394 162.1775 104.24731 162.1775 103.14685 162.1775 102.04637 163.0696 101.1543 164.17006 101.1543 165.27054 101.1543 166.16262 102.04637 166.16262 103.14685ZM164.17006 103.14685" fill="#9e0c0f"/>
<path transform="matrix(1.00003,0,0,-1.00003,1.4615555,208.06285)" stroke-width=".3985" stroke-linecap="butt" stroke-miterlimit="10" stroke-linejoin="miter" fill="none" stroke="#9e0c0f" d="M166.16262 103.14685C166.16262 104.24731 165.27054 105.1394 164.17006 105.1394 163.0696 105.1394 162.1775 104.24731 162.1775 103.14685 162.1775 102.04637 163.0696 101.1543 164.17006 101.1543 165.27054 101.1543 166.16262 102.04637 166.16262 103.14685ZM164.17006 103.14685"/>
<path transform="matrix(1.00003,0,0,-1.00003,1.4615555,208.06285)" d="M121.54547 92.8355C121.54547 93.93596 120.65338 94.82805 119.55292 94.82805 118.45244 94.82805 117.56036 93.93596 117.56036 92.8355 117.56036 91.73503 118.45244 90.84294 119.55292 90.84294 120.65338 90.84294 121.54547 91.73503 121.54547 92.8355ZM119.55292 92.8355" fill="#9e0c0f"/>
<path transform="matrix(1.00003,0,0,-1.00003,1.4615555,208.06285)" stroke-width=".3985" stroke-linecap="butt" stroke-miterlimit="10" stroke-linejoin="miter" fill="none" stroke="#9e0c0f" d="M121.54547 92.8355C121.54547 93.93596 120.65338 94.82805 119.55292 94.82805 118.45244 94.82805 117.56036 93.93596 117.56036 92.8355 117.56036 91.73503 118.45244 90.84294 119.55292 90.84294 120.65338 90.84294 121.54547 91.73503 121.54547 92.8355ZM119.55292 92.8355"/>
<path transform="matrix(1.00003,0,0,-1.00003,1.4615555,208.06285)" d="M145.45606 134.08089C145.45606 135.18137 144.56397 136.07344 143.4635 136.07344 142.36302 136.07344 141.47095 135.18137 141.47095 134.08089 141.47095 132.98043 142.36302 132.08834 143.4635 132.08834 144.56397 132.08834 145.45606 132.98043 145.45606 134.08089ZM143.4635 134.08089" fill="#9e0c0f"/>
<path transform="matrix(1.00003,0,0,-1.00003,1.4615555,208.06285)" stroke-width=".3985" stroke-linecap="butt" stroke-miterlimit="10" stroke-linejoin="miter" fill="none" stroke="#9e0c0f" d="M145.45606 134.08089C145.45606 135.18137 144.56397 136.07344 143.4635 136.07344 142.36302 136.07344 141.47095 135.18137 141.47095 134.08089 141.47095 132.98043 142.36302 132.08834 143.4635 132.08834 144.56397 132.08834 145.45606 132.98043 145.45606 134.08089ZM143.4635 134.08089"/>
<path transform="matrix(1.00003,0,0,-1.00003,1.4615555,208.06285)" d="M169.36664 92.8355C169.36664 93.93596 168.47455 94.82805 167.37409 94.82805 166.2736 94.82805 165.38153 93.93596 165.38153 92.8355 165.38153 91.73503 166.2736 90.84294 167.37409 90.84294 168.47455 90.84294 169.36664 91.73503 169.36664 92.8355ZM167.37409 92.8355" fill="#9e0c0f"/>
<path transform="matrix(1.00003,0,0,-1.00003,1.4615555,208.06285)" stroke-width=".3985" stroke-linecap="butt" stroke-miterlimit="10" stroke-linejoin="miter" fill="none" stroke="#9e0c0f" d="M169.36664 92.8355C169.36664 93.93596 168.47455 94.82805 167.37409 94.82805 166.2736 94.82805 165.38153 93.93596 165.38153 92.8355 165.38153 91.73503 166.2736 90.84294 167.37409 90.84294 168.47455 90.84294 169.36664 91.73503 169.36664 92.8355ZM167.37409 92.8355"/>
<path transform="matrix(1.00003,0,0,-1.00003,1.4615555,208.06285)" stroke-width=".3985" stroke-linecap="butt" stroke-miterlimit="10" stroke-linejoin="miter" fill="none" stroke="#9e0c0f" d=""/>
<use data-text="x" xlink:href="#font_4_1" transform="matrix(9.962899,0,0,-9.962899,231.36048,101.39265)"/>
<use data-text="y" xlink:href="#font_4_2" transform="matrix(9.962899,0,0,-9.962899,124.53825,9.605881)"/>
</svg>
