<svg xmlns="http://www.w3.org/2000/svg" xmlns:xlink="http://www.w3.org/1999/xlink" version="1.1" width="242" height="209" viewBox="0 0 242 209">
<defs>
<path id="font_1_1" d="M.69898989 .22743225C.71499636 .22743225 .7369995 .22743225 .7369995 .25042726 .7369995 .2734375 .71499636 .2734375 .69898989 .2734375H.12599182C.10998535 .2734375 .08799744 .2734375 .08799744 .25042726 .08799744 .22743225 .10998535 .22743225 .12599182 .22743225H.69898989Z"/>
<path id="font_2_3" d="M.13798523 .33073426C.13798523 .41377259 .14498902 .4868164 .18099976 .54782107 .21099854 .5978241 .2619934 .6390381 .32499696 .6390381 .34498597 .6390381 .3909912 .63601687 .4139862 .60084536 .36898805 .5988312 .36499024 .5648346 .36499024 .553833 .36499024 .5238342 .3880005 .50683596 .4119873 .50683596 .42999269 .50683596 .45899964 .51782229 .45899964 .5558319 .45899964 .615921 .4139862 .66503909 .32398988 .66503909 .18499756 .66503909 .04399109 .53282168 .04399109 .31672669 .04399109 .045532228 .16999817-.021484375 .2669983-.021484375 .31498719-.021484375 .36698915-.0084991459 .4119873 .03453064 .45199586 .07354736 .48599244 .11558533 .48599244 .20263672 .48599244 .33372499 .3869934 .42578126 .27598573 .42578126 .20399475 .42578126 .16099549 .37976075 .13798523 .33073426M.2669983 .008514404C.21398926 .008514404 .18099976 .045532228 .1659851 .07354736 .14299011 .11859131 .14099121 .18663025 .14099121 .22465515 .14099121 .32373048 .19499207 .3977661 .27198792 .3977661 .32199098 .3977661 .35198976 .37176515 .37098695 .33673097 .3919983 .29971314 .3919983 .25468446 .3919983 .2036438 .3919983 .15260315 .3919983 .10858154 .37199403 .07255554 .34599305 .026519776 .31098939 .008514404 .2669983 .008514404Z"/>
<path id="font_2_2" d="M.3939972 .6468048C.3939972 .6667938 .3939972 .6748047 .37298585 .6748047 .3600006 .6748047 .35899354 .6737976 .34899903 .65979006L.02999878 .197052V.1640625H.31199647V.08100891C.31199647 .04399109 .30899049 .032989503 .23199463 .032989503H.20899964V0C.2939911 .0029907227 .29599 .0029907227 .35299684 .0029907227 .4099884 .0029907227 .4119873 .0029907227 .49699403 0V.032989503H.47399903C.39698792 .032989503 .3939972 .04399109 .3939972 .08100891V.1640625H.5V.197052H.3939972V.6468048M.31900025 .5658417V.197052H.06498718L.31900025 .5658417Z"/>
<path id="font_2_1" d="M.28199769 .20405579C.2979889 .21907044 .33999635 .2520752 .35598756 .26608277 .41799928 .32312013 .47698976 .3781433 .47698976 .46917726 .47698976 .588089 .3769989 .66503909 .2519989 .66503909 .13198853 .66503909 .052993776 .57411196 .052993776 .48516847 .052993776 .4361725 .09199524 .4291687 .10598755 .4291687 .1269989 .4291687 .1579895 .4441681 .1579895 .48217774 .1579895 .5341797 .10798645 .5341797 .09599304 .5341797 .125 .6070709 .19198609 .6320343 .24099732 .6320343 .33399964 .6320343 .38198854 .55314639 .38198854 .46917726 .38198854 .36514283 .30899049 .28910829 .19099427 .16804505L.06498718 .037994386C.052993776 .026992798 .052993776 .024993897 .052993776 0H.44799806L.47698976 .17904663H.44599916C.44299317 .1590271 .43499757 .10900879 .4229889 .08999634 .4169922 .08198547 .34098817 .08198547 .32499696 .08198547H.14698792L.28199769 .20405579Z"/>
<path id="font_2_4" d="M.33198548 .36080934C.3880005 .38783265 .45599366 .4378662 .45599366 .5159302 .45599366 .6110077 .35899354 .66503909 .2659912 .66503909 .1599884 .66503909 .07398987 .59199526 .07398987 .49790956 .07398987 .46089173 .08699036 .42686463 .11199951 .39782716 .1289978 .3768158 .1329956 .3748169 .19499207 .3357849 .070999149 .2807312 .04399109 .20767212 .04399109 .15162659 .04399109 .041534425 .15499878-.021484375 .2639923-.021484375 .3869934-.021484375 .48599244 .061553956 .48599244 .16764832 .48599244 .23069763 .45199586 .2727356 .43598939 .28974916 .4189911 .30575563 .41799928 .3067627 .33198548 .36080934M.1769867 .45487977C.147995 .4718933 .12399292 .5009155 .12399292 .5359497 .12399292 .598999 .19299317 .6390381 .2639923 .6390381 .34199525 .6390381 .4059906 .5859833 .4059906 .5159302 .4059906 .45788575 .36099244 .408844 .3019867 .37982179L.1769867 .45487977M.22599793 .31776429C.22999573 .31576539 .34399415 .24571228 .36099244 .23469544 .3769989 .22569275 .42900086 .19366455 .42900086 .13360596 .42900086 .056549074 .34799195 .008514404 .2659912 .008514404 .1769867 .008514404 .100997928 .06956482 .100997928 .15162659 .100997928 .22668457 .15699768 .28573609 .22599793 .31776429Z"/>
<clipPath id="clip_3">
<path transform="matrix(1,0,0,-1.00003,1.4610005,208.09786)" d="M0 .06764H239.11191V206.2954H0Z"/>
</clipPath>
<path id="font_4_1" d="M.33399964 .30233766C.33999635 .32835389 .36299134 .42037965 .43299867 .42037965 .43798829 .42037965 .46199037 .42037965 .48298646 .40734864 .45498658 .402359 .43499757 .37734986 .43499757 .35334779 .43499757 .33735658 .44599916 .31835938 .47299195 .31835938 .49499513 .31835938 .5269928 .3363495 .5269928 .37635804 .5269928 .42837525 .46798707 .4423828 .43399049 .4423828 .37599183 .4423828 .34098817 .38935853 .32899476 .36634828 .3039856 .43237306 .25 .4423828 .22099304 .4423828 .116989139 .4423828 .05999756 .3133545 .05999756 .28834535 .05999756 .27833558 .069992069 .27833558 .07199097 .27833558 .07998657 .27833558 .08299255 .28033448 .084991458 .28933717 .11898804 .39535523 .18499756 .42037965 .21899414 .42037965 .23799134 .42037965 .272995 .4113617 .272995 .35334779 .272995 .32235719 .2559967 .25532533 .21899414 .11528015 .20298767 .053268434 .16799927 .011245728 .12399292 .011245728 .117996219 .011245728 .09498596 .011245728 .07398987 .024276734 .09899902 .029266358 .12098694 .05027771 .12098694 .07827759 .12098694 .105270389 .09899902 .11328125 .083999637 .11328125 .053985597 .11328125 .0289917 .08728027 .0289917 .055267335 .0289917 .009246826 .07899475-.0107421879 .12298584-.0107421879 .18899536-.0107421879 .22499085 .059280397 .22799683 .0652771 .23999024 .028274537 .27598573-.0107421879 .33599855-.0107421879 .43899537-.0107421879 .49598695 .118270877 .49598695 .14328003 .49598695 .1532898 .4869995 .1532898 .48399354 .1532898 .47499085 .1532898 .47299195 .14929199 .47099305 .14228821 .43798829 .03527832 .36999513 .011245728 .33799745 .011245728 .29899598 .011245728 .2829895 .043273927 .2829895 .07727051 .2829895 .09927368 .2889862 .121276859 .2999878 .16529846L.33399964 .30233766Z"/>
<path id="font_4_2" d="M.48599244 .38136292C.48999024 .39537049 .48999024 .39736939 .48999024 .40437318 .48999024 .42237855 .47599793 .43138124 .46099855 .43138124 .45098878 .43138124 .43499757 .42536927 .42599488 .41036988 .42399598 .405365 .41600038 .37435914 .4119873 .35635377 .40499879 .33035279 .397995 .30334474 .3919983 .27633668L.34700013 .09628296C.34298707 .08126831 .2999878 .011245728 .23399353 .011245728 .18299866 .011245728 .17199707 .055267335 .17199707 .0922699 .17199707 .1382904 .18899536 .20030213 .22299195 .28833009 .23899842 .3293457 .24299622 .3403473 .24299622 .36035157 .24299622 .405365 .21099854 .4423828 .16099549 .4423828 .06599426 .4423828 .0289917 .29733277 .0289917 .28833009 .0289917 .27833558 .038986207 .27833558 .040985109 .27833558 .050994874 .27833558 .051986696 .28033448 .056991579 .29634095 .083999637 .3903656 .12399292 .42037965 .1579895 .42037965 .1659851 .42037965 .18299866 .42037965 .18299866 .3883667 .18299866 .36335755 .17298889 .3373413 .1659851 .31834413 .12599182 .21231079 .10798645 .1552887 .10798645 .10827637 .10798645 .019256592 .17098999-.0107421879 .22999573-.0107421879 .2689972-.0107421879 .30299378 .0062561037 .33099366 .03425598 .31799317-.017745972 .30599977-.06674194 .2659912-.11973572 .23999024-.15385437 .20199585-.18309021 .1559906-.18309021 .14199829-.18309021 .09700012-.18005371 .07998657-.14074707 .09599304-.14074707 .10899353-.14074707 .12298584-.1287384 .1329956-.11973572 .14299011-.10673523 .14299011-.08773804 .14299011-.056747438 .115997318-.052734376 .10598755-.052734376 .08299255-.052734376 .049987794-.068740848 .049987794-.11773682 .049987794-.16796875 .09399414-.20507813 .1559906-.20507813 .25898744-.20507813 .3619995-.11373901 .3899994-.00074768069L.48599244 .38136292Z"/>
</defs>
<path transform="matrix(1,0,0,-1.00003,1.4610005,208.09786)" d="M0 .06764H239.11191V206.2954H0Z" fill="#fffac2"/>
<path transform="matrix(1,0,0,-1.00003,1.4610005,208.09786)" stroke-width=".3985" stroke-linecap="butt" stroke-miterlimit="10" stroke-linejoin="miter" fill="none" stroke="#d5d6d5" d="M0 .06764V206.2954M17.07942 .06764V206.2954M34.15884 .06764V206.2954M51.23827 .06764V206.2954M68.31769 .06764V206.2954M85.39711 .06764V206.2954M102.47653 .06764V206.2954M119.55595 .06764V206.2954M136.63538 .06764V206.2954M153.7148 .06764V206.2954M170.79422 .06764V206.2954M187.87364 .06764V206.2954M204.95307 .06764V206.2954M222.03249 .06764V206.2954M239.11191 .06764V206.2954"/>
<path transform="matrix(1,0,0,-1.00003,1.4610005,208.09786)" stroke-width=".3985" stroke-linecap="butt" stroke-miterlimit="10" stroke-linejoin="miter" fill="none" stroke="#d5d6d5" d="M17.07942 .06764V206.2954M51.23827 .06764V206.2954M85.39711 .06764V206.2954M153.7148 .06764V206.2954M187.87364 .06764V206.2954M222.03249 .06764V206.2954"/>
<path transform="matrix(1,0,0,-1.00003,1.4610005,208.09786)" stroke-width=".3985" stroke-linecap="butt" stroke-miterlimit="10" stroke-linejoin="miter" fill="none" stroke="#d5d6d5" d="M0 13.81616H239.11191M0 27.56468H239.11191M0 41.31319H239.11191M0 55.0617H239.11191M0 68.81023H239.11191M0 82.55875H239.11191M0 96.30727H239.11191M0 110.05579H239.11191M0 123.80429H239.11191M0 137.55281H239.11191M0 151.30133H239.11191M0 165.04985H239.11191M0 178.79837H239.11191M0 192.54688H239.11191"/>
<path transform="matrix(1,0,0,-1.00003,1.4610005,208.09786)" stroke-width=".3985" stroke-linecap="butt" stroke-miterlimit="10" stroke-linejoin="miter" fill="none" stroke="#d5d6d5" d="M0 13.81616H239.11191M0 41.31319H239.11191M0 96.30727H239.11191M0 123.80429H239.11191M0 151.30133H239.11191M0 178.79837H239.11191"/>
<path transform="matrix(1,0,0,-1.00003,1.4610005,208.09786)" stroke-width=".19925" stroke-linecap="butt" stroke-miterlimit="10" stroke-linejoin="miter" fill="none" stroke="#929292" d="M0 67.39291V70.22755M17.07942 67.39291V70.22755M34.15884 67.39291V70.22755M51.23827 67.39291V70.22755M68.31769 67.39291V70.22755M85.39711 67.39291V70.22755M102.47653 67.39291V70.22755M119.55595 67.39291V70.22755M136.63538 67.39291V70.22755M153.7148 67.39291V70.22755M170.79422 67.39291V70.22755M187.87364 67.39291V70.22755M204.95307 67.39291V70.22755M222.03249 67.39291V70.22755M239.11191 67.39291V70.22755"/>
<path transform="matrix(1,0,0,-1.00003,1.4610005,208.09786)" stroke-width=".19925" stroke-linecap="butt" stroke-miterlimit="10" stroke-linejoin="miter" fill="none" stroke="#929292" d="M17.07942 66.68448V70.93597M51.23827 66.68448V70.93597M85.39711 66.68448V70.93597M153.7148 66.68448V70.93597M187.87364 66.68448V70.93597M222.03249 66.68448V70.93597"/>
<path transform="matrix(1,0,0,-1.00003,1.4610005,208.09786)" stroke-width=".19925" stroke-linecap="butt" stroke-miterlimit="10" stroke-linejoin="miter" fill="none" stroke="#929292" d="M118.13852 13.81616H120.97339M118.13852 27.56468H120.97339M118.13852 41.31319H120.97339M118.13852 55.0617H120.97339M118.13852 68.81023H120.97339M118.13852 82.55875H120.97339M118.13852 96.30727H120.97339M118.13852 110.05579H120.97339M118.13852 123.80429H120.97339M118.13852 137.55281H120.97339M118.13852 151.30133H120.97339M118.13852 165.04985H120.97339M118.13852 178.79837H120.97339M118.13852 192.54688H120.97339"/>
<path transform="matrix(1,0,0,-1.00003,1.4610005,208.09786)" stroke-width=".19925" stroke-linecap="butt" stroke-miterlimit="10" stroke-linejoin="miter" fill="none" stroke="#929292" d="M117.43001 13.81616H121.68187M117.43001 41.31319H121.68187M117.43001 96.30727H121.68187M117.43001 123.80429H121.68187M117.43001 151.30133H121.68187M117.43001 178.79837H121.68187"/>
<path transform="matrix(1,0,0,-1.00003,1.4610005,208.09786)" stroke-width=".3985" stroke-linecap="butt" stroke-miterlimit="10" stroke-linejoin="miter" fill="none" stroke="#000000" d="M1.99252 68.81023H237.11939"/>
<path transform="matrix(-1,-0,0,1.00003,3.4535204,139.28556)" d="M1.99252 0-1.19551 1.59401 0 0-1.19551-1.59401"/>
<path transform="matrix(1,0,0,-1.00003,238.58039,139.28556)" d="M1.99252 0-1.19551 1.59401 0 0-1.19551-1.59401"/>
<path transform="matrix(1,0,0,-1.00003,1.4610005,208.09786)" stroke-width=".3985" stroke-linecap="butt" stroke-miterlimit="10" stroke-linejoin="miter" fill="none" stroke="#000000" d="M119.55595 2.06017V204.30287"/>
<path transform="matrix(0,1.00003,1,0,121.016948,206.03763)" d="M1.99252 0-1.19551 1.59401 0 0-1.19551-1.59401"/>
<path transform="matrix(0,-1.00003,-1,-0,121.016948,3.7888489)" d="M1.99252 0-1.19551 1.59401 0 0-1.19551-1.59401"/>
<use data-text="&#x2212;" xlink:href="#font_1_1" transform="matrix(7.9701,0,0,-7.9703395,13.13,150.06812)"/>
<use data-text="6" xlink:href="#font_2_3" transform="matrix(7.9701,0,0,-7.9703395,19.717,150.06812)"/>
<use data-text="&#x2212;" xlink:href="#font_1_1" transform="matrix(7.9701,0,0,-7.9703395,47.289,150.06812)"/>
<use data-text="4" xlink:href="#font_2_2" transform="matrix(7.9701,0,0,-7.9703395,53.876,150.06812)"/>
<use data-text="&#x2212;" xlink:href="#font_1_1" transform="matrix(7.9701,0,0,-7.9703395,81.448,150.06812)"/>
<use data-text="2" xlink:href="#font_2_1" transform="matrix(7.9701,0,0,-7.9703395,88.035,150.06812)"/>
<use data-text="2" xlink:href="#font_2_1" transform="matrix(7.9701,0,0,-7.9703395,153.059,150.06812)"/>
<use data-text="4" xlink:href="#font_2_2" transform="matrix(7.9701,0,0,-7.9703395,187.218,150.06812)"/>
<use data-text="6" xlink:href="#font_2_3" transform="matrix(7.9701,0,0,-7.9703395,221.37599,150.06812)"/>
<use data-text="&#x2212;" xlink:href="#font_1_1" transform="matrix(7.9701,0,0,-7.9703395,106.44101,196.43451)"/>
<use data-text="4" xlink:href="#font_2_2" transform="matrix(7.9701,0,0,-7.9703395,113.02801,196.43451)"/>
<use data-text="&#x2212;" xlink:href="#font_1_1" transform="matrix(7.9701,0,0,-7.9703395,106.44101,168.93668)"/>
<use data-text="2" xlink:href="#font_2_1" transform="matrix(7.9701,0,0,-7.9703395,113.02801,168.93668)"/>
<use data-text="2" xlink:href="#font_2_1" transform="matrix(7.9701,0,0,-7.9703395,113.028,114.35604)"/>
<use data-text="4" xlink:href="#font_2_2" transform="matrix(7.9701,0,0,-7.9703395,113.028,86.858219)"/>
<use data-text="6" xlink:href="#font_2_3" transform="matrix(7.9701,0,0,-7.9703395,113.028,59.360383)"/>
<use data-text="8" xlink:href="#font_2_4" transform="matrix(7.9701,0,0,-7.9703395,113.028,31.862565)"/>
<g clip-path="url(#clip_3)">
<path transform="matrix(1,0,0,-1.00003,1.4610005,208.09786)" stroke-width=".99628" stroke-linecap="butt" stroke-miterlimit="10" stroke-linejoin="miter" fill="none" stroke="#9e0c0f" d="M53.80939 8.20111 56.59265 31.02834 60.37575 59.35886 64.15883 84.991 67.94193 107.92519 71.725 128.16117 75.50812 145.699 79.2912 160.53871 83.0743 172.68036 86.85738 182.12383 90.64047 188.86914 94.42355 192.91638 98.20667 194.26548 101.98975 192.9164 105.77283 188.86919 109.55592 182.12389 113.339 172.68042 117.12212 160.53885 120.9052 145.69915 124.6883 128.16129 128.47138 107.92532 132.25447 84.99121 136.03755 59.35898 139.82067 31.02853 142.60391 8.2012"/>
<path transform="matrix(-.12102,.9926598,.99263,.12102363,55.35565,199.19719)" d="M7.39124 0 2.37614 1.6717 .70447 0 2.37614-1.6717Z" fill="#9e0c0f"/>
<path transform="matrix(-.12102,.9926598,.99263,.12102363,55.35565,199.19719)" stroke-width=".99628" stroke-linecap="butt" stroke-miterlimit="10" stroke-linejoin="miter" fill="none" stroke="#9e0c0f" d="M7.39124 0 2.37614 1.6717 .70447 0 2.37614-1.6717Z"/>
<path transform="matrix(.12102,.9926598,.99263,-.12102363,143.97965,199.19709)" d="M7.39124 0 2.37614 1.6717 .70447 0 2.37614-1.6717Z" fill="#9e0c0f"/>
<path transform="matrix(.12102,.9926598,.99263,-.12102363,143.97965,199.19709)" stroke-width=".99628" stroke-linecap="butt" stroke-miterlimit="10" stroke-linejoin="miter" fill="none" stroke="#9e0c0f" d="M7.39124 0 2.37614 1.6717 .70447 0 2.37614-1.6717Z"/>
</g>
<path transform="matrix(1,0,0,-1.00003,1.4610005,208.09786)" d="M70.31024 110.05579C70.31024 111.15625 69.41815 112.04834 68.31769 112.04834 67.21721 112.04834 66.32513 111.15625 66.32513 110.05579 66.32513 108.9553 67.21721 108.06323 68.31769 108.06323 69.41815 108.06323 70.31024 108.9553 70.31024 110.05579ZM68.31769 110.05579" fill="#9e0c0f"/>
<path transform="matrix(1,0,0,-1.00003,1.4610005,208.09786)" stroke-width=".3985" stroke-linecap="butt" stroke-miterlimit="10" stroke-linejoin="miter" fill="none" stroke="#9e0c0f" d="M70.31024 110.05579C70.31024 111.15625 69.41815 112.04834 68.31769 112.04834 67.21721 112.04834 66.32513 111.15625 66.32513 110.05579 66.32513 108.9553 67.21721 108.06323 68.31769 108.06323 69.41815 108.06323 70.31024 108.9553 70.31024 110.05579ZM68.31769 110.05579"/>
<path transform="matrix(1,0,0,-1.00003,1.4610005,208.09786)" d="M87.38966 178.79837C87.38966 179.89884 86.49757 180.79093 85.39711 180.79093 84.29663 180.79093 83.40456 179.89884 83.40456 178.79837 83.40456 177.69789 84.29663 176.80582 85.39711 176.80582 86.49757 176.80582 87.38966 177.69789 87.38966 178.79837ZM85.39711 178.79837" fill="#9e0c0f"/>
<path transform="matrix(1,0,0,-1.00003,1.4610005,208.09786)" stroke-width=".3985" stroke-linecap="butt" stroke-miterlimit="10" stroke-linejoin="miter" fill="none" stroke="#9e0c0f" d="M87.38966 178.79837C87.38966 179.89884 86.49757 180.79093 85.39711 180.79093 84.29663 180.79093 83.40456 179.89884 83.40456 178.79837 83.40456 177.69789 84.29663 176.80582 85.39711 176.80582 86.49757 176.80582 87.38966 177.69789 87.38966 178.79837ZM85.39711 178.79837"/>
<path transform="matrix(1,0,0,-1.00003,1.4610005,208.09786)" d="M100.19923 194.26546C100.19923 195.36592 99.30714 196.25801 98.20668 196.25801 97.1062 196.25801 96.21413 195.36592 96.21413 194.26546 96.21413 193.16498 97.1062 192.2729 98.20668 192.2729 99.30714 192.2729 100.19923 193.16498 100.19923 194.26546ZM98.20668 194.26546" fill="#9e0c0f"/>
<path transform="matrix(1,0,0,-1.00003,1.4610005,208.09786)" stroke-width=".3985" stroke-linecap="butt" stroke-miterlimit="10" stroke-linejoin="miter" fill="none" stroke="#9e0c0f" d="M100.19923 194.26546C100.19923 195.36592 99.30714 196.25801 98.20668 196.25801 97.1062 196.25801 96.21413 195.36592 96.21413 194.26546 96.21413 193.16498 97.1062 192.2729 98.20668 192.2729 99.30714 192.2729 100.19923 193.16498 100.19923 194.26546ZM98.20668 194.26546"/>
<path transform="matrix(1,0,0,-1.00003,1.4610005,208.09786)" d="M104.46909 192.54688C104.46909 193.64736 103.577 194.53943 102.47653 194.53943 101.37605 194.53943 100.48398 193.64736 100.48398 192.54688 100.48398 191.44641 101.37605 190.55432 102.47653 190.55432 103.577 190.55432 104.46909 191.44641 104.46909 192.54688ZM102.47653 192.54688" fill="#9e0c0f"/>
<path transform="matrix(1,0,0,-1.00003,1.4610005,208.09786)" stroke-width=".3985" stroke-linecap="butt" stroke-miterlimit="10" stroke-linejoin="miter" fill="none" stroke="#9e0c0f" d="M104.46909 192.54688C104.46909 193.64736 103.577 194.53943 102.47653 194.53943 101.37605 194.53943 100.48398 193.64736 100.48398 192.54688 100.48398 191.44641 101.37605 190.55432 102.47653 190.55432 103.577 190.55432 104.46909 191.44641 104.46909 192.54688ZM102.47653 192.54688"/>
<path transform="matrix(1,0,0,-1.00003,1.4610005,208.09786)" d="M121.54851 151.30133C121.54851 152.4018 120.65642 153.29389 119.55595 153.29389 118.45547 153.29389 117.5634 152.4018 117.5634 151.30133 117.5634 150.20087 118.45547 149.30878 119.55595 149.30878 120.65642 149.30878 121.54851 150.20087 121.54851 151.30133ZM119.55595 151.30133" fill="#9e0c0f"/>
<path transform="matrix(1,0,0,-1.00003,1.4610005,208.09786)" stroke-width=".3985" stroke-linecap="butt" stroke-miterlimit="10" stroke-linejoin="miter" fill="none" stroke="#9e0c0f" d="M121.54851 151.30133C121.54851 152.4018 120.65642 153.29389 119.55595 153.29389 118.45547 153.29389 117.5634 152.4018 117.5634 151.30133 117.5634 150.20087 118.45547 149.30878 119.55595 149.30878 120.65642 149.30878 121.54851 150.20087 121.54851 151.30133ZM119.55595 151.30133"/>
<path transform="matrix(1,0,0,-1.00003,1.4610005,208.09786)" d="M138.62793 55.0617C138.62793 56.16219 137.73584 57.05426 136.63538 57.05426 135.5349 57.05426 134.64282 56.16219 134.64282 55.0617 134.64282 53.96124 135.5349 53.06915 136.63538 53.06915 137.73584 53.06915 138.62793 53.96124 138.62793 55.0617ZM136.63538 55.0617" fill="#9e0c0f"/>
<path transform="matrix(1,0,0,-1.00003,1.4610005,208.09786)" stroke-width=".3985" stroke-linecap="butt" stroke-miterlimit="10" stroke-linejoin="miter" fill="none" stroke="#9e0c0f" d="M138.62793 55.0617C138.62793 56.16219 137.73584 57.05426 136.63538 57.05426 135.5349 57.05426 134.64282 56.16219 134.64282 55.0617 134.64282 53.96124 135.5349 53.06915 136.63538 53.06915 137.73584 53.06915 138.62793 53.96124 138.62793 55.0617ZM136.63538 55.0617"/>
<path transform="matrix(1,0,0,-1.00003,1.4610005,208.09786)" stroke-width=".3985" stroke-linecap="butt" stroke-miterlimit="10" stroke-linejoin="miter" fill="none" stroke="#9e0c0f" d=""/>
<path transform="matrix(1,0,0,-1.00003,1.4610005,208.09786)" d="M130.08821 110.05579C130.08821 111.15625 129.19614 112.04834 128.09566 112.04834 126.9952 112.04834 126.1031 111.15625 126.1031 110.05579 126.1031 108.9553 126.9952 108.06323 128.09566 108.06323 129.19614 108.06323 130.08821 108.9553 130.08821 110.05579ZM128.09566 110.05579" fill="#9e0c0f"/>
<path transform="matrix(1,0,0,-1.00003,1.4610005,208.09786)" stroke-width=".3985" stroke-linecap="butt" stroke-miterlimit="10" stroke-linejoin="miter" fill="none" stroke="#9e0c0f" d="M130.08821 110.05579C130.08821 111.15625 129.19614 112.04834 128.09566 112.04834 126.9952 112.04834 126.1031 111.15625 126.1031 110.05579 126.1031 108.9553 126.9952 108.06323 128.09566 108.06323 129.19614 108.06323 130.08821 108.9553 130.08821 110.05579ZM128.09566 110.05579"/>
<path transform="matrix(1,0,0,-1.00003,1.4610005,208.09786)" d="M113.00879 178.79837C113.00879 179.89884 112.11671 180.79093 111.01624 180.79093 109.91577 180.79093 109.02368 179.89884 109.02368 178.79837 109.02368 177.69789 109.91577 176.80582 111.01624 176.80582 112.11671 176.80582 113.00879 177.69789 113.00879 178.79837ZM111.01624 178.79837" fill="#9e0c0f"/>
<path transform="matrix(1,0,0,-1.00003,1.4610005,208.09786)" stroke-width=".3985" stroke-linecap="butt" stroke-miterlimit="10" stroke-linejoin="miter" fill="none" stroke="#9e0c0f" d="M113.00879 178.79837C113.00879 179.89884 112.11671 180.79093 111.01624 180.79093 109.91577 180.79093 109.02368 179.89884 109.02368 178.79837 109.02368 177.69789 109.91577 176.80582 111.01624 176.80582 112.11671 176.80582 113.00879 177.69789 113.00879 178.79837ZM111.01624 178.79837"/>
<path transform="matrix(1,0,0,-1.00003,1.4610005,208.09786)" d="M95.92937 192.54688C95.92937 193.64736 95.0373 194.53943 93.93681 194.53943 92.83635 194.53943 91.94426 193.64736 91.94426 192.54688 91.94426 191.44641 92.83635 190.55432 93.93681 190.55432 95.0373 190.55432 95.92937 191.44641 95.92937 192.54688ZM93.93681 192.54688" fill="#9e0c0f"/>
<path transform="matrix(1,0,0,-1.00003,1.4610005,208.09786)" stroke-width=".3985" stroke-linecap="butt" stroke-miterlimit="10" stroke-linejoin="miter" fill="none" stroke="#9e0c0f" d="M95.92937 192.54688C95.92937 193.64736 95.0373 194.53943 93.93681 194.53943 92.83635 194.53943 91.94426 193.64736 91.94426 192.54688 91.94426 191.44641 92.83635 190.55432 93.93681 190.55432 95.0373 190.55432 95.92937 191.44641 95.92937 192.54688ZM93.93681 192.54688"/>
<path transform="matrix(1,0,0,-1.00003,1.4610005,208.09786)" d="M78.84995 151.30133C78.84995 152.4018 77.95787 153.29389 76.85739 153.29389 75.75693 153.29389 74.86484 152.4018 74.86484 151.30133 74.86484 150.20087 75.75693 149.30878 76.85739 149.30878 77.95787 149.30878 78.84995 150.20087 78.84995 151.30133ZM76.85739 151.30133" fill="#9e0c0f"/>
<path transform="matrix(1,0,0,-1.00003,1.4610005,208.09786)" stroke-width=".3985" stroke-linecap="butt" stroke-miterlimit="10" stroke-linejoin="miter" fill="none" stroke="#9e0c0f" d="M78.84995 151.30133C78.84995 152.4018 77.95787 153.29389 76.85739 153.29389 75.75693 153.29389 74.86484 152.4018 74.86484 151.30133 74.86484 150.20087 75.75693 149.30878 76.85739 149.30878 77.95787 149.30878 78.84995 150.20087 78.84995 151.30133ZM76.85739 151.30133"/>
<path transform="matrix(1,0,0,-1.00003,1.4610005,208.09786)" d="M61.77052 55.0617C61.77052 56.16219 60.87845 57.05426 59.77797 57.05426 58.6775 57.05426 57.78542 56.16219 57.78542 55.0617 57.78542 53.96124 58.6775 53.06915 59.77797 53.06915 60.87845 53.06915 61.77052 53.96124 61.77052 55.0617ZM59.77797 55.0617" fill="#9e0c0f"/>
<path transform="matrix(1,0,0,-1.00003,1.4610005,208.09786)" stroke-width=".3985" stroke-linecap="butt" stroke-miterlimit="10" stroke-linejoin="miter" fill="none" stroke="#9e0c0f" d="M61.77052 55.0617C61.77052 56.16219 60.87845 57.05426 59.77797 57.05426 58.6775 57.05426 57.78542 56.16219 57.78542 55.0617 57.78542 53.96124 58.6775 53.06915 59.77797 53.06915 60.87845 53.06915 61.77052 53.96124 61.77052 55.0617ZM59.77797 55.0617"/>
<path transform="matrix(1,0,0,-1.00003,1.4610005,208.09786)" stroke-width=".3985" stroke-linecap="butt" stroke-miterlimit="10" stroke-linejoin="miter" fill="none" stroke="#9e0c0f" d=""/>
<use data-text="x" xlink:href="#font_4_1" transform="matrix(9.9626,0,0,-9.962899,231.359,135.76569)"/>
<use data-text="y" xlink:href="#font_4_2" transform="matrix(9.9626,0,0,-9.962899,124.537,9.605896)"/>
</svg>
