<svg xmlns="http://www.w3.org/2000/svg" xmlns:xlink="http://www.w3.org/1999/xlink" version="1.1" width="242" height="210" viewBox="0 0 242 210">
<defs>
<path id="font_1_1" d="M.69898989 .22743225C.71499636 .22743225 .7369995 .22743225 .7369995 .25042726 .7369995 .2734375 .71499636 .2734375 .69898989 .2734375H.12599182C.10998535 .2734375 .08799744 .2734375 .08799744 .25042726 .08799744 .22743225 .10998535 .22743225 .12599182 .22743225H.69898989Z"/>
<path id="font_2_1" d="M.13999939 .5618439C.15299988 .55784609 .19299317 .54785159 .23498535 .54785159 .3600006 .54785159 .43598939 .6358948 .43598939 .6510315 .43598939 .6620331 .42900086 .66503909 .42399598 .66503909 .42199708 .66503909 .41999818 .66503909 .41099549 .6600342 .37199403 .6450348 .32598878 .632843 .27198792 .632843 .21299744 .632843 .1639862 .6480255 .1329956 .6600342 .12298584 .66503909 .12098694 .66503909 .11999512 .66503909 .10699463 .66503909 .10699463 .6540375 .10699463 .6358948V.34292604C.10699463 .32492066 .10699463 .312912 .12298584 .312912 .1309967 .312912 .13398743 .3169098 .13899231 .32492066 .15098572 .33992005 .18899536 .39093019 .27398683 .39093019 .32998658 .39093019 .35699464 .34492494 .3659973 .32591249 .3829956 .28990174 .3849945 .24389649 .3849945 .20487976 .3849945 .1678772 .38398744 .11387634 .35598756 .069732669 .33699037 .039611818 .29699708 .008514404 .24398804 .008514404 .1789856 .008514404 .114990238 .0496521 .09199524 .11488342 .09498596 .11387634 .100997928 .11387634 .101989749 .11387634 .12998963 .11387634 .1519928 .13188172 .1519928 .16288758 .1519928 .19989014 .12298584 .21289063 .102996829 .21289063 .084991458 .21289063 .052993776 .20288086 .052993776 .15988159 .052993776 .069732669 .1309967-.021484375 .24598694-.021484375 .37098695-.021484375 .47698976 .07574463 .47698976 .19989014 .47698976 .31591798 .3929901 .4189453 .2749939 .4189453 .22499085 .4189453 .17799378 .40293885 .13999939 .368927V.5618439Z"/>
<clipPath id="clip_3">
<path transform="matrix(1.00003,0,0,-1.00003,1.4615555,208.02985)" d="M0 0H239.10584V206.22699H0Z"/>
</clipPath>
<path id="font_4_1" d="M.33399964 .30233766C.33999635 .32835389 .36299134 .42037965 .43299867 .42037965 .43798829 .42037965 .46199037 .42037965 .48298646 .40734864 .45498658 .402359 .43499757 .37734986 .43499757 .35334779 .43499757 .33735658 .44599916 .31835938 .47299195 .31835938 .49499513 .31835938 .5269928 .3363495 .5269928 .37635804 .5269928 .42837525 .46798707 .4423828 .43399049 .4423828 .37599183 .4423828 .34098817 .38935853 .32899476 .36634828 .3039856 .43237306 .25 .4423828 .22099304 .4423828 .116989139 .4423828 .05999756 .3133545 .05999756 .28834535 .05999756 .27833558 .069992069 .27833558 .07199097 .27833558 .07998657 .27833558 .08299255 .28033448 .084991458 .28933717 .11898804 .39535523 .18499756 .42037965 .21899414 .42037965 .23799134 .42037965 .272995 .4113617 .272995 .35334779 .272995 .32235719 .2559967 .25532533 .21899414 .11528015 .20298767 .053268434 .16799927 .011245728 .12399292 .011245728 .117996219 .011245728 .09498596 .011245728 .07398987 .024276734 .09899902 .029266358 .12098694 .05027771 .12098694 .07827759 .12098694 .105270389 .09899902 .11328125 .083999637 .11328125 .053985597 .11328125 .0289917 .08728027 .0289917 .055267335 .0289917 .009246826 .07899475-.0107421879 .12298584-.0107421879 .18899536-.0107421879 .22499085 .059280397 .22799683 .0652771 .23999024 .028274537 .27598573-.0107421879 .33599855-.0107421879 .43899537-.0107421879 .49598695 .118270877 .49598695 .14328003 .49598695 .1532898 .4869995 .1532898 .48399354 .1532898 .47499085 .1532898 .47299195 .14929199 .47099305 .14228821 .43798829 .03527832 .36999513 .011245728 .33799745 .011245728 .29899598 .011245728 .2829895 .043273927 .2829895 .07727051 .2829895 .09927368 .2889862 .121276859 .2999878 .16529846L.33399964 .30233766Z"/>
<path id="font_4_2" d="M.48599244 .38136292C.48999024 .39537049 .48999024 .39736939 .48999024 .40437318 .48999024 .42237855 .47599793 .43138124 .46099855 .43138124 .45098878 .43138124 .43499757 .42536927 .42599488 .41036988 .42399598 .405365 .41600038 .37435914 .4119873 .35635377 .40499879 .33035279 .397995 .30334474 .3919983 .27633668L.34700013 .09628296C.34298707 .08126831 .2999878 .011245728 .23399353 .011245728 .18299866 .011245728 .17199707 .055267335 .17199707 .0922699 .17199707 .1382904 .18899536 .20030213 .22299195 .28833009 .23899842 .3293457 .24299622 .3403473 .24299622 .36035157 .24299622 .405365 .21099854 .4423828 .16099549 .4423828 .06599426 .4423828 .0289917 .29733277 .0289917 .28833009 .0289917 .27833558 .038986207 .27833558 .040985109 .27833558 .050994874 .27833558 .051986696 .28033448 .056991579 .29634095 .083999637 .3903656 .12399292 .42037965 .1579895 .42037965 .1659851 .42037965 .18299866 .42037965 .18299866 .3883667 .18299866 .36335755 .17298889 .3373413 .1659851 .31834413 .12599182 .21231079 .10798645 .1552887 .10798645 .10827637 .10798645 .019256592 .17098999-.0107421879 .22999573-.0107421879 .2689972-.0107421879 .30299378 .0062561037 .33099366 .03425598 .31799317-.017745972 .30599977-.06674194 .2659912-.11973572 .23999024-.15385437 .20199585-.18309021 .1559906-.18309021 .14199829-.18309021 .09700012-.18005371 .07998657-.14074707 .09599304-.14074707 .10899353-.14074707 .12298584-.1287384 .1329956-.11973572 .14299011-.10673523 .14299011-.08773804 .14299011-.056747438 .115997318-.052734376 .10598755-.052734376 .08299255-.052734376 .049987794-.068740848 .049987794-.11773682 .049987794-.16796875 .09399414-.20507813 .1559906-.20507813 .25898744-.20507813 .3619995-.11373901 .3899994-.00074768069L.48599244 .38136292Z"/>
</defs>
<path transform="matrix(1.00003,0,0,-1.00003,1.4615555,208.02985)" d="M0 0H239.10584V206.22699H0Z" fill="#fffac2"/>
<path transform="matrix(1.00003,0,0,-1.00003,1.4615555,208.02985)" stroke-width=".3985" stroke-linecap="butt" stroke-miterlimit="10" stroke-linejoin="miter" fill="none" stroke="#d5d6d5" d="M0 0V206.22699M11.95529 0V206.22699M23.91058 0V206.22699M35.86588 0V206.22699M47.82117 0V206.22699M59.77646 0V206.22699M71.73175 0V206.22699M83.68704 0V206.22699M95.64233 0V206.22699M107.59763 0V206.22699M119.55292 0V206.22699M131.50821 0V206.22699M143.4635 0V206.22699M155.4188 0V206.22699M167.37409 0V206.22699M179.32938 0V206.22699M191.28467 0V206.22699M203.23996 0V206.22699M215.19525 0V206.22699M227.15055 0V206.22699M239.10584 0V206.22699"/>
<path transform="matrix(1.00003,0,0,-1.00003,1.4615555,208.02985)" stroke-width=".3985" stroke-linecap="butt" stroke-miterlimit="10" stroke-linejoin="miter" fill="none" stroke="#d5d6d5" d="M59.77646 0V206.22699M179.32938 0V206.22699"/>
<path transform="matrix(1.00003,0,0,-1.00003,1.4615555,208.02985)" stroke-width=".3985" stroke-linecap="butt" stroke-miterlimit="10" stroke-linejoin="miter" fill="none" stroke="#d5d6d5" d="M0 0H239.10584M0 10.31134H239.10584M0 20.6227H239.10584M0 30.93404H239.10584M0 41.24539H239.10584M0 51.55675H239.10584M0 61.86809H239.10584M0 72.17944H239.10584M0 82.4908H239.10584M0 92.80214H239.10584M0 103.1135H239.10584M0 113.42484H239.10584M0 123.73619H239.10584M0 134.04755H239.10584M0 144.35889H239.10584M0 154.67024H239.10584M0 164.9816H239.10584M0 175.29294H239.10584M0 185.6043H239.10584M0 195.91564H239.10584M0 206.22699H239.10584"/>
<path transform="matrix(1.00003,0,0,-1.00003,1.4615555,208.02985)" stroke-width=".3985" stroke-linecap="butt" stroke-miterlimit="10" stroke-linejoin="miter" fill="none" stroke="#d5d6d5" d="M0 51.55675H239.10584M0 154.67024H239.10584"/>
<path transform="matrix(1.00003,0,0,-1.00003,1.4615555,208.02985)" stroke-width=".19925" stroke-linecap="butt" stroke-miterlimit="10" stroke-linejoin="miter" fill="none" stroke="#929292" d="M0 101.69623V104.53076M11.95529 101.69623V104.53076M23.91058 101.69623V104.53076M35.86588 101.69623V104.53076M47.82117 101.69623V104.53076M59.77646 101.69623V104.53076M71.73175 101.69623V104.53076M83.68704 101.69623V104.53076M95.64233 101.69623V104.53076M107.59763 101.69623V104.53076M119.55292 101.69623V104.53076M131.50821 101.69623V104.53076M143.4635 101.69623V104.53076M155.4188 101.69623V104.53076M167.37409 101.69623V104.53076M179.32938 101.69623V104.53076M191.28467 101.69623V104.53076M203.23996 101.69623V104.53076M215.19525 101.69623V104.53076M227.15055 101.69623V104.53076M239.10584 101.69623V104.53076"/>
<path transform="matrix(1.00003,0,0,-1.00003,1.4615555,208.02985)" stroke-width=".19925" stroke-linecap="butt" stroke-miterlimit="10" stroke-linejoin="miter" fill="none" stroke="#929292" d="M59.77646 100.98778V105.23918M179.32938 100.98778V105.23918"/>
<path transform="matrix(1.00003,0,0,-1.00003,1.4615555,208.02985)" stroke-width=".19925" stroke-linecap="butt" stroke-miterlimit="10" stroke-linejoin="miter" fill="none" stroke="#929292" d="M118.13557 0H120.97025M118.13557 10.31134H120.97025M118.13557 20.6227H120.97025M118.13557 30.93404H120.97025M118.13557 41.24539H120.97025M118.13557 51.55675H120.97025M118.13557 61.86809H120.97025M118.13557 72.17944H120.97025M118.13557 82.4908H120.97025M118.13557 92.80214H120.97025M118.13557 103.1135H120.97025M118.13557 113.42484H120.97025M118.13557 123.73619H120.97025M118.13557 134.04755H120.97025M118.13557 144.35889H120.97025M118.13557 154.67024H120.97025M118.13557 164.9816H120.97025M118.13557 175.29294H120.97025M118.13557 185.6043H120.97025M118.13557 195.91564H120.97025M118.13557 206.22699H120.97025"/>
<path transform="matrix(1.00003,0,0,-1.00003,1.4615555,208.02985)" stroke-width=".19925" stroke-linecap="butt" stroke-miterlimit="10" stroke-linejoin="miter" fill="none" stroke="#929292" d="M117.42708 51.55675H121.67873M117.42708 154.67024H121.67873"/>
<path transform="matrix(1.00003,0,0,-1.00003,1.4615555,208.02985)" stroke-width=".3985" stroke-linecap="butt" stroke-miterlimit="10" stroke-linejoin="miter" fill="none" stroke="#000000" d="M1.99252 103.1135H237.11331"/>
<path transform="matrix(-1.00003,-0,0,1.00003,3.4541355,104.913249)" d="M1.99252 0-1.19551 1.59401 0 0-1.19551-1.59401"/>
<path transform="matrix(1.00003,0,0,-1.00003,238.582,104.913249)" d="M1.99252 0-1.19551 1.59401 0 0-1.19551-1.59401"/>
<path transform="matrix(1.00003,0,0,-1.00003,1.4615555,208.02985)" stroke-width=".3985" stroke-linecap="butt" stroke-miterlimit="10" stroke-linejoin="miter" fill="none" stroke="#000000" d="M119.55292 1.99252V204.23447"/>
<path transform="matrix(0,1.00003,1.00003,0,121.01807,206.03726)" d="M1.99252 0-1.19551 1.59401 0 0-1.19551-1.59401"/>
<path transform="matrix(0,-1.00003,-1.00003,-0,121.01807,3.7892457)" d="M1.99252 0-1.19551 1.59401 0 0-1.19551-1.59401"/>
<use data-text="&#x2212;" xlink:href="#font_1_1" transform="matrix(7.9703395,0,0,-7.9703395,55.82919,115.69507)"/>
<use data-text="5" xlink:href="#font_2_1" transform="matrix(7.9703395,0,0,-7.9703395,62.41639,115.69507)"/>
<use data-text="5" xlink:href="#font_2_1" transform="matrix(7.9703395,0,0,-7.9703395,178.6789,115.69507)"/>
<use data-text="&#x2212;" xlink:href="#font_1_1" transform="matrix(7.9703395,0,0,-7.9703395,106.4417,158.62436)"/>
<use data-text="5" xlink:href="#font_2_1" transform="matrix(7.9703395,0,0,-7.9703395,113.0289,158.62436)"/>
<use data-text="5" xlink:href="#font_2_1" transform="matrix(7.9703395,0,0,-7.9703395,113.02891,55.92328)"/>
<g clip-path="url(#clip_3)">
<path transform="matrix(1.00003,0,0,-1.00003,1.4615555,208.02985)" stroke-width=".99628" stroke-linecap="butt" stroke-miterlimit="10" stroke-linejoin="miter" fill="none" stroke="#9e0c0f" d="M32.70953 198.0527 35.91666 174.94254 40.25938 146.37044 44.60214 120.51927 48.9449 97.38928 53.28766 76.98047 57.6304 59.29283 61.97314 44.32642 66.31589 32.08096 70.65863 22.55685 75.00139 15.75389 79.34413 11.67197 83.68687 10.31134 88.02962 11.67181 92.37236 15.75345 96.71512 22.55626 101.05786 32.08025 105.4006 44.32533 109.74335 59.29163 114.08609 76.97906 118.42885 97.38768 122.77159 120.51744 127.11433 146.36837 131.45708 174.94048 134.66422 198.05036"/>
<path transform="matrix(-.13745412,-.99050977,-.99050977,.13745412,34.26891,10.668976)" d="M7.39124 0 2.37614 1.6717 .70447 0 2.37614-1.6717Z" fill="#9e0c0f"/>
<path transform="matrix(-.13745412,-.99050977,-.99050977,.13745412,34.26891,10.668976)" stroke-width=".99628" stroke-linecap="butt" stroke-miterlimit="10" stroke-linejoin="miter" fill="none" stroke="#9e0c0f" d="M7.39124 0 2.37614 1.6717 .70447 0 2.37614-1.6717Z"/>
<path transform="matrix(.13745412,-.99050977,-.99050977,-.13745412,136.03296,10.671326)" d="M7.39124 0 2.37614 1.6717 .70447 0 2.37614-1.6717Z" fill="#9e0c0f"/>
<path transform="matrix(.13745412,-.99050977,-.99050977,-.13745412,136.03296,10.671326)" stroke-width=".99628" stroke-linecap="butt" stroke-miterlimit="10" stroke-linejoin="miter" fill="none" stroke="#9e0c0f" d="M7.39124 0 2.37614 1.6717 .70447 0 2.37614-1.6717Z"/>
</g>
<path transform="matrix(1.00003,0,0,-1.00003,1.4615555,208.02985)" d="M49.81372 103.1135C49.81372 104.21396 48.92163 105.10605 47.82117 105.10605 46.72069 105.10605 45.82861 104.21396 45.82861 103.1135 45.82861 102.01302 46.72069 101.12094 47.82117 101.12094 48.92163 101.12094 49.81372 102.01302 49.81372 103.1135ZM47.82117 103.1135" fill="#9e0c0f"/>
<path transform="matrix(1.00003,0,0,-1.00003,1.4615555,208.02985)" stroke-width=".3985" stroke-linecap="butt" stroke-miterlimit="10" stroke-linejoin="miter" fill="none" stroke="#9e0c0f" d="M49.81372 103.1135C49.81372 104.21396 48.92163 105.10605 47.82117 105.10605 46.72069 105.10605 45.82861 104.21396 45.82861 103.1135 45.82861 102.01302 46.72069 101.12094 47.82117 101.12094 48.92163 101.12094 49.81372 102.01302 49.81372 103.1135ZM47.82117 103.1135"/>
<path transform="matrix(1.00003,0,0,-1.00003,1.4615555,208.02985)" d="M121.54547 103.1135C121.54547 104.21396 120.65338 105.10605 119.55292 105.10605 118.45244 105.10605 117.56036 104.21396 117.56036 103.1135 117.56036 102.01302 118.45244 101.12094 119.55292 101.12094 120.65338 101.12094 121.54547 102.01302 121.54547 103.1135ZM119.55292 103.1135" fill="#9e0c0f"/>
<path transform="matrix(1.00003,0,0,-1.00003,1.4615555,208.02985)" stroke-width=".3985" stroke-linecap="butt" stroke-miterlimit="10" stroke-linejoin="miter" fill="none" stroke="#9e0c0f" d="M121.54547 103.1135C121.54547 104.21396 120.65338 105.10605 119.55292 105.10605 118.45244 105.10605 117.56036 104.21396 117.56036 103.1135 117.56036 102.01302 118.45244 101.12094 119.55292 101.12094 120.65338 101.12094 121.54547 102.01302 121.54547 103.1135ZM119.55292 103.1135"/>
<path transform="matrix(1.00003,0,0,-1.00003,1.4615555,208.02985)" d="M85.6796 10.31134C85.6796 11.41182 84.7875 12.3039 83.68704 12.3039 82.58656 12.3039 81.69449 11.41182 81.69449 10.31134 81.69449 9.21088 82.58656 8.31879 83.68704 8.31879 84.7875 8.31879 85.6796 9.21088 85.6796 10.31134ZM83.68704 10.31134" fill="#9e0c0f"/>
<path transform="matrix(1.00003,0,0,-1.00003,1.4615555,208.02985)" stroke-width=".3985" stroke-linecap="butt" stroke-miterlimit="10" stroke-linejoin="miter" fill="none" stroke="#9e0c0f" d="M85.6796 10.31134C85.6796 11.41182 84.7875 12.3039 83.68704 12.3039 82.58656 12.3039 81.69449 11.41182 81.69449 10.31134 81.69449 9.21088 82.58656 8.31879 83.68704 8.31879 84.7875 8.31879 85.6796 9.21088 85.6796 10.31134ZM83.68704 10.31134"/>
<path transform="matrix(1.00003,0,0,-1.00003,1.4615555,208.02985)" stroke-width=".3985" stroke-linecap="butt" stroke-miterlimit="10" stroke-linejoin="miter" fill="none" stroke="#9e0c0f" d=""/>
<use data-text="x" xlink:href="#font_4_1" transform="matrix(9.962899,0,0,-9.962899,231.36048,101.39364)"/>
<use data-text="y" xlink:href="#font_4_2" transform="matrix(9.962899,0,0,-9.962899,124.53825,9.605881)"/>
</svg>
