<svg xmlns="http://www.w3.org/2000/svg" xmlns:xlink="http://www.w3.org/1999/xlink" version="1.1" width="242" height="210" viewBox="0 0 242 210">
<defs>
<path id="font_1_1" d="M.69898989 .22743225C.71499636 .22743225 .7369995 .22743225 .7369995 .25042726 .7369995 .2734375 .71499636 .2734375 .69898989 .2734375H.12599182C.10998535 .2734375 .08799744 .2734375 .08799744 .25042726 .08799744 .22743225 .10998535 .22743225 .12599182 .22743225H.69898989Z"/>
<path id="font_2_3" d="M.13798523 .33073426C.13798523 .41377259 .14498902 .4868164 .18099976 .54782107 .21099854 .5978241 .2619934 .6390381 .32499696 .6390381 .34498597 .6390381 .3909912 .63601687 .4139862 .60084536 .36898805 .5988312 .36499024 .5648346 .36499024 .553833 .36499024 .5238342 .3880005 .50683596 .4119873 .50683596 .42999269 .50683596 .45899964 .51782229 .45899964 .5558319 .45899964 .615921 .4139862 .66503909 .32398988 .66503909 .18499756 .66503909 .04399109 .53282168 .04399109 .31672669 .04399109 .045532228 .16999817-.021484375 .2669983-.021484375 .31498719-.021484375 .36698915-.0084991459 .4119873 .03453064 .45199586 .07354736 .48599244 .11558533 .48599244 .20263672 .48599244 .33372499 .3869934 .42578126 .27598573 .42578126 .20399475 .42578126 .16099549 .37976075 .13798523 .33073426M.2669983 .008514404C.21398926 .008514404 .18099976 .045532228 .1659851 .07354736 .14299011 .11859131 .14099121 .18663025 .14099121 .22465515 .14099121 .32373048 .19499207 .3977661 .27198792 .3977661 .32199098 .3977661 .35198976 .37176515 .37098695 .33673097 .3919983 .29971314 .3919983 .25468446 .3919983 .2036438 .3919983 .15260315 .3919983 .10858154 .37199403 .07255554 .34599305 .026519776 .31098939 .008514404 .2669983 .008514404Z"/>
<path id="font_2_2" d="M.3939972 .6468048C.3939972 .6667938 .3939972 .6748047 .37298585 .6748047 .3600006 .6748047 .35899354 .6737976 .34899903 .65979006L.02999878 .197052V.1640625H.31199647V.08100891C.31199647 .04399109 .30899049 .032989503 .23199463 .032989503H.20899964V0C.2939911 .0029907227 .29599 .0029907227 .35299684 .0029907227 .4099884 .0029907227 .4119873 .0029907227 .49699403 0V.032989503H.47399903C.39698792 .032989503 .3939972 .04399109 .3939972 .08100891V.1640625H.5V.197052H.3939972V.6468048M.31900025 .5658417V.197052H.06498718L.31900025 .5658417Z"/>
<path id="font_2_1" d="M.28199769 .20405579C.2979889 .21907044 .33999635 .2520752 .35598756 .26608277 .41799928 .32312013 .47698976 .3781433 .47698976 .46917726 .47698976 .588089 .3769989 .66503909 .2519989 .66503909 .13198853 .66503909 .052993776 .57411196 .052993776 .48516847 .052993776 .4361725 .09199524 .4291687 .10598755 .4291687 .1269989 .4291687 .1579895 .4441681 .1579895 .48217774 .1579895 .5341797 .10798645 .5341797 .09599304 .5341797 .125 .6070709 .19198609 .6320343 .24099732 .6320343 .33399964 .6320343 .38198854 .55314639 .38198854 .46917726 .38198854 .36514283 .30899049 .28910829 .19099427 .16804505L.06498718 .037994386C.052993776 .026992798 .052993776 .024993897 .052993776 0H.44799806L.47698976 .17904663H.44599916C.44299317 .1590271 .43499757 .10900879 .4229889 .08999634 .4169922 .08198547 .34098817 .08198547 .32499696 .08198547H.14698792L.28199769 .20405579Z"/>
<clipPath id="clip_3">
<path transform="matrix(1,0,0,-1.00005,1.4610005,208.08339)" d="M0 .04764H239.11191V206.27768H0Z"/>
</clipPath>
<path id="font_4_1" d="M.33399964 .30233766C.33999635 .32835389 .36299134 .42037965 .43299867 .42037965 .43798829 .42037965 .46199037 .42037965 .48298646 .40734864 .45498658 .402359 .43499757 .37734986 .43499757 .35334779 .43499757 .33735658 .44599916 .31835938 .47299195 .31835938 .49499513 .31835938 .5269928 .3363495 .5269928 .37635804 .5269928 .42837525 .46798707 .4423828 .43399049 .4423828 .37599183 .4423828 .34098817 .38935853 .32899476 .36634828 .3039856 .43237306 .25 .4423828 .22099304 .4423828 .116989139 .4423828 .05999756 .3133545 .05999756 .28834535 .05999756 .27833558 .069992069 .27833558 .07199097 .27833558 .07998657 .27833558 .08299255 .28033448 .084991458 .28933717 .11898804 .39535523 .18499756 .42037965 .21899414 .42037965 .23799134 .42037965 .272995 .4113617 .272995 .35334779 .272995 .32235719 .2559967 .25532533 .21899414 .11528015 .20298767 .053268434 .16799927 .011245728 .12399292 .011245728 .117996219 .011245728 .09498596 .011245728 .07398987 .024276734 .09899902 .029266358 .12098694 .05027771 .12098694 .07827759 .12098694 .105270389 .09899902 .11328125 .083999637 .11328125 .053985597 .11328125 .0289917 .08728027 .0289917 .055267335 .0289917 .009246826 .07899475-.0107421879 .12298584-.0107421879 .18899536-.0107421879 .22499085 .059280397 .22799683 .0652771 .23999024 .028274537 .27598573-.0107421879 .33599855-.0107421879 .43899537-.0107421879 .49598695 .118270877 .49598695 .14328003 .49598695 .1532898 .4869995 .1532898 .48399354 .1532898 .47499085 .1532898 .47299195 .14929199 .47099305 .14228821 .43798829 .03527832 .36999513 .011245728 .33799745 .011245728 .29899598 .011245728 .2829895 .043273927 .2829895 .07727051 .2829895 .09927368 .2889862 .121276859 .2999878 .16529846L.33399964 .30233766Z"/>
<path id="font_4_2" d="M.48599244 .38136292C.48999024 .39537049 .48999024 .39736939 .48999024 .40437318 .48999024 .42237855 .47599793 .43138124 .46099855 .43138124 .45098878 .43138124 .43499757 .42536927 .42599488 .41036988 .42399598 .405365 .41600038 .37435914 .4119873 .35635377 .40499879 .33035279 .397995 .30334474 .3919983 .27633668L.34700013 .09628296C.34298707 .08126831 .2999878 .011245728 .23399353 .011245728 .18299866 .011245728 .17199707 .055267335 .17199707 .0922699 .17199707 .1382904 .18899536 .20030213 .22299195 .28833009 .23899842 .3293457 .24299622 .3403473 .24299622 .36035157 .24299622 .405365 .21099854 .4423828 .16099549 .4423828 .06599426 .4423828 .0289917 .29733277 .0289917 .28833009 .0289917 .27833558 .038986207 .27833558 .040985109 .27833558 .050994874 .27833558 .051986696 .28033448 .056991579 .29634095 .083999637 .3903656 .12399292 .42037965 .1579895 .42037965 .1659851 .42037965 .18299866 .42037965 .18299866 .3883667 .18299866 .36335755 .17298889 .3373413 .1659851 .31834413 .12599182 .21231079 .10798645 .1552887 .10798645 .10827637 .10798645 .019256592 .17098999-.0107421879 .22999573-.0107421879 .2689972-.0107421879 .30299378 .0062561037 .33099366 .03425598 .31799317-.017745972 .30599977-.06674194 .2659912-.11973572 .23999024-.15385437 .20199585-.18309021 .1559906-.18309021 .14199829-.18309021 .09700012-.18005371 .07998657-.14074707 .09599304-.14074707 .10899353-.14074707 .12298584-.1287384 .1329956-.11973572 .14299011-.10673523 .14299011-.08773804 .14299011-.056747438 .115997318-.052734376 .10598755-.052734376 .08299255-.052734376 .049987794-.068740848 .049987794-.11773682 .049987794-.16796875 .09399414-.20507813 .1559906-.20507813 .25898744-.20507813 .3619995-.11373901 .3899994-.00074768069L.48599244 .38136292Z"/>
</defs>
<path transform="matrix(1,0,0,-1.00005,1.4610005,208.08339)" d="M0 .04764H239.11191V206.27768H0Z" fill="#fffac2"/>
<path transform="matrix(1,0,0,-1.00005,1.4610005,208.08339)" stroke-width=".3985" stroke-linecap="butt" stroke-miterlimit="10" stroke-linejoin="miter" fill="none" stroke="#d5d6d5" d="M0 .04764V206.27768M17.07942 .04764V206.27768M34.15884 .04764V206.27768M51.23827 .04764V206.27768M68.31769 .04764V206.27768M85.39711 .04764V206.27768M102.47653 .04764V206.27768M119.55595 .04764V206.27768M136.63538 .04764V206.27768M153.7148 .04764V206.27768M170.79422 .04764V206.27768M187.87364 .04764V206.27768M204.95307 .04764V206.27768M222.03249 .04764V206.27768M239.11191 .04764V206.27768"/>
<path transform="matrix(1,0,0,-1.00005,1.4610005,208.08339)" stroke-width=".3985" stroke-linecap="butt" stroke-miterlimit="10" stroke-linejoin="miter" fill="none" stroke="#d5d6d5" d="M17.07942 .04764V206.27768M51.23827 .04764V206.27768M85.39711 .04764V206.27768M153.7148 .04764V206.27768M187.87364 .04764V206.27768M222.03249 .04764V206.27768"/>
<path transform="matrix(1,0,0,-1.00005,1.4610005,208.08339)" stroke-width=".3985" stroke-linecap="butt" stroke-miterlimit="10" stroke-linejoin="miter" fill="none" stroke="#d5d6d5" d="M0 .04764H239.11191M0 14.77835H239.11191M0 29.50906H239.11191M0 44.23979H239.11191M0 58.9705H239.11191M0 73.70122H239.11191M0 88.43193H239.11191M0 103.16266H239.11191M0 117.89337H239.11191M0 132.62409H239.11191M0 147.35482H239.11191M0 162.08553H239.11191M0 176.81624H239.11191M0 191.54695H239.11191M0 206.27768H239.11191"/>
<path transform="matrix(1,0,0,-1.00005,1.4610005,208.08339)" stroke-width=".3985" stroke-linecap="butt" stroke-miterlimit="10" stroke-linejoin="miter" fill="none" stroke="#d5d6d5" d="M0 14.77835H239.11191M0 44.23979H239.11191M0 73.70122H239.11191M0 132.62409H239.11191M0 162.08553H239.11191M0 191.54695H239.11191"/>
<path transform="matrix(1,0,0,-1.00005,1.4610005,208.08339)" stroke-width=".19925" stroke-linecap="butt" stroke-miterlimit="10" stroke-linejoin="miter" fill="none" stroke="#929292" d="M0 101.74527V104.58006M17.07942 101.74527V104.58006M34.15884 101.74527V104.58006M51.23827 101.74527V104.58006M68.31769 101.74527V104.58006M85.39711 101.74527V104.58006M102.47653 101.74527V104.58006M119.55595 101.74527V104.58006M136.63538 101.74527V104.58006M153.7148 101.74527V104.58006M170.79422 101.74527V104.58006M187.87364 101.74527V104.58006M204.95307 101.74527V104.58006M222.03249 101.74527V104.58006M239.11191 101.74527V104.58006"/>
<path transform="matrix(1,0,0,-1.00005,1.4610005,208.08339)" stroke-width=".19925" stroke-linecap="butt" stroke-miterlimit="10" stroke-linejoin="miter" fill="none" stroke="#929292" d="M17.07942 101.03677V105.28853M51.23827 101.03677V105.28853M85.39711 101.03677V105.28853M153.7148 101.03677V105.28853M187.87364 101.03677V105.28853M222.03249 101.03677V105.28853"/>
<path transform="matrix(1,0,0,-1.00005,1.4610005,208.08339)" stroke-width=".19925" stroke-linecap="butt" stroke-miterlimit="10" stroke-linejoin="miter" fill="none" stroke="#929292" d="M118.13852 .04764H120.97339M118.13852 14.77835H120.97339M118.13852 29.50906H120.97339M118.13852 44.23979H120.97339M118.13852 58.9705H120.97339M118.13852 73.70122H120.97339M118.13852 88.43193H120.97339M118.13852 103.16266H120.97339M118.13852 117.89337H120.97339M118.13852 132.62409H120.97339M118.13852 147.35482H120.97339M118.13852 162.08553H120.97339M118.13852 176.81624H120.97339M118.13852 191.54695H120.97339M118.13852 206.27768H120.97339"/>
<path transform="matrix(1,0,0,-1.00005,1.4610005,208.08339)" stroke-width=".19925" stroke-linecap="butt" stroke-miterlimit="10" stroke-linejoin="miter" fill="none" stroke="#929292" d="M117.43001 14.77835H121.68187M117.43001 44.23979H121.68187M117.43001 73.70122H121.68187M117.43001 132.62409H121.68187M117.43001 162.08553H121.68187M117.43001 191.54695H121.68187"/>
<path transform="matrix(1,0,0,-1.00005,1.4610005,208.08339)" stroke-width=".3985" stroke-linecap="butt" stroke-miterlimit="10" stroke-linejoin="miter" fill="none" stroke="#000000" d="M1.99252 103.16266H237.11939"/>
<path transform="matrix(-1,-0,0,1.00005,3.4535204,104.91558)" d="M1.99252 0-1.19551 1.59401 0 0-1.19551-1.59401"/>
<path transform="matrix(1,0,0,-1.00005,238.58039,104.91558)" d="M1.99252 0-1.19551 1.59401 0 0-1.19551-1.59401"/>
<path transform="matrix(1,0,0,-1.00005,1.4610005,208.08339)" stroke-width=".3985" stroke-linecap="butt" stroke-miterlimit="10" stroke-linejoin="miter" fill="none" stroke="#000000" d="M119.55595 2.04016V204.28516"/>
<path transform="matrix(0,1.00005,1,0,121.016948,206.04312)" d="M1.99252 0-1.19551 1.59401 0 0-1.19551-1.59401"/>
<path transform="matrix(0,-1.00005,-1,-0,121.016948,3.788025)" d="M1.99252 0-1.19551 1.59401 0 0-1.19551-1.59401"/>
<use data-text="&#x2212;" xlink:href="#font_1_1" transform="matrix(7.9701,0,0,-7.970498,13.13,115.69778)"/>
<use data-text="6" xlink:href="#font_2_3" transform="matrix(7.9701,0,0,-7.970498,19.717,115.69778)"/>
<use data-text="&#x2212;" xlink:href="#font_1_1" transform="matrix(7.9701,0,0,-7.970498,47.289,115.69778)"/>
<use data-text="4" xlink:href="#font_2_2" transform="matrix(7.9701,0,0,-7.970498,53.876,115.69778)"/>
<use data-text="&#x2212;" xlink:href="#font_1_1" transform="matrix(7.9701,0,0,-7.970498,81.448,115.69778)"/>
<use data-text="2" xlink:href="#font_2_1" transform="matrix(7.9701,0,0,-7.970498,88.035,115.69778)"/>
<use data-text="2" xlink:href="#font_2_1" transform="matrix(7.9701,0,0,-7.970498,153.059,115.69778)"/>
<use data-text="4" xlink:href="#font_2_2" transform="matrix(7.9701,0,0,-7.970498,187.218,115.69778)"/>
<use data-text="6" xlink:href="#font_2_3" transform="matrix(7.9701,0,0,-7.970498,221.37599,115.69778)"/>
<use data-text="&#x2212;" xlink:href="#font_1_1" transform="matrix(7.9701,0,0,-7.970498,106.44101,195.45777)"/>
<use data-text="6" xlink:href="#font_2_3" transform="matrix(7.9701,0,0,-7.970498,113.02801,195.45777)"/>
<use data-text="&#x2212;" xlink:href="#font_1_1" transform="matrix(7.9701,0,0,-7.970498,106.44101,165.9943)"/>
<use data-text="4" xlink:href="#font_2_2" transform="matrix(7.9701,0,0,-7.970498,113.02801,165.9943)"/>
<use data-text="&#x2212;" xlink:href="#font_1_1" transform="matrix(7.9701,0,0,-7.970498,106.44101,136.53183)"/>
<use data-text="2" xlink:href="#font_2_1" transform="matrix(7.9701,0,0,-7.970498,113.02801,136.53183)"/>
<use data-text="2" xlink:href="#font_2_1" transform="matrix(7.9701,0,0,-7.970498,113.028,78.02089)"/>
<use data-text="4" xlink:href="#font_2_2" transform="matrix(7.9701,0,0,-7.970498,113.028,48.558427)"/>
<use data-text="6" xlink:href="#font_2_3" transform="matrix(7.9701,0,0,-7.970498,113.028,19.09494)"/>
<g clip-path="url(#clip_3)">
<path transform="matrix(1,0,0,-1.00005,1.4610005,208.08339)" stroke-width=".99628" stroke-linecap="butt" stroke-miterlimit="10" stroke-linejoin="miter" fill="none" stroke="#9e0c0f" d="M93.49309 8.14778 97.25874 30.59421 102.3911 58.52806 107.52344 83.80153 112.65579 106.41466 117.78813 126.36746 122.92049 143.65987 128.05284 158.29195 133.18518 170.26367 138.31754 179.57503 143.44988 186.22603 148.58223 190.21666 153.71457 191.54695 158.84693 190.21689 163.97928 186.22647 169.11162 179.57569 174.24398 170.26453 179.37631 158.2931 184.50867 143.6613 189.64102 126.36906 194.77336 106.41643 199.90572 83.80359 205.03806 58.53014 210.17041 30.59648 213.93605 8.15042"/>
<path transform="matrix(-.16542,.98622927,.98618,.16542825,95.07062,199.24042)" d="M7.39124 0 2.37614 1.6717 .70447 0 2.37614-1.6717Z" fill="#9e0c0f"/>
<path transform="matrix(-.16542,.98622927,.98618,.16542825,95.07062,199.24042)" stroke-width=".99628" stroke-linecap="butt" stroke-miterlimit="10" stroke-linejoin="miter" fill="none" stroke="#9e0c0f" d="M7.39124 0 2.37614 1.6717 .70447 0 2.37614-1.6717Z"/>
<path transform="matrix(.16542,.98622927,.98618,-.16542825,215.28052,199.23778)" d="M7.39124 0 2.37614 1.6717 .70447 0 2.37614-1.6717Z" fill="#9e0c0f"/>
<path transform="matrix(.16542,.98622927,.98618,-.16542825,215.28052,199.23778)" stroke-width=".99628" stroke-linecap="butt" stroke-miterlimit="10" stroke-linejoin="miter" fill="none" stroke="#9e0c0f" d="M7.39124 0 2.37614 1.6717 .70447 0 2.37614-1.6717Z"/>
</g>
<path transform="matrix(1,0,0,-1.00005,1.4610005,208.08339)" d="M104.46909 58.9705C104.46909 60.07097 103.577 60.96306 102.47653 60.96306 101.37605 60.96306 100.48398 60.07097 100.48398 58.9705 100.48398 57.87003 101.37605 56.97795 102.47653 56.97795 103.577 56.97795 104.46909 57.87003 104.46909 58.9705ZM102.47653 58.9705" fill="#9e0c0f"/>
<path transform="matrix(1,0,0,-1.00005,1.4610005,208.08339)" stroke-width=".3985" stroke-linecap="butt" stroke-miterlimit="10" stroke-linejoin="miter" fill="none" stroke="#9e0c0f" d="M104.46909 58.9705C104.46909 60.07097 103.577 60.96306 102.47653 60.96306 101.37605 60.96306 100.48398 60.07097 100.48398 58.9705 100.48398 57.87003 101.37605 56.97795 102.47653 56.97795 103.577 56.97795 104.46909 57.87003 104.46909 58.9705ZM102.47653 58.9705"/>
<path transform="matrix(1,0,0,-1.00005,1.4610005,208.08339)" d="M121.54851 132.62409C121.54851 133.72457 120.65642 134.61664 119.55595 134.61664 118.45547 134.61664 117.5634 133.72457 117.5634 132.62409 117.5634 131.52362 118.45547 130.63153 119.55595 130.63153 120.65642 130.63153 121.54851 131.52362 121.54851 132.62409ZM119.55595 132.62409" fill="#9e0c0f"/>
<path transform="matrix(1,0,0,-1.00005,1.4610005,208.08339)" stroke-width=".3985" stroke-linecap="butt" stroke-miterlimit="10" stroke-linejoin="miter" fill="none" stroke="#9e0c0f" d="M121.54851 132.62409C121.54851 133.72457 120.65642 134.61664 119.55595 134.61664 118.45547 134.61664 117.5634 133.72457 117.5634 132.62409 117.5634 131.52362 118.45547 130.63153 119.55595 130.63153 120.65642 130.63153 121.54851 131.52362 121.54851 132.62409ZM119.55595 132.62409"/>
<path transform="matrix(1,0,0,-1.00005,1.4610005,208.08339)" d="M138.62793 176.81624C138.62793 177.91672 137.73584 178.80879 136.63538 178.80879 135.5349 178.80879 134.64282 177.91672 134.64282 176.81624 134.64282 175.71578 135.5349 174.82369 136.63538 174.82369 137.73584 174.82369 138.62793 175.71578 138.62793 176.81624ZM136.63538 176.81624" fill="#9e0c0f"/>
<path transform="matrix(1,0,0,-1.00005,1.4610005,208.08339)" stroke-width=".3985" stroke-linecap="butt" stroke-miterlimit="10" stroke-linejoin="miter" fill="none" stroke="#9e0c0f" d="M138.62793 176.81624C138.62793 177.91672 137.73584 178.80879 136.63538 178.80879 135.5349 178.80879 134.64282 177.91672 134.64282 176.81624 134.64282 175.71578 135.5349 174.82369 136.63538 174.82369 137.73584 174.82369 138.62793 175.71578 138.62793 176.81624ZM136.63538 176.81624"/>
<path transform="matrix(1,0,0,-1.00005,1.4610005,208.08339)" d="M155.70735 191.54695C155.70735 192.64743 154.81526 193.5395 153.7148 193.5395 152.61432 193.5395 151.72225 192.64743 151.72225 191.54695 151.72225 190.44649 152.61432 189.5544 153.7148 189.5544 154.81526 189.5544 155.70735 190.44649 155.70735 191.54695ZM153.7148 191.54695" fill="#9e0c0f"/>
<path transform="matrix(1,0,0,-1.00005,1.4610005,208.08339)" stroke-width=".3985" stroke-linecap="butt" stroke-miterlimit="10" stroke-linejoin="miter" fill="none" stroke="#9e0c0f" d="M155.70735 191.54695C155.70735 192.64743 154.81526 193.5395 153.7148 193.5395 152.61432 193.5395 151.72225 192.64743 151.72225 191.54695 151.72225 190.44649 152.61432 189.5544 153.7148 189.5544 154.81526 189.5544 155.70735 190.44649 155.70735 191.54695ZM153.7148 191.54695"/>
<path transform="matrix(1,0,0,-1.00005,1.4610005,208.08339)" d="M172.78678 176.81624C172.78678 177.91672 171.89469 178.80879 170.79422 178.80879 169.69374 178.80879 168.80167 177.91672 168.80167 176.81624 168.80167 175.71578 169.69374 174.82369 170.79422 174.82369 171.89469 174.82369 172.78678 175.71578 172.78678 176.81624ZM170.79422 176.81624" fill="#9e0c0f"/>
<path transform="matrix(1,0,0,-1.00005,1.4610005,208.08339)" stroke-width=".3985" stroke-linecap="butt" stroke-miterlimit="10" stroke-linejoin="miter" fill="none" stroke="#9e0c0f" d="M172.78678 176.81624C172.78678 177.91672 171.89469 178.80879 170.79422 178.80879 169.69374 178.80879 168.80167 177.91672 168.80167 176.81624 168.80167 175.71578 169.69374 174.82369 170.79422 174.82369 171.89469 174.82369 172.78678 175.71578 172.78678 176.81624ZM170.79422 176.81624"/>
<path transform="matrix(1,0,0,-1.00005,1.4610005,208.08339)" d="M189.8662 132.62409C189.8662 133.72457 188.9741 134.61664 187.87364 134.61664 186.77318 134.61664 185.88109 133.72457 185.88109 132.62409 185.88109 131.52362 186.77318 130.63153 187.87364 130.63153 188.9741 130.63153 189.8662 131.52362 189.8662 132.62409ZM187.87364 132.62409" fill="#9e0c0f"/>
<path transform="matrix(1,0,0,-1.00005,1.4610005,208.08339)" stroke-width=".3985" stroke-linecap="butt" stroke-miterlimit="10" stroke-linejoin="miter" fill="none" stroke="#9e0c0f" d="M189.8662 132.62409C189.8662 133.72457 188.9741 134.61664 187.87364 134.61664 186.77318 134.61664 185.88109 133.72457 185.88109 132.62409 185.88109 131.52362 186.77318 130.63153 187.87364 130.63153 188.9741 130.63153 189.8662 131.52362 189.8662 132.62409ZM187.87364 132.62409"/>
<path transform="matrix(1,0,0,-1.00005,1.4610005,208.08339)" d="M206.94562 58.9705C206.94562 60.07097 206.05355 60.96306 204.95307 60.96306 203.8526 60.96306 202.96051 60.07097 202.96051 58.9705 202.96051 57.87003 203.8526 56.97795 204.95307 56.97795 206.05355 56.97795 206.94562 57.87003 206.94562 58.9705ZM204.95307 58.9705" fill="#9e0c0f"/>
<path transform="matrix(1,0,0,-1.00005,1.4610005,208.08339)" stroke-width=".3985" stroke-linecap="butt" stroke-miterlimit="10" stroke-linejoin="miter" fill="none" stroke="#9e0c0f" d="M206.94562 58.9705C206.94562 60.07097 206.05355 60.96306 204.95307 60.96306 203.8526 60.96306 202.96051 60.07097 202.96051 58.9705 202.96051 57.87003 203.8526 56.97795 204.95307 56.97795 206.05355 56.97795 206.94562 57.87003 206.94562 58.9705ZM204.95307 58.9705"/>
<path transform="matrix(1,0,0,-1.00005,1.4610005,208.08339)" stroke-width=".3985" stroke-linecap="butt" stroke-miterlimit="10" stroke-linejoin="miter" fill="none" stroke="#9e0c0f" d=""/>
<use data-text="x" xlink:href="#font_4_1" transform="matrix(9.9626,0,0,-9.963098,231.359,101.396068)"/>
<use data-text="y" xlink:href="#font_4_2" transform="matrix(9.9626,0,0,-9.963098,124.537,9.605469)"/>
</svg>
