<svg xmlns="http://www.w3.org/2000/svg" xmlns:xlink="http://www.w3.org/1999/xlink" version="1.1" width="242" height="213" viewBox="0 0 242 213">
<defs>
<path id="font_1_1" d="M.69898989 .22743225C.71499636 .22743225 .7369995 .22743225 .7369995 .25042726 .7369995 .2734375 .71499636 .2734375 .69898989 .2734375H.12599182C.10998535 .2734375 .08799744 .2734375 .08799744 .25042726 .08799744 .22743225 .10998535 .22743225 .12599182 .22743225H.69898989Z"/>
<path id="font_2_5" d="M.13999939 .5618439C.15299988 .55784609 .19299317 .54785159 .23498535 .54785159 .3600006 .54785159 .43598939 .6358948 .43598939 .6510315 .43598939 .6620331 .42900086 .66503909 .42399598 .66503909 .42199708 .66503909 .41999818 .66503909 .41099549 .6600342 .37199403 .6450348 .32598878 .632843 .27198792 .632843 .21299744 .632843 .1639862 .6480255 .1329956 .6600342 .12298584 .66503909 .12098694 .66503909 .11999512 .66503909 .10699463 .66503909 .10699463 .6540375 .10699463 .6358948V.34292604C.10699463 .32492066 .10699463 .312912 .12298584 .312912 .1309967 .312912 .13398743 .3169098 .13899231 .32492066 .15098572 .33992005 .18899536 .39093019 .27398683 .39093019 .32998658 .39093019 .35699464 .34492494 .3659973 .32591249 .3829956 .28990174 .3849945 .24389649 .3849945 .20487976 .3849945 .1678772 .38398744 .11387634 .35598756 .069732669 .33699037 .039611818 .29699708 .008514404 .24398804 .008514404 .1789856 .008514404 .114990238 .0496521 .09199524 .11488342 .09498596 .11387634 .100997928 .11387634 .101989749 .11387634 .12998963 .11387634 .1519928 .13188172 .1519928 .16288758 .1519928 .19989014 .12298584 .21289063 .102996829 .21289063 .084991458 .21289063 .052993776 .20288086 .052993776 .15988159 .052993776 .069732669 .1309967-.021484375 .24598694-.021484375 .37098695-.021484375 .47698976 .07574463 .47698976 .19989014 .47698976 .31591798 .3929901 .4189453 .2749939 .4189453 .22499085 .4189453 .17799378 .40293885 .13999939 .368927V.5618439Z"/>
<path id="font_2_4" d="M.25299073 .33370973C.33198548 .33370973 .38198854 .27557374 .38198854 .17037964 .38198854 .045440675 .31098939 .008514404 .2579956 .008514404 .20298767 .008514404 .12799073 .0284729 .09298706 .08137512 .1289978 .08137512 .1539917 .10437012 .1539917 .13737488 .1539917 .16937256 .1309967 .19238281 .09899902 .19238281 .07199097 .19238281 .04399109 .17536927 .04399109 .13537598 .04399109 .04045105 .1459961-.021484375 .2599945-.021484375 .3929901-.021484375 .48599244 .070388797 .48599244 .17037964 .48599244 .25352479 .41999818 .32969667 .31799317 .3517456 .39698792 .37982179 .45599366 .4479828 .45599366 .52804568 .45599366 .6080475 .3659973 .66503909 .2619934 .66503909 .15499878 .66503909 .07398987 .6070404 .07398987 .53105166 .07398987 .49404908 .09899902 .4780426 .125 .4780426 .1559906 .4780426 .17599488 .5000458 .17599488 .52905276 .17599488 .56604006 .14399719 .5800476 .12199402 .5810547 .1639862 .6360321 .24099732 .6390381 .25898744 .6390381 .2849884 .6390381 .36099244 .6310272 .36099244 .52804568 .36099244 .45799256 .33198548 .41589356 .31799317 .39985658 .28799439 .36878968 .2649994 .36679078 .20399475 .3627777 .18499756 .36177064 .1769867 .36076356 .1769867 .3477478 .1769867 .33370973 .18598938 .33370973 .20298767 .33370973H.25299073Z"/>
<path id="font_2_3" d="M.28199769 .20405579C.2979889 .21907044 .33999635 .2520752 .35598756 .26608277 .41799928 .32312013 .47698976 .3781433 .47698976 .46917726 .47698976 .588089 .3769989 .66503909 .2519989 .66503909 .13198853 .66503909 .052993776 .57411196 .052993776 .48516847 .052993776 .4361725 .09199524 .4291687 .10598755 .4291687 .1269989 .4291687 .1579895 .4441681 .1579895 .48217774 .1579895 .5341797 .10798645 .5341797 .09599304 .5341797 .125 .6070709 .19198609 .6320343 .24099732 .6320343 .33399964 .6320343 .38198854 .55314639 .38198854 .46917726 .38198854 .36514283 .30899049 .28910829 .19099427 .16804505L.06498718 .037994386C.052993776 .026992798 .052993776 .024993897 .052993776 0H.44799806L.47698976 .17904663H.44599916C.44299317 .1590271 .43499757 .10900879 .4229889 .08999634 .4169922 .08198547 .34098817 .08198547 .32499696 .08198547H.14698792L.28199769 .20405579Z"/>
<path id="font_2_1" d="M.4889984 .31877137C.4889984 .42585755 .47799684 .49090577 .44499208 .55496218 .40098573 .6430359 .31999208 .66503909 .2649994 .66503909 .13899231 .66503909 .09298706 .5709839 .07899475 .5429535 .042999269 .4698944 .040985109 .3708191 .040985109 .31877137 .040985109 .25271607 .04399109 .15162659 .09199524 .07156372 .13798523-.0024871827 .21199036-.021484375 .2649994-.021484375 .31298829-.021484375 .39898683-.0064849855 .44898988 .09257507 .48599244 .16464234 .4889984 .2537079 .4889984 .31877137M.2649994 .006515503C.23098755 .006515503 .1619873 .022521973 .14099121 .12760926 .12998963 .18466187 .12998963 .2787323 .12998963 .33078004 .12998963 .3998413 .12998963 .4698944 .14099121 .5249481 .1619873 .6270294 .23999024 .6370239 .2649994 .6370239 .29899598 .6370239 .36799623 .62002566 .3880005 .5289459 .3999939 .4738922 .3999939 .39883424 .3999939 .33078004 .3999939 .27172853 .3999939 .18165589 .3880005 .12561035 .36698915 .020523072 .2979889 .006515503 .2649994 .006515503Z"/>
<path id="font_2_2" d="M.31399537 .63708499C.31399537 .664032 .31199647 .66503909 .2849884 .66503909 .24398804 .6251831 .19099427 .6013489 .09599304 .6013489V.5683594C.12298584 .5683594 .1769867 .5683594 .23498535 .5953522V.08203125C.23498535 .04499817 .23199463 .032989503 .13699341 .032989503H.101989749V0C.14299011 .0029907227 .22898865 .0029907227 .27398683 .0029907227 .31900025 .0029907227 .4059906 .0029907227 .44699098 0V.032989503H.4119873C.31698609 .032989503 .31399537 .04499817 .31399537 .08203125V.63708499Z"/>
<clipPath id="clip_3">
<path transform="matrix(1.00003,0,0,-1,1.4615555,210.81801)" d="M0 0H239.10584V206.22243H0Z"/>
</clipPath>
<path id="font_4_1" d="M.33399964 .30233766C.33999635 .32835389 .36299134 .42037965 .43299867 .42037965 .43798829 .42037965 .46199037 .42037965 .48298646 .40734864 .45498658 .402359 .43499757 .37734986 .43499757 .35334779 .43499757 .33735658 .44599916 .31835938 .47299195 .31835938 .49499513 .31835938 .5269928 .3363495 .5269928 .37635804 .5269928 .42837525 .46798707 .4423828 .43399049 .4423828 .37599183 .4423828 .34098817 .38935853 .32899476 .36634828 .3039856 .43237306 .25 .4423828 .22099304 .4423828 .116989139 .4423828 .05999756 .3133545 .05999756 .28834535 .05999756 .27833558 .069992069 .27833558 .07199097 .27833558 .07998657 .27833558 .08299255 .28033448 .084991458 .28933717 .11898804 .39535523 .18499756 .42037965 .21899414 .42037965 .23799134 .42037965 .272995 .4113617 .272995 .35334779 .272995 .32235719 .2559967 .25532533 .21899414 .11528015 .20298767 .053268434 .16799927 .011245728 .12399292 .011245728 .117996219 .011245728 .09498596 .011245728 .07398987 .024276734 .09899902 .029266358 .12098694 .05027771 .12098694 .07827759 .12098694 .105270389 .09899902 .11328125 .083999637 .11328125 .053985597 .11328125 .0289917 .08728027 .0289917 .055267335 .0289917 .009246826 .07899475-.0107421879 .12298584-.0107421879 .18899536-.0107421879 .22499085 .059280397 .22799683 .0652771 .23999024 .028274537 .27598573-.0107421879 .33599855-.0107421879 .43899537-.0107421879 .49598695 .118270877 .49598695 .14328003 .49598695 .1532898 .4869995 .1532898 .48399354 .1532898 .47499085 .1532898 .47299195 .14929199 .47099305 .14228821 .43798829 .03527832 .36999513 .011245728 .33799745 .011245728 .29899598 .011245728 .2829895 .043273927 .2829895 .07727051 .2829895 .09927368 .2889862 .121276859 .2999878 .16529846L.33399964 .30233766Z"/>
<path id="font_4_2" d="M.48599244 .38136292C.48999024 .39537049 .48999024 .39736939 .48999024 .40437318 .48999024 .42237855 .47599793 .43138124 .46099855 .43138124 .45098878 .43138124 .43499757 .42536927 .42599488 .41036988 .42399598 .405365 .41600038 .37435914 .4119873 .35635377 .40499879 .33035279 .397995 .30334474 .3919983 .27633668L.34700013 .09628296C.34298707 .08126831 .2999878 .011245728 .23399353 .011245728 .18299866 .011245728 .17199707 .055267335 .17199707 .0922699 .17199707 .1382904 .18899536 .20030213 .22299195 .28833009 .23899842 .3293457 .24299622 .3403473 .24299622 .36035157 .24299622 .405365 .21099854 .4423828 .16099549 .4423828 .06599426 .4423828 .0289917 .29733277 .0289917 .28833009 .0289917 .27833558 .038986207 .27833558 .040985109 .27833558 .050994874 .27833558 .051986696 .28033448 .056991579 .29634095 .083999637 .3903656 .12399292 .42037965 .1579895 .42037965 .1659851 .42037965 .18299866 .42037965 .18299866 .3883667 .18299866 .36335755 .17298889 .3373413 .1659851 .31834413 .12599182 .21231079 .10798645 .1552887 .10798645 .10827637 .10798645 .019256592 .17098999-.0107421879 .22999573-.0107421879 .2689972-.0107421879 .30299378 .0062561037 .33099366 .03425598 .31799317-.017745972 .30599977-.06674194 .2659912-.11973572 .23999024-.15385437 .20199585-.18309021 .1559906-.18309021 .14199829-.18309021 .09700012-.18005371 .07998657-.14074707 .09599304-.14074707 .10899353-.14074707 .12298584-.1287384 .1329956-.11973572 .14299011-.10673523 .14299011-.08773804 .14299011-.056747438 .115997318-.052734376 .10598755-.052734376 .08299255-.052734376 .049987794-.068740848 .049987794-.11773682 .049987794-.16796875 .09399414-.20507813 .1559906-.20507813 .25898744-.20507813 .3619995-.11373901 .3899994-.00074768069L.48599244 .38136292Z"/>
</defs>
<path transform="matrix(1.00003,0,0,-1,1.4615555,210.81801)" d="M0 0H239.10584V206.22243H0Z" fill="#fffac2"/>
<path transform="matrix(1.00003,0,0,-1,1.4615555,210.81801)" stroke-width=".3985" stroke-linecap="butt" stroke-miterlimit="10" stroke-linejoin="miter" fill="none" stroke="#d5d6d5" d="M0 0V206.22243M11.95529 0V206.22243M23.91058 0V206.22243M35.86588 0V206.22243M47.82117 0V206.22243M59.77646 0V206.22243M71.73175 0V206.22243M83.68704 0V206.22243M95.64233 0V206.22243M107.59763 0V206.22243M119.55292 0V206.22243M131.50821 0V206.22243M143.4635 0V206.22243M155.4188 0V206.22243M167.37409 0V206.22243M179.32938 0V206.22243M191.28467 0V206.22243M203.23996 0V206.22243M215.19525 0V206.22243M227.15055 0V206.22243M239.10584 0V206.22243"/>
<path transform="matrix(1.00003,0,0,-1,1.4615555,210.81801)" stroke-width=".3985" stroke-linecap="butt" stroke-miterlimit="10" stroke-linejoin="miter" fill="none" stroke="#d5d6d5" d="M59.77646 0V206.22243M179.32938 0V206.22243"/>
<path transform="matrix(1.00003,0,0,-1,1.4615555,210.81801)" stroke-width=".3985" stroke-linecap="butt" stroke-miterlimit="10" stroke-linejoin="miter" fill="none" stroke="#d5d6d5" d="M0 0H239.10584M0 4.12444H239.10584M0 8.24889H239.10584M0 12.37334H239.10584M0 16.49779H239.10584M0 20.62224H239.10584M0 24.74669H239.10584M0 28.87114H239.10584M0 32.99557H239.10584M0 37.12003H239.10584M0 41.24448H239.10584M0 45.36893H239.10584M0 49.49338H239.10584M0 53.61783H239.10584M0 57.74228H239.10584M0 61.86673H239.10584M0 65.99117H239.10584M0 70.11562H239.10584M0 74.24007H239.10584M0 78.36452H239.10584M0 82.48897H239.10584M0 86.61342H239.10584M0 90.73787H239.10584M0 94.86232H239.10584M0 98.98676H239.10584M0 103.1112H239.10584M0 107.23566H239.10584M0 111.3601H239.10584M0 115.48456H239.10584M0 119.60901H239.10584M0 123.73346H239.10584M0 127.85791H239.10584M0 131.98235H239.10584M0 136.1068H239.10584M0 140.23125H239.10584M0 144.3557H239.10584M0 148.48015H239.10584M0 152.6046H239.10584M0 156.72905H239.10584M0 160.8535H239.10584M0 164.97794H239.10584M0 169.10239H239.10584M0 173.22684H239.10584M0 177.35129H239.10584M0 181.47574H239.10584M0 185.60019H239.10584M0 189.72464H239.10584M0 193.84909H239.10584M0 197.97353H239.10584M0 202.09798H239.10584M0 206.22243H239.10584"/>
<path transform="matrix(1.00003,0,0,-1,1.4615555,210.81801)" stroke-width=".3985" stroke-linecap="butt" stroke-miterlimit="10" stroke-linejoin="miter" fill="none" stroke="#d5d6d5" d="M0 20.62224H239.10584M0 82.48897H239.10584M0 144.3557H239.10584M0 206.22243H239.10584"/>
<path transform="matrix(1.00003,0,0,-1,1.4615555,210.81801)" stroke-width=".19925" stroke-linecap="butt" stroke-miterlimit="10" stroke-linejoin="miter" fill="none" stroke="#929292" d="M0 163.56055V166.39533M11.95529 163.56055V166.39533M23.91058 163.56055V166.39533M35.86588 163.56055V166.39533M47.82117 163.56055V166.39533M59.77646 163.56055V166.39533M71.73175 163.56055V166.39533M83.68704 163.56055V166.39533M95.64233 163.56055V166.39533M107.59763 163.56055V166.39533M119.55292 163.56055V166.39533M131.50821 163.56055V166.39533M143.4635 163.56055V166.39533M155.4188 163.56055V166.39533M167.37409 163.56055V166.39533M179.32938 163.56055V166.39533M191.28467 163.56055V166.39533M203.23996 163.56055V166.39533M215.19525 163.56055V166.39533M227.15055 163.56055V166.39533M239.10584 163.56055V166.39533"/>
<path transform="matrix(1.00003,0,0,-1,1.4615555,210.81801)" stroke-width=".19925" stroke-linecap="butt" stroke-miterlimit="10" stroke-linejoin="miter" fill="none" stroke="#929292" d="M59.77646 162.85205V167.10382M179.32938 162.85205V167.10382"/>
<path transform="matrix(1.00003,0,0,-1,1.4615555,210.81801)" stroke-width=".19925" stroke-linecap="butt" stroke-miterlimit="10" stroke-linejoin="miter" fill="none" stroke="#929292" d="M118.13557 0H120.97025M118.13557 4.12444H120.97025M118.13557 8.24889H120.97025M118.13557 12.37334H120.97025M118.13557 16.49779H120.97025M118.13557 20.62224H120.97025M118.13557 24.74669H120.97025M118.13557 28.87114H120.97025M118.13557 32.99557H120.97025M118.13557 37.12003H120.97025M118.13557 41.24448H120.97025M118.13557 45.36893H120.97025M118.13557 49.49338H120.97025M118.13557 53.61783H120.97025M118.13557 57.74228H120.97025M118.13557 61.86673H120.97025M118.13557 65.99117H120.97025M118.13557 70.11562H120.97025M118.13557 74.24007H120.97025M118.13557 78.36452H120.97025M118.13557 82.48897H120.97025M118.13557 86.61342H120.97025M118.13557 90.73787H120.97025M118.13557 94.86232H120.97025M118.13557 98.98676H120.97025M118.13557 103.1112H120.97025M118.13557 107.23566H120.97025M118.13557 111.3601H120.97025M118.13557 115.48456H120.97025M118.13557 119.60901H120.97025M118.13557 123.73346H120.97025M118.13557 127.85791H120.97025M118.13557 131.98235H120.97025M118.13557 136.1068H120.97025M118.13557 140.23125H120.97025M118.13557 144.3557H120.97025M118.13557 148.48015H120.97025M118.13557 152.6046H120.97025M118.13557 156.72905H120.97025M118.13557 160.8535H120.97025M118.13557 164.97794H120.97025M118.13557 169.10239H120.97025M118.13557 173.22684H120.97025M118.13557 177.35129H120.97025M118.13557 181.47574H120.97025M118.13557 185.60019H120.97025M118.13557 189.72464H120.97025M118.13557 193.84909H120.97025M118.13557 197.97353H120.97025M118.13557 202.09798H120.97025M118.13557 206.22243H120.97025"/>
<path transform="matrix(1.00003,0,0,-1,1.4615555,210.81801)" stroke-width=".19925" stroke-linecap="butt" stroke-miterlimit="10" stroke-linejoin="miter" fill="none" stroke="#929292" d="M117.42708 20.62224H121.67873M117.42708 82.48897H121.67873M117.42708 144.3557H121.67873M117.42708 206.22243H121.67873"/>
<path transform="matrix(1.00003,0,0,-1,1.4615555,210.81801)" stroke-width=".3985" stroke-linecap="butt" stroke-miterlimit="10" stroke-linejoin="miter" fill="none" stroke="#000000" d="M1.99252 164.97794H237.11331"/>
<path transform="matrix(-1.00003,-0,0,1,3.4541355,45.840074)" d="M1.99252 0-1.19551 1.59401 0 0-1.19551-1.59401"/>
<path transform="matrix(1.00003,0,0,-1,238.582,45.840074)" d="M1.99252 0-1.19551 1.59401 0 0-1.19551-1.59401"/>
<path transform="matrix(1.00003,0,0,-1,1.4615555,210.81801)" stroke-width=".3985" stroke-linecap="butt" stroke-miterlimit="10" stroke-linejoin="miter" fill="none" stroke="#000000" d="M119.55292 1.99252V204.2299"/>
<path transform="matrix(0,1,1.00003,0,121.01807,208.82549)" d="M1.99252 0-1.19551 1.59401 0 0-1.19551-1.59401"/>
<path transform="matrix(0,-1,-1.00003,-0,121.01807,6.5881044)" d="M1.99252 0-1.19551 1.59401 0 0-1.19551-1.59401"/>
<use data-text="&#x2212;" xlink:href="#font_1_1" transform="matrix(7.9703395,0,0,-7.9701,55.82919,56.62201)"/>
<use data-text="5" xlink:href="#font_2_5" transform="matrix(7.9703395,0,0,-7.9701,62.41639,56.62201)"/>
<use data-text="5" xlink:href="#font_2_5" transform="matrix(7.9703395,0,0,-7.9701,178.6789,56.62201)"/>
<use data-text="&#x2212;" xlink:href="#font_1_1" transform="matrix(7.9703395,0,0,-7.9701,102.20758,192.349)"/>
<use data-text="3" xlink:href="#font_2_4" transform="matrix(7.9703395,0,0,-7.9701,108.79478,192.349)"/>
<use data-text="5" xlink:href="#font_2_5" transform="matrix(7.9703395,0,0,-7.9701,113.02702,192.349)"/>
<use data-text="&#x2212;" xlink:href="#font_1_1" transform="matrix(7.9703395,0,0,-7.9701,102.20758,130.48201)"/>
<use data-text="2" xlink:href="#font_2_3" transform="matrix(7.9703395,0,0,-7.9701,108.79478,130.48201)"/>
<use data-text="0" xlink:href="#font_2_1" transform="matrix(7.9703395,0,0,-7.9701,113.02702,130.48201)"/>
<use data-text="&#x2212;" xlink:href="#font_1_1" transform="matrix(7.9703395,0,0,-7.9701,106.4417,68.615009)"/>
<use data-text="5" xlink:href="#font_2_5" transform="matrix(7.9703395,0,0,-7.9701,113.0289,68.615009)"/>
<use data-text="1" xlink:href="#font_2_2" transform="matrix(7.9703395,0,0,-7.9701,108.793788,7.1640017)"/>
<use data-text="0" xlink:href="#font_2_1" transform="matrix(7.9703395,0,0,-7.9701,113.02604,7.1640017)"/>
<g clip-path="url(#clip_3)">
<path transform="matrix(1.00003,0,0,-1,1.4615555,210.81801)" stroke-width=".99628" stroke-linecap="butt" stroke-miterlimit="10" stroke-linejoin="miter" fill="none" stroke="#9e0c0f" d="M78.06198 198.10308 81.28299 178.58135 85.8489 153.31446 90.4148 130.45406 94.98071 109.99991 99.54662 91.95212 104.11252 76.31068 108.67844 63.07564 113.24435 52.24692 117.81023 43.82454 122.37614 37.80855 126.94205 34.19888 131.50797 32.99557 136.07387 34.19862 140.63976 37.80803 145.20568 43.82378 149.77158 52.2459 154.33748 63.07436 158.9034 76.30913 163.46929 91.95024 168.0352 109.9978 172.60109 130.4517 177.167 153.31198 181.73291 178.57857 184.95392 198.09996"/>
<path transform="matrix(-.16278489,-.98662,-.98664966,.16278,79.64057,13.409988)" d="M7.39124 0 2.37614 1.6717 .70447 0 2.37614-1.6717Z" fill="#9e0c0f"/>
<path transform="matrix(-.16278489,-.98662,-.98664966,.16278,79.64057,13.409988)" stroke-width=".99628" stroke-linecap="butt" stroke-miterlimit="10" stroke-linejoin="miter" fill="none" stroke="#9e0c0f" d="M7.39124 0 2.37614 1.6717 .70447 0 2.37614-1.6717Z"/>
<path transform="matrix(.16278489,-.98662,-.98664966,-.16278,186.30634,13.413086)" d="M7.39124 0 2.37614 1.6717 .70447 0 2.37614-1.6717Z" fill="#9e0c0f"/>
<path transform="matrix(.16278489,-.98662,-.98664966,-.16278,186.30634,13.413086)" stroke-width=".99628" stroke-linecap="butt" stroke-miterlimit="10" stroke-linejoin="miter" fill="none" stroke="#9e0c0f" d="M7.39124 0 2.37614 1.6717 .70447 0 2.37614-1.6717Z"/>
</g>
<path transform="matrix(1.00003,0,0,-1,1.4615555,210.81801)" d="M85.6796 164.97794C85.6796 166.07842 84.7875 166.97049 83.68704 166.97049 82.58656 166.97049 81.69449 166.07842 81.69449 164.97794 81.69449 163.87747 82.58656 162.98538 83.68704 162.98538 84.7875 162.98538 85.6796 163.87747 85.6796 164.97794ZM83.68704 164.97794" fill="#9e0c0f"/>
<path transform="matrix(1.00003,0,0,-1,1.4615555,210.81801)" stroke-width=".3985" stroke-linecap="butt" stroke-miterlimit="10" stroke-linejoin="miter" fill="none" stroke="#9e0c0f" d="M85.6796 164.97794C85.6796 166.07842 84.7875 166.97049 83.68704 166.97049 82.58656 166.97049 81.69449 166.07842 81.69449 164.97794 81.69449 163.87747 82.58656 162.98538 83.68704 162.98538 84.7875 162.98538 85.6796 163.87747 85.6796 164.97794ZM83.68704 164.97794"/>
<path transform="matrix(1.00003,0,0,-1,1.4615555,210.81801)" d="M181.32193 164.97794C181.32193 166.07842 180.42984 166.97049 179.32938 166.97049 178.2289 166.97049 177.33683 166.07842 177.33683 164.97794 177.33683 163.87747 178.2289 162.98538 179.32938 162.98538 180.42984 162.98538 181.32193 163.87747 181.32193 164.97794ZM179.32938 164.97794" fill="#9e0c0f"/>
<path transform="matrix(1.00003,0,0,-1,1.4615555,210.81801)" stroke-width=".3985" stroke-linecap="butt" stroke-miterlimit="10" stroke-linejoin="miter" fill="none" stroke="#9e0c0f" d="M181.32193 164.97794C181.32193 166.07842 180.42984 166.97049 179.32938 166.97049 178.2289 166.97049 177.33683 166.07842 177.33683 164.97794 177.33683 163.87747 178.2289 162.98538 179.32938 162.98538 180.42984 162.98538 181.32193 163.87747 181.32193 164.97794ZM179.32938 164.97794"/>
<path transform="matrix(1.00003,0,0,-1,1.4615555,210.81801)" d="M121.54547 41.24448C121.54547 42.34496 120.65338 43.23703 119.55292 43.23703 118.45244 43.23703 117.56036 42.34496 117.56036 41.24448 117.56036 40.14401 118.45244 39.25192 119.55292 39.25192 120.65338 39.25192 121.54547 40.14401 121.54547 41.24448ZM119.55292 41.24448" fill="#9e0c0f"/>
<path transform="matrix(1.00003,0,0,-1,1.4615555,210.81801)" stroke-width=".3985" stroke-linecap="butt" stroke-miterlimit="10" stroke-linejoin="miter" fill="none" stroke="#9e0c0f" d="M121.54547 41.24448C121.54547 42.34496 120.65338 43.23703 119.55292 43.23703 118.45244 43.23703 117.56036 42.34496 117.56036 41.24448 117.56036 40.14401 118.45244 39.25192 119.55292 39.25192 120.65338 39.25192 121.54547 40.14401 121.54547 41.24448ZM119.55292 41.24448"/>
<path transform="matrix(1.00003,0,0,-1,1.4615555,210.81801)" d="M133.50077 32.99557C133.50077 34.09605 132.60868 34.98813 131.50821 34.98813 130.40773 34.98813 129.51566 34.09605 129.51566 32.99557 129.51566 31.89511 130.40773 31.00302 131.50821 31.00302 132.60868 31.00302 133.50077 31.89511 133.50077 32.99557ZM131.50821 32.99557" fill="#9e0c0f"/>
<path transform="matrix(1.00003,0,0,-1,1.4615555,210.81801)" stroke-width=".3985" stroke-linecap="butt" stroke-miterlimit="10" stroke-linejoin="miter" fill="none" stroke="#9e0c0f" d="M133.50077 32.99557C133.50077 34.09605 132.60868 34.98813 131.50821 34.98813 130.40773 34.98813 129.51566 34.09605 129.51566 32.99557 129.51566 31.89511 130.40773 31.00302 131.50821 31.00302 132.60868 31.00302 133.50077 31.89511 133.50077 32.99557ZM131.50821 32.99557"/>
<path transform="matrix(1.00003,0,0,-1,1.4615555,210.81801)" d="M145.45606 41.24448C145.45606 42.34496 144.56397 43.23703 143.4635 43.23703 142.36302 43.23703 141.47095 42.34496 141.47095 41.24448 141.47095 40.14401 142.36302 39.25192 143.4635 39.25192 144.56397 39.25192 145.45606 40.14401 145.45606 41.24448ZM143.4635 41.24448" fill="#9e0c0f"/>
<path transform="matrix(1.00003,0,0,-1,1.4615555,210.81801)" stroke-width=".3985" stroke-linecap="butt" stroke-miterlimit="10" stroke-linejoin="miter" fill="none" stroke="#9e0c0f" d="M145.45606 41.24448C145.45606 42.34496 144.56397 43.23703 143.4635 43.23703 142.36302 43.23703 141.47095 42.34496 141.47095 41.24448 141.47095 40.14401 142.36302 39.25192 143.4635 39.25192 144.56397 39.25192 145.45606 40.14401 145.45606 41.24448ZM143.4635 41.24448"/>
<path transform="matrix(1.00003,0,0,-1,1.4615555,210.81801)" stroke-width=".3985" stroke-linecap="butt" stroke-miterlimit="10" stroke-linejoin="miter" fill="none" stroke="#9e0c0f" d=""/>
<use data-text="x" xlink:href="#font_4_1" transform="matrix(9.962899,0,0,-9.9626,231.36048,42.320009)"/>
<use data-text="y" xlink:href="#font_4_2" transform="matrix(9.962899,0,0,-9.9626,124.53825,12.405014)"/>
</svg>
