<svg xmlns="http://www.w3.org/2000/svg" xmlns:xlink="http://www.w3.org/1999/xlink" version="1.1" width="242" height="210" viewBox="0 0 242 210">
<defs>
<path id="font_1_1" d="M.69898989 .22743225C.71499636 .22743225 .7369995 .22743225 .7369995 .25042726 .7369995 .2734375 .71499636 .2734375 .69898989 .2734375H.12599182C.10998535 .2734375 .08799744 .2734375 .08799744 .25042726 .08799744 .22743225 .10998535 .22743225 .12599182 .22743225H.69898989Z"/>
<path id="font_2_4" d="M.13999939 .5618439C.15299988 .55784609 .19299317 .54785159 .23498535 .54785159 .3600006 .54785159 .43598939 .6358948 .43598939 .6510315 .43598939 .6620331 .42900086 .66503909 .42399598 .66503909 .42199708 .66503909 .41999818 .66503909 .41099549 .6600342 .37199403 .6450348 .32598878 .632843 .27198792 .632843 .21299744 .632843 .1639862 .6480255 .1329956 .6600342 .12298584 .66503909 .12098694 .66503909 .11999512 .66503909 .10699463 .66503909 .10699463 .6540375 .10699463 .6358948V.34292604C.10699463 .32492066 .10699463 .312912 .12298584 .312912 .1309967 .312912 .13398743 .3169098 .13899231 .32492066 .15098572 .33992005 .18899536 .39093019 .27398683 .39093019 .32998658 .39093019 .35699464 .34492494 .3659973 .32591249 .3829956 .28990174 .3849945 .24389649 .3849945 .20487976 .3849945 .1678772 .38398744 .11387634 .35598756 .069732669 .33699037 .039611818 .29699708 .008514404 .24398804 .008514404 .1789856 .008514404 .114990238 .0496521 .09199524 .11488342 .09498596 .11387634 .100997928 .11387634 .101989749 .11387634 .12998963 .11387634 .1519928 .13188172 .1519928 .16288758 .1519928 .19989014 .12298584 .21289063 .102996829 .21289063 .084991458 .21289063 .052993776 .20288086 .052993776 .15988159 .052993776 .069732669 .1309967-.021484375 .24598694-.021484375 .37098695-.021484375 .47698976 .07574463 .47698976 .19989014 .47698976 .31591798 .3929901 .4189453 .2749939 .4189453 .22499085 .4189453 .17799378 .40293885 .13999939 .368927V.5618439Z"/>
<path id="font_2_2" d="M.31399537 .63708499C.31399537 .664032 .31199647 .66503909 .2849884 .66503909 .24398804 .6251831 .19099427 .6013489 .09599304 .6013489V.5683594C.12298584 .5683594 .1769867 .5683594 .23498535 .5953522V.08203125C.23498535 .04499817 .23199463 .032989503 .13699341 .032989503H.101989749V0C.14299011 .0029907227 .22898865 .0029907227 .27398683 .0029907227 .31900025 .0029907227 .4059906 .0029907227 .44699098 0V.032989503H.4119873C.31698609 .032989503 .31399537 .04499817 .31399537 .08203125V.63708499Z"/>
<path id="font_2_1" d="M.4889984 .31877137C.4889984 .42585755 .47799684 .49090577 .44499208 .55496218 .40098573 .6430359 .31999208 .66503909 .2649994 .66503909 .13899231 .66503909 .09298706 .5709839 .07899475 .5429535 .042999269 .4698944 .040985109 .3708191 .040985109 .31877137 .040985109 .25271607 .04399109 .15162659 .09199524 .07156372 .13798523-.0024871827 .21199036-.021484375 .2649994-.021484375 .31298829-.021484375 .39898683-.0064849855 .44898988 .09257507 .48599244 .16464234 .4889984 .2537079 .4889984 .31877137M.2649994 .006515503C.23098755 .006515503 .1619873 .022521973 .14099121 .12760926 .12998963 .18466187 .12998963 .2787323 .12998963 .33078004 .12998963 .3998413 .12998963 .4698944 .14099121 .5249481 .1619873 .6270294 .23999024 .6370239 .2649994 .6370239 .29899598 .6370239 .36799623 .62002566 .3880005 .5289459 .3999939 .4738922 .3999939 .39883424 .3999939 .33078004 .3999939 .27172853 .3999939 .18165589 .3880005 .12561035 .36698915 .020523072 .2979889 .006515503 .2649994 .006515503Z"/>
<path id="font_2_3" d="M.28199769 .20405579C.2979889 .21907044 .33999635 .2520752 .35598756 .26608277 .41799928 .32312013 .47698976 .3781433 .47698976 .46917726 .47698976 .588089 .3769989 .66503909 .2519989 .66503909 .13198853 .66503909 .052993776 .57411196 .052993776 .48516847 .052993776 .4361725 .09199524 .4291687 .10598755 .4291687 .1269989 .4291687 .1579895 .4441681 .1579895 .48217774 .1579895 .5341797 .10798645 .5341797 .09599304 .5341797 .125 .6070709 .19198609 .6320343 .24099732 .6320343 .33399964 .6320343 .38198854 .55314639 .38198854 .46917726 .38198854 .36514283 .30899049 .28910829 .19099427 .16804505L.06498718 .037994386C.052993776 .026992798 .052993776 .024993897 .052993776 0H.44799806L.47698976 .17904663H.44599916C.44299317 .1590271 .43499757 .10900879 .4229889 .08999634 .4169922 .08198547 .34098817 .08198547 .32499696 .08198547H.14698792L.28199769 .20405579Z"/>
<clipPath id="clip_3">
<path transform="matrix(1.00003,0,0,-1.00002,1.4615555,208.02857)" d="M0 .00432H239.10584V206.2298H0Z"/>
</clipPath>
<path id="font_4_1" d="M.33399964 .30233766C.33999635 .32835389 .36299134 .42037965 .43299867 .42037965 .43798829 .42037965 .46199037 .42037965 .48298646 .40734864 .45498658 .402359 .43499757 .37734986 .43499757 .35334779 .43499757 .33735658 .44599916 .31835938 .47299195 .31835938 .49499513 .31835938 .5269928 .3363495 .5269928 .37635804 .5269928 .42837525 .46798707 .4423828 .43399049 .4423828 .37599183 .4423828 .34098817 .38935853 .32899476 .36634828 .3039856 .43237306 .25 .4423828 .22099304 .4423828 .116989139 .4423828 .05999756 .3133545 .05999756 .28834535 .05999756 .27833558 .069992069 .27833558 .07199097 .27833558 .07998657 .27833558 .08299255 .28033448 .084991458 .28933717 .11898804 .39535523 .18499756 .42037965 .21899414 .42037965 .23799134 .42037965 .272995 .4113617 .272995 .35334779 .272995 .32235719 .2559967 .25532533 .21899414 .11528015 .20298767 .053268434 .16799927 .011245728 .12399292 .011245728 .117996219 .011245728 .09498596 .011245728 .07398987 .024276734 .09899902 .029266358 .12098694 .05027771 .12098694 .07827759 .12098694 .105270389 .09899902 .11328125 .083999637 .11328125 .053985597 .11328125 .0289917 .08728027 .0289917 .055267335 .0289917 .009246826 .07899475-.0107421879 .12298584-.0107421879 .18899536-.0107421879 .22499085 .059280397 .22799683 .0652771 .23999024 .028274537 .27598573-.0107421879 .33599855-.0107421879 .43899537-.0107421879 .49598695 .118270877 .49598695 .14328003 .49598695 .1532898 .4869995 .1532898 .48399354 .1532898 .47499085 .1532898 .47299195 .14929199 .47099305 .14228821 .43798829 .03527832 .36999513 .011245728 .33799745 .011245728 .29899598 .011245728 .2829895 .043273927 .2829895 .07727051 .2829895 .09927368 .2889862 .121276859 .2999878 .16529846L.33399964 .30233766Z"/>
<path id="font_4_2" d="M.48599244 .38136292C.48999024 .39537049 .48999024 .39736939 .48999024 .40437318 .48999024 .42237855 .47599793 .43138124 .46099855 .43138124 .45098878 .43138124 .43499757 .42536927 .42599488 .41036988 .42399598 .405365 .41600038 .37435914 .4119873 .35635377 .40499879 .33035279 .397995 .30334474 .3919983 .27633668L.34700013 .09628296C.34298707 .08126831 .2999878 .011245728 .23399353 .011245728 .18299866 .011245728 .17199707 .055267335 .17199707 .0922699 .17199707 .1382904 .18899536 .20030213 .22299195 .28833009 .23899842 .3293457 .24299622 .3403473 .24299622 .36035157 .24299622 .405365 .21099854 .4423828 .16099549 .4423828 .06599426 .4423828 .0289917 .29733277 .0289917 .28833009 .0289917 .27833558 .038986207 .27833558 .040985109 .27833558 .050994874 .27833558 .051986696 .28033448 .056991579 .29634095 .083999637 .3903656 .12399292 .42037965 .1579895 .42037965 .1659851 .42037965 .18299866 .42037965 .18299866 .3883667 .18299866 .36335755 .17298889 .3373413 .1659851 .31834413 .12599182 .21231079 .10798645 .1552887 .10798645 .10827637 .10798645 .019256592 .17098999-.0107421879 .22999573-.0107421879 .2689972-.0107421879 .30299378 .0062561037 .33099366 .03425598 .31799317-.017745972 .30599977-.06674194 .2659912-.11973572 .23999024-.15385437 .20199585-.18309021 .1559906-.18309021 .14199829-.18309021 .09700012-.18005371 .07998657-.14074707 .09599304-.14074707 .10899353-.14074707 .12298584-.1287384 .1329956-.11973572 .14299011-.10673523 .14299011-.08773804 .14299011-.056747438 .115997318-.052734376 .10598755-.052734376 .08299255-.052734376 .049987794-.068740848 .049987794-.11773682 .049987794-.16796875 .09399414-.20507813 .1559906-.20507813 .25898744-.20507813 .3619995-.11373901 .3899994-.00074768069L.48599244 .38136292Z"/>
</defs>
<path transform="matrix(1.00003,0,0,-1.00002,1.4615555,208.02857)" d="M0 .00432H239.10584V206.2298H0Z" fill="#fffac2"/>
<path transform="matrix(1.00003,0,0,-1.00002,1.4615555,208.02857)" stroke-width=".3985" stroke-linecap="butt" stroke-miterlimit="10" stroke-linejoin="miter" fill="none" stroke="#d5d6d5" d="M0 .00432V206.2298M11.95529 .00432V206.2298M23.91058 .00432V206.2298M35.86588 .00432V206.2298M47.82117 .00432V206.2298M59.77646 .00432V206.2298M71.73175 .00432V206.2298M83.68704 .00432V206.2298M95.64233 .00432V206.2298M107.59763 .00432V206.2298M119.55292 .00432V206.2298M131.50821 .00432V206.2298M143.4635 .00432V206.2298M155.4188 .00432V206.2298M167.37409 .00432V206.2298M179.32938 .00432V206.2298M191.28467 .00432V206.2298M203.23996 .00432V206.2298M215.19525 .00432V206.2298M227.15055 .00432V206.2298M239.10584 .00432V206.2298"/>
<path transform="matrix(1.00003,0,0,-1.00002,1.4615555,208.02857)" stroke-width=".3985" stroke-linecap="butt" stroke-miterlimit="10" stroke-linejoin="miter" fill="none" stroke="#d5d6d5" d="M59.77646 .00432V206.2298M179.32938 .00432V206.2298"/>
<path transform="matrix(1.00003,0,0,-1.00002,1.4615555,208.02857)" stroke-width=".3985" stroke-linecap="butt" stroke-miterlimit="10" stroke-linejoin="miter" fill="none" stroke="#d5d6d5" d="M0 .00432H239.10584M0 6.87851H239.10584M0 13.75269H239.10584M0 20.62688H239.10584M0 27.50105H239.10584M0 34.37524H239.10584M0 41.24942H239.10584M0 48.1236H239.10584M0 54.99779H239.10584M0 61.87196H239.10584M0 68.74615H239.10584M0 75.62033H239.10584M0 82.49452H239.10584M0 89.3687H239.10584M0 96.24287H239.10584M0 103.11707H239.10584M0 109.99124H239.10584M0 116.86543H239.10584M0 123.73961H239.10584M0 130.6138H239.10584M0 137.48798H239.10584M0 144.36215H239.10584M0 151.23635H239.10584M0 158.11052H239.10584M0 164.98471H239.10584M0 171.85889H239.10584M0 178.73308H239.10584M0 185.60726H239.10584M0 192.48145H239.10584M0 199.35562H239.10584M0 206.2298H239.10584"/>
<path transform="matrix(1.00003,0,0,-1.00002,1.4615555,208.02857)" stroke-width=".3985" stroke-linecap="butt" stroke-miterlimit="10" stroke-linejoin="miter" fill="none" stroke="#d5d6d5" d="M0 68.74615H239.10584M0 103.11707H239.10584M0 137.48798H239.10584M0 171.85889H239.10584"/>
<path transform="matrix(1.00003,0,0,-1.00002,1.4615555,208.02857)" stroke-width=".19925" stroke-linecap="butt" stroke-miterlimit="10" stroke-linejoin="miter" fill="none" stroke="#929292" d="M0 32.95793V35.79256M11.95529 32.95793V35.79256M23.91058 32.95793V35.79256M35.86588 32.95793V35.79256M47.82117 32.95793V35.79256M59.77646 32.95793V35.79256M71.73175 32.95793V35.79256M83.68704 32.95793V35.79256M95.64233 32.95793V35.79256M107.59763 32.95793V35.79256M119.55292 32.95793V35.79256M131.50821 32.95793V35.79256M143.4635 32.95793V35.79256M155.4188 32.95793V35.79256M167.37409 32.95793V35.79256M179.32938 32.95793V35.79256M191.28467 32.95793V35.79256M203.23996 32.95793V35.79256M215.19525 32.95793V35.79256M227.15055 32.95793V35.79256M239.10584 32.95793V35.79256"/>
<path transform="matrix(1.00003,0,0,-1.00002,1.4615555,208.02857)" stroke-width=".19925" stroke-linecap="butt" stroke-miterlimit="10" stroke-linejoin="miter" fill="none" stroke="#929292" d="M59.77646 32.24947V36.501M179.32938 32.24947V36.501"/>
<path transform="matrix(1.00003,0,0,-1.00002,1.4615555,208.02857)" stroke-width=".19925" stroke-linecap="butt" stroke-miterlimit="10" stroke-linejoin="miter" fill="none" stroke="#929292" d="M118.13557 .00432H120.97025M118.13557 6.87851H120.97025M118.13557 13.75269H120.97025M118.13557 20.62688H120.97025M118.13557 27.50105H120.97025M118.13557 34.37524H120.97025M118.13557 41.24942H120.97025M118.13557 48.1236H120.97025M118.13557 54.99779H120.97025M118.13557 61.87196H120.97025M118.13557 68.74615H120.97025M118.13557 75.62033H120.97025M118.13557 82.49452H120.97025M118.13557 89.3687H120.97025M118.13557 96.24287H120.97025M118.13557 103.11707H120.97025M118.13557 109.99124H120.97025M118.13557 116.86543H120.97025M118.13557 123.73961H120.97025M118.13557 130.6138H120.97025M118.13557 137.48798H120.97025M118.13557 144.36215H120.97025M118.13557 151.23635H120.97025M118.13557 158.11052H120.97025M118.13557 164.98471H120.97025M118.13557 171.85889H120.97025M118.13557 178.73308H120.97025M118.13557 185.60726H120.97025M118.13557 192.48145H120.97025M118.13557 199.35562H120.97025M118.13557 206.2298H120.97025"/>
<path transform="matrix(1.00003,0,0,-1.00002,1.4615555,208.02857)" stroke-width=".19925" stroke-linecap="butt" stroke-miterlimit="10" stroke-linejoin="miter" fill="none" stroke="#929292" d="M117.42708 68.74615H121.67873M117.42708 103.11707H121.67873M117.42708 137.48798H121.67873M117.42708 171.85889H121.67873"/>
<path transform="matrix(1.00003,0,0,-1.00002,1.4615555,208.02857)" stroke-width=".3985" stroke-linecap="butt" stroke-miterlimit="10" stroke-linejoin="miter" fill="none" stroke="#000000" d="M1.99252 34.37524H237.11331"/>
<path transform="matrix(-1.00003,-0,0,1.00002,3.4541355,173.65264)" d="M1.99252 0-1.19551 1.59401 0 0-1.19551-1.59401"/>
<path transform="matrix(1.00003,0,0,-1.00002,238.582,173.65264)" d="M1.99252 0-1.19551 1.59401 0 0-1.19551-1.59401"/>
<path transform="matrix(1.00003,0,0,-1.00002,1.4615555,208.02857)" stroke-width=".3985" stroke-linecap="butt" stroke-miterlimit="10" stroke-linejoin="miter" fill="none" stroke="#000000" d="M119.55292 1.99684V204.23728"/>
<path transform="matrix(0,1.00002,1.00003,0,121.01807,206.03168)" d="M1.99252 0-1.19551 1.59401 0 0-1.19551-1.59401"/>
<path transform="matrix(0,-1.00002,-1.00003,-0,121.01807,3.787201)" d="M1.99252 0-1.19551 1.59401 0 0-1.19551-1.59401"/>
<use data-text="&#x2212;" xlink:href="#font_1_1" transform="matrix(7.9703395,0,0,-7.9702599,55.82919,184.43509)"/>
<use data-text="5" xlink:href="#font_2_4" transform="matrix(7.9703395,0,0,-7.9702599,62.41639,184.43509)"/>
<use data-text="5" xlink:href="#font_2_4" transform="matrix(7.9703395,0,0,-7.9702599,178.6789,184.43509)"/>
<use data-text="5" xlink:href="#font_2_4" transform="matrix(7.9703395,0,0,-7.9702599,113.02891,141.84925)"/>
<use data-text="1" xlink:href="#font_2_2" transform="matrix(7.9703395,0,0,-7.9702599,108.793788,107.47755)"/>
<use data-text="0" xlink:href="#font_2_1" transform="matrix(7.9703395,0,0,-7.9702599,113.02604,107.47755)"/>
<use data-text="1" xlink:href="#font_2_2" transform="matrix(7.9703395,0,0,-7.9702599,108.793788,73.105869)"/>
<use data-text="5" xlink:href="#font_2_4" transform="matrix(7.9703395,0,0,-7.9702599,113.02604,73.105869)"/>
<use data-text="2" xlink:href="#font_2_3" transform="matrix(7.9703395,0,0,-7.9702599,108.793788,38.734178)"/>
<use data-text="0" xlink:href="#font_2_1" transform="matrix(7.9703395,0,0,-7.9702599,113.02604,38.734178)"/>
<g clip-path="url(#clip_3)">
<path transform="matrix(1.00003,0,0,-1.00002,1.4615555,208.02857)" stroke-width=".99628" stroke-linecap="butt" stroke-miterlimit="10" stroke-linejoin="miter" fill="none" stroke="#9e0c0f" d="M54.96785 8.13033 58.5062 27.7242 63.51248 53.03757 68.51874 75.94012 73.52502 96.43196 78.53131 114.51286 83.53758 130.18309 88.54387 143.44248 93.55014 154.29106 98.55643 162.72884 103.5627 168.75583 108.56898 172.37204 113.57527 173.57744 118.58153 172.37204 123.58781 168.75585 128.59409 162.72885 133.60037 154.29106 138.60665 143.44248 143.61293 130.18309 148.6192 114.5129 153.62549 96.43192 158.63178 75.94017 163.63805 53.03757 168.64434 27.72426 172.18267 8.13025"/>
<path transform="matrix(-.17767534,.9840697,.98407956,.17767357,56.55624,199.2048)" d="M7.39124 0 2.37614 1.6717 .70447 0 2.37614-1.6717Z" fill="#9e0c0f"/>
<path transform="matrix(-.17767534,.9840697,.98407956,.17767357,56.55624,199.2048)" stroke-width=".99628" stroke-linecap="butt" stroke-miterlimit="10" stroke-linejoin="miter" fill="none" stroke="#9e0c0f" d="M7.39124 0 2.37614 1.6717 .70447 0 2.37614-1.6717Z"/>
<path transform="matrix(.17767534,.9840697,.98407956,-.17767357,173.52423,199.20487)" d="M7.39124 0 2.37614 1.6717 .70447 0 2.37614-1.6717Z" fill="#9e0c0f"/>
<path transform="matrix(.17767534,.9840697,.98407956,-.17767357,173.52423,199.20487)" stroke-width=".99628" stroke-linecap="butt" stroke-miterlimit="10" stroke-linejoin="miter" fill="none" stroke="#9e0c0f" d="M7.39124 0 2.37614 1.6717 .70447 0 2.37614-1.6717Z"/>
</g>
<path transform="matrix(1.00003,0,0,-1.00002,1.4615555,208.02857)" d="M61.76901 34.37524C61.76901 35.47571 60.87692 36.3678 59.77646 36.3678 58.67598 36.3678 57.7839 35.47571 57.7839 34.37524 57.7839 33.27477 58.67598 32.38269 59.77646 32.38269 60.87692 32.38269 61.76901 33.27477 61.76901 34.37524ZM59.77646 34.37524" fill="#9e0c0f"/>
<path transform="matrix(1.00003,0,0,-1.00002,1.4615555,208.02857)" stroke-width=".3985" stroke-linecap="butt" stroke-miterlimit="10" stroke-linejoin="miter" fill="none" stroke="#9e0c0f" d="M61.76901 34.37524C61.76901 35.47571 60.87692 36.3678 59.77646 36.3678 58.67598 36.3678 57.7839 35.47571 57.7839 34.37524 57.7839 33.27477 58.67598 32.38269 59.77646 32.38269 60.87692 32.38269 61.76901 33.27477 61.76901 34.37524ZM59.77646 34.37524"/>
<path transform="matrix(1.00003,0,0,-1.00002,1.4615555,208.02857)" d="M169.36664 34.37524C169.36664 35.47571 168.47455 36.3678 167.37409 36.3678 166.2736 36.3678 165.38153 35.47571 165.38153 34.37524 165.38153 33.27477 166.2736 32.38269 167.37409 32.38269 168.47455 32.38269 169.36664 33.27477 169.36664 34.37524ZM167.37409 34.37524" fill="#9e0c0f"/>
<path transform="matrix(1.00003,0,0,-1.00002,1.4615555,208.02857)" stroke-width=".3985" stroke-linecap="butt" stroke-miterlimit="10" stroke-linejoin="miter" fill="none" stroke="#9e0c0f" d="M169.36664 34.37524C169.36664 35.47571 168.47455 36.3678 167.37409 36.3678 166.2736 36.3678 165.38153 35.47571 165.38153 34.37524 165.38153 33.27477 166.2736 32.38269 167.37409 32.38269 168.47455 32.38269 169.36664 33.27477 169.36664 34.37524ZM167.37409 34.37524"/>
<path transform="matrix(1.00003,0,0,-1.00002,1.4615555,208.02857)" d="M121.54547 171.85889C121.54547 172.95937 120.65338 173.85144 119.55292 173.85144 118.45244 173.85144 117.56036 172.95937 117.56036 171.85889 117.56036 170.75843 118.45244 169.86634 119.55292 169.86634 120.65338 169.86634 121.54547 170.75843 121.54547 171.85889ZM119.55292 171.85889" fill="#9e0c0f"/>
<path transform="matrix(1.00003,0,0,-1.00002,1.4615555,208.02857)" stroke-width=".3985" stroke-linecap="butt" stroke-miterlimit="10" stroke-linejoin="miter" fill="none" stroke="#9e0c0f" d="M121.54547 171.85889C121.54547 172.95937 120.65338 173.85144 119.55292 173.85144 118.45244 173.85144 117.56036 172.95937 117.56036 171.85889 117.56036 170.75843 118.45244 169.86634 119.55292 169.86634 120.65338 169.86634 121.54547 170.75843 121.54547 171.85889ZM119.55292 171.85889"/>
<path transform="matrix(1.00003,0,0,-1.00002,1.4615555,208.02857)" d="M115.56783 173.57744C115.56783 174.67792 114.67574 175.56999 113.57527 175.56999 112.4748 175.56999 111.58272 174.67792 111.58272 173.57744 111.58272 172.47698 112.4748 171.58489 113.57527 171.58489 114.67574 171.58489 115.56783 172.47698 115.56783 173.57744ZM113.57527 173.57744" fill="#9e0c0f"/>
<path transform="matrix(1.00003,0,0,-1.00002,1.4615555,208.02857)" stroke-width=".3985" stroke-linecap="butt" stroke-miterlimit="10" stroke-linejoin="miter" fill="none" stroke="#9e0c0f" d="M115.56783 173.57744C115.56783 174.67792 114.67574 175.56999 113.57527 175.56999 112.4748 175.56999 111.58272 174.67792 111.58272 173.57744 111.58272 172.47698 112.4748 171.58489 113.57527 171.58489 114.67574 171.58489 115.56783 172.47698 115.56783 173.57744ZM113.57527 173.57744"/>
<path transform="matrix(1.00003,0,0,-1.00002,1.4615555,208.02857)" d="M109.59018 171.85889C109.59018 172.95937 108.69809 173.85144 107.59763 173.85144 106.49715 173.85144 105.60507 172.95937 105.60507 171.85889 105.60507 170.75843 106.49715 169.86634 107.59763 169.86634 108.69809 169.86634 109.59018 170.75843 109.59018 171.85889ZM107.59763 171.85889" fill="#9e0c0f"/>
<path transform="matrix(1.00003,0,0,-1.00002,1.4615555,208.02857)" stroke-width=".3985" stroke-linecap="butt" stroke-miterlimit="10" stroke-linejoin="miter" fill="none" stroke="#9e0c0f" d="M109.59018 171.85889C109.59018 172.95937 108.69809 173.85144 107.59763 173.85144 106.49715 173.85144 105.60507 172.95937 105.60507 171.85889 105.60507 170.75843 106.49715 169.86634 107.59763 169.86634 108.69809 169.86634 109.59018 170.75843 109.59018 171.85889ZM107.59763 171.85889"/>
<path transform="matrix(1.00003,0,0,-1.00002,1.4615555,208.02857)" stroke-width=".3985" stroke-linecap="butt" stroke-miterlimit="10" stroke-linejoin="miter" fill="none" stroke="#9e0c0f" d=""/>
<use data-text="x" xlink:href="#font_4_1" transform="matrix(9.962899,0,0,-9.962799,231.36048,170.13282)"/>
<use data-text="y" xlink:href="#font_4_2" transform="matrix(9.962899,0,0,-9.962799,124.53825,9.604599)"/>
</svg>
