<svg xmlns="http://www.w3.org/2000/svg" xmlns:xlink="http://www.w3.org/1999/xlink" version="1.1" width="242" height="210" viewBox="0 0 242 210">
<defs>
<path id="font_1_1" d="M.69898989 .22743225C.71499636 .22743225 .7369995 .22743225 .7369995 .25042726 .7369995 .2734375 .71499636 .2734375 .69898989 .2734375H.12599182C.10998535 .2734375 .08799744 .2734375 .08799744 .25042726 .08799744 .22743225 .10998535 .22743225 .12599182 .22743225H.69898989Z"/>
<path id="font_2_3" d="M.13798523 .33073426C.13798523 .41377259 .14498902 .4868164 .18099976 .54782107 .21099854 .5978241 .2619934 .6390381 .32499696 .6390381 .34498597 .6390381 .3909912 .63601687 .4139862 .60084536 .36898805 .5988312 .36499024 .5648346 .36499024 .553833 .36499024 .5238342 .3880005 .50683596 .4119873 .50683596 .42999269 .50683596 .45899964 .51782229 .45899964 .5558319 .45899964 .615921 .4139862 .66503909 .32398988 .66503909 .18499756 .66503909 .04399109 .53282168 .04399109 .31672669 .04399109 .045532228 .16999817-.021484375 .2669983-.021484375 .31498719-.021484375 .36698915-.0084991459 .4119873 .03453064 .45199586 .07354736 .48599244 .11558533 .48599244 .20263672 .48599244 .33372499 .3869934 .42578126 .27598573 .42578126 .20399475 .42578126 .16099549 .37976075 .13798523 .33073426M.2669983 .008514404C.21398926 .008514404 .18099976 .045532228 .1659851 .07354736 .14299011 .11859131 .14099121 .18663025 .14099121 .22465515 .14099121 .32373048 .19499207 .3977661 .27198792 .3977661 .32199098 .3977661 .35198976 .37176515 .37098695 .33673097 .3919983 .29971314 .3919983 .25468446 .3919983 .2036438 .3919983 .15260315 .3919983 .10858154 .37199403 .07255554 .34599305 .026519776 .31098939 .008514404 .2669983 .008514404Z"/>
<path id="font_2_2" d="M.3939972 .6468048C.3939972 .6667938 .3939972 .6748047 .37298585 .6748047 .3600006 .6748047 .35899354 .6737976 .34899903 .65979006L.02999878 .197052V.1640625H.31199647V.08100891C.31199647 .04399109 .30899049 .032989503 .23199463 .032989503H.20899964V0C.2939911 .0029907227 .29599 .0029907227 .35299684 .0029907227 .4099884 .0029907227 .4119873 .0029907227 .49699403 0V.032989503H.47399903C.39698792 .032989503 .3939972 .04399109 .3939972 .08100891V.1640625H.5V.197052H.3939972V.6468048M.31900025 .5658417V.197052H.06498718L.31900025 .5658417Z"/>
<path id="font_2_1" d="M.28199769 .20405579C.2979889 .21907044 .33999635 .2520752 .35598756 .26608277 .41799928 .32312013 .47698976 .3781433 .47698976 .46917726 .47698976 .588089 .3769989 .66503909 .2519989 .66503909 .13198853 .66503909 .052993776 .57411196 .052993776 .48516847 .052993776 .4361725 .09199524 .4291687 .10598755 .4291687 .1269989 .4291687 .1579895 .4441681 .1579895 .48217774 .1579895 .5341797 .10798645 .5341797 .09599304 .5341797 .125 .6070709 .19198609 .6320343 .24099732 .6320343 .33399964 .6320343 .38198854 .55314639 .38198854 .46917726 .38198854 .36514283 .30899049 .28910829 .19099427 .16804505L.06498718 .037994386C.052993776 .026992798 .052993776 .024993897 .052993776 0H.44799806L.47698976 .17904663H.44599916C.44299317 .1590271 .43499757 .10900879 .4229889 .08999634 .4169922 .08198547 .34098817 .08198547 .32499696 .08198547H.14698792L.28199769 .20405579Z"/>
<clipPath id="clip_3">
<path transform="matrix(1,0,0,-1.00005,1.4610005,208.03639)" d="M0 0H239.11191V206.23003H0Z"/>
</clipPath>
<path id="font_4_1" d="M.33099366-.2400055C.33099366-.23701477 .33099366-.23500061 .31399537-.21800232 .18899536-.0920105 .15699768 .09700012 .15699768 .25 .15699768 .42399598 .19499207 .59799197 .31799317 .72299197 .33099366 .73498538 .33099366 .7369995 .33099366 .73999026 .33099366 .746994 .32699586 .75 .32099916 .75 .31098939 .75 .22099304 .6819916 .1619873 .5549927 .11099243 .44499208 .09899902 .33399964 .09899902 .25 .09899902 .17199707 .10998535 .050994874 .16499329-.06201172 .22499085-.18501282 .31098939-.25 .32099916-.25 .32699586-.25 .33099366-.24700928 .33099366-.2400055Z"/>
<path id="font_4_5" d="M.2939911 .16503906V.07800293C.2939911 .041992189 .2919922 .0309906 .21798706 .0309906H.19699097V0C.23799134 .0029907227 .2899933 .0029907227 .33198548 .0029907227 .37399293 .0029907227 .4269867 .0029907227 .46798707 0V.0309906H.44699098C.37298585 .0309906 .37098695 .041992189 .37098695 .07800293V.16503906H.47099305V.19602967H.37098695V.65075686C.37098695 .67074587 .37098695 .6767578 .35499574 .6767578 .34599305 .6767578 .34298707 .6767578 .33499146 .66474917L.027999878 .19602967V.16503906H.2939911M.2999878 .19602967H.055999757L.2999878 .5688019V.19602967Z"/>
<path id="font_5_1" d="M.20298767 .0009918213C.20298767 .066986087 .17799378 .10598755 .13899231 .10598755 .10598755 .10598755 .085998538 .08099365 .085998538 .052993776 .085998538 .025985718 .10598755 0 .13899231 0 .15098572 0 .1639862 .0039978029 .17399597 .0129852299 .1769867 .01499939 .17799378 .015991211 .1789856 .015991211 .17999268 .015991211 .18099976 .01499939 .18099976 .0009918213 .18099976-.07316589 .1459961-.13328552 .11299133-.16635132 .101989749-.17736817 .101989749-.17936707 .101989749-.18237305 .101989749-.18936157 .10699463-.19335938 .11199951-.19335938 .12298584-.19335938 .20298767-.116256717 .20298767 .0009918213Z"/>
<path id="font_4_3" d="M.45999146 .31976319C.45999146 .39982606 .45498658 .47988893 .41999818 .5539398 .37399293 .65000918 .2919922 .6660156 .25 .6660156 .18998719 .6660156 .116989139 .64001467 .07598877 .54693606 .04399109 .47789 .038986207 .39982606 .038986207 .31976319 .038986207 .24472046 .042999269 .15464783 .083999637 .07859802 .1269989-.0024719239 .19999695-.022460938 .24899292-.022460938 .30299378-.022460938 .3789978-.0014648438 .4229889 .09359741 .45498658 .16265869 .45999146 .2407074 .45999146 .31976319M.24899292-.00047302247C.20999146-.00047302247 .15098572 .024551392 .1329956 .12062073 .12199402 .18066406 .12199402 .2727356 .12199402 .3317871 .12199402 .39582826 .12199402 .46188355 .12998963 .5159149 .14898682 .63500979 .22399903 .64401248 .24899292 .64401248 .28199769 .64401248 .34799195 .6259918 .36698915 .52693179 .3769989 .47088624 .3769989 .39482118 .3769989 .3317871 .3769989 .25672914 .3769989 .18867493 .3659973 .12461853 .35099793 .029556275 .2939911-.00047302247 .24899292-.00047302247Z"/>
<path id="font_4_2" d="M.2889862 .25C.2889862 .32798768 .27799989 .44898988 .22299195 .56199648 .16299439 .68499758 .07699585 .75 .066986087 .75 .06098938 .75 .056991579 .74598696 .056991579 .73999026 .056991579 .7369995 .056991579 .73498538 .07598877 .71699526 .17399597 .6179962 .23098755 .45899964 .23098755 .25 .23098755 .07899475 .19400025-.09700012 .069992069-.2230072 .056991579-.23500061 .056991579-.23701477 .056991579-.2400055 .056991579-.2460022 .06098938-.25 .066986087-.25 .07699585-.25 .16699219-.18200684 .22599793-.055007936 .2769928 .054992677 .2889862 .16600037 .2889862 .25Z"/>
<path id="font_6_1" d="M.6589966 .23046875C.6759949 .23046875 .69400027 .23046875 .69400027 .25045777 .69400027 .27046205 .6759949 .27046205 .6589966 .27046205H.117996219C.100997928 .27046205 .08299255 .27046205 .08299255 .25045777 .08299255 .23046875 .100997928 .23046875 .117996219 .23046875H.6589966Z"/>
<path id="font_4_4" d="M.2939911 .64004519C.2939911 .66400149 .2939911 .6660156 .2709961 .6660156 .20899964 .60227969 .12098694 .60227969 .08898926 .60227969V.57128909C.10899353 .57128909 .16799927 .57128909 .21998596 .5972748V.07902527C.21998596 .042999269 .21699524 .0309906 .1269989 .0309906H.09498596V0C.12998963 .0029907227 .21699524 .0029907227 .25698854 .0029907227 .29699708 .0029907227 .38398744 .0029907227 .4189911 0V.0309906H.3869934C.29699708 .0309906 .2939911 .041992189 .2939911 .07902527V.64004519Z"/>
<path id="font_5_2" d="M.33399964 .30233766C.33999635 .32835389 .36299134 .42037965 .43299867 .42037965 .43798829 .42037965 .46199037 .42037965 .48298646 .40734864 .45498658 .402359 .43499757 .37734986 .43499757 .35334779 .43499757 .33735658 .44599916 .31835938 .47299195 .31835938 .49499513 .31835938 .5269928 .3363495 .5269928 .37635804 .5269928 .42837525 .46798707 .4423828 .43399049 .4423828 .37599183 .4423828 .34098817 .38935853 .32899476 .36634828 .3039856 .43237306 .25 .4423828 .22099304 .4423828 .116989139 .4423828 .05999756 .3133545 .05999756 .28834535 .05999756 .27833558 .069992069 .27833558 .07199097 .27833558 .07998657 .27833558 .08299255 .28033448 .084991458 .28933717 .11898804 .39535523 .18499756 .42037965 .21899414 .42037965 .23799134 .42037965 .272995 .4113617 .272995 .35334779 .272995 .32235719 .2559967 .25532533 .21899414 .11528015 .20298767 .053268434 .16799927 .011245728 .12399292 .011245728 .117996219 .011245728 .09498596 .011245728 .07398987 .024276734 .09899902 .029266358 .12098694 .05027771 .12098694 .07827759 .12098694 .105270389 .09899902 .11328125 .083999637 .11328125 .053985597 .11328125 .0289917 .08728027 .0289917 .055267335 .0289917 .009246826 .07899475-.0107421879 .12298584-.0107421879 .18899536-.0107421879 .22499085 .059280397 .22799683 .0652771 .23999024 .028274537 .27598573-.0107421879 .33599855-.0107421879 .43899537-.0107421879 .49598695 .118270877 .49598695 .14328003 .49598695 .1532898 .4869995 .1532898 .48399354 .1532898 .47499085 .1532898 .47299195 .14929199 .47099305 .14228821 .43798829 .03527832 .36999513 .011245728 .33799745 .011245728 .29899598 .011245728 .2829895 .043273927 .2829895 .07727051 .2829895 .09927368 .2889862 .121276859 .2999878 .16529846L.33399964 .30233766Z"/>
<path id="font_5_3" d="M.48599244 .38136292C.48999024 .39537049 .48999024 .39736939 .48999024 .40437318 .48999024 .42237855 .47599793 .43138124 .46099855 .43138124 .45098878 .43138124 .43499757 .42536927 .42599488 .41036988 .42399598 .405365 .41600038 .37435914 .4119873 .35635377 .40499879 .33035279 .397995 .30334474 .3919983 .27633668L.34700013 .09628296C.34298707 .08126831 .2999878 .011245728 .23399353 .011245728 .18299866 .011245728 .17199707 .055267335 .17199707 .0922699 .17199707 .1382904 .18899536 .20030213 .22299195 .28833009 .23899842 .3293457 .24299622 .3403473 .24299622 .36035157 .24299622 .405365 .21099854 .4423828 .16099549 .4423828 .06599426 .4423828 .0289917 .29733277 .0289917 .28833009 .0289917 .27833558 .038986207 .27833558 .040985109 .27833558 .050994874 .27833558 .051986696 .28033448 .056991579 .29634095 .083999637 .3903656 .12399292 .42037965 .1579895 .42037965 .1659851 .42037965 .18299866 .42037965 .18299866 .3883667 .18299866 .36335755 .17298889 .3373413 .1659851 .31834413 .12599182 .21231079 .10798645 .1552887 .10798645 .10827637 .10798645 .019256592 .17098999-.0107421879 .22999573-.0107421879 .2689972-.0107421879 .30299378 .0062561037 .33099366 .03425598 .31799317-.017745972 .30599977-.06674194 .2659912-.11973572 .23999024-.15385437 .20199585-.18309021 .1559906-.18309021 .14199829-.18309021 .09700012-.18005371 .07998657-.14074707 .09599304-.14074707 .10899353-.14074707 .12298584-.1287384 .1329956-.11973572 .14299011-.10673523 .14299011-.08773804 .14299011-.056747438 .115997318-.052734376 .10598755-.052734376 .08299255-.052734376 .049987794-.068740848 .049987794-.11773682 .049987794-.16796875 .09399414-.20507813 .1559906-.20507813 .25898744-.20507813 .3619995-.11373901 .3899994-.00074768069L.48599244 .38136292Z"/>
</defs>
<path transform="matrix(1,0,0,-1.00005,1.4610005,208.03639)" d="M0 0H239.11191V206.23003H0Z" fill="#fffac2"/>
<path transform="matrix(1,0,0,-1.00005,1.4610005,208.03639)" stroke-width=".3985" stroke-linecap="butt" stroke-miterlimit="10" stroke-linejoin="miter" fill="none" stroke="#d5d6d5" d="M0 0V206.23003M17.07942 0V206.23003M34.15884 0V206.23003M51.23827 0V206.23003M68.31769 0V206.23003M85.39711 0V206.23003M102.47653 0V206.23003M119.55595 0V206.23003M136.63538 0V206.23003M153.7148 0V206.23003M170.79422 0V206.23003M187.87364 0V206.23003M204.95307 0V206.23003M222.03249 0V206.23003M239.11191 0V206.23003"/>
<path transform="matrix(1,0,0,-1.00005,1.4610005,208.03639)" stroke-width=".3985" stroke-linecap="butt" stroke-miterlimit="10" stroke-linejoin="miter" fill="none" stroke="#d5d6d5" d="M17.07942 0V206.23003M51.23827 0V206.23003M85.39711 0V206.23003M153.7148 0V206.23003M187.87364 0V206.23003M222.03249 0V206.23003"/>
<path transform="matrix(1,0,0,-1.00005,1.4610005,208.03639)" stroke-width=".3985" stroke-linecap="butt" stroke-miterlimit="10" stroke-linejoin="miter" fill="none" stroke="#d5d6d5" d="M0 0H239.11191M0 14.73071H239.11191M0 29.46143H239.11191M0 44.19214H239.11191M0 58.92287H239.11191M0 73.65358H239.11191M0 88.3843H239.11191M0 103.115H239.11191M0 117.84573H239.11191M0 132.57645H239.11191M0 147.30716H239.11191M0 162.03789H239.11191M0 176.7686H239.11191M0 191.49932H239.11191M0 206.23003H239.11191"/>
<path transform="matrix(1,0,0,-1.00005,1.4610005,208.03639)" stroke-width=".3985" stroke-linecap="butt" stroke-miterlimit="10" stroke-linejoin="miter" fill="none" stroke="#d5d6d5" d="M0 14.73071H239.11191M0 44.19214H239.11191M0 73.65358H239.11191M0 132.57645H239.11191M0 162.03789H239.11191M0 191.49932H239.11191"/>
<path transform="matrix(1,0,0,-1.00005,1.4610005,208.03639)" stroke-width=".19925" stroke-linecap="butt" stroke-miterlimit="10" stroke-linejoin="miter" fill="none" stroke="#929292" d="M0 101.69763V104.5324M17.07942 101.69763V104.5324M34.15884 101.69763V104.5324M51.23827 101.69763V104.5324M68.31769 101.69763V104.5324M85.39711 101.69763V104.5324M102.47653 101.69763V104.5324M119.55595 101.69763V104.5324M136.63538 101.69763V104.5324M153.7148 101.69763V104.5324M170.79422 101.69763V104.5324M187.87364 101.69763V104.5324M204.95307 101.69763V104.5324M222.03249 101.69763V104.5324M239.11191 101.69763V104.5324"/>
<path transform="matrix(1,0,0,-1.00005,1.4610005,208.03639)" stroke-width=".19925" stroke-linecap="butt" stroke-miterlimit="10" stroke-linejoin="miter" fill="none" stroke="#929292" d="M17.07942 100.98914V105.24088M51.23827 100.98914V105.24088M85.39711 100.98914V105.24088M153.7148 100.98914V105.24088M187.87364 100.98914V105.24088M222.03249 100.98914V105.24088"/>
<path transform="matrix(1,0,0,-1.00005,1.4610005,208.03639)" stroke-width=".19925" stroke-linecap="butt" stroke-miterlimit="10" stroke-linejoin="miter" fill="none" stroke="#929292" d="M118.13852 0H120.97339M118.13852 14.73071H120.97339M118.13852 29.46143H120.97339M118.13852 44.19214H120.97339M118.13852 58.92287H120.97339M118.13852 73.65358H120.97339M118.13852 88.3843H120.97339M118.13852 103.115H120.97339M118.13852 117.84573H120.97339M118.13852 132.57645H120.97339M118.13852 147.30716H120.97339M118.13852 162.03789H120.97339M118.13852 176.7686H120.97339M118.13852 191.49932H120.97339M118.13852 206.23003H120.97339"/>
<path transform="matrix(1,0,0,-1.00005,1.4610005,208.03639)" stroke-width=".19925" stroke-linecap="butt" stroke-miterlimit="10" stroke-linejoin="miter" fill="none" stroke="#929292" d="M117.43001 14.73071H121.68187M117.43001 44.19214H121.68187M117.43001 73.65358H121.68187M117.43001 132.57645H121.68187M117.43001 162.03789H121.68187M117.43001 191.49932H121.68187"/>
<path transform="matrix(1,0,0,-1.00005,1.4610005,208.03639)" stroke-width=".3985" stroke-linecap="butt" stroke-miterlimit="10" stroke-linejoin="miter" fill="none" stroke="#000000" d="M1.99252 103.115H237.11939"/>
<path transform="matrix(-1,-0,0,1.00005,3.4535204,104.916248)" d="M1.99252 0-1.19551 1.59401 0 0-1.19551-1.59401"/>
<path transform="matrix(1,0,0,-1.00005,238.58039,104.916248)" d="M1.99252 0-1.19551 1.59401 0 0-1.19551-1.59401"/>
<path transform="matrix(1,0,0,-1.00005,1.4610005,208.03639)" stroke-width=".3985" stroke-linecap="butt" stroke-miterlimit="10" stroke-linejoin="miter" fill="none" stroke="#000000" d="M119.55595 1.99252V204.2375"/>
<path transform="matrix(0,1.00005,1,0,121.016948,206.04378)" d="M1.99252 0-1.19551 1.59401 0 0-1.19551-1.59401"/>
<path transform="matrix(0,-1.00005,-1,-0,121.016948,3.788681)" d="M1.99252 0-1.19551 1.59401 0 0-1.19551-1.59401"/>
<use data-text="&#x2212;" xlink:href="#font_1_1" transform="matrix(7.9701,0,0,-7.970498,13.13,115.698787)"/>
<use data-text="6" xlink:href="#font_2_3" transform="matrix(7.9701,0,0,-7.970498,19.717,115.698787)"/>
<use data-text="&#x2212;" xlink:href="#font_1_1" transform="matrix(7.9701,0,0,-7.970498,47.289,115.698787)"/>
<use data-text="4" xlink:href="#font_2_2" transform="matrix(7.9701,0,0,-7.970498,53.876,115.698787)"/>
<use data-text="&#x2212;" xlink:href="#font_1_1" transform="matrix(7.9701,0,0,-7.970498,81.448,115.698787)"/>
<use data-text="2" xlink:href="#font_2_1" transform="matrix(7.9701,0,0,-7.970498,88.035,115.698787)"/>
<use data-text="2" xlink:href="#font_2_1" transform="matrix(7.9701,0,0,-7.970498,153.059,115.698787)"/>
<use data-text="4" xlink:href="#font_2_2" transform="matrix(7.9701,0,0,-7.970498,187.218,115.698787)"/>
<use data-text="6" xlink:href="#font_2_3" transform="matrix(7.9701,0,0,-7.970498,221.37599,115.698787)"/>
<use data-text="&#x2212;" xlink:href="#font_1_1" transform="matrix(7.9701,0,0,-7.970498,106.44101,195.45777)"/>
<use data-text="6" xlink:href="#font_2_3" transform="matrix(7.9701,0,0,-7.970498,113.02801,195.45777)"/>
<use data-text="&#x2212;" xlink:href="#font_1_1" transform="matrix(7.9701,0,0,-7.970498,106.44101,165.9953)"/>
<use data-text="4" xlink:href="#font_2_2" transform="matrix(7.9701,0,0,-7.970498,113.02801,165.9953)"/>
<use data-text="&#x2212;" xlink:href="#font_1_1" transform="matrix(7.9701,0,0,-7.970498,106.44101,136.53183)"/>
<use data-text="2" xlink:href="#font_2_1" transform="matrix(7.9701,0,0,-7.970498,113.02801,136.53183)"/>
<use data-text="2" xlink:href="#font_2_1" transform="matrix(7.9701,0,0,-7.970498,113.028,78.0219)"/>
<use data-text="4" xlink:href="#font_2_2" transform="matrix(7.9701,0,0,-7.970498,113.028,48.558427)"/>
<use data-text="6" xlink:href="#font_2_3" transform="matrix(7.9701,0,0,-7.970498,113.028,19.095963)"/>
<g clip-path="url(#clip_3)">
<path transform="matrix(1,0,0,-1.00005,1.4610005,208.03639)" stroke-width=".99628" stroke-linecap="butt" stroke-miterlimit="10" stroke-linejoin="miter" fill="none" stroke="#9e0c0f" d="M84.36021 8.15575 88.18674 31.17981 93.3675 59.64293 98.54823 85.39539 103.72899 108.43695 108.90973 128.76779 114.09048 146.38784 119.27126 161.29714 124.452 173.49564 129.63275 182.9834 134.81349 189.76036 139.99425 193.82656 145.175 195.18199 150.35576 193.82665 155.53652 189.76052 160.71726 182.98363 165.89801 173.49599 171.07877 161.2975 176.2595 146.38835 181.44028 128.76833 186.62102 108.43758 191.80178 85.39601 196.98253 59.64369 202.16327 31.18047 205.9898 8.15665"/>
<path transform="matrix(-.16391,.98646929,.98642,.16391818,85.936679,199.18529)" d="M7.39124 0 2.37614 1.6717 .70447 0 2.37614-1.6717Z" fill="#9e0c0f"/>
<path transform="matrix(-.16391,.98646929,.98642,.16391818,85.936679,199.18529)" stroke-width=".99628" stroke-linecap="butt" stroke-miterlimit="10" stroke-linejoin="miter" fill="none" stroke="#9e0c0f" d="M7.39124 0 2.37614 1.6717 .70447 0 2.37614-1.6717Z"/>
<path transform="matrix(.16391,.98646929,.98642,-.16391818,207.33533,199.18439)" d="M7.39124 0 2.37614 1.6717 .70447 0 2.37614-1.6717Z" fill="#9e0c0f"/>
<path transform="matrix(.16391,.98646929,.98642,-.16391818,207.33533,199.18439)" stroke-width=".99628" stroke-linecap="butt" stroke-miterlimit="10" stroke-linejoin="miter" fill="none" stroke="#9e0c0f" d="M7.39124 0 2.37614 1.6717 .70447 0 2.37614-1.6717Z"/>
<path transform="matrix(1,0,0,-1.00005,1.4610005,208.03639)" stroke-width=".99628" stroke-linecap="butt" stroke-miterlimit="10" stroke-linejoin="miter" fill="none" stroke="#008099" d="M84.36021 9.62881 88.18674 32.65288 93.3675 61.11603 98.54823 86.86841 103.72899 109.91002 108.90973 130.24086 114.09048 147.86093 119.27126 162.7702 124.452 174.96872 129.63275 184.45645 134.81349 191.23345 139.99425 195.29964 145.175 196.65505 150.35576 195.29972 155.53652 191.23358 160.71726 184.4567 165.89801 174.96906 171.07877 162.7706 176.2595 147.86136 181.44028 130.2414 186.62102 109.91063 191.80178 86.8691 196.98253 61.11679 202.16327 32.6537 205.9898 9.62964"/>
<path transform="matrix(-.16391,.98646929,.98642,.16391818,85.936679,197.71215)" d="M7.39124 0 2.37614 1.6717 .70447 0 2.37614-1.6717Z" fill="#008099"/>
<path transform="matrix(-.16391,.98646929,.98642,.16391818,85.936679,197.71215)" stroke-width=".99628" stroke-linecap="butt" stroke-miterlimit="10" stroke-linejoin="miter" fill="none" stroke="#008099" d="M7.39124 0 2.37614 1.6717 .70447 0 2.37614-1.6717Z"/>
<path transform="matrix(.16391,.98646929,.98642,-.16391818,207.33533,197.71134)" d="M7.39124 0 2.37614 1.6717 .70447 0 2.37614-1.6717Z" fill="#008099"/>
<path transform="matrix(.16391,.98646929,.98642,-.16391818,207.33533,197.71134)" stroke-width=".99628" stroke-linecap="butt" stroke-miterlimit="10" stroke-linejoin="miter" fill="none" stroke="#008099" d="M7.39124 0 2.37614 1.6717 .70447 0 2.37614-1.6717Z"/>
<path transform="matrix(1,0,0,-1.00005,1.4610005,208.03639)" stroke-width=".3985" stroke-linecap="butt" stroke-miterlimit="10" stroke-linejoin="miter" fill="none" stroke="#c7502a" d=""/>
<use data-text="(" xlink:href="#font_4_1" transform="matrix(9.9626,0,0,-9.963098,192.854,98.90494)" fill="#c7502a"/>
<use data-text="4" xlink:href="#font_4_5" transform="matrix(9.9626,0,0,-9.963098,196.71949,98.90494)" fill="#c7502a"/>
<use data-text="," xlink:href="#font_5_1" transform="matrix(9.9626,0,0,-9.963098,201.70999,98.90494)" fill="#c7502a"/>
<use data-text="0" xlink:href="#font_4_3" transform="matrix(9.9626,0,0,-9.963098,206.138,98.90494)" fill="#c7502a"/>
<use data-text=")" xlink:href="#font_4_2" transform="matrix(9.9626,0,0,-9.963098,211.1193,98.90494)" fill="#c7502a"/>
<path transform="matrix(1,0,0,-1.00005,1.4610005,208.03639)" stroke-width=".3985" stroke-linecap="butt" stroke-miterlimit="10" stroke-linejoin="miter" fill="none" stroke="#c7502a" d=""/>
<use data-text="(" xlink:href="#font_4_1" transform="matrix(9.9626,0,0,-9.963098,70.52901,98.90494)" fill="#c7502a"/>
<use data-text="&#x2212;" xlink:href="#font_6_1" transform="matrix(9.9626,0,0,-9.963098,74.403,98.90494)" fill="#c7502a"/>
<use data-text="1" xlink:href="#font_4_4" transform="matrix(9.9626,0,0,-9.963098,82.15201,98.90494)" fill="#c7502a"/>
<use data-text="," xlink:href="#font_5_1" transform="matrix(9.9626,0,0,-9.963098,87.133,98.90494)" fill="#c7502a"/>
<use data-text="0" xlink:href="#font_4_3" transform="matrix(9.9626,0,0,-9.963098,91.561008,98.90494)" fill="#c7502a"/>
<use data-text=")" xlink:href="#font_4_2" transform="matrix(9.9626,0,0,-9.963098,96.542308,98.90494)" fill="#c7502a"/>
</g>
<path transform="matrix(1,0,0,-1.00005,1.4610005,208.03639)" d="M189.8662 103.115C189.8662 104.21548 188.9741 105.10756 187.87364 105.10756 186.77318 105.10756 185.88109 104.21548 185.88109 103.115 185.88109 102.01454 186.77318 101.12245 187.87364 101.12245 188.9741 101.12245 189.8662 102.01454 189.8662 103.115ZM187.87364 103.115" fill="#c7502a"/>
<path transform="matrix(1,0,0,-1.00005,1.4610005,208.03639)" stroke-width=".3985" stroke-linecap="butt" stroke-miterlimit="10" stroke-linejoin="miter" fill="none" stroke="#c7502a" d="M189.8662 103.115C189.8662 104.21548 188.9741 105.10756 187.87364 105.10756 186.77318 105.10756 185.88109 104.21548 185.88109 103.115 185.88109 102.01454 186.77318 101.12245 187.87364 101.12245 188.9741 101.12245 189.8662 102.01454 189.8662 103.115ZM187.87364 103.115"/>
<path transform="matrix(1,0,0,-1.00005,1.4610005,208.03639)" stroke-width=".3985" stroke-linecap="butt" stroke-miterlimit="10" stroke-linejoin="miter" fill="none" stroke="#c7502a" d=""/>
<path transform="matrix(1,0,0,-1.00005,1.4610005,208.03639)" d="M104.46909 103.115C104.46909 104.21548 103.577 105.10756 102.47653 105.10756 101.37605 105.10756 100.48398 104.21548 100.48398 103.115 100.48398 102.01454 101.37605 101.12245 102.47653 101.12245 103.577 101.12245 104.46909 102.01454 104.46909 103.115ZM102.47653 103.115" fill="#c7502a"/>
<path transform="matrix(1,0,0,-1.00005,1.4610005,208.03639)" stroke-width=".3985" stroke-linecap="butt" stroke-miterlimit="10" stroke-linejoin="miter" fill="none" stroke="#c7502a" d="M104.46909 103.115C104.46909 104.21548 103.577 105.10756 102.47653 105.10756 101.37605 105.10756 100.48398 104.21548 100.48398 103.115 100.48398 102.01454 101.37605 101.12245 102.47653 101.12245 103.577 101.12245 104.46909 102.01454 104.46909 103.115ZM102.47653 103.115"/>
<path transform="matrix(1,0,0,-1.00005,1.4610005,208.03639)" stroke-width=".3985" stroke-linecap="butt" stroke-miterlimit="10" stroke-linejoin="miter" fill="none" stroke="#c7502a" d=""/>
<use data-text="x" xlink:href="#font_5_2" transform="matrix(9.9626,0,0,-9.963098,231.359,101.396068)"/>
<use data-text="y" xlink:href="#font_5_3" transform="matrix(9.9626,0,0,-9.963098,124.537,9.605469)"/>
</svg>
