<svg xmlns="http://www.w3.org/2000/svg" xmlns:xlink="http://www.w3.org/1999/xlink" version="1.1" width="354" height="22" viewBox="0 0 354 22">
<defs>
<path id="font_1_1" d="M.69898989 .22743225C.71499636 .22743225 .7369995 .22743225 .7369995 .25042726 .7369995 .2734375 .71499636 .2734375 .69898989 .2734375H.12599182C.10998535 .2734375 .08799744 .2734375 .08799744 .25042726 .08799744 .22743225 .10998535 .22743225 .12599182 .22743225H.69898989Z"/>
<path id="font_2_2" d="M.28199769 .20405579C.2979889 .21907044 .33999635 .2520752 .35598756 .26608277 .41799928 .32312013 .47698976 .3781433 .47698976 .46917726 .47698976 .588089 .3769989 .66503909 .2519989 .66503909 .13198853 .66503909 .052993776 .57411196 .052993776 .48516847 .052993776 .4361725 .09199524 .4291687 .10598755 .4291687 .1269989 .4291687 .1579895 .4441681 .1579895 .48217774 .1579895 .5341797 .10798645 .5341797 .09599304 .5341797 .125 .6070709 .19198609 .6320343 .24099732 .6320343 .33399964 .6320343 .38198854 .55314639 .38198854 .46917726 .38198854 .36514283 .30899049 .28910829 .19099427 .16804505L.06498718 .037994386C.052993776 .026992798 .052993776 .024993897 .052993776 0H.44799806L.47698976 .17904663H.44599916C.44299317 .1590271 .43499757 .10900879 .4229889 .08999634 .4169922 .08198547 .34098817 .08198547 .32499696 .08198547H.14698792L.28199769 .20405579Z"/>
<path id="font_2_1" d="M.31399537 .63708499C.31399537 .664032 .31199647 .66503909 .2849884 .66503909 .24398804 .6251831 .19099427 .6013489 .09599304 .6013489V.5683594C.12298584 .5683594 .1769867 .5683594 .23498535 .5953522V.08203125C.23498535 .04499817 .23199463 .032989503 .13699341 .032989503H.101989749V0C.14299011 .0029907227 .22898865 .0029907227 .27398683 .0029907227 .31900025 .0029907227 .4059906 .0029907227 .44699098 0V.032989503H.4119873C.31698609 .032989503 .31399537 .04499817 .31399537 .08203125V.63708499Z"/>
<path id="font_3_2" d="M.3849945 .36080934C.45899964 .39382936 .5149994 .4428711 .5149994 .51493838 .5149994 .61302188 .4099884 .66503909 .30599977 .66503909 .19299317 .66503909 .09498596 .5970001 .09498596 .49591065 .09498596 .4338684 .13598633 .38581849 .17799378 .36080934 .18798828 .35479737 .21199036 .34178163 .22200012 .3357849 .1559906 .3107605 .06298828 .25471498 .06298828 .15362549 .06298828 .03652954 .18798828-.021484375 .3039856-.021484375 .43699647-.021484375 .5469971 .058547975 .5469971 .16964722 .5469971 .23869324 .5049896 .27973939 .48999024 .29475404 .47099305 .3127594 .42099 .3407898 .3849945 .36080934M.20399475 .45988465C.20199585 .46089173 .15098572 .48890687 .15098572 .5349579 .15098572 .6000061 .22999573 .6320343 .3039856 .6320343 .38198854 .6320343 .45899964 .58898928 .45899964 .5139313 .45899964 .4368744 .37599183 .39582826 .34799195 .38182069L.20399475 .45988465M.2619934 .3147583C.272995 .3087616 .37998963 .248703 .40699769 .23469544 .42799378 .22167969 .48298646 .19166565 .48298646 .13461304 .48298646 .055541994 .3909912 .014511108 .30599977 .014511108 .21299744 .014511108 .1269989 .06855774 .1269989 .15362549 .1269989 .23869324 .20698548 .29475404 .2619934 .3147583Z"/>
<path id="font_3_1" d="M.16999817 .5549774C.20298767 .54599 .23799134 .5419922 .27198792 .5419922 .2939911 .5419922 .34999085 .5419922 .41299439 .5769806 .42999269 .58699038 .49198915 .6279907 .49198915 .6490326 .49198915 .6620331 .48199464 .66503909 .47799684 .66503909 .47499085 .66503909 .47399903 .66503909 .46299745 .661026 .4269867 .6470337 .37599183 .63298037 .31098939 .63298037 .2619934 .63298037 .20799256 .64201357 .16299439 .6590271 .15299988 .6630249 .14898682 .66503909 .14498902 .66503909 .1309967 .66503909 .1309967 .6540375 .1309967 .6380005V.33787538C.1309967 .32086183 .1309967 .30885316 .14898682 .30885316 .1579895 .30885316 .16099549 .31285096 .16799927 .32086183 .19299317 .35289 .23699951 .38693238 .31498719 .38693238 .43798829 .38693238 .43798829 .23677063 .43798829 .20472718 .43798829 .16567993 .43499757 .10961914 .4019928 .068573 .37098695 .030532837 .32499696 .014511108 .28199769 .014511108 .21299744 .014511108 .14399719 .05255127 .11999512 .11061096 .16899109 .11161804 .1749878 .15066529 .1749878 .16267395 .1749878 .18971253 .1539917 .21372986 .12298584 .21372986 .11399841 .21372986 .07199097 .20872498 .07199097 .15867615 .07199097 .0665741 .15899658-.021484375 .2849884-.021484375 .42199708-.021484375 .5379944 .07557678 .5379944 .20072937 .5379944 .31484986 .44599916 .4189453 .31698609 .4189453 .2519989 .4189453 .20199585 .39793397 .16999817 .37091065V.5549774Z"/>
<path id="font_4_121" d="M.4889984 .31877137C.4889984 .42585755 .47799684 .49090577 .44499208 .55496218 .40098573 .6430359 .31999208 .66503909 .2649994 .66503909 .13899231 .66503909 .09298706 .5709839 .07899475 .5429535 .042999269 .4698944 .040985109 .3708191 .040985109 .31877137 .040985109 .25271607 .04399109 .15162659 .09199524 .07156372 .13798523-.0024871827 .21199036-.021484375 .2649994-.021484375 .31298829-.021484375 .39898683-.0064849855 .44898988 .09257507 .48599244 .16464234 .4889984 .2537079 .4889984 .31877137M.3999939 .33078004C.3999939 .27172853 .3999939 .18165589 .3880005 .12561035 .36698915 .020523072 .2979889 .006515503 .2649994 .006515503 .23098755 .006515503 .1619873 .022521973 .14099121 .12760926 .12998963 .18466187 .12998963 .2787323 .12998963 .33078004 .12998963 .3998413 .12998963 .4698944 .14099121 .5249481 .1619873 .6270294 .23999024 .6370239 .2649994 .6370239 .29899598 .6370239 .36799623 .62002566 .3880005 .5289459 .3999939 .4738922 .3999939 .39883424 .3999939 .33078004Z"/>
<path id="font_5_1" d="M.33399964 .30233766C.33999635 .32835389 .36299134 .42037965 .43299867 .42037965 .43798829 .42037965 .46199037 .42037965 .48298646 .40734864 .45498658 .402359 .43499757 .37734986 .43499757 .35334779 .43499757 .33735658 .44599916 .31835938 .47299195 .31835938 .49499513 .31835938 .5269928 .3363495 .5269928 .37635804 .5269928 .42837525 .46798707 .4423828 .43399049 .4423828 .37599183 .4423828 .34098817 .38935853 .32899476 .36634828 .3039856 .43237306 .25 .4423828 .22099304 .4423828 .116989139 .4423828 .05999756 .3133545 .05999756 .28834535 .05999756 .27833558 .069992069 .27833558 .07199097 .27833558 .07998657 .27833558 .08299255 .28033448 .084991458 .28933717 .11898804 .39535523 .18499756 .42037965 .21899414 .42037965 .23799134 .42037965 .272995 .4113617 .272995 .35334779 .272995 .32235719 .2559967 .25532533 .21899414 .11528015 .20298767 .053268434 .16799927 .011245728 .12399292 .011245728 .117996219 .011245728 .09498596 .011245728 .07398987 .024276734 .09899902 .029266358 .12098694 .05027771 .12098694 .07827759 .12098694 .105270389 .09899902 .11328125 .083999637 .11328125 .053985597 .11328125 .0289917 .08728027 .0289917 .055267335 .0289917 .009246826 .07899475-.0107421879 .12298584-.0107421879 .18899536-.0107421879 .22499085 .059280397 .22799683 .0652771 .23999024 .028274537 .27598573-.0107421879 .33599855-.0107421879 .43899537-.0107421879 .49598695 .118270877 .49598695 .14328003 .49598695 .1532898 .4869995 .1532898 .48399354 .1532898 .47499085 .1532898 .47299195 .14929199 .47099305 .14228821 .43798829 .03527832 .36999513 .011245728 .33799745 .011245728 .29899598 .011245728 .2829895 .043273927 .2829895 .07727051 .2829895 .09927368 .2889862 .121276859 .2999878 .16529846L.33399964 .30233766Z"/>
</defs>
<path transform="matrix(1,0,0,-1.00006,30.520003,32.473146)" stroke-width=".79701" stroke-linecap="butt" stroke-miterlimit="10" stroke-linejoin="miter" fill="none" stroke="#929292" d="M0 26.92972V29.76453M19.37187 26.92972V29.76453M38.74376 26.92972V29.76453M58.11563 26.92972V29.76453M77.48752 26.92972V29.76453M96.85939 26.92972V29.76453M116.23128 26.92972V29.76453M135.60317 26.92972V29.76453M154.97504 26.92972V29.76453M174.34693 26.92972V29.76453M193.7188 26.92972V29.76453M213.09069 26.92972V29.76453M232.46257 26.92972V29.76453M251.83444 26.92972V29.76453M271.20634 26.92972V29.76453M290.5782 26.92972V29.76453"/>
<path transform="matrix(1,0,0,-1.00006,30.520003,32.473146)" stroke-width=".79701" stroke-linecap="butt" stroke-miterlimit="10" stroke-linejoin="miter" fill="none" stroke="#929292" d="M0 26.22124V30.47299M96.85939 26.22124V30.47299M290.5782 26.22124V30.47299"/>
<path transform="matrix(1,0,0,-1.00006,30.520003,32.473146)" stroke-width=".3985" stroke-linecap="butt" stroke-miterlimit="10" stroke-linejoin="miter" fill="none" stroke="#000000" d="M-29.05957 28.34712H317.64527"/>
<path transform="matrix(1,0,0,-1.00006,348.16526,4.124325)" d="M1.99252 0-1.19551 1.59401 0 0-1.19551-1.59401"/>
<use data-text="&#x2212;" xlink:href="#font_1_1" transform="matrix(7.9701,0,0,-7.9705779,25.110003,14.907089)"/>
<use data-text="2" xlink:href="#font_2_2" transform="matrix(7.9701,0,0,-7.9705779,31.697,14.907089)"/>
<use data-text="&#x2212;" xlink:href="#font_1_1" transform="matrix(7.9701,0,0,-7.9705779,121.969,14.907089)"/>
<use data-text="1" xlink:href="#font_2_1" transform="matrix(7.9701,0,0,-7.9705779,128.556,14.907089)"/>
<use data-text="1" xlink:href="#font_2_1" transform="matrix(7.9701,0,0,-7.9705779,318.981,14.907089)"/>
<path transform="matrix(1,0,0,-1.00006,30.520003,32.473146)" stroke-width=".79701" stroke-linecap="butt" stroke-miterlimit="10" stroke-linejoin="miter" fill="none" stroke="#929292" d="M38.74376 26.22124V30.47299"/>
<use data-text="&#x2212;" xlink:href="#font_1_1" transform="matrix(7.9701,0,0,-7.9705779,62.948007,16.88121)"/>
<use data-text="8" xlink:href="#font_3_2" transform="matrix(5.9776,0,0,-5.9779589,70.73,13.622013)"/>
<path transform="matrix(1,0,0,-1.00006,15.229002,-44.739488)" stroke-width=".3587" stroke-linecap="butt" stroke-miterlimit="10" stroke-linejoin="miter" fill="none" stroke="#000000" d="M55.501-59.624H59.154"/>
<use data-text="5" xlink:href="#font_3_1" transform="matrix(5.9776,0,0,-5.9779589,70.73,20.006394)"/>
<use data-text="0" xlink:href="#font_4_121" transform="matrix(7.9701,0,0,-7.9705779,222.12299,15.071102)"/>
<use data-text="x" xlink:href="#font_5_1" transform="matrix(9.9626,0,0,-9.963197,347.28199,11.936913)"/>
</svg>
