<svg xmlns="http://www.w3.org/2000/svg" xmlns:xlink="http://www.w3.org/1999/xlink" version="1.1" width="242" height="210" viewBox="0 0 242 210">
<defs>
<path id="font_1_1" d="M.69898989 .22743225C.71499636 .22743225 .7369995 .22743225 .7369995 .25042726 .7369995 .2734375 .71499636 .2734375 .69898989 .2734375H.12599182C.10998535 .2734375 .08799744 .2734375 .08799744 .25042726 .08799744 .22743225 .10998535 .22743225 .12599182 .22743225H.69898989Z"/>
<path id="font_2_4" d="M.13999939 .5618439C.15299988 .55784609 .19299317 .54785159 .23498535 .54785159 .3600006 .54785159 .43598939 .6358948 .43598939 .6510315 .43598939 .6620331 .42900086 .66503909 .42399598 .66503909 .42199708 .66503909 .41999818 .66503909 .41099549 .6600342 .37199403 .6450348 .32598878 .632843 .27198792 .632843 .21299744 .632843 .1639862 .6480255 .1329956 .6600342 .12298584 .66503909 .12098694 .66503909 .11999512 .66503909 .10699463 .66503909 .10699463 .6540375 .10699463 .6358948V.34292604C.10699463 .32492066 .10699463 .312912 .12298584 .312912 .1309967 .312912 .13398743 .3169098 .13899231 .32492066 .15098572 .33992005 .18899536 .39093019 .27398683 .39093019 .32998658 .39093019 .35699464 .34492494 .3659973 .32591249 .3829956 .28990174 .3849945 .24389649 .3849945 .20487976 .3849945 .1678772 .38398744 .11387634 .35598756 .069732669 .33699037 .039611818 .29699708 .008514404 .24398804 .008514404 .1789856 .008514404 .114990238 .0496521 .09199524 .11488342 .09498596 .11387634 .100997928 .11387634 .101989749 .11387634 .12998963 .11387634 .1519928 .13188172 .1519928 .16288758 .1519928 .19989014 .12298584 .21289063 .102996829 .21289063 .084991458 .21289063 .052993776 .20288086 .052993776 .15988159 .052993776 .069732669 .1309967-.021484375 .24598694-.021484375 .37098695-.021484375 .47698976 .07574463 .47698976 .19989014 .47698976 .31591798 .3929901 .4189453 .2749939 .4189453 .22499085 .4189453 .17799378 .40293885 .13999939 .368927V.5618439Z"/>
<path id="font_2_2" d="M.31399537 .63708499C.31399537 .664032 .31199647 .66503909 .2849884 .66503909 .24398804 .6251831 .19099427 .6013489 .09599304 .6013489V.5683594C.12298584 .5683594 .1769867 .5683594 .23498535 .5953522V.08203125C.23498535 .04499817 .23199463 .032989503 .13699341 .032989503H.101989749V0C.14299011 .0029907227 .22898865 .0029907227 .27398683 .0029907227 .31900025 .0029907227 .4059906 .0029907227 .44699098 0V.032989503H.4119873C.31698609 .032989503 .31399537 .04499817 .31399537 .08203125V.63708499Z"/>
<path id="font_2_1" d="M.4889984 .31877137C.4889984 .42585755 .47799684 .49090577 .44499208 .55496218 .40098573 .6430359 .31999208 .66503909 .2649994 .66503909 .13899231 .66503909 .09298706 .5709839 .07899475 .5429535 .042999269 .4698944 .040985109 .3708191 .040985109 .31877137 .040985109 .25271607 .04399109 .15162659 .09199524 .07156372 .13798523-.0024871827 .21199036-.021484375 .2649994-.021484375 .31298829-.021484375 .39898683-.0064849855 .44898988 .09257507 .48599244 .16464234 .4889984 .2537079 .4889984 .31877137M.2649994 .006515503C.23098755 .006515503 .1619873 .022521973 .14099121 .12760926 .12998963 .18466187 .12998963 .2787323 .12998963 .33078004 .12998963 .3998413 .12998963 .4698944 .14099121 .5249481 .1619873 .6270294 .23999024 .6370239 .2649994 .6370239 .29899598 .6370239 .36799623 .62002566 .3880005 .5289459 .3999939 .4738922 .3999939 .39883424 .3999939 .33078004 .3999939 .27172853 .3999939 .18165589 .3880005 .12561035 .36698915 .020523072 .2979889 .006515503 .2649994 .006515503Z"/>
<path id="font_2_3" d="M.28199769 .20405579C.2979889 .21907044 .33999635 .2520752 .35598756 .26608277 .41799928 .32312013 .47698976 .3781433 .47698976 .46917726 .47698976 .588089 .3769989 .66503909 .2519989 .66503909 .13198853 .66503909 .052993776 .57411196 .052993776 .48516847 .052993776 .4361725 .09199524 .4291687 .10598755 .4291687 .1269989 .4291687 .1579895 .4441681 .1579895 .48217774 .1579895 .5341797 .10798645 .5341797 .09599304 .5341797 .125 .6070709 .19198609 .6320343 .24099732 .6320343 .33399964 .6320343 .38198854 .55314639 .38198854 .46917726 .38198854 .36514283 .30899049 .28910829 .19099427 .16804505L.06498718 .037994386C.052993776 .026992798 .052993776 .024993897 .052993776 0H.44799806L.47698976 .17904663H.44599916C.44299317 .1590271 .43499757 .10900879 .4229889 .08999634 .4169922 .08198547 .34098817 .08198547 .32499696 .08198547H.14698792L.28199769 .20405579Z"/>
<clipPath id="clip_3">
<path transform="matrix(1.00003,0,0,-1.00002,1.4615555,208.02257)" d="M0 0H239.10584V206.22396H0Z"/>
</clipPath>
<path id="font_4_1" d="M.33399964 .30233766C.33999635 .32835389 .36299134 .42037965 .43299867 .42037965 .43798829 .42037965 .46199037 .42037965 .48298646 .40734864 .45498658 .402359 .43499757 .37734986 .43499757 .35334779 .43499757 .33735658 .44599916 .31835938 .47299195 .31835938 .49499513 .31835938 .5269928 .3363495 .5269928 .37635804 .5269928 .42837525 .46798707 .4423828 .43399049 .4423828 .37599183 .4423828 .34098817 .38935853 .32899476 .36634828 .3039856 .43237306 .25 .4423828 .22099304 .4423828 .116989139 .4423828 .05999756 .3133545 .05999756 .28834535 .05999756 .27833558 .069992069 .27833558 .07199097 .27833558 .07998657 .27833558 .08299255 .28033448 .084991458 .28933717 .11898804 .39535523 .18499756 .42037965 .21899414 .42037965 .23799134 .42037965 .272995 .4113617 .272995 .35334779 .272995 .32235719 .2559967 .25532533 .21899414 .11528015 .20298767 .053268434 .16799927 .011245728 .12399292 .011245728 .117996219 .011245728 .09498596 .011245728 .07398987 .024276734 .09899902 .029266358 .12098694 .05027771 .12098694 .07827759 .12098694 .105270389 .09899902 .11328125 .083999637 .11328125 .053985597 .11328125 .0289917 .08728027 .0289917 .055267335 .0289917 .009246826 .07899475-.0107421879 .12298584-.0107421879 .18899536-.0107421879 .22499085 .059280397 .22799683 .0652771 .23999024 .028274537 .27598573-.0107421879 .33599855-.0107421879 .43899537-.0107421879 .49598695 .118270877 .49598695 .14328003 .49598695 .1532898 .4869995 .1532898 .48399354 .1532898 .47499085 .1532898 .47299195 .14929199 .47099305 .14228821 .43798829 .03527832 .36999513 .011245728 .33799745 .011245728 .29899598 .011245728 .2829895 .043273927 .2829895 .07727051 .2829895 .09927368 .2889862 .121276859 .2999878 .16529846L.33399964 .30233766Z"/>
<path id="font_4_2" d="M.48599244 .38136292C.48999024 .39537049 .48999024 .39736939 .48999024 .40437318 .48999024 .42237855 .47599793 .43138124 .46099855 .43138124 .45098878 .43138124 .43499757 .42536927 .42599488 .41036988 .42399598 .405365 .41600038 .37435914 .4119873 .35635377 .40499879 .33035279 .397995 .30334474 .3919983 .27633668L.34700013 .09628296C.34298707 .08126831 .2999878 .011245728 .23399353 .011245728 .18299866 .011245728 .17199707 .055267335 .17199707 .0922699 .17199707 .1382904 .18899536 .20030213 .22299195 .28833009 .23899842 .3293457 .24299622 .3403473 .24299622 .36035157 .24299622 .405365 .21099854 .4423828 .16099549 .4423828 .06599426 .4423828 .0289917 .29733277 .0289917 .28833009 .0289917 .27833558 .038986207 .27833558 .040985109 .27833558 .050994874 .27833558 .051986696 .28033448 .056991579 .29634095 .083999637 .3903656 .12399292 .42037965 .1579895 .42037965 .1659851 .42037965 .18299866 .42037965 .18299866 .3883667 .18299866 .36335755 .17298889 .3373413 .1659851 .31834413 .12599182 .21231079 .10798645 .1552887 .10798645 .10827637 .10798645 .019256592 .17098999-.0107421879 .22999573-.0107421879 .2689972-.0107421879 .30299378 .0062561037 .33099366 .03425598 .31799317-.017745972 .30599977-.06674194 .2659912-.11973572 .23999024-.15385437 .20199585-.18309021 .1559906-.18309021 .14199829-.18309021 .09700012-.18005371 .07998657-.14074707 .09599304-.14074707 .10899353-.14074707 .12298584-.1287384 .1329956-.11973572 .14299011-.10673523 .14299011-.08773804 .14299011-.056747438 .115997318-.052734376 .10598755-.052734376 .08299255-.052734376 .049987794-.068740848 .049987794-.11773682 .049987794-.16796875 .09399414-.20507813 .1559906-.20507813 .25898744-.20507813 .3619995-.11373901 .3899994-.00074768069L.48599244 .38136292Z"/>
</defs>
<path transform="matrix(1.00003,0,0,-1.00002,1.4615555,208.02257)" d="M0 0H239.10584V206.22396H0Z" fill="#fffac2"/>
<path transform="matrix(1.00003,0,0,-1.00002,1.4615555,208.02257)" stroke-width=".3985" stroke-linecap="butt" stroke-miterlimit="10" stroke-linejoin="miter" fill="none" stroke="#d5d6d5" d="M0 0V206.22396M11.95529 0V206.22396M23.91058 0V206.22396M35.86588 0V206.22396M47.82117 0V206.22396M59.77646 0V206.22396M71.73175 0V206.22396M83.68704 0V206.22396M95.64233 0V206.22396M107.59763 0V206.22396M119.55292 0V206.22396M131.50821 0V206.22396M143.4635 0V206.22396M155.4188 0V206.22396M167.37409 0V206.22396M179.32938 0V206.22396M191.28467 0V206.22396M203.23996 0V206.22396M215.19525 0V206.22396M227.15055 0V206.22396M239.10584 0V206.22396"/>
<path transform="matrix(1.00003,0,0,-1.00002,1.4615555,208.02257)" stroke-width=".3985" stroke-linecap="butt" stroke-miterlimit="10" stroke-linejoin="miter" fill="none" stroke="#d5d6d5" d="M59.77646 0V206.22396M179.32938 0V206.22396"/>
<path transform="matrix(1.00003,0,0,-1.00002,1.4615555,208.02257)" stroke-width=".3985" stroke-linecap="butt" stroke-miterlimit="10" stroke-linejoin="miter" fill="none" stroke="#d5d6d5" d="M0 0H239.10584M0 5.1556H239.10584M0 10.31119H239.10584M0 15.46678H239.10584M0 20.62239H239.10584M0 25.77798H239.10584M0 30.93358H239.10584M0 36.08919H239.10584M0 41.24478H239.10584M0 46.40038H239.10584M0 51.55598H239.10584M0 56.71158H239.10584M0 61.86717H239.10584M0 67.02278H239.10584M0 72.17838H239.10584M0 77.33397H239.10584M0 82.48958H239.10584M0 87.64517H239.10584M0 92.80077H239.10584M0 97.95638H239.10584M0 103.11197H239.10584M0 108.26756H239.10584M0 113.42317H239.10584M0 118.57877H239.10584M0 123.73436H239.10584M0 128.88997H239.10584M0 134.04557H239.10584M0 139.20116H239.10584M0 144.35677H239.10584M0 149.51236H239.10584M0 154.66796H239.10584M0 159.82357H239.10584M0 164.97916H239.10584M0 170.13475H239.10584M0 175.29036H239.10584M0 180.44596H239.10584M0 185.60155H239.10584M0 190.75716H239.10584M0 195.91275H239.10584M0 201.06835H239.10584M0 206.22396H239.10584"/>
<path transform="matrix(1.00003,0,0,-1.00002,1.4615555,208.02257)" stroke-width=".3985" stroke-linecap="butt" stroke-miterlimit="10" stroke-linejoin="miter" fill="none" stroke="#d5d6d5" d="M0 25.77798H239.10584M0 77.33397H239.10584M0 103.11197H239.10584M0 128.88997H239.10584M0 154.66796H239.10584M0 180.44596H239.10584"/>
<path transform="matrix(1.00003,0,0,-1.00002,1.4615555,208.02257)" stroke-width=".19925" stroke-linecap="butt" stroke-miterlimit="10" stroke-linejoin="miter" fill="none" stroke="#929292" d="M0 50.13857V52.9734M11.95529 50.13857V52.9734M23.91058 50.13857V52.9734M35.86588 50.13857V52.9734M47.82117 50.13857V52.9734M59.77646 50.13857V52.9734M71.73175 50.13857V52.9734M83.68704 50.13857V52.9734M95.64233 50.13857V52.9734M107.59763 50.13857V52.9734M119.55292 50.13857V52.9734M131.50821 50.13857V52.9734M143.4635 50.13857V52.9734M155.4188 50.13857V52.9734M167.37409 50.13857V52.9734M179.32938 50.13857V52.9734M191.28467 50.13857V52.9734M203.23996 50.13857V52.9734M215.19525 50.13857V52.9734M227.15055 50.13857V52.9734M239.10584 50.13857V52.9734"/>
<path transform="matrix(1.00003,0,0,-1.00002,1.4615555,208.02257)" stroke-width=".19925" stroke-linecap="butt" stroke-miterlimit="10" stroke-linejoin="miter" fill="none" stroke="#929292" d="M59.77646 49.43007V53.68187M179.32938 49.43007V53.68187"/>
<path transform="matrix(1.00003,0,0,-1.00002,1.4615555,208.02257)" stroke-width=".19925" stroke-linecap="butt" stroke-miterlimit="10" stroke-linejoin="miter" fill="none" stroke="#929292" d="M118.13557 0H120.97025M118.13557 5.1556H120.97025M118.13557 10.31119H120.97025M118.13557 15.46678H120.97025M118.13557 20.62239H120.97025M118.13557 25.77798H120.97025M118.13557 30.93358H120.97025M118.13557 36.08919H120.97025M118.13557 41.24478H120.97025M118.13557 46.40038H120.97025M118.13557 51.55598H120.97025M118.13557 56.71158H120.97025M118.13557 61.86717H120.97025M118.13557 67.02278H120.97025M118.13557 72.17838H120.97025M118.13557 77.33397H120.97025M118.13557 82.48958H120.97025M118.13557 87.64517H120.97025M118.13557 92.80077H120.97025M118.13557 97.95638H120.97025M118.13557 103.11197H120.97025M118.13557 108.26756H120.97025M118.13557 113.42317H120.97025M118.13557 118.57877H120.97025M118.13557 123.73436H120.97025M118.13557 128.88997H120.97025M118.13557 134.04557H120.97025M118.13557 139.20116H120.97025M118.13557 144.35677H120.97025M118.13557 149.51236H120.97025M118.13557 154.66796H120.97025M118.13557 159.82357H120.97025M118.13557 164.97916H120.97025M118.13557 170.13475H120.97025M118.13557 175.29036H120.97025M118.13557 180.44596H120.97025M118.13557 185.60155H120.97025M118.13557 190.75716H120.97025M118.13557 195.91275H120.97025M118.13557 201.06835H120.97025M118.13557 206.22396H120.97025"/>
<path transform="matrix(1.00003,0,0,-1.00002,1.4615555,208.02257)" stroke-width=".19925" stroke-linecap="butt" stroke-miterlimit="10" stroke-linejoin="miter" fill="none" stroke="#929292" d="M117.42708 25.77798H121.67873M117.42708 77.33397H121.67873M117.42708 103.11197H121.67873M117.42708 128.88997H121.67873M117.42708 154.66796H121.67873M117.42708 180.44596H121.67873"/>
<path transform="matrix(1.00003,0,0,-1.00002,1.4615555,208.02257)" stroke-width=".3985" stroke-linecap="butt" stroke-miterlimit="10" stroke-linejoin="miter" fill="none" stroke="#000000" d="M1.99252 51.55598H237.11331"/>
<path transform="matrix(-1.00003,-0,0,1.00002,3.4541355,156.46555)" d="M1.99252 0-1.19551 1.59401 0 0-1.19551-1.59401"/>
<path transform="matrix(1.00003,0,0,-1.00002,238.582,156.46555)" d="M1.99252 0-1.19551 1.59401 0 0-1.19551-1.59401"/>
<path transform="matrix(1.00003,0,0,-1.00002,1.4615555,208.02257)" stroke-width=".3985" stroke-linecap="butt" stroke-miterlimit="10" stroke-linejoin="miter" fill="none" stroke="#000000" d="M119.55292 1.99252V204.23143"/>
<path transform="matrix(0,1.00002,1.00003,0,121.01807,206.03002)" d="M1.99252 0-1.19551 1.59401 0 0-1.19551-1.59401"/>
<path transform="matrix(0,-1.00002,-1.00003,-0,121.01807,3.7870484)" d="M1.99252 0-1.19551 1.59401 0 0-1.19551-1.59401"/>
<use data-text="&#x2212;" xlink:href="#font_1_1" transform="matrix(7.9703395,0,0,-7.9702599,55.82919,167.24776)"/>
<use data-text="5" xlink:href="#font_2_4" transform="matrix(7.9703395,0,0,-7.9702599,62.41639,167.24776)"/>
<use data-text="5" xlink:href="#font_2_4" transform="matrix(7.9703395,0,0,-7.9702599,178.6789,167.24776)"/>
<use data-text="&#x2212;" xlink:href="#font_1_1" transform="matrix(7.9703395,0,0,-7.9702599,106.4417,184.3971)"/>
<use data-text="5" xlink:href="#font_2_4" transform="matrix(7.9703395,0,0,-7.9702599,113.0289,184.3971)"/>
<use data-text="5" xlink:href="#font_2_4" transform="matrix(7.9703395,0,0,-7.9702599,113.02891,133.25507)"/>
<use data-text="1" xlink:href="#font_2_2" transform="matrix(7.9703395,0,0,-7.9702599,108.793788,107.476558)"/>
<use data-text="0" xlink:href="#font_2_1" transform="matrix(7.9703395,0,0,-7.9702599,113.02604,107.476558)"/>
<use data-text="1" xlink:href="#font_2_2" transform="matrix(7.9703395,0,0,-7.9702599,108.793788,81.698047)"/>
<use data-text="5" xlink:href="#font_2_4" transform="matrix(7.9703395,0,0,-7.9702599,113.02604,81.698047)"/>
<use data-text="2" xlink:href="#font_2_3" transform="matrix(7.9703395,0,0,-7.9702599,108.793788,55.91951)"/>
<use data-text="0" xlink:href="#font_2_1" transform="matrix(7.9703395,0,0,-7.9702599,113.02604,55.91951)"/>
<use data-text="2" xlink:href="#font_2_3" transform="matrix(7.9703395,0,0,-7.9702599,108.793788,30.141007)"/>
<use data-text="5" xlink:href="#font_2_4" transform="matrix(7.9703395,0,0,-7.9702599,113.02604,30.141007)"/>
<g clip-path="url(#clip_3)">
<path transform="matrix(1.00003,0,0,-1.00002,1.4615555,208.02257)" stroke-width=".99628" stroke-linecap="butt" stroke-miterlimit="10" stroke-linejoin="miter" fill="none" stroke="#9e0c0f" d="M74.39111 8.09894 78.62994 28.82536 84.5239 55.13962 90.41785 78.94778 96.31181 100.2499 102.20576 119.04582 108.09973 135.33565 113.99368 149.11934 119.88763 160.3969 125.7816 169.16835 131.67555 175.43369 137.56952 179.19289 143.46347 180.44596 149.35742 179.1929 155.25139 175.43372 161.14534 169.16841 167.0393 160.39693 172.93326 149.11943 178.82721 135.33573 184.72118 119.04593 190.61513 100.25003 196.5091 78.94795 202.40306 55.13966 208.29701 28.82538 212.53583 8.09898"/>
<path transform="matrix(-.20033603,.9796996,.97970947,.20033401,75.99605,199.23328)" d="M7.39124 0 2.37614 1.6717 .70447 0 2.37614-1.6717Z" fill="#9e0c0f"/>
<path transform="matrix(-.20033603,.9796996,.97970947,.20033401,75.99605,199.23328)" stroke-width=".99628" stroke-linecap="butt" stroke-miterlimit="10" stroke-linejoin="miter" fill="none" stroke="#9e0c0f" d="M7.39124 0 2.37614 1.6717 .70447 0 2.37614-1.6717Z"/>
<path transform="matrix(.20033603,.9796996,.97970947,-.20033401,213.86264,199.23325)" d="M7.39124 0 2.37614 1.6717 .70447 0 2.37614-1.6717Z" fill="#9e0c0f"/>
<path transform="matrix(.20033603,.9796996,.97970947,-.20033401,213.86264,199.23325)" stroke-width=".99628" stroke-linecap="butt" stroke-miterlimit="10" stroke-linejoin="miter" fill="none" stroke="#9e0c0f" d="M7.39124 0 2.37614 1.6717 .70447 0 2.37614-1.6717Z"/>
</g>
<path transform="matrix(1.00003,0,0,-1.00002,1.4615555,208.02257)" d="M205.23252 51.55598C205.23252 52.65645 204.34043 53.54854 203.23996 53.54854 202.13948 53.54854 201.2474 52.65645 201.2474 51.55598 201.2474 50.4555 202.13948 49.56343 203.23996 49.56343 204.34043 49.56343 205.23252 50.4555 205.23252 51.55598ZM203.23996 51.55598" fill="#9e0c0f"/>
<path transform="matrix(1.00003,0,0,-1.00002,1.4615555,208.02257)" stroke-width=".3985" stroke-linecap="butt" stroke-miterlimit="10" stroke-linejoin="miter" fill="none" stroke="#9e0c0f" d="M205.23252 51.55598C205.23252 52.65645 204.34043 53.54854 203.23996 53.54854 202.13948 53.54854 201.2474 52.65645 201.2474 51.55598 201.2474 50.4555 202.13948 49.56343 203.23996 49.56343 204.34043 49.56343 205.23252 50.4555 205.23252 51.55598ZM203.23996 51.55598"/>
<path transform="matrix(1.00003,0,0,-1.00002,1.4615555,208.02257)" d="M85.6796 51.55598C85.6796 52.65645 84.7875 53.54854 83.68704 53.54854 82.58656 53.54854 81.69449 52.65645 81.69449 51.55598 81.69449 50.4555 82.58656 49.56343 83.68704 49.56343 84.7875 49.56343 85.6796 50.4555 85.6796 51.55598ZM83.68704 51.55598" fill="#9e0c0f"/>
<path transform="matrix(1.00003,0,0,-1.00002,1.4615555,208.02257)" stroke-width=".3985" stroke-linecap="butt" stroke-miterlimit="10" stroke-linejoin="miter" fill="none" stroke="#9e0c0f" d="M85.6796 51.55598C85.6796 52.65645 84.7875 53.54854 83.68704 53.54854 82.58656 53.54854 81.69449 52.65645 81.69449 51.55598 81.69449 50.4555 82.58656 49.56343 83.68704 49.56343 84.7875 49.56343 85.6796 50.4555 85.6796 51.55598ZM83.68704 51.55598"/>
<path transform="matrix(1.00003,0,0,-1.00002,1.4615555,208.02257)" d="M121.54547 159.82357C121.54547 160.92403 120.65338 161.81612 119.55292 161.81612 118.45244 161.81612 117.56036 160.92403 117.56036 159.82357 117.56036 158.72309 118.45244 157.83101 119.55292 157.83101 120.65338 157.83101 121.54547 158.72309 121.54547 159.82357ZM119.55292 159.82357" fill="#9e0c0f"/>
<path transform="matrix(1.00003,0,0,-1.00002,1.4615555,208.02257)" stroke-width=".3985" stroke-linecap="butt" stroke-miterlimit="10" stroke-linejoin="miter" fill="none" stroke="#9e0c0f" d="M121.54547 159.82357C121.54547 160.92403 120.65338 161.81612 119.55292 161.81612 118.45244 161.81612 117.56036 160.92403 117.56036 159.82357 117.56036 158.72309 118.45244 157.83101 119.55292 157.83101 120.65338 157.83101 121.54547 158.72309 121.54547 159.82357ZM119.55292 159.82357"/>
<path transform="matrix(1.00003,0,0,-1.00002,1.4615555,208.02257)" d="M145.45606 180.44596C145.45606 181.54644 144.56397 182.4385 143.4635 182.4385 142.36302 182.4385 141.47095 181.54644 141.47095 180.44596 141.47095 179.34549 142.36302 178.4534 143.4635 178.4534 144.56397 178.4534 145.45606 179.34549 145.45606 180.44596ZM143.4635 180.44596" fill="#9e0c0f"/>
<path transform="matrix(1.00003,0,0,-1.00002,1.4615555,208.02257)" stroke-width=".3985" stroke-linecap="butt" stroke-miterlimit="10" stroke-linejoin="miter" fill="none" stroke="#9e0c0f" d="M145.45606 180.44596C145.45606 181.54644 144.56397 182.4385 143.4635 182.4385 142.36302 182.4385 141.47095 181.54644 141.47095 180.44596 141.47095 179.34549 142.36302 178.4534 143.4635 178.4534 144.56397 178.4534 145.45606 179.34549 145.45606 180.44596ZM143.4635 180.44596"/>
<path transform="matrix(1.00003,0,0,-1.00002,1.4615555,208.02257)" d="M169.36664 159.82357C169.36664 160.92403 168.47455 161.81612 167.37409 161.81612 166.2736 161.81612 165.38153 160.92403 165.38153 159.82357 165.38153 158.72309 166.2736 157.83101 167.37409 157.83101 168.47455 157.83101 169.36664 158.72309 169.36664 159.82357ZM167.37409 159.82357" fill="#9e0c0f"/>
<path transform="matrix(1.00003,0,0,-1.00002,1.4615555,208.02257)" stroke-width=".3985" stroke-linecap="butt" stroke-miterlimit="10" stroke-linejoin="miter" fill="none" stroke="#9e0c0f" d="M169.36664 159.82357C169.36664 160.92403 168.47455 161.81612 167.37409 161.81612 166.2736 161.81612 165.38153 160.92403 165.38153 159.82357 165.38153 158.72309 166.2736 157.83101 167.37409 157.83101 168.47455 157.83101 169.36664 158.72309 169.36664 159.82357ZM167.37409 159.82357"/>
<path transform="matrix(1.00003,0,0,-1.00002,1.4615555,208.02257)" stroke-width=".3985" stroke-linecap="butt" stroke-miterlimit="10" stroke-linejoin="miter" fill="none" stroke="#9e0c0f" d=""/>
<use data-text="x" xlink:href="#font_4_1" transform="matrix(9.962899,0,0,-9.962799,231.36048,152.94547)"/>
<use data-text="y" xlink:href="#font_4_2" transform="matrix(9.962899,0,0,-9.962799,124.53825,9.603607)"/>
</svg>
