<svg xmlns="http://www.w3.org/2000/svg" xmlns:xlink="http://www.w3.org/1999/xlink" version="1.1" width="242" height="210" viewBox="0 0 242 210">
<defs>
<path id="font_1_1" d="M.69898989 .22743225C.71499636 .22743225 .7369995 .22743225 .7369995 .25042726 .7369995 .2734375 .71499636 .2734375 .69898989 .2734375H.12599182C.10998535 .2734375 .08799744 .2734375 .08799744 .25042726 .08799744 .22743225 .10998535 .22743225 .12599182 .22743225H.69898989Z"/>
<path id="font_2_1" d="M.13999939 .5618439C.15299988 .55784609 .19299317 .54785159 .23498535 .54785159 .3600006 .54785159 .43598939 .6358948 .43598939 .6510315 .43598939 .6620331 .42900086 .66503909 .42399598 .66503909 .42199708 .66503909 .41999818 .66503909 .41099549 .6600342 .37199403 .6450348 .32598878 .632843 .27198792 .632843 .21299744 .632843 .1639862 .6480255 .1329956 .6600342 .12298584 .66503909 .12098694 .66503909 .11999512 .66503909 .10699463 .66503909 .10699463 .6540375 .10699463 .6358948V.34292604C.10699463 .32492066 .10699463 .312912 .12298584 .312912 .1309967 .312912 .13398743 .3169098 .13899231 .32492066 .15098572 .33992005 .18899536 .39093019 .27398683 .39093019 .32998658 .39093019 .35699464 .34492494 .3659973 .32591249 .3829956 .28990174 .3849945 .24389649 .3849945 .20487976 .3849945 .1678772 .38398744 .11387634 .35598756 .069732669 .33699037 .039611818 .29699708 .008514404 .24398804 .008514404 .1789856 .008514404 .114990238 .0496521 .09199524 .11488342 .09498596 .11387634 .100997928 .11387634 .101989749 .11387634 .12998963 .11387634 .1519928 .13188172 .1519928 .16288758 .1519928 .19989014 .12298584 .21289063 .102996829 .21289063 .084991458 .21289063 .052993776 .20288086 .052993776 .15988159 .052993776 .069732669 .1309967-.021484375 .24598694-.021484375 .37098695-.021484375 .47698976 .07574463 .47698976 .19989014 .47698976 .31591798 .3929901 .4189453 .2749939 .4189453 .22499085 .4189453 .17799378 .40293885 .13999939 .368927V.5618439Z"/>
<clipPath id="clip_3">
<path transform="matrix(1.00003,0,0,-1.00003,1.4615555,208.02985)" d="M0 0H239.10584V206.22699H0Z"/>
</clipPath>
<path id="font_4_1" d="M.33399964 .30233766C.33999635 .32835389 .36299134 .42037965 .43299867 .42037965 .43798829 .42037965 .46199037 .42037965 .48298646 .40734864 .45498658 .402359 .43499757 .37734986 .43499757 .35334779 .43499757 .33735658 .44599916 .31835938 .47299195 .31835938 .49499513 .31835938 .5269928 .3363495 .5269928 .37635804 .5269928 .42837525 .46798707 .4423828 .43399049 .4423828 .37599183 .4423828 .34098817 .38935853 .32899476 .36634828 .3039856 .43237306 .25 .4423828 .22099304 .4423828 .116989139 .4423828 .05999756 .3133545 .05999756 .28834535 .05999756 .27833558 .069992069 .27833558 .07199097 .27833558 .07998657 .27833558 .08299255 .28033448 .084991458 .28933717 .11898804 .39535523 .18499756 .42037965 .21899414 .42037965 .23799134 .42037965 .272995 .4113617 .272995 .35334779 .272995 .32235719 .2559967 .25532533 .21899414 .11528015 .20298767 .053268434 .16799927 .011245728 .12399292 .011245728 .117996219 .011245728 .09498596 .011245728 .07398987 .024276734 .09899902 .029266358 .12098694 .05027771 .12098694 .07827759 .12098694 .105270389 .09899902 .11328125 .083999637 .11328125 .053985597 .11328125 .0289917 .08728027 .0289917 .055267335 .0289917 .009246826 .07899475-.0107421879 .12298584-.0107421879 .18899536-.0107421879 .22499085 .059280397 .22799683 .0652771 .23999024 .028274537 .27598573-.0107421879 .33599855-.0107421879 .43899537-.0107421879 .49598695 .118270877 .49598695 .14328003 .49598695 .1532898 .4869995 .1532898 .48399354 .1532898 .47499085 .1532898 .47299195 .14929199 .47099305 .14228821 .43798829 .03527832 .36999513 .011245728 .33799745 .011245728 .29899598 .011245728 .2829895 .043273927 .2829895 .07727051 .2829895 .09927368 .2889862 .121276859 .2999878 .16529846L.33399964 .30233766Z"/>
<path id="font_4_2" d="M.48599244 .38136292C.48999024 .39537049 .48999024 .39736939 .48999024 .40437318 .48999024 .42237855 .47599793 .43138124 .46099855 .43138124 .45098878 .43138124 .43499757 .42536927 .42599488 .41036988 .42399598 .405365 .41600038 .37435914 .4119873 .35635377 .40499879 .33035279 .397995 .30334474 .3919983 .27633668L.34700013 .09628296C.34298707 .08126831 .2999878 .011245728 .23399353 .011245728 .18299866 .011245728 .17199707 .055267335 .17199707 .0922699 .17199707 .1382904 .18899536 .20030213 .22299195 .28833009 .23899842 .3293457 .24299622 .3403473 .24299622 .36035157 .24299622 .405365 .21099854 .4423828 .16099549 .4423828 .06599426 .4423828 .0289917 .29733277 .0289917 .28833009 .0289917 .27833558 .038986207 .27833558 .040985109 .27833558 .050994874 .27833558 .051986696 .28033448 .056991579 .29634095 .083999637 .3903656 .12399292 .42037965 .1579895 .42037965 .1659851 .42037965 .18299866 .42037965 .18299866 .3883667 .18299866 .36335755 .17298889 .3373413 .1659851 .31834413 .12599182 .21231079 .10798645 .1552887 .10798645 .10827637 .10798645 .019256592 .17098999-.0107421879 .22999573-.0107421879 .2689972-.0107421879 .30299378 .0062561037 .33099366 .03425598 .31799317-.017745972 .30599977-.06674194 .2659912-.11973572 .23999024-.15385437 .20199585-.18309021 .1559906-.18309021 .14199829-.18309021 .09700012-.18005371 .07998657-.14074707 .09599304-.14074707 .10899353-.14074707 .12298584-.1287384 .1329956-.11973572 .14299011-.10673523 .14299011-.08773804 .14299011-.056747438 .115997318-.052734376 .10598755-.052734376 .08299255-.052734376 .049987794-.068740848 .049987794-.11773682 .049987794-.16796875 .09399414-.20507813 .1559906-.20507813 .25898744-.20507813 .3619995-.11373901 .3899994-.00074768069L.48599244 .38136292Z"/>
</defs>
<path transform="matrix(1.00003,0,0,-1.00003,1.4615555,208.02985)" d="M0 0H239.10584V206.22699H0Z" fill="#fffac2"/>
<path transform="matrix(1.00003,0,0,-1.00003,1.4615555,208.02985)" stroke-width=".3985" stroke-linecap="butt" stroke-miterlimit="10" stroke-linejoin="miter" fill="none" stroke="#d5d6d5" d="M0 0V206.22699M11.95529 0V206.22699M23.91058 0V206.22699M35.86588 0V206.22699M47.82117 0V206.22699M59.77646 0V206.22699M71.73175 0V206.22699M83.68704 0V206.22699M95.64233 0V206.22699M107.59763 0V206.22699M119.55292 0V206.22699M131.50821 0V206.22699M143.4635 0V206.22699M155.4188 0V206.22699M167.37409 0V206.22699M179.32938 0V206.22699M191.28467 0V206.22699M203.23996 0V206.22699M215.19525 0V206.22699M227.15055 0V206.22699M239.10584 0V206.22699"/>
<path transform="matrix(1.00003,0,0,-1.00003,1.4615555,208.02985)" stroke-width=".3985" stroke-linecap="butt" stroke-miterlimit="10" stroke-linejoin="miter" fill="none" stroke="#d5d6d5" d="M59.77646 0V206.22699M179.32938 0V206.22699"/>
<path transform="matrix(1.00003,0,0,-1.00003,1.4615555,208.02985)" stroke-width=".3985" stroke-linecap="butt" stroke-miterlimit="10" stroke-linejoin="miter" fill="none" stroke="#d5d6d5" d="M0 0H239.10584M0 10.31134H239.10584M0 20.6227H239.10584M0 30.93404H239.10584M0 41.24539H239.10584M0 51.55675H239.10584M0 61.86809H239.10584M0 72.17944H239.10584M0 82.4908H239.10584M0 92.80214H239.10584M0 103.1135H239.10584M0 113.42484H239.10584M0 123.73619H239.10584M0 134.04755H239.10584M0 144.35889H239.10584M0 154.67024H239.10584M0 164.9816H239.10584M0 175.29294H239.10584M0 185.6043H239.10584M0 195.91564H239.10584M0 206.22699H239.10584"/>
<path transform="matrix(1.00003,0,0,-1.00003,1.4615555,208.02985)" stroke-width=".3985" stroke-linecap="butt" stroke-miterlimit="10" stroke-linejoin="miter" fill="none" stroke="#d5d6d5" d="M0 51.55675H239.10584M0 154.67024H239.10584"/>
<path transform="matrix(1.00003,0,0,-1.00003,1.4615555,208.02985)" stroke-width=".19925" stroke-linecap="butt" stroke-miterlimit="10" stroke-linejoin="miter" fill="none" stroke="#929292" d="M0 101.69623V104.53076M11.95529 101.69623V104.53076M23.91058 101.69623V104.53076M35.86588 101.69623V104.53076M47.82117 101.69623V104.53076M59.77646 101.69623V104.53076M71.73175 101.69623V104.53076M83.68704 101.69623V104.53076M95.64233 101.69623V104.53076M107.59763 101.69623V104.53076M119.55292 101.69623V104.53076M131.50821 101.69623V104.53076M143.4635 101.69623V104.53076M155.4188 101.69623V104.53076M167.37409 101.69623V104.53076M179.32938 101.69623V104.53076M191.28467 101.69623V104.53076M203.23996 101.69623V104.53076M215.19525 101.69623V104.53076M227.15055 101.69623V104.53076M239.10584 101.69623V104.53076"/>
<path transform="matrix(1.00003,0,0,-1.00003,1.4615555,208.02985)" stroke-width=".19925" stroke-linecap="butt" stroke-miterlimit="10" stroke-linejoin="miter" fill="none" stroke="#929292" d="M59.77646 100.98778V105.23918M179.32938 100.98778V105.23918"/>
<path transform="matrix(1.00003,0,0,-1.00003,1.4615555,208.02985)" stroke-width=".19925" stroke-linecap="butt" stroke-miterlimit="10" stroke-linejoin="miter" fill="none" stroke="#929292" d="M118.13557 0H120.97025M118.13557 10.31134H120.97025M118.13557 20.6227H120.97025M118.13557 30.93404H120.97025M118.13557 41.24539H120.97025M118.13557 51.55675H120.97025M118.13557 61.86809H120.97025M118.13557 72.17944H120.97025M118.13557 82.4908H120.97025M118.13557 92.80214H120.97025M118.13557 103.1135H120.97025M118.13557 113.42484H120.97025M118.13557 123.73619H120.97025M118.13557 134.04755H120.97025M118.13557 144.35889H120.97025M118.13557 154.67024H120.97025M118.13557 164.9816H120.97025M118.13557 175.29294H120.97025M118.13557 185.6043H120.97025M118.13557 195.91564H120.97025M118.13557 206.22699H120.97025"/>
<path transform="matrix(1.00003,0,0,-1.00003,1.4615555,208.02985)" stroke-width=".19925" stroke-linecap="butt" stroke-miterlimit="10" stroke-linejoin="miter" fill="none" stroke="#929292" d="M117.42708 51.55675H121.67873M117.42708 154.67024H121.67873"/>
<path transform="matrix(1.00003,0,0,-1.00003,1.4615555,208.02985)" stroke-width=".3985" stroke-linecap="butt" stroke-miterlimit="10" stroke-linejoin="miter" fill="none" stroke="#000000" d="M1.99252 103.1135H237.11331"/>
<path transform="matrix(-1.00003,-0,0,1.00003,3.4541355,104.913249)" d="M1.99252 0-1.19551 1.59401 0 0-1.19551-1.59401"/>
<path transform="matrix(1.00003,0,0,-1.00003,238.582,104.913249)" d="M1.99252 0-1.19551 1.59401 0 0-1.19551-1.59401"/>
<path transform="matrix(1.00003,0,0,-1.00003,1.4615555,208.02985)" stroke-width=".3985" stroke-linecap="butt" stroke-miterlimit="10" stroke-linejoin="miter" fill="none" stroke="#000000" d="M119.55292 1.99252V204.23447"/>
<path transform="matrix(0,1.00003,1.00003,0,121.01807,206.03726)" d="M1.99252 0-1.19551 1.59401 0 0-1.19551-1.59401"/>
<path transform="matrix(0,-1.00003,-1.00003,-0,121.01807,3.7892457)" d="M1.99252 0-1.19551 1.59401 0 0-1.19551-1.59401"/>
<use data-text="&#x2212;" xlink:href="#font_1_1" transform="matrix(7.9703395,0,0,-7.9703395,55.82919,115.69507)"/>
<use data-text="5" xlink:href="#font_2_1" transform="matrix(7.9703395,0,0,-7.9703395,62.41639,115.69507)"/>
<use data-text="5" xlink:href="#font_2_1" transform="matrix(7.9703395,0,0,-7.9703395,178.6789,115.69507)"/>
<use data-text="&#x2212;" xlink:href="#font_1_1" transform="matrix(7.9703395,0,0,-7.9703395,106.4417,158.62436)"/>
<use data-text="5" xlink:href="#font_2_1" transform="matrix(7.9703395,0,0,-7.9703395,113.0289,158.62436)"/>
<use data-text="5" xlink:href="#font_2_1" transform="matrix(7.9703395,0,0,-7.9703395,113.02891,55.92328)"/>
<g clip-path="url(#clip_3)">
<path transform="matrix(1.00003,0,0,-1.00003,1.4615555,208.02985)" stroke-width=".99628" stroke-linecap="butt" stroke-miterlimit="10" stroke-linejoin="miter" fill="none" stroke="#9e0c0f" d="M107.32626 198.04395 110.23474 178.22136 114.34238 152.65917 118.45 129.5315 122.55762 108.83829 126.66525 90.57956 130.77288 74.75534 134.8805 61.36555 138.98812 50.41028 143.09575 41.8895 147.20337 35.80319 151.31099 32.15138 155.41863 30.93404 159.52625 32.15111 163.63387 35.80278 167.7415 41.88896 171.84912 50.40948 175.95674 61.36452 180.06438 74.75418 184.172 90.57822 188.27962 108.83675 192.38726 129.52977 196.49488 152.65715 200.6025 178.2192 203.51096 198.04155"/>
<path transform="matrix(-.14514438,-.98937979,-.98937979,.14514438,108.89331,10.676941)" d="M7.39124 0 2.37614 1.6717 .70447 0 2.37614-1.6717Z" fill="#9e0c0f"/>
<path transform="matrix(-.14514438,-.98937979,-.98937979,.14514438,108.89331,10.676941)" stroke-width=".99628" stroke-linecap="butt" stroke-miterlimit="10" stroke-linejoin="miter" fill="none" stroke="#9e0c0f" d="M7.39124 0 2.37614 1.6717 .70447 0 2.37614-1.6717Z"/>
<path transform="matrix(.14514438,-.98937979,-.98937979,-.14514438,204.87635,10.679352)" d="M7.39124 0 2.37614 1.6717 .70447 0 2.37614-1.6717Z" fill="#9e0c0f"/>
<path transform="matrix(.14514438,-.98937979,-.98937979,-.14514438,204.87635,10.679352)" stroke-width=".99628" stroke-linecap="butt" stroke-miterlimit="10" stroke-linejoin="miter" fill="none" stroke="#9e0c0f" d="M7.39124 0 2.37614 1.6717 .70447 0 2.37614-1.6717Z"/>
</g>
<path transform="matrix(1.00003,0,0,-1.00003,1.4615555,208.02985)" d="M121.54547 123.73619C121.54547 124.83667 120.65338 125.72874 119.55292 125.72874 118.45244 125.72874 117.56036 124.83667 117.56036 123.73619 117.56036 122.63573 118.45244 121.74364 119.55292 121.74364 120.65338 121.74364 121.54547 122.63573 121.54547 123.73619ZM119.55292 123.73619" fill="#9e0c0f"/>
<path transform="matrix(1.00003,0,0,-1.00003,1.4615555,208.02985)" stroke-width=".3985" stroke-linecap="butt" stroke-miterlimit="10" stroke-linejoin="miter" fill="none" stroke="#9e0c0f" d="M121.54547 123.73619C121.54547 124.83667 120.65338 125.72874 119.55292 125.72874 118.45244 125.72874 117.56036 124.83667 117.56036 123.73619 117.56036 122.63573 118.45244 121.74364 119.55292 121.74364 120.65338 121.74364 121.54547 122.63573 121.54547 123.73619ZM119.55292 123.73619"/>
<path transform="matrix(1.00003,0,0,-1.00003,1.4615555,208.02985)" d="M125.77762 103.1135C125.77762 104.21396 124.88554 105.10605 123.78506 105.10605 122.6846 105.10605 121.79251 104.21396 121.79251 103.1135 121.79251 102.01302 122.6846 101.12094 123.78506 101.12094 124.88554 101.12094 125.77762 102.01302 125.77762 103.1135ZM123.78506 103.1135" fill="#9e0c0f"/>
<path transform="matrix(1.00003,0,0,-1.00003,1.4615555,208.02985)" stroke-width=".3985" stroke-linecap="butt" stroke-miterlimit="10" stroke-linejoin="miter" fill="none" stroke="#9e0c0f" d="M125.77762 103.1135C125.77762 104.21396 124.88554 105.10605 123.78506 105.10605 122.6846 105.10605 121.79251 104.21396 121.79251 103.1135 121.79251 102.01302 122.6846 101.12094 123.78506 101.12094 124.88554 101.12094 125.77762 102.01302 125.77762 103.1135ZM123.78506 103.1135"/>
<path transform="matrix(1.00003,0,0,-1.00003,1.4615555,208.02985)" d="M189.04505 103.1135C189.04505 104.21396 188.15297 105.10605 187.05249 105.10605 185.95203 105.10605 185.05994 104.21396 185.05994 103.1135 185.05994 102.01302 185.95203 101.12094 187.05249 101.12094 188.15297 101.12094 189.04505 102.01302 189.04505 103.1135ZM187.05249 103.1135" fill="#9e0c0f"/>
<path transform="matrix(1.00003,0,0,-1.00003,1.4615555,208.02985)" stroke-width=".3985" stroke-linecap="butt" stroke-miterlimit="10" stroke-linejoin="miter" fill="none" stroke="#9e0c0f" d="M189.04505 103.1135C189.04505 104.21396 188.15297 105.10605 187.05249 105.10605 185.95203 105.10605 185.05994 104.21396 185.05994 103.1135 185.05994 102.01302 185.95203 101.12094 187.05249 101.12094 188.15297 101.12094 189.04505 102.01302 189.04505 103.1135ZM187.05249 103.1135"/>
<path transform="matrix(1.00003,0,0,-1.00003,1.4615555,208.02985)" d="M157.41135 30.93404C157.41135 32.03452 156.51926 32.92659 155.4188 32.92659 154.31832 32.92659 153.42624 32.03452 153.42624 30.93404 153.42624 29.83357 154.31832 28.94148 155.4188 28.94148 156.51926 28.94148 157.41135 29.83357 157.41135 30.93404ZM155.4188 30.93404" fill="#9e0c0f"/>
<path transform="matrix(1.00003,0,0,-1.00003,1.4615555,208.02985)" stroke-width=".3985" stroke-linecap="butt" stroke-miterlimit="10" stroke-linejoin="miter" fill="none" stroke="#9e0c0f" d="M157.41135 30.93404C157.41135 32.03452 156.51926 32.92659 155.4188 32.92659 154.31832 32.92659 153.42624 32.03452 153.42624 30.93404 153.42624 29.83357 154.31832 28.94148 155.4188 28.94148 156.51926 28.94148 157.41135 29.83357 157.41135 30.93404ZM155.4188 30.93404"/>
<path transform="matrix(1.00003,0,0,-1.00003,1.4615555,208.02985)" d="M193.27722 123.73619C193.27722 124.83667 192.38513 125.72874 191.28467 125.72874 190.18419 125.72874 189.29212 124.83667 189.29212 123.73619 189.29212 122.63573 190.18419 121.74364 191.28467 121.74364 192.38513 121.74364 193.27722 122.63573 193.27722 123.73619ZM191.28467 123.73619" fill="#9e0c0f"/>
<path transform="matrix(1.00003,0,0,-1.00003,1.4615555,208.02985)" stroke-width=".3985" stroke-linecap="butt" stroke-miterlimit="10" stroke-linejoin="miter" fill="none" stroke="#9e0c0f" d="M193.27722 123.73619C193.27722 124.83667 192.38513 125.72874 191.28467 125.72874 190.18419 125.72874 189.29212 124.83667 189.29212 123.73619 189.29212 122.63573 190.18419 121.74364 191.28467 121.74364 192.38513 121.74364 193.27722 122.63573 193.27722 123.73619ZM191.28467 123.73619"/>
<path transform="matrix(1.00003,0,0,-1.00003,1.4615555,208.02985)" stroke-width=".3985" stroke-linecap="butt" stroke-miterlimit="10" stroke-linejoin="miter" fill="none" stroke="#9e0c0f" d=""/>
<use data-text="x" xlink:href="#font_4_1" transform="matrix(9.962899,0,0,-9.962899,231.36048,101.39364)"/>
<use data-text="y" xlink:href="#font_4_2" transform="matrix(9.962899,0,0,-9.962899,124.53825,9.605881)"/>
</svg>
