<svg xmlns="http://www.w3.org/2000/svg" xmlns:xlink="http://www.w3.org/1999/xlink" version="1.1" width="167" height="125" viewBox="0 0 167 125">
<defs>
<path id="font_1_1" d="M.69898989 .22743225C.71499636 .22743225 .7369995 .22743225 .7369995 .25042726 .7369995 .2734375 .71499636 .2734375 .69898989 .2734375H.12599182C.10998535 .2734375 .08799744 .2734375 .08799744 .25042726 .08799744 .22743225 .10998535 .22743225 .12599182 .22743225H.69898989Z"/>
<path id="font_2_2" d="M.31399537 .63708499C.31399537 .664032 .31199647 .66503909 .2849884 .66503909 .24398804 .6251831 .19099427 .6013489 .09599304 .6013489V.5683594C.12298584 .5683594 .1769867 .5683594 .23498535 .5953522V.08203125C.23498535 .04499817 .23199463 .032989503 .13699341 .032989503H.101989749V0C.14299011 .0029907227 .22898865 .0029907227 .27398683 .0029907227 .31900025 .0029907227 .4059906 .0029907227 .44699098 0V.032989503H.4119873C.31698609 .032989503 .31399537 .04499817 .31399537 .08203125V.63708499Z"/>
<path id="font_3_1" d="M.18699646 .01499939C.18699646-.050109865 .17298889-.10720825 .11099243-.16934204 .10699463-.17234802 .10499573-.17434693 .10499573-.17933655 .10499573-.18734741 .11299133-.19334412 .11999512-.19334412 .13198853-.19334412 .21499634-.114227298 .21499634 .0029907227 .21499634 .066986087 .19099427 .11099243 .14698792 .11099243 .11199951 .11099243 .09199524 .08299255 .09199524 .055999757 .09199524 .027999878 .11099243 0 .147995 0 .17199707 0 .18699646 .01399231 .18699646 .01499939Z"/>
<path id="font_2_1" d="M.4889984 .31877137C.4889984 .42585755 .47799684 .49090577 .44499208 .55496218 .40098573 .6430359 .31999208 .66503909 .2649994 .66503909 .13899231 .66503909 .09298706 .5709839 .07899475 .5429535 .042999269 .4698944 .040985109 .3708191 .040985109 .31877137 .040985109 .25271607 .04399109 .15162659 .09199524 .07156372 .13798523-.0024871827 .21199036-.021484375 .2649994-.021484375 .31298829-.021484375 .39898683-.0064849855 .44898988 .09257507 .48599244 .16464234 .4889984 .2537079 .4889984 .31877137M.2649994 .006515503C.23098755 .006515503 .1619873 .022521973 .14099121 .12760926 .12998963 .18466187 .12998963 .2787323 .12998963 .33078004 .12998963 .3998413 .12998963 .4698944 .14099121 .5249481 .1619873 .6270294 .23999024 .6370239 .2649994 .6370239 .29899598 .6370239 .36799623 .62002566 .3880005 .5289459 .3999939 .4738922 .3999939 .39883424 .3999939 .33078004 .3999939 .27172853 .3999939 .18165589 .3880005 .12561035 .36698915 .020523072 .2979889 .006515503 .2649994 .006515503Z"/>
<clipPath id="clip_4">
<path transform="matrix(1.00003,0,0,-1.00005,1.4615555,123.84518)" d="M0 0H163.8834V122.04147H0Z"/>
</clipPath>
<path id="font_5_1" d="M.33399964 .30233766C.33999635 .32835389 .36299134 .42037965 .43299867 .42037965 .43798829 .42037965 .46199037 .42037965 .48298646 .40734864 .45498658 .402359 .43499757 .37734986 .43499757 .35334779 .43499757 .33735658 .44599916 .31835938 .47299195 .31835938 .49499513 .31835938 .5269928 .3363495 .5269928 .37635804 .5269928 .42837525 .46798707 .4423828 .43399049 .4423828 .37599183 .4423828 .34098817 .38935853 .32899476 .36634828 .3039856 .43237306 .25 .4423828 .22099304 .4423828 .116989139 .4423828 .05999756 .3133545 .05999756 .28834535 .05999756 .27833558 .069992069 .27833558 .07199097 .27833558 .07998657 .27833558 .08299255 .28033448 .084991458 .28933717 .11898804 .39535523 .18499756 .42037965 .21899414 .42037965 .23799134 .42037965 .272995 .4113617 .272995 .35334779 .272995 .32235719 .2559967 .25532533 .21899414 .11528015 .20298767 .053268434 .16799927 .011245728 .12399292 .011245728 .117996219 .011245728 .09498596 .011245728 .07398987 .024276734 .09899902 .029266358 .12098694 .05027771 .12098694 .07827759 .12098694 .105270389 .09899902 .11328125 .083999637 .11328125 .053985597 .11328125 .0289917 .08728027 .0289917 .055267335 .0289917 .009246826 .07899475-.0107421879 .12298584-.0107421879 .18899536-.0107421879 .22499085 .059280397 .22799683 .0652771 .23999024 .028274537 .27598573-.0107421879 .33599855-.0107421879 .43899537-.0107421879 .49598695 .118270877 .49598695 .14328003 .49598695 .1532898 .4869995 .1532898 .48399354 .1532898 .47499085 .1532898 .47299195 .14929199 .47099305 .14228821 .43798829 .03527832 .36999513 .011245728 .33799745 .011245728 .29899598 .011245728 .2829895 .043273927 .2829895 .07727051 .2829895 .09927368 .2889862 .121276859 .2999878 .16529846L.33399964 .30233766Z"/>
<path id="font_6_45" d="M.20298767 .0009918213C.20298767 .06498718 .1789856 .10598755 .13899231 .10598755 .10398865 .10598755 .085998538 .07899475 .085998538 .052993776 .085998538 .026992798 .102996829 0 .13899231 0 .1539917 0 .16799927 .005996704 .1789856 .015991211 .18099976-.06312561 .15299988-.12423706 .10899353-.17132569 .102996829-.17733765 .101989749-.17834473 .101989749-.18234253 .101989749-.18936157 .10699463-.19335938 .11199951-.19335938 .12399292-.19335938 .20298767-.114227298 .20298767 .0009918213Z"/>
<path id="font_6_84" d="M.5209961 .21636963C.5209961 .34336854 .42399598 .4423828 .31199647 .4423828 .23399353 .4423828 .19198609 .39837647 .17199707 .3763733V.4423828L.027999878 .43066407V.3996582C.09899902 .3996582 .10598755 .3936615 .10598755 .34973146V-.117996219C.10598755-.16308594 .09498596-.16308594 .027999878-.16308594V-.1940918L.13999939-.19110108 .25299073-.1940918V-.16308594C.18598938-.16308594 .1749878-.16308594 .1749878-.117996219V.050186159 .059173585C.17999268 .04319763 .22200012-.0107421879 .2979889-.0107421879 .4169922-.0107421879 .5209961 .087127689 .5209961 .21594239V.21636963M.43798829 .21594239C.43798829 .09512329 .36799623 .011245728 .2939911 .011245728 .2539978 .011245728 .21598816 .031219483 .18899536 .07215881 .1749878 .09312439 .1749878 .09411621 .1749878 .114089969V.33674623C.20399475 .38838197 .25299073 .41737367 .3039856 .41737367 .3769989 .41737367 .43798829 .32937623 .43798829 .21636963V.21594239Z"/>
<path id="font_6_28" d="M.48298646 .08912659V.14511109H.45799256V.08912659C.45799256 .03112793 .43299867 .025131226 .42199708 .025131226 .3889923 .025131226 .3849945 .070129398 .3849945 .07511902V.27508546C.3849945 .31707765 .3849945 .3560791 .34899903 .39312745 .30999757 .43223573 .2599945 .4482422 .21199036 .4482422 .12998963 .4482422 .06098938 .40115357 .06098938 .335083 .06098938 .30508424 .08099365 .28808595 .10699463 .28808595 .1349945 .28808595 .15299988 .30807496 .15299988 .33407594 .15299988 .3460846 .147995 .37908937 .101989749 .38008119 .1289978 .41519166 .17799378 .426239 .20999146 .426239 .25898744 .426239 .31599427 .38710023 .31599427 .29808045V.26107789C.2649994 .25808717 .19499207 .25508119 .13198853 .22509766 .056991579 .19110108 .03199768 .13911438 .03199768 .09512329 .03199768 .014251709 .1289978-.0107421879 .19198609-.0107421879 .2579956-.0107421879 .3039856 .029251099 .32299806 .07624817 .32699586 .036132814 .35398866-.005859375 .40098573-.005859375 .42199708-.005859375 .48298646 .008132935 .48298646 .08912659M.31599427 .14013672C.31599427 .04525757 .24398804 .011245728 .19898987 .011245728 .1499939 .011245728 .10899353 .04624939 .10899353 .09625244 .10899353 .15124512 .15098572 .23425293 .31599427 .24024964V.14013672Z"/>
<path id="font_6_66" d="M.24699402 0V.0309906C.18099976 .0309906 .1769867 .035995485 .1769867 .075042728V.4423828L.036987306 .43066407V.3996582C.101989749 .3996582 .11099243 .3936615 .11099243 .3447113V.07595825C.11099243 .0309906 .099990848 .0309906 .032989503 .0309906V0L.14299011 .0029907227C.17799378 .0029907227 .21299744 .0009918213 .24699402 0M.19198609 .603775C.19198609 .6307678 .16899109 .6567688 .13899231 .6567688 .10499573 .6567688 .084991458 .6287689 .084991458 .603775 .084991458 .57676699 .10798645 .55078127 .13798523 .55078127 .17199707 .55078127 .19198609 .5787811 .19198609 .603775Z"/>
<path id="font_6_96" d="M.3639984 .38137818C.3639984 .41337586 .33299256 .4423828 .2899933 .4423828 .21699524 .4423828 .18099976 .37538148 .16699219 .3323822V.4423828L.027999878 .43066407V.3996582C.09799194 .3996582 .10598755 .39266969 .10598755 .34370423V.07595825C.10598755 .0309906 .09498596 .0309906 .027999878 .0309906V0L.14199829 .0029907227C.18199158 .0029907227 .22898865 .0029907227 .2689972 0V.0309906H.24798584C.17399597 .0309906 .17199707 .04197693 .17199707 .07795715V.23181153C.17199707 .33137513 .21398926 .42037965 .2899933 .42037965 .29699708 .42037965 .29899598 .42037965 .30099488 .41937257 .2979889 .41838075 .27799989 .40637208 .27799989 .3803711 .27799989 .35237123 .29899598 .33737184 .32099916 .33737184 .33898927 .33737184 .3639984 .3493805 .3639984 .38137818Z"/>
<path id="font_6_98" d="M.3600006 .12823487C.3600006 .18122864 .32998658 .21122742 .31799317 .22323609 .2849884 .25523377 .24598694 .26322938 .20399475 .27124024 .147995 .28224183 .08099365 .29522706 .08099365 .35324098 .08099365 .38822938 .10699463 .42922975 .19299317 .42922975 .30299378 .42922975 .30799867 .3392334 .30999757 .30822755 .31098939 .2992401 .32199098 .2992401 .32199098 .2992401 .33499146 .2992401 .33499146 .30422975 .33499146 .32322694V.4242401C.33499146 .4412384 .33499146 .4482422 .32398988 .4482422 .31900025 .4482422 .31698609 .4482422 .3039856 .43623353 .30099488 .43223573 .29100038 .42323304 .2869873 .42022706 .24899292 .4482422 .20799256 .4482422 .19299317 .4482422 .070999149 .4482422 .032989503 .38124085 .032989503 .3252411 .032989503 .29023744 .04899597 .26223756 .07598877 .24023438 .10798645 .2142334 .13598633 .2082367 .20799256 .19422913 .22999573 .19021607 .31199647 .17422486 .31199647 .10221863 .31199647 .051223756 .2769928 .011245728 .19898987 .011245728 .114990238 .011245728 .07899475 .068222049 .05999756 .1532135 .056991579 .16621399 .055999757 .17021179 .04598999 .17021179 .032989503 .17021179 .032989503 .16322327 .032989503 .1452179V.013214111C.032989503-.003753662 .032989503-.0107421879 .04399109-.0107421879 .04899597-.0107421879 .049987794-.009750366 .068984989 .009246826 .070999149 .011245728 .070999149 .013214111 .08898926 .032226564 .1329956-.009750366 .17799378-.0107421879 .19898987-.0107421879 .31399537-.0107421879 .3600006 .05621338 .3600006 .1282196V.12823487Z"/>
<path id="font_6_81" d="M.47099305 .21424866C.47099305 .34223939 .37098695 .4482422 .25 .4482422 .125 .4482422 .027999878 .3392334 .027999878 .21424866 .027999878 .085250858 .13198853-.0107421879 .24899292-.0107421879 .36999513-.0107421879 .47099305 .087249759 .47099305 .21424866M.3880005 .22224427C.3880005 .18624878 .3880005 .13224793 .3659973 .08824158 .34399415 .04324341 .2999878 .014251709 .25 .014251709 .20698548 .014251709 .16299439 .035247804 .13598633 .08125305 .11099243 .12524414 .11099243 .18624878 .11099243 .22224427 .11099243 .26124574 .11099243 .31523133 .1349945 .35923768 .1619873 .40522767 .20899964 .426239 .24899292 .426239 .29299928 .426239 .33599855 .40423585 .3619995 .36123658 .3880005 .3182373 .3880005 .26023866 .3880005 .22224427Z"/>
<path id="font_6_55" d="M.35699464 .63479617C.35699464 .6717987 .31999208 .7050781 .2669983 .7050781 .19699097 .7050781 .11199951 .65179446 .11199951 .5457611V.43066407H.032989503V.3996582H.11199951V.07595825C.11199951 .0309906 .100997928 .0309906 .033996583 .0309906V0L.147995 .0029907227C.18798828 .0029907227 .23498535 .0029907227 .2749939 0V.0309906H.2539978C.17999268 .0309906 .17799378 .04197693 .17799378 .07795715V.3996582H.2919922V.43066407H.1749878V.5467529C.1749878 .63479617 .22299195 .68307498 .2669983 .68307498 .269989 .68307498 .2849884 .68307498 .2999878 .675827 .28799439 .6717987 .269989 .6587982 .269989 .6338043 .269989 .61079409 .28599549 .5907898 .31298829 .5907898 .34199525 .5907898 .35699464 .61079409 .35699464 .63479617Z"/>
<path id="font_6_63" d="M.5349884 0V.0309906C.48298646 .0309906 .45799256 .0309906 .45700074 .061019899V.25221253C.45700074 .3383026 .45700074 .36932374 .42599488 .405365 .4119873 .42237855 .3789978 .4423828 .32099916 .4423828 .23699951 .4423828 .19299317 .38233949 .1769867 .34629823H.17599488V.69433596L.03199768 .6826172V.6516113C.101989749 .6516113 .10998535 .64463809 .10998535 .59580996V.076034549C.10998535 .0309906 .09899902 .0309906 .03199768 .0309906V0L.14498902 .0029907227 .25698854 0V.0309906C.18998719 .0309906 .1789856 .0309906 .1789856 .076034549V.2602234C.1789856 .36431886 .25 .42037965 .31399537 .42037965 .3769989 .42037965 .3880005 .36631776 .3880005 .30926515V.076034549C.3880005 .0309906 .3769989 .0309906 .30999757 .0309906V0L.4229889 .0029907227 .5349884 0Z"/>
<path id="font_6_50" d="M.4149933 .11933899C.4149933 .12934876 .40699769 .13134766 .4019928 .13134766 .3929901 .13134766 .3909912 .12535095 .3889923 .11734009 .35398866 .014251709 .2639923 .014251709 .2539978 .014251709 .20399475 .014251709 .1639862 .044281007 .14099121 .08131409 .11099243 .12934876 .11099243 .19540406 .11099243 .23144531H.3899994C.4119873 .23144531 .4149933 .23144531 .4149933 .2524414 .4149933 .35131837 .36099244 .4482422 .23599243 .4482422 .11999512 .4482422 .027999878 .34532167 .027999878 .22042847 .027999878 .08631897 .1329956-.0107421879 .24798584-.0107421879 .36999513-.0107421879 .4149933 .10032654 .4149933 .11933899M.34899903 .2524414H.11199951C.117996219 .40126039 .20199585 .426239 .23599243 .426239 .33898927 .426239 .34899903 .2913971 .34899903 .2524414Z"/>
<path id="font_5_2" d="M.48599244 .38136292C.48999024 .39537049 .48999024 .39736939 .48999024 .40437318 .48999024 .42237855 .47599793 .43138124 .46099855 .43138124 .45098878 .43138124 .43499757 .42536927 .42599488 .41036988 .42399598 .405365 .41600038 .37435914 .4119873 .35635377 .40499879 .33035279 .397995 .30334474 .3919983 .27633668L.34700013 .09628296C.34298707 .08126831 .2999878 .011245728 .23399353 .011245728 .18299866 .011245728 .17199707 .055267335 .17199707 .0922699 .17199707 .1382904 .18899536 .20030213 .22299195 .28833009 .23899842 .3293457 .24299622 .3403473 .24299622 .36035157 .24299622 .405365 .21099854 .4423828 .16099549 .4423828 .06599426 .4423828 .0289917 .29733277 .0289917 .28833009 .0289917 .27833558 .038986207 .27833558 .040985109 .27833558 .050994874 .27833558 .051986696 .28033448 .056991579 .29634095 .083999637 .3903656 .12399292 .42037965 .1579895 .42037965 .1659851 .42037965 .18299866 .42037965 .18299866 .3883667 .18299866 .36335755 .17298889 .3373413 .1659851 .31834413 .12599182 .21231079 .10798645 .1552887 .10798645 .10827637 .10798645 .019256592 .17098999-.0107421879 .22999573-.0107421879 .2689972-.0107421879 .30299378 .0062561037 .33099366 .03425598 .31799317-.017745972 .30599977-.06674194 .2659912-.11973572 .23999024-.15385437 .20199585-.18309021 .1559906-.18309021 .14199829-.18309021 .09700012-.18005371 .07998657-.14074707 .09599304-.14074707 .10899353-.14074707 .12298584-.1287384 .1329956-.11973572 .14299011-.10673523 .14299011-.08773804 .14299011-.056747438 .115997318-.052734376 .10598755-.052734376 .08299255-.052734376 .049987794-.068740848 .049987794-.11773682 .049987794-.16796875 .09399414-.20507813 .1559906-.20507813 .25898744-.20507813 .3619995-.11373901 .3899994-.00074768069L.48599244 .38136292Z"/>
<path id="font_6_112" d="M.5079956 .3996582V.43066407C.4850006 .4286499 .45599366 .42765809 .43299867 .42765809L.34599305 .43066407V.3996582C.3829956 .39865113 .3939972 .37568666 .3939972 .35671998 .3939972 .34773255 .3919983 .34373475 .3880005 .3327484L.28599549 .078125 .17399597 .35671998C.16799927 .3697052 .16799927 .37368775 .16799927 .37368775 .16799927 .3996582 .20698548 .3996582 .22499085 .3996582V.43066407L.115997318 .42765809C.08898926 .42765809 .04899597 .4286499 .018997193 .43066407V.3996582C.08198547 .3996582 .085998538 .3936615 .09899902 .36271668L.24299622 .008224487C.24899292-.0057525637 .25099183-.0107421879 .2639923-.0107421879 .2769928-.0107421879 .2809906-.0017700195 .2849884 .008224487L.41600038 .3327484C.4249878 .3557129 .44198609 .39865113 .5079956 .3996582Z"/>
<path id="font_6_59" d="M.4850006 .40411378C.4850006 .42111207 .47299195 .453125 .43399049 .453125 .4139862 .453125 .36999513 .44711305 .32798768 .40611268 .28599549 .43937684 .24398804 .4423828 .22200012 .4423828 .1289978 .4423828 .05999756 .37338258 .05999756 .29638673 .05999756 .25239564 .08198547 .21440125 .10699463 .19340515 .09399414 .17840576 .07598877 .14538574 .07598877 .11035156 .07598877 .07899475 .08898926 .04083252 .11999512 .020828248 .05999756 .003829956 .027999878-.039138795 .027999878-.07911682 .027999878-.15107727 .1269989-.20605469 .24899292-.20605469 .36698915-.20605469 .47099305-.15507508 .47099305-.07711792 .47099305-.042144777 .45700074 .008834839 .4059906 .036834718 .35299684 .064834598 .29499818 .064834598 .23399353 .064834598 .20899964 .064834598 .1659851 .064834598 .15899658 .065841678 .1269989 .069885257 .10598755 .101242069 .10598755 .13334656 .10598755 .13735962 .10598755 .16040039 .12298584 .18040467 .1619873 .15240479 .20298767 .14941406 .22200012 .14941406 .31498719 .14941406 .38398744 .21839905 .38398744 .2953949 .38398744 .3323822 .36799623 .36938478 .34298707 .39237977 .3789978 .42637635 .4149933 .43138124 .43299867 .43138124 .43299867 .43112184 .43998719 .43112184 .44299317 .43011476 .43199159 .42611695 .4269867 .41513063 .4269867 .40315248 .4269867 .38616944 .43998719 .37417604 .45599366 .37417604 .46598817 .37417604 .4850006 .3811798 .4850006 .4041443V.40411378M.30899049 .29626466C.30899049 .26930238 .30799867 .2373352 .29299928 .21235657 .2849884 .20037842 .2619934 .17240906 .22200012 .17240906 .1349945 .17240906 .1349945 .2722931 .1349945 .29527284 .1349945 .3222351 .13598633 .35420228 .15098572 .3791809 .15899658 .3913269 .18199158 .41937257 .22200012 .41937257 .30899049 .41937257 .30899049 .31922914 .30899049 .29618836V.29626466M.4189911-.07911682C.4189911-.13308716 .34799195-.18305969 .25-.18305969 .14898682-.18305969 .07998657-.13209534 .07998657-.07911682 .07998657-.03314209 .117996219 .003829956 .1619873 .0068359377H.22099304C.30699159 .0068359377 .4189911 .0068359377 .4189911-.07911682Z"/>
<path id="font_6_43" d="M.4149933 .119140628C.4149933 .12911988 .40499879 .12911988 .4019928 .12911988 .3929901 .12911988 .3909912 .12512207 .3889923 .119140628 .3600006 .026229859 .29499818 .014251709 .2579956 .014251709 .20498657 .014251709 .116989139 .0572052 .116989139 .21801758 .116989139 .38093568 .19898987 .42323304 .2519989 .42323304 .26098634 .42323304 .32398988 .42222596 .35899354 .38594056 .31799317 .38293458 .31199647 .3529358 .31199647 .3399353 .31199647 .31393434 .32998658 .2939453 .35798646 .2939453 .38398744 .2939453 .4039917 .3109436 .4039917 .34094239 .4039917 .40911866 .32798768 .4482422 .25099183 .4482422 .12599182 .4482422 .033996583 .3399353 .033996583 .21601868 .033996583 .08816528 .1329956-.0107421879 .24899292-.0107421879 .3829956-.0107421879 .4149933 .10914612 .4149933 .119140628Z"/>
<path id="font_6_105" d="M.33198548 .12385559V.18066406H.30699159V.12585449C.30699159 .052108766 .2769928 .014251709 .23999024 .014251709 .17298889 .014251709 .17298889 .10491943 .17298889 .12187195V.3996582H.31599427V.43066407H.17298889V.6142578H.147995C.14698792 .5324249 .116989139 .42565919 .018997193 .42166139V.3996582H.10398865V.12408447C.10398865 .0012512207 .19699097-.0107421879 .23298645-.0107421879 .3039856-.0107421879 .33198548 .060180665 .33198548 .12408447V.12385559Z"/>
</defs>
<path transform="matrix(1.00003,0,0,-1.00005,1.4615555,123.84518)" d="M0 0H163.8834V122.04147H0Z" fill="#fffac2"/>
<path transform="matrix(1.00003,0,0,-1.00005,1.4615555,123.84518)" stroke-width=".3985" stroke-linecap="butt" stroke-miterlimit="10" stroke-linejoin="miter" fill="none" stroke="#d5d6d5" d="M40.97084 0V122.04147M122.91255 0V122.04147"/>
<path transform="matrix(1.00003,0,0,-1.00005,1.4615555,123.84518)" stroke-width=".3985" stroke-linecap="butt" stroke-miterlimit="10" stroke-linejoin="miter" fill="none" stroke="#d5d6d5" d="M40.97084 0V122.04147M122.91255 0V122.04147"/>
<path transform="matrix(1.00003,0,0,-1.00005,1.4615555,123.84518)" stroke-width=".3985" stroke-linecap="butt" stroke-miterlimit="10" stroke-linejoin="miter" fill="none" stroke="#d5d6d5" d="M0 30.51036H163.8834M0 91.5311H163.8834"/>
<path transform="matrix(1.00003,0,0,-1.00005,1.4615555,123.84518)" stroke-width=".3985" stroke-linecap="butt" stroke-miterlimit="10" stroke-linejoin="miter" fill="none" stroke="#d5d6d5" d="M0 30.51036H163.8834M0 91.5311H163.8834"/>
<path transform="matrix(1.00003,0,0,-1.00005,1.4615555,123.84518)" stroke-width=".19925" stroke-linecap="butt" stroke-miterlimit="10" stroke-linejoin="miter" fill="none" stroke="#929292" d="M40.97084 59.6033V62.43817M122.91255 59.6033V62.43817"/>
<path transform="matrix(1.00003,0,0,-1.00005,1.4615555,123.84518)" stroke-width=".19925" stroke-linecap="butt" stroke-miterlimit="10" stroke-linejoin="miter" fill="none" stroke="#929292" d="M40.97084 58.89479V63.14665M122.91255 58.89479V63.14665"/>
<path transform="matrix(1.00003,0,0,-1.00005,1.4615555,123.84518)" stroke-width=".19925" stroke-linecap="butt" stroke-miterlimit="10" stroke-linejoin="miter" fill="none" stroke="#929292" d="M80.52432 30.51036H83.35907M80.52432 91.5311H83.35907"/>
<path transform="matrix(1.00003,0,0,-1.00005,1.4615555,123.84518)" stroke-width=".19925" stroke-linecap="butt" stroke-miterlimit="10" stroke-linejoin="miter" fill="none" stroke="#929292" d="M79.81584 30.51036H84.06754M79.81584 91.5311H84.06754"/>
<path transform="matrix(1.00003,0,0,-1.00005,1.4615555,123.84518)" stroke-width=".3985" stroke-linecap="butt" stroke-miterlimit="10" stroke-linejoin="miter" fill="none" stroke="#000000" d="M1.99252 61.02074H161.89089"/>
<path transform="matrix(-1.00003,-0,0,1.00005,3.4541355,62.82139)" d="M1.99252 0-1.19551 1.59401 0 0-1.19551-1.59401"/>
<path transform="matrix(1.00003,0,0,-1.00005,163.3573,62.82139)" d="M1.99252 0-1.19551 1.59401 0 0-1.19551-1.59401"/>
<path transform="matrix(1.00003,0,0,-1.00005,1.4615555,123.84518)" stroke-width=".3985" stroke-linecap="butt" stroke-miterlimit="10" stroke-linejoin="miter" fill="none" stroke="#000000" d="M81.9417 1.99252V120.04895"/>
<path transform="matrix(0,1.00005,1.00003,0,83.40572,121.852558)" d="M1.99252 0-1.19551 1.59401 0 0-1.19551-1.59401"/>
<path transform="matrix(0,-1.00005,-1.00003,-0,83.40572,3.7902299)" d="M1.99252 0-1.19551 1.59401 0 0-1.19551-1.59401"/>
<use data-text="&#x2212;" xlink:href="#font_1_1" transform="matrix(7.9703395,0,0,-7.970498,29.4954,73.60367)"/>
<use data-text="1" xlink:href="#font_2_2" transform="matrix(7.9703395,0,0,-7.970498,36.082597,73.60266)"/>
<use data-text="," xlink:href="#font_3_1" transform="matrix(7.9703395,0,0,-7.970498,40.316724,73.60367)"/>
<use data-text="0" xlink:href="#font_2_1" transform="matrix(7.9703395,0,0,-7.970498,42.668794,73.60266)"/>
<use data-text="0" xlink:href="#font_2_1" transform="matrix(7.9703395,0,0,-7.970498,46.901044,73.60266)"/>
<use data-text="0" xlink:href="#font_2_1" transform="matrix(7.9703395,0,0,-7.970498,51.133295,73.60266)"/>
<use data-text="1" xlink:href="#font_2_2" transform="matrix(7.9703395,0,0,-7.970498,114.732959,73.60367)"/>
<use data-text="," xlink:href="#font_3_1" transform="matrix(7.9703395,0,0,-7.970498,118.96709,73.60266)"/>
<use data-text="0" xlink:href="#font_2_1" transform="matrix(7.9703395,0,0,-7.970498,121.32016,73.60367)"/>
<use data-text="0" xlink:href="#font_2_1" transform="matrix(7.9703395,0,0,-7.970498,125.55241,73.60367)"/>
<use data-text="0" xlink:href="#font_2_1" transform="matrix(7.9703395,0,0,-7.970498,129.78466,73.60367)"/>
<use data-text="&#x2212;" xlink:href="#font_1_1" transform="matrix(7.9703395,0,0,-7.970498,53.774129,95.12674)"/>
<use data-text="1" xlink:href="#font_2_2" transform="matrix(7.9703395,0,0,-7.970498,60.36133,95.12573)"/>
<use data-text="," xlink:href="#font_3_1" transform="matrix(7.9703395,0,0,-7.970498,64.59545,95.12674)"/>
<use data-text="0" xlink:href="#font_2_1" transform="matrix(7.9703395,0,0,-7.970498,66.947528,95.12573)"/>
<use data-text="0" xlink:href="#font_2_1" transform="matrix(7.9703395,0,0,-7.970498,71.17977,95.12573)"/>
<use data-text="0" xlink:href="#font_2_1" transform="matrix(7.9703395,0,0,-7.970498,75.41202,95.12573)"/>
<use data-text="1" xlink:href="#font_2_2" transform="matrix(7.9703395,0,0,-7.970498,60.360326,34.10269)"/>
<use data-text="," xlink:href="#font_3_1" transform="matrix(7.9703395,0,0,-7.970498,64.59445,34.101686)"/>
<use data-text="0" xlink:href="#font_2_1" transform="matrix(7.9703395,0,0,-7.970498,66.947528,34.10269)"/>
<use data-text="0" xlink:href="#font_2_1" transform="matrix(7.9703395,0,0,-7.970498,71.17978,34.10269)"/>
<use data-text="0" xlink:href="#font_2_1" transform="matrix(7.9703395,0,0,-7.970498,75.412029,34.10269)"/>
<g clip-path="url(#clip_4)">
<path transform="matrix(1.00003,0,0,-1.00005,1.4615555,123.84518)" stroke-width=".99628" stroke-linecap="butt" stroke-miterlimit="10" stroke-linejoin="miter" fill="none" stroke="#9e0c0f" d="M8.24863 56.89607 .5093 57.33086 1.01859 57.30185 1.5279 57.27252 2.0372 57.24281 2.54651 57.21269 3.0558 57.18222 3.56511 57.1513 4.07442 57.12007 4.58372 57.0883 5.09302 57.05621 5.60233 57.02367 6.11163 56.99065 6.62094 56.9572 7.13023 56.92331 7.63954 56.88895 8.14885 56.85408 8.65816 56.81882 9.16745 56.78299 9.67677 56.74669 10.18607 56.70982 10.69537 56.67249 11.20467 56.63455 11.71399 56.5961 12.22328 56.55705 12.73259 56.51749 13.24188 56.47737 13.7512 56.43658 14.2605 56.3952 14.7698 56.3532 15.2791 56.31053 15.78842 56.26727 16.29771 56.22328 16.80702 56.17859 17.31633 56.13324 17.82564 56.08714 18.33493 56.04025 18.84424 55.99268 19.35355 55.94432 19.86285 55.89514 20.37215 55.84518 20.88145 55.79439 21.39076 55.74275 21.90007 55.69019 22.40936 55.63676 22.91867 55.58238 23.42798 55.52708 23.93729 55.47083 24.44658 55.41359 24.9559 55.35526 25.4652 55.29594 25.9745 55.2355 26.4838 55.17397 26.99312 55.1113 27.50241 55.04747 28.01172 54.98242 28.52101 54.91615 29.03033 54.84853 29.53963 54.77965 30.04893 54.7094 30.55823 54.63774 31.06755 54.5647 31.57684 54.49016 32.08615 54.41414 32.59544 54.33643 33.10477 54.25719 33.61406 54.17627 34.12337 54.09364 34.63268 54.00923 35.14198 53.92294 35.65128 53.83475 36.16058 53.74461 36.66989 53.65247 37.1792 53.55824 37.68849 53.46184 38.1978 53.3632 38.7071 53.26218 39.21642 53.15878 39.72571 53.05292 40.23502 52.94446 40.74432 52.83327 41.25363 52.71947 41.76292 52.6026 42.27225 52.4824 42.78154 52.35976 43.29085 52.23344 43.80016 52.10408 44.30946 51.97073 44.81877 51.83406 45.32806 51.6937 45.83736 51.54909 46.34668 51.4008 46.85597 51.24794 47.36528 51.0899 47.87457 50.9279 48.3839 50.76102 48.8932 50.58862 49.4025 50.41135 49.91182 50.22798 50.42111 50.03882 50.9304 49.84325 51.43974 49.64128 51.949 49.43289 52.45834 49.21657 52.96759 48.99323 53.47693 48.76135 53.98627 48.52155 54.49553 48.27258 55.00485 48.01414 55.51411 47.74597 56.02345 47.4671 56.53279 47.17694 57.04204 46.8749 57.55138 46.56064 58.06064 46.23296 58.56998 45.89063 59.0793 45.53336 59.58858 45.15929 60.0979 44.76755 60.60716 44.3581 61.11649 43.92851 61.62584 43.47694 62.13509 43.00253 62.64442 42.50246 63.15367 41.97615 63.66302 41.41963 64.17235 40.8317 64.68161 40.2093 65.19093 39.54845 65.70021 38.8464 66.20953 38.09889 66.71887 37.30135 67.22813 36.4486 67.73747 35.5345 68.24672 34.55267 68.75606 33.49487 69.2654 32.35257 69.77466 31.11415 70.28398 29.76773 70.79324 28.29805 71.30258 26.6877 71.81192 24.91536 72.32117 22.95598 72.8305 20.77663 73.33977 18.33977 73.8491 15.59628 74.35843 12.48361 74.8677 8.92336 75.37703 4.81055 75.01553 8.22226"/>
<path transform="matrix(-.99841,-.056092804,-.056091686,.9984299,10.413804,66.985797)" d="M7.39124 0 2.37614 1.6717 .70447 0 2.37614-1.6717Z" fill="#9e0c0f"/>
<path transform="matrix(-.99841,-.056092804,-.056091686,.9984299,10.413804,66.985797)" stroke-width=".99628" stroke-linecap="butt" stroke-miterlimit="10" stroke-linejoin="miter" fill="none" stroke="#9e0c0f" d="M7.39124 0 2.37614 1.6717 .70447 0 2.37614-1.6717Z"/>
<path transform="matrix(.10540317,.99446967,.99444988,-.10540527,76.40508,114.92193)" d="M7.39124 0 2.37614 1.6717 .70447 0 2.37614-1.6717Z" fill="#9e0c0f"/>
<path transform="matrix(.10540317,.99446967,.99444988,-.10540527,76.40508,114.92193)" stroke-width=".99628" stroke-linecap="butt" stroke-miterlimit="10" stroke-linejoin="miter" fill="none" stroke="#9e0c0f" d="M7.39124 0 2.37614 1.6717 .70447 0 2.37614-1.6717Z"/>
<path transform="matrix(1.00003,0,0,-1.00005,1.4615555,123.84518)" stroke-width=".99628" stroke-linecap="butt" stroke-miterlimit="10" stroke-linejoin="miter" fill="none" stroke="#9e0c0f" d="M89.13985 113.5511 88.7181 117.27666 89.22598 113.41801 89.73386 110.06248 90.24171 107.11761 90.7496 104.51265 91.25746 102.19142 91.76535 100.1103 92.27322 98.23361 92.7811 96.53296 93.28897 94.98457 93.79686 93.56888 94.30472 92.26915 94.8126 91.07191 95.32047 89.96652 95.82835 88.94138 96.33623 87.98824 96.8441 87.10039 97.35197 86.27112 97.85983 85.49461 98.36772 84.76602 98.8756 84.08138 99.38347 83.43669 99.89134 82.82863 100.39922 82.25351 100.90709 81.7095 101.41496 81.19357 101.92284 80.7042 102.43071 80.23921 102.9386 79.7965 103.44646 79.37456 103.95435 78.97241 104.4622 78.58798 104.9701 78.22064 105.47797 77.86946 105.98584 77.53294 106.49371 77.21014 107.0016 76.90077 107.50946 76.60329 108.01733 76.3177 108.5252 76.04312 109.03308 75.77858 109.54097 75.52353 110.04883 75.27823 110.5567 75.04115 111.06458 74.81264 111.57245 74.59204 112.08034 74.37877 112.5882 74.17253 113.09608 73.9733 113.60396 73.78017 114.11183 73.59283 114.6197 73.41191 115.12758 73.23647 115.63545 73.06592 116.14334 72.90054 116.6512 72.74007 117.15909 72.58447 117.66695 72.43314 118.17482 72.28607 118.68271 72.14267 119.19057 72.00354 119.69846 71.86868 120.20633 71.73627 120.71419 71.60844 121.22208 71.48303 121.72993 71.361 122.23782 71.24231 122.7457 71.12637 123.25357 71.01353 123.76144 70.90334 124.26932 70.79573 124.77719 70.69069 125.28508 70.58813 125.79294 70.48792 126.30083 70.39 126.8087 70.29427 127.31657 70.2007 127.82445 70.10928 128.3323 70.01979 128.8402 69.93219 129.34807 69.84662 129.85593 69.76271 130.36382 69.68057 130.87168 69.60025 131.37957 69.52153 131.88744 69.44443 132.39531 69.36882 132.90319 69.29468 133.41107 69.22209 133.91893 69.15092 134.4268 69.08115 134.93468 69.0126 135.44255 68.94543 135.95044 68.87956 136.4583 68.81485 136.96617 68.75134 137.47405 68.68906 137.98192 68.62785 138.4898 68.56773 138.99767 68.50871 139.50559 68.4507 140.01342 68.39374 140.5213 68.33775 141.02915 68.28271 141.53705 68.22867 142.04496 68.17548 142.55278 68.12317 143.06069 68.0718 143.56851 68.02118 144.07642 67.97144 144.58432 67.92253 145.09217 67.87439 145.60005 67.82698 146.10788 67.78038 146.6158 67.73451 147.12369 67.68932 147.63153 67.64482 148.13942 67.60101 148.64727 67.5579 149.15517 67.51547 149.66307 67.47357 150.1709 67.43237 150.67879 67.39174 151.18663 67.35175 151.69455 67.31227 152.20244 67.27345 152.71027 67.23514 153.21819 67.19737 153.726 67.16017 154.23392 67.12344 154.7418 67.08728 155.24965 67.05156 155.75756 67.01637 156.26537 66.98166 156.77329 66.94736 157.28118 66.9137 157.78902 66.88031 158.29692 66.84741 158.80475 66.81499 159.31266 66.78293 159.82057 66.75133 160.32839 66.72015 160.83629 66.68933 161.34412 66.65898 161.85204 66.62892 162.35994 66.59927 162.86775 66.57002 163.37567 66.54109 155.63486 66.97513"/>
<path transform="matrix(-.112523388,-.99363967,-.99361988,.11252562,90.683368,10.988396)" d="M7.39124 0 2.37614 1.6717 .70447 0 2.37614-1.6717Z" fill="#9e0c0f"/>
<path transform="matrix(-.112523388,-.99363967,-.99361988,.11252562,90.683368,10.988396)" stroke-width=".99628" stroke-linecap="butt" stroke-miterlimit="10" stroke-linejoin="miter" fill="none" stroke="#9e0c0f" d="M7.39124 0 2.37614 1.6717 .70447 0 2.37614-1.6717Z"/>
<path transform="matrix(.99841,.0559828,.05598168,-.9984299,156.3977,56.82724)" d="M7.39124 0 2.37614 1.6717 .70447 0 2.37614-1.6717Z" fill="#9e0c0f"/>
<path transform="matrix(.99841,.0559828,.05598168,-.9984299,156.3977,56.82724)" stroke-width=".99628" stroke-linecap="butt" stroke-miterlimit="10" stroke-linejoin="miter" fill="none" stroke="#9e0c0f" d="M7.39124 0 2.37614 1.6717 .70447 0 2.37614-1.6717Z"/>
</g>
<use data-text="x" xlink:href="#font_5_1" transform="matrix(9.962899,0,0,-9.963098,91.18625,57.36886)"/>
<use data-text="," xlink:href="#font_6_45" transform="matrix(9.962899,0,0,-9.963098,96.88042,57.36785)"/>
<use data-text="p" xlink:href="#font_6_84" transform="matrix(9.962899,0,0,-9.963098,102.95779,57.36785)"/>
<use data-text="a" xlink:href="#font_6_28" transform="matrix(9.962899,0,0,-9.963098,108.49716,57.36785)"/>
<use data-text="i" xlink:href="#font_6_66" transform="matrix(9.962899,0,0,-9.963098,113.47861,57.36785)"/>
<use data-text="r" xlink:href="#font_6_96" transform="matrix(9.962899,0,0,-9.963098,116.2483,57.36785)"/>
<use data-text="s" xlink:href="#font_6_98" transform="matrix(9.962899,0,0,-9.963098,120.153759,57.36785)"/>
<use data-text="o" xlink:href="#font_6_81" transform="matrix(9.962899,0,0,-9.963098,127.39679,57.36785)"/>
<use data-text="f" xlink:href="#font_6_55" transform="matrix(9.962899,0,0,-9.963098,132.37824,57.36785)"/>
<use data-text="s" xlink:href="#font_6_98" transform="matrix(9.962899,0,0,-9.963098,138.74454,57.36785)"/>
<use data-text="h" xlink:href="#font_6_63" transform="matrix(9.962899,0,0,-9.963098,142.67987,57.36785)"/>
<use data-text="o" xlink:href="#font_6_81" transform="matrix(9.962899,0,0,-9.963098,148.21924,57.36785)"/>
<use data-text="e" xlink:href="#font_6_50" transform="matrix(9.962899,0,0,-9.963098,153.47966,57.36785)"/>
<use data-text="s" xlink:href="#font_6_98" transform="matrix(9.962899,0,0,-9.963098,157.90319,57.36785)"/>
<use data-text="y" xlink:href="#font_5_2" transform="matrix(9.962899,0,0,-9.963098,86.926128,11.444565)"/>
<use data-text="," xlink:href="#font_6_45" transform="matrix(9.962899,0,0,-9.963098,92.16828,11.443558)"/>
<use data-text="a" xlink:href="#font_6_28" transform="matrix(9.962899,0,0,-9.963098,98.24565,11.443558)"/>
<use data-text="v" xlink:href="#font_6_112" transform="matrix(9.962899,0,0,-9.963098,102.9581,11.443558)"/>
<use data-text="e" xlink:href="#font_6_50" transform="matrix(9.962899,0,0,-9.963098,107.93955,11.443558)"/>
<use data-text="r" xlink:href="#font_6_96" transform="matrix(9.962899,0,0,-9.963098,112.36308,11.443558)"/>
<use data-text="a" xlink:href="#font_6_28" transform="matrix(9.962899,0,0,-9.963098,116.26854,11.443558)"/>
<use data-text="g" xlink:href="#font_6_59" transform="matrix(9.962899,0,0,-9.963098,121.249988,11.443558)"/>
<use data-text="e" xlink:href="#font_6_50" transform="matrix(9.962899,0,0,-9.963098,126.23143,11.443558)"/>
<use data-text="c" xlink:href="#font_6_43" transform="matrix(9.962899,0,0,-9.963098,133.96265,11.443558)"/>
<use data-text="o" xlink:href="#font_6_81" transform="matrix(9.962899,0,0,-9.963098,138.39614,11.443558)"/>
<use data-text="s" xlink:href="#font_6_98" transform="matrix(9.962899,0,0,-9.963098,143.3776,11.443558)"/>
<use data-text="t" xlink:href="#font_6_105" transform="matrix(9.962899,0,0,-9.963098,147.30297,11.443558)"/>
</svg>
