<svg xmlns="http://www.w3.org/2000/svg" xmlns:xlink="http://www.w3.org/1999/xlink" version="1.1" width="167" height="145" viewBox="0 0 167 145">
<defs>
<path id="font_1_1" d="M.69898989 .22743225C.71499636 .22743225 .7369995 .22743225 .7369995 .25042726 .7369995 .2734375 .71499636 .2734375 .69898989 .2734375H.12599182C.10998535 .2734375 .08799744 .2734375 .08799744 .25042726 .08799744 .22743225 .10998535 .22743225 .12599182 .22743225H.69898989Z"/>
<path id="font_2_3" d="M.13798523 .33073426C.13798523 .41377259 .14498902 .4868164 .18099976 .54782107 .21099854 .5978241 .2619934 .6390381 .32499696 .6390381 .34498597 .6390381 .3909912 .63601687 .4139862 .60084536 .36898805 .5988312 .36499024 .5648346 .36499024 .553833 .36499024 .5238342 .3880005 .50683596 .4119873 .50683596 .42999269 .50683596 .45899964 .51782229 .45899964 .5558319 .45899964 .615921 .4139862 .66503909 .32398988 .66503909 .18499756 .66503909 .04399109 .53282168 .04399109 .31672669 .04399109 .045532228 .16999817-.021484375 .2669983-.021484375 .31498719-.021484375 .36698915-.0084991459 .4119873 .03453064 .45199586 .07354736 .48599244 .11558533 .48599244 .20263672 .48599244 .33372499 .3869934 .42578126 .27598573 .42578126 .20399475 .42578126 .16099549 .37976075 .13798523 .33073426M.2669983 .008514404C.21398926 .008514404 .18099976 .045532228 .1659851 .07354736 .14299011 .11859131 .14099121 .18663025 .14099121 .22465515 .14099121 .32373048 .19499207 .3977661 .27198792 .3977661 .32199098 .3977661 .35198976 .37176515 .37098695 .33673097 .3919983 .29971314 .3919983 .25468446 .3919983 .2036438 .3919983 .15260315 .3919983 .10858154 .37199403 .07255554 .34599305 .026519776 .31098939 .008514404 .2669983 .008514404Z"/>
<path id="font_2_2" d="M.3939972 .6468048C.3939972 .6667938 .3939972 .6748047 .37298585 .6748047 .3600006 .6748047 .35899354 .6737976 .34899903 .65979006L.02999878 .197052V.1640625H.31199647V.08100891C.31199647 .04399109 .30899049 .032989503 .23199463 .032989503H.20899964V0C.2939911 .0029907227 .29599 .0029907227 .35299684 .0029907227 .4099884 .0029907227 .4119873 .0029907227 .49699403 0V.032989503H.47399903C.39698792 .032989503 .3939972 .04399109 .3939972 .08100891V.1640625H.5V.197052H.3939972V.6468048M.31900025 .5658417V.197052H.06498718L.31900025 .5658417Z"/>
<path id="font_2_1" d="M.28199769 .20405579C.2979889 .21907044 .33999635 .2520752 .35598756 .26608277 .41799928 .32312013 .47698976 .3781433 .47698976 .46917726 .47698976 .588089 .3769989 .66503909 .2519989 .66503909 .13198853 .66503909 .052993776 .57411196 .052993776 .48516847 .052993776 .4361725 .09199524 .4291687 .10598755 .4291687 .1269989 .4291687 .1579895 .4441681 .1579895 .48217774 .1579895 .5341797 .10798645 .5341797 .09599304 .5341797 .125 .6070709 .19198609 .6320343 .24099732 .6320343 .33399964 .6320343 .38198854 .55314639 .38198854 .46917726 .38198854 .36514283 .30899049 .28910829 .19099427 .16804505L.06498718 .037994386C.052993776 .026992798 .052993776 .024993897 .052993776 0H.44799806L.47698976 .17904663H.44599916C.44299317 .1590271 .43499757 .10900879 .4229889 .08999634 .4169922 .08198547 .34098817 .08198547 .32499696 .08198547H.14698792L.28199769 .20405579Z"/>
<path id="font_3_1" d="M.33099366-.2400055C.33099366-.23701477 .33099366-.23500061 .31399537-.21800232 .18899536-.0920105 .15699768 .09700012 .15699768 .25 .15699768 .42399598 .19499207 .59799197 .31799317 .72299197 .33099366 .73498538 .33099366 .7369995 .33099366 .73999026 .33099366 .746994 .32699586 .75 .32099916 .75 .31098939 .75 .22099304 .6819916 .1619873 .5549927 .11099243 .44499208 .09899902 .33399964 .09899902 .25 .09899902 .17199707 .10998535 .050994874 .16499329-.06201172 .22499085-.18501282 .31098939-.25 .32099916-.25 .32699586-.25 .33099366-.24700928 .33099366-.2400055Z"/>
<path id="font_4_1" d="M.6589966 .23046875C.6759949 .23046875 .69400027 .23046875 .69400027 .25045777 .69400027 .27046205 .6759949 .27046205 .6589966 .27046205H.117996219C.100997928 .27046205 .08299255 .27046205 .08299255 .25045777 .08299255 .23046875 .100997928 .23046875 .117996219 .23046875H.6589966Z"/>
<path id="font_3_7" d="M.2939911 .16503906V.07800293C.2939911 .041992189 .2919922 .0309906 .21798706 .0309906H.19699097V0C.23799134 .0029907227 .2899933 .0029907227 .33198548 .0029907227 .37399293 .0029907227 .4269867 .0029907227 .46798707 0V.0309906H.44699098C.37298585 .0309906 .37098695 .041992189 .37098695 .07800293V.16503906H.47099305V.19602967H.37098695V.65075686C.37098695 .67074587 .37098695 .6767578 .35499574 .6767578 .34599305 .6767578 .34298707 .6767578 .33499146 .66474917L.027999878 .19602967V.16503906H.2939911M.2999878 .19602967H.055999757L.2999878 .5688019V.19602967Z"/>
<path id="font_5_2" d="M.20298767 .0009918213C.20298767 .066986087 .17799378 .10598755 .13899231 .10598755 .10598755 .10598755 .085998538 .08099365 .085998538 .052993776 .085998538 .025985718 .10598755 0 .13899231 0 .15098572 0 .1639862 .0039978029 .17399597 .0129852299 .1769867 .01499939 .17799378 .015991211 .1789856 .015991211 .17999268 .015991211 .18099976 .01499939 .18099976 .0009918213 .18099976-.07316589 .1459961-.13328552 .11299133-.16635132 .101989749-.17736817 .101989749-.17936707 .101989749-.18237305 .101989749-.18936157 .10699463-.19335938 .11199951-.19335938 .12298584-.19335938 .20298767-.116256717 .20298767 .0009918213Z"/>
<path id="font_3_4" d="M.2939911 .64004519C.2939911 .66400149 .2939911 .6660156 .2709961 .6660156 .20899964 .60227969 .12098694 .60227969 .08898926 .60227969V.57128909C.10899353 .57128909 .16799927 .57128909 .21998596 .5972748V.07902527C.21998596 .042999269 .21699524 .0309906 .1269989 .0309906H.09498596V0C.12998963 .0029907227 .21699524 .0029907227 .25698854 .0029907227 .29699708 .0029907227 .38398744 .0029907227 .4189911 0V.0309906H.3869934C.29699708 .0309906 .2939911 .041992189 .2939911 .07902527V.64004519Z"/>
<path id="font_3_2" d="M.2889862 .25C.2889862 .32798768 .27799989 .44898988 .22299195 .56199648 .16299439 .68499758 .07699585 .75 .066986087 .75 .06098938 .75 .056991579 .74598696 .056991579 .73999026 .056991579 .7369995 .056991579 .73498538 .07598877 .71699526 .17399597 .6179962 .23098755 .45899964 .23098755 .25 .23098755 .07899475 .19400025-.09700012 .069992069-.2230072 .056991579-.23500061 .056991579-.23701477 .056991579-.2400055 .056991579-.2460022 .06098938-.25 .066986087-.25 .07699585-.25 .16699219-.18200684 .22599793-.055007936 .2769928 .054992677 .2889862 .16600037 .2889862 .25Z"/>
<path id="font_3_3" d="M.45999146 .31976319C.45999146 .39982606 .45498658 .47988893 .41999818 .5539398 .37399293 .65000918 .2919922 .6660156 .25 .6660156 .18998719 .6660156 .116989139 .64001467 .07598877 .54693606 .04399109 .47789 .038986207 .39982606 .038986207 .31976319 .038986207 .24472046 .042999269 .15464783 .083999637 .07859802 .1269989-.0024719239 .19999695-.022460938 .24899292-.022460938 .30299378-.022460938 .3789978-.0014648438 .4229889 .09359741 .45498658 .16265869 .45999146 .2407074 .45999146 .31976319M.24899292-.00047302247C.20999146-.00047302247 .15098572 .024551392 .1329956 .12062073 .12199402 .18066406 .12199402 .2727356 .12199402 .3317871 .12199402 .39582826 .12199402 .46188355 .12998963 .5159149 .14898682 .63500979 .22399903 .64401248 .24899292 .64401248 .28199769 .64401248 .34799195 .6259918 .36698915 .52693179 .3769989 .47088624 .3769989 .39482118 .3769989 .3317871 .3769989 .25672914 .3769989 .18867493 .3659973 .12461853 .35099793 .029556275 .2939911-.00047302247 .24899292-.00047302247Z"/>
<path id="font_3_5" d="M.1269989 .07699585 .23298645 .18003845C.3889923 .31811524 .44898988 .3721466 .44898988 .47216798 .44898988 .5860901 .35899354 .6660156 .23699951 .6660156 .12399292 .6660156 .049987794 .57411196 .049987794 .48516847 .049987794 .4291687 .099990848 .4291687 .102996829 .4291687 .11999512 .4291687 .15499878 .44117738 .15499878 .48217774 .15499878 .5081787 .13699341 .5341797 .101989749 .5341797 .09399414 .5341797 .09199524 .5341797 .08898926 .5331726 .11199951 .59806826 .1659851 .63500979 .22399903 .63500979 .31498719 .63500979 .35798646 .5541382 .35798646 .47216798 .35798646 .39215089 .30799867 .31311036 .25299073 .25108338L.06098938 .036987306C.049987794 .025985718 .049987794 .023986817 .049987794 0H.42099L.44898988 .17404175H.42399598C.4189911 .14402771 .4119873 .1000061 .4019928 .084991458 .394989 .07699585 .32899476 .07699585 .30699159 .07699585H.1269989Z"/>
<path id="font_3_6" d="M.2899933 .35191346C.37199403 .37893678 .42999269 .4490509 .42999269 .52809146 .42999269 .6100464 .34199525 .6660156 .24598694 .6660156 .14498902 .6660156 .068984989 .60606387 .068984989 .53009036 .068984989 .49710084 .09098816 .47808839 .11999512 .47808839 .15098572 .47808839 .17098999 .50009158 .17098999 .5290985 .17098999 .57910159 .12399292 .57910159 .10899353 .57910159 .13999939 .62802127 .20599365 .64100649 .24198914 .64100649 .2829895 .64100649 .33799745 .6190338 .33799745 .5290985 .33799745 .51708987 .33599855 .45906068 .30999757 .4149933 .27999879 .36691285 .24598694 .36390687 .22099304 .36291505 .21299744 .36190797 .18899536 .35990907 .18199158 .35990907 .17399597 .35890199 .16699219 .35791017 .16699219 .3479004 .16699219 .33691407 .17399597 .33691407 .19099427 .33691407H.23498535C.31698609 .33691407 .35398866 .2686615 .35398866 .17037964 .35398866 .034469606 .2849884 .0055389406 .24099732 .0055389406 .19799805 .0055389406 .12298584 .022491456 .08799744 .08137512 .12298584 .07637024 .1539917 .09837341 .1539917 .1363678 .1539917 .17237854 .1269989 .19238281 .09799194 .19238281 .07398987 .19238281 .041992189 .17837525 .041992189 .1343689 .041992189 .043441774 .1349945-.022460938 .24398804-.022460938 .3659973-.022460938 .45700074 .06838989 .45700074 .17037964 .45700074 .252594 .3939972 .33088685 .2899933 .35191346Z"/>
<path id="font_5_1" d="M.19198609 .052993776C.19198609 .08198547 .16799927 .10598755 .13899231 .10598755 .10998535 .10598755 .085998538 .08198547 .085998538 .052993776 .085998538 .023986817 .10998535 0 .13899231 0 .16799927 0 .19198609 .023986817 .19198609 .052993776Z"/>
<path id="font_3_8" d="M.47599793 .609375C.4850006 .6213684 .4850006 .62338259 .4850006 .64437869H.24198914C.11999512 .64437869 .117996219 .65737918 .11399841 .67637637H.08898926L.055999757 .4702301H.08099365C.083999637 .48625184 .09298706 .5493469 .10598755 .56137087 .11299133 .5673828 .19099427 .5673828 .20399475 .5673828H.41099549C.3999939 .5513611 .32099916 .4421997 .29899598 .40914918 .20899964 .27394105 .17599488 .1347351 .17599488 .032577516 .17599488 .022567749 .17599488-.022460938 .22200012-.022460938 .2679901-.022460938 .2679901 .022567749 .2679901 .032577516V.08366394C.2679901 .13873291 .2709961 .19381714 .2789917 .24790955 .2829895 .27093507 .29699708 .35707093 .34098817 .41915895L.47599793 .609375Z"/>
<path id="font_5_5" d="M.48599244 .38136292C.48999024 .39537049 .48999024 .39736939 .48999024 .40437318 .48999024 .42237855 .47599793 .43138124 .46099855 .43138124 .45098878 .43138124 .43499757 .42536927 .42599488 .41036988 .42399598 .405365 .41600038 .37435914 .4119873 .35635377 .40499879 .33035279 .397995 .30334474 .3919983 .27633668L.34700013 .09628296C.34298707 .08126831 .2999878 .011245728 .23399353 .011245728 .18299866 .011245728 .17199707 .055267335 .17199707 .0922699 .17199707 .1382904 .18899536 .20030213 .22299195 .28833009 .23899842 .3293457 .24299622 .3403473 .24299622 .36035157 .24299622 .405365 .21099854 .4423828 .16099549 .4423828 .06599426 .4423828 .0289917 .29733277 .0289917 .28833009 .0289917 .27833558 .038986207 .27833558 .040985109 .27833558 .050994874 .27833558 .051986696 .28033448 .056991579 .29634095 .083999637 .3903656 .12399292 .42037965 .1579895 .42037965 .1659851 .42037965 .18299866 .42037965 .18299866 .3883667 .18299866 .36335755 .17298889 .3373413 .1659851 .31834413 .12599182 .21231079 .10798645 .1552887 .10798645 .10827637 .10798645 .019256592 .17098999-.0107421879 .22999573-.0107421879 .2689972-.0107421879 .30299378 .0062561037 .33099366 .03425598 .31799317-.017745972 .30599977-.06674194 .2659912-.11973572 .23999024-.15385437 .20199585-.18309021 .1559906-.18309021 .14199829-.18309021 .09700012-.18005371 .07998657-.14074707 .09599304-.14074707 .10899353-.14074707 .12298584-.1287384 .1329956-.11973572 .14299011-.10673523 .14299011-.08773804 .14299011-.056747438 .115997318-.052734376 .10598755-.052734376 .08299255-.052734376 .049987794-.068740848 .049987794-.11773682 .049987794-.16796875 .09399414-.20507813 .1559906-.20507813 .25898744-.20507813 .3619995-.11373901 .3899994-.00074768069L.48599244 .38136292Z"/>
<path id="font_3_9" d="M.68699648 .32714845C.70199587 .32714845 .72099307 .32714845 .72099307 .34713746 .72099307 .36714173 .70199587 .36714173 .6879883 .36714173H.08898926C.07499695 .36714173 .055999757 .36714173 .055999757 .34713746 .055999757 .32714845 .07499695 .32714845 .08999634 .32714845H.68699648M.6879883 .13284302C.70199587 .13284302 .72099307 .13284302 .72099307 .15284729 .72099307 .17285156 .70199587 .17285156 .68699648 .17285156H.08999634C.07499695 .17285156 .055999757 .17285156 .055999757 .15284729 .055999757 .13284302 .07499695 .13284302 .08898926 .13284302H.6879883Z"/>
<path id="font_5_3" d="M.04499817-.122177127C.036987306-.15631104 .034988405-.16334534-.009002686-.16334534-.021011353-.16334534-.03201294-.16334534-.03201294-.18234253-.03201294-.19033814-.027008057-.19433594-.019012452-.19433594 .0079956059-.19433594 .036987306-.19134522 .06498718-.19134522 .09799194-.19134522 .13198853-.19433594 .1639862-.19433594 .16899109-.19433594 .18199158-.19433594 .18199158-.17434693 .18199158-.16334534 .17199707-.16334534 .1579895-.16334534 .10798645-.16334534 .10798645-.15631104 .10798645-.14727783 .10798645-.13523865 .1499939 .028259278 .15699768 .053268434 .16999817 .024261475 .19799805-.0107421879 .24899292-.0107421879 .36499024-.0107421879 .48999024 .13528443 .48999024 .28233338 .48999024 .37635804 .43299867 .4423828 .35699464 .4423828 .30699159 .4423828 .25898744 .40637208 .22599793 .36735536 .21598816 .42137147 .17298889 .4423828 .13598633 .4423828 .08999634 .4423828 .070999149 .4033661 .06199646 .38536073 .04399109 .35134889 .0309906 .29133607 .0309906 .28833009 .0309906 .27833558 .040985109 .27833558 .042999269 .27833558 .052993776 .27833558 .053985597 .2793274 .05999756 .30133058 .07699585 .37236024 .09700012 .42037965 .1329956 .42037965 .1499939 .42037965 .1639862 .41236878 .1639862 .37435914 .1639862 .35134889 .16099549 .3403473 .15699768 .323349L.04499817-.122177127M.22099304 .3123474C.22799683 .33935548 .25498963 .36735536 .272995 .38235475 .30799867 .41337586 .33699037 .42037965 .35398866 .42037965 .3939972 .42037965 .41799928 .38536073 .41799928 .32633973 .41799928 .26733399 .3849945 .15229798 .36698915 .11428833 .33299256 .044265748 .2849884 .011245728 .24798584 .011245728 .18199158 .011245728 .16899109 .0942688 .16899109 .10028076 .16899109 .10227966 .16899109 .104278568 .17199707 .11628723L.22099304 .3123474Z"/>
<path id="font_5_4" d="M.33399964 .30233766C.33999635 .32835389 .36299134 .42037965 .43299867 .42037965 .43798829 .42037965 .46199037 .42037965 .48298646 .40734864 .45498658 .402359 .43499757 .37734986 .43499757 .35334779 .43499757 .33735658 .44599916 .31835938 .47299195 .31835938 .49499513 .31835938 .5269928 .3363495 .5269928 .37635804 .5269928 .42837525 .46798707 .4423828 .43399049 .4423828 .37599183 .4423828 .34098817 .38935853 .32899476 .36634828 .3039856 .43237306 .25 .4423828 .22099304 .4423828 .116989139 .4423828 .05999756 .3133545 .05999756 .28834535 .05999756 .27833558 .069992069 .27833558 .07199097 .27833558 .07998657 .27833558 .08299255 .28033448 .084991458 .28933717 .11898804 .39535523 .18499756 .42037965 .21899414 .42037965 .23799134 .42037965 .272995 .4113617 .272995 .35334779 .272995 .32235719 .2559967 .25532533 .21899414 .11528015 .20298767 .053268434 .16799927 .011245728 .12399292 .011245728 .117996219 .011245728 .09498596 .011245728 .07398987 .024276734 .09899902 .029266358 .12098694 .05027771 .12098694 .07827759 .12098694 .105270389 .09899902 .11328125 .083999637 .11328125 .053985597 .11328125 .0289917 .08728027 .0289917 .055267335 .0289917 .009246826 .07899475-.0107421879 .12298584-.0107421879 .18899536-.0107421879 .22499085 .059280397 .22799683 .0652771 .23999024 .028274537 .27598573-.0107421879 .33599855-.0107421879 .43899537-.0107421879 .49598695 .118270877 .49598695 .14328003 .49598695 .1532898 .4869995 .1532898 .48399354 .1532898 .47499085 .1532898 .47299195 .14929199 .47099305 .14228821 .43798829 .03527832 .36999513 .011245728 .33799745 .011245728 .29899598 .011245728 .2829895 .043273927 .2829895 .07727051 .2829895 .09927368 .2889862 .121276859 .2999878 .16529846L.33399964 .30233766Z"/>
</defs>
<path transform="matrix(1,0,0,-1.00005,1.4610005,143.48816)" d="M0 .02515H163.87732V141.38532H0Z" fill="#fffac2"/>
<path transform="matrix(1,0,0,-1.00005,1.4610005,143.48816)" stroke-width=".3985" stroke-linecap="butt" stroke-miterlimit="10" stroke-linejoin="miter" fill="none" stroke="#d5d6d5" d="M11.70552 .02515V141.38532M23.41104 .02515V141.38532M35.11656 .02515V141.38532M46.82208 .02515V141.38532M58.5276 .02515V141.38532M70.23314 .02515V141.38532M81.93866 .02515V141.38532M93.64418 .02515V141.38532M105.3497 .02515V141.38532M117.05522 .02515V141.38532M128.76074 .02515V141.38532M140.46628 .02515V141.38532M152.1718 .02515V141.38532M163.87732 .02515V141.38532"/>
<path transform="matrix(1,0,0,-1.00005,1.4610005,143.48816)" stroke-width=".3985" stroke-linecap="butt" stroke-miterlimit="10" stroke-linejoin="miter" fill="none" stroke="#d5d6d5" d="M23.41104 .02515V141.38532M46.82208 .02515V141.38532M70.23314 .02515V141.38532M117.05522 .02515V141.38532M140.46628 .02515V141.38532"/>
<path transform="matrix(1,0,0,-1.00005,1.4610005,143.48816)" stroke-width=".3985" stroke-linecap="butt" stroke-miterlimit="10" stroke-linejoin="miter" fill="none" stroke="#d5d6d5" d="M0 10.1223H163.87732M0 20.21947H163.87732M0 30.31662H163.87732M0 40.41377H163.87732M0 50.51093H163.87732M0 60.60808H163.87732M0 70.70523H163.87732M0 80.80238H163.87732M0 90.89954H163.87732M0 100.99669H163.87732M0 111.09384H163.87732M0 121.191H163.87732M0 131.28815H163.87732M0 141.38532H163.87732"/>
<path transform="matrix(1,0,0,-1.00005,1.4610005,143.48816)" stroke-width=".3985" stroke-linecap="butt" stroke-miterlimit="10" stroke-linejoin="miter" fill="none" stroke="#d5d6d5" d="M0 20.21947H163.87732M0 40.41377H163.87732M0 60.60808H163.87732M0 100.99669H163.87732M0 121.191H163.87732"/>
<path transform="matrix(1,0,0,-1.00005,1.4610005,143.48816)" stroke-width=".19925" stroke-linecap="butt" stroke-miterlimit="10" stroke-linejoin="miter" fill="none" stroke="#929292" d="M11.70552 79.385V82.21979M23.41104 79.385V82.21979M35.11656 79.385V82.21979M46.82208 79.385V82.21979M58.5276 79.385V82.21979M70.23314 79.385V82.21979M81.93866 79.385V82.21979M93.64418 79.385V82.21979M105.3497 79.385V82.21979M117.05522 79.385V82.21979M128.76074 79.385V82.21979M140.46628 79.385V82.21979M152.1718 79.385V82.21979M163.87732 79.385V82.21979"/>
<path transform="matrix(1,0,0,-1.00005,1.4610005,143.48816)" stroke-width=".19925" stroke-linecap="butt" stroke-miterlimit="10" stroke-linejoin="miter" fill="none" stroke="#929292" d="M23.41104 78.67651V82.92825M46.82208 78.67651V82.92825M70.23314 78.67651V82.92825M117.05522 78.67651V82.92825M140.46628 78.67651V82.92825"/>
<path transform="matrix(1,0,0,-1.00005,1.4610005,143.48816)" stroke-width=".19925" stroke-linecap="butt" stroke-miterlimit="10" stroke-linejoin="miter" fill="none" stroke="#929292" d="M92.22685 10.1223H95.06151M92.22685 20.21947H95.06151M92.22685 30.31662H95.06151M92.22685 40.41377H95.06151M92.22685 50.51093H95.06151M92.22685 60.60808H95.06151M92.22685 70.70523H95.06151M92.22685 80.80238H95.06151M92.22685 90.89954H95.06151M92.22685 100.99669H95.06151M92.22685 111.09384H95.06151M92.22685 121.191H95.06151M92.22685 131.28815H95.06151M92.22685 141.38532H95.06151"/>
<path transform="matrix(1,0,0,-1.00005,1.4610005,143.48816)" stroke-width=".19925" stroke-linecap="butt" stroke-miterlimit="10" stroke-linejoin="miter" fill="none" stroke="#929292" d="M91.5184 20.21947H95.76994M91.5184 40.41377H95.76994M91.5184 60.60808H95.76994M91.5184 100.99669H95.76994M91.5184 121.191H95.76994"/>
<path transform="matrix(1,0,0,-1.00005,1.4610005,143.48816)" stroke-width=".3985" stroke-linecap="butt" stroke-miterlimit="10" stroke-linejoin="miter" fill="none" stroke="#000000" d="M1.99252 80.80238H161.8848"/>
<path transform="matrix(-1,-0,0,1.00005,3.4535204,62.68174)" d="M1.99252 0-1.19551 1.59401 0 0-1.19551-1.59401"/>
<path transform="matrix(1,0,0,-1.00005,163.3458,62.68174)" d="M1.99252 0-1.19551 1.59401 0 0-1.19551-1.59401"/>
<path transform="matrix(1,0,0,-1.00005,1.4610005,143.48816)" stroke-width=".3985" stroke-linecap="butt" stroke-miterlimit="10" stroke-linejoin="miter" fill="none" stroke="#000000" d="M93.64418 2.01767V139.39279"/>
<path transform="matrix(0,1.00005,1,0,95.10518,141.47039)" d="M1.99252 0-1.19551 1.59401 0 0-1.19551-1.59401"/>
<path transform="matrix(0,-1.00005,-1,-0,95.10518,4.0884096)" d="M1.99252 0-1.19551 1.59401 0 0-1.19551-1.59401"/>
<use data-text="&#x2212;" xlink:href="#font_1_1" transform="matrix(7.9701,0,0,-7.970498,19.462,73.46467)"/>
<use data-text="6" xlink:href="#font_2_3" transform="matrix(7.9701,0,0,-7.970498,26.049,73.46467)"/>
<use data-text="&#x2212;" xlink:href="#font_1_1" transform="matrix(7.9701,0,0,-7.970498,42.873,73.46467)"/>
<use data-text="4" xlink:href="#font_2_2" transform="matrix(7.9701,0,0,-7.970498,49.46,73.46467)"/>
<use data-text="&#x2212;" xlink:href="#font_1_1" transform="matrix(7.9701,0,0,-7.970498,66.284,73.46467)"/>
<use data-text="2" xlink:href="#font_2_1" transform="matrix(7.9701,0,0,-7.970498,72.871,73.46467)"/>
<use data-text="2" xlink:href="#font_2_1" transform="matrix(7.9701,0,0,-7.970498,116.399,73.46467)"/>
<use data-text="4" xlink:href="#font_2_2" transform="matrix(7.9701,0,0,-7.970498,139.81,73.46467)"/>
<use data-text="&#x2212;" xlink:href="#font_1_1" transform="matrix(7.9701,0,0,-7.970498,80.52901,125.42126)"/>
<use data-text="6" xlink:href="#font_2_3" transform="matrix(7.9701,0,0,-7.970498,87.116008,125.42126)"/>
<use data-text="&#x2212;" xlink:href="#font_1_1" transform="matrix(7.9701,0,0,-7.970498,80.52901,105.22525)"/>
<use data-text="4" xlink:href="#font_2_2" transform="matrix(7.9701,0,0,-7.970498,87.116008,105.22525)"/>
<use data-text="&#x2212;" xlink:href="#font_1_1" transform="matrix(7.9701,0,0,-7.970498,80.52901,85.03024)"/>
<use data-text="2" xlink:href="#font_2_1" transform="matrix(7.9701,0,0,-7.970498,87.116008,85.03024)"/>
<use data-text="2" xlink:href="#font_2_1" transform="matrix(7.9701,0,0,-7.970498,87.116,45.054246)"/>
<use data-text="4" xlink:href="#font_2_2" transform="matrix(7.9701,0,0,-7.970498,87.116,24.859238)"/>
<path transform="matrix(1,0,0,-1.00005,1.4610005,143.48816)" stroke-width=".3985" stroke-linecap="butt" stroke-miterlimit="10" stroke-linejoin="miter" fill="none" stroke="#008099" d=""/>
<use data-text="(" xlink:href="#font_3_1" transform="matrix(9.9626,0,0,-9.963098,7.1260006,83.77217)" fill="#008099"/>
<use data-text="&#x2212;" xlink:href="#font_4_1" transform="matrix(9.9626,0,0,-9.963098,11.000001,83.77217)" fill="#008099"/>
<use data-text="4" xlink:href="#font_3_7" transform="matrix(9.9626,0,0,-9.963098,18.749,83.77217)" fill="#008099"/>
<use data-text="," xlink:href="#font_5_2" transform="matrix(9.9626,0,0,-9.963098,23.73,83.77217)" fill="#008099"/>
<use data-text="&#x2212;" xlink:href="#font_4_1" transform="matrix(9.9626,0,0,-9.963098,28.158,83.77217)" fill="#008099"/>
<use data-text="1" xlink:href="#font_3_4" transform="matrix(9.9626,0,0,-9.963098,35.907,83.77217)" fill="#008099"/>
<use data-text=")" xlink:href="#font_3_2" transform="matrix(9.9626,0,0,-9.963098,40.8883,83.77217)" fill="#008099"/>
<path transform="matrix(1,0,0,-1.00005,1.4610005,143.48816)" stroke-width=".3985" stroke-linecap="butt" stroke-miterlimit="10" stroke-linejoin="miter" fill="none" stroke="#008099" d=""/>
<use data-text="(" xlink:href="#font_3_1" transform="matrix(9.9626,0,0,-9.963098,98.625,83.77217)" fill="#008099"/>
<use data-text="0" xlink:href="#font_3_3" transform="matrix(9.9626,0,0,-9.963098,102.49049,83.77217)" fill="#008099"/>
<use data-text="," xlink:href="#font_5_2" transform="matrix(9.9626,0,0,-9.963098,107.481,83.77217)" fill="#008099"/>
<use data-text="&#x2212;" xlink:href="#font_4_1" transform="matrix(9.9626,0,0,-9.963098,111.909008,83.77217)" fill="#008099"/>
<use data-text="1" xlink:href="#font_3_4" transform="matrix(9.9626,0,0,-9.963098,119.657,83.77217)" fill="#008099"/>
<use data-text=")" xlink:href="#font_3_2" transform="matrix(9.9626,0,0,-9.963098,124.638309,83.77217)" fill="#008099"/>
<path transform="matrix(1,0,0,-1.00005,1.4610005,143.48816)" stroke-width=".3985" stroke-linecap="butt" stroke-miterlimit="10" stroke-linejoin="miter" fill="none" stroke="#c7502a" d=""/>
<use data-text="(" xlink:href="#font_3_1" transform="matrix(9.9626,0,0,-9.963098,38.286005,26.378312)" fill="#c7502a"/>
<use data-text="&#x2212;" xlink:href="#font_4_1" transform="matrix(9.9626,0,0,-9.963098,42.160005,26.378312)" fill="#c7502a"/>
<use data-text="2" xlink:href="#font_3_5" transform="matrix(9.9626,0,0,-9.963098,49.909006,26.378312)" fill="#c7502a"/>
<use data-text="," xlink:href="#font_5_2" transform="matrix(9.9626,0,0,-9.963098,54.89,26.378312)" fill="#c7502a"/>
<use data-text="3" xlink:href="#font_3_6" transform="matrix(9.9626,0,0,-9.963098,59.318,26.378312)" fill="#c7502a"/>
<use data-text=")" xlink:href="#font_3_2" transform="matrix(9.9626,0,0,-9.963098,64.2993,26.378312)" fill="#c7502a"/>
<path transform="matrix(1,0,0,-1.00005,1.4610005,143.48816)" stroke-width=".3985" stroke-linecap="butt" stroke-miterlimit="10" stroke-linejoin="miter" fill="none" stroke="#70485b" d=""/>
<use data-text="(" xlink:href="#font_3_1" transform="matrix(9.9626,0,0,-9.963098,10.287001,56.670824)" fill="#70485b"/>
<use data-text="&#x2212;" xlink:href="#font_4_1" transform="matrix(9.9626,0,0,-9.963098,14.161001,56.670824)" fill="#70485b"/>
<use data-text="3" xlink:href="#font_3_6" transform="matrix(9.9626,0,0,-9.963098,21.910002,56.670824)" fill="#70485b"/>
<use data-text="." xlink:href="#font_5_1" transform="matrix(9.9626,0,0,-9.963098,26.891,56.670824)" fill="#70485b"/>
<use data-text="7" xlink:href="#font_3_8" transform="matrix(9.9626,0,0,-9.963098,29.659003,56.670824)" fill="#70485b"/>
<use data-text="," xlink:href="#font_5_2" transform="matrix(9.9626,0,0,-9.963098,34.64,56.670824)" fill="#70485b"/>
<use data-text="0" xlink:href="#font_3_3" transform="matrix(9.9626,0,0,-9.963098,39.068,56.670824)" fill="#70485b"/>
<use data-text=")" xlink:href="#font_3_2" transform="matrix(9.9626,0,0,-9.963098,44.0493,56.670824)" fill="#70485b"/>
<path transform="matrix(1,0,0,-1.00005,1.4610005,143.48816)" stroke-width=".3985" stroke-linecap="butt" stroke-miterlimit="10" stroke-linejoin="miter" fill="none" stroke="#70485b" d=""/>
<use data-text="(" xlink:href="#font_3_1" transform="matrix(9.9626,0,0,-9.963098,95.48801,56.670824)" fill="#70485b"/>
<use data-text="&#x2212;" xlink:href="#font_4_1" transform="matrix(9.9626,0,0,-9.963098,99.362,56.670824)" fill="#70485b"/>
<use data-text="0" xlink:href="#font_3_3" transform="matrix(9.9626,0,0,-9.963098,107.11101,56.670824)" fill="#70485b"/>
<use data-text="." xlink:href="#font_5_1" transform="matrix(9.9626,0,0,-9.963098,112.092,56.670824)" fill="#70485b"/>
<use data-text="3" xlink:href="#font_3_6" transform="matrix(9.9626,0,0,-9.963098,114.86,56.670824)" fill="#70485b"/>
<use data-text="," xlink:href="#font_5_2" transform="matrix(9.9626,0,0,-9.963098,119.841,56.670824)" fill="#70485b"/>
<use data-text="0" xlink:href="#font_3_3" transform="matrix(9.9626,0,0,-9.963098,124.269008,56.670824)" fill="#70485b"/>
<use data-text=")" xlink:href="#font_3_2" transform="matrix(9.9626,0,0,-9.963098,129.2503,56.670824)" fill="#70485b"/>
<path transform="matrix(1,0,0,-1.00005,1.4610005,143.48816)" stroke-width=".99628" stroke-linecap="butt" stroke-miterlimit="10" stroke-linejoin="miter" fill="none" stroke="#9e0c0f" d="M32.88771 8.12775 34.6415 17.74416 37.87709 33.94528 41.11269 48.60341 44.34827 61.71867 47.58388 73.29085 50.81946 83.32024 54.05505 91.80663 57.29063 98.74994 60.52623 104.15036 63.76183 108.00781 66.99742 110.32231 70.23302 111.09384 73.4686 110.32242 76.70421 108.00806 79.93979 104.15071 83.17538 98.75037 86.41096 91.80711 89.64656 83.32088 92.88217 73.29167 96.11775 61.71954 99.35335 48.60443 102.58893 33.94635 105.82452 17.74527 107.57832 8.12914"/>
<path transform="matrix(-.17935,.9837991,.98375,.17935896,34.475069,134.66695)" d="M7.39124 0 2.37614 1.6717 .70447 0 2.37614-1.6717Z" fill="#9e0c0f"/>
<path transform="matrix(-.17935,.9837991,.98375,.17935896,34.475069,134.66695)" stroke-width=".99628" stroke-linecap="butt" stroke-miterlimit="10" stroke-linejoin="miter" fill="none" stroke="#9e0c0f" d="M7.39124 0 2.37614 1.6717 .70447 0 2.37614-1.6717Z"/>
<path transform="matrix(.17935,.9837991,.98375,-.17935896,108.91297,134.66556)" d="M7.39124 0 2.37614 1.6717 .70447 0 2.37614-1.6717Z" fill="#9e0c0f"/>
<path transform="matrix(.17935,.9837991,.98375,-.17935896,108.91297,134.66556)" stroke-width=".99628" stroke-linecap="butt" stroke-miterlimit="10" stroke-linejoin="miter" fill="none" stroke="#9e0c0f" d="M7.39124 0 2.37614 1.6717 .70447 0 2.37614-1.6717Z"/>
<use data-text="y" xlink:href="#font_5_5" transform="matrix(9.9626,0,0,-9.963098,109.962009,122.51311)" fill="#9e0c0f"/>
<use data-text="=" xlink:href="#font_3_9" transform="matrix(9.9626,0,0,-9.963098,117.971,122.51311)" fill="#9e0c0f"/>
<use data-text="p" xlink:href="#font_5_3" transform="matrix(9.9626,0,0,-9.963098,128.487,122.51311)" fill="#9e0c0f"/>
<use data-text="(" xlink:href="#font_3_1" transform="matrix(9.9626,0,0,-9.963098,133.5,122.51311)" fill="#9e0c0f"/>
<use data-text="x" xlink:href="#font_5_4" transform="matrix(9.9626,0,0,-9.963098,137.374,122.51311)" fill="#9e0c0f"/>
<use data-text=")" xlink:href="#font_3_2" transform="matrix(9.9626,0,0,-9.963098,143.068,122.51311)" fill="#9e0c0f"/>
<path transform="matrix(1,0,0,-1.00005,1.4610005,143.48816)" stroke-width=".99628" stroke-linecap="butt" stroke-dasharray="2.98883,2.98883" stroke-miterlimit="10" stroke-linejoin="miter" fill="none" stroke="#929292" d="M70.23314 2.91437V138.4961"/>
<path transform="matrix(0,1.00005,1,0,71.69414,140.57364)" d="M2.8892 0-1.73352 2.31136 0 0-1.73352-2.31136" fill="#929292"/>
<path transform="matrix(0,-1.00005,-1,-0,71.69414,4.985153)" d="M2.8892 0-1.73352 2.31136 0 0-1.73352-2.31136" fill="#929292"/>
<path transform="matrix(1,0,0,-1.00005,1.4610005,143.48816)" d="M48.81464 70.70523C48.81464 71.8057 47.92256 72.69778 46.82208 72.69778 45.72162 72.69778 44.82953 71.8057 44.82953 70.70523 44.82953 69.60475 45.72162 68.71268 46.82208 68.71268 47.92256 68.71268 48.81464 69.60475 48.81464 70.70523ZM46.82208 70.70523" fill="#008099"/>
<path transform="matrix(1,0,0,-1.00005,1.4610005,143.48816)" stroke-width=".3985" stroke-linecap="butt" stroke-miterlimit="10" stroke-linejoin="miter" fill="none" stroke="#008099" d="M48.81464 70.70523C48.81464 71.8057 47.92256 72.69778 46.82208 72.69778 45.72162 72.69778 44.82953 71.8057 44.82953 70.70523 44.82953 69.60475 45.72162 68.71268 46.82208 68.71268 47.92256 68.71268 48.81464 69.60475 48.81464 70.70523ZM46.82208 70.70523"/>
<path transform="matrix(1,0,0,-1.00005,1.4610005,143.48816)" stroke-width=".3985" stroke-linecap="butt" stroke-miterlimit="10" stroke-linejoin="miter" fill="none" stroke="#008099" d=""/>
<path transform="matrix(1,0,0,-1.00005,1.4610005,143.48816)" d="M95.63673 70.70523C95.63673 71.8057 94.74464 72.69778 93.64418 72.69778 92.5437 72.69778 91.65163 71.8057 91.65163 70.70523 91.65163 69.60475 92.5437 68.71268 93.64418 68.71268 94.74464 68.71268 95.63673 69.60475 95.63673 70.70523ZM93.64418 70.70523" fill="#008099"/>
<path transform="matrix(1,0,0,-1.00005,1.4610005,143.48816)" stroke-width=".3985" stroke-linecap="butt" stroke-miterlimit="10" stroke-linejoin="miter" fill="none" stroke="#008099" d="M95.63673 70.70523C95.63673 71.8057 94.74464 72.69778 93.64418 72.69778 92.5437 72.69778 91.65163 71.8057 91.65163 70.70523 91.65163 69.60475 92.5437 68.71268 93.64418 68.71268 94.74464 68.71268 95.63673 69.60475 95.63673 70.70523ZM93.64418 70.70523"/>
<path transform="matrix(1,0,0,-1.00005,1.4610005,143.48816)" stroke-width=".3985" stroke-linecap="butt" stroke-miterlimit="10" stroke-linejoin="miter" fill="none" stroke="#008099" d=""/>
<path transform="matrix(1,0,0,-1.00005,1.4610005,143.48816)" d="M72.2257 111.09384C72.2257 112.19432 71.3336 113.0864 70.23314 113.0864 69.13266 113.0864 68.24059 112.19432 68.24059 111.09384 68.24059 109.99338 69.13266 109.10129 70.23314 109.10129 71.3336 109.10129 72.2257 109.99338 72.2257 111.09384ZM70.23314 111.09384" fill="#c7502a"/>
<path transform="matrix(1,0,0,-1.00005,1.4610005,143.48816)" stroke-width=".3985" stroke-linecap="butt" stroke-miterlimit="10" stroke-linejoin="miter" fill="none" stroke="#c7502a" d="M72.2257 111.09384C72.2257 112.19432 71.3336 113.0864 70.23314 113.0864 69.13266 113.0864 68.24059 112.19432 68.24059 111.09384 68.24059 109.99338 69.13266 109.10129 70.23314 109.10129 71.3336 109.10129 72.2257 109.99338 72.2257 111.09384ZM70.23314 111.09384"/>
<path transform="matrix(1,0,0,-1.00005,1.4610005,143.48816)" stroke-width=".3985" stroke-linecap="butt" stroke-miterlimit="10" stroke-linejoin="miter" fill="none" stroke="#c7502a" d=""/>
<path transform="matrix(1,0,0,-1.00005,1.4610005,143.48816)" d="M51.97513 80.80238C51.97513 81.90286 51.08305 82.79494 49.98257 82.79494 48.88211 82.79494 47.99002 81.90286 47.99002 80.80238 47.99002 79.70192 48.88211 78.80983 49.98257 78.80983 51.08305 78.80983 51.97513 79.70192 51.97513 80.80238ZM49.98257 80.80238" fill="#70485b"/>
<path transform="matrix(1,0,0,-1.00005,1.4610005,143.48816)" stroke-width=".3985" stroke-linecap="butt" stroke-miterlimit="10" stroke-linejoin="miter" fill="none" stroke="#70485b" d="M51.97513 80.80238C51.97513 81.90286 51.08305 82.79494 49.98257 82.79494 48.88211 82.79494 47.99002 81.90286 47.99002 80.80238 47.99002 79.70192 48.88211 78.80983 49.98257 78.80983 51.08305 78.80983 51.97513 79.70192 51.97513 80.80238ZM49.98257 80.80238"/>
<path transform="matrix(1,0,0,-1.00005,1.4610005,143.48816)" stroke-width=".3985" stroke-linecap="butt" stroke-miterlimit="10" stroke-linejoin="miter" fill="none" stroke="#70485b" d=""/>
<path transform="matrix(1,0,0,-1.00005,1.4610005,143.48816)" d="M92.49963 80.80238C92.49963 81.90286 91.60756 82.79494 90.50708 82.79494 89.40662 82.79494 88.51453 81.90286 88.51453 80.80238 88.51453 79.70192 89.40662 78.80983 90.50708 78.80983 91.60756 78.80983 92.49963 79.70192 92.49963 80.80238ZM90.50708 80.80238" fill="#70485b"/>
<path transform="matrix(1,0,0,-1.00005,1.4610005,143.48816)" stroke-width=".3985" stroke-linecap="butt" stroke-miterlimit="10" stroke-linejoin="miter" fill="none" stroke="#70485b" d="M92.49963 80.80238C92.49963 81.90286 91.60756 82.79494 90.50708 82.79494 89.40662 82.79494 88.51453 81.90286 88.51453 80.80238 88.51453 79.70192 89.40662 78.80983 90.50708 78.80983 91.60756 78.80983 92.49963 79.70192 92.49963 80.80238ZM90.50708 80.80238"/>
<path transform="matrix(1,0,0,-1.00005,1.4610005,143.48816)" stroke-width=".3985" stroke-linecap="butt" stroke-miterlimit="10" stroke-linejoin="miter" fill="none" stroke="#70485b" d=""/>
<use data-text="x" xlink:href="#font_5_4" transform="matrix(9.9626,0,0,-9.963098,156.125,59.16195)"/>
<use data-text="y" xlink:href="#font_5_5" transform="matrix(9.9626,0,0,-9.963098,98.625,9.905487)"/>
</svg>
