<svg xmlns="http://www.w3.org/2000/svg" xmlns:xlink="http://www.w3.org/1999/xlink" version="1.1" width="242" height="210" viewBox="0 0 242 210">
<defs>
<path id="font_1_1" d="M.69898989 .22743225C.71499636 .22743225 .7369995 .22743225 .7369995 .25042726 .7369995 .2734375 .71499636 .2734375 .69898989 .2734375H.12599182C.10998535 .2734375 .08799744 .2734375 .08799744 .25042726 .08799744 .22743225 .10998535 .22743225 .12599182 .22743225H.69898989Z"/>
<path id="font_2_2" d="M.31399537 .63708499C.31399537 .664032 .31199647 .66503909 .2849884 .66503909 .24398804 .6251831 .19099427 .6013489 .09599304 .6013489V.5683594C.12298584 .5683594 .1769867 .5683594 .23498535 .5953522V.08203125C.23498535 .04499817 .23199463 .032989503 .13699341 .032989503H.101989749V0C.14299011 .0029907227 .22898865 .0029907227 .27398683 .0029907227 .31900025 .0029907227 .4059906 .0029907227 .44699098 0V.032989503H.4119873C.31698609 .032989503 .31399537 .04499817 .31399537 .08203125V.63708499Z"/>
<path id="font_2_1" d="M.4889984 .31877137C.4889984 .42585755 .47799684 .49090577 .44499208 .55496218 .40098573 .6430359 .31999208 .66503909 .2649994 .66503909 .13899231 .66503909 .09298706 .5709839 .07899475 .5429535 .042999269 .4698944 .040985109 .3708191 .040985109 .31877137 .040985109 .25271607 .04399109 .15162659 .09199524 .07156372 .13798523-.0024871827 .21199036-.021484375 .2649994-.021484375 .31298829-.021484375 .39898683-.0064849855 .44898988 .09257507 .48599244 .16464234 .4889984 .2537079 .4889984 .31877137M.2649994 .006515503C.23098755 .006515503 .1619873 .022521973 .14099121 .12760926 .12998963 .18466187 .12998963 .2787323 .12998963 .33078004 .12998963 .3998413 .12998963 .4698944 .14099121 .5249481 .1619873 .6270294 .23999024 .6370239 .2649994 .6370239 .29899598 .6370239 .36799623 .62002566 .3880005 .5289459 .3999939 .4738922 .3999939 .39883424 .3999939 .33078004 .3999939 .27172853 .3999939 .18165589 .3880005 .12561035 .36698915 .020523072 .2979889 .006515503 .2649994 .006515503Z"/>
<path id="font_2_6" d="M.33198548 .36080934C.3880005 .38783265 .45599366 .4378662 .45599366 .5159302 .45599366 .6110077 .35899354 .66503909 .2659912 .66503909 .1599884 .66503909 .07398987 .59199526 .07398987 .49790956 .07398987 .46089173 .08699036 .42686463 .11199951 .39782716 .1289978 .3768158 .1329956 .3748169 .19499207 .3357849 .070999149 .2807312 .04399109 .20767212 .04399109 .15162659 .04399109 .041534425 .15499878-.021484375 .2639923-.021484375 .3869934-.021484375 .48599244 .061553956 .48599244 .16764832 .48599244 .23069763 .45199586 .2727356 .43598939 .28974916 .4189911 .30575563 .41799928 .3067627 .33198548 .36080934M.1769867 .45487977C.147995 .4718933 .12399292 .5009155 .12399292 .5359497 .12399292 .598999 .19299317 .6390381 .2639923 .6390381 .34199525 .6390381 .4059906 .5859833 .4059906 .5159302 .4059906 .45788575 .36099244 .408844 .3019867 .37982179L.1769867 .45487977M.22599793 .31776429C.22999573 .31576539 .34399415 .24571228 .36099244 .23469544 .3769989 .22569275 .42900086 .19366455 .42900086 .13360596 .42900086 .056549074 .34799195 .008514404 .2659912 .008514404 .1769867 .008514404 .100997928 .06956482 .100997928 .15162659 .100997928 .22668457 .15699768 .28573609 .22599793 .31776429Z"/>
<path id="font_2_5" d="M.13798523 .33073426C.13798523 .41377259 .14498902 .4868164 .18099976 .54782107 .21099854 .5978241 .2619934 .6390381 .32499696 .6390381 .34498597 .6390381 .3909912 .63601687 .4139862 .60084536 .36898805 .5988312 .36499024 .5648346 .36499024 .553833 .36499024 .5238342 .3880005 .50683596 .4119873 .50683596 .42999269 .50683596 .45899964 .51782229 .45899964 .5558319 .45899964 .615921 .4139862 .66503909 .32398988 .66503909 .18499756 .66503909 .04399109 .53282168 .04399109 .31672669 .04399109 .045532228 .16999817-.021484375 .2669983-.021484375 .31498719-.021484375 .36698915-.0084991459 .4119873 .03453064 .45199586 .07354736 .48599244 .11558533 .48599244 .20263672 .48599244 .33372499 .3869934 .42578126 .27598573 .42578126 .20399475 .42578126 .16099549 .37976075 .13798523 .33073426M.2669983 .008514404C.21398926 .008514404 .18099976 .045532228 .1659851 .07354736 .14299011 .11859131 .14099121 .18663025 .14099121 .22465515 .14099121 .32373048 .19499207 .3977661 .27198792 .3977661 .32199098 .3977661 .35198976 .37176515 .37098695 .33673097 .3919983 .29971314 .3919983 .25468446 .3919983 .2036438 .3919983 .15260315 .3919983 .10858154 .37199403 .07255554 .34599305 .026519776 .31098939 .008514404 .2669983 .008514404Z"/>
<path id="font_2_4" d="M.3939972 .6468048C.3939972 .6667938 .3939972 .6748047 .37298585 .6748047 .3600006 .6748047 .35899354 .6737976 .34899903 .65979006L.02999878 .197052V.1640625H.31199647V.08100891C.31199647 .04399109 .30899049 .032989503 .23199463 .032989503H.20899964V0C.2939911 .0029907227 .29599 .0029907227 .35299684 .0029907227 .4099884 .0029907227 .4119873 .0029907227 .49699403 0V.032989503H.47399903C.39698792 .032989503 .3939972 .04399109 .3939972 .08100891V.1640625H.5V.197052H.3939972V.6468048M.31900025 .5658417V.197052H.06498718L.31900025 .5658417Z"/>
<path id="font_2_3" d="M.28199769 .20405579C.2979889 .21907044 .33999635 .2520752 .35598756 .26608277 .41799928 .32312013 .47698976 .3781433 .47698976 .46917726 .47698976 .588089 .3769989 .66503909 .2519989 .66503909 .13198853 .66503909 .052993776 .57411196 .052993776 .48516847 .052993776 .4361725 .09199524 .4291687 .10598755 .4291687 .1269989 .4291687 .1579895 .4441681 .1579895 .48217774 .1579895 .5341797 .10798645 .5341797 .09599304 .5341797 .125 .6070709 .19198609 .6320343 .24099732 .6320343 .33399964 .6320343 .38198854 .55314639 .38198854 .46917726 .38198854 .36514283 .30899049 .28910829 .19099427 .16804505L.06498718 .037994386C.052993776 .026992798 .052993776 .024993897 .052993776 0H.44799806L.47698976 .17904663H.44599916C.44299317 .1590271 .43499757 .10900879 .4229889 .08999634 .4169922 .08198547 .34098817 .08198547 .32499696 .08198547H.14698792L.28199769 .20405579Z"/>
<clipPath id="clip_3">
<path transform="matrix(1.00005,0,0,-1.00002,1.4609223,208.02457)" d="M0 0H239.10645V206.22547H0Z"/>
</clipPath>
<path id="font_4_1" d="M.33399964 .30233766C.33999635 .32835389 .36299134 .42037965 .43299867 .42037965 .43798829 .42037965 .46199037 .42037965 .48298646 .40734864 .45498658 .402359 .43499757 .37734986 .43499757 .35334779 .43499757 .33735658 .44599916 .31835938 .47299195 .31835938 .49499513 .31835938 .5269928 .3363495 .5269928 .37635804 .5269928 .42837525 .46798707 .4423828 .43399049 .4423828 .37599183 .4423828 .34098817 .38935853 .32899476 .36634828 .3039856 .43237306 .25 .4423828 .22099304 .4423828 .116989139 .4423828 .05999756 .3133545 .05999756 .28834535 .05999756 .27833558 .069992069 .27833558 .07199097 .27833558 .07998657 .27833558 .08299255 .28033448 .084991458 .28933717 .11898804 .39535523 .18499756 .42037965 .21899414 .42037965 .23799134 .42037965 .272995 .4113617 .272995 .35334779 .272995 .32235719 .2559967 .25532533 .21899414 .11528015 .20298767 .053268434 .16799927 .011245728 .12399292 .011245728 .117996219 .011245728 .09498596 .011245728 .07398987 .024276734 .09899902 .029266358 .12098694 .05027771 .12098694 .07827759 .12098694 .105270389 .09899902 .11328125 .083999637 .11328125 .053985597 .11328125 .0289917 .08728027 .0289917 .055267335 .0289917 .009246826 .07899475-.0107421879 .12298584-.0107421879 .18899536-.0107421879 .22499085 .059280397 .22799683 .0652771 .23999024 .028274537 .27598573-.0107421879 .33599855-.0107421879 .43899537-.0107421879 .49598695 .118270877 .49598695 .14328003 .49598695 .1532898 .4869995 .1532898 .48399354 .1532898 .47499085 .1532898 .47299195 .14929199 .47099305 .14228821 .43798829 .03527832 .36999513 .011245728 .33799745 .011245728 .29899598 .011245728 .2829895 .043273927 .2829895 .07727051 .2829895 .09927368 .2889862 .121276859 .2999878 .16529846L.33399964 .30233766Z"/>
<path id="font_4_2" d="M.48599244 .38136292C.48999024 .39537049 .48999024 .39736939 .48999024 .40437318 .48999024 .42237855 .47599793 .43138124 .46099855 .43138124 .45098878 .43138124 .43499757 .42536927 .42599488 .41036988 .42399598 .405365 .41600038 .37435914 .4119873 .35635377 .40499879 .33035279 .397995 .30334474 .3919983 .27633668L.34700013 .09628296C.34298707 .08126831 .2999878 .011245728 .23399353 .011245728 .18299866 .011245728 .17199707 .055267335 .17199707 .0922699 .17199707 .1382904 .18899536 .20030213 .22299195 .28833009 .23899842 .3293457 .24299622 .3403473 .24299622 .36035157 .24299622 .405365 .21099854 .4423828 .16099549 .4423828 .06599426 .4423828 .0289917 .29733277 .0289917 .28833009 .0289917 .27833558 .038986207 .27833558 .040985109 .27833558 .050994874 .27833558 .051986696 .28033448 .056991579 .29634095 .083999637 .3903656 .12399292 .42037965 .1579895 .42037965 .1659851 .42037965 .18299866 .42037965 .18299866 .3883667 .18299866 .36335755 .17298889 .3373413 .1659851 .31834413 .12599182 .21231079 .10798645 .1552887 .10798645 .10827637 .10798645 .019256592 .17098999-.0107421879 .22999573-.0107421879 .2689972-.0107421879 .30299378 .0062561037 .33099366 .03425598 .31799317-.017745972 .30599977-.06674194 .2659912-.11973572 .23999024-.15385437 .20199585-.18309021 .1559906-.18309021 .14199829-.18309021 .09700012-.18005371 .07998657-.14074707 .09599304-.14074707 .10899353-.14074707 .12298584-.1287384 .1329956-.11973572 .14299011-.10673523 .14299011-.08773804 .14299011-.056747438 .115997318-.052734376 .10598755-.052734376 .08299255-.052734376 .049987794-.068740848 .049987794-.11773682 .049987794-.16796875 .09399414-.20507813 .1559906-.20507813 .25898744-.20507813 .3619995-.11373901 .3899994-.00074768069L.48599244 .38136292Z"/>
</defs>
<path transform="matrix(1.00005,0,0,-1.00002,1.4609223,208.02457)" d="M0 0H239.10645V206.22547H0Z" fill="#fffac2"/>
<path transform="matrix(1.00005,0,0,-1.00002,1.4609223,208.02457)" stroke-width=".3985" stroke-linecap="butt" stroke-miterlimit="10" stroke-linejoin="miter" fill="none" stroke="#d5d6d5" d="M9.96277 0V206.22547M29.8883 0V206.22547M49.81384 0V206.22547M69.73938 0V206.22547M89.66492 0V206.22547M109.59045 0V206.22547M129.51599 0V206.22547M149.44153 0V206.22547M169.36707 0V206.22547M189.2926 0V206.22547M209.21814 0V206.22547M229.14368 0V206.22547"/>
<path transform="matrix(1.00005,0,0,-1.00002,1.4609223,208.02457)" stroke-width=".3985" stroke-linecap="butt" stroke-miterlimit="10" stroke-linejoin="miter" fill="none" stroke="#d5d6d5" d="M19.92554 0V206.22547M39.85107 0V206.22547M59.77661 0V206.22547M79.70215 0V206.22547M99.62769 0V206.22547M139.47876 0V206.22547M159.4043 0V206.22547M179.32984 0V206.22547M199.25537 0V206.22547M219.18091 0V206.22547"/>
<path transform="matrix(1.00005,0,0,-1.00002,1.4609223,208.02457)" stroke-width=".3985" stroke-linecap="butt" stroke-miterlimit="10" stroke-linejoin="miter" fill="none" stroke="#d5d6d5" d="M0 0H239.10645M0 6.87418H239.10645M0 13.74835H239.10645M0 20.62254H239.10645M0 27.49672H239.10645M0 34.37091H239.10645M0 41.24509H239.10645M0 48.11928H239.10645M0 54.99345H239.10645M0 61.86763H239.10645M0 68.74182H239.10645M0 75.616H239.10645M0 82.49019H239.10645M0 89.36436H239.10645M0 96.23856H239.10645M0 103.11273H239.10645M0 109.98691H239.10645M0 116.8611H239.10645M0 123.73528H239.10645M0 130.60947H239.10645M0 137.48365H239.10645M0 144.35784H239.10645M0 151.23201H239.10645M0 158.10619H239.10645M0 164.98038H239.10645M0 171.85456H239.10645M0 178.72875H239.10645M0 185.60292H239.10645M0 192.47711H239.10645M0 199.35129H239.10645M0 206.22547H239.10645"/>
<path transform="matrix(1.00005,0,0,-1.00002,1.4609223,208.02457)" stroke-width=".3985" stroke-linecap="butt" stroke-miterlimit="10" stroke-linejoin="miter" fill="none" stroke="#d5d6d5" d="M0 20.62254H239.10645M0 48.11928H239.10645M0 75.616H239.10645M0 130.60947H239.10645M0 158.10619H239.10645M0 185.60292H239.10645"/>
<path transform="matrix(1.00005,0,0,-1.00002,1.4609223,208.02457)" stroke-width=".19925" stroke-linecap="butt" stroke-miterlimit="10" stroke-linejoin="miter" fill="none" stroke="#929292" d="M9.96277 101.6954V104.53006M29.8883 101.6954V104.53006M49.81384 101.6954V104.53006M69.73938 101.6954V104.53006M89.66492 101.6954V104.53006M109.59045 101.6954V104.53006M129.51599 101.6954V104.53006M149.44153 101.6954V104.53006M169.36707 101.6954V104.53006M189.2926 101.6954V104.53006M209.21814 101.6954V104.53006M229.14368 101.6954V104.53006"/>
<path transform="matrix(1.00005,0,0,-1.00002,1.4609223,208.02457)" stroke-width=".19925" stroke-linecap="butt" stroke-miterlimit="10" stroke-linejoin="miter" fill="none" stroke="#929292" d="M19.92554 100.98697V105.23848M39.85107 100.98697V105.23848M59.77661 100.98697V105.23848M79.70215 100.98697V105.23848M99.62769 100.98697V105.23848M139.47876 100.98697V105.23848M159.4043 100.98697V105.23848M179.32984 100.98697V105.23848M199.25537 100.98697V105.23848M219.18091 100.98697V105.23848"/>
<path transform="matrix(1.00005,0,0,-1.00002,1.4609223,208.02457)" stroke-width=".19925" stroke-linecap="butt" stroke-miterlimit="10" stroke-linejoin="miter" fill="none" stroke="#929292" d="M118.1358 0H120.97064M118.1358 6.87418H120.97064M118.1358 13.74835H120.97064M118.1358 20.62254H120.97064M118.1358 27.49672H120.97064M118.1358 34.37091H120.97064M118.1358 41.24509H120.97064M118.1358 48.11928H120.97064M118.1358 54.99345H120.97064M118.1358 61.86763H120.97064M118.1358 68.74182H120.97064M118.1358 75.616H120.97064M118.1358 82.49019H120.97064M118.1358 89.36436H120.97064M118.1358 96.23856H120.97064M118.1358 103.11273H120.97064M118.1358 109.98691H120.97064M118.1358 116.8611H120.97064M118.1358 123.73528H120.97064M118.1358 130.60947H120.97064M118.1358 137.48365H120.97064M118.1358 144.35784H120.97064M118.1358 151.23201H120.97064M118.1358 158.10619H120.97064M118.1358 164.98038H120.97064M118.1358 171.85456H120.97064M118.1358 178.72875H120.97064M118.1358 185.60292H120.97064M118.1358 192.47711H120.97064M118.1358 199.35129H120.97064M118.1358 206.22547H120.97064"/>
<path transform="matrix(1.00005,0,0,-1.00002,1.4609223,208.02457)" stroke-width=".19925" stroke-linecap="butt" stroke-miterlimit="10" stroke-linejoin="miter" fill="none" stroke="#929292" d="M117.42729 20.62254H121.67914M117.42729 48.11928H121.67914M117.42729 75.616H121.67914M117.42729 130.60947H121.67914M117.42729 158.10619H121.67914M117.42729 185.60292H121.67914"/>
<path transform="matrix(1.00005,0,0,-1.00002,1.4609223,208.02457)" stroke-width=".3985" stroke-linecap="butt" stroke-miterlimit="10" stroke-linejoin="miter" fill="none" stroke="#000000" d="M1.99252 103.11273H237.1139"/>
<path transform="matrix(-1.00005,-0,0,1.00002,3.4535418,104.90977)" d="M1.99252 0-1.19551 1.59401 0 0-1.19551-1.59401"/>
<path transform="matrix(1.00005,0,0,-1.00002,238.58667,104.90977)" d="M1.99252 0-1.19551 1.59401 0 0-1.19551-1.59401"/>
<path transform="matrix(1.00005,0,0,-1.00002,1.4609223,208.02457)" stroke-width=".3985" stroke-linecap="butt" stroke-miterlimit="10" stroke-linejoin="miter" fill="none" stroke="#000000" d="M119.55322 1.99252V204.23294"/>
<path transform="matrix(0,1.00002,1.00005,0,121.02012,206.03202)" d="M1.99252 0-1.19551 1.59401 0 0-1.19551-1.59401"/>
<path transform="matrix(0,-1.00002,-1.00005,-0,121.02012,3.7875367)" d="M1.99252 0-1.19551 1.59401 0 0-1.19551-1.59401"/>
<use data-text="&#x2212;" xlink:href="#font_1_1" transform="matrix(7.970498,0,0,-7.9702599,13.859541,115.69172)"/>
<use data-text="1" xlink:href="#font_2_2" transform="matrix(7.970498,0,0,-7.9702599,20.446869,115.69172)"/>
<use data-text="0" xlink:href="#font_2_1" transform="matrix(7.970498,0,0,-7.9702599,24.679203,115.69172)"/>
<use data-text="&#x2212;" xlink:href="#font_1_1" transform="matrix(7.970498,0,0,-7.9702599,35.903646,115.69172)"/>
<use data-text="8" xlink:href="#font_2_6" transform="matrix(7.970498,0,0,-7.9702599,42.490976,115.69172)"/>
<use data-text="&#x2212;" xlink:href="#font_1_1" transform="matrix(7.970498,0,0,-7.9702599,55.829645,115.69172)"/>
<use data-text="6" xlink:href="#font_2_5" transform="matrix(7.970498,0,0,-7.9702599,62.41697,115.69172)"/>
<use data-text="&#x2212;" xlink:href="#font_1_1" transform="matrix(7.970498,0,0,-7.9702599,75.75663,115.69172)"/>
<use data-text="4" xlink:href="#font_2_4" transform="matrix(7.970498,0,0,-7.9702599,82.343959,115.69172)"/>
<use data-text="&#x2212;" xlink:href="#font_1_1" transform="matrix(7.970498,0,0,-7.9702599,95.68263,115.69172)"/>
<use data-text="2" xlink:href="#font_2_3" transform="matrix(7.970498,0,0,-7.9702599,102.26996,115.69172)"/>
<use data-text="2" xlink:href="#font_2_3" transform="matrix(7.970498,0,0,-7.9702599,138.82979,115.69172)"/>
<use data-text="4" xlink:href="#font_2_4" transform="matrix(7.970498,0,0,-7.9702599,158.75579,115.69172)"/>
<use data-text="6" xlink:href="#font_2_5" transform="matrix(7.970498,0,0,-7.9702599,178.68277,115.69172)"/>
<use data-text="8" xlink:href="#font_2_6" transform="matrix(7.970498,0,0,-7.9702599,198.60877,115.69172)"/>
<use data-text="1" xlink:href="#font_2_2" transform="matrix(7.970498,0,0,-7.9702599,216.41867,115.69172)"/>
<use data-text="0" xlink:href="#font_2_1" transform="matrix(7.970498,0,0,-7.9702599,220.651,115.69172)"/>
<use data-text="&#x2212;" xlink:href="#font_1_1" transform="matrix(7.970498,0,0,-7.9702599,102.208957,189.5542)"/>
<use data-text="1" xlink:href="#font_2_2" transform="matrix(7.970498,0,0,-7.9702599,108.79628,189.5542)"/>
<use data-text="2" xlink:href="#font_2_3" transform="matrix(7.970498,0,0,-7.9702599,113.02861,189.5542)"/>
<use data-text="&#x2212;" xlink:href="#font_1_1" transform="matrix(7.970498,0,0,-7.9702599,106.44316,162.05765)"/>
<use data-text="8" xlink:href="#font_2_6" transform="matrix(7.970498,0,0,-7.9702599,113.03049,162.05765)"/>
<use data-text="&#x2212;" xlink:href="#font_1_1" transform="matrix(7.970498,0,0,-7.9702599,106.44316,134.56009)"/>
<use data-text="4" xlink:href="#font_2_4" transform="matrix(7.970498,0,0,-7.9702599,113.03049,134.56009)"/>
<use data-text="4" xlink:href="#font_2_4" transform="matrix(7.970498,0,0,-7.9702599,113.030498,79.981)"/>
<use data-text="8" xlink:href="#font_2_6" transform="matrix(7.970498,0,0,-7.9702599,113.030498,52.48346)"/>
<use data-text="1" xlink:href="#font_2_2" transform="matrix(7.970498,0,0,-7.9702599,108.79629,24.9859)"/>
<use data-text="2" xlink:href="#font_2_3" transform="matrix(7.970498,0,0,-7.9702599,113.02862,24.9859)"/>
<g clip-path="url(#clip_3)">
</g>
<path transform="matrix(1.00005,0,0,-1.00002,1.4609223,208.02457)" d="M21.91809 124.59454C21.91809 125.695 21.026 126.5871 19.92554 126.5871 18.82506 126.5871 17.93298 125.695 17.93298 124.59454 17.93298 123.49406 18.82506 122.60199 19.92554 122.60199 21.026 122.60199 21.91809 123.49406 21.91809 124.59454ZM19.92554 124.59454" fill="#9e0c0f"/>
<path transform="matrix(1.00005,0,0,-1.00002,1.4609223,208.02457)" stroke-width=".3985" stroke-linecap="butt" stroke-miterlimit="10" stroke-linejoin="miter" fill="none" stroke="#9e0c0f" d="M21.91809 124.59454C21.91809 125.695 21.026 126.5871 19.92554 126.5871 18.82506 126.5871 17.93298 125.695 17.93298 124.59454 17.93298 123.49406 18.82506 122.60199 19.92554 122.60199 21.026 122.60199 21.91809 123.49406 21.91809 124.59454ZM19.92554 124.59454"/>
<path transform="matrix(1.00005,0,0,-1.00002,1.4609223,208.02457)" d="M31.88086 125.38507C31.88086 126.48555 30.98877 127.37762 29.8883 127.37762 28.78783 127.37762 27.89575 126.48555 27.89575 125.38507 27.89575 124.2846 28.78783 123.39252 29.8883 123.39252 30.98877 123.39252 31.88086 124.2846 31.88086 125.38507ZM29.8883 125.38507" fill="#9e0c0f"/>
<path transform="matrix(1.00005,0,0,-1.00002,1.4609223,208.02457)" stroke-width=".3985" stroke-linecap="butt" stroke-miterlimit="10" stroke-linejoin="miter" fill="none" stroke="#9e0c0f" d="M31.88086 125.38507C31.88086 126.48555 30.98877 127.37762 29.8883 127.37762 28.78783 127.37762 27.89575 126.48555 27.89575 125.38507 27.89575 124.2846 28.78783 123.39252 29.8883 123.39252 30.98877 123.39252 31.88086 124.2846 31.88086 125.38507ZM29.8883 125.38507"/>
<path transform="matrix(1.00005,0,0,-1.00002,1.4609223,208.02457)" d="M41.84363 127.07613C41.84363 128.1766 40.95154 129.06868 39.85107 129.06868 38.7506 129.06868 37.85852 128.1766 37.85852 127.07613 37.85852 125.97566 38.7506 125.08357 39.85107 125.08357 40.95154 125.08357 41.84363 125.97566 41.84363 127.07613ZM39.85107 127.07613" fill="#9e0c0f"/>
<path transform="matrix(1.00005,0,0,-1.00002,1.4609223,208.02457)" stroke-width=".3985" stroke-linecap="butt" stroke-miterlimit="10" stroke-linejoin="miter" fill="none" stroke="#9e0c0f" d="M41.84363 127.07613C41.84363 128.1766 40.95154 129.06868 39.85107 129.06868 38.7506 129.06868 37.85852 128.1766 37.85852 127.07613 37.85852 125.97566 38.7506 125.08357 39.85107 125.08357 40.95154 125.08357 41.84363 125.97566 41.84363 127.07613ZM39.85107 127.07613"/>
<path transform="matrix(1.00005,0,0,-1.00002,1.4609223,208.02457)" d="M51.8064 129.02153C51.8064 130.122 50.9143 131.01409 49.81384 131.01409 48.71336 131.01409 47.82129 130.122 47.82129 129.02153 47.82129 127.92105 48.71336 127.02898 49.81384 127.02898 50.9143 127.02898 51.8064 127.92105 51.8064 129.02153ZM49.81384 129.02153" fill="#9e0c0f"/>
<path transform="matrix(1.00005,0,0,-1.00002,1.4609223,208.02457)" stroke-width=".3985" stroke-linecap="butt" stroke-miterlimit="10" stroke-linejoin="miter" fill="none" stroke="#9e0c0f" d="M51.8064 129.02153C51.8064 130.122 50.9143 131.01409 49.81384 131.01409 48.71336 131.01409 47.82129 130.122 47.82129 129.02153 47.82129 127.92105 48.71336 127.02898 49.81384 127.02898 50.9143 127.02898 51.8064 127.92105 51.8064 129.02153ZM49.81384 129.02153"/>
<path transform="matrix(1.00005,0,0,-1.00002,1.4609223,208.02457)" d="M61.76917 134.04656C61.76917 135.14702 60.87708 136.03911 59.77661 136.03911 58.67613 136.03911 57.78406 135.14702 57.78406 134.04656 57.78406 132.94608 58.67613 132.054 59.77661 132.054 60.87708 132.054 61.76917 132.94608 61.76917 134.04656ZM59.77661 134.04656" fill="#9e0c0f"/>
<path transform="matrix(1.00005,0,0,-1.00002,1.4609223,208.02457)" stroke-width=".3985" stroke-linecap="butt" stroke-miterlimit="10" stroke-linejoin="miter" fill="none" stroke="#9e0c0f" d="M61.76917 134.04656C61.76917 135.14702 60.87708 136.03911 59.77661 136.03911 58.67613 136.03911 57.78406 135.14702 57.78406 134.04656 57.78406 132.94608 58.67613 132.054 59.77661 132.054 60.87708 132.054 61.76917 132.94608 61.76917 134.04656ZM59.77661 134.04656"/>
<path transform="matrix(1.00005,0,0,-1.00002,1.4609223,208.02457)" d="M71.73193 149.9809C71.73193 151.08138 70.83984 151.97345 69.73938 151.97345 68.6389 151.97345 67.74683 151.08138 67.74683 149.9809 67.74683 148.88043 68.6389 147.98834 69.73938 147.98834 70.83984 147.98834 71.73193 148.88043 71.73193 149.9809ZM69.73938 149.9809" fill="#9e0c0f"/>
<path transform="matrix(1.00005,0,0,-1.00002,1.4609223,208.02457)" stroke-width=".3985" stroke-linecap="butt" stroke-miterlimit="10" stroke-linejoin="miter" fill="none" stroke="#9e0c0f" d="M71.73193 149.9809C71.73193 151.08138 70.83984 151.97345 69.73938 151.97345 68.6389 151.97345 67.74683 151.08138 67.74683 149.9809 67.74683 148.88043 68.6389 147.98834 69.73938 147.98834 70.83984 147.98834 71.73193 148.88043 71.73193 149.9809ZM69.73938 149.9809"/>
<path transform="matrix(1.00005,0,0,-1.00002,1.4609223,208.02457)" d="M91.65747 82.49019C91.65747 83.59065 90.76538 84.48274 89.66492 84.48274 88.56444 84.48274 87.67236 83.59065 87.67236 82.49019 87.67236 81.38971 88.56444 80.49763 89.66492 80.49763 90.76538 80.49763 91.65747 81.38971 91.65747 82.49019ZM89.66492 82.49019" fill="#9e0c0f"/>
<path transform="matrix(1.00005,0,0,-1.00002,1.4609223,208.02457)" stroke-width=".3985" stroke-linecap="butt" stroke-miterlimit="10" stroke-linejoin="miter" fill="none" stroke="#9e0c0f" d="M91.65747 82.49019C91.65747 83.59065 90.76538 84.48274 89.66492 84.48274 88.56444 84.48274 87.67236 83.59065 87.67236 82.49019 87.67236 81.38971 88.56444 80.49763 89.66492 80.49763 90.76538 80.49763 91.65747 81.38971 91.65747 82.49019ZM89.66492 82.49019"/>
<path transform="matrix(1.00005,0,0,-1.00002,1.4609223,208.02457)" d="M101.62024 97.95709C101.62024 99.05756 100.72815 99.94965 99.62769 99.94965 98.5272 99.94965 97.63513 99.05756 97.63513 97.95709 97.63513 96.85661 98.5272 95.96454 99.62769 95.96454 100.72815 95.96454 101.62024 96.85661 101.62024 97.95709ZM99.62769 97.95709" fill="#9e0c0f"/>
<path transform="matrix(1.00005,0,0,-1.00002,1.4609223,208.02457)" stroke-width=".3985" stroke-linecap="butt" stroke-miterlimit="10" stroke-linejoin="miter" fill="none" stroke="#9e0c0f" d="M101.62024 97.95709C101.62024 99.05756 100.72815 99.94965 99.62769 99.94965 98.5272 99.94965 97.63513 99.05756 97.63513 97.95709 97.63513 96.85661 98.5272 95.96454 99.62769 95.96454 100.72815 95.96454 101.62024 96.85661 101.62024 97.95709ZM99.62769 97.95709"/>
<path transform="matrix(1.00005,0,0,-1.00002,1.4609223,208.02457)" d="M111.58301 102.12973C111.58301 103.2302 110.69092 104.12228 109.59045 104.12228 108.48997 104.12228 107.5979 103.2302 107.5979 102.12973 107.5979 101.02925 108.48997 100.13718 109.59045 100.13718 110.69092 100.13718 111.58301 101.02925 111.58301 102.12973ZM109.59045 102.12973" fill="#9e0c0f"/>
<path transform="matrix(1.00005,0,0,-1.00002,1.4609223,208.02457)" stroke-width=".3985" stroke-linecap="butt" stroke-miterlimit="10" stroke-linejoin="miter" fill="none" stroke="#9e0c0f" d="M111.58301 102.12973C111.58301 103.2302 110.69092 104.12228 109.59045 104.12228 108.48997 104.12228 107.5979 103.2302 107.5979 102.12973 107.5979 101.02925 108.48997 100.13718 109.59045 100.13718 110.69092 100.13718 111.58301 101.02925 111.58301 102.12973ZM109.59045 102.12973"/>
<path transform="matrix(1.00005,0,0,-1.00002,1.4609223,208.02457)" d="M121.54578 103.11273C121.54578 104.2132 120.65369 105.10529 119.55322 105.10529 118.45274 105.10529 117.56067 104.2132 117.56067 103.11273 117.56067 102.01225 118.45274 101.12018 119.55322 101.12018 120.65369 101.12018 121.54578 102.01225 121.54578 103.11273ZM119.55322 103.11273" fill="#9e0c0f"/>
<path transform="matrix(1.00005,0,0,-1.00002,1.4609223,208.02457)" stroke-width=".3985" stroke-linecap="butt" stroke-miterlimit="10" stroke-linejoin="miter" fill="none" stroke="#9e0c0f" d="M121.54578 103.11273C121.54578 104.2132 120.65369 105.10529 119.55322 105.10529 118.45274 105.10529 117.56067 104.2132 117.56067 103.11273 117.56067 102.01225 118.45274 101.12018 119.55322 101.12018 120.65369 101.12018 121.54578 102.01225 121.54578 103.11273ZM119.55322 103.11273"/>
<path transform="matrix(1.00005,0,0,-1.00002,1.4609223,208.02457)" d="M131.50855 102.28783C131.50855 103.38829 130.61646 104.28038 129.51599 104.28038 128.41551 104.28038 127.52344 103.38829 127.52344 102.28783 127.52344 101.18736 128.41551 100.29527 129.51599 100.29527 130.61646 100.29527 131.50855 101.18736 131.50855 102.28783ZM129.51599 102.28783" fill="#9e0c0f"/>
<path transform="matrix(1.00005,0,0,-1.00002,1.4609223,208.02457)" stroke-width=".3985" stroke-linecap="butt" stroke-miterlimit="10" stroke-linejoin="miter" fill="none" stroke="#9e0c0f" d="M131.50855 102.28783C131.50855 103.38829 130.61646 104.28038 129.51599 104.28038 128.41551 104.28038 127.52344 103.38829 127.52344 102.28783 127.52344 101.18736 128.41551 100.29527 129.51599 100.29527 130.61646 100.29527 131.50855 101.18736 131.50855 102.28783ZM129.51599 102.28783"/>
<path transform="matrix(1.00005,0,0,-1.00002,1.4609223,208.02457)" d="M141.47132 99.67564C141.47132 100.77611 140.57923 101.6682 139.47876 101.6682 138.37828 101.6682 137.4862 100.77611 137.4862 99.67564 137.4862 98.57516 138.37828 97.68309 139.47876 97.68309 140.57923 97.68309 141.47132 98.57516 141.47132 99.67564ZM139.47876 99.67564" fill="#9e0c0f"/>
<path transform="matrix(1.00005,0,0,-1.00002,1.4609223,208.02457)" stroke-width=".3985" stroke-linecap="butt" stroke-miterlimit="10" stroke-linejoin="miter" fill="none" stroke="#9e0c0f" d="M141.47132 99.67564C141.47132 100.77611 140.57923 101.6682 139.47876 101.6682 138.37828 101.6682 137.4862 100.77611 137.4862 99.67564 137.4862 98.57516 138.37828 97.68309 139.47876 97.68309 140.57923 97.68309 141.47132 98.57516 141.47132 99.67564ZM139.47876 99.67564"/>
<path transform="matrix(1.00005,0,0,-1.00002,1.4609223,208.02457)" d="M151.43408 94.27252C151.43408 95.373 150.54199 96.26508 149.44153 96.26508 148.34105 96.26508 147.44898 95.373 147.44898 94.27252 147.44898 93.17206 148.34105 92.27997 149.44153 92.27997 150.54199 92.27997 151.43408 93.17206 151.43408 94.27252ZM149.44153 94.27252" fill="#9e0c0f"/>
<path transform="matrix(1.00005,0,0,-1.00002,1.4609223,208.02457)" stroke-width=".3985" stroke-linecap="butt" stroke-miterlimit="10" stroke-linejoin="miter" fill="none" stroke="#9e0c0f" d="M151.43408 94.27252C151.43408 95.373 150.54199 96.26508 149.44153 96.26508 148.34105 96.26508 147.44898 95.373 147.44898 94.27252 147.44898 93.17206 148.34105 92.27997 149.44153 92.27997 150.54199 92.27997 151.43408 93.17206 151.43408 94.27252ZM149.44153 94.27252"/>
<path transform="matrix(1.00005,0,0,-1.00002,1.4609223,208.02457)" d="M161.39685 82.49019C161.39685 83.59065 160.50476 84.48274 159.4043 84.48274 158.30382 84.48274 157.41175 83.59065 157.41175 82.49019 157.41175 81.38971 158.30382 80.49763 159.4043 80.49763 160.50476 80.49763 161.39685 81.38971 161.39685 82.49019ZM159.4043 82.49019" fill="#9e0c0f"/>
<path transform="matrix(1.00005,0,0,-1.00002,1.4609223,208.02457)" stroke-width=".3985" stroke-linecap="butt" stroke-miterlimit="10" stroke-linejoin="miter" fill="none" stroke="#9e0c0f" d="M161.39685 82.49019C161.39685 83.59065 160.50476 84.48274 159.4043 84.48274 158.30382 84.48274 157.41175 83.59065 157.41175 82.49019 157.41175 81.38971 158.30382 80.49763 159.4043 80.49763 160.50476 80.49763 161.39685 81.38971 161.39685 82.49019ZM159.4043 82.49019"/>
<path transform="matrix(1.00005,0,0,-1.00002,1.4609223,208.02457)" d="M171.35962 45.83015C171.35962 46.93063 170.46753 47.82271 169.36707 47.82271 168.26659 47.82271 167.37451 46.93063 167.37451 45.83015 167.37451 44.72969 168.26659 43.8376 169.36707 43.8376 170.46753 43.8376 171.35962 44.72969 171.35962 45.83015ZM169.36707 45.83015" fill="#9e0c0f"/>
<path transform="matrix(1.00005,0,0,-1.00002,1.4609223,208.02457)" stroke-width=".3985" stroke-linecap="butt" stroke-miterlimit="10" stroke-linejoin="miter" fill="none" stroke="#9e0c0f" d="M171.35962 45.83015C171.35962 46.93063 170.46753 47.82271 169.36707 47.82271 168.26659 47.82271 167.37451 46.93063 167.37451 45.83015 167.37451 44.72969 168.26659 43.8376 169.36707 43.8376 170.46753 43.8376 171.35962 44.72969 171.35962 45.83015ZM169.36707 45.83015"/>
<path transform="matrix(1.00005,0,0,-1.00002,1.4609223,208.02457)" d="M191.28516 194.97931C191.28516 196.07978 190.39307 196.97187 189.2926 196.97187 188.19213 196.97187 187.30005 196.07978 187.30005 194.97931 187.30005 193.87883 188.19213 192.98676 189.2926 192.98676 190.39307 192.98676 191.28516 193.87883 191.28516 194.97931ZM189.2926 194.97931" fill="#9e0c0f"/>
<path transform="matrix(1.00005,0,0,-1.00002,1.4609223,208.02457)" stroke-width=".3985" stroke-linecap="butt" stroke-miterlimit="10" stroke-linejoin="miter" fill="none" stroke="#9e0c0f" d="M191.28516 194.97931C191.28516 196.07978 190.39307 196.97187 189.2926 196.97187 188.19213 196.97187 187.30005 196.07978 187.30005 194.97931 187.30005 193.87883 188.19213 192.98676 189.2926 192.98676 190.39307 192.98676 191.28516 193.87883 191.28516 194.97931ZM189.2926 194.97931"/>
<path transform="matrix(1.00005,0,0,-1.00002,1.4609223,208.02457)" d="M201.24793 158.10619C201.24793 159.20667 200.35584 160.09874 199.25537 160.09874 198.15489 160.09874 197.26282 159.20667 197.26282 158.10619 197.26282 157.00572 198.15489 156.11363 199.25537 156.11363 200.35584 156.11363 201.24793 157.00572 201.24793 158.10619ZM199.25537 158.10619" fill="#9e0c0f"/>
<path transform="matrix(1.00005,0,0,-1.00002,1.4609223,208.02457)" stroke-width=".3985" stroke-linecap="butt" stroke-miterlimit="10" stroke-linejoin="miter" fill="none" stroke="#9e0c0f" d="M201.24793 158.10619C201.24793 159.20667 200.35584 160.09874 199.25537 160.09874 198.15489 160.09874 197.26282 159.20667 197.26282 158.10619 197.26282 157.00572 198.15489 156.11363 199.25537 156.11363 200.35584 156.11363 201.24793 157.00572 201.24793 158.10619ZM199.25537 158.10619"/>
<path transform="matrix(1.00005,0,0,-1.00002,1.4609223,208.02457)" d="M211.2107 145.94576C211.2107 147.04622 210.3186 147.93831 209.21814 147.93831 208.11766 147.93831 207.22559 147.04622 207.22559 145.94576 207.22559 144.84528 208.11766 143.9532 209.21814 143.9532 210.3186 143.9532 211.2107 144.84528 211.2107 145.94576ZM209.21814 145.94576" fill="#9e0c0f"/>
<path transform="matrix(1.00005,0,0,-1.00002,1.4609223,208.02457)" stroke-width=".3985" stroke-linecap="butt" stroke-miterlimit="10" stroke-linejoin="miter" fill="none" stroke="#9e0c0f" d="M211.2107 145.94576C211.2107 147.04622 210.3186 147.93831 209.21814 147.93831 208.11766 147.93831 207.22559 147.04622 207.22559 145.94576 207.22559 144.84528 208.11766 143.9532 209.21814 143.9532 210.3186 143.9532 211.2107 144.84528 211.2107 145.94576ZM209.21814 145.94576"/>
<path transform="matrix(1.00005,0,0,-1.00002,1.4609223,208.02457)" d="M221.17346 139.93773C221.17346 141.03821 220.28137 141.93029 219.18091 141.93029 218.08043 141.93029 217.18836 141.03821 217.18836 139.93773 217.18836 138.83727 218.08043 137.94518 219.18091 137.94518 220.28137 137.94518 221.17346 138.83727 221.17346 139.93773ZM219.18091 139.93773" fill="#9e0c0f"/>
<path transform="matrix(1.00005,0,0,-1.00002,1.4609223,208.02457)" stroke-width=".3985" stroke-linecap="butt" stroke-miterlimit="10" stroke-linejoin="miter" fill="none" stroke="#9e0c0f" d="M221.17346 139.93773C221.17346 141.03821 220.28137 141.93029 219.18091 141.93029 218.08043 141.93029 217.18836 141.03821 217.18836 139.93773 217.18836 138.83727 218.08043 137.94518 219.18091 137.94518 220.28137 137.94518 221.17346 138.83727 221.17346 139.93773ZM219.18091 139.93773"/>
<path transform="matrix(1.00005,0,0,-1.00002,1.4609223,208.02457)" stroke-width=".3985" stroke-linecap="butt" stroke-miterlimit="10" stroke-linejoin="miter" fill="none" stroke="#9e0c0f" d=""/>
<use data-text="x" xlink:href="#font_4_1" transform="matrix(9.963098,0,0,-9.962799,231.36542,101.38943)"/>
<use data-text="y" xlink:href="#font_4_2" transform="matrix(9.963098,0,0,-9.962799,124.54007,9.604599)"/>
</svg>
