<svg xmlns="http://www.w3.org/2000/svg" xmlns:xlink="http://www.w3.org/1999/xlink" version="1.1" width="242" height="210" viewBox="0 0 242 210">
<defs>
<path id="font_1_1" d="M.69898989 .22743225C.71499636 .22743225 .7369995 .22743225 .7369995 .25042726 .7369995 .2734375 .71499636 .2734375 .69898989 .2734375H.12599182C.10998535 .2734375 .08799744 .2734375 .08799744 .25042726 .08799744 .22743225 .10998535 .22743225 .12599182 .22743225H.69898989Z"/>
<path id="font_2_4" d="M.13798523 .33073426C.13798523 .41377259 .14498902 .4868164 .18099976 .54782107 .21099854 .5978241 .2619934 .6390381 .32499696 .6390381 .34498597 .6390381 .3909912 .63601687 .4139862 .60084536 .36898805 .5988312 .36499024 .5648346 .36499024 .553833 .36499024 .5238342 .3880005 .50683596 .4119873 .50683596 .42999269 .50683596 .45899964 .51782229 .45899964 .5558319 .45899964 .615921 .4139862 .66503909 .32398988 .66503909 .18499756 .66503909 .04399109 .53282168 .04399109 .31672669 .04399109 .045532228 .16999817-.021484375 .2669983-.021484375 .31498719-.021484375 .36698915-.0084991459 .4119873 .03453064 .45199586 .07354736 .48599244 .11558533 .48599244 .20263672 .48599244 .33372499 .3869934 .42578126 .27598573 .42578126 .20399475 .42578126 .16099549 .37976075 .13798523 .33073426M.2669983 .008514404C.21398926 .008514404 .18099976 .045532228 .1659851 .07354736 .14299011 .11859131 .14099121 .18663025 .14099121 .22465515 .14099121 .32373048 .19499207 .3977661 .27198792 .3977661 .32199098 .3977661 .35198976 .37176515 .37098695 .33673097 .3919983 .29971314 .3919983 .25468446 .3919983 .2036438 .3919983 .15260315 .3919983 .10858154 .37199403 .07255554 .34599305 .026519776 .31098939 .008514404 .2669983 .008514404Z"/>
<path id="font_2_3" d="M.3939972 .6468048C.3939972 .6667938 .3939972 .6748047 .37298585 .6748047 .3600006 .6748047 .35899354 .6737976 .34899903 .65979006L.02999878 .197052V.1640625H.31199647V.08100891C.31199647 .04399109 .30899049 .032989503 .23199463 .032989503H.20899964V0C.2939911 .0029907227 .29599 .0029907227 .35299684 .0029907227 .4099884 .0029907227 .4119873 .0029907227 .49699403 0V.032989503H.47399903C.39698792 .032989503 .3939972 .04399109 .3939972 .08100891V.1640625H.5V.197052H.3939972V.6468048M.31900025 .5658417V.197052H.06498718L.31900025 .5658417Z"/>
<path id="font_2_2" d="M.28199769 .20405579C.2979889 .21907044 .33999635 .2520752 .35598756 .26608277 .41799928 .32312013 .47698976 .3781433 .47698976 .46917726 .47698976 .588089 .3769989 .66503909 .2519989 .66503909 .13198853 .66503909 .052993776 .57411196 .052993776 .48516847 .052993776 .4361725 .09199524 .4291687 .10598755 .4291687 .1269989 .4291687 .1579895 .4441681 .1579895 .48217774 .1579895 .5341797 .10798645 .5341797 .09599304 .5341797 .125 .6070709 .19198609 .6320343 .24099732 .6320343 .33399964 .6320343 .38198854 .55314639 .38198854 .46917726 .38198854 .36514283 .30899049 .28910829 .19099427 .16804505L.06498718 .037994386C.052993776 .026992798 .052993776 .024993897 .052993776 0H.44799806L.47698976 .17904663H.44599916C.44299317 .1590271 .43499757 .10900879 .4229889 .08999634 .4169922 .08198547 .34098817 .08198547 .32499696 .08198547H.14698792L.28199769 .20405579Z"/>
<path id="font_2_5" d="M.33198548 .36080934C.3880005 .38783265 .45599366 .4378662 .45599366 .5159302 .45599366 .6110077 .35899354 .66503909 .2659912 .66503909 .1599884 .66503909 .07398987 .59199526 .07398987 .49790956 .07398987 .46089173 .08699036 .42686463 .11199951 .39782716 .1289978 .3768158 .1329956 .3748169 .19499207 .3357849 .070999149 .2807312 .04399109 .20767212 .04399109 .15162659 .04399109 .041534425 .15499878-.021484375 .2639923-.021484375 .3869934-.021484375 .48599244 .061553956 .48599244 .16764832 .48599244 .23069763 .45199586 .2727356 .43598939 .28974916 .4189911 .30575563 .41799928 .3067627 .33198548 .36080934M.1769867 .45487977C.147995 .4718933 .12399292 .5009155 .12399292 .5359497 .12399292 .598999 .19299317 .6390381 .2639923 .6390381 .34199525 .6390381 .4059906 .5859833 .4059906 .5159302 .4059906 .45788575 .36099244 .408844 .3019867 .37982179L.1769867 .45487977M.22599793 .31776429C.22999573 .31576539 .34399415 .24571228 .36099244 .23469544 .3769989 .22569275 .42900086 .19366455 .42900086 .13360596 .42900086 .056549074 .34799195 .008514404 .2659912 .008514404 .1769867 .008514404 .100997928 .06956482 .100997928 .15162659 .100997928 .22668457 .15699768 .28573609 .22599793 .31776429Z"/>
<path id="font_2_1" d="M.31399537 .63708499C.31399537 .664032 .31199647 .66503909 .2849884 .66503909 .24398804 .6251831 .19099427 .6013489 .09599304 .6013489V.5683594C.12298584 .5683594 .1769867 .5683594 .23498535 .5953522V.08203125C.23498535 .04499817 .23199463 .032989503 .13699341 .032989503H.101989749V0C.14299011 .0029907227 .22898865 .0029907227 .27398683 .0029907227 .31900025 .0029907227 .4059906 .0029907227 .44699098 0V.032989503H.4119873C.31698609 .032989503 .31399537 .04499817 .31399537 .08203125V.63708499Z"/>
<clipPath id="clip_3">
<path transform="matrix(1,0,0,-1.00002,1.4610005,208.02556)" d="M0 0H239.11191V206.22623H0Z"/>
</clipPath>
<path id="font_4_1" d="M.33399964 .30233766C.33999635 .32835389 .36299134 .42037965 .43299867 .42037965 .43798829 .42037965 .46199037 .42037965 .48298646 .40734864 .45498658 .402359 .43499757 .37734986 .43499757 .35334779 .43499757 .33735658 .44599916 .31835938 .47299195 .31835938 .49499513 .31835938 .5269928 .3363495 .5269928 .37635804 .5269928 .42837525 .46798707 .4423828 .43399049 .4423828 .37599183 .4423828 .34098817 .38935853 .32899476 .36634828 .3039856 .43237306 .25 .4423828 .22099304 .4423828 .116989139 .4423828 .05999756 .3133545 .05999756 .28834535 .05999756 .27833558 .069992069 .27833558 .07199097 .27833558 .07998657 .27833558 .08299255 .28033448 .084991458 .28933717 .11898804 .39535523 .18499756 .42037965 .21899414 .42037965 .23799134 .42037965 .272995 .4113617 .272995 .35334779 .272995 .32235719 .2559967 .25532533 .21899414 .11528015 .20298767 .053268434 .16799927 .011245728 .12399292 .011245728 .117996219 .011245728 .09498596 .011245728 .07398987 .024276734 .09899902 .029266358 .12098694 .05027771 .12098694 .07827759 .12098694 .105270389 .09899902 .11328125 .083999637 .11328125 .053985597 .11328125 .0289917 .08728027 .0289917 .055267335 .0289917 .009246826 .07899475-.0107421879 .12298584-.0107421879 .18899536-.0107421879 .22499085 .059280397 .22799683 .0652771 .23999024 .028274537 .27598573-.0107421879 .33599855-.0107421879 .43899537-.0107421879 .49598695 .118270877 .49598695 .14328003 .49598695 .1532898 .4869995 .1532898 .48399354 .1532898 .47499085 .1532898 .47299195 .14929199 .47099305 .14228821 .43798829 .03527832 .36999513 .011245728 .33799745 .011245728 .29899598 .011245728 .2829895 .043273927 .2829895 .07727051 .2829895 .09927368 .2889862 .121276859 .2999878 .16529846L.33399964 .30233766Z"/>
<path id="font_4_2" d="M.48599244 .38136292C.48999024 .39537049 .48999024 .39736939 .48999024 .40437318 .48999024 .42237855 .47599793 .43138124 .46099855 .43138124 .45098878 .43138124 .43499757 .42536927 .42599488 .41036988 .42399598 .405365 .41600038 .37435914 .4119873 .35635377 .40499879 .33035279 .397995 .30334474 .3919983 .27633668L.34700013 .09628296C.34298707 .08126831 .2999878 .011245728 .23399353 .011245728 .18299866 .011245728 .17199707 .055267335 .17199707 .0922699 .17199707 .1382904 .18899536 .20030213 .22299195 .28833009 .23899842 .3293457 .24299622 .3403473 .24299622 .36035157 .24299622 .405365 .21099854 .4423828 .16099549 .4423828 .06599426 .4423828 .0289917 .29733277 .0289917 .28833009 .0289917 .27833558 .038986207 .27833558 .040985109 .27833558 .050994874 .27833558 .051986696 .28033448 .056991579 .29634095 .083999637 .3903656 .12399292 .42037965 .1579895 .42037965 .1659851 .42037965 .18299866 .42037965 .18299866 .3883667 .18299866 .36335755 .17298889 .3373413 .1659851 .31834413 .12599182 .21231079 .10798645 .1552887 .10798645 .10827637 .10798645 .019256592 .17098999-.0107421879 .22999573-.0107421879 .2689972-.0107421879 .30299378 .0062561037 .33099366 .03425598 .31799317-.017745972 .30599977-.06674194 .2659912-.11973572 .23999024-.15385437 .20199585-.18309021 .1559906-.18309021 .14199829-.18309021 .09700012-.18005371 .07998657-.14074707 .09599304-.14074707 .10899353-.14074707 .12298584-.1287384 .1329956-.11973572 .14299011-.10673523 .14299011-.08773804 .14299011-.056747438 .115997318-.052734376 .10598755-.052734376 .08299255-.052734376 .049987794-.068740848 .049987794-.11773682 .049987794-.16796875 .09399414-.20507813 .1559906-.20507813 .25898744-.20507813 .3619995-.11373901 .3899994-.00074768069L.48599244 .38136292Z"/>
</defs>
<path transform="matrix(1,0,0,-1.00002,1.4610005,208.02556)" d="M0 0H239.11191V206.22623H0Z" fill="#fffac2"/>
<path transform="matrix(1,0,0,-1.00002,1.4610005,208.02556)" stroke-width=".3985" stroke-linecap="butt" stroke-miterlimit="10" stroke-linejoin="miter" fill="none" stroke="#d5d6d5" d="M0 0V206.22623M17.07942 0V206.22623M34.15884 0V206.22623M51.23827 0V206.22623M68.31769 0V206.22623M85.39711 0V206.22623M102.47653 0V206.22623M119.55595 0V206.22623M136.63538 0V206.22623M153.7148 0V206.22623M170.79422 0V206.22623M187.87364 0V206.22623M204.95307 0V206.22623M222.03249 0V206.22623M239.11191 0V206.22623"/>
<path transform="matrix(1,0,0,-1.00002,1.4610005,208.02556)" stroke-width=".3985" stroke-linecap="butt" stroke-miterlimit="10" stroke-linejoin="miter" fill="none" stroke="#d5d6d5" d="M17.07942 0V206.22623M51.23827 0V206.22623M85.39711 0V206.22623M153.7148 0V206.22623M187.87364 0V206.22623M222.03249 0V206.22623"/>
<path transform="matrix(1,0,0,-1.00002,1.4610005,208.02556)" stroke-width=".3985" stroke-linecap="butt" stroke-miterlimit="10" stroke-linejoin="miter" fill="none" stroke="#d5d6d5" d="M0 0H239.11191M0 8.24904H239.11191M0 16.4981H239.11191M0 24.74715H239.11191M0 32.99619H239.11191M0 41.24524H239.11191M0 49.4943H239.11191M0 57.74333H239.11191M0 65.99239H239.11191M0 74.24144H239.11191M0 82.4905H239.11191M0 90.73953H239.11191M0 98.98859H239.11191M0 107.23764H239.11191M0 115.48668H239.11191M0 123.73573H239.11191M0 131.98479H239.11191M0 140.23384H239.11191M0 148.48288H239.11191M0 156.73194H239.11191M0 164.98099H239.11191M0 173.23003H239.11191M0 181.47908H239.11191M0 189.72814H239.11191M0 197.97719H239.11191M0 206.22623H239.11191"/>
<path transform="matrix(1,0,0,-1.00002,1.4610005,208.02556)" stroke-width=".3985" stroke-linecap="butt" stroke-miterlimit="10" stroke-linejoin="miter" fill="none" stroke="#d5d6d5" d="M0 8.24904H239.11191M0 74.24144H239.11191M0 107.23764H239.11191M0 140.23384H239.11191M0 173.23003H239.11191"/>
<path transform="matrix(1,0,0,-1.00002,1.4610005,208.02556)" stroke-width=".19925" stroke-linecap="butt" stroke-miterlimit="10" stroke-linejoin="miter" fill="none" stroke="#929292" d="M0 39.82788V42.66261M17.07942 39.82788V42.66261M34.15884 39.82788V42.66261M51.23827 39.82788V42.66261M68.31769 39.82788V42.66261M85.39711 39.82788V42.66261M102.47653 39.82788V42.66261M119.55595 39.82788V42.66261M136.63538 39.82788V42.66261M153.7148 39.82788V42.66261M170.79422 39.82788V42.66261M187.87364 39.82788V42.66261M204.95307 39.82788V42.66261M222.03249 39.82788V42.66261M239.11191 39.82788V42.66261"/>
<path transform="matrix(1,0,0,-1.00002,1.4610005,208.02556)" stroke-width=".19925" stroke-linecap="butt" stroke-miterlimit="10" stroke-linejoin="miter" fill="none" stroke="#929292" d="M17.07942 39.1194V43.37106M51.23827 39.1194V43.37106M85.39711 39.1194V43.37106M153.7148 39.1194V43.37106M187.87364 39.1194V43.37106M222.03249 39.1194V43.37106"/>
<path transform="matrix(1,0,0,-1.00002,1.4610005,208.02556)" stroke-width=".19925" stroke-linecap="butt" stroke-miterlimit="10" stroke-linejoin="miter" fill="none" stroke="#929292" d="M118.13852 0H120.97339M118.13852 8.24904H120.97339M118.13852 16.4981H120.97339M118.13852 24.74715H120.97339M118.13852 32.99619H120.97339M118.13852 41.24524H120.97339M118.13852 49.4943H120.97339M118.13852 57.74333H120.97339M118.13852 65.99239H120.97339M118.13852 74.24144H120.97339M118.13852 82.4905H120.97339M118.13852 90.73953H120.97339M118.13852 98.98859H120.97339M118.13852 107.23764H120.97339M118.13852 115.48668H120.97339M118.13852 123.73573H120.97339M118.13852 131.98479H120.97339M118.13852 140.23384H120.97339M118.13852 148.48288H120.97339M118.13852 156.73194H120.97339M118.13852 164.98099H120.97339M118.13852 173.23003H120.97339M118.13852 181.47908H120.97339M118.13852 189.72814H120.97339M118.13852 197.97719H120.97339M118.13852 206.22623H120.97339"/>
<path transform="matrix(1,0,0,-1.00002,1.4610005,208.02556)" stroke-width=".19925" stroke-linecap="butt" stroke-miterlimit="10" stroke-linejoin="miter" fill="none" stroke="#929292" d="M117.43001 8.24904H121.68187M117.43001 74.24144H121.68187M117.43001 107.23764H121.68187M117.43001 140.23384H121.68187M117.43001 173.23003H121.68187"/>
<path transform="matrix(1,0,0,-1.00002,1.4610005,208.02556)" stroke-width=".3985" stroke-linecap="butt" stroke-miterlimit="10" stroke-linejoin="miter" fill="none" stroke="#000000" d="M1.99252 41.24524H237.11939"/>
<path transform="matrix(-1,-0,0,1.00002,3.4535204,166.7795)" d="M1.99252 0-1.19551 1.59401 0 0-1.19551-1.59401"/>
<path transform="matrix(1,0,0,-1.00002,238.58039,166.7795)" d="M1.99252 0-1.19551 1.59401 0 0-1.19551-1.59401"/>
<path transform="matrix(1,0,0,-1.00002,1.4610005,208.02556)" stroke-width=".3985" stroke-linecap="butt" stroke-miterlimit="10" stroke-linejoin="miter" fill="none" stroke="#000000" d="M119.55595 1.99252V204.2337"/>
<path transform="matrix(0,1.00002,1,0,121.016948,206.033)" d="M1.99252 0-1.19551 1.59401 0 0-1.19551-1.59401"/>
<path transform="matrix(0,-1.00002,-1,-0,121.016948,3.7877656)" d="M1.99252 0-1.19551 1.59401 0 0-1.19551-1.59401"/>
<use data-text="&#x2212;" xlink:href="#font_1_1" transform="matrix(7.9701,0,0,-7.9702599,13.13,177.56195)"/>
<use data-text="6" xlink:href="#font_2_4" transform="matrix(7.9701,0,0,-7.9702599,19.717,177.56195)"/>
<use data-text="&#x2212;" xlink:href="#font_1_1" transform="matrix(7.9701,0,0,-7.9702599,47.289,177.56195)"/>
<use data-text="4" xlink:href="#font_2_3" transform="matrix(7.9701,0,0,-7.9702599,53.876,177.56195)"/>
<use data-text="&#x2212;" xlink:href="#font_1_1" transform="matrix(7.9701,0,0,-7.9702599,81.448,177.56195)"/>
<use data-text="2" xlink:href="#font_2_2" transform="matrix(7.9701,0,0,-7.9702599,88.035,177.56195)"/>
<use data-text="2" xlink:href="#font_2_2" transform="matrix(7.9701,0,0,-7.9702599,153.059,177.56195)"/>
<use data-text="4" xlink:href="#font_2_3" transform="matrix(7.9701,0,0,-7.9702599,187.218,177.56195)"/>
<use data-text="6" xlink:href="#font_2_4" transform="matrix(7.9701,0,0,-7.9702599,221.37599,177.56195)"/>
<use data-text="&#x2212;" xlink:href="#font_1_1" transform="matrix(7.9701,0,0,-7.9702599,106.44101,201.92945)"/>
<use data-text="4" xlink:href="#font_2_3" transform="matrix(7.9701,0,0,-7.9702599,113.02801,201.92945)"/>
<use data-text="4" xlink:href="#font_2_3" transform="matrix(7.9701,0,0,-7.9702599,113.028,136.35114)"/>
<use data-text="8" xlink:href="#font_2_5" transform="matrix(7.9701,0,0,-7.9702599,113.028,103.35446)"/>
<use data-text="1" xlink:href="#font_2_1" transform="matrix(7.9701,0,0,-7.9702599,108.793,70.3568)"/>
<use data-text="2" xlink:href="#font_2_2" transform="matrix(7.9701,0,0,-7.9702599,113.02513,70.3568)"/>
<use data-text="1" xlink:href="#font_2_1" transform="matrix(7.9701,0,0,-7.9702599,108.793,37.360139)"/>
<use data-text="6" xlink:href="#font_2_4" transform="matrix(7.9701,0,0,-7.9702599,113.02513,37.360139)"/>
<g clip-path="url(#clip_3)">
<path transform="matrix(1,0,0,-1.00002,1.4610005,208.02556)" stroke-width=".99628" stroke-linecap="butt" stroke-miterlimit="10" stroke-linejoin="miter" fill="none" stroke="#9e0c0f" d="M100.43529 197.96237 102.52065 181.13838 105.62196 158.2911 108.7233 137.61977 111.82463 119.12434 114.92596 102.80482 118.0273 88.66127 121.12863 76.69362 124.22997 66.9019 127.3313 59.28612 130.43262 53.84624 133.53395 50.5823 136.63529 49.4943 139.73662 50.5822 142.83795 53.84602 145.93929 59.2858 149.04062 66.90147 152.14196 76.69308 155.24329 88.6606 158.3446 102.80402 161.44594 119.12354 164.54727 137.61879 167.6486 158.29 170.74994 181.13712 172.8353 197.96088"/>
<path transform="matrix(-.12297,-.9924098,-.99239,.122972469,101.98291,10.758362)" d="M7.39124 0 2.37614 1.6717 .70447 0 2.37614-1.6717Z" fill="#9e0c0f"/>
<path transform="matrix(-.12297,-.9924098,-.99239,.122972469,101.98291,10.758362)" stroke-width=".99628" stroke-linecap="butt" stroke-miterlimit="10" stroke-linejoin="miter" fill="none" stroke="#9e0c0f" d="M7.39124 0 2.37614 1.6717 .70447 0 2.37614-1.6717Z"/>
<path transform="matrix(.12297,-.9924098,-.99239,-.122972469,174.20966,10.759857)" d="M7.39124 0 2.37614 1.6717 .70447 0 2.37614-1.6717Z" fill="#9e0c0f"/>
<path transform="matrix(.12297,-.9924098,-.99239,-.122972469,174.20966,10.759857)" stroke-width=".99628" stroke-linecap="butt" stroke-miterlimit="10" stroke-linejoin="miter" fill="none" stroke="#9e0c0f" d="M7.39124 0 2.37614 1.6717 .70447 0 2.37614-1.6717Z"/>
</g>
<path transform="matrix(1,0,0,-1.00002,1.4610005,208.02556)" d="M104.46909 181.47908C104.46909 182.57956 103.577 183.47164 102.47653 183.47164 101.37605 183.47164 100.48398 182.57956 100.48398 181.47908 100.48398 180.37862 101.37605 179.48653 102.47653 179.48653 103.577 179.48653 104.46909 180.37862 104.46909 181.47908ZM102.47653 181.47908" fill="#9e0c0f"/>
<path transform="matrix(1,0,0,-1.00002,1.4610005,208.02556)" stroke-width=".3985" stroke-linecap="butt" stroke-miterlimit="10" stroke-linejoin="miter" fill="none" stroke="#9e0c0f" d="M104.46909 181.47908C104.46909 182.57956 103.577 183.47164 102.47653 183.47164 101.37605 183.47164 100.48398 182.57956 100.48398 181.47908 100.48398 180.37862 101.37605 179.48653 102.47653 179.48653 103.577 179.48653 104.46909 180.37862 104.46909 181.47908ZM102.47653 181.47908"/>
<path transform="matrix(1,0,0,-1.00002,1.4610005,208.02556)" d="M121.54851 82.4905C121.54851 83.59096 120.65642 84.48305 119.55595 84.48305 118.45547 84.48305 117.5634 83.59096 117.5634 82.4905 117.5634 81.39001 118.45547 80.49794 119.55595 80.49794 120.65642 80.49794 121.54851 81.39001 121.54851 82.4905ZM119.55595 82.4905" fill="#9e0c0f"/>
<path transform="matrix(1,0,0,-1.00002,1.4610005,208.02556)" stroke-width=".3985" stroke-linecap="butt" stroke-miterlimit="10" stroke-linejoin="miter" fill="none" stroke="#9e0c0f" d="M121.54851 82.4905C121.54851 83.59096 120.65642 84.48305 119.55595 84.48305 118.45547 84.48305 117.5634 83.59096 117.5634 82.4905 117.5634 81.39001 118.45547 80.49794 119.55595 80.49794 120.65642 80.49794 121.54851 81.39001 121.54851 82.4905ZM119.55595 82.4905"/>
<path transform="matrix(1,0,0,-1.00002,1.4610005,208.02556)" d="M138.62793 49.4943C138.62793 50.59476 137.73584 51.48685 136.63538 51.48685 135.5349 51.48685 134.64282 50.59476 134.64282 49.4943 134.64282 48.39381 135.5349 47.50174 136.63538 47.50174 137.73584 47.50174 138.62793 48.39381 138.62793 49.4943ZM136.63538 49.4943" fill="#9e0c0f"/>
<path transform="matrix(1,0,0,-1.00002,1.4610005,208.02556)" stroke-width=".3985" stroke-linecap="butt" stroke-miterlimit="10" stroke-linejoin="miter" fill="none" stroke="#9e0c0f" d="M138.62793 49.4943C138.62793 50.59476 137.73584 51.48685 136.63538 51.48685 135.5349 51.48685 134.64282 50.59476 134.64282 49.4943 134.64282 48.39381 135.5349 47.50174 136.63538 47.50174 137.73584 47.50174 138.62793 48.39381 138.62793 49.4943ZM136.63538 49.4943"/>
<path transform="matrix(1,0,0,-1.00002,1.4610005,208.02556)" d="M155.70735 82.4905C155.70735 83.59096 154.81526 84.48305 153.7148 84.48305 152.61432 84.48305 151.72225 83.59096 151.72225 82.4905 151.72225 81.39001 152.61432 80.49794 153.7148 80.49794 154.81526 80.49794 155.70735 81.39001 155.70735 82.4905ZM153.7148 82.4905" fill="#9e0c0f"/>
<path transform="matrix(1,0,0,-1.00002,1.4610005,208.02556)" stroke-width=".3985" stroke-linecap="butt" stroke-miterlimit="10" stroke-linejoin="miter" fill="none" stroke="#9e0c0f" d="M155.70735 82.4905C155.70735 83.59096 154.81526 84.48305 153.7148 84.48305 152.61432 84.48305 151.72225 83.59096 151.72225 82.4905 151.72225 81.39001 152.61432 80.49794 153.7148 80.49794 154.81526 80.49794 155.70735 81.39001 155.70735 82.4905ZM153.7148 82.4905"/>
<path transform="matrix(1,0,0,-1.00002,1.4610005,208.02556)" d="M172.78678 181.47908C172.78678 182.57956 171.89469 183.47164 170.79422 183.47164 169.69374 183.47164 168.80167 182.57956 168.80167 181.47908 168.80167 180.37862 169.69374 179.48653 170.79422 179.48653 171.89469 179.48653 172.78678 180.37862 172.78678 181.47908ZM170.79422 181.47908" fill="#9e0c0f"/>
<path transform="matrix(1,0,0,-1.00002,1.4610005,208.02556)" stroke-width=".3985" stroke-linecap="butt" stroke-miterlimit="10" stroke-linejoin="miter" fill="none" stroke="#9e0c0f" d="M172.78678 181.47908C172.78678 182.57956 171.89469 183.47164 170.79422 183.47164 169.69374 183.47164 168.80167 182.57956 168.80167 181.47908 168.80167 180.37862 169.69374 179.48653 170.79422 179.48653 171.89469 179.48653 172.78678 180.37862 172.78678 181.47908ZM170.79422 181.47908"/>
<path transform="matrix(1,0,0,-1.00002,1.4610005,208.02556)" stroke-width=".3985" stroke-linecap="butt" stroke-miterlimit="10" stroke-linejoin="miter" fill="none" stroke="#9e0c0f" d=""/>
<use data-text="x" xlink:href="#font_4_1" transform="matrix(9.9626,0,0,-9.962799,231.359,163.25966)"/>
<use data-text="y" xlink:href="#font_4_2" transform="matrix(9.9626,0,0,-9.962799,124.537,9.604584)"/>
</svg>
