<svg xmlns="http://www.w3.org/2000/svg" xmlns:xlink="http://www.w3.org/1999/xlink" version="1.1" width="169" height="145" viewBox="0 0 169 145">
<defs>
<path id="font_1_5" d="M.13999939 .5618439C.15299988 .55784609 .19299317 .54785159 .23498535 .54785159 .3600006 .54785159 .43598939 .6358948 .43598939 .6510315 .43598939 .6620331 .42900086 .66503909 .42399598 .66503909 .42199708 .66503909 .41999818 .66503909 .41099549 .6600342 .37199403 .6450348 .32598878 .632843 .27198792 .632843 .21299744 .632843 .1639862 .6480255 .1329956 .6600342 .12298584 .66503909 .12098694 .66503909 .11999512 .66503909 .10699463 .66503909 .10699463 .6540375 .10699463 .6358948V.34292604C.10699463 .32492066 .10699463 .312912 .12298584 .312912 .1309967 .312912 .13398743 .3169098 .13899231 .32492066 .15098572 .33992005 .18899536 .39093019 .27398683 .39093019 .32998658 .39093019 .35699464 .34492494 .3659973 .32591249 .3829956 .28990174 .3849945 .24389649 .3849945 .20487976 .3849945 .1678772 .38398744 .11387634 .35598756 .069732669 .33699037 .039611818 .29699708 .008514404 .24398804 .008514404 .1789856 .008514404 .114990238 .0496521 .09199524 .11488342 .09498596 .11387634 .100997928 .11387634 .101989749 .11387634 .12998963 .11387634 .1519928 .13188172 .1519928 .16288758 .1519928 .19989014 .12298584 .21289063 .102996829 .21289063 .084991458 .21289063 .052993776 .20288086 .052993776 .15988159 .052993776 .069732669 .1309967-.021484375 .24598694-.021484375 .37098695-.021484375 .47698976 .07574463 .47698976 .19989014 .47698976 .31591798 .3929901 .4189453 .2749939 .4189453 .22499085 .4189453 .17799378 .40293885 .13999939 .368927V.5618439Z"/>
<path id="font_1_2" d="M.31399537 .63708499C.31399537 .664032 .31199647 .66503909 .2849884 .66503909 .24398804 .6251831 .19099427 .6013489 .09599304 .6013489V.5683594C.12298584 .5683594 .1769867 .5683594 .23498535 .5953522V.08203125C.23498535 .04499817 .23199463 .032989503 .13699341 .032989503H.101989749V0C.14299011 .0029907227 .22898865 .0029907227 .27398683 .0029907227 .31900025 .0029907227 .4059906 .0029907227 .44699098 0V.032989503H.4119873C.31698609 .032989503 .31399537 .04499817 .31399537 .08203125V.63708499Z"/>
<path id="font_1_1" d="M.4889984 .31877137C.4889984 .42585755 .47799684 .49090577 .44499208 .55496218 .40098573 .6430359 .31999208 .66503909 .2649994 .66503909 .13899231 .66503909 .09298706 .5709839 .07899475 .5429535 .042999269 .4698944 .040985109 .3708191 .040985109 .31877137 .040985109 .25271607 .04399109 .15162659 .09199524 .07156372 .13798523-.0024871827 .21199036-.021484375 .2649994-.021484375 .31298829-.021484375 .39898683-.0064849855 .44898988 .09257507 .48599244 .16464234 .4889984 .2537079 .4889984 .31877137M.2649994 .006515503C.23098755 .006515503 .1619873 .022521973 .14099121 .12760926 .12998963 .18466187 .12998963 .2787323 .12998963 .33078004 .12998963 .3998413 .12998963 .4698944 .14099121 .5249481 .1619873 .6270294 .23999024 .6370239 .2649994 .6370239 .29899598 .6370239 .36799623 .62002566 .3880005 .5289459 .3999939 .4738922 .3999939 .39883424 .3999939 .33078004 .3999939 .27172853 .3999939 .18165589 .3880005 .12561035 .36698915 .020523072 .2979889 .006515503 .2649994 .006515503Z"/>
<path id="font_1_3" d="M.28199769 .20405579C.2979889 .21907044 .33999635 .2520752 .35598756 .26608277 .41799928 .32312013 .47698976 .3781433 .47698976 .46917726 .47698976 .588089 .3769989 .66503909 .2519989 .66503909 .13198853 .66503909 .052993776 .57411196 .052993776 .48516847 .052993776 .4361725 .09199524 .4291687 .10598755 .4291687 .1269989 .4291687 .1579895 .4441681 .1579895 .48217774 .1579895 .5341797 .10798645 .5341797 .09599304 .5341797 .125 .6070709 .19198609 .6320343 .24099732 .6320343 .33399964 .6320343 .38198854 .55314639 .38198854 .46917726 .38198854 .36514283 .30899049 .28910829 .19099427 .16804505L.06498718 .037994386C.052993776 .026992798 .052993776 .024993897 .052993776 0H.44799806L.47698976 .17904663H.44599916C.44299317 .1590271 .43499757 .10900879 .4229889 .08999634 .4169922 .08198547 .34098817 .08198547 .32499696 .08198547H.14698792L.28199769 .20405579Z"/>
<path id="font_1_4" d="M.25299073 .33370973C.33198548 .33370973 .38198854 .27557374 .38198854 .17037964 .38198854 .045440675 .31098939 .008514404 .2579956 .008514404 .20298767 .008514404 .12799073 .0284729 .09298706 .08137512 .1289978 .08137512 .1539917 .10437012 .1539917 .13737488 .1539917 .16937256 .1309967 .19238281 .09899902 .19238281 .07199097 .19238281 .04399109 .17536927 .04399109 .13537598 .04399109 .04045105 .1459961-.021484375 .2599945-.021484375 .3929901-.021484375 .48599244 .070388797 .48599244 .17037964 .48599244 .25352479 .41999818 .32969667 .31799317 .3517456 .39698792 .37982179 .45599366 .4479828 .45599366 .52804568 .45599366 .6080475 .3659973 .66503909 .2619934 .66503909 .15499878 .66503909 .07398987 .6070404 .07398987 .53105166 .07398987 .49404908 .09899902 .4780426 .125 .4780426 .1559906 .4780426 .17599488 .5000458 .17599488 .52905276 .17599488 .56604006 .14399719 .5800476 .12199402 .5810547 .1639862 .6360321 .24099732 .6390381 .25898744 .6390381 .2849884 .6390381 .36099244 .6310272 .36099244 .52804568 .36099244 .45799256 .33198548 .41589356 .31799317 .39985658 .28799439 .36878968 .2649994 .36679078 .20399475 .3627777 .18499756 .36177064 .1769867 .36076356 .1769867 .3477478 .1769867 .33370973 .18598938 .33370973 .20298767 .33370973H.25299073Z"/>
<path id="font_1_7" d="M.33198548 .36080934C.3880005 .38783265 .45599366 .4378662 .45599366 .5159302 .45599366 .6110077 .35899354 .66503909 .2659912 .66503909 .1599884 .66503909 .07398987 .59199526 .07398987 .49790956 .07398987 .46089173 .08699036 .42686463 .11199951 .39782716 .1289978 .3768158 .1329956 .3748169 .19499207 .3357849 .070999149 .2807312 .04399109 .20767212 .04399109 .15162659 .04399109 .041534425 .15499878-.021484375 .2639923-.021484375 .3869934-.021484375 .48599244 .061553956 .48599244 .16764832 .48599244 .23069763 .45199586 .2727356 .43598939 .28974916 .4189911 .30575563 .41799928 .3067627 .33198548 .36080934M.1769867 .45487977C.147995 .4718933 .12399292 .5009155 .12399292 .5359497 .12399292 .598999 .19299317 .6390381 .2639923 .6390381 .34199525 .6390381 .4059906 .5859833 .4059906 .5159302 .4059906 .45788575 .36099244 .408844 .3019867 .37982179L.1769867 .45487977M.22599793 .31776429C.22999573 .31576539 .34399415 .24571228 .36099244 .23469544 .3769989 .22569275 .42900086 .19366455 .42900086 .13360596 .42900086 .056549074 .34799195 .008514404 .2659912 .008514404 .1769867 .008514404 .100997928 .06956482 .100997928 .15162659 .100997928 .22668457 .15699768 .28573609 .22599793 .31776429Z"/>
<path id="font_1_6" d="M.13798523 .33073426C.13798523 .41377259 .14498902 .4868164 .18099976 .54782107 .21099854 .5978241 .2619934 .6390381 .32499696 .6390381 .34498597 .6390381 .3909912 .63601687 .4139862 .60084536 .36898805 .5988312 .36499024 .5648346 .36499024 .553833 .36499024 .5238342 .3880005 .50683596 .4119873 .50683596 .42999269 .50683596 .45899964 .51782229 .45899964 .5558319 .45899964 .615921 .4139862 .66503909 .32398988 .66503909 .18499756 .66503909 .04399109 .53282168 .04399109 .31672669 .04399109 .045532228 .16999817-.021484375 .2669983-.021484375 .31498719-.021484375 .36698915-.0084991459 .4119873 .03453064 .45199586 .07354736 .48599244 .11558533 .48599244 .20263672 .48599244 .33372499 .3869934 .42578126 .27598573 .42578126 .20399475 .42578126 .16099549 .37976075 .13798523 .33073426M.2669983 .008514404C.21398926 .008514404 .18099976 .045532228 .1659851 .07354736 .14299011 .11859131 .14099121 .18663025 .14099121 .22465515 .14099121 .32373048 .19499207 .3977661 .27198792 .3977661 .32199098 .3977661 .35198976 .37176515 .37098695 .33673097 .3919983 .29971314 .3919983 .25468446 .3919983 .2036438 .3919983 .15260315 .3919983 .10858154 .37199403 .07255554 .34599305 .026519776 .31098939 .008514404 .2669983 .008514404Z"/>
<path id="font_2_5" d="M.48599244 .38136292C.48999024 .39537049 .48999024 .39736939 .48999024 .40437318 .48999024 .42237855 .47599793 .43138124 .46099855 .43138124 .45098878 .43138124 .43499757 .42536927 .42599488 .41036988 .42399598 .405365 .41600038 .37435914 .4119873 .35635377 .40499879 .33035279 .397995 .30334474 .3919983 .27633668L.34700013 .09628296C.34298707 .08126831 .2999878 .011245728 .23399353 .011245728 .18299866 .011245728 .17199707 .055267335 .17199707 .0922699 .17199707 .1382904 .18899536 .20030213 .22299195 .28833009 .23899842 .3293457 .24299622 .3403473 .24299622 .36035157 .24299622 .405365 .21099854 .4423828 .16099549 .4423828 .06599426 .4423828 .0289917 .29733277 .0289917 .28833009 .0289917 .27833558 .038986207 .27833558 .040985109 .27833558 .050994874 .27833558 .051986696 .28033448 .056991579 .29634095 .083999637 .3903656 .12399292 .42037965 .1579895 .42037965 .1659851 .42037965 .18299866 .42037965 .18299866 .3883667 .18299866 .36335755 .17298889 .3373413 .1659851 .31834413 .12599182 .21231079 .10798645 .1552887 .10798645 .10827637 .10798645 .019256592 .17098999-.0107421879 .22999573-.0107421879 .2689972-.0107421879 .30299378 .0062561037 .33099366 .03425598 .31799317-.017745972 .30599977-.06674194 .2659912-.11973572 .23999024-.15385437 .20199585-.18309021 .1559906-.18309021 .14199829-.18309021 .09700012-.18005371 .07998657-.14074707 .09599304-.14074707 .10899353-.14074707 .12298584-.1287384 .1329956-.11973572 .14299011-.10673523 .14299011-.08773804 .14299011-.056747438 .115997318-.052734376 .10598755-.052734376 .08299255-.052734376 .049987794-.068740848 .049987794-.11773682 .049987794-.16796875 .09399414-.20507813 .1559906-.20507813 .25898744-.20507813 .3619995-.11373901 .3899994-.00074768069L.48599244 .38136292Z"/>
<path id="font_3_13" d="M.68699648 .32714845C.70199587 .32714845 .72099307 .32714845 .72099307 .34713746 .72099307 .36714173 .70199587 .36714173 .6879883 .36714173H.08898926C.07499695 .36714173 .055999757 .36714173 .055999757 .34713746 .055999757 .32714845 .07499695 .32714845 .08999634 .32714845H.68699648M.6879883 .13284302C.70199587 .13284302 .72099307 .13284302 .72099307 .15284729 .72099307 .17285156 .70199587 .17285156 .68699648 .17285156H.08999634C.07499695 .17285156 .055999757 .17285156 .055999757 .15284729 .055999757 .13284302 .07499695 .13284302 .08898926 .13284302H.6879883Z"/>
<path id="font_2_3" d="M.7630005 .60565188C.7719879 .6416168 .7739868 .6516113 .8470001 .6516113 .8730011 .6516113 .8809967 .6516113 .8809967 .6716156 .8809967 .6826172 .8699951 .6826172 .86698916 .6826172 .83898928 .6826172 .7669983 .6796112 .7389984 .6796112 .70999148 .6796112 .6389923 .6826172 .6100006 .6826172 .60198977 .6826172 .59098818 .6826172 .59098818 .6626129 .59098818 .6516113 .59999087 .6516113 .61898806 .6516113 .62098696 .6516113 .6399994 .6516113 .6569977 .6496124 .6749878 .6476135 .6839905 .6466217 .6839905 .6336212 .6839905 .6296234 .68299868 .6276245 .6799927 .6146393L.6199951 .37083436H.31498719L.37399293 .60565188C.3829956 .6416168 .38598634 .6516113 .45799256 .6516113 .48399354 .6516113 .49198915 .6516113 .49198915 .6716156 .49198915 .6826172 .48098756 .6826172 .47799684 .6826172 .44999696 .6826172 .37799073 .6796112 .34999085 .6796112 .32099916 .6796112 .25 .6826172 .22099304 .6826172 .21299744 .6826172 .20199585 .6826172 .20199585 .6626129 .20199585 .6516113 .21099854 .6516113 .22999573 .6516113 .23199463 .6516113 .25099183 .6516113 .2679901 .6496124 .28599549 .6476135 .29499818 .6466217 .29499818 .6336212 .29499818 .6296234 .2939911 .6266327 .29100038 .6146393L.15699768 .07797241C.14698792 .038986207 .14498902 .0309906 .06599426 .0309906 .04798889 .0309906 .038986207 .0309906 .038986207 .010986328 .038986207 0 .050994874 0 .052993776 0 .08099365 0 .1519928 .0029907227 .17999268 .0029907227 .20098877 .0029907227 .22299195 .0019989014 .24398804 .0019989014 .2659912 .0019989014 .28799439 0 .30899049 0 .31698609 0 .32899476 0 .32899476 .019989014 .32899476 .0309906 .31999208 .0309906 .30099488 .0309906 .2639923 .0309906 .23599243 .0309906 .23599243 .048980714 .23599243 .054977418 .23799134 .0599823 .23899842 .065979007L.30699159 .33984376H.6119995C.56999209 .17391968 .5469971 .07896423 .54299929 .0639801 .5329895 .03199768 .5139923 .0309906 .45199586 .0309906 .43699647 .0309906 .42799378 .0309906 .42799378 .010986328 .42799378 0 .43998719 0 .44198609 0 .46998597 0 .54100039 .0029907227 .56900027 .0029907227 .58999636 .0029907227 .6119995 .0019989014 .6329956 .0019989014 .6549988 .0019989014 .6769867 0 .69799807 0 .70599368 0 .71798709 0 .71798709 .019989014 .71798709 .0309906 .70899966 .0309906 .6899872 .0309906 .6529999 .0309906 .625 .0309906 .625 .048980714 .625 .054977418 .6269989 .0599823 .6279907 .065979007L.7630005 .60565188Z"/>
<path id="font_3_1" d="M.33099366-.2400055C.33099366-.23701477 .33099366-.23500061 .31399537-.21800232 .18899536-.0920105 .15699768 .09700012 .15699768 .25 .15699768 .42399598 .19499207 .59799197 .31799317 .72299197 .33099366 .73498538 .33099366 .7369995 .33099366 .73999026 .33099366 .746994 .32699586 .75 .32099916 .75 .31098939 .75 .22099304 .6819916 .1619873 .5549927 .11099243 .44499208 .09899902 .33399964 .09899902 .25 .09899902 .17199707 .10998535 .050994874 .16499329-.06201172 .22499085-.18501282 .31098939-.25 .32099916-.25 .32699586-.25 .33099366-.24700928 .33099366-.2400055Z"/>
<path id="font_2_4" d="M.20599365 .3996582H.2999878C.31999208 .3996582 .32998658 .3996582 .32998658 .41966249 .32998658 .43066407 .31999208 .43066407 .3019867 .43066407H.21398926C.25 .5724945 .25498963 .59246829 .25498963 .59846499 .25498963 .61546328 .24299622 .62545779 .22599793 .62545779 .22299195 .62545779 .19499207 .62446597 .18598938 .58947756L.14698792 .43066407H.052993776C.032989503 .43066407 .022994996 .43066407 .022994996 .4116516 .022994996 .3996582 .0309906 .3996582 .050994874 .3996582H.13899231C.066986087 .11608887 .06298828 .099121097 .06298828 .08114624 .06298828 .02722168 .100997928-.0107421879 .15499878-.0107421879 .25698854-.0107421879 .31399537 .13505554 .31399537 .14305115 .31399537 .1530304 .30599977 .1530304 .3019867 .1530304 .29299928 .1530304 .2919922 .15003968 .2869873 .13905335 .24398804 .035217287 .19099427 .011245728 .15699768 .011245728 .13598633 .011245728 .12599182 .024230957 .12599182 .057174684 .12599182 .08114624 .12799073 .088134769 .13198853 .10510254L.20599365 .3996582Z"/>
<path id="font_3_2" d="M.2889862 .25C.2889862 .32798768 .27799989 .44898988 .22299195 .56199648 .16299439 .68499758 .07699585 .75 .066986087 .75 .06098938 .75 .056991579 .74598696 .056991579 .73999026 .056991579 .7369995 .056991579 .73498538 .07598877 .71699526 .17399597 .6179962 .23098755 .45899964 .23098755 .25 .23098755 .07899475 .19400025-.09700012 .069992069-.2230072 .056991579-.23500061 .056991579-.23701477 .056991579-.2400055 .056991579-.2460022 .06098938-.25 .066986087-.25 .07699585-.25 .16699219-.18200684 .22599793-.055007936 .2769928 .054992677 .2889862 .16600037 .2889862 .25Z"/>
<path id="font_3_8" d="M.44898988 .20022583C.44898988 .3193512 .36698915 .41944886 .25898744 .41944886 .21099854 .41944886 .16799927 .40345765 .13198853 .36842347V.5637665C.1519928 .5577698 .18499756 .55078127 .21699524 .55078127 .33999635 .55078127 .4099884 .6417694 .4099884 .6547699 .4099884 .6607666 .40699769 .6657715 .3999939 .6657715 .39898683 .6657715 .39698792 .6657715 .3919983 .66278079 .37199403 .6537781 .32299806 .6337738 .2559967 .6337738 .21598816 .6337738 .16999817 .6407776 .12298584 .6617737 .114990238 .66477969 .11299133 .66477969 .11099243 .66477969 .100997928 .66477969 .100997928 .6567688 .100997928 .6407776V.34439088C.100997928 .32637025 .100997928 .31835938 .114990238 .31835938 .12199402 .31835938 .12399292 .32136537 .12799073 .32736207 .13899231 .3433838 .17599488 .39746095 .25698854 .39746095 .30899049 .39746095 .33399964 .35139466 .34199525 .33337403 .35798646 .29632569 .3600006 .25727845 .3600006 .20722962 .3600006 .17222595 .3600006 .11222839 .33599855 .07035828 .31199647 .031463624 .2749939 .0055389406 .22898865 .0055389406 .1559906 .0055389406 .09899902 .058380128 .08198547 .11723328 .084991458 .1162262 .08799744 .115234378 .09899902 .115234378 .13198853 .115234378 .14898682 .14022827 .14898682 .16423035 .14898682 .18823242 .13198853 .21322632 .09899902 .21322632 .084991458 .21322632 .049987794 .20622254 .049987794 .16023255 .049987794 .07434082 .11898804-.022460938 .23098755-.022460938 .34700013-.022460938 .44898988 .073349 .44898988 .20022583Z"/>
<path id="font_3_3" d="M.45999146 .31976319C.45999146 .39982606 .45498658 .47988893 .41999818 .5539398 .37399293 .65000918 .2919922 .6660156 .25 .6660156 .18998719 .6660156 .116989139 .64001467 .07598877 .54693606 .04399109 .47789 .038986207 .39982606 .038986207 .31976319 .038986207 .24472046 .042999269 .15464783 .083999637 .07859802 .1269989-.0024719239 .19999695-.022460938 .24899292-.022460938 .30299378-.022460938 .3789978-.0014648438 .4229889 .09359741 .45498658 .16265869 .45999146 .2407074 .45999146 .31976319M.24899292-.00047302247C.20999146-.00047302247 .15098572 .024551392 .1329956 .12062073 .12199402 .18066406 .12199402 .2727356 .12199402 .3317871 .12199402 .39582826 .12199402 .46188355 .12998963 .5159149 .14898682 .63500979 .22399903 .64401248 .24899292 .64401248 .28199769 .64401248 .34799195 .6259918 .36698915 .52693179 .3769989 .47088624 .3769989 .39482118 .3769989 .3317871 .3769989 .25672914 .3769989 .18867493 .3659973 .12461853 .35099793 .029556275 .2939911-.00047302247 .24899292-.00047302247Z"/>
<path id="font_2_2" d="M.20298767 .0009918213C.20298767 .066986087 .17799378 .10598755 .13899231 .10598755 .10598755 .10598755 .085998538 .08099365 .085998538 .052993776 .085998538 .025985718 .10598755 0 .13899231 0 .15098572 0 .1639862 .0039978029 .17399597 .0129852299 .1769867 .01499939 .17799378 .015991211 .1789856 .015991211 .17999268 .015991211 .18099976 .01499939 .18099976 .0009918213 .18099976-.07316589 .1459961-.13328552 .11299133-.16635132 .101989749-.17736817 .101989749-.17936707 .101989749-.18237305 .101989749-.18936157 .10699463-.19335938 .11199951-.19335938 .12298584-.19335938 .20298767-.116256717 .20298767 .0009918213Z"/>
<path id="font_3_5" d="M.1269989 .07699585 .23298645 .18003845C.3889923 .31811524 .44898988 .3721466 .44898988 .47216798 .44898988 .5860901 .35899354 .6660156 .23699951 .6660156 .12399292 .6660156 .049987794 .57411196 .049987794 .48516847 .049987794 .4291687 .099990848 .4291687 .102996829 .4291687 .11999512 .4291687 .15499878 .44117738 .15499878 .48217774 .15499878 .5081787 .13699341 .5341797 .101989749 .5341797 .09399414 .5341797 .09199524 .5341797 .08898926 .5331726 .11199951 .59806826 .1659851 .63500979 .22399903 .63500979 .31498719 .63500979 .35798646 .5541382 .35798646 .47216798 .35798646 .39215089 .30799867 .31311036 .25299073 .25108338L.06098938 .036987306C.049987794 .025985718 .049987794 .023986817 .049987794 0H.42099L.44898988 .17404175H.42399598C.4189911 .14402771 .4119873 .1000061 .4019928 .084991458 .394989 .07699585 .32899476 .07699585 .30699159 .07699585H.1269989Z"/>
<path id="font_3_4" d="M.2939911 .64004519C.2939911 .66400149 .2939911 .6660156 .2709961 .6660156 .20899964 .60227969 .12098694 .60227969 .08898926 .60227969V.57128909C.10899353 .57128909 .16799927 .57128909 .21998596 .5972748V.07902527C.21998596 .042999269 .21699524 .0309906 .1269989 .0309906H.09498596V0C.12998963 .0029907227 .21699524 .0029907227 .25698854 .0029907227 .29699708 .0029907227 .38398744 .0029907227 .4189911 0V.0309906H.3869934C.29699708 .0309906 .2939911 .041992189 .2939911 .07902527V.64004519Z"/>
<path id="font_2_1" d="M.19198609 .052993776C.19198609 .08198547 .16799927 .10598755 .13899231 .10598755 .10998535 .10598755 .085998538 .08198547 .085998538 .052993776 .085998538 .023986817 .10998535 0 .13899231 0 .16799927 0 .19198609 .023986817 .19198609 .052993776Z"/>
<path id="font_3_9" d="M.13198853 .327713V.35173036C.13198853 .6047821 .2559967 .64100649 .30699159 .64100649 .33099366 .64100649 .37298585 .634964 .394989 .6007538 .37998963 .6007538 .33999635 .6007538 .33999635 .5557556 .33999635 .524765 .3639984 .5097656 .38598634 .5097656 .4019928 .5097656 .43199159 .51875308 .43199159 .5577545 .43199159 .6178589 .3880005 .6660156 .30499269 .6660156 .1769867 .6660156 .041992189 .5367584 .041992189 .31570436 .041992189 .048553468 .1579895-.022460938 .25099183-.022460938 .3619995-.022460938 .45700074 .07156372 .45700074 .2036438 .45700074 .33070375 .36799623 .4267578 .25698854 .4267578 .18899536 .4267578 .1519928 .37573243 .13198853 .327713M.25099183 .0055389406C.18798828 .0055389406 .1579895 .06556702 .1519928 .080566409 .13398743 .127594 .13398743 .2076416 .13398743 .22564698 .13398743 .30369569 .1659851 .40374757 .2559967 .40374757 .27198792 .40374757 .31799317 .40374757 .34899903 .34172059 .36698915 .30470277 .36698915 .2536621 .36698915 .20463562 .36698915 .15661621 .36698915 .10658264 .34999085 .0705719 .31999208 .010528564 .27398683 .0055389406 .25099183 .0055389406Z"/>
<path id="font_3_7" d="M.2939911 .16503906V.07800293C.2939911 .041992189 .2919922 .0309906 .21798706 .0309906H.19699097V0C.23799134 .0029907227 .2899933 .0029907227 .33198548 .0029907227 .37399293 .0029907227 .4269867 .0029907227 .46798707 0V.0309906H.44699098C.37298585 .0309906 .37098695 .041992189 .37098695 .07800293V.16503906H.47099305V.19602967H.37098695V.65075686C.37098695 .67074587 .37098695 .6767578 .35499574 .6767578 .34599305 .6767578 .34298707 .6767578 .33499146 .66474917L.027999878 .19602967V.16503906H.2939911M.2999878 .19602967H.055999757L.2999878 .5688019V.19602967Z"/>
<path id="font_3_6" d="M.2899933 .35191346C.37199403 .37893678 .42999269 .4490509 .42999269 .52809146 .42999269 .6100464 .34199525 .6660156 .24598694 .6660156 .14498902 .6660156 .068984989 .60606387 .068984989 .53009036 .068984989 .49710084 .09098816 .47808839 .11999512 .47808839 .15098572 .47808839 .17098999 .50009158 .17098999 .5290985 .17098999 .57910159 .12399292 .57910159 .10899353 .57910159 .13999939 .62802127 .20599365 .64100649 .24198914 .64100649 .2829895 .64100649 .33799745 .6190338 .33799745 .5290985 .33799745 .51708987 .33599855 .45906068 .30999757 .4149933 .27999879 .36691285 .24598694 .36390687 .22099304 .36291505 .21299744 .36190797 .18899536 .35990907 .18199158 .35990907 .17399597 .35890199 .16699219 .35791017 .16699219 .3479004 .16699219 .33691407 .17399597 .33691407 .19099427 .33691407H.23498535C.31698609 .33691407 .35398866 .2686615 .35398866 .17037964 .35398866 .034469606 .2849884 .0055389406 .24099732 .0055389406 .19799805 .0055389406 .12298584 .022491456 .08799744 .08137512 .12298584 .07637024 .1539917 .09837341 .1539917 .1363678 .1539917 .17237854 .1269989 .19238281 .09799194 .19238281 .07398987 .19238281 .041992189 .17837525 .041992189 .1343689 .041992189 .043441774 .1349945-.022460938 .24398804-.022460938 .3659973-.022460938 .45700074 .06838989 .45700074 .17037964 .45700074 .252594 .3939972 .33088685 .2899933 .35191346Z"/>
<path id="font_3_10" d="M.47599793 .609375C.4850006 .6213684 .4850006 .62338259 .4850006 .64437869H.24198914C.11999512 .64437869 .117996219 .65737918 .11399841 .67637637H.08898926L.055999757 .4702301H.08099365C.083999637 .48625184 .09298706 .5493469 .10598755 .56137087 .11299133 .5673828 .19099427 .5673828 .20399475 .5673828H.41099549C.3999939 .5513611 .32099916 .4421997 .29899598 .40914918 .20899964 .27394105 .17599488 .1347351 .17599488 .032577516 .17599488 .022567749 .17599488-.022460938 .22200012-.022460938 .2679901-.022460938 .2679901 .022567749 .2679901 .032577516V.08366394C.2679901 .13873291 .2709961 .19381714 .2789917 .24790955 .2829895 .27093507 .29699708 .35707093 .34098817 .41915895L.47599793 .609375Z"/>
<path id="font_3_11" d="M.16299439 .4569702C.116989139 .486969 .11299133 .52098086 .11299133 .5379791 .11299133 .598999 .17799378 .64100649 .24899292 .64100649 .32199098 .64100649 .38598634 .58898928 .38598634 .51698306 .38598634 .45996095 .34700013 .4119568 .2869873 .37695313L.16299439 .4569702M.30899049 .36193849C.3809967 .3989563 .42999269 .45095826 .42999269 .51698306 .42999269 .6090088 .34098817 .6660156 .25 .6660156 .1499939 .6660156 .068984989 .59199526 .068984989 .49897767 .068984989 .4809723 .070999149 .43595887 .11299133 .38894654 .12399292 .37695313 .16099549 .35194398 .18598938 .33494569 .12799073 .30592347 .041992189 .24984741 .041992189 .15072632 .041992189 .04458618 .14399719-.022460938 .24899292-.022460938 .3619995-.022460938 .45700074 .06060791 .45700074 .16773987 .45700074 .20379639 .44599916 .24885559 .4079895 .2909088 .3889923 .31193543 .37298585 .3219452 .30899049 .36193849M.20899964 .3199463 .33198548 .24183655C.3600006 .2228241 .40699769 .19277954 .40699769 .13169861 .40699769 .05760193 .33198548 .0055389406 .25 .0055389406 .1639862 .0055389406 .09199524 .067611698 .09199524 .15072632 .09199524 .20880127 .12399292 .27288819 .20899964 .3199463Z"/>
<path id="font_3_12" d="M.36698915 .31781007V.28579713C.36698915 .05178833 .2630005 .0055389406 .20498657 .0055389406 .18798828 .0055389406 .13398743 .007537842 .10699463 .041778566 .15098572 .041778566 .15899658 .07078552 .15899658 .08778381 .15899658 .118774417 .1349945 .13378906 .11299133 .13378906 .09700012 .13378906 .066986087 .12478638 .066986087 .08578491 .066986087 .018615723 .12098694-.022460938 .20599365-.022460938 .33499146-.022460938 .45700074 .11378479 .45700074 .32881166 .45700074 .5979767 .34199525 .6660156 .25299073 .6660156 .19799805 .6660156 .14898682 .64801028 .10598755 .60298159 .06498718 .5579529 .041992189 .5159302 .041992189 .44088746 .041992189 .31581117 .12998963 .21777344 .24198914 .21777344 .30299378 .21777344 .34399415 .25978089 .36698915 .31781007M.24299622 .24076844C.22698975 .24076844 .18099976 .24076844 .1499939 .3038025 .13198853 .3408203 .13198853 .39085389 .13198853 .43988038 .13198853 .49391175 .13198853 .54093936 .15299988 .5779724 .17999268 .6279907 .21798706 .64100649 .25299073 .64100649 .29899598 .64100649 .33198548 .60697939 .34899903 .5619507 .36099244 .52993777 .36499024 .4669037 .36499024 .42086793 .36499024 .3378296 .33099366 .24076844 .24299622 .24076844Z"/>
</defs>
<path transform="matrix(1,0,0,-1.00009,1.7600002,143.16768)" d="M0 0H163.8834V141.35376H0Z" fill="#fffac2"/>
<path transform="matrix(1,0,0,-1.00009,1.7600002,143.16768)" stroke-width=".3985" stroke-linecap="butt" stroke-miterlimit="10" stroke-linejoin="miter" fill="none" stroke="#d5d6d5" d="M20.48541 0V141.35376M40.97084 0V141.35376M61.45627 0V141.35376M81.9417 0V141.35376M102.42712 0V141.35376M122.91255 0V141.35376M143.39798 0V141.35376M163.8834 0V141.35376"/>
<path transform="matrix(1,0,0,-1.00009,1.7600002,143.16768)" stroke-width=".3985" stroke-linecap="butt" stroke-miterlimit="10" stroke-linejoin="miter" fill="none" stroke="#d5d6d5" d="M40.97084 0V141.35376M61.45627 0V141.35376M81.9417 0V141.35376M102.42712 0V141.35376M122.91255 0V141.35376M143.39798 0V141.35376"/>
<path transform="matrix(1,0,0,-1.00009,1.7600002,143.16768)" stroke-width=".3985" stroke-linecap="butt" stroke-miterlimit="10" stroke-linejoin="miter" fill="none" stroke="#d5d6d5" d="M0 21.74672H163.8834M0 32.62009H163.8834M0 43.49345H163.8834M0 54.36682H163.8834M0 65.24019H163.8834M0 76.11356H163.8834M0 86.98692H163.8834M0 97.86029H163.8834M0 108.73366H163.8834M0 119.60703H163.8834M0 130.4804H163.8834"/>
<path transform="matrix(1,0,0,-1.00009,1.7600002,143.16768)" stroke-width=".3985" stroke-linecap="butt" stroke-miterlimit="10" stroke-linejoin="miter" fill="none" stroke="#d5d6d5" d="M0 54.36682H163.8834M0 76.11356H163.8834M0 97.86029H163.8834M0 119.60703H163.8834"/>
<path transform="matrix(1,0,0,-1.00009,1.7600002,143.16768)" stroke-width=".19925" stroke-linecap="butt" stroke-miterlimit="10" stroke-linejoin="miter" fill="none" stroke="#929292" d="M20.48541 9.45595V12.29077M40.97084 9.45595V12.29077M61.45627 9.45595V12.29077M81.9417 9.45595V12.29077M102.42712 9.45595V12.29077M122.91255 9.45595V12.29077M143.39798 9.45595V12.29077M163.8834 9.45595V12.29077"/>
<path transform="matrix(1,0,0,-1.00009,1.7600002,143.16768)" stroke-width=".19925" stroke-linecap="butt" stroke-miterlimit="10" stroke-linejoin="miter" fill="none" stroke="#929292" d="M40.97084 8.74744V12.99927M61.45627 8.74744V12.99927M81.9417 8.74744V12.99927M102.42712 8.74744V12.99927M122.91255 8.74744V12.99927M143.39798 8.74744V12.99927"/>
<path transform="matrix(1,0,0,-1.00009,1.7600002,143.16768)" stroke-width=".19925" stroke-linecap="butt" stroke-miterlimit="10" stroke-linejoin="miter" fill="none" stroke="#929292" d="M19.06805 21.74672H21.90279M19.06805 32.62009H21.90279M19.06805 43.49345H21.90279M19.06805 54.36682H21.90279M19.06805 65.24019H21.90279M19.06805 76.11356H21.90279M19.06805 86.98692H21.90279M19.06805 97.86029H21.90279M19.06805 108.73366H21.90279M19.06805 119.60703H21.90279M19.06805 130.4804H21.90279"/>
<path transform="matrix(1,0,0,-1.00009,1.7600002,143.16768)" stroke-width=".19925" stroke-linecap="butt" stroke-miterlimit="10" stroke-linejoin="miter" fill="none" stroke="#929292" d="M18.35956 54.36682H22.61127M18.35956 76.11356H22.61127M18.35956 97.86029H22.61127M18.35956 119.60703H22.61127"/>
<path transform="matrix(1,0,0,-1.00009,1.7600002,143.16768)" stroke-width=".3985" stroke-linecap="butt" stroke-miterlimit="10" stroke-linejoin="miter" fill="none" stroke="#000000" d="M1.99252 10.87335H161.89089"/>
<path transform="matrix(-1,-0,0,1.00009,3.75252,132.29335)" d="M1.99252 0-1.19551 1.59401 0 0-1.19551-1.59401"/>
<path transform="matrix(1,0,0,-1.00009,163.65088,132.29335)" d="M1.99252 0-1.19551 1.59401 0 0-1.19551-1.59401"/>
<path transform="matrix(1,0,0,-1.00009,1.7600002,143.16768)" stroke-width=".3985" stroke-linecap="butt" stroke-miterlimit="10" stroke-linejoin="miter" fill="none" stroke="#000000" d="M20.48541 1.99252V139.36124"/>
<path transform="matrix(0,1.00009,1,0,22.24541,141.17498)" d="M1.99252 0-1.19551 1.59401 0 0-1.19551-1.59401"/>
<path transform="matrix(0,-1.00009,-1,-0,22.24541,3.7938996)" d="M1.99252 0-1.19551 1.59401 0 0-1.19551-1.59401"/>
<use data-text="5" xlink:href="#font_1_5" transform="matrix(7.9701,0,0,-7.970817,40.614,143.07668)"/>
<use data-text="1" xlink:href="#font_1_2" transform="matrix(7.9701,0,0,-7.970817,58.982,143.07668)"/>
<use data-text="0" xlink:href="#font_1_1" transform="matrix(7.9701,0,0,-7.970817,63.214124,143.07668)"/>
<use data-text="1" xlink:href="#font_1_2" transform="matrix(7.9701,0,0,-7.970817,79.466999,143.07668)"/>
<use data-text="5" xlink:href="#font_1_5" transform="matrix(7.9701,0,0,-7.970817,83.69913,143.07668)"/>
<use data-text="2" xlink:href="#font_1_3" transform="matrix(7.9701,0,0,-7.970817,99.953,143.07668)"/>
<use data-text="0" xlink:href="#font_1_1" transform="matrix(7.9701,0,0,-7.970817,104.18512,143.07668)"/>
<use data-text="2" xlink:href="#font_1_3" transform="matrix(7.9701,0,0,-7.970817,120.438,143.07668)"/>
<use data-text="5" xlink:href="#font_1_5" transform="matrix(7.9701,0,0,-7.970817,124.67012,143.07668)"/>
<use data-text="3" xlink:href="#font_1_4" transform="matrix(7.9701,0,0,-7.970817,140.924,143.07668)"/>
<use data-text="0" xlink:href="#font_1_1" transform="matrix(7.9701,0,0,-7.970817,145.15613,143.07668)"/>
<use data-text="8" xlink:href="#font_1_7" transform="matrix(7.9701,0,0,-7.970817,10.022,91.36401)"/>
<use data-text="0" xlink:href="#font_1_1" transform="matrix(7.9701,0,0,-7.970817,14.254125,91.36401)"/>
<use data-text="1" xlink:href="#font_1_2" transform="matrix(7.9701,0,0,-7.970817,5.788,69.61606)"/>
<use data-text="2" xlink:href="#font_1_3" transform="matrix(7.9701,0,0,-7.970817,10.020124,69.61606)"/>
<use data-text="0" xlink:href="#font_1_1" transform="matrix(7.9701,0,0,-7.970817,14.252249,69.61606)"/>
<use data-text="1" xlink:href="#font_1_2" transform="matrix(7.9701,0,0,-7.970817,5.788,47.867105)"/>
<use data-text="6" xlink:href="#font_1_6" transform="matrix(7.9701,0,0,-7.970817,10.020124,47.867105)"/>
<use data-text="0" xlink:href="#font_1_1" transform="matrix(7.9701,0,0,-7.970817,14.252249,47.867105)"/>
<use data-text="2" xlink:href="#font_1_3" transform="matrix(7.9701,0,0,-7.970817,5.788,26.118149)"/>
<use data-text="0" xlink:href="#font_1_1" transform="matrix(7.9701,0,0,-7.970817,10.020124,26.118149)"/>
<use data-text="0" xlink:href="#font_1_1" transform="matrix(7.9701,0,0,-7.970817,14.252249,26.118149)"/>
<path transform="matrix(1,0,0,-1.00009,1.7600002,143.16768)" stroke-width=".3985" stroke-linecap="butt" stroke-dasharray="2.98883,2.98883" stroke-miterlimit="10" stroke-linejoin="miter" fill="none" stroke="#9e0c0f" d="M15.3191 136.14704 19.87508 121.47824 26.0495 103.32722 32.22392 86.90485 38.39835 72.21114 44.57278 59.24605 50.74721 48.0096 56.92165 38.50182 63.09608 30.72269 69.2705 24.67216 75.44493 20.35034 81.61935 17.75708 87.7938 16.89255 93.96823 17.7566 100.14264 20.3493 106.31708 24.67072 112.4915 30.72072 118.66594 38.49936 124.84036 48.00667 131.01479 59.24266 137.18923 72.20714 143.36365 86.9004 149.53809 103.32234 155.71251 121.47278 160.26848 136.14104"/>
<path transform="matrix(-.2966,-.955026,-.95494,.29662673,17.162682,7.2774965)" d="M5.10841 0 1.48842 1.20667 .28177 0 1.48842-1.20667Z" fill="#9e0c0f"/>
<path transform="matrix(-.2966,-.955026,-.95494,.29662673,17.162682,7.2774965)" stroke-width=".3985" stroke-linecap="butt" stroke-miterlimit="10" stroke-linejoin="miter" fill="none" stroke="#9e0c0f" d="M5.10841 0 1.48842 1.20667 .28177 0 1.48842-1.20667Z"/>
<path transform="matrix(.2966,-.955026,-.95494,-.29662673,161.94489,7.283493)" d="M5.10841 0 1.48842 1.20667 .28177 0 1.48842-1.20667Z" fill="#9e0c0f"/>
<path transform="matrix(.2966,-.955026,-.95494,-.29662673,161.94489,7.283493)" stroke-width=".3985" stroke-linecap="butt" stroke-miterlimit="10" stroke-linejoin="miter" fill="none" stroke="#9e0c0f" d="M5.10841 0 1.48842 1.20667 .28177 0 1.48842-1.20667Z"/>
<use data-text="y" xlink:href="#font_2_5" transform="matrix(9.9626,0,0,-9.963496,113.237,29.325425)" fill="#9e0c0f"/>
<use data-text="=" xlink:href="#font_3_13" transform="matrix(9.9626,0,0,-9.963496,121.245998,29.325425)" fill="#9e0c0f"/>
<use data-text="H" xlink:href="#font_2_3" transform="matrix(9.9626,0,0,-9.963496,131.762,29.325425)" fill="#9e0c0f"/>
<use data-text="(" xlink:href="#font_3_1" transform="matrix(9.9626,0,0,-9.963496,140.853,29.325425)" fill="#9e0c0f"/>
<use data-text="t" xlink:href="#font_2_4" transform="matrix(9.9626,0,0,-9.963496,144.72699,29.325425)" fill="#9e0c0f"/>
<use data-text=")" xlink:href="#font_3_2" transform="matrix(9.9626,0,0,-9.963496,148.325,29.325425)" fill="#9e0c0f"/>
<path transform="matrix(1,0,0,-1.00009,1.7600002,143.16768)" stroke-width=".99628" stroke-linecap="butt" stroke-miterlimit="10" stroke-linejoin="miter" fill="none" stroke="#9e0c0f" d="M20.48541 119.60703 25.60677 104.5712 30.72813 90.72464 35.84949 78.06737 40.97084 66.59937 46.0922 56.32063 51.21356 47.23117 56.3349 39.331 61.45627 32.62009 66.57762 27.09846 71.69899 22.7661 76.82033 19.62302 81.9417 17.6692 87.06305 16.90466 92.1844 17.3294 97.30576 18.94344 102.42712 21.74672 107.54848 25.73929 112.66983 30.92113 117.79118 37.29224 122.91255 44.85263 128.03389 53.6023 133.15526 63.54123 138.27661 74.66943 143.39798 86.98692"/>
<path transform="matrix(1,0,0,-1.00009,1.7600002,143.16768)" stroke-width=".99628" stroke-linecap="butt" stroke-miterlimit="10" stroke-linejoin="miter" fill="none" stroke="#008099" d="M8.26201 38.05678H6.82843 13.65688 20.48532 27.31377 34.14223 40.97066 47.7991 54.62756 61.456 68.28445 75.11288 81.94133 88.76979 95.59822 102.42668 109.25513 116.08357 122.91202 129.74047 136.56891 143.39736 150.2258 157.05425 155.62067"/>
<path transform="matrix(-1,-0,0,1.00009,10.72649,105.10747)" d="M7.39124 0 2.37614 1.6717 .70447 0 2.37614-1.6717Z" fill="#008099"/>
<path transform="matrix(-1,-0,0,1.00009,10.72649,105.10747)" stroke-width=".99628" stroke-linecap="butt" stroke-miterlimit="10" stroke-linejoin="miter" fill="none" stroke="#008099" d="M7.39124 0 2.37614 1.6717 .70447 0 2.37614-1.6717Z"/>
<path transform="matrix(1,0,0,-1.00009,156.6762,105.10747)" d="M7.39124 0 2.37614 1.6717 .70447 0 2.37614-1.6717Z" fill="#008099"/>
<path transform="matrix(1,0,0,-1.00009,156.6762,105.10747)" stroke-width=".99628" stroke-linecap="butt" stroke-miterlimit="10" stroke-linejoin="miter" fill="none" stroke="#008099" d="M7.39124 0 2.37614 1.6717 .70447 0 2.37614-1.6717Z"/>
<use data-text="y" xlink:href="#font_2_5" transform="matrix(9.9626,0,0,-9.963496,74.37399,99.35074)" fill="#008099"/>
<use data-text="=" xlink:href="#font_3_13" transform="matrix(9.9626,0,0,-9.963496,82.382999,99.35074)" fill="#008099"/>
<use data-text="5" xlink:href="#font_3_8" transform="matrix(9.9626,0,0,-9.963496,92.883579,99.35074)" fill="#008099"/>
<use data-text="0" xlink:href="#font_3_3" transform="matrix(9.9626,0,0,-9.963496,97.864879,99.35074)" fill="#008099"/>
<path transform="matrix(1,0,0,-1.00009,1.7600002,143.16768)" stroke-width=".3985" stroke-linecap="butt" stroke-miterlimit="10" stroke-linejoin="miter" fill="none" stroke="#9e0c0f" d=""/>
<use data-text="(" xlink:href="#font_3_1" transform="matrix(9.9626,0,0,-9.963496,25.765,26.041138)" fill="#9e0c0f"/>
<use data-text="0" xlink:href="#font_3_3" transform="matrix(9.9626,0,0,-9.963496,29.630488,26.041138)" fill="#9e0c0f"/>
<use data-text="," xlink:href="#font_2_2" transform="matrix(9.9626,0,0,-9.963496,34.62,26.041138)" fill="#9e0c0f"/>
<use data-text="2" xlink:href="#font_3_5" transform="matrix(9.9626,0,0,-9.963496,39.048,26.041138)" fill="#9e0c0f"/>
<use data-text="0" xlink:href="#font_3_3" transform="matrix(9.9626,0,0,-9.963496,44.0293,26.041138)" fill="#9e0c0f"/>
<use data-text="0" xlink:href="#font_3_3" transform="matrix(9.9626,0,0,-9.963496,49.0106,26.041138)" fill="#9e0c0f"/>
<use data-text=")" xlink:href="#font_3_2" transform="matrix(9.9626,0,0,-9.963496,53.9919,26.041138)" fill="#9e0c0f"/>
<path transform="matrix(1,0,0,-1.00009,1.7600002,143.16768)" stroke-width=".3985" stroke-linecap="butt" stroke-miterlimit="10" stroke-linejoin="miter" fill="none" stroke="#1c8464" d=""/>
<use data-text="(" xlink:href="#font_3_1" transform="matrix(9.9626,0,0,-9.963496,46.251,79.05291)" fill="#1c8464"/>
<use data-text="5" xlink:href="#font_3_8" transform="matrix(9.9626,0,0,-9.963496,50.11649,79.05291)" fill="#1c8464"/>
<use data-text="," xlink:href="#font_2_2" transform="matrix(9.9626,0,0,-9.963496,55.106004,79.05291)" fill="#1c8464"/>
<use data-text="1" xlink:href="#font_3_4" transform="matrix(9.9626,0,0,-9.963496,59.534006,79.05291)" fill="#1c8464"/>
<use data-text="0" xlink:href="#font_3_3" transform="matrix(9.9626,0,0,-9.963496,64.515308,79.05291)" fill="#1c8464"/>
<use data-text="2" xlink:href="#font_3_5" transform="matrix(9.9626,0,0,-9.963496,69.496608,79.05291)" fill="#1c8464"/>
<use data-text="." xlink:href="#font_2_1" transform="matrix(9.9626,0,0,-9.963496,74.478008,79.05291)" fill="#1c8464"/>
<use data-text="5" xlink:href="#font_3_8" transform="matrix(9.9626,0,0,-9.963496,77.246,79.05291)" fill="#1c8464"/>
<use data-text=")" xlink:href="#font_3_2" transform="matrix(9.9626,0,0,-9.963496,82.2273,79.05291)" fill="#1c8464"/>
<path transform="matrix(1,0,0,-1.00009,1.7600002,143.16768)" stroke-width=".3985" stroke-linecap="butt" stroke-miterlimit="10" stroke-linejoin="miter" fill="none" stroke="#c7502a" d=""/>
<use data-text="(" xlink:href="#font_3_1" transform="matrix(9.9626,0,0,-9.963496,28.478,128.76538)" fill="#c7502a"/>
<use data-text="1" xlink:href="#font_3_4" transform="matrix(9.9626,0,0,-9.963496,32.34349,128.76538)" fill="#c7502a"/>
<use data-text="6" xlink:href="#font_3_9" transform="matrix(9.9626,0,0,-9.963496,37.32479,128.76538)" fill="#c7502a"/>
<use data-text="." xlink:href="#font_2_1" transform="matrix(9.9626,0,0,-9.963496,42.315004,128.76538)" fill="#c7502a"/>
<use data-text="4" xlink:href="#font_3_7" transform="matrix(9.9626,0,0,-9.963496,45.082,128.76538)" fill="#c7502a"/>
<use data-text="3" xlink:href="#font_3_6" transform="matrix(9.9626,0,0,-9.963496,50.0633,128.76538)" fill="#c7502a"/>
<use data-text="," xlink:href="#font_2_2" transform="matrix(9.9626,0,0,-9.963496,55.045003,128.76538)" fill="#c7502a"/>
<use data-text="1" xlink:href="#font_3_4" transform="matrix(9.9626,0,0,-9.963496,59.473005,128.76538)" fill="#c7502a"/>
<use data-text="1" xlink:href="#font_3_4" transform="matrix(9.9626,0,0,-9.963496,64.4543,128.76538)" fill="#c7502a"/>
<use data-text="." xlink:href="#font_2_1" transform="matrix(9.9626,0,0,-9.963496,69.435009,128.76538)" fill="#c7502a"/>
<use data-text="0" xlink:href="#font_3_3" transform="matrix(9.9626,0,0,-9.963496,72.203,128.76538)" fill="#c7502a"/>
<use data-text="7" xlink:href="#font_3_10" transform="matrix(9.9626,0,0,-9.963496,77.1843,128.76538)" fill="#c7502a"/>
<use data-text=")" xlink:href="#font_3_2" transform="matrix(9.9626,0,0,-9.963496,82.1656,128.76538)" fill="#c7502a"/>
<path transform="matrix(1,0,0,-1.00009,1.7600002,143.16768)" stroke-width=".3985" stroke-linecap="butt" stroke-miterlimit="10" stroke-linejoin="miter" fill="none" stroke="#70485b" d=""/>
<use data-text="(" xlink:href="#font_3_1" transform="matrix(9.9626,0,0,-9.963496,104.554,58.66407)" fill="#70485b"/>
<use data-text="3" xlink:href="#font_3_6" transform="matrix(9.9626,0,0,-9.963496,108.41949,58.66407)" fill="#70485b"/>
<use data-text="0" xlink:href="#font_3_3" transform="matrix(9.9626,0,0,-9.963496,113.40079,58.66407)" fill="#70485b"/>
<use data-text="," xlink:href="#font_2_2" transform="matrix(9.9626,0,0,-9.963496,118.391,58.66407)" fill="#70485b"/>
<use data-text="1" xlink:href="#font_3_4" transform="matrix(9.9626,0,0,-9.963496,122.819,58.66407)" fill="#70485b"/>
<use data-text="4" xlink:href="#font_3_7" transform="matrix(9.9626,0,0,-9.963496,127.8003,58.66407)" fill="#70485b"/>
<use data-text="0" xlink:href="#font_3_3" transform="matrix(9.9626,0,0,-9.963496,132.7816,58.66407)" fill="#70485b"/>
<use data-text=")" xlink:href="#font_3_2" transform="matrix(9.9626,0,0,-9.963496,137.76291,58.66407)" fill="#70485b"/>
<path transform="matrix(1,0,0,-1.00009,1.7600002,143.16768)" stroke-width=".3985" stroke-linecap="butt" stroke-miterlimit="10" stroke-linejoin="miter" fill="none" stroke="#008099" d=""/>
<use data-text="(" xlink:href="#font_3_1" transform="matrix(9.9626,0,0,-9.963496,15.629001,116.10024)" fill="#008099"/>
<use data-text="8" xlink:href="#font_3_11" transform="matrix(9.9626,0,0,-9.963496,19.494488,116.10024)" fill="#008099"/>
<use data-text="." xlink:href="#font_2_1" transform="matrix(9.9626,0,0,-9.963496,24.484002,116.10024)" fill="#008099"/>
<use data-text="9" xlink:href="#font_3_12" transform="matrix(9.9626,0,0,-9.963496,27.251999,116.10024)" fill="#008099"/>
<use data-text="7" xlink:href="#font_3_10" transform="matrix(9.9626,0,0,-9.963496,32.2333,116.10024)" fill="#008099"/>
<use data-text="," xlink:href="#font_2_2" transform="matrix(9.9626,0,0,-9.963496,37.215,116.10024)" fill="#008099"/>
<use data-text="5" xlink:href="#font_3_8" transform="matrix(9.9626,0,0,-9.963496,41.642,116.10024)" fill="#008099"/>
<use data-text="0" xlink:href="#font_3_3" transform="matrix(9.9626,0,0,-9.963496,46.6233,116.10024)" fill="#008099"/>
<use data-text=")" xlink:href="#font_3_2" transform="matrix(9.9626,0,0,-9.963496,51.6046,116.10024)" fill="#008099"/>
<path transform="matrix(1,0,0,-1.00009,1.7600002,143.16768)" stroke-width=".3985" stroke-linecap="butt" stroke-miterlimit="10" stroke-linejoin="miter" fill="none" stroke="#008099" d=""/>
<use data-text="(" xlink:href="#font_3_1" transform="matrix(9.9626,0,0,-9.963496,123.62799,116.10024)" fill="#008099"/>
<use data-text="2" xlink:href="#font_3_5" transform="matrix(9.9626,0,0,-9.963496,127.493488,116.10024)" fill="#008099"/>
<use data-text="3" xlink:href="#font_3_6" transform="matrix(9.9626,0,0,-9.963496,132.47478,116.10024)" fill="#008099"/>
<use data-text="." xlink:href="#font_2_1" transform="matrix(9.9626,0,0,-9.963496,137.465,116.10024)" fill="#008099"/>
<use data-text="8" xlink:href="#font_3_11" transform="matrix(9.9626,0,0,-9.963496,140.232,116.10024)" fill="#008099"/>
<use data-text="9" xlink:href="#font_3_12" transform="matrix(9.9626,0,0,-9.963496,145.21329,116.10024)" fill="#008099"/>
<use data-text="," xlink:href="#font_2_2" transform="matrix(9.9626,0,0,-9.963496,150.19499,116.10024)" fill="#008099"/>
<use data-text="5" xlink:href="#font_3_8" transform="matrix(9.9626,0,0,-9.963496,154.623,116.10024)" fill="#008099"/>
<use data-text="0" xlink:href="#font_3_3" transform="matrix(9.9626,0,0,-9.963496,159.6043,116.10024)" fill="#008099"/>
<use data-text=")" xlink:href="#font_3_2" transform="matrix(9.9626,0,0,-9.963496,164.5856,116.10024)" fill="#008099"/>
<path transform="matrix(1,0,0,-1.00009,1.7600002,143.16768)" d="M22.47797 119.60703C22.47797 120.7075 21.58589 121.59958 20.48541 121.59958 19.38495 121.59958 18.49286 120.7075 18.49286 119.60703 18.49286 118.50656 19.38495 117.61447 20.48541 117.61447 21.58589 117.61447 22.47797 118.50656 22.47797 119.60703ZM20.48541 119.60703" fill="#9e0c0f"/>
<path transform="matrix(1,0,0,-1.00009,1.7600002,143.16768)" stroke-width=".3985" stroke-linecap="butt" stroke-miterlimit="10" stroke-linejoin="miter" fill="none" stroke="#9e0c0f" d="M22.47797 119.60703C22.47797 120.7075 21.58589 121.59958 20.48541 121.59958 19.38495 121.59958 18.49286 120.7075 18.49286 119.60703 18.49286 118.50656 19.38495 117.61447 20.48541 117.61447 21.58589 117.61447 22.47797 118.50656 22.47797 119.60703ZM20.48541 119.60703"/>
<path transform="matrix(1,0,0,-1.00009,1.7600002,143.16768)" stroke-width=".3985" stroke-linecap="butt" stroke-miterlimit="10" stroke-linejoin="miter" fill="none" stroke="#9e0c0f" d=""/>
<path transform="matrix(1,0,0,-1.00009,1.7600002,143.16768)" d="M42.9634 66.59937C42.9634 67.69983 42.07132 68.59192 40.97084 68.59192 39.87038 68.59192 38.97829 67.69983 38.97829 66.59937 38.97829 65.49889 39.87038 64.60681 40.97084 64.60681 42.07132 64.60681 42.9634 65.49889 42.9634 66.59937ZM40.97084 66.59937" fill="#1c8464"/>
<path transform="matrix(1,0,0,-1.00009,1.7600002,143.16768)" stroke-width=".3985" stroke-linecap="butt" stroke-miterlimit="10" stroke-linejoin="miter" fill="none" stroke="#1c8464" d="M42.9634 66.59937C42.9634 67.69983 42.07132 68.59192 40.97084 68.59192 39.87038 68.59192 38.97829 67.69983 38.97829 66.59937 38.97829 65.49889 39.87038 64.60681 40.97084 64.60681 42.07132 64.60681 42.9634 65.49889 42.9634 66.59937ZM40.97084 66.59937"/>
<path transform="matrix(1,0,0,-1.00009,1.7600002,143.16768)" stroke-width=".3985" stroke-linecap="butt" stroke-miterlimit="10" stroke-linejoin="miter" fill="none" stroke="#1c8464" d=""/>
<path transform="matrix(1,0,0,-1.00009,1.7600002,143.16768)" d="M89.79308 16.89177C89.79308 17.99223 88.901 18.88432 87.80052 18.88432 86.70006 18.88432 85.80797 17.99223 85.80797 16.89177 85.80797 15.79129 86.70006 14.89922 87.80052 14.89922 88.901 14.89922 89.79308 15.79129 89.79308 16.89177ZM87.80052 16.89177" fill="#c7502a"/>
<path transform="matrix(1,0,0,-1.00009,1.7600002,143.16768)" stroke-width=".3985" stroke-linecap="butt" stroke-miterlimit="10" stroke-linejoin="miter" fill="none" stroke="#c7502a" d="M89.79308 16.89177C89.79308 17.99223 88.901 18.88432 87.80052 18.88432 86.70006 18.88432 85.80797 17.99223 85.80797 16.89177 85.80797 15.79129 86.70006 14.89922 87.80052 14.89922 88.901 14.89922 89.79308 15.79129 89.79308 16.89177ZM87.80052 16.89177"/>
<path transform="matrix(1,0,0,-1.00009,1.7600002,143.16768)" stroke-width=".3985" stroke-linecap="butt" stroke-miterlimit="10" stroke-linejoin="miter" fill="none" stroke="#c7502a" d=""/>
<path transform="matrix(1,0,0,-1.00009,1.7600002,143.16768)" d="M145.39054 86.98692C145.39054 88.0874 144.49845 88.97948 143.39798 88.97948 142.2975 88.97948 141.40543 88.0874 141.40543 86.98692 141.40543 85.88646 142.2975 84.99437 143.39798 84.99437 144.49845 84.99437 145.39054 85.88646 145.39054 86.98692ZM143.39798 86.98692" fill="#70485b"/>
<path transform="matrix(1,0,0,-1.00009,1.7600002,143.16768)" stroke-width=".3985" stroke-linecap="butt" stroke-miterlimit="10" stroke-linejoin="miter" fill="none" stroke="#70485b" d="M145.39054 86.98692C145.39054 88.0874 144.49845 88.97948 143.39798 88.97948 142.2975 88.97948 141.40543 88.0874 141.40543 86.98692 141.40543 85.88646 142.2975 84.99437 143.39798 84.99437 144.49845 84.99437 145.39054 85.88646 145.39054 86.98692ZM143.39798 86.98692"/>
<path transform="matrix(1,0,0,-1.00009,1.7600002,143.16768)" stroke-width=".3985" stroke-linecap="butt" stroke-miterlimit="10" stroke-linejoin="miter" fill="none" stroke="#70485b" d=""/>
<path transform="matrix(1,0,0,-1.00009,1.7600002,143.16768)" d="M59.23293 38.05678C59.23293 39.15724 58.34084 40.04933 57.24037 40.04933 56.1399 40.04933 55.24782 39.15724 55.24782 38.05678 55.24782 36.9563 56.1399 36.06422 57.24037 36.06422 58.34084 36.06422 59.23293 36.9563 59.23293 38.05678ZM57.24037 38.05678" fill="#008099"/>
<path transform="matrix(1,0,0,-1.00009,1.7600002,143.16768)" stroke-width=".3985" stroke-linecap="butt" stroke-miterlimit="10" stroke-linejoin="miter" fill="none" stroke="#008099" d="M59.23293 38.05678C59.23293 39.15724 58.34084 40.04933 57.24037 40.04933 56.1399 40.04933 55.24782 39.15724 55.24782 38.05678 55.24782 36.9563 56.1399 36.06422 57.24037 36.06422 58.34084 36.06422 59.23293 36.9563 59.23293 38.05678ZM57.24037 38.05678"/>
<path transform="matrix(1,0,0,-1.00009,1.7600002,143.16768)" stroke-width=".3985" stroke-linecap="butt" stroke-miterlimit="10" stroke-linejoin="miter" fill="none" stroke="#008099" d=""/>
<path transform="matrix(1,0,0,-1.00009,1.7600002,143.16768)" d="M120.34094 38.05678C120.34094 39.15724 119.44885 40.04933 118.34839 40.04933 117.24791 40.04933 116.35583 39.15724 116.35583 38.05678 116.35583 36.9563 117.24791 36.06422 118.34839 36.06422 119.44885 36.06422 120.34094 36.9563 120.34094 38.05678ZM118.34839 38.05678" fill="#008099"/>
<path transform="matrix(1,0,0,-1.00009,1.7600002,143.16768)" stroke-width=".3985" stroke-linecap="butt" stroke-miterlimit="10" stroke-linejoin="miter" fill="none" stroke="#008099" d="M120.34094 38.05678C120.34094 39.15724 119.44885 40.04933 118.34839 40.04933 117.24791 40.04933 116.35583 39.15724 116.35583 38.05678 116.35583 36.9563 117.24791 36.06422 118.34839 36.06422 119.44885 36.06422 120.34094 36.9563 120.34094 38.05678ZM118.34839 38.05678"/>
<path transform="matrix(1,0,0,-1.00009,1.7600002,143.16768)" stroke-width=".3985" stroke-linecap="butt" stroke-miterlimit="10" stroke-linejoin="miter" fill="none" stroke="#008099" d=""/>
<use data-text="t" xlink:href="#font_2_4" transform="matrix(9.9626,0,0,-9.963496,158.526,128.77338)"/>
<use data-text="y" xlink:href="#font_2_5" transform="matrix(9.9626,0,0,-9.963496,25.765,9.611649)"/>
</svg>
