<svg xmlns="http://www.w3.org/2000/svg" xmlns:xlink="http://www.w3.org/1999/xlink" version="1.1" width="242" height="210" viewBox="0 0 242 210">
<defs>
<path id="font_1_1" d="M.69898989 .22743225C.71499636 .22743225 .7369995 .22743225 .7369995 .25042726 .7369995 .2734375 .71499636 .2734375 .69898989 .2734375H.12599182C.10998535 .2734375 .08799744 .2734375 .08799744 .25042726 .08799744 .22743225 .10998535 .22743225 .12599182 .22743225H.69898989Z"/>
<path id="font_2_6" d="M.13798523 .33073426C.13798523 .41377259 .14498902 .4868164 .18099976 .54782107 .21099854 .5978241 .2619934 .6390381 .32499696 .6390381 .34498597 .6390381 .3909912 .63601687 .4139862 .60084536 .36898805 .5988312 .36499024 .5648346 .36499024 .553833 .36499024 .5238342 .3880005 .50683596 .4119873 .50683596 .42999269 .50683596 .45899964 .51782229 .45899964 .5558319 .45899964 .615921 .4139862 .66503909 .32398988 .66503909 .18499756 .66503909 .04399109 .53282168 .04399109 .31672669 .04399109 .045532228 .16999817-.021484375 .2669983-.021484375 .31498719-.021484375 .36698915-.0084991459 .4119873 .03453064 .45199586 .07354736 .48599244 .11558533 .48599244 .20263672 .48599244 .33372499 .3869934 .42578126 .27598573 .42578126 .20399475 .42578126 .16099549 .37976075 .13798523 .33073426M.2669983 .008514404C.21398926 .008514404 .18099976 .045532228 .1659851 .07354736 .14299011 .11859131 .14099121 .18663025 .14099121 .22465515 .14099121 .32373048 .19499207 .3977661 .27198792 .3977661 .32199098 .3977661 .35198976 .37176515 .37098695 .33673097 .3919983 .29971314 .3919983 .25468446 .3919983 .2036438 .3919983 .15260315 .3919983 .10858154 .37199403 .07255554 .34599305 .026519776 .31098939 .008514404 .2669983 .008514404Z"/>
<path id="font_2_4" d="M.3939972 .6468048C.3939972 .6667938 .3939972 .6748047 .37298585 .6748047 .3600006 .6748047 .35899354 .6737976 .34899903 .65979006L.02999878 .197052V.1640625H.31199647V.08100891C.31199647 .04399109 .30899049 .032989503 .23199463 .032989503H.20899964V0C.2939911 .0029907227 .29599 .0029907227 .35299684 .0029907227 .4099884 .0029907227 .4119873 .0029907227 .49699403 0V.032989503H.47399903C.39698792 .032989503 .3939972 .04399109 .3939972 .08100891V.1640625H.5V.197052H.3939972V.6468048M.31900025 .5658417V.197052H.06498718L.31900025 .5658417Z"/>
<path id="font_2_3" d="M.28199769 .20405579C.2979889 .21907044 .33999635 .2520752 .35598756 .26608277 .41799928 .32312013 .47698976 .3781433 .47698976 .46917726 .47698976 .588089 .3769989 .66503909 .2519989 .66503909 .13198853 .66503909 .052993776 .57411196 .052993776 .48516847 .052993776 .4361725 .09199524 .4291687 .10598755 .4291687 .1269989 .4291687 .1579895 .4441681 .1579895 .48217774 .1579895 .5341797 .10798645 .5341797 .09599304 .5341797 .125 .6070709 .19198609 .6320343 .24099732 .6320343 .33399964 .6320343 .38198854 .55314639 .38198854 .46917726 .38198854 .36514283 .30899049 .28910829 .19099427 .16804505L.06498718 .037994386C.052993776 .026992798 .052993776 .024993897 .052993776 0H.44799806L.47698976 .17904663H.44599916C.44299317 .1590271 .43499757 .10900879 .4229889 .08999634 .4169922 .08198547 .34098817 .08198547 .32499696 .08198547H.14698792L.28199769 .20405579Z"/>
<path id="font_2_5" d="M.13999939 .5618439C.15299988 .55784609 .19299317 .54785159 .23498535 .54785159 .3600006 .54785159 .43598939 .6358948 .43598939 .6510315 .43598939 .6620331 .42900086 .66503909 .42399598 .66503909 .42199708 .66503909 .41999818 .66503909 .41099549 .6600342 .37199403 .6450348 .32598878 .632843 .27198792 .632843 .21299744 .632843 .1639862 .6480255 .1329956 .6600342 .12298584 .66503909 .12098694 .66503909 .11999512 .66503909 .10699463 .66503909 .10699463 .6540375 .10699463 .6358948V.34292604C.10699463 .32492066 .10699463 .312912 .12298584 .312912 .1309967 .312912 .13398743 .3169098 .13899231 .32492066 .15098572 .33992005 .18899536 .39093019 .27398683 .39093019 .32998658 .39093019 .35699464 .34492494 .3659973 .32591249 .3829956 .28990174 .3849945 .24389649 .3849945 .20487976 .3849945 .1678772 .38398744 .11387634 .35598756 .069732669 .33699037 .039611818 .29699708 .008514404 .24398804 .008514404 .1789856 .008514404 .114990238 .0496521 .09199524 .11488342 .09498596 .11387634 .100997928 .11387634 .101989749 .11387634 .12998963 .11387634 .1519928 .13188172 .1519928 .16288758 .1519928 .19989014 .12298584 .21289063 .102996829 .21289063 .084991458 .21289063 .052993776 .20288086 .052993776 .15988159 .052993776 .069732669 .1309967-.021484375 .24598694-.021484375 .37098695-.021484375 .47698976 .07574463 .47698976 .19989014 .47698976 .31591798 .3929901 .4189453 .2749939 .4189453 .22499085 .4189453 .17799378 .40293885 .13999939 .368927V.5618439Z"/>
<path id="font_2_2" d="M.31399537 .63708499C.31399537 .664032 .31199647 .66503909 .2849884 .66503909 .24398804 .6251831 .19099427 .6013489 .09599304 .6013489V.5683594C.12298584 .5683594 .1769867 .5683594 .23498535 .5953522V.08203125C.23498535 .04499817 .23199463 .032989503 .13699341 .032989503H.101989749V0C.14299011 .0029907227 .22898865 .0029907227 .27398683 .0029907227 .31900025 .0029907227 .4059906 .0029907227 .44699098 0V.032989503H.4119873C.31698609 .032989503 .31399537 .04499817 .31399537 .08203125V.63708499Z"/>
<path id="font_2_1" d="M.4889984 .31877137C.4889984 .42585755 .47799684 .49090577 .44499208 .55496218 .40098573 .6430359 .31999208 .66503909 .2649994 .66503909 .13899231 .66503909 .09298706 .5709839 .07899475 .5429535 .042999269 .4698944 .040985109 .3708191 .040985109 .31877137 .040985109 .25271607 .04399109 .15162659 .09199524 .07156372 .13798523-.0024871827 .21199036-.021484375 .2649994-.021484375 .31298829-.021484375 .39898683-.0064849855 .44898988 .09257507 .48599244 .16464234 .4889984 .2537079 .4889984 .31877137M.2649994 .006515503C.23098755 .006515503 .1619873 .022521973 .14099121 .12760926 .12998963 .18466187 .12998963 .2787323 .12998963 .33078004 .12998963 .3998413 .12998963 .4698944 .14099121 .5249481 .1619873 .6270294 .23999024 .6370239 .2649994 .6370239 .29899598 .6370239 .36799623 .62002566 .3880005 .5289459 .3999939 .4738922 .3999939 .39883424 .3999939 .33078004 .3999939 .27172853 .3999939 .18165589 .3880005 .12561035 .36698915 .020523072 .2979889 .006515503 .2649994 .006515503Z"/>
<clipPath id="clip_3">
<path transform="matrix(1,0,0,-1.00003,1.4610005,208.04285)" d="M0 .01233H239.11191V206.24056H0Z"/>
</clipPath>
<path id="font_4_1" d="M.33399964 .30233766C.33999635 .32835389 .36299134 .42037965 .43299867 .42037965 .43798829 .42037965 .46199037 .42037965 .48298646 .40734864 .45498658 .402359 .43499757 .37734986 .43499757 .35334779 .43499757 .33735658 .44599916 .31835938 .47299195 .31835938 .49499513 .31835938 .5269928 .3363495 .5269928 .37635804 .5269928 .42837525 .46798707 .4423828 .43399049 .4423828 .37599183 .4423828 .34098817 .38935853 .32899476 .36634828 .3039856 .43237306 .25 .4423828 .22099304 .4423828 .116989139 .4423828 .05999756 .3133545 .05999756 .28834535 .05999756 .27833558 .069992069 .27833558 .07199097 .27833558 .07998657 .27833558 .08299255 .28033448 .084991458 .28933717 .11898804 .39535523 .18499756 .42037965 .21899414 .42037965 .23799134 .42037965 .272995 .4113617 .272995 .35334779 .272995 .32235719 .2559967 .25532533 .21899414 .11528015 .20298767 .053268434 .16799927 .011245728 .12399292 .011245728 .117996219 .011245728 .09498596 .011245728 .07398987 .024276734 .09899902 .029266358 .12098694 .05027771 .12098694 .07827759 .12098694 .105270389 .09899902 .11328125 .083999637 .11328125 .053985597 .11328125 .0289917 .08728027 .0289917 .055267335 .0289917 .009246826 .07899475-.0107421879 .12298584-.0107421879 .18899536-.0107421879 .22499085 .059280397 .22799683 .0652771 .23999024 .028274537 .27598573-.0107421879 .33599855-.0107421879 .43899537-.0107421879 .49598695 .118270877 .49598695 .14328003 .49598695 .1532898 .4869995 .1532898 .48399354 .1532898 .47499085 .1532898 .47299195 .14929199 .47099305 .14228821 .43798829 .03527832 .36999513 .011245728 .33799745 .011245728 .29899598 .011245728 .2829895 .043273927 .2829895 .07727051 .2829895 .09927368 .2889862 .121276859 .2999878 .16529846L.33399964 .30233766Z"/>
<path id="font_4_2" d="M.48599244 .38136292C.48999024 .39537049 .48999024 .39736939 .48999024 .40437318 .48999024 .42237855 .47599793 .43138124 .46099855 .43138124 .45098878 .43138124 .43499757 .42536927 .42599488 .41036988 .42399598 .405365 .41600038 .37435914 .4119873 .35635377 .40499879 .33035279 .397995 .30334474 .3919983 .27633668L.34700013 .09628296C.34298707 .08126831 .2999878 .011245728 .23399353 .011245728 .18299866 .011245728 .17199707 .055267335 .17199707 .0922699 .17199707 .1382904 .18899536 .20030213 .22299195 .28833009 .23899842 .3293457 .24299622 .3403473 .24299622 .36035157 .24299622 .405365 .21099854 .4423828 .16099549 .4423828 .06599426 .4423828 .0289917 .29733277 .0289917 .28833009 .0289917 .27833558 .038986207 .27833558 .040985109 .27833558 .050994874 .27833558 .051986696 .28033448 .056991579 .29634095 .083999637 .3903656 .12399292 .42037965 .1579895 .42037965 .1659851 .42037965 .18299866 .42037965 .18299866 .3883667 .18299866 .36335755 .17298889 .3373413 .1659851 .31834413 .12599182 .21231079 .10798645 .1552887 .10798645 .10827637 .10798645 .019256592 .17098999-.0107421879 .22999573-.0107421879 .2689972-.0107421879 .30299378 .0062561037 .33099366 .03425598 .31799317-.017745972 .30599977-.06674194 .2659912-.11973572 .23999024-.15385437 .20199585-.18309021 .1559906-.18309021 .14199829-.18309021 .09700012-.18005371 .07998657-.14074707 .09599304-.14074707 .10899353-.14074707 .12298584-.1287384 .1329956-.11973572 .14299011-.10673523 .14299011-.08773804 .14299011-.056747438 .115997318-.052734376 .10598755-.052734376 .08299255-.052734376 .049987794-.068740848 .049987794-.11773682 .049987794-.16796875 .09399414-.20507813 .1559906-.20507813 .25898744-.20507813 .3619995-.11373901 .3899994-.00074768069L.48599244 .38136292Z"/>
</defs>
<path transform="matrix(1,0,0,-1.00003,1.4610005,208.04285)" d="M0 .01233H239.11191V206.24056H0Z" fill="#fffac2"/>
<path transform="matrix(1,0,0,-1.00003,1.4610005,208.04285)" stroke-width=".3985" stroke-linecap="butt" stroke-miterlimit="10" stroke-linejoin="miter" fill="none" stroke="#d5d6d5" d="M0 .01233V206.24056M17.07942 .01233V206.24056M34.15884 .01233V206.24056M51.23827 .01233V206.24056M68.31769 .01233V206.24056M85.39711 .01233V206.24056M102.47653 .01233V206.24056M119.55595 .01233V206.24056M136.63538 .01233V206.24056M153.7148 .01233V206.24056M170.79422 .01233V206.24056M187.87364 .01233V206.24056M204.95307 .01233V206.24056M222.03249 .01233V206.24056M239.11191 .01233V206.24056"/>
<path transform="matrix(1,0,0,-1.00003,1.4610005,208.04285)" stroke-width=".3985" stroke-linecap="butt" stroke-miterlimit="10" stroke-linejoin="miter" fill="none" stroke="#d5d6d5" d="M17.07942 .01233V206.24056M51.23827 .01233V206.24056M85.39711 .01233V206.24056M153.7148 .01233V206.24056M187.87364 .01233V206.24056M222.03249 .01233V206.24056"/>
<path transform="matrix(1,0,0,-1.00003,1.4610005,208.04285)" stroke-width=".3985" stroke-linecap="butt" stroke-miterlimit="10" stroke-linejoin="miter" fill="none" stroke="#d5d6d5" d="M0 .01233H239.11191M0 7.65042H239.11191M0 15.2885H239.11191M0 22.92659H239.11191M0 30.56467H239.11191M0 38.20274H239.11191M0 45.84084H239.11191M0 53.47891H239.11191M0 61.11699H239.11191M0 68.75508H239.11191M0 76.39316H239.11191M0 84.03123H239.11191M0 91.66933H239.11191M0 99.3074H239.11191M0 106.94548H239.11191M0 114.58357H239.11191M0 122.22165H239.11191M0 129.85973H239.11191M0 137.49782H239.11191M0 145.1359H239.11191M0 152.77397H239.11191M0 160.41207H239.11191M0 168.05014H239.11191M0 175.68822H239.11191M0 183.32631H239.11191M0 190.96439H239.11191M0 198.60247H239.11191M0 206.24056H239.11191"/>
<path transform="matrix(1,0,0,-1.00003,1.4610005,208.04285)" stroke-width=".3985" stroke-linecap="butt" stroke-miterlimit="10" stroke-linejoin="miter" fill="none" stroke="#d5d6d5" d="M0 15.2885H239.11191M0 91.66933H239.11191M0 129.85973H239.11191M0 168.05014H239.11191"/>
<path transform="matrix(1,0,0,-1.00003,1.4610005,208.04285)" stroke-width=".19925" stroke-linecap="butt" stroke-miterlimit="10" stroke-linejoin="miter" fill="none" stroke="#929292" d="M0 52.06155V54.89629M17.07942 52.06155V54.89629M34.15884 52.06155V54.89629M51.23827 52.06155V54.89629M68.31769 52.06155V54.89629M85.39711 52.06155V54.89629M102.47653 52.06155V54.89629M119.55595 52.06155V54.89629M136.63538 52.06155V54.89629M153.7148 52.06155V54.89629M170.79422 52.06155V54.89629M187.87364 52.06155V54.89629M204.95307 52.06155V54.89629M222.03249 52.06155V54.89629M239.11191 52.06155V54.89629"/>
<path transform="matrix(1,0,0,-1.00003,1.4610005,208.04285)" stroke-width=".19925" stroke-linecap="butt" stroke-miterlimit="10" stroke-linejoin="miter" fill="none" stroke="#929292" d="M17.07942 51.35309V55.60474M51.23827 51.35309V55.60474M85.39711 51.35309V55.60474M153.7148 51.35309V55.60474M187.87364 51.35309V55.60474M222.03249 51.35309V55.60474"/>
<path transform="matrix(1,0,0,-1.00003,1.4610005,208.04285)" stroke-width=".19925" stroke-linecap="butt" stroke-miterlimit="10" stroke-linejoin="miter" fill="none" stroke="#929292" d="M118.13852 .01233H120.97339M118.13852 7.65042H120.97339M118.13852 15.2885H120.97339M118.13852 22.92659H120.97339M118.13852 30.56467H120.97339M118.13852 38.20274H120.97339M118.13852 45.84084H120.97339M118.13852 53.47891H120.97339M118.13852 61.11699H120.97339M118.13852 68.75508H120.97339M118.13852 76.39316H120.97339M118.13852 84.03123H120.97339M118.13852 91.66933H120.97339M118.13852 99.3074H120.97339M118.13852 106.94548H120.97339M118.13852 114.58357H120.97339M118.13852 122.22165H120.97339M118.13852 129.85973H120.97339M118.13852 137.49782H120.97339M118.13852 145.1359H120.97339M118.13852 152.77397H120.97339M118.13852 160.41207H120.97339M118.13852 168.05014H120.97339M118.13852 175.68822H120.97339M118.13852 183.32631H120.97339M118.13852 190.96439H120.97339M118.13852 198.60247H120.97339M118.13852 206.24056H120.97339"/>
<path transform="matrix(1,0,0,-1.00003,1.4610005,208.04285)" stroke-width=".19925" stroke-linecap="butt" stroke-miterlimit="10" stroke-linejoin="miter" fill="none" stroke="#929292" d="M117.43001 15.2885H121.68187M117.43001 91.66933H121.68187M117.43001 129.85973H121.68187M117.43001 168.05014H121.68187"/>
<path transform="matrix(1,0,0,-1.00003,1.4610005,208.04285)" stroke-width=".3985" stroke-linecap="butt" stroke-miterlimit="10" stroke-linejoin="miter" fill="none" stroke="#000000" d="M1.99252 53.47891H237.11939"/>
<path transform="matrix(-1,-0,0,1.00003,3.4535204,154.56233)" d="M1.99252 0-1.19551 1.59401 0 0-1.19551-1.59401"/>
<path transform="matrix(1,0,0,-1.00003,238.58039,154.56233)" d="M1.99252 0-1.19551 1.59401 0 0-1.19551-1.59401"/>
<path transform="matrix(1,0,0,-1.00003,1.4610005,208.04285)" stroke-width=".3985" stroke-linecap="butt" stroke-miterlimit="10" stroke-linejoin="miter" fill="none" stroke="#000000" d="M119.55595 2.00485V204.24803"/>
<path transform="matrix(0,1.00003,1,0,121.016948,206.03794)" d="M1.99252 0-1.19551 1.59401 0 0-1.19551-1.59401"/>
<path transform="matrix(0,-1.00003,-1,-0,121.016948,3.788681)" d="M1.99252 0-1.19551 1.59401 0 0-1.19551-1.59401"/>
<use data-text="&#x2212;" xlink:href="#font_1_1" transform="matrix(7.9701,0,0,-7.9703395,13.13,165.34458)"/>
<use data-text="6" xlink:href="#font_2_6" transform="matrix(7.9701,0,0,-7.9703395,19.717,165.34458)"/>
<use data-text="&#x2212;" xlink:href="#font_1_1" transform="matrix(7.9701,0,0,-7.9703395,47.289,165.34458)"/>
<use data-text="4" xlink:href="#font_2_4" transform="matrix(7.9701,0,0,-7.9703395,53.876,165.34458)"/>
<use data-text="&#x2212;" xlink:href="#font_1_1" transform="matrix(7.9701,0,0,-7.9703395,81.448,165.34458)"/>
<use data-text="2" xlink:href="#font_2_3" transform="matrix(7.9701,0,0,-7.9703395,88.035,165.34458)"/>
<use data-text="2" xlink:href="#font_2_3" transform="matrix(7.9701,0,0,-7.9703395,153.059,165.34458)"/>
<use data-text="4" xlink:href="#font_2_4" transform="matrix(7.9701,0,0,-7.9703395,187.218,165.34458)"/>
<use data-text="6" xlink:href="#font_2_6" transform="matrix(7.9701,0,0,-7.9703395,221.37599,165.34458)"/>
<use data-text="&#x2212;" xlink:href="#font_1_1" transform="matrix(7.9701,0,0,-7.9703395,106.44101,194.90746)"/>
<use data-text="5" xlink:href="#font_2_5" transform="matrix(7.9701,0,0,-7.9703395,113.02801,194.90746)"/>
<use data-text="5" xlink:href="#font_2_5" transform="matrix(7.9701,0,0,-7.9703395,113.028,118.93917)"/>
<use data-text="1" xlink:href="#font_2_2" transform="matrix(7.9701,0,0,-7.9703395,108.793,80.747028)"/>
<use data-text="0" xlink:href="#font_2_1" transform="matrix(7.9701,0,0,-7.9703395,113.02513,80.747028)"/>
<use data-text="1" xlink:href="#font_2_2" transform="matrix(7.9701,0,0,-7.9703395,108.793,42.555879)"/>
<use data-text="5" xlink:href="#font_2_5" transform="matrix(7.9701,0,0,-7.9703395,113.02513,42.555879)"/>
<g clip-path="url(#clip_3)">
<path transform="matrix(1,0,0,-1.00003,1.4610005,208.04285)" stroke-width=".99628" stroke-linecap="butt" stroke-miterlimit="10" stroke-linejoin="miter" fill="none" stroke="#9e0c0f" d="M39.59557 8.02751 44.46909 28.06134 51.29517 53.6824 58.12123 76.86356 64.94728 97.6044 71.77335 115.90529 78.59943 131.766 85.42549 145.18665 92.25154 156.16716 99.0776 164.7076 105.90367 170.80792 112.72975 174.46813 119.5558 175.68822 126.38187 174.46822 133.20793 170.80812 140.034 164.7079 146.86006 156.16759 153.68613 145.18715 160.51219 131.76663 167.33824 115.906 174.16432 97.60522 180.99039 76.86447 187.81645 53.68333 194.6425 28.0624 199.51604 8.02867"/>
<path transform="matrix(-.23633,.9716492,.97162,.2363371,41.223054,199.33058)" d="M7.39124 0 2.37614 1.6717 .70447 0 2.37614-1.6717Z" fill="#9e0c0f"/>
<path transform="matrix(-.23633,.9716492,.97162,.2363371,41.223054,199.33058)" stroke-width=".99628" stroke-linecap="butt" stroke-miterlimit="10" stroke-linejoin="miter" fill="none" stroke="#9e0c0f" d="M7.39124 0 2.37614 1.6717 .70447 0 2.37614-1.6717Z"/>
<path transform="matrix(.23633,.9716492,.97162,-.2363371,200.81053,199.32942)" d="M7.39124 0 2.37614 1.6717 .70447 0 2.37614-1.6717Z" fill="#9e0c0f"/>
<path transform="matrix(.23633,.9716492,.97162,-.2363371,200.81053,199.32942)" stroke-width=".99628" stroke-linecap="butt" stroke-miterlimit="10" stroke-linejoin="miter" fill="none" stroke="#9e0c0f" d="M7.39124 0 2.37614 1.6717 .70447 0 2.37614-1.6717Z"/>
</g>
<path transform="matrix(1,0,0,-1.00003,1.4610005,208.04285)" d="M189.8662 53.47891C189.8662 54.57938 188.9741 55.47147 187.87364 55.47147 186.77318 55.47147 185.88109 54.57938 185.88109 53.47891 185.88109 52.37843 186.77318 51.48636 187.87364 51.48636 188.9741 51.48636 189.8662 52.37843 189.8662 53.47891ZM187.87364 53.47891" fill="#9e0c0f"/>
<path transform="matrix(1,0,0,-1.00003,1.4610005,208.04285)" stroke-width=".3985" stroke-linecap="butt" stroke-miterlimit="10" stroke-linejoin="miter" fill="none" stroke="#9e0c0f" d="M189.8662 53.47891C189.8662 54.57938 188.9741 55.47147 187.87364 55.47147 186.77318 55.47147 185.88109 54.57938 185.88109 53.47891 185.88109 52.37843 186.77318 51.48636 187.87364 51.48636 188.9741 51.48636 189.8662 52.37843 189.8662 53.47891ZM187.87364 53.47891"/>
<path transform="matrix(1,0,0,-1.00003,1.4610005,208.04285)" d="M53.23082 53.47891C53.23082 54.57938 52.33873 55.47147 51.23827 55.47147 50.13779 55.47147 49.24571 54.57938 49.24571 53.47891 49.24571 52.37843 50.13779 51.48636 51.23827 51.48636 52.33873 51.48636 53.23082 52.37843 53.23082 53.47891ZM51.23827 53.47891" fill="#9e0c0f"/>
<path transform="matrix(1,0,0,-1.00003,1.4610005,208.04285)" stroke-width=".3985" stroke-linecap="butt" stroke-miterlimit="10" stroke-linejoin="miter" fill="none" stroke="#9e0c0f" d="M53.23082 53.47891C53.23082 54.57938 52.33873 55.47147 51.23827 55.47147 50.13779 55.47147 49.24571 54.57938 49.24571 53.47891 49.24571 52.37843 50.13779 51.48636 51.23827 51.48636 52.33873 51.48636 53.23082 52.37843 53.23082 53.47891ZM51.23827 53.47891"/>
<path transform="matrix(1,0,0,-1.00003,1.4610005,208.04285)" d="M121.54851 175.68822C121.54851 176.7887 120.65642 177.68077 119.55595 177.68077 118.45547 177.68077 117.5634 176.7887 117.5634 175.68822 117.5634 174.58776 118.45547 173.69567 119.55595 173.69567 120.65642 173.69567 121.54851 174.58776 121.54851 175.68822ZM119.55595 175.68822" fill="#9e0c0f"/>
<path transform="matrix(1,0,0,-1.00003,1.4610005,208.04285)" stroke-width=".3985" stroke-linecap="butt" stroke-miterlimit="10" stroke-linejoin="miter" fill="none" stroke="#9e0c0f" d="M121.54851 175.68822C121.54851 176.7887 120.65642 177.68077 119.55595 177.68077 118.45547 177.68077 117.5634 176.7887 117.5634 175.68822 117.5634 174.58776 118.45547 173.69567 119.55595 173.69567 120.65642 173.69567 121.54851 174.58776 121.54851 175.68822ZM119.55595 175.68822"/>
<path transform="matrix(1,0,0,-1.00003,1.4610005,208.04285)" stroke-width=".3985" stroke-linecap="butt" stroke-miterlimit="10" stroke-linejoin="miter" fill="none" stroke="#9e0c0f" d=""/>
<use data-text="x" xlink:href="#font_4_1" transform="matrix(9.9626,0,0,-9.962899,231.359,151.04213)"/>
<use data-text="y" xlink:href="#font_4_2" transform="matrix(9.9626,0,0,-9.962899,124.537,9.605881)"/>
</svg>
