<svg xmlns="http://www.w3.org/2000/svg" xmlns:xlink="http://www.w3.org/1999/xlink" version="1.1" width="354" height="22" viewBox="0 0 354 22">
<defs>
<path id="font_1_1" d="M.31399537 .63708499C.31399537 .664032 .31199647 .66503909 .2849884 .66503909 .24398804 .6251831 .19099427 .6013489 .09599304 .6013489V.5683594C.12298584 .5683594 .1769867 .5683594 .23498535 .5953522V.08203125C.23498535 .04499817 .23199463 .032989503 .13699341 .032989503H.101989749V0C.14299011 .0029907227 .22898865 .0029907227 .27398683 .0029907227 .31900025 .0029907227 .4059906 .0029907227 .44699098 0V.032989503H.4119873C.31698609 .032989503 .31399537 .04499817 .31399537 .08203125V.63708499Z"/>
<path id="font_2_1" d="M.16299439 .33073426C.1639862 .38076783 .1659851 .46383668 .20098877 .52589419 .24499512 .60191348 .31098939 .6320343 .37098695 .6320343 .3939972 .6320343 .43998719 .62802127 .46398927 .5998993 .4269867 .5939026 .42099 .5679016 .42099 .55189517 .42099 .52589419 .43899537 .50390627 .46899415 .50390627 .49899293 .50390627 .5179901 .52290347 .5179901 .55389407 .5179901 .6149597 .47200013 .66503909 .36999513 .66503909 .21499634 .66503909 .06298828 .52989199 .06298828 .31672669 .06298828 .07354736 .17599488-.021484375 .30799867-.021484375 .34700013-.021484375 .4149933-.015487671 .47599793 .043533327 .5079956 .075546268 .5469971 .11558533 .5469971 .2036438 .5469971 .2376709 .54299929 .30171205 .48199464 .3587494 .44699098 .3907776 .40299989 .42578126 .31799317 .42578126 .24798584 .42578126 .19699097 .3897705 .16299439 .33073426M.30699159 .014511108C.1659851 .014511108 .1659851 .18663025 .1659851 .22566223 .1659851 .3117218 .22299195 .3937683 .31298829 .3937683 .36499024 .3937683 .394989 .37275697 .4189911 .34074403 .44699098 .30171205 .44699098 .25668336 .44699098 .2036438 .44699098 .13459778 .44499208 .10057068 .41099549 .060546876 .3869934 .030517579 .35499574 .014511108 .30699159 .014511108Z"/>
<path id="font_2_2" d="M.3849945 .36080934C.45899964 .39382936 .5149994 .4428711 .5149994 .51493838 .5149994 .61302188 .4099884 .66503909 .30599977 .66503909 .19299317 .66503909 .09498596 .5970001 .09498596 .49591065 .09498596 .4338684 .13598633 .38581849 .17799378 .36080934 .18798828 .35479737 .21199036 .34178163 .22200012 .3357849 .1559906 .3107605 .06298828 .25471498 .06298828 .15362549 .06298828 .03652954 .18798828-.021484375 .3039856-.021484375 .43699647-.021484375 .5469971 .058547975 .5469971 .16964722 .5469971 .23869324 .5049896 .27973939 .48999024 .29475404 .47099305 .3127594 .42099 .3407898 .3849945 .36080934M.20399475 .45988465C.20199585 .46089173 .15098572 .48890687 .15098572 .5349579 .15098572 .6000061 .22999573 .6320343 .3039856 .6320343 .38198854 .6320343 .45899964 .58898928 .45899964 .5139313 .45899964 .4368744 .37599183 .39582826 .34799195 .38182069L.20399475 .45988465M.2619934 .3147583C.272995 .3087616 .37998963 .248703 .40699769 .23469544 .42799378 .22167969 .48298646 .19166565 .48298646 .13461304 .48298646 .055541994 .3909912 .014511108 .30599977 .014511108 .21299744 .014511108 .1269989 .06855774 .1269989 .15362549 .1269989 .23869324 .20698548 .29475404 .2619934 .3147583Z"/>
<path id="font_3_121" d="M.4889984 .31877137C.4889984 .42585755 .47799684 .49090577 .44499208 .55496218 .40098573 .6430359 .31999208 .66503909 .2649994 .66503909 .13899231 .66503909 .09298706 .5709839 .07899475 .5429535 .042999269 .4698944 .040985109 .3708191 .040985109 .31877137 .040985109 .25271607 .04399109 .15162659 .09199524 .07156372 .13798523-.0024871827 .21199036-.021484375 .2649994-.021484375 .31298829-.021484375 .39898683-.0064849855 .44898988 .09257507 .48599244 .16464234 .4889984 .2537079 .4889984 .31877137M.3999939 .33078004C.3999939 .27172853 .3999939 .18165589 .3880005 .12561035 .36698915 .020523072 .2979889 .006515503 .2649994 .006515503 .23098755 .006515503 .1619873 .022521973 .14099121 .12760926 .12998963 .18466187 .12998963 .2787323 .12998963 .33078004 .12998963 .3998413 .12998963 .4698944 .14099121 .5249481 .1619873 .6270294 .23999024 .6370239 .2649994 .6370239 .29899598 .6370239 .36799623 .62002566 .3880005 .5289459 .3999939 .4738922 .3999939 .39883424 .3999939 .33078004Z"/>
<path id="font_4_1" d="M.33399964 .30233766C.33999635 .32835389 .36299134 .42037965 .43299867 .42037965 .43798829 .42037965 .46199037 .42037965 .48298646 .40734864 .45498658 .402359 .43499757 .37734986 .43499757 .35334779 .43499757 .33735658 .44599916 .31835938 .47299195 .31835938 .49499513 .31835938 .5269928 .3363495 .5269928 .37635804 .5269928 .42837525 .46798707 .4423828 .43399049 .4423828 .37599183 .4423828 .34098817 .38935853 .32899476 .36634828 .3039856 .43237306 .25 .4423828 .22099304 .4423828 .116989139 .4423828 .05999756 .3133545 .05999756 .28834535 .05999756 .27833558 .069992069 .27833558 .07199097 .27833558 .07998657 .27833558 .08299255 .28033448 .084991458 .28933717 .11898804 .39535523 .18499756 .42037965 .21899414 .42037965 .23799134 .42037965 .272995 .4113617 .272995 .35334779 .272995 .32235719 .2559967 .25532533 .21899414 .11528015 .20298767 .053268434 .16799927 .011245728 .12399292 .011245728 .117996219 .011245728 .09498596 .011245728 .07398987 .024276734 .09899902 .029266358 .12098694 .05027771 .12098694 .07827759 .12098694 .105270389 .09899902 .11328125 .083999637 .11328125 .053985597 .11328125 .0289917 .08728027 .0289917 .055267335 .0289917 .009246826 .07899475-.0107421879 .12298584-.0107421879 .18899536-.0107421879 .22499085 .059280397 .22799683 .0652771 .23999024 .028274537 .27598573-.0107421879 .33599855-.0107421879 .43899537-.0107421879 .49598695 .118270877 .49598695 .14328003 .49598695 .1532898 .4869995 .1532898 .48399354 .1532898 .47499085 .1532898 .47299195 .14929199 .47099305 .14228821 .43798829 .03527832 .36999513 .011245728 .33799745 .011245728 .29899598 .011245728 .2829895 .043273927 .2829895 .07727051 .2829895 .09927368 .2889862 .121276859 .2999878 .16529846L.33399964 .30233766Z"/>
</defs>
<path transform="matrix(1,0,0,-1.00006,30.520003,32.473146)" stroke-width=".79701" stroke-linecap="butt" stroke-miterlimit="10" stroke-linejoin="miter" fill="none" stroke="#929292" d="M0 26.92972V29.76453M36.32208 26.92972V29.76453M72.64417 26.92972V29.76453M108.96625 26.92972V29.76453M145.28835 26.92972V29.76453M181.61043 26.92972V29.76453M217.93251 26.92972V29.76453M254.25461 26.92972V29.76453M290.5767 26.92972V29.76453"/>
<path transform="matrix(1,0,0,-1.00006,30.520003,32.473146)" stroke-width=".79701" stroke-linecap="butt" stroke-miterlimit="10" stroke-linejoin="miter" fill="none" stroke="#929292" d="M290.5767 26.22124V30.47299"/>
<path transform="matrix(1,0,0,-1.00006,30.520003,32.473146)" stroke-width=".3985" stroke-linecap="butt" stroke-miterlimit="10" stroke-linejoin="miter" fill="none" stroke="#000000" d="M-29.05943 28.34712H317.6436"/>
<path transform="matrix(1,0,0,-1.00006,348.16358,4.124325)" d="M1.99252 0-1.19551 1.59401 0 0-1.19551-1.59401"/>
<use data-text="1" xlink:href="#font_1_1" transform="matrix(7.9701,0,0,-7.9705779,318.97999,14.907089)"/>
<path transform="matrix(1,0,0,-1.00006,30.520003,32.473146)" stroke-width=".79701" stroke-linecap="butt" stroke-miterlimit="10" stroke-linejoin="miter" fill="none" stroke="#929292" d="M217.93251 26.22124V30.47299"/>
<use data-text="6" xlink:href="#font_2_1" transform="matrix(5.9776,0,0,-5.9779589,246.62699,13.622013)"/>
<path transform="matrix(1,0,0,-1.00006,197.71199,-44.739488)" stroke-width=".3587" stroke-linecap="butt" stroke-miterlimit="10" stroke-linejoin="miter" fill="none" stroke="#000000" d="M48.915-59.624H52.568"/>
<use data-text="8" xlink:href="#font_2_2" transform="matrix(5.9776,0,0,-5.9779589,246.62699,20.006394)"/>
<use data-text="0" xlink:href="#font_3_121" transform="matrix(7.9701,0,0,-7.9705779,28.404004,15.071102)"/>
<use data-text="x" xlink:href="#font_4_1" transform="matrix(9.9626,0,0,-9.963197,347.28,11.936913)"/>
</svg>
