<svg xmlns="http://www.w3.org/2000/svg" xmlns:xlink="http://www.w3.org/1999/xlink" version="1.1" width="242" height="209" viewBox="0 0 242 209">
<defs>
<path id="font_1_1" d="M.69898989 .22743225C.71499636 .22743225 .7369995 .22743225 .7369995 .25042726 .7369995 .2734375 .71499636 .2734375 .69898989 .2734375H.12599182C.10998535 .2734375 .08799744 .2734375 .08799744 .25042726 .08799744 .22743225 .10998535 .22743225 .12599182 .22743225H.69898989Z"/>
<path id="font_2_4" d="M.33198548 .36080934C.3880005 .38783265 .45599366 .4378662 .45599366 .5159302 .45599366 .6110077 .35899354 .66503909 .2659912 .66503909 .1599884 .66503909 .07398987 .59199526 .07398987 .49790956 .07398987 .46089173 .08699036 .42686463 .11199951 .39782716 .1289978 .3768158 .1329956 .3748169 .19499207 .3357849 .070999149 .2807312 .04399109 .20767212 .04399109 .15162659 .04399109 .041534425 .15499878-.021484375 .2639923-.021484375 .3869934-.021484375 .48599244 .061553956 .48599244 .16764832 .48599244 .23069763 .45199586 .2727356 .43598939 .28974916 .4189911 .30575563 .41799928 .3067627 .33198548 .36080934M.1769867 .45487977C.147995 .4718933 .12399292 .5009155 .12399292 .5359497 .12399292 .598999 .19299317 .6390381 .2639923 .6390381 .34199525 .6390381 .4059906 .5859833 .4059906 .5159302 .4059906 .45788575 .36099244 .408844 .3019867 .37982179L.1769867 .45487977M.22599793 .31776429C.22999573 .31576539 .34399415 .24571228 .36099244 .23469544 .3769989 .22569275 .42900086 .19366455 .42900086 .13360596 .42900086 .056549074 .34799195 .008514404 .2659912 .008514404 .1769867 .008514404 .100997928 .06956482 .100997928 .15162659 .100997928 .22668457 .15699768 .28573609 .22599793 .31776429Z"/>
<path id="font_2_3" d="M.13798523 .33073426C.13798523 .41377259 .14498902 .4868164 .18099976 .54782107 .21099854 .5978241 .2619934 .6390381 .32499696 .6390381 .34498597 .6390381 .3909912 .63601687 .4139862 .60084536 .36898805 .5988312 .36499024 .5648346 .36499024 .553833 .36499024 .5238342 .3880005 .50683596 .4119873 .50683596 .42999269 .50683596 .45899964 .51782229 .45899964 .5558319 .45899964 .615921 .4139862 .66503909 .32398988 .66503909 .18499756 .66503909 .04399109 .53282168 .04399109 .31672669 .04399109 .045532228 .16999817-.021484375 .2669983-.021484375 .31498719-.021484375 .36698915-.0084991459 .4119873 .03453064 .45199586 .07354736 .48599244 .11558533 .48599244 .20263672 .48599244 .33372499 .3869934 .42578126 .27598573 .42578126 .20399475 .42578126 .16099549 .37976075 .13798523 .33073426M.2669983 .008514404C.21398926 .008514404 .18099976 .045532228 .1659851 .07354736 .14299011 .11859131 .14099121 .18663025 .14099121 .22465515 .14099121 .32373048 .19499207 .3977661 .27198792 .3977661 .32199098 .3977661 .35198976 .37176515 .37098695 .33673097 .3919983 .29971314 .3919983 .25468446 .3919983 .2036438 .3919983 .15260315 .3919983 .10858154 .37199403 .07255554 .34599305 .026519776 .31098939 .008514404 .2669983 .008514404Z"/>
<path id="font_2_2" d="M.3939972 .6468048C.3939972 .6667938 .3939972 .6748047 .37298585 .6748047 .3600006 .6748047 .35899354 .6737976 .34899903 .65979006L.02999878 .197052V.1640625H.31199647V.08100891C.31199647 .04399109 .30899049 .032989503 .23199463 .032989503H.20899964V0C.2939911 .0029907227 .29599 .0029907227 .35299684 .0029907227 .4099884 .0029907227 .4119873 .0029907227 .49699403 0V.032989503H.47399903C.39698792 .032989503 .3939972 .04399109 .3939972 .08100891V.1640625H.5V.197052H.3939972V.6468048M.31900025 .5658417V.197052H.06498718L.31900025 .5658417Z"/>
<path id="font_2_1" d="M.28199769 .20405579C.2979889 .21907044 .33999635 .2520752 .35598756 .26608277 .41799928 .32312013 .47698976 .3781433 .47698976 .46917726 .47698976 .588089 .3769989 .66503909 .2519989 .66503909 .13198853 .66503909 .052993776 .57411196 .052993776 .48516847 .052993776 .4361725 .09199524 .4291687 .10598755 .4291687 .1269989 .4291687 .1579895 .4441681 .1579895 .48217774 .1579895 .5341797 .10798645 .5341797 .09599304 .5341797 .125 .6070709 .19198609 .6320343 .24099732 .6320343 .33399964 .6320343 .38198854 .55314639 .38198854 .46917726 .38198854 .36514283 .30899049 .28910829 .19099427 .16804505L.06498718 .037994386C.052993776 .026992798 .052993776 .024993897 .052993776 0H.44799806L.47698976 .17904663H.44599916C.44299317 .1590271 .43499757 .10900879 .4229889 .08999634 .4169922 .08198547 .34098817 .08198547 .32499696 .08198547H.14698792L.28199769 .20405579Z"/>
<path id="font_3_1" d="M.33099366-.2400055C.33099366-.23701477 .33099366-.23500061 .31399537-.21800232 .18899536-.0920105 .15699768 .09700012 .15699768 .25 .15699768 .42399598 .19499207 .59799197 .31799317 .72299197 .33099366 .73498538 .33099366 .7369995 .33099366 .73999026 .33099366 .746994 .32699586 .75 .32099916 .75 .31098939 .75 .22099304 .6819916 .1619873 .5549927 .11099243 .44499208 .09899902 .33399964 .09899902 .25 .09899902 .17199707 .10998535 .050994874 .16499329-.06201172 .22499085-.18501282 .31098939-.25 .32099916-.25 .32699586-.25 .33099366-.24700928 .33099366-.2400055Z"/>
<path id="font_4_1" d="M.6589966 .23046875C.6759949 .23046875 .69400027 .23046875 .69400027 .25045777 .69400027 .27046205 .6759949 .27046205 .6589966 .27046205H.117996219C.100997928 .27046205 .08299255 .27046205 .08299255 .25045777 .08299255 .23046875 .100997928 .23046875 .117996219 .23046875H.6589966Z"/>
<path id="font_3_4" d="M.2939911 .64004519C.2939911 .66400149 .2939911 .6660156 .2709961 .6660156 .20899964 .60227969 .12098694 .60227969 .08898926 .60227969V.57128909C.10899353 .57128909 .16799927 .57128909 .21998596 .5972748V.07902527C.21998596 .042999269 .21699524 .0309906 .1269989 .0309906H.09498596V0C.12998963 .0029907227 .21699524 .0029907227 .25698854 .0029907227 .29699708 .0029907227 .38398744 .0029907227 .4189911 0V.0309906H.3869934C.29699708 .0309906 .2939911 .041992189 .2939911 .07902527V.64004519Z"/>
<path id="font_5_1" d="M.19198609 .052993776C.19198609 .08198547 .16799927 .10598755 .13899231 .10598755 .10998535 .10598755 .085998538 .08198547 .085998538 .052993776 .085998538 .023986817 .10998535 0 .13899231 0 .16799927 0 .19198609 .023986817 .19198609 .052993776Z"/>
<path id="font_3_8" d="M.44898988 .20022583C.44898988 .3193512 .36698915 .41944886 .25898744 .41944886 .21099854 .41944886 .16799927 .40345765 .13198853 .36842347V.5637665C.1519928 .5577698 .18499756 .55078127 .21699524 .55078127 .33999635 .55078127 .4099884 .6417694 .4099884 .6547699 .4099884 .6607666 .40699769 .6657715 .3999939 .6657715 .39898683 .6657715 .39698792 .6657715 .3919983 .66278079 .37199403 .6537781 .32299806 .6337738 .2559967 .6337738 .21598816 .6337738 .16999817 .6407776 .12298584 .6617737 .114990238 .66477969 .11299133 .66477969 .11099243 .66477969 .100997928 .66477969 .100997928 .6567688 .100997928 .6407776V.34439088C.100997928 .32637025 .100997928 .31835938 .114990238 .31835938 .12199402 .31835938 .12399292 .32136537 .12799073 .32736207 .13899231 .3433838 .17599488 .39746095 .25698854 .39746095 .30899049 .39746095 .33399964 .35139466 .34199525 .33337403 .35798646 .29632569 .3600006 .25727845 .3600006 .20722962 .3600006 .17222595 .3600006 .11222839 .33599855 .07035828 .31199647 .031463624 .2749939 .0055389406 .22898865 .0055389406 .1559906 .0055389406 .09899902 .058380128 .08198547 .11723328 .084991458 .1162262 .08799744 .115234378 .09899902 .115234378 .13198853 .115234378 .14898682 .14022827 .14898682 .16423035 .14898682 .18823242 .13198853 .21322632 .09899902 .21322632 .084991458 .21322632 .049987794 .20622254 .049987794 .16023255 .049987794 .07434082 .11898804-.022460938 .23098755-.022460938 .34700013-.022460938 .44898988 .073349 .44898988 .20022583Z"/>
<path id="font_3_5" d="M.1269989 .07699585 .23298645 .18003845C.3889923 .31811524 .44898988 .3721466 .44898988 .47216798 .44898988 .5860901 .35899354 .6660156 .23699951 .6660156 .12399292 .6660156 .049987794 .57411196 .049987794 .48516847 .049987794 .4291687 .099990848 .4291687 .102996829 .4291687 .11999512 .4291687 .15499878 .44117738 .15499878 .48217774 .15499878 .5081787 .13699341 .5341797 .101989749 .5341797 .09399414 .5341797 .09199524 .5341797 .08898926 .5331726 .11199951 .59806826 .1659851 .63500979 .22399903 .63500979 .31498719 .63500979 .35798646 .5541382 .35798646 .47216798 .35798646 .39215089 .30799867 .31311036 .25299073 .25108338L.06098938 .036987306C.049987794 .025985718 .049987794 .023986817 .049987794 0H.42099L.44898988 .17404175H.42399598C.4189911 .14402771 .4119873 .1000061 .4019928 .084991458 .394989 .07699585 .32899476 .07699585 .30699159 .07699585H.1269989Z"/>
<path id="font_3_7" d="M.2939911 .16503906V.07800293C.2939911 .041992189 .2919922 .0309906 .21798706 .0309906H.19699097V0C.23799134 .0029907227 .2899933 .0029907227 .33198548 .0029907227 .37399293 .0029907227 .4269867 .0029907227 .46798707 0V.0309906H.44699098C.37298585 .0309906 .37098695 .041992189 .37098695 .07800293V.16503906H.47099305V.19602967H.37098695V.65075686C.37098695 .67074587 .37098695 .6767578 .35499574 .6767578 .34599305 .6767578 .34298707 .6767578 .33499146 .66474917L.027999878 .19602967V.16503906H.2939911M.2999878 .19602967H.055999757L.2999878 .5688019V.19602967Z"/>
<path id="font_5_2" d="M.20298767 .0009918213C.20298767 .066986087 .17799378 .10598755 .13899231 .10598755 .10598755 .10598755 .085998538 .08099365 .085998538 .052993776 .085998538 .025985718 .10598755 0 .13899231 0 .15098572 0 .1639862 .0039978029 .17399597 .0129852299 .1769867 .01499939 .17799378 .015991211 .1789856 .015991211 .17999268 .015991211 .18099976 .01499939 .18099976 .0009918213 .18099976-.07316589 .1459961-.13328552 .11299133-.16635132 .101989749-.17736817 .101989749-.17936707 .101989749-.18237305 .101989749-.18936157 .10699463-.19335938 .11199951-.19335938 .12298584-.19335938 .20298767-.116256717 .20298767 .0009918213Z"/>
<path id="font_3_3" d="M.45999146 .31976319C.45999146 .39982606 .45498658 .47988893 .41999818 .5539398 .37399293 .65000918 .2919922 .6660156 .25 .6660156 .18998719 .6660156 .116989139 .64001467 .07598877 .54693606 .04399109 .47789 .038986207 .39982606 .038986207 .31976319 .038986207 .24472046 .042999269 .15464783 .083999637 .07859802 .1269989-.0024719239 .19999695-.022460938 .24899292-.022460938 .30299378-.022460938 .3789978-.0014648438 .4229889 .09359741 .45498658 .16265869 .45999146 .2407074 .45999146 .31976319M.24899292-.00047302247C.20999146-.00047302247 .15098572 .024551392 .1329956 .12062073 .12199402 .18066406 .12199402 .2727356 .12199402 .3317871 .12199402 .39582826 .12199402 .46188355 .12998963 .5159149 .14898682 .63500979 .22399903 .64401248 .24899292 .64401248 .28199769 .64401248 .34799195 .6259918 .36698915 .52693179 .3769989 .47088624 .3769989 .39482118 .3769989 .3317871 .3769989 .25672914 .3769989 .18867493 .3659973 .12461853 .35099793 .029556275 .2939911-.00047302247 .24899292-.00047302247Z"/>
<path id="font_3_2" d="M.2889862 .25C.2889862 .32798768 .27799989 .44898988 .22299195 .56199648 .16299439 .68499758 .07699585 .75 .066986087 .75 .06098938 .75 .056991579 .74598696 .056991579 .73999026 .056991579 .7369995 .056991579 .73498538 .07598877 .71699526 .17399597 .6179962 .23098755 .45899964 .23098755 .25 .23098755 .07899475 .19400025-.09700012 .069992069-.2230072 .056991579-.23500061 .056991579-.23701477 .056991579-.2400055 .056991579-.2460022 .06098938-.25 .066986087-.25 .07699585-.25 .16699219-.18200684 .22599793-.055007936 .2769928 .054992677 .2889862 .16600037 .2889862 .25Z"/>
<path id="font_3_6" d="M.2899933 .35191346C.37199403 .37893678 .42999269 .4490509 .42999269 .52809146 .42999269 .6100464 .34199525 .6660156 .24598694 .6660156 .14498902 .6660156 .068984989 .60606387 .068984989 .53009036 .068984989 .49710084 .09098816 .47808839 .11999512 .47808839 .15098572 .47808839 .17098999 .50009158 .17098999 .5290985 .17098999 .57910159 .12399292 .57910159 .10899353 .57910159 .13999939 .62802127 .20599365 .64100649 .24198914 .64100649 .2829895 .64100649 .33799745 .6190338 .33799745 .5290985 .33799745 .51708987 .33599855 .45906068 .30999757 .4149933 .27999879 .36691285 .24598694 .36390687 .22099304 .36291505 .21299744 .36190797 .18899536 .35990907 .18199158 .35990907 .17399597 .35890199 .16699219 .35791017 .16699219 .3479004 .16699219 .33691407 .17399597 .33691407 .19099427 .33691407H.23498535C.31698609 .33691407 .35398866 .2686615 .35398866 .17037964 .35398866 .034469606 .2849884 .0055389406 .24099732 .0055389406 .19799805 .0055389406 .12298584 .022491456 .08799744 .08137512 .12298584 .07637024 .1539917 .09837341 .1539917 .1363678 .1539917 .17237854 .1269989 .19238281 .09799194 .19238281 .07398987 .19238281 .041992189 .17837525 .041992189 .1343689 .041992189 .043441774 .1349945-.022460938 .24398804-.022460938 .3659973-.022460938 .45700074 .06838989 .45700074 .17037964 .45700074 .252594 .3939972 .33088685 .2899933 .35191346Z"/>
<path id="font_3_10" d="M.36698915 .31781007V.28579713C.36698915 .05178833 .2630005 .0055389406 .20498657 .0055389406 .18798828 .0055389406 .13398743 .007537842 .10699463 .041778566 .15098572 .041778566 .15899658 .07078552 .15899658 .08778381 .15899658 .118774417 .1349945 .13378906 .11299133 .13378906 .09700012 .13378906 .066986087 .12478638 .066986087 .08578491 .066986087 .018615723 .12098694-.022460938 .20599365-.022460938 .33499146-.022460938 .45700074 .11378479 .45700074 .32881166 .45700074 .5979767 .34199525 .6660156 .25299073 .6660156 .19799805 .6660156 .14898682 .64801028 .10598755 .60298159 .06498718 .5579529 .041992189 .5159302 .041992189 .44088746 .041992189 .31581117 .12998963 .21777344 .24198914 .21777344 .30299378 .21777344 .34399415 .25978089 .36698915 .31781007M.24299622 .24076844C.22698975 .24076844 .18099976 .24076844 .1499939 .3038025 .13198853 .3408203 .13198853 .39085389 .13198853 .43988038 .13198853 .49391175 .13198853 .54093936 .15299988 .5779724 .17999268 .6279907 .21798706 .64100649 .25299073 .64100649 .29899598 .64100649 .33198548 .60697939 .34899903 .5619507 .36099244 .52993777 .36499024 .4669037 .36499024 .42086793 .36499024 .3378296 .33099366 .24076844 .24299622 .24076844Z"/>
<path id="font_3_9" d="M.13198853 .327713V.35173036C.13198853 .6047821 .2559967 .64100649 .30699159 .64100649 .33099366 .64100649 .37298585 .634964 .394989 .6007538 .37998963 .6007538 .33999635 .6007538 .33999635 .5557556 .33999635 .524765 .3639984 .5097656 .38598634 .5097656 .4019928 .5097656 .43199159 .51875308 .43199159 .5577545 .43199159 .6178589 .3880005 .6660156 .30499269 .6660156 .1769867 .6660156 .041992189 .5367584 .041992189 .31570436 .041992189 .048553468 .1579895-.022460938 .25099183-.022460938 .3619995-.022460938 .45700074 .07156372 .45700074 .2036438 .45700074 .33070375 .36799623 .4267578 .25698854 .4267578 .18899536 .4267578 .1519928 .37573243 .13198853 .327713M.25099183 .0055389406C.18798828 .0055389406 .1579895 .06556702 .1519928 .080566409 .13398743 .127594 .13398743 .2076416 .13398743 .22564698 .13398743 .30369569 .1659851 .40374757 .2559967 .40374757 .27198792 .40374757 .31799317 .40374757 .34899903 .34172059 .36698915 .30470277 .36698915 .2536621 .36698915 .20463562 .36698915 .15661621 .36698915 .10658264 .34999085 .0705719 .31999208 .010528564 .27398683 .0055389406 .25099183 .0055389406Z"/>
<path id="font_5_3" d="M.33399964 .30233766C.33999635 .32835389 .36299134 .42037965 .43299867 .42037965 .43798829 .42037965 .46199037 .42037965 .48298646 .40734864 .45498658 .402359 .43499757 .37734986 .43499757 .35334779 .43499757 .33735658 .44599916 .31835938 .47299195 .31835938 .49499513 .31835938 .5269928 .3363495 .5269928 .37635804 .5269928 .42837525 .46798707 .4423828 .43399049 .4423828 .37599183 .4423828 .34098817 .38935853 .32899476 .36634828 .3039856 .43237306 .25 .4423828 .22099304 .4423828 .116989139 .4423828 .05999756 .3133545 .05999756 .28834535 .05999756 .27833558 .069992069 .27833558 .07199097 .27833558 .07998657 .27833558 .08299255 .28033448 .084991458 .28933717 .11898804 .39535523 .18499756 .42037965 .21899414 .42037965 .23799134 .42037965 .272995 .4113617 .272995 .35334779 .272995 .32235719 .2559967 .25532533 .21899414 .11528015 .20298767 .053268434 .16799927 .011245728 .12399292 .011245728 .117996219 .011245728 .09498596 .011245728 .07398987 .024276734 .09899902 .029266358 .12098694 .05027771 .12098694 .07827759 .12098694 .105270389 .09899902 .11328125 .083999637 .11328125 .053985597 .11328125 .0289917 .08728027 .0289917 .055267335 .0289917 .009246826 .07899475-.0107421879 .12298584-.0107421879 .18899536-.0107421879 .22499085 .059280397 .22799683 .0652771 .23999024 .028274537 .27598573-.0107421879 .33599855-.0107421879 .43899537-.0107421879 .49598695 .118270877 .49598695 .14328003 .49598695 .1532898 .4869995 .1532898 .48399354 .1532898 .47499085 .1532898 .47299195 .14929199 .47099305 .14228821 .43798829 .03527832 .36999513 .011245728 .33799745 .011245728 .29899598 .011245728 .2829895 .043273927 .2829895 .07727051 .2829895 .09927368 .2889862 .121276859 .2999878 .16529846L.33399964 .30233766Z"/>
<path id="font_5_4" d="M.48599244 .38136292C.48999024 .39537049 .48999024 .39736939 .48999024 .40437318 .48999024 .42237855 .47599793 .43138124 .46099855 .43138124 .45098878 .43138124 .43499757 .42536927 .42599488 .41036988 .42399598 .405365 .41600038 .37435914 .4119873 .35635377 .40499879 .33035279 .397995 .30334474 .3919983 .27633668L.34700013 .09628296C.34298707 .08126831 .2999878 .011245728 .23399353 .011245728 .18299866 .011245728 .17199707 .055267335 .17199707 .0922699 .17199707 .1382904 .18899536 .20030213 .22299195 .28833009 .23899842 .3293457 .24299622 .3403473 .24299622 .36035157 .24299622 .405365 .21099854 .4423828 .16099549 .4423828 .06599426 .4423828 .0289917 .29733277 .0289917 .28833009 .0289917 .27833558 .038986207 .27833558 .040985109 .27833558 .050994874 .27833558 .051986696 .28033448 .056991579 .29634095 .083999637 .3903656 .12399292 .42037965 .1579895 .42037965 .1659851 .42037965 .18299866 .42037965 .18299866 .3883667 .18299866 .36335755 .17298889 .3373413 .1659851 .31834413 .12599182 .21231079 .10798645 .1552887 .10798645 .10827637 .10798645 .019256592 .17098999-.0107421879 .22999573-.0107421879 .2689972-.0107421879 .30299378 .0062561037 .33099366 .03425598 .31799317-.017745972 .30599977-.06674194 .2659912-.11973572 .23999024-.15385437 .20199585-.18309021 .1559906-.18309021 .14199829-.18309021 .09700012-.18005371 .07998657-.14074707 .09599304-.14074707 .10899353-.14074707 .12298584-.1287384 .1329956-.11973572 .14299011-.10673523 .14299011-.08773804 .14299011-.056747438 .115997318-.052734376 .10598755-.052734376 .08299255-.052734376 .049987794-.068740848 .049987794-.11773682 .049987794-.16796875 .09399414-.20507813 .1559906-.20507813 .25898744-.20507813 .3619995-.11373901 .3899994-.00074768069L.48599244 .38136292Z"/>
</defs>
<path transform="matrix(1,0,0,-1.00006,1.7600002,207.35068)" d="M0 .00931H239.10584V206.23632H0Z" fill="#fffac2"/>
<path transform="matrix(1,0,0,-1.00006,1.7600002,207.35068)" stroke-width=".3985" stroke-linecap="butt" stroke-miterlimit="10" stroke-linejoin="miter" fill="none" stroke="#d5d6d5" d="M11.95529 .00931V206.23632M23.91058 .00931V206.23632M35.86588 .00931V206.23632M47.82117 .00931V206.23632M59.77646 .00931V206.23632M71.73175 .00931V206.23632M83.68704 .00931V206.23632M95.64233 .00931V206.23632M107.59763 .00931V206.23632M119.55292 .00931V206.23632M131.50821 .00931V206.23632M143.4635 .00931V206.23632M155.4188 .00931V206.23632M167.37409 .00931V206.23632M179.32938 .00931V206.23632M191.28467 .00931V206.23632M203.23996 .00931V206.23632M215.19525 .00931V206.23632M227.15055 .00931V206.23632"/>
<path transform="matrix(1,0,0,-1.00006,1.7600002,207.35068)" stroke-width=".3985" stroke-linecap="butt" stroke-miterlimit="10" stroke-linejoin="miter" fill="none" stroke="#d5d6d5" d="M23.91058 .00931V206.23632M47.82117 .00931V206.23632M71.73175 .00931V206.23632M95.64233 .00931V206.23632M143.4635 .00931V206.23632M167.37409 .00931V206.23632M191.28467 .00931V206.23632M215.19525 .00931V206.23632"/>
<path transform="matrix(1,0,0,-1.00006,1.7600002,207.35068)" stroke-width=".3985" stroke-linecap="butt" stroke-miterlimit="10" stroke-linejoin="miter" fill="none" stroke="#d5d6d5" d="M0 10.32066H239.10584M0 20.632H239.10584M0 30.94336H239.10584M0 41.25471H239.10584M0 51.56606H239.10584M0 61.87741H239.10584M0 72.18877H239.10584M0 82.5001H239.10584M0 92.81146H239.10584M0 103.12282H239.10584M0 113.43416H239.10584M0 123.74551H239.10584M0 134.05686H239.10584M0 144.36821H239.10584M0 154.67957H239.10584M0 164.9909H239.10584M0 175.30226H239.10584M0 185.61362H239.10584M0 195.92496H239.10584"/>
<path transform="matrix(1,0,0,-1.00006,1.7600002,207.35068)" stroke-width=".3985" stroke-linecap="butt" stroke-miterlimit="10" stroke-linejoin="miter" fill="none" stroke="#d5d6d5" d="M0 20.632H239.10584M0 41.25471H239.10584M0 61.87741H239.10584M0 82.5001H239.10584M0 123.74551H239.10584M0 144.36821H239.10584M0 164.9909H239.10584M0 185.61362H239.10584"/>
<path transform="matrix(1,0,0,-1.00006,1.7600002,207.35068)" stroke-width=".19925" stroke-linecap="butt" stroke-miterlimit="10" stroke-linejoin="miter" fill="none" stroke="#929292" d="M11.95529 101.70557V104.54008M23.91058 101.70557V104.54008M35.86588 101.70557V104.54008M47.82117 101.70557V104.54008M59.77646 101.70557V104.54008M71.73175 101.70557V104.54008M83.68704 101.70557V104.54008M95.64233 101.70557V104.54008M107.59763 101.70557V104.54008M119.55292 101.70557V104.54008M131.50821 101.70557V104.54008M143.4635 101.70557V104.54008M155.4188 101.70557V104.54008M167.37409 101.70557V104.54008M179.32938 101.70557V104.54008M191.28467 101.70557V104.54008M203.23996 101.70557V104.54008M215.19525 101.70557V104.54008M227.15055 101.70557V104.54008"/>
<path transform="matrix(1,0,0,-1.00006,1.7600002,207.35068)" stroke-width=".19925" stroke-linecap="butt" stroke-miterlimit="10" stroke-linejoin="miter" fill="none" stroke="#929292" d="M23.91058 100.99712V105.2485M47.82117 100.99712V105.2485M71.73175 100.99712V105.2485M95.64233 100.99712V105.2485M143.4635 100.99712V105.2485M167.37409 100.99712V105.2485M191.28467 100.99712V105.2485M215.19525 100.99712V105.2485"/>
<path transform="matrix(1,0,0,-1.00006,1.7600002,207.35068)" stroke-width=".19925" stroke-linecap="butt" stroke-miterlimit="10" stroke-linejoin="miter" fill="none" stroke="#929292" d="M118.13557 10.32066H120.97025M118.13557 20.632H120.97025M118.13557 30.94336H120.97025M118.13557 41.25471H120.97025M118.13557 51.56606H120.97025M118.13557 61.87741H120.97025M118.13557 72.18877H120.97025M118.13557 82.5001H120.97025M118.13557 92.81146H120.97025M118.13557 103.12282H120.97025M118.13557 113.43416H120.97025M118.13557 123.74551H120.97025M118.13557 134.05686H120.97025M118.13557 144.36821H120.97025M118.13557 154.67957H120.97025M118.13557 164.9909H120.97025M118.13557 175.30226H120.97025M118.13557 185.61362H120.97025M118.13557 195.92496H120.97025"/>
<path transform="matrix(1,0,0,-1.00006,1.7600002,207.35068)" stroke-width=".19925" stroke-linecap="butt" stroke-miterlimit="10" stroke-linejoin="miter" fill="none" stroke="#929292" d="M117.42708 20.632H121.67873M117.42708 41.25471H121.67873M117.42708 61.87741H121.67873M117.42708 82.5001H121.67873M117.42708 123.74551H121.67873M117.42708 144.36821H121.67873M117.42708 164.9909H121.67873M117.42708 185.61362H121.67873"/>
<path transform="matrix(1,0,0,-1.00006,1.7600002,207.35068)" stroke-width=".3985" stroke-linecap="butt" stroke-miterlimit="10" stroke-linejoin="miter" fill="none" stroke="#000000" d="M1.99252 103.12282H237.11331"/>
<path transform="matrix(-1,-0,0,1.00006,3.75252,104.22168)" d="M1.99252 0-1.19551 1.59401 0 0-1.19551-1.59401"/>
<path transform="matrix(1,0,0,-1.00006,238.8733,104.22168)" d="M1.99252 0-1.19551 1.59401 0 0-1.19551-1.59401"/>
<path transform="matrix(1,0,0,-1.00006,1.7600002,207.35068)" stroke-width=".3985" stroke-linecap="butt" stroke-miterlimit="10" stroke-linejoin="miter" fill="none" stroke="#000000" d="M119.55292 2.00183V204.24379"/>
<path transform="matrix(0,1.00006,1,0,121.31292,205.34873)" d="M1.99252 0-1.19551 1.59401 0 0-1.19551-1.59401"/>
<path transform="matrix(0,-1.00006,-1,-0,121.31292,3.094635)" d="M1.99252 0-1.19551 1.59401 0 0-1.19551-1.59401"/>
<use data-text="&#x2212;" xlink:href="#font_1_1" transform="matrix(7.9701,0,0,-7.9705779,20.26,115.004138)"/>
<use data-text="8" xlink:href="#font_2_4" transform="matrix(7.9701,0,0,-7.9705779,26.846,115.004138)"/>
<use data-text="&#x2212;" xlink:href="#font_1_1" transform="matrix(7.9701,0,0,-7.9705779,44.170999,115.004138)"/>
<use data-text="6" xlink:href="#font_2_3" transform="matrix(7.9701,0,0,-7.9705779,50.757,115.004138)"/>
<use data-text="&#x2212;" xlink:href="#font_1_1" transform="matrix(7.9701,0,0,-7.9705779,68.08099,115.004138)"/>
<use data-text="4" xlink:href="#font_2_2" transform="matrix(7.9701,0,0,-7.9705779,74.667,115.004138)"/>
<use data-text="&#x2212;" xlink:href="#font_1_1" transform="matrix(7.9701,0,0,-7.9705779,91.992008,115.004138)"/>
<use data-text="2" xlink:href="#font_2_1" transform="matrix(7.9701,0,0,-7.9705779,98.578,115.004138)"/>
<use data-text="2" xlink:href="#font_2_1" transform="matrix(7.9701,0,0,-7.9705779,143.10599,115.004138)"/>
<use data-text="4" xlink:href="#font_2_2" transform="matrix(7.9701,0,0,-7.9705779,167.017,115.004138)"/>
<use data-text="6" xlink:href="#font_2_3" transform="matrix(7.9701,0,0,-7.9705779,190.928,115.004138)"/>
<use data-text="8" xlink:href="#font_2_4" transform="matrix(7.9701,0,0,-7.9705779,214.838,115.004138)"/>
<use data-text="&#x2212;" xlink:href="#font_1_1" transform="matrix(7.9701,0,0,-7.9705779,106.737,188.87058)"/>
<use data-text="8" xlink:href="#font_2_4" transform="matrix(7.9701,0,0,-7.9705779,113.323,188.87058)"/>
<use data-text="&#x2212;" xlink:href="#font_1_1" transform="matrix(7.9701,0,0,-7.9705779,106.737,168.24634)"/>
<use data-text="6" xlink:href="#font_2_3" transform="matrix(7.9701,0,0,-7.9705779,113.323,168.24634)"/>
<use data-text="&#x2212;" xlink:href="#font_1_1" transform="matrix(7.9701,0,0,-7.9705779,106.737,147.6231)"/>
<use data-text="4" xlink:href="#font_2_2" transform="matrix(7.9701,0,0,-7.9705779,113.323,147.6231)"/>
<use data-text="&#x2212;" xlink:href="#font_1_1" transform="matrix(7.9701,0,0,-7.9705779,106.737,126.99886)"/>
<use data-text="2" xlink:href="#font_2_1" transform="matrix(7.9701,0,0,-7.9705779,113.323,126.99886)"/>
<use data-text="2" xlink:href="#font_2_1" transform="matrix(7.9701,0,0,-7.9705779,113.324008,86.16641)"/>
<use data-text="4" xlink:href="#font_2_2" transform="matrix(7.9701,0,0,-7.9705779,113.324008,65.542179)"/>
<use data-text="6" xlink:href="#font_2_3" transform="matrix(7.9701,0,0,-7.9705779,113.324008,44.91794)"/>
<use data-text="8" xlink:href="#font_2_4" transform="matrix(7.9701,0,0,-7.9705779,113.324008,24.294709)"/>
<path transform="matrix(1,0,0,-1.00006,1.7600002,207.35068)" stroke-width=".99628" stroke-linecap="butt" stroke-miterlimit="10" stroke-linejoin="miter" fill="none" stroke="#9e0c0f" d="M8.26125 101.45062 3.12296 101.50392 6.24593 101.47003 9.3689 101.4347 12.49187 101.39781 15.61485 101.35927 18.73781 101.31897 21.8608 101.2768 24.98376 101.23259 28.10675 101.18623 31.22972 101.13753 34.35268 101.08632 37.47565 101.0324 40.59863 100.97557 43.72162 100.91547 46.84459 100.85194 49.96754 100.78471 53.09052 100.71347 56.2135 100.63747 59.33647 100.55673 62.45944 100.47052 65.58241 100.37834 68.7054 100.27957 71.82837 100.17336 74.95134 100.0588 78.07431 99.93517 81.19728 99.80112 84.32025 99.6551 87.44324 99.4958 90.56621 99.32123 93.6892 99.12883 96.81215 98.9159 99.93512 98.67915 103.05809 98.41414 106.18108 98.11552 109.30406 97.77638 112.42702 97.38794 115.54999 96.93878 118.67296 96.41322 121.79594 95.79 124.91891 95.03923 128.0419 94.1171 131.16489 92.95747 134.28784 91.455 137.41082 89.43172 140.53379 86.55917 143.65676 82.15985 146.77974 74.58307 149.90271 58.42621 152.58406 8.34686"/>
<path transform="matrix(-.99991,-.0103906239,-.01039,.99996998,10.72567,105.9013)" d="M7.39124 0 2.37614 1.6717 .70447 0 2.37614-1.6717Z" fill="#9e0c0f"/>
<path transform="matrix(-.99991,-.0103906239,-.01039,.99996998,10.72567,105.9013)" stroke-width=".99628" stroke-linecap="butt" stroke-miterlimit="10" stroke-linejoin="miter" fill="none" stroke="#9e0c0f" d="M7.39124 0 2.37614 1.6717 .70447 0 2.37614-1.6717Z"/>
<path transform="matrix(.05345,.9985999,.99854,-.053453205,154.3064,198.29982)" d="M7.39124 0 2.37614 1.6717 .70447 0 2.37614-1.6717Z" fill="#9e0c0f"/>
<path transform="matrix(.05345,.9985999,.99854,-.053453205,154.3064,198.29982)" stroke-width=".99628" stroke-linecap="butt" stroke-miterlimit="10" stroke-linejoin="miter" fill="none" stroke="#9e0c0f" d="M7.39124 0 2.37614 1.6717 .70447 0 2.37614-1.6717Z"/>
<path transform="matrix(1,0,0,-1.00006,1.7600002,207.35068)" stroke-width=".99628" stroke-linecap="butt" stroke-miterlimit="10" stroke-linejoin="miter" fill="none" stroke="#9e0c0f" d="M158.21465 197.98451C160.2572 156.36487 160.2572 156.36487 161.19716 145.79015 162.13713 135.21543 163.64452 133.21591 164.58449 130.021 165.52446 126.82607 167.03185 124.3494 167.97182 122.76335 168.91179 121.17732 170.41918 119.54503 171.35915 118.58983 172.2991 117.63464 173.80652 116.51903 174.74649 115.87898 175.68647 115.23895 177.19385 114.4362 178.1338 113.97685 179.07378 113.51752 180.58118 112.91429 181.52115 112.56831 182.46112 112.22234 183.96849 111.7533 184.90847 111.48326 185.84844 111.21323 187.35584 110.83873 188.2958 110.62206 189.23577 110.40538 190.74315 110.0994 191.68312 109.9216 192.6231 109.74382 194.13048 109.48914 195.07044 109.34067 196.0104 109.19218 197.5178 108.97728 198.45778 108.8514 199.39775 108.7255 200.90512 108.54134 201.8451 108.43326 202.78507 108.32516 204.29247 108.16608 205.23244 108.07227 206.1724 107.97845 207.6798 107.83925 208.61977 107.75705 209.55974 107.67484 211.06714 107.55229 212.0071 107.47966 212.94707 107.40704 214.45446 107.29825 215.39443 107.23364 216.3344 107.16904 217.84178 107.07185 218.78176 107.014 219.72173 106.95615 221.22911 106.8687 222.16909 106.81654 223.10904 106.76439 224.61644 106.68527 225.55641 106.63806 226.49639 106.59084 228.00377 106.51913 228.94373 106.47617 229.8837 106.43321 231.39109 106.36765 232.33106 106.3284 233.27103 106.28917 234.77841 106.22934 235.71839 106.19331 236.65836 106.1573 239.10572 106.06876 230.84938 106.36716"/>
<path transform="matrix(-.049,-.9988199,-.99876,.049002939,160.00916,10.057953)" d="M7.39124 0 2.37614 1.6717 .70447 0 2.37614-1.6717Z" fill="#9e0c0f"/>
<path transform="matrix(-.049,-.9988199,-.99876,.049002939,160.00916,10.057953)" stroke-width=".99628" stroke-linecap="butt" stroke-miterlimit="10" stroke-linejoin="miter" fill="none" stroke="#9e0c0f" d="M7.39124 0 2.37614 1.6717 .70447 0 2.37614-1.6717Z"/>
<path transform="matrix(.99931,.036122167,.03612,-.9993699,231.90537,100.95169)" d="M7.39124 0 2.37614 1.6717 .70447 0 2.37614-1.6717Z" fill="#9e0c0f"/>
<path transform="matrix(.99931,.036122167,.03612,-.9993699,231.90537,100.95169)" stroke-width=".99628" stroke-linecap="butt" stroke-miterlimit="10" stroke-linejoin="miter" fill="none" stroke="#9e0c0f" d="M7.39124 0 2.37614 1.6717 .70447 0 2.37614-1.6717Z"/>
<path transform="matrix(1,0,0,-1.00006,1.7600002,207.35068)" stroke-width=".99628" stroke-linecap="butt" stroke-miterlimit="10" stroke-linejoin="miter" fill="none" stroke="#008099" d="M69.51054 8.12938 72.33049 23.69186 76.62343 43.44508 80.91635 59.6177 85.20926 72.56769 89.50218 82.65321 93.79512 90.2323 98.08806 95.66298 102.38098 99.30336 106.67392 101.51146 110.96684 102.64537 115.25977 103.06314 119.5527 103.12282 123.84563 103.18248 128.13855 103.6002 132.43148 104.73401 136.72441 106.94199 141.01735 110.5822 145.31026 116.01271 149.6032 123.59155 153.89614 133.67682 158.18906 146.62657 162.482 162.79886 166.77492 182.55167 169.59485 198.11374"/>
<path transform="matrix(-.17828,.984009,.98395,.17829068,71.39614,198.52759)" d="M7.39124 0 2.37614 1.6717 .70447 0 2.37614-1.6717Z" fill="#008099"/>
<path transform="matrix(-.17828,.984009,.98395,.17829068,71.39614,198.52759)" stroke-width=".99628" stroke-linecap="butt" stroke-miterlimit="10" stroke-linejoin="miter" fill="none" stroke="#008099" d="M7.39124 0 2.37614 1.6717 .70447 0 2.37614-1.6717Z"/>
<path transform="matrix(.17828,-.984009,-.98395,-.17829068,171.22924,9.918274)" d="M7.39124 0 2.37614 1.6717 .70447 0 2.37614-1.6717Z" fill="#008099"/>
<path transform="matrix(.17828,-.984009,-.98395,-.17829068,171.22924,9.918274)" stroke-width=".99628" stroke-linecap="butt" stroke-miterlimit="10" stroke-linejoin="miter" fill="none" stroke="#008099" d="M7.39124 0 2.37614 1.6717 .70447 0 2.37614-1.6717Z"/>
<path transform="matrix(1,0,0,-1.00006,1.7600002,207.35068)" stroke-width=".3985" stroke-linecap="butt" stroke-miterlimit="10" stroke-linejoin="miter" fill="none" stroke="#9e0c0f" d=""/>
<use data-text="(" xlink:href="#font_3_1" transform="matrix(9.9626,0,0,-9.963197,26.513,102.76841)" fill="#9e0c0f"/>
<use data-text="&#x2212;" xlink:href="#font_4_1" transform="matrix(9.9626,0,0,-9.963197,30.387001,102.76841)" fill="#9e0c0f"/>
<use data-text="1" xlink:href="#font_3_4" transform="matrix(9.9626,0,0,-9.963197,38.136,102.76841)" fill="#9e0c0f"/>
<use data-text="." xlink:href="#font_5_1" transform="matrix(9.9626,0,0,-9.963197,43.117,102.76841)" fill="#9e0c0f"/>
<use data-text="5" xlink:href="#font_3_8" transform="matrix(9.9626,0,0,-9.963197,45.885004,102.76841)" fill="#9e0c0f"/>
<use data-text="2" xlink:href="#font_3_5" transform="matrix(9.9626,0,0,-9.963197,50.866304,102.76841)" fill="#9e0c0f"/>
<use data-text="4" xlink:href="#font_3_7" transform="matrix(9.9626,0,0,-9.963197,55.847604,102.76841)" fill="#9e0c0f"/>
<use data-text="," xlink:href="#font_5_2" transform="matrix(9.9626,0,0,-9.963197,60.829004,102.76841)" fill="#9e0c0f"/>
<use data-text="&#x2212;" xlink:href="#font_4_1" transform="matrix(9.9626,0,0,-9.963197,65.256,102.76841)" fill="#9e0c0f"/>
<use data-text="0" xlink:href="#font_3_3" transform="matrix(9.9626,0,0,-9.963197,73.005008,102.76841)" fill="#9e0c0f"/>
<use data-text="." xlink:href="#font_5_1" transform="matrix(9.9626,0,0,-9.963197,77.987,102.76841)" fill="#9e0c0f"/>
<use data-text="4" xlink:href="#font_3_7" transform="matrix(9.9626,0,0,-9.963197,80.754,102.76841)" fill="#9e0c0f"/>
<use data-text="4" xlink:href="#font_3_7" transform="matrix(9.9626,0,0,-9.963197,85.735309,102.76841)" fill="#9e0c0f"/>
<use data-text="2" xlink:href="#font_3_5" transform="matrix(9.9626,0,0,-9.963197,90.7166,102.76841)" fill="#9e0c0f"/>
<use data-text=")" xlink:href="#font_3_2" transform="matrix(9.9626,0,0,-9.963197,95.69791,102.76841)" fill="#9e0c0f"/>
<path transform="matrix(1,0,0,-1.00006,1.7600002,207.35068)" stroke-width=".3985" stroke-linecap="butt" stroke-miterlimit="10" stroke-linejoin="miter" fill="none" stroke="#9e0c0f" d=""/>
<use data-text="(" xlink:href="#font_3_1" transform="matrix(9.9626,0,0,-9.963197,165.54,55.81259)" fill="#9e0c0f"/>
<use data-text="3" xlink:href="#font_3_6" transform="matrix(9.9626,0,0,-9.963197,169.40549,55.81259)" fill="#9e0c0f"/>
<use data-text="." xlink:href="#font_5_1" transform="matrix(9.9626,0,0,-9.963197,174.39499,55.81259)" fill="#9e0c0f"/>
<use data-text="4" xlink:href="#font_3_7" transform="matrix(9.9626,0,0,-9.963197,177.163,55.81259)" fill="#9e0c0f"/>
<use data-text="0" xlink:href="#font_3_3" transform="matrix(9.9626,0,0,-9.963197,182.14429,55.81259)" fill="#9e0c0f"/>
<use data-text="5" xlink:href="#font_3_8" transform="matrix(9.9626,0,0,-9.963197,187.1256,55.81259)" fill="#9e0c0f"/>
<use data-text="," xlink:href="#font_5_2" transform="matrix(9.9626,0,0,-9.963197,192.107,55.81259)" fill="#9e0c0f"/>
<use data-text="4" xlink:href="#font_3_7" transform="matrix(9.9626,0,0,-9.963197,196.535,55.81259)" fill="#9e0c0f"/>
<use data-text="." xlink:href="#font_5_1" transform="matrix(9.9626,0,0,-9.963197,201.51599,55.81259)" fill="#9e0c0f"/>
<use data-text="9" xlink:href="#font_3_10" transform="matrix(9.9626,0,0,-9.963197,204.28299,55.81259)" fill="#9e0c0f"/>
<use data-text="3" xlink:href="#font_3_6" transform="matrix(9.9626,0,0,-9.963197,209.2643,55.81259)" fill="#9e0c0f"/>
<use data-text="6" xlink:href="#font_3_9" transform="matrix(9.9626,0,0,-9.963197,214.24559,55.81259)" fill="#9e0c0f"/>
<use data-text=")" xlink:href="#font_3_2" transform="matrix(9.9626,0,0,-9.963197,219.2269,55.81259)" fill="#9e0c0f"/>
<path transform="matrix(1,0,0,-1.00006,1.7600002,207.35068)" d="M103.32559 98.5652C103.32559 99.66566 102.4335 100.55775 101.33304 100.55775 100.23256 100.55775 99.34048 99.66566 99.34048 98.5652 99.34048 97.46472 100.23256 96.57265 101.33304 96.57265 102.4335 96.57265 103.32559 97.46472 103.32559 98.5652ZM101.33304 98.5652" fill="#9e0c0f"/>
<path transform="matrix(1,0,0,-1.00006,1.7600002,207.35068)" stroke-width=".3985" stroke-linecap="butt" stroke-miterlimit="10" stroke-linejoin="miter" fill="none" stroke="#9e0c0f" d="M103.32559 98.5652C103.32559 99.66566 102.4335 100.55775 101.33304 100.55775 100.23256 100.55775 99.34048 99.66566 99.34048 98.5652 99.34048 97.46472 100.23256 96.57265 101.33304 96.57265 102.4335 96.57265 103.32559 97.46472 103.32559 98.5652ZM101.33304 98.5652"/>
<path transform="matrix(1,0,0,-1.00006,1.7600002,207.35068)" stroke-width=".3985" stroke-linecap="butt" stroke-miterlimit="10" stroke-linejoin="miter" fill="none" stroke="#9e0c0f" d=""/>
<path transform="matrix(1,0,0,-1.00006,1.7600002,207.35068)" d="M162.25324 154.01964C162.25324 155.12012 161.36115 156.01219 160.26068 156.01219 159.1602 156.01219 158.26813 155.12012 158.26813 154.01964 158.26813 152.91918 159.1602 152.02709 160.26068 152.02709 161.36115 152.02709 162.25324 152.91918 162.25324 154.01964ZM160.26068 154.01964" fill="#9e0c0f"/>
<path transform="matrix(1,0,0,-1.00006,1.7600002,207.35068)" stroke-width=".3985" stroke-linecap="butt" stroke-miterlimit="10" stroke-linejoin="miter" fill="none" stroke="#9e0c0f" d="M162.25324 154.01964C162.25324 155.12012 161.36115 156.01219 160.26068 156.01219 159.1602 156.01219 158.26813 155.12012 158.26813 154.01964 158.26813 152.91918 159.1602 152.02709 160.26068 152.02709 161.36115 152.02709 162.25324 152.91918 162.25324 154.01964ZM160.26068 154.01964"/>
<path transform="matrix(1,0,0,-1.00006,1.7600002,207.35068)" stroke-width=".3985" stroke-linecap="butt" stroke-miterlimit="10" stroke-linejoin="miter" fill="none" stroke="#9e0c0f" d=""/>
<use data-text="x" xlink:href="#font_5_3" transform="matrix(9.9626,0,0,-9.963197,231.652,100.70129)"/>
<use data-text="y" xlink:href="#font_5_4" transform="matrix(9.9626,0,0,-9.963197,124.83299,8.911774)"/>
</svg>
