<svg xmlns="http://www.w3.org/2000/svg" xmlns:xlink="http://www.w3.org/1999/xlink" version="1.1" width="242" height="210" viewBox="0 0 242 210">
<defs>
<path id="font_1_1" d="M.69898989 .22743225C.71499636 .22743225 .7369995 .22743225 .7369995 .25042726 .7369995 .2734375 .71499636 .2734375 .69898989 .2734375H.12599182C.10998535 .2734375 .08799744 .2734375 .08799744 .25042726 .08799744 .22743225 .10998535 .22743225 .12599182 .22743225H.69898989Z"/>
<path id="font_2_3" d="M.3939972 .6468048C.3939972 .6667938 .3939972 .6748047 .37298585 .6748047 .3600006 .6748047 .35899354 .6737976 .34899903 .65979006L.02999878 .197052V.1640625H.31199647V.08100891C.31199647 .04399109 .30899049 .032989503 .23199463 .032989503H.20899964V0C.2939911 .0029907227 .29599 .0029907227 .35299684 .0029907227 .4099884 .0029907227 .4119873 .0029907227 .49699403 0V.032989503H.47399903C.39698792 .032989503 .3939972 .04399109 .3939972 .08100891V.1640625H.5V.197052H.3939972V.6468048M.31900025 .5658417V.197052H.06498718L.31900025 .5658417Z"/>
<path id="font_2_2" d="M.28199769 .20405579C.2979889 .21907044 .33999635 .2520752 .35598756 .26608277 .41799928 .32312013 .47698976 .3781433 .47698976 .46917726 .47698976 .588089 .3769989 .66503909 .2519989 .66503909 .13198853 .66503909 .052993776 .57411196 .052993776 .48516847 .052993776 .4361725 .09199524 .4291687 .10598755 .4291687 .1269989 .4291687 .1579895 .4441681 .1579895 .48217774 .1579895 .5341797 .10798645 .5341797 .09599304 .5341797 .125 .6070709 .19198609 .6320343 .24099732 .6320343 .33399964 .6320343 .38198854 .55314639 .38198854 .46917726 .38198854 .36514283 .30899049 .28910829 .19099427 .16804505L.06498718 .037994386C.052993776 .026992798 .052993776 .024993897 .052993776 0H.44799806L.47698976 .17904663H.44599916C.44299317 .1590271 .43499757 .10900879 .4229889 .08999634 .4169922 .08198547 .34098817 .08198547 .32499696 .08198547H.14698792L.28199769 .20405579Z"/>
<path id="font_2_4" d="M.13798523 .33073426C.13798523 .41377259 .14498902 .4868164 .18099976 .54782107 .21099854 .5978241 .2619934 .6390381 .32499696 .6390381 .34498597 .6390381 .3909912 .63601687 .4139862 .60084536 .36898805 .5988312 .36499024 .5648346 .36499024 .553833 .36499024 .5238342 .3880005 .50683596 .4119873 .50683596 .42999269 .50683596 .45899964 .51782229 .45899964 .5558319 .45899964 .615921 .4139862 .66503909 .32398988 .66503909 .18499756 .66503909 .04399109 .53282168 .04399109 .31672669 .04399109 .045532228 .16999817-.021484375 .2669983-.021484375 .31498719-.021484375 .36698915-.0084991459 .4119873 .03453064 .45199586 .07354736 .48599244 .11558533 .48599244 .20263672 .48599244 .33372499 .3869934 .42578126 .27598573 .42578126 .20399475 .42578126 .16099549 .37976075 .13798523 .33073426M.2669983 .008514404C.21398926 .008514404 .18099976 .045532228 .1659851 .07354736 .14299011 .11859131 .14099121 .18663025 .14099121 .22465515 .14099121 .32373048 .19499207 .3977661 .27198792 .3977661 .32199098 .3977661 .35198976 .37176515 .37098695 .33673097 .3919983 .29971314 .3919983 .25468446 .3919983 .2036438 .3919983 .15260315 .3919983 .10858154 .37199403 .07255554 .34599305 .026519776 .31098939 .008514404 .2669983 .008514404Z"/>
<path id="font_2_5" d="M.33198548 .36080934C.3880005 .38783265 .45599366 .4378662 .45599366 .5159302 .45599366 .6110077 .35899354 .66503909 .2659912 .66503909 .1599884 .66503909 .07398987 .59199526 .07398987 .49790956 .07398987 .46089173 .08699036 .42686463 .11199951 .39782716 .1289978 .3768158 .1329956 .3748169 .19499207 .3357849 .070999149 .2807312 .04399109 .20767212 .04399109 .15162659 .04399109 .041534425 .15499878-.021484375 .2639923-.021484375 .3869934-.021484375 .48599244 .061553956 .48599244 .16764832 .48599244 .23069763 .45199586 .2727356 .43598939 .28974916 .4189911 .30575563 .41799928 .3067627 .33198548 .36080934M.1769867 .45487977C.147995 .4718933 .12399292 .5009155 .12399292 .5359497 .12399292 .598999 .19299317 .6390381 .2639923 .6390381 .34199525 .6390381 .4059906 .5859833 .4059906 .5159302 .4059906 .45788575 .36099244 .408844 .3019867 .37982179L.1769867 .45487977M.22599793 .31776429C.22999573 .31576539 .34399415 .24571228 .36099244 .23469544 .3769989 .22569275 .42900086 .19366455 .42900086 .13360596 .42900086 .056549074 .34799195 .008514404 .2659912 .008514404 .1769867 .008514404 .100997928 .06956482 .100997928 .15162659 .100997928 .22668457 .15699768 .28573609 .22599793 .31776429Z"/>
<path id="font_2_1" d="M.31399537 .63708499C.31399537 .664032 .31199647 .66503909 .2849884 .66503909 .24398804 .6251831 .19099427 .6013489 .09599304 .6013489V.5683594C.12298584 .5683594 .1769867 .5683594 .23498535 .5953522V.08203125C.23498535 .04499817 .23199463 .032989503 .13699341 .032989503H.101989749V0C.14299011 .0029907227 .22898865 .0029907227 .27398683 .0029907227 .31900025 .0029907227 .4059906 .0029907227 .44699098 0V.032989503H.4119873C.31698609 .032989503 .31399537 .04499817 .31399537 .08203125V.63708499Z"/>
<clipPath id="clip_3">
<path transform="matrix(1.00003,0,0,-1.00002,1.4615555,208.02556)" d="M0 0H239.10507V206.22623H0Z"/>
</clipPath>
<path id="font_4_1" d="M.33399964 .30233766C.33999635 .32835389 .36299134 .42037965 .43299867 .42037965 .43798829 .42037965 .46199037 .42037965 .48298646 .40734864 .45498658 .402359 .43499757 .37734986 .43499757 .35334779 .43499757 .33735658 .44599916 .31835938 .47299195 .31835938 .49499513 .31835938 .5269928 .3363495 .5269928 .37635804 .5269928 .42837525 .46798707 .4423828 .43399049 .4423828 .37599183 .4423828 .34098817 .38935853 .32899476 .36634828 .3039856 .43237306 .25 .4423828 .22099304 .4423828 .116989139 .4423828 .05999756 .3133545 .05999756 .28834535 .05999756 .27833558 .069992069 .27833558 .07199097 .27833558 .07998657 .27833558 .08299255 .28033448 .084991458 .28933717 .11898804 .39535523 .18499756 .42037965 .21899414 .42037965 .23799134 .42037965 .272995 .4113617 .272995 .35334779 .272995 .32235719 .2559967 .25532533 .21899414 .11528015 .20298767 .053268434 .16799927 .011245728 .12399292 .011245728 .117996219 .011245728 .09498596 .011245728 .07398987 .024276734 .09899902 .029266358 .12098694 .05027771 .12098694 .07827759 .12098694 .105270389 .09899902 .11328125 .083999637 .11328125 .053985597 .11328125 .0289917 .08728027 .0289917 .055267335 .0289917 .009246826 .07899475-.0107421879 .12298584-.0107421879 .18899536-.0107421879 .22499085 .059280397 .22799683 .0652771 .23999024 .028274537 .27598573-.0107421879 .33599855-.0107421879 .43899537-.0107421879 .49598695 .118270877 .49598695 .14328003 .49598695 .1532898 .4869995 .1532898 .48399354 .1532898 .47499085 .1532898 .47299195 .14929199 .47099305 .14228821 .43798829 .03527832 .36999513 .011245728 .33799745 .011245728 .29899598 .011245728 .2829895 .043273927 .2829895 .07727051 .2829895 .09927368 .2889862 .121276859 .2999878 .16529846L.33399964 .30233766Z"/>
<path id="font_4_2" d="M.48599244 .38136292C.48999024 .39537049 .48999024 .39736939 .48999024 .40437318 .48999024 .42237855 .47599793 .43138124 .46099855 .43138124 .45098878 .43138124 .43499757 .42536927 .42599488 .41036988 .42399598 .405365 .41600038 .37435914 .4119873 .35635377 .40499879 .33035279 .397995 .30334474 .3919983 .27633668L.34700013 .09628296C.34298707 .08126831 .2999878 .011245728 .23399353 .011245728 .18299866 .011245728 .17199707 .055267335 .17199707 .0922699 .17199707 .1382904 .18899536 .20030213 .22299195 .28833009 .23899842 .3293457 .24299622 .3403473 .24299622 .36035157 .24299622 .405365 .21099854 .4423828 .16099549 .4423828 .06599426 .4423828 .0289917 .29733277 .0289917 .28833009 .0289917 .27833558 .038986207 .27833558 .040985109 .27833558 .050994874 .27833558 .051986696 .28033448 .056991579 .29634095 .083999637 .3903656 .12399292 .42037965 .1579895 .42037965 .1659851 .42037965 .18299866 .42037965 .18299866 .3883667 .18299866 .36335755 .17298889 .3373413 .1659851 .31834413 .12599182 .21231079 .10798645 .1552887 .10798645 .10827637 .10798645 .019256592 .17098999-.0107421879 .22999573-.0107421879 .2689972-.0107421879 .30299378 .0062561037 .33099366 .03425598 .31799317-.017745972 .30599977-.06674194 .2659912-.11973572 .23999024-.15385437 .20199585-.18309021 .1559906-.18309021 .14199829-.18309021 .09700012-.18005371 .07998657-.14074707 .09599304-.14074707 .10899353-.14074707 .12298584-.1287384 .1329956-.11973572 .14299011-.10673523 .14299011-.08773804 .14299011-.056747438 .115997318-.052734376 .10598755-.052734376 .08299255-.052734376 .049987794-.068740848 .049987794-.11773682 .049987794-.16796875 .09399414-.20507813 .1559906-.20507813 .25898744-.20507813 .3619995-.11373901 .3899994-.00074768069L.48599244 .38136292Z"/>
</defs>
<path transform="matrix(1.00003,0,0,-1.00002,1.4615555,208.02556)" d="M0 0H239.10507V206.22623H0Z" fill="#fffac2"/>
<path transform="matrix(1.00003,0,0,-1.00002,1.4615555,208.02556)" stroke-width=".3985" stroke-linecap="butt" stroke-miterlimit="10" stroke-linejoin="miter" fill="none" stroke="#d5d6d5" d="M15.94034 0V206.22623M31.88068 0V206.22623M47.82101 0V206.22623M63.76135 0V206.22623M79.70169 0V206.22623M95.64203 0V206.22623M111.58237 0V206.22623M127.5227 0V206.22623M143.46305 0V206.22623M159.40338 0V206.22623M175.34372 0V206.22623M191.28406 0V206.22623M207.2244 0V206.22623M223.16474 0V206.22623"/>
<path transform="matrix(1.00003,0,0,-1.00002,1.4615555,208.02556)" stroke-width=".3985" stroke-linecap="butt" stroke-miterlimit="10" stroke-linejoin="miter" fill="none" stroke="#d5d6d5" d="M15.94034 0V206.22623M47.82101 0V206.22623M111.58237 0V206.22623M143.46305 0V206.22623M175.34372 0V206.22623M207.2244 0V206.22623"/>
<path transform="matrix(1.00003,0,0,-1.00002,1.4615555,208.02556)" stroke-width=".3985" stroke-linecap="butt" stroke-miterlimit="10" stroke-linejoin="miter" fill="none" stroke="#d5d6d5" d="M0 0H239.10507M0 8.24904H239.10507M0 16.4981H239.10507M0 24.74715H239.10507M0 32.99619H239.10507M0 41.24524H239.10507M0 49.4943H239.10507M0 57.74333H239.10507M0 65.99239H239.10507M0 74.24144H239.10507M0 82.4905H239.10507M0 90.73953H239.10507M0 98.98859H239.10507M0 107.23764H239.10507M0 115.48668H239.10507M0 123.73573H239.10507M0 131.98479H239.10507M0 140.23384H239.10507M0 148.48288H239.10507M0 156.73194H239.10507M0 164.98099H239.10507M0 173.23003H239.10507M0 181.47908H239.10507M0 189.72814H239.10507M0 197.97719H239.10507M0 206.22623H239.10507"/>
<path transform="matrix(1.00003,0,0,-1.00002,1.4615555,208.02556)" stroke-width=".3985" stroke-linecap="butt" stroke-miterlimit="10" stroke-linejoin="miter" fill="none" stroke="#d5d6d5" d="M0 8.24904H239.10507M0 74.24144H239.10507M0 107.23764H239.10507M0 140.23384H239.10507M0 173.23003H239.10507"/>
<path transform="matrix(1.00003,0,0,-1.00002,1.4615555,208.02556)" stroke-width=".19925" stroke-linecap="butt" stroke-miterlimit="10" stroke-linejoin="miter" fill="none" stroke="#929292" d="M15.94034 39.82788V42.66261M31.88068 39.82788V42.66261M47.82101 39.82788V42.66261M63.76135 39.82788V42.66261M79.70169 39.82788V42.66261M95.64203 39.82788V42.66261M111.58237 39.82788V42.66261M127.5227 39.82788V42.66261M143.46305 39.82788V42.66261M159.40338 39.82788V42.66261M175.34372 39.82788V42.66261M191.28406 39.82788V42.66261M207.2244 39.82788V42.66261M223.16474 39.82788V42.66261"/>
<path transform="matrix(1.00003,0,0,-1.00002,1.4615555,208.02556)" stroke-width=".19925" stroke-linecap="butt" stroke-miterlimit="10" stroke-linejoin="miter" fill="none" stroke="#929292" d="M15.94034 39.1194V43.37106M47.82101 39.1194V43.37106M111.58237 39.1194V43.37106M143.46305 39.1194V43.37106M175.34372 39.1194V43.37106M207.2244 39.1194V43.37106"/>
<path transform="matrix(1.00003,0,0,-1.00002,1.4615555,208.02556)" stroke-width=".19925" stroke-linecap="butt" stroke-miterlimit="10" stroke-linejoin="miter" fill="none" stroke="#929292" d="M78.28429 0H81.1191M78.28429 8.24904H81.1191M78.28429 16.4981H81.1191M78.28429 24.74715H81.1191M78.28429 32.99619H81.1191M78.28429 41.24524H81.1191M78.28429 49.4943H81.1191M78.28429 57.74333H81.1191M78.28429 65.99239H81.1191M78.28429 74.24144H81.1191M78.28429 82.4905H81.1191M78.28429 90.73953H81.1191M78.28429 98.98859H81.1191M78.28429 107.23764H81.1191M78.28429 115.48668H81.1191M78.28429 123.73573H81.1191M78.28429 131.98479H81.1191M78.28429 140.23384H81.1191M78.28429 148.48288H81.1191M78.28429 156.73194H81.1191M78.28429 164.98099H81.1191M78.28429 173.23003H81.1191M78.28429 181.47908H81.1191M78.28429 189.72814H81.1191M78.28429 197.97719H81.1191M78.28429 206.22623H81.1191"/>
<path transform="matrix(1.00003,0,0,-1.00002,1.4615555,208.02556)" stroke-width=".19925" stroke-linecap="butt" stroke-miterlimit="10" stroke-linejoin="miter" fill="none" stroke="#929292" d="M77.57578 8.24904H81.82758M77.57578 74.24144H81.82758M77.57578 107.23764H81.82758M77.57578 140.23384H81.82758M77.57578 173.23003H81.82758"/>
<path transform="matrix(1.00003,0,0,-1.00002,1.4615555,208.02556)" stroke-width=".3985" stroke-linecap="butt" stroke-miterlimit="10" stroke-linejoin="miter" fill="none" stroke="#000000" d="M1.99252 41.24524H237.11255"/>
<path transform="matrix(-1.00003,-0,0,1.00002,3.4541355,166.7795)" d="M1.99252 0-1.19551 1.59401 0 0-1.19551-1.59401"/>
<path transform="matrix(1.00003,0,0,-1.00002,238.58124,166.7795)" d="M1.99252 0-1.19551 1.59401 0 0-1.19551-1.59401"/>
<path transform="matrix(1.00003,0,0,-1.00002,1.4615555,208.02556)" stroke-width=".3985" stroke-linecap="butt" stroke-miterlimit="10" stroke-linejoin="miter" fill="none" stroke="#000000" d="M79.70169 1.99252V204.2337"/>
<path transform="matrix(0,1.00002,1.00003,0,81.16564,206.033)" d="M1.99252 0-1.19551 1.59401 0 0-1.19551-1.59401"/>
<path transform="matrix(0,-1.00002,-1.00003,-0,81.16564,3.7877656)" d="M1.99252 0-1.19551 1.59401 0 0-1.19551-1.59401"/>
<use data-text="&#x2212;" xlink:href="#font_1_1" transform="matrix(7.9703395,0,0,-7.9702599,11.991872,177.56195)"/>
<use data-text="4" xlink:href="#font_2_3" transform="matrix(7.9703395,0,0,-7.9702599,18.579071,177.56195)"/>
<use data-text="&#x2212;" xlink:href="#font_1_1" transform="matrix(7.9703395,0,0,-7.9702599,43.87383,177.56195)"/>
<use data-text="2" xlink:href="#font_2_2" transform="matrix(7.9703395,0,0,-7.9702599,50.46103,177.56195)"/>
<use data-text="2" xlink:href="#font_2_2" transform="matrix(7.9703395,0,0,-7.9702599,110.92984,177.56195)"/>
<use data-text="4" xlink:href="#font_2_3" transform="matrix(7.9703395,0,0,-7.9702599,142.8118,177.56195)"/>
<use data-text="6" xlink:href="#font_2_4" transform="matrix(7.9703395,0,0,-7.9702599,174.69376,177.56195)"/>
<use data-text="8" xlink:href="#font_2_5" transform="matrix(7.9703395,0,0,-7.9702599,206.5747,177.56195)"/>
<use data-text="&#x2212;" xlink:href="#font_1_1" transform="matrix(7.9703395,0,0,-7.9702599,66.58951,201.92945)"/>
<use data-text="4" xlink:href="#font_2_3" transform="matrix(7.9703395,0,0,-7.9702599,73.176708,201.92945)"/>
<use data-text="4" xlink:href="#font_2_3" transform="matrix(7.9703395,0,0,-7.9702599,73.175708,136.35114)"/>
<use data-text="8" xlink:href="#font_2_5" transform="matrix(7.9703395,0,0,-7.9702599,73.175708,103.35446)"/>
<use data-text="1" xlink:href="#font_2_1" transform="matrix(7.9703395,0,0,-7.9702599,68.94158,70.3568)"/>
<use data-text="2" xlink:href="#font_2_2" transform="matrix(7.9703395,0,0,-7.9702599,73.173839,70.3568)"/>
<use data-text="1" xlink:href="#font_2_1" transform="matrix(7.9703395,0,0,-7.9702599,68.94158,37.360139)"/>
<use data-text="6" xlink:href="#font_2_4" transform="matrix(7.9703395,0,0,-7.9702599,73.173839,37.360139)"/>
<g clip-path="url(#clip_3)">
<path transform="matrix(1.00003,0,0,-1.00002,1.4615555,208.02556)" stroke-width=".99628" stroke-linecap="butt" stroke-miterlimit="10" stroke-linejoin="miter" fill="none" stroke="#9e0c0f" d="M74.12527 197.5678 78.23515 179.37125 84.16496 155.39908 90.09473 133.70983 96.02452 114.30376 101.95432 97.18076 107.88411 82.34074 113.81389 69.78386 119.74368 59.51001 125.6735 51.51921 131.60327 45.81151 137.53305 42.38683 143.46286 41.24524 149.39264 42.38669 155.32242 45.81123 161.25225 51.51881 167.18202 59.50946 173.1118 69.78316 179.04158 82.33989 184.97139 97.17976 190.90119 114.30263 196.83097 133.70858 202.76078 155.3977 208.69055 179.36974 212.80042 197.56615"/>
<path transform="matrix(-.22028663,-.97540959,-.97541937,.22028442,75.74424,11.140976)" d="M7.39124 0 2.37614 1.6717 .70447 0 2.37614-1.6717Z" fill="#9e0c0f"/>
<path transform="matrix(-.22028663,-.97540959,-.97541937,.22028442,75.74424,11.140976)" stroke-width=".99628" stroke-linecap="butt" stroke-miterlimit="10" stroke-linejoin="miter" fill="none" stroke="#9e0c0f" d="M7.39124 0 2.37614 1.6717 .70447 0 2.37614-1.6717Z"/>
<path transform="matrix(.22028663,-.97540959,-.97541937,-.22028442,214.11319,11.142624)" d="M7.39124 0 2.37614 1.6717 .70447 0 2.37614-1.6717Z" fill="#9e0c0f"/>
<path transform="matrix(.22028663,-.97540959,-.97541937,-.22028442,214.11319,11.142624)" stroke-width=".99628" stroke-linecap="butt" stroke-miterlimit="10" stroke-linejoin="miter" fill="none" stroke="#9e0c0f" d="M7.39124 0 2.37614 1.6717 .70447 0 2.37614-1.6717Z"/>
</g>
<path transform="matrix(1.00003,0,0,-1.00002,1.4615555,208.02556)" d="M97.63458 115.48668C97.63458 116.58716 96.7425 117.47923 95.64203 117.47923 94.54155 117.47923 93.64948 116.58716 93.64948 115.48668 93.64948 114.38622 94.54155 113.49413 95.64203 113.49413 96.7425 113.49413 97.63458 114.38622 97.63458 115.48668ZM95.64203 115.48668" fill="#9e0c0f"/>
<path transform="matrix(1.00003,0,0,-1.00002,1.4615555,208.02556)" stroke-width=".3985" stroke-linecap="butt" stroke-miterlimit="10" stroke-linejoin="miter" fill="none" stroke="#9e0c0f" d="M97.63458 115.48668C97.63458 116.58716 96.7425 117.47923 95.64203 117.47923 94.54155 117.47923 93.64948 116.58716 93.64948 115.48668 93.64948 114.38622 94.54155 113.49413 95.64203 113.49413 96.7425 113.49413 97.63458 114.38622 97.63458 115.48668ZM95.64203 115.48668"/>
<path transform="matrix(1.00003,0,0,-1.00002,1.4615555,208.02556)" d="M113.57492 74.24144C113.57492 75.3419 112.68283 76.234 111.58237 76.234 110.48189 76.234 109.58981 75.3419 109.58981 74.24144 109.58981 73.14096 110.48189 72.24889 111.58237 72.24889 112.68283 72.24889 113.57492 73.14096 113.57492 74.24144ZM111.58237 74.24144" fill="#9e0c0f"/>
<path transform="matrix(1.00003,0,0,-1.00002,1.4615555,208.02556)" stroke-width=".3985" stroke-linecap="butt" stroke-miterlimit="10" stroke-linejoin="miter" fill="none" stroke="#9e0c0f" d="M113.57492 74.24144C113.57492 75.3419 112.68283 76.234 111.58237 76.234 110.48189 76.234 109.58981 75.3419 109.58981 74.24144 109.58981 73.14096 110.48189 72.24889 111.58237 72.24889 112.68283 72.24889 113.57492 73.14096 113.57492 74.24144ZM111.58237 74.24144"/>
<path transform="matrix(1.00003,0,0,-1.00002,1.4615555,208.02556)" d="M129.51526 49.4943C129.51526 50.59476 128.62317 51.48685 127.5227 51.48685 126.42223 51.48685 125.53015 50.59476 125.53015 49.4943 125.53015 48.39381 126.42223 47.50174 127.5227 47.50174 128.62317 47.50174 129.51526 48.39381 129.51526 49.4943ZM127.5227 49.4943" fill="#9e0c0f"/>
<path transform="matrix(1.00003,0,0,-1.00002,1.4615555,208.02556)" stroke-width=".3985" stroke-linecap="butt" stroke-miterlimit="10" stroke-linejoin="miter" fill="none" stroke="#9e0c0f" d="M129.51526 49.4943C129.51526 50.59476 128.62317 51.48685 127.5227 51.48685 126.42223 51.48685 125.53015 50.59476 125.53015 49.4943 125.53015 48.39381 126.42223 47.50174 127.5227 47.50174 128.62317 47.50174 129.51526 48.39381 129.51526 49.4943ZM127.5227 49.4943"/>
<path transform="matrix(1.00003,0,0,-1.00002,1.4615555,208.02556)" d="M145.4556 41.24524C145.4556 42.34572 144.5635 43.2378 143.46305 43.2378 142.36257 43.2378 141.47049 42.34572 141.47049 41.24524 141.47049 40.14478 142.36257 39.25269 143.46305 39.25269 144.5635 39.25269 145.4556 40.14478 145.4556 41.24524ZM143.46305 41.24524" fill="#9e0c0f"/>
<path transform="matrix(1.00003,0,0,-1.00002,1.4615555,208.02556)" stroke-width=".3985" stroke-linecap="butt" stroke-miterlimit="10" stroke-linejoin="miter" fill="none" stroke="#9e0c0f" d="M145.4556 41.24524C145.4556 42.34572 144.5635 43.2378 143.46305 43.2378 142.36257 43.2378 141.47049 42.34572 141.47049 41.24524 141.47049 40.14478 142.36257 39.25269 143.46305 39.25269 144.5635 39.25269 145.4556 40.14478 145.4556 41.24524ZM143.46305 41.24524"/>
<path transform="matrix(1.00003,0,0,-1.00002,1.4615555,208.02556)" d="M161.39594 49.4943C161.39594 50.59476 160.50385 51.48685 159.40338 51.48685 158.3029 51.48685 157.41083 50.59476 157.41083 49.4943 157.41083 48.39381 158.3029 47.50174 159.40338 47.50174 160.50385 47.50174 161.39594 48.39381 161.39594 49.4943ZM159.40338 49.4943" fill="#9e0c0f"/>
<path transform="matrix(1.00003,0,0,-1.00002,1.4615555,208.02556)" stroke-width=".3985" stroke-linecap="butt" stroke-miterlimit="10" stroke-linejoin="miter" fill="none" stroke="#9e0c0f" d="M161.39594 49.4943C161.39594 50.59476 160.50385 51.48685 159.40338 51.48685 158.3029 51.48685 157.41083 50.59476 157.41083 49.4943 157.41083 48.39381 158.3029 47.50174 159.40338 47.50174 160.50385 47.50174 161.39594 48.39381 161.39594 49.4943ZM159.40338 49.4943"/>
<path transform="matrix(1.00003,0,0,-1.00002,1.4615555,208.02556)" d="M177.33628 74.24144C177.33628 75.3419 176.44419 76.234 175.34372 76.234 174.24324 76.234 173.35117 75.3419 173.35117 74.24144 173.35117 73.14096 174.24324 72.24889 175.34372 72.24889 176.44419 72.24889 177.33628 73.14096 177.33628 74.24144ZM175.34372 74.24144" fill="#9e0c0f"/>
<path transform="matrix(1.00003,0,0,-1.00002,1.4615555,208.02556)" stroke-width=".3985" stroke-linecap="butt" stroke-miterlimit="10" stroke-linejoin="miter" fill="none" stroke="#9e0c0f" d="M177.33628 74.24144C177.33628 75.3419 176.44419 76.234 175.34372 76.234 174.24324 76.234 173.35117 75.3419 173.35117 74.24144 173.35117 73.14096 174.24324 72.24889 175.34372 72.24889 176.44419 72.24889 177.33628 73.14096 177.33628 74.24144ZM175.34372 74.24144"/>
<path transform="matrix(1.00003,0,0,-1.00002,1.4615555,208.02556)" d="M193.27661 115.48668C193.27661 116.58716 192.38452 117.47923 191.28406 117.47923 190.18358 117.47923 189.2915 116.58716 189.2915 115.48668 189.2915 114.38622 190.18358 113.49413 191.28406 113.49413 192.38452 113.49413 193.27661 114.38622 193.27661 115.48668ZM191.28406 115.48668" fill="#9e0c0f"/>
<path transform="matrix(1.00003,0,0,-1.00002,1.4615555,208.02556)" stroke-width=".3985" stroke-linecap="butt" stroke-miterlimit="10" stroke-linejoin="miter" fill="none" stroke="#9e0c0f" d="M193.27661 115.48668C193.27661 116.58716 192.38452 117.47923 191.28406 117.47923 190.18358 117.47923 189.2915 116.58716 189.2915 115.48668 189.2915 114.38622 190.18358 113.49413 191.28406 113.49413 192.38452 113.49413 193.27661 114.38622 193.27661 115.48668ZM191.28406 115.48668"/>
<path transform="matrix(1.00003,0,0,-1.00002,1.4615555,208.02556)" stroke-width=".3985" stroke-linecap="butt" stroke-miterlimit="10" stroke-linejoin="miter" fill="none" stroke="#9e0c0f" d=""/>
<use data-text="x" xlink:href="#font_4_1" transform="matrix(9.962899,0,0,-9.962799,231.35947,163.25966)"/>
<use data-text="y" xlink:href="#font_4_2" transform="matrix(9.962899,0,0,-9.962799,84.68606,9.604584)"/>
</svg>
