<svg xmlns="http://www.w3.org/2000/svg" xmlns:xlink="http://www.w3.org/1999/xlink" version="1.1" width="242" height="210" viewBox="0 0 242 210">
<defs>
<path id="font_1_1" d="M.69898989 .22743225C.71499636 .22743225 .7369995 .22743225 .7369995 .25042726 .7369995 .2734375 .71499636 .2734375 .69898989 .2734375H.12599182C.10998535 .2734375 .08799744 .2734375 .08799744 .25042726 .08799744 .22743225 .10998535 .22743225 .12599182 .22743225H.69898989Z"/>
<path id="font_2_2" d="M.31399537 .63708499C.31399537 .664032 .31199647 .66503909 .2849884 .66503909 .24398804 .6251831 .19099427 .6013489 .09599304 .6013489V.5683594C.12298584 .5683594 .1769867 .5683594 .23498535 .5953522V.08203125C.23498535 .04499817 .23199463 .032989503 .13699341 .032989503H.101989749V0C.14299011 .0029907227 .22898865 .0029907227 .27398683 .0029907227 .31900025 .0029907227 .4059906 .0029907227 .44699098 0V.032989503H.4119873C.31698609 .032989503 .31399537 .04499817 .31399537 .08203125V.63708499Z"/>
<path id="font_2_1" d="M.4889984 .31877137C.4889984 .42585755 .47799684 .49090577 .44499208 .55496218 .40098573 .6430359 .31999208 .66503909 .2649994 .66503909 .13899231 .66503909 .09298706 .5709839 .07899475 .5429535 .042999269 .4698944 .040985109 .3708191 .040985109 .31877137 .040985109 .25271607 .04399109 .15162659 .09199524 .07156372 .13798523-.0024871827 .21199036-.021484375 .2649994-.021484375 .31298829-.021484375 .39898683-.0064849855 .44898988 .09257507 .48599244 .16464234 .4889984 .2537079 .4889984 .31877137M.2649994 .006515503C.23098755 .006515503 .1619873 .022521973 .14099121 .12760926 .12998963 .18466187 .12998963 .2787323 .12998963 .33078004 .12998963 .3998413 .12998963 .4698944 .14099121 .5249481 .1619873 .6270294 .23999024 .6370239 .2649994 .6370239 .29899598 .6370239 .36799623 .62002566 .3880005 .5289459 .3999939 .4738922 .3999939 .39883424 .3999939 .33078004 .3999939 .27172853 .3999939 .18165589 .3880005 .12561035 .36698915 .020523072 .2979889 .006515503 .2649994 .006515503Z"/>
<path id="font_2_6" d="M.33198548 .36080934C.3880005 .38783265 .45599366 .4378662 .45599366 .5159302 .45599366 .6110077 .35899354 .66503909 .2659912 .66503909 .1599884 .66503909 .07398987 .59199526 .07398987 .49790956 .07398987 .46089173 .08699036 .42686463 .11199951 .39782716 .1289978 .3768158 .1329956 .3748169 .19499207 .3357849 .070999149 .2807312 .04399109 .20767212 .04399109 .15162659 .04399109 .041534425 .15499878-.021484375 .2639923-.021484375 .3869934-.021484375 .48599244 .061553956 .48599244 .16764832 .48599244 .23069763 .45199586 .2727356 .43598939 .28974916 .4189911 .30575563 .41799928 .3067627 .33198548 .36080934M.1769867 .45487977C.147995 .4718933 .12399292 .5009155 .12399292 .5359497 .12399292 .598999 .19299317 .6390381 .2639923 .6390381 .34199525 .6390381 .4059906 .5859833 .4059906 .5159302 .4059906 .45788575 .36099244 .408844 .3019867 .37982179L.1769867 .45487977M.22599793 .31776429C.22999573 .31576539 .34399415 .24571228 .36099244 .23469544 .3769989 .22569275 .42900086 .19366455 .42900086 .13360596 .42900086 .056549074 .34799195 .008514404 .2659912 .008514404 .1769867 .008514404 .100997928 .06956482 .100997928 .15162659 .100997928 .22668457 .15699768 .28573609 .22599793 .31776429Z"/>
<path id="font_2_5" d="M.13798523 .33073426C.13798523 .41377259 .14498902 .4868164 .18099976 .54782107 .21099854 .5978241 .2619934 .6390381 .32499696 .6390381 .34498597 .6390381 .3909912 .63601687 .4139862 .60084536 .36898805 .5988312 .36499024 .5648346 .36499024 .553833 .36499024 .5238342 .3880005 .50683596 .4119873 .50683596 .42999269 .50683596 .45899964 .51782229 .45899964 .5558319 .45899964 .615921 .4139862 .66503909 .32398988 .66503909 .18499756 .66503909 .04399109 .53282168 .04399109 .31672669 .04399109 .045532228 .16999817-.021484375 .2669983-.021484375 .31498719-.021484375 .36698915-.0084991459 .4119873 .03453064 .45199586 .07354736 .48599244 .11558533 .48599244 .20263672 .48599244 .33372499 .3869934 .42578126 .27598573 .42578126 .20399475 .42578126 .16099549 .37976075 .13798523 .33073426M.2669983 .008514404C.21398926 .008514404 .18099976 .045532228 .1659851 .07354736 .14299011 .11859131 .14099121 .18663025 .14099121 .22465515 .14099121 .32373048 .19499207 .3977661 .27198792 .3977661 .32199098 .3977661 .35198976 .37176515 .37098695 .33673097 .3919983 .29971314 .3919983 .25468446 .3919983 .2036438 .3919983 .15260315 .3919983 .10858154 .37199403 .07255554 .34599305 .026519776 .31098939 .008514404 .2669983 .008514404Z"/>
<path id="font_2_4" d="M.3939972 .6468048C.3939972 .6667938 .3939972 .6748047 .37298585 .6748047 .3600006 .6748047 .35899354 .6737976 .34899903 .65979006L.02999878 .197052V.1640625H.31199647V.08100891C.31199647 .04399109 .30899049 .032989503 .23199463 .032989503H.20899964V0C.2939911 .0029907227 .29599 .0029907227 .35299684 .0029907227 .4099884 .0029907227 .4119873 .0029907227 .49699403 0V.032989503H.47399903C.39698792 .032989503 .3939972 .04399109 .3939972 .08100891V.1640625H.5V.197052H.3939972V.6468048M.31900025 .5658417V.197052H.06498718L.31900025 .5658417Z"/>
<path id="font_2_3" d="M.28199769 .20405579C.2979889 .21907044 .33999635 .2520752 .35598756 .26608277 .41799928 .32312013 .47698976 .3781433 .47698976 .46917726 .47698976 .588089 .3769989 .66503909 .2519989 .66503909 .13198853 .66503909 .052993776 .57411196 .052993776 .48516847 .052993776 .4361725 .09199524 .4291687 .10598755 .4291687 .1269989 .4291687 .1579895 .4441681 .1579895 .48217774 .1579895 .5341797 .10798645 .5341797 .09599304 .5341797 .125 .6070709 .19198609 .6320343 .24099732 .6320343 .33399964 .6320343 .38198854 .55314639 .38198854 .46917726 .38198854 .36514283 .30899049 .28910829 .19099427 .16804505L.06498718 .037994386C.052993776 .026992798 .052993776 .024993897 .052993776 0H.44799806L.47698976 .17904663H.44599916C.44299317 .1590271 .43499757 .10900879 .4229889 .08999634 .4169922 .08198547 .34098817 .08198547 .32499696 .08198547H.14698792L.28199769 .20405579Z"/>
<clipPath id="clip_3">
<path transform="matrix(1.00005,0,0,-1.00002,1.4609223,208.11356)" d="M0 .08936H239.10645V206.31484H0Z"/>
</clipPath>
<path id="font_4_1" d="M.33399964 .30233766C.33999635 .32835389 .36299134 .42037965 .43299867 .42037965 .43798829 .42037965 .46199037 .42037965 .48298646 .40734864 .45498658 .402359 .43499757 .37734986 .43499757 .35334779 .43499757 .33735658 .44599916 .31835938 .47299195 .31835938 .49499513 .31835938 .5269928 .3363495 .5269928 .37635804 .5269928 .42837525 .46798707 .4423828 .43399049 .4423828 .37599183 .4423828 .34098817 .38935853 .32899476 .36634828 .3039856 .43237306 .25 .4423828 .22099304 .4423828 .116989139 .4423828 .05999756 .3133545 .05999756 .28834535 .05999756 .27833558 .069992069 .27833558 .07199097 .27833558 .07998657 .27833558 .08299255 .28033448 .084991458 .28933717 .11898804 .39535523 .18499756 .42037965 .21899414 .42037965 .23799134 .42037965 .272995 .4113617 .272995 .35334779 .272995 .32235719 .2559967 .25532533 .21899414 .11528015 .20298767 .053268434 .16799927 .011245728 .12399292 .011245728 .117996219 .011245728 .09498596 .011245728 .07398987 .024276734 .09899902 .029266358 .12098694 .05027771 .12098694 .07827759 .12098694 .105270389 .09899902 .11328125 .083999637 .11328125 .053985597 .11328125 .0289917 .08728027 .0289917 .055267335 .0289917 .009246826 .07899475-.0107421879 .12298584-.0107421879 .18899536-.0107421879 .22499085 .059280397 .22799683 .0652771 .23999024 .028274537 .27598573-.0107421879 .33599855-.0107421879 .43899537-.0107421879 .49598695 .118270877 .49598695 .14328003 .49598695 .1532898 .4869995 .1532898 .48399354 .1532898 .47499085 .1532898 .47299195 .14929199 .47099305 .14228821 .43798829 .03527832 .36999513 .011245728 .33799745 .011245728 .29899598 .011245728 .2829895 .043273927 .2829895 .07727051 .2829895 .09927368 .2889862 .121276859 .2999878 .16529846L.33399964 .30233766Z"/>
<path id="font_4_2" d="M.48599244 .38136292C.48999024 .39537049 .48999024 .39736939 .48999024 .40437318 .48999024 .42237855 .47599793 .43138124 .46099855 .43138124 .45098878 .43138124 .43499757 .42536927 .42599488 .41036988 .42399598 .405365 .41600038 .37435914 .4119873 .35635377 .40499879 .33035279 .397995 .30334474 .3919983 .27633668L.34700013 .09628296C.34298707 .08126831 .2999878 .011245728 .23399353 .011245728 .18299866 .011245728 .17199707 .055267335 .17199707 .0922699 .17199707 .1382904 .18899536 .20030213 .22299195 .28833009 .23899842 .3293457 .24299622 .3403473 .24299622 .36035157 .24299622 .405365 .21099854 .4423828 .16099549 .4423828 .06599426 .4423828 .0289917 .29733277 .0289917 .28833009 .0289917 .27833558 .038986207 .27833558 .040985109 .27833558 .050994874 .27833558 .051986696 .28033448 .056991579 .29634095 .083999637 .3903656 .12399292 .42037965 .1579895 .42037965 .1659851 .42037965 .18299866 .42037965 .18299866 .3883667 .18299866 .36335755 .17298889 .3373413 .1659851 .31834413 .12599182 .21231079 .10798645 .1552887 .10798645 .10827637 .10798645 .019256592 .17098999-.0107421879 .22999573-.0107421879 .2689972-.0107421879 .30299378 .0062561037 .33099366 .03425598 .31799317-.017745972 .30599977-.06674194 .2659912-.11973572 .23999024-.15385437 .20199585-.18309021 .1559906-.18309021 .14199829-.18309021 .09700012-.18005371 .07998657-.14074707 .09599304-.14074707 .10899353-.14074707 .12298584-.1287384 .1329956-.11973572 .14299011-.10673523 .14299011-.08773804 .14299011-.056747438 .115997318-.052734376 .10598755-.052734376 .08299255-.052734376 .049987794-.068740848 .049987794-.11773682 .049987794-.16796875 .09399414-.20507813 .1559906-.20507813 .25898744-.20507813 .3619995-.11373901 .3899994-.00074768069L.48599244 .38136292Z"/>
</defs>
<path transform="matrix(1.00005,0,0,-1.00002,1.4609223,208.11356)" d="M0 .08936H239.10645V206.31484H0Z" fill="#fffac2"/>
<path transform="matrix(1.00005,0,0,-1.00002,1.4609223,208.11356)" stroke-width=".3985" stroke-linecap="butt" stroke-miterlimit="10" stroke-linejoin="miter" fill="none" stroke="#d5d6d5" d="M9.96277 .08936V206.31484M29.8883 .08936V206.31484M49.81384 .08936V206.31484M69.73938 .08936V206.31484M89.66492 .08936V206.31484M109.59045 .08936V206.31484M129.51599 .08936V206.31484M149.44153 .08936V206.31484M169.36707 .08936V206.31484M189.2926 .08936V206.31484M209.21814 .08936V206.31484M229.14368 .08936V206.31484"/>
<path transform="matrix(1.00005,0,0,-1.00002,1.4609223,208.11356)" stroke-width=".3985" stroke-linecap="butt" stroke-miterlimit="10" stroke-linejoin="miter" fill="none" stroke="#d5d6d5" d="M19.92554 .08936V206.31484M39.85107 .08936V206.31484M59.77661 .08936V206.31484M79.70215 .08936V206.31484M99.62769 .08936V206.31484M139.47876 .08936V206.31484M159.4043 .08936V206.31484M179.32984 .08936V206.31484M199.25537 .08936V206.31484M219.18091 .08936V206.31484"/>
<path transform="matrix(1.00005,0,0,-1.00002,1.4609223,208.11356)" stroke-width=".3985" stroke-linecap="butt" stroke-miterlimit="10" stroke-linejoin="miter" fill="none" stroke="#d5d6d5" d="M0 .08936H239.10645M0 6.96353H239.10645M0 13.8377H239.10645M0 20.7119H239.10645M0 27.58607H239.10645M0 34.46027H239.10645M0 41.33444H239.10645M0 48.20863H239.10645M0 55.08281H239.10645M0 61.95699H239.10645M0 68.83118H239.10645M0 75.70535H239.10645M0 82.57954H239.10645M0 89.45372H239.10645M0 96.32791H239.10645M0 103.20209H239.10645M0 110.07628H239.10645M0 116.95045H239.10645M0 123.82463H239.10645M0 130.69882H239.10645M0 137.573H239.10645M0 144.44719H239.10645M0 151.32137H239.10645M0 158.19556H239.10645M0 165.06974H239.10645M0 171.94391H239.10645M0 178.8181H239.10645M0 185.69228H239.10645M0 192.56647H239.10645M0 199.44065H239.10645M0 206.31484H239.10645"/>
<path transform="matrix(1.00005,0,0,-1.00002,1.4609223,208.11356)" stroke-width=".3985" stroke-linecap="butt" stroke-miterlimit="10" stroke-linejoin="miter" fill="none" stroke="#d5d6d5" d="M0 20.7119H239.10645M0 48.20863H239.10645M0 75.70535H239.10645M0 130.69882H239.10645M0 158.19556H239.10645M0 185.69228H239.10645"/>
<path transform="matrix(1.00005,0,0,-1.00002,1.4609223,208.11356)" stroke-width=".19925" stroke-linecap="butt" stroke-miterlimit="10" stroke-linejoin="miter" fill="none" stroke="#929292" d="M9.96277 101.78477V104.61942M29.8883 101.78477V104.61942M49.81384 101.78477V104.61942M69.73938 101.78477V104.61942M89.66492 101.78477V104.61942M109.59045 101.78477V104.61942M129.51599 101.78477V104.61942M149.44153 101.78477V104.61942M169.36707 101.78477V104.61942M189.2926 101.78477V104.61942M209.21814 101.78477V104.61942M229.14368 101.78477V104.61942"/>
<path transform="matrix(1.00005,0,0,-1.00002,1.4609223,208.11356)" stroke-width=".19925" stroke-linecap="butt" stroke-miterlimit="10" stroke-linejoin="miter" fill="none" stroke="#929292" d="M19.92554 101.07632V105.32785M39.85107 101.07632V105.32785M59.77661 101.07632V105.32785M79.70215 101.07632V105.32785M99.62769 101.07632V105.32785M139.47876 101.07632V105.32785M159.4043 101.07632V105.32785M179.32984 101.07632V105.32785M199.25537 101.07632V105.32785M219.18091 101.07632V105.32785"/>
<path transform="matrix(1.00005,0,0,-1.00002,1.4609223,208.11356)" stroke-width=".19925" stroke-linecap="butt" stroke-miterlimit="10" stroke-linejoin="miter" fill="none" stroke="#929292" d="M118.1358 .08936H120.97064M118.1358 6.96353H120.97064M118.1358 13.8377H120.97064M118.1358 20.7119H120.97064M118.1358 27.58607H120.97064M118.1358 34.46027H120.97064M118.1358 41.33444H120.97064M118.1358 48.20863H120.97064M118.1358 55.08281H120.97064M118.1358 61.95699H120.97064M118.1358 68.83118H120.97064M118.1358 75.70535H120.97064M118.1358 82.57954H120.97064M118.1358 89.45372H120.97064M118.1358 96.32791H120.97064M118.1358 103.20209H120.97064M118.1358 110.07628H120.97064M118.1358 116.95045H120.97064M118.1358 123.82463H120.97064M118.1358 130.69882H120.97064M118.1358 137.573H120.97064M118.1358 144.44719H120.97064M118.1358 151.32137H120.97064M118.1358 158.19556H120.97064M118.1358 165.06974H120.97064M118.1358 171.94391H120.97064M118.1358 178.8181H120.97064M118.1358 185.69228H120.97064M118.1358 192.56647H120.97064M118.1358 199.44065H120.97064M118.1358 206.31484H120.97064"/>
<path transform="matrix(1.00005,0,0,-1.00002,1.4609223,208.11356)" stroke-width=".19925" stroke-linecap="butt" stroke-miterlimit="10" stroke-linejoin="miter" fill="none" stroke="#929292" d="M117.42729 20.7119H121.67914M117.42729 48.20863H121.67914M117.42729 75.70535H121.67914M117.42729 130.69882H121.67914M117.42729 158.19556H121.67914M117.42729 185.69228H121.67914"/>
<path transform="matrix(1.00005,0,0,-1.00002,1.4609223,208.11356)" stroke-width=".3985" stroke-linecap="butt" stroke-miterlimit="10" stroke-linejoin="miter" fill="none" stroke="#000000" d="M1.99252 103.20209H237.1139"/>
<path transform="matrix(-1.00005,-0,0,1.00002,3.4535418,104.9094)" d="M1.99252 0-1.19551 1.59401 0 0-1.19551-1.59401"/>
<path transform="matrix(1.00005,0,0,-1.00002,238.58667,104.9094)" d="M1.99252 0-1.19551 1.59401 0 0-1.19551-1.59401"/>
<path transform="matrix(1.00005,0,0,-1.00002,1.4609223,208.11356)" stroke-width=".3985" stroke-linecap="butt" stroke-miterlimit="10" stroke-linejoin="miter" fill="none" stroke="#000000" d="M119.55322 2.08188V204.32231"/>
<path transform="matrix(0,1.00002,1.00005,0,121.02012,206.03163)" d="M1.99252 0-1.19551 1.59401 0 0-1.19551-1.59401"/>
<path transform="matrix(0,-1.00002,-1.00005,-0,121.02012,3.7871552)" d="M1.99252 0-1.19551 1.59401 0 0-1.19551-1.59401"/>
<use data-text="&#x2212;" xlink:href="#font_1_1" transform="matrix(7.970498,0,0,-7.9702599,13.859541,115.6917)"/>
<use data-text="1" xlink:href="#font_2_2" transform="matrix(7.970498,0,0,-7.9702599,20.446869,115.6917)"/>
<use data-text="0" xlink:href="#font_2_1" transform="matrix(7.970498,0,0,-7.9702599,24.679203,115.6917)"/>
<use data-text="&#x2212;" xlink:href="#font_1_1" transform="matrix(7.970498,0,0,-7.9702599,35.903646,115.6917)"/>
<use data-text="8" xlink:href="#font_2_6" transform="matrix(7.970498,0,0,-7.9702599,42.490976,115.6917)"/>
<use data-text="&#x2212;" xlink:href="#font_1_1" transform="matrix(7.970498,0,0,-7.9702599,55.829645,115.6917)"/>
<use data-text="6" xlink:href="#font_2_5" transform="matrix(7.970498,0,0,-7.9702599,62.41697,115.6917)"/>
<use data-text="&#x2212;" xlink:href="#font_1_1" transform="matrix(7.970498,0,0,-7.9702599,75.75663,115.6917)"/>
<use data-text="4" xlink:href="#font_2_4" transform="matrix(7.970498,0,0,-7.9702599,82.343959,115.6917)"/>
<use data-text="&#x2212;" xlink:href="#font_1_1" transform="matrix(7.970498,0,0,-7.9702599,95.68263,115.6917)"/>
<use data-text="2" xlink:href="#font_2_3" transform="matrix(7.970498,0,0,-7.9702599,102.26996,115.6917)"/>
<use data-text="2" xlink:href="#font_2_3" transform="matrix(7.970498,0,0,-7.9702599,138.82979,115.6917)"/>
<use data-text="4" xlink:href="#font_2_4" transform="matrix(7.970498,0,0,-7.9702599,158.75579,115.6917)"/>
<use data-text="6" xlink:href="#font_2_5" transform="matrix(7.970498,0,0,-7.9702599,178.68277,115.6917)"/>
<use data-text="8" xlink:href="#font_2_6" transform="matrix(7.970498,0,0,-7.9702599,198.60877,115.6917)"/>
<use data-text="1" xlink:href="#font_2_2" transform="matrix(7.970498,0,0,-7.9702599,216.41867,115.6917)"/>
<use data-text="0" xlink:href="#font_2_1" transform="matrix(7.970498,0,0,-7.9702599,220.651,115.6917)"/>
<use data-text="&#x2212;" xlink:href="#font_1_1" transform="matrix(7.970498,0,0,-7.9702599,102.208957,189.55419)"/>
<use data-text="1" xlink:href="#font_2_2" transform="matrix(7.970498,0,0,-7.9702599,108.79628,189.55419)"/>
<use data-text="2" xlink:href="#font_2_3" transform="matrix(7.970498,0,0,-7.9702599,113.02861,189.55419)"/>
<use data-text="&#x2212;" xlink:href="#font_1_1" transform="matrix(7.970498,0,0,-7.9702599,106.44316,162.05664)"/>
<use data-text="8" xlink:href="#font_2_6" transform="matrix(7.970498,0,0,-7.9702599,113.03049,162.05664)"/>
<use data-text="&#x2212;" xlink:href="#font_1_1" transform="matrix(7.970498,0,0,-7.9702599,106.44316,134.56009)"/>
<use data-text="4" xlink:href="#font_2_4" transform="matrix(7.970498,0,0,-7.9702599,113.03049,134.56009)"/>
<use data-text="4" xlink:href="#font_2_4" transform="matrix(7.970498,0,0,-7.9702599,113.030498,79.979999)"/>
<use data-text="8" xlink:href="#font_2_6" transform="matrix(7.970498,0,0,-7.9702599,113.030498,52.483446)"/>
<use data-text="1" xlink:href="#font_2_2" transform="matrix(7.970498,0,0,-7.9702599,108.79629,24.9859)"/>
<use data-text="2" xlink:href="#font_2_3" transform="matrix(7.970498,0,0,-7.9702599,113.02862,24.9859)"/>
<g clip-path="url(#clip_3)">
<path transform="matrix(1.00005,0,0,-1.00002,1.4609223,208.11356)" stroke-width=".99628" stroke-linecap="butt" stroke-dasharray="2.98883,2.98883" stroke-miterlimit="10" stroke-linejoin="miter" fill="none" stroke="#929292" d="M79.20401 2.97856V203.42562"/>
<path transform="matrix(0,1.00002,1.00005,0,80.66889,205.13494)" d="M2.8892 0-1.73352 2.31136 0 0-1.73352-2.31136" fill="#929292"/>
<path transform="matrix(0,-1.00002,-1.00005,-0,80.66889,4.6838686)" d="M2.8892 0-1.73352 2.31136 0 0-1.73352-2.31136" fill="#929292"/>
<path transform="matrix(1.00005,0,0,-1.00002,1.4609223,208.11356)" stroke-width=".99628" stroke-linecap="butt" stroke-dasharray="2.98883,2.98883" stroke-miterlimit="10" stroke-linejoin="miter" fill="none" stroke="#929292" d="M179.82798 2.97856V203.42562"/>
<path transform="matrix(0,1.00002,1.00005,0,181.29788,205.13494)" d="M2.8892 0-1.73352 2.31136 0 0-1.73352-2.31136" fill="#929292"/>
<path transform="matrix(0,-1.00002,-1.00005,-0,181.29788,4.6838686)" d="M2.8892 0-1.73352 2.31136 0 0-1.73352-2.31136" fill="#929292"/>
<path transform="matrix(1.00005,0,0,-1.00002,1.4609223,208.11356)" stroke-width=".99628" stroke-linecap="butt" stroke-dasharray="2.98883,2.98883" stroke-miterlimit="10" stroke-linejoin="miter" fill="none" stroke="#929292" d="M2.8892 124.16835H236.21723"/>
<path transform="matrix(-1.00005,-0,0,1.00002,4.3502666,83.94272)" d="M2.8892 0-1.73352 2.31136 0 0-1.73352-2.31136" fill="#929292"/>
<path transform="matrix(1.00005,0,0,-1.00002,237.68994,83.94272)" d="M2.8892 0-1.73352 2.31136 0 0-1.73352-2.31136" fill="#929292"/>
<path transform="matrix(1.00005,0,0,-1.00002,1.4609223,208.11356)" stroke-width=".99628" stroke-linecap="butt" stroke-miterlimit="10" stroke-linejoin="miter" fill="none" stroke="#9e0c0f" d="M8.25797 124.0697C2.289 123.8927 2.289 123.8927 3.16815 123.92116 4.04729 123.94962 5.45717 123.99779 6.33632 124.02983 7.21545 124.06187 8.62532 124.11601 9.50447 124.15219 10.3836 124.18837 11.79349 124.24966 12.67264 124.2907 13.55179 124.33173 14.96164 124.40126 15.84079 124.448 16.71994 124.49472 18.1298 124.57413 19.00896 124.62755 19.8881 124.68097 21.29796 124.77185 22.17711 124.83307 23.05626 124.89429 24.46613 124.99818 25.34528 125.06886 26.22443 125.13953 27.6343 125.26044 28.51343 125.34245 29.39258 125.42447 30.80246 125.564 31.6816 125.66005 32.56075 125.75609 33.97061 125.92139 34.84975 126.03468 35.7289 126.14798 37.13878 126.34204 38.01791 126.4767 38.89706 126.61136 40.30693 126.84319 41.18608 127.00531 42.06522 127.16745 43.4751 127.44788 44.35425 127.64531 45.23338 127.84273 46.64325 128.18393 47.5224 128.42829 48.40154 128.67264 49.81142 129.09822 50.69057 129.40647 51.5697 129.71472 52.97957 130.2522 53.85872 130.65003 54.73787 131.04784 56.14774 131.74398 57.02689 132.2737 57.90604 132.80342 59.31589 133.73365 60.19504 134.46794 61.07419 135.20224 62.48405 136.48964 63.3632 137.56613 64.24236 138.64263 65.6522 140.50942 66.53136 142.22663 67.4105 143.94382 68.82039 146.78609 69.69952 149.94255 70.57867 153.09902 71.98854 157.15299 72.86768 164.97624 73.74683 172.7995 76.03584 206.32721 75.47308 198.08461"/>
<path transform="matrix(-.99955996,.029660594,.02966148,.99953,10.423479,84.02047)" d="M7.39124 0 2.37614 1.6717 .70447 0 2.37614-1.6717Z" fill="#9e0c0f"/>
<path transform="matrix(-.99955996,.029660594,.02966148,.99953,10.423479,84.02047)" stroke-width=".99628" stroke-linecap="butt" stroke-miterlimit="10" stroke-linejoin="miter" fill="none" stroke="#9e0c0f" d="M7.39124 0 2.37614 1.6717 .70447 0 2.37614-1.6717Z"/>
<path transform="matrix(.06812341,-.99767,-.99769988,-.068121369,76.88979,10.727829)" d="M7.39124 0 2.37614 1.6717 .70447 0 2.37614-1.6717Z" fill="#9e0c0f"/>
<path transform="matrix(.06812341,-.99767,-.99769988,-.068121369,76.88979,10.727829)" stroke-width=".99628" stroke-linecap="butt" stroke-miterlimit="10" stroke-linejoin="miter" fill="none" stroke="#9e0c0f" d="M7.39124 0 2.37614 1.6717 .70447 0 2.37614-1.6717Z"/>
<path transform="matrix(1.00005,0,0,-1.00002,1.4609223,208.11356)" stroke-width=".99628" stroke-linecap="butt" stroke-miterlimit="10" stroke-linejoin="miter" fill="none" stroke="#9e0c0f" d="M82.94481 8.2513C85.26025 54.47343 85.26025 54.47343 86.30829 66.11107 87.35631 77.7487 89.03697 80.2903 90.085 83.876 91.13303 87.46172 92.8137 90.21074 93.86172 91.95435 94.90973 93.69795 96.59041 95.43854 97.63843 96.44272 98.68643 97.44688 100.36711 98.56616 101.41515 99.19173 102.46317 99.81729 104.14383 100.55057 105.19186 100.95132 106.23988 101.35208 107.92055 101.8281 108.96858 102.0801 110.0166 102.33209 111.6973 102.62337 112.7453 102.76765 113.7933 102.91196 115.474 103.06056 116.522 103.12016 117.57 103.17978 119.2507 103.20981 120.29872 103.19731 121.34674 103.18481 123.02742 103.10892 124.07544 103.03008 125.12346 102.95125 126.80414 102.77364 127.85216 102.62906 128.90018 102.4845 130.58087 102.2024 131.62888 101.98802 132.67688 101.77367 134.35758 101.37721 135.40558 101.084 136.45359 100.79079 138.13428 100.26215 139.1823 99.87471 140.23032 99.48727 141.911 98.79756 142.95902 98.2916 144.00704 97.78563 145.68772 96.89063 146.73574 96.22795 147.78377 95.56528 149.46445 94.39632 150.51245 93.51547 151.56047 92.63464 153.24115 91.08243 154.28916 89.87952 155.33718 88.6766 157.01786 86.5596 158.06587 84.84561 159.1139 83.13162 160.79457 80.1339 161.84259 77.52618 162.89063 74.91849 164.57129 70.46664 165.61931 66.05106 166.66735 61.63545 168.34803 54.84126 169.39603 45.70161 170.44405 36.56195 173.17273 .17873 172.55501 8.41716"/>
<path transform="matrix(-.0500225,.99872007,.9987499,.050021005,84.44512,199.15853)" d="M7.39124 0 2.37614 1.6717 .70447 0 2.37614-1.6717Z" fill="#9e0c0f"/>
<path transform="matrix(-.0500225,.99872007,.9987499,.050021005,84.44512,199.15853)" stroke-width=".99628" stroke-linecap="butt" stroke-miterlimit="10" stroke-linejoin="miter" fill="none" stroke="#9e0c0f" d="M7.39124 0 2.37614 1.6717 .70447 0 2.37614-1.6717Z"/>
<path transform="matrix(.07477374,.99717,.99719986,-.0747715,173.97188,198.99375)" d="M7.39124 0 2.37614 1.6717 .70447 0 2.37614-1.6717Z" fill="#9e0c0f"/>
<path transform="matrix(.07477374,.99717,.99719986,-.0747715,173.97188,198.99375)" stroke-width=".99628" stroke-linecap="butt" stroke-miterlimit="10" stroke-linejoin="miter" fill="none" stroke="#9e0c0f" d="M7.39124 0 2.37614 1.6717 .70447 0 2.37614-1.6717Z"/>
<path transform="matrix(1.00005,0,0,-1.00002,1.4609223,208.11356)" stroke-width=".99628" stroke-linecap="butt" stroke-miterlimit="10" stroke-linejoin="miter" fill="none" stroke="#9e0c0f" d="M188.95264 198.11782C189.51671 193.37245 189.51671 193.37245 190.10787 189.47103 190.69902 185.56958 191.64707 180.88507 192.23822 178.20287 192.82938 175.52065 193.77742 172.09745 194.36858 170.13944 194.95975 168.18144 195.90778 165.58304 196.49895 164.09087 197.0901 162.59868 198.03815 160.55956 198.6293 159.38478 199.22046 158.21002 200.1685 156.57216 200.75966 155.62392 201.35082 154.67569 202.29886 153.33191 202.89002 152.55048 203.48119 151.76905 204.42922 150.64665 205.02039 149.9919 205.61154 149.33713 206.55959 148.3876 207.15074 147.83136 207.7419 147.27512 208.68993 146.46118 209.28108 145.98288 209.87224 145.50457 210.82028 144.7994 211.41144 144.38394 212.00261 143.96849 212.95064 143.35265 213.54181 142.9885 214.13297 142.62435 215.08101 142.08118 215.67217 141.75939 216.26332 141.43759 217.21137 140.95526 217.80252 140.66913 218.39368 140.383 219.34172 139.9532 219.93288 139.69713 220.52405 139.44106 221.47208 139.05396 222.06325 138.82343 222.6544 138.5929 223.60245 138.24404 224.1936 138.03565 224.78476 137.82726 225.7328 137.51073 226.32396 137.32141 226.91512 137.13208 227.86316 136.84384 228.45432 136.67111 229.04549 136.49839 229.9935 136.23471 230.58467 136.07649 231.17583 135.91828 232.12387 135.67595 232.71503 135.53069 233.30619 135.38544 234.25423 135.16345 234.84539 135.02956 235.43654 134.89566 236.38459 134.68953 236.97574 134.56555 237.56691 134.44156 239.10611 134.13591 231.00257 135.74442"/>
<path transform="matrix(-.11803589,-.9929899,-.9930196,.11803236,190.50615,10.69133)" d="M7.39124 0 2.37614 1.6717 .70447 0 2.37614-1.6717Z" fill="#9e0c0f"/>
<path transform="matrix(-.11803589,-.9929899,-.9930196,.11803236,190.50615,10.69133)" stroke-width=".99628" stroke-linecap="butt" stroke-miterlimit="10" stroke-linejoin="miter" fill="none" stroke="#9e0c0f" d="M7.39124 0 2.37614 1.6717 .70447 0 2.37614-1.6717Z"/>
<path transform="matrix(.980869,.19469391,.19469974,-.98083969,231.78401,72.22928)" d="M7.39124 0 2.37614 1.6717 .70447 0 2.37614-1.6717Z" fill="#9e0c0f"/>
<path transform="matrix(.980869,.19469391,.19469974,-.98083969,231.78401,72.22928)" stroke-width=".99628" stroke-linecap="butt" stroke-miterlimit="10" stroke-linejoin="miter" fill="none" stroke="#9e0c0f" d="M7.39124 0 2.37614 1.6717 .70447 0 2.37614-1.6717Z"/>
</g>
<path transform="matrix(1.00005,0,0,-1.00002,1.4609223,208.11356)" d="M21.91809 124.68391C21.91809 125.78438 21.026 126.67647 19.92554 126.67647 18.82506 126.67647 17.93298 125.78438 17.93298 124.68391 17.93298 123.58344 18.82506 122.69136 19.92554 122.69136 21.026 122.69136 21.91809 123.58344 21.91809 124.68391ZM19.92554 124.68391" fill="#9e0c0f"/>
<path transform="matrix(1.00005,0,0,-1.00002,1.4609223,208.11356)" stroke-width=".3985" stroke-linecap="butt" stroke-miterlimit="10" stroke-linejoin="miter" fill="none" stroke="#9e0c0f" d="M21.91809 124.68391C21.91809 125.78438 21.026 126.67647 19.92554 126.67647 18.82506 126.67647 17.93298 125.78438 17.93298 124.68391 17.93298 123.58344 18.82506 122.69136 19.92554 122.69136 21.026 122.69136 21.91809 123.58344 21.91809 124.68391ZM19.92554 124.68391"/>
<path transform="matrix(1.00005,0,0,-1.00002,1.4609223,208.11356)" d="M31.88086 125.47444C31.88086 126.57492 30.98877 127.467 29.8883 127.467 28.78783 127.467 27.89575 126.57492 27.89575 125.47444 27.89575 124.37398 28.78783 123.48189 29.8883 123.48189 30.98877 123.48189 31.88086 124.37398 31.88086 125.47444ZM29.8883 125.47444" fill="#9e0c0f"/>
<path transform="matrix(1.00005,0,0,-1.00002,1.4609223,208.11356)" stroke-width=".3985" stroke-linecap="butt" stroke-miterlimit="10" stroke-linejoin="miter" fill="none" stroke="#9e0c0f" d="M31.88086 125.47444C31.88086 126.57492 30.98877 127.467 29.8883 127.467 28.78783 127.467 27.89575 126.57492 27.89575 125.47444 27.89575 124.37398 28.78783 123.48189 29.8883 123.48189 30.98877 123.48189 31.88086 124.37398 31.88086 125.47444ZM29.8883 125.47444"/>
<path transform="matrix(1.00005,0,0,-1.00002,1.4609223,208.11356)" d="M41.84363 127.1655C41.84363 128.26598 40.95154 129.15805 39.85107 129.15805 38.7506 129.15805 37.85852 128.26598 37.85852 127.1655 37.85852 126.06503 38.7506 125.17294 39.85107 125.17294 40.95154 125.17294 41.84363 126.06503 41.84363 127.1655ZM39.85107 127.1655" fill="#9e0c0f"/>
<path transform="matrix(1.00005,0,0,-1.00002,1.4609223,208.11356)" stroke-width=".3985" stroke-linecap="butt" stroke-miterlimit="10" stroke-linejoin="miter" fill="none" stroke="#9e0c0f" d="M41.84363 127.1655C41.84363 128.26598 40.95154 129.15805 39.85107 129.15805 38.7506 129.15805 37.85852 128.26598 37.85852 127.1655 37.85852 126.06503 38.7506 125.17294 39.85107 125.17294 40.95154 125.17294 41.84363 126.06503 41.84363 127.1655ZM39.85107 127.1655"/>
<path transform="matrix(1.00005,0,0,-1.00002,1.4609223,208.11356)" d="M51.8064 129.11089C51.8064 130.21135 50.9143 131.10344 49.81384 131.10344 48.71336 131.10344 47.82129 130.21135 47.82129 129.11089 47.82129 128.0104 48.71336 127.11833 49.81384 127.11833 50.9143 127.11833 51.8064 128.0104 51.8064 129.11089ZM49.81384 129.11089" fill="#9e0c0f"/>
<path transform="matrix(1.00005,0,0,-1.00002,1.4609223,208.11356)" stroke-width=".3985" stroke-linecap="butt" stroke-miterlimit="10" stroke-linejoin="miter" fill="none" stroke="#9e0c0f" d="M51.8064 129.11089C51.8064 130.21135 50.9143 131.10344 49.81384 131.10344 48.71336 131.10344 47.82129 130.21135 47.82129 129.11089 47.82129 128.0104 48.71336 127.11833 49.81384 127.11833 50.9143 127.11833 51.8064 128.0104 51.8064 129.11089ZM49.81384 129.11089"/>
<path transform="matrix(1.00005,0,0,-1.00002,1.4609223,208.11356)" d="M61.76917 134.13591C61.76917 135.23639 60.87708 136.12847 59.77661 136.12847 58.67613 136.12847 57.78406 135.23639 57.78406 134.13591 57.78406 133.03545 58.67613 132.14336 59.77661 132.14336 60.87708 132.14336 61.76917 133.03545 61.76917 134.13591ZM59.77661 134.13591" fill="#9e0c0f"/>
<path transform="matrix(1.00005,0,0,-1.00002,1.4609223,208.11356)" stroke-width=".3985" stroke-linecap="butt" stroke-miterlimit="10" stroke-linejoin="miter" fill="none" stroke="#9e0c0f" d="M61.76917 134.13591C61.76917 135.23639 60.87708 136.12847 59.77661 136.12847 58.67613 136.12847 57.78406 135.23639 57.78406 134.13591 57.78406 133.03545 58.67613 132.14336 59.77661 132.14336 60.87708 132.14336 61.76917 133.03545 61.76917 134.13591ZM59.77661 134.13591"/>
<path transform="matrix(1.00005,0,0,-1.00002,1.4609223,208.11356)" d="M71.73193 150.07027C71.73193 151.17073 70.83984 152.06282 69.73938 152.06282 68.6389 152.06282 67.74683 151.17073 67.74683 150.07027 67.74683 148.96979 68.6389 148.07772 69.73938 148.07772 70.83984 148.07772 71.73193 148.96979 71.73193 150.07027ZM69.73938 150.07027" fill="#9e0c0f"/>
<path transform="matrix(1.00005,0,0,-1.00002,1.4609223,208.11356)" stroke-width=".3985" stroke-linecap="butt" stroke-miterlimit="10" stroke-linejoin="miter" fill="none" stroke="#9e0c0f" d="M71.73193 150.07027C71.73193 151.17073 70.83984 152.06282 69.73938 152.06282 68.6389 152.06282 67.74683 151.17073 67.74683 150.07027 67.74683 148.96979 68.6389 148.07772 69.73938 148.07772 70.83984 148.07772 71.73193 148.96979 71.73193 150.07027ZM69.73938 150.07027"/>
<path transform="matrix(1.00005,0,0,-1.00002,1.4609223,208.11356)" d="M91.65747 82.57954C91.65747 83.68001 90.76538 84.5721 89.66492 84.5721 88.56444 84.5721 87.67236 83.68001 87.67236 82.57954 87.67236 81.47906 88.56444 80.58699 89.66492 80.58699 90.76538 80.58699 91.65747 81.47906 91.65747 82.57954ZM89.66492 82.57954" fill="#9e0c0f"/>
<path transform="matrix(1.00005,0,0,-1.00002,1.4609223,208.11356)" stroke-width=".3985" stroke-linecap="butt" stroke-miterlimit="10" stroke-linejoin="miter" fill="none" stroke="#9e0c0f" d="M91.65747 82.57954C91.65747 83.68001 90.76538 84.5721 89.66492 84.5721 88.56444 84.5721 87.67236 83.68001 87.67236 82.57954 87.67236 81.47906 88.56444 80.58699 89.66492 80.58699 90.76538 80.58699 91.65747 81.47906 91.65747 82.57954ZM89.66492 82.57954"/>
<path transform="matrix(1.00005,0,0,-1.00002,1.4609223,208.11356)" d="M101.62024 98.04646C101.62024 99.14693 100.72815 100.03902 99.62769 100.03902 98.5272 100.03902 97.63513 99.14693 97.63513 98.04646 97.63513 96.94598 98.5272 96.05391 99.62769 96.05391 100.72815 96.05391 101.62024 96.94598 101.62024 98.04646ZM99.62769 98.04646" fill="#9e0c0f"/>
<path transform="matrix(1.00005,0,0,-1.00002,1.4609223,208.11356)" stroke-width=".3985" stroke-linecap="butt" stroke-miterlimit="10" stroke-linejoin="miter" fill="none" stroke="#9e0c0f" d="M101.62024 98.04646C101.62024 99.14693 100.72815 100.03902 99.62769 100.03902 98.5272 100.03902 97.63513 99.14693 97.63513 98.04646 97.63513 96.94598 98.5272 96.05391 99.62769 96.05391 100.72815 96.05391 101.62024 96.94598 101.62024 98.04646ZM99.62769 98.04646"/>
<path transform="matrix(1.00005,0,0,-1.00002,1.4609223,208.11356)" d="M111.58301 102.21909C111.58301 103.31955 110.69092 104.21164 109.59045 104.21164 108.48997 104.21164 107.5979 103.31955 107.5979 102.21909 107.5979 101.1186 108.48997 100.22653 109.59045 100.22653 110.69092 100.22653 111.58301 101.1186 111.58301 102.21909ZM109.59045 102.21909" fill="#9e0c0f"/>
<path transform="matrix(1.00005,0,0,-1.00002,1.4609223,208.11356)" stroke-width=".3985" stroke-linecap="butt" stroke-miterlimit="10" stroke-linejoin="miter" fill="none" stroke="#9e0c0f" d="M111.58301 102.21909C111.58301 103.31955 110.69092 104.21164 109.59045 104.21164 108.48997 104.21164 107.5979 103.31955 107.5979 102.21909 107.5979 101.1186 108.48997 100.22653 109.59045 100.22653 110.69092 100.22653 111.58301 101.1186 111.58301 102.21909ZM109.59045 102.21909"/>
<path transform="matrix(1.00005,0,0,-1.00002,1.4609223,208.11356)" d="M121.54578 103.20209C121.54578 104.30257 120.65369 105.19464 119.55322 105.19464 118.45274 105.19464 117.56067 104.30257 117.56067 103.20209 117.56067 102.10162 118.45274 101.20953 119.55322 101.20953 120.65369 101.20953 121.54578 102.10162 121.54578 103.20209ZM119.55322 103.20209" fill="#9e0c0f"/>
<path transform="matrix(1.00005,0,0,-1.00002,1.4609223,208.11356)" stroke-width=".3985" stroke-linecap="butt" stroke-miterlimit="10" stroke-linejoin="miter" fill="none" stroke="#9e0c0f" d="M121.54578 103.20209C121.54578 104.30257 120.65369 105.19464 119.55322 105.19464 118.45274 105.19464 117.56067 104.30257 117.56067 103.20209 117.56067 102.10162 118.45274 101.20953 119.55322 101.20953 120.65369 101.20953 121.54578 102.10162 121.54578 103.20209ZM119.55322 103.20209"/>
<path transform="matrix(1.00005,0,0,-1.00002,1.4609223,208.11356)" d="M131.50855 102.3772C131.50855 103.47768 130.61646 104.36975 129.51599 104.36975 128.41551 104.36975 127.52344 103.47768 127.52344 102.3772 127.52344 101.27673 128.41551 100.38464 129.51599 100.38464 130.61646 100.38464 131.50855 101.27673 131.50855 102.3772ZM129.51599 102.3772" fill="#9e0c0f"/>
<path transform="matrix(1.00005,0,0,-1.00002,1.4609223,208.11356)" stroke-width=".3985" stroke-linecap="butt" stroke-miterlimit="10" stroke-linejoin="miter" fill="none" stroke="#9e0c0f" d="M131.50855 102.3772C131.50855 103.47768 130.61646 104.36975 129.51599 104.36975 128.41551 104.36975 127.52344 103.47768 127.52344 102.3772 127.52344 101.27673 128.41551 100.38464 129.51599 100.38464 130.61646 100.38464 131.50855 101.27673 131.50855 102.3772ZM129.51599 102.3772"/>
<path transform="matrix(1.00005,0,0,-1.00002,1.4609223,208.11356)" d="M141.47132 99.765C141.47132 100.86546 140.57923 101.75755 139.47876 101.75755 138.37828 101.75755 137.4862 100.86546 137.4862 99.765 137.4862 98.66452 138.37828 97.77245 139.47876 97.77245 140.57923 97.77245 141.47132 98.66452 141.47132 99.765ZM139.47876 99.765" fill="#9e0c0f"/>
<path transform="matrix(1.00005,0,0,-1.00002,1.4609223,208.11356)" stroke-width=".3985" stroke-linecap="butt" stroke-miterlimit="10" stroke-linejoin="miter" fill="none" stroke="#9e0c0f" d="M141.47132 99.765C141.47132 100.86546 140.57923 101.75755 139.47876 101.75755 138.37828 101.75755 137.4862 100.86546 137.4862 99.765 137.4862 98.66452 138.37828 97.77245 139.47876 97.77245 140.57923 97.77245 141.47132 98.66452 141.47132 99.765ZM139.47876 99.765"/>
<path transform="matrix(1.00005,0,0,-1.00002,1.4609223,208.11356)" d="M151.43408 94.3619C151.43408 95.46237 150.54199 96.35445 149.44153 96.35445 148.34105 96.35445 147.44898 95.46237 147.44898 94.3619 147.44898 93.26143 148.34105 92.36934 149.44153 92.36934 150.54199 92.36934 151.43408 93.26143 151.43408 94.3619ZM149.44153 94.3619" fill="#9e0c0f"/>
<path transform="matrix(1.00005,0,0,-1.00002,1.4609223,208.11356)" stroke-width=".3985" stroke-linecap="butt" stroke-miterlimit="10" stroke-linejoin="miter" fill="none" stroke="#9e0c0f" d="M151.43408 94.3619C151.43408 95.46237 150.54199 96.35445 149.44153 96.35445 148.34105 96.35445 147.44898 95.46237 147.44898 94.3619 147.44898 93.26143 148.34105 92.36934 149.44153 92.36934 150.54199 92.36934 151.43408 93.26143 151.43408 94.3619ZM149.44153 94.3619"/>
<path transform="matrix(1.00005,0,0,-1.00002,1.4609223,208.11356)" d="M161.39685 82.57954C161.39685 83.68001 160.50476 84.5721 159.4043 84.5721 158.30382 84.5721 157.41175 83.68001 157.41175 82.57954 157.41175 81.47906 158.30382 80.58699 159.4043 80.58699 160.50476 80.58699 161.39685 81.47906 161.39685 82.57954ZM159.4043 82.57954" fill="#9e0c0f"/>
<path transform="matrix(1.00005,0,0,-1.00002,1.4609223,208.11356)" stroke-width=".3985" stroke-linecap="butt" stroke-miterlimit="10" stroke-linejoin="miter" fill="none" stroke="#9e0c0f" d="M161.39685 82.57954C161.39685 83.68001 160.50476 84.5721 159.4043 84.5721 158.30382 84.5721 157.41175 83.68001 157.41175 82.57954 157.41175 81.47906 158.30382 80.58699 159.4043 80.58699 160.50476 80.58699 161.39685 81.47906 161.39685 82.57954ZM159.4043 82.57954"/>
<path transform="matrix(1.00005,0,0,-1.00002,1.4609223,208.11356)" d="M171.35962 45.91953C171.35962 47.02 170.46753 47.91208 169.36707 47.91208 168.26659 47.91208 167.37451 47.02 167.37451 45.91953 167.37451 44.81906 168.26659 43.92697 169.36707 43.92697 170.46753 43.92697 171.35962 44.81906 171.35962 45.91953ZM169.36707 45.91953" fill="#9e0c0f"/>
<path transform="matrix(1.00005,0,0,-1.00002,1.4609223,208.11356)" stroke-width=".3985" stroke-linecap="butt" stroke-miterlimit="10" stroke-linejoin="miter" fill="none" stroke="#9e0c0f" d="M171.35962 45.91953C171.35962 47.02 170.46753 47.91208 169.36707 47.91208 168.26659 47.91208 167.37451 47.02 167.37451 45.91953 167.37451 44.81906 168.26659 43.92697 169.36707 43.92697 170.46753 43.92697 171.35962 44.81906 171.35962 45.91953ZM169.36707 45.91953"/>
<path transform="matrix(1.00005,0,0,-1.00002,1.4609223,208.11356)" d="M191.28516 195.06867C191.28516 196.16913 190.39307 197.06122 189.2926 197.06122 188.19213 197.06122 187.30005 196.16913 187.30005 195.06867 187.30005 193.96819 188.19213 193.07611 189.2926 193.07611 190.39307 193.07611 191.28516 193.96819 191.28516 195.06867ZM189.2926 195.06867" fill="#9e0c0f"/>
<path transform="matrix(1.00005,0,0,-1.00002,1.4609223,208.11356)" stroke-width=".3985" stroke-linecap="butt" stroke-miterlimit="10" stroke-linejoin="miter" fill="none" stroke="#9e0c0f" d="M191.28516 195.06867C191.28516 196.16913 190.39307 197.06122 189.2926 197.06122 188.19213 197.06122 187.30005 196.16913 187.30005 195.06867 187.30005 193.96819 188.19213 193.07611 189.2926 193.07611 190.39307 193.07611 191.28516 193.96819 191.28516 195.06867ZM189.2926 195.06867"/>
<path transform="matrix(1.00005,0,0,-1.00002,1.4609223,208.11356)" d="M201.24793 158.19556C201.24793 159.29602 200.35584 160.18811 199.25537 160.18811 198.15489 160.18811 197.26282 159.29602 197.26282 158.19556 197.26282 157.09508 198.15489 156.203 199.25537 156.203 200.35584 156.203 201.24793 157.09508 201.24793 158.19556ZM199.25537 158.19556" fill="#9e0c0f"/>
<path transform="matrix(1.00005,0,0,-1.00002,1.4609223,208.11356)" stroke-width=".3985" stroke-linecap="butt" stroke-miterlimit="10" stroke-linejoin="miter" fill="none" stroke="#9e0c0f" d="M201.24793 158.19556C201.24793 159.29602 200.35584 160.18811 199.25537 160.18811 198.15489 160.18811 197.26282 159.29602 197.26282 158.19556 197.26282 157.09508 198.15489 156.203 199.25537 156.203 200.35584 156.203 201.24793 157.09508 201.24793 158.19556ZM199.25537 158.19556"/>
<path transform="matrix(1.00005,0,0,-1.00002,1.4609223,208.11356)" d="M211.2107 146.03513C211.2107 147.13559 210.3186 148.02768 209.21814 148.02768 208.11766 148.02768 207.22559 147.13559 207.22559 146.03513 207.22559 144.93465 208.11766 144.04257 209.21814 144.04257 210.3186 144.04257 211.2107 144.93465 211.2107 146.03513ZM209.21814 146.03513" fill="#9e0c0f"/>
<path transform="matrix(1.00005,0,0,-1.00002,1.4609223,208.11356)" stroke-width=".3985" stroke-linecap="butt" stroke-miterlimit="10" stroke-linejoin="miter" fill="none" stroke="#9e0c0f" d="M211.2107 146.03513C211.2107 147.13559 210.3186 148.02768 209.21814 148.02768 208.11766 148.02768 207.22559 147.13559 207.22559 146.03513 207.22559 144.93465 208.11766 144.04257 209.21814 144.04257 210.3186 144.04257 211.2107 144.93465 211.2107 146.03513ZM209.21814 146.03513"/>
<path transform="matrix(1.00005,0,0,-1.00002,1.4609223,208.11356)" d="M221.17346 140.02709C221.17346 141.12757 220.28137 142.01964 219.18091 142.01964 218.08043 142.01964 217.18836 141.12757 217.18836 140.02709 217.18836 138.92662 218.08043 138.03453 219.18091 138.03453 220.28137 138.03453 221.17346 138.92662 221.17346 140.02709ZM219.18091 140.02709" fill="#9e0c0f"/>
<path transform="matrix(1.00005,0,0,-1.00002,1.4609223,208.11356)" stroke-width=".3985" stroke-linecap="butt" stroke-miterlimit="10" stroke-linejoin="miter" fill="none" stroke="#9e0c0f" d="M221.17346 140.02709C221.17346 141.12757 220.28137 142.01964 219.18091 142.01964 218.08043 142.01964 217.18836 141.12757 217.18836 140.02709 217.18836 138.92662 218.08043 138.03453 219.18091 138.03453 220.28137 138.03453 221.17346 138.92662 221.17346 140.02709ZM219.18091 140.02709"/>
<path transform="matrix(1.00005,0,0,-1.00002,1.4609223,208.11356)" stroke-width=".3985" stroke-linecap="butt" stroke-miterlimit="10" stroke-linejoin="miter" fill="none" stroke="#9e0c0f" d=""/>
<use data-text="x" xlink:href="#font_4_1" transform="matrix(9.963098,0,0,-9.962799,231.36542,101.38942)"/>
<use data-text="y" xlink:href="#font_4_2" transform="matrix(9.963098,0,0,-9.962799,124.54007,9.603577)"/>
</svg>
