<svg xmlns="http://www.w3.org/2000/svg" xmlns:xlink="http://www.w3.org/1999/xlink" version="1.1" width="242" height="209" viewBox="0 0 242 209">
<defs>
<path id="font_1_2" d="M.31399537 .63708499C.31399537 .664032 .31199647 .66503909 .2849884 .66503909 .24398804 .6251831 .19099427 .6013489 .09599304 .6013489V.5683594C.12298584 .5683594 .1769867 .5683594 .23498535 .5953522V.08203125C.23498535 .04499817 .23199463 .032989503 .13699341 .032989503H.101989749V0C.14299011 .0029907227 .22898865 .0029907227 .27398683 .0029907227 .31900025 .0029907227 .4059906 .0029907227 .44699098 0V.032989503H.4119873C.31698609 .032989503 .31399537 .04499817 .31399537 .08203125V.63708499Z"/>
<path id="font_1_3" d="M.28199769 .20405579C.2979889 .21907044 .33999635 .2520752 .35598756 .26608277 .41799928 .32312013 .47698976 .3781433 .47698976 .46917726 .47698976 .588089 .3769989 .66503909 .2519989 .66503909 .13198853 .66503909 .052993776 .57411196 .052993776 .48516847 .052993776 .4361725 .09199524 .4291687 .10598755 .4291687 .1269989 .4291687 .1579895 .4441681 .1579895 .48217774 .1579895 .5341797 .10798645 .5341797 .09599304 .5341797 .125 .6070709 .19198609 .6320343 .24099732 .6320343 .33399964 .6320343 .38198854 .55314639 .38198854 .46917726 .38198854 .36514283 .30899049 .28910829 .19099427 .16804505L.06498718 .037994386C.052993776 .026992798 .052993776 .024993897 .052993776 0H.44799806L.47698976 .17904663H.44599916C.44299317 .1590271 .43499757 .10900879 .4229889 .08999634 .4169922 .08198547 .34098817 .08198547 .32499696 .08198547H.14698792L.28199769 .20405579Z"/>
<path id="font_1_4" d="M.25299073 .33370973C.33198548 .33370973 .38198854 .27557374 .38198854 .17037964 .38198854 .045440675 .31098939 .008514404 .2579956 .008514404 .20298767 .008514404 .12799073 .0284729 .09298706 .08137512 .1289978 .08137512 .1539917 .10437012 .1539917 .13737488 .1539917 .16937256 .1309967 .19238281 .09899902 .19238281 .07199097 .19238281 .04399109 .17536927 .04399109 .13537598 .04399109 .04045105 .1459961-.021484375 .2599945-.021484375 .3929901-.021484375 .48599244 .070388797 .48599244 .17037964 .48599244 .25352479 .41999818 .32969667 .31799317 .3517456 .39698792 .37982179 .45599366 .4479828 .45599366 .52804568 .45599366 .6080475 .3659973 .66503909 .2619934 .66503909 .15499878 .66503909 .07398987 .6070404 .07398987 .53105166 .07398987 .49404908 .09899902 .4780426 .125 .4780426 .1559906 .4780426 .17599488 .5000458 .17599488 .52905276 .17599488 .56604006 .14399719 .5800476 .12199402 .5810547 .1639862 .6360321 .24099732 .6390381 .25898744 .6390381 .2849884 .6390381 .36099244 .6310272 .36099244 .52804568 .36099244 .45799256 .33198548 .41589356 .31799317 .39985658 .28799439 .36878968 .2649994 .36679078 .20399475 .3627777 .18499756 .36177064 .1769867 .36076356 .1769867 .3477478 .1769867 .33370973 .18598938 .33370973 .20298767 .33370973H.25299073Z"/>
<path id="font_1_5" d="M.3939972 .6468048C.3939972 .6667938 .3939972 .6748047 .37298585 .6748047 .3600006 .6748047 .35899354 .6737976 .34899903 .65979006L.02999878 .197052V.1640625H.31199647V.08100891C.31199647 .04399109 .30899049 .032989503 .23199463 .032989503H.20899964V0C.2939911 .0029907227 .29599 .0029907227 .35299684 .0029907227 .4099884 .0029907227 .4119873 .0029907227 .49699403 0V.032989503H.47399903C.39698792 .032989503 .3939972 .04399109 .3939972 .08100891V.1640625H.5V.197052H.3939972V.6468048M.31900025 .5658417V.197052H.06498718L.31900025 .5658417Z"/>
<path id="font_1_6" d="M.13999939 .5618439C.15299988 .55784609 .19299317 .54785159 .23498535 .54785159 .3600006 .54785159 .43598939 .6358948 .43598939 .6510315 .43598939 .6620331 .42900086 .66503909 .42399598 .66503909 .42199708 .66503909 .41999818 .66503909 .41099549 .6600342 .37199403 .6450348 .32598878 .632843 .27198792 .632843 .21299744 .632843 .1639862 .6480255 .1329956 .6600342 .12298584 .66503909 .12098694 .66503909 .11999512 .66503909 .10699463 .66503909 .10699463 .6540375 .10699463 .6358948V.34292604C.10699463 .32492066 .10699463 .312912 .12298584 .312912 .1309967 .312912 .13398743 .3169098 .13899231 .32492066 .15098572 .33992005 .18899536 .39093019 .27398683 .39093019 .32998658 .39093019 .35699464 .34492494 .3659973 .32591249 .3829956 .28990174 .3849945 .24389649 .3849945 .20487976 .3849945 .1678772 .38398744 .11387634 .35598756 .069732669 .33699037 .039611818 .29699708 .008514404 .24398804 .008514404 .1789856 .008514404 .114990238 .0496521 .09199524 .11488342 .09498596 .11387634 .100997928 .11387634 .101989749 .11387634 .12998963 .11387634 .1519928 .13188172 .1519928 .16288758 .1519928 .19989014 .12298584 .21289063 .102996829 .21289063 .084991458 .21289063 .052993776 .20288086 .052993776 .15988159 .052993776 .069732669 .1309967-.021484375 .24598694-.021484375 .37098695-.021484375 .47698976 .07574463 .47698976 .19989014 .47698976 .31591798 .3929901 .4189453 .2749939 .4189453 .22499085 .4189453 .17799378 .40293885 .13999939 .368927V.5618439Z"/>
<path id="font_1_1" d="M.4889984 .31877137C.4889984 .42585755 .47799684 .49090577 .44499208 .55496218 .40098573 .6430359 .31999208 .66503909 .2649994 .66503909 .13899231 .66503909 .09298706 .5709839 .07899475 .5429535 .042999269 .4698944 .040985109 .3708191 .040985109 .31877137 .040985109 .25271607 .04399109 .15162659 .09199524 .07156372 .13798523-.0024871827 .21199036-.021484375 .2649994-.021484375 .31298829-.021484375 .39898683-.0064849855 .44898988 .09257507 .48599244 .16464234 .4889984 .2537079 .4889984 .31877137M.2649994 .006515503C.23098755 .006515503 .1619873 .022521973 .14099121 .12760926 .12998963 .18466187 .12998963 .2787323 .12998963 .33078004 .12998963 .3998413 .12998963 .4698944 .14099121 .5249481 .1619873 .6270294 .23999024 .6370239 .2649994 .6370239 .29899598 .6370239 .36799623 .62002566 .3880005 .5289459 .3999939 .4738922 .3999939 .39883424 .3999939 .33078004 .3999939 .27172853 .3999939 .18165589 .3880005 .12561035 .36698915 .020523072 .2979889 .006515503 .2649994 .006515503Z"/>
<clipPath id="clip_2">
<path transform="matrix(1.00002,0,0,-1.00002,1.4613705,208.02257)" d="M0 0H239.10128V206.22396H0Z"/>
</clipPath>
<path id="font_3_3" d="M.48599244 .38136292C.48999024 .39537049 .48999024 .39736939 .48999024 .40437318 .48999024 .42237855 .47599793 .43138124 .46099855 .43138124 .45098878 .43138124 .43499757 .42536927 .42599488 .41036988 .42399598 .405365 .41600038 .37435914 .4119873 .35635377 .40499879 .33035279 .397995 .30334474 .3919983 .27633668L.34700013 .09628296C.34298707 .08126831 .2999878 .011245728 .23399353 .011245728 .18299866 .011245728 .17199707 .055267335 .17199707 .0922699 .17199707 .1382904 .18899536 .20030213 .22299195 .28833009 .23899842 .3293457 .24299622 .3403473 .24299622 .36035157 .24299622 .405365 .21099854 .4423828 .16099549 .4423828 .06599426 .4423828 .0289917 .29733277 .0289917 .28833009 .0289917 .27833558 .038986207 .27833558 .040985109 .27833558 .050994874 .27833558 .051986696 .28033448 .056991579 .29634095 .083999637 .3903656 .12399292 .42037965 .1579895 .42037965 .1659851 .42037965 .18299866 .42037965 .18299866 .3883667 .18299866 .36335755 .17298889 .3373413 .1659851 .31834413 .12599182 .21231079 .10798645 .1552887 .10798645 .10827637 .10798645 .019256592 .17098999-.0107421879 .22999573-.0107421879 .2689972-.0107421879 .30299378 .0062561037 .33099366 .03425598 .31799317-.017745972 .30599977-.06674194 .2659912-.11973572 .23999024-.15385437 .20199585-.18309021 .1559906-.18309021 .14199829-.18309021 .09700012-.18005371 .07998657-.14074707 .09599304-.14074707 .10899353-.14074707 .12298584-.1287384 .1329956-.11973572 .14299011-.10673523 .14299011-.08773804 .14299011-.056747438 .115997318-.052734376 .10598755-.052734376 .08299255-.052734376 .049987794-.068740848 .049987794-.11773682 .049987794-.16796875 .09399414-.20507813 .1559906-.20507813 .25898744-.20507813 .3619995-.11373901 .3899994-.00074768069L.48599244 .38136292Z"/>
<path id="font_4_3" d="M.68699648 .32714845C.70199587 .32714845 .72099307 .32714845 .72099307 .34713746 .72099307 .36714173 .70199587 .36714173 .6879883 .36714173H.08898926C.07499695 .36714173 .055999757 .36714173 .055999757 .34713746 .055999757 .32714845 .07499695 .32714845 .08999634 .32714845H.68699648M.6879883 .13284302C.70199587 .13284302 .72099307 .13284302 .72099307 .15284729 .72099307 .17285156 .70199587 .17285156 .68699648 .17285156H.08999634C.07499695 .17285156 .055999757 .17285156 .055999757 .15284729 .055999757 .13284302 .07499695 .13284302 .08898926 .13284302H.6879883Z"/>
<path id="font_3_1" d="M.7630005 .60565188C.7719879 .6416168 .7739868 .6516113 .8470001 .6516113 .8730011 .6516113 .8809967 .6516113 .8809967 .6716156 .8809967 .6826172 .8699951 .6826172 .86698916 .6826172 .83898928 .6826172 .7669983 .6796112 .7389984 .6796112 .70999148 .6796112 .6389923 .6826172 .6100006 .6826172 .60198977 .6826172 .59098818 .6826172 .59098818 .6626129 .59098818 .6516113 .59999087 .6516113 .61898806 .6516113 .62098696 .6516113 .6399994 .6516113 .6569977 .6496124 .6749878 .6476135 .6839905 .6466217 .6839905 .6336212 .6839905 .6296234 .68299868 .6276245 .6799927 .6146393L.6199951 .37083436H.31498719L.37399293 .60565188C.3829956 .6416168 .38598634 .6516113 .45799256 .6516113 .48399354 .6516113 .49198915 .6516113 .49198915 .6716156 .49198915 .6826172 .48098756 .6826172 .47799684 .6826172 .44999696 .6826172 .37799073 .6796112 .34999085 .6796112 .32099916 .6796112 .25 .6826172 .22099304 .6826172 .21299744 .6826172 .20199585 .6826172 .20199585 .6626129 .20199585 .6516113 .21099854 .6516113 .22999573 .6516113 .23199463 .6516113 .25099183 .6516113 .2679901 .6496124 .28599549 .6476135 .29499818 .6466217 .29499818 .6336212 .29499818 .6296234 .2939911 .6266327 .29100038 .6146393L.15699768 .07797241C.14698792 .038986207 .14498902 .0309906 .06599426 .0309906 .04798889 .0309906 .038986207 .0309906 .038986207 .010986328 .038986207 0 .050994874 0 .052993776 0 .08099365 0 .1519928 .0029907227 .17999268 .0029907227 .20098877 .0029907227 .22299195 .0019989014 .24398804 .0019989014 .2659912 .0019989014 .28799439 0 .30899049 0 .31698609 0 .32899476 0 .32899476 .019989014 .32899476 .0309906 .31999208 .0309906 .30099488 .0309906 .2639923 .0309906 .23599243 .0309906 .23599243 .048980714 .23599243 .054977418 .23799134 .0599823 .23899842 .065979007L.30699159 .33984376H.6119995C.56999209 .17391968 .5469971 .07896423 .54299929 .0639801 .5329895 .03199768 .5139923 .0309906 .45199586 .0309906 .43699647 .0309906 .42799378 .0309906 .42799378 .010986328 .42799378 0 .43998719 0 .44198609 0 .46998597 0 .54100039 .0029907227 .56900027 .0029907227 .58999636 .0029907227 .6119995 .0019989014 .6329956 .0019989014 .6549988 .0019989014 .6769867 0 .69799807 0 .70599368 0 .71798709 0 .71798709 .019989014 .71798709 .0309906 .70899966 .0309906 .6899872 .0309906 .6529999 .0309906 .625 .0309906 .625 .048980714 .625 .054977418 .6269989 .0599823 .6279907 .065979007L.7630005 .60565188Z"/>
<path id="font_4_1" d="M.33099366-.2400055C.33099366-.23701477 .33099366-.23500061 .31399537-.21800232 .18899536-.0920105 .15699768 .09700012 .15699768 .25 .15699768 .42399598 .19499207 .59799197 .31799317 .72299197 .33099366 .73498538 .33099366 .7369995 .33099366 .73999026 .33099366 .746994 .32699586 .75 .32099916 .75 .31098939 .75 .22099304 .6819916 .1619873 .5549927 .11099243 .44499208 .09899902 .33399964 .09899902 .25 .09899902 .17199707 .10998535 .050994874 .16499329-.06201172 .22499085-.18501282 .31098939-.25 .32099916-.25 .32699586-.25 .33099366-.24700928 .33099366-.2400055Z"/>
<path id="font_3_2" d="M.20599365 .3996582H.2999878C.31999208 .3996582 .32998658 .3996582 .32998658 .41966249 .32998658 .43066407 .31999208 .43066407 .3019867 .43066407H.21398926C.25 .5724945 .25498963 .59246829 .25498963 .59846499 .25498963 .61546328 .24299622 .62545779 .22599793 .62545779 .22299195 .62545779 .19499207 .62446597 .18598938 .58947756L.14698792 .43066407H.052993776C.032989503 .43066407 .022994996 .43066407 .022994996 .4116516 .022994996 .3996582 .0309906 .3996582 .050994874 .3996582H.13899231C.066986087 .11608887 .06298828 .099121097 .06298828 .08114624 .06298828 .02722168 .100997928-.0107421879 .15499878-.0107421879 .25698854-.0107421879 .31399537 .13505554 .31399537 .14305115 .31399537 .1530304 .30599977 .1530304 .3019867 .1530304 .29299928 .1530304 .2919922 .15003968 .2869873 .13905335 .24398804 .035217287 .19099427 .011245728 .15699768 .011245728 .13598633 .011245728 .12599182 .024230957 .12599182 .057174684 .12599182 .08114624 .12799073 .088134769 .13198853 .10510254L.20599365 .3996582Z"/>
<path id="font_4_2" d="M.2889862 .25C.2889862 .32798768 .27799989 .44898988 .22299195 .56199648 .16299439 .68499758 .07699585 .75 .066986087 .75 .06098938 .75 .056991579 .74598696 .056991579 .73999026 .056991579 .7369995 .056991579 .73498538 .07598877 .71699526 .17399597 .6179962 .23098755 .45899964 .23098755 .25 .23098755 .07899475 .19400025-.09700012 .069992069-.2230072 .056991579-.23500061 .056991579-.23701477 .056991579-.2400055 .056991579-.2460022 .06098938-.25 .066986087-.25 .07699585-.25 .16699219-.18200684 .22599793-.055007936 .2769928 .054992677 .2889862 .16600037 .2889862 .25Z"/>
</defs>
<path transform="matrix(1.00002,0,0,-1.00002,1.4613705,208.02257)" d="M0 0H239.10128V206.22396H0Z" fill="#fffac2"/>
<path transform="matrix(1.00002,0,0,-1.00002,1.4613705,208.02257)" stroke-width=".3985" stroke-linecap="butt" stroke-miterlimit="10" stroke-linejoin="miter" fill="none" stroke="#d5d6d5" d="M68.31464 0V206.22396M102.47197 0V206.22396M136.62929 0V206.22396M170.78662 0V206.22396M204.94394 0V206.22396"/>
<path transform="matrix(1.00002,0,0,-1.00002,1.4613705,208.02257)" stroke-width=".3985" stroke-linecap="butt" stroke-miterlimit="10" stroke-linejoin="miter" fill="none" stroke="#d5d6d5" d="M0 51.55598H239.10128M0 77.33397H239.10128M0 103.11197H239.10128M0 128.88997H239.10128M0 154.66796H239.10128M0 180.44596H239.10128"/>
<path transform="matrix(1.00002,0,0,-1.00002,1.4613705,208.02257)" stroke-width=".19925" stroke-linecap="butt" stroke-miterlimit="10" stroke-linejoin="miter" fill="none" stroke="#929292" d="M68.31464 23.65208V27.90388M102.47197 23.65208V27.90388M136.62929 23.65208V27.90388M170.78662 23.65208V27.90388M204.94394 23.65208V27.90388"/>
<path transform="matrix(1.00002,0,0,-1.00002,1.4613705,208.02257)" stroke-width=".19925" stroke-linecap="butt" stroke-miterlimit="10" stroke-linejoin="miter" fill="none" stroke="#929292" d="M32.03142 51.55598H36.2832M32.03142 77.33397H36.2832M32.03142 103.11197H36.2832M32.03142 128.88997H36.2832M32.03142 154.66796H36.2832M32.03142 180.44596H36.2832"/>
<path transform="matrix(1.00002,0,0,-1.00002,1.4613705,208.02257)" stroke-width=".3985" stroke-linecap="butt" stroke-miterlimit="10" stroke-linejoin="miter" fill="none" stroke="#000000" d="M0 25.77798H237.10875"/>
<path transform="matrix(1.00002,0,0,-1.00002,238.57486,182.24407)" d="M1.99252 0-1.19551 1.59401 0 0-1.19551-1.59401"/>
<path transform="matrix(1.00002,0,0,-1.00002,1.4613705,208.02257)" stroke-width=".3985" stroke-linecap="butt" stroke-miterlimit="10" stroke-linejoin="miter" fill="none" stroke="#000000" d="M34.15732 0V204.23143"/>
<path transform="matrix(0,-1.00002,-1.00002,-0,35.61937,3.7870484)" d="M1.99252 0-1.19551 1.59401 0 0-1.19551-1.59401"/>
<use data-text="1" xlink:href="#font_1_2" transform="matrix(7.9702599,0,0,-7.9702599,67.66069,193.02628)"/>
<use data-text="2" xlink:href="#font_1_3" transform="matrix(7.9702599,0,0,-7.9702599,101.818378,193.02628)"/>
<use data-text="3" xlink:href="#font_1_4" transform="matrix(7.9702599,0,0,-7.9702599,135.97606,193.02628)"/>
<use data-text="4" xlink:href="#font_1_5" transform="matrix(7.9702599,0,0,-7.9702599,170.13375,193.02628)"/>
<use data-text="5" xlink:href="#font_1_6" transform="matrix(7.9702599,0,0,-7.9702599,204.29242,193.02628)"/>
<use data-text="5" xlink:href="#font_1_6" transform="matrix(7.9702599,0,0,-7.9702599,27.629895,159.03359)"/>
<use data-text="1" xlink:href="#font_1_2" transform="matrix(7.9702599,0,0,-7.9702599,23.39581,133.25507)"/>
<use data-text="0" xlink:href="#font_1_1" transform="matrix(7.9702599,0,0,-7.9702599,27.628018,133.25507)"/>
<use data-text="1" xlink:href="#font_1_2" transform="matrix(7.9702599,0,0,-7.9702599,23.39581,107.476558)"/>
<use data-text="5" xlink:href="#font_1_6" transform="matrix(7.9702599,0,0,-7.9702599,27.628018,107.476558)"/>
<use data-text="2" xlink:href="#font_1_3" transform="matrix(7.9702599,0,0,-7.9702599,23.39581,81.698047)"/>
<use data-text="0" xlink:href="#font_1_1" transform="matrix(7.9702599,0,0,-7.9702599,27.628018,81.698047)"/>
<use data-text="2" xlink:href="#font_1_3" transform="matrix(7.9702599,0,0,-7.9702599,23.39581,55.91951)"/>
<use data-text="5" xlink:href="#font_1_6" transform="matrix(7.9702599,0,0,-7.9702599,27.628018,55.91951)"/>
<use data-text="3" xlink:href="#font_1_4" transform="matrix(7.9702599,0,0,-7.9702599,23.39581,30.141007)"/>
<use data-text="0" xlink:href="#font_1_1" transform="matrix(7.9702599,0,0,-7.9702599,27.628018,30.141007)"/>
<g clip-path="url(#clip_2)">
<path transform="matrix(1.00002,0,0,-1.00002,1.4613705,208.02257)" stroke-width=".3985" stroke-linecap="butt" stroke-miterlimit="10" stroke-linejoin="miter" fill="none" stroke="#9e0c0f" d="M34.15732 25.77798C34.15732 25.77798 42.02809 56.55603 45.05107 67.15457 48.07405 77.7531 52.92186 93.33296 55.94484 102.16487 58.96782 110.99678 63.81561 123.7436 66.8386 130.8089 69.86157 137.87418 74.70938 147.78792 77.73236 153.08661 80.75534 158.38529 85.60313 165.46611 88.62611 168.99817 91.6491 172.53023 96.4969 176.77788 99.51988 178.54329 102.54286 180.30872 107.39066 181.72336 110.41364 181.7222 113.43661 181.72103 118.28442 180.30258 121.3074 178.53479 124.33038 176.767 129.17818 172.51552 132.20116 168.98113 135.22414 165.44673 140.07195 158.36226 143.09493 153.0612 146.11789 147.76015 150.9657 137.8425 153.98868 130.77484 157.01165 123.70718 161.85947 110.95671 164.88245 102.12245 167.90541 93.28818 172.75322 77.70447 175.7762 67.10356 178.79917 56.50266 186.66997 25.71849 186.66997 25.71849"/>
<use data-text="y" xlink:href="#font_3_3" transform="matrix(9.962799,0,0,-9.962799,138.83712,35.4411)" fill="#9e0c0f"/>
<use data-text="=" xlink:href="#font_4_3" transform="matrix(9.962799,0,0,-9.962799,146.84629,35.4411)" fill="#9e0c0f"/>
<use data-text="H" xlink:href="#font_3_1" transform="matrix(9.962799,0,0,-9.962799,157.36249,35.4411)" fill="#9e0c0f"/>
<use data-text="(" xlink:href="#font_4_1" transform="matrix(9.962799,0,0,-9.962799,166.45368,35.4411)" fill="#9e0c0f"/>
<use data-text="t" xlink:href="#font_3_2" transform="matrix(9.962799,0,0,-9.962799,170.32874,35.4411)" fill="#9e0c0f"/>
<use data-text=")" xlink:href="#font_4_2" transform="matrix(9.962799,0,0,-9.962799,173.92581,35.4411)" fill="#9e0c0f"/>
</g>
<path transform="matrix(1.00002,0,0,-1.00002,1.4613705,208.02257)" d="M36.14987 25.77798C36.14987 26.87846 35.25778 27.77054 34.15732 27.77054 33.05684 27.77054 32.16476 26.87846 32.16476 25.77798 32.16476 24.67752 33.05684 23.78543 34.15732 23.78543 35.25778 23.78543 36.14987 24.67752 36.14987 25.77798ZM34.15732 25.77798" fill="#9e0c0f"/>
<path transform="matrix(1.00002,0,0,-1.00002,1.4613705,208.02257)" stroke-width=".3985" stroke-linecap="butt" stroke-miterlimit="10" stroke-linejoin="miter" fill="none" stroke="#9e0c0f" d="M36.14987 25.77798C36.14987 26.87846 35.25778 27.77054 34.15732 27.77054 33.05684 27.77054 32.16476 26.87846 32.16476 25.77798 32.16476 24.67752 33.05684 23.78543 34.15732 23.78543 35.25778 23.78543 36.14987 24.67752 36.14987 25.77798ZM34.15732 25.77798"/>
<path transform="matrix(1.00002,0,0,-1.00002,1.4613705,208.02257)" d="M47.04362 67.15457C47.04362 68.25504 46.15154 69.14713 45.05107 69.14713 43.95059 69.14713 43.05852 68.25504 43.05852 67.15457 43.05852 66.0541 43.95059 65.16202 45.05107 65.16202 46.15154 65.16202 47.04362 66.0541 47.04362 67.15457ZM45.05107 67.15457" fill="#9e0c0f"/>
<path transform="matrix(1.00002,0,0,-1.00002,1.4613705,208.02257)" stroke-width=".3985" stroke-linecap="butt" stroke-miterlimit="10" stroke-linejoin="miter" fill="none" stroke="#9e0c0f" d="M47.04362 67.15457C47.04362 68.25504 46.15154 69.14713 45.05107 69.14713 43.95059 69.14713 43.05852 68.25504 43.05852 67.15457 43.05852 66.0541 43.95059 65.16202 45.05107 65.16202 46.15154 65.16202 47.04362 66.0541 47.04362 67.15457ZM45.05107 67.15457"/>
<path transform="matrix(1.00002,0,0,-1.00002,1.4613705,208.02257)" d="M57.9374 102.16487C57.9374 103.26535 57.0453 104.15742 55.94484 104.15742 54.84436 104.15742 53.95229 103.26535 53.95229 102.16487 53.95229 101.0644 54.84436 100.17232 55.94484 100.17232 57.0453 100.17232 57.9374 101.0644 57.9374 102.16487ZM55.94484 102.16487" fill="#9e0c0f"/>
<path transform="matrix(1.00002,0,0,-1.00002,1.4613705,208.02257)" stroke-width=".3985" stroke-linecap="butt" stroke-miterlimit="10" stroke-linejoin="miter" fill="none" stroke="#9e0c0f" d="M57.9374 102.16487C57.9374 103.26535 57.0453 104.15742 55.94484 104.15742 54.84436 104.15742 53.95229 103.26535 53.95229 102.16487 53.95229 101.0644 54.84436 100.17232 55.94484 100.17232 57.0453 100.17232 57.9374 101.0644 57.9374 102.16487ZM55.94484 102.16487"/>
<path transform="matrix(1.00002,0,0,-1.00002,1.4613705,208.02257)" d="M68.83115 130.8089C68.83115 131.90937 67.93906 132.80146 66.8386 132.80146 65.73811 132.80146 64.84604 131.90937 64.84604 130.8089 64.84604 129.70842 65.73811 128.81635 66.8386 128.81635 67.93906 128.81635 68.83115 129.70842 68.83115 130.8089ZM66.8386 130.8089" fill="#9e0c0f"/>
<path transform="matrix(1.00002,0,0,-1.00002,1.4613705,208.02257)" stroke-width=".3985" stroke-linecap="butt" stroke-miterlimit="10" stroke-linejoin="miter" fill="none" stroke="#9e0c0f" d="M68.83115 130.8089C68.83115 131.90937 67.93906 132.80146 66.8386 132.80146 65.73811 132.80146 64.84604 131.90937 64.84604 130.8089 64.84604 129.70842 65.73811 128.81635 66.8386 128.81635 67.93906 128.81635 68.83115 129.70842 68.83115 130.8089ZM66.8386 130.8089"/>
<path transform="matrix(1.00002,0,0,-1.00002,1.4613705,208.02257)" d="M79.72491 153.08661C79.72491 154.18708 78.83282 155.07917 77.73236 155.07917 76.63188 155.07917 75.7398 154.18708 75.7398 153.08661 75.7398 151.98613 76.63188 151.09406 77.73236 151.09406 78.83282 151.09406 79.72491 151.98613 79.72491 153.08661ZM77.73236 153.08661" fill="#9e0c0f"/>
<path transform="matrix(1.00002,0,0,-1.00002,1.4613705,208.02257)" stroke-width=".3985" stroke-linecap="butt" stroke-miterlimit="10" stroke-linejoin="miter" fill="none" stroke="#9e0c0f" d="M79.72491 153.08661C79.72491 154.18708 78.83282 155.07917 77.73236 155.07917 76.63188 155.07917 75.7398 154.18708 75.7398 153.08661 75.7398 151.98613 76.63188 151.09406 77.73236 151.09406 78.83282 151.09406 79.72491 151.98613 79.72491 153.08661ZM77.73236 153.08661"/>
<path transform="matrix(1.00002,0,0,-1.00002,1.4613705,208.02257)" d="M90.61867 168.99817C90.61867 170.09864 89.72658 170.99073 88.62611 170.99073 87.52563 170.99073 86.63356 170.09864 86.63356 168.99817 86.63356 167.89769 87.52563 167.00562 88.62611 167.00562 89.72658 167.00562 90.61867 167.89769 90.61867 168.99817ZM88.62611 168.99817" fill="#9e0c0f"/>
<path transform="matrix(1.00002,0,0,-1.00002,1.4613705,208.02257)" stroke-width=".3985" stroke-linecap="butt" stroke-miterlimit="10" stroke-linejoin="miter" fill="none" stroke="#9e0c0f" d="M90.61867 168.99817C90.61867 170.09864 89.72658 170.99073 88.62611 170.99073 87.52563 170.99073 86.63356 170.09864 86.63356 168.99817 86.63356 167.89769 87.52563 167.00562 88.62611 167.00562 89.72658 167.00562 90.61867 167.89769 90.61867 168.99817ZM88.62611 168.99817"/>
<path transform="matrix(1.00002,0,0,-1.00002,1.4613705,208.02257)" d="M101.51244 178.54329C101.51244 179.64377 100.62035 180.53585 99.51988 180.53585 98.4194 180.53585 97.52733 179.64377 97.52733 178.54329 97.52733 177.44283 98.4194 176.55074 99.51988 176.55074 100.62035 176.55074 101.51244 177.44283 101.51244 178.54329ZM99.51988 178.54329" fill="#9e0c0f"/>
<path transform="matrix(1.00002,0,0,-1.00002,1.4613705,208.02257)" stroke-width=".3985" stroke-linecap="butt" stroke-miterlimit="10" stroke-linejoin="miter" fill="none" stroke="#9e0c0f" d="M101.51244 178.54329C101.51244 179.64377 100.62035 180.53585 99.51988 180.53585 98.4194 180.53585 97.52733 179.64377 97.52733 178.54329 97.52733 177.44283 98.4194 176.55074 99.51988 176.55074 100.62035 176.55074 101.51244 177.44283 101.51244 178.54329ZM99.51988 178.54329"/>
<path transform="matrix(1.00002,0,0,-1.00002,1.4613705,208.02257)" d="M112.40619 181.7222C112.40619 182.82266 111.5141 183.71475 110.41364 183.71475 109.31316 183.71475 108.42108 182.82266 108.42108 181.7222 108.42108 180.62172 109.31316 179.72965 110.41364 179.72965 111.5141 179.72965 112.40619 180.62172 112.40619 181.7222ZM110.41364 181.7222" fill="#9e0c0f"/>
<path transform="matrix(1.00002,0,0,-1.00002,1.4613705,208.02257)" stroke-width=".3985" stroke-linecap="butt" stroke-miterlimit="10" stroke-linejoin="miter" fill="none" stroke="#9e0c0f" d="M112.40619 181.7222C112.40619 182.82266 111.5141 183.71475 110.41364 183.71475 109.31316 183.71475 108.42108 182.82266 108.42108 181.7222 108.42108 180.62172 109.31316 179.72965 110.41364 179.72965 111.5141 179.72965 112.40619 180.62172 112.40619 181.7222ZM110.41364 181.7222"/>
<path transform="matrix(1.00002,0,0,-1.00002,1.4613705,208.02257)" d="M123.29996 178.53479C123.29996 179.63527 122.40787 180.52735 121.3074 180.52735 120.20692 180.52735 119.31485 179.63527 119.31485 178.53479 119.31485 177.43433 120.20692 176.54224 121.3074 176.54224 122.40787 176.54224 123.29996 177.43433 123.29996 178.53479ZM121.3074 178.53479" fill="#9e0c0f"/>
<path transform="matrix(1.00002,0,0,-1.00002,1.4613705,208.02257)" stroke-width=".3985" stroke-linecap="butt" stroke-miterlimit="10" stroke-linejoin="miter" fill="none" stroke="#9e0c0f" d="M123.29996 178.53479C123.29996 179.63527 122.40787 180.52735 121.3074 180.52735 120.20692 180.52735 119.31485 179.63527 119.31485 178.53479 119.31485 177.43433 120.20692 176.54224 121.3074 176.54224 122.40787 176.54224 123.29996 177.43433 123.29996 178.53479ZM121.3074 178.53479"/>
<path transform="matrix(1.00002,0,0,-1.00002,1.4613705,208.02257)" d="M134.19371 168.98113C134.19371 170.0816 133.30162 170.97368 132.20116 170.97368 131.10068 170.97368 130.2086 170.0816 130.2086 168.98113 130.2086 167.88066 131.10068 166.98857 132.20116 166.98857 133.30162 166.98857 134.19371 167.88066 134.19371 168.98113ZM132.20116 168.98113" fill="#9e0c0f"/>
<path transform="matrix(1.00002,0,0,-1.00002,1.4613705,208.02257)" stroke-width=".3985" stroke-linecap="butt" stroke-miterlimit="10" stroke-linejoin="miter" fill="none" stroke="#9e0c0f" d="M134.19371 168.98113C134.19371 170.0816 133.30162 170.97368 132.20116 170.97368 131.10068 170.97368 130.2086 170.0816 130.2086 168.98113 130.2086 167.88066 131.10068 166.98857 132.20116 166.98857 133.30162 166.98857 134.19371 167.88066 134.19371 168.98113ZM132.20116 168.98113"/>
<path transform="matrix(1.00002,0,0,-1.00002,1.4613705,208.02257)" d="M145.08748 153.0612C145.08748 154.16167 144.19539 155.05376 143.09493 155.05376 141.99445 155.05376 141.10237 154.16167 141.10237 153.0612 141.10237 151.96074 141.99445 151.06865 143.09493 151.06865 144.19539 151.06865 145.08748 151.96074 145.08748 153.0612ZM143.09493 153.0612" fill="#9e0c0f"/>
<path transform="matrix(1.00002,0,0,-1.00002,1.4613705,208.02257)" stroke-width=".3985" stroke-linecap="butt" stroke-miterlimit="10" stroke-linejoin="miter" fill="none" stroke="#9e0c0f" d="M145.08748 153.0612C145.08748 154.16167 144.19539 155.05376 143.09493 155.05376 141.99445 155.05376 141.10237 154.16167 141.10237 153.0612 141.10237 151.96074 141.99445 151.06865 143.09493 151.06865 144.19539 151.06865 145.08748 151.96074 145.08748 153.0612ZM143.09493 153.0612"/>
<path transform="matrix(1.00002,0,0,-1.00002,1.4613705,208.02257)" d="M155.98123 130.77484C155.98123 131.87532 155.08914 132.7674 153.98868 132.7674 152.8882 132.7674 151.99613 131.87532 151.99613 130.77484 151.99613 129.67438 152.8882 128.78229 153.98868 128.78229 155.08914 128.78229 155.98123 129.67438 155.98123 130.77484ZM153.98868 130.77484" fill="#9e0c0f"/>
<path transform="matrix(1.00002,0,0,-1.00002,1.4613705,208.02257)" stroke-width=".3985" stroke-linecap="butt" stroke-miterlimit="10" stroke-linejoin="miter" fill="none" stroke="#9e0c0f" d="M155.98123 130.77484C155.98123 131.87532 155.08914 132.7674 153.98868 132.7674 152.8882 132.7674 151.99613 131.87532 151.99613 130.77484 151.99613 129.67438 152.8882 128.78229 153.98868 128.78229 155.08914 128.78229 155.98123 129.67438 155.98123 130.77484ZM153.98868 130.77484"/>
<path transform="matrix(1.00002,0,0,-1.00002,1.4613705,208.02257)" d="M166.875 102.12245C166.875 103.22292 165.98291 104.115 164.88245 104.115 163.78197 104.115 162.8899 103.22292 162.8899 102.12245 162.8899 101.02197 163.78197 100.1299 164.88245 100.1299 165.98291 100.1299 166.875 101.02197 166.875 102.12245ZM164.88245 102.12245" fill="#9e0c0f"/>
<path transform="matrix(1.00002,0,0,-1.00002,1.4613705,208.02257)" stroke-width=".3985" stroke-linecap="butt" stroke-miterlimit="10" stroke-linejoin="miter" fill="none" stroke="#9e0c0f" d="M166.875 102.12245C166.875 103.22292 165.98291 104.115 164.88245 104.115 163.78197 104.115 162.8899 103.22292 162.8899 102.12245 162.8899 101.02197 163.78197 100.1299 164.88245 100.1299 165.98291 100.1299 166.875 101.02197 166.875 102.12245ZM164.88245 102.12245"/>
<path transform="matrix(1.00002,0,0,-1.00002,1.4613705,208.02257)" d="M177.76876 67.10356C177.76876 68.20404 176.87667 69.09612 175.7762 69.09612 174.67572 69.09612 173.78365 68.20404 173.78365 67.10356 173.78365 66.0031 174.67572 65.11101 175.7762 65.11101 176.87667 65.11101 177.76876 66.0031 177.76876 67.10356ZM175.7762 67.10356" fill="#9e0c0f"/>
<path transform="matrix(1.00002,0,0,-1.00002,1.4613705,208.02257)" stroke-width=".3985" stroke-linecap="butt" stroke-miterlimit="10" stroke-linejoin="miter" fill="none" stroke="#9e0c0f" d="M177.76876 67.10356C177.76876 68.20404 176.87667 69.09612 175.7762 69.09612 174.67572 69.09612 173.78365 68.20404 173.78365 67.10356 173.78365 66.0031 174.67572 65.11101 175.7762 65.11101 176.87667 65.11101 177.76876 66.0031 177.76876 67.10356ZM175.7762 67.10356"/>
<path transform="matrix(1.00002,0,0,-1.00002,1.4613705,208.02257)" d="M188.66252 25.71849C188.66252 26.81895 187.77043 27.71104 186.66997 27.71104 185.56949 27.71104 184.67742 26.81895 184.67742 25.71849 184.67742 24.61801 185.56949 23.72594 186.66997 23.72594 187.77043 23.72594 188.66252 24.61801 188.66252 25.71849ZM186.66997 25.71849" fill="#9e0c0f"/>
<path transform="matrix(1.00002,0,0,-1.00002,1.4613705,208.02257)" stroke-width=".3985" stroke-linecap="butt" stroke-miterlimit="10" stroke-linejoin="miter" fill="none" stroke="#9e0c0f" d="M188.66252 25.71849C188.66252 26.81895 187.77043 27.71104 186.66997 27.71104 185.56949 27.71104 184.67742 26.81895 184.67742 25.71849 184.67742 24.61801 185.56949 23.72594 186.66997 23.72594 187.77043 23.72594 188.66252 24.61801 188.66252 25.71849ZM186.66997 25.71849"/>
<path transform="matrix(1.00002,0,0,-1.00002,1.4613705,208.02257)" stroke-width=".3985" stroke-linecap="butt" stroke-miterlimit="10" stroke-linejoin="miter" fill="none" stroke="#9e0c0f" d=""/>
<use data-text="t" xlink:href="#font_3_2" transform="matrix(9.962799,0,0,-9.962799,233.45,178.72399)"/>
<use data-text="y" xlink:href="#font_3_3" transform="matrix(9.962799,0,0,-9.962799,39.139123,9.603607)"/>
</svg>
