<svg xmlns="http://www.w3.org/2000/svg" xmlns:xlink="http://www.w3.org/1999/xlink" version="1.1" width="242" height="210" viewBox="0 0 242 210">
<defs>
<path id="font_1_1" d="M.69898989 .22743225C.71499636 .22743225 .7369995 .22743225 .7369995 .25042726 .7369995 .2734375 .71499636 .2734375 .69898989 .2734375H.12599182C.10998535 .2734375 .08799744 .2734375 .08799744 .25042726 .08799744 .22743225 .10998535 .22743225 .12599182 .22743225H.69898989Z"/>
<path id="font_2_4" d="M.13999939 .5618439C.15299988 .55784609 .19299317 .54785159 .23498535 .54785159 .3600006 .54785159 .43598939 .6358948 .43598939 .6510315 .43598939 .6620331 .42900086 .66503909 .42399598 .66503909 .42199708 .66503909 .41999818 .66503909 .41099549 .6600342 .37199403 .6450348 .32598878 .632843 .27198792 .632843 .21299744 .632843 .1639862 .6480255 .1329956 .6600342 .12298584 .66503909 .12098694 .66503909 .11999512 .66503909 .10699463 .66503909 .10699463 .6540375 .10699463 .6358948V.34292604C.10699463 .32492066 .10699463 .312912 .12298584 .312912 .1309967 .312912 .13398743 .3169098 .13899231 .32492066 .15098572 .33992005 .18899536 .39093019 .27398683 .39093019 .32998658 .39093019 .35699464 .34492494 .3659973 .32591249 .3829956 .28990174 .3849945 .24389649 .3849945 .20487976 .3849945 .1678772 .38398744 .11387634 .35598756 .069732669 .33699037 .039611818 .29699708 .008514404 .24398804 .008514404 .1789856 .008514404 .114990238 .0496521 .09199524 .11488342 .09498596 .11387634 .100997928 .11387634 .101989749 .11387634 .12998963 .11387634 .1519928 .13188172 .1519928 .16288758 .1519928 .19989014 .12298584 .21289063 .102996829 .21289063 .084991458 .21289063 .052993776 .20288086 .052993776 .15988159 .052993776 .069732669 .1309967-.021484375 .24598694-.021484375 .37098695-.021484375 .47698976 .07574463 .47698976 .19989014 .47698976 .31591798 .3929901 .4189453 .2749939 .4189453 .22499085 .4189453 .17799378 .40293885 .13999939 .368927V.5618439Z"/>
<path id="font_2_3" d="M.28199769 .20405579C.2979889 .21907044 .33999635 .2520752 .35598756 .26608277 .41799928 .32312013 .47698976 .3781433 .47698976 .46917726 .47698976 .588089 .3769989 .66503909 .2519989 .66503909 .13198853 .66503909 .052993776 .57411196 .052993776 .48516847 .052993776 .4361725 .09199524 .4291687 .10598755 .4291687 .1269989 .4291687 .1579895 .4441681 .1579895 .48217774 .1579895 .5341797 .10798645 .5341797 .09599304 .5341797 .125 .6070709 .19198609 .6320343 .24099732 .6320343 .33399964 .6320343 .38198854 .55314639 .38198854 .46917726 .38198854 .36514283 .30899049 .28910829 .19099427 .16804505L.06498718 .037994386C.052993776 .026992798 .052993776 .024993897 .052993776 0H.44799806L.47698976 .17904663H.44599916C.44299317 .1590271 .43499757 .10900879 .4229889 .08999634 .4169922 .08198547 .34098817 .08198547 .32499696 .08198547H.14698792L.28199769 .20405579Z"/>
<path id="font_2_1" d="M.4889984 .31877137C.4889984 .42585755 .47799684 .49090577 .44499208 .55496218 .40098573 .6430359 .31999208 .66503909 .2649994 .66503909 .13899231 .66503909 .09298706 .5709839 .07899475 .5429535 .042999269 .4698944 .040985109 .3708191 .040985109 .31877137 .040985109 .25271607 .04399109 .15162659 .09199524 .07156372 .13798523-.0024871827 .21199036-.021484375 .2649994-.021484375 .31298829-.021484375 .39898683-.0064849855 .44898988 .09257507 .48599244 .16464234 .4889984 .2537079 .4889984 .31877137M.2649994 .006515503C.23098755 .006515503 .1619873 .022521973 .14099121 .12760926 .12998963 .18466187 .12998963 .2787323 .12998963 .33078004 .12998963 .3998413 .12998963 .4698944 .14099121 .5249481 .1619873 .6270294 .23999024 .6370239 .2649994 .6370239 .29899598 .6370239 .36799623 .62002566 .3880005 .5289459 .3999939 .4738922 .3999939 .39883424 .3999939 .33078004 .3999939 .27172853 .3999939 .18165589 .3880005 .12561035 .36698915 .020523072 .2979889 .006515503 .2649994 .006515503Z"/>
<path id="font_2_2" d="M.31399537 .63708499C.31399537 .664032 .31199647 .66503909 .2849884 .66503909 .24398804 .6251831 .19099427 .6013489 .09599304 .6013489V.5683594C.12298584 .5683594 .1769867 .5683594 .23498535 .5953522V.08203125C.23498535 .04499817 .23199463 .032989503 .13699341 .032989503H.101989749V0C.14299011 .0029907227 .22898865 .0029907227 .27398683 .0029907227 .31900025 .0029907227 .4059906 .0029907227 .44699098 0V.032989503H.4119873C.31698609 .032989503 .31399537 .04499817 .31399537 .08203125V.63708499Z"/>
<clipPath id="clip_3">
<path transform="matrix(1.00003,0,0,-1.00002,1.4615555,208.02457)" d="M0 0H239.10584V206.22547H0Z"/>
</clipPath>
<path id="font_4_1" d="M.33399964 .30233766C.33999635 .32835389 .36299134 .42037965 .43299867 .42037965 .43798829 .42037965 .46199037 .42037965 .48298646 .40734864 .45498658 .402359 .43499757 .37734986 .43499757 .35334779 .43499757 .33735658 .44599916 .31835938 .47299195 .31835938 .49499513 .31835938 .5269928 .3363495 .5269928 .37635804 .5269928 .42837525 .46798707 .4423828 .43399049 .4423828 .37599183 .4423828 .34098817 .38935853 .32899476 .36634828 .3039856 .43237306 .25 .4423828 .22099304 .4423828 .116989139 .4423828 .05999756 .3133545 .05999756 .28834535 .05999756 .27833558 .069992069 .27833558 .07199097 .27833558 .07998657 .27833558 .08299255 .28033448 .084991458 .28933717 .11898804 .39535523 .18499756 .42037965 .21899414 .42037965 .23799134 .42037965 .272995 .4113617 .272995 .35334779 .272995 .32235719 .2559967 .25532533 .21899414 .11528015 .20298767 .053268434 .16799927 .011245728 .12399292 .011245728 .117996219 .011245728 .09498596 .011245728 .07398987 .024276734 .09899902 .029266358 .12098694 .05027771 .12098694 .07827759 .12098694 .105270389 .09899902 .11328125 .083999637 .11328125 .053985597 .11328125 .0289917 .08728027 .0289917 .055267335 .0289917 .009246826 .07899475-.0107421879 .12298584-.0107421879 .18899536-.0107421879 .22499085 .059280397 .22799683 .0652771 .23999024 .028274537 .27598573-.0107421879 .33599855-.0107421879 .43899537-.0107421879 .49598695 .118270877 .49598695 .14328003 .49598695 .1532898 .4869995 .1532898 .48399354 .1532898 .47499085 .1532898 .47299195 .14929199 .47099305 .14228821 .43798829 .03527832 .36999513 .011245728 .33799745 .011245728 .29899598 .011245728 .2829895 .043273927 .2829895 .07727051 .2829895 .09927368 .2889862 .121276859 .2999878 .16529846L.33399964 .30233766Z"/>
<path id="font_4_2" d="M.48599244 .38136292C.48999024 .39537049 .48999024 .39736939 .48999024 .40437318 .48999024 .42237855 .47599793 .43138124 .46099855 .43138124 .45098878 .43138124 .43499757 .42536927 .42599488 .41036988 .42399598 .405365 .41600038 .37435914 .4119873 .35635377 .40499879 .33035279 .397995 .30334474 .3919983 .27633668L.34700013 .09628296C.34298707 .08126831 .2999878 .011245728 .23399353 .011245728 .18299866 .011245728 .17199707 .055267335 .17199707 .0922699 .17199707 .1382904 .18899536 .20030213 .22299195 .28833009 .23899842 .3293457 .24299622 .3403473 .24299622 .36035157 .24299622 .405365 .21099854 .4423828 .16099549 .4423828 .06599426 .4423828 .0289917 .29733277 .0289917 .28833009 .0289917 .27833558 .038986207 .27833558 .040985109 .27833558 .050994874 .27833558 .051986696 .28033448 .056991579 .29634095 .083999637 .3903656 .12399292 .42037965 .1579895 .42037965 .1659851 .42037965 .18299866 .42037965 .18299866 .3883667 .18299866 .36335755 .17298889 .3373413 .1659851 .31834413 .12599182 .21231079 .10798645 .1552887 .10798645 .10827637 .10798645 .019256592 .17098999-.0107421879 .22999573-.0107421879 .2689972-.0107421879 .30299378 .0062561037 .33099366 .03425598 .31799317-.017745972 .30599977-.06674194 .2659912-.11973572 .23999024-.15385437 .20199585-.18309021 .1559906-.18309021 .14199829-.18309021 .09700012-.18005371 .07998657-.14074707 .09599304-.14074707 .10899353-.14074707 .12298584-.1287384 .1329956-.11973572 .14299011-.10673523 .14299011-.08773804 .14299011-.056747438 .115997318-.052734376 .10598755-.052734376 .08299255-.052734376 .049987794-.068740848 .049987794-.11773682 .049987794-.16796875 .09399414-.20507813 .1559906-.20507813 .25898744-.20507813 .3619995-.11373901 .3899994-.00074768069L.48599244 .38136292Z"/>
</defs>
<path transform="matrix(1.00003,0,0,-1.00002,1.4615555,208.02457)" d="M0 0H239.10584V206.22547H0Z" fill="#fffac2"/>
<path transform="matrix(1.00003,0,0,-1.00002,1.4615555,208.02457)" stroke-width=".3985" stroke-linecap="butt" stroke-miterlimit="10" stroke-linejoin="miter" fill="none" stroke="#d5d6d5" d="M0 0V206.22547M11.95529 0V206.22547M23.91058 0V206.22547M35.86588 0V206.22547M47.82117 0V206.22547M59.77646 0V206.22547M71.73175 0V206.22547M83.68704 0V206.22547M95.64233 0V206.22547M107.59763 0V206.22547M119.55292 0V206.22547M131.50821 0V206.22547M143.4635 0V206.22547M155.4188 0V206.22547M167.37409 0V206.22547M179.32938 0V206.22547M191.28467 0V206.22547M203.23996 0V206.22547M215.19525 0V206.22547M227.15055 0V206.22547M239.10584 0V206.22547"/>
<path transform="matrix(1.00003,0,0,-1.00002,1.4615555,208.02457)" stroke-width=".3985" stroke-linecap="butt" stroke-miterlimit="10" stroke-linejoin="miter" fill="none" stroke="#d5d6d5" d="M59.77646 0V206.22547M179.32938 0V206.22547"/>
<path transform="matrix(1.00003,0,0,-1.00002,1.4615555,208.02457)" stroke-width=".3985" stroke-linecap="butt" stroke-miterlimit="10" stroke-linejoin="miter" fill="none" stroke="#d5d6d5" d="M0 0H239.10584M0 6.87418H239.10584M0 13.74835H239.10584M0 20.62254H239.10584M0 27.49672H239.10584M0 34.37091H239.10584M0 41.24509H239.10584M0 48.11928H239.10584M0 54.99345H239.10584M0 61.86763H239.10584M0 68.74182H239.10584M0 75.616H239.10584M0 82.49019H239.10584M0 89.36436H239.10584M0 96.23856H239.10584M0 103.11273H239.10584M0 109.98691H239.10584M0 116.8611H239.10584M0 123.73528H239.10584M0 130.60947H239.10584M0 137.48365H239.10584M0 144.35784H239.10584M0 151.23201H239.10584M0 158.10619H239.10584M0 164.98038H239.10584M0 171.85456H239.10584M0 178.72875H239.10584M0 185.60292H239.10584M0 192.47711H239.10584M0 199.35129H239.10584M0 206.22547H239.10584"/>
<path transform="matrix(1.00003,0,0,-1.00002,1.4615555,208.02457)" stroke-width=".3985" stroke-linecap="butt" stroke-miterlimit="10" stroke-linejoin="miter" fill="none" stroke="#d5d6d5" d="M0 34.37091H239.10584M0 68.74182H239.10584M0 103.11273H239.10584M0 137.48365H239.10584"/>
<path transform="matrix(1.00003,0,0,-1.00002,1.4615555,208.02457)" stroke-width=".19925" stroke-linecap="butt" stroke-miterlimit="10" stroke-linejoin="miter" fill="none" stroke="#929292" d="M0 170.43723V173.27188M11.95529 170.43723V173.27188M23.91058 170.43723V173.27188M35.86588 170.43723V173.27188M47.82117 170.43723V173.27188M59.77646 170.43723V173.27188M71.73175 170.43723V173.27188M83.68704 170.43723V173.27188M95.64233 170.43723V173.27188M107.59763 170.43723V173.27188M119.55292 170.43723V173.27188M131.50821 170.43723V173.27188M143.4635 170.43723V173.27188M155.4188 170.43723V173.27188M167.37409 170.43723V173.27188M179.32938 170.43723V173.27188M191.28467 170.43723V173.27188M203.23996 170.43723V173.27188M215.19525 170.43723V173.27188M227.15055 170.43723V173.27188M239.10584 170.43723V173.27188"/>
<path transform="matrix(1.00003,0,0,-1.00002,1.4615555,208.02457)" stroke-width=".19925" stroke-linecap="butt" stroke-miterlimit="10" stroke-linejoin="miter" fill="none" stroke="#929292" d="M59.77646 169.72879V173.98032M179.32938 169.72879V173.98032"/>
<path transform="matrix(1.00003,0,0,-1.00002,1.4615555,208.02457)" stroke-width=".19925" stroke-linecap="butt" stroke-miterlimit="10" stroke-linejoin="miter" fill="none" stroke="#929292" d="M118.13557 0H120.97025M118.13557 6.87418H120.97025M118.13557 13.74835H120.97025M118.13557 20.62254H120.97025M118.13557 27.49672H120.97025M118.13557 34.37091H120.97025M118.13557 41.24509H120.97025M118.13557 48.11928H120.97025M118.13557 54.99345H120.97025M118.13557 61.86763H120.97025M118.13557 68.74182H120.97025M118.13557 75.616H120.97025M118.13557 82.49019H120.97025M118.13557 89.36436H120.97025M118.13557 96.23856H120.97025M118.13557 103.11273H120.97025M118.13557 109.98691H120.97025M118.13557 116.8611H120.97025M118.13557 123.73528H120.97025M118.13557 130.60947H120.97025M118.13557 137.48365H120.97025M118.13557 144.35784H120.97025M118.13557 151.23201H120.97025M118.13557 158.10619H120.97025M118.13557 164.98038H120.97025M118.13557 171.85456H120.97025M118.13557 178.72875H120.97025M118.13557 185.60292H120.97025M118.13557 192.47711H120.97025M118.13557 199.35129H120.97025M118.13557 206.22547H120.97025"/>
<path transform="matrix(1.00003,0,0,-1.00002,1.4615555,208.02457)" stroke-width=".19925" stroke-linecap="butt" stroke-miterlimit="10" stroke-linejoin="miter" fill="none" stroke="#929292" d="M117.42708 34.37091H121.67873M117.42708 68.74182H121.67873M117.42708 103.11273H121.67873M117.42708 137.48365H121.67873"/>
<path transform="matrix(1.00003,0,0,-1.00002,1.4615555,208.02457)" stroke-width=".3985" stroke-linecap="butt" stroke-miterlimit="10" stroke-linejoin="miter" fill="none" stroke="#000000" d="M1.99252 171.85456H237.11331"/>
<path transform="matrix(-1.00003,-0,0,1.00002,3.4541355,36.166566)" d="M1.99252 0-1.19551 1.59401 0 0-1.19551-1.59401"/>
<path transform="matrix(1.00003,0,0,-1.00002,238.582,36.166566)" d="M1.99252 0-1.19551 1.59401 0 0-1.19551-1.59401"/>
<path transform="matrix(1.00003,0,0,-1.00002,1.4615555,208.02457)" stroke-width=".3985" stroke-linecap="butt" stroke-miterlimit="10" stroke-linejoin="miter" fill="none" stroke="#000000" d="M119.55292 1.99252V204.23294"/>
<path transform="matrix(0,1.00002,1.00003,0,121.01807,206.03202)" d="M1.99252 0-1.19551 1.59401 0 0-1.19551-1.59401"/>
<path transform="matrix(0,-1.00002,-1.00003,-0,121.01807,3.7875367)" d="M1.99252 0-1.19551 1.59401 0 0-1.19551-1.59401"/>
<use data-text="&#x2212;" xlink:href="#font_1_1" transform="matrix(7.9703395,0,0,-7.9702599,55.82919,46.94835)"/>
<use data-text="5" xlink:href="#font_2_4" transform="matrix(7.9703395,0,0,-7.9702599,62.41639,46.94835)"/>
<use data-text="5" xlink:href="#font_2_4" transform="matrix(7.9703395,0,0,-7.9702599,178.6789,46.94835)"/>
<use data-text="&#x2212;" xlink:href="#font_1_1" transform="matrix(7.9703395,0,0,-7.9702599,102.20758,175.80593)"/>
<use data-text="2" xlink:href="#font_2_3" transform="matrix(7.9703395,0,0,-7.9702599,108.79478,175.80593)"/>
<use data-text="0" xlink:href="#font_2_1" transform="matrix(7.9703395,0,0,-7.9702599,113.02702,175.80593)"/>
<use data-text="&#x2212;" xlink:href="#font_1_1" transform="matrix(7.9703395,0,0,-7.9702599,102.20758,141.43424)"/>
<use data-text="1" xlink:href="#font_2_2" transform="matrix(7.9703395,0,0,-7.9702599,108.79478,141.43424)"/>
<use data-text="5" xlink:href="#font_2_4" transform="matrix(7.9703395,0,0,-7.9702599,113.02702,141.43424)"/>
<use data-text="&#x2212;" xlink:href="#font_1_1" transform="matrix(7.9703395,0,0,-7.9702599,102.20758,107.062549)"/>
<use data-text="1" xlink:href="#font_2_2" transform="matrix(7.9703395,0,0,-7.9702599,108.79478,107.062549)"/>
<use data-text="0" xlink:href="#font_2_1" transform="matrix(7.9703395,0,0,-7.9702599,113.02702,107.062549)"/>
<use data-text="&#x2212;" xlink:href="#font_1_1" transform="matrix(7.9703395,0,0,-7.9702599,106.4417,72.69086)"/>
<use data-text="5" xlink:href="#font_2_4" transform="matrix(7.9703395,0,0,-7.9702599,113.0289,72.69086)"/>
<g clip-path="url(#clip_3)">
<path transform="matrix(1.00003,0,0,-1.00002,1.4615555,208.02457)" stroke-width=".99628" stroke-linecap="butt" stroke-miterlimit="10" stroke-linejoin="miter" fill="none" stroke="#9e0c0f" d="M31.05727 198.0995 34.59561 178.50562 39.6019 153.19222 44.60815 130.28964 49.61444 109.7979 54.62073 91.71686 59.627 76.04668 64.63329 62.78732 69.63956 51.93869 74.64584 43.501 79.65211 37.4739 84.6584 33.85774 89.66469 32.65236 94.67094 33.85774 99.67723 37.47395 104.6835 43.50095 109.68979 51.93874 114.69606 62.78732 119.70235 76.0467 124.70862 91.71689 129.7149 109.79787 134.72119 130.28964 139.72747 153.19222 144.73374 178.50559 148.27208 198.0995"/>
<path transform="matrix(-.17767534,-.9840697,-.98407956,.17767357,32.644945,10.61438)" d="M7.39124 0 2.37614 1.6717 .70447 0 2.37614-1.6717Z" fill="#9e0c0f"/>
<path transform="matrix(-.17767534,-.9840697,-.98407956,.17767357,32.644945,10.61438)" stroke-width=".99628" stroke-linecap="butt" stroke-miterlimit="10" stroke-linejoin="miter" fill="none" stroke="#9e0c0f" d="M7.39124 0 2.37614 1.6717 .70447 0 2.37614-1.6717Z"/>
<path transform="matrix(.17767534,-.9840697,-.98407956,-.17767357,149.61292,10.61438)" d="M7.39124 0 2.37614 1.6717 .70447 0 2.37614-1.6717Z" fill="#9e0c0f"/>
<path transform="matrix(.17767534,-.9840697,-.98407956,-.17767357,149.61292,10.61438)" stroke-width=".99628" stroke-linecap="butt" stroke-miterlimit="10" stroke-linejoin="miter" fill="none" stroke="#9e0c0f" d="M7.39124 0 2.37614 1.6717 .70447 0 2.37614-1.6717Z"/>
</g>
<path transform="matrix(1.00003,0,0,-1.00002,1.4615555,208.02457)" d="M37.85843 171.85456C37.85843 172.95503 36.96634 173.8471 35.86588 173.8471 34.7654 173.8471 33.87332 172.95503 33.87332 171.85456 33.87332 170.75409 34.7654 169.862 35.86588 169.862 36.96634 169.862 37.85843 170.75409 37.85843 171.85456ZM35.86588 171.85456" fill="#9e0c0f"/>
<path transform="matrix(1.00003,0,0,-1.00002,1.4615555,208.02457)" stroke-width=".3985" stroke-linecap="butt" stroke-miterlimit="10" stroke-linejoin="miter" fill="none" stroke="#9e0c0f" d="M37.85843 171.85456C37.85843 172.95503 36.96634 173.8471 35.86588 173.8471 34.7654 173.8471 33.87332 172.95503 33.87332 171.85456 33.87332 170.75409 34.7654 169.862 35.86588 169.862 36.96634 169.862 37.85843 170.75409 37.85843 171.85456ZM35.86588 171.85456"/>
<path transform="matrix(1.00003,0,0,-1.00002,1.4615555,208.02457)" d="M145.45606 171.85456C145.45606 172.95503 144.56397 173.8471 143.4635 173.8471 142.36302 173.8471 141.47095 172.95503 141.47095 171.85456 141.47095 170.75409 142.36302 169.862 143.4635 169.862 144.56397 169.862 145.45606 170.75409 145.45606 171.85456ZM143.4635 171.85456" fill="#9e0c0f"/>
<path transform="matrix(1.00003,0,0,-1.00002,1.4615555,208.02457)" stroke-width=".3985" stroke-linecap="butt" stroke-miterlimit="10" stroke-linejoin="miter" fill="none" stroke="#9e0c0f" d="M145.45606 171.85456C145.45606 172.95503 144.56397 173.8471 143.4635 173.8471 142.36302 173.8471 141.47095 172.95503 141.47095 171.85456 141.47095 170.75409 142.36302 169.862 143.4635 169.862 144.56397 169.862 145.45606 170.75409 145.45606 171.85456ZM143.4635 171.85456"/>
<path transform="matrix(1.00003,0,0,-1.00002,1.4615555,208.02457)" d="M121.54547 75.616C121.54547 76.71648 120.65338 77.60855 119.55292 77.60855 118.45244 77.60855 117.56036 76.71648 117.56036 75.616 117.56036 74.51553 118.45244 73.62344 119.55292 73.62344 120.65338 73.62344 121.54547 74.51553 121.54547 75.616ZM119.55292 75.616" fill="#9e0c0f"/>
<path transform="matrix(1.00003,0,0,-1.00002,1.4615555,208.02457)" stroke-width=".3985" stroke-linecap="butt" stroke-miterlimit="10" stroke-linejoin="miter" fill="none" stroke="#9e0c0f" d="M121.54547 75.616C121.54547 76.71648 120.65338 77.60855 119.55292 77.60855 118.45244 77.60855 117.56036 76.71648 117.56036 75.616 117.56036 74.51553 118.45244 73.62344 119.55292 73.62344 120.65338 73.62344 121.54547 74.51553 121.54547 75.616ZM119.55292 75.616"/>
<path transform="matrix(1.00003,0,0,-1.00002,1.4615555,208.02457)" d="M91.65724 32.65236C91.65724 33.75282 90.76515 34.64491 89.66469 34.64491 88.56421 34.64491 87.67213 33.75282 87.67213 32.65236 87.67213 31.55188 88.56421 30.6598 89.66469 30.6598 90.76515 30.6598 91.65724 31.55188 91.65724 32.65236ZM89.66469 32.65236" fill="#9e0c0f"/>
<path transform="matrix(1.00003,0,0,-1.00002,1.4615555,208.02457)" stroke-width=".3985" stroke-linecap="butt" stroke-miterlimit="10" stroke-linejoin="miter" fill="none" stroke="#9e0c0f" d="M91.65724 32.65236C91.65724 33.75282 90.76515 34.64491 89.66469 34.64491 88.56421 34.64491 87.67213 33.75282 87.67213 32.65236 87.67213 31.55188 88.56421 30.6598 89.66469 30.6598 90.76515 30.6598 91.65724 31.55188 91.65724 32.65236ZM89.66469 32.65236"/>
<path transform="matrix(1.00003,0,0,-1.00002,1.4615555,208.02457)" d="M61.76901 75.616C61.76901 76.71648 60.87692 77.60855 59.77646 77.60855 58.67598 77.60855 57.7839 76.71648 57.7839 75.616 57.7839 74.51553 58.67598 73.62344 59.77646 73.62344 60.87692 73.62344 61.76901 74.51553 61.76901 75.616ZM59.77646 75.616" fill="#9e0c0f"/>
<path transform="matrix(1.00003,0,0,-1.00002,1.4615555,208.02457)" stroke-width=".3985" stroke-linecap="butt" stroke-miterlimit="10" stroke-linejoin="miter" fill="none" stroke="#9e0c0f" d="M61.76901 75.616C61.76901 76.71648 60.87692 77.60855 59.77646 77.60855 58.67598 77.60855 57.7839 76.71648 57.7839 75.616 57.7839 74.51553 58.67598 73.62344 59.77646 73.62344 60.87692 73.62344 61.76901 74.51553 61.76901 75.616ZM59.77646 75.616"/>
<path transform="matrix(1.00003,0,0,-1.00002,1.4615555,208.02457)" stroke-width=".3985" stroke-linecap="butt" stroke-miterlimit="10" stroke-linejoin="miter" fill="none" stroke="#9e0c0f" d=""/>
<use data-text="x" xlink:href="#font_4_1" transform="matrix(9.962899,0,0,-9.962799,231.36048,32.647066)"/>
<use data-text="y" xlink:href="#font_4_2" transform="matrix(9.962899,0,0,-9.962799,124.53825,9.604599)"/>
</svg>
