<svg xmlns="http://www.w3.org/2000/svg" xmlns:xlink="http://www.w3.org/1999/xlink" version="1.1" width="242" height="209" viewBox="0 0 242 209">
<defs>
<path id="font_1_1" d="M.69898989 .22743225C.71499636 .22743225 .7369995 .22743225 .7369995 .25042726 .7369995 .2734375 .71499636 .2734375 .69898989 .2734375H.12599182C.10998535 .2734375 .08799744 .2734375 .08799744 .25042726 .08799744 .22743225 .10998535 .22743225 .12599182 .22743225H.69898989Z"/>
<path id="font_2_4" d="M.13798523 .33073426C.13798523 .41377259 .14498902 .4868164 .18099976 .54782107 .21099854 .5978241 .2619934 .6390381 .32499696 .6390381 .34498597 .6390381 .3909912 .63601687 .4139862 .60084536 .36898805 .5988312 .36499024 .5648346 .36499024 .553833 .36499024 .5238342 .3880005 .50683596 .4119873 .50683596 .42999269 .50683596 .45899964 .51782229 .45899964 .5558319 .45899964 .615921 .4139862 .66503909 .32398988 .66503909 .18499756 .66503909 .04399109 .53282168 .04399109 .31672669 .04399109 .045532228 .16999817-.021484375 .2669983-.021484375 .31498719-.021484375 .36698915-.0084991459 .4119873 .03453064 .45199586 .07354736 .48599244 .11558533 .48599244 .20263672 .48599244 .33372499 .3869934 .42578126 .27598573 .42578126 .20399475 .42578126 .16099549 .37976075 .13798523 .33073426M.2669983 .008514404C.21398926 .008514404 .18099976 .045532228 .1659851 .07354736 .14299011 .11859131 .14099121 .18663025 .14099121 .22465515 .14099121 .32373048 .19499207 .3977661 .27198792 .3977661 .32199098 .3977661 .35198976 .37176515 .37098695 .33673097 .3919983 .29971314 .3919983 .25468446 .3919983 .2036438 .3919983 .15260315 .3919983 .10858154 .37199403 .07255554 .34599305 .026519776 .31098939 .008514404 .2669983 .008514404Z"/>
<path id="font_2_3" d="M.3939972 .6468048C.3939972 .6667938 .3939972 .6748047 .37298585 .6748047 .3600006 .6748047 .35899354 .6737976 .34899903 .65979006L.02999878 .197052V.1640625H.31199647V.08100891C.31199647 .04399109 .30899049 .032989503 .23199463 .032989503H.20899964V0C.2939911 .0029907227 .29599 .0029907227 .35299684 .0029907227 .4099884 .0029907227 .4119873 .0029907227 .49699403 0V.032989503H.47399903C.39698792 .032989503 .3939972 .04399109 .3939972 .08100891V.1640625H.5V.197052H.3939972V.6468048M.31900025 .5658417V.197052H.06498718L.31900025 .5658417Z"/>
<path id="font_2_2" d="M.28199769 .20405579C.2979889 .21907044 .33999635 .2520752 .35598756 .26608277 .41799928 .32312013 .47698976 .3781433 .47698976 .46917726 .47698976 .588089 .3769989 .66503909 .2519989 .66503909 .13198853 .66503909 .052993776 .57411196 .052993776 .48516847 .052993776 .4361725 .09199524 .4291687 .10598755 .4291687 .1269989 .4291687 .1579895 .4441681 .1579895 .48217774 .1579895 .5341797 .10798645 .5341797 .09599304 .5341797 .125 .6070709 .19198609 .6320343 .24099732 .6320343 .33399964 .6320343 .38198854 .55314639 .38198854 .46917726 .38198854 .36514283 .30899049 .28910829 .19099427 .16804505L.06498718 .037994386C.052993776 .026992798 .052993776 .024993897 .052993776 0H.44799806L.47698976 .17904663H.44599916C.44299317 .1590271 .43499757 .10900879 .4229889 .08999634 .4169922 .08198547 .34098817 .08198547 .32499696 .08198547H.14698792L.28199769 .20405579Z"/>
<path id="font_2_1" d="M.31399537 .63708499C.31399537 .664032 .31199647 .66503909 .2849884 .66503909 .24398804 .6251831 .19099427 .6013489 .09599304 .6013489V.5683594C.12298584 .5683594 .1769867 .5683594 .23498535 .5953522V.08203125C.23498535 .04499817 .23199463 .032989503 .13699341 .032989503H.101989749V0C.14299011 .0029907227 .22898865 .0029907227 .27398683 .0029907227 .31900025 .0029907227 .4059906 .0029907227 .44699098 0V.032989503H.4119873C.31698609 .032989503 .31399537 .04499817 .31399537 .08203125V.63708499Z"/>
<path id="font_2_5" d="M.33198548 .36080934C.3880005 .38783265 .45599366 .4378662 .45599366 .5159302 .45599366 .6110077 .35899354 .66503909 .2659912 .66503909 .1599884 .66503909 .07398987 .59199526 .07398987 .49790956 .07398987 .46089173 .08699036 .42686463 .11199951 .39782716 .1289978 .3768158 .1329956 .3748169 .19499207 .3357849 .070999149 .2807312 .04399109 .20767212 .04399109 .15162659 .04399109 .041534425 .15499878-.021484375 .2639923-.021484375 .3869934-.021484375 .48599244 .061553956 .48599244 .16764832 .48599244 .23069763 .45199586 .2727356 .43598939 .28974916 .4189911 .30575563 .41799928 .3067627 .33198548 .36080934M.1769867 .45487977C.147995 .4718933 .12399292 .5009155 .12399292 .5359497 .12399292 .598999 .19299317 .6390381 .2639923 .6390381 .34199525 .6390381 .4059906 .5859833 .4059906 .5159302 .4059906 .45788575 .36099244 .408844 .3019867 .37982179L.1769867 .45487977M.22599793 .31776429C.22999573 .31576539 .34399415 .24571228 .36099244 .23469544 .3769989 .22569275 .42900086 .19366455 .42900086 .13360596 .42900086 .056549074 .34799195 .008514404 .2659912 .008514404 .1769867 .008514404 .100997928 .06956482 .100997928 .15162659 .100997928 .22668457 .15699768 .28573609 .22599793 .31776429Z"/>
<clipPath id="clip_3">
<path transform="matrix(1,0,0,-1.00002,1.4610005,208.02457)" d="M0 0H239.11191V206.22547H0Z"/>
</clipPath>
<path id="font_4_1" d="M.33399964 .30233766C.33999635 .32835389 .36299134 .42037965 .43299867 .42037965 .43798829 .42037965 .46199037 .42037965 .48298646 .40734864 .45498658 .402359 .43499757 .37734986 .43499757 .35334779 .43499757 .33735658 .44599916 .31835938 .47299195 .31835938 .49499513 .31835938 .5269928 .3363495 .5269928 .37635804 .5269928 .42837525 .46798707 .4423828 .43399049 .4423828 .37599183 .4423828 .34098817 .38935853 .32899476 .36634828 .3039856 .43237306 .25 .4423828 .22099304 .4423828 .116989139 .4423828 .05999756 .3133545 .05999756 .28834535 .05999756 .27833558 .069992069 .27833558 .07199097 .27833558 .07998657 .27833558 .08299255 .28033448 .084991458 .28933717 .11898804 .39535523 .18499756 .42037965 .21899414 .42037965 .23799134 .42037965 .272995 .4113617 .272995 .35334779 .272995 .32235719 .2559967 .25532533 .21899414 .11528015 .20298767 .053268434 .16799927 .011245728 .12399292 .011245728 .117996219 .011245728 .09498596 .011245728 .07398987 .024276734 .09899902 .029266358 .12098694 .05027771 .12098694 .07827759 .12098694 .105270389 .09899902 .11328125 .083999637 .11328125 .053985597 .11328125 .0289917 .08728027 .0289917 .055267335 .0289917 .009246826 .07899475-.0107421879 .12298584-.0107421879 .18899536-.0107421879 .22499085 .059280397 .22799683 .0652771 .23999024 .028274537 .27598573-.0107421879 .33599855-.0107421879 .43899537-.0107421879 .49598695 .118270877 .49598695 .14328003 .49598695 .1532898 .4869995 .1532898 .48399354 .1532898 .47499085 .1532898 .47299195 .14929199 .47099305 .14228821 .43798829 .03527832 .36999513 .011245728 .33799745 .011245728 .29899598 .011245728 .2829895 .043273927 .2829895 .07727051 .2829895 .09927368 .2889862 .121276859 .2999878 .16529846L.33399964 .30233766Z"/>
<path id="font_4_2" d="M.48599244 .38136292C.48999024 .39537049 .48999024 .39736939 .48999024 .40437318 .48999024 .42237855 .47599793 .43138124 .46099855 .43138124 .45098878 .43138124 .43499757 .42536927 .42599488 .41036988 .42399598 .405365 .41600038 .37435914 .4119873 .35635377 .40499879 .33035279 .397995 .30334474 .3919983 .27633668L.34700013 .09628296C.34298707 .08126831 .2999878 .011245728 .23399353 .011245728 .18299866 .011245728 .17199707 .055267335 .17199707 .0922699 .17199707 .1382904 .18899536 .20030213 .22299195 .28833009 .23899842 .3293457 .24299622 .3403473 .24299622 .36035157 .24299622 .405365 .21099854 .4423828 .16099549 .4423828 .06599426 .4423828 .0289917 .29733277 .0289917 .28833009 .0289917 .27833558 .038986207 .27833558 .040985109 .27833558 .050994874 .27833558 .051986696 .28033448 .056991579 .29634095 .083999637 .3903656 .12399292 .42037965 .1579895 .42037965 .1659851 .42037965 .18299866 .42037965 .18299866 .3883667 .18299866 .36335755 .17298889 .3373413 .1659851 .31834413 .12599182 .21231079 .10798645 .1552887 .10798645 .10827637 .10798645 .019256592 .17098999-.0107421879 .22999573-.0107421879 .2689972-.0107421879 .30299378 .0062561037 .33099366 .03425598 .31799317-.017745972 .30599977-.06674194 .2659912-.11973572 .23999024-.15385437 .20199585-.18309021 .1559906-.18309021 .14199829-.18309021 .09700012-.18005371 .07998657-.14074707 .09599304-.14074707 .10899353-.14074707 .12298584-.1287384 .1329956-.11973572 .14299011-.10673523 .14299011-.08773804 .14299011-.056747438 .115997318-.052734376 .10598755-.052734376 .08299255-.052734376 .049987794-.068740848 .049987794-.11773682 .049987794-.16796875 .09399414-.20507813 .1559906-.20507813 .25898744-.20507813 .3619995-.11373901 .3899994-.00074768069L.48599244 .38136292Z"/>
</defs>
<path transform="matrix(1,0,0,-1.00002,1.4610005,208.02457)" d="M0 0H239.11191V206.22547H0Z" fill="#fffac2"/>
<path transform="matrix(1,0,0,-1.00002,1.4610005,208.02457)" stroke-width=".3985" stroke-linecap="butt" stroke-miterlimit="10" stroke-linejoin="miter" fill="none" stroke="#d5d6d5" d="M0 0V206.22547M17.07942 0V206.22547M34.15884 0V206.22547M51.23827 0V206.22547M68.31769 0V206.22547M85.39711 0V206.22547M102.47653 0V206.22547M119.55595 0V206.22547M136.63538 0V206.22547M153.7148 0V206.22547M170.79422 0V206.22547M187.87364 0V206.22547M204.95307 0V206.22547M222.03249 0V206.22547M239.11191 0V206.22547"/>
<path transform="matrix(1,0,0,-1.00002,1.4610005,208.02457)" stroke-width=".3985" stroke-linecap="butt" stroke-miterlimit="10" stroke-linejoin="miter" fill="none" stroke="#d5d6d5" d="M17.07942 0V206.22547M51.23827 0V206.22547M85.39711 0V206.22547M153.7148 0V206.22547M187.87364 0V206.22547M222.03249 0V206.22547"/>
<path transform="matrix(1,0,0,-1.00002,1.4610005,208.02457)" stroke-width=".3985" stroke-linecap="butt" stroke-miterlimit="10" stroke-linejoin="miter" fill="none" stroke="#d5d6d5" d="M0 6.87418H239.11191M0 13.74835H239.11191M0 20.62254H239.11191M0 27.49672H239.11191M0 34.37091H239.11191M0 41.24509H239.11191M0 48.11928H239.11191M0 54.99345H239.11191M0 61.86763H239.11191M0 68.74182H239.11191M0 75.616H239.11191M0 82.49019H239.11191M0 89.36436H239.11191M0 96.23856H239.11191M0 103.11273H239.11191M0 109.98691H239.11191M0 116.8611H239.11191M0 123.73528H239.11191M0 130.60947H239.11191M0 137.48365H239.11191M0 144.35784H239.11191M0 151.23201H239.11191M0 158.10619H239.11191M0 164.98038H239.11191M0 171.85456H239.11191M0 178.72875H239.11191M0 185.60292H239.11191M0 192.47711H239.11191M0 199.35129H239.11191"/>
<path transform="matrix(1,0,0,-1.00002,1.4610005,208.02457)" stroke-width=".3985" stroke-linecap="butt" stroke-miterlimit="10" stroke-linejoin="miter" fill="none" stroke="#d5d6d5" d="M0 20.62254H239.11191M0 48.11928H239.11191M0 75.616H239.11191M0 130.60947H239.11191M0 158.10619H239.11191M0 185.60292H239.11191"/>
<path transform="matrix(1,0,0,-1.00002,1.4610005,208.02457)" stroke-width=".19925" stroke-linecap="butt" stroke-miterlimit="10" stroke-linejoin="miter" fill="none" stroke="#929292" d="M0 101.6954V104.53006M17.07942 101.6954V104.53006M34.15884 101.6954V104.53006M51.23827 101.6954V104.53006M68.31769 101.6954V104.53006M85.39711 101.6954V104.53006M102.47653 101.6954V104.53006M119.55595 101.6954V104.53006M136.63538 101.6954V104.53006M153.7148 101.6954V104.53006M170.79422 101.6954V104.53006M187.87364 101.6954V104.53006M204.95307 101.6954V104.53006M222.03249 101.6954V104.53006M239.11191 101.6954V104.53006"/>
<path transform="matrix(1,0,0,-1.00002,1.4610005,208.02457)" stroke-width=".19925" stroke-linecap="butt" stroke-miterlimit="10" stroke-linejoin="miter" fill="none" stroke="#929292" d="M17.07942 100.98697V105.23848M51.23827 100.98697V105.23848M85.39711 100.98697V105.23848M153.7148 100.98697V105.23848M187.87364 100.98697V105.23848M222.03249 100.98697V105.23848"/>
<path transform="matrix(1,0,0,-1.00002,1.4610005,208.02457)" stroke-width=".19925" stroke-linecap="butt" stroke-miterlimit="10" stroke-linejoin="miter" fill="none" stroke="#929292" d="M118.13852 6.87418H120.97339M118.13852 13.74835H120.97339M118.13852 20.62254H120.97339M118.13852 27.49672H120.97339M118.13852 34.37091H120.97339M118.13852 41.24509H120.97339M118.13852 48.11928H120.97339M118.13852 54.99345H120.97339M118.13852 61.86763H120.97339M118.13852 68.74182H120.97339M118.13852 75.616H120.97339M118.13852 82.49019H120.97339M118.13852 89.36436H120.97339M118.13852 96.23856H120.97339M118.13852 103.11273H120.97339M118.13852 109.98691H120.97339M118.13852 116.8611H120.97339M118.13852 123.73528H120.97339M118.13852 130.60947H120.97339M118.13852 137.48365H120.97339M118.13852 144.35784H120.97339M118.13852 151.23201H120.97339M118.13852 158.10619H120.97339M118.13852 164.98038H120.97339M118.13852 171.85456H120.97339M118.13852 178.72875H120.97339M118.13852 185.60292H120.97339M118.13852 192.47711H120.97339M118.13852 199.35129H120.97339"/>
<path transform="matrix(1,0,0,-1.00002,1.4610005,208.02457)" stroke-width=".19925" stroke-linecap="butt" stroke-miterlimit="10" stroke-linejoin="miter" fill="none" stroke="#929292" d="M117.43001 20.62254H121.68187M117.43001 48.11928H121.68187M117.43001 75.616H121.68187M117.43001 130.60947H121.68187M117.43001 158.10619H121.68187M117.43001 185.60292H121.68187"/>
<path transform="matrix(1,0,0,-1.00002,1.4610005,208.02457)" stroke-width=".3985" stroke-linecap="butt" stroke-miterlimit="10" stroke-linejoin="miter" fill="none" stroke="#000000" d="M1.99252 103.11273H237.11939"/>
<path transform="matrix(-1,-0,0,1.00002,3.4535204,104.90977)" d="M1.99252 0-1.19551 1.59401 0 0-1.19551-1.59401"/>
<path transform="matrix(1,0,0,-1.00002,238.58039,104.90977)" d="M1.99252 0-1.19551 1.59401 0 0-1.19551-1.59401"/>
<path transform="matrix(1,0,0,-1.00002,1.4610005,208.02457)" stroke-width=".3985" stroke-linecap="butt" stroke-miterlimit="10" stroke-linejoin="miter" fill="none" stroke="#000000" d="M119.55595 1.99252V204.23294"/>
<path transform="matrix(0,1.00002,1,0,121.016948,206.03202)" d="M1.99252 0-1.19551 1.59401 0 0-1.19551-1.59401"/>
<path transform="matrix(0,-1.00002,-1,-0,121.016948,3.7875367)" d="M1.99252 0-1.19551 1.59401 0 0-1.19551-1.59401"/>
<use data-text="&#x2212;" xlink:href="#font_1_1" transform="matrix(7.9701,0,0,-7.9702599,13.13,115.69172)"/>
<use data-text="6" xlink:href="#font_2_4" transform="matrix(7.9701,0,0,-7.9702599,19.717,115.69172)"/>
<use data-text="&#x2212;" xlink:href="#font_1_1" transform="matrix(7.9701,0,0,-7.9702599,47.289,115.69172)"/>
<use data-text="4" xlink:href="#font_2_3" transform="matrix(7.9701,0,0,-7.9702599,53.876,115.69172)"/>
<use data-text="&#x2212;" xlink:href="#font_1_1" transform="matrix(7.9701,0,0,-7.9702599,81.448,115.69172)"/>
<use data-text="2" xlink:href="#font_2_2" transform="matrix(7.9701,0,0,-7.9702599,88.035,115.69172)"/>
<use data-text="2" xlink:href="#font_2_2" transform="matrix(7.9701,0,0,-7.9702599,153.059,115.69172)"/>
<use data-text="4" xlink:href="#font_2_3" transform="matrix(7.9701,0,0,-7.9702599,187.218,115.69172)"/>
<use data-text="6" xlink:href="#font_2_4" transform="matrix(7.9701,0,0,-7.9702599,221.37599,115.69172)"/>
<use data-text="&#x2212;" xlink:href="#font_1_1" transform="matrix(7.9701,0,0,-7.9702599,102.207,189.5542)"/>
<use data-text="1" xlink:href="#font_2_1" transform="matrix(7.9701,0,0,-7.9702599,108.79401,189.5542)"/>
<use data-text="2" xlink:href="#font_2_2" transform="matrix(7.9701,0,0,-7.9702599,113.02612,189.5542)"/>
<use data-text="&#x2212;" xlink:href="#font_1_1" transform="matrix(7.9701,0,0,-7.9702599,106.44101,162.05765)"/>
<use data-text="8" xlink:href="#font_2_5" transform="matrix(7.9701,0,0,-7.9702599,113.02801,162.05765)"/>
<use data-text="&#x2212;" xlink:href="#font_1_1" transform="matrix(7.9701,0,0,-7.9702599,106.44101,134.56009)"/>
<use data-text="4" xlink:href="#font_2_3" transform="matrix(7.9701,0,0,-7.9702599,113.02801,134.56009)"/>
<use data-text="4" xlink:href="#font_2_3" transform="matrix(7.9701,0,0,-7.9702599,113.028,79.981)"/>
<use data-text="8" xlink:href="#font_2_5" transform="matrix(7.9701,0,0,-7.9702599,113.028,52.48346)"/>
<use data-text="1" xlink:href="#font_2_1" transform="matrix(7.9701,0,0,-7.9702599,108.793,24.9859)"/>
<use data-text="2" xlink:href="#font_2_2" transform="matrix(7.9701,0,0,-7.9702599,113.02513,24.9859)"/>
<g clip-path="url(#clip_3)">
<path transform="matrix(1,0,0,-1.00002,1.4610005,208.02457)" stroke-width=".99628" stroke-linecap="butt" stroke-miterlimit="10" stroke-linejoin="miter" fill="none" stroke="#9e0c0f" d="M98.94139 198.06337 102.49927 178.60971 107.54338 153.42752 112.58746 130.6436 117.63158 110.258 122.67567 92.27068 127.71977 76.68164 132.76387 63.49092 137.80799 52.69844 142.85207 44.30434 147.89618 38.30847 152.94028 34.71089 157.98438 33.51163 163.02849 34.71065 168.07259 38.30795 173.11669 44.30356 178.16078 52.69753 183.20488 63.48961 188.24898 76.68016 193.29309 92.26883 198.33718 110.25606 203.38129 130.64133 208.42539 153.42507 213.46949 178.60704 217.02738 198.06026"/>
<path transform="matrix(-.17989,-.98365977,-.98364,.17989362,100.52913,10.650192)" d="M7.39124 0 2.37614 1.6717 .70447 0 2.37614-1.6717Z" fill="#9e0c0f"/>
<path transform="matrix(-.17989,-.98365977,-.98364,.17989362,100.52913,10.650192)" stroke-width=".99628" stroke-linecap="butt" stroke-miterlimit="10" stroke-linejoin="miter" fill="none" stroke="#9e0c0f" d="M7.39124 0 2.37614 1.6717 .70447 0 2.37614-1.6717Z"/>
<path transform="matrix(.17989,-.98365977,-.98364,-.17989362,218.36164,10.653305)" d="M7.39124 0 2.37614 1.6717 .70447 0 2.37614-1.6717Z" fill="#9e0c0f"/>
<path transform="matrix(.17989,-.98365977,-.98364,-.17989362,218.36164,10.653305)" stroke-width=".99628" stroke-linecap="butt" stroke-miterlimit="10" stroke-linejoin="miter" fill="none" stroke="#9e0c0f" d="M7.39124 0 2.37614 1.6717 .70447 0 2.37614-1.6717Z"/>
</g>
<path transform="matrix(1,0,0,-1.00002,1.4610005,208.02457)" d="M104.46909 178.72875C104.46909 179.82921 103.577 180.7213 102.47653 180.7213 101.37605 180.7213 100.48398 179.82921 100.48398 178.72875 100.48398 177.62827 101.37605 176.73619 102.47653 176.73619 103.577 176.73619 104.46909 177.62827 104.46909 178.72875ZM102.47653 178.72875" fill="#9e0c0f"/>
<path transform="matrix(1,0,0,-1.00002,1.4610005,208.02457)" stroke-width=".3985" stroke-linecap="butt" stroke-miterlimit="10" stroke-linejoin="miter" fill="none" stroke="#9e0c0f" d="M104.46909 178.72875C104.46909 179.82921 103.577 180.7213 102.47653 180.7213 101.37605 180.7213 100.48398 179.82921 100.48398 178.72875 100.48398 177.62827 101.37605 176.73619 102.47653 176.73619 103.577 176.73619 104.46909 177.62827 104.46909 178.72875ZM102.47653 178.72875"/>
<path transform="matrix(1,0,0,-1.00002,1.4610005,208.02457)" d="M121.54851 103.11273C121.54851 104.2132 120.65642 105.10529 119.55595 105.10529 118.45547 105.10529 117.5634 104.2132 117.5634 103.11273 117.5634 102.01225 118.45547 101.12018 119.55595 101.12018 120.65642 101.12018 121.54851 102.01225 121.54851 103.11273ZM119.55595 103.11273" fill="#9e0c0f"/>
<path transform="matrix(1,0,0,-1.00002,1.4610005,208.02457)" stroke-width=".3985" stroke-linecap="butt" stroke-miterlimit="10" stroke-linejoin="miter" fill="none" stroke="#9e0c0f" d="M121.54851 103.11273C121.54851 104.2132 120.65642 105.10529 119.55595 105.10529 118.45547 105.10529 117.5634 104.2132 117.5634 103.11273 117.5634 102.01225 118.45547 101.12018 119.55595 101.12018 120.65642 101.12018 121.54851 102.01225 121.54851 103.11273ZM119.55595 103.11273"/>
<path transform="matrix(1,0,0,-1.00002,1.4610005,208.02457)" d="M138.62793 54.99345C138.62793 56.09392 137.73584 56.98601 136.63538 56.98601 135.5349 56.98601 134.64282 56.09392 134.64282 54.99345 134.64282 53.89297 135.5349 53.0009 136.63538 53.0009 137.73584 53.0009 138.62793 53.89297 138.62793 54.99345ZM136.63538 54.99345" fill="#9e0c0f"/>
<path transform="matrix(1,0,0,-1.00002,1.4610005,208.02457)" stroke-width=".3985" stroke-linecap="butt" stroke-miterlimit="10" stroke-linejoin="miter" fill="none" stroke="#9e0c0f" d="M138.62793 54.99345C138.62793 56.09392 137.73584 56.98601 136.63538 56.98601 135.5349 56.98601 134.64282 56.09392 134.64282 54.99345 134.64282 53.89297 135.5349 53.0009 136.63538 53.0009 137.73584 53.0009 138.62793 53.89297 138.62793 54.99345ZM136.63538 54.99345"/>
<path transform="matrix(1,0,0,-1.00002,1.4610005,208.02457)" d="M155.70735 34.37091C155.70735 35.47137 154.81526 36.36346 153.7148 36.36346 152.61432 36.36346 151.72225 35.47137 151.72225 34.37091 151.72225 33.27043 152.61432 32.37836 153.7148 32.37836 154.81526 32.37836 155.70735 33.27043 155.70735 34.37091ZM153.7148 34.37091" fill="#9e0c0f"/>
<path transform="matrix(1,0,0,-1.00002,1.4610005,208.02457)" stroke-width=".3985" stroke-linecap="butt" stroke-miterlimit="10" stroke-linejoin="miter" fill="none" stroke="#9e0c0f" d="M155.70735 34.37091C155.70735 35.47137 154.81526 36.36346 153.7148 36.36346 152.61432 36.36346 151.72225 35.47137 151.72225 34.37091 151.72225 33.27043 152.61432 32.37836 153.7148 32.37836 154.81526 32.37836 155.70735 33.27043 155.70735 34.37091ZM153.7148 34.37091"/>
<path transform="matrix(1,0,0,-1.00002,1.4610005,208.02457)" d="M159.9772 32.65236C159.9772 33.75282 159.08513 34.64491 157.98465 34.64491 156.88419 34.64491 155.9921 33.75282 155.9921 32.65236 155.9921 31.55188 156.88419 30.6598 157.98465 30.6598 159.08513 30.6598 159.9772 31.55188 159.9772 32.65236ZM157.98465 32.65236" fill="#9e0c0f"/>
<path transform="matrix(1,0,0,-1.00002,1.4610005,208.02457)" stroke-width=".3985" stroke-linecap="butt" stroke-miterlimit="10" stroke-linejoin="miter" fill="none" stroke="#9e0c0f" d="M159.9772 32.65236C159.9772 33.75282 159.08513 34.64491 157.98465 34.64491 156.88419 34.64491 155.9921 33.75282 155.9921 32.65236 155.9921 31.55188 156.88419 30.6598 157.98465 30.6598 159.08513 30.6598 159.9772 31.55188 159.9772 32.65236ZM157.98465 32.65236"/>
<path transform="matrix(1,0,0,-1.00002,1.4610005,208.02457)" d="M172.78678 41.24509C172.78678 42.34557 171.89469 43.23764 170.79422 43.23764 169.69374 43.23764 168.80167 42.34557 168.80167 41.24509 168.80167 40.14462 169.69374 39.25253 170.79422 39.25253 171.89469 39.25253 172.78678 40.14462 172.78678 41.24509ZM170.79422 41.24509" fill="#9e0c0f"/>
<path transform="matrix(1,0,0,-1.00002,1.4610005,208.02457)" stroke-width=".3985" stroke-linecap="butt" stroke-miterlimit="10" stroke-linejoin="miter" fill="none" stroke="#9e0c0f" d="M172.78678 41.24509C172.78678 42.34557 171.89469 43.23764 170.79422 43.23764 169.69374 43.23764 168.80167 42.34557 168.80167 41.24509 168.80167 40.14462 169.69374 39.25253 170.79422 39.25253 171.89469 39.25253 172.78678 40.14462 172.78678 41.24509ZM170.79422 41.24509"/>
<path transform="matrix(1,0,0,-1.00002,1.4610005,208.02457)" d="M189.8662 75.616C189.8662 76.71648 188.9741 77.60855 187.87364 77.60855 186.77318 77.60855 185.88109 76.71648 185.88109 75.616 185.88109 74.51553 186.77318 73.62344 187.87364 73.62344 188.9741 73.62344 189.8662 74.51553 189.8662 75.616ZM187.87364 75.616" fill="#9e0c0f"/>
<path transform="matrix(1,0,0,-1.00002,1.4610005,208.02457)" stroke-width=".3985" stroke-linecap="butt" stroke-miterlimit="10" stroke-linejoin="miter" fill="none" stroke="#9e0c0f" d="M189.8662 75.616C189.8662 76.71648 188.9741 77.60855 187.87364 77.60855 186.77318 77.60855 185.88109 76.71648 185.88109 75.616 185.88109 74.51553 186.77318 73.62344 187.87364 73.62344 188.9741 73.62344 189.8662 74.51553 189.8662 75.616ZM187.87364 75.616"/>
<path transform="matrix(1,0,0,-1.00002,1.4610005,208.02457)" d="M206.94562 137.48365C206.94562 138.58412 206.05355 139.4762 204.95307 139.4762 203.8526 139.4762 202.96051 138.58412 202.96051 137.48365 202.96051 136.38318 203.8526 135.49109 204.95307 135.49109 206.05355 135.49109 206.94562 136.38318 206.94562 137.48365ZM204.95307 137.48365" fill="#9e0c0f"/>
<path transform="matrix(1,0,0,-1.00002,1.4610005,208.02457)" stroke-width=".3985" stroke-linecap="butt" stroke-miterlimit="10" stroke-linejoin="miter" fill="none" stroke="#9e0c0f" d="M206.94562 137.48365C206.94562 138.58412 206.05355 139.4762 204.95307 139.4762 203.8526 139.4762 202.96051 138.58412 202.96051 137.48365 202.96051 136.38318 203.8526 135.49109 204.95307 135.49109 206.05355 135.49109 206.94562 136.38318 206.94562 137.48365ZM204.95307 137.48365"/>
<path transform="matrix(1,0,0,-1.00002,1.4610005,208.02457)" stroke-width=".3985" stroke-linecap="butt" stroke-miterlimit="10" stroke-linejoin="miter" fill="none" stroke="#9e0c0f" d=""/>
<path transform="matrix(1,0,0,-1.00002,1.4610005,208.02457)" d="M215.48534 178.72875C215.48534 179.82921 214.59325 180.7213 213.49279 180.7213 212.3923 180.7213 211.50023 179.82921 211.50023 178.72875 211.50023 177.62827 212.3923 176.73619 213.49279 176.73619 214.59325 176.73619 215.48534 177.62827 215.48534 178.72875ZM213.49279 178.72875" fill="#9e0c0f"/>
<path transform="matrix(1,0,0,-1.00002,1.4610005,208.02457)" stroke-width=".3985" stroke-linecap="butt" stroke-miterlimit="10" stroke-linejoin="miter" fill="none" stroke="#9e0c0f" d="M215.48534 178.72875C215.48534 179.82921 214.59325 180.7213 213.49279 180.7213 212.3923 180.7213 211.50023 179.82921 211.50023 178.72875 211.50023 177.62827 212.3923 176.73619 213.49279 176.73619 214.59325 176.73619 215.48534 177.62827 215.48534 178.72875ZM213.49279 178.72875"/>
<path transform="matrix(1,0,0,-1.00002,1.4610005,208.02457)" d="M198.40592 103.11273C198.40592 104.2132 197.51383 105.10529 196.41336 105.10529 195.31288 105.10529 194.4208 104.2132 194.4208 103.11273 194.4208 102.01225 195.31288 101.12018 196.41336 101.12018 197.51383 101.12018 198.40592 102.01225 198.40592 103.11273ZM196.41336 103.11273" fill="#9e0c0f"/>
<path transform="matrix(1,0,0,-1.00002,1.4610005,208.02457)" stroke-width=".3985" stroke-linecap="butt" stroke-miterlimit="10" stroke-linejoin="miter" fill="none" stroke="#9e0c0f" d="M198.40592 103.11273C198.40592 104.2132 197.51383 105.10529 196.41336 105.10529 195.31288 105.10529 194.4208 104.2132 194.4208 103.11273 194.4208 102.01225 195.31288 101.12018 196.41336 101.12018 197.51383 101.12018 198.40592 102.01225 198.40592 103.11273ZM196.41336 103.11273"/>
<path transform="matrix(1,0,0,-1.00002,1.4610005,208.02457)" d="M181.32648 54.99345C181.32648 56.09392 180.4344 56.98601 179.33393 56.98601 178.23346 56.98601 177.34137 56.09392 177.34137 54.99345 177.34137 53.89297 178.23346 53.0009 179.33393 53.0009 180.4344 53.0009 181.32648 53.89297 181.32648 54.99345ZM179.33393 54.99345" fill="#9e0c0f"/>
<path transform="matrix(1,0,0,-1.00002,1.4610005,208.02457)" stroke-width=".3985" stroke-linecap="butt" stroke-miterlimit="10" stroke-linejoin="miter" fill="none" stroke="#9e0c0f" d="M181.32648 54.99345C181.32648 56.09392 180.4344 56.98601 179.33393 56.98601 178.23346 56.98601 177.34137 56.09392 177.34137 54.99345 177.34137 53.89297 178.23346 53.0009 179.33393 53.0009 180.4344 53.0009 181.32648 53.89297 181.32648 54.99345ZM179.33393 54.99345"/>
<path transform="matrix(1,0,0,-1.00002,1.4610005,208.02457)" d="M164.24706 34.37091C164.24706 35.47137 163.35498 36.36346 162.2545 36.36346 161.15404 36.36346 160.26195 35.47137 160.26195 34.37091 160.26195 33.27043 161.15404 32.37836 162.2545 32.37836 163.35498 32.37836 164.24706 33.27043 164.24706 34.37091ZM162.2545 34.37091" fill="#9e0c0f"/>
<path transform="matrix(1,0,0,-1.00002,1.4610005,208.02457)" stroke-width=".3985" stroke-linecap="butt" stroke-miterlimit="10" stroke-linejoin="miter" fill="none" stroke="#9e0c0f" d="M164.24706 34.37091C164.24706 35.47137 163.35498 36.36346 162.2545 36.36346 161.15404 36.36346 160.26195 35.47137 160.26195 34.37091 160.26195 33.27043 161.15404 32.37836 162.2545 32.37836 163.35498 32.37836 164.24706 33.27043 164.24706 34.37091ZM162.2545 34.37091"/>
<path transform="matrix(1,0,0,-1.00002,1.4610005,208.02457)" d="M147.16764 41.24509C147.16764 42.34557 146.27556 43.23764 145.17508 43.23764 144.07462 43.23764 143.18253 42.34557 143.18253 41.24509 143.18253 40.14462 144.07462 39.25253 145.17508 39.25253 146.27556 39.25253 147.16764 40.14462 147.16764 41.24509ZM145.17508 41.24509" fill="#9e0c0f"/>
<path transform="matrix(1,0,0,-1.00002,1.4610005,208.02457)" stroke-width=".3985" stroke-linecap="butt" stroke-miterlimit="10" stroke-linejoin="miter" fill="none" stroke="#9e0c0f" d="M147.16764 41.24509C147.16764 42.34557 146.27556 43.23764 145.17508 43.23764 144.07462 43.23764 143.18253 42.34557 143.18253 41.24509 143.18253 40.14462 144.07462 39.25253 145.17508 39.25253 146.27556 39.25253 147.16764 40.14462 147.16764 41.24509ZM145.17508 41.24509"/>
<path transform="matrix(1,0,0,-1.00002,1.4610005,208.02457)" d="M130.08821 75.616C130.08821 76.71648 129.19614 77.60855 128.09566 77.60855 126.9952 77.60855 126.1031 76.71648 126.1031 75.616 126.1031 74.51553 126.9952 73.62344 128.09566 73.62344 129.19614 73.62344 130.08821 74.51553 130.08821 75.616ZM128.09566 75.616" fill="#9e0c0f"/>
<path transform="matrix(1,0,0,-1.00002,1.4610005,208.02457)" stroke-width=".3985" stroke-linecap="butt" stroke-miterlimit="10" stroke-linejoin="miter" fill="none" stroke="#9e0c0f" d="M130.08821 75.616C130.08821 76.71648 129.19614 77.60855 128.09566 77.60855 126.9952 77.60855 126.1031 76.71648 126.1031 75.616 126.1031 74.51553 126.9952 73.62344 128.09566 73.62344 129.19614 73.62344 130.08821 74.51553 130.08821 75.616ZM128.09566 75.616"/>
<path transform="matrix(1,0,0,-1.00002,1.4610005,208.02457)" d="M206.94562 137.48365C206.94562 138.58412 206.05355 139.4762 204.95307 139.4762 203.8526 139.4762 202.96051 138.58412 202.96051 137.48365 202.96051 136.38318 203.8526 135.49109 204.95307 135.49109 206.05355 135.49109 206.94562 136.38318 206.94562 137.48365ZM204.95307 137.48365" fill="#9e0c0f"/>
<path transform="matrix(1,0,0,-1.00002,1.4610005,208.02457)" stroke-width=".3985" stroke-linecap="butt" stroke-miterlimit="10" stroke-linejoin="miter" fill="none" stroke="#9e0c0f" d="M206.94562 137.48365C206.94562 138.58412 206.05355 139.4762 204.95307 139.4762 203.8526 139.4762 202.96051 138.58412 202.96051 137.48365 202.96051 136.38318 203.8526 135.49109 204.95307 135.49109 206.05355 135.49109 206.94562 136.38318 206.94562 137.48365ZM204.95307 137.48365"/>
<path transform="matrix(1,0,0,-1.00002,1.4610005,208.02457)" stroke-width=".3985" stroke-linecap="butt" stroke-miterlimit="10" stroke-linejoin="miter" fill="none" stroke="#9e0c0f" d=""/>
<use data-text="x" xlink:href="#font_4_1" transform="matrix(9.9626,0,0,-9.962799,231.359,101.38943)"/>
<use data-text="y" xlink:href="#font_4_2" transform="matrix(9.9626,0,0,-9.962799,124.537,9.604599)"/>
</svg>
