<svg xmlns="http://www.w3.org/2000/svg" xmlns:xlink="http://www.w3.org/1999/xlink" version="1.1" width="243" height="210" viewBox="0 0 243 210">
<defs>
<path id="font_1_1" d="M.69898989 .22743225C.71499636 .22743225 .7369995 .22743225 .7369995 .25042726 .7369995 .2734375 .71499636 .2734375 .69898989 .2734375H.12599182C.10998535 .2734375 .08799744 .2734375 .08799744 .25042726 .08799744 .22743225 .10998535 .22743225 .12599182 .22743225H.69898989Z"/>
<path id="font_2_3" d="M.13798523 .33073426C.13798523 .41377259 .14498902 .4868164 .18099976 .54782107 .21099854 .5978241 .2619934 .6390381 .32499696 .6390381 .34498597 .6390381 .3909912 .63601687 .4139862 .60084536 .36898805 .5988312 .36499024 .5648346 .36499024 .553833 .36499024 .5238342 .3880005 .50683596 .4119873 .50683596 .42999269 .50683596 .45899964 .51782229 .45899964 .5558319 .45899964 .615921 .4139862 .66503909 .32398988 .66503909 .18499756 .66503909 .04399109 .53282168 .04399109 .31672669 .04399109 .045532228 .16999817-.021484375 .2669983-.021484375 .31498719-.021484375 .36698915-.0084991459 .4119873 .03453064 .45199586 .07354736 .48599244 .11558533 .48599244 .20263672 .48599244 .33372499 .3869934 .42578126 .27598573 .42578126 .20399475 .42578126 .16099549 .37976075 .13798523 .33073426M.2669983 .008514404C.21398926 .008514404 .18099976 .045532228 .1659851 .07354736 .14299011 .11859131 .14099121 .18663025 .14099121 .22465515 .14099121 .32373048 .19499207 .3977661 .27198792 .3977661 .32199098 .3977661 .35198976 .37176515 .37098695 .33673097 .3919983 .29971314 .3919983 .25468446 .3919983 .2036438 .3919983 .15260315 .3919983 .10858154 .37199403 .07255554 .34599305 .026519776 .31098939 .008514404 .2669983 .008514404Z"/>
<path id="font_2_2" d="M.3939972 .6468048C.3939972 .6667938 .3939972 .6748047 .37298585 .6748047 .3600006 .6748047 .35899354 .6737976 .34899903 .65979006L.02999878 .197052V.1640625H.31199647V.08100891C.31199647 .04399109 .30899049 .032989503 .23199463 .032989503H.20899964V0C.2939911 .0029907227 .29599 .0029907227 .35299684 .0029907227 .4099884 .0029907227 .4119873 .0029907227 .49699403 0V.032989503H.47399903C.39698792 .032989503 .3939972 .04399109 .3939972 .08100891V.1640625H.5V.197052H.3939972V.6468048M.31900025 .5658417V.197052H.06498718L.31900025 .5658417Z"/>
<path id="font_2_1" d="M.28199769 .20405579C.2979889 .21907044 .33999635 .2520752 .35598756 .26608277 .41799928 .32312013 .47698976 .3781433 .47698976 .46917726 .47698976 .588089 .3769989 .66503909 .2519989 .66503909 .13198853 .66503909 .052993776 .57411196 .052993776 .48516847 .052993776 .4361725 .09199524 .4291687 .10598755 .4291687 .1269989 .4291687 .1579895 .4441681 .1579895 .48217774 .1579895 .5341797 .10798645 .5341797 .09599304 .5341797 .125 .6070709 .19198609 .6320343 .24099732 .6320343 .33399964 .6320343 .38198854 .55314639 .38198854 .46917726 .38198854 .36514283 .30899049 .28910829 .19099427 .16804505L.06498718 .037994386C.052993776 .026992798 .052993776 .024993897 .052993776 0H.44799806L.47698976 .17904663H.44599916C.44299317 .1590271 .43499757 .10900879 .4229889 .08999634 .4169922 .08198547 .34098817 .08198547 .32499696 .08198547H.14698792L.28199769 .20405579Z"/>
<path id="font_3_5" d="M.48599244 .38136292C.48999024 .39537049 .48999024 .39736939 .48999024 .40437318 .48999024 .42237855 .47599793 .43138124 .46099855 .43138124 .45098878 .43138124 .43499757 .42536927 .42599488 .41036988 .42399598 .405365 .41600038 .37435914 .4119873 .35635377 .40499879 .33035279 .397995 .30334474 .3919983 .27633668L.34700013 .09628296C.34298707 .08126831 .2999878 .011245728 .23399353 .011245728 .18299866 .011245728 .17199707 .055267335 .17199707 .0922699 .17199707 .1382904 .18899536 .20030213 .22299195 .28833009 .23899842 .3293457 .24299622 .3403473 .24299622 .36035157 .24299622 .405365 .21099854 .4423828 .16099549 .4423828 .06599426 .4423828 .0289917 .29733277 .0289917 .28833009 .0289917 .27833558 .038986207 .27833558 .040985109 .27833558 .050994874 .27833558 .051986696 .28033448 .056991579 .29634095 .083999637 .3903656 .12399292 .42037965 .1579895 .42037965 .1659851 .42037965 .18299866 .42037965 .18299866 .3883667 .18299866 .36335755 .17298889 .3373413 .1659851 .31834413 .12599182 .21231079 .10798645 .1552887 .10798645 .10827637 .10798645 .019256592 .17098999-.0107421879 .22999573-.0107421879 .2689972-.0107421879 .30299378 .0062561037 .33099366 .03425598 .31799317-.017745972 .30599977-.06674194 .2659912-.11973572 .23999024-.15385437 .20199585-.18309021 .1559906-.18309021 .14199829-.18309021 .09700012-.18005371 .07998657-.14074707 .09599304-.14074707 .10899353-.14074707 .12298584-.1287384 .1329956-.11973572 .14299011-.10673523 .14299011-.08773804 .14299011-.056747438 .115997318-.052734376 .10598755-.052734376 .08299255-.052734376 .049987794-.068740848 .049987794-.11773682 .049987794-.16796875 .09399414-.20507813 .1559906-.20507813 .25898744-.20507813 .3619995-.11373901 .3899994-.00074768069L.48599244 .38136292Z"/>
<path id="font_4_9" d="M.68699648 .32714845C.70199587 .32714845 .72099307 .32714845 .72099307 .34713746 .72099307 .36714173 .70199587 .36714173 .6879883 .36714173H.08898926C.07499695 .36714173 .055999757 .36714173 .055999757 .34713746 .055999757 .32714845 .07499695 .32714845 .08999634 .32714845H.68699648M.6879883 .13284302C.70199587 .13284302 .72099307 .13284302 .72099307 .15284729 .72099307 .17285156 .70199587 .17285156 .68699648 .17285156H.08999634C.07499695 .17285156 .055999757 .17285156 .055999757 .15284729 .055999757 .13284302 .07499695 .13284302 .08898926 .13284302H.6879883Z"/>
<path id="font_3_3" d="M.36698915 .3996582H.45298768C.47299195 .3996582 .48298646 .3996582 .48298646 .41966249 .48298646 .43066407 .47299195 .43066407 .45599366 .43066407H.37298585L.3939972 .5449524C.397995 .5660095 .4119873 .6370239 .41799928 .6490326 .4269867 .66804507 .44400025 .68307498 .46499635 .68307498 .46899415 .68307498 .49499513 .68307498 .5139923 .66503909 .46998597 .661026 .45999146 .6260376 .45999146 .6110382 .45999146 .58802798 .47799684 .57603457 .49699403 .57603457 .522995 .57603457 .5519867 .5980377 .5519867 .6360321 .5519867 .6820679 .5059967 .7050781 .46499635 .7050781 .43099977 .7050781 .36799623 .68707278 .33799745 .58802798 .33198548 .56700137 .32899476 .5569763 .30499269 .43066407H.23599243C.21699524 .43066407 .20599365 .43066407 .20599365 .4116516 .20599365 .3996582 .21499634 .3996582 .23399353 .3996582H.2999878L.22499085 .0048828127C.20698548-.09207153 .18998719-.18309021 .13798523-.18309021 .13398743-.18309021 .10899353-.18309021 .08999634-.16506958 .13598633-.1620636 .14498902-.12606812 .14498902-.111068729 .14498902-.08807373 .1269989-.07606506 .10798645-.07606506 .08198547-.07606506 .052993776-.09806824 .052993776-.13606262 .052993776-.18109131 .09700012-.20507813 .13798523-.20507813 .19299317-.20507813 .23298645-.14607239 .25099183-.108062747 .2829895-.04508972 .30599977 .07583618 .30699159 .082839969L.36698915 .3996582Z"/>
<path id="font_4_1" d="M.33099366-.2400055C.33099366-.23701477 .33099366-.23500061 .31399537-.21800232 .18899536-.0920105 .15699768 .09700012 .15699768 .25 .15699768 .42399598 .19499207 .59799197 .31799317 .72299197 .33099366 .73498538 .33099366 .7369995 .33099366 .73999026 .33099366 .746994 .32699586 .75 .32099916 .75 .31098939 .75 .22099304 .6819916 .1619873 .5549927 .11099243 .44499208 .09899902 .33399964 .09899902 .25 .09899902 .17199707 .10998535 .050994874 .16499329-.06201172 .22499085-.18501282 .31098939-.25 .32099916-.25 .32699586-.25 .33099366-.24700928 .33099366-.2400055Z"/>
<path id="font_3_4" d="M.33399964 .30233766C.33999635 .32835389 .36299134 .42037965 .43299867 .42037965 .43798829 .42037965 .46199037 .42037965 .48298646 .40734864 .45498658 .402359 .43499757 .37734986 .43499757 .35334779 .43499757 .33735658 .44599916 .31835938 .47299195 .31835938 .49499513 .31835938 .5269928 .3363495 .5269928 .37635804 .5269928 .42837525 .46798707 .4423828 .43399049 .4423828 .37599183 .4423828 .34098817 .38935853 .32899476 .36634828 .3039856 .43237306 .25 .4423828 .22099304 .4423828 .116989139 .4423828 .05999756 .3133545 .05999756 .28834535 .05999756 .27833558 .069992069 .27833558 .07199097 .27833558 .07998657 .27833558 .08299255 .28033448 .084991458 .28933717 .11898804 .39535523 .18499756 .42037965 .21899414 .42037965 .23799134 .42037965 .272995 .4113617 .272995 .35334779 .272995 .32235719 .2559967 .25532533 .21899414 .11528015 .20298767 .053268434 .16799927 .011245728 .12399292 .011245728 .117996219 .011245728 .09498596 .011245728 .07398987 .024276734 .09899902 .029266358 .12098694 .05027771 .12098694 .07827759 .12098694 .105270389 .09899902 .11328125 .083999637 .11328125 .053985597 .11328125 .0289917 .08728027 .0289917 .055267335 .0289917 .009246826 .07899475-.0107421879 .12298584-.0107421879 .18899536-.0107421879 .22499085 .059280397 .22799683 .0652771 .23999024 .028274537 .27598573-.0107421879 .33599855-.0107421879 .43899537-.0107421879 .49598695 .118270877 .49598695 .14328003 .49598695 .1532898 .4869995 .1532898 .48399354 .1532898 .47499085 .1532898 .47299195 .14929199 .47099305 .14228821 .43798829 .03527832 .36999513 .011245728 .33799745 .011245728 .29899598 .011245728 .2829895 .043273927 .2829895 .07727051 .2829895 .09927368 .2889862 .121276859 .2999878 .16529846L.33399964 .30233766Z"/>
<path id="font_4_2" d="M.2889862 .25C.2889862 .32798768 .27799989 .44898988 .22299195 .56199648 .16299439 .68499758 .07699585 .75 .066986087 .75 .06098938 .75 .056991579 .74598696 .056991579 .73999026 .056991579 .7369995 .056991579 .73498538 .07598877 .71699526 .17399597 .6179962 .23098755 .45899964 .23098755 .25 .23098755 .07899475 .19400025-.09700012 .069992069-.2230072 .056991579-.23500061 .056991579-.23701477 .056991579-.2400055 .056991579-.2460022 .06098938-.25 .066986087-.25 .07699585-.25 .16699219-.18200684 .22599793-.055007936 .2769928 .054992677 .2889862 .16600037 .2889862 .25Z"/>
<path id="font_4_6" d="M.2899933 .35191346C.37199403 .37893678 .42999269 .4490509 .42999269 .52809146 .42999269 .6100464 .34199525 .6660156 .24598694 .6660156 .14498902 .6660156 .068984989 .60606387 .068984989 .53009036 .068984989 .49710084 .09098816 .47808839 .11999512 .47808839 .15098572 .47808839 .17098999 .50009158 .17098999 .5290985 .17098999 .57910159 .12399292 .57910159 .10899353 .57910159 .13999939 .62802127 .20599365 .64100649 .24198914 .64100649 .2829895 .64100649 .33799745 .6190338 .33799745 .5290985 .33799745 .51708987 .33599855 .45906068 .30999757 .4149933 .27999879 .36691285 .24598694 .36390687 .22099304 .36291505 .21299744 .36190797 .18899536 .35990907 .18199158 .35990907 .17399597 .35890199 .16699219 .35791017 .16699219 .3479004 .16699219 .33691407 .17399597 .33691407 .19099427 .33691407H.23498535C.31698609 .33691407 .35398866 .2686615 .35398866 .17037964 .35398866 .034469606 .2849884 .0055389406 .24099732 .0055389406 .19799805 .0055389406 .12298584 .022491456 .08799744 .08137512 .12298584 .07637024 .1539917 .09837341 .1539917 .1363678 .1539917 .17237854 .1269989 .19238281 .09799194 .19238281 .07398987 .19238281 .041992189 .17837525 .041992189 .1343689 .041992189 .043441774 .1349945-.022460938 .24398804-.022460938 .3659973-.022460938 .45700074 .06838989 .45700074 .17037964 .45700074 .252594 .3939972 .33088685 .2899933 .35191346Z"/>
<path id="font_5_1" d="M.6589966 .23046875C.6759949 .23046875 .69400027 .23046875 .69400027 .25045777 .69400027 .27046205 .6759949 .27046205 .6589966 .27046205H.117996219C.100997928 .27046205 .08299255 .27046205 .08299255 .25045777 .08299255 .23046875 .100997928 .23046875 .117996219 .23046875H.6589966Z"/>
<path id="font_4_4" d="M.2939911 .64004519C.2939911 .66400149 .2939911 .6660156 .2709961 .6660156 .20899964 .60227969 .12098694 .60227969 .08898926 .60227969V.57128909C.10899353 .57128909 .16799927 .57128909 .21998596 .5972748V.07902527C.21998596 .042999269 .21699524 .0309906 .1269989 .0309906H.09498596V0C.12998963 .0029907227 .21699524 .0029907227 .25698854 .0029907227 .29699708 .0029907227 .38398744 .0029907227 .4189911 0V.0309906H.3869934C.29699708 .0309906 .2939911 .041992189 .2939911 .07902527V.64004519Z"/>
<path id="font_3_2" d="M.20298767 .0009918213C.20298767 .066986087 .17799378 .10598755 .13899231 .10598755 .10598755 .10598755 .085998538 .08099365 .085998538 .052993776 .085998538 .025985718 .10598755 0 .13899231 0 .15098572 0 .1639862 .0039978029 .17399597 .0129852299 .1769867 .01499939 .17799378 .015991211 .1789856 .015991211 .17999268 .015991211 .18099976 .01499939 .18099976 .0009918213 .18099976-.07316589 .1459961-.13328552 .11299133-.16635132 .101989749-.17736817 .101989749-.17936707 .101989749-.18237305 .101989749-.18936157 .10699463-.19335938 .11199951-.19335938 .12298584-.19335938 .20298767-.116256717 .20298767 .0009918213Z"/>
<path id="font_4_7" d="M.44898988 .20022583C.44898988 .3193512 .36698915 .41944886 .25898744 .41944886 .21099854 .41944886 .16799927 .40345765 .13198853 .36842347V.5637665C.1519928 .5577698 .18499756 .55078127 .21699524 .55078127 .33999635 .55078127 .4099884 .6417694 .4099884 .6547699 .4099884 .6607666 .40699769 .6657715 .3999939 .6657715 .39898683 .6657715 .39698792 .6657715 .3919983 .66278079 .37199403 .6537781 .32299806 .6337738 .2559967 .6337738 .21598816 .6337738 .16999817 .6407776 .12298584 .6617737 .114990238 .66477969 .11299133 .66477969 .11099243 .66477969 .100997928 .66477969 .100997928 .6567688 .100997928 .6407776V.34439088C.100997928 .32637025 .100997928 .31835938 .114990238 .31835938 .12199402 .31835938 .12399292 .32136537 .12799073 .32736207 .13899231 .3433838 .17599488 .39746095 .25698854 .39746095 .30899049 .39746095 .33399964 .35139466 .34199525 .33337403 .35798646 .29632569 .3600006 .25727845 .3600006 .20722962 .3600006 .17222595 .3600006 .11222839 .33599855 .07035828 .31199647 .031463624 .2749939 .0055389406 .22898865 .0055389406 .1559906 .0055389406 .09899902 .058380128 .08198547 .11723328 .084991458 .1162262 .08799744 .115234378 .09899902 .115234378 .13198853 .115234378 .14898682 .14022827 .14898682 .16423035 .14898682 .18823242 .13198853 .21322632 .09899902 .21322632 .084991458 .21322632 .049987794 .20622254 .049987794 .16023255 .049987794 .07434082 .11898804-.022460938 .23098755-.022460938 .34700013-.022460938 .44898988 .073349 .44898988 .20022583Z"/>
<path id="font_4_3" d="M.45999146 .31976319C.45999146 .39982606 .45498658 .47988893 .41999818 .5539398 .37399293 .65000918 .2919922 .6660156 .25 .6660156 .18998719 .6660156 .116989139 .64001467 .07598877 .54693606 .04399109 .47789 .038986207 .39982606 .038986207 .31976319 .038986207 .24472046 .042999269 .15464783 .083999637 .07859802 .1269989-.0024719239 .19999695-.022460938 .24899292-.022460938 .30299378-.022460938 .3789978-.0014648438 .4229889 .09359741 .45498658 .16265869 .45999146 .2407074 .45999146 .31976319M.24899292-.00047302247C.20999146-.00047302247 .15098572 .024551392 .1329956 .12062073 .12199402 .18066406 .12199402 .2727356 .12199402 .3317871 .12199402 .39582826 .12199402 .46188355 .12998963 .5159149 .14898682 .63500979 .22399903 .64401248 .24899292 .64401248 .28199769 .64401248 .34799195 .6259918 .36698915 .52693179 .3769989 .47088624 .3769989 .39482118 .3769989 .3317871 .3769989 .25672914 .3769989 .18867493 .3659973 .12461853 .35099793 .029556275 .2939911-.00047302247 .24899292-.00047302247Z"/>
<path id="font_4_5" d="M.1269989 .07699585 .23298645 .18003845C.3889923 .31811524 .44898988 .3721466 .44898988 .47216798 .44898988 .5860901 .35899354 .6660156 .23699951 .6660156 .12399292 .6660156 .049987794 .57411196 .049987794 .48516847 .049987794 .4291687 .099990848 .4291687 .102996829 .4291687 .11999512 .4291687 .15499878 .44117738 .15499878 .48217774 .15499878 .5081787 .13699341 .5341797 .101989749 .5341797 .09399414 .5341797 .09199524 .5341797 .08898926 .5331726 .11199951 .59806826 .1659851 .63500979 .22399903 .63500979 .31498719 .63500979 .35798646 .5541382 .35798646 .47216798 .35798646 .39215089 .30799867 .31311036 .25299073 .25108338L.06098938 .036987306C.049987794 .025985718 .049987794 .023986817 .049987794 0H.42099L.44898988 .17404175H.42399598C.4189911 .14402771 .4119873 .1000061 .4019928 .084991458 .394989 .07699585 .32899476 .07699585 .30699159 .07699585H.1269989Z"/>
<path id="font_3_1" d="M.19198609 .052993776C.19198609 .08198547 .16799927 .10598755 .13899231 .10598755 .10998535 .10598755 .085998538 .08198547 .085998538 .052993776 .085998538 .023986817 .10998535 0 .13899231 0 .16799927 0 .19198609 .023986817 .19198609 .052993776Z"/>
<path id="font_4_8" d="M.13198853 .327713V.35173036C.13198853 .6047821 .2559967 .64100649 .30699159 .64100649 .33099366 .64100649 .37298585 .634964 .394989 .6007538 .37998963 .6007538 .33999635 .6007538 .33999635 .5557556 .33999635 .524765 .3639984 .5097656 .38598634 .5097656 .4019928 .5097656 .43199159 .51875308 .43199159 .5577545 .43199159 .6178589 .3880005 .6660156 .30499269 .6660156 .1769867 .6660156 .041992189 .5367584 .041992189 .31570436 .041992189 .048553468 .1579895-.022460938 .25099183-.022460938 .3619995-.022460938 .45700074 .07156372 .45700074 .2036438 .45700074 .33070375 .36799623 .4267578 .25698854 .4267578 .18899536 .4267578 .1519928 .37573243 .13198853 .327713M.25099183 .0055389406C.18798828 .0055389406 .1579895 .06556702 .1519928 .080566409 .13398743 .127594 .13398743 .2076416 .13398743 .22564698 .13398743 .30369569 .1659851 .40374757 .2559967 .40374757 .27198792 .40374757 .31799317 .40374757 .34899903 .34172059 .36698915 .30470277 .36698915 .2536621 .36698915 .20463562 .36698915 .15661621 .36698915 .10658264 .34999085 .0705719 .31999208 .010528564 .27398683 .0055389406 .25099183 .0055389406Z"/>
</defs>
<path transform="matrix(1.00002,0,0,-1.00002,1.7603741,208.25757)" d="M0 0H239.11191V206.23003H0Z" fill="#fffac2"/>
<path transform="matrix(1.00002,0,0,-1.00002,1.7603741,208.25757)" stroke-width=".3985" stroke-linecap="butt" stroke-miterlimit="10" stroke-linejoin="miter" fill="none" stroke="#d5d6d5" d="M0 0V206.23003M17.07942 0V206.23003M34.15884 0V206.23003M51.23827 0V206.23003M68.31769 0V206.23003M85.39711 0V206.23003M102.47653 0V206.23003M119.55595 0V206.23003M136.63538 0V206.23003M153.7148 0V206.23003M170.79422 0V206.23003M187.87364 0V206.23003M204.95307 0V206.23003M222.03249 0V206.23003M239.11191 0V206.23003"/>
<path transform="matrix(1.00002,0,0,-1.00002,1.7603741,208.25757)" stroke-width=".3985" stroke-linecap="butt" stroke-miterlimit="10" stroke-linejoin="miter" fill="none" stroke="#d5d6d5" d="M17.07942 0V206.23003M51.23827 0V206.23003M85.39711 0V206.23003M153.7148 0V206.23003M187.87364 0V206.23003M222.03249 0V206.23003"/>
<path transform="matrix(1.00002,0,0,-1.00002,1.7603741,208.25757)" stroke-width=".3985" stroke-linecap="butt" stroke-miterlimit="10" stroke-linejoin="miter" fill="none" stroke="#d5d6d5" d="M0 0H239.11191M0 14.73071H239.11191M0 29.46143H239.11191M0 44.19214H239.11191M0 58.92287H239.11191M0 73.65358H239.11191M0 88.3843H239.11191M0 103.115H239.11191M0 117.84573H239.11191M0 132.57645H239.11191M0 147.30716H239.11191M0 162.03789H239.11191M0 176.7686H239.11191M0 191.49932H239.11191M0 206.23003H239.11191"/>
<path transform="matrix(1.00002,0,0,-1.00002,1.7603741,208.25757)" stroke-width=".3985" stroke-linecap="butt" stroke-miterlimit="10" stroke-linejoin="miter" fill="none" stroke="#d5d6d5" d="M0 14.73071H239.11191M0 44.19214H239.11191M0 73.65358H239.11191M0 132.57645H239.11191M0 162.03789H239.11191M0 191.49932H239.11191"/>
<path transform="matrix(1.00002,0,0,-1.00002,1.7603741,208.25757)" stroke-width=".19925" stroke-linecap="butt" stroke-miterlimit="10" stroke-linejoin="miter" fill="none" stroke="#929292" d="M0 101.69763V104.5324M17.07942 101.69763V104.5324M34.15884 101.69763V104.5324M51.23827 101.69763V104.5324M68.31769 101.69763V104.5324M85.39711 101.69763V104.5324M102.47653 101.69763V104.5324M119.55595 101.69763V104.5324M136.63538 101.69763V104.5324M153.7148 101.69763V104.5324M170.79422 101.69763V104.5324M187.87364 101.69763V104.5324M204.95307 101.69763V104.5324M222.03249 101.69763V104.5324M239.11191 101.69763V104.5324"/>
<path transform="matrix(1.00002,0,0,-1.00002,1.7603741,208.25757)" stroke-width=".19925" stroke-linecap="butt" stroke-miterlimit="10" stroke-linejoin="miter" fill="none" stroke="#929292" d="M17.07942 100.98914V105.24088M51.23827 100.98914V105.24088M85.39711 100.98914V105.24088M153.7148 100.98914V105.24088M187.87364 100.98914V105.24088M222.03249 100.98914V105.24088"/>
<path transform="matrix(1.00002,0,0,-1.00002,1.7603741,208.25757)" stroke-width=".19925" stroke-linecap="butt" stroke-miterlimit="10" stroke-linejoin="miter" fill="none" stroke="#929292" d="M118.13852 0H120.97339M118.13852 14.73071H120.97339M118.13852 29.46143H120.97339M118.13852 44.19214H120.97339M118.13852 58.92287H120.97339M118.13852 73.65358H120.97339M118.13852 88.3843H120.97339M118.13852 103.115H120.97339M118.13852 117.84573H120.97339M118.13852 132.57645H120.97339M118.13852 147.30716H120.97339M118.13852 162.03789H120.97339M118.13852 176.7686H120.97339M118.13852 191.49932H120.97339M118.13852 206.23003H120.97339"/>
<path transform="matrix(1.00002,0,0,-1.00002,1.7603741,208.25757)" stroke-width=".19925" stroke-linecap="butt" stroke-miterlimit="10" stroke-linejoin="miter" fill="none" stroke="#929292" d="M117.43001 14.73071H121.68187M117.43001 44.19214H121.68187M117.43001 73.65358H121.68187M117.43001 132.57645H121.68187M117.43001 162.03789H121.68187M117.43001 191.49932H121.68187"/>
<path transform="matrix(1.00002,0,0,-1.00002,1.7603741,208.25757)" stroke-width=".3985" stroke-linecap="butt" stroke-miterlimit="10" stroke-linejoin="miter" fill="none" stroke="#000000" d="M1.99252 103.115H237.11939"/>
<path transform="matrix(-1.00002,-0,0,1.00002,3.752934,105.1405)" d="M1.99252 0-1.19551 1.59401 0 0-1.19551-1.59401"/>
<path transform="matrix(1.00002,0,0,-1.00002,238.8845,105.1405)" d="M1.99252 0-1.19551 1.59401 0 0-1.19551-1.59401"/>
<path transform="matrix(1.00002,0,0,-1.00002,1.7603741,208.25757)" stroke-width=".3985" stroke-linecap="butt" stroke-miterlimit="10" stroke-linejoin="miter" fill="none" stroke="#000000" d="M119.55595 1.99252V204.2375"/>
<path transform="matrix(0,1.00002,1.00002,0,121.31872,206.26502)" d="M1.99252 0-1.19551 1.59401 0 0-1.19551-1.59401"/>
<path transform="matrix(0,-1.00002,-1.00002,-0,121.31872,4.015976)" d="M1.99252 0-1.19551 1.59401 0 0-1.19551-1.59401"/>
<use data-text="&#x2212;" xlink:href="#font_1_1" transform="matrix(7.9702599,0,0,-7.9702599,13.429607,115.92272)"/>
<use data-text="6" xlink:href="#font_2_3" transform="matrix(7.9702599,0,0,-7.9702599,20.01574,115.92272)"/>
<use data-text="&#x2212;" xlink:href="#font_1_1" transform="matrix(7.9702599,0,0,-7.9702599,47.589296,115.92272)"/>
<use data-text="4" xlink:href="#font_2_2" transform="matrix(7.9702599,0,0,-7.9702599,54.175424,115.92272)"/>
<use data-text="&#x2212;" xlink:href="#font_1_1" transform="matrix(7.9702599,0,0,-7.9702599,81.74898,115.92272)"/>
<use data-text="2" xlink:href="#font_2_1" transform="matrix(7.9702599,0,0,-7.9702599,88.33511,115.92272)"/>
<use data-text="2" xlink:href="#font_2_1" transform="matrix(7.9702599,0,0,-7.9702599,153.36142,115.92272)"/>
<use data-text="4" xlink:href="#font_2_2" transform="matrix(7.9702599,0,0,-7.9702599,187.52109,115.92272)"/>
<use data-text="6" xlink:href="#font_2_3" transform="matrix(7.9702599,0,0,-7.9702599,221.67978,115.92272)"/>
<use data-text="&#x2212;" xlink:href="#font_1_1" transform="matrix(7.9702599,0,0,-7.9702599,106.742488,195.67932)"/>
<use data-text="6" xlink:href="#font_2_3" transform="matrix(7.9702599,0,0,-7.9702599,113.32861,195.67932)"/>
<use data-text="&#x2212;" xlink:href="#font_1_1" transform="matrix(7.9702599,0,0,-7.9702599,106.742488,166.21773)"/>
<use data-text="4" xlink:href="#font_2_2" transform="matrix(7.9702599,0,0,-7.9702599,113.32861,166.21773)"/>
<use data-text="&#x2212;" xlink:href="#font_1_1" transform="matrix(7.9702599,0,0,-7.9702599,106.742488,136.75513)"/>
<use data-text="2" xlink:href="#font_2_1" transform="matrix(7.9702599,0,0,-7.9702599,113.32861,136.75513)"/>
<use data-text="2" xlink:href="#font_2_1" transform="matrix(7.9702599,0,0,-7.9702599,113.32961,78.24696)"/>
<use data-text="4" xlink:href="#font_2_2" transform="matrix(7.9702599,0,0,-7.9702599,113.32961,48.784379)"/>
<use data-text="6" xlink:href="#font_2_3" transform="matrix(7.9702599,0,0,-7.9702599,113.32961,19.322785)"/>
<path transform="matrix(1.00002,0,0,-1.00002,1.7603741,208.25757)" stroke-width=".99628" stroke-linecap="butt" stroke-miterlimit="10" stroke-linejoin="miter" fill="none" stroke="#9e0c0f" d="M61.66159 197.95966 64.13463 177.93706 67.62024 152.16841 71.10588 128.85411 74.59149 107.99393 78.0771 89.58798 81.56273 73.63608 85.04834 60.13829 88.53397 49.09467 92.01959 40.50514 95.5052 34.36978 98.99081 30.68855 102.47644 29.46143 105.96207 30.68843 109.44768 34.36957 112.9333 40.50482 116.41891 49.09424 119.90453 60.13776 123.39017 73.63539 126.87578 89.58719 130.36139 107.9931 133.84702 128.85314 137.33263 152.16728 140.81824 177.93561 143.2913 197.95848"/>
<path transform="matrix(-.12256245,-.99246987,-.99246987,.12256245,63.509553,10.993118)" d="M7.39124 0 2.37614 1.6717 .70447 0 2.37614-1.6717Z" fill="#9e0c0f"/>
<path transform="matrix(-.12256245,-.99246987,-.99246987,.12256245,63.509553,10.993118)" stroke-width=".99628" stroke-linecap="butt" stroke-miterlimit="10" stroke-linejoin="miter" fill="none" stroke="#9e0c0f" d="M7.39124 0 2.37614 1.6717 .70447 0 2.37614-1.6717Z"/>
<path transform="matrix(.12256245,-.99246987,-.99246987,-.12256245,144.9682,10.994293)" d="M7.39124 0 2.37614 1.6717 .70447 0 2.37614-1.6717Z" fill="#9e0c0f"/>
<path transform="matrix(.12256245,-.99246987,-.99246987,-.12256245,144.9682,10.994293)" stroke-width=".99628" stroke-linecap="butt" stroke-miterlimit="10" stroke-linejoin="miter" fill="none" stroke="#9e0c0f" d="M7.39124 0 2.37614 1.6717 .70447 0 2.37614-1.6717Z"/>
<use data-text="y" xlink:href="#font_3_5" transform="matrix(9.962799,0,0,-9.962799,149.88632,13.386658)" fill="#9e0c0f"/>
<use data-text="=" xlink:href="#font_4_9" transform="matrix(9.962799,0,0,-9.962799,157.8955,13.386658)" fill="#9e0c0f"/>
<use data-text="f" xlink:href="#font_3_3" transform="matrix(9.962799,0,0,-9.962799,168.4117,13.386658)" fill="#9e0c0f"/>
<use data-text="(" xlink:href="#font_4_1" transform="matrix(9.962799,0,0,-9.962799,174.36182,13.386658)" fill="#9e0c0f"/>
<use data-text="x" xlink:href="#font_3_4" transform="matrix(9.962799,0,0,-9.962799,178.2359,13.386658)" fill="#9e0c0f"/>
<use data-text=")" xlink:href="#font_4_2" transform="matrix(9.962799,0,0,-9.962799,183.93001,13.386658)" fill="#9e0c0f"/>
<path transform="matrix(1.00002,0,0,-1.00002,1.7603741,208.25757)" stroke-width=".99628" stroke-linecap="butt" stroke-miterlimit="10" stroke-linejoin="miter" fill="none" stroke="#008099" d="M8.26201 147.30716H9.96292 19.92586 29.8888 39.85173 49.81467 59.77762 69.74055 79.70349 89.66643 99.62936 109.5923 119.55525 129.51819 139.48113 149.44406 159.407 169.36994 179.33289 189.29582 199.25876 209.2217 219.18463 229.14757 230.84848"/>
<path transform="matrix(-1.00002,-0,0,1.00002,10.727043,60.947465)" d="M7.39124 0 2.37614 1.6717 .70447 0 2.37614-1.6717Z" fill="#008099"/>
<path transform="matrix(-1.00002,-0,0,1.00002,10.727043,60.947465)" stroke-width=".99628" stroke-linecap="butt" stroke-miterlimit="10" stroke-linejoin="miter" fill="none" stroke="#008099" d="M7.39124 0 2.37614 1.6717 .70447 0 2.37614-1.6717Z"/>
<path transform="matrix(1.00002,0,0,-1.00002,231.909,60.947465)" d="M7.39124 0 2.37614 1.6717 .70447 0 2.37614-1.6717Z" fill="#008099"/>
<path transform="matrix(1.00002,0,0,-1.00002,231.909,60.947465)" stroke-width=".99628" stroke-linecap="butt" stroke-miterlimit="10" stroke-linejoin="miter" fill="none" stroke="#008099" d="M7.39124 0 2.37614 1.6717 .70447 0 2.37614-1.6717Z"/>
<use data-text="y" xlink:href="#font_3_5" transform="matrix(9.962799,0,0,-9.962799,213.54962,55.191499)" fill="#008099"/>
<use data-text="=" xlink:href="#font_4_9" transform="matrix(9.962799,0,0,-9.962799,221.55878,55.191499)" fill="#008099"/>
<use data-text="3" xlink:href="#font_4_6" transform="matrix(9.962799,0,0,-9.962799,232.05957,55.191499)" fill="#008099"/>
<path transform="matrix(1.00002,0,0,-1.00002,1.7603741,208.25757)" stroke-width=".3985" stroke-linecap="butt" stroke-miterlimit="10" stroke-linejoin="miter" fill="none" stroke="#1c8464" d=""/>
<use data-text="(" xlink:href="#font_4_1" transform="matrix(9.962799,0,0,-9.962799,63.081605,189.7872)" fill="#1c8464"/>
<use data-text="&#x2212;" xlink:href="#font_5_1" transform="matrix(9.962799,0,0,-9.962799,66.95568,189.7872)" fill="#1c8464"/>
<use data-text="1" xlink:href="#font_4_4" transform="matrix(9.962799,0,0,-9.962799,74.704837,189.7872)" fill="#1c8464"/>
<use data-text="," xlink:href="#font_3_2" transform="matrix(9.962799,0,0,-9.962799,79.685939,189.7872)" fill="#1c8464"/>
<use data-text="&#x2212;" xlink:href="#font_5_1" transform="matrix(9.962799,0,0,-9.962799,84.11403,189.7872)" fill="#1c8464"/>
<use data-text="5" xlink:href="#font_4_7" transform="matrix(9.962799,0,0,-9.962799,91.86318,189.7872)" fill="#1c8464"/>
<use data-text=")" xlink:href="#font_4_2" transform="matrix(9.962799,0,0,-9.962799,96.84458,189.7872)" fill="#1c8464"/>
<path transform="matrix(1.00002,0,0,-1.00002,1.7603741,208.25757)" stroke-width=".3985" stroke-linecap="butt" stroke-miterlimit="10" stroke-linejoin="miter" fill="none" stroke="#c7502a" d=""/>
<use data-text="(" xlink:href="#font_4_1" transform="matrix(9.962799,0,0,-9.962799,141.91819,54.93651)" fill="#c7502a"/>
<use data-text="1" xlink:href="#font_4_4" transform="matrix(9.962799,0,0,-9.962799,145.78376,54.93651)" fill="#c7502a"/>
<use data-text="," xlink:href="#font_3_2" transform="matrix(9.962799,0,0,-9.962799,150.77336,54.93651)" fill="#c7502a"/>
<use data-text="3" xlink:href="#font_4_6" transform="matrix(9.962799,0,0,-9.962799,155.20145,54.93651)" fill="#c7502a"/>
<use data-text=")" xlink:href="#font_4_2" transform="matrix(9.962799,0,0,-9.962799,160.18285,54.93651)" fill="#c7502a"/>
<path transform="matrix(1.00002,0,0,-1.00002,1.7603741,208.25757)" stroke-width=".3985" stroke-linecap="butt" stroke-miterlimit="10" stroke-linejoin="miter" fill="none" stroke="#c7502a" d=""/>
<use data-text="(" xlink:href="#font_4_1" transform="matrix(9.962799,0,0,-9.962799,124.83884,160.3256)" fill="#c7502a"/>
<use data-text="0" xlink:href="#font_4_3" transform="matrix(9.962799,0,0,-9.962799,128.7044,160.3256)" fill="#c7502a"/>
<use data-text="," xlink:href="#font_3_2" transform="matrix(9.962799,0,0,-9.962799,133.69402,160.3256)" fill="#c7502a"/>
<use data-text="&#x2212;" xlink:href="#font_5_1" transform="matrix(9.962799,0,0,-9.962799,138.1221,160.3256)" fill="#c7502a"/>
<use data-text="3" xlink:href="#font_4_6" transform="matrix(9.962799,0,0,-9.962799,145.87126,160.3256)" fill="#c7502a"/>
<use data-text=")" xlink:href="#font_4_2" transform="matrix(9.962799,0,0,-9.962799,150.85266,160.3256)" fill="#c7502a"/>
<path transform="matrix(1.00002,0,0,-1.00002,1.7603741,208.25757)" stroke-width=".3985" stroke-linecap="butt" stroke-miterlimit="10" stroke-linejoin="miter" fill="none" stroke="#c7502a" d=""/>
<use data-text="(" xlink:href="#font_4_1" transform="matrix(9.962799,0,0,-9.962799,36.671075,54.93651)" fill="#c7502a"/>
<use data-text="&#x2212;" xlink:href="#font_5_1" transform="matrix(9.962799,0,0,-9.962799,40.54515,54.93651)" fill="#c7502a"/>
<use data-text="3" xlink:href="#font_4_6" transform="matrix(9.962799,0,0,-9.962799,48.294305,54.93651)" fill="#c7502a"/>
<use data-text="," xlink:href="#font_3_2" transform="matrix(9.962799,0,0,-9.962799,53.275407,54.93651)" fill="#c7502a"/>
<use data-text="3" xlink:href="#font_4_6" transform="matrix(9.962799,0,0,-9.962799,57.7035,54.93651)" fill="#c7502a"/>
<use data-text=")" xlink:href="#font_4_2" transform="matrix(9.962799,0,0,-9.962799,62.6849,54.93651)" fill="#c7502a"/>
<path transform="matrix(1.00002,0,0,-1.00002,1.7603741,208.25757)" stroke-width=".3985" stroke-linecap="butt" stroke-miterlimit="10" stroke-linejoin="miter" fill="none" stroke="#70485b" d=""/>
<use data-text="(" xlink:href="#font_4_1" transform="matrix(9.962799,0,0,-9.962799,36.078065,99.129398)" fill="#70485b"/>
<use data-text="&#x2212;" xlink:href="#font_5_1" transform="matrix(9.962799,0,0,-9.962799,39.95214,99.129398)" fill="#70485b"/>
<use data-text="2" xlink:href="#font_4_5" transform="matrix(9.962799,0,0,-9.962799,47.701295,99.129398)" fill="#70485b"/>
<use data-text="." xlink:href="#font_3_1" transform="matrix(9.962799,0,0,-9.962799,52.682397,99.129398)" fill="#70485b"/>
<use data-text="6" xlink:href="#font_4_8" transform="matrix(9.962799,0,0,-9.962799,55.450456,99.129398)" fill="#70485b"/>
<use data-text="," xlink:href="#font_3_2" transform="matrix(9.962799,0,0,-9.962799,60.43155,99.129398)" fill="#70485b"/>
<use data-text="0" xlink:href="#font_4_3" transform="matrix(9.962799,0,0,-9.962799,64.85964,99.129398)" fill="#70485b"/>
<use data-text=")" xlink:href="#font_4_2" transform="matrix(9.962799,0,0,-9.962799,69.84104,99.129398)" fill="#70485b"/>
<path transform="matrix(1.00002,0,0,-1.00002,1.7603741,208.25757)" stroke-width=".3985" stroke-linecap="butt" stroke-miterlimit="10" stroke-linejoin="miter" fill="none" stroke="#70485b" d=""/>
<use data-text="(" xlink:href="#font_4_1" transform="matrix(9.962799,0,0,-9.962799,134.76204,99.129398)" fill="#70485b"/>
<use data-text="0" xlink:href="#font_4_3" transform="matrix(9.962799,0,0,-9.962799,138.62761,99.129398)" fill="#70485b"/>
<use data-text="." xlink:href="#font_3_1" transform="matrix(9.962799,0,0,-9.962799,143.61722,99.129398)" fill="#70485b"/>
<use data-text="6" xlink:href="#font_4_8" transform="matrix(9.962799,0,0,-9.962799,146.38527,99.129398)" fill="#70485b"/>
<use data-text="," xlink:href="#font_3_2" transform="matrix(9.962799,0,0,-9.962799,151.36637,99.129398)" fill="#70485b"/>
<use data-text="0" xlink:href="#font_4_3" transform="matrix(9.962799,0,0,-9.962799,155.79447,99.129398)" fill="#70485b"/>
<use data-text=")" xlink:href="#font_4_2" transform="matrix(9.962799,0,0,-9.962799,160.77587,99.129398)" fill="#70485b"/>
<path transform="matrix(1.00002,0,0,-1.00002,1.7603741,208.25757)" d="M104.46909 29.46143C104.46909 30.5619 103.577 31.45398 102.47653 31.45398 101.37605 31.45398 100.48398 30.5619 100.48398 29.46143 100.48398 28.36096 101.37605 27.46887 102.47653 27.46887 103.577 27.46887 104.46909 28.36096 104.46909 29.46143ZM102.47653 29.46143" fill="#1c8464"/>
<path transform="matrix(1.00002,0,0,-1.00002,1.7603741,208.25757)" stroke-width=".3985" stroke-linecap="butt" stroke-miterlimit="10" stroke-linejoin="miter" fill="none" stroke="#1c8464" d="M104.46909 29.46143C104.46909 30.5619 103.577 31.45398 102.47653 31.45398 101.37605 31.45398 100.48398 30.5619 100.48398 29.46143 100.48398 28.36096 101.37605 27.46887 102.47653 27.46887 103.577 27.46887 104.46909 28.36096 104.46909 29.46143ZM102.47653 29.46143"/>
<path transform="matrix(1.00002,0,0,-1.00002,1.7603741,208.25757)" stroke-width=".3985" stroke-linecap="butt" stroke-miterlimit="10" stroke-linejoin="miter" fill="none" stroke="#1c8464" d=""/>
<path transform="matrix(1.00002,0,0,-1.00002,1.7603741,208.25757)" d="M138.62793 147.30716C138.62793 148.40764 137.73584 149.29972 136.63538 149.29972 135.5349 149.29972 134.64282 148.40764 134.64282 147.30716 134.64282 146.2067 135.5349 145.3146 136.63538 145.3146 137.73584 145.3146 138.62793 146.2067 138.62793 147.30716ZM136.63538 147.30716" fill="#c7502a"/>
<path transform="matrix(1.00002,0,0,-1.00002,1.7603741,208.25757)" stroke-width=".3985" stroke-linecap="butt" stroke-miterlimit="10" stroke-linejoin="miter" fill="none" stroke="#c7502a" d="M138.62793 147.30716C138.62793 148.40764 137.73584 149.29972 136.63538 149.29972 135.5349 149.29972 134.64282 148.40764 134.64282 147.30716 134.64282 146.2067 135.5349 145.3146 136.63538 145.3146 137.73584 145.3146 138.62793 146.2067 138.62793 147.30716ZM136.63538 147.30716"/>
<path transform="matrix(1.00002,0,0,-1.00002,1.7603741,208.25757)" stroke-width=".3985" stroke-linecap="butt" stroke-miterlimit="10" stroke-linejoin="miter" fill="none" stroke="#c7502a" d=""/>
<path transform="matrix(1.00002,0,0,-1.00002,1.7603741,208.25757)" d="M121.54851 58.92287C121.54851 60.02333 120.65642 60.91542 119.55595 60.91542 118.45547 60.91542 117.5634 60.02333 117.5634 58.92287 117.5634 57.82239 118.45547 56.93031 119.55595 56.93031 120.65642 56.93031 121.54851 57.82239 121.54851 58.92287ZM119.55595 58.92287" fill="#c7502a"/>
<path transform="matrix(1.00002,0,0,-1.00002,1.7603741,208.25757)" stroke-width=".3985" stroke-linecap="butt" stroke-miterlimit="10" stroke-linejoin="miter" fill="none" stroke="#c7502a" d="M121.54851 58.92287C121.54851 60.02333 120.65642 60.91542 119.55595 60.91542 118.45547 60.91542 117.5634 60.02333 117.5634 58.92287 117.5634 57.82239 118.45547 56.93031 119.55595 56.93031 120.65642 56.93031 121.54851 57.82239 121.54851 58.92287ZM119.55595 58.92287"/>
<path transform="matrix(1.00002,0,0,-1.00002,1.7603741,208.25757)" stroke-width=".3985" stroke-linecap="butt" stroke-miterlimit="10" stroke-linejoin="miter" fill="none" stroke="#c7502a" d=""/>
<path transform="matrix(1.00002,0,0,-1.00002,1.7603741,208.25757)" d="M70.31024 147.30716C70.31024 148.40764 69.41815 149.29972 68.31769 149.29972 67.21721 149.29972 66.32513 148.40764 66.32513 147.30716 66.32513 146.2067 67.21721 145.3146 68.31769 145.3146 69.41815 145.3146 70.31024 146.2067 70.31024 147.30716ZM68.31769 147.30716" fill="#c7502a"/>
<path transform="matrix(1.00002,0,0,-1.00002,1.7603741,208.25757)" stroke-width=".3985" stroke-linecap="butt" stroke-miterlimit="10" stroke-linejoin="miter" fill="none" stroke="#c7502a" d="M70.31024 147.30716C70.31024 148.40764 69.41815 149.29972 68.31769 149.29972 67.21721 149.29972 66.32513 148.40764 66.32513 147.30716 66.32513 146.2067 67.21721 145.3146 68.31769 145.3146 69.41815 145.3146 70.31024 146.2067 70.31024 147.30716ZM68.31769 147.30716"/>
<path transform="matrix(1.00002,0,0,-1.00002,1.7603741,208.25757)" stroke-width=".3985" stroke-linecap="butt" stroke-miterlimit="10" stroke-linejoin="miter" fill="none" stroke="#c7502a" d=""/>
<path transform="matrix(1.00002,0,0,-1.00002,1.7603741,208.25757)" d="M77.4665 103.115C77.4665 104.21548 76.57443 105.10756 75.47395 105.10756 74.37349 105.10756 73.4814 104.21548 73.4814 103.115 73.4814 102.01454 74.37349 101.12245 75.47395 101.12245 76.57443 101.12245 77.4665 102.01454 77.4665 103.115ZM75.47395 103.115" fill="#70485b"/>
<path transform="matrix(1.00002,0,0,-1.00002,1.7603741,208.25757)" stroke-width=".3985" stroke-linecap="butt" stroke-miterlimit="10" stroke-linejoin="miter" fill="none" stroke="#70485b" d="M77.4665 103.115C77.4665 104.21548 76.57443 105.10756 75.47395 105.10756 74.37349 105.10756 73.4814 104.21548 73.4814 103.115 73.4814 102.01454 74.37349 101.12245 75.47395 101.12245 76.57443 101.12245 77.4665 102.01454 77.4665 103.115ZM75.47395 103.115"/>
<path transform="matrix(1.00002,0,0,-1.00002,1.7603741,208.25757)" stroke-width=".3985" stroke-linecap="butt" stroke-miterlimit="10" stroke-linejoin="miter" fill="none" stroke="#70485b" d=""/>
<path transform="matrix(1.00002,0,0,-1.00002,1.7603741,208.25757)" d="M131.47165 103.115C131.47165 104.21548 130.57956 105.10756 129.4791 105.10756 128.37862 105.10756 127.48654 104.21548 127.48654 103.115 127.48654 102.01454 128.37862 101.12245 129.4791 101.12245 130.57956 101.12245 131.47165 102.01454 131.47165 103.115ZM129.4791 103.115" fill="#70485b"/>
<path transform="matrix(1.00002,0,0,-1.00002,1.7603741,208.25757)" stroke-width=".3985" stroke-linecap="butt" stroke-miterlimit="10" stroke-linejoin="miter" fill="none" stroke="#70485b" d="M131.47165 103.115C131.47165 104.21548 130.57956 105.10756 129.4791 105.10756 128.37862 105.10756 127.48654 104.21548 127.48654 103.115 127.48654 102.01454 128.37862 101.12245 129.4791 101.12245 130.57956 101.12245 131.47165 102.01454 131.47165 103.115ZM129.4791 103.115"/>
<path transform="matrix(1.00002,0,0,-1.00002,1.7603741,208.25757)" stroke-width=".3985" stroke-linecap="butt" stroke-miterlimit="10" stroke-linejoin="miter" fill="none" stroke="#70485b" d=""/>
<use data-text="x" xlink:href="#font_3_4" transform="matrix(9.962799,0,0,-9.962799,231.66297,101.62043)"/>
<use data-text="y" xlink:href="#font_3_5" transform="matrix(9.962799,0,0,-9.962799,124.83884,9.832596)"/>
</svg>
