<svg xmlns="http://www.w3.org/2000/svg" xmlns:xlink="http://www.w3.org/1999/xlink" version="1.1" width="168" height="156" viewBox="0 0 168 156">
<defs>
<path id="font_1_4" d="M.13999939 .5618439C.15299988 .55784609 .19299317 .54785159 .23498535 .54785159 .3600006 .54785159 .43598939 .6358948 .43598939 .6510315 .43598939 .6620331 .42900086 .66503909 .42399598 .66503909 .42199708 .66503909 .41999818 .66503909 .41099549 .6600342 .37199403 .6450348 .32598878 .632843 .27198792 .632843 .21299744 .632843 .1639862 .6480255 .1329956 .6600342 .12298584 .66503909 .12098694 .66503909 .11999512 .66503909 .10699463 .66503909 .10699463 .6540375 .10699463 .6358948V.34292604C.10699463 .32492066 .10699463 .312912 .12298584 .312912 .1309967 .312912 .13398743 .3169098 .13899231 .32492066 .15098572 .33992005 .18899536 .39093019 .27398683 .39093019 .32998658 .39093019 .35699464 .34492494 .3659973 .32591249 .3829956 .28990174 .3849945 .24389649 .3849945 .20487976 .3849945 .1678772 .38398744 .11387634 .35598756 .069732669 .33699037 .039611818 .29699708 .008514404 .24398804 .008514404 .1789856 .008514404 .114990238 .0496521 .09199524 .11488342 .09498596 .11387634 .100997928 .11387634 .101989749 .11387634 .12998963 .11387634 .1519928 .13188172 .1519928 .16288758 .1519928 .19989014 .12298584 .21289063 .102996829 .21289063 .084991458 .21289063 .052993776 .20288086 .052993776 .15988159 .052993776 .069732669 .1309967-.021484375 .24598694-.021484375 .37098695-.021484375 .47698976 .07574463 .47698976 .19989014 .47698976 .31591798 .3929901 .4189453 .2749939 .4189453 .22499085 .4189453 .17799378 .40293885 .13999939 .368927V.5618439Z"/>
<path id="font_1_2" d="M.31399537 .63708499C.31399537 .664032 .31199647 .66503909 .2849884 .66503909 .24398804 .6251831 .19099427 .6013489 .09599304 .6013489V.5683594C.12298584 .5683594 .1769867 .5683594 .23498535 .5953522V.08203125C.23498535 .04499817 .23199463 .032989503 .13699341 .032989503H.101989749V0C.14299011 .0029907227 .22898865 .0029907227 .27398683 .0029907227 .31900025 .0029907227 .4059906 .0029907227 .44699098 0V.032989503H.4119873C.31698609 .032989503 .31399537 .04499817 .31399537 .08203125V.63708499Z"/>
<path id="font_1_1" d="M.4889984 .31877137C.4889984 .42585755 .47799684 .49090577 .44499208 .55496218 .40098573 .6430359 .31999208 .66503909 .2649994 .66503909 .13899231 .66503909 .09298706 .5709839 .07899475 .5429535 .042999269 .4698944 .040985109 .3708191 .040985109 .31877137 .040985109 .25271607 .04399109 .15162659 .09199524 .07156372 .13798523-.0024871827 .21199036-.021484375 .2649994-.021484375 .31298829-.021484375 .39898683-.0064849855 .44898988 .09257507 .48599244 .16464234 .4889984 .2537079 .4889984 .31877137M.2649994 .006515503C.23098755 .006515503 .1619873 .022521973 .14099121 .12760926 .12998963 .18466187 .12998963 .2787323 .12998963 .33078004 .12998963 .3998413 .12998963 .4698944 .14099121 .5249481 .1619873 .6270294 .23999024 .6370239 .2649994 .6370239 .29899598 .6370239 .36799623 .62002566 .3880005 .5289459 .3999939 .4738922 .3999939 .39883424 .3999939 .33078004 .3999939 .27172853 .3999939 .18165589 .3880005 .12561035 .36698915 .020523072 .2979889 .006515503 .2649994 .006515503Z"/>
<path id="font_1_3" d="M.28199769 .20405579C.2979889 .21907044 .33999635 .2520752 .35598756 .26608277 .41799928 .32312013 .47698976 .3781433 .47698976 .46917726 .47698976 .588089 .3769989 .66503909 .2519989 .66503909 .13198853 .66503909 .052993776 .57411196 .052993776 .48516847 .052993776 .4361725 .09199524 .4291687 .10598755 .4291687 .1269989 .4291687 .1579895 .4441681 .1579895 .48217774 .1579895 .5341797 .10798645 .5341797 .09599304 .5341797 .125 .6070709 .19198609 .6320343 .24099732 .6320343 .33399964 .6320343 .38198854 .55314639 .38198854 .46917726 .38198854 .36514283 .30899049 .28910829 .19099427 .16804505L.06498718 .037994386C.052993776 .026992798 .052993776 .024993897 .052993776 0H.44799806L.47698976 .17904663H.44599916C.44299317 .1590271 .43499757 .10900879 .4229889 .08999634 .4169922 .08198547 .34098817 .08198547 .32499696 .08198547H.14698792L.28199769 .20405579Z"/>
<path id="font_2_107" d="M.47698976 .17900086H.44599916C.44299317 .15899658 .43499757 .10899353 .4229889 .08999634 .4169922 .08198547 .34098817 .08198547 .32499696 .08198547H.14698792L.28199769 .20399475C.2979889 .2190094 .33999635 .2519989 .35598756 .26600648 .41799928 .3230133 .47698976 .37802125 .47698976 .46902467 .47698976 .58802798 .3769989 .66503909 .2519989 .66503909 .13198853 .6651764 .052993776 .574173 .052993776 .48516847 .052993776 .4361725 .09199524 .4291687 .10598755 .4291687 .1269989 .4291687 .1579895 .4441681 .1579895 .48217774 .1579895 .5341797 .10798645 .5341797 .09599304 .5341797 .125 .6070709 .19198609 .6320343 .24099732 .6320343 .33399964 .6320343 .38198854 .55314639 .38198854 .46917726 .38198854 .36517335 .30899049 .2891693 .19099427 .16816712L.06498718 .03817749C.052993776 .026992798 .052993776 .024993897 .052993776 0H.44799806L.47698976 .17900086Z"/>
<path id="font_2_51" d="M.48599244 .16799927C.48599244 .23098755 .45199586 .272995 .43598939 .2899933 .4189911 .30599977 .41799928 .30699159 .33198548 .36099244 .3880005 .388031 .45599366 .43803407 .45599366 .516037 .45599366 .6110382 .35899354 .66503909 .2659912 .66503909 .1599884 .66503909 .07398987 .59202578 .07398987 .49803163 .07398987 .46102906 .08699036 .42703248 .11199951 .3980255 .1289978 .37702943 .1329956 .37503053 .19499207 .33602906 .070999149 .28050233 .04399109 .20750427 .04399109 .15150452 .04399109 .041503908 .15499878-.021484375 .2639923-.021484375 .3869934-.021484375 .48599244 .06150818 .48599244 .16751099V.16799927M.4059906 .5155029C.4059906 .45750428 .36099244 .4085083 .3019867 .37950135L.1769867 .45451356C.147995 .4718933 .12399292 .5009155 .12399292 .5359497 .12399292 .598999 .19299317 .6390381 .2639923 .6390381 .34199525 .6390381 .4059906 .5859833 .4059906 .5159302V.5155029M.42900086 .13360596C.42900086 .056549074 .34799195 .008514404 .2659912 .008514404 .1769867 .008987427 .100997928 .069992069 .100997928 .1519928 .100997928 .22698975 .15699768 .28599549 .22599793 .31799317L.36099244 .23498535C.3769989 .22599793 .42900086 .19400025 .42900086 .13398743V.13360596Z"/>
<path id="font_2_121" d="M.4889984 .31877137C.4889984 .42585755 .47799684 .49090577 .44499208 .55496218 .40098573 .6430359 .31999208 .66503909 .2649994 .66503909 .13899231 .66503909 .09298706 .5709839 .07899475 .5429535 .042999269 .4698944 .040985109 .3708191 .040985109 .31877137 .040985109 .25271607 .04399109 .15162659 .09199524 .07156372 .13798523-.0024871827 .21199036-.021484375 .2649994-.021484375 .31298829-.021484375 .39898683-.0064849855 .44898988 .09257507 .48599244 .16464234 .4889984 .2537079 .4889984 .31877137M.3999939 .33078004C.3999939 .27172853 .3999939 .18165589 .3880005 .12561035 .36698915 .020523072 .2979889 .006515503 .2649994 .006515503 .23098755 .006515503 .1619873 .022521973 .14099121 .12760926 .12998963 .18466187 .12998963 .2787323 .12998963 .33078004 .12998963 .3998413 .12998963 .4698944 .14099121 .5249481 .1619873 .6270294 .23999024 .6370239 .2649994 .6370239 .29899598 .6370239 .36799623 .62002566 .3880005 .5289459 .3999939 .4738922 .3999939 .39883424 .3999939 .33078004Z"/>
<path id="font_2_78" d="M.48599244 .3287964C.48599244 .58898928 .37098695 .66503909 .2679901 .66503909 .1499939 .66503909 .04399109 .5729828 .04399109 .44187928 .04399109 .31278993 .14099121 .21875 .2539978 .21875 .32499696 .21875 .36799623 .26374818 .3919983 .31478883V.29478456C.3919983 .05055237 .27598573 .008514404 .21798706 .008514404 .19699097 .008514404 .14498902 .011505127 .117996219 .042541505 .1619873 .046707155 .16499329 .079711917 .16499329 .08970642 .16499329 .1197052 .14199829 .13671875 .117996219 .13671875 .099990848 .13671875 .070999149 .12571717 .070999149 .08770752 .070999149 .019577027 .1269989-.021484375 .21899414-.021484375 .35598756-.021484375 .48599244 .114715579 .48599244 .32873536V.3287964M.3899994 .42074586C.3899994 .34173585 .34700013 .24674988 .2579956 .24674988 .21199036 .24674988 .18299866 .26774598 .16099549 .30474855 .13798523 .34199525 .13798523 .3899994 .13798523 .44099427 .13798523 .5000305 .13798523 .54203799 .16499329 .58303835 .18998719 .6190338 .22200012 .6390381 .2689972 .6390381 .33599855 .6390381 .36499024 .57302859 .36799623 .5680237 .3889923 .5190277 .3899994 .44102479 .3899994 .42103578V.42074586Z"/>
<path id="font_2_106" d="M.48599244 .17131043C.48599244 .25431825 .41999818 .330307 .31799317 .35231019 .39698792 .38031007 .45599366 .44831849 .45599366 .5283203 .45599366 .6080475 .3659973 .66503909 .2619934 .66503909 .15499878 .66503909 .07398987 .6070404 .07398987 .53105166 .07398987 .49404908 .09899902 .4780426 .125 .4780426 .1559906 .4780426 .17599488 .5000458 .17599488 .52905276 .17599488 .56604006 .14399719 .5800476 .12199402 .5810547 .1639862 .6360321 .24099732 .6390381 .25898744 .6390381 .2849884 .63931277 .36099244 .63131716 .36099244 .5283203 .36099244 .458313 .33198548 .41630555 .31799317 .40031434 .28799439 .36930848 .2649994 .36730958 .20399475 .36331178 .18499756 .36231996 .1769867 .36131288 .1769867 .34831239 .1769867 .3343048 .18598938 .3343048 .20298767 .3343048H.25299073C.33198548 .3343048 .38198854 .27630616 .38198854 .17131043 .38198854 .045440675 .31098939 .008514404 .2579956 .008514404 .20298767 .008514404 .12799073 .0284729 .09298706 .08137512 .1289978 .08137512 .1539917 .10437012 .1539917 .13737488 .1539917 .16937256 .1309967 .19238281 .09899902 .19238281 .07199097 .19238281 .04399109 .17536927 .04399109 .13537598 .04399109 .04045105 .1459961-.021484375 .2599945-.021484375 .3929901-.021484375 .48599244 .070388797 .48599244 .17037964V.17131043Z"/>
<path id="font_2_82" d="M.44699098 0V.032989503H.4119873C.31698609 .032989503 .31399537 .04499817 .31399537 .08203125V.6371765C.31399537 .664032 .31199647 .66503909 .2849884 .66503909 .24398804 .6252289 .19099427 .6013489 .09599304 .6013489V.5683594C.12298584 .5683594 .1769867 .5683594 .23498535 .5953522V.08203125C.23498535 .04499817 .23199463 .032989503 .13699341 .032989503H.101989749V0C.14299011 .0029907227 .22898865 .0029907227 .27398683 .0029907227 .31900025 .0029907227 .4059906 .0029907227 .44699098 0Z"/>
<path id="font_2_57" d="M.5 .1640625V.197052H.3939972V.64682009C.3939972 .6668091 .3939972 .6748047 .37298585 .6748047 .3600006 .6748047 .35899354 .6737976 .34899903 .6598053L.02999878 .197052V.1640625H.31199647V.08100891C.31199647 .04399109 .30899049 .032989503 .23199463 .032989503H.20899964V0L.35299684 .0029907227 .49699403 0V.032989503H.47399903C.39698792 .032989503 .3939972 .04399109 .3939972 .08100891V.1640625H.5M.31900025 .197052H.06498718L.31900025 .56585696V.197052Z"/>
<path id="font_3_5" d="M.48599244 .38136292C.48999024 .39537049 .48999024 .39736939 .48999024 .40437318 .48999024 .42237855 .47599793 .43138124 .46099855 .43138124 .45098878 .43138124 .43499757 .42536927 .42599488 .41036988 .42399598 .405365 .41600038 .37435914 .4119873 .35635377 .40499879 .33035279 .397995 .30334474 .3919983 .27633668L.34700013 .09628296C.34298707 .08126831 .2999878 .011245728 .23399353 .011245728 .18299866 .011245728 .17199707 .055267335 .17199707 .0922699 .17199707 .1382904 .18899536 .20030213 .22299195 .28833009 .23899842 .3293457 .24299622 .3403473 .24299622 .36035157 .24299622 .405365 .21099854 .4423828 .16099549 .4423828 .06599426 .4423828 .0289917 .29733277 .0289917 .28833009 .0289917 .27833558 .038986207 .27833558 .040985109 .27833558 .050994874 .27833558 .051986696 .28033448 .056991579 .29634095 .083999637 .3903656 .12399292 .42037965 .1579895 .42037965 .1659851 .42037965 .18299866 .42037965 .18299866 .3883667 .18299866 .36335755 .17298889 .3373413 .1659851 .31834413 .12599182 .21231079 .10798645 .1552887 .10798645 .10827637 .10798645 .019256592 .17098999-.0107421879 .22999573-.0107421879 .2689972-.0107421879 .30299378 .0062561037 .33099366 .03425598 .31799317-.017745972 .30599977-.06674194 .2659912-.11973572 .23999024-.15385437 .20199585-.18309021 .1559906-.18309021 .14199829-.18309021 .09700012-.18005371 .07998657-.14074707 .09599304-.14074707 .10899353-.14074707 .12298584-.1287384 .1329956-.11973572 .14299011-.10673523 .14299011-.08773804 .14299011-.056747438 .115997318-.052734376 .10598755-.052734376 .08299255-.052734376 .049987794-.068740848 .049987794-.11773682 .049987794-.16796875 .09399414-.20507813 .1559906-.20507813 .25898744-.20507813 .3619995-.11373901 .3899994-.00074768069L.48599244 .38136292Z"/>
<path id="font_4_10" d="M.68699648 .32714845C.70199587 .32714845 .72099307 .32714845 .72099307 .34713746 .72099307 .36714173 .70199587 .36714173 .6879883 .36714173H.08898926C.07499695 .36714173 .055999757 .36714173 .055999757 .34713746 .055999757 .32714845 .07499695 .32714845 .08999634 .32714845H.68699648M.6879883 .13284302C.70199587 .13284302 .72099307 .13284302 .72099307 .15284729 .72099307 .17285156 .70199587 .17285156 .68699648 .17285156H.08999634C.07499695 .17285156 .055999757 .17285156 .055999757 .15284729 .055999757 .13284302 .07499695 .13284302 .08898926 .13284302H.6879883Z"/>
<path id="font_3_3" d="M.7630005 .60565188C.7719879 .6416168 .7739868 .6516113 .8470001 .6516113 .8730011 .6516113 .8809967 .6516113 .8809967 .6716156 .8809967 .6826172 .8699951 .6826172 .86698916 .6826172 .83898928 .6826172 .7669983 .6796112 .7389984 .6796112 .70999148 .6796112 .6389923 .6826172 .6100006 .6826172 .60198977 .6826172 .59098818 .6826172 .59098818 .6626129 .59098818 .6516113 .59999087 .6516113 .61898806 .6516113 .62098696 .6516113 .6399994 .6516113 .6569977 .6496124 .6749878 .6476135 .6839905 .6466217 .6839905 .6336212 .6839905 .6296234 .68299868 .6276245 .6799927 .6146393L.6199951 .37083436H.31498719L.37399293 .60565188C.3829956 .6416168 .38598634 .6516113 .45799256 .6516113 .48399354 .6516113 .49198915 .6516113 .49198915 .6716156 .49198915 .6826172 .48098756 .6826172 .47799684 .6826172 .44999696 .6826172 .37799073 .6796112 .34999085 .6796112 .32099916 .6796112 .25 .6826172 .22099304 .6826172 .21299744 .6826172 .20199585 .6826172 .20199585 .6626129 .20199585 .6516113 .21099854 .6516113 .22999573 .6516113 .23199463 .6516113 .25099183 .6516113 .2679901 .6496124 .28599549 .6476135 .29499818 .6466217 .29499818 .6336212 .29499818 .6296234 .2939911 .6266327 .29100038 .6146393L.15699768 .07797241C.14698792 .038986207 .14498902 .0309906 .06599426 .0309906 .04798889 .0309906 .038986207 .0309906 .038986207 .010986328 .038986207 0 .050994874 0 .052993776 0 .08099365 0 .1519928 .0029907227 .17999268 .0029907227 .20098877 .0029907227 .22299195 .0019989014 .24398804 .0019989014 .2659912 .0019989014 .28799439 0 .30899049 0 .31698609 0 .32899476 0 .32899476 .019989014 .32899476 .0309906 .31999208 .0309906 .30099488 .0309906 .2639923 .0309906 .23599243 .0309906 .23599243 .048980714 .23599243 .054977418 .23799134 .0599823 .23899842 .065979007L.30699159 .33984376H.6119995C.56999209 .17391968 .5469971 .07896423 .54299929 .0639801 .5329895 .03199768 .5139923 .0309906 .45199586 .0309906 .43699647 .0309906 .42799378 .0309906 .42799378 .010986328 .42799378 0 .43998719 0 .44198609 0 .46998597 0 .54100039 .0029907227 .56900027 .0029907227 .58999636 .0029907227 .6119995 .0019989014 .6329956 .0019989014 .6549988 .0019989014 .6769867 0 .69799807 0 .70599368 0 .71798709 0 .71798709 .019989014 .71798709 .0309906 .70899966 .0309906 .6899872 .0309906 .6529999 .0309906 .625 .0309906 .625 .048980714 .625 .054977418 .6269989 .0599823 .6279907 .065979007L.7630005 .60565188Z"/>
<path id="font_4_1" d="M.33099366-.2400055C.33099366-.23701477 .33099366-.23500061 .31399537-.21800232 .18899536-.0920105 .15699768 .09700012 .15699768 .25 .15699768 .42399598 .19499207 .59799197 .31799317 .72299197 .33099366 .73498538 .33099366 .7369995 .33099366 .73999026 .33099366 .746994 .32699586 .75 .32099916 .75 .31098939 .75 .22099304 .6819916 .1619873 .5549927 .11099243 .44499208 .09899902 .33399964 .09899902 .25 .09899902 .17199707 .10998535 .050994874 .16499329-.06201172 .22499085-.18501282 .31098939-.25 .32099916-.25 .32699586-.25 .33099366-.24700928 .33099366-.2400055Z"/>
<path id="font_3_4" d="M.20599365 .3996582H.2999878C.31999208 .3996582 .32998658 .3996582 .32998658 .41966249 .32998658 .43066407 .31999208 .43066407 .3019867 .43066407H.21398926C.25 .5724945 .25498963 .59246829 .25498963 .59846499 .25498963 .61546328 .24299622 .62545779 .22599793 .62545779 .22299195 .62545779 .19499207 .62446597 .18598938 .58947756L.14698792 .43066407H.052993776C.032989503 .43066407 .022994996 .43066407 .022994996 .4116516 .022994996 .3996582 .0309906 .3996582 .050994874 .3996582H.13899231C.066986087 .11608887 .06298828 .099121097 .06298828 .08114624 .06298828 .02722168 .100997928-.0107421879 .15499878-.0107421879 .25698854-.0107421879 .31399537 .13505554 .31399537 .14305115 .31399537 .1530304 .30599977 .1530304 .3019867 .1530304 .29299928 .1530304 .2919922 .15003968 .2869873 .13905335 .24398804 .035217287 .19099427 .011245728 .15699768 .011245728 .13598633 .011245728 .12599182 .024230957 .12599182 .057174684 .12599182 .08114624 .12799073 .088134769 .13198853 .10510254L.20599365 .3996582Z"/>
<path id="font_4_2" d="M.2889862 .25C.2889862 .32798768 .27799989 .44898988 .22299195 .56199648 .16299439 .68499758 .07699585 .75 .066986087 .75 .06098938 .75 .056991579 .74598696 .056991579 .73999026 .056991579 .7369995 .056991579 .73498538 .07598877 .71699526 .17399597 .6179962 .23098755 .45899964 .23098755 .25 .23098755 .07899475 .19400025-.09700012 .069992069-.2230072 .056991579-.23500061 .056991579-.23701477 .056991579-.2400055 .056991579-.2460022 .06098938-.25 .066986087-.25 .07699585-.25 .16699219-.18200684 .22599793-.055007936 .2769928 .054992677 .2889862 .16600037 .2889862 .25Z"/>
<path id="font_4_6" d="M.2899933 .35191346C.37199403 .37893678 .42999269 .4490509 .42999269 .52809146 .42999269 .6100464 .34199525 .6660156 .24598694 .6660156 .14498902 .6660156 .068984989 .60606387 .068984989 .53009036 .068984989 .49710084 .09098816 .47808839 .11999512 .47808839 .15098572 .47808839 .17098999 .50009158 .17098999 .5290985 .17098999 .57910159 .12399292 .57910159 .10899353 .57910159 .13999939 .62802127 .20599365 .64100649 .24198914 .64100649 .2829895 .64100649 .33799745 .6190338 .33799745 .5290985 .33799745 .51708987 .33599855 .45906068 .30999757 .4149933 .27999879 .36691285 .24598694 .36390687 .22099304 .36291505 .21299744 .36190797 .18899536 .35990907 .18199158 .35990907 .17399597 .35890199 .16699219 .35791017 .16699219 .3479004 .16699219 .33691407 .17399597 .33691407 .19099427 .33691407H.23498535C.31698609 .33691407 .35398866 .2686615 .35398866 .17037964 .35398866 .034469606 .2849884 .0055389406 .24099732 .0055389406 .19799805 .0055389406 .12298584 .022491456 .08799744 .08137512 .12298584 .07637024 .1539917 .09837341 .1539917 .1363678 .1539917 .17237854 .1269989 .19238281 .09799194 .19238281 .07398987 .19238281 .041992189 .17837525 .041992189 .1343689 .041992189 .043441774 .1349945-.022460938 .24398804-.022460938 .3659973-.022460938 .45700074 .06838989 .45700074 .17037964 .45700074 .252594 .3939972 .33088685 .2899933 .35191346Z"/>
<path id="font_4_3" d="M.45999146 .31976319C.45999146 .39982606 .45498658 .47988893 .41999818 .5539398 .37399293 .65000918 .2919922 .6660156 .25 .6660156 .18998719 .6660156 .116989139 .64001467 .07598877 .54693606 .04399109 .47789 .038986207 .39982606 .038986207 .31976319 .038986207 .24472046 .042999269 .15464783 .083999637 .07859802 .1269989-.0024719239 .19999695-.022460938 .24899292-.022460938 .30299378-.022460938 .3789978-.0014648438 .4229889 .09359741 .45498658 .16265869 .45999146 .2407074 .45999146 .31976319M.24899292-.00047302247C.20999146-.00047302247 .15098572 .024551392 .1329956 .12062073 .12199402 .18066406 .12199402 .2727356 .12199402 .3317871 .12199402 .39582826 .12199402 .46188355 .12998963 .5159149 .14898682 .63500979 .22399903 .64401248 .24899292 .64401248 .28199769 .64401248 .34799195 .6259918 .36698915 .52693179 .3769989 .47088624 .3769989 .39482118 .3769989 .3317871 .3769989 .25672914 .3769989 .18867493 .3659973 .12461853 .35099793 .029556275 .2939911-.00047302247 .24899292-.00047302247Z"/>
<path id="font_4_8" d="M.44898988 .20022583C.44898988 .3193512 .36698915 .41944886 .25898744 .41944886 .21099854 .41944886 .16799927 .40345765 .13198853 .36842347V.5637665C.1519928 .5577698 .18499756 .55078127 .21699524 .55078127 .33999635 .55078127 .4099884 .6417694 .4099884 .6547699 .4099884 .6607666 .40699769 .6657715 .3999939 .6657715 .39898683 .6657715 .39698792 .6657715 .3919983 .66278079 .37199403 .6537781 .32299806 .6337738 .2559967 .6337738 .21598816 .6337738 .16999817 .6407776 .12298584 .6617737 .114990238 .66477969 .11299133 .66477969 .11099243 .66477969 .100997928 .66477969 .100997928 .6567688 .100997928 .6407776V.34439088C.100997928 .32637025 .100997928 .31835938 .114990238 .31835938 .12199402 .31835938 .12399292 .32136537 .12799073 .32736207 .13899231 .3433838 .17599488 .39746095 .25698854 .39746095 .30899049 .39746095 .33399964 .35139466 .34199525 .33337403 .35798646 .29632569 .3600006 .25727845 .3600006 .20722962 .3600006 .17222595 .3600006 .11222839 .33599855 .07035828 .31199647 .031463624 .2749939 .0055389406 .22898865 .0055389406 .1559906 .0055389406 .09899902 .058380128 .08198547 .11723328 .084991458 .1162262 .08799744 .115234378 .09899902 .115234378 .13198853 .115234378 .14898682 .14022827 .14898682 .16423035 .14898682 .18823242 .13198853 .21322632 .09899902 .21322632 .084991458 .21322632 .049987794 .20622254 .049987794 .16023255 .049987794 .07434082 .11898804-.022460938 .23098755-.022460938 .34700013-.022460938 .44898988 .073349 .44898988 .20022583Z"/>
<path id="font_3_2" d="M.20298767 .0009918213C.20298767 .066986087 .17799378 .10598755 .13899231 .10598755 .10598755 .10598755 .085998538 .08099365 .085998538 .052993776 .085998538 .025985718 .10598755 0 .13899231 0 .15098572 0 .1639862 .0039978029 .17399597 .0129852299 .1769867 .01499939 .17799378 .015991211 .1789856 .015991211 .17999268 .015991211 .18099976 .01499939 .18099976 .0009918213 .18099976-.07316589 .1459961-.13328552 .11299133-.16635132 .101989749-.17736817 .101989749-.17936707 .101989749-.18237305 .101989749-.18936157 .10699463-.19335938 .11199951-.19335938 .12298584-.19335938 .20298767-.116256717 .20298767 .0009918213Z"/>
<path id="font_4_5" d="M.1269989 .07699585 .23298645 .18003845C.3889923 .31811524 .44898988 .3721466 .44898988 .47216798 .44898988 .5860901 .35899354 .6660156 .23699951 .6660156 .12399292 .6660156 .049987794 .57411196 .049987794 .48516847 .049987794 .4291687 .099990848 .4291687 .102996829 .4291687 .11999512 .4291687 .15499878 .44117738 .15499878 .48217774 .15499878 .5081787 .13699341 .5341797 .101989749 .5341797 .09399414 .5341797 .09199524 .5341797 .08898926 .5331726 .11199951 .59806826 .1659851 .63500979 .22399903 .63500979 .31498719 .63500979 .35798646 .5541382 .35798646 .47216798 .35798646 .39215089 .30799867 .31311036 .25299073 .25108338L.06098938 .036987306C.049987794 .025985718 .049987794 .023986817 .049987794 0H.42099L.44898988 .17404175H.42399598C.4189911 .14402771 .4119873 .1000061 .4019928 .084991458 .394989 .07699585 .32899476 .07699585 .30699159 .07699585H.1269989Z"/>
<path id="font_4_4" d="M.2939911 .64004519C.2939911 .66400149 .2939911 .6660156 .2709961 .6660156 .20899964 .60227969 .12098694 .60227969 .08898926 .60227969V.57128909C.10899353 .57128909 .16799927 .57128909 .21998596 .5972748V.07902527C.21998596 .042999269 .21699524 .0309906 .1269989 .0309906H.09498596V0C.12998963 .0029907227 .21699524 .0029907227 .25698854 .0029907227 .29699708 .0029907227 .38398744 .0029907227 .4189911 0V.0309906H.3869934C.29699708 .0309906 .2939911 .041992189 .2939911 .07902527V.64004519Z"/>
<path id="font_4_9" d="M.36698915 .31781007V.28579713C.36698915 .05178833 .2630005 .0055389406 .20498657 .0055389406 .18798828 .0055389406 .13398743 .007537842 .10699463 .041778566 .15098572 .041778566 .15899658 .07078552 .15899658 .08778381 .15899658 .118774417 .1349945 .13378906 .11299133 .13378906 .09700012 .13378906 .066986087 .12478638 .066986087 .08578491 .066986087 .018615723 .12098694-.022460938 .20599365-.022460938 .33499146-.022460938 .45700074 .11378479 .45700074 .32881166 .45700074 .5979767 .34199525 .6660156 .25299073 .6660156 .19799805 .6660156 .14898682 .64801028 .10598755 .60298159 .06498718 .5579529 .041992189 .5159302 .041992189 .44088746 .041992189 .31581117 .12998963 .21777344 .24198914 .21777344 .30299378 .21777344 .34399415 .25978089 .36698915 .31781007M.24299622 .24076844C.22698975 .24076844 .18099976 .24076844 .1499939 .3038025 .13198853 .3408203 .13198853 .39085389 .13198853 .43988038 .13198853 .49391175 .13198853 .54093936 .15299988 .5779724 .17999268 .6279907 .21798706 .64100649 .25299073 .64100649 .29899598 .64100649 .33198548 .60697939 .34899903 .5619507 .36099244 .52993777 .36499024 .4669037 .36499024 .42086793 .36499024 .3378296 .33099366 .24076844 .24299622 .24076844Z"/>
<path id="font_3_1" d="M.19198609 .052993776C.19198609 .08198547 .16799927 .10598755 .13899231 .10598755 .10998535 .10598755 .085998538 .08198547 .085998538 .052993776 .085998538 .023986817 .10998535 0 .13899231 0 .16799927 0 .19198609 .023986817 .19198609 .052993776Z"/>
<path id="font_4_7" d="M.2939911 .16503906V.07800293C.2939911 .041992189 .2919922 .0309906 .21798706 .0309906H.19699097V0C.23799134 .0029907227 .2899933 .0029907227 .33198548 .0029907227 .37399293 .0029907227 .4269867 .0029907227 .46798707 0V.0309906H.44699098C.37298585 .0309906 .37098695 .041992189 .37098695 .07800293V.16503906H.47099305V.19602967H.37098695V.65075686C.37098695 .67074587 .37098695 .6767578 .35499574 .6767578 .34599305 .6767578 .34298707 .6767578 .33499146 .66474917L.027999878 .19602967V.16503906H.2939911M.2999878 .19602967H.055999757L.2999878 .5688019V.19602967Z"/>
</defs>
<path transform="matrix(1.00005,0,0,-1.00002,2.1950589,143.15328)" d="M0 0H163.88796V141.35407H0Z" fill="#fffac2"/>
<path transform="matrix(1.00005,0,0,-1.00002,2.1950589,143.15328)" stroke-width=".3985" stroke-linecap="butt" stroke-miterlimit="10" stroke-linejoin="miter" fill="none" stroke="#d5d6d5" d="M0 0V141.35407M23.41255 0V141.35407M46.82512 0V141.35407M70.23769 0V141.35407M93.65025 0V141.35407M117.06282 0V141.35407M140.47539 0V141.35407M163.88796 0V141.35407"/>
<path transform="matrix(1.00005,0,0,-1.00002,2.1950589,143.15328)" stroke-width=".3985" stroke-linecap="butt" stroke-miterlimit="10" stroke-linejoin="miter" fill="none" stroke="#d5d6d5" d="M46.82512 0V141.35407M70.23769 0V141.35407M93.65025 0V141.35407M117.06282 0V141.35407M140.47539 0V141.35407"/>
<path transform="matrix(1.00005,0,0,-1.00002,2.1950589,143.15328)" stroke-width=".3985" stroke-linecap="butt" stroke-miterlimit="10" stroke-linejoin="miter" fill="none" stroke="#d5d6d5" d="M0 17.66925H163.88796M0 35.33852H163.88796M0 53.00777H163.88796M0 70.67703H163.88796M0 88.34628H163.88796M0 106.01555H163.88796M0 123.68481H163.88796"/>
<path transform="matrix(1.00005,0,0,-1.00002,2.1950589,143.15328)" stroke-width=".19925" stroke-linecap="butt" stroke-miterlimit="10" stroke-linejoin="miter" fill="none" stroke="#929292" d="M0-1.4174V1.41742M23.41255-1.4174V1.41742M46.82512-1.4174V1.41742M70.23769-1.4174V1.41742M93.65025-1.4174V1.41742M117.06282-1.4174V1.41742M140.47539-1.4174V1.41742M163.88796-1.4174V1.41742"/>
<path transform="matrix(1.00005,0,0,-1.00002,2.1950589,143.15328)" stroke-width=".19925" stroke-linecap="butt" stroke-miterlimit="10" stroke-linejoin="miter" fill="none" stroke="#929292" d="M46.82512-2.12592V2.12592M70.23769-2.12592V2.12592M93.65025-2.12592V2.12592M117.06282-2.12592V2.12592M140.47539-2.12592V2.12592"/>
<path transform="matrix(1.00005,0,0,-1.00002,2.1950589,143.15328)" stroke-width=".19925" stroke-linecap="butt" stroke-miterlimit="10" stroke-linejoin="miter" fill="none" stroke="#929292" d="M21.2867 17.66925H25.5384M21.2867 35.33852H25.5384M21.2867 53.00777H25.5384M21.2867 70.67703H25.5384M21.2867 88.34628H25.5384M21.2867 106.01555H25.5384M21.2867 123.68481H25.5384"/>
<path transform="matrix(1.00005,0,0,-1.00002,2.1950589,143.15328)" stroke-width=".3985" stroke-linecap="butt" stroke-miterlimit="10" stroke-linejoin="miter" fill="none" stroke="#000000" d="M0 0H161.89543"/>
<path transform="matrix(1.00005,0,0,-1.00002,164.09857,143.15328)" d="M1.99252 0-1.19551 1.59401 0 0-1.19551-1.59401"/>
<path transform="matrix(1.00005,0,0,-1.00002,2.1950589,143.15328)" stroke-width=".3985" stroke-linecap="butt" stroke-miterlimit="10" stroke-linejoin="miter" fill="none" stroke="#000000" d="M23.41255 0V3.9851L19.42744 6.97394 27.39766 12.9516 23.41255 15.94043V139.36154"/>
<path transform="matrix(0,-1.00002,-1.00005,-0,25.608778,3.7889405)" d="M1.99252 0-1.19551 1.59401 0 0-1.19551-1.59401"/>
<use data-text="5" xlink:href="#font_1_4" transform="matrix(7.970498,0,0,-7.9702599,46.90529,153.93549)"/>
<use data-text="1" xlink:href="#font_1_2" transform="matrix(7.970498,0,0,-7.9702599,68.201358,153.93549)"/>
<use data-text="0" xlink:href="#font_1_1" transform="matrix(7.970498,0,0,-7.9702599,72.433689,153.93549)"/>
<use data-text="1" xlink:href="#font_1_2" transform="matrix(7.970498,0,0,-7.9702599,91.61552,153.93549)"/>
<use data-text="5" xlink:href="#font_1_4" transform="matrix(7.970498,0,0,-7.9702599,95.847858,153.93549)"/>
<use data-text="2" xlink:href="#font_1_3" transform="matrix(7.970498,0,0,-7.9702599,115.0297,153.93549)"/>
<use data-text="0" xlink:href="#font_1_1" transform="matrix(7.970498,0,0,-7.9702599,119.26204,153.93549)"/>
<use data-text="2" xlink:href="#font_1_3" transform="matrix(7.970498,0,0,-7.9702599,138.44287,153.93549)"/>
<use data-text="5" xlink:href="#font_1_4" transform="matrix(7.970498,0,0,-7.9702599,142.6752,153.93549)"/>
<use data-text="2" xlink:href="#font_2_107" transform="matrix(7.970498,0,0,-7.9702599,.6919842,128.04998)"/>
<use data-text="8" xlink:href="#font_2_51" transform="matrix(7.970498,0,0,-7.9702599,4.9243185,128.04998)"/>
<use data-text="0" xlink:href="#font_2_121" transform="matrix(7.970498,0,0,-7.9702599,9.156654,128.04998)"/>
<use data-text="0" xlink:href="#font_2_121" transform="matrix(7.970498,0,0,-7.9702599,13.3889889,128.04998)"/>
<use data-text="0" xlink:href="#font_2_121" transform="matrix(7.970498,0,0,-7.9702599,17.621327,128.04998)"/>
<use data-text="2" xlink:href="#font_2_107" transform="matrix(7.970498,0,0,-7.9702599,.6919842,110.380619)"/>
<use data-text="9" xlink:href="#font_2_78" transform="matrix(7.970498,0,0,-7.9702599,4.9243185,110.380619)"/>
<use data-text="0" xlink:href="#font_2_121" transform="matrix(7.970498,0,0,-7.9702599,9.156654,110.380619)"/>
<use data-text="0" xlink:href="#font_2_121" transform="matrix(7.970498,0,0,-7.9702599,13.3889889,110.380619)"/>
<use data-text="0" xlink:href="#font_2_121" transform="matrix(7.970498,0,0,-7.9702599,17.621327,110.380619)"/>
<use data-text="3" xlink:href="#font_2_106" transform="matrix(7.970498,0,0,-7.9702599,.6919842,92.71126)"/>
<use data-text="0" xlink:href="#font_2_121" transform="matrix(7.970498,0,0,-7.9702599,4.9243185,92.71126)"/>
<use data-text="0" xlink:href="#font_2_121" transform="matrix(7.970498,0,0,-7.9702599,9.156654,92.71126)"/>
<use data-text="0" xlink:href="#font_2_121" transform="matrix(7.970498,0,0,-7.9702599,13.3889889,92.71126)"/>
<use data-text="0" xlink:href="#font_2_121" transform="matrix(7.970498,0,0,-7.9702599,17.621327,92.71126)"/>
<use data-text="3" xlink:href="#font_2_106" transform="matrix(7.970498,0,0,-7.9702599,.6919842,75.04091)"/>
<use data-text="1" xlink:href="#font_2_82" transform="matrix(7.970498,0,0,-7.9702599,4.9243185,75.04091)"/>
<use data-text="0" xlink:href="#font_2_121" transform="matrix(7.970498,0,0,-7.9702599,9.156654,75.04091)"/>
<use data-text="0" xlink:href="#font_2_121" transform="matrix(7.970498,0,0,-7.9702599,13.3889889,75.04091)"/>
<use data-text="0" xlink:href="#font_2_121" transform="matrix(7.970498,0,0,-7.9702599,17.621327,75.04091)"/>
<use data-text="3" xlink:href="#font_2_106" transform="matrix(7.970498,0,0,-7.9702599,.6919842,57.37156)"/>
<use data-text="2" xlink:href="#font_2_107" transform="matrix(7.970498,0,0,-7.9702599,4.9243185,57.37156)"/>
<use data-text="0" xlink:href="#font_2_121" transform="matrix(7.970498,0,0,-7.9702599,9.156654,57.37156)"/>
<use data-text="0" xlink:href="#font_2_121" transform="matrix(7.970498,0,0,-7.9702599,13.3889889,57.37156)"/>
<use data-text="0" xlink:href="#font_2_121" transform="matrix(7.970498,0,0,-7.9702599,17.621327,57.37156)"/>
<use data-text="3" xlink:href="#font_2_106" transform="matrix(7.970498,0,0,-7.9702599,.6919842,39.7022)"/>
<use data-text="3" xlink:href="#font_2_106" transform="matrix(7.970498,0,0,-7.9702599,4.9243185,39.7022)"/>
<use data-text="0" xlink:href="#font_2_121" transform="matrix(7.970498,0,0,-7.9702599,9.156654,39.7022)"/>
<use data-text="0" xlink:href="#font_2_121" transform="matrix(7.970498,0,0,-7.9702599,13.3889889,39.7022)"/>
<use data-text="0" xlink:href="#font_2_121" transform="matrix(7.970498,0,0,-7.9702599,17.621327,39.7022)"/>
<use data-text="3" xlink:href="#font_2_106" transform="matrix(7.970498,0,0,-7.9702599,.6919842,22.071846)"/>
<use data-text="4" xlink:href="#font_2_57" transform="matrix(7.970498,0,0,-7.9702599,4.9243185,22.071846)"/>
<use data-text="0" xlink:href="#font_2_121" transform="matrix(7.970498,0,0,-7.9702599,9.156654,22.071846)"/>
<use data-text="0" xlink:href="#font_2_121" transform="matrix(7.970498,0,0,-7.9702599,13.3889889,22.071846)"/>
<use data-text="0" xlink:href="#font_2_121" transform="matrix(7.970498,0,0,-7.9702599,17.621327,22.071846)"/>
<path transform="matrix(1.00005,0,0,-1.00002,2.1950589,143.15328)" stroke-width=".3985" stroke-linecap="butt" stroke-dasharray="2.98883,2.98883" stroke-miterlimit="10" stroke-linejoin="miter" fill="none" stroke="#9e0c0f" d="M2.41595 24.32855 6.82863 33.26413 13.65729 45.89058 20.48593 57.31377 27.31458 67.53366 34.14322 76.55382 40.97188 84.36894 47.80054 90.98254 54.62917 96.39287 61.45782 100.60168 68.28647 103.60898 75.11513 105.41302 81.94377 106.01376 88.77242 105.41302 95.60107 103.60898 102.42972 100.60168 109.25836 96.39287 116.087 90.98254 122.91566 84.36894 129.74431 76.55382 136.57295 67.53366 143.40161 57.31377 150.23026 45.89058 157.0589 33.26413 161.47159 24.32855"/>
<path transform="matrix(-.44277213,.8965979,.89662477,.4427589,4.7358958,118.5716)" d="M5.10841 0 1.48842 1.20667 .28177 0 1.48842-1.20667Z" fill="#9e0c0f"/>
<path transform="matrix(-.44277213,.8965979,.89662477,.4427589,4.7358958,118.5716)" stroke-width=".3985" stroke-linecap="butt" stroke-miterlimit="10" stroke-linejoin="miter" fill="none" stroke="#9e0c0f" d="M5.10841 0 1.48842 1.20667 .28177 0 1.48842-1.20667Z"/>
<path transform="matrix(.44277213,.8965979,.89662477,-.4427589,163.54994,118.5716)" d="M5.10841 0 1.48842 1.20667 .28177 0 1.48842-1.20667Z" fill="#9e0c0f"/>
<path transform="matrix(.44277213,.8965979,.89662477,-.4427589,163.54994,118.5716)" stroke-width=".3985" stroke-linecap="butt" stroke-miterlimit="10" stroke-linejoin="miter" fill="none" stroke="#9e0c0f" d="M5.10841 0 1.48842 1.20667 .28177 0 1.48842-1.20667Z"/>
<use data-text="y" xlink:href="#font_3_5" transform="matrix(9.963098,0,0,-9.962799,114.20565,107.625568)" fill="#9e0c0f"/>
<use data-text="=" xlink:href="#font_4_10" transform="matrix(9.963098,0,0,-9.962799,122.21506,107.625568)" fill="#9e0c0f"/>
<use data-text="H" xlink:href="#font_3_3" transform="matrix(9.963098,0,0,-9.962799,132.73157,107.625568)" fill="#9e0c0f"/>
<use data-text="(" xlink:href="#font_4_1" transform="matrix(9.963098,0,0,-9.962799,141.82303,107.625568)" fill="#9e0c0f"/>
<use data-text="t" xlink:href="#font_3_4" transform="matrix(9.963098,0,0,-9.962799,145.69722,107.625568)" fill="#9e0c0f"/>
<use data-text=")" xlink:href="#font_4_2" transform="matrix(9.963098,0,0,-9.962799,149.29541,107.625568)" fill="#9e0c0f"/>
<path transform="matrix(1.00005,0,0,-1.00002,2.1950589,143.15328)" stroke-width=".99628" stroke-linecap="butt" stroke-miterlimit="10" stroke-linejoin="miter" fill="none" stroke="#9e0c0f" d="M23.41255 61.84062 28.29013 68.89597 33.16771 75.33994 38.0453 81.1655 42.92288 86.38322 47.80048 90.98254 52.67805 94.97049 57.55563 98.34532 62.43323 101.10703 67.3108 103.25208 72.1884 104.78754 77.06598 105.70808 81.94357 106.01376 86.82115 105.70808 91.69873 104.78754 96.57632 103.25208 101.4539 101.10703 106.3315 98.34532 111.20908 94.97226 116.08665 90.98254 120.96425 86.38322 125.84183 81.16902 130.71942 75.33994 135.597 68.89949 140.4746 61.8424"/>
<path transform="matrix(1.00005,0,0,-1.00002,2.1950589,143.15328)" stroke-width=".99628" stroke-linecap="butt" stroke-miterlimit="10" stroke-linejoin="miter" fill="none" stroke="#008099" d="M8.26201 61.8424H6.82863 13.65729 20.48593 27.31458 34.14322 40.97188 47.80054 54.62917 61.45782 68.28647 75.11513 81.94377 88.77242 95.60107 102.42972 109.25836 116.087 122.91566 129.74431 136.57295 143.40161 150.23026 157.0589 155.62554"/>
<path transform="matrix(-1.00005,-0,0,1.00002,11.161997,81.30963)" d="M7.39124 0 2.37614 1.6717 .70447 0 2.37614-1.6717Z" fill="#008099"/>
<path transform="matrix(-1.00005,-0,0,1.00002,11.161997,81.30963)" stroke-width=".99628" stroke-linecap="butt" stroke-miterlimit="10" stroke-linejoin="miter" fill="none" stroke="#008099" d="M7.39124 0 2.37614 1.6717 .70447 0 2.37614-1.6717Z"/>
<path transform="matrix(1.00005,0,0,-1.00002,157.12384,81.30963)" d="M7.39124 0 2.37614 1.6717 .70447 0 2.37614-1.6717Z" fill="#008099"/>
<path transform="matrix(1.00005,0,0,-1.00002,157.12384,81.30963)" stroke-width=".99628" stroke-linecap="butt" stroke-miterlimit="10" stroke-linejoin="miter" fill="none" stroke="#008099" d="M7.39124 0 2.37614 1.6717 .70447 0 2.37614-1.6717Z"/>
<use data-text="y" xlink:href="#font_3_5" transform="matrix(9.963098,0,0,-9.962799,62.42507,75.553928)" fill="#008099"/>
<use data-text="=" xlink:href="#font_4_10" transform="matrix(9.963098,0,0,-9.962799,70.43447,75.553928)" fill="#008099"/>
<use data-text="3" xlink:href="#font_4_6" transform="matrix(9.963098,0,0,-9.962799,80.93558,75.553928)" fill="#008099"/>
<use data-text="0" xlink:href="#font_4_3" transform="matrix(9.963098,0,0,-9.962799,85.91713,75.553928)" fill="#008099"/>
<use data-text="5" xlink:href="#font_4_8" transform="matrix(9.963098,0,0,-9.962799,90.898677,75.553928)" fill="#008099"/>
<use data-text="0" xlink:href="#font_4_3" transform="matrix(9.963098,0,0,-9.962799,95.88022,75.553928)" fill="#008099"/>
<use data-text="0" xlink:href="#font_4_3" transform="matrix(9.963098,0,0,-9.962799,100.86177,75.553928)" fill="#008099"/>
<path transform="matrix(1.00005,0,0,-1.00002,2.1950589,143.15328)" stroke-width=".3985" stroke-linecap="butt" stroke-miterlimit="10" stroke-linejoin="miter" fill="none" stroke="#1c8464" d=""/>
<use data-text="(" xlink:href="#font_4_1" transform="matrix(9.963098,0,0,-9.962799,29.128403,92.301258)" fill="#1c8464"/>
<use data-text="0" xlink:href="#font_4_3" transform="matrix(9.963098,0,0,-9.962799,32.994085,92.301258)" fill="#1c8464"/>
<use data-text="," xlink:href="#font_3_2" transform="matrix(9.963098,0,0,-9.962799,37.98385,92.301258)" fill="#1c8464"/>
<use data-text="3" xlink:href="#font_4_6" transform="matrix(9.963098,0,0,-9.962799,42.41207,92.301258)" fill="#1c8464"/>
<use data-text="0" xlink:href="#font_4_3" transform="matrix(9.963098,0,0,-9.962799,47.393617,92.301258)" fill="#1c8464"/>
<use data-text="5" xlink:href="#font_4_8" transform="matrix(9.963098,0,0,-9.962799,52.375169,92.301258)" fill="#1c8464"/>
<use data-text="0" xlink:href="#font_4_3" transform="matrix(9.963098,0,0,-9.962799,57.35672,92.301258)" fill="#1c8464"/>
<use data-text="0" xlink:href="#font_4_3" transform="matrix(9.963098,0,0,-9.962799,62.338266,92.301258)" fill="#1c8464"/>
<use data-text=")" xlink:href="#font_4_2" transform="matrix(9.963098,0,0,-9.962799,67.31982,92.301258)" fill="#1c8464"/>
<path transform="matrix(1.00005,0,0,-1.00002,2.1950589,143.15328)" stroke-width=".3985" stroke-linecap="butt" stroke-miterlimit="10" stroke-linejoin="miter" fill="none" stroke="#1c8464" d=""/>
<use data-text="(" xlink:href="#font_4_1" transform="matrix(9.963098,0,0,-9.962799,92.10854,92.301258)" fill="#1c8464"/>
<use data-text="2" xlink:href="#font_4_5" transform="matrix(9.963098,0,0,-9.962799,95.97423,92.301258)" fill="#1c8464"/>
<use data-text="5" xlink:href="#font_4_8" transform="matrix(9.963098,0,0,-9.962799,100.95578,92.301258)" fill="#1c8464"/>
<use data-text="," xlink:href="#font_3_2" transform="matrix(9.963098,0,0,-9.962799,105.946239,92.301258)" fill="#1c8464"/>
<use data-text="3" xlink:href="#font_4_6" transform="matrix(9.963098,0,0,-9.962799,110.37446,92.301258)" fill="#1c8464"/>
<use data-text="0" xlink:href="#font_4_3" transform="matrix(9.963098,0,0,-9.962799,115.356,92.301258)" fill="#1c8464"/>
<use data-text="5" xlink:href="#font_4_8" transform="matrix(9.963098,0,0,-9.962799,120.337558,92.301258)" fill="#1c8464"/>
<use data-text="0" xlink:href="#font_4_3" transform="matrix(9.963098,0,0,-9.962799,125.31911,92.301258)" fill="#1c8464"/>
<use data-text="0" xlink:href="#font_4_3" transform="matrix(9.963098,0,0,-9.962799,130.30066,92.301258)" fill="#1c8464"/>
<use data-text=")" xlink:href="#font_4_2" transform="matrix(9.963098,0,0,-9.962799,135.2822,92.301258)" fill="#1c8464"/>
<path transform="matrix(1.00005,0,0,-1.00002,2.1950589,143.15328)" stroke-width=".3985" stroke-linecap="butt" stroke-miterlimit="10" stroke-linejoin="miter" fill="none" stroke="#c7502a" d=""/>
<use data-text="(" xlink:href="#font_4_1" transform="matrix(9.963098,0,0,-9.962799,21.86704,32.892068)" fill="#c7502a"/>
<use data-text="1" xlink:href="#font_4_4" transform="matrix(9.963098,0,0,-9.962799,25.732722,32.892068)" fill="#c7502a"/>
<use data-text="0" xlink:href="#font_4_3" transform="matrix(9.963098,0,0,-9.962799,30.714272,32.892068)" fill="#c7502a"/>
<use data-text="," xlink:href="#font_3_2" transform="matrix(9.963098,0,0,-9.962799,35.70473,32.892068)" fill="#c7502a"/>
<use data-text="3" xlink:href="#font_4_6" transform="matrix(9.963098,0,0,-9.962799,40.132955,32.892068)" fill="#c7502a"/>
<use data-text="2" xlink:href="#font_4_5" transform="matrix(9.963098,0,0,-9.962799,45.114503,32.892068)" fill="#c7502a"/>
<use data-text="9" xlink:href="#font_4_9" transform="matrix(9.963098,0,0,-9.962799,50.096055,32.892068)" fill="#c7502a"/>
<use data-text="0" xlink:href="#font_4_3" transform="matrix(9.963098,0,0,-9.962799,55.077604,32.892068)" fill="#c7502a"/>
<use data-text="0" xlink:href="#font_4_3" transform="matrix(9.963098,0,0,-9.962799,60.05915,32.892068)" fill="#c7502a"/>
<use data-text=")" xlink:href="#font_4_2" transform="matrix(9.963098,0,0,-9.962799,65.040699,32.892068)" fill="#c7502a"/>
<path transform="matrix(1.00005,0,0,-1.00002,2.1950589,143.15328)" stroke-width=".3985" stroke-linecap="butt" stroke-miterlimit="10" stroke-linejoin="miter" fill="none" stroke="#70485b" d=""/>
<use data-text="(" xlink:href="#font_4_1" transform="matrix(9.963098,0,0,-9.962799,87.66333,31.12503)" fill="#70485b"/>
<use data-text="1" xlink:href="#font_4_4" transform="matrix(9.963098,0,0,-9.962799,91.52901,31.12503)" fill="#70485b"/>
<use data-text="2" xlink:href="#font_4_5" transform="matrix(9.963098,0,0,-9.962799,96.51056,31.12503)" fill="#70485b"/>
<use data-text="." xlink:href="#font_3_1" transform="matrix(9.963098,0,0,-9.962799,101.50102,31.12503)" fill="#70485b"/>
<use data-text="5" xlink:href="#font_4_8" transform="matrix(9.963098,0,0,-9.962799,104.26816,31.12503)" fill="#70485b"/>
<use data-text="," xlink:href="#font_3_2" transform="matrix(9.963098,0,0,-9.962799,109.250408,31.12503)" fill="#70485b"/>
<use data-text="3" xlink:href="#font_4_6" transform="matrix(9.963098,0,0,-9.962799,113.67763,31.12503)" fill="#70485b"/>
<use data-text="4" xlink:href="#font_4_7" transform="matrix(9.963098,0,0,-9.962799,118.65918,31.12503)" fill="#70485b"/>
<use data-text="0" xlink:href="#font_4_3" transform="matrix(9.963098,0,0,-9.962799,123.640727,31.12503)" fill="#70485b"/>
<use data-text="0" xlink:href="#font_4_3" transform="matrix(9.963098,0,0,-9.962799,128.62227,31.12503)" fill="#70485b"/>
<use data-text="0" xlink:href="#font_4_3" transform="matrix(9.963098,0,0,-9.962799,133.60382,31.12503)" fill="#70485b"/>
<use data-text=")" xlink:href="#font_4_2" transform="matrix(9.963098,0,0,-9.962799,138.58538,31.12503)" fill="#70485b"/>
<path transform="matrix(1.00005,0,0,-1.00002,2.1950589,143.15328)" d="M25.4051 61.8424C25.4051 62.94287 24.51303 63.83496 23.41255 63.83496 22.31209 63.83496 21.42 62.94287 21.42 61.8424 21.42 60.74193 22.31209 59.84985 23.41255 59.84985 24.51303 59.84985 25.4051 60.74193 25.4051 61.8424ZM23.41255 61.8424" fill="#1c8464"/>
<path transform="matrix(1.00005,0,0,-1.00002,2.1950589,143.15328)" stroke-width=".3985" stroke-linecap="butt" stroke-miterlimit="10" stroke-linejoin="miter" fill="none" stroke="#1c8464" d="M25.4051 61.8424C25.4051 62.94287 24.51303 63.83496 23.41255 63.83496 22.31209 63.83496 21.42 62.94287 21.42 61.8424 21.42 60.74193 22.31209 59.84985 23.41255 59.84985 24.51303 59.84985 25.4051 60.74193 25.4051 61.8424ZM23.41255 61.8424"/>
<path transform="matrix(1.00005,0,0,-1.00002,2.1950589,143.15328)" stroke-width=".3985" stroke-linecap="butt" stroke-miterlimit="10" stroke-linejoin="miter" fill="none" stroke="#1c8464" d=""/>
<path transform="matrix(1.00005,0,0,-1.00002,2.1950589,143.15328)" d="M142.46794 61.8424C142.46794 62.94287 141.57587 63.83496 140.47539 63.83496 139.37493 63.83496 138.48284 62.94287 138.48284 61.8424 138.48284 60.74193 139.37493 59.84985 140.47539 59.84985 141.57587 59.84985 142.46794 60.74193 142.46794 61.8424ZM140.47539 61.8424" fill="#1c8464"/>
<path transform="matrix(1.00005,0,0,-1.00002,2.1950589,143.15328)" stroke-width=".3985" stroke-linecap="butt" stroke-miterlimit="10" stroke-linejoin="miter" fill="none" stroke="#1c8464" d="M142.46794 61.8424C142.46794 62.94287 141.57587 63.83496 140.47539 63.83496 139.37493 63.83496 138.48284 62.94287 138.48284 61.8424 138.48284 60.74193 139.37493 59.84985 140.47539 59.84985 141.57587 59.84985 142.46794 60.74193 142.46794 61.8424ZM140.47539 61.8424"/>
<path transform="matrix(1.00005,0,0,-1.00002,2.1950589,143.15328)" stroke-width=".3985" stroke-linecap="butt" stroke-miterlimit="10" stroke-linejoin="miter" fill="none" stroke="#1c8464" d=""/>
<path transform="matrix(1.00005,0,0,-1.00002,2.1950589,143.15328)" d="M72.23024 104.24863C72.23024 105.34909 71.33817 106.24118 70.23769 106.24118 69.13722 106.24118 68.24513 105.34909 68.24513 104.24863 68.24513 103.14815 69.13722 102.25607 70.23769 102.25607 71.33817 102.25607 72.23024 103.14815 72.23024 104.24863ZM70.23769 104.24863" fill="#c7502a"/>
<path transform="matrix(1.00005,0,0,-1.00002,2.1950589,143.15328)" stroke-width=".3985" stroke-linecap="butt" stroke-miterlimit="10" stroke-linejoin="miter" fill="none" stroke="#c7502a" d="M72.23024 104.24863C72.23024 105.34909 71.33817 106.24118 70.23769 106.24118 69.13722 106.24118 68.24513 105.34909 68.24513 104.24863 68.24513 103.14815 69.13722 102.25607 70.23769 102.25607 71.33817 102.25607 72.23024 103.14815 72.23024 104.24863ZM70.23769 104.24863"/>
<path transform="matrix(1.00005,0,0,-1.00002,2.1950589,143.15328)" stroke-width=".3985" stroke-linecap="butt" stroke-miterlimit="10" stroke-linejoin="miter" fill="none" stroke="#c7502a" d=""/>
<path transform="matrix(1.00005,0,0,-1.00002,2.1950589,143.15328)" d="M83.93652 106.01555C83.93652 107.11603 83.04445 108.0081 81.94397 108.0081 80.8435 108.0081 79.95142 107.11603 79.95142 106.01555 79.95142 104.91508 80.8435 104.023 81.94397 104.023 83.04445 104.023 83.93652 104.91508 83.93652 106.01555ZM81.94397 106.01555" fill="#70485b"/>
<path transform="matrix(1.00005,0,0,-1.00002,2.1950589,143.15328)" stroke-width=".3985" stroke-linecap="butt" stroke-miterlimit="10" stroke-linejoin="miter" fill="none" stroke="#70485b" d="M83.93652 106.01555C83.93652 107.11603 83.04445 108.0081 81.94397 108.0081 80.8435 108.0081 79.95142 107.11603 79.95142 106.01555 79.95142 104.91508 80.8435 104.023 81.94397 104.023 83.04445 104.023 83.93652 104.91508 83.93652 106.01555ZM81.94397 106.01555"/>
<path transform="matrix(1.00005,0,0,-1.00002,2.1950589,143.15328)" stroke-width=".3985" stroke-linecap="butt" stroke-miterlimit="10" stroke-linejoin="miter" fill="none" stroke="#70485b" d=""/>
<use data-text="t" xlink:href="#font_3_4" transform="matrix(9.963098,0,0,-9.962799,158.9729,139.63321)"/>
<use data-text="y" xlink:href="#font_3_5" transform="matrix(9.963098,0,0,-9.962799,29.128403,9.605606)"/>
</svg>
