<svg xmlns="http://www.w3.org/2000/svg" xmlns:xlink="http://www.w3.org/1999/xlink" version="1.1" width="242" height="210" viewBox="0 0 242 210">
<defs>
<path id="font_1_1" d="M.69898989 .22743225C.71499636 .22743225 .7369995 .22743225 .7369995 .25042726 .7369995 .2734375 .71499636 .2734375 .69898989 .2734375H.12599182C.10998535 .2734375 .08799744 .2734375 .08799744 .25042726 .08799744 .22743225 .10998535 .22743225 .12599182 .22743225H.69898989Z"/>
<path id="font_2_3" d="M.13999939 .5618439C.15299988 .55784609 .19299317 .54785159 .23498535 .54785159 .3600006 .54785159 .43598939 .6358948 .43598939 .6510315 .43598939 .6620331 .42900086 .66503909 .42399598 .66503909 .42199708 .66503909 .41999818 .66503909 .41099549 .6600342 .37199403 .6450348 .32598878 .632843 .27198792 .632843 .21299744 .632843 .1639862 .6480255 .1329956 .6600342 .12298584 .66503909 .12098694 .66503909 .11999512 .66503909 .10699463 .66503909 .10699463 .6540375 .10699463 .6358948V.34292604C.10699463 .32492066 .10699463 .312912 .12298584 .312912 .1309967 .312912 .13398743 .3169098 .13899231 .32492066 .15098572 .33992005 .18899536 .39093019 .27398683 .39093019 .32998658 .39093019 .35699464 .34492494 .3659973 .32591249 .3829956 .28990174 .3849945 .24389649 .3849945 .20487976 .3849945 .1678772 .38398744 .11387634 .35598756 .069732669 .33699037 .039611818 .29699708 .008514404 .24398804 .008514404 .1789856 .008514404 .114990238 .0496521 .09199524 .11488342 .09498596 .11387634 .100997928 .11387634 .101989749 .11387634 .12998963 .11387634 .1519928 .13188172 .1519928 .16288758 .1519928 .19989014 .12298584 .21289063 .102996829 .21289063 .084991458 .21289063 .052993776 .20288086 .052993776 .15988159 .052993776 .069732669 .1309967-.021484375 .24598694-.021484375 .37098695-.021484375 .47698976 .07574463 .47698976 .19989014 .47698976 .31591798 .3929901 .4189453 .2749939 .4189453 .22499085 .4189453 .17799378 .40293885 .13999939 .368927V.5618439Z"/>
<path id="font_2_2" d="M.31399537 .63708499C.31399537 .664032 .31199647 .66503909 .2849884 .66503909 .24398804 .6251831 .19099427 .6013489 .09599304 .6013489V.5683594C.12298584 .5683594 .1769867 .5683594 .23498535 .5953522V.08203125C.23498535 .04499817 .23199463 .032989503 .13699341 .032989503H.101989749V0C.14299011 .0029907227 .22898865 .0029907227 .27398683 .0029907227 .31900025 .0029907227 .4059906 .0029907227 .44699098 0V.032989503H.4119873C.31698609 .032989503 .31399537 .04499817 .31399537 .08203125V.63708499Z"/>
<path id="font_2_1" d="M.4889984 .31877137C.4889984 .42585755 .47799684 .49090577 .44499208 .55496218 .40098573 .6430359 .31999208 .66503909 .2649994 .66503909 .13899231 .66503909 .09298706 .5709839 .07899475 .5429535 .042999269 .4698944 .040985109 .3708191 .040985109 .31877137 .040985109 .25271607 .04399109 .15162659 .09199524 .07156372 .13798523-.0024871827 .21199036-.021484375 .2649994-.021484375 .31298829-.021484375 .39898683-.0064849855 .44898988 .09257507 .48599244 .16464234 .4889984 .2537079 .4889984 .31877137M.2649994 .006515503C.23098755 .006515503 .1619873 .022521973 .14099121 .12760926 .12998963 .18466187 .12998963 .2787323 .12998963 .33078004 .12998963 .3998413 .12998963 .4698944 .14099121 .5249481 .1619873 .6270294 .23999024 .6370239 .2649994 .6370239 .29899598 .6370239 .36799623 .62002566 .3880005 .5289459 .3999939 .4738922 .3999939 .39883424 .3999939 .33078004 .3999939 .27172853 .3999939 .18165589 .3880005 .12561035 .36698915 .020523072 .2979889 .006515503 .2649994 .006515503Z"/>
<clipPath id="clip_3">
<path transform="matrix(1.00003,0,0,-1.00002,1.4615555,208.02556)" d="M0 0H239.10584V206.22623H0Z"/>
</clipPath>
<path id="font_4_1" d="M.33399964 .30233766C.33999635 .32835389 .36299134 .42037965 .43299867 .42037965 .43798829 .42037965 .46199037 .42037965 .48298646 .40734864 .45498658 .402359 .43499757 .37734986 .43499757 .35334779 .43499757 .33735658 .44599916 .31835938 .47299195 .31835938 .49499513 .31835938 .5269928 .3363495 .5269928 .37635804 .5269928 .42837525 .46798707 .4423828 .43399049 .4423828 .37599183 .4423828 .34098817 .38935853 .32899476 .36634828 .3039856 .43237306 .25 .4423828 .22099304 .4423828 .116989139 .4423828 .05999756 .3133545 .05999756 .28834535 .05999756 .27833558 .069992069 .27833558 .07199097 .27833558 .07998657 .27833558 .08299255 .28033448 .084991458 .28933717 .11898804 .39535523 .18499756 .42037965 .21899414 .42037965 .23799134 .42037965 .272995 .4113617 .272995 .35334779 .272995 .32235719 .2559967 .25532533 .21899414 .11528015 .20298767 .053268434 .16799927 .011245728 .12399292 .011245728 .117996219 .011245728 .09498596 .011245728 .07398987 .024276734 .09899902 .029266358 .12098694 .05027771 .12098694 .07827759 .12098694 .105270389 .09899902 .11328125 .083999637 .11328125 .053985597 .11328125 .0289917 .08728027 .0289917 .055267335 .0289917 .009246826 .07899475-.0107421879 .12298584-.0107421879 .18899536-.0107421879 .22499085 .059280397 .22799683 .0652771 .23999024 .028274537 .27598573-.0107421879 .33599855-.0107421879 .43899537-.0107421879 .49598695 .118270877 .49598695 .14328003 .49598695 .1532898 .4869995 .1532898 .48399354 .1532898 .47499085 .1532898 .47299195 .14929199 .47099305 .14228821 .43798829 .03527832 .36999513 .011245728 .33799745 .011245728 .29899598 .011245728 .2829895 .043273927 .2829895 .07727051 .2829895 .09927368 .2889862 .121276859 .2999878 .16529846L.33399964 .30233766Z"/>
<path id="font_4_2" d="M.48599244 .38136292C.48999024 .39537049 .48999024 .39736939 .48999024 .40437318 .48999024 .42237855 .47599793 .43138124 .46099855 .43138124 .45098878 .43138124 .43499757 .42536927 .42599488 .41036988 .42399598 .405365 .41600038 .37435914 .4119873 .35635377 .40499879 .33035279 .397995 .30334474 .3919983 .27633668L.34700013 .09628296C.34298707 .08126831 .2999878 .011245728 .23399353 .011245728 .18299866 .011245728 .17199707 .055267335 .17199707 .0922699 .17199707 .1382904 .18899536 .20030213 .22299195 .28833009 .23899842 .3293457 .24299622 .3403473 .24299622 .36035157 .24299622 .405365 .21099854 .4423828 .16099549 .4423828 .06599426 .4423828 .0289917 .29733277 .0289917 .28833009 .0289917 .27833558 .038986207 .27833558 .040985109 .27833558 .050994874 .27833558 .051986696 .28033448 .056991579 .29634095 .083999637 .3903656 .12399292 .42037965 .1579895 .42037965 .1659851 .42037965 .18299866 .42037965 .18299866 .3883667 .18299866 .36335755 .17298889 .3373413 .1659851 .31834413 .12599182 .21231079 .10798645 .1552887 .10798645 .10827637 .10798645 .019256592 .17098999-.0107421879 .22999573-.0107421879 .2689972-.0107421879 .30299378 .0062561037 .33099366 .03425598 .31799317-.017745972 .30599977-.06674194 .2659912-.11973572 .23999024-.15385437 .20199585-.18309021 .1559906-.18309021 .14199829-.18309021 .09700012-.18005371 .07998657-.14074707 .09599304-.14074707 .10899353-.14074707 .12298584-.1287384 .1329956-.11973572 .14299011-.10673523 .14299011-.08773804 .14299011-.056747438 .115997318-.052734376 .10598755-.052734376 .08299255-.052734376 .049987794-.068740848 .049987794-.11773682 .049987794-.16796875 .09399414-.20507813 .1559906-.20507813 .25898744-.20507813 .3619995-.11373901 .3899994-.00074768069L.48599244 .38136292Z"/>
</defs>
<path transform="matrix(1.00003,0,0,-1.00002,1.4615555,208.02556)" d="M0 0H239.10584V206.22623H0Z" fill="#fffac2"/>
<path transform="matrix(1.00003,0,0,-1.00002,1.4615555,208.02556)" stroke-width=".3985" stroke-linecap="butt" stroke-miterlimit="10" stroke-linejoin="miter" fill="none" stroke="#d5d6d5" d="M0 0V206.22623M11.95529 0V206.22623M23.91058 0V206.22623M35.86588 0V206.22623M47.82117 0V206.22623M59.77646 0V206.22623M71.73175 0V206.22623M83.68704 0V206.22623M95.64233 0V206.22623M107.59763 0V206.22623M119.55292 0V206.22623M131.50821 0V206.22623M143.4635 0V206.22623M155.4188 0V206.22623M167.37409 0V206.22623M179.32938 0V206.22623M191.28467 0V206.22623M203.23996 0V206.22623M215.19525 0V206.22623M227.15055 0V206.22623M239.10584 0V206.22623"/>
<path transform="matrix(1.00003,0,0,-1.00002,1.4615555,208.02556)" stroke-width=".3985" stroke-linecap="butt" stroke-miterlimit="10" stroke-linejoin="miter" fill="none" stroke="#d5d6d5" d="M59.77646 0V206.22623M179.32938 0V206.22623"/>
<path transform="matrix(1.00003,0,0,-1.00002,1.4615555,208.02556)" stroke-width=".3985" stroke-linecap="butt" stroke-miterlimit="10" stroke-linejoin="miter" fill="none" stroke="#d5d6d5" d="M0 0H239.10584M0 8.24904H239.10584M0 16.4981H239.10584M0 24.74715H239.10584M0 32.99619H239.10584M0 41.24524H239.10584M0 49.4943H239.10584M0 57.74333H239.10584M0 65.99239H239.10584M0 74.24144H239.10584M0 82.4905H239.10584M0 90.73953H239.10584M0 98.98859H239.10584M0 107.23764H239.10584M0 115.48668H239.10584M0 123.73573H239.10584M0 131.98479H239.10584M0 140.23384H239.10584M0 148.48288H239.10584M0 156.73194H239.10584M0 164.98099H239.10584M0 173.23003H239.10584M0 181.47908H239.10584M0 189.72814H239.10584M0 197.97719H239.10584M0 206.22623H239.10584"/>
<path transform="matrix(1.00003,0,0,-1.00002,1.4615555,208.02556)" stroke-width=".3985" stroke-linecap="butt" stroke-miterlimit="10" stroke-linejoin="miter" fill="none" stroke="#d5d6d5" d="M0 82.4905H239.10584M0 123.73573H239.10584M0 164.98099H239.10584"/>
<path transform="matrix(1.00003,0,0,-1.00002,1.4615555,208.02556)" stroke-width=".19925" stroke-linecap="butt" stroke-miterlimit="10" stroke-linejoin="miter" fill="none" stroke="#929292" d="M0 39.82788V42.66261M11.95529 39.82788V42.66261M23.91058 39.82788V42.66261M35.86588 39.82788V42.66261M47.82117 39.82788V42.66261M59.77646 39.82788V42.66261M71.73175 39.82788V42.66261M83.68704 39.82788V42.66261M95.64233 39.82788V42.66261M107.59763 39.82788V42.66261M119.55292 39.82788V42.66261M131.50821 39.82788V42.66261M143.4635 39.82788V42.66261M155.4188 39.82788V42.66261M167.37409 39.82788V42.66261M179.32938 39.82788V42.66261M191.28467 39.82788V42.66261M203.23996 39.82788V42.66261M215.19525 39.82788V42.66261M227.15055 39.82788V42.66261M239.10584 39.82788V42.66261"/>
<path transform="matrix(1.00003,0,0,-1.00002,1.4615555,208.02556)" stroke-width=".19925" stroke-linecap="butt" stroke-miterlimit="10" stroke-linejoin="miter" fill="none" stroke="#929292" d="M59.77646 39.1194V43.37106M179.32938 39.1194V43.37106"/>
<path transform="matrix(1.00003,0,0,-1.00002,1.4615555,208.02556)" stroke-width=".19925" stroke-linecap="butt" stroke-miterlimit="10" stroke-linejoin="miter" fill="none" stroke="#929292" d="M118.13557 0H120.97025M118.13557 8.24904H120.97025M118.13557 16.4981H120.97025M118.13557 24.74715H120.97025M118.13557 32.99619H120.97025M118.13557 41.24524H120.97025M118.13557 49.4943H120.97025M118.13557 57.74333H120.97025M118.13557 65.99239H120.97025M118.13557 74.24144H120.97025M118.13557 82.4905H120.97025M118.13557 90.73953H120.97025M118.13557 98.98859H120.97025M118.13557 107.23764H120.97025M118.13557 115.48668H120.97025M118.13557 123.73573H120.97025M118.13557 131.98479H120.97025M118.13557 140.23384H120.97025M118.13557 148.48288H120.97025M118.13557 156.73194H120.97025M118.13557 164.98099H120.97025M118.13557 173.23003H120.97025M118.13557 181.47908H120.97025M118.13557 189.72814H120.97025M118.13557 197.97719H120.97025M118.13557 206.22623H120.97025"/>
<path transform="matrix(1.00003,0,0,-1.00002,1.4615555,208.02556)" stroke-width=".19925" stroke-linecap="butt" stroke-miterlimit="10" stroke-linejoin="miter" fill="none" stroke="#929292" d="M117.42708 82.4905H121.67873M117.42708 123.73573H121.67873M117.42708 164.98099H121.67873"/>
<path transform="matrix(1.00003,0,0,-1.00002,1.4615555,208.02556)" stroke-width=".3985" stroke-linecap="butt" stroke-miterlimit="10" stroke-linejoin="miter" fill="none" stroke="#000000" d="M1.99252 41.24524H237.11331"/>
<path transform="matrix(-1.00003,-0,0,1.00002,3.4541355,166.7795)" d="M1.99252 0-1.19551 1.59401 0 0-1.19551-1.59401"/>
<path transform="matrix(1.00003,0,0,-1.00002,238.582,166.7795)" d="M1.99252 0-1.19551 1.59401 0 0-1.19551-1.59401"/>
<path transform="matrix(1.00003,0,0,-1.00002,1.4615555,208.02556)" stroke-width=".3985" stroke-linecap="butt" stroke-miterlimit="10" stroke-linejoin="miter" fill="none" stroke="#000000" d="M119.55292 1.99252V204.2337"/>
<path transform="matrix(0,1.00002,1.00003,0,121.01807,206.033)" d="M1.99252 0-1.19551 1.59401 0 0-1.19551-1.59401"/>
<path transform="matrix(0,-1.00002,-1.00003,-0,121.01807,3.7877656)" d="M1.99252 0-1.19551 1.59401 0 0-1.19551-1.59401"/>
<use data-text="&#x2212;" xlink:href="#font_1_1" transform="matrix(7.9703395,0,0,-7.9702599,55.82919,177.56195)"/>
<use data-text="5" xlink:href="#font_2_3" transform="matrix(7.9703395,0,0,-7.9702599,62.41639,177.56195)"/>
<use data-text="5" xlink:href="#font_2_3" transform="matrix(7.9703395,0,0,-7.9702599,178.6789,177.56195)"/>
<use data-text="5" xlink:href="#font_2_3" transform="matrix(7.9703395,0,0,-7.9702599,113.02891,128.10196)"/>
<use data-text="1" xlink:href="#font_2_2" transform="matrix(7.9703395,0,0,-7.9702599,108.793788,86.85513)"/>
<use data-text="0" xlink:href="#font_2_1" transform="matrix(7.9703395,0,0,-7.9702599,113.02604,86.85513)"/>
<use data-text="1" xlink:href="#font_2_2" transform="matrix(7.9703395,0,0,-7.9702599,108.793788,45.609315)"/>
<use data-text="5" xlink:href="#font_2_3" transform="matrix(7.9703395,0,0,-7.9702599,113.02604,45.609315)"/>
<g clip-path="url(#clip_3)">
<path transform="matrix(1.00003,0,0,-1.00002,1.4615555,208.02556)" stroke-width=".99628" stroke-linecap="butt" stroke-miterlimit="10" stroke-linejoin="miter" fill="none" stroke="#9e0c0f" d="M31.60011 198.07013 34.67828 179.8668 39.1336 155.80854 43.58891 134.04167 48.04424 114.566 52.49957 97.38152 56.95488 82.48831 61.41019 69.8864 65.86551 59.5756 70.32082 51.5562 74.77614 45.82796 79.23148 42.39093 83.68678 41.24524 88.14209 42.39073 92.59741 45.82747 97.05273 51.55545 101.50806 59.57465 105.96338 69.88513 110.4187 82.48682 114.874 97.37978 119.32932 114.56396 123.78465 134.0394 128.23998 155.80608 132.69528 179.86397 135.77344 198.06714"/>
<path transform="matrix(-.16669502,-.98597976,-.98598966,.16669335,33.18005,10.646072)" d="M7.39124 0 2.37614 1.6717 .70447 0 2.37614-1.6717Z" fill="#9e0c0f"/>
<path transform="matrix(-.16669502,-.98597976,-.98598966,.16669335,33.18005,10.646072)" stroke-width=".99628" stroke-linecap="butt" stroke-miterlimit="10" stroke-linejoin="miter" fill="none" stroke="#9e0c0f" d="M7.39124 0 2.37614 1.6717 .70447 0 2.37614-1.6717Z"/>
<path transform="matrix(.16669502,-.98597976,-.98598966,-.16669335,137.12165,10.649063)" d="M7.39124 0 2.37614 1.6717 .70447 0 2.37614-1.6717Z" fill="#9e0c0f"/>
<path transform="matrix(.16669502,-.98597976,-.98598966,-.16669335,137.12165,10.649063)" stroke-width=".99628" stroke-linecap="butt" stroke-miterlimit="10" stroke-linejoin="miter" fill="none" stroke="#9e0c0f" d="M7.39124 0 2.37614 1.6717 .70447 0 2.37614-1.6717Z"/>
</g>
<path transform="matrix(1.00003,0,0,-1.00002,1.4615555,208.02556)" d="M85.6796 41.24524C85.6796 42.34572 84.7875 43.2378 83.68704 43.2378 82.58656 43.2378 81.69449 42.34572 81.69449 41.24524 81.69449 40.14478 82.58656 39.25269 83.68704 39.25269 84.7875 39.25269 85.6796 40.14478 85.6796 41.24524ZM83.68704 41.24524" fill="#9e0c0f"/>
<path transform="matrix(1.00003,0,0,-1.00002,1.4615555,208.02556)" stroke-width=".3985" stroke-linecap="butt" stroke-miterlimit="10" stroke-linejoin="miter" fill="none" stroke="#9e0c0f" d="M85.6796 41.24524C85.6796 42.34572 84.7875 43.2378 83.68704 43.2378 82.58656 43.2378 81.69449 42.34572 81.69449 41.24524 81.69449 40.14478 82.58656 39.25269 83.68704 39.25269 84.7875 39.25269 85.6796 40.14478 85.6796 41.24524ZM83.68704 41.24524"/>
<path transform="matrix(1.00003,0,0,-1.00002,1.4615555,208.02556)" d="M121.54547 115.48668C121.54547 116.58716 120.65338 117.47923 119.55292 117.47923 118.45244 117.47923 117.56036 116.58716 117.56036 115.48668 117.56036 114.38622 118.45244 113.49413 119.55292 113.49413 120.65338 113.49413 121.54547 114.38622 121.54547 115.48668ZM119.55292 115.48668" fill="#9e0c0f"/>
<path transform="matrix(1.00003,0,0,-1.00002,1.4615555,208.02556)" stroke-width=".3985" stroke-linecap="butt" stroke-miterlimit="10" stroke-linejoin="miter" fill="none" stroke="#9e0c0f" d="M121.54547 115.48668C121.54547 116.58716 120.65338 117.47923 119.55292 117.47923 118.45244 117.47923 117.56036 116.58716 117.56036 115.48668 117.56036 114.38622 118.45244 113.49413 119.55292 113.49413 120.65338 113.49413 121.54547 114.38622 121.54547 115.48668ZM119.55292 115.48668"/>
<path transform="matrix(1.00003,0,0,-1.00002,1.4615555,208.02556)" d="M49.81372 115.48668C49.81372 116.58716 48.92163 117.47923 47.82117 117.47923 46.72069 117.47923 45.82861 116.58716 45.82861 115.48668 45.82861 114.38622 46.72069 113.49413 47.82117 113.49413 48.92163 113.49413 49.81372 114.38622 49.81372 115.48668ZM47.82117 115.48668" fill="#9e0c0f"/>
<path transform="matrix(1.00003,0,0,-1.00002,1.4615555,208.02556)" stroke-width=".3985" stroke-linecap="butt" stroke-miterlimit="10" stroke-linejoin="miter" fill="none" stroke="#9e0c0f" d="M49.81372 115.48668C49.81372 116.58716 48.92163 117.47923 47.82117 117.47923 46.72069 117.47923 45.82861 116.58716 45.82861 115.48668 45.82861 114.38622 46.72069 113.49413 47.82117 113.49413 48.92163 113.49413 49.81372 114.38622 49.81372 115.48668ZM47.82117 115.48668"/>
<path transform="matrix(1.00003,0,0,-1.00002,1.4615555,208.02556)" stroke-width=".3985" stroke-linecap="butt" stroke-miterlimit="10" stroke-linejoin="miter" fill="none" stroke="#9e0c0f" d=""/>
<use data-text="x" xlink:href="#font_4_1" transform="matrix(9.962899,0,0,-9.962799,231.36048,163.25966)"/>
<use data-text="y" xlink:href="#font_4_2" transform="matrix(9.962899,0,0,-9.962799,124.53825,9.604584)"/>
</svg>
