<svg xmlns="http://www.w3.org/2000/svg" xmlns:xlink="http://www.w3.org/1999/xlink" version="1.1" width="242" height="210" viewBox="0 0 242 210">
<defs>
<path id="font_1_1" d="M.69898989 .22743225C.71499636 .22743225 .7369995 .22743225 .7369995 .25042726 .7369995 .2734375 .71499636 .2734375 .69898989 .2734375H.12599182C.10998535 .2734375 .08799744 .2734375 .08799744 .25042726 .08799744 .22743225 .10998535 .22743225 .12599182 .22743225H.69898989Z"/>
<path id="font_2_5" d="M.13999939 .5618439C.15299988 .55784609 .19299317 .54785159 .23498535 .54785159 .3600006 .54785159 .43598939 .6358948 .43598939 .6510315 .43598939 .6620331 .42900086 .66503909 .42399598 .66503909 .42199708 .66503909 .41999818 .66503909 .41099549 .6600342 .37199403 .6450348 .32598878 .632843 .27198792 .632843 .21299744 .632843 .1639862 .6480255 .1329956 .6600342 .12298584 .66503909 .12098694 .66503909 .11999512 .66503909 .10699463 .66503909 .10699463 .6540375 .10699463 .6358948V.34292604C.10699463 .32492066 .10699463 .312912 .12298584 .312912 .1309967 .312912 .13398743 .3169098 .13899231 .32492066 .15098572 .33992005 .18899536 .39093019 .27398683 .39093019 .32998658 .39093019 .35699464 .34492494 .3659973 .32591249 .3829956 .28990174 .3849945 .24389649 .3849945 .20487976 .3849945 .1678772 .38398744 .11387634 .35598756 .069732669 .33699037 .039611818 .29699708 .008514404 .24398804 .008514404 .1789856 .008514404 .114990238 .0496521 .09199524 .11488342 .09498596 .11387634 .100997928 .11387634 .101989749 .11387634 .12998963 .11387634 .1519928 .13188172 .1519928 .16288758 .1519928 .19989014 .12298584 .21289063 .102996829 .21289063 .084991458 .21289063 .052993776 .20288086 .052993776 .15988159 .052993776 .069732669 .1309967-.021484375 .24598694-.021484375 .37098695-.021484375 .47698976 .07574463 .47698976 .19989014 .47698976 .31591798 .3929901 .4189453 .2749939 .4189453 .22499085 .4189453 .17799378 .40293885 .13999939 .368927V.5618439Z"/>
<path id="font_2_2" d="M.31399537 .63708499C.31399537 .664032 .31199647 .66503909 .2849884 .66503909 .24398804 .6251831 .19099427 .6013489 .09599304 .6013489V.5683594C.12298584 .5683594 .1769867 .5683594 .23498535 .5953522V.08203125C.23498535 .04499817 .23199463 .032989503 .13699341 .032989503H.101989749V0C.14299011 .0029907227 .22898865 .0029907227 .27398683 .0029907227 .31900025 .0029907227 .4059906 .0029907227 .44699098 0V.032989503H.4119873C.31698609 .032989503 .31399537 .04499817 .31399537 .08203125V.63708499Z"/>
<path id="font_2_1" d="M.4889984 .31877137C.4889984 .42585755 .47799684 .49090577 .44499208 .55496218 .40098573 .6430359 .31999208 .66503909 .2649994 .66503909 .13899231 .66503909 .09298706 .5709839 .07899475 .5429535 .042999269 .4698944 .040985109 .3708191 .040985109 .31877137 .040985109 .25271607 .04399109 .15162659 .09199524 .07156372 .13798523-.0024871827 .21199036-.021484375 .2649994-.021484375 .31298829-.021484375 .39898683-.0064849855 .44898988 .09257507 .48599244 .16464234 .4889984 .2537079 .4889984 .31877137M.2649994 .006515503C.23098755 .006515503 .1619873 .022521973 .14099121 .12760926 .12998963 .18466187 .12998963 .2787323 .12998963 .33078004 .12998963 .3998413 .12998963 .4698944 .14099121 .5249481 .1619873 .6270294 .23999024 .6370239 .2649994 .6370239 .29899598 .6370239 .36799623 .62002566 .3880005 .5289459 .3999939 .4738922 .3999939 .39883424 .3999939 .33078004 .3999939 .27172853 .3999939 .18165589 .3880005 .12561035 .36698915 .020523072 .2979889 .006515503 .2649994 .006515503Z"/>
<path id="font_2_3" d="M.28199769 .20405579C.2979889 .21907044 .33999635 .2520752 .35598756 .26608277 .41799928 .32312013 .47698976 .3781433 .47698976 .46917726 .47698976 .588089 .3769989 .66503909 .2519989 .66503909 .13198853 .66503909 .052993776 .57411196 .052993776 .48516847 .052993776 .4361725 .09199524 .4291687 .10598755 .4291687 .1269989 .4291687 .1579895 .4441681 .1579895 .48217774 .1579895 .5341797 .10798645 .5341797 .09599304 .5341797 .125 .6070709 .19198609 .6320343 .24099732 .6320343 .33399964 .6320343 .38198854 .55314639 .38198854 .46917726 .38198854 .36514283 .30899049 .28910829 .19099427 .16804505L.06498718 .037994386C.052993776 .026992798 .052993776 .024993897 .052993776 0H.44799806L.47698976 .17904663H.44599916C.44299317 .1590271 .43499757 .10900879 .4229889 .08999634 .4169922 .08198547 .34098817 .08198547 .32499696 .08198547H.14698792L.28199769 .20405579Z"/>
<path id="font_2_4" d="M.25299073 .33370973C.33198548 .33370973 .38198854 .27557374 .38198854 .17037964 .38198854 .045440675 .31098939 .008514404 .2579956 .008514404 .20298767 .008514404 .12799073 .0284729 .09298706 .08137512 .1289978 .08137512 .1539917 .10437012 .1539917 .13737488 .1539917 .16937256 .1309967 .19238281 .09899902 .19238281 .07199097 .19238281 .04399109 .17536927 .04399109 .13537598 .04399109 .04045105 .1459961-.021484375 .2599945-.021484375 .3929901-.021484375 .48599244 .070388797 .48599244 .17037964 .48599244 .25352479 .41999818 .32969667 .31799317 .3517456 .39698792 .37982179 .45599366 .4479828 .45599366 .52804568 .45599366 .6080475 .3659973 .66503909 .2619934 .66503909 .15499878 .66503909 .07398987 .6070404 .07398987 .53105166 .07398987 .49404908 .09899902 .4780426 .125 .4780426 .1559906 .4780426 .17599488 .5000458 .17599488 .52905276 .17599488 .56604006 .14399719 .5800476 .12199402 .5810547 .1639862 .6360321 .24099732 .6390381 .25898744 .6390381 .2849884 .6390381 .36099244 .6310272 .36099244 .52804568 .36099244 .45799256 .33198548 .41589356 .31799317 .39985658 .28799439 .36878968 .2649994 .36679078 .20399475 .3627777 .18499756 .36177064 .1769867 .36076356 .1769867 .3477478 .1769867 .33370973 .18598938 .33370973 .20298767 .33370973H.25299073Z"/>
<clipPath id="clip_3">
<path transform="matrix(1.00003,0,0,-1,1.4615555,208.01902)" d="M0 0H239.10507V206.22243H0Z"/>
</clipPath>
<path id="font_4_1" d="M.33399964 .30233766C.33999635 .32835389 .36299134 .42037965 .43299867 .42037965 .43798829 .42037965 .46199037 .42037965 .48298646 .40734864 .45498658 .402359 .43499757 .37734986 .43499757 .35334779 .43499757 .33735658 .44599916 .31835938 .47299195 .31835938 .49499513 .31835938 .5269928 .3363495 .5269928 .37635804 .5269928 .42837525 .46798707 .4423828 .43399049 .4423828 .37599183 .4423828 .34098817 .38935853 .32899476 .36634828 .3039856 .43237306 .25 .4423828 .22099304 .4423828 .116989139 .4423828 .05999756 .3133545 .05999756 .28834535 .05999756 .27833558 .069992069 .27833558 .07199097 .27833558 .07998657 .27833558 .08299255 .28033448 .084991458 .28933717 .11898804 .39535523 .18499756 .42037965 .21899414 .42037965 .23799134 .42037965 .272995 .4113617 .272995 .35334779 .272995 .32235719 .2559967 .25532533 .21899414 .11528015 .20298767 .053268434 .16799927 .011245728 .12399292 .011245728 .117996219 .011245728 .09498596 .011245728 .07398987 .024276734 .09899902 .029266358 .12098694 .05027771 .12098694 .07827759 .12098694 .105270389 .09899902 .11328125 .083999637 .11328125 .053985597 .11328125 .0289917 .08728027 .0289917 .055267335 .0289917 .009246826 .07899475-.0107421879 .12298584-.0107421879 .18899536-.0107421879 .22499085 .059280397 .22799683 .0652771 .23999024 .028274537 .27598573-.0107421879 .33599855-.0107421879 .43899537-.0107421879 .49598695 .118270877 .49598695 .14328003 .49598695 .1532898 .4869995 .1532898 .48399354 .1532898 .47499085 .1532898 .47299195 .14929199 .47099305 .14228821 .43798829 .03527832 .36999513 .011245728 .33799745 .011245728 .29899598 .011245728 .2829895 .043273927 .2829895 .07727051 .2829895 .09927368 .2889862 .121276859 .2999878 .16529846L.33399964 .30233766Z"/>
<path id="font_4_2" d="M.48599244 .38136292C.48999024 .39537049 .48999024 .39736939 .48999024 .40437318 .48999024 .42237855 .47599793 .43138124 .46099855 .43138124 .45098878 .43138124 .43499757 .42536927 .42599488 .41036988 .42399598 .405365 .41600038 .37435914 .4119873 .35635377 .40499879 .33035279 .397995 .30334474 .3919983 .27633668L.34700013 .09628296C.34298707 .08126831 .2999878 .011245728 .23399353 .011245728 .18299866 .011245728 .17199707 .055267335 .17199707 .0922699 .17199707 .1382904 .18899536 .20030213 .22299195 .28833009 .23899842 .3293457 .24299622 .3403473 .24299622 .36035157 .24299622 .405365 .21099854 .4423828 .16099549 .4423828 .06599426 .4423828 .0289917 .29733277 .0289917 .28833009 .0289917 .27833558 .038986207 .27833558 .040985109 .27833558 .050994874 .27833558 .051986696 .28033448 .056991579 .29634095 .083999637 .3903656 .12399292 .42037965 .1579895 .42037965 .1659851 .42037965 .18299866 .42037965 .18299866 .3883667 .18299866 .36335755 .17298889 .3373413 .1659851 .31834413 .12599182 .21231079 .10798645 .1552887 .10798645 .10827637 .10798645 .019256592 .17098999-.0107421879 .22999573-.0107421879 .2689972-.0107421879 .30299378 .0062561037 .33099366 .03425598 .31799317-.017745972 .30599977-.06674194 .2659912-.11973572 .23999024-.15385437 .20199585-.18309021 .1559906-.18309021 .14199829-.18309021 .09700012-.18005371 .07998657-.14074707 .09599304-.14074707 .10899353-.14074707 .12298584-.1287384 .1329956-.11973572 .14299011-.10673523 .14299011-.08773804 .14299011-.056747438 .115997318-.052734376 .10598755-.052734376 .08299255-.052734376 .049987794-.068740848 .049987794-.11773682 .049987794-.16796875 .09399414-.20507813 .1559906-.20507813 .25898744-.20507813 .3619995-.11373901 .3899994-.00074768069L.48599244 .38136292Z"/>
</defs>
<path transform="matrix(1.00003,0,0,-1,1.4615555,208.01902)" d="M0 0H239.10507V206.22243H0Z" fill="#fffac2"/>
<path transform="matrix(1.00003,0,0,-1,1.4615555,208.01902)" stroke-width=".3985" stroke-linecap="butt" stroke-miterlimit="10" stroke-linejoin="miter" fill="none" stroke="#d5d6d5" d="M0 0V206.22243M15.94034 0V206.22243M31.88068 0V206.22243M47.82101 0V206.22243M63.76135 0V206.22243M79.70169 0V206.22243M95.64203 0V206.22243M111.58237 0V206.22243M127.5227 0V206.22243M143.46305 0V206.22243M159.40338 0V206.22243M175.34372 0V206.22243M191.28406 0V206.22243M207.2244 0V206.22243M223.16474 0V206.22243M239.10507 0V206.22243"/>
<path transform="matrix(1.00003,0,0,-1,1.4615555,208.01902)" stroke-width=".3985" stroke-linecap="butt" stroke-miterlimit="10" stroke-linejoin="miter" fill="none" stroke="#d5d6d5" d="M79.70169 0V206.22243"/>
<path transform="matrix(1.00003,0,0,-1,1.4615555,208.01902)" stroke-width=".3985" stroke-linecap="butt" stroke-miterlimit="10" stroke-linejoin="miter" fill="none" stroke="#d5d6d5" d="M0 0H239.10507M0 4.12444H239.10507M0 8.24889H239.10507M0 12.37334H239.10507M0 16.49779H239.10507M0 20.62224H239.10507M0 24.74669H239.10507M0 28.87114H239.10507M0 32.99557H239.10507M0 37.12003H239.10507M0 41.24448H239.10507M0 45.36893H239.10507M0 49.49338H239.10507M0 53.61783H239.10507M0 57.74228H239.10507M0 61.86673H239.10507M0 65.99117H239.10507M0 70.11562H239.10507M0 74.24007H239.10507M0 78.36452H239.10507M0 82.48897H239.10507M0 86.61342H239.10507M0 90.73787H239.10507M0 94.86232H239.10507M0 98.98676H239.10507M0 103.1112H239.10507M0 107.23566H239.10507M0 111.3601H239.10507M0 115.48456H239.10507M0 119.60901H239.10507M0 123.73346H239.10507M0 127.85791H239.10507M0 131.98235H239.10507M0 136.1068H239.10507M0 140.23125H239.10507M0 144.3557H239.10507M0 148.48015H239.10507M0 152.6046H239.10507M0 156.72905H239.10507M0 160.8535H239.10507M0 164.97794H239.10507M0 169.10239H239.10507M0 173.22684H239.10507M0 177.35129H239.10507M0 181.47574H239.10507M0 185.60019H239.10507M0 189.72464H239.10507M0 193.84909H239.10507M0 197.97353H239.10507M0 202.09798H239.10507M0 206.22243H239.10507"/>
<path transform="matrix(1.00003,0,0,-1,1.4615555,208.01902)" stroke-width=".3985" stroke-linecap="butt" stroke-miterlimit="10" stroke-linejoin="miter" fill="none" stroke="#d5d6d5" d="M0 20.62224H239.10507M0 61.86673H239.10507M0 82.48897H239.10507M0 103.1112H239.10507M0 123.73346H239.10507M0 144.3557H239.10507M0 164.97794H239.10507M0 185.60019H239.10507"/>
<path transform="matrix(1.00003,0,0,-1,1.4615555,208.01902)" stroke-width=".19925" stroke-linecap="butt" stroke-miterlimit="10" stroke-linejoin="miter" fill="none" stroke="#929292" d="M0 39.82707V42.66187M15.94034 39.82707V42.66187M31.88068 39.82707V42.66187M47.82101 39.82707V42.66187M63.76135 39.82707V42.66187M79.70169 39.82707V42.66187M95.64203 39.82707V42.66187M111.58237 39.82707V42.66187M127.5227 39.82707V42.66187M143.46305 39.82707V42.66187M159.40338 39.82707V42.66187M175.34372 39.82707V42.66187M191.28406 39.82707V42.66187M207.2244 39.82707V42.66187M223.16474 39.82707V42.66187M239.10507 39.82707V42.66187"/>
<path transform="matrix(1.00003,0,0,-1,1.4615555,208.01902)" stroke-width=".19925" stroke-linecap="butt" stroke-miterlimit="10" stroke-linejoin="miter" fill="none" stroke="#929292" d="M79.70169 39.11859V43.37036"/>
<path transform="matrix(1.00003,0,0,-1,1.4615555,208.01902)" stroke-width=".19925" stroke-linecap="butt" stroke-miterlimit="10" stroke-linejoin="miter" fill="none" stroke="#929292" d="M157.98598 0H160.8208M157.98598 4.12444H160.8208M157.98598 8.24889H160.8208M157.98598 12.37334H160.8208M157.98598 16.49779H160.8208M157.98598 20.62224H160.8208M157.98598 24.74669H160.8208M157.98598 28.87114H160.8208M157.98598 32.99557H160.8208M157.98598 37.12003H160.8208M157.98598 41.24448H160.8208M157.98598 45.36893H160.8208M157.98598 49.49338H160.8208M157.98598 53.61783H160.8208M157.98598 57.74228H160.8208M157.98598 61.86673H160.8208M157.98598 65.99117H160.8208M157.98598 70.11562H160.8208M157.98598 74.24007H160.8208M157.98598 78.36452H160.8208M157.98598 82.48897H160.8208M157.98598 86.61342H160.8208M157.98598 90.73787H160.8208M157.98598 94.86232H160.8208M157.98598 98.98676H160.8208M157.98598 103.1112H160.8208M157.98598 107.23566H160.8208M157.98598 111.3601H160.8208M157.98598 115.48456H160.8208M157.98598 119.60901H160.8208M157.98598 123.73346H160.8208M157.98598 127.85791H160.8208M157.98598 131.98235H160.8208M157.98598 136.1068H160.8208M157.98598 140.23125H160.8208M157.98598 144.3557H160.8208M157.98598 148.48015H160.8208M157.98598 152.6046H160.8208M157.98598 156.72905H160.8208M157.98598 160.8535H160.8208M157.98598 164.97794H160.8208M157.98598 169.10239H160.8208M157.98598 173.22684H160.8208M157.98598 177.35129H160.8208M157.98598 181.47574H160.8208M157.98598 185.60019H160.8208M157.98598 189.72464H160.8208M157.98598 193.84909H160.8208M157.98598 197.97353H160.8208M157.98598 202.09798H160.8208M157.98598 206.22243H160.8208"/>
<path transform="matrix(1.00003,0,0,-1,1.4615555,208.01902)" stroke-width=".19925" stroke-linecap="butt" stroke-miterlimit="10" stroke-linejoin="miter" fill="none" stroke="#929292" d="M157.27747 20.62224H161.52927M157.27747 61.86673H161.52927M157.27747 82.48897H161.52927M157.27747 103.1112H161.52927M157.27747 123.73346H161.52927M157.27747 144.3557H161.52927M157.27747 164.97794H161.52927M157.27747 185.60019H161.52927"/>
<path transform="matrix(1.00003,0,0,-1,1.4615555,208.01902)" stroke-width=".3985" stroke-linecap="butt" stroke-miterlimit="10" stroke-linejoin="miter" fill="none" stroke="#000000" d="M1.99252 41.24448H237.11255"/>
<path transform="matrix(-1.00003,-0,0,1,3.4541355,166.77454)" d="M1.99252 0-1.19551 1.59401 0 0-1.19551-1.59401"/>
<path transform="matrix(1.00003,0,0,-1,238.58124,166.77454)" d="M1.99252 0-1.19551 1.59401 0 0-1.19551-1.59401"/>
<path transform="matrix(1.00003,0,0,-1,1.4615555,208.01902)" stroke-width=".3985" stroke-linecap="butt" stroke-miterlimit="10" stroke-linejoin="miter" fill="none" stroke="#000000" d="M159.40338 1.99252V204.2299"/>
<path transform="matrix(0,1,1.00003,0,160.86972,206.02649)" d="M1.99252 0-1.19551 1.59401 0 0-1.19551-1.59401"/>
<path transform="matrix(0,-1,-1.00003,-0,160.86972,3.7891083)" d="M1.99252 0-1.19551 1.59401 0 0-1.19551-1.59401"/>
<use data-text="&#x2212;" xlink:href="#font_1_1" transform="matrix(7.9703395,0,0,-7.9701,75.75479,177.557)"/>
<use data-text="5" xlink:href="#font_2_5" transform="matrix(7.9703395,0,0,-7.9701,82.34199,177.557)"/>
<use data-text="&#x2212;" xlink:href="#font_1_1" transform="matrix(7.9703395,0,0,-7.9701,146.29392,189.55002)"/>
<use data-text="5" xlink:href="#font_2_5" transform="matrix(7.9703395,0,0,-7.9701,152.8811,189.55002)"/>
<use data-text="5" xlink:href="#font_2_5" transform="matrix(7.9703395,0,0,-7.9701,152.8801,148.72002)"/>
<use data-text="1" xlink:href="#font_2_2" transform="matrix(7.9703395,0,0,-7.9701,148.64597,128.09803)"/>
<use data-text="0" xlink:href="#font_2_1" transform="matrix(7.9703395,0,0,-7.9701,152.87822,128.09803)"/>
<use data-text="1" xlink:href="#font_2_2" transform="matrix(7.9703395,0,0,-7.9701,148.64597,107.47601)"/>
<use data-text="5" xlink:href="#font_2_5" transform="matrix(7.9703395,0,0,-7.9701,152.87822,107.47601)"/>
<use data-text="2" xlink:href="#font_2_3" transform="matrix(7.9703395,0,0,-7.9701,148.64597,86.854007)"/>
<use data-text="0" xlink:href="#font_2_1" transform="matrix(7.9703395,0,0,-7.9701,152.87822,86.854007)"/>
<use data-text="2" xlink:href="#font_2_3" transform="matrix(7.9703395,0,0,-7.9701,148.64597,66.23102)"/>
<use data-text="5" xlink:href="#font_2_5" transform="matrix(7.9703395,0,0,-7.9701,152.87822,66.23102)"/>
<use data-text="3" xlink:href="#font_2_4" transform="matrix(7.9703395,0,0,-7.9701,148.64597,45.60901)"/>
<use data-text="0" xlink:href="#font_2_1" transform="matrix(7.9703395,0,0,-7.9701,152.87822,45.60901)"/>
<use data-text="3" xlink:href="#font_2_4" transform="matrix(7.9703395,0,0,-7.9701,148.64597,24.987015)"/>
<use data-text="5" xlink:href="#font_2_5" transform="matrix(7.9703395,0,0,-7.9701,152.87822,24.987015)"/>
<g clip-path="url(#clip_3)">
<path transform="matrix(1.00003,0,0,-1,1.4615555,208.01902)" stroke-width=".99628" stroke-linecap="butt" stroke-miterlimit="10" stroke-linejoin="miter" fill="none" stroke="#9e0c0f" d="M46.33789 198.13501 49.75243 179.41168 54.64876 154.8954 59.54509 132.71414 64.4414 112.86758 69.33775 95.35583 74.23409 80.17915 79.13042 67.33734 84.02672 56.83046 88.92307 48.65825 93.8194 42.82101 98.71571 39.3187 103.61208 38.15105 108.50839 39.31856 113.40471 42.82074 118.30103 48.65788 123.19737 56.82986 128.0937 67.33675 132.99002 80.17847 137.88637 95.35513 142.78269 112.8666 147.67902 132.71297 152.57537 154.8942 157.47168 179.41033 160.88622 198.13353"/>
<path transform="matrix(-.1793554,-.98375,-.98377957,.17935,47.9272,10.577026)" d="M7.39124 0 2.37614 1.6717 .70447 0 2.37614-1.6717Z" fill="#9e0c0f"/>
<path transform="matrix(-.1793554,-.98375,-.98377957,.17935,47.9272,10.577026)" stroke-width=".99628" stroke-linecap="butt" stroke-miterlimit="10" stroke-linejoin="miter" fill="none" stroke="#9e0c0f" d="M7.39124 0 2.37614 1.6717 .70447 0 2.37614-1.6717Z"/>
<path transform="matrix(.1793554,-.98375,-.98377957,-.17935,162.22623,10.578506)" d="M7.39124 0 2.37614 1.6717 .70447 0 2.37614-1.6717Z" fill="#9e0c0f"/>
<path transform="matrix(.1793554,-.98375,-.98377957,-.17935,162.22623,10.578506)" stroke-width=".99628" stroke-linecap="butt" stroke-miterlimit="10" stroke-linejoin="miter" fill="none" stroke="#9e0c0f" d="M7.39124 0 2.37614 1.6717 .70447 0 2.37614-1.6717Z"/>
</g>
<path transform="matrix(1.00003,0,0,-1,1.4615555,208.01902)" d="M97.63458 41.24448C97.63458 42.34496 96.7425 43.23703 95.64203 43.23703 94.54155 43.23703 93.64948 42.34496 93.64948 41.24448 93.64948 40.14401 94.54155 39.25192 95.64203 39.25192 96.7425 39.25192 97.63458 40.14401 97.63458 41.24448ZM95.64203 41.24448" fill="#9e0c0f"/>
<path transform="matrix(1.00003,0,0,-1,1.4615555,208.01902)" stroke-width=".3985" stroke-linecap="butt" stroke-miterlimit="10" stroke-linejoin="miter" fill="none" stroke="#9e0c0f" d="M97.63458 41.24448C97.63458 42.34496 96.7425 43.23703 95.64203 43.23703 94.54155 43.23703 93.64948 42.34496 93.64948 41.24448 93.64948 40.14401 94.54155 39.25192 95.64203 39.25192 96.7425 39.25192 97.63458 40.14401 97.63458 41.24448ZM95.64203 41.24448"/>
<path transform="matrix(1.00003,0,0,-1,1.4615555,208.01902)" d="M113.57492 41.24448C113.57492 42.34496 112.68283 43.23703 111.58237 43.23703 110.48189 43.23703 109.58981 42.34496 109.58981 41.24448 109.58981 40.14401 110.48189 39.25192 111.58237 39.25192 112.68283 39.25192 113.57492 40.14401 113.57492 41.24448ZM111.58237 41.24448" fill="#9e0c0f"/>
<path transform="matrix(1.00003,0,0,-1,1.4615555,208.01902)" stroke-width=".3985" stroke-linecap="butt" stroke-miterlimit="10" stroke-linejoin="miter" fill="none" stroke="#9e0c0f" d="M113.57492 41.24448C113.57492 42.34496 112.68283 43.23703 111.58237 43.23703 110.48189 43.23703 109.58981 42.34496 109.58981 41.24448 109.58981 40.14401 110.48189 39.25192 111.58237 39.25192 112.68283 39.25192 113.57492 40.14401 113.57492 41.24448ZM111.58237 41.24448"/>
<path transform="matrix(1.00003,0,0,-1,1.4615555,208.01902)" d="M161.39594 189.72464C161.39594 190.8251 160.50385 191.7172 159.40338 191.7172 158.3029 191.7172 157.41083 190.8251 157.41083 189.72464 157.41083 188.62416 158.3029 187.73209 159.40338 187.73209 160.50385 187.73209 161.39594 188.62416 161.39594 189.72464ZM159.40338 189.72464" fill="#9e0c0f"/>
<path transform="matrix(1.00003,0,0,-1,1.4615555,208.01902)" stroke-width=".3985" stroke-linecap="butt" stroke-miterlimit="10" stroke-linejoin="miter" fill="none" stroke="#9e0c0f" d="M161.39594 189.72464C161.39594 190.8251 160.50385 191.7172 159.40338 191.7172 158.3029 191.7172 157.41083 190.8251 157.41083 189.72464 157.41083 188.62416 158.3029 187.73209 159.40338 187.73209 160.50385 187.73209 161.39594 188.62416 161.39594 189.72464ZM159.40338 189.72464"/>
<path transform="matrix(1.00003,0,0,-1,1.4615555,208.01902)" d="M105.60475 38.15114C105.60475 39.2516 104.71266 40.14369 103.6122 40.14369 102.51172 40.14369 101.61964 39.2516 101.61964 38.15114 101.61964 37.05066 102.51172 36.15858 103.6122 36.15858 104.71266 36.15858 105.60475 37.05066 105.60475 38.15114ZM103.6122 38.15114" fill="#9e0c0f"/>
<path transform="matrix(1.00003,0,0,-1,1.4615555,208.01902)" stroke-width=".3985" stroke-linecap="butt" stroke-miterlimit="10" stroke-linejoin="miter" fill="none" stroke="#9e0c0f" d="M105.60475 38.15114C105.60475 39.2516 104.71266 40.14369 103.6122 40.14369 102.51172 40.14369 101.61964 39.2516 101.61964 38.15114 101.61964 37.05066 102.51172 36.15858 103.6122 36.15858 104.71266 36.15858 105.60475 37.05066 105.60475 38.15114ZM103.6122 38.15114"/>
<path transform="matrix(1.00003,0,0,-1,1.4615555,208.01902)" d="M49.81357 189.72464C49.81357 190.8251 48.92148 191.7172 47.82101 191.7172 46.72054 191.7172 45.82846 190.8251 45.82846 189.72464 45.82846 188.62416 46.72054 187.73209 47.82101 187.73209 48.92148 187.73209 49.81357 188.62416 49.81357 189.72464ZM47.82101 189.72464" fill="#9e0c0f"/>
<path transform="matrix(1.00003,0,0,-1,1.4615555,208.01902)" stroke-width=".3985" stroke-linecap="butt" stroke-miterlimit="10" stroke-linejoin="miter" fill="none" stroke="#9e0c0f" d="M49.81357 189.72464C49.81357 190.8251 48.92148 191.7172 47.82101 191.7172 46.72054 191.7172 45.82846 190.8251 45.82846 189.72464 45.82846 188.62416 46.72054 187.73209 47.82101 187.73209 48.92148 187.73209 49.81357 188.62416 49.81357 189.72464ZM47.82101 189.72464"/>
<path transform="matrix(1.00003,0,0,-1,1.4615555,208.01902)" stroke-width=".3985" stroke-linecap="butt" stroke-miterlimit="10" stroke-linejoin="miter" fill="none" stroke="#9e0c0f" d=""/>
<use data-text="x" xlink:href="#font_4_1" transform="matrix(9.962899,0,0,-9.9626,231.35947,163.255)"/>
<use data-text="y" xlink:href="#font_4_2" transform="matrix(9.962899,0,0,-9.9626,164.38947,9.606018)"/>
</svg>
