<svg xmlns="http://www.w3.org/2000/svg" xmlns:xlink="http://www.w3.org/1999/xlink" version="1.1" width="242" height="210" viewBox="0 0 242 210">
<defs>
<path id="font_1_1" d="M.69898989 .22743225C.71499636 .22743225 .7369995 .22743225 .7369995 .25042726 .7369995 .2734375 .71499636 .2734375 .69898989 .2734375H.12599182C.10998535 .2734375 .08799744 .2734375 .08799744 .25042726 .08799744 .22743225 .10998535 .22743225 .12599182 .22743225H.69898989Z"/>
<path id="font_2_3" d="M.13999939 .5618439C.15299988 .55784609 .19299317 .54785159 .23498535 .54785159 .3600006 .54785159 .43598939 .6358948 .43598939 .6510315 .43598939 .6620331 .42900086 .66503909 .42399598 .66503909 .42199708 .66503909 .41999818 .66503909 .41099549 .6600342 .37199403 .6450348 .32598878 .632843 .27198792 .632843 .21299744 .632843 .1639862 .6480255 .1329956 .6600342 .12298584 .66503909 .12098694 .66503909 .11999512 .66503909 .10699463 .66503909 .10699463 .6540375 .10699463 .6358948V.34292604C.10699463 .32492066 .10699463 .312912 .12298584 .312912 .1309967 .312912 .13398743 .3169098 .13899231 .32492066 .15098572 .33992005 .18899536 .39093019 .27398683 .39093019 .32998658 .39093019 .35699464 .34492494 .3659973 .32591249 .3829956 .28990174 .3849945 .24389649 .3849945 .20487976 .3849945 .1678772 .38398744 .11387634 .35598756 .069732669 .33699037 .039611818 .29699708 .008514404 .24398804 .008514404 .1789856 .008514404 .114990238 .0496521 .09199524 .11488342 .09498596 .11387634 .100997928 .11387634 .101989749 .11387634 .12998963 .11387634 .1519928 .13188172 .1519928 .16288758 .1519928 .19989014 .12298584 .21289063 .102996829 .21289063 .084991458 .21289063 .052993776 .20288086 .052993776 .15988159 .052993776 .069732669 .1309967-.021484375 .24598694-.021484375 .37098695-.021484375 .47698976 .07574463 .47698976 .19989014 .47698976 .31591798 .3929901 .4189453 .2749939 .4189453 .22499085 .4189453 .17799378 .40293885 .13999939 .368927V.5618439Z"/>
<path id="font_2_2" d="M.31399537 .63708499C.31399537 .664032 .31199647 .66503909 .2849884 .66503909 .24398804 .6251831 .19099427 .6013489 .09599304 .6013489V.5683594C.12298584 .5683594 .1769867 .5683594 .23498535 .5953522V.08203125C.23498535 .04499817 .23199463 .032989503 .13699341 .032989503H.101989749V0C.14299011 .0029907227 .22898865 .0029907227 .27398683 .0029907227 .31900025 .0029907227 .4059906 .0029907227 .44699098 0V.032989503H.4119873C.31698609 .032989503 .31399537 .04499817 .31399537 .08203125V.63708499Z"/>
<path id="font_2_1" d="M.4889984 .31877137C.4889984 .42585755 .47799684 .49090577 .44499208 .55496218 .40098573 .6430359 .31999208 .66503909 .2649994 .66503909 .13899231 .66503909 .09298706 .5709839 .07899475 .5429535 .042999269 .4698944 .040985109 .3708191 .040985109 .31877137 .040985109 .25271607 .04399109 .15162659 .09199524 .07156372 .13798523-.0024871827 .21199036-.021484375 .2649994-.021484375 .31298829-.021484375 .39898683-.0064849855 .44898988 .09257507 .48599244 .16464234 .4889984 .2537079 .4889984 .31877137M.2649994 .006515503C.23098755 .006515503 .1619873 .022521973 .14099121 .12760926 .12998963 .18466187 .12998963 .2787323 .12998963 .33078004 .12998963 .3998413 .12998963 .4698944 .14099121 .5249481 .1619873 .6270294 .23999024 .6370239 .2649994 .6370239 .29899598 .6370239 .36799623 .62002566 .3880005 .5289459 .3999939 .4738922 .3999939 .39883424 .3999939 .33078004 .3999939 .27172853 .3999939 .18165589 .3880005 .12561035 .36698915 .020523072 .2979889 .006515503 .2649994 .006515503Z"/>
<clipPath id="clip_3">
<path transform="matrix(1.00003,0,0,-1.00003,1.4615555,208.02985)" d="M0 0H239.10584V206.22699H0Z"/>
</clipPath>
<path id="font_4_1" d="M.33399964 .30233766C.33999635 .32835389 .36299134 .42037965 .43299867 .42037965 .43798829 .42037965 .46199037 .42037965 .48298646 .40734864 .45498658 .402359 .43499757 .37734986 .43499757 .35334779 .43499757 .33735658 .44599916 .31835938 .47299195 .31835938 .49499513 .31835938 .5269928 .3363495 .5269928 .37635804 .5269928 .42837525 .46798707 .4423828 .43399049 .4423828 .37599183 .4423828 .34098817 .38935853 .32899476 .36634828 .3039856 .43237306 .25 .4423828 .22099304 .4423828 .116989139 .4423828 .05999756 .3133545 .05999756 .28834535 .05999756 .27833558 .069992069 .27833558 .07199097 .27833558 .07998657 .27833558 .08299255 .28033448 .084991458 .28933717 .11898804 .39535523 .18499756 .42037965 .21899414 .42037965 .23799134 .42037965 .272995 .4113617 .272995 .35334779 .272995 .32235719 .2559967 .25532533 .21899414 .11528015 .20298767 .053268434 .16799927 .011245728 .12399292 .011245728 .117996219 .011245728 .09498596 .011245728 .07398987 .024276734 .09899902 .029266358 .12098694 .05027771 .12098694 .07827759 .12098694 .105270389 .09899902 .11328125 .083999637 .11328125 .053985597 .11328125 .0289917 .08728027 .0289917 .055267335 .0289917 .009246826 .07899475-.0107421879 .12298584-.0107421879 .18899536-.0107421879 .22499085 .059280397 .22799683 .0652771 .23999024 .028274537 .27598573-.0107421879 .33599855-.0107421879 .43899537-.0107421879 .49598695 .118270877 .49598695 .14328003 .49598695 .1532898 .4869995 .1532898 .48399354 .1532898 .47499085 .1532898 .47299195 .14929199 .47099305 .14228821 .43798829 .03527832 .36999513 .011245728 .33799745 .011245728 .29899598 .011245728 .2829895 .043273927 .2829895 .07727051 .2829895 .09927368 .2889862 .121276859 .2999878 .16529846L.33399964 .30233766Z"/>
<path id="font_4_2" d="M.48599244 .38136292C.48999024 .39537049 .48999024 .39736939 .48999024 .40437318 .48999024 .42237855 .47599793 .43138124 .46099855 .43138124 .45098878 .43138124 .43499757 .42536927 .42599488 .41036988 .42399598 .405365 .41600038 .37435914 .4119873 .35635377 .40499879 .33035279 .397995 .30334474 .3919983 .27633668L.34700013 .09628296C.34298707 .08126831 .2999878 .011245728 .23399353 .011245728 .18299866 .011245728 .17199707 .055267335 .17199707 .0922699 .17199707 .1382904 .18899536 .20030213 .22299195 .28833009 .23899842 .3293457 .24299622 .3403473 .24299622 .36035157 .24299622 .405365 .21099854 .4423828 .16099549 .4423828 .06599426 .4423828 .0289917 .29733277 .0289917 .28833009 .0289917 .27833558 .038986207 .27833558 .040985109 .27833558 .050994874 .27833558 .051986696 .28033448 .056991579 .29634095 .083999637 .3903656 .12399292 .42037965 .1579895 .42037965 .1659851 .42037965 .18299866 .42037965 .18299866 .3883667 .18299866 .36335755 .17298889 .3373413 .1659851 .31834413 .12599182 .21231079 .10798645 .1552887 .10798645 .10827637 .10798645 .019256592 .17098999-.0107421879 .22999573-.0107421879 .2689972-.0107421879 .30299378 .0062561037 .33099366 .03425598 .31799317-.017745972 .30599977-.06674194 .2659912-.11973572 .23999024-.15385437 .20199585-.18309021 .1559906-.18309021 .14199829-.18309021 .09700012-.18005371 .07998657-.14074707 .09599304-.14074707 .10899353-.14074707 .12298584-.1287384 .1329956-.11973572 .14299011-.10673523 .14299011-.08773804 .14299011-.056747438 .115997318-.052734376 .10598755-.052734376 .08299255-.052734376 .049987794-.068740848 .049987794-.11773682 .049987794-.16796875 .09399414-.20507813 .1559906-.20507813 .25898744-.20507813 .3619995-.11373901 .3899994-.00074768069L.48599244 .38136292Z"/>
</defs>
<path transform="matrix(1.00003,0,0,-1.00003,1.4615555,208.02985)" d="M0 0H239.10584V206.22699H0Z" fill="#fffac2"/>
<path transform="matrix(1.00003,0,0,-1.00003,1.4615555,208.02985)" stroke-width=".3985" stroke-linecap="butt" stroke-miterlimit="10" stroke-linejoin="miter" fill="none" stroke="#d5d6d5" d="M0 0V206.22699M11.95529 0V206.22699M23.91058 0V206.22699M35.86588 0V206.22699M47.82117 0V206.22699M59.77646 0V206.22699M71.73175 0V206.22699M83.68704 0V206.22699M95.64233 0V206.22699M107.59763 0V206.22699M119.55292 0V206.22699M131.50821 0V206.22699M143.4635 0V206.22699M155.4188 0V206.22699M167.37409 0V206.22699M179.32938 0V206.22699M191.28467 0V206.22699M203.23996 0V206.22699M215.19525 0V206.22699M227.15055 0V206.22699M239.10584 0V206.22699"/>
<path transform="matrix(1.00003,0,0,-1.00003,1.4615555,208.02985)" stroke-width=".3985" stroke-linecap="butt" stroke-miterlimit="10" stroke-linejoin="miter" fill="none" stroke="#d5d6d5" d="M59.77646 0V206.22699M179.32938 0V206.22699"/>
<path transform="matrix(1.00003,0,0,-1.00003,1.4615555,208.02985)" stroke-width=".3985" stroke-linecap="butt" stroke-miterlimit="10" stroke-linejoin="miter" fill="none" stroke="#d5d6d5" d="M0 0H239.10584M0 10.31134H239.10584M0 20.6227H239.10584M0 30.93404H239.10584M0 41.24539H239.10584M0 51.55675H239.10584M0 61.86809H239.10584M0 72.17944H239.10584M0 82.4908H239.10584M0 92.80214H239.10584M0 103.1135H239.10584M0 113.42484H239.10584M0 123.73619H239.10584M0 134.04755H239.10584M0 144.35889H239.10584M0 154.67024H239.10584M0 164.9816H239.10584M0 175.29294H239.10584M0 185.6043H239.10584M0 195.91564H239.10584M0 206.22699H239.10584"/>
<path transform="matrix(1.00003,0,0,-1.00003,1.4615555,208.02985)" stroke-width=".3985" stroke-linecap="butt" stroke-miterlimit="10" stroke-linejoin="miter" fill="none" stroke="#d5d6d5" d="M0 103.1135H239.10584M0 154.67024H239.10584"/>
<path transform="matrix(1.00003,0,0,-1.00003,1.4615555,208.02985)" stroke-width=".19925" stroke-linecap="butt" stroke-miterlimit="10" stroke-linejoin="miter" fill="none" stroke="#929292" d="M0 50.13948V52.97401M11.95529 50.13948V52.97401M23.91058 50.13948V52.97401M35.86588 50.13948V52.97401M47.82117 50.13948V52.97401M59.77646 50.13948V52.97401M71.73175 50.13948V52.97401M83.68704 50.13948V52.97401M95.64233 50.13948V52.97401M107.59763 50.13948V52.97401M119.55292 50.13948V52.97401M131.50821 50.13948V52.97401M143.4635 50.13948V52.97401M155.4188 50.13948V52.97401M167.37409 50.13948V52.97401M179.32938 50.13948V52.97401M191.28467 50.13948V52.97401M203.23996 50.13948V52.97401M215.19525 50.13948V52.97401M227.15055 50.13948V52.97401M239.10584 50.13948V52.97401"/>
<path transform="matrix(1.00003,0,0,-1.00003,1.4615555,208.02985)" stroke-width=".19925" stroke-linecap="butt" stroke-miterlimit="10" stroke-linejoin="miter" fill="none" stroke="#929292" d="M59.77646 49.43103V53.68243M179.32938 49.43103V53.68243"/>
<path transform="matrix(1.00003,0,0,-1.00003,1.4615555,208.02985)" stroke-width=".19925" stroke-linecap="butt" stroke-miterlimit="10" stroke-linejoin="miter" fill="none" stroke="#929292" d="M118.13557 0H120.97025M118.13557 10.31134H120.97025M118.13557 20.6227H120.97025M118.13557 30.93404H120.97025M118.13557 41.24539H120.97025M118.13557 51.55675H120.97025M118.13557 61.86809H120.97025M118.13557 72.17944H120.97025M118.13557 82.4908H120.97025M118.13557 92.80214H120.97025M118.13557 103.1135H120.97025M118.13557 113.42484H120.97025M118.13557 123.73619H120.97025M118.13557 134.04755H120.97025M118.13557 144.35889H120.97025M118.13557 154.67024H120.97025M118.13557 164.9816H120.97025M118.13557 175.29294H120.97025M118.13557 185.6043H120.97025M118.13557 195.91564H120.97025M118.13557 206.22699H120.97025"/>
<path transform="matrix(1.00003,0,0,-1.00003,1.4615555,208.02985)" stroke-width=".19925" stroke-linecap="butt" stroke-miterlimit="10" stroke-linejoin="miter" fill="none" stroke="#929292" d="M117.42708 103.1135H121.67873M117.42708 154.67024H121.67873"/>
<path transform="matrix(1.00003,0,0,-1.00003,1.4615555,208.02985)" stroke-width=".3985" stroke-linecap="butt" stroke-miterlimit="10" stroke-linejoin="miter" fill="none" stroke="#000000" d="M1.99252 51.55675H237.11331"/>
<path transform="matrix(-1.00003,-0,0,1.00003,3.4541355,156.47154)" d="M1.99252 0-1.19551 1.59401 0 0-1.19551-1.59401"/>
<path transform="matrix(1.00003,0,0,-1.00003,238.582,156.47154)" d="M1.99252 0-1.19551 1.59401 0 0-1.19551-1.59401"/>
<path transform="matrix(1.00003,0,0,-1.00003,1.4615555,208.02985)" stroke-width=".3985" stroke-linecap="butt" stroke-miterlimit="10" stroke-linejoin="miter" fill="none" stroke="#000000" d="M119.55292 1.99252V204.23447"/>
<path transform="matrix(0,1.00003,1.00003,0,121.01807,206.03726)" d="M1.99252 0-1.19551 1.59401 0 0-1.19551-1.59401"/>
<path transform="matrix(0,-1.00003,-1.00003,-0,121.01807,3.7892457)" d="M1.99252 0-1.19551 1.59401 0 0-1.19551-1.59401"/>
<use data-text="&#x2212;" xlink:href="#font_1_1" transform="matrix(7.9703395,0,0,-7.9703395,55.82919,167.25362)"/>
<use data-text="5" xlink:href="#font_2_3" transform="matrix(7.9703395,0,0,-7.9703395,62.41639,167.25362)"/>
<use data-text="5" xlink:href="#font_2_3" transform="matrix(7.9703395,0,0,-7.9703395,178.6789,167.25362)"/>
<use data-text="5" xlink:href="#font_2_3" transform="matrix(7.9703395,0,0,-7.9703395,113.02891,107.48183)"/>
<use data-text="1" xlink:href="#font_2_2" transform="matrix(7.9703395,0,0,-7.9703395,108.793788,55.92328)"/>
<use data-text="0" xlink:href="#font_2_1" transform="matrix(7.9703395,0,0,-7.9703395,113.02604,55.92328)"/>
<g clip-path="url(#clip_3)">
<path transform="matrix(1.00003,0,0,-1.00003,1.4615555,208.02985)" stroke-width=".99628" stroke-linecap="butt" stroke-miterlimit="10" stroke-linejoin="miter" fill="none" stroke="#9e0c0f" d="M115.9756 198.05261 118.60146 181.1025 122.49193 158.17192 126.38237 137.42523 130.27283 118.8624 134.16329 102.4834 138.05376 88.28833 141.9442 76.27711 145.83467 66.44969 149.72512 58.80621 153.61556 53.34657 157.50601 50.07085 161.39649 48.97888 165.28693 50.07089 169.17739 53.3466 173.06784 58.80638 176.9583 66.44998 180.84874 76.27745 184.73923 88.28867 188.62967 102.48381 192.52011 118.86287 196.41059 137.4258 200.30103 158.17258 204.1915 181.10317 206.81734 198.05318"/>
<path transform="matrix(-.15306461,-.9881997,-.9881997,.15306461,117.54846,10.667435)" d="M7.39124 0 2.37614 1.6717 .70447 0 2.37614-1.6717Z" fill="#9e0c0f"/>
<path transform="matrix(-.15306461,-.9881997,-.9881997,.15306461,117.54846,10.667435)" stroke-width=".99628" stroke-linecap="butt" stroke-miterlimit="10" stroke-linejoin="miter" fill="none" stroke="#9e0c0f" d="M7.39124 0 2.37614 1.6717 .70447 0 2.37614-1.6717Z"/>
<path transform="matrix(.15306461,-.9881997,-.9881997,-.15306461,208.17728,10.666885)" d="M7.39124 0 2.37614 1.6717 .70447 0 2.37614-1.6717Z" fill="#9e0c0f"/>
<path transform="matrix(.15306461,-.9881997,-.9881997,-.15306461,208.17728,10.666885)" stroke-width=".99628" stroke-linecap="butt" stroke-miterlimit="10" stroke-linejoin="miter" fill="none" stroke="#9e0c0f" d="M7.39124 0 2.37614 1.6717 .70447 0 2.37614-1.6717Z"/>
</g>
<path transform="matrix(1.00003,0,0,-1.00003,1.4615555,208.02985)" d="M157.41135 51.55675C157.41135 52.65721 156.51926 53.5493 155.4188 53.5493 154.31832 53.5493 153.42624 52.65721 153.42624 51.55675 153.42624 50.45627 154.31832 49.5642 155.4188 49.5642 156.51926 49.5642 157.41135 50.45627 157.41135 51.55675ZM155.4188 51.55675" fill="#9e0c0f"/>
<path transform="matrix(1.00003,0,0,-1.00003,1.4615555,208.02985)" stroke-width=".3985" stroke-linecap="butt" stroke-miterlimit="10" stroke-linejoin="miter" fill="none" stroke="#9e0c0f" d="M157.41135 51.55675C157.41135 52.65721 156.51926 53.5493 155.4188 53.5493 154.31832 53.5493 153.42624 52.65721 153.42624 51.55675 153.42624 50.45627 154.31832 49.5642 155.4188 49.5642 156.51926 49.5642 157.41135 50.45627 157.41135 51.55675ZM155.4188 51.55675"/>
<path transform="matrix(1.00003,0,0,-1.00003,1.4615555,208.02985)" d="M169.36664 51.55675C169.36664 52.65721 168.47455 53.5493 167.37409 53.5493 166.2736 53.5493 165.38153 52.65721 165.38153 51.55675 165.38153 50.45627 166.2736 49.5642 167.37409 49.5642 168.47455 49.5642 169.36664 50.45627 169.36664 51.55675ZM167.37409 51.55675" fill="#9e0c0f"/>
<path transform="matrix(1.00003,0,0,-1.00003,1.4615555,208.02985)" stroke-width=".3985" stroke-linecap="butt" stroke-miterlimit="10" stroke-linejoin="miter" fill="none" stroke="#9e0c0f" d="M169.36664 51.55675C169.36664 52.65721 168.47455 53.5493 167.37409 53.5493 166.2736 53.5493 165.38153 52.65721 165.38153 51.55675 165.38153 50.45627 166.2736 49.5642 167.37409 49.5642 168.47455 49.5642 169.36664 50.45627 169.36664 51.55675ZM167.37409 51.55675"/>
<path transform="matrix(1.00003,0,0,-1.00003,1.4615555,208.02985)" d="M121.54547 175.29294C121.54547 176.39342 120.65338 177.28549 119.55292 177.28549 118.45244 177.28549 117.56036 176.39342 117.56036 175.29294 117.56036 174.19248 118.45244 173.30039 119.55292 173.30039 120.65338 173.30039 121.54547 174.19248 121.54547 175.29294ZM119.55292 175.29294" fill="#9e0c0f"/>
<path transform="matrix(1.00003,0,0,-1.00003,1.4615555,208.02985)" stroke-width=".3985" stroke-linecap="butt" stroke-miterlimit="10" stroke-linejoin="miter" fill="none" stroke="#9e0c0f" d="M121.54547 175.29294C121.54547 176.39342 120.65338 177.28549 119.55292 177.28549 118.45244 177.28549 117.56036 176.39342 117.56036 175.29294 117.56036 174.19248 118.45244 173.30039 119.55292 173.30039 120.65338 173.30039 121.54547 174.19248 121.54547 175.29294ZM119.55292 175.29294"/>
<path transform="matrix(1.00003,0,0,-1.00003,1.4615555,208.02985)" d="M163.38899 48.9789C163.38899 50.07936 162.4969 50.97145 161.39644 50.97145 160.29596 50.97145 159.40389 50.07936 159.40389 48.9789 159.40389 47.87843 160.29596 46.98634 161.39644 46.98634 162.4969 46.98634 163.38899 47.87843 163.38899 48.9789ZM161.39644 48.9789" fill="#9e0c0f"/>
<path transform="matrix(1.00003,0,0,-1.00003,1.4615555,208.02985)" stroke-width=".3985" stroke-linecap="butt" stroke-miterlimit="10" stroke-linejoin="miter" fill="none" stroke="#9e0c0f" d="M163.38899 48.9789C163.38899 50.07936 162.4969 50.97145 161.39644 50.97145 160.29596 50.97145 159.40389 50.07936 159.40389 48.9789 159.40389 47.87843 160.29596 46.98634 161.39644 46.98634 162.4969 46.98634 163.38899 47.87843 163.38899 48.9789ZM161.39644 48.9789"/>
<path transform="matrix(1.00003,0,0,-1.00003,1.4615555,208.02985)" d="M205.23252 175.29294C205.23252 176.39342 204.34043 177.28549 203.23996 177.28549 202.13948 177.28549 201.2474 176.39342 201.2474 175.29294 201.2474 174.19248 202.13948 173.30039 203.23996 173.30039 204.34043 173.30039 205.23252 174.19248 205.23252 175.29294ZM203.23996 175.29294" fill="#9e0c0f"/>
<path transform="matrix(1.00003,0,0,-1.00003,1.4615555,208.02985)" stroke-width=".3985" stroke-linecap="butt" stroke-miterlimit="10" stroke-linejoin="miter" fill="none" stroke="#9e0c0f" d="M205.23252 175.29294C205.23252 176.39342 204.34043 177.28549 203.23996 177.28549 202.13948 177.28549 201.2474 176.39342 201.2474 175.29294 201.2474 174.19248 202.13948 173.30039 203.23996 173.30039 204.34043 173.30039 205.23252 174.19248 205.23252 175.29294ZM203.23996 175.29294"/>
<path transform="matrix(1.00003,0,0,-1.00003,1.4615555,208.02985)" stroke-width=".3985" stroke-linecap="butt" stroke-miterlimit="10" stroke-linejoin="miter" fill="none" stroke="#9e0c0f" d=""/>
<use data-text="x" xlink:href="#font_4_1" transform="matrix(9.962899,0,0,-9.962899,231.36048,152.95119)"/>
<use data-text="y" xlink:href="#font_4_2" transform="matrix(9.962899,0,0,-9.962899,124.53825,9.605881)"/>
</svg>
