<svg xmlns="http://www.w3.org/2000/svg" xmlns:xlink="http://www.w3.org/1999/xlink" version="1.1" width="248" height="215" viewBox="0 0 248 215">
<defs>
<path id="font_1_1" d="M.69898989 .22743225C.71499636 .22743225 .7369995 .22743225 .7369995 .25042726 .7369995 .2734375 .71499636 .2734375 .69898989 .2734375H.12599182C.10998535 .2734375 .08799744 .2734375 .08799744 .25042726 .08799744 .22743225 .10998535 .22743225 .12599182 .22743225H.69898989Z"/>
<path id="font_2_3" d="M.28199769 .20405579C.2979889 .21907044 .33999635 .2520752 .35598756 .26608277 .41799928 .32312013 .47698976 .3781433 .47698976 .46917726 .47698976 .588089 .3769989 .66503909 .2519989 .66503909 .13198853 .66503909 .052993776 .57411196 .052993776 .48516847 .052993776 .4361725 .09199524 .4291687 .10598755 .4291687 .1269989 .4291687 .1579895 .4441681 .1579895 .48217774 .1579895 .5341797 .10798645 .5341797 .09599304 .5341797 .125 .6070709 .19198609 .6320343 .24099732 .6320343 .33399964 .6320343 .38198854 .55314639 .38198854 .46917726 .38198854 .36514283 .30899049 .28910829 .19099427 .16804505L.06498718 .037994386C.052993776 .026992798 .052993776 .024993897 .052993776 0H.44799806L.47698976 .17904663H.44599916C.44299317 .1590271 .43499757 .10900879 .4229889 .08999634 .4169922 .08198547 .34098817 .08198547 .32499696 .08198547H.14698792L.28199769 .20405579Z"/>
<path id="font_2_2" d="M.31399537 .63708499C.31399537 .664032 .31199647 .66503909 .2849884 .66503909 .24398804 .6251831 .19099427 .6013489 .09599304 .6013489V.5683594C.12298584 .5683594 .1769867 .5683594 .23498535 .5953522V.08203125C.23498535 .04499817 .23199463 .032989503 .13699341 .032989503H.101989749V0C.14299011 .0029907227 .22898865 .0029907227 .27398683 .0029907227 .31900025 .0029907227 .4059906 .0029907227 .44699098 0V.032989503H.4119873C.31698609 .032989503 .31399537 .04499817 .31399537 .08203125V.63708499Z"/>
<path id="font_2_4" d="M.25299073 .33370973C.33198548 .33370973 .38198854 .27557374 .38198854 .17037964 .38198854 .045440675 .31098939 .008514404 .2579956 .008514404 .20298767 .008514404 .12799073 .0284729 .09298706 .08137512 .1289978 .08137512 .1539917 .10437012 .1539917 .13737488 .1539917 .16937256 .1309967 .19238281 .09899902 .19238281 .07199097 .19238281 .04399109 .17536927 .04399109 .13537598 .04399109 .04045105 .1459961-.021484375 .2599945-.021484375 .3929901-.021484375 .48599244 .070388797 .48599244 .17037964 .48599244 .25352479 .41999818 .32969667 .31799317 .3517456 .39698792 .37982179 .45599366 .4479828 .45599366 .52804568 .45599366 .6080475 .3659973 .66503909 .2619934 .66503909 .15499878 .66503909 .07398987 .6070404 .07398987 .53105166 .07398987 .49404908 .09899902 .4780426 .125 .4780426 .1559906 .4780426 .17599488 .5000458 .17599488 .52905276 .17599488 .56604006 .14399719 .5800476 .12199402 .5810547 .1639862 .6360321 .24099732 .6390381 .25898744 .6390381 .2849884 .6390381 .36099244 .6310272 .36099244 .52804568 .36099244 .45799256 .33198548 .41589356 .31799317 .39985658 .28799439 .36878968 .2649994 .36679078 .20399475 .3627777 .18499756 .36177064 .1769867 .36076356 .1769867 .3477478 .1769867 .33370973 .18598938 .33370973 .20298767 .33370973H.25299073Z"/>
<path id="font_2_5" d="M.3939972 .6468048C.3939972 .6667938 .3939972 .6748047 .37298585 .6748047 .3600006 .6748047 .35899354 .6737976 .34899903 .65979006L.02999878 .197052V.1640625H.31199647V.08100891C.31199647 .04399109 .30899049 .032989503 .23199463 .032989503H.20899964V0C.2939911 .0029907227 .29599 .0029907227 .35299684 .0029907227 .4099884 .0029907227 .4119873 .0029907227 .49699403 0V.032989503H.47399903C.39698792 .032989503 .3939972 .04399109 .3939972 .08100891V.1640625H.5V.197052H.3939972V.6468048M.31900025 .5658417V.197052H.06498718L.31900025 .5658417Z"/>
<path id="font_2_6" d="M.13999939 .5618439C.15299988 .55784609 .19299317 .54785159 .23498535 .54785159 .3600006 .54785159 .43598939 .6358948 .43598939 .6510315 .43598939 .6620331 .42900086 .66503909 .42399598 .66503909 .42199708 .66503909 .41999818 .66503909 .41099549 .6600342 .37199403 .6450348 .32598878 .632843 .27198792 .632843 .21299744 .632843 .1639862 .6480255 .1329956 .6600342 .12298584 .66503909 .12098694 .66503909 .11999512 .66503909 .10699463 .66503909 .10699463 .6540375 .10699463 .6358948V.34292604C.10699463 .32492066 .10699463 .312912 .12298584 .312912 .1309967 .312912 .13398743 .3169098 .13899231 .32492066 .15098572 .33992005 .18899536 .39093019 .27398683 .39093019 .32998658 .39093019 .35699464 .34492494 .3659973 .32591249 .3829956 .28990174 .3849945 .24389649 .3849945 .20487976 .3849945 .1678772 .38398744 .11387634 .35598756 .069732669 .33699037 .039611818 .29699708 .008514404 .24398804 .008514404 .1789856 .008514404 .114990238 .0496521 .09199524 .11488342 .09498596 .11387634 .100997928 .11387634 .101989749 .11387634 .12998963 .11387634 .1519928 .13188172 .1519928 .16288758 .1519928 .19989014 .12298584 .21289063 .102996829 .21289063 .084991458 .21289063 .052993776 .20288086 .052993776 .15988159 .052993776 .069732669 .1309967-.021484375 .24598694-.021484375 .37098695-.021484375 .47698976 .07574463 .47698976 .19989014 .47698976 .31591798 .3929901 .4189453 .2749939 .4189453 .22499085 .4189453 .17799378 .40293885 .13999939 .368927V.5618439Z"/>
<path id="font_2_7" d="M.13798523 .33073426C.13798523 .41377259 .14498902 .4868164 .18099976 .54782107 .21099854 .5978241 .2619934 .6390381 .32499696 .6390381 .34498597 .6390381 .3909912 .63601687 .4139862 .60084536 .36898805 .5988312 .36499024 .5648346 .36499024 .553833 .36499024 .5238342 .3880005 .50683596 .4119873 .50683596 .42999269 .50683596 .45899964 .51782229 .45899964 .5558319 .45899964 .615921 .4139862 .66503909 .32398988 .66503909 .18499756 .66503909 .04399109 .53282168 .04399109 .31672669 .04399109 .045532228 .16999817-.021484375 .2669983-.021484375 .31498719-.021484375 .36698915-.0084991459 .4119873 .03453064 .45199586 .07354736 .48599244 .11558533 .48599244 .20263672 .48599244 .33372499 .3869934 .42578126 .27598573 .42578126 .20399475 .42578126 .16099549 .37976075 .13798523 .33073426M.2669983 .008514404C.21398926 .008514404 .18099976 .045532228 .1659851 .07354736 .14299011 .11859131 .14099121 .18663025 .14099121 .22465515 .14099121 .32373048 .19499207 .3977661 .27198792 .3977661 .32199098 .3977661 .35198976 .37176515 .37098695 .33673097 .3919983 .29971314 .3919983 .25468446 .3919983 .2036438 .3919983 .15260315 .3919983 .10858154 .37199403 .07255554 .34599305 .026519776 .31098939 .008514404 .2669983 .008514404Z"/>
<path id="font_2_8" d="M.5059967 .608551C.5149994 .6195526 .5149994 .6215515 .5149994 .6435547H.26098634C.23599243 .6435547 .20498657 .64456179 .17999268 .64660647 .12799073 .65068057 .1269989 .6597748 .12399292 .67578127H.09298706L.05899048 .46453858H.08999634C.09199524 .47953797 .102996829 .54855349 .116989139 .5565491 .12799073 .56155398 .20298767 .56155398 .21798706 .56155398H.42999269L.32699586 .4235382C.21299744 .27153016 .18899536 .11351013 .18899536 .03451538 .18899536 .024505616 .18899536-.021484375 .23599243-.021484375 .2829895-.021484375 .2829895 .023513794 .2829895 .035507204V.08351135C.2829895 .2275238 .30699159 .34553529 .35598756 .41053773L.5059967 .608551Z"/>
<path id="font_2_9" d="M.33198548 .36080934C.3880005 .38783265 .45599366 .4378662 .45599366 .5159302 .45599366 .6110077 .35899354 .66503909 .2659912 .66503909 .1599884 .66503909 .07398987 .59199526 .07398987 .49790956 .07398987 .46089173 .08699036 .42686463 .11199951 .39782716 .1289978 .3768158 .1329956 .3748169 .19499207 .3357849 .070999149 .2807312 .04399109 .20767212 .04399109 .15162659 .04399109 .041534425 .15499878-.021484375 .2639923-.021484375 .3869934-.021484375 .48599244 .061553956 .48599244 .16764832 .48599244 .23069763 .45199586 .2727356 .43598939 .28974916 .4189911 .30575563 .41799928 .3067627 .33198548 .36080934M.1769867 .45487977C.147995 .4718933 .12399292 .5009155 .12399292 .5359497 .12399292 .598999 .19299317 .6390381 .2639923 .6390381 .34199525 .6390381 .4059906 .5859833 .4059906 .5159302 .4059906 .45788575 .36099244 .408844 .3019867 .37982179L.1769867 .45487977M.22599793 .31776429C.22999573 .31576539 .34399415 .24571228 .36099244 .23469544 .3769989 .22569275 .42900086 .19366455 .42900086 .13360596 .42900086 .056549074 .34799195 .008514404 .2659912 .008514404 .1769867 .008514404 .100997928 .06956482 .100997928 .15162659 .100997928 .22668457 .15699768 .28573609 .22599793 .31776429Z"/>
<path id="font_2_1" d="M.4889984 .31877137C.4889984 .42585755 .47799684 .49090577 .44499208 .55496218 .40098573 .6430359 .31999208 .66503909 .2649994 .66503909 .13899231 .66503909 .09298706 .5709839 .07899475 .5429535 .042999269 .4698944 .040985109 .3708191 .040985109 .31877137 .040985109 .25271607 .04399109 .15162659 .09199524 .07156372 .13798523-.0024871827 .21199036-.021484375 .2649994-.021484375 .31298829-.021484375 .39898683-.0064849855 .44898988 .09257507 .48599244 .16464234 .4889984 .2537079 .4889984 .31877137M.2649994 .006515503C.23098755 .006515503 .1619873 .022521973 .14099121 .12760926 .12998963 .18466187 .12998963 .2787323 .12998963 .33078004 .12998963 .3998413 .12998963 .4698944 .14099121 .5249481 .1619873 .6270294 .23999024 .6370239 .2649994 .6370239 .29899598 .6370239 .36799623 .62002566 .3880005 .5289459 .3999939 .4738922 .3999939 .39883424 .3999939 .33078004 .3999939 .27172853 .3999939 .18165589 .3880005 .12561035 .36698915 .020523072 .2979889 .006515503 .2649994 .006515503Z"/>
<clipPath id="clip_3">
<path transform="matrix(1.00009,0,0,-1.00002,5.993431,210.82663)" d="M0 0H239.11191V206.22821H0Z"/>
</clipPath>
<path id="font_4_1" d="M.33399964 .30233766C.33999635 .32835389 .36299134 .42037965 .43299867 .42037965 .43798829 .42037965 .46199037 .42037965 .48298646 .40734864 .45498658 .402359 .43499757 .37734986 .43499757 .35334779 .43499757 .33735658 .44599916 .31835938 .47299195 .31835938 .49499513 .31835938 .5269928 .3363495 .5269928 .37635804 .5269928 .42837525 .46798707 .4423828 .43399049 .4423828 .37599183 .4423828 .34098817 .38935853 .32899476 .36634828 .3039856 .43237306 .25 .4423828 .22099304 .4423828 .116989139 .4423828 .05999756 .3133545 .05999756 .28834535 .05999756 .27833558 .069992069 .27833558 .07199097 .27833558 .07998657 .27833558 .08299255 .28033448 .084991458 .28933717 .11898804 .39535523 .18499756 .42037965 .21899414 .42037965 .23799134 .42037965 .272995 .4113617 .272995 .35334779 .272995 .32235719 .2559967 .25532533 .21899414 .11528015 .20298767 .053268434 .16799927 .011245728 .12399292 .011245728 .117996219 .011245728 .09498596 .011245728 .07398987 .024276734 .09899902 .029266358 .12098694 .05027771 .12098694 .07827759 .12098694 .105270389 .09899902 .11328125 .083999637 .11328125 .053985597 .11328125 .0289917 .08728027 .0289917 .055267335 .0289917 .009246826 .07899475-.0107421879 .12298584-.0107421879 .18899536-.0107421879 .22499085 .059280397 .22799683 .0652771 .23999024 .028274537 .27598573-.0107421879 .33599855-.0107421879 .43899537-.0107421879 .49598695 .118270877 .49598695 .14328003 .49598695 .1532898 .4869995 .1532898 .48399354 .1532898 .47499085 .1532898 .47299195 .14929199 .47099305 .14228821 .43798829 .03527832 .36999513 .011245728 .33799745 .011245728 .29899598 .011245728 .2829895 .043273927 .2829895 .07727051 .2829895 .09927368 .2889862 .121276859 .2999878 .16529846L.33399964 .30233766Z"/>
<path id="font_4_2" d="M.48599244 .38136292C.48999024 .39537049 .48999024 .39736939 .48999024 .40437318 .48999024 .42237855 .47599793 .43138124 .46099855 .43138124 .45098878 .43138124 .43499757 .42536927 .42599488 .41036988 .42399598 .405365 .41600038 .37435914 .4119873 .35635377 .40499879 .33035279 .397995 .30334474 .3919983 .27633668L.34700013 .09628296C.34298707 .08126831 .2999878 .011245728 .23399353 .011245728 .18299866 .011245728 .17199707 .055267335 .17199707 .0922699 .17199707 .1382904 .18899536 .20030213 .22299195 .28833009 .23899842 .3293457 .24299622 .3403473 .24299622 .36035157 .24299622 .405365 .21099854 .4423828 .16099549 .4423828 .06599426 .4423828 .0289917 .29733277 .0289917 .28833009 .0289917 .27833558 .038986207 .27833558 .040985109 .27833558 .050994874 .27833558 .051986696 .28033448 .056991579 .29634095 .083999637 .3903656 .12399292 .42037965 .1579895 .42037965 .1659851 .42037965 .18299866 .42037965 .18299866 .3883667 .18299866 .36335755 .17298889 .3373413 .1659851 .31834413 .12599182 .21231079 .10798645 .1552887 .10798645 .10827637 .10798645 .019256592 .17098999-.0107421879 .22999573-.0107421879 .2689972-.0107421879 .30299378 .0062561037 .33099366 .03425598 .31799317-.017745972 .30599977-.06674194 .2659912-.11973572 .23999024-.15385437 .20199585-.18309021 .1559906-.18309021 .14199829-.18309021 .09700012-.18005371 .07998657-.14074707 .09599304-.14074707 .10899353-.14074707 .12298584-.1287384 .1329956-.11973572 .14299011-.10673523 .14299011-.08773804 .14299011-.056747438 .115997318-.052734376 .10598755-.052734376 .08299255-.052734376 .049987794-.068740848 .049987794-.11773682 .049987794-.16796875 .09399414-.20507813 .1559906-.20507813 .25898744-.20507813 .3619995-.11373901 .3899994-.00074768069L.48599244 .38136292Z"/>
</defs>
<path transform="matrix(1.00009,0,0,-1.00002,5.993431,210.82663)" d="M0 0H239.11191V206.22821H0Z" fill="#fffac2"/>
<path transform="matrix(1.00009,0,0,-1.00002,5.993431,210.82663)" stroke-width=".3985" stroke-linecap="butt" stroke-miterlimit="10" stroke-linejoin="miter" fill="none" stroke="#d5d6d5" d="M0 0V206.22821M23.91118 0V206.22821M47.82237 0V206.22821M71.73357 0V206.22821M95.64476 0V206.22821M119.55595 0V206.22821M143.46715 0V206.22821M167.37834 0V206.22821M191.28952 0V206.22821M215.20072 0V206.22821M239.11191 0V206.22821"/>
<path transform="matrix(1.00009,0,0,-1.00002,5.993431,210.82663)" stroke-width=".3985" stroke-linecap="butt" stroke-miterlimit="10" stroke-linejoin="miter" fill="none" stroke="#d5d6d5" d="M0 0V206.22821M23.91118 0V206.22821M71.73357 0V206.22821M95.64476 0V206.22821M119.55595 0V206.22821M143.46715 0V206.22821M167.37834 0V206.22821M191.28952 0V206.22821M215.20072 0V206.22821M239.11191 0V206.22821"/>
<path transform="matrix(1.00009,0,0,-1.00002,5.993431,210.82663)" stroke-width=".3985" stroke-linecap="butt" stroke-miterlimit="10" stroke-linejoin="miter" fill="none" stroke="#d5d6d5" d="M0 0H239.11191M0 11.45712H239.11191M0 22.91425H239.11191M0 34.37137H239.11191M0 45.82849H239.11191M0 57.28561H239.11191M0 68.74274H239.11191M0 80.19986H239.11191M0 91.65698H239.11191M0 103.1141H239.11191M0 114.57123H239.11191M0 126.02835H239.11191M0 137.48548H239.11191M0 148.9426H239.11191M0 160.39972H239.11191M0 171.85684H239.11191M0 183.31397H239.11191M0 194.77109H239.11191M0 206.22821H239.11191"/>
<path transform="matrix(1.00009,0,0,-1.00002,5.993431,210.82663)" stroke-width=".3985" stroke-linecap="butt" stroke-miterlimit="10" stroke-linejoin="miter" fill="none" stroke="#d5d6d5" d="M0 0H239.11191M0 22.91425H239.11191M0 45.82849H239.11191M0 68.74274H239.11191M0 114.57123H239.11191M0 137.48548H239.11191M0 160.39972H239.11191M0 183.31397H239.11191M0 206.22821H239.11191"/>
<path transform="matrix(1.00009,0,0,-1.00002,5.993431,210.82663)" stroke-width=".19925" stroke-linecap="butt" stroke-miterlimit="10" stroke-linejoin="miter" fill="none" stroke="#929292" d="M0 90.23967V93.0743M23.91118 90.23967V93.0743M47.82237 90.23967V93.0743M71.73357 90.23967V93.0743M95.64476 90.23967V93.0743M119.55595 90.23967V93.0743M143.46715 90.23967V93.0743M167.37834 90.23967V93.0743M191.28952 90.23967V93.0743M215.20072 90.23967V93.0743M239.11191 90.23967V93.0743"/>
<path transform="matrix(1.00009,0,0,-1.00002,5.993431,210.82663)" stroke-width=".19925" stroke-linecap="butt" stroke-miterlimit="10" stroke-linejoin="miter" fill="none" stroke="#929292" d="M0 89.5312V93.78273M23.91118 89.5312V93.78273M71.73357 89.5312V93.78273M95.64476 89.5312V93.78273M119.55595 89.5312V93.78273M143.46715 89.5312V93.78273M167.37834 89.5312V93.78273M191.28952 89.5312V93.78273M215.20072 89.5312V93.78273M239.11191 89.5312V93.78273"/>
<path transform="matrix(1.00009,0,0,-1.00002,5.993431,210.82663)" stroke-width=".19925" stroke-linecap="butt" stroke-miterlimit="10" stroke-linejoin="miter" fill="none" stroke="#929292" d="M46.40494 0H49.2398M46.40494 11.45712H49.2398M46.40494 22.91425H49.2398M46.40494 34.37137H49.2398M46.40494 45.82849H49.2398M46.40494 57.28561H49.2398M46.40494 68.74274H49.2398M46.40494 80.19986H49.2398M46.40494 91.65698H49.2398M46.40494 103.1141H49.2398M46.40494 114.57123H49.2398M46.40494 126.02835H49.2398M46.40494 137.48548H49.2398M46.40494 148.9426H49.2398M46.40494 160.39972H49.2398M46.40494 171.85684H49.2398M46.40494 183.31397H49.2398M46.40494 194.77109H49.2398M46.40494 206.22821H49.2398"/>
<path transform="matrix(1.00009,0,0,-1.00002,5.993431,210.82663)" stroke-width=".19925" stroke-linecap="butt" stroke-miterlimit="10" stroke-linejoin="miter" fill="none" stroke="#929292" d="M45.69644 0H49.9483M45.69644 22.91425H49.9483M45.69644 45.82849H49.9483M45.69644 68.74274H49.9483M45.69644 114.57123H49.9483M45.69644 137.48548H49.9483M45.69644 160.39972H49.9483M45.69644 183.31397H49.9483M45.69644 206.22821H49.9483"/>
<path transform="matrix(1.00009,0,0,-1.00002,5.993431,210.82663)" stroke-width=".3985" stroke-linecap="butt" stroke-miterlimit="10" stroke-linejoin="miter" fill="none" stroke="#000000" d="M1.99252 91.65698H237.11939"/>
<path transform="matrix(-1.00009,-0,0,1.00002,7.98613,119.16781)" d="M1.99252 0-1.19551 1.59401 0 0-1.19551-1.59401"/>
<path transform="matrix(1.00009,0,0,-1.00002,243.13416,119.16781)" d="M1.99252 0-1.19551 1.59401 0 0-1.19551-1.59401"/>
<path transform="matrix(1.00009,0,0,-1.00002,5.993431,210.82663)" stroke-width=".3985" stroke-linecap="butt" stroke-miterlimit="10" stroke-linejoin="miter" fill="none" stroke="#000000" d="M47.82237 1.99252V204.23569"/>
<path transform="matrix(0,1.00002,1.00009,0,53.820104,208.83408)" d="M1.99252 0-1.19551 1.59401 0 0-1.19551-1.59401"/>
<path transform="matrix(0,-1.00002,-1.00009,-0,53.820104,6.586853)" d="M1.99252 0-1.19551 1.59401 0 0-1.19551-1.59401"/>
<use data-text="&#x2212;" xlink:href="#font_1_1" transform="matrix(7.970817,0,0,-7.9702599,.58294299,129.95001)"/>
<use data-text="2" xlink:href="#font_2_3" transform="matrix(7.970817,0,0,-7.9702599,7.170532,129.95001)"/>
<use data-text="&#x2212;" xlink:href="#font_1_1" transform="matrix(7.970817,0,0,-7.9702599,24.496096,129.95001)"/>
<use data-text="1" xlink:href="#font_2_2" transform="matrix(7.970817,0,0,-7.9702599,31.083685,129.95001)"/>
<use data-text="1" xlink:href="#font_2_2" transform="matrix(7.970817,0,0,-7.9702599,75.61569,129.95001)"/>
<use data-text="2" xlink:href="#font_2_3" transform="matrix(7.970817,0,0,-7.9702599,99.52985,129.95001)"/>
<use data-text="3" xlink:href="#font_2_4" transform="matrix(7.970817,0,0,-7.9702599,123.44299,129.95001)"/>
<use data-text="4" xlink:href="#font_2_5" transform="matrix(7.970817,0,0,-7.9702599,147.35616,129.95001)"/>
<use data-text="5" xlink:href="#font_2_6" transform="matrix(7.970817,0,0,-7.9702599,171.2693,129.95001)"/>
<use data-text="6" xlink:href="#font_2_7" transform="matrix(7.970817,0,0,-7.9702599,195.18245,129.95001)"/>
<use data-text="7" xlink:href="#font_2_8" transform="matrix(7.970817,0,0,-7.9702599,219.0966,129.95001)"/>
<use data-text="8" xlink:href="#font_2_9" transform="matrix(7.970817,0,0,-7.9702599,243.00975,129.95001)"/>
<use data-text="&#x2212;" xlink:href="#font_1_1" transform="matrix(7.970817,0,0,-7.9702599,39.24242,212.97968)"/>
<use data-text="8" xlink:href="#font_2_9" transform="matrix(7.970817,0,0,-7.9702599,45.83001,212.97968)"/>
<use data-text="&#x2212;" xlink:href="#font_1_1" transform="matrix(7.970817,0,0,-7.9702599,39.24242,190.06522)"/>
<use data-text="6" xlink:href="#font_2_7" transform="matrix(7.970817,0,0,-7.9702599,45.83001,190.06522)"/>
<use data-text="&#x2212;" xlink:href="#font_1_1" transform="matrix(7.970817,0,0,-7.9702599,39.24242,167.15076)"/>
<use data-text="4" xlink:href="#font_2_5" transform="matrix(7.970817,0,0,-7.9702599,45.83001,167.15076)"/>
<use data-text="&#x2212;" xlink:href="#font_1_1" transform="matrix(7.970817,0,0,-7.9702599,39.24242,144.23529)"/>
<use data-text="2" xlink:href="#font_2_3" transform="matrix(7.970817,0,0,-7.9702599,45.83001,144.23529)"/>
<use data-text="2" xlink:href="#font_2_3" transform="matrix(7.970817,0,0,-7.9702599,45.830018,98.82138)"/>
<use data-text="4" xlink:href="#font_2_5" transform="matrix(7.970817,0,0,-7.9702599,45.830018,75.90692)"/>
<use data-text="6" xlink:href="#font_2_7" transform="matrix(7.970817,0,0,-7.9702599,45.830018,52.99147)"/>
<use data-text="8" xlink:href="#font_2_9" transform="matrix(7.970817,0,0,-7.9702599,45.830018,30.077012)"/>
<use data-text="1" xlink:href="#font_2_2" transform="matrix(7.970817,0,0,-7.9702599,41.595636,7.162552)"/>
<use data-text="0" xlink:href="#font_2_1" transform="matrix(7.970817,0,0,-7.9702599,45.82814,7.162552)"/>
<g clip-path="url(#clip_3)">
<path transform="matrix(1.00009,0,0,-1.00002,5.993431,210.82663)" stroke-width=".99628" stroke-linecap="butt" stroke-miterlimit="10" stroke-linejoin="miter" fill="none" stroke="#9e0c0f" d="M38.00363 195.38318C41.62541 181.85628 41.62541 181.85628 43.83716 174.08464 46.04892 166.313 49.5958 154.41649 51.80754 147.35137 54.0193 140.28626 57.5662 129.52274 59.77794 123.16412 61.98969 116.80551 65.53658 107.17502 67.74832 101.52292 69.96007 95.87083 73.50697 87.37326 75.71872 82.42767 77.93047 77.48209 81.47736 70.11758 83.6891 65.87851 85.90085 61.63943 89.44775 55.40793 91.6595 51.87538 93.87125 48.34282 97.41814 43.2443 99.62988 40.41826 101.84163 37.59221 105.38852 33.62668 107.60027 31.50714 109.81201 29.3876 113.35892 26.55508 115.57066 25.14206 117.78241 23.72903 121.3293 22.02954 123.54105 21.32303 125.75279 20.61652 129.29969 20.04997 131.51145 20.04997 133.72319 20.04997 137.27007 20.6165 139.48183 21.323 141.69358 22.0295 145.24047 23.72897 147.45223 25.14197 149.66397 26.55496 153.21085 29.38739 155.4226 31.50691 157.63436 33.62643 161.18125 37.59206 163.393 40.41809 165.60475 43.24413 169.15163 48.34248 171.36339 51.87503 173.57514 55.40758 177.12201 61.63918 179.33377 65.87823 181.54552 70.1173 185.0924 77.48164 187.30416 82.4272 189.51592 87.37276 193.06279 95.87038 195.27454 101.52243 197.4863 107.1745 201.03319 116.80487 203.24494 123.16344 205.4567 129.52202 209.00357 140.28562 211.21532 147.35074 213.42708 154.41585 216.97397 166.31235 219.18572 174.08394 221.39748 181.85555 227.1561 203.36307 225.01926 195.38233"/>
<path transform="matrix(-.25866328,-.9659794,-.966047,.25864519,44.18271,16.12004)" d="M7.39124 0 2.37614 1.6717 .70447 0 2.37614-1.6717Z" fill="#9e0c0f"/>
<path transform="matrix(-.25866328,-.9659794,-.966047,.25864519,44.18271,16.12004)" stroke-width=".99628" stroke-linecap="butt" stroke-miterlimit="10" stroke-linejoin="miter" fill="none" stroke="#9e0c0f" d="M7.39124 0 2.37614 1.6717 .70447 0 2.37614-1.6717Z"/>
<path transform="matrix(.25866328,-.9659794,-.966047,-.25864519,230.85071,16.120896)" d="M7.39124 0 2.37614 1.6717 .70447 0 2.37614-1.6717Z" fill="#9e0c0f"/>
<path transform="matrix(.25866328,-.9659794,-.966047,-.25864519,230.85071,16.120896)" stroke-width=".99628" stroke-linecap="butt" stroke-miterlimit="10" stroke-linejoin="miter" fill="none" stroke="#9e0c0f" d="M7.39124 0 2.37614 1.6717 .70447 0 2.37614-1.6717Z"/>
<path transform="matrix(1.00009,0,0,-1.00002,5.993431,210.82663)" stroke-width=".3985" stroke-linecap="butt" stroke-dasharray="2.98883,2.98883" stroke-miterlimit="10" stroke-linejoin="miter" fill="none" stroke="#000000" stroke-opacity=".5" d="M23.91118 240.59958 71.73357 80.19986"/>
</g>
<g>
<path transform="matrix(1.00009,0,0,-1.00002,5.993431,210.82663)" d="M49.81493 160.39972C49.81493 161.50019 48.92285 162.39228 47.82237 162.39228 46.72191 162.39228 45.82982 161.50019 45.82982 160.39972 45.82982 159.29924 46.72191 158.40717 47.82237 158.40717 48.92285 158.40717 49.81493 159.29924 49.81493 160.39972ZM47.82237 160.39972" fill="#9e0c0f" fill-opacity=".5"/>
<path transform="matrix(1.00009,0,0,-1.00002,5.993431,210.82663)" stroke-width=".3985" stroke-linecap="butt" stroke-miterlimit="10" stroke-linejoin="miter" fill="none" stroke="#9e0c0f" stroke-opacity=".5" d="M49.81493 160.39972C49.81493 161.50019 48.92285 162.39228 47.82237 162.39228 46.72191 162.39228 45.82982 161.50019 45.82982 160.39972 45.82982 159.29924 46.72191 158.40717 47.82237 158.40717 48.92285 158.40717 49.81493 159.29924 49.81493 160.39972ZM47.82237 160.39972"/>
</g>
<g>
<path transform="matrix(1.00009,0,0,-1.00002,5.993431,210.82663)" d="M73.72612 91.65698C73.72612 92.75745 72.83405 93.64954 71.73357 93.64954 70.6331 93.64954 69.74101 92.75745 69.74101 91.65698 69.74101 90.5565 70.6331 89.66443 71.73357 89.66443 72.83405 89.66443 73.72612 90.5565 73.72612 91.65698ZM71.73357 91.65698" fill="#9e0c0f" fill-opacity=".5"/>
<path transform="matrix(1.00009,0,0,-1.00002,5.993431,210.82663)" stroke-width=".3985" stroke-linecap="butt" stroke-miterlimit="10" stroke-linejoin="miter" fill="none" stroke="#9e0c0f" stroke-opacity=".5" d="M73.72612 91.65698C73.72612 92.75745 72.83405 93.64954 71.73357 93.64954 70.6331 93.64954 69.74101 92.75745 69.74101 91.65698 69.74101 90.5565 70.6331 89.66443 71.73357 89.66443 72.83405 89.66443 73.72612 90.5565 73.72612 91.65698ZM71.73357 91.65698"/>
</g>
<g>
<path transform="matrix(1.00009,0,0,-1.00002,5.993431,210.82663)" d="M193.28208 91.65698C193.28208 92.75745 192.39 93.64954 191.28952 93.64954 190.18906 93.64954 189.29697 92.75745 189.29697 91.65698 189.29697 90.5565 190.18906 89.66443 191.28952 89.66443 192.39 89.66443 193.28208 90.5565 193.28208 91.65698ZM191.28952 91.65698" fill="#9e0c0f" fill-opacity=".5"/>
<path transform="matrix(1.00009,0,0,-1.00002,5.993431,210.82663)" stroke-width=".3985" stroke-linecap="butt" stroke-miterlimit="10" stroke-linejoin="miter" fill="none" stroke="#9e0c0f" stroke-opacity=".5" d="M193.28208 91.65698C193.28208 92.75745 192.39 93.64954 191.28952 93.64954 190.18906 93.64954 189.29697 92.75745 189.29697 91.65698 189.29697 90.5565 190.18906 89.66443 191.28952 89.66443 192.39 89.66443 193.28208 90.5565 193.28208 91.65698ZM191.28952 91.65698"/>
</g>
<g>
<path transform="matrix(1.00009,0,0,-1.00002,5.993431,210.82663)" d="M133.5041 20.04996C133.5041 21.15044 132.61202 22.04251 131.51155 22.04251 130.41107 22.04251 129.519 21.15044 129.519 20.04996 129.519 18.9495 130.41107 18.0574 131.51155 18.0574 132.61202 18.0574 133.5041 18.9495 133.5041 20.04996ZM131.51155 20.04996" fill="#9e0c0f" fill-opacity=".5"/>
<path transform="matrix(1.00009,0,0,-1.00002,5.993431,210.82663)" stroke-width=".3985" stroke-linecap="butt" stroke-miterlimit="10" stroke-linejoin="miter" fill="none" stroke="#9e0c0f" stroke-opacity=".5" d="M133.5041 20.04996C133.5041 21.15044 132.61202 22.04251 131.51155 22.04251 130.41107 22.04251 129.519 21.15044 129.519 20.04996 129.519 18.9495 130.41107 18.0574 131.51155 18.0574 132.61202 18.0574 133.5041 18.9495 133.5041 20.04996ZM131.51155 20.04996"/>
</g>
<path transform="matrix(1.00009,0,0,-1.00002,5.993431,210.82663)" stroke-width=".3985" stroke-linecap="butt" stroke-miterlimit="10" stroke-linejoin="miter" fill="none" stroke="#9e0c0f" stroke-opacity=".5" d=""/>
<use data-text="x" xlink:href="#font_4_1" transform="matrix(9.963496,0,0,-9.962799,235.91211,115.64772)"/>
<use data-text="y" xlink:href="#font_4_2" transform="matrix(9.963496,0,0,-9.962799,57.34005,12.403656)"/>
</svg>
