<svg xmlns="http://www.w3.org/2000/svg" xmlns:xlink="http://www.w3.org/1999/xlink" version="1.1" width="354" height="17" viewBox="0 0 354 17">
<defs>
<path id="font_1_4" d="M.3919983 .29478456C.3919983 .050704957 .27598573 .008514404 .21798706 .008514404 .19699097 .008514404 .14498902 .011520386 .117996219 .04270935 .1619873 .046707155 .16499329 .079711917 .16499329 .08970642 .16499329 .1197052 .14199829 .13671875 .117996219 .13671875 .099990848 .13671875 .070999149 .12571717 .070999149 .08770752 .070999149 .019577027 .1269989-.021484375 .21899414-.021484375 .35598756-.021484375 .48599244 .114715579 .48599244 .3287964 .48599244 .58898928 .37098695 .66503909 .2679901 .66503909 .1499939 .66503909 .04399109 .5729828 .04399109 .44187928 .04399109 .31278993 .14099121 .21875 .2539978 .21875 .32499696 .21875 .36799623 .26374818 .3919983 .31478883V.29478456M.2579956 .24674988C.21199036 .24674988 .18299866 .26776124 .16099549 .30477906 .13798523 .34181214 .13798523 .3898468 .13798523 .44088746 .13798523 .4999237 .13798523 .54196169 .16499329 .58299258 .18998719 .61901858 .22200012 .6390381 .2689972 .6390381 .33599855 .6390381 .36499024 .5729828 .36799623 .5679779 .3889923 .51893618 .3899994 .44088746 .3899994 .42086793 .3899994 .34181214 .34700013 .24674988 .2579956 .24674988Z"/>
<path id="font_1_2" d="M.31399537 .63708499C.31399537 .664032 .31199647 .66503909 .2849884 .66503909 .24398804 .6251831 .19099427 .6013489 .09599304 .6013489V.5683594C.12298584 .5683594 .1769867 .5683594 .23498535 .5953522V.08203125C.23498535 .04499817 .23199463 .032989503 .13699341 .032989503H.101989749V0C.14299011 .0029907227 .22898865 .0029907227 .27398683 .0029907227 .31900025 .0029907227 .4059906 .0029907227 .44699098 0V.032989503H.4119873C.31698609 .032989503 .31399537 .04499817 .31399537 .08203125V.63708499Z"/>
<path id="font_1_1" d="M.4889984 .31877137C.4889984 .42585755 .47799684 .49090577 .44499208 .55496218 .40098573 .6430359 .31999208 .66503909 .2649994 .66503909 .13899231 .66503909 .09298706 .5709839 .07899475 .5429535 .042999269 .4698944 .040985109 .3708191 .040985109 .31877137 .040985109 .25271607 .04399109 .15162659 .09199524 .07156372 .13798523-.0024871827 .21199036-.021484375 .2649994-.021484375 .31298829-.021484375 .39898683-.0064849855 .44898988 .09257507 .48599244 .16464234 .4889984 .2537079 .4889984 .31877137M.2649994 .006515503C.23098755 .006515503 .1619873 .022521973 .14099121 .12760926 .12998963 .18466187 .12998963 .2787323 .12998963 .33078004 .12998963 .3998413 .12998963 .4698944 .14099121 .5249481 .1619873 .6270294 .23999024 .6370239 .2649994 .6370239 .29899598 .6370239 .36799623 .62002566 .3880005 .5289459 .3999939 .4738922 .3999939 .39883424 .3999939 .33078004 .3999939 .27172853 .3999939 .18165589 .3880005 .12561035 .36698915 .020523072 .2979889 .006515503 .2649994 .006515503Z"/>
<path id="font_1_3" d="M.13798523 .33073426C.13798523 .41377259 .14498902 .4868164 .18099976 .54782107 .21099854 .5978241 .2619934 .6390381 .32499696 .6390381 .34498597 .6390381 .3909912 .63601687 .4139862 .60084536 .36898805 .5988312 .36499024 .5648346 .36499024 .553833 .36499024 .5238342 .3880005 .50683596 .4119873 .50683596 .42999269 .50683596 .45899964 .51782229 .45899964 .5558319 .45899964 .615921 .4139862 .66503909 .32398988 .66503909 .18499756 .66503909 .04399109 .53282168 .04399109 .31672669 .04399109 .045532228 .16999817-.021484375 .2669983-.021484375 .31498719-.021484375 .36698915-.0084991459 .4119873 .03453064 .45199586 .07354736 .48599244 .11558533 .48599244 .20263672 .48599244 .33372499 .3869934 .42578126 .27598573 .42578126 .20399475 .42578126 .16099549 .37976075 .13798523 .33073426M.2669983 .008514404C.21398926 .008514404 .18099976 .045532228 .1659851 .07354736 .14299011 .11859131 .14099121 .18663025 .14099121 .22465515 .14099121 .32373048 .19499207 .3977661 .27198792 .3977661 .32199098 .3977661 .35198976 .37176515 .37098695 .33673097 .3919983 .29971314 .3919983 .25468446 .3919983 .2036438 .3919983 .15260315 .3919983 .10858154 .37199403 .07255554 .34599305 .026519776 .31098939 .008514404 .2669983 .008514404Z"/>
<path id="font_2_121" d="M.4889984 .31877137C.4889984 .42585755 .47799684 .49090577 .44499208 .55496218 .40098573 .6430359 .31999208 .66503909 .2649994 .66503909 .13899231 .66503909 .09298706 .5709839 .07899475 .5429535 .042999269 .4698944 .040985109 .3708191 .040985109 .31877137 .040985109 .25271607 .04399109 .15162659 .09199524 .07156372 .13798523-.0024871827 .21199036-.021484375 .2649994-.021484375 .31298829-.021484375 .39898683-.0064849855 .44898988 .09257507 .48599244 .16464234 .4889984 .2537079 .4889984 .31877137M.3999939 .33078004C.3999939 .27172853 .3999939 .18165589 .3880005 .12561035 .36698915 .020523072 .2979889 .006515503 .2649994 .006515503 .23098755 .006515503 .1619873 .022521973 .14099121 .12760926 .12998963 .18466187 .12998963 .2787323 .12998963 .33078004 .12998963 .3998413 .12998963 .4698944 .14099121 .5249481 .1619873 .6270294 .23999024 .6370239 .2649994 .6370239 .29899598 .6370239 .36799623 .62002566 .3880005 .5289459 .3999939 .4738922 .3999939 .39883424 .3999939 .33078004Z"/>
<path id="font_3_1" d="M.33399964 .30233766C.33999635 .32835389 .36299134 .42037965 .43299867 .42037965 .43798829 .42037965 .46199037 .42037965 .48298646 .40734864 .45498658 .402359 .43499757 .37734986 .43499757 .35334779 .43499757 .33735658 .44599916 .31835938 .47299195 .31835938 .49499513 .31835938 .5269928 .3363495 .5269928 .37635804 .5269928 .42837525 .46798707 .4423828 .43399049 .4423828 .37599183 .4423828 .34098817 .38935853 .32899476 .36634828 .3039856 .43237306 .25 .4423828 .22099304 .4423828 .116989139 .4423828 .05999756 .3133545 .05999756 .28834535 .05999756 .27833558 .069992069 .27833558 .07199097 .27833558 .07998657 .27833558 .08299255 .28033448 .084991458 .28933717 .11898804 .39535523 .18499756 .42037965 .21899414 .42037965 .23799134 .42037965 .272995 .4113617 .272995 .35334779 .272995 .32235719 .2559967 .25532533 .21899414 .11528015 .20298767 .053268434 .16799927 .011245728 .12399292 .011245728 .117996219 .011245728 .09498596 .011245728 .07398987 .024276734 .09899902 .029266358 .12098694 .05027771 .12098694 .07827759 .12098694 .105270389 .09899902 .11328125 .083999637 .11328125 .053985597 .11328125 .0289917 .08728027 .0289917 .055267335 .0289917 .009246826 .07899475-.0107421879 .12298584-.0107421879 .18899536-.0107421879 .22499085 .059280397 .22799683 .0652771 .23999024 .028274537 .27598573-.0107421879 .33599855-.0107421879 .43899537-.0107421879 .49598695 .118270877 .49598695 .14328003 .49598695 .1532898 .4869995 .1532898 .48399354 .1532898 .47499085 .1532898 .47299195 .14929199 .47099305 .14228821 .43798829 .03527832 .36999513 .011245728 .33799745 .011245728 .29899598 .011245728 .2829895 .043273927 .2829895 .07727051 .2829895 .09927368 .2889862 .121276859 .2999878 .16529846L.33399964 .30233766Z"/>
</defs>
<path transform="matrix(1,0,0,-1,30.520003,32.471)" stroke-width=".79701" stroke-linecap="butt" stroke-miterlimit="10" stroke-linejoin="miter" fill="none" stroke="#929292" d="M0 26.92972V29.76453M14.52882 26.92972V29.76453M29.05766 26.92972V29.76453M43.5865 26.92972V29.76453M58.11533 26.92972V29.76453M72.64417 26.92972V29.76453M87.173 26.92972V29.76453M101.70184 26.92972V29.76453M116.23067 26.92972V29.76453M130.7595 26.92972V29.76453M145.28835 26.92972V29.76453M159.81717 26.92972V29.76453M174.34601 26.92972V29.76453M188.87485 26.92972V29.76453M203.40369 26.92972V29.76453M217.93251 26.92972V29.76453M232.46135 26.92972V29.76453M246.99019 26.92972V29.76453M261.519 26.92972V29.76453M276.04786 26.92972V29.76453M290.5767 26.92972V29.76453"/>
<path transform="matrix(1,0,0,-1,30.520003,32.471)" stroke-width=".79701" stroke-linecap="butt" stroke-miterlimit="10" stroke-linejoin="miter" fill="none" stroke="#929292" d="M130.7595 26.22124V30.47299M145.28835 26.22124V30.47299M232.46135 26.22124V30.47299"/>
<path transform="matrix(1,0,0,-1,30.520003,32.471)" stroke-width=".3985" stroke-linecap="butt" stroke-miterlimit="10" stroke-linejoin="miter" fill="none" stroke="#000000" d="M-29.05943 28.34712H317.6436"/>
<path transform="matrix(1,0,0,-1,348.16358,4.1238806)" d="M1.99252 0-1.19551 1.59401 0 0-1.19551-1.59401"/>
<use data-text="9" xlink:href="#font_1_4" transform="matrix(7.9701,0,0,-7.9701,159.162,14.905998)"/>
<use data-text="1" xlink:href="#font_1_2" transform="matrix(7.9701,0,0,-7.9701,171.574,14.905998)"/>
<use data-text="0" xlink:href="#font_1_1" transform="matrix(7.9701,0,0,-7.9701,175.80612,14.905998)"/>
<use data-text="1" xlink:href="#font_1_2" transform="matrix(7.9701,0,0,-7.9701,258.747,14.905998)"/>
<use data-text="6" xlink:href="#font_1_3" transform="matrix(7.9701,0,0,-7.9701,262.97914,14.905998)"/>
<path transform="matrix(1,0,0,-1,30.520003,32.471)" d="M132.75206 28.34712C132.75206 29.44759 131.85997 30.33968 130.7595 30.33968 129.65903 30.33968 128.76696 29.44759 128.76696 28.34712 128.76696 27.24664 129.65903 26.35457 130.7595 26.35457 131.85997 26.35457 132.75206 27.24664 132.75206 28.34712ZM130.7595 28.34712" fill="#9e0c0f"/>
<path transform="matrix(1,0,0,-1,30.520003,32.471)" stroke-width=".3985" stroke-linecap="butt" stroke-miterlimit="10" stroke-linejoin="miter" fill="none" stroke="#9e0c0f" d="M132.75206 28.34712C132.75206 29.44759 131.85997 30.33968 130.7595 30.33968 129.65903 30.33968 128.76696 29.44759 128.76696 28.34712 128.76696 27.24664 129.65903 26.35457 130.7595 26.35457 131.85997 26.35457 132.75206 27.24664 132.75206 28.34712ZM130.7595 28.34712"/>
<path transform="matrix(1,0,0,-1,30.520003,32.471)" stroke-width=".3985" stroke-linecap="butt" stroke-miterlimit="10" stroke-linejoin="miter" fill="none" stroke="#9e0c0f" d=""/>
<path transform="matrix(1,0,0,-1,30.520003,32.471)" d="M147.2809 28.34712C147.2809 29.44759 146.38881 30.33968 145.28835 30.33968 144.18787 30.33968 143.29579 29.44759 143.29579 28.34712 143.29579 27.24664 144.18787 26.35457 145.28835 26.35457 146.38881 26.35457 147.2809 27.24664 147.2809 28.34712ZM145.28835 28.34712" fill="#9e0c0f"/>
<path transform="matrix(1,0,0,-1,30.520003,32.471)" stroke-width=".3985" stroke-linecap="butt" stroke-miterlimit="10" stroke-linejoin="miter" fill="none" stroke="#9e0c0f" d="M147.2809 28.34712C147.2809 29.44759 146.38881 30.33968 145.28835 30.33968 144.18787 30.33968 143.29579 29.44759 143.29579 28.34712 143.29579 27.24664 144.18787 26.35457 145.28835 26.35457 146.38881 26.35457 147.2809 27.24664 147.2809 28.34712ZM145.28835 28.34712"/>
<path transform="matrix(1,0,0,-1,30.520003,32.471)" stroke-width=".3985" stroke-linecap="butt" stroke-miterlimit="10" stroke-linejoin="miter" fill="none" stroke="#9e0c0f" d=""/>
<path transform="matrix(1,0,0,-1,30.520003,32.471)" d="M234.4539 28.34712C234.4539 29.44759 233.56182 30.33968 232.46135 30.33968 231.36087 30.33968 230.4688 29.44759 230.4688 28.34712 230.4688 27.24664 231.36087 26.35457 232.46135 26.35457 233.56182 26.35457 234.4539 27.24664 234.4539 28.34712ZM232.46135 28.34712" fill="#9e0c0f"/>
<path transform="matrix(1,0,0,-1,30.520003,32.471)" stroke-width=".3985" stroke-linecap="butt" stroke-miterlimit="10" stroke-linejoin="miter" fill="none" stroke="#9e0c0f" d="M234.4539 28.34712C234.4539 29.44759 233.56182 30.33968 232.46135 30.33968 231.36087 30.33968 230.4688 29.44759 230.4688 28.34712 230.4688 27.24664 231.36087 26.35457 232.46135 26.35457 233.56182 26.35457 234.4539 27.24664 234.4539 28.34712ZM232.46135 28.34712"/>
<path transform="matrix(1,0,0,-1,30.520003,32.471)" stroke-width=".3985" stroke-linecap="butt" stroke-miterlimit="10" stroke-linejoin="miter" fill="none" stroke="#9e0c0f" d=""/>
<use data-text="0" xlink:href="#font_2_121" transform="matrix(7.9701,0,0,-7.9701,28.404004,15.07)"/>
<use data-text="x" xlink:href="#font_3_1" transform="matrix(9.9626,0,0,-9.9626,347.28,11.936001)"/>
</svg>
