<svg xmlns="http://www.w3.org/2000/svg" xmlns:xlink="http://www.w3.org/1999/xlink" version="1.1" width="242" height="210" viewBox="0 0 242 210">
<defs>
<path id="font_1_1" d="M.69898989 .22743225C.71499636 .22743225 .7369995 .22743225 .7369995 .25042726 .7369995 .2734375 .71499636 .2734375 .69898989 .2734375H.12599182C.10998535 .2734375 .08799744 .2734375 .08799744 .25042726 .08799744 .22743225 .10998535 .22743225 .12599182 .22743225H.69898989Z"/>
<path id="font_2_6" d="M.33198548 .36080934C.3880005 .38783265 .45599366 .4378662 .45599366 .5159302 .45599366 .6110077 .35899354 .66503909 .2659912 .66503909 .1599884 .66503909 .07398987 .59199526 .07398987 .49790956 .07398987 .46089173 .08699036 .42686463 .11199951 .39782716 .1289978 .3768158 .1329956 .3748169 .19499207 .3357849 .070999149 .2807312 .04399109 .20767212 .04399109 .15162659 .04399109 .041534425 .15499878-.021484375 .2639923-.021484375 .3869934-.021484375 .48599244 .061553956 .48599244 .16764832 .48599244 .23069763 .45199586 .2727356 .43598939 .28974916 .4189911 .30575563 .41799928 .3067627 .33198548 .36080934M.1769867 .45487977C.147995 .4718933 .12399292 .5009155 .12399292 .5359497 .12399292 .598999 .19299317 .6390381 .2639923 .6390381 .34199525 .6390381 .4059906 .5859833 .4059906 .5159302 .4059906 .45788575 .36099244 .408844 .3019867 .37982179L.1769867 .45487977M.22599793 .31776429C.22999573 .31576539 .34399415 .24571228 .36099244 .23469544 .3769989 .22569275 .42900086 .19366455 .42900086 .13360596 .42900086 .056549074 .34799195 .008514404 .2659912 .008514404 .1769867 .008514404 .100997928 .06956482 .100997928 .15162659 .100997928 .22668457 .15699768 .28573609 .22599793 .31776429Z"/>
<path id="font_2_5" d="M.13798523 .33073426C.13798523 .41377259 .14498902 .4868164 .18099976 .54782107 .21099854 .5978241 .2619934 .6390381 .32499696 .6390381 .34498597 .6390381 .3909912 .63601687 .4139862 .60084536 .36898805 .5988312 .36499024 .5648346 .36499024 .553833 .36499024 .5238342 .3880005 .50683596 .4119873 .50683596 .42999269 .50683596 .45899964 .51782229 .45899964 .5558319 .45899964 .615921 .4139862 .66503909 .32398988 .66503909 .18499756 .66503909 .04399109 .53282168 .04399109 .31672669 .04399109 .045532228 .16999817-.021484375 .2669983-.021484375 .31498719-.021484375 .36698915-.0084991459 .4119873 .03453064 .45199586 .07354736 .48599244 .11558533 .48599244 .20263672 .48599244 .33372499 .3869934 .42578126 .27598573 .42578126 .20399475 .42578126 .16099549 .37976075 .13798523 .33073426M.2669983 .008514404C.21398926 .008514404 .18099976 .045532228 .1659851 .07354736 .14299011 .11859131 .14099121 .18663025 .14099121 .22465515 .14099121 .32373048 .19499207 .3977661 .27198792 .3977661 .32199098 .3977661 .35198976 .37176515 .37098695 .33673097 .3919983 .29971314 .3919983 .25468446 .3919983 .2036438 .3919983 .15260315 .3919983 .10858154 .37199403 .07255554 .34599305 .026519776 .31098939 .008514404 .2669983 .008514404Z"/>
<path id="font_2_4" d="M.3939972 .6468048C.3939972 .6667938 .3939972 .6748047 .37298585 .6748047 .3600006 .6748047 .35899354 .6737976 .34899903 .65979006L.02999878 .197052V.1640625H.31199647V.08100891C.31199647 .04399109 .30899049 .032989503 .23199463 .032989503H.20899964V0C.2939911 .0029907227 .29599 .0029907227 .35299684 .0029907227 .4099884 .0029907227 .4119873 .0029907227 .49699403 0V.032989503H.47399903C.39698792 .032989503 .3939972 .04399109 .3939972 .08100891V.1640625H.5V.197052H.3939972V.6468048M.31900025 .5658417V.197052H.06498718L.31900025 .5658417Z"/>
<path id="font_2_3" d="M.28199769 .20405579C.2979889 .21907044 .33999635 .2520752 .35598756 .26608277 .41799928 .32312013 .47698976 .3781433 .47698976 .46917726 .47698976 .588089 .3769989 .66503909 .2519989 .66503909 .13198853 .66503909 .052993776 .57411196 .052993776 .48516847 .052993776 .4361725 .09199524 .4291687 .10598755 .4291687 .1269989 .4291687 .1579895 .4441681 .1579895 .48217774 .1579895 .5341797 .10798645 .5341797 .09599304 .5341797 .125 .6070709 .19198609 .6320343 .24099732 .6320343 .33399964 .6320343 .38198854 .55314639 .38198854 .46917726 .38198854 .36514283 .30899049 .28910829 .19099427 .16804505L.06498718 .037994386C.052993776 .026992798 .052993776 .024993897 .052993776 0H.44799806L.47698976 .17904663H.44599916C.44299317 .1590271 .43499757 .10900879 .4229889 .08999634 .4169922 .08198547 .34098817 .08198547 .32499696 .08198547H.14698792L.28199769 .20405579Z"/>
<path id="font_2_2" d="M.31399537 .63708499C.31399537 .664032 .31199647 .66503909 .2849884 .66503909 .24398804 .6251831 .19099427 .6013489 .09599304 .6013489V.5683594C.12298584 .5683594 .1769867 .5683594 .23498535 .5953522V.08203125C.23498535 .04499817 .23199463 .032989503 .13699341 .032989503H.101989749V0C.14299011 .0029907227 .22898865 .0029907227 .27398683 .0029907227 .31900025 .0029907227 .4059906 .0029907227 .44699098 0V.032989503H.4119873C.31698609 .032989503 .31399537 .04499817 .31399537 .08203125V.63708499Z"/>
<path id="font_2_1" d="M.4889984 .31877137C.4889984 .42585755 .47799684 .49090577 .44499208 .55496218 .40098573 .6430359 .31999208 .66503909 .2649994 .66503909 .13899231 .66503909 .09298706 .5709839 .07899475 .5429535 .042999269 .4698944 .040985109 .3708191 .040985109 .31877137 .040985109 .25271607 .04399109 .15162659 .09199524 .07156372 .13798523-.0024871827 .21199036-.021484375 .2649994-.021484375 .31298829-.021484375 .39898683-.0064849855 .44898988 .09257507 .48599244 .16464234 .4889984 .2537079 .4889984 .31877137M.2649994 .006515503C.23098755 .006515503 .1619873 .022521973 .14099121 .12760926 .12998963 .18466187 .12998963 .2787323 .12998963 .33078004 .12998963 .3998413 .12998963 .4698944 .14099121 .5249481 .1619873 .6270294 .23999024 .6370239 .2649994 .6370239 .29899598 .6370239 .36799623 .62002566 .3880005 .5289459 .3999939 .4738922 .3999939 .39883424 .3999939 .33078004 .3999939 .27172853 .3999939 .18165589 .3880005 .12561035 .36698915 .020523072 .2979889 .006515503 .2649994 .006515503Z"/>
<clipPath id="clip_3">
<path transform="matrix(1.00003,0,0,-1.00002,1.4615555,208.02556)" d="M0 0H239.10507V206.22623H0Z"/>
</clipPath>
<path id="font_4_1" d="M.33399964 .30233766C.33999635 .32835389 .36299134 .42037965 .43299867 .42037965 .43798829 .42037965 .46199037 .42037965 .48298646 .40734864 .45498658 .402359 .43499757 .37734986 .43499757 .35334779 .43499757 .33735658 .44599916 .31835938 .47299195 .31835938 .49499513 .31835938 .5269928 .3363495 .5269928 .37635804 .5269928 .42837525 .46798707 .4423828 .43399049 .4423828 .37599183 .4423828 .34098817 .38935853 .32899476 .36634828 .3039856 .43237306 .25 .4423828 .22099304 .4423828 .116989139 .4423828 .05999756 .3133545 .05999756 .28834535 .05999756 .27833558 .069992069 .27833558 .07199097 .27833558 .07998657 .27833558 .08299255 .28033448 .084991458 .28933717 .11898804 .39535523 .18499756 .42037965 .21899414 .42037965 .23799134 .42037965 .272995 .4113617 .272995 .35334779 .272995 .32235719 .2559967 .25532533 .21899414 .11528015 .20298767 .053268434 .16799927 .011245728 .12399292 .011245728 .117996219 .011245728 .09498596 .011245728 .07398987 .024276734 .09899902 .029266358 .12098694 .05027771 .12098694 .07827759 .12098694 .105270389 .09899902 .11328125 .083999637 .11328125 .053985597 .11328125 .0289917 .08728027 .0289917 .055267335 .0289917 .009246826 .07899475-.0107421879 .12298584-.0107421879 .18899536-.0107421879 .22499085 .059280397 .22799683 .0652771 .23999024 .028274537 .27598573-.0107421879 .33599855-.0107421879 .43899537-.0107421879 .49598695 .118270877 .49598695 .14328003 .49598695 .1532898 .4869995 .1532898 .48399354 .1532898 .47499085 .1532898 .47299195 .14929199 .47099305 .14228821 .43798829 .03527832 .36999513 .011245728 .33799745 .011245728 .29899598 .011245728 .2829895 .043273927 .2829895 .07727051 .2829895 .09927368 .2889862 .121276859 .2999878 .16529846L.33399964 .30233766Z"/>
<path id="font_4_2" d="M.48599244 .38136292C.48999024 .39537049 .48999024 .39736939 .48999024 .40437318 .48999024 .42237855 .47599793 .43138124 .46099855 .43138124 .45098878 .43138124 .43499757 .42536927 .42599488 .41036988 .42399598 .405365 .41600038 .37435914 .4119873 .35635377 .40499879 .33035279 .397995 .30334474 .3919983 .27633668L.34700013 .09628296C.34298707 .08126831 .2999878 .011245728 .23399353 .011245728 .18299866 .011245728 .17199707 .055267335 .17199707 .0922699 .17199707 .1382904 .18899536 .20030213 .22299195 .28833009 .23899842 .3293457 .24299622 .3403473 .24299622 .36035157 .24299622 .405365 .21099854 .4423828 .16099549 .4423828 .06599426 .4423828 .0289917 .29733277 .0289917 .28833009 .0289917 .27833558 .038986207 .27833558 .040985109 .27833558 .050994874 .27833558 .051986696 .28033448 .056991579 .29634095 .083999637 .3903656 .12399292 .42037965 .1579895 .42037965 .1659851 .42037965 .18299866 .42037965 .18299866 .3883667 .18299866 .36335755 .17298889 .3373413 .1659851 .31834413 .12599182 .21231079 .10798645 .1552887 .10798645 .10827637 .10798645 .019256592 .17098999-.0107421879 .22999573-.0107421879 .2689972-.0107421879 .30299378 .0062561037 .33099366 .03425598 .31799317-.017745972 .30599977-.06674194 .2659912-.11973572 .23999024-.15385437 .20199585-.18309021 .1559906-.18309021 .14199829-.18309021 .09700012-.18005371 .07998657-.14074707 .09599304-.14074707 .10899353-.14074707 .12298584-.1287384 .1329956-.11973572 .14299011-.10673523 .14299011-.08773804 .14299011-.056747438 .115997318-.052734376 .10598755-.052734376 .08299255-.052734376 .049987794-.068740848 .049987794-.11773682 .049987794-.16796875 .09399414-.20507813 .1559906-.20507813 .25898744-.20507813 .3619995-.11373901 .3899994-.00074768069L.48599244 .38136292Z"/>
</defs>
<path transform="matrix(1.00003,0,0,-1.00002,1.4615555,208.02556)" d="M0 0H239.10507V206.22623H0Z" fill="#fffac2"/>
<path transform="matrix(1.00003,0,0,-1.00002,1.4615555,208.02556)" stroke-width=".3985" stroke-linecap="butt" stroke-miterlimit="10" stroke-linejoin="miter" fill="none" stroke="#d5d6d5" d="M0 0V206.22623M15.94034 0V206.22623M31.88068 0V206.22623M47.82101 0V206.22623M63.76135 0V206.22623M79.70169 0V206.22623M95.64203 0V206.22623M111.58237 0V206.22623M127.5227 0V206.22623M143.46305 0V206.22623M159.40338 0V206.22623M175.34372 0V206.22623M191.28406 0V206.22623M207.2244 0V206.22623M223.16474 0V206.22623M239.10507 0V206.22623"/>
<path transform="matrix(1.00003,0,0,-1.00002,1.4615555,208.02556)" stroke-width=".3985" stroke-linecap="butt" stroke-miterlimit="10" stroke-linejoin="miter" fill="none" stroke="#d5d6d5" d="M31.88068 0V206.22623M63.76135 0V206.22623M95.64203 0V206.22623M127.5227 0V206.22623M191.28406 0V206.22623M223.16474 0V206.22623"/>
<path transform="matrix(1.00003,0,0,-1.00002,1.4615555,208.02556)" stroke-width=".3985" stroke-linecap="butt" stroke-miterlimit="10" stroke-linejoin="miter" fill="none" stroke="#d5d6d5" d="M0 0H239.10507M0 8.24904H239.10507M0 16.4981H239.10507M0 24.74715H239.10507M0 32.99619H239.10507M0 41.24524H239.10507M0 49.4943H239.10507M0 57.74333H239.10507M0 65.99239H239.10507M0 74.24144H239.10507M0 82.4905H239.10507M0 90.73953H239.10507M0 98.98859H239.10507M0 107.23764H239.10507M0 115.48668H239.10507M0 123.73573H239.10507M0 131.98479H239.10507M0 140.23384H239.10507M0 148.48288H239.10507M0 156.73194H239.10507M0 164.98099H239.10507M0 173.23003H239.10507M0 181.47908H239.10507M0 189.72814H239.10507M0 197.97719H239.10507M0 206.22623H239.10507"/>
<path transform="matrix(1.00003,0,0,-1.00002,1.4615555,208.02556)" stroke-width=".3985" stroke-linecap="butt" stroke-miterlimit="10" stroke-linejoin="miter" fill="none" stroke="#d5d6d5" d="M0 8.24904H239.10507M0 24.74715H239.10507M0 41.24524H239.10507M0 57.74333H239.10507M0 74.24144H239.10507M0 90.73953H239.10507M0 107.23764H239.10507M0 140.23384H239.10507M0 156.73194H239.10507M0 173.23003H239.10507M0 189.72814H239.10507"/>
<path transform="matrix(1.00003,0,0,-1.00002,1.4615555,208.02556)" stroke-width=".19925" stroke-linecap="butt" stroke-miterlimit="10" stroke-linejoin="miter" fill="none" stroke="#929292" d="M0 122.31837V125.1531M15.94034 122.31837V125.1531M31.88068 122.31837V125.1531M47.82101 122.31837V125.1531M63.76135 122.31837V125.1531M79.70169 122.31837V125.1531M95.64203 122.31837V125.1531M111.58237 122.31837V125.1531M127.5227 122.31837V125.1531M143.46305 122.31837V125.1531M159.40338 122.31837V125.1531M175.34372 122.31837V125.1531M191.28406 122.31837V125.1531M207.2244 122.31837V125.1531M223.16474 122.31837V125.1531M239.10507 122.31837V125.1531"/>
<path transform="matrix(1.00003,0,0,-1.00002,1.4615555,208.02556)" stroke-width=".19925" stroke-linecap="butt" stroke-miterlimit="10" stroke-linejoin="miter" fill="none" stroke="#929292" d="M31.88068 121.6099V125.86157M63.76135 121.6099V125.86157M95.64203 121.6099V125.86157M127.5227 121.6099V125.86157M191.28406 121.6099V125.86157M223.16474 121.6099V125.86157"/>
<path transform="matrix(1.00003,0,0,-1.00002,1.4615555,208.02556)" stroke-width=".19925" stroke-linecap="butt" stroke-miterlimit="10" stroke-linejoin="miter" fill="none" stroke="#929292" d="M157.98598 0H160.8208M157.98598 8.24904H160.8208M157.98598 16.4981H160.8208M157.98598 24.74715H160.8208M157.98598 32.99619H160.8208M157.98598 41.24524H160.8208M157.98598 49.4943H160.8208M157.98598 57.74333H160.8208M157.98598 65.99239H160.8208M157.98598 74.24144H160.8208M157.98598 82.4905H160.8208M157.98598 90.73953H160.8208M157.98598 98.98859H160.8208M157.98598 107.23764H160.8208M157.98598 115.48668H160.8208M157.98598 123.73573H160.8208M157.98598 131.98479H160.8208M157.98598 140.23384H160.8208M157.98598 148.48288H160.8208M157.98598 156.73194H160.8208M157.98598 164.98099H160.8208M157.98598 173.23003H160.8208M157.98598 181.47908H160.8208M157.98598 189.72814H160.8208M157.98598 197.97719H160.8208M157.98598 206.22623H160.8208"/>
<path transform="matrix(1.00003,0,0,-1.00002,1.4615555,208.02556)" stroke-width=".19925" stroke-linecap="butt" stroke-miterlimit="10" stroke-linejoin="miter" fill="none" stroke="#929292" d="M157.27747 8.24904H161.52927M157.27747 24.74715H161.52927M157.27747 41.24524H161.52927M157.27747 57.74333H161.52927M157.27747 74.24144H161.52927M157.27747 90.73953H161.52927M157.27747 107.23764H161.52927M157.27747 140.23384H161.52927M157.27747 156.73194H161.52927M157.27747 173.23003H161.52927M157.27747 189.72814H161.52927"/>
<path transform="matrix(1.00003,0,0,-1.00002,1.4615555,208.02556)" stroke-width=".3985" stroke-linecap="butt" stroke-miterlimit="10" stroke-linejoin="miter" fill="none" stroke="#000000" d="M1.99252 123.73573H237.11255"/>
<path transform="matrix(-1.00003,-0,0,1.00002,3.4541355,84.287349)" d="M1.99252 0-1.19551 1.59401 0 0-1.19551-1.59401"/>
<path transform="matrix(1.00003,0,0,-1.00002,238.58124,84.287349)" d="M1.99252 0-1.19551 1.59401 0 0-1.19551-1.59401"/>
<path transform="matrix(1.00003,0,0,-1.00002,1.4615555,208.02556)" stroke-width=".3985" stroke-linecap="butt" stroke-miterlimit="10" stroke-linejoin="miter" fill="none" stroke="#000000" d="M159.40338 1.99252V204.2337"/>
<path transform="matrix(0,1.00002,1.00003,0,160.86972,206.033)" d="M1.99252 0-1.19551 1.59401 0 0-1.19551-1.59401"/>
<path transform="matrix(0,-1.00002,-1.00003,-0,160.86972,3.7877656)" d="M1.99252 0-1.19551 1.59401 0 0-1.19551-1.59401"/>
<use data-text="&#x2212;" xlink:href="#font_1_1" transform="matrix(7.9703395,0,0,-7.9702599,27.93235,95.06929)"/>
<use data-text="8" xlink:href="#font_2_6" transform="matrix(7.9703395,0,0,-7.9702599,34.519548,95.06929)"/>
<use data-text="&#x2212;" xlink:href="#font_1_1" transform="matrix(7.9703395,0,0,-7.9702599,59.814313,95.06929)"/>
<use data-text="6" xlink:href="#font_2_5" transform="matrix(7.9703395,0,0,-7.9702599,66.40151,95.06929)"/>
<use data-text="&#x2212;" xlink:href="#font_1_1" transform="matrix(7.9703395,0,0,-7.9702599,91.696269,95.06929)"/>
<use data-text="4" xlink:href="#font_2_4" transform="matrix(7.9703395,0,0,-7.9702599,98.28346,95.06929)"/>
<use data-text="&#x2212;" xlink:href="#font_1_1" transform="matrix(7.9703395,0,0,-7.9702599,123.577228,95.06929)"/>
<use data-text="2" xlink:href="#font_2_3" transform="matrix(7.9703395,0,0,-7.9702599,130.16443,95.06929)"/>
<use data-text="2" xlink:href="#font_2_3" transform="matrix(7.9703395,0,0,-7.9702599,190.63425,95.06929)"/>
<use data-text="4" xlink:href="#font_2_4" transform="matrix(7.9703395,0,0,-7.9702599,222.5162,95.06929)"/>
<use data-text="&#x2212;" xlink:href="#font_1_1" transform="matrix(7.9703395,0,0,-7.9702599,142.05878,201.92945)"/>
<use data-text="1" xlink:href="#font_2_2" transform="matrix(7.9703395,0,0,-7.9702599,148.64598,201.92945)"/>
<use data-text="4" xlink:href="#font_2_4" transform="matrix(7.9703395,0,0,-7.9702599,152.87824,201.92945)"/>
<use data-text="&#x2212;" xlink:href="#font_1_1" transform="matrix(7.9703395,0,0,-7.9702599,142.05878,185.4311)"/>
<use data-text="1" xlink:href="#font_2_2" transform="matrix(7.9703395,0,0,-7.9702599,148.64598,185.4311)"/>
<use data-text="2" xlink:href="#font_2_3" transform="matrix(7.9703395,0,0,-7.9702599,152.87824,185.4311)"/>
<use data-text="&#x2212;" xlink:href="#font_1_1" transform="matrix(7.9703395,0,0,-7.9702599,142.05878,168.93277)"/>
<use data-text="1" xlink:href="#font_2_2" transform="matrix(7.9703395,0,0,-7.9702599,148.64598,168.93277)"/>
<use data-text="0" xlink:href="#font_2_1" transform="matrix(7.9703395,0,0,-7.9702599,152.87824,168.93277)"/>
<use data-text="&#x2212;" xlink:href="#font_1_1" transform="matrix(7.9703395,0,0,-7.9702599,146.29392,152.43445)"/>
<use data-text="8" xlink:href="#font_2_6" transform="matrix(7.9703395,0,0,-7.9702599,152.8811,152.43445)"/>
<use data-text="&#x2212;" xlink:href="#font_1_1" transform="matrix(7.9703395,0,0,-7.9702599,146.29392,135.93613)"/>
<use data-text="6" xlink:href="#font_2_5" transform="matrix(7.9703395,0,0,-7.9702599,152.8811,135.93613)"/>
<use data-text="&#x2212;" xlink:href="#font_1_1" transform="matrix(7.9703395,0,0,-7.9702599,146.29392,119.43678)"/>
<use data-text="4" xlink:href="#font_2_4" transform="matrix(7.9703395,0,0,-7.9702599,152.8811,119.43678)"/>
<use data-text="&#x2212;" xlink:href="#font_1_1" transform="matrix(7.9703395,0,0,-7.9702599,146.29392,102.93845)"/>
<use data-text="2" xlink:href="#font_2_3" transform="matrix(7.9703395,0,0,-7.9702599,152.8811,102.93845)"/>
<use data-text="2" xlink:href="#font_2_3" transform="matrix(7.9703395,0,0,-7.9702599,152.8801,70.3568)"/>
<use data-text="4" xlink:href="#font_2_4" transform="matrix(7.9703395,0,0,-7.9702599,152.8801,53.858476)"/>
<use data-text="6" xlink:href="#font_2_5" transform="matrix(7.9703395,0,0,-7.9702599,152.8801,37.360139)"/>
<use data-text="8" xlink:href="#font_2_6" transform="matrix(7.9703395,0,0,-7.9702599,152.8801,20.861802)"/>
<g clip-path="url(#clip_3)">
<path transform="matrix(1.00003,0,0,-1.00002,1.4615555,208.02556)" stroke-width=".99628" stroke-linecap="butt" stroke-miterlimit="10" stroke-linejoin="miter" fill="none" stroke="#9e0c0f" d="M28.4387 198.15326 33.15321 175.60474 39.55856 147.63335 45.96393 122.32571 52.3693 99.68231 58.77463 79.7027 65.17998 62.38701 71.58533 47.73538 77.9907 35.7475 84.39604 26.42369 90.80139 19.76382 97.20674 15.76787 103.61212 14.4358 110.01746 15.76776 116.4228 19.76363 122.82814 26.42345 129.2335 35.74721 135.63887 47.73495 142.04422 62.3866 148.44956 79.70216 154.85492 99.68169 161.26027 122.32518 167.6656 147.6326 174.07097 175.60396 178.7855 198.15238"/>
<path transform="matrix(-.20465616,-.9788196,-.9788294,.2046541,30.045285,10.557892)" d="M7.39124 0 2.37614 1.6717 .70447 0 2.37614-1.6717Z" fill="#9e0c0f"/>
<path transform="matrix(-.20465616,-.9788196,-.9788294,.2046541,30.045285,10.557892)" stroke-width=".99628" stroke-linecap="butt" stroke-miterlimit="10" stroke-linejoin="miter" fill="none" stroke="#9e0c0f" d="M7.39124 0 2.37614 1.6717 .70447 0 2.37614-1.6717Z"/>
<path transform="matrix(.20465616,-.9788196,-.9788294,-.2046541,180.10825,10.558777)" d="M7.39124 0 2.37614 1.6717 .70447 0 2.37614-1.6717Z" fill="#9e0c0f"/>
<path transform="matrix(.20465616,-.9788196,-.9788294,-.2046541,180.10825,10.558777)" stroke-width=".99628" stroke-linecap="butt" stroke-miterlimit="10" stroke-linejoin="miter" fill="none" stroke="#9e0c0f" d="M7.39124 0 2.37614 1.6717 .70447 0 2.37614-1.6717Z"/>
</g>
<path transform="matrix(1.00003,0,0,-1.00002,1.4615555,208.02556)" d="M33.87323 181.47908C33.87323 182.57956 32.98114 183.47164 31.88068 183.47164 30.7802 183.47164 29.88812 182.57956 29.88812 181.47908 29.88812 180.37862 30.7802 179.48653 31.88068 179.48653 32.98114 179.48653 33.87323 180.37862 33.87323 181.47908ZM31.88068 181.47908" fill="#9e0c0f"/>
<path transform="matrix(1.00003,0,0,-1.00002,1.4615555,208.02556)" stroke-width=".3985" stroke-linecap="butt" stroke-miterlimit="10" stroke-linejoin="miter" fill="none" stroke="#9e0c0f" d="M33.87323 181.47908C33.87323 182.57956 32.98114 183.47164 31.88068 183.47164 30.7802 183.47164 29.88812 182.57956 29.88812 181.47908 29.88812 180.37862 30.7802 179.48653 31.88068 179.48653 32.98114 179.48653 33.87323 180.37862 33.87323 181.47908ZM31.88068 181.47908"/>
<path transform="matrix(1.00003,0,0,-1.00002,1.4615555,208.02556)" d="M49.81357 115.48668C49.81357 116.58716 48.92148 117.47923 47.82101 117.47923 46.72054 117.47923 45.82846 116.58716 45.82846 115.48668 45.82846 114.38622 46.72054 113.49413 47.82101 113.49413 48.92148 113.49413 49.81357 114.38622 49.81357 115.48668ZM47.82101 115.48668" fill="#9e0c0f"/>
<path transform="matrix(1.00003,0,0,-1.00002,1.4615555,208.02556)" stroke-width=".3985" stroke-linecap="butt" stroke-miterlimit="10" stroke-linejoin="miter" fill="none" stroke="#9e0c0f" d="M49.81357 115.48668C49.81357 116.58716 48.92148 117.47923 47.82101 117.47923 46.72054 117.47923 45.82846 116.58716 45.82846 115.48668 45.82846 114.38622 46.72054 113.49413 47.82101 113.49413 48.92148 113.49413 49.81357 114.38622 49.81357 115.48668ZM47.82101 115.48668"/>
<path transform="matrix(1.00003,0,0,-1.00002,1.4615555,208.02556)" d="M65.7539 65.99239C65.7539 67.09286 64.86182 67.98494 63.76135 67.98494 62.66087 67.98494 61.7688 67.09286 61.7688 65.99239 61.7688 64.89192 62.66087 63.99983 63.76135 63.99983 64.86182 63.99983 65.7539 64.89192 65.7539 65.99239ZM63.76135 65.99239" fill="#9e0c0f"/>
<path transform="matrix(1.00003,0,0,-1.00002,1.4615555,208.02556)" stroke-width=".3985" stroke-linecap="butt" stroke-miterlimit="10" stroke-linejoin="miter" fill="none" stroke="#9e0c0f" d="M65.7539 65.99239C65.7539 67.09286 64.86182 67.98494 63.76135 67.98494 62.66087 67.98494 61.7688 67.09286 61.7688 65.99239 61.7688 64.89192 62.66087 63.99983 63.76135 63.99983 64.86182 63.99983 65.7539 64.89192 65.7539 65.99239ZM63.76135 65.99239"/>
<path transform="matrix(1.00003,0,0,-1.00002,1.4615555,208.02556)" d="M81.69424 32.99619C81.69424 34.09666 80.80215 34.98874 79.70169 34.98874 78.60121 34.98874 77.70914 34.09666 77.70914 32.99619 77.70914 31.89572 78.60121 31.00363 79.70169 31.00363 80.80215 31.00363 81.69424 31.89572 81.69424 32.99619ZM79.70169 32.99619" fill="#9e0c0f"/>
<path transform="matrix(1.00003,0,0,-1.00002,1.4615555,208.02556)" stroke-width=".3985" stroke-linecap="butt" stroke-miterlimit="10" stroke-linejoin="miter" fill="none" stroke="#9e0c0f" d="M81.69424 32.99619C81.69424 34.09666 80.80215 34.98874 79.70169 34.98874 78.60121 34.98874 77.70914 34.09666 77.70914 32.99619 77.70914 31.89572 78.60121 31.00363 79.70169 31.00363 80.80215 31.00363 81.69424 31.89572 81.69424 32.99619ZM79.70169 32.99619"/>
<path transform="matrix(1.00003,0,0,-1.00002,1.4615555,208.02556)" d="M97.63458 16.4981C97.63458 17.59856 96.7425 18.49065 95.64203 18.49065 94.54155 18.49065 93.64948 17.59856 93.64948 16.4981 93.64948 15.39761 94.54155 14.50554 95.64203 14.50554 96.7425 14.50554 97.63458 15.39761 97.63458 16.4981ZM95.64203 16.4981" fill="#9e0c0f"/>
<path transform="matrix(1.00003,0,0,-1.00002,1.4615555,208.02556)" stroke-width=".3985" stroke-linecap="butt" stroke-miterlimit="10" stroke-linejoin="miter" fill="none" stroke="#9e0c0f" d="M97.63458 16.4981C97.63458 17.59856 96.7425 18.49065 95.64203 18.49065 94.54155 18.49065 93.64948 17.59856 93.64948 16.4981 93.64948 15.39761 94.54155 14.50554 95.64203 14.50554 96.7425 14.50554 97.63458 15.39761 97.63458 16.4981ZM95.64203 16.4981"/>
<path transform="matrix(1.00003,0,0,-1.00002,1.4615555,208.02556)" d="M105.60475 14.43582C105.60475 15.53629 104.71266 16.42838 103.6122 16.42838 102.51172 16.42838 101.61964 15.53629 101.61964 14.43582 101.61964 13.33536 102.51172 12.44327 103.6122 12.44327 104.71266 12.44327 105.60475 13.33536 105.60475 14.43582ZM103.6122 14.43582" fill="#9e0c0f"/>
<path transform="matrix(1.00003,0,0,-1.00002,1.4615555,208.02556)" stroke-width=".3985" stroke-linecap="butt" stroke-miterlimit="10" stroke-linejoin="miter" fill="none" stroke="#9e0c0f" d="M105.60475 14.43582C105.60475 15.53629 104.71266 16.42838 103.6122 16.42838 102.51172 16.42838 101.61964 15.53629 101.61964 14.43582 101.61964 13.33536 102.51172 12.44327 103.6122 12.44327 104.71266 12.44327 105.60475 13.33536 105.60475 14.43582ZM103.6122 14.43582"/>
<path transform="matrix(1.00003,0,0,-1.00002,1.4615555,208.02556)" d="M113.57492 16.4981C113.57492 17.59856 112.68283 18.49065 111.58237 18.49065 110.48189 18.49065 109.58981 17.59856 109.58981 16.4981 109.58981 15.39761 110.48189 14.50554 111.58237 14.50554 112.68283 14.50554 113.57492 15.39761 113.57492 16.4981ZM111.58237 16.4981" fill="#9e0c0f"/>
<path transform="matrix(1.00003,0,0,-1.00002,1.4615555,208.02556)" stroke-width=".3985" stroke-linecap="butt" stroke-miterlimit="10" stroke-linejoin="miter" fill="none" stroke="#9e0c0f" d="M113.57492 16.4981C113.57492 17.59856 112.68283 18.49065 111.58237 18.49065 110.48189 18.49065 109.58981 17.59856 109.58981 16.4981 109.58981 15.39761 110.48189 14.50554 111.58237 14.50554 112.68283 14.50554 113.57492 15.39761 113.57492 16.4981ZM111.58237 16.4981"/>
<path transform="matrix(1.00003,0,0,-1.00002,1.4615555,208.02556)" d="M129.51526 32.99619C129.51526 34.09666 128.62317 34.98874 127.5227 34.98874 126.42223 34.98874 125.53015 34.09666 125.53015 32.99619 125.53015 31.89572 126.42223 31.00363 127.5227 31.00363 128.62317 31.00363 129.51526 31.89572 129.51526 32.99619ZM127.5227 32.99619" fill="#9e0c0f"/>
<path transform="matrix(1.00003,0,0,-1.00002,1.4615555,208.02556)" stroke-width=".3985" stroke-linecap="butt" stroke-miterlimit="10" stroke-linejoin="miter" fill="none" stroke="#9e0c0f" d="M129.51526 32.99619C129.51526 34.09666 128.62317 34.98874 127.5227 34.98874 126.42223 34.98874 125.53015 34.09666 125.53015 32.99619 125.53015 31.89572 126.42223 31.00363 127.5227 31.00363 128.62317 31.00363 129.51526 31.89572 129.51526 32.99619ZM127.5227 32.99619"/>
<path transform="matrix(1.00003,0,0,-1.00002,1.4615555,208.02556)" d="M145.4556 65.99239C145.4556 67.09286 144.5635 67.98494 143.46305 67.98494 142.36257 67.98494 141.47049 67.09286 141.47049 65.99239 141.47049 64.89192 142.36257 63.99983 143.46305 63.99983 144.5635 63.99983 145.4556 64.89192 145.4556 65.99239ZM143.46305 65.99239" fill="#9e0c0f"/>
<path transform="matrix(1.00003,0,0,-1.00002,1.4615555,208.02556)" stroke-width=".3985" stroke-linecap="butt" stroke-miterlimit="10" stroke-linejoin="miter" fill="none" stroke="#9e0c0f" d="M145.4556 65.99239C145.4556 67.09286 144.5635 67.98494 143.46305 67.98494 142.36257 67.98494 141.47049 67.09286 141.47049 65.99239 141.47049 64.89192 142.36257 63.99983 143.46305 63.99983 144.5635 63.99983 145.4556 64.89192 145.4556 65.99239ZM143.46305 65.99239"/>
<path transform="matrix(1.00003,0,0,-1.00002,1.4615555,208.02556)" d="M161.39594 115.48668C161.39594 116.58716 160.50385 117.47923 159.40338 117.47923 158.3029 117.47923 157.41083 116.58716 157.41083 115.48668 157.41083 114.38622 158.3029 113.49413 159.40338 113.49413 160.50385 113.49413 161.39594 114.38622 161.39594 115.48668ZM159.40338 115.48668" fill="#9e0c0f"/>
<path transform="matrix(1.00003,0,0,-1.00002,1.4615555,208.02556)" stroke-width=".3985" stroke-linecap="butt" stroke-miterlimit="10" stroke-linejoin="miter" fill="none" stroke="#9e0c0f" d="M161.39594 115.48668C161.39594 116.58716 160.50385 117.47923 159.40338 117.47923 158.3029 117.47923 157.41083 116.58716 157.41083 115.48668 157.41083 114.38622 158.3029 113.49413 159.40338 113.49413 160.50385 113.49413 161.39594 114.38622 161.39594 115.48668ZM159.40338 115.48668"/>
<path transform="matrix(1.00003,0,0,-1.00002,1.4615555,208.02556)" d="M177.33628 181.47908C177.33628 182.57956 176.44419 183.47164 175.34372 183.47164 174.24324 183.47164 173.35117 182.57956 173.35117 181.47908 173.35117 180.37862 174.24324 179.48653 175.34372 179.48653 176.44419 179.48653 177.33628 180.37862 177.33628 181.47908ZM175.34372 181.47908" fill="#9e0c0f"/>
<path transform="matrix(1.00003,0,0,-1.00002,1.4615555,208.02556)" stroke-width=".3985" stroke-linecap="butt" stroke-miterlimit="10" stroke-linejoin="miter" fill="none" stroke="#9e0c0f" d="M177.33628 181.47908C177.33628 182.57956 176.44419 183.47164 175.34372 183.47164 174.24324 183.47164 173.35117 182.57956 173.35117 181.47908 173.35117 180.37862 174.24324 179.48653 175.34372 179.48653 176.44419 179.48653 177.33628 180.37862 177.33628 181.47908ZM175.34372 181.47908"/>
<path transform="matrix(1.00003,0,0,-1.00002,1.4615555,208.02556)" stroke-width=".3985" stroke-linecap="butt" stroke-miterlimit="10" stroke-linejoin="miter" fill="none" stroke="#9e0c0f" d=""/>
<use data-text="x" xlink:href="#font_4_1" transform="matrix(9.962899,0,0,-9.962799,231.35947,80.76701)"/>
<use data-text="y" xlink:href="#font_4_2" transform="matrix(9.962899,0,0,-9.962799,164.38947,9.604584)"/>
</svg>
