<svg xmlns="http://www.w3.org/2000/svg" xmlns:xlink="http://www.w3.org/1999/xlink" version="1.1" width="111" height="110" viewBox="0 0 111 110">
<defs>
<path id="font_1_1" d="M.69898989 .22743225C.71499636 .22743225 .7369995 .22743225 .7369995 .25042726 .7369995 .2734375 .71499636 .2734375 .69898989 .2734375H.12599182C.10998535 .2734375 .08799744 .2734375 .08799744 .25042726 .08799744 .22743225 .10998535 .22743225 .12599182 .22743225H.69898989Z"/>
<path id="font_2_6" d="M.13798523 .33073426C.13798523 .41377259 .14498902 .4868164 .18099976 .54782107 .21099854 .5978241 .2619934 .6390381 .32499696 .6390381 .34498597 .6390381 .3909912 .63601687 .4139862 .60084536 .36898805 .5988312 .36499024 .5648346 .36499024 .553833 .36499024 .5238342 .3880005 .50683596 .4119873 .50683596 .42999269 .50683596 .45899964 .51782229 .45899964 .5558319 .45899964 .615921 .4139862 .66503909 .32398988 .66503909 .18499756 .66503909 .04399109 .53282168 .04399109 .31672669 .04399109 .045532228 .16999817-.021484375 .2669983-.021484375 .31498719-.021484375 .36698915-.0084991459 .4119873 .03453064 .45199586 .07354736 .48599244 .11558533 .48599244 .20263672 .48599244 .33372499 .3869934 .42578126 .27598573 .42578126 .20399475 .42578126 .16099549 .37976075 .13798523 .33073426M.2669983 .008514404C.21398926 .008514404 .18099976 .045532228 .1659851 .07354736 .14299011 .11859131 .14099121 .18663025 .14099121 .22465515 .14099121 .32373048 .19499207 .3977661 .27198792 .3977661 .32199098 .3977661 .35198976 .37176515 .37098695 .33673097 .3919983 .29971314 .3919983 .25468446 .3919983 .2036438 .3919983 .15260315 .3919983 .10858154 .37199403 .07255554 .34599305 .026519776 .31098939 .008514404 .2669983 .008514404Z"/>
<path id="font_2_4" d="M.3939972 .6468048C.3939972 .6667938 .3939972 .6748047 .37298585 .6748047 .3600006 .6748047 .35899354 .6737976 .34899903 .65979006L.02999878 .197052V.1640625H.31199647V.08100891C.31199647 .04399109 .30899049 .032989503 .23199463 .032989503H.20899964V0C.2939911 .0029907227 .29599 .0029907227 .35299684 .0029907227 .4099884 .0029907227 .4119873 .0029907227 .49699403 0V.032989503H.47399903C.39698792 .032989503 .3939972 .04399109 .3939972 .08100891V.1640625H.5V.197052H.3939972V.6468048M.31900025 .5658417V.197052H.06498718L.31900025 .5658417Z"/>
<path id="font_2_3" d="M.28199769 .20405579C.2979889 .21907044 .33999635 .2520752 .35598756 .26608277 .41799928 .32312013 .47698976 .3781433 .47698976 .46917726 .47698976 .588089 .3769989 .66503909 .2519989 .66503909 .13198853 .66503909 .052993776 .57411196 .052993776 .48516847 .052993776 .4361725 .09199524 .4291687 .10598755 .4291687 .1269989 .4291687 .1579895 .4441681 .1579895 .48217774 .1579895 .5341797 .10798645 .5341797 .09599304 .5341797 .125 .6070709 .19198609 .6320343 .24099732 .6320343 .33399964 .6320343 .38198854 .55314639 .38198854 .46917726 .38198854 .36514283 .30899049 .28910829 .19099427 .16804505L.06498718 .037994386C.052993776 .026992798 .052993776 .024993897 .052993776 0H.44799806L.47698976 .17904663H.44599916C.44299317 .1590271 .43499757 .10900879 .4229889 .08999634 .4169922 .08198547 .34098817 .08198547 .32499696 .08198547H.14698792L.28199769 .20405579Z"/>
<path id="font_2_5" d="M.13999939 .5618439C.15299988 .55784609 .19299317 .54785159 .23498535 .54785159 .3600006 .54785159 .43598939 .6358948 .43598939 .6510315 .43598939 .6620331 .42900086 .66503909 .42399598 .66503909 .42199708 .66503909 .41999818 .66503909 .41099549 .6600342 .37199403 .6450348 .32598878 .632843 .27198792 .632843 .21299744 .632843 .1639862 .6480255 .1329956 .6600342 .12298584 .66503909 .12098694 .66503909 .11999512 .66503909 .10699463 .66503909 .10699463 .6540375 .10699463 .6358948V.34292604C.10699463 .32492066 .10699463 .312912 .12298584 .312912 .1309967 .312912 .13398743 .3169098 .13899231 .32492066 .15098572 .33992005 .18899536 .39093019 .27398683 .39093019 .32998658 .39093019 .35699464 .34492494 .3659973 .32591249 .3829956 .28990174 .3849945 .24389649 .3849945 .20487976 .3849945 .1678772 .38398744 .11387634 .35598756 .069732669 .33699037 .039611818 .29699708 .008514404 .24398804 .008514404 .1789856 .008514404 .114990238 .0496521 .09199524 .11488342 .09498596 .11387634 .100997928 .11387634 .101989749 .11387634 .12998963 .11387634 .1519928 .13188172 .1519928 .16288758 .1519928 .19989014 .12298584 .21289063 .102996829 .21289063 .084991458 .21289063 .052993776 .20288086 .052993776 .15988159 .052993776 .069732669 .1309967-.021484375 .24598694-.021484375 .37098695-.021484375 .47698976 .07574463 .47698976 .19989014 .47698976 .31591798 .3929901 .4189453 .2749939 .4189453 .22499085 .4189453 .17799378 .40293885 .13999939 .368927V.5618439Z"/>
<path id="font_2_2" d="M.31399537 .63708499C.31399537 .664032 .31199647 .66503909 .2849884 .66503909 .24398804 .6251831 .19099427 .6013489 .09599304 .6013489V.5683594C.12298584 .5683594 .1769867 .5683594 .23498535 .5953522V.08203125C.23498535 .04499817 .23199463 .032989503 .13699341 .032989503H.101989749V0C.14299011 .0029907227 .22898865 .0029907227 .27398683 .0029907227 .31900025 .0029907227 .4059906 .0029907227 .44699098 0V.032989503H.4119873C.31698609 .032989503 .31399537 .04499817 .31399537 .08203125V.63708499Z"/>
<path id="font_2_1" d="M.4889984 .31877137C.4889984 .42585755 .47799684 .49090577 .44499208 .55496218 .40098573 .6430359 .31999208 .66503909 .2649994 .66503909 .13899231 .66503909 .09298706 .5709839 .07899475 .5429535 .042999269 .4698944 .040985109 .3708191 .040985109 .31877137 .040985109 .25271607 .04399109 .15162659 .09199524 .07156372 .13798523-.0024871827 .21199036-.021484375 .2649994-.021484375 .31298829-.021484375 .39898683-.0064849855 .44898988 .09257507 .48599244 .16464234 .4889984 .2537079 .4889984 .31877137M.2649994 .006515503C.23098755 .006515503 .1619873 .022521973 .14099121 .12760926 .12998963 .18466187 .12998963 .2787323 .12998963 .33078004 .12998963 .3998413 .12998963 .4698944 .14099121 .5249481 .1619873 .6270294 .23999024 .6370239 .2649994 .6370239 .29899598 .6370239 .36799623 .62002566 .3880005 .5289459 .3999939 .4738922 .3999939 .39883424 .3999939 .33078004 .3999939 .27172853 .3999939 .18165589 .3880005 .12561035 .36698915 .020523072 .2979889 .006515503 .2649994 .006515503Z"/>
<clipPath id="clip_3">
<path transform="matrix(1.00003,0,0,-1.00005,1.2715778,97.83493)" d="M0 0H108.09518V93.23372H0Z"/>
</clipPath>
<path id="font_4_2" d="M.48599244 .38136292C.48999024 .39537049 .48999024 .39736939 .48999024 .40437318 .48999024 .42237855 .47599793 .43138124 .46099855 .43138124 .45098878 .43138124 .43499757 .42536927 .42599488 .41036988 .42399598 .405365 .41600038 .37435914 .4119873 .35635377 .40499879 .33035279 .397995 .30334474 .3919983 .27633668L.34700013 .09628296C.34298707 .08126831 .2999878 .011245728 .23399353 .011245728 .18299866 .011245728 .17199707 .055267335 .17199707 .0922699 .17199707 .1382904 .18899536 .20030213 .22299195 .28833009 .23899842 .3293457 .24299622 .3403473 .24299622 .36035157 .24299622 .405365 .21099854 .4423828 .16099549 .4423828 .06599426 .4423828 .0289917 .29733277 .0289917 .28833009 .0289917 .27833558 .038986207 .27833558 .040985109 .27833558 .050994874 .27833558 .051986696 .28033448 .056991579 .29634095 .083999637 .3903656 .12399292 .42037965 .1579895 .42037965 .1659851 .42037965 .18299866 .42037965 .18299866 .3883667 .18299866 .36335755 .17298889 .3373413 .1659851 .31834413 .12599182 .21231079 .10798645 .1552887 .10798645 .10827637 .10798645 .019256592 .17098999-.0107421879 .22999573-.0107421879 .2689972-.0107421879 .30299378 .0062561037 .33099366 .03425598 .31799317-.017745972 .30599977-.06674194 .2659912-.11973572 .23999024-.15385437 .20199585-.18309021 .1559906-.18309021 .14199829-.18309021 .09700012-.18005371 .07998657-.14074707 .09599304-.14074707 .10899353-.14074707 .12298584-.1287384 .1329956-.11973572 .14299011-.10673523 .14299011-.08773804 .14299011-.056747438 .115997318-.052734376 .10598755-.052734376 .08299255-.052734376 .049987794-.068740848 .049987794-.11773682 .049987794-.16796875 .09399414-.20507813 .1559906-.20507813 .25898744-.20507813 .3619995-.11373901 .3899994-.00074768069L.48599244 .38136292Z"/>
<path id="font_5_4" d="M.68699648 .32714845C.70199587 .32714845 .72099307 .32714845 .72099307 .34713746 .72099307 .36714173 .70199587 .36714173 .6879883 .36714173H.08898926C.07499695 .36714173 .055999757 .36714173 .055999757 .34713746 .055999757 .32714845 .07499695 .32714845 .08999634 .32714845H.68699648M.6879883 .13284302C.70199587 .13284302 .72099307 .13284302 .72099307 .15284729 .72099307 .17285156 .70199587 .17285156 .68699648 .17285156H.08999634C.07499695 .17285156 .055999757 .17285156 .055999757 .15284729 .055999757 .13284302 .07499695 .13284302 .08898926 .13284302H.6879883Z"/>
<path id="font_6_1" d="M.6589966 .23046875C.6759949 .23046875 .69400027 .23046875 .69400027 .25045777 .69400027 .27046205 .6759949 .27046205 .6589966 .27046205H.117996219C.100997928 .27046205 .08299255 .27046205 .08299255 .25045777 .08299255 .23046875 .100997928 .23046875 .117996219 .23046875H.6589966Z"/>
<path id="font_7_1" d="M.5049896 .18203736H.47099305C.46798707 .16001892 .45799256 .100997928 .44499208 .09098816 .43699647 .084991458 .3600006 .084991458 .34599305 .084991458H.1619873C.2669983 .17803955 .3019867 .20603943 .3619995 .25306703 .43598939 .312088 .5049896 .374115 .5049896 .46914674 .5049896 .5900879 .39898683 .6640625 .2709961 .6640625 .14698792 .6640625 .06298828 .57710269 .06298828 .4851532 .06298828 .43414308 .10598755 .42915345 .115997318 .42915345 .13999939 .42915345 .16899109 .44615174 .16899109 .48214723 .16899109 .5001526 .1619873 .53515627 .10998535 .53515627 .14099121 .6060791 .20899964 .62805178 .2559967 .62805178 .35598756 .62805178 .4079895 .5501404 .4079895 .46914674 .4079895 .38212586 .34599305 .3130951 .31399537 .27708436L.07299805 .038986207C.06298828 .02999878 .06298828 .027999878 .06298828 0H.47499085L.5049896 .18203736Z"/>
<path id="font_7_2" d="M.272995 .33428956C.35099793 .33428956 .40699769 .2803192 .40699769 .1733551 .40699769 .04940796 .33499146 .012466431 .2769928 .012466431 .23699951 .012466431 .14898682 .0234375 .10699463 .082351688 .1539917 .084350589 .16499329 .11735535 .16499329 .13835144 .16499329 .17034912 .14099121 .19335938 .10998535 .19335938 .08198547 .19335938 .053985597 .17634583 .053985597 .13534546 .053985597 .041412355 .1579895-.01953125 .2789917-.01953125 .41799928-.01953125 .5139923 .07336426 .5139923 .1733551 .5139923 .2513275 .44999696 .32929994 .33999635 .35229493 .44499208 .39024354 .48298646 .4650879 .48298646 .5260773 .48298646 .60505679 .3919983 .6640625 .2809906 .6640625 .16999817 .6640625 .084991458 .61006167 .084991458 .5300751 .084991458 .49606324 .10699463 .47706605 .13699341 .47706605 .16799927 .47706605 .18798828 .5000763 .18798828 .5280762 .18798828 .5570679 .16799927 .57806399 .13699341 .5800781 .17199707 .62405398 .24099732 .63505557 .27799989 .63505557 .32299806 .63505557 .38598634 .6130676 .38598634 .5260773 .38598634 .48406983 .37199403 .43814088 .34599305 .4072113 .31298829 .36927796 .2849884 .3672943 .23498535 .36428834 .20999146 .3623047 .20799256 .3623047 .20298767 .3612976 .20098877 .3612976 .19299317 .3592987 .19299317 .34829713 .19299317 .33428956 .20199585 .33428956 .21899414 .33428956H.272995Z"/>
<path id="font_4_1" d="M.33399964 .30233766C.33999635 .32835389 .36299134 .42037965 .43299867 .42037965 .43798829 .42037965 .46199037 .42037965 .48298646 .40734864 .45498658 .402359 .43499757 .37734986 .43499757 .35334779 .43499757 .33735658 .44599916 .31835938 .47299195 .31835938 .49499513 .31835938 .5269928 .3363495 .5269928 .37635804 .5269928 .42837525 .46798707 .4423828 .43399049 .4423828 .37599183 .4423828 .34098817 .38935853 .32899476 .36634828 .3039856 .43237306 .25 .4423828 .22099304 .4423828 .116989139 .4423828 .05999756 .3133545 .05999756 .28834535 .05999756 .27833558 .069992069 .27833558 .07199097 .27833558 .07998657 .27833558 .08299255 .28033448 .084991458 .28933717 .11898804 .39535523 .18499756 .42037965 .21899414 .42037965 .23799134 .42037965 .272995 .4113617 .272995 .35334779 .272995 .32235719 .2559967 .25532533 .21899414 .11528015 .20298767 .053268434 .16799927 .011245728 .12399292 .011245728 .117996219 .011245728 .09498596 .011245728 .07398987 .024276734 .09899902 .029266358 .12098694 .05027771 .12098694 .07827759 .12098694 .105270389 .09899902 .11328125 .083999637 .11328125 .053985597 .11328125 .0289917 .08728027 .0289917 .055267335 .0289917 .009246826 .07899475-.0107421879 .12298584-.0107421879 .18899536-.0107421879 .22499085 .059280397 .22799683 .0652771 .23999024 .028274537 .27598573-.0107421879 .33599855-.0107421879 .43899537-.0107421879 .49598695 .118270877 .49598695 .14328003 .49598695 .1532898 .4869995 .1532898 .48399354 .1532898 .47499085 .1532898 .47299195 .14929199 .47099305 .14228821 .43798829 .03527832 .36999513 .011245728 .33799745 .011245728 .29899598 .011245728 .2829895 .043273927 .2829895 .07727051 .2829895 .09927368 .2889862 .121276859 .2999878 .16529846L.33399964 .30233766Z"/>
<path id="font_5_1" d="M.40899659 .23046875H.6879883C.70199587 .23046875 .72099307 .23046875 .72099307 .25045777 .72099307 .27046205 .70199587 .27046205 .6879883 .27046205H.40899659V.5500183C.40899659 .56399539 .40899659 .5830078 .3889923 .5830078 .36898805 .5830078 .36898805 .56399539 .36898805 .5500183V.27046205H.08898926C.07499695 .27046205 .055999757 .27046205 .055999757 .25045777 .055999757 .23046875 .07499695 .23046875 .08898926 .23046875H.36898805V-.05000305C.36898805-.06401062 .36898805-.08300781 .3889923-.08300781 .40899659-.08300781 .40899659-.06401062 .40899659-.05000305V.23046875Z"/>
<path id="font_5_3" d="M.2939911 .64004519C.2939911 .66400149 .2939911 .6660156 .2709961 .6660156 .20899964 .60227969 .12098694 .60227969 .08898926 .60227969V.57128909C.10899353 .57128909 .16799927 .57128909 .21998596 .5972748V.07902527C.21998596 .042999269 .21699524 .0309906 .1269989 .0309906H.09498596V0C.12998963 .0029907227 .21699524 .0029907227 .25698854 .0029907227 .29699708 .0029907227 .38398744 .0029907227 .4189911 0V.0309906H.3869934C.29699708 .0309906 .2939911 .041992189 .2939911 .07902527V.64004519Z"/>
<path id="font_5_2" d="M.45999146 .31976319C.45999146 .39982606 .45498658 .47988893 .41999818 .5539398 .37399293 .65000918 .2919922 .6660156 .25 .6660156 .18998719 .6660156 .116989139 .64001467 .07598877 .54693606 .04399109 .47789 .038986207 .39982606 .038986207 .31976319 .038986207 .24472046 .042999269 .15464783 .083999637 .07859802 .1269989-.0024719239 .19999695-.022460938 .24899292-.022460938 .30299378-.022460938 .3789978-.0014648438 .4229889 .09359741 .45498658 .16265869 .45999146 .2407074 .45999146 .31976319M.24899292-.00047302247C.20999146-.00047302247 .15098572 .024551392 .1329956 .12062073 .12199402 .18066406 .12199402 .2727356 .12199402 .3317871 .12199402 .39582826 .12199402 .46188355 .12998963 .5159149 .14898682 .63500979 .22399903 .64401248 .24899292 .64401248 .28199769 .64401248 .34799195 .6259918 .36698915 .52693179 .3769989 .47088624 .3769989 .39482118 .3769989 .3317871 .3769989 .25672914 .3769989 .18867493 .3659973 .12461853 .35099793 .029556275 .2939911-.00047302247 .24899292-.00047302247Z"/>
</defs>
<path transform="matrix(1.00003,0,0,-1.00005,1.2715778,97.83493)" d="M0 0H108.09518V93.23372H0Z" fill="#fffac2"/>
<path transform="matrix(1.00003,0,0,-1.00005,1.2715778,97.83493)" stroke-width=".3985" stroke-linecap="butt" stroke-miterlimit="10" stroke-linejoin="miter" fill="none" stroke="#d5d6d5" d="M0 0V93.23372M7.72108 0V93.23372M15.44217 0V93.23372M23.16325 0V93.23372M30.88434 0V93.23372M38.60542 0V93.23372M46.3265 0V93.23372M54.04759 0V93.23372M61.76868 0V93.23372M69.48976 0V93.23372M77.21085 0V93.23372M84.93193 0V93.23372M92.65302 0V93.23372M100.3741 0V93.23372M108.09518 0V93.23372"/>
<path transform="matrix(1.00003,0,0,-1.00005,1.2715778,97.83493)" stroke-width=".3985" stroke-linecap="butt" stroke-miterlimit="10" stroke-linejoin="miter" fill="none" stroke="#d5d6d5" d="M7.72108 0V93.23372M23.16325 0V93.23372M38.60542 0V93.23372M69.48976 0V93.23372M84.93193 0V93.23372M100.3741 0V93.23372"/>
<path transform="matrix(1.00003,0,0,-1.00005,1.2715778,97.83493)" stroke-width=".3985" stroke-linecap="butt" stroke-miterlimit="10" stroke-linejoin="miter" fill="none" stroke="#d5d6d5" d="M0 0H108.09518M0 4.66168H108.09518M0 9.32336H108.09518M0 13.98505H108.09518M0 18.64674H108.09518M0 23.30843H108.09518M0 27.97011H108.09518M0 32.6318H108.09518M0 37.29349H108.09518M0 41.95517H108.09518M0 46.61685H108.09518M0 51.27855H108.09518M0 55.94023H108.09518M0 60.60191H108.09518M0 65.26361H108.09518M0 69.9253H108.09518M0 74.58698H108.09518M0 79.24867H108.09518M0 83.91035H108.09518M0 88.57204H108.09518M0 93.23372H108.09518"/>
<path transform="matrix(1.00003,0,0,-1.00005,1.2715778,97.83493)" stroke-width=".3985" stroke-linecap="butt" stroke-miterlimit="10" stroke-linejoin="miter" fill="none" stroke="#d5d6d5" d="M0 23.30843H108.09518M0 46.61685H108.09518M0 69.9253H108.09518M0 93.23372H108.09518"/>
<path transform="matrix(1.00003,0,0,-1.00005,1.2715778,97.83493)" stroke-width=".19925" stroke-linecap="butt" stroke-miterlimit="10" stroke-linejoin="miter" fill="none" stroke="#929292" d="M0-1.41736V1.41737M7.72108-1.41736V1.41737M15.44217-1.41736V1.41737M23.16325-1.41736V1.41737M30.88434-1.41736V1.41737M38.60542-1.41736V1.41737M46.3265-1.41736V1.41737M54.04759-1.41736V1.41737M61.76868-1.41736V1.41737M69.48976-1.41736V1.41737M77.21085-1.41736V1.41737M84.93193-1.41736V1.41737M92.65302-1.41736V1.41737M100.3741-1.41736V1.41737M108.09518-1.41736V1.41737"/>
<path transform="matrix(1.00003,0,0,-1.00005,1.2715778,97.83493)" stroke-width=".19925" stroke-linecap="butt" stroke-miterlimit="10" stroke-linejoin="miter" fill="none" stroke="#929292" d="M7.72108-2.12584V2.12584M23.16325-2.12584V2.12584M38.60542-2.12584V2.12584M69.48976-2.12584V2.12584M84.93193-2.12584V2.12584M100.3741-2.12584V2.12584"/>
<path transform="matrix(1.00003,0,0,-1.00005,1.2715778,97.83493)" stroke-width=".19925" stroke-linecap="butt" stroke-miterlimit="10" stroke-linejoin="miter" fill="none" stroke="#929292" d="M52.63017 0H55.465M52.63017 4.66168H55.465M52.63017 9.32336H55.465M52.63017 13.98505H55.465M52.63017 18.64674H55.465M52.63017 23.30843H55.465M52.63017 27.97011H55.465M52.63017 32.6318H55.465M52.63017 37.29349H55.465M52.63017 41.95517H55.465M52.63017 46.61685H55.465M52.63017 51.27855H55.465M52.63017 55.94023H55.465M52.63017 60.60191H55.465M52.63017 65.26361H55.465M52.63017 69.9253H55.465M52.63017 74.58698H55.465M52.63017 79.24867H55.465M52.63017 83.91035H55.465M52.63017 88.57204H55.465M52.63017 93.23372H55.465"/>
<path transform="matrix(1.00003,0,0,-1.00005,1.2715778,97.83493)" stroke-width=".19925" stroke-linecap="butt" stroke-miterlimit="10" stroke-linejoin="miter" fill="none" stroke="#929292" d="M51.92168 23.30843H56.17348M51.92168 46.61685H56.17348M51.92168 69.9253H56.17348M51.92168 93.23372H56.17348"/>
<path transform="matrix(1.00003,0,0,-1.00005,1.2715778,97.83493)" stroke-width=".3985" stroke-linecap="butt" stroke-miterlimit="10" stroke-linejoin="miter" fill="none" stroke="#000000" d="M1.99252 0H106.10266"/>
<path transform="matrix(-1.00003,-0,0,1.00005,3.2641578,97.83493)" d="M1.99252 0-1.19551 1.59401 0 0-1.19551-1.59401"/>
<path transform="matrix(1.00003,0,0,-1.00005,107.377429,97.83493)" d="M1.99252 0-1.19551 1.59401 0 0-1.19551-1.59401"/>
<path transform="matrix(1.00003,0,0,-1.00005,1.2715778,97.83493)" stroke-width=".3985" stroke-linecap="butt" stroke-miterlimit="10" stroke-linejoin="miter" fill="none" stroke="#000000" d="M54.04759 0V91.2412"/>
<path transform="matrix(0,-1.00005,-1.00003,-0,55.320795,6.5891726)" d="M1.99252 0-1.19551 1.59401 0 0-1.19551-1.59401"/>
<use data-text="&#x2212;" xlink:href="#font_1_1" transform="matrix(7.9703395,0,0,-7.970498,3.5826474,108.61747)"/>
<use data-text="6" xlink:href="#font_2_6" transform="matrix(7.9703395,0,0,-7.970498,10.169846,108.61747)"/>
<use data-text="&#x2212;" xlink:href="#font_1_1" transform="matrix(7.9703395,0,0,-7.970498,19.025113,108.61747)"/>
<use data-text="4" xlink:href="#font_2_4" transform="matrix(7.9703395,0,0,-7.970498,25.61231,108.61747)"/>
<use data-text="&#x2212;" xlink:href="#font_1_1" transform="matrix(7.9703395,0,0,-7.970498,34.467576,108.61747)"/>
<use data-text="2" xlink:href="#font_2_3" transform="matrix(7.9703395,0,0,-7.970498,41.05477,108.61747)"/>
<use data-text="2" xlink:href="#font_2_3" transform="matrix(7.9703395,0,0,-7.970498,68.6466,108.61747)"/>
<use data-text="4" xlink:href="#font_2_4" transform="matrix(7.9703395,0,0,-7.970498,84.089069,108.61747)"/>
<use data-text="6" xlink:href="#font_2_6" transform="matrix(7.9703395,0,0,-7.970498,99.53153,108.61747)"/>
<use data-text="5" xlink:href="#font_2_5" transform="matrix(7.9703395,0,0,-7.970498,47.330965,77.093898)"/>
<use data-text="1" xlink:href="#font_2_2" transform="matrix(7.9703395,0,0,-7.970498,43.096834,53.78373)"/>
<use data-text="0" xlink:href="#font_2_1" transform="matrix(7.9703395,0,0,-7.970498,47.329088,53.78373)"/>
<use data-text="1" xlink:href="#font_2_2" transform="matrix(7.9703395,0,0,-7.970498,43.096834,30.474564)"/>
<use data-text="5" xlink:href="#font_2_5" transform="matrix(7.9703395,0,0,-7.970498,47.329088,30.474564)"/>
<use data-text="2" xlink:href="#font_2_3" transform="matrix(7.9703395,0,0,-7.970498,43.096834,7.164398)"/>
<use data-text="0" xlink:href="#font_2_1" transform="matrix(7.9703395,0,0,-7.970498,47.329088,7.164398)"/>
<g clip-path="url(#clip_3)">
<path transform="matrix(1.00003,0,0,-1.00005,1.2715778,97.83493)" stroke-width=".99628" stroke-linecap="butt" stroke-miterlimit="10" stroke-linejoin="miter" fill="none" stroke="#9e0c0f" d="M7.66418 65.2864 4.50392 66.55833 9.00786 64.74547 13.5118 62.93263 18.01575 61.11978 22.51968 59.30693 27.02362 57.49408 31.52756 55.68123 36.03151 53.86836 40.53545 52.05551 45.03938 50.24268 49.54332 48.42982 54.04727 46.61696 58.55121 44.80412 63.05515 42.99127 67.55908 41.17842 72.06302 39.36557 76.56696 37.55272 81.0709 35.73988 85.57484 33.92703 90.07878 32.11418 94.58272 30.30133 99.08665 28.48848 103.5906 26.67563 100.43034 27.94754"/>
<path transform="matrix(-.9276679,-.37338866,-.3733812,.92768636,9.589518,32.808305)" d="M7.39124 0 2.37614 1.6717 .70447 0 2.37614-1.6717Z" fill="#9e0c0f"/>
<path transform="matrix(-.9276679,-.37338866,-.3733812,.92768636,9.589518,32.808305)" stroke-width=".99628" stroke-linecap="butt" stroke-miterlimit="10" stroke-linejoin="miter" fill="none" stroke="#9e0c0f" d="M7.39124 0 2.37614 1.6717 .70447 0 2.37614-1.6717Z"/>
<path transform="matrix(.9276679,.37338866,.3733812,-.92768636,101.051418,69.622959)" d="M7.39124 0 2.37614 1.6717 .70447 0 2.37614-1.6717Z" fill="#9e0c0f"/>
<path transform="matrix(.9276679,.37338866,.3733812,-.92768636,101.051418,69.622959)" stroke-width=".99628" stroke-linecap="butt" stroke-miterlimit="10" stroke-linejoin="miter" fill="none" stroke="#9e0c0f" d="M7.39124 0 2.37614 1.6717 .70447 0 2.37614-1.6717Z"/>
<use data-text="y" xlink:href="#font_4_2" transform="matrix(9.241984,3.7199217,3.7198475,-9.242167,51.600297,41.899038)" fill="#9e0c0f"/>
<use data-text="=" xlink:href="#font_5_4" transform="matrix(9.241984,3.7199217,3.7198475,-9.242167,59.030916,44.88988)" fill="#9e0c0f"/>
<use data-text="&#x2212;" xlink:href="#font_6_1" transform="matrix(9.241984,3.7199217,3.7198475,-9.242167,68.78627,48.816434)" fill="#9e0c0f"/>
<use data-text="2" xlink:href="#font_7_1" transform="matrix(6.469371,2.6039379,2.603886,-6.469499,78.5481,48.516714)" fill="#9e0c0f"/>
<path transform="matrix(.9276679,.37338866,.3733812,-.92768636,71.58169,-62.063055)" stroke-width=".3985" stroke-linecap="butt" stroke-miterlimit="10" stroke-linejoin="miter" fill="none" stroke="#9e0c0f" d="M47.751-101.412H51.722"/>
<use data-text="3" xlink:href="#font_7_2" transform="matrix(6.469371,2.6039379,2.603886,-6.469499,75.800769,55.342626)" fill="#9e0c0f"/>
<use data-text="x" xlink:href="#font_4_1" transform="matrix(9.241984,3.7199217,3.7198475,-9.242167,81.87659,54.085325)" fill="#9e0c0f"/>
<use data-text="+" xlink:href="#font_5_1" transform="matrix(9.241984,3.7199217,3.7198475,-9.242167,89.21166,57.03771)" fill="#9e0c0f"/>
<use data-text="1" xlink:href="#font_5_3" transform="matrix(9.241984,3.7199217,3.7198475,-9.242167,98.44441,60.75391)" fill="#9e0c0f"/>
<use data-text="0" xlink:href="#font_5_2" transform="matrix(9.241984,3.7199217,3.7198475,-9.242167,103.0654,62.613874)" fill="#9e0c0f"/>
</g>
<path transform="matrix(1.00003,0,0,-1.00005,1.2715778,97.83493)" d="M56.04015 46.61685C56.04015 47.71733 55.14806 48.6094 54.04759 48.6094 52.94711 48.6094 52.05504 47.71733 52.05504 46.61685 52.05504 45.51639 52.94711 44.6243 54.04759 44.6243 55.14806 44.6243 56.04015 45.51639 56.04015 46.61685ZM54.04759 46.61685" fill="#9e0c0f"/>
<path transform="matrix(1.00003,0,0,-1.00005,1.2715778,97.83493)" stroke-width=".3985" stroke-linecap="butt" stroke-miterlimit="10" stroke-linejoin="miter" fill="none" stroke="#9e0c0f" d="M56.04015 46.61685C56.04015 47.71733 55.14806 48.6094 54.04759 48.6094 52.94711 48.6094 52.05504 47.71733 52.05504 46.61685 52.05504 45.51639 52.94711 44.6243 54.04759 44.6243 55.14806 44.6243 56.04015 45.51639 56.04015 46.61685ZM54.04759 46.61685"/>
<path transform="matrix(1.00003,0,0,-1.00005,1.2715778,97.83493)" stroke-width=".3985" stroke-linecap="butt" stroke-miterlimit="10" stroke-linejoin="miter" fill="none" stroke="#9e0c0f" d=""/>
<path transform="matrix(1.00003,0,0,-1.00005,1.2715778,97.83493)" d="M79.2034 37.29349C79.2034 38.39395 78.31131 39.28604 77.21085 39.28604 76.11037 39.28604 75.21829 38.39395 75.21829 37.29349 75.21829 36.19301 76.11037 35.30093 77.21085 35.30093 78.31131 35.30093 79.2034 36.19301 79.2034 37.29349ZM77.21085 37.29349" fill="#9e0c0f"/>
<path transform="matrix(1.00003,0,0,-1.00005,1.2715778,97.83493)" stroke-width=".3985" stroke-linecap="butt" stroke-miterlimit="10" stroke-linejoin="miter" fill="none" stroke="#9e0c0f" d="M79.2034 37.29349C79.2034 38.39395 78.31131 39.28604 77.21085 39.28604 76.11037 39.28604 75.21829 38.39395 75.21829 37.29349 75.21829 36.19301 76.11037 35.30093 77.21085 35.30093 78.31131 35.30093 79.2034 36.19301 79.2034 37.29349ZM77.21085 37.29349"/>
<path transform="matrix(1.00003,0,0,-1.00005,1.2715778,97.83493)" stroke-width=".3985" stroke-linecap="butt" stroke-miterlimit="10" stroke-linejoin="miter" fill="none" stroke="#9e0c0f" d=""/>
<path transform="matrix(1.00003,0,0,-1.00005,1.2715778,97.83493)" d="M102.36665 27.97011C102.36665 29.07059 101.47456 29.96266 100.3741 29.96266 99.27362 29.96266 98.38155 29.07059 98.38155 27.97011 98.38155 26.86964 99.27362 25.97755 100.3741 25.97755 101.47456 25.97755 102.36665 26.86964 102.36665 27.97011ZM100.3741 27.97011" fill="#9e0c0f"/>
<path transform="matrix(1.00003,0,0,-1.00005,1.2715778,97.83493)" stroke-width=".3985" stroke-linecap="butt" stroke-miterlimit="10" stroke-linejoin="miter" fill="none" stroke="#9e0c0f" d="M102.36665 27.97011C102.36665 29.07059 101.47456 29.96266 100.3741 29.96266 99.27362 29.96266 98.38155 29.07059 98.38155 27.97011 98.38155 26.86964 99.27362 25.97755 100.3741 25.97755 101.47456 25.97755 102.36665 26.86964 102.36665 27.97011ZM100.3741 27.97011"/>
<path transform="matrix(1.00003,0,0,-1.00005,1.2715778,97.83493)" stroke-width=".3985" stroke-linecap="butt" stroke-miterlimit="10" stroke-linejoin="miter" fill="none" stroke="#9e0c0f" d=""/>
<path transform="matrix(1.00003,0,0,-1.00005,1.2715778,97.83493)" d="M32.87689 55.94023C32.87689 57.04071 31.9848 57.93279 30.88434 57.93279 29.78386 57.93279 28.89178 57.04071 28.89178 55.94023 28.89178 54.83977 29.78386 53.94768 30.88434 53.94768 31.9848 53.94768 32.87689 54.83977 32.87689 55.94023ZM30.88434 55.94023" fill="#9e0c0f"/>
<path transform="matrix(1.00003,0,0,-1.00005,1.2715778,97.83493)" stroke-width=".3985" stroke-linecap="butt" stroke-miterlimit="10" stroke-linejoin="miter" fill="none" stroke="#9e0c0f" d="M32.87689 55.94023C32.87689 57.04071 31.9848 57.93279 30.88434 57.93279 29.78386 57.93279 28.89178 57.04071 28.89178 55.94023 28.89178 54.83977 29.78386 53.94768 30.88434 53.94768 31.9848 53.94768 32.87689 54.83977 32.87689 55.94023ZM30.88434 55.94023"/>
<path transform="matrix(1.00003,0,0,-1.00005,1.2715778,97.83493)" stroke-width=".3985" stroke-linecap="butt" stroke-miterlimit="10" stroke-linejoin="miter" fill="none" stroke="#9e0c0f" d=""/>
<path transform="matrix(1.00003,0,0,-1.00005,1.2715778,97.83493)" d="M9.71364 65.26361C9.71364 66.36407 8.82155 67.25616 7.72108 67.25616 6.6206 67.25616 5.72853 66.36407 5.72853 65.26361 5.72853 64.16313 6.6206 63.27106 7.72108 63.27106 8.82155 63.27106 9.71364 64.16313 9.71364 65.26361ZM7.72108 65.26361" fill="#9e0c0f"/>
<path transform="matrix(1.00003,0,0,-1.00005,1.2715778,97.83493)" stroke-width=".3985" stroke-linecap="butt" stroke-miterlimit="10" stroke-linejoin="miter" fill="none" stroke="#9e0c0f" d="M9.71364 65.26361C9.71364 66.36407 8.82155 67.25616 7.72108 67.25616 6.6206 67.25616 5.72853 66.36407 5.72853 65.26361 5.72853 64.16313 6.6206 63.27106 7.72108 63.27106 8.82155 63.27106 9.71364 64.16313 9.71364 65.26361ZM7.72108 65.26361"/>
<path transform="matrix(1.00003,0,0,-1.00005,1.2715778,97.83493)" stroke-width=".3985" stroke-linecap="butt" stroke-miterlimit="10" stroke-linejoin="miter" fill="none" stroke="#9e0c0f" d=""/>
<use data-text="x" xlink:href="#font_4_1" transform="matrix(9.962899,0,0,-9.963098,100.15554,94.31476)"/>
<use data-text="y" xlink:href="#font_4_2" transform="matrix(9.962899,0,0,-9.963098,58.84031,12.406662)"/>
</svg>
