<svg xmlns="http://www.w3.org/2000/svg" xmlns:xlink="http://www.w3.org/1999/xlink" version="1.1" width="114" height="106" viewBox="0 0 114 106">
<defs>
<path id="font_1_3" d="M.28199769 .20405579C.2979889 .21907044 .33999635 .2520752 .35598756 .26608277 .41799928 .32312013 .47698976 .3781433 .47698976 .46917726 .47698976 .588089 .3769989 .66503909 .2519989 .66503909 .13198853 .66503909 .052993776 .57411196 .052993776 .48516847 .052993776 .4361725 .09199524 .4291687 .10598755 .4291687 .1269989 .4291687 .1579895 .4441681 .1579895 .48217774 .1579895 .5341797 .10798645 .5341797 .09599304 .5341797 .125 .6070709 .19198609 .6320343 .24099732 .6320343 .33399964 .6320343 .38198854 .55314639 .38198854 .46917726 .38198854 .36514283 .30899049 .28910829 .19099427 .16804505L.06498718 .037994386C.052993776 .026992798 .052993776 .024993897 .052993776 0H.44799806L.47698976 .17904663H.44599916C.44299317 .1590271 .43499757 .10900879 .4229889 .08999634 .4169922 .08198547 .34098817 .08198547 .32499696 .08198547H.14698792L.28199769 .20405579Z"/>
<path id="font_1_4" d="M.13999939 .5618439C.15299988 .55784609 .19299317 .54785159 .23498535 .54785159 .3600006 .54785159 .43598939 .6358948 .43598939 .6510315 .43598939 .6620331 .42900086 .66503909 .42399598 .66503909 .42199708 .66503909 .41999818 .66503909 .41099549 .6600342 .37199403 .6450348 .32598878 .632843 .27198792 .632843 .21299744 .632843 .1639862 .6480255 .1329956 .6600342 .12298584 .66503909 .12098694 .66503909 .11999512 .66503909 .10699463 .66503909 .10699463 .6540375 .10699463 .6358948V.34292604C.10699463 .32492066 .10699463 .312912 .12298584 .312912 .1309967 .312912 .13398743 .3169098 .13899231 .32492066 .15098572 .33992005 .18899536 .39093019 .27398683 .39093019 .32998658 .39093019 .35699464 .34492494 .3659973 .32591249 .3829956 .28990174 .3849945 .24389649 .3849945 .20487976 .3849945 .1678772 .38398744 .11387634 .35598756 .069732669 .33699037 .039611818 .29699708 .008514404 .24398804 .008514404 .1789856 .008514404 .114990238 .0496521 .09199524 .11488342 .09498596 .11387634 .100997928 .11387634 .101989749 .11387634 .12998963 .11387634 .1519928 .13188172 .1519928 .16288758 .1519928 .19989014 .12298584 .21289063 .102996829 .21289063 .084991458 .21289063 .052993776 .20288086 .052993776 .15988159 .052993776 .069732669 .1309967-.021484375 .24598694-.021484375 .37098695-.021484375 .47698976 .07574463 .47698976 .19989014 .47698976 .31591798 .3929901 .4189453 .2749939 .4189453 .22499085 .4189453 .17799378 .40293885 .13999939 .368927V.5618439Z"/>
<path id="font_1_1" d="M.4889984 .31877137C.4889984 .42585755 .47799684 .49090577 .44499208 .55496218 .40098573 .6430359 .31999208 .66503909 .2649994 .66503909 .13899231 .66503909 .09298706 .5709839 .07899475 .5429535 .042999269 .4698944 .040985109 .3708191 .040985109 .31877137 .040985109 .25271607 .04399109 .15162659 .09199524 .07156372 .13798523-.0024871827 .21199036-.021484375 .2649994-.021484375 .31298829-.021484375 .39898683-.0064849855 .44898988 .09257507 .48599244 .16464234 .4889984 .2537079 .4889984 .31877137M.2649994 .006515503C.23098755 .006515503 .1619873 .022521973 .14099121 .12760926 .12998963 .18466187 .12998963 .2787323 .12998963 .33078004 .12998963 .3998413 .12998963 .4698944 .14099121 .5249481 .1619873 .6270294 .23999024 .6370239 .2649994 .6370239 .29899598 .6370239 .36799623 .62002566 .3880005 .5289459 .3999939 .4738922 .3999939 .39883424 .3999939 .33078004 .3999939 .27172853 .3999939 .18165589 .3880005 .12561035 .36698915 .020523072 .2979889 .006515503 .2649994 .006515503Z"/>
<path id="font_1_5" d="M.5059967 .608551C.5149994 .6195526 .5149994 .6215515 .5149994 .6435547H.26098634C.23599243 .6435547 .20498657 .64456179 .17999268 .64660647 .12799073 .65068057 .1269989 .6597748 .12399292 .67578127H.09298706L.05899048 .46453858H.08999634C.09199524 .47953797 .102996829 .54855349 .116989139 .5565491 .12799073 .56155398 .20298767 .56155398 .21798706 .56155398H.42999269L.32699586 .4235382C.21299744 .27153016 .18899536 .11351013 .18899536 .03451538 .18899536 .024505616 .18899536-.021484375 .23599243-.021484375 .2829895-.021484375 .2829895 .023513794 .2829895 .035507204V.08351135C.2829895 .2275238 .30699159 .34553529 .35598756 .41053773L.5059967 .608551Z"/>
<path id="font_1_2" d="M.31399537 .63708499C.31399537 .664032 .31199647 .66503909 .2849884 .66503909 .24398804 .6251831 .19099427 .6013489 .09599304 .6013489V.5683594C.12298584 .5683594 .1769867 .5683594 .23498535 .5953522V.08203125C.23498535 .04499817 .23199463 .032989503 .13699341 .032989503H.101989749V0C.14299011 .0029907227 .22898865 .0029907227 .27398683 .0029907227 .31900025 .0029907227 .4059906 .0029907227 .44699098 0V.032989503H.4119873C.31698609 .032989503 .31399537 .04499817 .31399537 .08203125V.63708499Z"/>
<clipPath id="clip_2">
<path transform="matrix(1.00002,0,0,-1.00005,1.2084065,100.84509)" d="M0 0H111.58556V96.2431H0Z"/>
</clipPath>
<path id="font_3_2" d="M.30299378 .3244629H.3999939C.47499085 .3244629 .48298646 .30848695 .48298646 .27954103 .48298646 .2725525 .48298646 .26057435 .47599793 .2306366 .47399903 .22564698 .47299195 .22164917 .47299195 .21965027 .47299195 .21166992 .47898866 .20767212 .4850006 .20767212 .49499513 .20767212 .49499513 .21066284 .5 .2286377L.5549927 .44551087C.55799868 .45651246 .55799868 .45851136 .55799868 .46151734 .55799868 .46351625 .55599978 .47251893 .54599 .47251893 .5359955 .47251893 .5349884 .46751405 .5309906 .45150758 .5099945 .37347413 .4869995 .35546876 .4019928 .35546876H.31098939L.375 .6095886C.38398744 .64460757 .3849945 .64860537 .42900086 .64860537H.5609894C.6839905 .64860537 .70700076 .6156006 .70700076 .53855898 .70700076 .5155487 .70700076 .51153567 .70399478 .4845276 .70199587 .4715271 .70199587 .46951295 .70199587 .46652223 .70199587 .46151734 .7049866 .45451356 .71398928 .45451356 .72499087 .45451356 .7259979 .46051026 .7279968 .4795227L.7480011 .65260317C.7509918 .6796112 .74598696 .6796112 .72099307 .6796112H.23098755C.21099854 .6796112 .20098877 .6796112 .20098877 .65960696 .20098877 .64860537 .20999146 .64860537 .22898865 .64860537 .2659912 .64860537 .2939911 .64860537 .2939911 .6306 .2939911 .6266022 .2939911 .6246033 .2889862 .60658267L.15699768 .07791138C.14698792 .038970949 .14498902 .0309906 .06599426 .0309906 .04899597 .0309906 .037994386 .0309906 .037994386 .011993408 .037994386 0 .049987794 0 .052993776 0 .08198547 0 .1559906 .0029907227 .18499756 .0029907227 .21798706 .0029907227 .30099488 0 .33399964 0 .34298707 0 .35499574 0 .35499574 .018997193 .35499574 .026992798 .34899903 .0289917 .34899903 .02999878 .34599305 .0309906 .34399415 .0309906 .32099916 .0309906 .29899598 .0309906 .2939911 .0309906 .2689972 .032989503 .23999024 .035980226 .23699951 .039978029 .23699951 .052947999 .23699951 .0549469 .23699951 .060943605 .24099732 .075912479L.30299378 .3244629Z"/>
<path id="font_4_4" d="M.68699648 .32714845C.70199587 .32714845 .72099307 .32714845 .72099307 .34713746 .72099307 .36714173 .70199587 .36714173 .6879883 .36714173H.08898926C.07499695 .36714173 .055999757 .36714173 .055999757 .34713746 .055999757 .32714845 .07499695 .32714845 .08999634 .32714845H.68699648M.6879883 .13284302C.70199587 .13284302 .72099307 .13284302 .72099307 .15284729 .72099307 .17285156 .70199587 .17285156 .68699648 .17285156H.08999634C.07499695 .17285156 .055999757 .17285156 .055999757 .15284729 .055999757 .13284302 .07499695 .13284302 .08898926 .13284302H.6879883Z"/>
<path id="font_5_2" d="M.41799928 .29803468C.41799928 .05064392 .29499818 .012466431 .23498535 .012466431 .21299744 .012466431 .1599884 .014465332 .1329956 .045639039 .17399597 .04963684 .1769867 .08363342 .1769867 .09263611 .1769867 .11764526 .1599884 .13964844 .12998963 .13964844 .099990848 .13964844 .08198547 .119644168 .08198547 .09063721 .08198547 .022521973 .13899231-.01953125 .23599243-.01953125 .3789978-.01953125 .5139923 .11564636 .5139923 .32904054 .5139923 .5770569 .4039917 .6640625 .2869873 .6640625 .2539978 .6640625 .18499756 .6590576 .12799073 .60305789 .09399414 .5700531 .053985597 .53105166 .053985597 .4410553 .053985597 .31404115 .15499878 .22003174 .27198792 .22003174 .35198976 .22003174 .394989 .27304078 .41799928 .31803895V.29803468M.2769928 .24804688C.23799134 .24804688 .20098877 .26104737 .17298889 .30703736 .1499939 .34403993 .1499939 .38604737 .1499939 .4410553 .1499939 .49905396 .1499939 .53904727 .1789856 .5790558 .20298767 .61405947 .23599243 .63505557 .28799439 .63505557 .33898927 .63505557 .36898805 .60305789 .3849945 .5770569 .4119873 .53504946 .4149933 .4650421 .4149933 .4300537 .4149933 .30004884 .33999635 .24804688 .2769928 .24804688Z"/>
<path id="font_5_1" d="M.15499878 .5588074C.20599365 .5458069 .23599243 .5458069 .2519989 .5458069 .38398744 .5458069 .46199037 .6358032 .46199037 .6508026 .46199037 .6618042 .45498658 .6648102 .44999696 .6648102 .44799806 .6648102 .44599916 .6648102 .44198609 .6618042 .41799928 .6528015 .36499024 .6328125 .29100038 .6328125 .2630005 .6328125 .20999146 .6348114 .14498902 .6598053 .1349945 .6648102 .1329956 .6648102 .13198853 .6648102 .11898804 .6648102 .11898804 .6538086 .11898804 .6378021V.34251405C.11898804 .32548524 .11898804 .3134613 .1349945 .3134613 .14399719 .3134613 .14498902 .3154602 .15499878 .32748414 .19799805 .38259889 .25898744 .390625 .2939911 .390625 .35398866 .390625 .3809967 .34251405 .38598634 .33450318 .4039917 .30143739 .4099884 .26335145 .4099884 .20524597 .4099884 .17524719 .4099884 .116256717 .37998963 .07234192 .35499574 .03640747 .31199647 .012466431 .2630005 .012466431 .19799805 .012466431 .1309967 .04838562 .10598755 .11425781 .14399719 .11125183 .16299439 .13624573 .16299439 .16325379 .16299439 .20625305 .12599182 .21424866 .11299133 .21424866 .11099243 .21424866 .06298828 .21424866 .06298828 .1602478 .06298828 .07034302 .14498902-.01953125 .2649994-.01953125 .3929901-.01953125 .5049896 .07533264 .5049896 .20124817 .5049896 .31445313 .4189911 .41862489 .29499818 .41862489 .25099183 .41862489 .19898987 .4076233 .15499878 .36956788V.5588074Z"/>
<path id="font_3_1" d="M.7599945 .69506838C.7599945 .69807437 .7579956 .7050781 .7489929 .7050781 .74598696 .7050781 .7449951 .70407107 .73399356 .69306948L.6639862 .61602786C.6549988 .6300354 .60899356 .7050781 .49798585 .7050781 .2749939 .7050781 .049987794 .48391725 .049987794 .25172425 .049987794 .08659363 .16799927-.022460938 .32099916-.022460938 .4079895-.022460938 .48399354 .017532349 .5369873 .063583377 .6299896 .14564514 .6469879 .2367096 .6469879 .23971558 .6469879 .24972534 .6369934 .24972534 .6349945 .24972534 .6289978 .24972534 .6239929 .24772644 .621994 .23971558 .61299136 .21069336 .58999636 .13963318 .5209961 .081588748 .45199586 .025543213 .3889923 .008529663 .33699037 .008529663 .24699402 .008529663 .14099121 .060577394 .14099121 .21670532 .14099121 .27374269 .1619873 .43588258 .2619934 .55296328 .32299806 .62402346 .4169922 .67407229 .5059967 .67407229 .60798647 .67407229 .6669922 .5970001 .6669922 .48091126 .6669922 .44088746 .6639862 .43988038 .6639862 .4298706 .6639862 .41986085 .6749878 .41986085 .67900088 .41986085 .69200137 .41986085 .69200137 .42185975 .69699099 .43988038L.7599945 .69506838Z"/>
<path id="font_4_1" d="M.40899659 .23046875H.6879883C.70199587 .23046875 .72099307 .23046875 .72099307 .25045777 .72099307 .27046205 .70199587 .27046205 .6879883 .27046205H.40899659V.5500183C.40899659 .56399539 .40899659 .5830078 .3889923 .5830078 .36898805 .5830078 .36898805 .56399539 .36898805 .5500183V.27046205H.08898926C.07499695 .27046205 .055999757 .27046205 .055999757 .25045777 .055999757 .23046875 .07499695 .23046875 .08898926 .23046875H.36898805V-.05000305C.36898805-.06401062 .36898805-.08300781 .3889923-.08300781 .40899659-.08300781 .40899659-.06401062 .40899659-.05000305V.23046875Z"/>
<path id="font_4_3" d="M.2899933 .35191346C.37199403 .37893678 .42999269 .4490509 .42999269 .52809146 .42999269 .6100464 .34199525 .6660156 .24598694 .6660156 .14498902 .6660156 .068984989 .60606387 .068984989 .53009036 .068984989 .49710084 .09098816 .47808839 .11999512 .47808839 .15098572 .47808839 .17098999 .50009158 .17098999 .5290985 .17098999 .57910159 .12399292 .57910159 .10899353 .57910159 .13999939 .62802127 .20599365 .64100649 .24198914 .64100649 .2829895 .64100649 .33799745 .6190338 .33799745 .5290985 .33799745 .51708987 .33599855 .45906068 .30999757 .4149933 .27999879 .36691285 .24598694 .36390687 .22099304 .36291505 .21299744 .36190797 .18899536 .35990907 .18199158 .35990907 .17399597 .35890199 .16699219 .35791017 .16699219 .3479004 .16699219 .33691407 .17399597 .33691407 .19099427 .33691407H.23498535C.31698609 .33691407 .35398866 .2686615 .35398866 .17037964 .35398866 .034469606 .2849884 .0055389406 .24099732 .0055389406 .19799805 .0055389406 .12298584 .022491456 .08799744 .08137512 .12298584 .07637024 .1539917 .09837341 .1539917 .1363678 .1539917 .17237854 .1269989 .19238281 .09799194 .19238281 .07398987 .19238281 .041992189 .17837525 .041992189 .1343689 .041992189 .043441774 .1349945-.022460938 .24398804-.022460938 .3659973-.022460938 .45700074 .06838989 .45700074 .17037964 .45700074 .252594 .3939972 .33088685 .2899933 .35191346Z"/>
<path id="font_4_2" d="M.1269989 .07699585 .23298645 .18003845C.3889923 .31811524 .44898988 .3721466 .44898988 .47216798 .44898988 .5860901 .35899354 .6660156 .23699951 .6660156 .12399292 .6660156 .049987794 .57411196 .049987794 .48516847 .049987794 .4291687 .099990848 .4291687 .102996829 .4291687 .11999512 .4291687 .15499878 .44117738 .15499878 .48217774 .15499878 .5081787 .13699341 .5341797 .101989749 .5341797 .09399414 .5341797 .09199524 .5341797 .08898926 .5331726 .11199951 .59806826 .1659851 .63500979 .22399903 .63500979 .31498719 .63500979 .35798646 .5541382 .35798646 .47216798 .35798646 .39215089 .30799867 .31311036 .25299073 .25108338L.06098938 .036987306C.049987794 .025985718 .049987794 .023986817 .049987794 0H.42099L.44898988 .17404175H.42399598C.4189911 .14402771 .4119873 .1000061 .4019928 .084991458 .394989 .07699585 .32899476 .07699585 .30699159 .07699585H.1269989Z"/>
</defs>
<path transform="matrix(1.00002,0,0,-1.00005,1.2084065,100.84509)" d="M0 0H111.58556V96.2431H0Z" fill="#fffac2"/>
<path transform="matrix(1.00002,0,0,-1.00005,1.2084065,100.84509)" stroke-width=".3985" stroke-linecap="butt" stroke-miterlimit="10" stroke-linejoin="miter" fill="none" stroke="#d5d6d5" d="M0 0V96.2431M3.98518 0V96.2431M7.97038 0V96.2431M11.95558 0V96.2431M15.94078 0V96.2431M19.92598 0V96.2431M23.91118 0V96.2431M27.89638 0V96.2431M31.88158 0V96.2431M35.86678 0V96.2431M39.85197 0V96.2431M43.83717 0V96.2431M47.82237 0V96.2431M51.80757 0V96.2431M55.79277 0V96.2431M59.77797 0V96.2431M63.76317 0V96.2431M67.74837 0V96.2431M71.73357 0V96.2431M75.71877 0V96.2431M79.70396 0V96.2431M83.68916 0V96.2431M87.67436 0V96.2431M91.65956 0V96.2431M95.64476 0V96.2431M99.62996 0V96.2431M103.61516 0V96.2431M107.60036 0V96.2431M111.58556 0V96.2431"/>
<path transform="matrix(1.00002,0,0,-1.00005,1.2084065,100.84509)" stroke-width=".3985" stroke-linecap="butt" stroke-miterlimit="10" stroke-linejoin="miter" fill="none" stroke="#d5d6d5" d="M35.86678 0V96.2431M55.79277 0V96.2431M75.71877 0V96.2431M95.64476 0V96.2431"/>
<path transform="matrix(1.00002,0,0,-1.00005,1.2084065,100.84509)" stroke-width=".3985" stroke-linecap="butt" stroke-miterlimit="10" stroke-linejoin="miter" fill="none" stroke="#d5d6d5" d="M0 3.56454H111.58556M0 7.1291H111.58556M0 10.69366H111.58556M0 14.25822H111.58556M0 17.82278H111.58556M0 21.38734H111.58556M0 24.9519H111.58556M0 28.51646H111.58556M0 32.08102H111.58556M0 35.64558H111.58556M0 39.21014H111.58556M0 42.7747H111.58556M0 46.33926H111.58556M0 49.90382H111.58556M0 53.46838H111.58556M0 57.03294H111.58556M0 60.5975H111.58556M0 64.16206H111.58556M0 67.72662H111.58556M0 71.29118H111.58556M0 74.85574H111.58556M0 78.4203H111.58556M0 81.98486H111.58556M0 85.54942H111.58556M0 89.11398H111.58556M0 92.67854H111.58556M0 96.2431H111.58556"/>
<path transform="matrix(1.00002,0,0,-1.00005,1.2084065,100.84509)" stroke-width=".3985" stroke-linecap="butt" stroke-miterlimit="10" stroke-linejoin="miter" fill="none" stroke="#d5d6d5" d="M0 24.9519H111.58556M0 42.7747H111.58556M0 60.5975H111.58556M0 78.4203H111.58556M0 96.2431H111.58556"/>
<path transform="matrix(1.00002,0,0,-1.00005,1.2084065,100.84509)" stroke-width=".19925" stroke-linecap="butt" stroke-miterlimit="10" stroke-linejoin="miter" fill="none" stroke="#929292" d="M0 5.71172V8.54651M3.98518 5.71172V8.54651M7.97038 5.71172V8.54651M11.95558 5.71172V8.54651M15.94078 5.71172V8.54651M19.92598 5.71172V8.54651M23.91118 5.71172V8.54651M27.89638 5.71172V8.54651M31.88158 5.71172V8.54651M35.86678 5.71172V8.54651M39.85197 5.71172V8.54651M43.83717 5.71172V8.54651M47.82237 5.71172V8.54651M51.80757 5.71172V8.54651M55.79277 5.71172V8.54651M59.77797 5.71172V8.54651M63.76317 5.71172V8.54651M67.74837 5.71172V8.54651M71.73357 5.71172V8.54651M75.71877 5.71172V8.54651M79.70396 5.71172V8.54651M83.68916 5.71172V8.54651M87.67436 5.71172V8.54651M91.65956 5.71172V8.54651M95.64476 5.71172V8.54651M99.62996 5.71172V8.54651M103.61516 5.71172V8.54651M107.60036 5.71172V8.54651M111.58556 5.71172V8.54651"/>
<path transform="matrix(1.00002,0,0,-1.00005,1.2084065,100.84509)" stroke-width=".19925" stroke-linecap="butt" stroke-miterlimit="10" stroke-linejoin="miter" fill="none" stroke="#929292" d="M35.86678 5.00322V9.25499M55.79277 5.00322V9.25499M75.71877 5.00322V9.25499M95.64476 5.00322V9.25499"/>
<path transform="matrix(1.00002,0,0,-1.00005,1.2084065,100.84509)" stroke-width=".19925" stroke-linecap="butt" stroke-miterlimit="10" stroke-linejoin="miter" fill="none" stroke="#929292" d="M14.52347 3.56454H17.35812M14.52347 7.1291H17.35812M14.52347 10.69366H17.35812M14.52347 14.25822H17.35812M14.52347 17.82278H17.35812M14.52347 21.38734H17.35812M14.52347 24.9519H17.35812M14.52347 28.51646H17.35812M14.52347 32.08102H17.35812M14.52347 35.64558H17.35812M14.52347 39.21014H17.35812M14.52347 42.7747H17.35812M14.52347 46.33926H17.35812M14.52347 49.90382H17.35812M14.52347 53.46838H17.35812M14.52347 57.03294H17.35812M14.52347 60.5975H17.35812M14.52347 64.16206H17.35812M14.52347 67.72662H17.35812M14.52347 71.29118H17.35812M14.52347 74.85574H17.35812M14.52347 78.4203H17.35812M14.52347 81.98486H17.35812M14.52347 85.54942H17.35812M14.52347 89.11398H17.35812M14.52347 92.67854H17.35812M14.52347 96.2431H17.35812"/>
<path transform="matrix(1.00002,0,0,-1.00005,1.2084065,100.84509)" stroke-width=".19925" stroke-linecap="butt" stroke-miterlimit="10" stroke-linejoin="miter" fill="none" stroke="#929292" d="M13.81499 24.9519H18.06657M13.81499 42.7747H18.06657M13.81499 60.5975H18.06657M13.81499 78.4203H18.06657M13.81499 96.2431H18.06657"/>
<path transform="matrix(1.00002,0,0,-1.00005,1.2084065,100.84509)" stroke-width=".3985" stroke-linecap="butt" stroke-miterlimit="10" stroke-linejoin="miter" fill="none" stroke="#000000" d="M1.99252 7.1291H109.59303"/>
<path transform="matrix(-1.00002,-0,0,1.00005,3.2009664,93.71564)" d="M1.99252 0-1.19551 1.59401 0 0-1.19551-1.59401"/>
<path transform="matrix(1.00002,0,0,-1.00005,110.803638,93.71564)" d="M1.99252 0-1.19551 1.59401 0 0-1.19551-1.59401"/>
<path transform="matrix(1.00002,0,0,-1.00005,1.2084065,100.84509)" stroke-width=".3985" stroke-linecap="butt" stroke-miterlimit="10" stroke-linejoin="miter" fill="none" stroke="#000000" d="M15.94078 1.99252V94.25058"/>
<path transform="matrix(0,1.00005,1.00002,0,17.149506,98.85247)" d="M1.99252 0-1.19551 1.59401 0 0-1.19551-1.59401"/>
<path transform="matrix(0,-1.00005,-1.00002,-0,17.149506,6.5898058)" d="M1.99252 0-1.19551 1.59401 0 0-1.19551-1.59401"/>
<use data-text="2" xlink:href="#font_1_3" transform="matrix(7.9702599,0,0,-7.970498,32.84204,104.498279)"/>
<use data-text="5" xlink:href="#font_1_4" transform="matrix(7.9702599,0,0,-7.970498,37.074247,104.498279)"/>
<use data-text="5" xlink:href="#font_1_4" transform="matrix(7.9702599,0,0,-7.970498,52.76844,104.498279)"/>
<use data-text="0" xlink:href="#font_1_1" transform="matrix(7.9702599,0,0,-7.970498,57.000646,104.498279)"/>
<use data-text="7" xlink:href="#font_1_5" transform="matrix(7.9702599,0,0,-7.970498,72.69484,104.498279)"/>
<use data-text="5" xlink:href="#font_1_4" transform="matrix(7.9702599,0,0,-7.970498,76.92705,104.498279)"/>
<use data-text="1" xlink:href="#font_1_2" transform="matrix(7.9702599,0,0,-7.970498,90.50319,104.498279)"/>
<use data-text="0" xlink:href="#font_1_1" transform="matrix(7.9702599,0,0,-7.970498,94.7354,104.498279)"/>
<use data-text="0" xlink:href="#font_1_1" transform="matrix(7.9702599,0,0,-7.970498,98.967609,104.498279)"/>
<use data-text="5" xlink:href="#font_1_4" transform="matrix(7.9702599,0,0,-7.970498,4.92548,78.45998)"/>
<use data-text="0" xlink:href="#font_1_1" transform="matrix(7.9702599,0,0,-7.970498,9.157686,78.45998)"/>
<use data-text="1" xlink:href="#font_1_2" transform="matrix(7.9702599,0,0,-7.970498,.6913967,60.636087)"/>
<use data-text="0" xlink:href="#font_1_1" transform="matrix(7.9702599,0,0,-7.970498,4.923603,60.636087)"/>
<use data-text="0" xlink:href="#font_1_1" transform="matrix(7.9702599,0,0,-7.970498,9.155813,60.636087)"/>
<use data-text="1" xlink:href="#font_1_2" transform="matrix(7.9702599,0,0,-7.970498,.6913967,42.813196)"/>
<use data-text="5" xlink:href="#font_1_4" transform="matrix(7.9702599,0,0,-7.970498,4.923603,42.813196)"/>
<use data-text="0" xlink:href="#font_1_1" transform="matrix(7.9702599,0,0,-7.970498,9.155813,42.813196)"/>
<use data-text="2" xlink:href="#font_1_3" transform="matrix(7.9702599,0,0,-7.970498,.6913967,24.989304)"/>
<use data-text="0" xlink:href="#font_1_1" transform="matrix(7.9702599,0,0,-7.970498,4.923603,24.989304)"/>
<use data-text="0" xlink:href="#font_1_1" transform="matrix(7.9702599,0,0,-7.970498,9.155813,24.989304)"/>
<use data-text="2" xlink:href="#font_1_3" transform="matrix(7.9702599,0,0,-7.970498,.6913967,7.165413)"/>
<use data-text="5" xlink:href="#font_1_4" transform="matrix(7.9702599,0,0,-7.970498,4.923603,7.165413)"/>
<use data-text="0" xlink:href="#font_1_1" transform="matrix(7.9702599,0,0,-7.970498,9.155813,7.165413)"/>
<g clip-path="url(#clip_2)">
<path transform="matrix(1.00002,0,0,-1.00005,1.2084065,100.84509)" stroke-width=".99628" stroke-linecap="butt" stroke-miterlimit="10" stroke-linejoin="miter" fill="none" stroke="#9e0c0f" d="M6.43552 10.88394 4.64935 9.44604 9.29872 13.18881 13.94809 16.93158 18.59747 20.67435 23.24683 24.4171 27.89621 28.15988 32.5456 31.90263 37.19496 35.64542 41.84431 39.38818 46.4937 43.13094 51.14307 46.87372 55.79243 50.61647 60.44182 54.35924 65.09117 58.102 69.74055 61.84477 74.38994 65.58754 79.0393 69.3303 83.68866 73.07307 88.33803 76.81583 92.98741 80.55861 97.63678 84.30133 102.28615 88.04408 106.93552 91.78694 105.14935 90.34904"/>
<path transform="matrix(-.7789456,.6270713,.6270526,.77896896,8.192816,89.518848)" d="M7.39124 0 2.37614 1.6717 .70447 0 2.37614-1.6717Z" fill="#9e0c0f"/>
<path transform="matrix(-.7789456,.6270713,.6270526,.77896896,8.192816,89.518848)" stroke-width=".99628" stroke-linecap="butt" stroke-miterlimit="10" stroke-linejoin="miter" fill="none" stroke="#9e0c0f" d="M7.39124 0 2.37614 1.6717 .70447 0 2.37614-1.6717Z"/>
<path transform="matrix(.7789456,-.6270713,-.6270526,-.77896896,105.81112,10.933296)" d="M7.39124 0 2.37614 1.6717 .70447 0 2.37614-1.6717Z" fill="#9e0c0f"/>
<path transform="matrix(.7789456,-.6270713,-.6270526,-.77896896,105.81112,10.933296)" stroke-width=".99628" stroke-linecap="butt" stroke-miterlimit="10" stroke-linejoin="miter" fill="none" stroke="#9e0c0f" d="M7.39124 0 2.37614 1.6717 .70447 0 2.37614-1.6717Z"/>
<use data-text="F" xlink:href="#font_3_2" transform="matrix(7.7603237,-6.2472608,-6.247074,-7.7605559,52.411348,44.60868)" fill="#9e0c0f"/>
<use data-text="=" xlink:href="#font_4_4" transform="matrix(7.7603237,-6.2472608,-6.247074,-7.7605559,60.634675,37.988695)" fill="#9e0c0f"/>
<use data-text="9" xlink:href="#font_5_2" transform="matrix(5.432211,-4.3730704,-4.3729398,-5.4323737,67.298389,27.589316)" fill="#9e0c0f"/>
<path transform="matrix(.7789456,-.6270713,-.6270526,-.77896896,-36.876359,-30.979495)" stroke-width=".3985" stroke-linecap="butt" stroke-miterlimit="10" stroke-linejoin="miter" fill="none" stroke="#9e0c0f" d="M44.424-112.381H48.395"/>
<use data-text="5" xlink:href="#font_5_1" transform="matrix(5.432211,-4.3730704,-4.3729398,-5.4323737,71.91224,33.32097)" fill="#9e0c0f"/>
<use data-text="C" xlink:href="#font_3_1" transform="matrix(7.7603237,-6.2472608,-6.247074,-7.7605559,73.78249,27.404356)" fill="#9e0c0f"/>
<use data-text="+" xlink:href="#font_4_1" transform="matrix(7.7603237,-6.2472608,-6.247074,-7.7605559,81.60856,21.104166)" fill="#9e0c0f"/>
<use data-text="3" xlink:href="#font_4_3" transform="matrix(7.7603237,-6.2472608,-6.247074,-7.7605559,89.36112,14.863153)" fill="#9e0c0f"/>
<use data-text="2" xlink:href="#font_4_2" transform="matrix(7.7603237,-6.2472608,-6.247074,-7.7605559,93.24129,11.739523)" fill="#9e0c0f"/>
</g>
<path transform="matrix(1.00002,0,0,-1.00005,1.2084065,100.84509)" d="M17.93333 18.5357C17.93333 19.63617 17.04126 20.52826 15.94078 20.52826 14.84032 20.52826 13.94823 19.63617 13.94823 18.5357 13.94823 17.43523 14.84032 16.54315 15.94078 16.54315 17.04126 16.54315 17.93333 17.43523 17.93333 18.5357ZM15.94078 18.5357" fill="#9e0c0f"/>
<path transform="matrix(1.00002,0,0,-1.00005,1.2084065,100.84509)" stroke-width=".3985" stroke-linecap="butt" stroke-miterlimit="10" stroke-linejoin="miter" fill="none" stroke="#9e0c0f" d="M17.93333 18.5357C17.93333 19.63617 17.04126 20.52826 15.94078 20.52826 14.84032 20.52826 13.94823 19.63617 13.94823 18.5357 13.94823 17.43523 14.84032 16.54315 15.94078 16.54315 17.04126 16.54315 17.93333 17.43523 17.93333 18.5357ZM15.94078 18.5357"/>
<path transform="matrix(1.00002,0,0,-1.00005,1.2084065,100.84509)" stroke-width=".3985" stroke-linecap="butt" stroke-miterlimit="10" stroke-linejoin="miter" fill="none" stroke="#9e0c0f" d=""/>
<path transform="matrix(1.00002,0,0,-1.00005,1.2084065,100.84509)" d="M57.78532 50.61674C57.78532 51.71721 56.89325 52.6093 55.79277 52.6093 54.6923 52.6093 53.80022 51.71721 53.80022 50.61674 53.80022 49.51627 54.6923 48.62419 55.79277 48.62419 56.89325 48.62419 57.78532 49.51627 57.78532 50.61674ZM55.79277 50.61674" fill="#9e0c0f"/>
<path transform="matrix(1.00002,0,0,-1.00005,1.2084065,100.84509)" stroke-width=".3985" stroke-linecap="butt" stroke-miterlimit="10" stroke-linejoin="miter" fill="none" stroke="#9e0c0f" d="M57.78532 50.61674C57.78532 51.71721 56.89325 52.6093 55.79277 52.6093 54.6923 52.6093 53.80022 51.71721 53.80022 50.61674 53.80022 49.51627 54.6923 48.62419 55.79277 48.62419 56.89325 48.62419 57.78532 49.51627 57.78532 50.61674ZM55.79277 50.61674"/>
<path transform="matrix(1.00002,0,0,-1.00005,1.2084065,100.84509)" stroke-width=".3985" stroke-linecap="butt" stroke-miterlimit="10" stroke-linejoin="miter" fill="none" stroke="#9e0c0f" d=""/>
<path transform="matrix(1.00002,0,0,-1.00005,1.2084065,100.84509)" d="M97.63731 82.69778C97.63731 83.79825 96.74522 84.69034 95.64476 84.69034 94.54428 84.69034 93.6522 83.79825 93.6522 82.69778 93.6522 81.5973 94.54428 80.70523 95.64476 80.70523 96.74522 80.70523 97.63731 81.5973 97.63731 82.69778ZM95.64476 82.69778" fill="#9e0c0f"/>
<path transform="matrix(1.00002,0,0,-1.00005,1.2084065,100.84509)" stroke-width=".3985" stroke-linecap="butt" stroke-miterlimit="10" stroke-linejoin="miter" fill="none" stroke="#9e0c0f" d="M97.63731 82.69778C97.63731 83.79825 96.74522 84.69034 95.64476 84.69034 94.54428 84.69034 93.6522 83.79825 93.6522 82.69778 93.6522 81.5973 94.54428 80.70523 95.64476 80.70523 96.74522 80.70523 97.63731 81.5973 97.63731 82.69778ZM95.64476 82.69778"/>
<path transform="matrix(1.00002,0,0,-1.00005,1.2084065,100.84509)" stroke-width=".3985" stroke-linecap="butt" stroke-miterlimit="10" stroke-linejoin="miter" fill="none" stroke="#9e0c0f" d=""/>
<use data-text="C" xlink:href="#font_3_1" transform="matrix(9.962799,0,0,-9.963098,101.44342,90.19556)"/>
<use data-text="F" xlink:href="#font_3_2" transform="matrix(9.962799,0,0,-9.963098,20.669796,14.925804)"/>
</svg>
