<svg xmlns="http://www.w3.org/2000/svg" xmlns:xlink="http://www.w3.org/1999/xlink" version="1.1" width="178" height="156" viewBox="0 0 178 156">
<defs>
<path id="font_1_3" d="M.28199769 .20405579C.2979889 .21907044 .33999635 .2520752 .35598756 .26608277 .41799928 .32312013 .47698976 .3781433 .47698976 .46917726 .47698976 .588089 .3769989 .66503909 .2519989 .66503909 .13198853 .66503909 .052993776 .57411196 .052993776 .48516847 .052993776 .4361725 .09199524 .4291687 .10598755 .4291687 .1269989 .4291687 .1579895 .4441681 .1579895 .48217774 .1579895 .5341797 .10798645 .5341797 .09599304 .5341797 .125 .6070709 .19198609 .6320343 .24099732 .6320343 .33399964 .6320343 .38198854 .55314639 .38198854 .46917726 .38198854 .36514283 .30899049 .28910829 .19099427 .16804505L.06498718 .037994386C.052993776 .026992798 .052993776 .024993897 .052993776 0H.44799806L.47698976 .17904663H.44599916C.44299317 .1590271 .43499757 .10900879 .4229889 .08999634 .4169922 .08198547 .34098817 .08198547 .32499696 .08198547H.14698792L.28199769 .20405579Z"/>
<path id="font_1_4" d="M.3939972 .6468048C.3939972 .6667938 .3939972 .6748047 .37298585 .6748047 .3600006 .6748047 .35899354 .6737976 .34899903 .65979006L.02999878 .197052V.1640625H.31199647V.08100891C.31199647 .04399109 .30899049 .032989503 .23199463 .032989503H.20899964V0C.2939911 .0029907227 .29599 .0029907227 .35299684 .0029907227 .4099884 .0029907227 .4119873 .0029907227 .49699403 0V.032989503H.47399903C.39698792 .032989503 .3939972 .04399109 .3939972 .08100891V.1640625H.5V.197052H.3939972V.6468048M.31900025 .5658417V.197052H.06498718L.31900025 .5658417Z"/>
<path id="font_1_5" d="M.13798523 .33073426C.13798523 .41377259 .14498902 .4868164 .18099976 .54782107 .21099854 .5978241 .2619934 .6390381 .32499696 .6390381 .34498597 .6390381 .3909912 .63601687 .4139862 .60084536 .36898805 .5988312 .36499024 .5648346 .36499024 .553833 .36499024 .5238342 .3880005 .50683596 .4119873 .50683596 .42999269 .50683596 .45899964 .51782229 .45899964 .5558319 .45899964 .615921 .4139862 .66503909 .32398988 .66503909 .18499756 .66503909 .04399109 .53282168 .04399109 .31672669 .04399109 .045532228 .16999817-.021484375 .2669983-.021484375 .31498719-.021484375 .36698915-.0084991459 .4119873 .03453064 .45199586 .07354736 .48599244 .11558533 .48599244 .20263672 .48599244 .33372499 .3869934 .42578126 .27598573 .42578126 .20399475 .42578126 .16099549 .37976075 .13798523 .33073426M.2669983 .008514404C.21398926 .008514404 .18099976 .045532228 .1659851 .07354736 .14299011 .11859131 .14099121 .18663025 .14099121 .22465515 .14099121 .32373048 .19499207 .3977661 .27198792 .3977661 .32199098 .3977661 .35198976 .37176515 .37098695 .33673097 .3919983 .29971314 .3919983 .25468446 .3919983 .2036438 .3919983 .15260315 .3919983 .10858154 .37199403 .07255554 .34599305 .026519776 .31098939 .008514404 .2669983 .008514404Z"/>
<path id="font_1_6" d="M.33198548 .36080934C.3880005 .38783265 .45599366 .4378662 .45599366 .5159302 .45599366 .6110077 .35899354 .66503909 .2659912 .66503909 .1599884 .66503909 .07398987 .59199526 .07398987 .49790956 .07398987 .46089173 .08699036 .42686463 .11199951 .39782716 .1289978 .3768158 .1329956 .3748169 .19499207 .3357849 .070999149 .2807312 .04399109 .20767212 .04399109 .15162659 .04399109 .041534425 .15499878-.021484375 .2639923-.021484375 .3869934-.021484375 .48599244 .061553956 .48599244 .16764832 .48599244 .23069763 .45199586 .2727356 .43598939 .28974916 .4189911 .30575563 .41799928 .3067627 .33198548 .36080934M.1769867 .45487977C.147995 .4718933 .12399292 .5009155 .12399292 .5359497 .12399292 .598999 .19299317 .6390381 .2639923 .6390381 .34199525 .6390381 .4059906 .5859833 .4059906 .5159302 .4059906 .45788575 .36099244 .408844 .3019867 .37982179L.1769867 .45487977M.22599793 .31776429C.22999573 .31576539 .34399415 .24571228 .36099244 .23469544 .3769989 .22569275 .42900086 .19366455 .42900086 .13360596 .42900086 .056549074 .34799195 .008514404 .2659912 .008514404 .1769867 .008514404 .100997928 .06956482 .100997928 .15162659 .100997928 .22668457 .15699768 .28573609 .22599793 .31776429Z"/>
<path id="font_1_2" d="M.31399537 .63708499C.31399537 .664032 .31199647 .66503909 .2849884 .66503909 .24398804 .6251831 .19099427 .6013489 .09599304 .6013489V.5683594C.12298584 .5683594 .1769867 .5683594 .23498535 .5953522V.08203125C.23498535 .04499817 .23199463 .032989503 .13699341 .032989503H.101989749V0C.14299011 .0029907227 .22898865 .0029907227 .27398683 .0029907227 .31900025 .0029907227 .4059906 .0029907227 .44699098 0V.032989503H.4119873C.31698609 .032989503 .31399537 .04499817 .31399537 .08203125V.63708499Z"/>
<path id="font_1_1" d="M.4889984 .31877137C.4889984 .42585755 .47799684 .49090577 .44499208 .55496218 .40098573 .6430359 .31999208 .66503909 .2649994 .66503909 .13899231 .66503909 .09298706 .5709839 .07899475 .5429535 .042999269 .4698944 .040985109 .3708191 .040985109 .31877137 .040985109 .25271607 .04399109 .15162659 .09199524 .07156372 .13798523-.0024871827 .21199036-.021484375 .2649994-.021484375 .31298829-.021484375 .39898683-.0064849855 .44898988 .09257507 .48599244 .16464234 .4889984 .2537079 .4889984 .31877137M.2649994 .006515503C.23098755 .006515503 .1619873 .022521973 .14099121 .12760926 .12998963 .18466187 .12998963 .2787323 .12998963 .33078004 .12998963 .3998413 .12998963 .4698944 .14099121 .5249481 .1619873 .6270294 .23999024 .6370239 .2649994 .6370239 .29899598 .6370239 .36799623 .62002566 .3880005 .5289459 .3999939 .4738922 .3999939 .39883424 .3999939 .33078004 .3999939 .27172853 .3999939 .18165589 .3880005 .12561035 .36698915 .020523072 .2979889 .006515503 .2649994 .006515503Z"/>
<clipPath id="clip_2">
<path transform="matrix(1.00008,0,0,-1.00002,12.915554,143.15328)" d="M0 0H163.88736V141.35422H0Z"/>
</clipPath>
<path id="font_3_2" d="M.2899933 .35191346C.37199403 .37893678 .42999269 .4490509 .42999269 .52809146 .42999269 .6100464 .34199525 .6660156 .24598694 .6660156 .14498902 .6660156 .068984989 .60606387 .068984989 .53009036 .068984989 .49710084 .09098816 .47808839 .11999512 .47808839 .15098572 .47808839 .17098999 .50009158 .17098999 .5290985 .17098999 .57910159 .12399292 .57910159 .10899353 .57910159 .13999939 .62802127 .20599365 .64100649 .24198914 .64100649 .2829895 .64100649 .33799745 .6190338 .33799745 .5290985 .33799745 .51708987 .33599855 .45906068 .30999757 .4149933 .27999879 .36691285 .24598694 .36390687 .22099304 .36291505 .21299744 .36190797 .18899536 .35990907 .18199158 .35990907 .17399597 .35890199 .16699219 .35791017 .16699219 .3479004 .16699219 .33691407 .17399597 .33691407 .19099427 .33691407H.23498535C.31698609 .33691407 .35398866 .2686615 .35398866 .17037964 .35398866 .034469606 .2849884 .0055389406 .24099732 .0055389406 .19799805 .0055389406 .12298584 .022491456 .08799744 .08137512 .12298584 .07637024 .1539917 .09837341 .1539917 .1363678 .1539917 .17237854 .1269989 .19238281 .09799194 .19238281 .07398987 .19238281 .041992189 .17837525 .041992189 .1343689 .041992189 .043441774 .1349945-.022460938 .24398804-.022460938 .3659973-.022460938 .45700074 .06838989 .45700074 .17037964 .45700074 .252594 .3939972 .33088685 .2899933 .35191346Z"/>
<path id="font_4_63" d="M.5349884 0V.0309906C.48298646 .0309906 .45799256 .0309906 .45700074 .061019899V.25221253C.45700074 .3383026 .45700074 .36932374 .42599488 .405365 .4119873 .42237855 .3789978 .4423828 .32099916 .4423828 .23699951 .4423828 .19299317 .38233949 .1769867 .34629823H.17599488V.69433596L.03199768 .6826172V.6516113C.101989749 .6516113 .10998535 .64463809 .10998535 .59580996V.076034549C.10998535 .0309906 .09899902 .0309906 .03199768 .0309906V0L.14498902 .0029907227 .25698854 0V.0309906C.18998719 .0309906 .1789856 .0309906 .1789856 .076034549V.2602234C.1789856 .36431886 .25 .42037965 .31399537 .42037965 .3769989 .42037965 .3880005 .36631776 .3880005 .30926515V.076034549C.3880005 .0309906 .3769989 .0309906 .30999757 .0309906V0L.4229889 .0029907227 .5349884 0Z"/>
<path id="font_4_81" d="M.47099305 .21424866C.47099305 .34223939 .37098695 .4482422 .25 .4482422 .125 .4482422 .027999878 .3392334 .027999878 .21424866 .027999878 .085250858 .13198853-.0107421879 .24899292-.0107421879 .36999513-.0107421879 .47099305 .087249759 .47099305 .21424866M.3880005 .22224427C.3880005 .18624878 .3880005 .13224793 .3659973 .08824158 .34399415 .04324341 .2999878 .014251709 .25 .014251709 .20698548 .014251709 .16299439 .035247804 .13598633 .08125305 .11099243 .12524414 .11099243 .18624878 .11099243 .22224427 .11099243 .26124574 .11099243 .31523133 .1349945 .35923768 .1619873 .40522767 .20899964 .426239 .24899292 .426239 .29299928 .426239 .33599855 .40423585 .3619995 .36123658 .3880005 .3182373 .3880005 .26023866 .3880005 .22224427Z"/>
<path id="font_4_109" d="M.5349884 0V.0309906C.46499635 .0309906 .45700074 .037994386 .45700074 .08705139V.4423828L.30999757 .43066407V.3996582C.37998963 .3996582 .3880005 .39266969 .3880005 .34373475V.16601563C.3880005 .07910156 .33999635 .011245728 .2669983 .011245728 .18299866 .011245728 .1789856 .058135988 .1789856 .11009216V.4423828L.03199768 .43066407V.3996582C.10998535 .3996582 .10998535 .39666749 .10998535 .3078003V.15802002C.10998535 .080093387 .10998535-.0107421879 .2619934-.0107421879 .31799317-.0107421879 .3619995 .017242432 .3909912 .07910156V-.0107421879L.5349884 0Z"/>
<path id="font_4_96" d="M.3639984 .38137818C.3639984 .41337586 .33299256 .4423828 .2899933 .4423828 .21699524 .4423828 .18099976 .37538148 .16699219 .3323822V.4423828L.027999878 .43066407V.3996582C.09799194 .3996582 .10598755 .39266969 .10598755 .34370423V.07595825C.10598755 .0309906 .09498596 .0309906 .027999878 .0309906V0L.14199829 .0029907227C.18199158 .0029907227 .22898865 .0029907227 .2689972 0V.0309906H.24798584C.17399597 .0309906 .17199707 .04197693 .17199707 .07795715V.23181153C.17199707 .33137513 .21398926 .42037965 .2899933 .42037965 .29699708 .42037965 .29899598 .42037965 .30099488 .41937257 .2979889 .41838075 .27799989 .40637208 .27799989 .3803711 .27799989 .35237123 .29899598 .33737184 .32099916 .33737184 .33898927 .33737184 .3639984 .3493805 .3639984 .38137818Z"/>
<path id="font_4_98" d="M.3600006 .12823487C.3600006 .18122864 .32998658 .21122742 .31799317 .22323609 .2849884 .25523377 .24598694 .26322938 .20399475 .27124024 .147995 .28224183 .08099365 .29522706 .08099365 .35324098 .08099365 .38822938 .10699463 .42922975 .19299317 .42922975 .30299378 .42922975 .30799867 .3392334 .30999757 .30822755 .31098939 .2992401 .32199098 .2992401 .32199098 .2992401 .33499146 .2992401 .33499146 .30422975 .33499146 .32322694V.4242401C.33499146 .4412384 .33499146 .4482422 .32398988 .4482422 .31900025 .4482422 .31698609 .4482422 .3039856 .43623353 .30099488 .43223573 .29100038 .42323304 .2869873 .42022706 .24899292 .4482422 .20799256 .4482422 .19299317 .4482422 .070999149 .4482422 .032989503 .38124085 .032989503 .3252411 .032989503 .29023744 .04899597 .26223756 .07598877 .24023438 .10798645 .2142334 .13598633 .2082367 .20799256 .19422913 .22999573 .19021607 .31199647 .17422486 .31199647 .10221863 .31199647 .051223756 .2769928 .011245728 .19898987 .011245728 .114990238 .011245728 .07899475 .068222049 .05999756 .1532135 .056991579 .16621399 .055999757 .17021179 .04598999 .17021179 .032989503 .17021179 .032989503 .16322327 .032989503 .1452179V.013214111C.032989503-.003753662 .032989503-.0107421879 .04399109-.0107421879 .04899597-.0107421879 .049987794-.009750366 .068984989 .009246826 .070999149 .011245728 .070999149 .013214111 .08898926 .032226564 .1329956-.009750366 .17799378-.0107421879 .19898987-.0107421879 .31399537-.0107421879 .3600006 .05621338 .3600006 .1282196V.12823487Z"/>
<path id="font_5_1" d="M.6589966 .23046875C.6759949 .23046875 .69400027 .23046875 .69400027 .25045777 .69400027 .27046205 .6759949 .27046205 .6589966 .27046205H.117996219C.100997928 .27046205 .08299255 .27046205 .08299255 .25045777 .08299255 .23046875 .100997928 .23046875 .117996219 .23046875H.6589966Z"/>
<path id="font_3_1" d="M.1269989 .07699585 .23298645 .18003845C.3889923 .31811524 .44898988 .3721466 .44898988 .47216798 .44898988 .5860901 .35899354 .6660156 .23699951 .6660156 .12399292 .6660156 .049987794 .57411196 .049987794 .48516847 .049987794 .4291687 .099990848 .4291687 .102996829 .4291687 .11999512 .4291687 .15499878 .44117738 .15499878 .48217774 .15499878 .5081787 .13699341 .5341797 .101989749 .5341797 .09399414 .5341797 .09199524 .5341797 .08898926 .5331726 .11199951 .59806826 .1659851 .63500979 .22399903 .63500979 .31498719 .63500979 .35798646 .5541382 .35798646 .47216798 .35798646 .39215089 .30799867 .31311036 .25299073 .25108338L.06098938 .036987306C.049987794 .025985718 .049987794 .023986817 .049987794 0H.42099L.44898988 .17404175H.42399598C.4189911 .14402771 .4119873 .1000061 .4019928 .084991458 .394989 .07699585 .32899476 .07699585 .30699159 .07699585H.1269989Z"/>
<path id="font_4_59" d="M.4850006 .40411378C.4850006 .42111207 .47299195 .453125 .43399049 .453125 .4139862 .453125 .36999513 .44711305 .32798768 .40611268 .28599549 .43937684 .24398804 .4423828 .22200012 .4423828 .1289978 .4423828 .05999756 .37338258 .05999756 .29638673 .05999756 .25239564 .08198547 .21440125 .10699463 .19340515 .09399414 .17840576 .07598877 .14538574 .07598877 .11035156 .07598877 .07899475 .08898926 .04083252 .11999512 .020828248 .05999756 .003829956 .027999878-.039138795 .027999878-.07911682 .027999878-.15107727 .1269989-.20605469 .24899292-.20605469 .36698915-.20605469 .47099305-.15507508 .47099305-.07711792 .47099305-.042144777 .45700074 .008834839 .4059906 .036834718 .35299684 .064834598 .29499818 .064834598 .23399353 .064834598 .20899964 .064834598 .1659851 .064834598 .15899658 .065841678 .1269989 .069885257 .10598755 .101242069 .10598755 .13334656 .10598755 .13735962 .10598755 .16040039 .12298584 .18040467 .1619873 .15240479 .20298767 .14941406 .22200012 .14941406 .31498719 .14941406 .38398744 .21839905 .38398744 .2953949 .38398744 .3323822 .36799623 .36938478 .34298707 .39237977 .3789978 .42637635 .4149933 .43138124 .43299867 .43138124 .43299867 .43112184 .43998719 .43112184 .44299317 .43011476 .43199159 .42611695 .4269867 .41513063 .4269867 .40315248 .4269867 .38616944 .43998719 .37417604 .45599366 .37417604 .46598817 .37417604 .4850006 .3811798 .4850006 .4041443V.40411378M.30899049 .29626466C.30899049 .26930238 .30799867 .2373352 .29299928 .21235657 .2849884 .20037842 .2619934 .17240906 .22200012 .17240906 .1349945 .17240906 .1349945 .2722931 .1349945 .29527284 .1349945 .3222351 .13598633 .35420228 .15098572 .3791809 .15899658 .3913269 .18199158 .41937257 .22200012 .41937257 .30899049 .41937257 .30899049 .31922914 .30899049 .29618836V.29626466M.4189911-.07911682C.4189911-.13308716 .34799195-.18305969 .25-.18305969 .14898682-.18305969 .07998657-.13209534 .07998657-.07911682 .07998657-.03314209 .117996219 .003829956 .1619873 .0068359377H.22099304C.30699159 .0068359377 .4189911 .0068359377 .4189911-.07911682Z"/>
<path id="font_4_28" d="M.48298646 .08912659V.14511109H.45799256V.08912659C.45799256 .03112793 .43299867 .025131226 .42199708 .025131226 .3889923 .025131226 .3849945 .070129398 .3849945 .07511902V.27508546C.3849945 .31707765 .3849945 .3560791 .34899903 .39312745 .30999757 .43223573 .2599945 .4482422 .21199036 .4482422 .12998963 .4482422 .06098938 .40115357 .06098938 .335083 .06098938 .30508424 .08099365 .28808595 .10699463 .28808595 .1349945 .28808595 .15299988 .30807496 .15299988 .33407594 .15299988 .3460846 .147995 .37908937 .101989749 .38008119 .1289978 .41519166 .17799378 .426239 .20999146 .426239 .25898744 .426239 .31599427 .38710023 .31599427 .29808045V.26107789C.2649994 .25808717 .19499207 .25508119 .13198853 .22509766 .056991579 .19110108 .03199768 .13911438 .03199768 .09512329 .03199768 .014251709 .1289978-.0107421879 .19198609-.0107421879 .2579956-.0107421879 .3039856 .029251099 .32299806 .07624817 .32699586 .036132814 .35398866-.005859375 .40098573-.005859375 .42199708-.005859375 .48298646 .008132935 .48298646 .08912659M.31599427 .14013672C.31599427 .04525757 .24398804 .011245728 .19898987 .011245728 .1499939 .011245728 .10899353 .04624939 .10899353 .09625244 .10899353 .15124512 .15098572 .23425293 .31599427 .24024964V.14013672Z"/>
<path id="font_4_72" d="M.25498963 0V.0309906C.18798828 .0309906 .1769867 .0309906 .1769867 .07601929V.69433596L.032989503 .6826172V.6516113C.102996829 .6516113 .11099243 .64460757 .11099243 .5956421V.07595825C.11099243 .0309906 .099990848 .0309906 .032989503 .0309906V0L.14399719 .0029907227 .25498963 0Z"/>
<path id="font_4_77" d="M.5349884 0V.0309906C.48298646 .0309906 .45799256 .0309906 .45700074 .061019899V.25221253C.45700074 .3383026 .45700074 .36932374 .42599488 .405365 .4119873 .42237855 .3789978 .4423828 .32099916 .4423828 .24798584 .4423828 .20098877 .39935304 .17298889 .33729554V.4423828L.03199768 .43066407V.3996582C.101989749 .3996582 .10998535 .39266969 .10998535 .34370423V.07595825C.10998535 .0309906 .09899902 .0309906 .03199768 .0309906V0L.14498902 .0029907227 .25698854 0V.0309906C.18998719 .0309906 .1789856 .0309906 .1789856 .07595825V.25978089C.1789856 .36431886 .25 .42037965 .31399537 .42037965 .3769989 .42037965 .3880005 .36631776 .3880005 .30926515V.076034549C.3880005 .0309906 .3769989 .0309906 .30999757 .0309906V0L.4229889 .0029907227 .5349884 0Z"/>
<path id="font_4_66" d="M.24699402 0V.0309906C.18099976 .0309906 .1769867 .035995485 .1769867 .075042728V.4423828L.036987306 .43066407V.3996582C.101989749 .3996582 .11099243 .3936615 .11099243 .3447113V.07595825C.11099243 .0309906 .099990848 .0309906 .032989503 .0309906V0L.14299011 .0029907227C.17799378 .0029907227 .21299744 .0009918213 .24699402 0M.19198609 .603775C.19198609 .6307678 .16899109 .6567688 .13899231 .6567688 .10499573 .6567688 .084991458 .6287689 .084991458 .603775 .084991458 .57676699 .10798645 .55078127 .13798523 .55078127 .17199707 .55078127 .19198609 .5787811 .19198609 .603775Z"/>
</defs>
<path transform="matrix(1.00008,0,0,-1.00002,12.915554,143.15328)" d="M0 0H163.88736V141.35422H0Z" fill="#fffac2"/>
<path transform="matrix(1.00008,0,0,-1.00002,12.915554,143.15328)" stroke-width=".3985" stroke-linecap="butt" stroke-miterlimit="10" stroke-linejoin="miter" fill="none" stroke="#d5d6d5" d="M0 0V141.35422M14.89885 0V141.35422M29.7977 0V141.35422M44.69655 0V141.35422M59.5954 0V141.35422M74.49425 0V141.35422M89.3931 0V141.35422M104.29195 0V141.35422M119.1908 0V141.35422M134.08965 0V141.35422M148.9885 0V141.35422M163.88736 0V141.35422"/>
<path transform="matrix(1.00008,0,0,-1.00002,12.915554,143.15328)" stroke-width=".3985" stroke-linecap="butt" stroke-miterlimit="10" stroke-linejoin="miter" fill="none" stroke="#d5d6d5" d="M29.7977 0V141.35422M59.5954 0V141.35422M89.3931 0V141.35422M119.1908 0V141.35422M148.9885 0V141.35422"/>
<path transform="matrix(1.00008,0,0,-1.00002,12.915554,143.15328)" stroke-width=".3985" stroke-linecap="butt" stroke-miterlimit="10" stroke-linejoin="miter" fill="none" stroke="#d5d6d5" d="M0 0H163.88736M0 12.85037H163.88736M0 25.70076H163.88736M0 38.55115H163.88736M0 51.40154H163.88736M0 64.2519H163.88736M0 77.1023H163.88736M0 89.95268H163.88736M0 102.80307H163.88736M0 115.65346H163.88736M0 128.50383H163.88736M0 141.35422H163.88736"/>
<path transform="matrix(1.00008,0,0,-1.00002,12.915554,143.15328)" stroke-width=".3985" stroke-linecap="butt" stroke-miterlimit="10" stroke-linejoin="miter" fill="none" stroke="#d5d6d5" d="M0 25.70076H163.88736M0 51.40154H163.88736M0 77.1023H163.88736M0 102.80307H163.88736M0 128.50383H163.88736"/>
<path transform="matrix(1.00008,0,0,-1.00002,12.915554,143.15328)" stroke-width=".19925" stroke-linecap="butt" stroke-miterlimit="10" stroke-linejoin="miter" fill="none" stroke="#929292" d="M0-1.41724V1.41725M14.89885-1.41724V1.41725M29.7977-1.41724V1.41725M44.69655-1.41724V1.41725M59.5954-1.41724V1.41725M74.49425-1.41724V1.41725M89.3931-1.41724V1.41725M104.29195-1.41724V1.41725M119.1908-1.41724V1.41725M134.08965-1.41724V1.41725M148.9885-1.41724V1.41725M163.88736-1.41724V1.41725"/>
<path transform="matrix(1.00008,0,0,-1.00002,12.915554,143.15328)" stroke-width=".19925" stroke-linecap="butt" stroke-miterlimit="10" stroke-linejoin="miter" fill="none" stroke="#929292" d="M29.7977-2.12567V2.12567M59.5954-2.12567V2.12567M89.3931-2.12567V2.12567M119.1908-2.12567V2.12567M148.9885-2.12567V2.12567"/>
<path transform="matrix(1.00008,0,0,-1.00002,12.915554,143.15328)" stroke-width=".19925" stroke-linecap="butt" stroke-miterlimit="10" stroke-linejoin="miter" fill="none" stroke="#929292" d="M-1.41719 0H1.41719M-1.41719 12.85037H1.41719M-1.41719 25.70076H1.41719M-1.41719 38.55115H1.41719M-1.41719 51.40154H1.41719M-1.41719 64.2519H1.41719M-1.41719 77.1023H1.41719M-1.41719 89.95268H1.41719M-1.41719 102.80307H1.41719M-1.41719 115.65346H1.41719M-1.41719 128.50383H1.41719M-1.41719 141.35422H1.41719"/>
<path transform="matrix(1.00008,0,0,-1.00002,12.915554,143.15328)" stroke-width=".19925" stroke-linecap="butt" stroke-miterlimit="10" stroke-linejoin="miter" fill="none" stroke="#929292" d="M-2.12558 25.70076H2.12558M-2.12558 51.40154H2.12558M-2.12558 77.1023H2.12558M-2.12558 102.80307H2.12558M-2.12558 128.50383H2.12558"/>
<path transform="matrix(1.00008,0,0,-1.00002,12.915554,143.15328)" stroke-width=".3985" stroke-linecap="butt" stroke-miterlimit="10" stroke-linejoin="miter" fill="none" stroke="#000000" d="M0 0H161.89484"/>
<path transform="matrix(1.00008,0,0,-1.00002,174.82335,143.15328)" d="M1.99252 0-1.19551 1.59401 0 0-1.19551-1.59401"/>
<path transform="matrix(1.00008,0,0,-1.00002,12.915554,143.15328)" stroke-width=".3985" stroke-linecap="butt" stroke-miterlimit="10" stroke-linejoin="miter" fill="none" stroke="#000000" d="M0 0V139.3617"/>
<path transform="matrix(0,-1.00002,-1.00008,-0,12.915554,3.7887879)" d="M1.99252 0-1.19551 1.59401 0 0-1.19551-1.59401"/>
<use data-text="2" xlink:href="#font_1_3" transform="matrix(7.9707376,0,0,-7.9702599,40.59877,153.93549)"/>
<use data-text="4" xlink:href="#font_1_4" transform="matrix(7.9707376,0,0,-7.9702599,70.39815,153.93549)"/>
<use data-text="6" xlink:href="#font_1_5" transform="matrix(7.9707376,0,0,-7.9702599,100.19853,153.93549)"/>
<use data-text="8" xlink:href="#font_1_6" transform="matrix(7.9707376,0,0,-7.9702599,129.99892,153.93549)"/>
<use data-text="1" xlink:href="#font_1_2" transform="matrix(7.9707376,0,0,-7.9702599,157.68114,153.93549)"/>
<use data-text="0" xlink:href="#font_1_1" transform="matrix(7.9707376,0,0,-7.9702599,161.9136,153.93549)"/>
<use data-text="2" xlink:href="#font_1_3" transform="matrix(7.9707376,0,0,-7.9702599,4.925915,120.01981)"/>
<use data-text="4" xlink:href="#font_1_4" transform="matrix(7.9707376,0,0,-7.9702599,4.925915,94.3193)"/>
<use data-text="6" xlink:href="#font_1_5" transform="matrix(7.9707376,0,0,-7.9702599,4.925915,68.61778)"/>
<use data-text="8" xlink:href="#font_1_6" transform="matrix(7.9707376,0,0,-7.9702599,4.925915,42.916269)"/>
<use data-text="1" xlink:href="#font_1_2" transform="matrix(7.9707376,0,0,-7.9702599,.6915779,17.214753)"/>
<use data-text="0" xlink:href="#font_1_1" transform="matrix(7.9707376,0,0,-7.9702599,4.9240419,17.214753)"/>
<g clip-path="url(#clip_2)">
<path transform="matrix(1.00008,0,0,-1.00002,12.915554,143.15328)" stroke-width=".99628" stroke-linecap="butt" stroke-miterlimit="10" stroke-linejoin="miter" fill="none" stroke="#9e0c0f" d="M22.06091 115.81874 19.24431 117.43834 23.5898 114.93968 27.93532 112.44102 32.28079 109.94237 36.62627 107.44373 40.97176 104.94507 45.31725 102.44643 49.66275 99.94775 54.00822 97.4491 58.35371 94.95045 62.6992 92.4518 67.04468 89.95314 71.39018 87.45448 75.73567 84.95584 80.08116 82.45718 84.42662 79.95853 88.77211 77.45987 93.11763 74.96121 97.4631 72.46257 101.80858 69.96391 106.15407 67.46524 110.49956 64.9666 114.84506 62.46794 112.02847 64.08754"/>
<path transform="matrix(-.8669393,-.49846999,-.49849988,.86688736,35.588968,27.68338)" d="M7.39124 0 2.37614 1.6717 .70447 0 2.37614-1.6717Z" fill="#9e0c0f"/>
<path transform="matrix(-.8669393,-.49846999,-.49849988,.86688736,35.588968,27.68338)" stroke-width=".99628" stroke-linecap="butt" stroke-miterlimit="10" stroke-linejoin="miter" fill="none" stroke="#9e0c0f" d="M7.39124 0 2.37614 1.6717 .70447 0 2.37614-1.6717Z"/>
<path transform="matrix(.8669393,.49846999,.49849988,-.86688736,124.342258,78.71329)" d="M7.39124 0 2.37614 1.6717 .70447 0 2.37614-1.6717Z" fill="#9e0c0f"/>
<path transform="matrix(.8669393,.49846999,.49849988,-.86688736,124.342258,78.71329)" stroke-width=".99628" stroke-linecap="butt" stroke-miterlimit="10" stroke-linejoin="miter" fill="none" stroke="#9e0c0f" d="M7.39124 0 2.37614 1.6717 .70447 0 2.37614-1.6717Z"/>
<path transform="matrix(1.00008,0,0,-1.00002,12.915554,143.15328)" stroke-width=".99628" stroke-linecap="butt" stroke-miterlimit="10" stroke-linejoin="miter" fill="none" stroke="#929292" d="M44.69655 102.80307H89.3931"/>
<use data-text="3" xlink:href="#font_3_2" transform="matrix(9.963397,0,0,-9.962799,63.86963,36.420137)" fill="#929292"/>
<use data-text="h" xlink:href="#font_4_63" transform="matrix(9.963397,0,0,-9.962799,72.1693,36.420137)" fill="#929292"/>
<use data-text="o" xlink:href="#font_4_81" transform="matrix(9.963397,0,0,-9.962799,77.70895,36.420137)" fill="#929292"/>
<use data-text="u" xlink:href="#font_4_109" transform="matrix(9.963397,0,0,-9.962799,82.69064,36.420137)" fill="#929292"/>
<use data-text="r" xlink:href="#font_4_96" transform="matrix(9.963397,0,0,-9.962799,88.230289,36.420137)" fill="#929292"/>
<use data-text="s" xlink:href="#font_4_98" transform="matrix(9.963397,0,0,-9.962799,92.13594,36.420137)" fill="#929292"/>
<path transform="matrix(1.00008,0,0,-1.00002,12.915554,143.15328)" stroke-width=".99628" stroke-linecap="butt" stroke-miterlimit="10" stroke-linejoin="miter" fill="none" stroke="#929292" d="M89.3931 102.80307V83.84662"/>
<path transform="matrix(0,1.00002,1.00008,0,102.315799,59.304979)" d="M2.8892 0-1.73352 2.31136 0 0-1.73352-2.31136" fill="#929292"/>
<use data-text="&#x2212;" xlink:href="#font_5_1" transform="matrix(9.963397,0,0,-9.962799,106.13501,53.702486)" fill="#929292"/>
<use data-text="2" xlink:href="#font_3_1" transform="matrix(9.963397,0,0,-9.962799,113.88463,53.702486)" fill="#929292"/>
<use data-text="g" xlink:href="#font_4_59" transform="matrix(9.963397,0,0,-9.962799,122.184299,53.702486)" fill="#929292"/>
<use data-text="a" xlink:href="#font_4_28" transform="matrix(9.963397,0,0,-9.962799,127.165988,53.702486)" fill="#929292"/>
<use data-text="l" xlink:href="#font_4_72" transform="matrix(9.963397,0,0,-9.962799,132.14768,53.702486)" fill="#929292"/>
<use data-text="l" xlink:href="#font_4_72" transform="matrix(9.963397,0,0,-9.962799,134.91751,53.702486)" fill="#929292"/>
<use data-text="o" xlink:href="#font_4_81" transform="matrix(9.963397,0,0,-9.962799,137.68733,53.702486)" fill="#929292"/>
<use data-text="n" xlink:href="#font_4_77" transform="matrix(9.963397,0,0,-9.962799,142.66904,53.702486)" fill="#929292"/>
</g>
<path transform="matrix(1.00008,0,0,-1.00002,12.915554,143.15328)" d="M46.6891 102.80307C46.6891 103.90353 45.79701 104.79562 44.69655 104.79562 43.59607 104.79562 42.704 103.90353 42.704 102.80307 42.704 101.70259 43.59607 100.81052 44.69655 100.81052 45.79701 100.81052 46.6891 101.70259 46.6891 102.80307ZM44.69655 102.80307" fill="#9e0c0f"/>
<path transform="matrix(1.00008,0,0,-1.00002,12.915554,143.15328)" stroke-width=".3985" stroke-linecap="butt" stroke-miterlimit="10" stroke-linejoin="miter" fill="none" stroke="#9e0c0f" d="M46.6891 102.80307C46.6891 103.90353 45.79701 104.79562 44.69655 104.79562 43.59607 104.79562 42.704 103.90353 42.704 102.80307 42.704 101.70259 43.59607 100.81052 44.69655 100.81052 45.79701 100.81052 46.6891 101.70259 46.6891 102.80307ZM44.69655 102.80307"/>
<path transform="matrix(1.00008,0,0,-1.00002,12.915554,143.15328)" d="M91.38565 77.1023C91.38565 78.20277 90.49358 79.09485 89.3931 79.09485 88.29263 79.09485 87.40054 78.20277 87.40054 77.1023 87.40054 76.00183 88.29263 75.10974 89.3931 75.10974 90.49358 75.10974 91.38565 76.00183 91.38565 77.1023ZM89.3931 77.1023" fill="#9e0c0f"/>
<path transform="matrix(1.00008,0,0,-1.00002,12.915554,143.15328)" stroke-width=".3985" stroke-linecap="butt" stroke-miterlimit="10" stroke-linejoin="miter" fill="none" stroke="#9e0c0f" d="M91.38565 77.1023C91.38565 78.20277 90.49358 79.09485 89.3931 79.09485 88.29263 79.09485 87.40054 78.20277 87.40054 77.1023 87.40054 76.00183 88.29263 75.10974 89.3931 75.10974 90.49358 75.10974 91.38565 76.00183 91.38565 77.1023ZM89.3931 77.1023"/>
<path transform="matrix(1.00008,0,0,-1.00002,12.915554,143.15328)" stroke-width=".3985" stroke-linecap="butt" stroke-miterlimit="10" stroke-linejoin="miter" fill="none" stroke="#9e0c0f" d=""/>
<use data-text="h" xlink:href="#font_4_63" transform="matrix(9.963397,0,0,-9.962799,149.40348,139.5242)"/>
<use data-text="o" xlink:href="#font_4_81" transform="matrix(9.963397,0,0,-9.962799,154.94312,139.5242)"/>
<use data-text="u" xlink:href="#font_4_109" transform="matrix(9.963397,0,0,-9.962799,159.92482,139.5242)"/>
<use data-text="r" xlink:href="#font_4_96" transform="matrix(9.963397,0,0,-9.962799,165.46448,139.5242)"/>
<use data-text="s" xlink:href="#font_4_98" transform="matrix(9.963397,0,0,-9.962799,169.37012,139.5242)"/>
<use data-text="g" xlink:href="#font_4_59" transform="matrix(9.963397,0,0,-9.962799,16.435835,12.230652)"/>
<use data-text="a" xlink:href="#font_4_28" transform="matrix(9.963397,0,0,-9.962799,21.417536,12.230652)"/>
<use data-text="s" xlink:href="#font_4_98" transform="matrix(9.963397,0,0,-9.962799,26.399233,12.230652)"/>
<use data-text="i" xlink:href="#font_4_66" transform="matrix(9.963397,0,0,-9.962799,33.642625,12.230652)"/>
<use data-text="n" xlink:href="#font_4_77" transform="matrix(9.963397,0,0,-9.962799,36.412446,12.230652)"/>
<use data-text="g" xlink:href="#font_4_59" transform="matrix(9.963397,0,0,-9.962799,45.269906,12.230652)"/>
<use data-text="a" xlink:href="#font_4_28" transform="matrix(9.963397,0,0,-9.962799,50.251604,12.230652)"/>
<use data-text="l" xlink:href="#font_4_72" transform="matrix(9.963397,0,0,-9.962799,55.2333,12.230652)"/>
<use data-text="l" xlink:href="#font_4_72" transform="matrix(9.963397,0,0,-9.962799,58.003129,12.230652)"/>
<use data-text="o" xlink:href="#font_4_81" transform="matrix(9.963397,0,0,-9.962799,60.77295,12.230652)"/>
<use data-text="n" xlink:href="#font_4_77" transform="matrix(9.963397,0,0,-9.962799,65.75465,12.230652)"/>
<use data-text="s" xlink:href="#font_4_98" transform="matrix(9.963397,0,0,-9.962799,71.2943,12.230652)"/>
</svg>
