<svg xmlns="http://www.w3.org/2000/svg" xmlns:xlink="http://www.w3.org/1999/xlink" version="1.1" width="247" height="163" viewBox="0 0 247 163">
<defs>
<path id="font_1_1" d="M.33099366-.2400055C.33099366-.23701477 .33099366-.23500061 .31399537-.21800232 .18899536-.0920105 .15699768 .09700012 .15699768 .25 .15699768 .42399598 .19499207 .59799197 .31799317 .72299197 .33099366 .73498538 .33099366 .7369995 .33099366 .73999026 .33099366 .746994 .32699586 .75 .32099916 .75 .31098939 .75 .22099304 .6819916 .1619873 .5549927 .11099243 .44499208 .09899902 .33399964 .09899902 .25 .09899902 .17199707 .10998535 .050994874 .16499329-.06201172 .22499085-.18501282 .31098939-.25 .32099916-.25 .32699586-.25 .33099366-.24700928 .33099366-.2400055Z"/>
<path id="font_1_2" d="M.2889862 .25C.2889862 .32798768 .27799989 .44898988 .22299195 .56199648 .16299439 .68499758 .07699585 .75 .066986087 .75 .06098938 .75 .056991579 .74598696 .056991579 .73999026 .056991579 .7369995 .056991579 .73498538 .07598877 .71699526 .17399597 .6179962 .23098755 .45899964 .23098755 .25 .23098755 .07899475 .19400025-.09700012 .069992069-.2230072 .056991579-.23500061 .056991579-.23701477 .056991579-.2400055 .056991579-.2460022 .06098938-.25 .066986087-.25 .07699585-.25 .16699219-.18200684 .22599793-.055007936 .2769928 .054992677 .2889862 .16600037 .2889862 .25Z"/>
<path id="font_1_5" d="M.68699648 .32714845C.70199587 .32714845 .72099307 .32714845 .72099307 .34713746 .72099307 .36714173 .70199587 .36714173 .6879883 .36714173H.08898926C.07499695 .36714173 .055999757 .36714173 .055999757 .34713746 .055999757 .32714845 .07499695 .32714845 .08999634 .32714845H.68699648M.6879883 .13284302C.70199587 .13284302 .72099307 .13284302 .72099307 .15284729 .72099307 .17285156 .70199587 .17285156 .68699648 .17285156H.08999634C.07499695 .17285156 .055999757 .17285156 .055999757 .15284729 .055999757 .13284302 .07499695 .13284302 .08898926 .13284302H.6879883Z"/>
<path id="font_1_4" d="M.13198853 .327713V.35173036C.13198853 .6047821 .2559967 .64100649 .30699159 .64100649 .33099366 .64100649 .37298585 .634964 .394989 .6007538 .37998963 .6007538 .33999635 .6007538 .33999635 .5557556 .33999635 .524765 .3639984 .5097656 .38598634 .5097656 .4019928 .5097656 .43199159 .51875308 .43199159 .5577545 .43199159 .6178589 .3880005 .6660156 .30499269 .6660156 .1769867 .6660156 .041992189 .5367584 .041992189 .31570436 .041992189 .048553468 .1579895-.022460938 .25099183-.022460938 .3619995-.022460938 .45700074 .07156372 .45700074 .2036438 .45700074 .33070375 .36799623 .4267578 .25698854 .4267578 .18899536 .4267578 .1519928 .37573243 .13198853 .327713M.25099183 .0055389406C.18798828 .0055389406 .1579895 .06556702 .1519928 .080566409 .13398743 .127594 .13398743 .2076416 .13398743 .22564698 .13398743 .30369569 .1659851 .40374757 .2559967 .40374757 .27198792 .40374757 .31799317 .40374757 .34899903 .34172059 .36698915 .30470277 .36698915 .2536621 .36698915 .20463562 .36698915 .15661621 .36698915 .10658264 .34999085 .0705719 .31999208 .010528564 .27398683 .0055389406 .25099183 .0055389406Z"/>
<path id="font_1_3" d="M.2939911 .16503906V.07800293C.2939911 .041992189 .2919922 .0309906 .21798706 .0309906H.19699097V0C.23799134 .0029907227 .2899933 .0029907227 .33198548 .0029907227 .37399293 .0029907227 .4269867 .0029907227 .46798707 0V.0309906H.44699098C.37298585 .0309906 .37098695 .041992189 .37098695 .07800293V.16503906H.47099305V.19602967H.37098695V.65075686C.37098695 .67074587 .37098695 .6767578 .35499574 .6767578 .34599305 .6767578 .34298707 .6767578 .33499146 .66474917L.027999878 .19602967V.16503906H.2939911M.2999878 .19602967H.055999757L.2999878 .5688019V.19602967Z"/>
<path id="font_2_1" d="M.32998658 .3310547C.42199708 .3310547 .48298646 .2737732 .48298646 .17437744 .48298646 .07237244 .41999818 .01852417 .33099366 .01852417 .31999208 .01852417 .20098877 .01852417 .1499939 .070373538 .19099427 .07637024 .20298767 .1073761 .20298767 .13137818 .20298767 .16838074 .1749878 .19238281 .14199829 .19238281 .10998535 .19238281 .07998657 .17137146 .07998657 .12937927 .07998657 .025512696 .19799805-.022460938 .33399964-.022460938 .49798585-.022460938 .59999087 .07637024 .59999087 .17337036 .59999087 .25567628 .5269928 .3260193 .41299439 .35205079 .5329895 .3909912 .5649872 .46684266 .5649872 .5228424 .5649872 .60491946 .46299745 .6660156 .33699037 .6660156 .21398926 .6660156 .114990238 .61395266 .114990238 .5238342 .114990238 .47683717 .15299988 .46484376 .17199707 .46484376 .20098877 .46484376 .22898865 .48583985 .22898865 .5218353 .22898865 .5448303 .21699524 .5728302 .18099976 .57884219 .22399903 .625 .31298829 .628006 .33399964 .628006 .40699769 .628006 .45899964 .5908661 .45899964 .5228424 .45899964 .46484376 .42099 .37402345 .31599427 .368042 .28799439 .3670349 .28399659 .3660431 .2579956 .365036 .24699402 .3640442 .23599243 .36305238 .23599243 .34805299 .23599243 .3310547 .24598694 .3310547 .2639923 .3310547H.32998658Z"/>
<path id="font_3_1" d="M.3889923-.8549652 .21299744-.4659729C.20599365-.44996644 .20098877-.44996644 .19799805-.44996644 .19699097-.44996644 .19198609-.44996644 .18099976-.45796205L.085998538-.52996829C.07299805-.53996279 .07299805-.54296877 .07299805-.54597476 .07299805-.55096438 .07598877-.55696108 .08299255-.55696108 .08898926-.55696108 .10598755-.54296877 .116989139-.53497317 .12298584-.52996829 .13798523-.5189667 .14898682-.51097109L.34599305-.9439697C.35299684-.95996096 .35798646-.95996096 .36698915-.95996096 .38198854-.95996096 .3849945-.95396426 .3919983-.9399719L.84599307 .000030517579C.8529968 .014038086 .8529968 .018035889 .8529968 .02003479 .8529968 .030029297 .8450012 .040039064 .83299258 .040039064 .82499697 .040039064 .81799319 .03503418 .80999758 .01902771L.3889923-.8549652Z"/>
</defs>
<use data-text="(" xlink:href="#font_1_1" transform="matrix(9.9626,0,0,-9.963197,.26200105,126.38077)"/>
<use data-text=")" xlink:href="#font_1_2" transform="matrix(9.9626,0,0,-9.963197,9.098825,126.38077)"/>
<use data-text="(" xlink:href="#font_1_1" transform="matrix(9.9626,0,0,-9.963197,13.391001,126.38077)"/>
<use data-text=")" xlink:href="#font_1_2" transform="matrix(9.9626,0,0,-9.963197,22.227826,126.38077)"/>
<use data-text="(" xlink:href="#font_1_1" transform="matrix(9.9626,0,0,-9.963197,26.519001,126.38077)"/>
<use data-text=")" xlink:href="#font_1_2" transform="matrix(9.9626,0,0,-9.963197,35.355829,126.38077)"/>
<use data-text="=" xlink:href="#font_1_5" transform="matrix(9.9626,0,0,-9.963197,42.415,127.09981)"/>
<use data-text="6" xlink:href="#font_1_4" transform="matrix(9.9626,0,0,-9.963197,52.91558,127.09981)"/>
<use data-text="4" xlink:href="#font_1_3" transform="matrix(9.9626,0,0,-9.963197,57.89688,127.09981)"/>
<use data-text="3" xlink:href="#font_2_1" transform="matrix(4.9813,0,0,-4.9815986,13.078999,86.068347)"/>
<use data-text="&#x221a;" xlink:href="#font_3_1" transform="matrix(9.9626,0,0,-9.963197,10.933998,82.45613)"/>
<path transform="matrix(1,0,0,-1.00006,-14.315001,-53.197996)" stroke-width=".3985" stroke-linecap="butt" stroke-miterlimit="10" stroke-linejoin="miter" fill="none" stroke="#000000" d="M33.552-135.447H43.514"/>
<use data-text="6" xlink:href="#font_1_4" transform="matrix(9.9626,0,0,-9.963197,19.236998,90.69862)"/>
<use data-text="4" xlink:href="#font_1_3" transform="matrix(9.9626,0,0,-9.963197,24.218298,90.69862)"/>
<path transform="matrix(1,0,0,-1.00006,6.627001,123.88962)" stroke-width=".3985" stroke-linecap="butt" stroke-miterlimit="10" stroke-linejoin="miter" fill="none" stroke="#000000" d="M13.12872 28.3468 1.09924 10.16289"/>
<path transform="matrix(-.5517,.83402,.83397,.5517331,7.7262609,113.726108)" d="M1.99252 0-1.19551 1.59401 0 0-1.19551-1.59401"/>
<path transform="matrix(1,0,0,-1.00006,6.627001,123.88962)" stroke-width=".3985" stroke-linecap="butt" stroke-miterlimit="10" stroke-linejoin="miter" fill="none" stroke="#000000" d="M13.12872 28.3468V10.49371"/>
<path transform="matrix(0,1.00006,1,0,19.755722,113.39528)" d="M1.99252 0-1.19551 1.59401 0 0-1.19551-1.59401"/>
<path transform="matrix(1,0,0,-1.00006,6.627001,123.88962)" stroke-width=".3985" stroke-linecap="butt" stroke-miterlimit="10" stroke-linejoin="miter" fill="none" stroke="#000000" d="M13.12872 28.3468 25.1582 10.16289"/>
<path transform="matrix(.5517,.83402,.83397,-.5517331,31.78519,113.726108)" d="M1.99252 0-1.19551 1.59401 0 0-1.19551-1.59401"/>
<path transform="matrix(1,0,0,-1.00006,91.939,147.39504)" stroke-width=".3985" stroke-linecap="butt" stroke-miterlimit="10" stroke-linejoin="miter" fill="none" stroke="#000000" d="M0 0V113.38724L56.35277 145.5888"/>
<path transform="matrix(1,0,0,-1.00006,91.939,147.39504)" stroke-width=".3985" stroke-linecap="butt" stroke-miterlimit="10" stroke-linejoin="miter" fill="none" stroke="#000000" d="M28.3468 0V113.38724L80.67436 145.5888"/>
<path transform="matrix(1,0,0,-1.00006,91.939,147.39504)" stroke-width=".3985" stroke-linecap="butt" stroke-miterlimit="10" stroke-linejoin="miter" fill="none" stroke="#000000" d="M56.69362 0V113.38724L104.99599 145.5888"/>
<path transform="matrix(1,0,0,-1.00006,91.939,147.39504)" stroke-width=".3985" stroke-linecap="butt" stroke-miterlimit="10" stroke-linejoin="miter" fill="none" stroke="#000000" d="M85.04042 0V113.38724L129.3176 145.5888"/>
<path transform="matrix(1,0,0,-1.00006,91.939,147.39504)" stroke-width=".3985" stroke-linecap="butt" stroke-miterlimit="10" stroke-linejoin="miter" fill="none" stroke="#000000" d="M113.38724 0V113.38724L153.6392 145.5888"/>
<path transform="matrix(1,0,0,-1.00006,91.939,147.39504)" stroke-width=".3985" stroke-linecap="butt" stroke-miterlimit="10" stroke-linejoin="miter" fill="none" stroke="#000000" d="M0 0H113.38724L153.6392 48.30237"/>
<path transform="matrix(1,0,0,-1.00006,91.939,147.39504)" stroke-width=".3985" stroke-linecap="butt" stroke-miterlimit="10" stroke-linejoin="miter" fill="none" stroke="#000000" d="M0 28.3468H113.38724L153.6392 72.62396"/>
<path transform="matrix(1,0,0,-1.00006,91.939,147.39504)" stroke-width=".3985" stroke-linecap="butt" stroke-miterlimit="10" stroke-linejoin="miter" fill="none" stroke="#000000" d="M0 56.69362H113.38724L153.6392 96.94557"/>
<path transform="matrix(1,0,0,-1.00006,91.939,147.39504)" stroke-width=".3985" stroke-linecap="butt" stroke-miterlimit="10" stroke-linejoin="miter" fill="none" stroke="#000000" d="M0 85.04042H113.38724L153.6392 121.2672"/>
<path transform="matrix(1,0,0,-1.00006,91.939,147.39504)" stroke-width=".3985" stroke-linecap="butt" stroke-miterlimit="10" stroke-linejoin="miter" fill="none" stroke="#000000" d="M0 113.38724H113.38724L153.6392 145.5888"/>
<path transform="matrix(1,0,0,-1.00006,91.939,147.39504)" stroke-width=".3985" stroke-linecap="butt" stroke-miterlimit="10" stroke-linejoin="miter" fill="none" stroke="#000000" d="M124.72403 13.60417V122.45667H15.87152"/>
<path transform="matrix(1,0,0,-1.00006,91.939,147.39504)" stroke-width=".3985" stroke-linecap="butt" stroke-miterlimit="10" stroke-linejoin="miter" fill="none" stroke="#000000" d="M134.93193 25.85365V130.62299H30.16258"/>
<path transform="matrix(1,0,0,-1.00006,91.939,147.39504)" stroke-width=".3985" stroke-linecap="butt" stroke-miterlimit="10" stroke-linejoin="miter" fill="none" stroke="#000000" d="M144.56888 37.41797V138.33254H43.65431"/>
<path transform="matrix(1,0,0,-1.00006,91.939,147.39504)" stroke-width=".3985" stroke-linecap="butt" stroke-miterlimit="10" stroke-linejoin="miter" fill="none" stroke="#000000" d="M153.6392 48.30237V145.5888H56.35277"/>
<use data-text="3" xlink:href="#font_2_1" transform="matrix(4.9813,0,0,-4.9815986,141.956,155.3235)"/>
<use data-text="&#x221a;" xlink:href="#font_3_1" transform="matrix(9.9626,0,0,-9.963197,139.81201,151.71128)"/>
<path transform="matrix(1,0,0,-1.00006,29.25,-7.448251)" stroke-width=".3985" stroke-linecap="butt" stroke-miterlimit="10" stroke-linejoin="miter" fill="none" stroke="#000000" d="M118.864-158.951H128.827"/>
<use data-text="6" xlink:href="#font_1_4" transform="matrix(9.9626,0,0,-9.963197,148.114,159.95378)"/>
<use data-text="4" xlink:href="#font_1_3" transform="matrix(9.9626,0,0,-9.963197,153.0953,159.95378)"/>
<use data-text="3" xlink:href="#font_2_1" transform="matrix(4.9813,0,0,-4.9815986,72.298007,89.92558)"/>
<use data-text="&#x221a;" xlink:href="#font_3_1" transform="matrix(9.9626,0,0,-9.963197,70.15401,86.313358)"/>
<path transform="matrix(1,0,0,-1.00006,-40.408,-72.846179)" stroke-width=".3985" stroke-linecap="butt" stroke-miterlimit="10" stroke-linejoin="miter" fill="none" stroke="#000000" d="M118.864-158.951H128.827"/>
<use data-text="6" xlink:href="#font_1_4" transform="matrix(9.9626,0,0,-9.963197,78.45599,94.55586)"/>
<use data-text="4" xlink:href="#font_1_3" transform="matrix(9.9626,0,0,-9.963197,83.4373,94.55586)"/>
<use data-text="3" xlink:href="#font_2_1" transform="matrix(3.188779,-3.8268145,-3.8265849,-3.1889704,227.26889,133.44667)"/>
<use data-text="&#x221a;" xlink:href="#font_3_1" transform="matrix(6.377558,-7.653629,-7.6531698,-6.3779408,223.1217,132.7814)"/>
<path transform="matrix(.64015,-.7682361,-.76819,-.6401884,30.088002,115.833148)" stroke-width=".3985" stroke-linecap="butt" stroke-miterlimit="10" stroke-linejoin="miter" fill="none" stroke="#000000" d="M118.864-158.951H128.827"/>
<use data-text="6" xlink:href="#font_1_4" transform="matrix(6.377558,-7.653629,-7.6531698,-6.3779408,234.76766,131.67995)"/>
<use data-text="4" xlink:href="#font_1_3" transform="matrix(6.377558,-7.653629,-7.6531698,-6.3779408,237.95644,127.85313)"/>
</svg>
