<svg xmlns="http://www.w3.org/2000/svg" xmlns:xlink="http://www.w3.org/1999/xlink" version="1.1" width="76" height="74" viewBox="0 0 76 74">
<defs>
<path id="font_1_1" d="M.3909912 .37405396C.36299134 .37304688 .34298707 .3510437 .34298707 .32904054 .34298707 .31503297 .35198976 .30003358 .37399293 .30003358 .3959961 .30003358 .41999818 .31703187 .41999818 .35603334 .41999818 .40124513 .3769989 .4423828 .30099488 .4423828 .16899109 .4423828 .13198853 .3400421 .13198853 .29605104 .13198853 .21820069 .20599365 .20323181 .23498535 .19725037 .2869873 .18727112 .33898927 .17628479 .33898927 .12133789 .33898927 .095336917 .31599427 .011245728 .19599915 .011245728 .18199158 .011245728 .10499573 .011245728 .08198547 .064331058 .11999512 .059326173 .14498902 .08934021 .14498902 .11734009 .14498902 .14033509 .1289978 .15234375 .10798645 .15234375 .08198547 .15234375 .051986696 .1313324 .051986696 .08633423 .051986696 .029281617 .10899353-.0107421879 .19499207-.0107421879 .35699464-.0107421879 .3959961 .1103363 .3959961 .15533448 .3959961 .19125366 .3769989 .21620178 .36499024 .22817993 .33799745 .25613404 .30899049 .26112367 .2649994 .27009584 .22898865 .27807618 .18899536 .2850647 .18899536 .33003236 .18899536 .3590393 .21299744 .42037965 .30099488 .42037965 .32598878 .42037965 .37599183 .41333009 .3909912 .37405396Z"/>
</defs>
<path transform="matrix(1.00008,0,0,-1.00003,38.36631,55.27426)" stroke-width=".79701" stroke-linecap="butt" stroke-linejoin="bevel" fill="none" stroke="#9e0c0f" d="M-16.94208-12.42636 36.33275-5.79471 16.94208 12.42636-36.33275 5.79471Z"/>
<use data-text="s" xlink:href="#font_1_1" transform="matrix(9.963397,0,0,-9.962899,3.5365258,66.3996)"/>
<use data-text="s" xlink:href="#font_1_1" transform="matrix(9.963397,0,0,-9.962899,45.7269,72.19477)"/>
<path transform="matrix(1.00008,0,0,-1.00003,38.36631,55.27426)" stroke-width=".79701" stroke-linecap="butt" stroke-linejoin="bevel" fill="none" stroke="#9e0c0f" d="M16.94208 12.42636 0 53.27484"/>
<path transform="matrix(1.00008,0,0,-1.00003,38.36631,55.27426)" stroke-width=".3985" stroke-linecap="butt" stroke-dasharray="2.98883,2.98883" stroke-linejoin="bevel" fill="none" stroke="#9e0c0f" d="M0 0V53.27484"/>
<path transform="matrix(1.00008,0,0,-1.00003,38.36631,55.27426)" stroke-width=".3985" stroke-linecap="butt" stroke-linejoin="bevel" fill="none" stroke="#9e0c0f" d="M0 7.99129 7.99129 8.98605V.99475"/>
<path transform="matrix(1.00008,0,0,-1.00003,38.36631,55.27426)" d="M-16.94208-12.42636 0 53.27484 36.33275-5.79471Z" fill="#008099" fill-opacity=".3"/>
<path transform="matrix(1.00008,0,0,-1.00003,38.36631,55.27426)" stroke-width=".79701" stroke-linecap="butt" stroke-linejoin="bevel" fill="none" stroke="#9e0c0f" d="M-16.94208-12.42636 0 53.27484 36.33275-5.79471Z"/>
<path transform="matrix(1.00008,0,0,-1.00003,38.36631,55.27426)" d="M-16.94208-12.42636 0 53.27484-36.33275 5.79471Z" fill="#9e0c0f" fill-opacity=".3"/>
<path transform="matrix(1.00008,0,0,-1.00003,38.36631,55.27426)" stroke-width=".79701" stroke-linecap="butt" stroke-linejoin="bevel" fill="none" stroke="#9e0c0f" d="M-16.94208-12.42636 0 53.27484-36.33275 5.79471Z"/>
<path transform="matrix(1.00008,0,0,-1.00003,38.36631,55.27426)" stroke-width=".3985" stroke-linecap="butt" stroke-linejoin="bevel" fill="none" stroke="#000000" d="M0 26.63742 28.3468 29.47226"/>
<use data-text="s" xlink:href="#font_1_1" transform="matrix(9.963397,0,0,-9.962899,70.235858,27.945443)"/>
</svg>
