<svg xmlns="http://www.w3.org/2000/svg" xmlns:xlink="http://www.w3.org/1999/xlink" version="1.1" width="169" height="148" viewBox="0 0 169 148">
<defs>
<path id="font_1_1" d="M.28199769 .20405579C.2979889 .21907044 .33999635 .2520752 .35598756 .26608277 .41799928 .32312013 .47698976 .3781433 .47698976 .46917726 .47698976 .588089 .3769989 .66503909 .2519989 .66503909 .13198853 .66503909 .052993776 .57411196 .052993776 .48516847 .052993776 .4361725 .09199524 .4291687 .10598755 .4291687 .1269989 .4291687 .1579895 .4441681 .1579895 .48217774 .1579895 .5341797 .10798645 .5341797 .09599304 .5341797 .125 .6070709 .19198609 .6320343 .24099732 .6320343 .33399964 .6320343 .38198854 .55314639 .38198854 .46917726 .38198854 .36514283 .30899049 .28910829 .19099427 .16804505L.06498718 .037994386C.052993776 .026992798 .052993776 .024993897 .052993776 0H.44799806L.47698976 .17904663H.44599916C.44299317 .1590271 .43499757 .10900879 .4229889 .08999634 .4169922 .08198547 .34098817 .08198547 .32499696 .08198547H.14698792L.28199769 .20405579Z"/>
<path id="font_1_2" d="M.3939972 .6468048C.3939972 .6667938 .3939972 .6748047 .37298585 .6748047 .3600006 .6748047 .35899354 .6737976 .34899903 .65979006L.02999878 .197052V.1640625H.31199647V.08100891C.31199647 .04399109 .30899049 .032989503 .23199463 .032989503H.20899964V0C.2939911 .0029907227 .29599 .0029907227 .35299684 .0029907227 .4099884 .0029907227 .4119873 .0029907227 .49699403 0V.032989503H.47399903C.39698792 .032989503 .3939972 .04399109 .3939972 .08100891V.1640625H.5V.197052H.3939972V.6468048M.31900025 .5658417V.197052H.06498718L.31900025 .5658417Z"/>
<path id="font_1_3" d="M.13798523 .33073426C.13798523 .41377259 .14498902 .4868164 .18099976 .54782107 .21099854 .5978241 .2619934 .6390381 .32499696 .6390381 .34498597 .6390381 .3909912 .63601687 .4139862 .60084536 .36898805 .5988312 .36499024 .5648346 .36499024 .553833 .36499024 .5238342 .3880005 .50683596 .4119873 .50683596 .42999269 .50683596 .45899964 .51782229 .45899964 .5558319 .45899964 .615921 .4139862 .66503909 .32398988 .66503909 .18499756 .66503909 .04399109 .53282168 .04399109 .31672669 .04399109 .045532228 .16999817-.021484375 .2669983-.021484375 .31498719-.021484375 .36698915-.0084991459 .4119873 .03453064 .45199586 .07354736 .48599244 .11558533 .48599244 .20263672 .48599244 .33372499 .3869934 .42578126 .27598573 .42578126 .20399475 .42578126 .16099549 .37976075 .13798523 .33073426M.2669983 .008514404C.21398926 .008514404 .18099976 .045532228 .1659851 .07354736 .14299011 .11859131 .14099121 .18663025 .14099121 .22465515 .14099121 .32373048 .19499207 .3977661 .27198792 .3977661 .32199098 .3977661 .35198976 .37176515 .37098695 .33673097 .3919983 .29971314 .3919983 .25468446 .3919983 .2036438 .3919983 .15260315 .3919983 .10858154 .37199403 .07255554 .34599305 .026519776 .31098939 .008514404 .2669983 .008514404Z"/>
<clipPath id="clip_2">
<path transform="matrix(1.00002,0,0,-1.00006,1.4613705,145.953)" d="M0 0H163.88796V141.34799H0Z"/>
</clipPath>
<path id="font_3_7" d="M.2899933 .35191346C.37199403 .37893678 .42999269 .4490509 .42999269 .52809146 .42999269 .6100464 .34199525 .6660156 .24598694 .6660156 .14498902 .6660156 .068984989 .60606387 .068984989 .53009036 .068984989 .49710084 .09098816 .47808839 .11999512 .47808839 .15098572 .47808839 .17098999 .50009158 .17098999 .5290985 .17098999 .57910159 .12399292 .57910159 .10899353 .57910159 .13999939 .62802127 .20599365 .64100649 .24198914 .64100649 .2829895 .64100649 .33799745 .6190338 .33799745 .5290985 .33799745 .51708987 .33599855 .45906068 .30999757 .4149933 .27999879 .36691285 .24598694 .36390687 .22099304 .36291505 .21299744 .36190797 .18899536 .35990907 .18199158 .35990907 .17399597 .35890199 .16699219 .35791017 .16699219 .3479004 .16699219 .33691407 .17399597 .33691407 .19099427 .33691407H.23498535C.31698609 .33691407 .35398866 .2686615 .35398866 .17037964 .35398866 .034469606 .2849884 .0055389406 .24099732 .0055389406 .19799805 .0055389406 .12298584 .022491456 .08799744 .08137512 .12298584 .07637024 .1539917 .09837341 .1539917 .1363678 .1539917 .17237854 .1269989 .19238281 .09799194 .19238281 .07398987 .19238281 .041992189 .17837525 .041992189 .1343689 .041992189 .043441774 .1349945-.022460938 .24398804-.022460938 .3659973-.022460938 .45700074 .06838989 .45700074 .17037964 .45700074 .252594 .3939972 .33088685 .2899933 .35191346Z"/>
<path id="font_4_2" d="M.33399964 .30233766C.33999635 .32835389 .36299134 .42037965 .43299867 .42037965 .43798829 .42037965 .46199037 .42037965 .48298646 .40734864 .45498658 .402359 .43499757 .37734986 .43499757 .35334779 .43499757 .33735658 .44599916 .31835938 .47299195 .31835938 .49499513 .31835938 .5269928 .3363495 .5269928 .37635804 .5269928 .42837525 .46798707 .4423828 .43399049 .4423828 .37599183 .4423828 .34098817 .38935853 .32899476 .36634828 .3039856 .43237306 .25 .4423828 .22099304 .4423828 .116989139 .4423828 .05999756 .3133545 .05999756 .28834535 .05999756 .27833558 .069992069 .27833558 .07199097 .27833558 .07998657 .27833558 .08299255 .28033448 .084991458 .28933717 .11898804 .39535523 .18499756 .42037965 .21899414 .42037965 .23799134 .42037965 .272995 .4113617 .272995 .35334779 .272995 .32235719 .2559967 .25532533 .21899414 .11528015 .20298767 .053268434 .16799927 .011245728 .12399292 .011245728 .117996219 .011245728 .09498596 .011245728 .07398987 .024276734 .09899902 .029266358 .12098694 .05027771 .12098694 .07827759 .12098694 .105270389 .09899902 .11328125 .083999637 .11328125 .053985597 .11328125 .0289917 .08728027 .0289917 .055267335 .0289917 .009246826 .07899475-.0107421879 .12298584-.0107421879 .18899536-.0107421879 .22499085 .059280397 .22799683 .0652771 .23999024 .028274537 .27598573-.0107421879 .33599855-.0107421879 .43899537-.0107421879 .49598695 .118270877 .49598695 .14328003 .49598695 .1532898 .4869995 .1532898 .48399354 .1532898 .47499085 .1532898 .47299195 .14929199 .47099305 .14228821 .43798829 .03527832 .36999513 .011245728 .33799745 .011245728 .29899598 .011245728 .2829895 .043273927 .2829895 .07727051 .2829895 .09927368 .2889862 .121276859 .2999878 .16529846L.33399964 .30233766Z"/>
<path id="font_3_3" d="M.40899659 .23046875H.6879883C.70199587 .23046875 .72099307 .23046875 .72099307 .25045777 .72099307 .27046205 .70199587 .27046205 .6879883 .27046205H.40899659V.5500183C.40899659 .56399539 .40899659 .5830078 .3889923 .5830078 .36898805 .5830078 .36898805 .56399539 .36898805 .5500183V.27046205H.08898926C.07499695 .27046205 .055999757 .27046205 .055999757 .25045777 .055999757 .23046875 .07499695 .23046875 .08898926 .23046875H.36898805V-.05000305C.36898805-.06401062 .36898805-.08300781 .3889923-.08300781 .40899659-.08300781 .40899659-.06401062 .40899659-.05000305V.23046875Z"/>
<path id="font_3_8" d="M.2939911 .16503906V.07800293C.2939911 .041992189 .2919922 .0309906 .21798706 .0309906H.19699097V0C.23799134 .0029907227 .2899933 .0029907227 .33198548 .0029907227 .37399293 .0029907227 .4269867 .0029907227 .46798707 0V.0309906H.44699098C.37298585 .0309906 .37098695 .041992189 .37098695 .07800293V.16503906H.47099305V.19602967H.37098695V.65075686C.37098695 .67074587 .37098695 .6767578 .35499574 .6767578 .34599305 .6767578 .34298707 .6767578 .33499146 .66474917L.027999878 .19602967V.16503906H.2939911M.2999878 .19602967H.055999757L.2999878 .5688019V.19602967Z"/>
<path id="font_4_3" d="M.48599244 .38136292C.48999024 .39537049 .48999024 .39736939 .48999024 .40437318 .48999024 .42237855 .47599793 .43138124 .46099855 .43138124 .45098878 .43138124 .43499757 .42536927 .42599488 .41036988 .42399598 .405365 .41600038 .37435914 .4119873 .35635377 .40499879 .33035279 .397995 .30334474 .3919983 .27633668L.34700013 .09628296C.34298707 .08126831 .2999878 .011245728 .23399353 .011245728 .18299866 .011245728 .17199707 .055267335 .17199707 .0922699 .17199707 .1382904 .18899536 .20030213 .22299195 .28833009 .23899842 .3293457 .24299622 .3403473 .24299622 .36035157 .24299622 .405365 .21099854 .4423828 .16099549 .4423828 .06599426 .4423828 .0289917 .29733277 .0289917 .28833009 .0289917 .27833558 .038986207 .27833558 .040985109 .27833558 .050994874 .27833558 .051986696 .28033448 .056991579 .29634095 .083999637 .3903656 .12399292 .42037965 .1579895 .42037965 .1659851 .42037965 .18299866 .42037965 .18299866 .3883667 .18299866 .36335755 .17298889 .3373413 .1659851 .31834413 .12599182 .21231079 .10798645 .1552887 .10798645 .10827637 .10798645 .019256592 .17098999-.0107421879 .22999573-.0107421879 .2689972-.0107421879 .30299378 .0062561037 .33099366 .03425598 .31799317-.017745972 .30599977-.06674194 .2659912-.11973572 .23999024-.15385437 .20199585-.18309021 .1559906-.18309021 .14199829-.18309021 .09700012-.18005371 .07998657-.14074707 .09599304-.14074707 .10899353-.14074707 .12298584-.1287384 .1329956-.11973572 .14299011-.10673523 .14299011-.08773804 .14299011-.056747438 .115997318-.052734376 .10598755-.052734376 .08299255-.052734376 .049987794-.068740848 .049987794-.11773682 .049987794-.16796875 .09399414-.20507813 .1559906-.20507813 .25898744-.20507813 .3619995-.11373901 .3899994-.00074768069L.48599244 .38136292Z"/>
<path id="font_3_9" d="M.68699648 .32714845C.70199587 .32714845 .72099307 .32714845 .72099307 .34713746 .72099307 .36714173 .70199587 .36714173 .6879883 .36714173H.08898926C.07499695 .36714173 .055999757 .36714173 .055999757 .34713746 .055999757 .32714845 .07499695 .32714845 .08999634 .32714845H.68699648M.6879883 .13284302C.70199587 .13284302 .72099307 .13284302 .72099307 .15284729 .72099307 .17285156 .70199587 .17285156 .68699648 .17285156H.08999634C.07499695 .17285156 .055999757 .17285156 .055999757 .15284729 .055999757 .13284302 .07499695 .13284302 .08898926 .13284302H.6879883Z"/>
<path id="font_3_5" d="M.2939911 .64004519C.2939911 .66400149 .2939911 .6660156 .2709961 .6660156 .20899964 .60227969 .12098694 .60227969 .08898926 .60227969V.57128909C.10899353 .57128909 .16799927 .57128909 .21998596 .5972748V.07902527C.21998596 .042999269 .21699524 .0309906 .1269989 .0309906H.09498596V0C.12998963 .0029907227 .21699524 .0029907227 .25698854 .0029907227 .29699708 .0029907227 .38398744 .0029907227 .4189911 0V.0309906H.3869934C.29699708 .0309906 .2939911 .041992189 .2939911 .07902527V.64004519Z"/>
<path id="font_3_6" d="M.1269989 .07699585 .23298645 .18003845C.3889923 .31811524 .44898988 .3721466 .44898988 .47216798 .44898988 .5860901 .35899354 .6660156 .23699951 .6660156 .12399292 .6660156 .049987794 .57411196 .049987794 .48516847 .049987794 .4291687 .099990848 .4291687 .102996829 .4291687 .11999512 .4291687 .15499878 .44117738 .15499878 .48217774 .15499878 .5081787 .13699341 .5341797 .101989749 .5341797 .09399414 .5341797 .09199524 .5341797 .08898926 .5331726 .11199951 .59806826 .1659851 .63500979 .22399903 .63500979 .31498719 .63500979 .35798646 .5541382 .35798646 .47216798 .35798646 .39215089 .30799867 .31311036 .25299073 .25108338L.06098938 .036987306C.049987794 .025985718 .049987794 .023986817 .049987794 0H.42099L.44898988 .17404175H.42399598C.4189911 .14402771 .4119873 .1000061 .4019928 .084991458 .394989 .07699585 .32899476 .07699585 .30699159 .07699585H.1269989Z"/>
<path id="font_3_1" d="M.33099366-.2400055C.33099366-.23701477 .33099366-.23500061 .31399537-.21800232 .18899536-.0920105 .15699768 .09700012 .15699768 .25 .15699768 .42399598 .19499207 .59799197 .31799317 .72299197 .33099366 .73498538 .33099366 .7369995 .33099366 .73999026 .33099366 .746994 .32699586 .75 .32099916 .75 .31098939 .75 .22099304 .6819916 .1619873 .5549927 .11099243 .44499208 .09899902 .33399964 .09899902 .25 .09899902 .17199707 .10998535 .050994874 .16499329-.06201172 .22499085-.18501282 .31098939-.25 .32099916-.25 .32699586-.25 .33099366-.24700928 .33099366-.2400055Z"/>
<path id="font_3_4" d="M.45999146 .31976319C.45999146 .39982606 .45498658 .47988893 .41999818 .5539398 .37399293 .65000918 .2919922 .6660156 .25 .6660156 .18998719 .6660156 .116989139 .64001467 .07598877 .54693606 .04399109 .47789 .038986207 .39982606 .038986207 .31976319 .038986207 .24472046 .042999269 .15464783 .083999637 .07859802 .1269989-.0024719239 .19999695-.022460938 .24899292-.022460938 .30299378-.022460938 .3789978-.0014648438 .4229889 .09359741 .45498658 .16265869 .45999146 .2407074 .45999146 .31976319M.24899292-.00047302247C.20999146-.00047302247 .15098572 .024551392 .1329956 .12062073 .12199402 .18066406 .12199402 .2727356 .12199402 .3317871 .12199402 .39582826 .12199402 .46188355 .12998963 .5159149 .14898682 .63500979 .22399903 .64401248 .24899292 .64401248 .28199769 .64401248 .34799195 .6259918 .36698915 .52693179 .3769989 .47088624 .3769989 .39482118 .3769989 .3317871 .3769989 .25672914 .3769989 .18867493 .3659973 .12461853 .35099793 .029556275 .2939911-.00047302247 .24899292-.00047302247Z"/>
<path id="font_4_1" d="M.20298767 .0009918213C.20298767 .066986087 .17799378 .10598755 .13899231 .10598755 .10598755 .10598755 .085998538 .08099365 .085998538 .052993776 .085998538 .025985718 .10598755 0 .13899231 0 .15098572 0 .1639862 .0039978029 .17399597 .0129852299 .1769867 .01499939 .17799378 .015991211 .1789856 .015991211 .17999268 .015991211 .18099976 .01499939 .18099976 .0009918213 .18099976-.07316589 .1459961-.13328552 .11299133-.16635132 .101989749-.17736817 .101989749-.17936707 .101989749-.18237305 .101989749-.18936157 .10699463-.19335938 .11199951-.19335938 .12298584-.19335938 .20298767-.116256717 .20298767 .0009918213Z"/>
<path id="font_3_2" d="M.2889862 .25C.2889862 .32798768 .27799989 .44898988 .22299195 .56199648 .16299439 .68499758 .07699585 .75 .066986087 .75 .06098938 .75 .056991579 .74598696 .056991579 .73999026 .056991579 .7369995 .056991579 .73498538 .07598877 .71699526 .17399597 .6179962 .23098755 .45899964 .23098755 .25 .23098755 .07899475 .19400025-.09700012 .069992069-.2230072 .056991579-.23500061 .056991579-.23701477 .056991579-.2400055 .056991579-.2460022 .06098938-.25 .066986087-.25 .07699585-.25 .16699219-.18200684 .22599793-.055007936 .2769928 .054992677 .2889862 .16600037 .2889862 .25Z"/>
</defs>
<path transform="matrix(1.00002,0,0,-1.00006,1.4613705,145.953)" d="M0 0H163.88796V141.34799H0Z" fill="#fffac2"/>
<path transform="matrix(1.00002,0,0,-1.00006,1.4613705,145.953)" stroke-width=".3985" stroke-linecap="butt" stroke-miterlimit="10" stroke-linejoin="miter" fill="none" stroke="#d5d6d5" d="M0 0V141.34799M23.41255 0V141.34799M46.82512 0V141.34799M70.23769 0V141.34799M93.65025 0V141.34799M117.06282 0V141.34799M140.47539 0V141.34799M163.88796 0V141.34799"/>
<path transform="matrix(1.00002,0,0,-1.00006,1.4613705,145.953)" stroke-width=".3985" stroke-linecap="butt" stroke-miterlimit="10" stroke-linejoin="miter" fill="none" stroke="#d5d6d5" d="M70.23769 0V141.34799M117.06282 0V141.34799M163.88796 0V141.34799"/>
<path transform="matrix(1.00002,0,0,-1.00006,1.4613705,145.953)" stroke-width=".3985" stroke-linecap="butt" stroke-miterlimit="10" stroke-linejoin="miter" fill="none" stroke="#d5d6d5" d="M0 0H163.88796M0 28.26959H163.88796M0 56.53918H163.88796M0 84.80879H163.88796M0 113.07838H163.88796M0 141.34799H163.88796"/>
<path transform="matrix(1.00002,0,0,-1.00006,1.4613705,145.953)" stroke-width=".3985" stroke-linecap="butt" stroke-miterlimit="10" stroke-linejoin="miter" fill="none" stroke="#d5d6d5" d="M0 84.80879H163.88796M0 141.34799H163.88796"/>
<path transform="matrix(1.00002,0,0,-1.00006,1.4613705,145.953)" stroke-width=".19925" stroke-linecap="butt" stroke-miterlimit="10" stroke-linejoin="miter" fill="none" stroke="#929292" d="M0 26.85217V29.68701M23.41255 26.85217V29.68701M46.82512 26.85217V29.68701M70.23769 26.85217V29.68701M93.65025 26.85217V29.68701M117.06282 26.85217V29.68701M140.47539 26.85217V29.68701M163.88796 26.85217V29.68701"/>
<path transform="matrix(1.00002,0,0,-1.00006,1.4613705,145.953)" stroke-width=".19925" stroke-linecap="butt" stroke-miterlimit="10" stroke-linejoin="miter" fill="none" stroke="#929292" d="M70.23769 26.14368V30.3955M117.06282 26.14368V30.3955M163.88796 26.14368V30.3955"/>
<path transform="matrix(1.00002,0,0,-1.00006,1.4613705,145.953)" stroke-width=".19925" stroke-linecap="butt" stroke-miterlimit="10" stroke-linejoin="miter" fill="none" stroke="#929292" d="M21.99515 0H24.82997M21.99515 28.26959H24.82997M21.99515 56.53918H24.82997M21.99515 84.80879H24.82997M21.99515 113.07838H24.82997M21.99515 141.34799H24.82997"/>
<path transform="matrix(1.00002,0,0,-1.00006,1.4613705,145.953)" stroke-width=".19925" stroke-linecap="butt" stroke-miterlimit="10" stroke-linejoin="miter" fill="none" stroke="#929292" d="M21.28664 84.80879H25.53847M21.28664 141.34799H25.53847"/>
<path transform="matrix(1.00002,0,0,-1.00006,1.4613705,145.953)" stroke-width=".3985" stroke-linecap="butt" stroke-miterlimit="10" stroke-linejoin="miter" fill="none" stroke="#000000" d="M1.99252 28.26959H161.89543"/>
<path transform="matrix(-1.00002,-0,0,1.00006,3.4539304,117.68172)" d="M1.99252 0-1.19551 1.59401 0 0-1.19551-1.59401"/>
<path transform="matrix(1.00002,0,0,-1.00006,163.36003,117.68172)" d="M1.99252 0-1.19551 1.59401 0 0-1.19551-1.59401"/>
<path transform="matrix(1.00002,0,0,-1.00006,1.4613705,145.953)" stroke-width=".3985" stroke-linecap="butt" stroke-miterlimit="10" stroke-linejoin="miter" fill="none" stroke="#000000" d="M23.41255 1.99252V139.35547"/>
<path transform="matrix(0,1.00006,1.00002,0,24.87439,143.96036)" d="M1.99252 0-1.19551 1.59401 0 0-1.19551-1.59401"/>
<path transform="matrix(0,-1.00006,-1.00002,-0,24.87439,6.5891726)" d="M1.99252 0-1.19551 1.59401 0 0-1.19551-1.59401"/>
<use data-text="2" xlink:href="#font_1_1" transform="matrix(7.9702599,0,0,-7.9705779,69.58374,128.46396)"/>
<use data-text="4" xlink:href="#font_1_2" transform="matrix(7.9702599,0,0,-7.9705779,116.40967,128.46396)"/>
<use data-text="6" xlink:href="#font_1_3" transform="matrix(7.9702599,0,0,-7.9705779,163.2356,128.46396)"/>
<use data-text="2" xlink:href="#font_1_1" transform="matrix(7.9702599,0,0,-7.9705779,16.88468,63.707078)"/>
<use data-text="4" xlink:href="#font_1_2" transform="matrix(7.9702599,0,0,-7.9705779,16.88468,7.164688)"/>
<g clip-path="url(#clip_2)">
<path transform="matrix(1.00002,0,0,-1.00006,1.4613705,145.953)" stroke-width=".99628" stroke-linecap="butt" stroke-miterlimit="10" stroke-linejoin="miter" fill="none" stroke="#9e0c0f" d="M6.12363 128.73485 6.17825 128.6856 12.35652 123.0906 18.5348 117.49562 24.71307 111.90065 30.89136 106.30565 37.06963 100.71066 43.2479 95.11569 49.42616 89.5207 55.60443 83.92572 61.78271 78.33072 67.96098 72.73575 74.13925 67.14076 80.31754 61.54578 86.4958 55.95078 92.67409 50.3558 98.85234 44.76082 105.03061 39.16582 111.2089 33.57085 117.38716 27.97586 123.56544 22.38087 129.74372 16.78587 135.92198 11.1909 142.10025 5.59592 142.15476 5.54655"/>
<path transform="matrix(-.74119487,-.67127028,-.6712435,.74122449,8.107284,17.683335)" d="M7.39124 0 2.37614 1.6717 .70447 0 2.37614-1.6717Z" fill="#9e0c0f"/>
<path transform="matrix(-.74119487,-.67127028,-.6712435,.74122449,8.107284,17.683335)" stroke-width=".99628" stroke-linecap="butt" stroke-miterlimit="10" stroke-linejoin="miter" fill="none" stroke="#9e0c0f" d="M7.39124 0 2.37614 1.6717 .70447 0 2.37614-1.6717Z"/>
<path transform="matrix(.7412148,.67126026,.6712335,-.74124446,143.0968,139.93323)" d="M7.39124 0 2.37614 1.6717 .70447 0 2.37614-1.6717Z" fill="#9e0c0f"/>
<path transform="matrix(.7412148,.67126026,.6712335,-.74124446,143.0968,139.93323)" stroke-width=".99628" stroke-linecap="butt" stroke-miterlimit="10" stroke-linejoin="miter" fill="none" stroke="#9e0c0f" d="M7.39124 0 2.37614 1.6717 .70447 0 2.37614-1.6717Z"/>
<use data-text="3" xlink:href="#font_3_7" transform="matrix(7.3844268,6.687497,6.6872308,-7.3847219,58.59268,55.638628)" fill="#9e0c0f"/>
<use data-text="x" xlink:href="#font_4_2" transform="matrix(7.3844268,6.687497,6.6872308,-7.3847219,62.284669,58.982164)" fill="#9e0c0f"/>
<use data-text="+" xlink:href="#font_3_3" transform="matrix(7.3844268,6.687497,6.6872308,-7.3847219,68.146198,64.2905)" fill="#9e0c0f"/>
<use data-text="4" xlink:href="#font_3_8" transform="matrix(7.3844268,6.687497,6.6872308,-7.3847219,75.52324,70.9713)" fill="#9e0c0f"/>
<use data-text="y" xlink:href="#font_4_3" transform="matrix(7.3844268,6.687497,6.6872308,-7.3847219,79.222919,74.32181)" fill="#9e0c0f"/>
<use data-text="=" xlink:href="#font_3_9" transform="matrix(7.3844268,6.687497,6.6872308,-7.3847219,85.1593,79.69794)" fill="#9e0c0f"/>
<use data-text="1" xlink:href="#font_3_5" transform="matrix(7.3844268,6.687497,6.6872308,-7.3847219,92.94249,86.74655)" fill="#9e0c0f"/>
<use data-text="2" xlink:href="#font_3_6" transform="matrix(7.3844268,6.687497,6.6872308,-7.3847219,96.634708,90.0903)" fill="#9e0c0f"/>
<path transform="matrix(1.00002,0,0,-1.00006,1.4613705,145.953)" stroke-width=".3985" stroke-linecap="butt" stroke-miterlimit="10" stroke-linejoin="miter" fill="none" stroke="#9e0c0f" d=""/>
<use data-text="(" xlink:href="#font_3_1" transform="matrix(9.962799,0,0,-9.963197,28.39391,26.856858)" fill="#9e0c0f"/>
<use data-text="0" xlink:href="#font_3_4" transform="matrix(9.962799,0,0,-9.963197,32.259477,26.856858)" fill="#9e0c0f"/>
<use data-text="," xlink:href="#font_4_1" transform="matrix(9.962799,0,0,-9.963197,37.250085,26.856858)" fill="#9e0c0f"/>
<use data-text="3" xlink:href="#font_3_7" transform="matrix(9.962799,0,0,-9.963197,41.678174,26.856858)" fill="#9e0c0f"/>
<use data-text=")" xlink:href="#font_3_2" transform="matrix(9.962799,0,0,-9.963197,46.659574,26.856858)" fill="#9e0c0f"/>
<path transform="matrix(1.00002,0,0,-1.00006,1.4613705,145.953)" stroke-width=".3985" stroke-linecap="butt" stroke-miterlimit="10" stroke-linejoin="miter" fill="none" stroke="#9e0c0f" d=""/>
<use data-text="(" xlink:href="#font_3_1" transform="matrix(9.962799,0,0,-9.963197,122.04678,111.670948)" fill="#9e0c0f"/>
<use data-text="4" xlink:href="#font_3_8" transform="matrix(9.962799,0,0,-9.963197,125.91235,111.670948)" fill="#9e0c0f"/>
<use data-text="," xlink:href="#font_4_1" transform="matrix(9.962799,0,0,-9.963197,130.90297,111.670948)" fill="#9e0c0f"/>
<use data-text="0" xlink:href="#font_3_4" transform="matrix(9.962799,0,0,-9.963197,135.33106,111.670948)" fill="#9e0c0f"/>
<use data-text=")" xlink:href="#font_3_2" transform="matrix(9.962799,0,0,-9.963197,140.31246,111.670948)" fill="#9e0c0f"/>
</g>
<path transform="matrix(1.00002,0,0,-1.00006,1.4613705,145.953)" d="M25.4051 113.07838C25.4051 114.17886 24.51303 115.07094 23.41255 115.07094 22.31209 115.07094 21.42 114.17886 21.42 113.07838 21.42 111.97792 22.31209 111.08583 23.41255 111.08583 24.51303 111.08583 25.4051 111.97792 25.4051 113.07838ZM23.41255 113.07838" fill="#9e0c0f"/>
<path transform="matrix(1.00002,0,0,-1.00006,1.4613705,145.953)" stroke-width=".3985" stroke-linecap="butt" stroke-miterlimit="10" stroke-linejoin="miter" fill="none" stroke="#9e0c0f" d="M25.4051 113.07838C25.4051 114.17886 24.51303 115.07094 23.41255 115.07094 22.31209 115.07094 21.42 114.17886 21.42 113.07838 21.42 111.97792 22.31209 111.08583 23.41255 111.08583 24.51303 111.08583 25.4051 111.97792 25.4051 113.07838ZM23.41255 113.07838"/>
<path transform="matrix(1.00002,0,0,-1.00006,1.4613705,145.953)" stroke-width=".3985" stroke-linecap="butt" stroke-miterlimit="10" stroke-linejoin="miter" fill="none" stroke="#9e0c0f" d=""/>
<path transform="matrix(1.00002,0,0,-1.00006,1.4613705,145.953)" d="M119.05537 28.26959C119.05537 29.37006 118.1633 30.26215 117.06282 30.26215 115.96236 30.26215 115.07027 29.37006 115.07027 28.26959 115.07027 27.16911 115.96236 26.27704 117.06282 26.27704 118.1633 26.27704 119.05537 27.16911 119.05537 28.26959ZM117.06282 28.26959" fill="#9e0c0f"/>
<path transform="matrix(1.00002,0,0,-1.00006,1.4613705,145.953)" stroke-width=".3985" stroke-linecap="butt" stroke-miterlimit="10" stroke-linejoin="miter" fill="none" stroke="#9e0c0f" d="M119.05537 28.26959C119.05537 29.37006 118.1633 30.26215 117.06282 30.26215 115.96236 30.26215 115.07027 29.37006 115.07027 28.26959 115.07027 27.16911 115.96236 26.27704 117.06282 26.27704 118.1633 26.27704 119.05537 27.16911 119.05537 28.26959ZM117.06282 28.26959"/>
<path transform="matrix(1.00002,0,0,-1.00006,1.4613705,145.953)" stroke-width=".3985" stroke-linecap="butt" stroke-miterlimit="10" stroke-linejoin="miter" fill="none" stroke="#9e0c0f" d=""/>
<use data-text="x" xlink:href="#font_4_2" transform="matrix(9.962799,0,0,-9.963197,156.13846,114.162097)"/>
<use data-text="y" xlink:href="#font_4_3" transform="matrix(9.962799,0,0,-9.963197,28.39391,12.405991)"/>
</svg>
