<svg xmlns="http://www.w3.org/2000/svg" xmlns:xlink="http://www.w3.org/1999/xlink" version="1.1" width="167" height="148" viewBox="0 0 167 148">
<defs>
<path id="font_1_1" d="M.69898989 .22743225C.71499636 .22743225 .7369995 .22743225 .7369995 .25042726 .7369995 .2734375 .71499636 .2734375 .69898989 .2734375H.12599182C.10998535 .2734375 .08799744 .2734375 .08799744 .25042726 .08799744 .22743225 .10998535 .22743225 .12599182 .22743225H.69898989Z"/>
<path id="font_2_2" d="M.3939972 .6468048C.3939972 .6667938 .3939972 .6748047 .37298585 .6748047 .3600006 .6748047 .35899354 .6737976 .34899903 .65979006L.02999878 .197052V.1640625H.31199647V.08100891C.31199647 .04399109 .30899049 .032989503 .23199463 .032989503H.20899964V0C.2939911 .0029907227 .29599 .0029907227 .35299684 .0029907227 .4099884 .0029907227 .4119873 .0029907227 .49699403 0V.032989503H.47399903C.39698792 .032989503 .3939972 .04399109 .3939972 .08100891V.1640625H.5V.197052H.3939972V.6468048M.31900025 .5658417V.197052H.06498718L.31900025 .5658417Z"/>
<path id="font_2_1" d="M.28199769 .20405579C.2979889 .21907044 .33999635 .2520752 .35598756 .26608277 .41799928 .32312013 .47698976 .3781433 .47698976 .46917726 .47698976 .588089 .3769989 .66503909 .2519989 .66503909 .13198853 .66503909 .052993776 .57411196 .052993776 .48516847 .052993776 .4361725 .09199524 .4291687 .10598755 .4291687 .1269989 .4291687 .1579895 .4441681 .1579895 .48217774 .1579895 .5341797 .10798645 .5341797 .09599304 .5341797 .125 .6070709 .19198609 .6320343 .24099732 .6320343 .33399964 .6320343 .38198854 .55314639 .38198854 .46917726 .38198854 .36514283 .30899049 .28910829 .19099427 .16804505L.06498718 .037994386C.052993776 .026992798 .052993776 .024993897 .052993776 0H.44799806L.47698976 .17904663H.44599916C.44299317 .1590271 .43499757 .10900879 .4229889 .08999634 .4169922 .08198547 .34098817 .08198547 .32499696 .08198547H.14698792L.28199769 .20405579Z"/>
<path id="font_2_3" d="M.13798523 .33073426C.13798523 .41377259 .14498902 .4868164 .18099976 .54782107 .21099854 .5978241 .2619934 .6390381 .32499696 .6390381 .34498597 .6390381 .3909912 .63601687 .4139862 .60084536 .36898805 .5988312 .36499024 .5648346 .36499024 .553833 .36499024 .5238342 .3880005 .50683596 .4119873 .50683596 .42999269 .50683596 .45899964 .51782229 .45899964 .5558319 .45899964 .615921 .4139862 .66503909 .32398988 .66503909 .18499756 .66503909 .04399109 .53282168 .04399109 .31672669 .04399109 .045532228 .16999817-.021484375 .2669983-.021484375 .31498719-.021484375 .36698915-.0084991459 .4119873 .03453064 .45199586 .07354736 .48599244 .11558533 .48599244 .20263672 .48599244 .33372499 .3869934 .42578126 .27598573 .42578126 .20399475 .42578126 .16099549 .37976075 .13798523 .33073426M.2669983 .008514404C.21398926 .008514404 .18099976 .045532228 .1659851 .07354736 .14299011 .11859131 .14099121 .18663025 .14099121 .22465515 .14099121 .32373048 .19499207 .3977661 .27198792 .3977661 .32199098 .3977661 .35198976 .37176515 .37098695 .33673097 .3919983 .29971314 .3919983 .25468446 .3919983 .2036438 .3919983 .15260315 .3919983 .10858154 .37199403 .07255554 .34599305 .026519776 .31098939 .008514404 .2669983 .008514404Z"/>
<clipPath id="clip_3">
<path transform="matrix(1,0,0,-1.00008,1.4610005,145.95735)" d="M0 0H163.87732V141.3495H0Z"/>
</clipPath>
<path id="font_4_3" d="M.48599244 .38136292C.48999024 .39537049 .48999024 .39736939 .48999024 .40437318 .48999024 .42237855 .47599793 .43138124 .46099855 .43138124 .45098878 .43138124 .43499757 .42536927 .42599488 .41036988 .42399598 .405365 .41600038 .37435914 .4119873 .35635377 .40499879 .33035279 .397995 .30334474 .3919983 .27633668L.34700013 .09628296C.34298707 .08126831 .2999878 .011245728 .23399353 .011245728 .18299866 .011245728 .17199707 .055267335 .17199707 .0922699 .17199707 .1382904 .18899536 .20030213 .22299195 .28833009 .23899842 .3293457 .24299622 .3403473 .24299622 .36035157 .24299622 .405365 .21099854 .4423828 .16099549 .4423828 .06599426 .4423828 .0289917 .29733277 .0289917 .28833009 .0289917 .27833558 .038986207 .27833558 .040985109 .27833558 .050994874 .27833558 .051986696 .28033448 .056991579 .29634095 .083999637 .3903656 .12399292 .42037965 .1579895 .42037965 .1659851 .42037965 .18299866 .42037965 .18299866 .3883667 .18299866 .36335755 .17298889 .3373413 .1659851 .31834413 .12599182 .21231079 .10798645 .1552887 .10798645 .10827637 .10798645 .019256592 .17098999-.0107421879 .22999573-.0107421879 .2689972-.0107421879 .30299378 .0062561037 .33099366 .03425598 .31799317-.017745972 .30599977-.06674194 .2659912-.11973572 .23999024-.15385437 .20199585-.18309021 .1559906-.18309021 .14199829-.18309021 .09700012-.18005371 .07998657-.14074707 .09599304-.14074707 .10899353-.14074707 .12298584-.1287384 .1329956-.11973572 .14299011-.10673523 .14299011-.08773804 .14299011-.056747438 .115997318-.052734376 .10598755-.052734376 .08299255-.052734376 .049987794-.068740848 .049987794-.11773682 .049987794-.16796875 .09399414-.20507813 .1559906-.20507813 .25898744-.20507813 .3619995-.11373901 .3899994-.00074768069L.48599244 .38136292Z"/>
<path id="font_5_7" d="M.68699648 .32714845C.70199587 .32714845 .72099307 .32714845 .72099307 .34713746 .72099307 .36714173 .70199587 .36714173 .6879883 .36714173H.08898926C.07499695 .36714173 .055999757 .36714173 .055999757 .34713746 .055999757 .32714845 .07499695 .32714845 .08999634 .32714845H.68699648M.6879883 .13284302C.70199587 .13284302 .72099307 .13284302 .72099307 .15284729 .72099307 .17285156 .70199587 .17285156 .68699648 .17285156H.08999634C.07499695 .17285156 .055999757 .17285156 .055999757 .15284729 .055999757 .13284302 .07499695 .13284302 .08898926 .13284302H.6879883Z"/>
<path id="font_6_1" d="M.5049896 .18203736H.47099305C.46798707 .16001892 .45799256 .100997928 .44499208 .09098816 .43699647 .084991458 .3600006 .084991458 .34599305 .084991458H.1619873C.2669983 .17803955 .3019867 .20603943 .3619995 .25306703 .43598939 .312088 .5049896 .374115 .5049896 .46914674 .5049896 .5900879 .39898683 .6640625 .2709961 .6640625 .14698792 .6640625 .06298828 .57710269 .06298828 .4851532 .06298828 .43414308 .10598755 .42915345 .115997318 .42915345 .13999939 .42915345 .16899109 .44615174 .16899109 .48214723 .16899109 .5001526 .1619873 .53515627 .10998535 .53515627 .14099121 .6060791 .20899964 .62805178 .2559967 .62805178 .35598756 .62805178 .4079895 .5501404 .4079895 .46914674 .4079895 .38212586 .34599305 .3130951 .31399537 .27708436L.07299805 .038986207C.06298828 .02999878 .06298828 .027999878 .06298828 0H.47499085L.5049896 .18203736Z"/>
<path id="font_6_2" d="M.272995 .33428956C.35099793 .33428956 .40699769 .2803192 .40699769 .1733551 .40699769 .04940796 .33499146 .012466431 .2769928 .012466431 .23699951 .012466431 .14898682 .0234375 .10699463 .082351688 .1539917 .084350589 .16499329 .11735535 .16499329 .13835144 .16499329 .17034912 .14099121 .19335938 .10998535 .19335938 .08198547 .19335938 .053985597 .17634583 .053985597 .13534546 .053985597 .041412355 .1579895-.01953125 .2789917-.01953125 .41799928-.01953125 .5139923 .07336426 .5139923 .1733551 .5139923 .2513275 .44999696 .32929994 .33999635 .35229493 .44499208 .39024354 .48298646 .4650879 .48298646 .5260773 .48298646 .60505679 .3919983 .6640625 .2809906 .6640625 .16999817 .6640625 .084991458 .61006167 .084991458 .5300751 .084991458 .49606324 .10699463 .47706605 .13699341 .47706605 .16799927 .47706605 .18798828 .5000763 .18798828 .5280762 .18798828 .5570679 .16799927 .57806399 .13699341 .5800781 .17199707 .62405398 .24099732 .63505557 .27799989 .63505557 .32299806 .63505557 .38598634 .6130676 .38598634 .5260773 .38598634 .48406983 .37199403 .43814088 .34599305 .4072113 .31298829 .36927796 .2849884 .3672943 .23498535 .36428834 .20999146 .3623047 .20799256 .3623047 .20298767 .3612976 .20098877 .3612976 .19299317 .3592987 .19299317 .34829713 .19299317 .33428956 .20199585 .33428956 .21899414 .33428956H.272995Z"/>
<path id="font_5_1" d="M.33099366-.2400055C.33099366-.23701477 .33099366-.23500061 .31399537-.21800232 .18899536-.0920105 .15699768 .09700012 .15699768 .25 .15699768 .42399598 .19499207 .59799197 .31799317 .72299197 .33099366 .73498538 .33099366 .7369995 .33099366 .73999026 .33099366 .746994 .32699586 .75 .32099916 .75 .31098939 .75 .22099304 .6819916 .1619873 .5549927 .11099243 .44499208 .09899902 .33399964 .09899902 .25 .09899902 .17199707 .10998535 .050994874 .16499329-.06201172 .22499085-.18501282 .31098939-.25 .32099916-.25 .32699586-.25 .33099366-.24700928 .33099366-.2400055Z"/>
<path id="font_4_2" d="M.33399964 .30233766C.33999635 .32835389 .36299134 .42037965 .43299867 .42037965 .43798829 .42037965 .46199037 .42037965 .48298646 .40734864 .45498658 .402359 .43499757 .37734986 .43499757 .35334779 .43499757 .33735658 .44599916 .31835938 .47299195 .31835938 .49499513 .31835938 .5269928 .3363495 .5269928 .37635804 .5269928 .42837525 .46798707 .4423828 .43399049 .4423828 .37599183 .4423828 .34098817 .38935853 .32899476 .36634828 .3039856 .43237306 .25 .4423828 .22099304 .4423828 .116989139 .4423828 .05999756 .3133545 .05999756 .28834535 .05999756 .27833558 .069992069 .27833558 .07199097 .27833558 .07998657 .27833558 .08299255 .28033448 .084991458 .28933717 .11898804 .39535523 .18499756 .42037965 .21899414 .42037965 .23799134 .42037965 .272995 .4113617 .272995 .35334779 .272995 .32235719 .2559967 .25532533 .21899414 .11528015 .20298767 .053268434 .16799927 .011245728 .12399292 .011245728 .117996219 .011245728 .09498596 .011245728 .07398987 .024276734 .09899902 .029266358 .12098694 .05027771 .12098694 .07827759 .12098694 .105270389 .09899902 .11328125 .083999637 .11328125 .053985597 .11328125 .0289917 .08728027 .0289917 .055267335 .0289917 .009246826 .07899475-.0107421879 .12298584-.0107421879 .18899536-.0107421879 .22499085 .059280397 .22799683 .0652771 .23999024 .028274537 .27598573-.0107421879 .33599855-.0107421879 .43899537-.0107421879 .49598695 .118270877 .49598695 .14328003 .49598695 .1532898 .4869995 .1532898 .48399354 .1532898 .47499085 .1532898 .47299195 .14929199 .47099305 .14228821 .43798829 .03527832 .36999513 .011245728 .33799745 .011245728 .29899598 .011245728 .2829895 .043273927 .2829895 .07727051 .2829895 .09927368 .2889862 .121276859 .2999878 .16529846L.33399964 .30233766Z"/>
<path id="font_5_3" d="M.40899659 .23046875H.6879883C.70199587 .23046875 .72099307 .23046875 .72099307 .25045777 .72099307 .27046205 .70199587 .27046205 .6879883 .27046205H.40899659V.5500183C.40899659 .56399539 .40899659 .5830078 .3889923 .5830078 .36898805 .5830078 .36898805 .56399539 .36898805 .5500183V.27046205H.08898926C.07499695 .27046205 .055999757 .27046205 .055999757 .25045777 .055999757 .23046875 .07499695 .23046875 .08898926 .23046875H.36898805V-.05000305C.36898805-.06401062 .36898805-.08300781 .3889923-.08300781 .40899659-.08300781 .40899659-.06401062 .40899659-.05000305V.23046875Z"/>
<path id="font_5_4" d="M.2939911 .64004519C.2939911 .66400149 .2939911 .6660156 .2709961 .6660156 .20899964 .60227969 .12098694 .60227969 .08898926 .60227969V.57128909C.10899353 .57128909 .16799927 .57128909 .21998596 .5972748V.07902527C.21998596 .042999269 .21699524 .0309906 .1269989 .0309906H.09498596V0C.12998963 .0029907227 .21699524 .0029907227 .25698854 .0029907227 .29699708 .0029907227 .38398744 .0029907227 .4189911 0V.0309906H.3869934C.29699708 .0309906 .2939911 .041992189 .2939911 .07902527V.64004519Z"/>
<path id="font_5_2" d="M.2889862 .25C.2889862 .32798768 .27799989 .44898988 .22299195 .56199648 .16299439 .68499758 .07699585 .75 .066986087 .75 .06098938 .75 .056991579 .74598696 .056991579 .73999026 .056991579 .7369995 .056991579 .73498538 .07598877 .71699526 .17399597 .6179962 .23098755 .45899964 .23098755 .25 .23098755 .07899475 .19400025-.09700012 .069992069-.2230072 .056991579-.23500061 .056991579-.23701477 .056991579-.2400055 .056991579-.2460022 .06098938-.25 .066986087-.25 .07699585-.25 .16699219-.18200684 .22599793-.055007936 .2769928 .054992677 .2889862 .16600037 .2889862 .25Z"/>
<path id="font_5_6" d="M.2899933 .35191346C.37199403 .37893678 .42999269 .4490509 .42999269 .52809146 .42999269 .6100464 .34199525 .6660156 .24598694 .6660156 .14498902 .6660156 .068984989 .60606387 .068984989 .53009036 .068984989 .49710084 .09098816 .47808839 .11999512 .47808839 .15098572 .47808839 .17098999 .50009158 .17098999 .5290985 .17098999 .57910159 .12399292 .57910159 .10899353 .57910159 .13999939 .62802127 .20599365 .64100649 .24198914 .64100649 .2829895 .64100649 .33799745 .6190338 .33799745 .5290985 .33799745 .51708987 .33599855 .45906068 .30999757 .4149933 .27999879 .36691285 .24598694 .36390687 .22099304 .36291505 .21299744 .36190797 .18899536 .35990907 .18199158 .35990907 .17399597 .35890199 .16699219 .35791017 .16699219 .3479004 .16699219 .33691407 .17399597 .33691407 .19099427 .33691407H.23498535C.31698609 .33691407 .35398866 .2686615 .35398866 .17037964 .35398866 .034469606 .2849884 .0055389406 .24099732 .0055389406 .19799805 .0055389406 .12298584 .022491456 .08799744 .08137512 .12298584 .07637024 .1539917 .09837341 .1539917 .1363678 .1539917 .17237854 .1269989 .19238281 .09799194 .19238281 .07398987 .19238281 .041992189 .17837525 .041992189 .1343689 .041992189 .043441774 .1349945-.022460938 .24398804-.022460938 .3659973-.022460938 .45700074 .06838989 .45700074 .17037964 .45700074 .252594 .3939972 .33088685 .2899933 .35191346Z"/>
<path id="font_7_1" d="M.6589966 .23046875C.6759949 .23046875 .69400027 .23046875 .69400027 .25045777 .69400027 .27046205 .6759949 .27046205 .6589966 .27046205H.117996219C.100997928 .27046205 .08299255 .27046205 .08299255 .25045777 .08299255 .23046875 .100997928 .23046875 .117996219 .23046875H.6589966Z"/>
<path id="font_4_1" d="M.20298767 .0009918213C.20298767 .066986087 .17799378 .10598755 .13899231 .10598755 .10598755 .10598755 .085998538 .08099365 .085998538 .052993776 .085998538 .025985718 .10598755 0 .13899231 0 .15098572 0 .1639862 .0039978029 .17399597 .0129852299 .1769867 .01499939 .17799378 .015991211 .1789856 .015991211 .17999268 .015991211 .18099976 .01499939 .18099976 .0009918213 .18099976-.07316589 .1459961-.13328552 .11299133-.16635132 .101989749-.17736817 .101989749-.17936707 .101989749-.18237305 .101989749-.18936157 .10699463-.19335938 .11199951-.19335938 .12298584-.19335938 .20298767-.116256717 .20298767 .0009918213Z"/>
<path id="font_5_5" d="M.1269989 .07699585 .23298645 .18003845C.3889923 .31811524 .44898988 .3721466 .44898988 .47216798 .44898988 .5860901 .35899354 .6660156 .23699951 .6660156 .12399292 .6660156 .049987794 .57411196 .049987794 .48516847 .049987794 .4291687 .099990848 .4291687 .102996829 .4291687 .11999512 .4291687 .15499878 .44117738 .15499878 .48217774 .15499878 .5081787 .13699341 .5341797 .101989749 .5341797 .09399414 .5341797 .09199524 .5341797 .08898926 .5331726 .11199951 .59806826 .1659851 .63500979 .22399903 .63500979 .31498719 .63500979 .35798646 .5541382 .35798646 .47216798 .35798646 .39215089 .30799867 .31311036 .25299073 .25108338L.06098938 .036987306C.049987794 .025985718 .049987794 .023986817 .049987794 0H.42099L.44898988 .17404175H.42399598C.4189911 .14402771 .4119873 .1000061 .4019928 .084991458 .394989 .07699585 .32899476 .07699585 .30699159 .07699585H.1269989Z"/>
</defs>
<path transform="matrix(1,0,0,-1.00008,1.4610005,145.95735)" d="M0 0H163.87732V141.3495H0Z" fill="#fffac2"/>
<path transform="matrix(1,0,0,-1.00008,1.4610005,145.95735)" stroke-width=".3985" stroke-linecap="butt" stroke-miterlimit="10" stroke-linejoin="miter" fill="none" stroke="#d5d6d5" d="M0 0V141.3495M20.48466 0V141.3495M40.96933 0V141.3495M61.454 0V141.3495M81.93866 0V141.3495M102.42332 0V141.3495M122.90799 0V141.3495M143.39266 0V141.3495M163.87732 0V141.3495"/>
<path transform="matrix(1,0,0,-1.00008,1.4610005,145.95735)" stroke-width=".3985" stroke-linecap="butt" stroke-miterlimit="10" stroke-linejoin="miter" fill="none" stroke="#d5d6d5" d="M20.48466 0V141.3495M61.454 0V141.3495M143.39266 0V141.3495"/>
<path transform="matrix(1,0,0,-1.00008,1.4610005,145.95735)" stroke-width=".3985" stroke-linecap="butt" stroke-miterlimit="10" stroke-linejoin="miter" fill="none" stroke="#d5d6d5" d="M0 0H163.87732M0 20.19278H163.87732M0 40.38557H163.87732M0 60.57835H163.87732M0 80.77115H163.87732M0 100.96393H163.87732M0 121.15672H163.87732M0 141.3495H163.87732"/>
<path transform="matrix(1,0,0,-1.00008,1.4610005,145.95735)" stroke-width=".3985" stroke-linecap="butt" stroke-miterlimit="10" stroke-linejoin="miter" fill="none" stroke="#d5d6d5" d="M0 60.57835H163.87732M0 100.96393H163.87732M0 141.3495H163.87732"/>
<path transform="matrix(1,0,0,-1.00008,1.4610005,145.95735)" stroke-width=".19925" stroke-linecap="butt" stroke-miterlimit="10" stroke-linejoin="miter" fill="none" stroke="#929292" d="M0 18.77536V21.6102M20.48466 18.77536V21.6102M40.96933 18.77536V21.6102M61.454 18.77536V21.6102M81.93866 18.77536V21.6102M102.42332 18.77536V21.6102M122.90799 18.77536V21.6102M143.39266 18.77536V21.6102M163.87732 18.77536V21.6102"/>
<path transform="matrix(1,0,0,-1.00008,1.4610005,145.95735)" stroke-width=".19925" stroke-linecap="butt" stroke-miterlimit="10" stroke-linejoin="miter" fill="none" stroke="#929292" d="M20.48466 18.06686V22.31868M61.454 18.06686V22.31868M143.39266 18.06686V22.31868"/>
<path transform="matrix(1,0,0,-1.00008,1.4610005,145.95735)" stroke-width=".19925" stroke-linecap="butt" stroke-miterlimit="10" stroke-linejoin="miter" fill="none" stroke="#929292" d="M101.0059 0H103.84074M101.0059 20.19278H103.84074M101.0059 40.38557H103.84074M101.0059 60.57835H103.84074M101.0059 80.77115H103.84074M101.0059 100.96393H103.84074M101.0059 121.15672H103.84074M101.0059 141.3495H103.84074"/>
<path transform="matrix(1,0,0,-1.00008,1.4610005,145.95735)" stroke-width=".19925" stroke-linecap="butt" stroke-miterlimit="10" stroke-linejoin="miter" fill="none" stroke="#929292" d="M100.2974 60.57835H104.54922M100.2974 100.96393H104.54922M100.2974 141.3495H104.54922"/>
<path transform="matrix(1,0,0,-1.00008,1.4610005,145.95735)" stroke-width=".3985" stroke-linecap="butt" stroke-miterlimit="10" stroke-linejoin="miter" fill="none" stroke="#000000" d="M1.99252 20.19278H161.8848"/>
<path transform="matrix(-1,-0,0,1.00008,3.4535204,125.762958)" d="M1.99252 0-1.19551 1.59401 0 0-1.19551-1.59401"/>
<path transform="matrix(1,0,0,-1.00008,163.3458,125.762958)" d="M1.99252 0-1.19551 1.59401 0 0-1.19551-1.59401"/>
<path transform="matrix(1,0,0,-1.00008,1.4610005,145.95735)" stroke-width=".3985" stroke-linecap="butt" stroke-miterlimit="10" stroke-linejoin="miter" fill="none" stroke="#000000" d="M102.42332 1.99252V139.35698"/>
<path transform="matrix(0,1.00008,1,0,103.884319,143.96468)" d="M1.99252 0-1.19551 1.59401 0 0-1.19551-1.59401"/>
<path transform="matrix(0,-1.00008,-1,-0,103.884319,6.589218)" d="M1.99252 0-1.19551 1.59401 0 0-1.19551-1.59401"/>
<use data-text="&#x2212;" xlink:href="#font_1_1" transform="matrix(7.9701,0,0,-7.9707376,16.535,136.5456)"/>
<use data-text="4" xlink:href="#font_2_2" transform="matrix(7.9701,0,0,-7.9707376,23.122002,136.5456)"/>
<use data-text="&#x2212;" xlink:href="#font_1_1" transform="matrix(7.9701,0,0,-7.9707376,57.505,136.5456)"/>
<use data-text="2" xlink:href="#font_2_1" transform="matrix(7.9701,0,0,-7.9707376,64.092,136.5456)"/>
<use data-text="2" xlink:href="#font_2_1" transform="matrix(7.9701,0,0,-7.9707376,142.737,136.5456)"/>
<use data-text="2" xlink:href="#font_2_1" transform="matrix(7.9701,0,0,-7.9707376,95.895008,87.94272)"/>
<use data-text="4" xlink:href="#font_2_2" transform="matrix(7.9701,0,0,-7.9707376,95.895008,47.553476)"/>
<use data-text="6" xlink:href="#font_2_3" transform="matrix(7.9701,0,0,-7.9707376,95.895008,7.1652376)"/>
<g clip-path="url(#clip_3)">
<path transform="matrix(1,0,0,-1.00008,1.4610005,145.95735)" stroke-width=".99628" stroke-linecap="butt" stroke-miterlimit="10" stroke-linejoin="miter" fill="none" stroke="#9e0c0f" d="M6.90425 31.46118 6.8282 31.41147 13.65642 35.8987 20.48463 40.38596 27.31284 44.87318 34.14105 49.36044 40.96928 53.84767 47.79749 58.33492 54.6257 62.82214 61.45392 67.30937 68.28212 71.79662 75.11035 76.28384 81.93857 80.77109 88.76677 85.25832 95.59499 89.74556 102.4232 94.23279 109.25142 98.72003 116.07964 103.20728 122.90785 107.6945 129.73607 112.18173 136.56427 116.66898 143.39249 121.1562 150.22072 125.64343 157.04892 130.13068 156.97289 130.08097"/>
<path transform="matrix(-.83566,.54917398,.54913,.8357268,8.953951,114.10675)" d="M7.39124 0 2.37614 1.6717 .70447 0 2.37614-1.6717Z" fill="#9e0c0f"/>
<path transform="matrix(-.83566,.54917398,.54913,.8357268,8.953951,114.10675)" stroke-width=".99628" stroke-linecap="butt" stroke-miterlimit="10" stroke-linejoin="miter" fill="none" stroke="#9e0c0f" d="M7.39124 0 2.37614 1.6717 .70447 0 2.37614-1.6717Z"/>
<path transform="matrix(.83566,-.54917398,-.54913,-.8357268,157.84517,16.252869)" d="M7.39124 0 2.37614 1.6717 .70447 0 2.37614-1.6717Z" fill="#9e0c0f"/>
<path transform="matrix(.83566,-.54917398,-.54913,-.8357268,157.84517,16.252869)" stroke-width=".99628" stroke-linecap="butt" stroke-miterlimit="10" stroke-linejoin="miter" fill="none" stroke="#9e0c0f" d="M7.39124 0 2.37614 1.6717 .70447 0 2.37614-1.6717Z"/>
<use data-text="y" xlink:href="#font_4_3" transform="matrix(8.325346,-5.471499,-5.471061,-8.326012,18.796235,122.28012)" fill="#9e0c0f"/>
<use data-text="=" xlink:href="#font_5_7" transform="matrix(8.325346,-5.471499,-5.471061,-8.326012,25.489037,117.88154)" fill="#9e0c0f"/>
<use data-text="2" xlink:href="#font_6_1" transform="matrix(5.827726,-3.8300386,-3.8297322,-5.8281919,33.121927,108.170719)" fill="#9e0c0f"/>
<path transform="matrix(.83566,-.54920396,-.54916,-.8357268,-88.374,-6.835862)" stroke-width=".3985" stroke-linecap="butt" stroke-miterlimit="10" stroke-linejoin="miter" fill="none" stroke="#9e0c0f" d="M38.381-164.267H42.352"/>
<use data-text="3" xlink:href="#font_6_2" transform="matrix(5.827726,-3.8300386,-3.8297322,-5.8281919,37.16265,114.31999)" fill="#9e0c0f"/>
<use data-text="(" xlink:href="#font_5_1" transform="matrix(8.325346,-5.471499,-5.471061,-8.326012,39.59414,108.61153)" fill="#9e0c0f"/>
<use data-text="x" xlink:href="#font_4_2" transform="matrix(8.325346,-5.471499,-5.471061,-8.326012,42.83149,106.48391)" fill="#9e0c0f"/>
<use data-text="+" xlink:href="#font_5_3" transform="matrix(8.325346,-5.471499,-5.471061,-8.326012,49.439889,102.14081)" fill="#9e0c0f"/>
<use data-text="1" xlink:href="#font_5_4" transform="matrix(8.325346,-5.471499,-5.471061,-8.326012,57.756906,96.674777)" fill="#9e0c0f"/>
<use data-text=")" xlink:href="#font_5_2" transform="matrix(8.325346,-5.471499,-5.471061,-8.326012,61.91958,93.939029)" fill="#9e0c0f"/>
<use data-text="+" xlink:href="#font_5_3" transform="matrix(8.325346,-5.471499,-5.471061,-8.326012,66.99804,90.60141)" fill="#9e0c0f"/>
<use data-text="3" xlink:href="#font_5_6" transform="matrix(8.325346,-5.471499,-5.471061,-8.326012,75.315059,85.13539)" fill="#9e0c0f"/>
<path transform="matrix(1,0,0,-1.00008,1.4610005,145.95735)" stroke-width=".3985" stroke-linecap="butt" stroke-miterlimit="10" stroke-linejoin="miter" fill="none" stroke="#9e0c0f" d=""/>
<use data-text="(" xlink:href="#font_5_1" transform="matrix(9.9626,0,0,-9.963397,49.991998,59.16841)" fill="#9e0c0f"/>
<use data-text="&#x2212;" xlink:href="#font_7_1" transform="matrix(9.9626,0,0,-9.963397,53.865999,59.16841)" fill="#9e0c0f"/>
<use data-text="1" xlink:href="#font_5_4" transform="matrix(9.9626,0,0,-9.963397,61.614999,59.16841)" fill="#9e0c0f"/>
<use data-text="," xlink:href="#font_4_1" transform="matrix(9.9626,0,0,-9.963397,66.596,59.16841)" fill="#9e0c0f"/>
<use data-text="3" xlink:href="#font_5_6" transform="matrix(9.9626,0,0,-9.963397,71.024,59.16841)" fill="#9e0c0f"/>
<use data-text=")" xlink:href="#font_5_2" transform="matrix(9.9626,0,0,-9.963397,76.0053,59.16841)" fill="#9e0c0f"/>
<path transform="matrix(1,0,0,-1.00008,1.4610005,145.95735)" stroke-width=".99628" stroke-linecap="butt" stroke-miterlimit="10" stroke-linejoin="miter" fill="none" stroke="#929292" d="M81.93866 80.77115H20.48466V43.27478"/>
<path transform="matrix(0,1.00008,1,0,21.94566,102.67911)" d="M2.8892 0-1.73352 2.31136 0 0-1.73352-2.31136" fill="#929292"/>
<path transform="matrix(1,0,0,-1.00008,1.4610005,145.95735)" stroke-width=".99628" stroke-linecap="butt" stroke-miterlimit="10" stroke-linejoin="miter" fill="none" stroke="#929292" d="M81.93866 80.77115H143.39266"/>
<use data-text="3" xlink:href="#font_5_6" transform="matrix(9.9626,0,0,-9.963397,111.636,61.360589)" fill="#929292"/>
<path transform="matrix(1,0,0,-1.00008,1.4610005,145.95735)" stroke-width=".99628" stroke-linecap="butt" stroke-miterlimit="10" stroke-linejoin="miter" fill="none" stroke="#929292" d="M143.39266 80.77115V118.2675"/>
<path transform="matrix(0,-1.00008,-1,-0,144.85366,27.68039)" d="M2.8892 0-1.73352 2.31136 0 0-1.73352-2.31136" fill="#929292"/>
<use data-text="2" xlink:href="#font_5_5" transform="matrix(9.9626,0,0,-9.963397,148.672,48.195535)" fill="#929292"/>
</g>
<path transform="matrix(1,0,0,-1.00008,1.4610005,145.95735)" d="M22.47722 40.38557C22.47722 41.48604 21.58513 42.37813 20.48466 42.37813 19.38419 42.37813 18.49211 41.48604 18.49211 40.38557 18.49211 39.2851 19.38419 38.39302 20.48466 38.39302 21.58513 38.39302 22.47722 39.2851 22.47722 40.38557ZM20.48466 40.38557" fill="#9e0c0f"/>
<path transform="matrix(1,0,0,-1.00008,1.4610005,145.95735)" stroke-width=".3985" stroke-linecap="butt" stroke-miterlimit="10" stroke-linejoin="miter" fill="none" stroke="#9e0c0f" d="M22.47722 40.38557C22.47722 41.48604 21.58513 42.37813 20.48466 42.37813 19.38419 42.37813 18.49211 41.48604 18.49211 40.38557 18.49211 39.2851 19.38419 38.39302 20.48466 38.39302 21.58513 38.39302 22.47722 39.2851 22.47722 40.38557ZM20.48466 40.38557"/>
<path transform="matrix(1,0,0,-1.00008,1.4610005,145.95735)" d="M145.38521 121.15672C145.38521 122.25719 144.49312 123.14928 143.39266 123.14928 142.29218 123.14928 141.4001 122.25719 141.4001 121.15672 141.4001 120.05624 142.29218 119.16417 143.39266 119.16417 144.49312 119.16417 145.38521 120.05624 145.38521 121.15672ZM143.39266 121.15672" fill="#9e0c0f"/>
<path transform="matrix(1,0,0,-1.00008,1.4610005,145.95735)" stroke-width=".3985" stroke-linecap="butt" stroke-miterlimit="10" stroke-linejoin="miter" fill="none" stroke="#9e0c0f" d="M145.38521 121.15672C145.38521 122.25719 144.49312 123.14928 143.39266 123.14928 142.29218 123.14928 141.4001 122.25719 141.4001 121.15672 141.4001 120.05624 142.29218 119.16417 143.39266 119.16417 144.49312 119.16417 145.38521 120.05624 145.38521 121.15672ZM143.39266 121.15672"/>
<path transform="matrix(1,0,0,-1.00008,1.4610005,145.95735)" stroke-width=".3985" stroke-linecap="butt" stroke-miterlimit="10" stroke-linejoin="miter" fill="none" stroke="#9e0c0f" d=""/>
<path transform="matrix(1,0,0,-1.00008,1.4610005,145.95735)" d="M83.93121 80.77115C83.93121 81.87161 83.03912 82.7637 81.93866 82.7637 80.83818 82.7637 79.9461 81.87161 79.9461 80.77115 79.9461 79.67067 80.83818 78.7786 81.93866 78.7786 83.03912 78.7786 83.93121 79.67067 83.93121 80.77115ZM81.93866 80.77115" fill="#9e0c0f"/>
<path transform="matrix(1,0,0,-1.00008,1.4610005,145.95735)" stroke-width=".3985" stroke-linecap="butt" stroke-miterlimit="10" stroke-linejoin="miter" fill="none" stroke="#9e0c0f" d="M83.93121 80.77115C83.93121 81.87161 83.03912 82.7637 81.93866 82.7637 80.83818 82.7637 79.9461 81.87161 79.9461 80.77115 79.9461 79.67067 80.83818 78.7786 81.93866 78.7786 83.03912 78.7786 83.93121 79.67067 83.93121 80.77115ZM81.93866 80.77115"/>
<path transform="matrix(1,0,0,-1.00008,1.4610005,145.95735)" stroke-width=".3985" stroke-linecap="butt" stroke-miterlimit="10" stroke-linejoin="miter" fill="none" stroke="#9e0c0f" d=""/>
<use data-text="x" xlink:href="#font_4_2" transform="matrix(9.9626,0,0,-9.963397,156.125,122.242458)"/>
<use data-text="y" xlink:href="#font_4_3" transform="matrix(9.9626,0,0,-9.963397,107.40401,12.406677)"/>
</svg>
