<svg xmlns="http://www.w3.org/2000/svg" xmlns:xlink="http://www.w3.org/1999/xlink" version="1.1" width="167" height="150" viewBox="0 0 167 150">
<defs>
<path id="font_1_1" d="M.69898989 .22743225C.71499636 .22743225 .7369995 .22743225 .7369995 .25042726 .7369995 .2734375 .71499636 .2734375 .69898989 .2734375H.12599182C.10998535 .2734375 .08799744 .2734375 .08799744 .25042726 .08799744 .22743225 .10998535 .22743225 .12599182 .22743225H.69898989Z"/>
<path id="font_2_1" d="M.28199769 .20405579C.2979889 .21907044 .33999635 .2520752 .35598756 .26608277 .41799928 .32312013 .47698976 .3781433 .47698976 .46917726 .47698976 .588089 .3769989 .66503909 .2519989 .66503909 .13198853 .66503909 .052993776 .57411196 .052993776 .48516847 .052993776 .4361725 .09199524 .4291687 .10598755 .4291687 .1269989 .4291687 .1579895 .4441681 .1579895 .48217774 .1579895 .5341797 .10798645 .5341797 .09599304 .5341797 .125 .6070709 .19198609 .6320343 .24099732 .6320343 .33399964 .6320343 .38198854 .55314639 .38198854 .46917726 .38198854 .36514283 .30899049 .28910829 .19099427 .16804505L.06498718 .037994386C.052993776 .026992798 .052993776 .024993897 .052993776 0H.44799806L.47698976 .17904663H.44599916C.44299317 .1590271 .43499757 .10900879 .4229889 .08999634 .4169922 .08198547 .34098817 .08198547 .32499696 .08198547H.14698792L.28199769 .20405579Z"/>
<path id="font_2_3" d="M.13798523 .33073426C.13798523 .41377259 .14498902 .4868164 .18099976 .54782107 .21099854 .5978241 .2619934 .6390381 .32499696 .6390381 .34498597 .6390381 .3909912 .63601687 .4139862 .60084536 .36898805 .5988312 .36499024 .5648346 .36499024 .553833 .36499024 .5238342 .3880005 .50683596 .4119873 .50683596 .42999269 .50683596 .45899964 .51782229 .45899964 .5558319 .45899964 .615921 .4139862 .66503909 .32398988 .66503909 .18499756 .66503909 .04399109 .53282168 .04399109 .31672669 .04399109 .045532228 .16999817-.021484375 .2669983-.021484375 .31498719-.021484375 .36698915-.0084991459 .4119873 .03453064 .45199586 .07354736 .48599244 .11558533 .48599244 .20263672 .48599244 .33372499 .3869934 .42578126 .27598573 .42578126 .20399475 .42578126 .16099549 .37976075 .13798523 .33073426M.2669983 .008514404C.21398926 .008514404 .18099976 .045532228 .1659851 .07354736 .14299011 .11859131 .14099121 .18663025 .14099121 .22465515 .14099121 .32373048 .19499207 .3977661 .27198792 .3977661 .32199098 .3977661 .35198976 .37176515 .37098695 .33673097 .3919983 .29971314 .3919983 .25468446 .3919983 .2036438 .3919983 .15260315 .3919983 .10858154 .37199403 .07255554 .34599305 .026519776 .31098939 .008514404 .2669983 .008514404Z"/>
<path id="font_2_2" d="M.3939972 .6468048C.3939972 .6667938 .3939972 .6748047 .37298585 .6748047 .3600006 .6748047 .35899354 .6737976 .34899903 .65979006L.02999878 .197052V.1640625H.31199647V.08100891C.31199647 .04399109 .30899049 .032989503 .23199463 .032989503H.20899964V0C.2939911 .0029907227 .29599 .0029907227 .35299684 .0029907227 .4099884 .0029907227 .4119873 .0029907227 .49699403 0V.032989503H.47399903C.39698792 .032989503 .3939972 .04399109 .3939972 .08100891V.1640625H.5V.197052H.3939972V.6468048M.31900025 .5658417V.197052H.06498718L.31900025 .5658417Z"/>
<clipPath id="clip_3">
<path transform="matrix(1.00002,0,0,-1.00002,1.4613705,145.95833)" d="M0 0H163.88036V141.36016H0Z"/>
</clipPath>
<path id="font_4_2" d="M.48599244 .38136292C.48999024 .39537049 .48999024 .39736939 .48999024 .40437318 .48999024 .42237855 .47599793 .43138124 .46099855 .43138124 .45098878 .43138124 .43499757 .42536927 .42599488 .41036988 .42399598 .405365 .41600038 .37435914 .4119873 .35635377 .40499879 .33035279 .397995 .30334474 .3919983 .27633668L.34700013 .09628296C.34298707 .08126831 .2999878 .011245728 .23399353 .011245728 .18299866 .011245728 .17199707 .055267335 .17199707 .0922699 .17199707 .1382904 .18899536 .20030213 .22299195 .28833009 .23899842 .3293457 .24299622 .3403473 .24299622 .36035157 .24299622 .405365 .21099854 .4423828 .16099549 .4423828 .06599426 .4423828 .0289917 .29733277 .0289917 .28833009 .0289917 .27833558 .038986207 .27833558 .040985109 .27833558 .050994874 .27833558 .051986696 .28033448 .056991579 .29634095 .083999637 .3903656 .12399292 .42037965 .1579895 .42037965 .1659851 .42037965 .18299866 .42037965 .18299866 .3883667 .18299866 .36335755 .17298889 .3373413 .1659851 .31834413 .12599182 .21231079 .10798645 .1552887 .10798645 .10827637 .10798645 .019256592 .17098999-.0107421879 .22999573-.0107421879 .2689972-.0107421879 .30299378 .0062561037 .33099366 .03425598 .31799317-.017745972 .30599977-.06674194 .2659912-.11973572 .23999024-.15385437 .20199585-.18309021 .1559906-.18309021 .14199829-.18309021 .09700012-.18005371 .07998657-.14074707 .09599304-.14074707 .10899353-.14074707 .12298584-.1287384 .1329956-.11973572 .14299011-.10673523 .14299011-.08773804 .14299011-.056747438 .115997318-.052734376 .10598755-.052734376 .08299255-.052734376 .049987794-.068740848 .049987794-.11773682 .049987794-.16796875 .09399414-.20507813 .1559906-.20507813 .25898744-.20507813 .3619995-.11373901 .3899994-.00074768069L.48599244 .38136292Z"/>
<path id="font_5_4" d="M.68699648 .32714845C.70199587 .32714845 .72099307 .32714845 .72099307 .34713746 .72099307 .36714173 .70199587 .36714173 .6879883 .36714173H.08898926C.07499695 .36714173 .055999757 .36714173 .055999757 .34713746 .055999757 .32714845 .07499695 .32714845 .08999634 .32714845H.68699648M.6879883 .13284302C.70199587 .13284302 .72099307 .13284302 .72099307 .15284729 .72099307 .17285156 .70199587 .17285156 .68699648 .17285156H.08999634C.07499695 .17285156 .055999757 .17285156 .055999757 .15284729 .055999757 .13284302 .07499695 .13284302 .08898926 .13284302H.6879883Z"/>
<path id="font_6_1" d="M.6589966 .23046875C.6759949 .23046875 .69400027 .23046875 .69400027 .25045777 .69400027 .27046205 .6759949 .27046205 .6589966 .27046205H.117996219C.100997928 .27046205 .08299255 .27046205 .08299255 .25045777 .08299255 .23046875 .100997928 .23046875 .117996219 .23046875H.6589966Z"/>
<path id="font_5_3" d="M.1269989 .07699585 .23298645 .18003845C.3889923 .31811524 .44898988 .3721466 .44898988 .47216798 .44898988 .5860901 .35899354 .6660156 .23699951 .6660156 .12399292 .6660156 .049987794 .57411196 .049987794 .48516847 .049987794 .4291687 .099990848 .4291687 .102996829 .4291687 .11999512 .4291687 .15499878 .44117738 .15499878 .48217774 .15499878 .5081787 .13699341 .5341797 .101989749 .5341797 .09399414 .5341797 .09199524 .5341797 .08898926 .5331726 .11199951 .59806826 .1659851 .63500979 .22399903 .63500979 .31498719 .63500979 .35798646 .5541382 .35798646 .47216798 .35798646 .39215089 .30799867 .31311036 .25299073 .25108338L.06098938 .036987306C.049987794 .025985718 .049987794 .023986817 .049987794 0H.42099L.44898988 .17404175H.42399598C.4189911 .14402771 .4119873 .1000061 .4019928 .084991458 .394989 .07699585 .32899476 .07699585 .30699159 .07699585H.1269989Z"/>
<path id="font_4_1" d="M.33399964 .30233766C.33999635 .32835389 .36299134 .42037965 .43299867 .42037965 .43798829 .42037965 .46199037 .42037965 .48298646 .40734864 .45498658 .402359 .43499757 .37734986 .43499757 .35334779 .43499757 .33735658 .44599916 .31835938 .47299195 .31835938 .49499513 .31835938 .5269928 .3363495 .5269928 .37635804 .5269928 .42837525 .46798707 .4423828 .43399049 .4423828 .37599183 .4423828 .34098817 .38935853 .32899476 .36634828 .3039856 .43237306 .25 .4423828 .22099304 .4423828 .116989139 .4423828 .05999756 .3133545 .05999756 .28834535 .05999756 .27833558 .069992069 .27833558 .07199097 .27833558 .07998657 .27833558 .08299255 .28033448 .084991458 .28933717 .11898804 .39535523 .18499756 .42037965 .21899414 .42037965 .23799134 .42037965 .272995 .4113617 .272995 .35334779 .272995 .32235719 .2559967 .25532533 .21899414 .11528015 .20298767 .053268434 .16799927 .011245728 .12399292 .011245728 .117996219 .011245728 .09498596 .011245728 .07398987 .024276734 .09899902 .029266358 .12098694 .05027771 .12098694 .07827759 .12098694 .105270389 .09899902 .11328125 .083999637 .11328125 .053985597 .11328125 .0289917 .08728027 .0289917 .055267335 .0289917 .009246826 .07899475-.0107421879 .12298584-.0107421879 .18899536-.0107421879 .22499085 .059280397 .22799683 .0652771 .23999024 .028274537 .27598573-.0107421879 .33599855-.0107421879 .43899537-.0107421879 .49598695 .118270877 .49598695 .14328003 .49598695 .1532898 .4869995 .1532898 .48399354 .1532898 .47499085 .1532898 .47299195 .14929199 .47099305 .14228821 .43798829 .03527832 .36999513 .011245728 .33799745 .011245728 .29899598 .011245728 .2829895 .043273927 .2829895 .07727051 .2829895 .09927368 .2889862 .121276859 .2999878 .16529846L.33399964 .30233766Z"/>
<path id="font_5_1" d="M.40899659 .23046875H.6879883C.70199587 .23046875 .72099307 .23046875 .72099307 .25045777 .72099307 .27046205 .70199587 .27046205 .6879883 .27046205H.40899659V.5500183C.40899659 .56399539 .40899659 .5830078 .3889923 .5830078 .36898805 .5830078 .36898805 .56399539 .36898805 .5500183V.27046205H.08898926C.07499695 .27046205 .055999757 .27046205 .055999757 .25045777 .055999757 .23046875 .07499695 .23046875 .08898926 .23046875H.36898805V-.05000305C.36898805-.06401062 .36898805-.08300781 .3889923-.08300781 .40899659-.08300781 .40899659-.06401062 .40899659-.05000305V.23046875Z"/>
<path id="font_5_2" d="M.2939911 .64004519C.2939911 .66400149 .2939911 .6660156 .2709961 .6660156 .20899964 .60227969 .12098694 .60227969 .08898926 .60227969V.57128909C.10899353 .57128909 .16799927 .57128909 .21998596 .5972748V.07902527C.21998596 .042999269 .21699524 .0309906 .1269989 .0309906H.09498596V0C.12998963 .0029907227 .21699524 .0029907227 .25698854 .0029907227 .29699708 .0029907227 .38398744 .0029907227 .4189911 0V.0309906H.3869934C.29699708 .0309906 .2939911 .041992189 .2939911 .07902527V.64004519Z"/>
</defs>
<path transform="matrix(1.00002,0,0,-1.00002,1.4613705,145.95833)" d="M0 0H163.88036V141.36016H0Z" fill="#fffac2"/>
<path transform="matrix(1.00002,0,0,-1.00002,1.4613705,145.95833)" stroke-width=".3985" stroke-linecap="butt" stroke-miterlimit="10" stroke-linejoin="miter" fill="none" stroke="#d5d6d5" d="M0 0V141.36016M27.31339 0V141.36016M54.62679 0V141.36016M81.94017 0V141.36016M109.25357 0V141.36016M136.56697 0V141.36016M163.88036 0V141.36016"/>
<path transform="matrix(1.00002,0,0,-1.00002,1.4613705,145.95833)" stroke-width=".3985" stroke-linecap="butt" stroke-miterlimit="10" stroke-linejoin="miter" fill="none" stroke="#d5d6d5" d="M27.31339 0V141.36016M136.56697 0V141.36016"/>
<path transform="matrix(1.00002,0,0,-1.00002,1.4613705,145.95833)" stroke-width=".3985" stroke-linecap="butt" stroke-miterlimit="10" stroke-linejoin="miter" fill="none" stroke="#d5d6d5" d="M0 0H163.88036M0 11.78H163.88036M0 23.56001H163.88036M0 35.34003H163.88036M0 47.12004H163.88036M0 58.90005H163.88036M0 70.68007H163.88036M0 82.46008H163.88036M0 94.2401H163.88036M0 106.02011H163.88036M0 117.80013H163.88036M0 129.58014H163.88036M0 141.36016H163.88036"/>
<path transform="matrix(1.00002,0,0,-1.00002,1.4613705,145.95833)" stroke-width=".3985" stroke-linecap="butt" stroke-miterlimit="10" stroke-linejoin="miter" fill="none" stroke="#d5d6d5" d="M0 0H163.88036M0 23.56001H163.88036M0 47.12004H163.88036M0 94.2401H163.88036M0 117.80013H163.88036M0 141.36016H163.88036"/>
<path transform="matrix(1.00002,0,0,-1.00002,1.4613705,145.95833)" stroke-width=".19925" stroke-linecap="butt" stroke-miterlimit="10" stroke-linejoin="miter" fill="none" stroke="#929292" d="M0 69.26265V72.09749M27.31339 69.26265V72.09749M54.62679 69.26265V72.09749M81.94017 69.26265V72.09749M109.25357 69.26265V72.09749M136.56697 69.26265V72.09749M163.88036 69.26265V72.09749"/>
<path transform="matrix(1.00002,0,0,-1.00002,1.4613705,145.95833)" stroke-width=".19925" stroke-linecap="butt" stroke-miterlimit="10" stroke-linejoin="miter" fill="none" stroke="#929292" d="M27.31339 68.55415V72.80597M136.56697 68.55415V72.80597"/>
<path transform="matrix(1.00002,0,0,-1.00002,1.4613705,145.95833)" stroke-width=".19925" stroke-linecap="butt" stroke-miterlimit="10" stroke-linejoin="miter" fill="none" stroke="#929292" d="M80.52275 0H83.3576M80.52275 11.78H83.3576M80.52275 23.56001H83.3576M80.52275 35.34003H83.3576M80.52275 47.12004H83.3576M80.52275 58.90005H83.3576M80.52275 70.68007H83.3576M80.52275 82.46008H83.3576M80.52275 94.2401H83.3576M80.52275 106.02011H83.3576M80.52275 117.80013H83.3576M80.52275 129.58014H83.3576M80.52275 141.36016H83.3576"/>
<path transform="matrix(1.00002,0,0,-1.00002,1.4613705,145.95833)" stroke-width=".19925" stroke-linecap="butt" stroke-miterlimit="10" stroke-linejoin="miter" fill="none" stroke="#929292" d="M79.81424 0H84.0661M79.81424 23.56001H84.0661M79.81424 47.12004H84.0661M79.81424 94.2401H84.0661M79.81424 117.80013H84.0661M79.81424 141.36016H84.0661"/>
<path transform="matrix(1.00002,0,0,-1.00002,1.4613705,145.95833)" stroke-width=".3985" stroke-linecap="butt" stroke-miterlimit="10" stroke-linejoin="miter" fill="none" stroke="#000000" d="M1.99252 70.68007H161.88784"/>
<path transform="matrix(-1.00002,-0,0,1.00002,3.4539304,75.27684)" d="M1.99252 0-1.19551 1.59401 0 0-1.19551-1.59401"/>
<path transform="matrix(1.00002,0,0,-1.00002,163.35243,75.27684)" d="M1.99252 0-1.19551 1.59401 0 0-1.19551-1.59401"/>
<path transform="matrix(1.00002,0,0,-1.00002,1.4613705,145.95833)" stroke-width=".3985" stroke-linecap="butt" stroke-miterlimit="10" stroke-linejoin="miter" fill="none" stroke="#000000" d="M81.94017 1.99252V139.36763"/>
<path transform="matrix(0,1.00002,1.00002,0,83.40318,143.96578)" d="M1.99252 0-1.19551 1.59401 0 0-1.19551-1.59401"/>
<path transform="matrix(0,-1.00002,-1.00002,-0,83.40318,6.587906)" d="M1.99252 0-1.19551 1.59401 0 0-1.19551-1.59401"/>
<use data-text="&#x2212;" xlink:href="#font_1_1" transform="matrix(7.9702599,0,0,-7.9702599,23.364809,86.05913)"/>
<use data-text="2" xlink:href="#font_2_1" transform="matrix(7.9702599,0,0,-7.9702599,29.95194,86.05913)"/>
<use data-text="2" xlink:href="#font_2_1" transform="matrix(7.9702599,0,0,-7.9702599,135.91405,86.05913)"/>
<use data-text="&#x2212;" xlink:href="#font_1_1" transform="matrix(7.9702599,0,0,-7.9702599,68.82672,148.11138)"/>
<use data-text="6" xlink:href="#font_2_3" transform="matrix(7.9702599,0,0,-7.9702599,75.41385,148.11138)"/>
<use data-text="&#x2212;" xlink:href="#font_1_1" transform="matrix(7.9702599,0,0,-7.9702599,68.82672,124.5509)"/>
<use data-text="4" xlink:href="#font_2_2" transform="matrix(7.9702599,0,0,-7.9702599,75.41385,124.5509)"/>
<use data-text="&#x2212;" xlink:href="#font_1_1" transform="matrix(7.9702599,0,0,-7.9702599,68.82672,100.99043)"/>
<use data-text="2" xlink:href="#font_2_1" transform="matrix(7.9702599,0,0,-7.9702599,75.41385,100.99043)"/>
<use data-text="2" xlink:href="#font_2_1" transform="matrix(7.9702599,0,0,-7.9702599,75.41385,54.284494)"/>
<use data-text="4" xlink:href="#font_2_2" transform="matrix(7.9702599,0,0,-7.9702599,75.41385,30.72403)"/>
<use data-text="6" xlink:href="#font_2_3" transform="matrix(7.9702599,0,0,-7.9702599,75.41385,7.1635439)"/>
<g clip-path="url(#clip_3)">
<path transform="matrix(1.00002,0,0,-1.00002,1.4613705,145.95833)" stroke-width=".99628" stroke-linecap="butt" stroke-miterlimit="10" stroke-linejoin="miter" fill="none" stroke="#9e0c0f" d="M19.91245 135.96379 19.91599 135.961 26.17528 130.56185 32.43459 125.16266 38.69388 119.7635 44.95319 114.36436 51.21248 108.96523 57.47179 103.56606 63.73108 98.16689 69.99039 92.76775 76.24968 87.36859 82.50899 81.96942 88.76828 76.57028 95.02759 71.17111 101.28688 65.77196 107.54619 60.3728 113.80548 54.97366 120.06479 49.57451 126.32408 44.17531 132.58338 38.77617 138.84268 33.37703 145.10198 27.97787 151.36128 22.57874 157.62058 17.17953 157.62413 17.17676"/>
<path transform="matrix(-.75718519,-.6531631,-.6531631,.75718519,21.90764,10.45195)" d="M7.39124 0 2.37614 1.6717 .70447 0 2.37614-1.6717Z" fill="#9e0c0f"/>
<path transform="matrix(-.75718519,-.6531631,-.6531631,.75718519,21.90764,10.45195)" stroke-width=".99628" stroke-linecap="butt" stroke-miterlimit="10" stroke-linejoin="miter" fill="none" stroke="#9e0c0f" d="M7.39124 0 2.37614 1.6717 .70447 0 2.37614-1.6717Z"/>
<path transform="matrix(.75718519,.6531631,.6531631,-.75718519,158.55522,128.32109)" d="M7.39124 0 2.37614 1.6717 .70447 0 2.37614-1.6717Z" fill="#9e0c0f"/>
<path transform="matrix(.75718519,.6531631,.6531631,-.75718519,158.55522,128.32109)" stroke-width=".99628" stroke-linecap="butt" stroke-miterlimit="10" stroke-linejoin="miter" fill="none" stroke="#9e0c0f" d="M7.39124 0 2.37614 1.6717 .70447 0 2.37614-1.6717Z"/>
<use data-text="y" xlink:href="#font_4_2" transform="matrix(7.543533,6.507202,6.507202,-7.543533,35.949594,14.961685)" fill="#9e0c0f"/>
<use data-text="=" xlink:href="#font_5_4" transform="matrix(7.543533,6.507202,6.507202,-7.543533,42.013887,20.192872)" fill="#9e0c0f"/>
<use data-text="&#x2212;" xlink:href="#font_6_1" transform="matrix(7.543533,6.507202,6.507202,-7.543533,49.976449,27.061539)" fill="#9e0c0f"/>
<use data-text="2" xlink:href="#font_5_3" transform="matrix(7.543533,6.507202,6.507202,-7.543533,55.843873,32.122896)" fill="#9e0c0f"/>
<use data-text="x" xlink:href="#font_4_1" transform="matrix(7.543533,6.507202,6.507202,-7.543533,59.615419,35.376298)" fill="#9e0c0f"/>
<use data-text="+" xlink:href="#font_5_1" transform="matrix(7.543533,6.507202,6.507202,-7.543533,65.60323,40.54152)" fill="#9e0c0f"/>
<use data-text="1" xlink:href="#font_5_2" transform="matrix(7.543533,6.507202,6.507202,-7.543533,73.13922,47.042207)" fill="#9e0c0f"/>
<path transform="matrix(1.00002,0,0,-1.00002,1.4613705,145.95833)" stroke-width=".99628" stroke-linecap="butt" stroke-miterlimit="10" stroke-linejoin="miter" fill="none" stroke="#929292" d="M81.94017 82.46008H109.25357V61.78928"/>
<path transform="matrix(0,1.00002,1.00002,0,110.71713,84.167819)" d="M2.8892 0-1.73352 2.31136 0 0-1.73352-2.31136" fill="#929292"/>
<path transform="matrix(1.00002,0,0,-1.00002,1.4613705,145.95833)" stroke-width=".99628" stroke-linecap="butt" stroke-miterlimit="10" stroke-linejoin="miter" fill="none" stroke="#929292" d="M109.25357 58.90005H136.56697V38.22925"/>
<path transform="matrix(0,1.00002,1.00002,0,138.03107,107.72831)" d="M2.8892 0-1.73352 2.31136 0 0-1.73352-2.31136" fill="#929292"/>
<path transform="matrix(1.00002,0,0,-1.00002,1.4613705,145.95833)" stroke-width=".99628" stroke-linecap="butt" stroke-miterlimit="10" stroke-linejoin="miter" fill="none" stroke="#929292" d="M81.94017 82.46008H54.62679V103.1309"/>
<path transform="matrix(0,-1.00002,-1.00002,-0,56.089258,42.825365)" d="M2.8892 0-1.73352 2.31136 0 0-1.73352-2.31136" fill="#929292"/>
<path transform="matrix(1.00002,0,0,-1.00002,1.4613705,145.95833)" stroke-width=".99628" stroke-linecap="butt" stroke-miterlimit="10" stroke-linejoin="miter" fill="none" stroke="#929292" d="M54.62679 106.02011H27.31339V126.69092"/>
<path transform="matrix(0,-1.00002,-1.00002,-0,28.775309,19.26487)" d="M2.8892 0-1.73352 2.31136 0 0-1.73352-2.31136" fill="#929292"/>
</g>
<path transform="matrix(1.00002,0,0,-1.00002,1.4613705,145.95833)" d="M29.30594 129.58014C29.30594 130.6806 28.41386 131.5727 27.31339 131.5727 26.21292 131.5727 25.32083 130.6806 25.32083 129.58014 25.32083 128.47966 26.21292 127.58759 27.31339 127.58759 28.41386 127.58759 29.30594 128.47966 29.30594 129.58014ZM27.31339 129.58014" fill="#9e0c0f"/>
<path transform="matrix(1.00002,0,0,-1.00002,1.4613705,145.95833)" stroke-width=".3985" stroke-linecap="butt" stroke-miterlimit="10" stroke-linejoin="miter" fill="none" stroke="#9e0c0f" d="M29.30594 129.58014C29.30594 130.6806 28.41386 131.5727 27.31339 131.5727 26.21292 131.5727 25.32083 130.6806 25.32083 129.58014 25.32083 128.47966 26.21292 127.58759 27.31339 127.58759 28.41386 127.58759 29.30594 128.47966 29.30594 129.58014ZM27.31339 129.58014"/>
<path transform="matrix(1.00002,0,0,-1.00002,1.4613705,145.95833)" d="M56.61934 106.02011C56.61934 107.12057 55.72725 108.01266 54.62679 108.01266 53.5263 108.01266 52.63423 107.12057 52.63423 106.02011 52.63423 104.91963 53.5263 104.02756 54.62679 104.02756 55.72725 104.02756 56.61934 104.91963 56.61934 106.02011ZM54.62679 106.02011" fill="#9e0c0f"/>
<path transform="matrix(1.00002,0,0,-1.00002,1.4613705,145.95833)" stroke-width=".3985" stroke-linecap="butt" stroke-miterlimit="10" stroke-linejoin="miter" fill="none" stroke="#9e0c0f" d="M56.61934 106.02011C56.61934 107.12057 55.72725 108.01266 54.62679 108.01266 53.5263 108.01266 52.63423 107.12057 52.63423 106.02011 52.63423 104.91963 53.5263 104.02756 54.62679 104.02756 55.72725 104.02756 56.61934 104.91963 56.61934 106.02011ZM54.62679 106.02011"/>
<path transform="matrix(1.00002,0,0,-1.00002,1.4613705,145.95833)" d="M83.93272 82.46008C83.93272 83.56056 83.04065 84.45264 81.94017 84.45264 80.8397 84.45264 79.94762 83.56056 79.94762 82.46008 79.94762 81.35962 80.8397 80.46753 81.94017 80.46753 83.04065 80.46753 83.93272 81.35962 83.93272 82.46008ZM81.94017 82.46008" fill="#9e0c0f"/>
<path transform="matrix(1.00002,0,0,-1.00002,1.4613705,145.95833)" stroke-width=".3985" stroke-linecap="butt" stroke-miterlimit="10" stroke-linejoin="miter" fill="none" stroke="#9e0c0f" d="M83.93272 82.46008C83.93272 83.56056 83.04065 84.45264 81.94017 84.45264 80.8397 84.45264 79.94762 83.56056 79.94762 82.46008 79.94762 81.35962 80.8397 80.46753 81.94017 80.46753 83.04065 80.46753 83.93272 81.35962 83.93272 82.46008ZM81.94017 82.46008"/>
<path transform="matrix(1.00002,0,0,-1.00002,1.4613705,145.95833)" d="M111.24612 58.90005C111.24612 60.00053 110.35403 60.89261 109.25357 60.89261 108.1531 60.89261 107.26102 60.00053 107.26102 58.90005 107.26102 57.79959 108.1531 56.9075 109.25357 56.9075 110.35403 56.9075 111.24612 57.79959 111.24612 58.90005ZM109.25357 58.90005" fill="#9e0c0f"/>
<path transform="matrix(1.00002,0,0,-1.00002,1.4613705,145.95833)" stroke-width=".3985" stroke-linecap="butt" stroke-miterlimit="10" stroke-linejoin="miter" fill="none" stroke="#9e0c0f" d="M111.24612 58.90005C111.24612 60.00053 110.35403 60.89261 109.25357 60.89261 108.1531 60.89261 107.26102 60.00053 107.26102 58.90005 107.26102 57.79959 108.1531 56.9075 109.25357 56.9075 110.35403 56.9075 111.24612 57.79959 111.24612 58.90005ZM109.25357 58.90005"/>
<path transform="matrix(1.00002,0,0,-1.00002,1.4613705,145.95833)" d="M138.55953 35.34003C138.55953 36.4405 137.66744 37.33258 136.56697 37.33258 135.46649 37.33258 134.57442 36.4405 134.57442 35.34003 134.57442 34.23956 135.46649 33.34747 136.56697 33.34747 137.66744 33.34747 138.55953 34.23956 138.55953 35.34003ZM136.56697 35.34003" fill="#9e0c0f"/>
<path transform="matrix(1.00002,0,0,-1.00002,1.4613705,145.95833)" stroke-width=".3985" stroke-linecap="butt" stroke-miterlimit="10" stroke-linejoin="miter" fill="none" stroke="#9e0c0f" d="M138.55953 35.34003C138.55953 36.4405 137.66744 37.33258 136.56697 37.33258 135.46649 37.33258 134.57442 36.4405 134.57442 35.34003 134.57442 34.23956 135.46649 33.34747 136.56697 33.34747 137.66744 33.34747 138.55953 34.23956 138.55953 35.34003ZM136.56697 35.34003"/>
<path transform="matrix(1.00002,0,0,-1.00002,1.4613705,145.95833)" stroke-width=".3985" stroke-linecap="butt" stroke-miterlimit="10" stroke-linejoin="miter" fill="none" stroke="#9e0c0f" d=""/>
<use data-text="x" xlink:href="#font_4_1" transform="matrix(9.962799,0,0,-9.962799,156.13147,71.75684)"/>
<use data-text="y" xlink:href="#font_4_2" transform="matrix(9.962799,0,0,-9.962799,86.92308,12.404663)"/>
</svg>
