<svg xmlns="http://www.w3.org/2000/svg" xmlns:xlink="http://www.w3.org/1999/xlink" version="1.1" width="157" height="141" viewBox="0 0 157 141">
<defs>
<path id="font_1_1" d="M.69898989 .22743225C.71499636 .22743225 .7369995 .22743225 .7369995 .25042726 .7369995 .2734375 .71499636 .2734375 .69898989 .2734375H.12599182C.10998535 .2734375 .08799744 .2734375 .08799744 .25042726 .08799744 .22743225 .10998535 .22743225 .12599182 .22743225H.69898989Z"/>
<path id="font_2_1" d="M.28199769 .20405579C.2979889 .21907044 .33999635 .2520752 .35598756 .26608277 .41799928 .32312013 .47698976 .3781433 .47698976 .46917726 .47698976 .588089 .3769989 .66503909 .2519989 .66503909 .13198853 .66503909 .052993776 .57411196 .052993776 .48516847 .052993776 .4361725 .09199524 .4291687 .10598755 .4291687 .1269989 .4291687 .1579895 .4441681 .1579895 .48217774 .1579895 .5341797 .10798645 .5341797 .09599304 .5341797 .125 .6070709 .19198609 .6320343 .24099732 .6320343 .33399964 .6320343 .38198854 .55314639 .38198854 .46917726 .38198854 .36514283 .30899049 .28910829 .19099427 .16804505L.06498718 .037994386C.052993776 .026992798 .052993776 .024993897 .052993776 0H.44799806L.47698976 .17904663H.44599916C.44299317 .1590271 .43499757 .10900879 .4229889 .08999634 .4169922 .08198547 .34098817 .08198547 .32499696 .08198547H.14698792L.28199769 .20405579Z"/>
<path id="font_2_3" d="M.13798523 .33073426C.13798523 .41377259 .14498902 .4868164 .18099976 .54782107 .21099854 .5978241 .2619934 .6390381 .32499696 .6390381 .34498597 .6390381 .3909912 .63601687 .4139862 .60084536 .36898805 .5988312 .36499024 .5648346 .36499024 .553833 .36499024 .5238342 .3880005 .50683596 .4119873 .50683596 .42999269 .50683596 .45899964 .51782229 .45899964 .5558319 .45899964 .615921 .4139862 .66503909 .32398988 .66503909 .18499756 .66503909 .04399109 .53282168 .04399109 .31672669 .04399109 .045532228 .16999817-.021484375 .2669983-.021484375 .31498719-.021484375 .36698915-.0084991459 .4119873 .03453064 .45199586 .07354736 .48599244 .11558533 .48599244 .20263672 .48599244 .33372499 .3869934 .42578126 .27598573 .42578126 .20399475 .42578126 .16099549 .37976075 .13798523 .33073426M.2669983 .008514404C.21398926 .008514404 .18099976 .045532228 .1659851 .07354736 .14299011 .11859131 .14099121 .18663025 .14099121 .22465515 .14099121 .32373048 .19499207 .3977661 .27198792 .3977661 .32199098 .3977661 .35198976 .37176515 .37098695 .33673097 .3919983 .29971314 .3919983 .25468446 .3919983 .2036438 .3919983 .15260315 .3919983 .10858154 .37199403 .07255554 .34599305 .026519776 .31098939 .008514404 .2669983 .008514404Z"/>
<path id="font_2_2" d="M.3939972 .6468048C.3939972 .6667938 .3939972 .6748047 .37298585 .6748047 .3600006 .6748047 .35899354 .6737976 .34899903 .65979006L.02999878 .197052V.1640625H.31199647V.08100891C.31199647 .04399109 .30899049 .032989503 .23199463 .032989503H.20899964V0C.2939911 .0029907227 .29599 .0029907227 .35299684 .0029907227 .4099884 .0029907227 .4119873 .0029907227 .49699403 0V.032989503H.47399903C.39698792 .032989503 .3939972 .04399109 .3939972 .08100891V.1640625H.5V.197052H.3939972V.6468048M.31900025 .5658417V.197052H.06498718L.31900025 .5658417Z"/>
<clipPath id="clip_3">
<path transform="matrix(1.00008,0,0,-1,1.4614773,136.926)" d="M0 0H153.42748V132.33017H0Z"/>
</clipPath>
<path id="font_4_2" d="M.48599244 .38136292C.48999024 .39537049 .48999024 .39736939 .48999024 .40437318 .48999024 .42237855 .47599793 .43138124 .46099855 .43138124 .45098878 .43138124 .43499757 .42536927 .42599488 .41036988 .42399598 .405365 .41600038 .37435914 .4119873 .35635377 .40499879 .33035279 .397995 .30334474 .3919983 .27633668L.34700013 .09628296C.34298707 .08126831 .2999878 .011245728 .23399353 .011245728 .18299866 .011245728 .17199707 .055267335 .17199707 .0922699 .17199707 .1382904 .18899536 .20030213 .22299195 .28833009 .23899842 .3293457 .24299622 .3403473 .24299622 .36035157 .24299622 .405365 .21099854 .4423828 .16099549 .4423828 .06599426 .4423828 .0289917 .29733277 .0289917 .28833009 .0289917 .27833558 .038986207 .27833558 .040985109 .27833558 .050994874 .27833558 .051986696 .28033448 .056991579 .29634095 .083999637 .3903656 .12399292 .42037965 .1579895 .42037965 .1659851 .42037965 .18299866 .42037965 .18299866 .3883667 .18299866 .36335755 .17298889 .3373413 .1659851 .31834413 .12599182 .21231079 .10798645 .1552887 .10798645 .10827637 .10798645 .019256592 .17098999-.0107421879 .22999573-.0107421879 .2689972-.0107421879 .30299378 .0062561037 .33099366 .03425598 .31799317-.017745972 .30599977-.06674194 .2659912-.11973572 .23999024-.15385437 .20199585-.18309021 .1559906-.18309021 .14199829-.18309021 .09700012-.18005371 .07998657-.14074707 .09599304-.14074707 .10899353-.14074707 .12298584-.1287384 .1329956-.11973572 .14299011-.10673523 .14299011-.08773804 .14299011-.056747438 .115997318-.052734376 .10598755-.052734376 .08299255-.052734376 .049987794-.068740848 .049987794-.11773682 .049987794-.16796875 .09399414-.20507813 .1559906-.20507813 .25898744-.20507813 .3619995-.11373901 .3899994-.00074768069L.48599244 .38136292Z"/>
<path id="font_5_4" d="M.68699648 .32714845C.70199587 .32714845 .72099307 .32714845 .72099307 .34713746 .72099307 .36714173 .70199587 .36714173 .6879883 .36714173H.08898926C.07499695 .36714173 .055999757 .36714173 .055999757 .34713746 .055999757 .32714845 .07499695 .32714845 .08999634 .32714845H.68699648M.6879883 .13284302C.70199587 .13284302 .72099307 .13284302 .72099307 .15284729 .72099307 .17285156 .70199587 .17285156 .68699648 .17285156H.08999634C.07499695 .17285156 .055999757 .17285156 .055999757 .15284729 .055999757 .13284302 .07499695 .13284302 .08898926 .13284302H.6879883Z"/>
<path id="font_6_1" d="M.6589966 .23046875C.6759949 .23046875 .69400027 .23046875 .69400027 .25045777 .69400027 .27046205 .6759949 .27046205 .6589966 .27046205H.117996219C.100997928 .27046205 .08299255 .27046205 .08299255 .25045777 .08299255 .23046875 .100997928 .23046875 .117996219 .23046875H.6589966Z"/>
<path id="font_5_3" d="M.1269989 .07699585 .23298645 .18003845C.3889923 .31811524 .44898988 .3721466 .44898988 .47216798 .44898988 .5860901 .35899354 .6660156 .23699951 .6660156 .12399292 .6660156 .049987794 .57411196 .049987794 .48516847 .049987794 .4291687 .099990848 .4291687 .102996829 .4291687 .11999512 .4291687 .15499878 .44117738 .15499878 .48217774 .15499878 .5081787 .13699341 .5341797 .101989749 .5341797 .09399414 .5341797 .09199524 .5341797 .08898926 .5331726 .11199951 .59806826 .1659851 .63500979 .22399903 .63500979 .31498719 .63500979 .35798646 .5541382 .35798646 .47216798 .35798646 .39215089 .30799867 .31311036 .25299073 .25108338L.06098938 .036987306C.049987794 .025985718 .049987794 .023986817 .049987794 0H.42099L.44898988 .17404175H.42399598C.4189911 .14402771 .4119873 .1000061 .4019928 .084991458 .394989 .07699585 .32899476 .07699585 .30699159 .07699585H.1269989Z"/>
<path id="font_4_1" d="M.33399964 .30233766C.33999635 .32835389 .36299134 .42037965 .43299867 .42037965 .43798829 .42037965 .46199037 .42037965 .48298646 .40734864 .45498658 .402359 .43499757 .37734986 .43499757 .35334779 .43499757 .33735658 .44599916 .31835938 .47299195 .31835938 .49499513 .31835938 .5269928 .3363495 .5269928 .37635804 .5269928 .42837525 .46798707 .4423828 .43399049 .4423828 .37599183 .4423828 .34098817 .38935853 .32899476 .36634828 .3039856 .43237306 .25 .4423828 .22099304 .4423828 .116989139 .4423828 .05999756 .3133545 .05999756 .28834535 .05999756 .27833558 .069992069 .27833558 .07199097 .27833558 .07998657 .27833558 .08299255 .28033448 .084991458 .28933717 .11898804 .39535523 .18499756 .42037965 .21899414 .42037965 .23799134 .42037965 .272995 .4113617 .272995 .35334779 .272995 .32235719 .2559967 .25532533 .21899414 .11528015 .20298767 .053268434 .16799927 .011245728 .12399292 .011245728 .117996219 .011245728 .09498596 .011245728 .07398987 .024276734 .09899902 .029266358 .12098694 .05027771 .12098694 .07827759 .12098694 .105270389 .09899902 .11328125 .083999637 .11328125 .053985597 .11328125 .0289917 .08728027 .0289917 .055267335 .0289917 .009246826 .07899475-.0107421879 .12298584-.0107421879 .18899536-.0107421879 .22499085 .059280397 .22799683 .0652771 .23999024 .028274537 .27598573-.0107421879 .33599855-.0107421879 .43899537-.0107421879 .49598695 .118270877 .49598695 .14328003 .49598695 .1532898 .4869995 .1532898 .48399354 .1532898 .47499085 .1532898 .47299195 .14929199 .47099305 .14228821 .43798829 .03527832 .36999513 .011245728 .33799745 .011245728 .29899598 .011245728 .2829895 .043273927 .2829895 .07727051 .2829895 .09927368 .2889862 .121276859 .2999878 .16529846L.33399964 .30233766Z"/>
<path id="font_5_1" d="M.40899659 .23046875H.6879883C.70199587 .23046875 .72099307 .23046875 .72099307 .25045777 .72099307 .27046205 .70199587 .27046205 .6879883 .27046205H.40899659V.5500183C.40899659 .56399539 .40899659 .5830078 .3889923 .5830078 .36898805 .5830078 .36898805 .56399539 .36898805 .5500183V.27046205H.08898926C.07499695 .27046205 .055999757 .27046205 .055999757 .25045777 .055999757 .23046875 .07499695 .23046875 .08898926 .23046875H.36898805V-.05000305C.36898805-.06401062 .36898805-.08300781 .3889923-.08300781 .40899659-.08300781 .40899659-.06401062 .40899659-.05000305V.23046875Z"/>
<path id="font_5_2" d="M.2939911 .64004519C.2939911 .66400149 .2939911 .6660156 .2709961 .6660156 .20899964 .60227969 .12098694 .60227969 .08898926 .60227969V.57128909C.10899353 .57128909 .16799927 .57128909 .21998596 .5972748V.07902527C.21998596 .042999269 .21699524 .0309906 .1269989 .0309906H.09498596V0C.12998963 .0029907227 .21699524 .0029907227 .25698854 .0029907227 .29699708 .0029907227 .38398744 .0029907227 .4189911 0V.0309906H.3869934C.29699708 .0309906 .2939911 .041992189 .2939911 .07902527V.64004519Z"/>
</defs>
<path transform="matrix(1.00008,0,0,-1,1.4614773,136.926)" d="M0 0H153.42748V132.33017H0Z" fill="#fffac2"/>
<path transform="matrix(1.00008,0,0,-1,1.4614773,136.926)" stroke-width=".3985" stroke-linecap="butt" stroke-miterlimit="10" stroke-linejoin="miter" fill="none" stroke="#d5d6d5" d="M0 0V132.33017M25.57124 0V132.33017M51.14249 0V132.33017M76.71373 0V132.33017M102.28499 0V132.33017M127.85623 0V132.33017M153.42748 0V132.33017"/>
<path transform="matrix(1.00008,0,0,-1,1.4614773,136.926)" stroke-width=".3985" stroke-linecap="butt" stroke-miterlimit="10" stroke-linejoin="miter" fill="none" stroke="#d5d6d5" d="M25.57124 0V132.33017M127.85623 0V132.33017"/>
<path transform="matrix(1.00008,0,0,-1,1.4614773,136.926)" stroke-width=".3985" stroke-linecap="butt" stroke-miterlimit="10" stroke-linejoin="miter" fill="none" stroke="#d5d6d5" d="M0 0H153.42748M0 11.02751H153.42748M0 22.05502H153.42748M0 33.08253H153.42748M0 44.11005H153.42748M0 55.13757H153.42748M0 66.16508H153.42748M0 77.1926H153.42748M0 88.22011H153.42748M0 99.24763H153.42748M0 110.27515H153.42748M0 121.30266H153.42748M0 132.33017H153.42748"/>
<path transform="matrix(1.00008,0,0,-1,1.4614773,136.926)" stroke-width=".3985" stroke-linecap="butt" stroke-miterlimit="10" stroke-linejoin="miter" fill="none" stroke="#d5d6d5" d="M0 0H153.42748M0 22.05502H153.42748M0 44.11005H153.42748M0 88.22011H153.42748M0 110.27515H153.42748M0 132.33017H153.42748"/>
<path transform="matrix(1.00008,0,0,-1,1.4614773,136.926)" stroke-width=".19925" stroke-linecap="butt" stroke-miterlimit="10" stroke-linejoin="miter" fill="none" stroke="#929292" d="M0 64.7477V67.58247M25.57124 64.7477V67.58247M51.14249 64.7477V67.58247M76.71373 64.7477V67.58247M102.28499 64.7477V67.58247M127.85623 64.7477V67.58247M153.42748 64.7477V67.58247"/>
<path transform="matrix(1.00008,0,0,-1,1.4614773,136.926)" stroke-width=".19925" stroke-linecap="butt" stroke-miterlimit="10" stroke-linejoin="miter" fill="none" stroke="#929292" d="M25.57124 64.03923V68.29092M127.85623 64.03923V68.29092"/>
<path transform="matrix(1.00008,0,0,-1,1.4614773,136.926)" stroke-width=".19925" stroke-linecap="butt" stroke-miterlimit="10" stroke-linejoin="miter" fill="none" stroke="#929292" d="M75.29636 0H78.13112M75.29636 11.02751H78.13112M75.29636 22.05502H78.13112M75.29636 33.08253H78.13112M75.29636 44.11005H78.13112M75.29636 55.13757H78.13112M75.29636 66.16508H78.13112M75.29636 77.1926H78.13112M75.29636 88.22011H78.13112M75.29636 99.24763H78.13112M75.29636 110.27515H78.13112M75.29636 121.30266H78.13112M75.29636 132.33017H78.13112"/>
<path transform="matrix(1.00008,0,0,-1,1.4614773,136.926)" stroke-width=".19925" stroke-linecap="butt" stroke-miterlimit="10" stroke-linejoin="miter" fill="none" stroke="#929292" d="M74.58786 0H78.8396M74.58786 22.05502H78.8396M74.58786 44.11005H78.8396M74.58786 88.22011H78.8396M74.58786 110.27515H78.8396M74.58786 132.33017H78.8396"/>
<path transform="matrix(1.00008,0,0,-1,1.4614773,136.926)" stroke-width=".3985" stroke-linecap="butt" stroke-miterlimit="10" stroke-linejoin="miter" fill="none" stroke="#000000" d="M1.99252 66.16508H151.43495"/>
<path transform="matrix(-1.00008,-0,0,1,3.4541567,70.76092)" d="M1.99252 0-1.19551 1.59401 0 0-1.19551-1.59401"/>
<path transform="matrix(1.00008,0,0,-1,152.90854,70.76092)" d="M1.99252 0-1.19551 1.59401 0 0-1.19551-1.59401"/>
<path transform="matrix(1.00008,0,0,-1,1.4614773,136.926)" stroke-width=".3985" stroke-linecap="butt" stroke-miterlimit="10" stroke-linejoin="miter" fill="none" stroke="#000000" d="M76.71373 1.99252V130.33765"/>
<path transform="matrix(0,1,1.00008,0,78.18134,134.93347)" d="M1.99252 0-1.19551 1.59401 0 0-1.19551-1.59401"/>
<path transform="matrix(0,-1,-1.00008,-0,78.18134,6.5883486)" d="M1.99252 0-1.19551 1.59401 0 0-1.19551-1.59401"/>
<use data-text="&#x2212;" xlink:href="#font_1_1" transform="matrix(7.9707376,0,0,-7.9701,21.62409,81.543)"/>
<use data-text="2" xlink:href="#font_2_1" transform="matrix(7.9707376,0,0,-7.9701,28.211617,81.543)"/>
<use data-text="2" xlink:href="#font_2_1" transform="matrix(7.9707376,0,0,-7.9701,127.21053,81.543)"/>
<use data-text="&#x2212;" xlink:href="#font_1_1" transform="matrix(7.9707376,0,0,-7.9701,63.604448,139.079)"/>
<use data-text="6" xlink:href="#font_2_3" transform="matrix(7.9707376,0,0,-7.9701,70.19197,139.079)"/>
<use data-text="&#x2212;" xlink:href="#font_1_1" transform="matrix(7.9707376,0,0,-7.9701,63.604448,117.023998)"/>
<use data-text="4" xlink:href="#font_2_2" transform="matrix(7.9707376,0,0,-7.9701,70.19197,117.023998)"/>
<use data-text="&#x2212;" xlink:href="#font_1_1" transform="matrix(7.9707376,0,0,-7.9701,63.604448,94.968997)"/>
<use data-text="2" xlink:href="#font_2_1" transform="matrix(7.9707376,0,0,-7.9701,70.19197,94.968997)"/>
<use data-text="2" xlink:href="#font_2_1" transform="matrix(7.9707376,0,0,-7.9701,70.19198,51.273996)"/>
<use data-text="4" xlink:href="#font_2_2" transform="matrix(7.9707376,0,0,-7.9701,70.19198,29.218995)"/>
<use data-text="6" xlink:href="#font_2_3" transform="matrix(7.9707376,0,0,-7.9701,70.19198,7.1640017)"/>
<g clip-path="url(#clip_3)">
<path transform="matrix(1.00008,0,0,-1,1.4614773,136.926)" stroke-width=".99628" stroke-linecap="butt" stroke-miterlimit="10" stroke-linejoin="miter" fill="none" stroke="#9e0c0f" d="M19.04175 126.9342 18.64568 127.27591 24.50574 122.22165 30.3658 117.16737 36.22585 112.11311 42.0859 107.05887 47.94597 102.0046 53.80603 96.95033 59.66609 91.89607 65.52614 86.84181 71.3862 81.78755 77.24626 76.73329 83.10632 71.67902 88.96638 66.62476 94.82643 61.5705 100.6865 56.51624 106.54655 51.46198 112.40662 46.40773 118.26668 41.35344 124.12672 36.29918 129.9868 31.24492 135.84687 26.19067 141.70693 21.13641 147.56699 16.08212 147.17092 16.42372"/>
<path transform="matrix(-.7572805,-.6531,-.6531522,.75722,21.038243,10.451904)" d="M7.39124 0 2.37614 1.6717 .70447 0 2.37614-1.6717Z" fill="#9e0c0f"/>
<path transform="matrix(-.7572805,-.6531,-.6531522,.75722,21.038243,10.451904)" stroke-width=".99628" stroke-linecap="butt" stroke-miterlimit="10" stroke-linejoin="miter" fill="none" stroke="#9e0c0f" d="M7.39124 0 2.37614 1.6717 .70447 0 2.37614-1.6717Z"/>
<path transform="matrix(.7572805,.65309,.6531422,-.75722,148.11066,120.04219)" d="M7.39124 0 2.37614 1.6717 .70447 0 2.37614-1.6717Z" fill="#9e0c0f"/>
<path transform="matrix(.7572805,.65309,.6531422,-.75722,148.11066,120.04219)" stroke-width=".99628" stroke-linecap="butt" stroke-miterlimit="10" stroke-linejoin="miter" fill="none" stroke="#9e0c0f" d="M7.39124 0 2.37614 1.6717 .70447 0 2.37614-1.6717Z"/>
<use data-text="y" xlink:href="#font_4_2" transform="matrix(7.5444829,6.506574,6.5070946,-7.5438797,32.683366,12.893959)" fill="#9e0c0f"/>
<use data-text="=" xlink:href="#font_5_4" transform="matrix(7.5444829,6.506574,6.5070946,-7.5438797,38.74843,18.124627)" fill="#9e0c0f"/>
<use data-text="&#x2212;" xlink:href="#font_6_1" transform="matrix(7.5444829,6.506574,6.5070946,-7.5438797,46.71199,24.992623)" fill="#9e0c0f"/>
<use data-text="2" xlink:href="#font_5_3" transform="matrix(7.5444829,6.506574,6.5070946,-7.5438797,52.580156,30.053505)" fill="#9e0c0f"/>
<use data-text="x" xlink:href="#font_4_1" transform="matrix(7.5444829,6.506574,6.5070946,-7.5438797,56.35217,33.306589)" fill="#9e0c0f"/>
<use data-text="+" xlink:href="#font_5_1" transform="matrix(7.5444829,6.506574,6.5070946,-7.5438797,62.340745,38.471307)" fill="#9e0c0f"/>
<use data-text="1" xlink:href="#font_5_2" transform="matrix(7.5444829,6.506574,6.5070946,-7.5438797,69.877689,44.971384)" fill="#9e0c0f"/>
</g>
<path transform="matrix(1.00008,0,0,-1,1.4614773,136.926)" d="M27.5638 121.30266C27.5638 122.40314 26.6717 123.29521 25.57124 123.29521 24.47076 123.29521 23.57869 122.40314 23.57869 121.30266 23.57869 120.2022 24.47076 119.3101 25.57124 119.3101 26.6717 119.3101 27.5638 120.2022 27.5638 121.30266ZM25.57124 121.30266" fill="#9e0c0f"/>
<path transform="matrix(1.00008,0,0,-1,1.4614773,136.926)" stroke-width=".3985" stroke-linecap="butt" stroke-miterlimit="10" stroke-linejoin="miter" fill="none" stroke="#9e0c0f" d="M27.5638 121.30266C27.5638 122.40314 26.6717 123.29521 25.57124 123.29521 24.47076 123.29521 23.57869 122.40314 23.57869 121.30266 23.57869 120.2022 24.47076 119.3101 25.57124 119.3101 26.6717 119.3101 27.5638 120.2022 27.5638 121.30266ZM25.57124 121.30266"/>
<path transform="matrix(1.00008,0,0,-1,1.4614773,136.926)" d="M53.13504 99.24763C53.13504 100.3481 52.24297 101.24019 51.14249 101.24019 50.04202 101.24019 49.14993 100.3481 49.14993 99.24763 49.14993 98.14716 50.04202 97.25508 51.14249 97.25508 52.24297 97.25508 53.13504 98.14716 53.13504 99.24763ZM51.14249 99.24763" fill="#9e0c0f"/>
<path transform="matrix(1.00008,0,0,-1,1.4614773,136.926)" stroke-width=".3985" stroke-linecap="butt" stroke-miterlimit="10" stroke-linejoin="miter" fill="none" stroke="#9e0c0f" d="M53.13504 99.24763C53.13504 100.3481 52.24297 101.24019 51.14249 101.24019 50.04202 101.24019 49.14993 100.3481 49.14993 99.24763 49.14993 98.14716 50.04202 97.25508 51.14249 97.25508 52.24297 97.25508 53.13504 98.14716 53.13504 99.24763ZM51.14249 99.24763"/>
<path transform="matrix(1.00008,0,0,-1,1.4614773,136.926)" d="M78.70628 77.1926C78.70628 78.29308 77.81421 79.18515 76.71373 79.18515 75.61327 79.18515 74.72118 78.29308 74.72118 77.1926 74.72118 76.09213 75.61327 75.20004 76.71373 75.20004 77.81421 75.20004 78.70628 76.09213 78.70628 77.1926ZM76.71373 77.1926" fill="#9e0c0f"/>
<path transform="matrix(1.00008,0,0,-1,1.4614773,136.926)" stroke-width=".3985" stroke-linecap="butt" stroke-miterlimit="10" stroke-linejoin="miter" fill="none" stroke="#9e0c0f" d="M78.70628 77.1926C78.70628 78.29308 77.81421 79.18515 76.71373 79.18515 75.61327 79.18515 74.72118 78.29308 74.72118 77.1926 74.72118 76.09213 75.61327 75.20004 76.71373 75.20004 77.81421 75.20004 78.70628 76.09213 78.70628 77.1926ZM76.71373 77.1926"/>
<path transform="matrix(1.00008,0,0,-1,1.4614773,136.926)" d="M104.27754 55.13757C104.27754 56.23804 103.38545 57.13013 102.28499 57.13013 101.18451 57.13013 100.29243 56.23804 100.29243 55.13757 100.29243 54.0371 101.18451 53.14502 102.28499 53.14502 103.38545 53.14502 104.27754 54.0371 104.27754 55.13757ZM102.28499 55.13757" fill="#9e0c0f"/>
<path transform="matrix(1.00008,0,0,-1,1.4614773,136.926)" stroke-width=".3985" stroke-linecap="butt" stroke-miterlimit="10" stroke-linejoin="miter" fill="none" stroke="#9e0c0f" d="M104.27754 55.13757C104.27754 56.23804 103.38545 57.13013 102.28499 57.13013 101.18451 57.13013 100.29243 56.23804 100.29243 55.13757 100.29243 54.0371 101.18451 53.14502 102.28499 53.14502 103.38545 53.14502 104.27754 54.0371 104.27754 55.13757ZM102.28499 55.13757"/>
<path transform="matrix(1.00008,0,0,-1,1.4614773,136.926)" d="M129.84879 33.08253C129.84879 34.18301 128.9567 35.07509 127.85623 35.07509 126.75577 35.07509 125.86368 34.18301 125.86368 33.08253 125.86368 31.98207 126.75577 31.08998 127.85623 31.08998 128.9567 31.08998 129.84879 31.98207 129.84879 33.08253ZM127.85623 33.08253" fill="#9e0c0f"/>
<path transform="matrix(1.00008,0,0,-1,1.4614773,136.926)" stroke-width=".3985" stroke-linecap="butt" stroke-miterlimit="10" stroke-linejoin="miter" fill="none" stroke="#9e0c0f" d="M129.84879 33.08253C129.84879 34.18301 128.9567 35.07509 127.85623 35.07509 126.75577 35.07509 125.86368 34.18301 125.86368 33.08253 125.86368 31.98207 126.75577 31.08998 127.85623 31.08998 128.9567 31.08998 129.84879 31.98207 129.84879 33.08253ZM127.85623 33.08253"/>
<path transform="matrix(1.00008,0,0,-1,1.4614773,136.926)" stroke-width=".3985" stroke-linecap="butt" stroke-miterlimit="10" stroke-linejoin="miter" fill="none" stroke="#9e0c0f" d=""/>
<use data-text="x" xlink:href="#font_4_1" transform="matrix(9.963397,0,0,-9.9626,145.68703,67.241)"/>
<use data-text="y" xlink:href="#font_4_2" transform="matrix(9.963397,0,0,-9.9626,81.7019,12.404999)"/>
</svg>
