<svg xmlns="http://www.w3.org/2000/svg" xmlns:xlink="http://www.w3.org/1999/xlink" version="1.1" width="173" height="145" viewBox="0 0 173 145">
<defs>
<path id="font_1_1" d="M.69898989 .22743225C.71499636 .22743225 .7369995 .22743225 .7369995 .25042726 .7369995 .2734375 .71499636 .2734375 .69898989 .2734375H.12599182C.10998535 .2734375 .08799744 .2734375 .08799744 .25042726 .08799744 .22743225 .10998535 .22743225 .12599182 .22743225H.69898989Z"/>
<path id="font_2_2" d="M.3939972 .6468048C.3939972 .6667938 .3939972 .6748047 .37298585 .6748047 .3600006 .6748047 .35899354 .6737976 .34899903 .65979006L.02999878 .197052V.1640625H.31199647V.08100891C.31199647 .04399109 .30899049 .032989503 .23199463 .032989503H.20899964V0C.2939911 .0029907227 .29599 .0029907227 .35299684 .0029907227 .4099884 .0029907227 .4119873 .0029907227 .49699403 0V.032989503H.47399903C.39698792 .032989503 .3939972 .04399109 .3939972 .08100891V.1640625H.5V.197052H.3939972V.6468048M.31900025 .5658417V.197052H.06498718L.31900025 .5658417Z"/>
<path id="font_2_1" d="M.28199769 .20405579C.2979889 .21907044 .33999635 .2520752 .35598756 .26608277 .41799928 .32312013 .47698976 .3781433 .47698976 .46917726 .47698976 .588089 .3769989 .66503909 .2519989 .66503909 .13198853 .66503909 .052993776 .57411196 .052993776 .48516847 .052993776 .4361725 .09199524 .4291687 .10598755 .4291687 .1269989 .4291687 .1579895 .4441681 .1579895 .48217774 .1579895 .5341797 .10798645 .5341797 .09599304 .5341797 .125 .6070709 .19198609 .6320343 .24099732 .6320343 .33399964 .6320343 .38198854 .55314639 .38198854 .46917726 .38198854 .36514283 .30899049 .28910829 .19099427 .16804505L.06498718 .037994386C.052993776 .026992798 .052993776 .024993897 .052993776 0H.44799806L.47698976 .17904663H.44599916C.44299317 .1590271 .43499757 .10900879 .4229889 .08999634 .4169922 .08198547 .34098817 .08198547 .32499696 .08198547H.14698792L.28199769 .20405579Z"/>
<clipPath id="clip_3">
<path transform="matrix(1.00005,0,0,-1.00009,5.9923498,143.16069)" d="M0 0H163.87732V141.35103H0Z"/>
</clipPath>
<path id="font_4_3" d="M.48599244 .38136292C.48999024 .39537049 .48999024 .39736939 .48999024 .40437318 .48999024 .42237855 .47599793 .43138124 .46099855 .43138124 .45098878 .43138124 .43499757 .42536927 .42599488 .41036988 .42399598 .405365 .41600038 .37435914 .4119873 .35635377 .40499879 .33035279 .397995 .30334474 .3919983 .27633668L.34700013 .09628296C.34298707 .08126831 .2999878 .011245728 .23399353 .011245728 .18299866 .011245728 .17199707 .055267335 .17199707 .0922699 .17199707 .1382904 .18899536 .20030213 .22299195 .28833009 .23899842 .3293457 .24299622 .3403473 .24299622 .36035157 .24299622 .405365 .21099854 .4423828 .16099549 .4423828 .06599426 .4423828 .0289917 .29733277 .0289917 .28833009 .0289917 .27833558 .038986207 .27833558 .040985109 .27833558 .050994874 .27833558 .051986696 .28033448 .056991579 .29634095 .083999637 .3903656 .12399292 .42037965 .1579895 .42037965 .1659851 .42037965 .18299866 .42037965 .18299866 .3883667 .18299866 .36335755 .17298889 .3373413 .1659851 .31834413 .12599182 .21231079 .10798645 .1552887 .10798645 .10827637 .10798645 .019256592 .17098999-.0107421879 .22999573-.0107421879 .2689972-.0107421879 .30299378 .0062561037 .33099366 .03425598 .31799317-.017745972 .30599977-.06674194 .2659912-.11973572 .23999024-.15385437 .20199585-.18309021 .1559906-.18309021 .14199829-.18309021 .09700012-.18005371 .07998657-.14074707 .09599304-.14074707 .10899353-.14074707 .12298584-.1287384 .1329956-.11973572 .14299011-.10673523 .14299011-.08773804 .14299011-.056747438 .115997318-.052734376 .10598755-.052734376 .08299255-.052734376 .049987794-.068740848 .049987794-.11773682 .049987794-.16796875 .09399414-.20507813 .1559906-.20507813 .25898744-.20507813 .3619995-.11373901 .3899994-.00074768069L.48599244 .38136292Z"/>
<path id="font_5_6" d="M.68699648 .32714845C.70199587 .32714845 .72099307 .32714845 .72099307 .34713746 .72099307 .36714173 .70199587 .36714173 .6879883 .36714173H.08898926C.07499695 .36714173 .055999757 .36714173 .055999757 .34713746 .055999757 .32714845 .07499695 .32714845 .08999634 .32714845H.68699648M.6879883 .13284302C.70199587 .13284302 .72099307 .13284302 .72099307 .15284729 .72099307 .17285156 .70199587 .17285156 .68699648 .17285156H.08999634C.07499695 .17285156 .055999757 .17285156 .055999757 .15284729 .055999757 .13284302 .07499695 .13284302 .08898926 .13284302H.6879883Z"/>
<path id="font_5_5" d="M.1269989 .07699585 .23298645 .18003845C.3889923 .31811524 .44898988 .3721466 .44898988 .47216798 .44898988 .5860901 .35899354 .6660156 .23699951 .6660156 .12399292 .6660156 .049987794 .57411196 .049987794 .48516847 .049987794 .4291687 .099990848 .4291687 .102996829 .4291687 .11999512 .4291687 .15499878 .44117738 .15499878 .48217774 .15499878 .5081787 .13699341 .5341797 .101989749 .5341797 .09399414 .5341797 .09199524 .5341797 .08898926 .5331726 .11199951 .59806826 .1659851 .63500979 .22399903 .63500979 .31498719 .63500979 .35798646 .5541382 .35798646 .47216798 .35798646 .39215089 .30799867 .31311036 .25299073 .25108338L.06098938 .036987306C.049987794 .025985718 .049987794 .023986817 .049987794 0H.42099L.44898988 .17404175H.42399598C.4189911 .14402771 .4119873 .1000061 .4019928 .084991458 .394989 .07699585 .32899476 .07699585 .30699159 .07699585H.1269989Z"/>
<path id="font_5_1" d="M.33099366-.2400055C.33099366-.23701477 .33099366-.23500061 .31399537-.21800232 .18899536-.0920105 .15699768 .09700012 .15699768 .25 .15699768 .42399598 .19499207 .59799197 .31799317 .72299197 .33099366 .73498538 .33099366 .7369995 .33099366 .73999026 .33099366 .746994 .32699586 .75 .32099916 .75 .31098939 .75 .22099304 .6819916 .1619873 .5549927 .11099243 .44499208 .09899902 .33399964 .09899902 .25 .09899902 .17199707 .10998535 .050994874 .16499329-.06201172 .22499085-.18501282 .31098939-.25 .32099916-.25 .32699586-.25 .33099366-.24700928 .33099366-.2400055Z"/>
<path id="font_5_3" d="M.45999146 .31976319C.45999146 .39982606 .45498658 .47988893 .41999818 .5539398 .37399293 .65000918 .2919922 .6660156 .25 .6660156 .18998719 .6660156 .116989139 .64001467 .07598877 .54693606 .04399109 .47789 .038986207 .39982606 .038986207 .31976319 .038986207 .24472046 .042999269 .15464783 .083999637 .07859802 .1269989-.0024719239 .19999695-.022460938 .24899292-.022460938 .30299378-.022460938 .3789978-.0014648438 .4229889 .09359741 .45498658 .16265869 .45999146 .2407074 .45999146 .31976319M.24899292-.00047302247C.20999146-.00047302247 .15098572 .024551392 .1329956 .12062073 .12199402 .18066406 .12199402 .2727356 .12199402 .3317871 .12199402 .39582826 .12199402 .46188355 .12998963 .5159149 .14898682 .63500979 .22399903 .64401248 .24899292 .64401248 .28199769 .64401248 .34799195 .6259918 .36698915 .52693179 .3769989 .47088624 .3769989 .39482118 .3769989 .3317871 .3769989 .25672914 .3769989 .18867493 .3659973 .12461853 .35099793 .029556275 .2939911-.00047302247 .24899292-.00047302247Z"/>
<path id="font_4_1" d="M.20298767 .0009918213C.20298767 .066986087 .17799378 .10598755 .13899231 .10598755 .10598755 .10598755 .085998538 .08099365 .085998538 .052993776 .085998538 .025985718 .10598755 0 .13899231 0 .15098572 0 .1639862 .0039978029 .17399597 .0129852299 .1769867 .01499939 .17799378 .015991211 .1789856 .015991211 .17999268 .015991211 .18099976 .01499939 .18099976 .0009918213 .18099976-.07316589 .1459961-.13328552 .11299133-.16635132 .101989749-.17736817 .101989749-.17936707 .101989749-.18237305 .101989749-.18936157 .10699463-.19335938 .11199951-.19335938 .12298584-.19335938 .20298767-.116256717 .20298767 .0009918213Z"/>
<path id="font_5_2" d="M.2889862 .25C.2889862 .32798768 .27799989 .44898988 .22299195 .56199648 .16299439 .68499758 .07699585 .75 .066986087 .75 .06098938 .75 .056991579 .74598696 .056991579 .73999026 .056991579 .7369995 .056991579 .73498538 .07598877 .71699526 .17399597 .6179962 .23098755 .45899964 .23098755 .25 .23098755 .07899475 .19400025-.09700012 .069992069-.2230072 .056991579-.23500061 .056991579-.23701477 .056991579-.2400055 .056991579-.2460022 .06098938-.25 .066986087-.25 .07699585-.25 .16699219-.18200684 .22599793-.055007936 .2769928 .054992677 .2889862 .16600037 .2889862 .25Z"/>
<path id="font_5_4" d="M.2939911 .64004519C.2939911 .66400149 .2939911 .6660156 .2709961 .6660156 .20899964 .60227969 .12098694 .60227969 .08898926 .60227969V.57128909C.10899353 .57128909 .16799927 .57128909 .21998596 .5972748V.07902527C.21998596 .042999269 .21699524 .0309906 .1269989 .0309906H.09498596V0C.12998963 .0029907227 .21699524 .0029907227 .25698854 .0029907227 .29699708 .0029907227 .38398744 .0029907227 .4189911 0V.0309906H.3869934C.29699708 .0309906 .2939911 .041992189 .2939911 .07902527V.64004519Z"/>
<path id="font_4_2" d="M.33399964 .30233766C.33999635 .32835389 .36299134 .42037965 .43299867 .42037965 .43798829 .42037965 .46199037 .42037965 .48298646 .40734864 .45498658 .402359 .43499757 .37734986 .43499757 .35334779 .43499757 .33735658 .44599916 .31835938 .47299195 .31835938 .49499513 .31835938 .5269928 .3363495 .5269928 .37635804 .5269928 .42837525 .46798707 .4423828 .43399049 .4423828 .37599183 .4423828 .34098817 .38935853 .32899476 .36634828 .3039856 .43237306 .25 .4423828 .22099304 .4423828 .116989139 .4423828 .05999756 .3133545 .05999756 .28834535 .05999756 .27833558 .069992069 .27833558 .07199097 .27833558 .07998657 .27833558 .08299255 .28033448 .084991458 .28933717 .11898804 .39535523 .18499756 .42037965 .21899414 .42037965 .23799134 .42037965 .272995 .4113617 .272995 .35334779 .272995 .32235719 .2559967 .25532533 .21899414 .11528015 .20298767 .053268434 .16799927 .011245728 .12399292 .011245728 .117996219 .011245728 .09498596 .011245728 .07398987 .024276734 .09899902 .029266358 .12098694 .05027771 .12098694 .07827759 .12098694 .105270389 .09899902 .11328125 .083999637 .11328125 .053985597 .11328125 .0289917 .08728027 .0289917 .055267335 .0289917 .009246826 .07899475-.0107421879 .12298584-.0107421879 .18899536-.0107421879 .22499085 .059280397 .22799683 .0652771 .23999024 .028274537 .27598573-.0107421879 .33599855-.0107421879 .43899537-.0107421879 .49598695 .118270877 .49598695 .14328003 .49598695 .1532898 .4869995 .1532898 .48399354 .1532898 .47499085 .1532898 .47299195 .14929199 .47099305 .14228821 .43798829 .03527832 .36999513 .011245728 .33799745 .011245728 .29899598 .011245728 .2829895 .043273927 .2829895 .07727051 .2829895 .09927368 .2889862 .121276859 .2999878 .16529846L.33399964 .30233766Z"/>
</defs>
<path transform="matrix(1.00005,0,0,-1.00009,5.9923498,143.16069)" d="M0 0H163.87732V141.35103H0Z" fill="#fffac2"/>
<path transform="matrix(1.00005,0,0,-1.00009,5.9923498,143.16069)" stroke-width=".3985" stroke-linecap="butt" stroke-miterlimit="10" stroke-linejoin="miter" fill="none" stroke="#d5d6d5" d="M0 0V141.35103M20.48466 0V141.35103M40.96933 0V141.35103M61.454 0V141.35103M81.93866 0V141.35103M102.42332 0V141.35103M122.90799 0V141.35103M143.39266 0V141.35103M163.87732 0V141.35103"/>
<path transform="matrix(1.00005,0,0,-1.00009,5.9923498,143.16069)" stroke-width=".3985" stroke-linecap="butt" stroke-miterlimit="10" stroke-linejoin="miter" fill="none" stroke="#d5d6d5" d="M0 0V141.35103M40.96933 0V141.35103M122.90799 0V141.35103M163.87732 0V141.35103"/>
<path transform="matrix(1.00005,0,0,-1.00009,5.9923498,143.16069)" stroke-width=".3985" stroke-linecap="butt" stroke-miterlimit="10" stroke-linejoin="miter" fill="none" stroke="#d5d6d5" d="M0 0H163.87732M0 23.5585H163.87732M0 47.117H163.87732M0 70.6755H163.87732M0 94.23401H163.87732M0 117.79253H163.87732M0 141.35103H163.87732"/>
<path transform="matrix(1.00005,0,0,-1.00009,5.9923498,143.16069)" stroke-width=".3985" stroke-linecap="butt" stroke-miterlimit="10" stroke-linejoin="miter" fill="none" stroke="#d5d6d5" d="M0 23.5585H163.87732M0 117.79253H163.87732"/>
<path transform="matrix(1.00005,0,0,-1.00009,5.9923498,143.16069)" stroke-width=".19925" stroke-linecap="butt" stroke-miterlimit="10" stroke-linejoin="miter" fill="none" stroke="#929292" d="M0 69.25813V72.09288M20.48466 69.25813V72.09288M40.96933 69.25813V72.09288M61.454 69.25813V72.09288M81.93866 69.25813V72.09288M102.42332 69.25813V72.09288M122.90799 69.25813V72.09288M143.39266 69.25813V72.09288M163.87732 69.25813V72.09288"/>
<path transform="matrix(1.00005,0,0,-1.00009,5.9923498,143.16069)" stroke-width=".19925" stroke-linecap="butt" stroke-miterlimit="10" stroke-linejoin="miter" fill="none" stroke="#929292" d="M0 68.54965V72.80136M40.96933 68.54965V72.80136M122.90799 68.54965V72.80136M163.87732 68.54965V72.80136"/>
<path transform="matrix(1.00005,0,0,-1.00009,5.9923498,143.16069)" stroke-width=".19925" stroke-linecap="butt" stroke-miterlimit="10" stroke-linejoin="miter" fill="none" stroke="#929292" d="M80.52124 0H83.35608M80.52124 23.5585H83.35608M80.52124 47.117H83.35608M80.52124 70.6755H83.35608M80.52124 94.23401H83.35608M80.52124 117.79253H83.35608M80.52124 141.35103H83.35608"/>
<path transform="matrix(1.00005,0,0,-1.00009,5.9923498,143.16069)" stroke-width=".19925" stroke-linecap="butt" stroke-miterlimit="10" stroke-linejoin="miter" fill="none" stroke="#929292" d="M79.81273 23.5585H84.06456M79.81273 117.79253H84.06456"/>
<path transform="matrix(1.00005,0,0,-1.00009,5.9923498,143.16069)" stroke-width=".3985" stroke-linecap="butt" stroke-miterlimit="10" stroke-linejoin="miter" fill="none" stroke="#000000" d="M1.99252 70.6755H161.8848"/>
<path transform="matrix(-1.00005,-0,0,1.00009,7.984969,72.47883)" d="M1.99252 0-1.19551 1.59401 0 0-1.19551-1.59401"/>
<path transform="matrix(1.00005,0,0,-1.00009,167.88524,72.47883)" d="M1.99252 0-1.19551 1.59401 0 0-1.19551-1.59401"/>
<path transform="matrix(1.00005,0,0,-1.00009,5.9923498,143.16069)" stroke-width=".3985" stroke-linecap="butt" stroke-miterlimit="10" stroke-linejoin="miter" fill="none" stroke="#000000" d="M81.93866 1.99252V139.3585"/>
<path transform="matrix(0,1.00009,1.00005,0,87.9351,141.16799)" d="M1.99252 0-1.19551 1.59401 0 0-1.19551-1.59401"/>
<path transform="matrix(0,-1.00009,-1.00005,-0,87.9351,3.7896424)" d="M1.99252 0-1.19551 1.59401 0 0-1.19551-1.59401"/>
<use data-text="&#x2212;" xlink:href="#font_1_1" transform="matrix(7.970498,0,0,-7.970817,.58208087,83.2623)"/>
<use data-text="4" xlink:href="#font_2_2" transform="matrix(7.970498,0,0,-7.970817,7.169407,83.2623)"/>
<use data-text="&#x2212;" xlink:href="#font_1_1" transform="matrix(7.970498,0,0,-7.970817,41.553125,83.2623)"/>
<use data-text="2" xlink:href="#font_2_1" transform="matrix(7.970498,0,0,-7.970817,48.14045,83.2623)"/>
<use data-text="2" xlink:href="#font_2_1" transform="matrix(7.970498,0,0,-7.970817,126.78938,83.2623)"/>
<use data-text="4" xlink:href="#font_2_2" transform="matrix(7.970498,0,0,-7.970817,167.76044,83.2623)"/>
<use data-text="&#x2212;" xlink:href="#font_1_1" transform="matrix(7.970498,0,0,-7.970817,73.35871,121.75376)"/>
<use data-text="2" xlink:href="#font_2_1" transform="matrix(7.970498,0,0,-7.970817,79.94604,121.75376)"/>
<use data-text="2" xlink:href="#font_2_1" transform="matrix(7.970498,0,0,-7.970817,79.94504,27.926316)"/>
<g clip-path="url(#clip_3)">
<path transform="matrix(1.00005,0,0,-1.00009,5.9923498,143.16069)" stroke-width=".99628" stroke-linecap="butt" stroke-miterlimit="10" stroke-linejoin="miter" fill="none" stroke="#9e0c0f" d="M8.26201 117.79253H155.6153"/>
<path transform="matrix(-1.00005,-0,0,1.00009,14.959288,25.35756)" d="M7.39124 0 2.37614 1.6717 .70447 0 2.37614-1.6717Z" fill="#9e0c0f"/>
<path transform="matrix(-1.00005,-0,0,1.00009,14.959288,25.35756)" stroke-width=".99628" stroke-linecap="butt" stroke-miterlimit="10" stroke-linejoin="miter" fill="none" stroke="#9e0c0f" d="M7.39124 0 2.37614 1.6717 .70447 0 2.37614-1.6717Z"/>
<path transform="matrix(1.00005,0,0,-1.00009,160.91092,25.35756)" d="M7.39124 0 2.37614 1.6717 .70447 0 2.37614-1.6717Z" fill="#9e0c0f"/>
<path transform="matrix(1.00005,0,0,-1.00009,160.91092,25.35756)" stroke-width=".99628" stroke-linecap="butt" stroke-miterlimit="10" stroke-linejoin="miter" fill="none" stroke="#9e0c0f" d="M7.39124 0 2.37614 1.6717 .70447 0 2.37614-1.6717Z"/>
<use data-text="y" xlink:href="#font_4_3" transform="matrix(9.963098,0,0,-9.963496,76.18085,19.601578)" fill="#9e0c0f"/>
<use data-text="=" xlink:href="#font_5_6" transform="matrix(9.963098,0,0,-9.963496,84.19125,19.601578)" fill="#9e0c0f"/>
<use data-text="2" xlink:href="#font_5_5" transform="matrix(9.963098,0,0,-9.963496,94.69235,19.601578)" fill="#9e0c0f"/>
<path transform="matrix(1.00005,0,0,-1.00009,5.9923498,143.16069)" stroke-width=".3985" stroke-linecap="butt" stroke-miterlimit="10" stroke-linejoin="miter" fill="none" stroke="#9e0c0f" d=""/>
<use data-text="(" xlink:href="#font_5_1" transform="matrix(9.963098,0,0,-9.963496,62.274164,36.350076)" fill="#9e0c0f"/>
<use data-text="0" xlink:href="#font_5_3" transform="matrix(9.963098,0,0,-9.963496,66.13984,36.350076)" fill="#9e0c0f"/>
<use data-text="," xlink:href="#font_4_1" transform="matrix(9.963098,0,0,-9.963496,71.1306,36.350076)" fill="#9e0c0f"/>
<use data-text="2" xlink:href="#font_5_5" transform="matrix(9.963098,0,0,-9.963496,75.55882,36.350076)" fill="#9e0c0f"/>
<use data-text=")" xlink:href="#font_5_2" transform="matrix(9.963098,0,0,-9.963496,80.540378,36.350076)" fill="#9e0c0f"/>
<path transform="matrix(1.00005,0,0,-1.00009,5.9923498,143.16069)" stroke-width=".3985" stroke-linecap="butt" stroke-miterlimit="10" stroke-linejoin="miter" fill="none" stroke="#9e0c0f" d=""/>
<use data-text="(" xlink:href="#font_5_1" transform="matrix(9.963098,0,0,-9.963496,111.94064,36.350076)" fill="#9e0c0f"/>
<use data-text="1" xlink:href="#font_5_4" transform="matrix(9.963098,0,0,-9.963496,115.80632,36.350076)" fill="#9e0c0f"/>
<use data-text="," xlink:href="#font_4_1" transform="matrix(9.963098,0,0,-9.963496,120.79709,36.350076)" fill="#9e0c0f"/>
<use data-text="2" xlink:href="#font_5_5" transform="matrix(9.963098,0,0,-9.963496,125.22531,36.350076)" fill="#9e0c0f"/>
<use data-text=")" xlink:href="#font_5_2" transform="matrix(9.963098,0,0,-9.963496,130.20685,36.350076)" fill="#9e0c0f"/>
</g>
<path transform="matrix(1.00005,0,0,-1.00009,5.9923498,143.16069)" d="M83.93121 117.79253C83.93121 118.89299 83.03912 119.78508 81.93866 119.78508 80.83818 119.78508 79.9461 118.89299 79.9461 117.79253 79.9461 116.69205 80.83818 115.79997 81.93866 115.79997 83.03912 115.79997 83.93121 116.69205 83.93121 117.79253ZM81.93866 117.79253" fill="#9e0c0f"/>
<path transform="matrix(1.00005,0,0,-1.00009,5.9923498,143.16069)" stroke-width=".3985" stroke-linecap="butt" stroke-miterlimit="10" stroke-linejoin="miter" fill="none" stroke="#9e0c0f" d="M83.93121 117.79253C83.93121 118.89299 83.03912 119.78508 81.93866 119.78508 80.83818 119.78508 79.9461 118.89299 79.9461 117.79253 79.9461 116.69205 80.83818 115.79997 81.93866 115.79997 83.03912 115.79997 83.93121 116.69205 83.93121 117.79253ZM81.93866 117.79253"/>
<path transform="matrix(1.00005,0,0,-1.00009,5.9923498,143.16069)" stroke-width=".3985" stroke-linecap="butt" stroke-miterlimit="10" stroke-linejoin="miter" fill="none" stroke="#9e0c0f" d=""/>
<path transform="matrix(1.00005,0,0,-1.00009,5.9923498,143.16069)" d="M104.41588 117.79253C104.41588 118.89299 103.52379 119.78508 102.42332 119.78508 101.32285 119.78508 100.43077 118.89299 100.43077 117.79253 100.43077 116.69205 101.32285 115.79997 102.42332 115.79997 103.52379 115.79997 104.41588 116.69205 104.41588 117.79253ZM102.42332 117.79253" fill="#9e0c0f"/>
<path transform="matrix(1.00005,0,0,-1.00009,5.9923498,143.16069)" stroke-width=".3985" stroke-linecap="butt" stroke-miterlimit="10" stroke-linejoin="miter" fill="none" stroke="#9e0c0f" d="M104.41588 117.79253C104.41588 118.89299 103.52379 119.78508 102.42332 119.78508 101.32285 119.78508 100.43077 118.89299 100.43077 117.79253 100.43077 116.69205 101.32285 115.79997 102.42332 115.79997 103.52379 115.79997 104.41588 116.69205 104.41588 117.79253ZM102.42332 117.79253"/>
<path transform="matrix(1.00005,0,0,-1.00009,5.9923498,143.16069)" stroke-width=".3985" stroke-linecap="butt" stroke-miterlimit="10" stroke-linejoin="miter" fill="none" stroke="#9e0c0f" d=""/>
<use data-text="x" xlink:href="#font_4_2" transform="matrix(9.963098,0,0,-9.963496,160.66407,68.959018)"/>
<use data-text="y" xlink:href="#font_4_3" transform="matrix(9.963098,0,0,-9.963496,91.45461,9.606659)"/>
</svg>
