<svg xmlns="http://www.w3.org/2000/svg" xmlns:xlink="http://www.w3.org/1999/xlink" version="1.1" width="370" height="143" viewBox="0 0 370 143">
<defs>
<path id="font_1_107" d="M.47698976 .17900086H.44599916C.44299317 .15899658 .43499757 .10899353 .4229889 .08999634 .4169922 .08198547 .34098817 .08198547 .32499696 .08198547H.14698792L.28199769 .20399475C.2979889 .2190094 .33999635 .2519989 .35598756 .26600648 .41799928 .3230133 .47698976 .37802125 .47698976 .46902467 .47698976 .58802798 .3769989 .66503909 .2519989 .66503909 .13198853 .6651764 .052993776 .574173 .052993776 .48516847 .052993776 .4361725 .09199524 .4291687 .10598755 .4291687 .1269989 .4291687 .1579895 .4441681 .1579895 .48217774 .1579895 .5341797 .10798645 .5341797 .09599304 .5341797 .125 .6070709 .19198609 .6320343 .24099732 .6320343 .33399964 .6320343 .38198854 .55314639 .38198854 .46917726 .38198854 .36517335 .30899049 .2891693 .19099427 .16816712L.06498718 .03817749C.052993776 .026992798 .052993776 .024993897 .052993776 0H.44799806L.47698976 .17900086Z"/>
<path id="font_1_121" d="M.4889984 .31877137C.4889984 .42585755 .47799684 .49090577 .44499208 .55496218 .40098573 .6430359 .31999208 .66503909 .2649994 .66503909 .13899231 .66503909 .09298706 .5709839 .07899475 .5429535 .042999269 .4698944 .040985109 .3708191 .040985109 .31877137 .040985109 .25271607 .04399109 .15162659 .09199524 .07156372 .13798523-.0024871827 .21199036-.021484375 .2649994-.021484375 .31298829-.021484375 .39898683-.0064849855 .44898988 .09257507 .48599244 .16464234 .4889984 .2537079 .4889984 .31877137M.3999939 .33078004C.3999939 .27172853 .3999939 .18165589 .3880005 .12561035 .36698915 .020523072 .2979889 .006515503 .2649994 .006515503 .23098755 .006515503 .1619873 .022521973 .14099121 .12760926 .12998963 .18466187 .12998963 .2787323 .12998963 .33078004 .12998963 .3998413 .12998963 .4698944 .14099121 .5249481 .1619873 .6270294 .23999024 .6370239 .2649994 .6370239 .29899598 .6370239 .36799623 .62002566 .3880005 .5289459 .3999939 .4738922 .3999939 .39883424 .3999939 .33078004Z"/>
<path id="font_1_56" d="M.47698976 .19924927C.47698976 .31576539 .3929901 .4189453 .2749939 .4189453 .22499085 .4189453 .17799378 .40293885 .13999939 .36886598V.5618439C.15299988 .55784609 .19299317 .54785159 .23498535 .54785159 .3600006 .54785159 .43598939 .63586428 .43598939 .6509552 .43598939 .6620178 .42900086 .66503909 .42399598 .66503909 .42399598 .66503909 .41999818 .66503909 .41099549 .66000369 .37199403 .6449127 .32598878 .632843 .27198792 .632843 .21299744 .632843 .1639862 .64793398 .1329956 .66000369 .12298584 .66503909 .11999512 .66503909 .11999512 .66503909 .10699463 .66503909 .10699463 .6539612 .10699463 .63586428V.34277345C.10699463 .32476808 .10699463 .3127594 .12298584 .3127594 .1309967 .3127594 .13398743 .31677247 .13899231 .32476808 .15098572 .33976747 .18899536 .39093019 .27398683 .39093019 .32998658 .39093019 .35699464 .34477235 .3659973 .3257599 .3829956 .2896576 .3849945 .24345398 .3849945 .20426941 .3849945 .16725159 .38398744 .11325073 .35598756 .069366458 .33699037 .03942871 .29699708 .008514404 .24398804 .008514404 .1789856 .008514404 .114990238 .04940796 .09199524 .11425781 .09498596 .11387634 .101989749 .11387634 .101989749 .11387634 .12998963 .11387634 .1519928 .13188172 .1519928 .16288758 .1519928 .19989014 .12298584 .21289063 .102996829 .21289063 .084991458 .21289063 .052993776 .20288086 .052993776 .15988159 .052993776 .069732669 .1309967-.021484375 .24598694-.021484375 .37098695-.021743775 .47698976 .07525635 .47698976 .19924927Z"/>
<path id="font_1_82" d="M.44699098 0V.032989503H.4119873C.31698609 .032989503 .31399537 .04499817 .31399537 .08203125V.6371765C.31399537 .664032 .31199647 .66503909 .2849884 .66503909 .24398804 .6252289 .19099427 .6013489 .09599304 .6013489V.5683594C.12298584 .5683594 .1769867 .5683594 .23498535 .5953522V.08203125C.23498535 .04499817 .23199463 .032989503 .13699341 .032989503H.101989749V0C.14299011 .0029907227 .22898865 .0029907227 .27398683 .0029907227 .31900025 .0029907227 .4059906 .0029907227 .44699098 0Z"/>
<path id="font_2_6" d="M.13999939 .5618439C.15299988 .55784609 .19299317 .54785159 .23498535 .54785159 .3600006 .54785159 .43598939 .6358948 .43598939 .6510315 .43598939 .6620331 .42900086 .66503909 .42399598 .66503909 .42199708 .66503909 .41999818 .66503909 .41099549 .6600342 .37199403 .6450348 .32598878 .632843 .27198792 .632843 .21299744 .632843 .1639862 .6480255 .1329956 .6600342 .12298584 .66503909 .12098694 .66503909 .11999512 .66503909 .10699463 .66503909 .10699463 .6540375 .10699463 .6358948V.34292604C.10699463 .32492066 .10699463 .312912 .12298584 .312912 .1309967 .312912 .13398743 .3169098 .13899231 .32492066 .15098572 .33992005 .18899536 .39093019 .27398683 .39093019 .32998658 .39093019 .35699464 .34492494 .3659973 .32591249 .3829956 .28990174 .3849945 .24389649 .3849945 .20487976 .3849945 .1678772 .38398744 .11387634 .35598756 .069732669 .33699037 .039611818 .29699708 .008514404 .24398804 .008514404 .1789856 .008514404 .114990238 .0496521 .09199524 .11488342 .09498596 .11387634 .100997928 .11387634 .101989749 .11387634 .12998963 .11387634 .1519928 .13188172 .1519928 .16288758 .1519928 .19989014 .12298584 .21289063 .102996829 .21289063 .084991458 .21289063 .052993776 .20288086 .052993776 .15988159 .052993776 .069732669 .1309967-.021484375 .24598694-.021484375 .37098695-.021484375 .47698976 .07574463 .47698976 .19989014 .47698976 .31591798 .3929901 .4189453 .2749939 .4189453 .22499085 .4189453 .17799378 .40293885 .13999939 .368927V.5618439Z"/>
<path id="font_2_2" d="M.31399537 .63708499C.31399537 .664032 .31199647 .66503909 .2849884 .66503909 .24398804 .6251831 .19099427 .6013489 .09599304 .6013489V.5683594C.12298584 .5683594 .1769867 .5683594 .23498535 .5953522V.08203125C.23498535 .04499817 .23199463 .032989503 .13699341 .032989503H.101989749V0C.14299011 .0029907227 .22898865 .0029907227 .27398683 .0029907227 .31900025 .0029907227 .4059906 .0029907227 .44699098 0V.032989503H.4119873C.31698609 .032989503 .31399537 .04499817 .31399537 .08203125V.63708499Z"/>
<path id="font_2_1" d="M.4889984 .31877137C.4889984 .42585755 .47799684 .49090577 .44499208 .55496218 .40098573 .6430359 .31999208 .66503909 .2649994 .66503909 .13899231 .66503909 .09298706 .5709839 .07899475 .5429535 .042999269 .4698944 .040985109 .3708191 .040985109 .31877137 .040985109 .25271607 .04399109 .15162659 .09199524 .07156372 .13798523-.0024871827 .21199036-.021484375 .2649994-.021484375 .31298829-.021484375 .39898683-.0064849855 .44898988 .09257507 .48599244 .16464234 .4889984 .2537079 .4889984 .31877137M.2649994 .006515503C.23098755 .006515503 .1619873 .022521973 .14099121 .12760926 .12998963 .18466187 .12998963 .2787323 .12998963 .33078004 .12998963 .3998413 .12998963 .4698944 .14099121 .5249481 .1619873 .6270294 .23999024 .6370239 .2649994 .6370239 .29899598 .6370239 .36799623 .62002566 .3880005 .5289459 .3999939 .4738922 .3999939 .39883424 .3999939 .33078004 .3999939 .27172853 .3999939 .18165589 .3880005 .12561035 .36698915 .020523072 .2979889 .006515503 .2649994 .006515503Z"/>
<path id="font_2_3" d="M.28199769 .20405579C.2979889 .21907044 .33999635 .2520752 .35598756 .26608277 .41799928 .32312013 .47698976 .3781433 .47698976 .46917726 .47698976 .588089 .3769989 .66503909 .2519989 .66503909 .13198853 .66503909 .052993776 .57411196 .052993776 .48516847 .052993776 .4361725 .09199524 .4291687 .10598755 .4291687 .1269989 .4291687 .1579895 .4441681 .1579895 .48217774 .1579895 .5341797 .10798645 .5341797 .09599304 .5341797 .125 .6070709 .19198609 .6320343 .24099732 .6320343 .33399964 .6320343 .38198854 .55314639 .38198854 .46917726 .38198854 .36514283 .30899049 .28910829 .19099427 .16804505L.06498718 .037994386C.052993776 .026992798 .052993776 .024993897 .052993776 0H.44799806L.47698976 .17904663H.44599916C.44299317 .1590271 .43499757 .10900879 .4229889 .08999634 .4169922 .08198547 .34098817 .08198547 .32499696 .08198547H.14698792L.28199769 .20405579Z"/>
<path id="font_2_4" d="M.25299073 .33370973C.33198548 .33370973 .38198854 .27557374 .38198854 .17037964 .38198854 .045440675 .31098939 .008514404 .2579956 .008514404 .20298767 .008514404 .12799073 .0284729 .09298706 .08137512 .1289978 .08137512 .1539917 .10437012 .1539917 .13737488 .1539917 .16937256 .1309967 .19238281 .09899902 .19238281 .07199097 .19238281 .04399109 .17536927 .04399109 .13537598 .04399109 .04045105 .1459961-.021484375 .2599945-.021484375 .3929901-.021484375 .48599244 .070388797 .48599244 .17037964 .48599244 .25352479 .41999818 .32969667 .31799317 .3517456 .39698792 .37982179 .45599366 .4479828 .45599366 .52804568 .45599366 .6080475 .3659973 .66503909 .2619934 .66503909 .15499878 .66503909 .07398987 .6070404 .07398987 .53105166 .07398987 .49404908 .09899902 .4780426 .125 .4780426 .1559906 .4780426 .17599488 .5000458 .17599488 .52905276 .17599488 .56604006 .14399719 .5800476 .12199402 .5810547 .1639862 .6360321 .24099732 .6390381 .25898744 .6390381 .2849884 .6390381 .36099244 .6310272 .36099244 .52804568 .36099244 .45799256 .33198548 .41589356 .31799317 .39985658 .28799439 .36878968 .2649994 .36679078 .20399475 .3627777 .18499756 .36177064 .1769867 .36076356 .1769867 .3477478 .1769867 .33370973 .18598938 .33370973 .20298767 .33370973H.25299073Z"/>
<path id="font_2_5" d="M.3939972 .6468048C.3939972 .6667938 .3939972 .6748047 .37298585 .6748047 .3600006 .6748047 .35899354 .6737976 .34899903 .65979006L.02999878 .197052V.1640625H.31199647V.08100891C.31199647 .04399109 .30899049 .032989503 .23199463 .032989503H.20899964V0C.2939911 .0029907227 .29599 .0029907227 .35299684 .0029907227 .4099884 .0029907227 .4119873 .0029907227 .49699403 0V.032989503H.47399903C.39698792 .032989503 .3939972 .04399109 .3939972 .08100891V.1640625H.5V.197052H.3939972V.6468048M.31900025 .5658417V.197052H.06498718L.31900025 .5658417Z"/>
<clipPath id="clip_3">
<path transform="matrix(1.00002,0,0,-1.00009,12.9146389,119.67467)" d="M0 0H348.6969V115.0668H0Z"/>
</clipPath>
<path id="font_4_118" d="M.5079956 .3996582V.43066407C.4850006 .4286499 .45599366 .42765809 .43299867 .42765809L.34599305 .43066407V.3996582C.3769989 .39866639 .3929901 .3816681 .3929901 .35668946 .3929901 .34669496 .3919983 .34469605 .3869934 .33270265L.28599549 .08685303 .1749878 .35568238C.17098999 .36567689 .16899109 .36967469 .16899109 .3736725 .16899109 .3996582 .20599365 .3996582 .22499085 .3996582V.43066407L.115997318 .42765809C.08898926 .42765809 .04899597 .4286499 .018997193 .43066407V.3996582C.066986087 .3996582 .085998538 .3996582 .099990848 .36468507L.25-.000091552738 .22499085-.059066774C.20298767-.11407471 .1749878-.18309021 .11099243-.18309021 .10598755-.18309021 .08299255-.18309021 .06399536-.16503906 .09498596-.16104126 .102996829-.13905335 .102996829-.123046878 .102996829-.0970459 .083999637-.08103943 .06098938-.08103943 .040985109-.08103943 .018997193-.09403992 .018997193-.124053958 .018997193-.16905213 .06098938-.20507813 .11099243-.20507813 .17399597-.20507813 .21499634-.14804077 .23899842-.091049198L.4149933 .33569337C.44099427 .39865113 .49198915 .3996582 .5079956 .3996582Z"/>
<path id="font_4_50" d="M.4149933 .11933899C.4149933 .12934876 .40699769 .13134766 .4019928 .13134766 .3929901 .13134766 .3909912 .12535095 .3889923 .11734009 .35398866 .014251709 .2639923 .014251709 .2539978 .014251709 .20399475 .014251709 .1639862 .044281007 .14099121 .08131409 .11099243 .12934876 .11099243 .19540406 .11099243 .23144531H.3899994C.4119873 .23144531 .4149933 .23144531 .4149933 .2524414 .4149933 .35131837 .36099244 .4482422 .23599243 .4482422 .11999512 .4482422 .027999878 .34532167 .027999878 .22042847 .027999878 .08631897 .1329956-.0107421879 .24798584-.0107421879 .36999513-.0107421879 .4149933 .10032654 .4149933 .11933899M.34899903 .2524414H.11199951C.117996219 .40126039 .20199585 .426239 .23599243 .426239 .33898927 .426239 .34899903 .2913971 .34899903 .2524414Z"/>
<path id="font_4_28" d="M.48298646 .08912659V.14511109H.45799256V.08912659C.45799256 .03112793 .43299867 .025131226 .42199708 .025131226 .3889923 .025131226 .3849945 .070129398 .3849945 .07511902V.27508546C.3849945 .31707765 .3849945 .3560791 .34899903 .39312745 .30999757 .43223573 .2599945 .4482422 .21199036 .4482422 .12998963 .4482422 .06098938 .40115357 .06098938 .335083 .06098938 .30508424 .08099365 .28808595 .10699463 .28808595 .1349945 .28808595 .15299988 .30807496 .15299988 .33407594 .15299988 .3460846 .147995 .37908937 .101989749 .38008119 .1289978 .41519166 .17799378 .426239 .20999146 .426239 .25898744 .426239 .31599427 .38710023 .31599427 .29808045V.26107789C.2649994 .25808717 .19499207 .25508119 .13198853 .22509766 .056991579 .19110108 .03199768 .13911438 .03199768 .09512329 .03199768 .014251709 .1289978-.0107421879 .19198609-.0107421879 .2579956-.0107421879 .3039856 .029251099 .32299806 .07624817 .32699586 .036132814 .35398866-.005859375 .40098573-.005859375 .42199708-.005859375 .48298646 .008132935 .48298646 .08912659M.31599427 .14013672C.31599427 .04525757 .24398804 .011245728 .19898987 .011245728 .1499939 .011245728 .10899353 .04624939 .10899353 .09625244 .10899353 .15124512 .15098572 .23425293 .31599427 .24024964V.14013672Z"/>
<path id="font_4_96" d="M.3639984 .38137818C.3639984 .41337586 .33299256 .4423828 .2899933 .4423828 .21699524 .4423828 .18099976 .37538148 .16699219 .3323822V.4423828L.027999878 .43066407V.3996582C.09799194 .3996582 .10598755 .39266969 .10598755 .34370423V.07595825C.10598755 .0309906 .09498596 .0309906 .027999878 .0309906V0L.14199829 .0029907227C.18199158 .0029907227 .22898865 .0029907227 .2689972 0V.0309906H.24798584C.17399597 .0309906 .17199707 .04197693 .17199707 .07795715V.23181153C.17199707 .33137513 .21398926 .42037965 .2899933 .42037965 .29699708 .42037965 .29899598 .42037965 .30099488 .41937257 .2979889 .41838075 .27799989 .40637208 .27799989 .3803711 .27799989 .35237123 .29899598 .33737184 .32099916 .33737184 .33898927 .33737184 .3639984 .3493805 .3639984 .38137818Z"/>
<path id="font_4_84" d="M.5209961 .21636963C.5209961 .34336854 .42399598 .4423828 .31199647 .4423828 .23399353 .4423828 .19198609 .39837647 .17199707 .3763733V.4423828L.027999878 .43066407V.3996582C.09899902 .3996582 .10598755 .3936615 .10598755 .34973146V-.117996219C.10598755-.16308594 .09498596-.16308594 .027999878-.16308594V-.1940918L.13999939-.19110108 .25299073-.1940918V-.16308594C.18598938-.16308594 .1749878-.16308594 .1749878-.117996219V.050186159 .059173585C.17999268 .04319763 .22200012-.0107421879 .2979889-.0107421879 .4169922-.0107421879 .5209961 .087127689 .5209961 .21594239V.21636963M.43798829 .21594239C.43798829 .09512329 .36799623 .011245728 .2939911 .011245728 .2539978 .011245728 .21598816 .031219483 .18899536 .07215881 .1749878 .09312439 .1749878 .09411621 .1749878 .114089969V.33674623C.20399475 .38838197 .25299073 .41737367 .3039856 .41737367 .3769989 .41737367 .43798829 .32937623 .43798829 .21636963V.21594239Z"/>
<path id="font_4_43" d="M.4149933 .119140628C.4149933 .12911988 .40499879 .12911988 .4019928 .12911988 .3929901 .12911988 .3909912 .12512207 .3889923 .119140628 .3600006 .026229859 .29499818 .014251709 .2579956 .014251709 .20498657 .014251709 .116989139 .0572052 .116989139 .21801758 .116989139 .38093568 .19898987 .42323304 .2519989 .42323304 .26098634 .42323304 .32398988 .42222596 .35899354 .38594056 .31799317 .38293458 .31199647 .3529358 .31199647 .3399353 .31199647 .31393434 .32998658 .2939453 .35798646 .2939453 .38398744 .2939453 .4039917 .3109436 .4039917 .34094239 .4039917 .40911866 .32798768 .4482422 .25099183 .4482422 .12599182 .4482422 .033996583 .3399353 .033996583 .21601868 .033996583 .08816528 .1329956-.0107421879 .24899292-.0107421879 .3829956-.0107421879 .4149933 .10914612 .4149933 .119140628Z"/>
<path id="font_4_77" d="M.5349884 0V.0309906C.48298646 .0309906 .45799256 .0309906 .45700074 .061019899V.25221253C.45700074 .3383026 .45700074 .36932374 .42599488 .405365 .4119873 .42237855 .3789978 .4423828 .32099916 .4423828 .24798584 .4423828 .20098877 .39935304 .17298889 .33729554V.4423828L.03199768 .43066407V.3996582C.101989749 .3996582 .10998535 .39266969 .10998535 .34370423V.07595825C.10998535 .0309906 .09899902 .0309906 .03199768 .0309906V0L.14498902 .0029907227 .25698854 0V.0309906C.18998719 .0309906 .1789856 .0309906 .1789856 .07595825V.25978089C.1789856 .36431886 .25 .42037965 .31399537 .42037965 .3769989 .42037965 .3880005 .36631776 .3880005 .30926515V.076034549C.3880005 .0309906 .3769989 .0309906 .30999757 .0309906V0L.4229889 .0029907227 .5349884 0Z"/>
<path id="font_4_105" d="M.33198548 .12385559V.18066406H.30699159V.12585449C.30699159 .052108766 .2769928 .014251709 .23999024 .014251709 .17298889 .014251709 .17298889 .10491943 .17298889 .12187195V.3996582H.31599427V.43066407H.17298889V.6142578H.147995C.14698792 .5324249 .116989139 .42565919 .018997193 .42166139V.3996582H.10398865V.12408447C.10398865 .0012512207 .19699097-.0107421879 .23298645-.0107421879 .3039856-.0107421879 .33198548 .060180665 .33198548 .12408447V.12385559Z"/>
<path id="font_4_59" d="M.4850006 .40411378C.4850006 .42111207 .47299195 .453125 .43399049 .453125 .4139862 .453125 .36999513 .44711305 .32798768 .40611268 .28599549 .43937684 .24398804 .4423828 .22200012 .4423828 .1289978 .4423828 .05999756 .37338258 .05999756 .29638673 .05999756 .25239564 .08198547 .21440125 .10699463 .19340515 .09399414 .17840576 .07598877 .14538574 .07598877 .11035156 .07598877 .07899475 .08898926 .04083252 .11999512 .020828248 .05999756 .003829956 .027999878-.039138795 .027999878-.07911682 .027999878-.15107727 .1269989-.20605469 .24899292-.20605469 .36698915-.20605469 .47099305-.15507508 .47099305-.07711792 .47099305-.042144777 .45700074 .008834839 .4059906 .036834718 .35299684 .064834598 .29499818 .064834598 .23399353 .064834598 .20899964 .064834598 .1659851 .064834598 .15899658 .065841678 .1269989 .069885257 .10598755 .101242069 .10598755 .13334656 .10598755 .13735962 .10598755 .16040039 .12298584 .18040467 .1619873 .15240479 .20298767 .14941406 .22200012 .14941406 .31498719 .14941406 .38398744 .21839905 .38398744 .2953949 .38398744 .3323822 .36799623 .36938478 .34298707 .39237977 .3789978 .42637635 .4149933 .43138124 .43299867 .43138124 .43299867 .43112184 .43998719 .43112184 .44299317 .43011476 .43199159 .42611695 .4269867 .41513063 .4269867 .40315248 .4269867 .38616944 .43998719 .37417604 .45599366 .37417604 .46598817 .37417604 .4850006 .3811798 .4850006 .4041443V.40411378M.30899049 .29626466C.30899049 .26930238 .30799867 .2373352 .29299928 .21235657 .2849884 .20037842 .2619934 .17240906 .22200012 .17240906 .1349945 .17240906 .1349945 .2722931 .1349945 .29527284 .1349945 .3222351 .13598633 .35420228 .15098572 .3791809 .15899658 .3913269 .18199158 .41937257 .22200012 .41937257 .30899049 .41937257 .30899049 .31922914 .30899049 .29618836V.29626466M.4189911-.07911682C.4189911-.13308716 .34799195-.18305969 .25-.18305969 .14898682-.18305969 .07998657-.13209534 .07998657-.07911682 .07998657-.03314209 .117996219 .003829956 .1619873 .0068359377H.22099304C.30699159 .0068359377 .4189911 .0068359377 .4189911-.07911682Z"/>
</defs>
<path transform="matrix(1.00002,0,0,-1.00009,12.9146389,119.67467)" d="M0 0H348.6969V115.0668H0Z" fill="#fffac2"/>
<path transform="matrix(1.00002,0,0,-1.00009,12.9146389,119.67467)" stroke-width=".3985" stroke-linecap="butt" stroke-miterlimit="10" stroke-linejoin="miter" fill="none" stroke="#d5d6d5" d=""/>
<path transform="matrix(1.00002,0,0,-1.00009,12.9146389,119.67467)" stroke-width=".3985" stroke-linecap="butt" stroke-miterlimit="10" stroke-linejoin="miter" fill="none" stroke="#d5d6d5" d="M69.73938 0V115.0668M139.47876 0V115.0668M209.21814 0V115.0668M278.95753 0V115.0668M348.6969 0V115.0668"/>
<path transform="matrix(1.00002,0,0,-1.00009,12.9146389,119.67467)" stroke-width=".3985" stroke-linecap="butt" stroke-miterlimit="10" stroke-linejoin="miter" fill="none" stroke="#d5d6d5" d="M0 14.38335H348.6969M0 28.7667H348.6969M0 43.15005H348.6969M0 57.5334H348.6969M0 71.91675H348.6969M0 86.30011H348.6969M0 100.68346H348.6969M0 115.0668H348.6969"/>
<path transform="matrix(1.00002,0,0,-1.00009,12.9146389,119.67467)" stroke-width=".19925" stroke-linecap="butt" stroke-miterlimit="10" stroke-linejoin="miter" fill="none" stroke="#929292" d=""/>
<path transform="matrix(1.00002,0,0,-1.00009,12.9146389,119.67467)" stroke-width=".19925" stroke-linecap="butt" stroke-miterlimit="10" stroke-linejoin="miter" fill="none" stroke="#929292" d="M69.73938-2.12592V2.12592M139.47876-2.12592V2.12592M209.21814-2.12592V2.12592M278.95753-2.12592V2.12592M348.6969-2.12592V2.12592"/>
<path transform="matrix(1.00002,0,0,-1.00009,12.9146389,119.67467)" stroke-width=".19925" stroke-linecap="butt" stroke-miterlimit="10" stroke-linejoin="miter" fill="none" stroke="#929292" d="M-2.12572 14.38335H2.12572M-2.12572 28.7667H2.12572M-2.12572 43.15005H2.12572M-2.12572 57.5334H2.12572M-2.12572 71.91675H2.12572M-2.12572 86.30011H2.12572M-2.12572 100.68346H2.12572M-2.12572 115.0668H2.12572"/>
<path transform="matrix(1.00002,0,0,-1.00009,12.9146389,119.67467)" stroke-width=".3985" stroke-linecap="butt" stroke-miterlimit="10" stroke-linejoin="miter" fill="none" stroke="#000000" d="M0 0H346.70436"/>
<path transform="matrix(1.00002,0,0,-1.00009,359.62596,119.67467)" d="M1.99252 0-1.19551 1.59401 0 0-1.19551-1.59401"/>
<path transform="matrix(1.00002,0,0,-1.00009,12.9146389,119.67467)" stroke-width=".3985" stroke-linecap="butt" stroke-miterlimit="10" stroke-linejoin="miter" fill="none" stroke="#000000" d="M0 0V113.07428"/>
<path transform="matrix(0,-1.00009,-1.00002,-0,12.9146389,6.59021)" d="M1.99252 0-1.19551 1.59401 0 0-1.19551-1.59401"/>
<use data-text="2" xlink:href="#font_1_107" transform="matrix(5.6357705,5.6361649,5.6357705,-5.6361649,74.85501,130.52635)"/>
<use data-text="0" xlink:href="#font_1_121" transform="matrix(5.6357705,5.6361649,5.6357705,-5.6361649,77.84761,133.51917)"/>
<use data-text="0" xlink:href="#font_1_121" transform="matrix(5.6357705,5.6361649,5.6357705,-5.6361649,80.8402,136.51197)"/>
<use data-text="5" xlink:href="#font_1_56" transform="matrix(5.6357705,5.6361649,5.6357705,-5.6361649,83.832798,139.50478)"/>
<use data-text="2" xlink:href="#font_1_107" transform="matrix(5.6357705,5.6361649,5.6357705,-5.6361649,144.5964,130.52635)"/>
<use data-text="0" xlink:href="#font_1_121" transform="matrix(5.6357705,5.6361649,5.6357705,-5.6361649,147.589,133.51917)"/>
<use data-text="1" xlink:href="#font_1_82" transform="matrix(5.6357705,5.6361649,5.6357705,-5.6361649,150.5816,136.51197)"/>
<use data-text="0" xlink:href="#font_1_121" transform="matrix(5.6357705,5.6361649,5.6357705,-5.6361649,153.57419,139.50478)"/>
<use data-text="2" xlink:href="#font_1_107" transform="matrix(5.6357705,5.6361649,5.6357705,-5.6361649,214.33683,130.52635)"/>
<use data-text="0" xlink:href="#font_1_121" transform="matrix(5.6357705,5.6361649,5.6357705,-5.6361649,217.32942,133.51917)"/>
<use data-text="1" xlink:href="#font_1_82" transform="matrix(5.6357705,5.6361649,5.6357705,-5.6361649,220.32202,136.51197)"/>
<use data-text="5" xlink:href="#font_1_56" transform="matrix(5.6357705,5.6361649,5.6357705,-5.6361649,223.3146,139.50478)"/>
<use data-text="2" xlink:href="#font_1_107" transform="matrix(5.6357705,5.6361649,5.6357705,-5.6361649,284.07823,130.52635)"/>
<use data-text="0" xlink:href="#font_1_121" transform="matrix(5.6357705,5.6361649,5.6357705,-5.6361649,287.0708,133.51917)"/>
<use data-text="2" xlink:href="#font_1_107" transform="matrix(5.6357705,5.6361649,5.6357705,-5.6361649,290.06343,136.51197)"/>
<use data-text="0" xlink:href="#font_1_121" transform="matrix(5.6357705,5.6361649,5.6357705,-5.6361649,293.056,139.50478)"/>
<use data-text="2" xlink:href="#font_1_107" transform="matrix(5.6357705,5.6361649,5.6357705,-5.6361649,353.81858,130.52635)"/>
<use data-text="0" xlink:href="#font_1_121" transform="matrix(5.6357705,5.6361649,5.6357705,-5.6361649,356.81117,133.51917)"/>
<use data-text="2" xlink:href="#font_1_107" transform="matrix(5.6357705,5.6361649,5.6357705,-5.6361649,359.80378,136.51197)"/>
<use data-text="5" xlink:href="#font_1_56" transform="matrix(5.6357705,5.6361649,5.6357705,-5.6361649,362.79637,139.50478)"/>
<use data-text="5" xlink:href="#font_2_6" transform="matrix(7.9702599,0,0,-7.970817,4.92548,107.858608)"/>
<use data-text="1" xlink:href="#font_2_2" transform="matrix(7.9702599,0,0,-7.970817,.6913948,93.47331)"/>
<use data-text="0" xlink:href="#font_2_1" transform="matrix(7.9702599,0,0,-7.970817,4.923603,93.47331)"/>
<use data-text="1" xlink:href="#font_2_2" transform="matrix(7.9702599,0,0,-7.970817,.6913948,79.08902)"/>
<use data-text="5" xlink:href="#font_2_6" transform="matrix(7.9702599,0,0,-7.970817,4.923603,79.08902)"/>
<use data-text="2" xlink:href="#font_2_3" transform="matrix(7.9702599,0,0,-7.970817,.6913948,64.70472)"/>
<use data-text="0" xlink:href="#font_2_1" transform="matrix(7.9702599,0,0,-7.970817,4.923603,64.70472)"/>
<use data-text="2" xlink:href="#font_2_3" transform="matrix(7.9702599,0,0,-7.970817,.6913948,50.319429)"/>
<use data-text="5" xlink:href="#font_2_6" transform="matrix(7.9702599,0,0,-7.970817,4.923603,50.319429)"/>
<use data-text="3" xlink:href="#font_2_4" transform="matrix(7.9702599,0,0,-7.970817,.6913948,35.935129)"/>
<use data-text="0" xlink:href="#font_2_1" transform="matrix(7.9702599,0,0,-7.970817,4.923603,35.935129)"/>
<use data-text="3" xlink:href="#font_2_4" transform="matrix(7.9702599,0,0,-7.970817,.6913948,21.550843)"/>
<use data-text="5" xlink:href="#font_2_6" transform="matrix(7.9702599,0,0,-7.970817,4.923603,21.550843)"/>
<use data-text="4" xlink:href="#font_2_5" transform="matrix(7.9702599,0,0,-7.970817,.6913948,7.1655428)"/>
<use data-text="0" xlink:href="#font_2_1" transform="matrix(7.9702599,0,0,-7.970817,4.923603,7.1655428)"/>
<g clip-path="url(#clip_3)">
<path transform="matrix(1.00002,0,0,-1.00009,12.9146389,119.67467)" stroke-width="1.59404" stroke-linecap="butt" stroke-miterlimit="10" stroke-linejoin="miter" fill="none" stroke="#9e0c0f" d="M0 76.24643 12.20439 76.87512 24.40729 77.50381 36.61317 78.13274 48.81607 78.76143 61.02196 79.39026 73.22635 80.01897 85.42924 80.64766 97.63513 81.27657 109.83803 81.90526 122.04391 82.5341 134.2483 83.1628 146.4512 83.7915 158.65709 84.42041 170.85999 85.0491 183.06587 85.67793 195.27027 86.30664 207.47316 86.93533 219.67905 87.56424 231.88195 88.19295 244.08783 88.82178 256.2922 89.45049 268.49513 90.07918 280.701 90.70808 292.9039 91.33678"/>
</g>
<path transform="matrix(1.00002,0,0,-1.00009,12.9146389,119.67467)" d="M1.99255 81.98509C1.99255 83.08557 1.10046 83.97765 0 83.97765-1.10046 83.97765-1.99255 83.08557-1.99255 81.98509-1.99255 80.88463-1.10046 79.99254 0 79.99254 1.10046 79.99254 1.99255 80.88463 1.99255 81.98509ZM0 81.98509"/>
<path transform="matrix(1.00002,0,0,-1.00009,12.9146389,119.67467)" stroke-width=".3985" stroke-linecap="butt" stroke-miterlimit="10" stroke-linejoin="miter" fill="none" stroke="#000000" d="M1.99255 81.98509C1.99255 83.08557 1.10046 83.97765 0 83.97765-1.10046 83.97765-1.99255 83.08557-1.99255 81.98509-1.99255 80.88463-1.10046 79.99254 0 79.99254 1.10046 79.99254 1.99255 80.88463 1.99255 81.98509ZM0 81.98509"/>
<path transform="matrix(1.00002,0,0,-1.00009,12.9146389,119.67467)" d="M15.94043 77.67009C15.94043 78.77057 15.04834 79.66264 13.94788 79.66264 12.8474 79.66264 11.95532 78.77057 11.95532 77.67009 11.95532 76.56963 12.8474 75.67754 13.94788 75.67754 15.04834 75.67754 15.94043 76.56963 15.94043 77.67009ZM13.94788 77.67009"/>
<path transform="matrix(1.00002,0,0,-1.00009,12.9146389,119.67467)" stroke-width=".3985" stroke-linecap="butt" stroke-miterlimit="10" stroke-linejoin="miter" fill="none" stroke="#000000" d="M15.94043 77.67009C15.94043 78.77057 15.04834 79.66264 13.94788 79.66264 12.8474 79.66264 11.95532 78.77057 11.95532 77.67009 11.95532 76.56963 12.8474 75.67754 13.94788 75.67754 15.04834 75.67754 15.94043 76.56963 15.94043 77.67009ZM13.94788 77.67009"/>
<path transform="matrix(1.00002,0,0,-1.00009,12.9146389,119.67467)" d="M29.8883 74.79343C29.8883 75.89389 28.99622 76.78598 27.89575 76.78598 26.79527 76.78598 25.9032 75.89389 25.9032 74.79343 25.9032 73.69295 26.79527 72.80087 27.89575 72.80087 28.99622 72.80087 29.8883 73.69295 29.8883 74.79343ZM27.89575 74.79343"/>
<path transform="matrix(1.00002,0,0,-1.00009,12.9146389,119.67467)" stroke-width=".3985" stroke-linecap="butt" stroke-miterlimit="10" stroke-linejoin="miter" fill="none" stroke="#000000" d="M29.8883 74.79343C29.8883 75.89389 28.99622 76.78598 27.89575 76.78598 26.79527 76.78598 25.9032 75.89389 25.9032 74.79343 25.9032 73.69295 26.79527 72.80087 27.89575 72.80087 28.99622 72.80087 29.8883 73.69295 29.8883 74.79343ZM27.89575 74.79343"/>
<path transform="matrix(1.00002,0,0,-1.00009,12.9146389,119.67467)" d="M43.83618 71.91675C43.83618 73.01723 42.94409 73.9093 41.84363 73.9093 40.74315 73.9093 39.85107 73.01723 39.85107 71.91675 39.85107 70.81628 40.74315 69.9242 41.84363 69.9242 42.94409 69.9242 43.83618 70.81628 43.83618 71.91675ZM41.84363 71.91675"/>
<path transform="matrix(1.00002,0,0,-1.00009,12.9146389,119.67467)" stroke-width=".3985" stroke-linecap="butt" stroke-miterlimit="10" stroke-linejoin="miter" fill="none" stroke="#000000" d="M43.83618 71.91675C43.83618 73.01723 42.94409 73.9093 41.84363 73.9093 40.74315 73.9093 39.85107 73.01723 39.85107 71.91675 39.85107 70.81628 40.74315 69.9242 41.84363 69.9242 42.94409 69.9242 43.83618 70.81628 43.83618 71.91675ZM41.84363 71.91675"/>
<path transform="matrix(1.00002,0,0,-1.00009,12.9146389,119.67467)" d="M57.78406 78.5331C57.78406 79.63356 56.89197 80.52565 55.7915 80.52565 54.69102 80.52565 53.79895 79.63356 53.79895 78.5331 53.79895 77.43262 54.69102 76.54054 55.7915 76.54054 56.89197 76.54054 57.78406 77.43262 57.78406 78.5331ZM55.7915 78.5331"/>
<path transform="matrix(1.00002,0,0,-1.00009,12.9146389,119.67467)" stroke-width=".3985" stroke-linecap="butt" stroke-miterlimit="10" stroke-linejoin="miter" fill="none" stroke="#000000" d="M57.78406 78.5331C57.78406 79.63356 56.89197 80.52565 55.7915 80.52565 54.69102 80.52565 53.79895 79.63356 53.79895 78.5331 53.79895 77.43262 54.69102 76.54054 55.7915 76.54054 56.89197 76.54054 57.78406 77.43262 57.78406 78.5331ZM55.7915 78.5331"/>
<path transform="matrix(1.00002,0,0,-1.00009,12.9146389,119.67467)" d="M71.73193 79.68376C71.73193 80.78423 70.83984 81.67632 69.73938 81.67632 68.6389 81.67632 67.74683 80.78423 67.74683 79.68376 67.74683 78.5833 68.6389 77.69121 69.73938 77.69121 70.83984 77.69121 71.73193 78.5833 71.73193 79.68376ZM69.73938 79.68376"/>
<path transform="matrix(1.00002,0,0,-1.00009,12.9146389,119.67467)" stroke-width=".3985" stroke-linecap="butt" stroke-miterlimit="10" stroke-linejoin="miter" fill="none" stroke="#000000" d="M71.73193 79.68376C71.73193 80.78423 70.83984 81.67632 69.73938 81.67632 68.6389 81.67632 67.74683 80.78423 67.74683 79.68376 67.74683 78.5833 68.6389 77.69121 69.73938 77.69121 70.83984 77.69121 71.73193 78.5833 71.73193 79.68376ZM69.73938 79.68376"/>
<path transform="matrix(1.00002,0,0,-1.00009,12.9146389,119.67467)" d="M85.67981 82.56042C85.67981 83.6609 84.78772 84.55298 83.68726 84.55298 82.58678 84.55298 81.6947 83.6609 81.6947 82.56042 81.6947 81.45996 82.58678 80.56787 83.68726 80.56787 84.78772 80.56787 85.67981 81.45996 85.67981 82.56042ZM83.68726 82.56042"/>
<path transform="matrix(1.00002,0,0,-1.00009,12.9146389,119.67467)" stroke-width=".3985" stroke-linecap="butt" stroke-miterlimit="10" stroke-linejoin="miter" fill="none" stroke="#000000" d="M85.67981 82.56042C85.67981 83.6609 84.78772 84.55298 83.68726 84.55298 82.58678 84.55298 81.6947 83.6609 81.6947 82.56042 81.6947 81.45996 82.58678 80.56787 83.68726 80.56787 84.78772 80.56787 85.67981 81.45996 85.67981 82.56042ZM83.68726 82.56042"/>
<path transform="matrix(1.00002,0,0,-1.00009,12.9146389,119.67467)" d="M99.62769 83.42343C99.62769 84.52391 98.7356 85.41599 97.63513 85.41599 96.53465 85.41599 95.64258 84.52391 95.64258 83.42343 95.64258 82.32297 96.53465 81.43088 97.63513 81.43088 98.7356 81.43088 99.62769 82.32297 99.62769 83.42343ZM97.63513 83.42343"/>
<path transform="matrix(1.00002,0,0,-1.00009,12.9146389,119.67467)" stroke-width=".3985" stroke-linecap="butt" stroke-miterlimit="10" stroke-linejoin="miter" fill="none" stroke="#000000" d="M99.62769 83.42343C99.62769 84.52391 98.7356 85.41599 97.63513 85.41599 96.53465 85.41599 95.64258 84.52391 95.64258 83.42343 95.64258 82.32297 96.53465 81.43088 97.63513 81.43088 98.7356 81.43088 99.62769 82.32297 99.62769 83.42343ZM97.63513 83.42343"/>
<path transform="matrix(1.00002,0,0,-1.00009,12.9146389,119.67467)" d="M113.57556 83.7111C113.57556 84.81157 112.68347 85.70366 111.58301 85.70366 110.48253 85.70366 109.59045 84.81157 109.59045 83.7111 109.59045 82.61063 110.48253 81.71855 111.58301 81.71855 112.68347 81.71855 113.57556 82.61063 113.57556 83.7111ZM111.58301 83.7111"/>
<path transform="matrix(1.00002,0,0,-1.00009,12.9146389,119.67467)" stroke-width=".3985" stroke-linecap="butt" stroke-miterlimit="10" stroke-linejoin="miter" fill="none" stroke="#000000" d="M113.57556 83.7111C113.57556 84.81157 112.68347 85.70366 111.58301 85.70366 110.48253 85.70366 109.59045 84.81157 109.59045 83.7111 109.59045 82.61063 110.48253 81.71855 111.58301 81.71855 112.68347 81.71855 113.57556 82.61063 113.57556 83.7111ZM111.58301 83.7111"/>
<path transform="matrix(1.00002,0,0,-1.00009,12.9146389,119.67467)" d="M127.52344 77.67009C127.52344 78.77057 126.63135 79.66264 125.53088 79.66264 124.4304 79.66264 123.53833 78.77057 123.53833 77.67009 123.53833 76.56963 124.4304 75.67754 125.53088 75.67754 126.63135 75.67754 127.52344 76.56963 127.52344 77.67009ZM125.53088 77.67009"/>
<path transform="matrix(1.00002,0,0,-1.00009,12.9146389,119.67467)" stroke-width=".3985" stroke-linecap="butt" stroke-miterlimit="10" stroke-linejoin="miter" fill="none" stroke="#000000" d="M127.52344 77.67009C127.52344 78.77057 126.63135 79.66264 125.53088 79.66264 124.4304 79.66264 123.53833 78.77057 123.53833 77.67009 123.53833 76.56963 124.4304 75.67754 125.53088 75.67754 126.63135 75.67754 127.52344 76.56963 127.52344 77.67009ZM125.53088 77.67009"/>
<path transform="matrix(1.00002,0,0,-1.00009,12.9146389,119.67467)" d="M141.47132 81.69743C141.47132 82.7979 140.57923 83.68999 139.47876 83.68999 138.37828 83.68999 137.4862 82.7979 137.4862 81.69743 137.4862 80.59695 138.37828 79.70488 139.47876 79.70488 140.57923 79.70488 141.47132 80.59695 141.47132 81.69743ZM139.47876 81.69743"/>
<path transform="matrix(1.00002,0,0,-1.00009,12.9146389,119.67467)" stroke-width=".3985" stroke-linecap="butt" stroke-miterlimit="10" stroke-linejoin="miter" fill="none" stroke="#000000" d="M141.47132 81.69743C141.47132 82.7979 140.57923 83.68999 139.47876 83.68999 138.37828 83.68999 137.4862 82.7979 137.4862 81.69743 137.4862 80.59695 138.37828 79.70488 139.47876 79.70488 140.57923 79.70488 141.47132 80.59695 141.47132 81.69743ZM139.47876 81.69743"/>
<path transform="matrix(1.00002,0,0,-1.00009,12.9146389,119.67467)" d="M155.41919 84.5741C155.41919 85.67458 154.5271 86.56665 153.42664 86.56665 152.32616 86.56665 151.43408 85.67458 151.43408 84.5741 151.43408 83.47363 152.32616 82.58154 153.42664 82.58154 154.5271 82.58154 155.41919 83.47363 155.41919 84.5741ZM153.42664 84.5741"/>
<path transform="matrix(1.00002,0,0,-1.00009,12.9146389,119.67467)" stroke-width=".3985" stroke-linecap="butt" stroke-miterlimit="10" stroke-linejoin="miter" fill="none" stroke="#000000" d="M155.41919 84.5741C155.41919 85.67458 154.5271 86.56665 153.42664 86.56665 152.32616 86.56665 151.43408 85.67458 151.43408 84.5741 151.43408 83.47363 152.32616 82.58154 153.42664 82.58154 154.5271 82.58154 155.41919 83.47363 155.41919 84.5741ZM153.42664 84.5741"/>
<path transform="matrix(1.00002,0,0,-1.00009,12.9146389,119.67467)" d="M169.36707 84.86177C169.36707 85.96223 168.47498 86.85432 167.37451 86.85432 166.27404 86.85432 165.38196 85.96223 165.38196 84.86177 165.38196 83.76129 166.27404 82.86922 167.37451 82.86922 168.47498 82.86922 169.36707 83.76129 169.36707 84.86177ZM167.37451 84.86177"/>
<path transform="matrix(1.00002,0,0,-1.00009,12.9146389,119.67467)" stroke-width=".3985" stroke-linecap="butt" stroke-miterlimit="10" stroke-linejoin="miter" fill="none" stroke="#000000" d="M169.36707 84.86177C169.36707 85.96223 168.47498 86.85432 167.37451 86.85432 166.27404 86.85432 165.38196 85.96223 165.38196 84.86177 165.38196 83.76129 166.27404 82.86922 167.37451 82.86922 168.47498 82.86922 169.36707 83.76129 169.36707 84.86177ZM167.37451 84.86177"/>
<path transform="matrix(1.00002,0,0,-1.00009,12.9146389,119.67467)" d="M183.31494 86.87544C183.31494 87.9759 182.42285 88.868 181.32239 88.868 180.22191 88.868 179.32984 87.9759 179.32984 86.87544 179.32984 85.77496 180.22191 84.88289 181.32239 84.88289 182.42285 84.88289 183.31494 85.77496 183.31494 86.87544ZM181.32239 86.87544"/>
<path transform="matrix(1.00002,0,0,-1.00009,12.9146389,119.67467)" stroke-width=".3985" stroke-linecap="butt" stroke-miterlimit="10" stroke-linejoin="miter" fill="none" stroke="#000000" d="M183.31494 86.87544C183.31494 87.9759 182.42285 88.868 181.32239 88.868 180.22191 88.868 179.32984 87.9759 179.32984 86.87544 179.32984 85.77496 180.22191 84.88289 181.32239 84.88289 182.42285 84.88289 183.31494 85.77496 183.31494 86.87544ZM181.32239 86.87544"/>
<path transform="matrix(1.00002,0,0,-1.00009,12.9146389,119.67467)" d="M197.26282 87.73843C197.26282 88.83891 196.37073 89.73099 195.27027 89.73099 194.16979 89.73099 193.27771 88.83891 193.27771 87.73843 193.27771 86.63797 194.16979 85.74588 195.27027 85.74588 196.37073 85.74588 197.26282 86.63797 197.26282 87.73843ZM195.27027 87.73843"/>
<path transform="matrix(1.00002,0,0,-1.00009,12.9146389,119.67467)" stroke-width=".3985" stroke-linecap="butt" stroke-miterlimit="10" stroke-linejoin="miter" fill="none" stroke="#000000" d="M197.26282 87.73843C197.26282 88.83891 196.37073 89.73099 195.27027 89.73099 194.16979 89.73099 193.27771 88.83891 193.27771 87.73843 193.27771 86.63797 194.16979 85.74588 195.27027 85.74588 196.37073 85.74588 197.26282 86.63797 197.26282 87.73843ZM195.27027 87.73843"/>
<path transform="matrix(1.00002,0,0,-1.00009,12.9146389,119.67467)" d="M211.2107 89.46445C211.2107 90.56491 210.3186 91.457 209.21814 91.457 208.11766 91.457 207.22559 90.56491 207.22559 89.46445 207.22559 88.36397 208.11766 87.4719 209.21814 87.4719 210.3186 87.4719 211.2107 88.36397 211.2107 89.46445ZM209.21814 89.46445"/>
<path transform="matrix(1.00002,0,0,-1.00009,12.9146389,119.67467)" stroke-width=".3985" stroke-linecap="butt" stroke-miterlimit="10" stroke-linejoin="miter" fill="none" stroke="#000000" d="M211.2107 89.46445C211.2107 90.56491 210.3186 91.457 209.21814 91.457 208.11766 91.457 207.22559 90.56491 207.22559 89.46445 207.22559 88.36397 208.11766 87.4719 209.21814 87.4719 210.3186 87.4719 211.2107 88.36397 211.2107 89.46445ZM209.21814 89.46445"/>
<path transform="matrix(1.00002,0,0,-1.00009,12.9146389,119.67467)" d="M225.15857 89.7521C225.15857 90.85258 224.26648 91.74466 223.16602 91.74466 222.06554 91.74466 221.17346 90.85258 221.17346 89.7521 221.17346 88.65164 222.06554 87.75955 223.16602 87.75955 224.26648 87.75955 225.15857 88.65164 225.15857 89.7521ZM223.16602 89.7521"/>
<path transform="matrix(1.00002,0,0,-1.00009,12.9146389,119.67467)" stroke-width=".3985" stroke-linecap="butt" stroke-miterlimit="10" stroke-linejoin="miter" fill="none" stroke="#000000" d="M225.15857 89.7521C225.15857 90.85258 224.26648 91.74466 223.16602 91.74466 222.06554 91.74466 221.17346 90.85258 221.17346 89.7521 221.17346 88.65164 222.06554 87.75955 223.16602 87.75955 224.26648 87.75955 225.15857 88.65164 225.15857 89.7521ZM223.16602 89.7521"/>
<path transform="matrix(1.00002,0,0,-1.00009,12.9146389,119.67467)" d="M239.10645 89.17677C239.10645 90.27725 238.21436 91.16933 237.11389 91.16933 236.01342 91.16933 235.12134 90.27725 235.12134 89.17677 235.12134 88.07631 236.01342 87.18422 237.11389 87.18422 238.21436 87.18422 239.10645 88.07631 239.10645 89.17677ZM237.11389 89.17677"/>
<path transform="matrix(1.00002,0,0,-1.00009,12.9146389,119.67467)" stroke-width=".3985" stroke-linecap="butt" stroke-miterlimit="10" stroke-linejoin="miter" fill="none" stroke="#000000" d="M239.10645 89.17677C239.10645 90.27725 238.21436 91.16933 237.11389 91.16933 236.01342 91.16933 235.12134 90.27725 235.12134 89.17677 235.12134 88.07631 236.01342 87.18422 237.11389 87.18422 238.21436 87.18422 239.10645 88.07631 239.10645 89.17677ZM237.11389 89.17677"/>
<path transform="matrix(1.00002,0,0,-1.00009,12.9146389,119.67467)" d="M253.05432 89.17677C253.05432 90.27725 252.16223 91.16933 251.06177 91.16933 249.96129 91.16933 249.06922 90.27725 249.06922 89.17677 249.06922 88.07631 249.96129 87.18422 251.06177 87.18422 252.16223 87.18422 253.05432 88.07631 253.05432 89.17677ZM251.06177 89.17677"/>
<path transform="matrix(1.00002,0,0,-1.00009,12.9146389,119.67467)" stroke-width=".3985" stroke-linecap="butt" stroke-miterlimit="10" stroke-linejoin="miter" fill="none" stroke="#000000" d="M253.05432 89.17677C253.05432 90.27725 252.16223 91.16933 251.06177 91.16933 249.96129 91.16933 249.06922 90.27725 249.06922 89.17677 249.06922 88.07631 249.96129 87.18422 251.06177 87.18422 252.16223 87.18422 253.05432 88.07631 253.05432 89.17677ZM251.06177 89.17677"/>
<path transform="matrix(1.00002,0,0,-1.00009,12.9146389,119.67467)" d="M267.0022 88.88911C267.0022 89.98958 266.1101 90.88167 265.00965 90.88167 263.90916 90.88167 263.0171 89.98958 263.0171 88.88911 263.0171 87.78864 263.90916 86.89656 265.00965 86.89656 266.1101 86.89656 267.0022 87.78864 267.0022 88.88911ZM265.00965 88.88911"/>
<path transform="matrix(1.00002,0,0,-1.00009,12.9146389,119.67467)" stroke-width=".3985" stroke-linecap="butt" stroke-miterlimit="10" stroke-linejoin="miter" fill="none" stroke="#000000" d="M267.0022 88.88911C267.0022 89.98958 266.1101 90.88167 265.00965 90.88167 263.90916 90.88167 263.0171 89.98958 263.0171 88.88911 263.0171 87.78864 263.90916 86.89656 265.00965 86.89656 266.1101 86.89656 267.0022 87.78864 267.0022 88.88911ZM265.00965 88.88911"/>
<path transform="matrix(1.00002,0,0,-1.00009,12.9146389,119.67467)" d="M280.95008 86.87544C280.95008 87.9759 280.05799 88.868 278.95753 88.868 277.85704 88.868 276.96498 87.9759 276.96498 86.87544 276.96498 85.77496 277.85704 84.88289 278.95753 84.88289 280.05799 84.88289 280.95008 85.77496 280.95008 86.87544ZM278.95753 86.87544"/>
<path transform="matrix(1.00002,0,0,-1.00009,12.9146389,119.67467)" stroke-width=".3985" stroke-linecap="butt" stroke-miterlimit="10" stroke-linejoin="miter" fill="none" stroke="#000000" d="M280.95008 86.87544C280.95008 87.9759 280.05799 88.868 278.95753 88.868 277.85704 88.868 276.96498 87.9759 276.96498 86.87544 276.96498 85.77496 277.85704 84.88289 278.95753 84.88289 280.05799 84.88289 280.95008 85.77496 280.95008 86.87544ZM278.95753 86.87544"/>
<path transform="matrix(1.00002,0,0,-1.00009,12.9146389,119.67467)" d="M294.89796 92.34111C294.89796 93.44159 294.00587 94.33366 292.9054 94.33366 291.80494 94.33366 290.91285 93.44159 290.91285 92.34111 290.91285 91.24065 291.80494 90.34856 292.9054 90.34856 294.00587 90.34856 294.89796 91.24065 294.89796 92.34111ZM292.9054 92.34111"/>
<path transform="matrix(1.00002,0,0,-1.00009,12.9146389,119.67467)" stroke-width=".3985" stroke-linecap="butt" stroke-miterlimit="10" stroke-linejoin="miter" fill="none" stroke="#000000" d="M294.89796 92.34111C294.89796 93.44159 294.00587 94.33366 292.9054 94.33366 291.80494 94.33366 290.91285 93.44159 290.91285 92.34111 290.91285 91.24065 291.80494 90.34856 292.9054 90.34856 294.00587 90.34856 294.89796 91.24065 294.89796 92.34111ZM292.9054 92.34111"/>
<path transform="matrix(1.00002,0,0,-1.00009,12.9146389,119.67467)" stroke-width=".3985" stroke-linecap="butt" stroke-miterlimit="10" stroke-linejoin="miter" fill="none" stroke="#000000" d=""/>
<use data-text="y" xlink:href="#font_4_118" transform="matrix(9.962799,0,0,-9.963496,339.80619,114.11217)"/>
<use data-text="e" xlink:href="#font_4_50" transform="matrix(9.962799,0,0,-9.963496,344.79756,114.11217)"/>
<use data-text="a" xlink:href="#font_4_28" transform="matrix(9.962799,0,0,-9.963496,349.22105,114.11217)"/>
<use data-text="r" xlink:href="#font_4_96" transform="matrix(9.962799,0,0,-9.963496,354.20246,114.11217)"/>
<use data-text="p" xlink:href="#font_4_84" transform="matrix(9.962799,0,0,-9.963496,16.43471,14.245178)"/>
<use data-text="e" xlink:href="#font_4_50" transform="matrix(9.962799,0,0,-9.963496,22.252989,14.245178)"/>
<use data-text="r" xlink:href="#font_4_96" transform="matrix(9.962799,0,0,-9.963496,26.67647,14.245178)"/>
<use data-text="c" xlink:href="#font_4_43" transform="matrix(9.962799,0,0,-9.963496,30.581885,14.245178)"/>
<use data-text="e" xlink:href="#font_4_50" transform="matrix(9.962799,0,0,-9.963496,35.00537,14.245178)"/>
<use data-text="n" xlink:href="#font_4_77" transform="matrix(9.962799,0,0,-9.963496,39.428857,14.245178)"/>
<use data-text="t" xlink:href="#font_4_105" transform="matrix(9.962799,0,0,-9.963496,44.69918,14.245178)"/>
<use data-text="a" xlink:href="#font_4_28" transform="matrix(9.962799,0,0,-9.963496,48.574708,14.245178)"/>
<use data-text="g" xlink:href="#font_4_59" transform="matrix(9.962799,0,0,-9.963496,53.556108,14.245178)"/>
<use data-text="e" xlink:href="#font_4_50" transform="matrix(9.962799,0,0,-9.963496,58.537508,14.245178)"/>
</svg>
