<svg xmlns="http://www.w3.org/2000/svg" xmlns:xlink="http://www.w3.org/1999/xlink" version="1.1" width="196" height="178" viewBox="0 0 196 178">
<defs>
<path id="font_1_107" d="M.47698976 .17900086H.44599916C.44299317 .15899658 .43499757 .10899353 .4229889 .08999634 .4169922 .08198547 .34098817 .08198547 .32499696 .08198547H.14698792L.28199769 .20399475C.2979889 .2190094 .33999635 .2519989 .35598756 .26600648 .41799928 .3230133 .47698976 .37802125 .47698976 .46902467 .47698976 .58802798 .3769989 .66503909 .2519989 .66503909 .13198853 .6651764 .052993776 .574173 .052993776 .48516847 .052993776 .4361725 .09199524 .4291687 .10598755 .4291687 .1269989 .4291687 .1579895 .4441681 .1579895 .48217774 .1579895 .5341797 .10798645 .5341797 .09599304 .5341797 .125 .6070709 .19198609 .6320343 .24099732 .6320343 .33399964 .6320343 .38198854 .55314639 .38198854 .46917726 .38198854 .36517335 .30899049 .2891693 .19099427 .16816712L.06498718 .03817749C.052993776 .026992798 .052993776 .024993897 .052993776 0H.44799806L.47698976 .17900086Z"/>
<path id="font_1_121" d="M.4889984 .31877137C.4889984 .42585755 .47799684 .49090577 .44499208 .55496218 .40098573 .6430359 .31999208 .66503909 .2649994 .66503909 .13899231 .66503909 .09298706 .5709839 .07899475 .5429535 .042999269 .4698944 .040985109 .3708191 .040985109 .31877137 .040985109 .25271607 .04399109 .15162659 .09199524 .07156372 .13798523-.0024871827 .21199036-.021484375 .2649994-.021484375 .31298829-.021484375 .39898683-.0064849855 .44898988 .09257507 .48599244 .16464234 .4889984 .2537079 .4889984 .31877137M.3999939 .33078004C.3999939 .27172853 .3999939 .18165589 .3880005 .12561035 .36698915 .020523072 .2979889 .006515503 .2649994 .006515503 .23098755 .006515503 .1619873 .022521973 .14099121 .12760926 .12998963 .18466187 .12998963 .2787323 .12998963 .33078004 .12998963 .3998413 .12998963 .4698944 .14099121 .5249481 .1619873 .6270294 .23999024 .6370239 .2649994 .6370239 .29899598 .6370239 .36799623 .62002566 .3880005 .5289459 .3999939 .4738922 .3999939 .39883424 .3999939 .33078004Z"/>
<path id="font_1_56" d="M.47698976 .19924927C.47698976 .31576539 .3929901 .4189453 .2749939 .4189453 .22499085 .4189453 .17799378 .40293885 .13999939 .36886598V.5618439C.15299988 .55784609 .19299317 .54785159 .23498535 .54785159 .3600006 .54785159 .43598939 .63586428 .43598939 .6509552 .43598939 .6620178 .42900086 .66503909 .42399598 .66503909 .42399598 .66503909 .41999818 .66503909 .41099549 .66000369 .37199403 .6449127 .32598878 .632843 .27198792 .632843 .21299744 .632843 .1639862 .64793398 .1329956 .66000369 .12298584 .66503909 .11999512 .66503909 .11999512 .66503909 .10699463 .66503909 .10699463 .6539612 .10699463 .63586428V.34277345C.10699463 .32476808 .10699463 .3127594 .12298584 .3127594 .1309967 .3127594 .13398743 .31677247 .13899231 .32476808 .15098572 .33976747 .18899536 .39093019 .27398683 .39093019 .32998658 .39093019 .35699464 .34477235 .3659973 .3257599 .3829956 .2896576 .3849945 .24345398 .3849945 .20426941 .3849945 .16725159 .38398744 .11325073 .35598756 .069366458 .33699037 .03942871 .29699708 .008514404 .24398804 .008514404 .1789856 .008514404 .114990238 .04940796 .09199524 .11425781 .09498596 .11387634 .101989749 .11387634 .101989749 .11387634 .12998963 .11387634 .1519928 .13188172 .1519928 .16288758 .1519928 .19989014 .12298584 .21289063 .102996829 .21289063 .084991458 .21289063 .052993776 .20288086 .052993776 .15988159 .052993776 .069732669 .1309967-.021484375 .24598694-.021484375 .37098695-.021743775 .47698976 .07525635 .47698976 .19924927Z"/>
<path id="font_1_82" d="M.44699098 0V.032989503H.4119873C.31698609 .032989503 .31399537 .04499817 .31399537 .08203125V.6371765C.31399537 .664032 .31199647 .66503909 .2849884 .66503909 .24398804 .6252289 .19099427 .6013489 .09599304 .6013489V.5683594C.12298584 .5683594 .1769867 .5683594 .23498535 .5953522V.08203125C.23498535 .04499817 .23199463 .032989503 .13699341 .032989503H.101989749V0C.14299011 .0029907227 .22898865 .0029907227 .27398683 .0029907227 .31900025 .0029907227 .4059906 .0029907227 .44699098 0Z"/>
<path id="font_1_106" d="M.48599244 .17131043C.48599244 .25431825 .41999818 .330307 .31799317 .35231019 .39698792 .38031007 .45599366 .44831849 .45599366 .5283203 .45599366 .6080475 .3659973 .66503909 .2619934 .66503909 .15499878 .66503909 .07398987 .6070404 .07398987 .53105166 .07398987 .49404908 .09899902 .4780426 .125 .4780426 .1559906 .4780426 .17599488 .5000458 .17599488 .52905276 .17599488 .56604006 .14399719 .5800476 .12199402 .5810547 .1639862 .6360321 .24099732 .6390381 .25898744 .6390381 .2849884 .63931277 .36099244 .63131716 .36099244 .5283203 .36099244 .458313 .33198548 .41630555 .31799317 .40031434 .28799439 .36930848 .2649994 .36730958 .20399475 .36331178 .18499756 .36231996 .1769867 .36131288 .1769867 .34831239 .1769867 .3343048 .18598938 .3343048 .20298767 .3343048H.25299073C.33198548 .3343048 .38198854 .27630616 .38198854 .17131043 .38198854 .045440675 .31098939 .008514404 .2579956 .008514404 .20298767 .008514404 .12799073 .0284729 .09298706 .08137512 .1289978 .08137512 .1539917 .10437012 .1539917 .13737488 .1539917 .16937256 .1309967 .19238281 .09899902 .19238281 .07199097 .19238281 .04399109 .17536927 .04399109 .13537598 .04399109 .04045105 .1459961-.021484375 .2599945-.021484375 .3929901-.021484375 .48599244 .070388797 .48599244 .17037964V.17131043Z"/>
<path id="font_2_6" d="M.13999939 .5618439C.15299988 .55784609 .19299317 .54785159 .23498535 .54785159 .3600006 .54785159 .43598939 .6358948 .43598939 .6510315 .43598939 .6620331 .42900086 .66503909 .42399598 .66503909 .42199708 .66503909 .41999818 .66503909 .41099549 .6600342 .37199403 .6450348 .32598878 .632843 .27198792 .632843 .21299744 .632843 .1639862 .6480255 .1329956 .6600342 .12298584 .66503909 .12098694 .66503909 .11999512 .66503909 .10699463 .66503909 .10699463 .6540375 .10699463 .6358948V.34292604C.10699463 .32492066 .10699463 .312912 .12298584 .312912 .1309967 .312912 .13398743 .3169098 .13899231 .32492066 .15098572 .33992005 .18899536 .39093019 .27398683 .39093019 .32998658 .39093019 .35699464 .34492494 .3659973 .32591249 .3829956 .28990174 .3849945 .24389649 .3849945 .20487976 .3849945 .1678772 .38398744 .11387634 .35598756 .069732669 .33699037 .039611818 .29699708 .008514404 .24398804 .008514404 .1789856 .008514404 .114990238 .0496521 .09199524 .11488342 .09498596 .11387634 .100997928 .11387634 .101989749 .11387634 .12998963 .11387634 .1519928 .13188172 .1519928 .16288758 .1519928 .19989014 .12298584 .21289063 .102996829 .21289063 .084991458 .21289063 .052993776 .20288086 .052993776 .15988159 .052993776 .069732669 .1309967-.021484375 .24598694-.021484375 .37098695-.021484375 .47698976 .07574463 .47698976 .19989014 .47698976 .31591798 .3929901 .4189453 .2749939 .4189453 .22499085 .4189453 .17799378 .40293885 .13999939 .368927V.5618439Z"/>
<path id="font_2_2" d="M.31399537 .63708499C.31399537 .664032 .31199647 .66503909 .2849884 .66503909 .24398804 .6251831 .19099427 .6013489 .09599304 .6013489V.5683594C.12298584 .5683594 .1769867 .5683594 .23498535 .5953522V.08203125C.23498535 .04499817 .23199463 .032989503 .13699341 .032989503H.101989749V0C.14299011 .0029907227 .22898865 .0029907227 .27398683 .0029907227 .31900025 .0029907227 .4059906 .0029907227 .44699098 0V.032989503H.4119873C.31698609 .032989503 .31399537 .04499817 .31399537 .08203125V.63708499Z"/>
<path id="font_2_1" d="M.4889984 .31877137C.4889984 .42585755 .47799684 .49090577 .44499208 .55496218 .40098573 .6430359 .31999208 .66503909 .2649994 .66503909 .13899231 .66503909 .09298706 .5709839 .07899475 .5429535 .042999269 .4698944 .040985109 .3708191 .040985109 .31877137 .040985109 .25271607 .04399109 .15162659 .09199524 .07156372 .13798523-.0024871827 .21199036-.021484375 .2649994-.021484375 .31298829-.021484375 .39898683-.0064849855 .44898988 .09257507 .48599244 .16464234 .4889984 .2537079 .4889984 .31877137M.2649994 .006515503C.23098755 .006515503 .1619873 .022521973 .14099121 .12760926 .12998963 .18466187 .12998963 .2787323 .12998963 .33078004 .12998963 .3998413 .12998963 .4698944 .14099121 .5249481 .1619873 .6270294 .23999024 .6370239 .2649994 .6370239 .29899598 .6370239 .36799623 .62002566 .3880005 .5289459 .3999939 .4738922 .3999939 .39883424 .3999939 .33078004 .3999939 .27172853 .3999939 .18165589 .3880005 .12561035 .36698915 .020523072 .2979889 .006515503 .2649994 .006515503Z"/>
<path id="font_2_3" d="M.28199769 .20405579C.2979889 .21907044 .33999635 .2520752 .35598756 .26608277 .41799928 .32312013 .47698976 .3781433 .47698976 .46917726 .47698976 .588089 .3769989 .66503909 .2519989 .66503909 .13198853 .66503909 .052993776 .57411196 .052993776 .48516847 .052993776 .4361725 .09199524 .4291687 .10598755 .4291687 .1269989 .4291687 .1579895 .4441681 .1579895 .48217774 .1579895 .5341797 .10798645 .5341797 .09599304 .5341797 .125 .6070709 .19198609 .6320343 .24099732 .6320343 .33399964 .6320343 .38198854 .55314639 .38198854 .46917726 .38198854 .36514283 .30899049 .28910829 .19099427 .16804505L.06498718 .037994386C.052993776 .026992798 .052993776 .024993897 .052993776 0H.44799806L.47698976 .17904663H.44599916C.44299317 .1590271 .43499757 .10900879 .4229889 .08999634 .4169922 .08198547 .34098817 .08198547 .32499696 .08198547H.14698792L.28199769 .20405579Z"/>
<path id="font_2_4" d="M.25299073 .33370973C.33198548 .33370973 .38198854 .27557374 .38198854 .17037964 .38198854 .045440675 .31098939 .008514404 .2579956 .008514404 .20298767 .008514404 .12799073 .0284729 .09298706 .08137512 .1289978 .08137512 .1539917 .10437012 .1539917 .13737488 .1539917 .16937256 .1309967 .19238281 .09899902 .19238281 .07199097 .19238281 .04399109 .17536927 .04399109 .13537598 .04399109 .04045105 .1459961-.021484375 .2599945-.021484375 .3929901-.021484375 .48599244 .070388797 .48599244 .17037964 .48599244 .25352479 .41999818 .32969667 .31799317 .3517456 .39698792 .37982179 .45599366 .4479828 .45599366 .52804568 .45599366 .6080475 .3659973 .66503909 .2619934 .66503909 .15499878 .66503909 .07398987 .6070404 .07398987 .53105166 .07398987 .49404908 .09899902 .4780426 .125 .4780426 .1559906 .4780426 .17599488 .5000458 .17599488 .52905276 .17599488 .56604006 .14399719 .5800476 .12199402 .5810547 .1639862 .6360321 .24099732 .6390381 .25898744 .6390381 .2849884 .6390381 .36099244 .6310272 .36099244 .52804568 .36099244 .45799256 .33198548 .41589356 .31799317 .39985658 .28799439 .36878968 .2649994 .36679078 .20399475 .3627777 .18499756 .36177064 .1769867 .36076356 .1769867 .3477478 .1769867 .33370973 .18598938 .33370973 .20298767 .33370973H.25299073Z"/>
<path id="font_2_5" d="M.3939972 .6468048C.3939972 .6667938 .3939972 .6748047 .37298585 .6748047 .3600006 .6748047 .35899354 .6737976 .34899903 .65979006L.02999878 .197052V.1640625H.31199647V.08100891C.31199647 .04399109 .30899049 .032989503 .23199463 .032989503H.20899964V0C.2939911 .0029907227 .29599 .0029907227 .35299684 .0029907227 .4099884 .0029907227 .4119873 .0029907227 .49699403 0V.032989503H.47399903C.39698792 .032989503 .3939972 .04399109 .3939972 .08100891V.1640625H.5V.197052H.3939972V.6468048M.31900025 .5658417V.197052H.06498718L.31900025 .5658417Z"/>
<clipPath id="clip_3">
<path transform="matrix(1.00003,0,0,-1.00008,12.914959,154.98007)" d="M0 0H174.34738V150.37189H0Z"/>
</clipPath>
<path id="font_4_118" d="M.5079956 .3996582V.43066407C.4850006 .4286499 .45599366 .42765809 .43299867 .42765809L.34599305 .43066407V.3996582C.3769989 .39866639 .3929901 .3816681 .3929901 .35668946 .3929901 .34669496 .3919983 .34469605 .3869934 .33270265L.28599549 .08685303 .1749878 .35568238C.17098999 .36567689 .16899109 .36967469 .16899109 .3736725 .16899109 .3996582 .20599365 .3996582 .22499085 .3996582V.43066407L.115997318 .42765809C.08898926 .42765809 .04899597 .4286499 .018997193 .43066407V.3996582C.066986087 .3996582 .085998538 .3996582 .099990848 .36468507L.25-.000091552738 .22499085-.059066774C.20298767-.11407471 .1749878-.18309021 .11099243-.18309021 .10598755-.18309021 .08299255-.18309021 .06399536-.16503906 .09498596-.16104126 .102996829-.13905335 .102996829-.123046878 .102996829-.0970459 .083999637-.08103943 .06098938-.08103943 .040985109-.08103943 .018997193-.09403992 .018997193-.124053958 .018997193-.16905213 .06098938-.20507813 .11099243-.20507813 .17399597-.20507813 .21499634-.14804077 .23899842-.091049198L.4149933 .33569337C.44099427 .39865113 .49198915 .3996582 .5079956 .3996582Z"/>
<path id="font_4_50" d="M.4149933 .11933899C.4149933 .12934876 .40699769 .13134766 .4019928 .13134766 .3929901 .13134766 .3909912 .12535095 .3889923 .11734009 .35398866 .014251709 .2639923 .014251709 .2539978 .014251709 .20399475 .014251709 .1639862 .044281007 .14099121 .08131409 .11099243 .12934876 .11099243 .19540406 .11099243 .23144531H.3899994C.4119873 .23144531 .4149933 .23144531 .4149933 .2524414 .4149933 .35131837 .36099244 .4482422 .23599243 .4482422 .11999512 .4482422 .027999878 .34532167 .027999878 .22042847 .027999878 .08631897 .1329956-.0107421879 .24798584-.0107421879 .36999513-.0107421879 .4149933 .10032654 .4149933 .11933899M.34899903 .2524414H.11199951C.117996219 .40126039 .20199585 .426239 .23599243 .426239 .33898927 .426239 .34899903 .2913971 .34899903 .2524414Z"/>
<path id="font_4_28" d="M.48298646 .08912659V.14511109H.45799256V.08912659C.45799256 .03112793 .43299867 .025131226 .42199708 .025131226 .3889923 .025131226 .3849945 .070129398 .3849945 .07511902V.27508546C.3849945 .31707765 .3849945 .3560791 .34899903 .39312745 .30999757 .43223573 .2599945 .4482422 .21199036 .4482422 .12998963 .4482422 .06098938 .40115357 .06098938 .335083 .06098938 .30508424 .08099365 .28808595 .10699463 .28808595 .1349945 .28808595 .15299988 .30807496 .15299988 .33407594 .15299988 .3460846 .147995 .37908937 .101989749 .38008119 .1289978 .41519166 .17799378 .426239 .20999146 .426239 .25898744 .426239 .31599427 .38710023 .31599427 .29808045V.26107789C.2649994 .25808717 .19499207 .25508119 .13198853 .22509766 .056991579 .19110108 .03199768 .13911438 .03199768 .09512329 .03199768 .014251709 .1289978-.0107421879 .19198609-.0107421879 .2579956-.0107421879 .3039856 .029251099 .32299806 .07624817 .32699586 .036132814 .35398866-.005859375 .40098573-.005859375 .42199708-.005859375 .48298646 .008132935 .48298646 .08912659M.31599427 .14013672C.31599427 .04525757 .24398804 .011245728 .19898987 .011245728 .1499939 .011245728 .10899353 .04624939 .10899353 .09625244 .10899353 .15124512 .15098572 .23425293 .31599427 .24024964V.14013672Z"/>
<path id="font_4_96" d="M.3639984 .38137818C.3639984 .41337586 .33299256 .4423828 .2899933 .4423828 .21699524 .4423828 .18099976 .37538148 .16699219 .3323822V.4423828L.027999878 .43066407V.3996582C.09799194 .3996582 .10598755 .39266969 .10598755 .34370423V.07595825C.10598755 .0309906 .09498596 .0309906 .027999878 .0309906V0L.14199829 .0029907227C.18199158 .0029907227 .22898865 .0029907227 .2689972 0V.0309906H.24798584C.17399597 .0309906 .17199707 .04197693 .17199707 .07795715V.23181153C.17199707 .33137513 .21398926 .42037965 .2899933 .42037965 .29699708 .42037965 .29899598 .42037965 .30099488 .41937257 .2979889 .41838075 .27799989 .40637208 .27799989 .3803711 .27799989 .35237123 .29899598 .33737184 .32099916 .33737184 .33898927 .33737184 .3639984 .3493805 .3639984 .38137818Z"/>
<path id="font_4_84" d="M.5209961 .21636963C.5209961 .34336854 .42399598 .4423828 .31199647 .4423828 .23399353 .4423828 .19198609 .39837647 .17199707 .3763733V.4423828L.027999878 .43066407V.3996582C.09899902 .3996582 .10598755 .3936615 .10598755 .34973146V-.117996219C.10598755-.16308594 .09498596-.16308594 .027999878-.16308594V-.1940918L.13999939-.19110108 .25299073-.1940918V-.16308594C.18598938-.16308594 .1749878-.16308594 .1749878-.117996219V.050186159 .059173585C.17999268 .04319763 .22200012-.0107421879 .2979889-.0107421879 .4169922-.0107421879 .5209961 .087127689 .5209961 .21594239V.21636963M.43798829 .21594239C.43798829 .09512329 .36799623 .011245728 .2939911 .011245728 .2539978 .011245728 .21598816 .031219483 .18899536 .07215881 .1749878 .09312439 .1749878 .09411621 .1749878 .114089969V.33674623C.20399475 .38838197 .25299073 .41737367 .3039856 .41737367 .3769989 .41737367 .43798829 .32937623 .43798829 .21636963V.21594239Z"/>
<path id="font_4_43" d="M.4149933 .119140628C.4149933 .12911988 .40499879 .12911988 .4019928 .12911988 .3929901 .12911988 .3909912 .12512207 .3889923 .119140628 .3600006 .026229859 .29499818 .014251709 .2579956 .014251709 .20498657 .014251709 .116989139 .0572052 .116989139 .21801758 .116989139 .38093568 .19898987 .42323304 .2519989 .42323304 .26098634 .42323304 .32398988 .42222596 .35899354 .38594056 .31799317 .38293458 .31199647 .3529358 .31199647 .3399353 .31199647 .31393434 .32998658 .2939453 .35798646 .2939453 .38398744 .2939453 .4039917 .3109436 .4039917 .34094239 .4039917 .40911866 .32798768 .4482422 .25099183 .4482422 .12599182 .4482422 .033996583 .3399353 .033996583 .21601868 .033996583 .08816528 .1329956-.0107421879 .24899292-.0107421879 .3829956-.0107421879 .4149933 .10914612 .4149933 .119140628Z"/>
<path id="font_4_77" d="M.5349884 0V.0309906C.48298646 .0309906 .45799256 .0309906 .45700074 .061019899V.25221253C.45700074 .3383026 .45700074 .36932374 .42599488 .405365 .4119873 .42237855 .3789978 .4423828 .32099916 .4423828 .24798584 .4423828 .20098877 .39935304 .17298889 .33729554V.4423828L.03199768 .43066407V.3996582C.101989749 .3996582 .10998535 .39266969 .10998535 .34370423V.07595825C.10998535 .0309906 .09899902 .0309906 .03199768 .0309906V0L.14498902 .0029907227 .25698854 0V.0309906C.18998719 .0309906 .1789856 .0309906 .1789856 .07595825V.25978089C.1789856 .36431886 .25 .42037965 .31399537 .42037965 .3769989 .42037965 .3880005 .36631776 .3880005 .30926515V.076034549C.3880005 .0309906 .3769989 .0309906 .30999757 .0309906V0L.4229889 .0029907227 .5349884 0Z"/>
<path id="font_4_105" d="M.33198548 .12385559V.18066406H.30699159V.12585449C.30699159 .052108766 .2769928 .014251709 .23999024 .014251709 .17298889 .014251709 .17298889 .10491943 .17298889 .12187195V.3996582H.31599427V.43066407H.17298889V.6142578H.147995C.14698792 .5324249 .116989139 .42565919 .018997193 .42166139V.3996582H.10398865V.12408447C.10398865 .0012512207 .19699097-.0107421879 .23298645-.0107421879 .3039856-.0107421879 .33198548 .060180665 .33198548 .12408447V.12385559Z"/>
<path id="font_4_59" d="M.4850006 .40411378C.4850006 .42111207 .47299195 .453125 .43399049 .453125 .4139862 .453125 .36999513 .44711305 .32798768 .40611268 .28599549 .43937684 .24398804 .4423828 .22200012 .4423828 .1289978 .4423828 .05999756 .37338258 .05999756 .29638673 .05999756 .25239564 .08198547 .21440125 .10699463 .19340515 .09399414 .17840576 .07598877 .14538574 .07598877 .11035156 .07598877 .07899475 .08898926 .04083252 .11999512 .020828248 .05999756 .003829956 .027999878-.039138795 .027999878-.07911682 .027999878-.15107727 .1269989-.20605469 .24899292-.20605469 .36698915-.20605469 .47099305-.15507508 .47099305-.07711792 .47099305-.042144777 .45700074 .008834839 .4059906 .036834718 .35299684 .064834598 .29499818 .064834598 .23399353 .064834598 .20899964 .064834598 .1659851 .064834598 .15899658 .065841678 .1269989 .069885257 .10598755 .101242069 .10598755 .13334656 .10598755 .13735962 .10598755 .16040039 .12298584 .18040467 .1619873 .15240479 .20298767 .14941406 .22200012 .14941406 .31498719 .14941406 .38398744 .21839905 .38398744 .2953949 .38398744 .3323822 .36799623 .36938478 .34298707 .39237977 .3789978 .42637635 .4149933 .43138124 .43299867 .43138124 .43299867 .43112184 .43998719 .43112184 .44299317 .43011476 .43199159 .42611695 .4269867 .41513063 .4269867 .40315248 .4269867 .38616944 .43998719 .37417604 .45599366 .37417604 .46598817 .37417604 .4850006 .3811798 .4850006 .4041443V.40411378M.30899049 .29626466C.30899049 .26930238 .30799867 .2373352 .29299928 .21235657 .2849884 .20037842 .2619934 .17240906 .22200012 .17240906 .1349945 .17240906 .1349945 .2722931 .1349945 .29527284 .1349945 .3222351 .13598633 .35420228 .15098572 .3791809 .15899658 .3913269 .18199158 .41937257 .22200012 .41937257 .30899049 .41937257 .30899049 .31922914 .30899049 .29618836V.29626466M.4189911-.07911682C.4189911-.13308716 .34799195-.18305969 .25-.18305969 .14898682-.18305969 .07998657-.13209534 .07998657-.07911682 .07998657-.03314209 .117996219 .003829956 .1619873 .0068359377H.22099304C.30699159 .0068359377 .4189911 .0068359377 .4189911-.07911682Z"/>
</defs>
<path transform="matrix(1.00003,0,0,-1.00008,12.914959,154.98007)" d="M0 0H174.34738V150.37189H0Z" fill="#fffac2"/>
<path transform="matrix(1.00003,0,0,-1.00008,12.914959,154.98007)" stroke-width=".3985" stroke-linecap="butt" stroke-miterlimit="10" stroke-linejoin="miter" fill="none" stroke="#d5d6d5" d=""/>
<path transform="matrix(1.00003,0,0,-1.00008,12.914959,154.98007)" stroke-width=".3985" stroke-linecap="butt" stroke-miterlimit="10" stroke-linejoin="miter" fill="none" stroke="#d5d6d5" d="M29.05789 0V150.37189M58.11578 0V150.37189M87.17369 0V150.37189M116.23158 0V150.37189M145.28948 0V150.37189M174.34738 0V150.37189"/>
<path transform="matrix(1.00003,0,0,-1.00008,12.914959,154.98007)" stroke-width=".3985" stroke-linecap="butt" stroke-miterlimit="10" stroke-linejoin="miter" fill="none" stroke="#d5d6d5" d="M0 18.79648H174.34738M0 37.59297H174.34738M0 56.38945H174.34738M0 75.18594H174.34738M0 93.98242H174.34738M0 112.77892H174.34738M0 131.5754H174.34738M0 150.37189H174.34738"/>
<path transform="matrix(1.00003,0,0,-1.00008,12.914959,154.98007)" stroke-width=".19925" stroke-linecap="butt" stroke-miterlimit="10" stroke-linejoin="miter" fill="none" stroke="#929292" d=""/>
<path transform="matrix(1.00003,0,0,-1.00008,12.914959,154.98007)" stroke-width=".19925" stroke-linecap="butt" stroke-miterlimit="10" stroke-linejoin="miter" fill="none" stroke="#929292" d="M29.05789-2.12593V2.12593M58.11578-2.12593V2.12593M87.17369-2.12593V2.12593M116.23158-2.12593V2.12593M145.28948-2.12593V2.12593M174.34738-2.12593V2.12593"/>
<path transform="matrix(1.00003,0,0,-1.00008,12.914959,154.98007)" stroke-width=".19925" stroke-linecap="butt" stroke-miterlimit="10" stroke-linejoin="miter" fill="none" stroke="#929292" d="M-2.1255 18.79648H2.1255M-2.1255 37.59297H2.1255M-2.1255 56.38945H2.1255M-2.1255 75.18594H2.1255M-2.1255 93.98242H2.1255M-2.1255 112.77892H2.1255M-2.1255 131.5754H2.1255M-2.1255 150.37189H2.1255"/>
<path transform="matrix(1.00003,0,0,-1.00008,12.914959,154.98007)" stroke-width=".3985" stroke-linecap="butt" stroke-miterlimit="10" stroke-linejoin="miter" fill="none" stroke="#000000" d="M0 0H172.35486"/>
<path transform="matrix(1.00003,0,0,-1.00008,185.275,154.98007)" d="M1.99252 0-1.19551 1.59401 0 0-1.19551-1.59401"/>
<path transform="matrix(1.00003,0,0,-1.00008,12.914959,154.98007)" stroke-width=".3985" stroke-linecap="butt" stroke-miterlimit="10" stroke-linejoin="miter" fill="none" stroke="#000000" d="M0 0V148.37937"/>
<path transform="matrix(0,-1.00008,-1.00003,-0,12.914959,6.5888369)" d="M1.99252 0-1.19551 1.59401 0 0-1.19551-1.59401"/>
<use data-text="2" xlink:href="#font_1_107" transform="matrix(5.6358268,5.6361086,5.6358268,-5.6361086,34.173585,165.83182)"/>
<use data-text="0" xlink:href="#font_1_121" transform="matrix(5.6358268,5.6361086,5.6358268,-5.6361086,37.1662,168.82459)"/>
<use data-text="0" xlink:href="#font_1_121" transform="matrix(5.6358268,5.6361086,5.6358268,-5.6361086,40.15883,171.81737)"/>
<use data-text="5" xlink:href="#font_1_56" transform="matrix(5.6358268,5.6361086,5.6358268,-5.6361086,43.151456,174.81014)"/>
<use data-text="2" xlink:href="#font_1_107" transform="matrix(5.6358268,5.6361086,5.6358268,-5.6361086,63.232454,165.83182)"/>
<use data-text="0" xlink:href="#font_1_121" transform="matrix(5.6358268,5.6361086,5.6358268,-5.6361086,66.22507,168.82459)"/>
<use data-text="1" xlink:href="#font_1_82" transform="matrix(5.6358268,5.6361086,5.6358268,-5.6361086,69.2177,171.81737)"/>
<use data-text="0" xlink:href="#font_1_121" transform="matrix(5.6358268,5.6361086,5.6358268,-5.6361086,72.21033,174.81014)"/>
<use data-text="2" xlink:href="#font_1_107" transform="matrix(5.6358268,5.6361086,5.6358268,-5.6361086,92.29132,165.83182)"/>
<use data-text="0" xlink:href="#font_1_121" transform="matrix(5.6358268,5.6361086,5.6358268,-5.6361086,95.283939,168.82459)"/>
<use data-text="1" xlink:href="#font_1_82" transform="matrix(5.6358268,5.6361086,5.6358268,-5.6361086,98.276569,171.81737)"/>
<use data-text="5" xlink:href="#font_1_56" transform="matrix(5.6358268,5.6361086,5.6358268,-5.6361086,101.269199,174.81014)"/>
<use data-text="2" xlink:href="#font_1_107" transform="matrix(5.6358268,5.6361086,5.6358268,-5.6361086,121.35019,165.83182)"/>
<use data-text="0" xlink:href="#font_1_121" transform="matrix(5.6358268,5.6361086,5.6358268,-5.6361086,124.342807,168.82459)"/>
<use data-text="2" xlink:href="#font_1_107" transform="matrix(5.6358268,5.6361086,5.6358268,-5.6361086,127.335437,171.81737)"/>
<use data-text="0" xlink:href="#font_1_121" transform="matrix(5.6358268,5.6361086,5.6358268,-5.6361086,130.32807,174.81014)"/>
<use data-text="2" xlink:href="#font_1_107" transform="matrix(5.6358268,5.6361086,5.6358268,-5.6361086,150.40906,165.83182)"/>
<use data-text="0" xlink:href="#font_1_121" transform="matrix(5.6358268,5.6361086,5.6358268,-5.6361086,153.40167,168.82459)"/>
<use data-text="2" xlink:href="#font_1_107" transform="matrix(5.6358268,5.6361086,5.6358268,-5.6361086,156.3943,171.81737)"/>
<use data-text="5" xlink:href="#font_1_56" transform="matrix(5.6358268,5.6361086,5.6358268,-5.6361086,159.38694,174.81014)"/>
<use data-text="2" xlink:href="#font_1_107" transform="matrix(5.6358268,5.6361086,5.6358268,-5.6361086,179.46694,165.83182)"/>
<use data-text="0" xlink:href="#font_1_121" transform="matrix(5.6358268,5.6361086,5.6358268,-5.6361086,182.45955,168.82459)"/>
<use data-text="3" xlink:href="#font_1_106" transform="matrix(5.6358268,5.6361086,5.6358268,-5.6361086,185.45218,171.81737)"/>
<use data-text="0" xlink:href="#font_1_121" transform="matrix(5.6358268,5.6361086,5.6358268,-5.6361086,188.44481,174.81014)"/>
<use data-text="5" xlink:href="#font_2_6" transform="matrix(7.9703395,0,0,-7.9707376,4.92572,138.75078)"/>
<use data-text="1" xlink:href="#font_2_2" transform="matrix(7.9703395,0,0,-7.9707376,.69159319,119.95227)"/>
<use data-text="0" xlink:href="#font_2_1" transform="matrix(7.9703395,0,0,-7.9707376,4.9238436,119.95227)"/>
<use data-text="1" xlink:href="#font_2_2" transform="matrix(7.9703395,0,0,-7.9707376,.69159319,101.15477)"/>
<use data-text="5" xlink:href="#font_2_6" transform="matrix(7.9703395,0,0,-7.9707376,4.9238436,101.15477)"/>
<use data-text="2" xlink:href="#font_2_3" transform="matrix(7.9703395,0,0,-7.9707376,.69159319,82.35627)"/>
<use data-text="0" xlink:href="#font_2_1" transform="matrix(7.9703395,0,0,-7.9707376,4.9238436,82.35627)"/>
<use data-text="2" xlink:href="#font_2_3" transform="matrix(7.9703395,0,0,-7.9707376,.69159319,63.55876)"/>
<use data-text="5" xlink:href="#font_2_6" transform="matrix(7.9703395,0,0,-7.9707376,4.9238436,63.55876)"/>
<use data-text="3" xlink:href="#font_2_4" transform="matrix(7.9703395,0,0,-7.9707376,.69159319,44.76026)"/>
<use data-text="0" xlink:href="#font_2_1" transform="matrix(7.9703395,0,0,-7.9707376,4.9238436,44.76026)"/>
<use data-text="3" xlink:href="#font_2_4" transform="matrix(7.9703395,0,0,-7.9707376,.69159319,25.962754)"/>
<use data-text="5" xlink:href="#font_2_6" transform="matrix(7.9703395,0,0,-7.9707376,4.9238436,25.962754)"/>
<use data-text="4" xlink:href="#font_2_5" transform="matrix(7.9703395,0,0,-7.9707376,.69159319,7.1642458)"/>
<use data-text="0" xlink:href="#font_2_1" transform="matrix(7.9703395,0,0,-7.9707376,4.9238436,7.1642458)"/>
<g clip-path="url(#clip_3)">
</g>
<path transform="matrix(1.00003,0,0,-1.00008,12.914959,154.98007)" d="M1.99255 103.00473C1.99255 104.10521 1.10046 104.99728 0 104.99728-1.10046 104.99728-1.99255 104.10521-1.99255 103.00473-1.99255 101.90427-1.10046 101.01218 0 101.01218 1.10046 101.01218 1.99255 101.90427 1.99255 103.00473ZM0 103.00473"/>
<path transform="matrix(1.00003,0,0,-1.00008,12.914959,154.98007)" stroke-width=".3985" stroke-linecap="butt" stroke-miterlimit="10" stroke-linejoin="miter" fill="none" stroke="#000000" d="M1.99255 103.00473C1.99255 104.10521 1.10046 104.99728 0 104.99728-1.10046 104.99728-1.99255 104.10521-1.99255 103.00473-1.99255 101.90427-1.10046 101.01218 0 101.01218 1.10046 101.01218 1.99255 101.90427 1.99255 103.00473ZM0 103.00473"/>
<path transform="matrix(1.00003,0,0,-1.00008,12.914959,154.98007)" d="M7.80412 97.36578C7.80412 98.46626 6.91205 99.35834 5.81157 99.35834 4.7111 99.35834 3.81902 98.46626 3.81902 97.36578 3.81902 96.26532 4.7111 95.37323 5.81157 95.37323 6.91205 95.37323 7.80412 96.26532 7.80412 97.36578ZM5.81157 97.36578"/>
<path transform="matrix(1.00003,0,0,-1.00008,12.914959,154.98007)" stroke-width=".3985" stroke-linecap="butt" stroke-miterlimit="10" stroke-linejoin="miter" fill="none" stroke="#000000" d="M7.80412 97.36578C7.80412 98.46626 6.91205 99.35834 5.81157 99.35834 4.7111 99.35834 3.81902 98.46626 3.81902 97.36578 3.81902 96.26532 4.7111 95.37323 5.81157 95.37323 6.91205 95.37323 7.80412 96.26532 7.80412 97.36578ZM5.81157 97.36578"/>
<path transform="matrix(1.00003,0,0,-1.00008,12.914959,154.98007)" d="M13.6157 95.11021C13.6157 96.21068 12.72362 97.10277 11.62315 97.10277 10.52267 97.10277 9.6306 96.21068 9.6306 95.11021 9.6306 94.00974 10.52267 93.11766 11.62315 93.11766 12.72362 93.11766 13.6157 94.00974 13.6157 95.11021ZM11.62315 95.11021"/>
<path transform="matrix(1.00003,0,0,-1.00008,12.914959,154.98007)" stroke-width=".3985" stroke-linecap="butt" stroke-miterlimit="10" stroke-linejoin="miter" fill="none" stroke="#000000" d="M13.6157 95.11021C13.6157 96.21068 12.72362 97.10277 11.62315 97.10277 10.52267 97.10277 9.6306 96.21068 9.6306 95.11021 9.6306 94.00974 10.52267 93.11766 11.62315 93.11766 12.72362 93.11766 13.6157 94.00974 13.6157 95.11021ZM11.62315 95.11021"/>
<path transform="matrix(1.00003,0,0,-1.00008,12.914959,154.98007)" d="M19.42729 95.48615C19.42729 96.58661 18.5352 97.4787 17.43474 97.4787 16.33426 97.4787 15.44218 96.58661 15.44218 95.48615 15.44218 94.38567 16.33426 93.49359 17.43474 93.49359 18.5352 93.49359 19.42729 94.38567 19.42729 95.48615ZM17.43474 95.48615"/>
<path transform="matrix(1.00003,0,0,-1.00008,12.914959,154.98007)" stroke-width=".3985" stroke-linecap="butt" stroke-miterlimit="10" stroke-linejoin="miter" fill="none" stroke="#000000" d="M19.42729 95.48615C19.42729 96.58661 18.5352 97.4787 17.43474 97.4787 16.33426 97.4787 15.44218 96.58661 15.44218 95.48615 15.44218 94.38567 16.33426 93.49359 17.43474 93.49359 18.5352 93.49359 19.42729 94.38567 19.42729 95.48615ZM17.43474 95.48615"/>
<path transform="matrix(1.00003,0,0,-1.00008,12.914959,154.98007)" d="M25.23886 100.74916C25.23886 101.84962 24.34679 102.74171 23.2463 102.74171 22.14584 102.74171 21.25375 101.84962 21.25375 100.74916 21.25375 99.64868 22.14584 98.7566 23.2463 98.7566 24.34679 98.7566 25.23886 99.64868 25.23886 100.74916ZM23.2463 100.74916"/>
<path transform="matrix(1.00003,0,0,-1.00008,12.914959,154.98007)" stroke-width=".3985" stroke-linecap="butt" stroke-miterlimit="10" stroke-linejoin="miter" fill="none" stroke="#000000" d="M25.23886 100.74916C25.23886 101.84962 24.34679 102.74171 23.2463 102.74171 22.14584 102.74171 21.25375 101.84962 21.25375 100.74916 21.25375 99.64868 22.14584 98.7566 23.2463 98.7566 24.34679 98.7566 25.23886 99.64868 25.23886 100.74916ZM23.2463 100.74916"/>
<path transform="matrix(1.00003,0,0,-1.00008,12.914959,154.98007)" d="M31.05045 102.25288C31.05045 103.35335 30.15836 104.24544 29.05789 104.24544 27.95741 104.24544 27.06534 103.35335 27.06534 102.25288 27.06534 101.1524 27.95741 100.26033 29.05789 100.26033 30.15836 100.26033 31.05045 101.1524 31.05045 102.25288ZM29.05789 102.25288"/>
<path transform="matrix(1.00003,0,0,-1.00008,12.914959,154.98007)" stroke-width=".3985" stroke-linecap="butt" stroke-miterlimit="10" stroke-linejoin="miter" fill="none" stroke="#000000" d="M31.05045 102.25288C31.05045 103.35335 30.15836 104.24544 29.05789 104.24544 27.95741 104.24544 27.06534 103.35335 27.06534 102.25288 27.06534 101.1524 27.95741 100.26033 29.05789 100.26033 30.15836 100.26033 31.05045 101.1524 31.05045 102.25288ZM29.05789 102.25288"/>
<path transform="matrix(1.00003,0,0,-1.00008,12.914959,154.98007)" d="M36.86203 105.26031C36.86203 106.36078 35.96994 107.25287 34.86948 107.25287 33.769 107.25287 32.87692 106.36078 32.87692 105.26031 32.87692 104.15985 33.769 103.26776 34.86948 103.26776 35.96994 103.26776 36.86203 104.15985 36.86203 105.26031ZM34.86948 105.26031"/>
<path transform="matrix(1.00003,0,0,-1.00008,12.914959,154.98007)" stroke-width=".3985" stroke-linecap="butt" stroke-miterlimit="10" stroke-linejoin="miter" fill="none" stroke="#000000" d="M36.86203 105.26031C36.86203 106.36078 35.96994 107.25287 34.86948 107.25287 33.769 107.25287 32.87692 106.36078 32.87692 105.26031 32.87692 104.15985 33.769 103.26776 34.86948 103.26776 35.96994 103.26776 36.86203 104.15985 36.86203 105.26031ZM34.86948 105.26031"/>
<path transform="matrix(1.00003,0,0,-1.00008,12.914959,154.98007)" d="M42.6736 108.26775C42.6736 109.36823 41.78152 110.2603 40.68105 110.2603 39.58058 110.2603 38.68849 109.36823 38.68849 108.26775 38.68849 107.16728 39.58058 106.27519 40.68105 106.27519 41.78152 106.27519 42.6736 107.16728 42.6736 108.26775ZM40.68105 108.26775"/>
<path transform="matrix(1.00003,0,0,-1.00008,12.914959,154.98007)" stroke-width=".3985" stroke-linecap="butt" stroke-miterlimit="10" stroke-linejoin="miter" fill="none" stroke="#000000" d="M42.6736 108.26775C42.6736 109.36823 41.78152 110.2603 40.68105 110.2603 39.58058 110.2603 38.68849 109.36823 38.68849 108.26775 38.68849 107.16728 39.58058 106.27519 40.68105 106.27519 41.78152 106.27519 42.6736 107.16728 42.6736 108.26775ZM40.68105 108.26775"/>
<path transform="matrix(1.00003,0,0,-1.00008,12.914959,154.98007)" d="M48.48518 106.01218C48.48518 107.11264 47.5931 108.00473 46.49263 108.00473 45.39215 108.00473 44.50008 107.11264 44.50008 106.01218 44.50008 104.9117 45.39215 104.01962 46.49263 104.01962 47.5931 104.01962 48.48518 104.9117 48.48518 106.01218ZM46.49263 106.01218"/>
<path transform="matrix(1.00003,0,0,-1.00008,12.914959,154.98007)" stroke-width=".3985" stroke-linecap="butt" stroke-miterlimit="10" stroke-linejoin="miter" fill="none" stroke="#000000" d="M48.48518 106.01218C48.48518 107.11264 47.5931 108.00473 46.49263 108.00473 45.39215 108.00473 44.50008 107.11264 44.50008 106.01218 44.50008 104.9117 45.39215 104.01962 46.49263 104.01962 47.5931 104.01962 48.48518 104.9117 48.48518 106.01218ZM46.49263 106.01218"/>
<path transform="matrix(1.00003,0,0,-1.00008,12.914959,154.98007)" d="M54.29677 104.50845C54.29677 105.60893 53.40468 106.501 52.30421 106.501 51.20374 106.501 50.31166 105.60893 50.31166 104.50845 50.31166 103.40799 51.20374 102.5159 52.30421 102.5159 53.40468 102.5159 54.29677 103.40799 54.29677 104.50845ZM52.30421 104.50845"/>
<path transform="matrix(1.00003,0,0,-1.00008,12.914959,154.98007)" stroke-width=".3985" stroke-linecap="butt" stroke-miterlimit="10" stroke-linejoin="miter" fill="none" stroke="#000000" d="M54.29677 104.50845C54.29677 105.60893 53.40468 106.501 52.30421 106.501 51.20374 106.501 50.31166 105.60893 50.31166 104.50845 50.31166 103.40799 51.20374 102.5159 52.30421 102.5159 53.40468 102.5159 54.29677 103.40799 54.29677 104.50845ZM52.30421 104.50845"/>
<path transform="matrix(1.00003,0,0,-1.00008,12.914959,154.98007)" d="M60.10834 106.76404C60.10834 107.8645 59.21626 108.75659 58.11578 108.75659 57.01532 108.75659 56.12323 107.8645 56.12323 106.76404 56.12323 105.66356 57.01532 104.77148 58.11578 104.77148 59.21626 104.77148 60.10834 105.66356 60.10834 106.76404ZM58.11578 106.76404"/>
<path transform="matrix(1.00003,0,0,-1.00008,12.914959,154.98007)" stroke-width=".3985" stroke-linecap="butt" stroke-miterlimit="10" stroke-linejoin="miter" fill="none" stroke="#000000" d="M60.10834 106.76404C60.10834 107.8645 59.21626 108.75659 58.11578 108.75659 57.01532 108.75659 56.12323 107.8645 56.12323 106.76404 56.12323 105.66356 57.01532 104.77148 58.11578 104.77148 59.21626 104.77148 60.10834 105.66356 60.10834 106.76404ZM58.11578 106.76404"/>
<path transform="matrix(1.00003,0,0,-1.00008,12.914959,154.98007)" d="M65.91992 109.0196C65.91992 110.12009 65.02783 111.01216 63.92737 111.01216 62.82689 111.01216 61.93481 110.12009 61.93481 109.0196 61.93481 107.91914 62.82689 107.02705 63.92737 107.02705 65.02783 107.02705 65.91992 107.91914 65.91992 109.0196ZM63.92737 109.0196"/>
<path transform="matrix(1.00003,0,0,-1.00008,12.914959,154.98007)" stroke-width=".3985" stroke-linecap="butt" stroke-miterlimit="10" stroke-linejoin="miter" fill="none" stroke="#000000" d="M65.91992 109.0196C65.91992 110.12009 65.02783 111.01216 63.92737 111.01216 62.82689 111.01216 61.93481 110.12009 61.93481 109.0196 61.93481 107.91914 62.82689 107.02705 63.92737 107.02705 65.02783 107.02705 65.91992 107.91914 65.91992 109.0196ZM63.92737 109.0196"/>
<path transform="matrix(1.00003,0,0,-1.00008,12.914959,154.98007)" d="M71.7315 110.89926C71.7315 111.99973 70.83942 112.89182 69.73895 112.89182 68.63847 112.89182 67.7464 111.99973 67.7464 110.89926 67.7464 109.79878 68.63847 108.90671 69.73895 108.90671 70.83942 108.90671 71.7315 109.79878 71.7315 110.89926ZM69.73895 110.89926"/>
<path transform="matrix(1.00003,0,0,-1.00008,12.914959,154.98007)" stroke-width=".3985" stroke-linecap="butt" stroke-miterlimit="10" stroke-linejoin="miter" fill="none" stroke="#000000" d="M71.7315 110.89926C71.7315 111.99973 70.83942 112.89182 69.73895 112.89182 68.63847 112.89182 67.7464 111.99973 67.7464 110.89926 67.7464 109.79878 68.63847 108.90671 69.73895 108.90671 70.83942 108.90671 71.7315 109.79878 71.7315 110.89926ZM69.73895 110.89926"/>
<path transform="matrix(1.00003,0,0,-1.00008,12.914959,154.98007)" d="M77.54308 112.02705C77.54308 113.12752 76.651 114.0196 75.55052 114.0196 74.45006 114.0196 73.55797 113.12752 73.55797 112.02705 73.55797 110.92657 74.45006 110.0345 75.55052 110.0345 76.651 110.0345 77.54308 110.92657 77.54308 112.02705ZM75.55052 112.02705"/>
<path transform="matrix(1.00003,0,0,-1.00008,12.914959,154.98007)" stroke-width=".3985" stroke-linecap="butt" stroke-miterlimit="10" stroke-linejoin="miter" fill="none" stroke="#000000" d="M77.54308 112.02705C77.54308 113.12752 76.651 114.0196 75.55052 114.0196 74.45006 114.0196 73.55797 113.12752 73.55797 112.02705 73.55797 110.92657 74.45006 110.0345 75.55052 110.0345 76.651 110.0345 77.54308 110.92657 77.54308 112.02705ZM75.55052 112.02705"/>
<path transform="matrix(1.00003,0,0,-1.00008,12.914959,154.98007)" d="M83.35466 114.28262C83.35466 115.3831 82.46257 116.27518 81.3621 116.27518 80.26163 116.27518 79.36955 115.3831 79.36955 114.28262 79.36955 113.18216 80.26163 112.29007 81.3621 112.29007 82.46257 112.29007 83.35466 113.18216 83.35466 114.28262ZM81.3621 114.28262"/>
<path transform="matrix(1.00003,0,0,-1.00008,12.914959,154.98007)" stroke-width=".3985" stroke-linecap="butt" stroke-miterlimit="10" stroke-linejoin="miter" fill="none" stroke="#000000" d="M83.35466 114.28262C83.35466 115.3831 82.46257 116.27518 81.3621 116.27518 80.26163 116.27518 79.36955 115.3831 79.36955 114.28262 79.36955 113.18216 80.26163 112.29007 81.3621 112.29007 82.46257 112.29007 83.35466 113.18216 83.35466 114.28262ZM81.3621 114.28262"/>
<path transform="matrix(1.00003,0,0,-1.00008,12.914959,154.98007)" d="M89.16624 115.41042C89.16624 116.5109 88.27415 117.40297 87.17369 117.40297 86.07321 117.40297 85.18114 116.5109 85.18114 115.41042 85.18114 114.30995 86.07321 113.41786 87.17369 113.41786 88.27415 113.41786 89.16624 114.30995 89.16624 115.41042ZM87.17369 115.41042"/>
<path transform="matrix(1.00003,0,0,-1.00008,12.914959,154.98007)" stroke-width=".3985" stroke-linecap="butt" stroke-miterlimit="10" stroke-linejoin="miter" fill="none" stroke="#000000" d="M89.16624 115.41042C89.16624 116.5109 88.27415 117.40297 87.17369 117.40297 86.07321 117.40297 85.18114 116.5109 85.18114 115.41042 85.18114 114.30995 86.07321 113.41786 87.17369 113.41786 88.27415 113.41786 89.16624 114.30995 89.16624 115.41042ZM87.17369 115.41042"/>
<path transform="matrix(1.00003,0,0,-1.00008,12.914959,154.98007)" d="M94.97781 115.41042C94.97781 116.5109 94.08574 117.40297 92.98526 117.40297 91.8848 117.40297 90.9927 116.5109 90.9927 115.41042 90.9927 114.30995 91.8848 113.41786 92.98526 113.41786 94.08574 113.41786 94.97781 114.30995 94.97781 115.41042ZM92.98526 115.41042"/>
<path transform="matrix(1.00003,0,0,-1.00008,12.914959,154.98007)" stroke-width=".3985" stroke-linecap="butt" stroke-miterlimit="10" stroke-linejoin="miter" fill="none" stroke="#000000" d="M94.97781 115.41042C94.97781 116.5109 94.08574 117.40297 92.98526 117.40297 91.8848 117.40297 90.9927 116.5109 90.9927 115.41042 90.9927 114.30995 91.8848 113.41786 92.98526 113.41786 94.08574 113.41786 94.97781 114.30995 94.97781 115.41042ZM92.98526 115.41042"/>
<path transform="matrix(1.00003,0,0,-1.00008,12.914959,154.98007)" d="M100.7894 115.41042C100.7894 116.5109 99.89731 117.40297 98.79684 117.40297 97.69637 117.40297 96.80429 116.5109 96.80429 115.41042 96.80429 114.30995 97.69637 113.41786 98.79684 113.41786 99.89731 113.41786 100.7894 114.30995 100.7894 115.41042ZM98.79684 115.41042"/>
<path transform="matrix(1.00003,0,0,-1.00008,12.914959,154.98007)" stroke-width=".3985" stroke-linecap="butt" stroke-miterlimit="10" stroke-linejoin="miter" fill="none" stroke="#000000" d="M100.7894 115.41042C100.7894 116.5109 99.89731 117.40297 98.79684 117.40297 97.69637 117.40297 96.80429 116.5109 96.80429 115.41042 96.80429 114.30995 97.69637 113.41786 98.79684 113.41786 99.89731 113.41786 100.7894 114.30995 100.7894 115.41042ZM98.79684 115.41042"/>
<path transform="matrix(1.00003,0,0,-1.00008,12.914959,154.98007)" d="M106.60098 114.65855C106.60098 115.75903 105.7089 116.65111 104.60843 116.65111 103.50795 116.65111 102.61588 115.75903 102.61588 114.65855 102.61588 113.55809 103.50795 112.666 104.60843 112.666 105.7089 112.666 106.60098 113.55809 106.60098 114.65855ZM104.60843 114.65855"/>
<path transform="matrix(1.00003,0,0,-1.00008,12.914959,154.98007)" stroke-width=".3985" stroke-linecap="butt" stroke-miterlimit="10" stroke-linejoin="miter" fill="none" stroke="#000000" d="M106.60098 114.65855C106.60098 115.75903 105.7089 116.65111 104.60843 116.65111 103.50795 116.65111 102.61588 115.75903 102.61588 114.65855 102.61588 113.55809 103.50795 112.666 104.60843 112.666 105.7089 112.666 106.60098 113.55809 106.60098 114.65855ZM104.60843 114.65855"/>
<path transform="matrix(1.00003,0,0,-1.00008,12.914959,154.98007)" d="M112.41255 115.03448C112.41255 116.13496 111.52048 117.02704 110.42 117.02704 109.31953 117.02704 108.42744 116.13496 108.42744 115.03448 108.42744 113.93402 109.31953 113.04193 110.42 113.04193 111.52048 113.04193 112.41255 113.93402 112.41255 115.03448ZM110.42 115.03448"/>
<path transform="matrix(1.00003,0,0,-1.00008,12.914959,154.98007)" stroke-width=".3985" stroke-linecap="butt" stroke-miterlimit="10" stroke-linejoin="miter" fill="none" stroke="#000000" d="M112.41255 115.03448C112.41255 116.13496 111.52048 117.02704 110.42 117.02704 109.31953 117.02704 108.42744 116.13496 108.42744 115.03448 108.42744 113.93402 109.31953 113.04193 110.42 113.04193 111.52048 113.04193 112.41255 113.93402 112.41255 115.03448ZM110.42 115.03448"/>
<path transform="matrix(1.00003,0,0,-1.00008,12.914959,154.98007)" d="M118.22414 112.40298C118.22414 113.50345 117.33205 114.39554 116.23158 114.39554 115.13112 114.39554 114.23903 113.50345 114.23903 112.40298 114.23903 111.3025 115.13112 110.41043 116.23158 110.41043 117.33205 110.41043 118.22414 111.3025 118.22414 112.40298ZM116.23158 112.40298"/>
<path transform="matrix(1.00003,0,0,-1.00008,12.914959,154.98007)" stroke-width=".3985" stroke-linecap="butt" stroke-miterlimit="10" stroke-linejoin="miter" fill="none" stroke="#000000" d="M118.22414 112.40298C118.22414 113.50345 117.33205 114.39554 116.23158 114.39554 115.13112 114.39554 114.23903 113.50345 114.23903 112.40298 114.23903 111.3025 115.13112 110.41043 116.23158 110.41043 117.33205 110.41043 118.22414 111.3025 118.22414 112.40298ZM116.23158 112.40298"/>
<path transform="matrix(1.00003,0,0,-1.00008,12.914959,154.98007)" d="M124.03572 115.78635C124.03572 116.88683 123.14363 117.7789 122.04317 117.7789 120.94269 117.7789 120.05061 116.88683 120.05061 115.78635 120.05061 114.68588 120.94269 113.7938 122.04317 113.7938 123.14363 113.7938 124.03572 114.68588 124.03572 115.78635ZM122.04317 115.78635"/>
<path transform="matrix(1.00003,0,0,-1.00008,12.914959,154.98007)" stroke-width=".3985" stroke-linecap="butt" stroke-miterlimit="10" stroke-linejoin="miter" fill="none" stroke="#000000" d="M124.03572 115.78635C124.03572 116.88683 123.14363 117.7789 122.04317 117.7789 120.94269 117.7789 120.05061 116.88683 120.05061 115.78635 120.05061 114.68588 120.94269 113.7938 122.04317 113.7938 123.14363 113.7938 124.03572 114.68588 124.03572 115.78635ZM122.04317 115.78635"/>
<path transform="matrix(1.00003,0,0,-1.00008,12.914959,154.98007)" d="M129.84729 112.02705C129.84729 113.12752 128.95522 114.0196 127.85474 114.0196 126.75427 114.0196 125.86218 113.12752 125.86218 112.02705 125.86218 110.92657 126.75427 110.0345 127.85474 110.0345 128.95522 110.0345 129.84729 110.92657 129.84729 112.02705ZM127.85474 112.02705"/>
<path transform="matrix(1.00003,0,0,-1.00008,12.914959,154.98007)" stroke-width=".3985" stroke-linecap="butt" stroke-miterlimit="10" stroke-linejoin="miter" fill="none" stroke="#000000" d="M129.84729 112.02705C129.84729 113.12752 128.95522 114.0196 127.85474 114.0196 126.75427 114.0196 125.86218 113.12752 125.86218 112.02705 125.86218 110.92657 126.75427 110.0345 127.85474 110.0345 128.95522 110.0345 129.84729 110.92657 129.84729 112.02705ZM127.85474 112.02705"/>
<path transform="matrix(1.00003,0,0,-1.00008,12.914959,154.98007)" d="M135.65888 113.15485C135.65888 114.25531 134.7668 115.1474 133.66632 115.1474 132.56586 115.1474 131.67377 114.25531 131.67377 113.15485 131.67377 112.05437 132.56586 111.1623 133.66632 111.1623 134.7668 111.1623 135.65888 112.05437 135.65888 113.15485ZM133.66632 113.15485"/>
<path transform="matrix(1.00003,0,0,-1.00008,12.914959,154.98007)" stroke-width=".3985" stroke-linecap="butt" stroke-miterlimit="10" stroke-linejoin="miter" fill="none" stroke="#000000" d="M135.65888 113.15485C135.65888 114.25531 134.7668 115.1474 133.66632 115.1474 132.56586 115.1474 131.67377 114.25531 131.67377 113.15485 131.67377 112.05437 132.56586 111.1623 133.66632 111.1623 134.7668 111.1623 135.65888 112.05437 135.65888 113.15485ZM133.66632 113.15485"/>
<path transform="matrix(1.00003,0,0,-1.00008,12.914959,154.98007)" d="M141.47046 115.41042C141.47046 116.5109 140.57837 117.40297 139.4779 117.40297 138.37743 117.40297 137.48535 116.5109 137.48535 115.41042 137.48535 114.30995 138.37743 113.41786 139.4779 113.41786 140.57837 113.41786 141.47046 114.30995 141.47046 115.41042ZM139.4779 115.41042"/>
<path transform="matrix(1.00003,0,0,-1.00008,12.914959,154.98007)" stroke-width=".3985" stroke-linecap="butt" stroke-miterlimit="10" stroke-linejoin="miter" fill="none" stroke="#000000" d="M141.47046 115.41042C141.47046 116.5109 140.57837 117.40297 139.4779 117.40297 138.37743 117.40297 137.48535 116.5109 137.48535 115.41042 137.48535 114.30995 138.37743 113.41786 139.4779 113.41786 140.57837 113.41786 141.47046 114.30995 141.47046 115.41042ZM139.4779 115.41042"/>
<path transform="matrix(1.00003,0,0,-1.00008,12.914959,154.98007)" d="M147.28203 117.29007C147.28203 118.39053 146.38996 119.28262 145.28948 119.28262 144.18901 119.28262 143.29692 118.39053 143.29692 117.29007 143.29692 116.18959 144.18901 115.29752 145.28948 115.29752 146.38996 115.29752 147.28203 116.18959 147.28203 117.29007ZM145.28948 117.29007"/>
<path transform="matrix(1.00003,0,0,-1.00008,12.914959,154.98007)" stroke-width=".3985" stroke-linecap="butt" stroke-miterlimit="10" stroke-linejoin="miter" fill="none" stroke="#000000" d="M147.28203 117.29007C147.28203 118.39053 146.38996 119.28262 145.28948 119.28262 144.18901 119.28262 143.29692 118.39053 143.29692 117.29007 143.29692 116.18959 144.18901 115.29752 145.28948 115.29752 146.38996 115.29752 147.28203 116.18959 147.28203 117.29007ZM145.28948 117.29007"/>
<path transform="matrix(1.00003,0,0,-1.00008,12.914959,154.98007)" stroke-width=".3985" stroke-linecap="butt" stroke-miterlimit="10" stroke-linejoin="miter" fill="none" stroke="#000000" d=""/>
<use data-text="y" xlink:href="#font_4_118" transform="matrix(9.962899,0,0,-9.963397,165.45554,149.41764)"/>
<use data-text="e" xlink:href="#font_4_50" transform="matrix(9.962899,0,0,-9.963397,170.44695,149.41764)"/>
<use data-text="a" xlink:href="#font_4_28" transform="matrix(9.962899,0,0,-9.963397,174.87047,149.41764)"/>
<use data-text="r" xlink:href="#font_4_96" transform="matrix(9.962899,0,0,-9.963397,179.85193,149.41764)"/>
<use data-text="p" xlink:href="#font_4_84" transform="matrix(9.962899,0,0,-9.963397,16.435065,14.243805)"/>
<use data-text="e" xlink:href="#font_4_50" transform="matrix(9.962899,0,0,-9.963397,22.2534,14.243805)"/>
<use data-text="r" xlink:href="#font_4_96" transform="matrix(9.962899,0,0,-9.963397,26.676924,14.243805)"/>
<use data-text="c" xlink:href="#font_4_43" transform="matrix(9.962899,0,0,-9.963397,30.58238,14.243805)"/>
<use data-text="e" xlink:href="#font_4_50" transform="matrix(9.962899,0,0,-9.963397,35.005914,14.243805)"/>
<use data-text="n" xlink:href="#font_4_77" transform="matrix(9.962899,0,0,-9.963397,39.429437,14.243805)"/>
<use data-text="t" xlink:href="#font_4_105" transform="matrix(9.962899,0,0,-9.963397,44.699815,14.243805)"/>
<use data-text="a" xlink:href="#font_4_28" transform="matrix(9.962899,0,0,-9.963397,48.57538,14.243805)"/>
<use data-text="g" xlink:href="#font_4_59" transform="matrix(9.962899,0,0,-9.963397,53.55683,14.243805)"/>
<use data-text="e" xlink:href="#font_4_50" transform="matrix(9.962899,0,0,-9.963397,58.538278,14.243805)"/>
</svg>
