<svg xmlns="http://www.w3.org/2000/svg" xmlns:xlink="http://www.w3.org/1999/xlink" version="1.1" width="359" height="129" viewBox="0 0 359 129">
<defs>
<path id="font_1_1" d="M.31399537 .63708499C.31399537 .664032 .31199647 .66503909 .2849884 .66503909 .24398804 .6251831 .19099427 .6013489 .09599304 .6013489V.5683594C.12298584 .5683594 .1769867 .5683594 .23498535 .5953522V.08203125C.23498535 .04499817 .23199463 .032989503 .13699341 .032989503H.101989749V0C.14299011 .0029907227 .22898865 .0029907227 .27398683 .0029907227 .31900025 .0029907227 .4059906 .0029907227 .44699098 0V.032989503H.4119873C.31698609 .032989503 .31399537 .04499817 .31399537 .08203125V.63708499Z"/>
<path id="font_1_2" d="M.28199769 .20405579C.2979889 .21907044 .33999635 .2520752 .35598756 .26608277 .41799928 .32312013 .47698976 .3781433 .47698976 .46917726 .47698976 .588089 .3769989 .66503909 .2519989 .66503909 .13198853 .66503909 .052993776 .57411196 .052993776 .48516847 .052993776 .4361725 .09199524 .4291687 .10598755 .4291687 .1269989 .4291687 .1579895 .4441681 .1579895 .48217774 .1579895 .5341797 .10798645 .5341797 .09599304 .5341797 .125 .6070709 .19198609 .6320343 .24099732 .6320343 .33399964 .6320343 .38198854 .55314639 .38198854 .46917726 .38198854 .36514283 .30899049 .28910829 .19099427 .16804505L.06498718 .037994386C.052993776 .026992798 .052993776 .024993897 .052993776 0H.44799806L.47698976 .17904663H.44599916C.44299317 .1590271 .43499757 .10900879 .4229889 .08999634 .4169922 .08198547 .34098817 .08198547 .32499696 .08198547H.14698792L.28199769 .20405579Z"/>
<path id="font_1_3" d="M.25299073 .33370973C.33198548 .33370973 .38198854 .27557374 .38198854 .17037964 .38198854 .045440675 .31098939 .008514404 .2579956 .008514404 .20298767 .008514404 .12799073 .0284729 .09298706 .08137512 .1289978 .08137512 .1539917 .10437012 .1539917 .13737488 .1539917 .16937256 .1309967 .19238281 .09899902 .19238281 .07199097 .19238281 .04399109 .17536927 .04399109 .13537598 .04399109 .04045105 .1459961-.021484375 .2599945-.021484375 .3929901-.021484375 .48599244 .070388797 .48599244 .17037964 .48599244 .25352479 .41999818 .32969667 .31799317 .3517456 .39698792 .37982179 .45599366 .4479828 .45599366 .52804568 .45599366 .6080475 .3659973 .66503909 .2619934 .66503909 .15499878 .66503909 .07398987 .6070404 .07398987 .53105166 .07398987 .49404908 .09899902 .4780426 .125 .4780426 .1559906 .4780426 .17599488 .5000458 .17599488 .52905276 .17599488 .56604006 .14399719 .5800476 .12199402 .5810547 .1639862 .6360321 .24099732 .6390381 .25898744 .6390381 .2849884 .6390381 .36099244 .6310272 .36099244 .52804568 .36099244 .45799256 .33198548 .41589356 .31799317 .39985658 .28799439 .36878968 .2649994 .36679078 .20399475 .3627777 .18499756 .36177064 .1769867 .36076356 .1769867 .3477478 .1769867 .33370973 .18598938 .33370973 .20298767 .33370973H.25299073Z"/>
<path id="font_1_4" d="M.3939972 .6468048C.3939972 .6667938 .3939972 .6748047 .37298585 .6748047 .3600006 .6748047 .35899354 .6737976 .34899903 .65979006L.02999878 .197052V.1640625H.31199647V.08100891C.31199647 .04399109 .30899049 .032989503 .23199463 .032989503H.20899964V0C.2939911 .0029907227 .29599 .0029907227 .35299684 .0029907227 .4099884 .0029907227 .4119873 .0029907227 .49699403 0V.032989503H.47399903C.39698792 .032989503 .3939972 .04399109 .3939972 .08100891V.1640625H.5V.197052H.3939972V.6468048M.31900025 .5658417V.197052H.06498718L.31900025 .5658417Z"/>
<path id="font_1_5" d="M.13999939 .5618439C.15299988 .55784609 .19299317 .54785159 .23498535 .54785159 .3600006 .54785159 .43598939 .6358948 .43598939 .6510315 .43598939 .6620331 .42900086 .66503909 .42399598 .66503909 .42199708 .66503909 .41999818 .66503909 .41099549 .6600342 .37199403 .6450348 .32598878 .632843 .27198792 .632843 .21299744 .632843 .1639862 .6480255 .1329956 .6600342 .12298584 .66503909 .12098694 .66503909 .11999512 .66503909 .10699463 .66503909 .10699463 .6540375 .10699463 .6358948V.34292604C.10699463 .32492066 .10699463 .312912 .12298584 .312912 .1309967 .312912 .13398743 .3169098 .13899231 .32492066 .15098572 .33992005 .18899536 .39093019 .27398683 .39093019 .32998658 .39093019 .35699464 .34492494 .3659973 .32591249 .3829956 .28990174 .3849945 .24389649 .3849945 .20487976 .3849945 .1678772 .38398744 .11387634 .35598756 .069732669 .33699037 .039611818 .29699708 .008514404 .24398804 .008514404 .1789856 .008514404 .114990238 .0496521 .09199524 .11488342 .09498596 .11387634 .100997928 .11387634 .101989749 .11387634 .12998963 .11387634 .1519928 .13188172 .1519928 .16288758 .1519928 .19989014 .12298584 .21289063 .102996829 .21289063 .084991458 .21289063 .052993776 .20288086 .052993776 .15988159 .052993776 .069732669 .1309967-.021484375 .24598694-.021484375 .37098695-.021484375 .47698976 .07574463 .47698976 .19989014 .47698976 .31591798 .3929901 .4189453 .2749939 .4189453 .22499085 .4189453 .17799378 .40293885 .13999939 .368927V.5618439Z"/>
<path id="font_1_6" d="M.13798523 .33073426C.13798523 .41377259 .14498902 .4868164 .18099976 .54782107 .21099854 .5978241 .2619934 .6390381 .32499696 .6390381 .34498597 .6390381 .3909912 .63601687 .4139862 .60084536 .36898805 .5988312 .36499024 .5648346 .36499024 .553833 .36499024 .5238342 .3880005 .50683596 .4119873 .50683596 .42999269 .50683596 .45899964 .51782229 .45899964 .5558319 .45899964 .615921 .4139862 .66503909 .32398988 .66503909 .18499756 .66503909 .04399109 .53282168 .04399109 .31672669 .04399109 .045532228 .16999817-.021484375 .2669983-.021484375 .31498719-.021484375 .36698915-.0084991459 .4119873 .03453064 .45199586 .07354736 .48599244 .11558533 .48599244 .20263672 .48599244 .33372499 .3869934 .42578126 .27598573 .42578126 .20399475 .42578126 .16099549 .37976075 .13798523 .33073426M.2669983 .008514404C.21398926 .008514404 .18099976 .045532228 .1659851 .07354736 .14299011 .11859131 .14099121 .18663025 .14099121 .22465515 .14099121 .32373048 .19499207 .3977661 .27198792 .3977661 .32199098 .3977661 .35198976 .37176515 .37098695 .33673097 .3919983 .29971314 .3919983 .25468446 .3919983 .2036438 .3919983 .15260315 .3919983 .10858154 .37199403 .07255554 .34599305 .026519776 .31098939 .008514404 .2669983 .008514404Z"/>
<path id="font_1_7" d="M.5059967 .608551C.5149994 .6195526 .5149994 .6215515 .5149994 .6435547H.26098634C.23599243 .6435547 .20498657 .64456179 .17999268 .64660647 .12799073 .65068057 .1269989 .6597748 .12399292 .67578127H.09298706L.05899048 .46453858H.08999634C.09199524 .47953797 .102996829 .54855349 .116989139 .5565491 .12799073 .56155398 .20298767 .56155398 .21798706 .56155398H.42999269L.32699586 .4235382C.21299744 .27153016 .18899536 .11351013 .18899536 .03451538 .18899536 .024505616 .18899536-.021484375 .23599243-.021484375 .2829895-.021484375 .2829895 .023513794 .2829895 .035507204V.08351135C.2829895 .2275238 .30699159 .34553529 .35598756 .41053773L.5059967 .608551Z"/>
<path id="font_1_8" d="M.33198548 .36080934C.3880005 .38783265 .45599366 .4378662 .45599366 .5159302 .45599366 .6110077 .35899354 .66503909 .2659912 .66503909 .1599884 .66503909 .07398987 .59199526 .07398987 .49790956 .07398987 .46089173 .08699036 .42686463 .11199951 .39782716 .1289978 .3768158 .1329956 .3748169 .19499207 .3357849 .070999149 .2807312 .04399109 .20767212 .04399109 .15162659 .04399109 .041534425 .15499878-.021484375 .2639923-.021484375 .3869934-.021484375 .48599244 .061553956 .48599244 .16764832 .48599244 .23069763 .45199586 .2727356 .43598939 .28974916 .4189911 .30575563 .41799928 .3067627 .33198548 .36080934M.1769867 .45487977C.147995 .4718933 .12399292 .5009155 .12399292 .5359497 .12399292 .598999 .19299317 .6390381 .2639923 .6390381 .34199525 .6390381 .4059906 .5859833 .4059906 .5159302 .4059906 .45788575 .36099244 .408844 .3019867 .37982179L.1769867 .45487977M.22599793 .31776429C.22999573 .31576539 .34399415 .24571228 .36099244 .23469544 .3769989 .22569275 .42900086 .19366455 .42900086 .13360596 .42900086 .056549074 .34799195 .008514404 .2659912 .008514404 .1769867 .008514404 .100997928 .06956482 .100997928 .15162659 .100997928 .22668457 .15699768 .28573609 .22599793 .31776429Z"/>
<clipPath id="clip_2">
<path transform="matrix(1.00003,0,0,-1.00003,8.68083,116.86511)" d="M0 0H348.69538V115.06377H0Z"/>
</clipPath>
<path id="font_3_104" d="M.68499758 .45214845 .66600039 .6767578H.054992677L.035995485 .45214845H.06098938C.07499695 .6128235 .08999634 .64575198 .24099732 .64575198 .25898744 .64575198 .2849884 .64575198 .29499818 .64375308 .31599427 .6397705 .31599427 .6287842 .31599427 .60583499V.07901001C.31599427 .04499817 .31599427 .0309906 .21099854 .0309906H.17098999V0C.21199036 .0029907227 .31399537 .0029907227 .3600006 .0029907227 .4059906 .0029907227 .5089874 .0029907227 .5499878 0V.0309906H.5099945C.40499879 .0309906 .40499879 .04499817 .40499879 .07901001V.60583499C.40499879 .62579348 .40499879 .6397705 .4229889 .64375308 .43399049 .64575198 .46099855 .64575198 .47999574 .64575198 .6309967 .64575198 .6459961 .6128235 .6599884 .45214845H.68499758Z"/>
<path id="font_3_96" d="M.3639984 .38137818C.3639984 .41337586 .33299256 .4423828 .2899933 .4423828 .21699524 .4423828 .18099976 .37538148 .16699219 .3323822V.4423828L.027999878 .43066407V.3996582C.09799194 .3996582 .10598755 .39266969 .10598755 .34370423V.07595825C.10598755 .0309906 .09498596 .0309906 .027999878 .0309906V0L.14199829 .0029907227C.18199158 .0029907227 .22898865 .0029907227 .2689972 0V.0309906H.24798584C.17399597 .0309906 .17199707 .04197693 .17199707 .07795715V.23181153C.17199707 .33137513 .21398926 .42037965 .2899933 .42037965 .29699708 .42037965 .29899598 .42037965 .30099488 .41937257 .2979889 .41838075 .27799989 .40637208 .27799989 .3803711 .27799989 .35237123 .29899598 .33737184 .32099916 .33737184 .33898927 .33737184 .3639984 .3493805 .3639984 .38137818Z"/>
<path id="font_3_50" d="M.4149933 .11933899C.4149933 .12934876 .40699769 .13134766 .4019928 .13134766 .3929901 .13134766 .3909912 .12535095 .3889923 .11734009 .35398866 .014251709 .2639923 .014251709 .2539978 .014251709 .20399475 .014251709 .1639862 .044281007 .14099121 .08131409 .11099243 .12934876 .11099243 .19540406 .11099243 .23144531H.3899994C.4119873 .23144531 .4149933 .23144531 .4149933 .2524414 .4149933 .35131837 .36099244 .4482422 .23599243 .4482422 .11999512 .4482422 .027999878 .34532167 .027999878 .22042847 .027999878 .08631897 .1329956-.0107421879 .24798584-.0107421879 .36999513-.0107421879 .4149933 .10032654 .4149933 .11933899M.34899903 .2524414H.11199951C.117996219 .40126039 .20199585 .426239 .23599243 .426239 .33898927 .426239 .34899903 .2913971 .34899903 .2524414Z"/>
<path id="font_3_82" d="M.4189911 0V.0309906H.3869934C.29699708 .0309906 .2939911 .041992189 .2939911 .07902527V.64012148C.2939911 .6640167 .2939911 .6660156 .2709961 .6660156 .20899964 .60227969 .12098694 .60227969 .08898926 .60227969V.57128909C.10899353 .57128909 .16799927 .57128909 .21998596 .5972748V.07902527C.21998596 .042999269 .21699524 .0309906 .1269989 .0309906H.09498596V0C.12998963 .0029907227 .21699524 .0029907227 .25698854 .0029907227 .29699708 .0029907227 .38398744 .0029907227 .4189911 0Z"/>
<path id="font_3_107" d="M.44898988 .17396546H.42399598C.4189911 .14398194 .4119873 .099990848 .4019928 .084991458 .394989 .07699585 .32899476 .07699585 .30699159 .07699585H.1269989L.23298645 .17996216C.3889923 .31803895 .44898988 .37210084 .44898988 .47216798 .44898988 .5860901 .35899354 .6660156 .23699951 .6660156 .12399292 .6660156 .049987794 .57411196 .049987794 .48516847 .049987794 .4291687 .099990848 .4291687 .102996829 .4291687 .11999512 .4291687 .15499878 .44117738 .15499878 .48217774 .15499878 .5081787 .13699341 .5341797 .101989749 .5341797 .09399414 .5341797 .09199524 .5341797 .08898926 .5331726 .11199951 .59806826 .1659851 .63500979 .22399903 .63500979 .31498719 .63500979 .35798646 .5541382 .35798646 .47216798 .35798646 .39196778 .30799867 .31297303 .25299073 .25097657L.06098938 .036987306C.049987794 .025985718 .049987794 .023986817 .049987794 0H.42099L.44898988 .17396546Z"/>
<path id="font_4_1" d="M.33099366-.2400055C.33099366-.23701477 .33099366-.23500061 .31399537-.21800232 .18899536-.0920105 .15699768 .09700012 .15699768 .25 .15699768 .42399598 .19499207 .59799197 .31799317 .72299197 .33099366 .73498538 .33099366 .7369995 .33099366 .73999026 .33099366 .746994 .32699586 .75 .32099916 .75 .31098939 .75 .22099304 .6819916 .1619873 .5549927 .11099243 .44499208 .09899902 .33399964 .09899902 .25 .09899902 .17199707 .10998535 .050994874 .16499329-.06201172 .22499085-.18501282 .31098939-.25 .32099916-.25 .32699586-.25 .33099366-.24700928 .33099366-.2400055Z"/>
<path id="font_4_3" d="M.45999146 .31976319C.45999146 .39982606 .45498658 .47988893 .41999818 .5539398 .37399293 .65000918 .2919922 .6660156 .25 .6660156 .18998719 .6660156 .116989139 .64001467 .07598877 .54693606 .04399109 .47789 .038986207 .39982606 .038986207 .31976319 .038986207 .24472046 .042999269 .15464783 .083999637 .07859802 .1269989-.0024719239 .19999695-.022460938 .24899292-.022460938 .30299378-.022460938 .3789978-.0014648438 .4229889 .09359741 .45498658 .16265869 .45999146 .2407074 .45999146 .31976319M.24899292-.00047302247C.20999146-.00047302247 .15098572 .024551392 .1329956 .12062073 .12199402 .18066406 .12199402 .2727356 .12199402 .3317871 .12199402 .39582826 .12199402 .46188355 .12998963 .5159149 .14898682 .63500979 .22399903 .64401248 .24899292 .64401248 .28199769 .64401248 .34799195 .6259918 .36698915 .52693179 .3769989 .47088624 .3769989 .39482118 .3769989 .3317871 .3769989 .25672914 .3769989 .18867493 .3659973 .12461853 .35099793 .029556275 .2939911-.00047302247 .24899292-.00047302247Z"/>
<path id="font_5_1" d="M.20298767 .0009918213C.20298767 .066986087 .17799378 .10598755 .13899231 .10598755 .10598755 .10598755 .085998538 .08099365 .085998538 .052993776 .085998538 .025985718 .10598755 0 .13899231 0 .15098572 0 .1639862 .0039978029 .17399597 .0129852299 .1769867 .01499939 .17799378 .015991211 .1789856 .015991211 .17999268 .015991211 .18099976 .01499939 .18099976 .0009918213 .18099976-.07316589 .1459961-.13328552 .11299133-.16635132 .101989749-.17736817 .101989749-.17936707 .101989749-.18237305 .101989749-.18936157 .10699463-.19335938 .11199951-.19335938 .12298584-.19335938 .20298767-.116256717 .20298767 .0009918213Z"/>
<path id="font_4_4" d="M.1269989 .07699585 .23298645 .18003845C.3889923 .31811524 .44898988 .3721466 .44898988 .47216798 .44898988 .5860901 .35899354 .6660156 .23699951 .6660156 .12399292 .6660156 .049987794 .57411196 .049987794 .48516847 .049987794 .4291687 .099990848 .4291687 .102996829 .4291687 .11999512 .4291687 .15499878 .44117738 .15499878 .48217774 .15499878 .5081787 .13699341 .5341797 .101989749 .5341797 .09399414 .5341797 .09199524 .5341797 .08898926 .5331726 .11199951 .59806826 .1659851 .63500979 .22399903 .63500979 .31498719 .63500979 .35798646 .5541382 .35798646 .47216798 .35798646 .39215089 .30799867 .31311036 .25299073 .25108338L.06098938 .036987306C.049987794 .025985718 .049987794 .023986817 .049987794 0H.42099L.44898988 .17404175H.42399598C.4189911 .14402771 .4119873 .1000061 .4019928 .084991458 .394989 .07699585 .32899476 .07699585 .30699159 .07699585H.1269989Z"/>
<path id="font_4_2" d="M.2889862 .25C.2889862 .32798768 .27799989 .44898988 .22299195 .56199648 .16299439 .68499758 .07699585 .75 .066986087 .75 .06098938 .75 .056991579 .74598696 .056991579 .73999026 .056991579 .7369995 .056991579 .73498538 .07598877 .71699526 .17399597 .6179962 .23098755 .45899964 .23098755 .25 .23098755 .07899475 .19400025-.09700012 .069992069-.2230072 .056991579-.23500061 .056991579-.23701477 .056991579-.2400055 .056991579-.2460022 .06098938-.25 .066986087-.25 .07699585-.25 .16699219-.18200684 .22599793-.055007936 .2769928 .054992677 .2889862 .16600037 .2889862 .25Z"/>
<path id="font_4_5" d="M.2899933 .35191346C.37199403 .37893678 .42999269 .4490509 .42999269 .52809146 .42999269 .6100464 .34199525 .6660156 .24598694 .6660156 .14498902 .6660156 .068984989 .60606387 .068984989 .53009036 .068984989 .49710084 .09098816 .47808839 .11999512 .47808839 .15098572 .47808839 .17098999 .50009158 .17098999 .5290985 .17098999 .57910159 .12399292 .57910159 .10899353 .57910159 .13999939 .62802127 .20599365 .64100649 .24198914 .64100649 .2829895 .64100649 .33799745 .6190338 .33799745 .5290985 .33799745 .51708987 .33599855 .45906068 .30999757 .4149933 .27999879 .36691285 .24598694 .36390687 .22099304 .36291505 .21299744 .36190797 .18899536 .35990907 .18199158 .35990907 .17399597 .35890199 .16699219 .35791017 .16699219 .3479004 .16699219 .33691407 .17399597 .33691407 .19099427 .33691407H.23498535C.31698609 .33691407 .35398866 .2686615 .35398866 .17037964 .35398866 .034469606 .2849884 .0055389406 .24099732 .0055389406 .19799805 .0055389406 .12298584 .022491456 .08799744 .08137512 .12298584 .07637024 .1539917 .09837341 .1539917 .1363678 .1539917 .17237854 .1269989 .19238281 .09799194 .19238281 .07398987 .19238281 .041992189 .17837525 .041992189 .1343689 .041992189 .043441774 .1349945-.022460938 .24398804-.022460938 .3659973-.022460938 .45700074 .06838989 .45700074 .17037964 .45700074 .252594 .3939972 .33088685 .2899933 .35191346Z"/>
<path id="font_4_6" d="M.2939911 .16503906V.07800293C.2939911 .041992189 .2919922 .0309906 .21798706 .0309906H.19699097V0C.23799134 .0029907227 .2899933 .0029907227 .33198548 .0029907227 .37399293 .0029907227 .4269867 .0029907227 .46798707 0V.0309906H.44699098C.37298585 .0309906 .37098695 .041992189 .37098695 .07800293V.16503906H.47099305V.19602967H.37098695V.65075686C.37098695 .67074587 .37098695 .6767578 .35499574 .6767578 .34599305 .6767578 .34298707 .6767578 .33499146 .66474917L.027999878 .19602967V.16503906H.2939911M.2999878 .19602967H.055999757L.2999878 .5688019V.19602967Z"/>
<path id="font_4_7" d="M.44898988 .20022583C.44898988 .3193512 .36698915 .41944886 .25898744 .41944886 .21099854 .41944886 .16799927 .40345765 .13198853 .36842347V.5637665C.1519928 .5577698 .18499756 .55078127 .21699524 .55078127 .33999635 .55078127 .4099884 .6417694 .4099884 .6547699 .4099884 .6607666 .40699769 .6657715 .3999939 .6657715 .39898683 .6657715 .39698792 .6657715 .3919983 .66278079 .37199403 .6537781 .32299806 .6337738 .2559967 .6337738 .21598816 .6337738 .16999817 .6407776 .12298584 .6617737 .114990238 .66477969 .11299133 .66477969 .11099243 .66477969 .100997928 .66477969 .100997928 .6567688 .100997928 .6407776V.34439088C.100997928 .32637025 .100997928 .31835938 .114990238 .31835938 .12199402 .31835938 .12399292 .32136537 .12799073 .32736207 .13899231 .3433838 .17599488 .39746095 .25698854 .39746095 .30899049 .39746095 .33399964 .35139466 .34199525 .33337403 .35798646 .29632569 .3600006 .25727845 .3600006 .20722962 .3600006 .17222595 .3600006 .11222839 .33599855 .07035828 .31199647 .031463624 .2749939 .0055389406 .22898865 .0055389406 .1559906 .0055389406 .09899902 .058380128 .08198547 .11723328 .084991458 .1162262 .08799744 .115234378 .09899902 .115234378 .13198853 .115234378 .14898682 .14022827 .14898682 .16423035 .14898682 .18823242 .13198853 .21322632 .09899902 .21322632 .084991458 .21322632 .049987794 .20622254 .049987794 .16023255 .049987794 .07434082 .11898804-.022460938 .23098755-.022460938 .34700013-.022460938 .44898988 .073349 .44898988 .20022583Z"/>
<path id="font_4_8" d="M.47599793 .609375C.4850006 .6213684 .4850006 .62338259 .4850006 .64437869H.24198914C.11999512 .64437869 .117996219 .65737918 .11399841 .67637637H.08898926L.055999757 .4702301H.08099365C.083999637 .48625184 .09298706 .5493469 .10598755 .56137087 .11299133 .5673828 .19099427 .5673828 .20399475 .5673828H.41099549C.3999939 .5513611 .32099916 .4421997 .29899598 .40914918 .20899964 .27394105 .17599488 .1347351 .17599488 .032577516 .17599488 .022567749 .17599488-.022460938 .22200012-.022460938 .2679901-.022460938 .2679901 .022567749 .2679901 .032577516V.08366394C.2679901 .13873291 .2709961 .19381714 .2789917 .24790955 .2829895 .27093507 .29699708 .35707093 .34098817 .41915895L.47599793 .609375Z"/>
<path id="font_5_2" d="M.33399964 .30233766C.33999635 .32835389 .36299134 .42037965 .43299867 .42037965 .43798829 .42037965 .46199037 .42037965 .48298646 .40734864 .45498658 .402359 .43499757 .37734986 .43499757 .35334779 .43499757 .33735658 .44599916 .31835938 .47299195 .31835938 .49499513 .31835938 .5269928 .3363495 .5269928 .37635804 .5269928 .42837525 .46798707 .4423828 .43399049 .4423828 .37599183 .4423828 .34098817 .38935853 .32899476 .36634828 .3039856 .43237306 .25 .4423828 .22099304 .4423828 .116989139 .4423828 .05999756 .3133545 .05999756 .28834535 .05999756 .27833558 .069992069 .27833558 .07199097 .27833558 .07998657 .27833558 .08299255 .28033448 .084991458 .28933717 .11898804 .39535523 .18499756 .42037965 .21899414 .42037965 .23799134 .42037965 .272995 .4113617 .272995 .35334779 .272995 .32235719 .2559967 .25532533 .21899414 .11528015 .20298767 .053268434 .16799927 .011245728 .12399292 .011245728 .117996219 .011245728 .09498596 .011245728 .07398987 .024276734 .09899902 .029266358 .12098694 .05027771 .12098694 .07827759 .12098694 .105270389 .09899902 .11328125 .083999637 .11328125 .053985597 .11328125 .0289917 .08728027 .0289917 .055267335 .0289917 .009246826 .07899475-.0107421879 .12298584-.0107421879 .18899536-.0107421879 .22499085 .059280397 .22799683 .0652771 .23999024 .028274537 .27598573-.0107421879 .33599855-.0107421879 .43899537-.0107421879 .49598695 .118270877 .49598695 .14328003 .49598695 .1532898 .4869995 .1532898 .48399354 .1532898 .47499085 .1532898 .47299195 .14929199 .47099305 .14228821 .43798829 .03527832 .36999513 .011245728 .33799745 .011245728 .29899598 .011245728 .2829895 .043273927 .2829895 .07727051 .2829895 .09927368 .2889862 .121276859 .2999878 .16529846L.33399964 .30233766Z"/>
<path id="font_3_105" d="M.33198548 .12385559V.18066406H.30699159V.12585449C.30699159 .052108766 .2769928 .014251709 .23999024 .014251709 .17298889 .014251709 .17298889 .10491943 .17298889 .12187195V.3996582H.31599427V.43066407H.17298889V.6142578H.147995C.14698792 .5324249 .116989139 .42565919 .018997193 .42166139V.3996582H.10398865V.12408447C.10398865 .0012512207 .19699097-.0107421879 .23298645-.0107421879 .3039856-.0107421879 .33198548 .060180665 .33198548 .12408447V.12385559Z"/>
<path id="font_3_66" d="M.24699402 0V.0309906C.18099976 .0309906 .1769867 .035995485 .1769867 .075042728V.4423828L.036987306 .43066407V.3996582C.101989749 .3996582 .11099243 .3936615 .11099243 .3447113V.07595825C.11099243 .0309906 .099990848 .0309906 .032989503 .0309906V0L.14299011 .0029907227C.17799378 .0029907227 .21299744 .0009918213 .24699402 0M.19198609 .603775C.19198609 .6307678 .16899109 .6567688 .13899231 .6567688 .10499573 .6567688 .084991458 .6287689 .084991458 .603775 .084991458 .57676699 .10798645 .55078127 .13798523 .55078127 .17199707 .55078127 .19198609 .5787811 .19198609 .603775Z"/>
<path id="font_3_75" d="M.8129883 0V.0309906C.7609863 .0309906 .73599246 .0309906 .7350006 .061019899V.25221253C.7350006 .3383026 .7350006 .36932374 .70399478 .405365 .6899872 .42237855 .6569977 .4423828 .598999 .4423828 .5149994 .4423828 .47099305 .38233949 .45399476 .34429933 .43998719 .43138124 .3659973 .4423828 .32099916 .4423828 .24798584 .4423828 .20098877 .39935304 .17298889 .33729554V.4423828L.03199768 .43066407V.3996582C.101989749 .3996582 .10998535 .39266969 .10998535 .34370423V.07595825C.10998535 .0309906 .09899902 .0309906 .03199768 .0309906V0L.14498902 .0029907227 .25698854 0V.0309906C.18998719 .0309906 .1789856 .0309906 .1789856 .07595825V.25978089C.1789856 .36431886 .25 .42037965 .31399537 .42037965 .3769989 .42037965 .3880005 .36631776 .3880005 .30926515V.076034549C.3880005 .0309906 .3769989 .0309906 .30999757 .0309906V0L.4229889 .0029907227 .5349884 0V.0309906C.46798707 .0309906 .45700074 .0309906 .45700074 .076034549V.2602234C.45700074 .36431886 .5279999 .42037965 .59199526 .42037965 .6549988 .42037965 .66600039 .36631776 .66600039 .30926515V.076034549C.66600039 .0309906 .6549988 .0309906 .58799746 .0309906V0L.70098879 .0029907227 .8129883 0Z"/>
<path id="font_3_77" d="M.5349884 0V.0309906C.48298646 .0309906 .45799256 .0309906 .45700074 .061019899V.25221253C.45700074 .3383026 .45700074 .36932374 .42599488 .405365 .4119873 .42237855 .3789978 .4423828 .32099916 .4423828 .24798584 .4423828 .20098877 .39935304 .17298889 .33729554V.4423828L.03199768 .43066407V.3996582C.101989749 .3996582 .10998535 .39266969 .10998535 .34370423V.07595825C.10998535 .0309906 .09899902 .0309906 .03199768 .0309906V0L.14498902 .0029907227 .25698854 0V.0309906C.18998719 .0309906 .1789856 .0309906 .1789856 .07595825V.25978089C.1789856 .36431886 .25 .42037965 .31399537 .42037965 .3769989 .42037965 .3880005 .36631776 .3880005 .30926515V.076034549C.3880005 .0309906 .3769989 .0309906 .30999757 .0309906V0L.4229889 .0029907227 .5349884 0Z"/>
<path id="font_3_118" d="M.5079956 .3996582V.43066407C.4850006 .4286499 .45599366 .42765809 .43299867 .42765809L.34599305 .43066407V.3996582C.3769989 .39866639 .3929901 .3816681 .3929901 .35668946 .3929901 .34669496 .3919983 .34469605 .3869934 .33270265L.28599549 .08685303 .1749878 .35568238C.17098999 .36567689 .16899109 .36967469 .16899109 .3736725 .16899109 .3996582 .20599365 .3996582 .22499085 .3996582V.43066407L.115997318 .42765809C.08898926 .42765809 .04899597 .4286499 .018997193 .43066407V.3996582C.066986087 .3996582 .085998538 .3996582 .099990848 .36468507L.25-.000091552738 .22499085-.059066774C.20298767-.11407471 .1749878-.18309021 .11099243-.18309021 .10598755-.18309021 .08299255-.18309021 .06399536-.16503906 .09498596-.16104126 .102996829-.13905335 .102996829-.123046878 .102996829-.0970459 .083999637-.08103943 .06098938-.08103943 .040985109-.08103943 .018997193-.09403992 .018997193-.124053958 .018997193-.16905213 .06098938-.20507813 .11099243-.20507813 .17399597-.20507813 .21499634-.14804077 .23899842-.091049198L.4149933 .33569337C.44099427 .39865113 .49198915 .3996582 .5079956 .3996582Z"/>
<path id="font_3_28" d="M.48298646 .08912659V.14511109H.45799256V.08912659C.45799256 .03112793 .43299867 .025131226 .42199708 .025131226 .3889923 .025131226 .3849945 .070129398 .3849945 .07511902V.27508546C.3849945 .31707765 .3849945 .3560791 .34899903 .39312745 .30999757 .43223573 .2599945 .4482422 .21199036 .4482422 .12998963 .4482422 .06098938 .40115357 .06098938 .335083 .06098938 .30508424 .08099365 .28808595 .10699463 .28808595 .1349945 .28808595 .15299988 .30807496 .15299988 .33407594 .15299988 .3460846 .147995 .37908937 .101989749 .38008119 .1289978 .41519166 .17799378 .426239 .20999146 .426239 .25898744 .426239 .31599427 .38710023 .31599427 .29808045V.26107789C.2649994 .25808717 .19499207 .25508119 .13198853 .22509766 .056991579 .19110108 .03199768 .13911438 .03199768 .09512329 .03199768 .014251709 .1289978-.0107421879 .19198609-.0107421879 .2579956-.0107421879 .3039856 .029251099 .32299806 .07624817 .32699586 .036132814 .35398866-.005859375 .40098573-.005859375 .42199708-.005859375 .48298646 .008132935 .48298646 .08912659M.31599427 .14013672C.31599427 .04525757 .24398804 .011245728 .19898987 .011245728 .1499939 .011245728 .10899353 .04624939 .10899353 .09625244 .10899353 .15124512 .15098572 .23425293 .31599427 .24024964V.14013672Z"/>
<path id="font_3_98" d="M.3600006 .12823487C.3600006 .18122864 .32998658 .21122742 .31799317 .22323609 .2849884 .25523377 .24598694 .26322938 .20399475 .27124024 .147995 .28224183 .08099365 .29522706 .08099365 .35324098 .08099365 .38822938 .10699463 .42922975 .19299317 .42922975 .30299378 .42922975 .30799867 .3392334 .30999757 .30822755 .31098939 .2992401 .32199098 .2992401 .32199098 .2992401 .33499146 .2992401 .33499146 .30422975 .33499146 .32322694V.4242401C.33499146 .4412384 .33499146 .4482422 .32398988 .4482422 .31900025 .4482422 .31698609 .4482422 .3039856 .43623353 .30099488 .43223573 .29100038 .42323304 .2869873 .42022706 .24899292 .4482422 .20799256 .4482422 .19299317 .4482422 .070999149 .4482422 .032989503 .38124085 .032989503 .3252411 .032989503 .29023744 .04899597 .26223756 .07598877 .24023438 .10798645 .2142334 .13598633 .2082367 .20799256 .19422913 .22999573 .19021607 .31199647 .17422486 .31199647 .10221863 .31199647 .051223756 .2769928 .011245728 .19898987 .011245728 .114990238 .011245728 .07899475 .068222049 .05999756 .1532135 .056991579 .16621399 .055999757 .17021179 .04598999 .17021179 .032989503 .17021179 .032989503 .16322327 .032989503 .1452179V.013214111C.032989503-.003753662 .032989503-.0107421879 .04399109-.0107421879 .04899597-.0107421879 .049987794-.009750366 .068984989 .009246826 .070999149 .011245728 .070999149 .013214111 .08898926 .032226564 .1329956-.009750366 .17799378-.0107421879 .19898987-.0107421879 .31399537-.0107421879 .3600006 .05621338 .3600006 .1282196V.12823487Z"/>
<path id="font_5_3" d="M.48599244 .38136292C.48999024 .39537049 .48999024 .39736939 .48999024 .40437318 .48999024 .42237855 .47599793 .43138124 .46099855 .43138124 .45098878 .43138124 .43499757 .42536927 .42599488 .41036988 .42399598 .405365 .41600038 .37435914 .4119873 .35635377 .40499879 .33035279 .397995 .30334474 .3919983 .27633668L.34700013 .09628296C.34298707 .08126831 .2999878 .011245728 .23399353 .011245728 .18299866 .011245728 .17199707 .055267335 .17199707 .0922699 .17199707 .1382904 .18899536 .20030213 .22299195 .28833009 .23899842 .3293457 .24299622 .3403473 .24299622 .36035157 .24299622 .405365 .21099854 .4423828 .16099549 .4423828 .06599426 .4423828 .0289917 .29733277 .0289917 .28833009 .0289917 .27833558 .038986207 .27833558 .040985109 .27833558 .050994874 .27833558 .051986696 .28033448 .056991579 .29634095 .083999637 .3903656 .12399292 .42037965 .1579895 .42037965 .1659851 .42037965 .18299866 .42037965 .18299866 .3883667 .18299866 .36335755 .17298889 .3373413 .1659851 .31834413 .12599182 .21231079 .10798645 .1552887 .10798645 .10827637 .10798645 .019256592 .17098999-.0107421879 .22999573-.0107421879 .2689972-.0107421879 .30299378 .0062561037 .33099366 .03425598 .31799317-.017745972 .30599977-.06674194 .2659912-.11973572 .23999024-.15385437 .20199585-.18309021 .1559906-.18309021 .14199829-.18309021 .09700012-.18005371 .07998657-.14074707 .09599304-.14074707 .10899353-.14074707 .12298584-.1287384 .1329956-.11973572 .14299011-.10673523 .14299011-.08773804 .14299011-.056747438 .115997318-.052734376 .10598755-.052734376 .08299255-.052734376 .049987794-.068740848 .049987794-.11773682 .049987794-.16796875 .09399414-.20507813 .1559906-.20507813 .25898744-.20507813 .3619995-.11373901 .3899994-.00074768069L.48599244 .38136292Z"/>
<path id="font_3_63" d="M.5349884 0V.0309906C.48298646 .0309906 .45799256 .0309906 .45700074 .061019899V.25221253C.45700074 .3383026 .45700074 .36932374 .42599488 .405365 .4119873 .42237855 .3789978 .4423828 .32099916 .4423828 .23699951 .4423828 .19299317 .38233949 .1769867 .34629823H.17599488V.69433596L.03199768 .6826172V.6516113C.101989749 .6516113 .10998535 .64463809 .10998535 .59580996V.076034549C.10998535 .0309906 .09899902 .0309906 .03199768 .0309906V0L.14498902 .0029907227 .25698854 0V.0309906C.18998719 .0309906 .1789856 .0309906 .1789856 .076034549V.2602234C.1789856 .36431886 .25 .42037965 .31399537 .42037965 .3769989 .42037965 .3880005 .36631776 .3880005 .30926515V.076034549C.3880005 .0309906 .3769989 .0309906 .30999757 .0309906V0L.4229889 .0029907227 .5349884 0Z"/>
<path id="font_3_59" d="M.4850006 .40411378C.4850006 .42111207 .47299195 .453125 .43399049 .453125 .4139862 .453125 .36999513 .44711305 .32798768 .40611268 .28599549 .43937684 .24398804 .4423828 .22200012 .4423828 .1289978 .4423828 .05999756 .37338258 .05999756 .29638673 .05999756 .25239564 .08198547 .21440125 .10699463 .19340515 .09399414 .17840576 .07598877 .14538574 .07598877 .11035156 .07598877 .07899475 .08898926 .04083252 .11999512 .020828248 .05999756 .003829956 .027999878-.039138795 .027999878-.07911682 .027999878-.15107727 .1269989-.20605469 .24899292-.20605469 .36698915-.20605469 .47099305-.15507508 .47099305-.07711792 .47099305-.042144777 .45700074 .008834839 .4059906 .036834718 .35299684 .064834598 .29499818 .064834598 .23399353 .064834598 .20899964 .064834598 .1659851 .064834598 .15899658 .065841678 .1269989 .069885257 .10598755 .101242069 .10598755 .13334656 .10598755 .13735962 .10598755 .16040039 .12298584 .18040467 .1619873 .15240479 .20298767 .14941406 .22200012 .14941406 .31498719 .14941406 .38398744 .21839905 .38398744 .2953949 .38398744 .3323822 .36799623 .36938478 .34298707 .39237977 .3789978 .42637635 .4149933 .43138124 .43299867 .43138124 .43299867 .43112184 .43998719 .43112184 .44299317 .43011476 .43199159 .42611695 .4269867 .41513063 .4269867 .40315248 .4269867 .38616944 .43998719 .37417604 .45599366 .37417604 .46598817 .37417604 .4850006 .3811798 .4850006 .4041443V.40411378M.30899049 .29626466C.30899049 .26930238 .30799867 .2373352 .29299928 .21235657 .2849884 .20037842 .2619934 .17240906 .22200012 .17240906 .1349945 .17240906 .1349945 .2722931 .1349945 .29527284 .1349945 .3222351 .13598633 .35420228 .15098572 .3791809 .15899658 .3913269 .18199158 .41937257 .22200012 .41937257 .30899049 .41937257 .30899049 .31922914 .30899049 .29618836V.29626466M.4189911-.07911682C.4189911-.13308716 .34799195-.18305969 .25-.18305969 .14898682-.18305969 .07998657-.13209534 .07998657-.07911682 .07998657-.03314209 .117996219 .003829956 .1619873 .0068359377H.22099304C.30699159 .0068359377 .4189911 .0068359377 .4189911-.07911682Z"/>
<path id="font_3_55" d="M.35699464 .63479617C.35699464 .6717987 .31999208 .7050781 .2669983 .7050781 .19699097 .7050781 .11199951 .65179446 .11199951 .5457611V.43066407H.032989503V.3996582H.11199951V.07595825C.11199951 .0309906 .100997928 .0309906 .033996583 .0309906V0L.147995 .0029907227C.18798828 .0029907227 .23498535 .0029907227 .2749939 0V.0309906H.2539978C.17999268 .0309906 .17799378 .04197693 .17799378 .07795715V.3996582H.2919922V.43066407H.1749878V.5467529C.1749878 .63479617 .22299195 .68307498 .2669983 .68307498 .269989 .68307498 .2849884 .68307498 .2999878 .675827 .28799439 .6717987 .269989 .6587982 .269989 .6338043 .269989 .61079409 .28599549 .5907898 .31298829 .5907898 .34199525 .5907898 .35699464 .61079409 .35699464 .63479617Z"/>
</defs>
<path transform="matrix(1.00003,0,0,-1.00003,8.68083,116.86511)" d="M0 0H348.69538V115.06377H0Z" fill="#fffac2"/>
<path transform="matrix(1.00003,0,0,-1.00003,8.68083,116.86511)" stroke-width=".3985" stroke-linecap="butt" stroke-miterlimit="10" stroke-linejoin="miter" fill="none" stroke="#d5d6d5" d="M0 0V115.06377M69.73907 0V115.06377M139.47815 0V115.06377M209.21723 0V115.06377M278.9563 0V115.06377M348.69538 0V115.06377"/>
<path transform="matrix(1.00003,0,0,-1.00003,8.68083,116.86511)" stroke-width=".3985" stroke-linecap="butt" stroke-miterlimit="10" stroke-linejoin="miter" fill="none" stroke="#d5d6d5" d="M69.73907 0V115.06377M139.47815 0V115.06377M209.21723 0V115.06377M278.9563 0V115.06377"/>
<path transform="matrix(1.00003,0,0,-1.00003,8.68083,116.86511)" stroke-width=".3985" stroke-linecap="butt" stroke-miterlimit="10" stroke-linejoin="miter" fill="none" stroke="#d5d6d5" d="M0 12.78485H348.69538M0 25.56972H348.69538M0 38.35458H348.69538M0 51.13945H348.69538M0 63.92432H348.69538M0 76.70918H348.69538M0 89.49403H348.69538M0 102.2789H348.69538"/>
<path transform="matrix(1.00003,0,0,-1.00003,8.68083,116.86511)" stroke-width=".19925" stroke-linecap="butt" stroke-miterlimit="10" stroke-linejoin="miter" fill="none" stroke="#929292" d="M0-1.41736V1.41737M69.73907-1.41736V1.41737M139.47815-1.41736V1.41737M209.21723-1.41736V1.41737M278.9563-1.41736V1.41737M348.69538-1.41736V1.41737"/>
<path transform="matrix(1.00003,0,0,-1.00003,8.68083,116.86511)" stroke-width=".19925" stroke-linecap="butt" stroke-miterlimit="10" stroke-linejoin="miter" fill="none" stroke="#929292" d="M69.73907-2.12584V2.12584M139.47815-2.12584V2.12584M209.21723-2.12584V2.12584M278.9563-2.12584V2.12584"/>
<path transform="matrix(1.00003,0,0,-1.00003,8.68083,116.86511)" stroke-width=".19925" stroke-linecap="butt" stroke-miterlimit="10" stroke-linejoin="miter" fill="none" stroke="#929292" d="M-2.12578 12.78485H2.12578M-2.12578 25.56972H2.12578M-2.12578 38.35458H2.12578M-2.12578 51.13945H2.12578M-2.12578 63.92432H2.12578M-2.12578 76.70918H2.12578M-2.12578 89.49403H2.12578M-2.12578 102.2789H2.12578"/>
<path transform="matrix(1.00003,0,0,-1.00003,8.68083,116.86511)" stroke-width=".3985" stroke-linecap="butt" stroke-miterlimit="10" stroke-linejoin="miter" fill="none" stroke="#000000" d="M0 0H346.70286"/>
<path transform="matrix(1.00003,0,0,-1.00003,355.39408,116.86511)" d="M1.99252 0-1.19551 1.59401 0 0-1.19551-1.59401"/>
<path transform="matrix(1.00003,0,0,-1.00003,8.68083,116.86511)" stroke-width=".3985" stroke-linecap="butt" stroke-miterlimit="10" stroke-linejoin="miter" fill="none" stroke="#000000" d="M0 0V113.07124"/>
<path transform="matrix(0,-1.00003,-1.00003,-0,8.68083,3.790474)" d="M1.99252 0-1.19551 1.59401 0 0-1.19551-1.59401"/>
<use data-text="1" xlink:href="#font_1_1" transform="matrix(7.9703395,0,0,-7.9703395,76.30486,127.64744)"/>
<use data-text="2" xlink:href="#font_1_2" transform="matrix(7.9703395,0,0,-7.9703395,146.04595,127.64744)"/>
<use data-text="3" xlink:href="#font_1_3" transform="matrix(7.9703395,0,0,-7.9703395,215.78707,127.64744)"/>
<use data-text="4" xlink:href="#font_1_4" transform="matrix(7.9703395,0,0,-7.9703395,285.52815,127.64744)"/>
<use data-text="1" xlink:href="#font_1_1" transform="matrix(7.9703395,0,0,-7.9703395,.69158938,106.647808)"/>
<use data-text="2" xlink:href="#font_1_2" transform="matrix(7.9703395,0,0,-7.9703395,.69158938,93.86242)"/>
<use data-text="3" xlink:href="#font_1_3" transform="matrix(7.9703395,0,0,-7.9703395,.69158938,81.07803)"/>
<use data-text="4" xlink:href="#font_1_4" transform="matrix(7.9703395,0,0,-7.9703395,.69158938,68.292659)"/>
<use data-text="5" xlink:href="#font_1_5" transform="matrix(7.9703395,0,0,-7.9703395,.69158938,55.50727)"/>
<use data-text="6" xlink:href="#font_1_6" transform="matrix(7.9703395,0,0,-7.9703395,.69158938,42.721887)"/>
<use data-text="7" xlink:href="#font_1_7" transform="matrix(7.9703395,0,0,-7.9703395,.69158938,29.9365)"/>
<use data-text="8" xlink:href="#font_1_8" transform="matrix(7.9703395,0,0,-7.9703395,.69158938,17.151116)"/>
<g clip-path="url(#clip_2)">
<path transform="matrix(1.00003,0,0,-1.00003,8.68083,116.86511)" stroke-width=".99628" stroke-linecap="butt" stroke-miterlimit="10" stroke-linejoin="miter" fill="none" stroke="#9e0c0f" d="M0 25.56972 14.52893 27.34537 29.05789 29.12102 43.58684 30.89668 58.11578 32.67233 72.64473 34.448 87.17369 36.22365 101.70262 37.9993 116.23158 39.77495 130.76053 41.5506 145.28948 43.32625 159.81842 45.10191 174.34738 46.87758 188.87631 48.65323 203.40528 50.42888 217.93424 52.20454 232.46318 53.9802 246.99213 55.75584 261.52107 57.5315 276.05003 59.30714 290.57896 61.08281 305.10795 62.85846 319.63688 64.63411 334.16584 66.40977 345.82695 67.83499"/>
<path transform="matrix(.9926298,-.12129364,-.12129364,-.9926298,354.51814,49.028085)" d="M2.8892 0-1.73352 2.31136 0 0-1.73352-2.31136" fill="#9e0c0f"/>
<use data-text="T" xlink:href="#font_3_104" transform="matrix(9.8891739,-1.2084,-1.2084,-9.8891739,99.20794,76.27272)" fill="#9e0c0f"/>
<use data-text="r" xlink:href="#font_3_96" transform="matrix(9.8891739,-1.2084,-1.2084,-9.8891739,105.53701,75.499347)" fill="#9e0c0f"/>
<use data-text="e" xlink:href="#font_3_50" transform="matrix(9.8891739,-1.2084,-1.2084,-9.8891739,109.41357,75.02565)" fill="#9e0c0f"/>
<use data-text="e" xlink:href="#font_3_50" transform="matrix(9.8891739,-1.2084,-1.2084,-9.8891739,113.80436,74.48912)" fill="#9e0c0f"/>
<use data-text="1" xlink:href="#font_3_82" transform="matrix(9.8891739,-1.2084,-1.2084,-9.8891739,121.478359,73.55139)" fill="#9e0c0f"/>
<path transform="matrix(1.00003,0,0,-1.00003,8.68083,116.86511)" stroke-width=".99628" stroke-linecap="butt" stroke-miterlimit="10" stroke-linejoin="miter" fill="none" stroke="#008099" d="M0 63.92432 14.52893 65.69997 29.05789 67.47562 43.58684 69.25127 58.11578 71.02692 72.64473 72.80258 87.17369 74.57823 101.70262 76.3539 116.23158 78.12955 130.76053 79.9052 145.28948 81.68085 159.81842 83.4565 174.34738 85.23216 188.87631 87.00781 203.40528 88.78346 217.93424 90.55913 232.46318 92.3348 246.99213 94.11044 261.52107 95.8861 276.05003 97.66174 290.57896 99.4374 305.10795 101.21304 319.63688 102.9887 334.16584 104.76436 345.82695 106.18958"/>
<path transform="matrix(.9926298,-.12129364,-.12129364,-.9926298,354.51814,10.67234)" d="M2.8892 0-1.73352 2.31136 0 0-1.73352-2.31136" fill="#008099"/>
<use data-text="T" xlink:href="#font_3_104" transform="matrix(9.8891739,-1.2084,-1.2084,-9.8891739,99.20794,37.917558)" fill="#008099"/>
<use data-text="r" xlink:href="#font_3_96" transform="matrix(9.8891739,-1.2084,-1.2084,-9.8891739,105.53701,37.14418)" fill="#008099"/>
<use data-text="e" xlink:href="#font_3_50" transform="matrix(9.8891739,-1.2084,-1.2084,-9.8891739,109.41357,36.670488)" fill="#008099"/>
<use data-text="e" xlink:href="#font_3_50" transform="matrix(9.8891739,-1.2084,-1.2084,-9.8891739,113.80436,36.133958)" fill="#008099"/>
<use data-text="2" xlink:href="#font_3_107" transform="matrix(9.8891739,-1.2084,-1.2084,-9.8891739,121.478359,35.196237)" fill="#008099"/>
<path transform="matrix(1.00003,0,0,-1.00003,8.68083,116.86511)" stroke-width=".3985" stroke-linecap="butt" stroke-miterlimit="10" stroke-linejoin="miter" fill="none" stroke="#9e0c0f" d=""/>
<use data-text="(" xlink:href="#font_4_1" transform="matrix(9.962899,0,0,-9.962899,12.200935,102.286678)" fill="#9e0c0f"/>
<use data-text="0" xlink:href="#font_4_3" transform="matrix(9.962899,0,0,-9.962899,16.066544,102.286678)" fill="#9e0c0f"/>
<use data-text="," xlink:href="#font_5_1" transform="matrix(9.962899,0,0,-9.962899,21.057202,102.286678)" fill="#9e0c0f"/>
<use data-text="2" xlink:href="#font_4_4" transform="matrix(9.962899,0,0,-9.962899,25.485337,102.286678)" fill="#9e0c0f"/>
<use data-text=")" xlink:href="#font_4_2" transform="matrix(9.962899,0,0,-9.962899,30.466786,102.286678)" fill="#9e0c0f"/>
<path transform="matrix(1.00003,0,0,-1.00003,8.68083,116.86511)" stroke-width=".3985" stroke-linecap="butt" stroke-miterlimit="10" stroke-linejoin="miter" fill="none" stroke="#9e0c0f" d=""/>
<use data-text="(" xlink:href="#font_4_1" transform="matrix(9.962899,0,0,-9.962899,221.42423,76.71591)" fill="#9e0c0f"/>
<use data-text="3" xlink:href="#font_4_5" transform="matrix(9.962899,0,0,-9.962899,225.28983,76.71591)" fill="#9e0c0f"/>
<use data-text="," xlink:href="#font_5_1" transform="matrix(9.962899,0,0,-9.962899,230.28049,76.71591)" fill="#9e0c0f"/>
<use data-text="4" xlink:href="#font_4_6" transform="matrix(9.962899,0,0,-9.962899,234.70862,76.71591)" fill="#9e0c0f"/>
<use data-text=")" xlink:href="#font_4_2" transform="matrix(9.962899,0,0,-9.962899,239.69008,76.71591)" fill="#9e0c0f"/>
<path transform="matrix(1.00003,0,0,-1.00003,8.68083,116.86511)" stroke-width=".99628" stroke-linecap="butt" stroke-miterlimit="10" stroke-linejoin="miter" fill="none" stroke="#929292" d="M0 25.56972H209.21723"/>
<use data-text="3" xlink:href="#font_4_5" transform="matrix(9.962899,0,0,-9.962899,110.801898,101.53365)" fill="#929292"/>
<path transform="matrix(1.00003,0,0,-1.00003,8.68083,116.86511)" stroke-width=".99628" stroke-linecap="butt" stroke-miterlimit="10" stroke-linejoin="miter" fill="none" stroke="#929292" d="M209.21723 25.56972V44.41478"/>
<path transform="matrix(0,-1.00003,-1.00003,-0,217.90435,72.449)" d="M2.8892 0-1.73352 2.31136 0 0-1.73352-2.31136" fill="#929292"/>
<use data-text="2" xlink:href="#font_4_4" transform="matrix(9.962899,0,0,-9.962899,209.10387,83.637119)" fill="#929292"/>
<path transform="matrix(1.00003,0,0,-1.00003,8.68083,116.86511)" stroke-width=".3985" stroke-linecap="butt" stroke-miterlimit="10" stroke-linejoin="miter" fill="none" stroke="#9e0c0f" d=""/>
<use data-text="(" xlink:href="#font_4_1" transform="matrix(9.962899,0,0,-9.962899,12.200935,63.931524)" fill="#9e0c0f"/>
<use data-text="0" xlink:href="#font_4_3" transform="matrix(9.962899,0,0,-9.962899,16.066544,63.931524)" fill="#9e0c0f"/>
<use data-text="," xlink:href="#font_5_1" transform="matrix(9.962899,0,0,-9.962899,21.057202,63.931524)" fill="#9e0c0f"/>
<use data-text="5" xlink:href="#font_4_7" transform="matrix(9.962899,0,0,-9.962899,25.485337,63.931524)" fill="#9e0c0f"/>
<use data-text=")" xlink:href="#font_4_2" transform="matrix(9.962899,0,0,-9.962899,30.466786,63.931524)" fill="#9e0c0f"/>
<path transform="matrix(1.00003,0,0,-1.00003,8.68083,116.86511)" stroke-width=".3985" stroke-linecap="butt" stroke-miterlimit="10" stroke-linejoin="miter" fill="none" stroke="#9e0c0f" d=""/>
<use data-text="(" xlink:href="#font_4_1" transform="matrix(9.962899,0,0,-9.962899,221.42423,38.360757)" fill="#9e0c0f"/>
<use data-text="3" xlink:href="#font_4_5" transform="matrix(9.962899,0,0,-9.962899,225.28983,38.360757)" fill="#9e0c0f"/>
<use data-text="," xlink:href="#font_5_1" transform="matrix(9.962899,0,0,-9.962899,230.28049,38.360757)" fill="#9e0c0f"/>
<use data-text="7" xlink:href="#font_4_8" transform="matrix(9.962899,0,0,-9.962899,234.70862,38.360757)" fill="#9e0c0f"/>
<use data-text=")" xlink:href="#font_4_2" transform="matrix(9.962899,0,0,-9.962899,239.69008,38.360757)" fill="#9e0c0f"/>
<path transform="matrix(1.00003,0,0,-1.00003,8.68083,116.86511)" stroke-width=".99628" stroke-linecap="butt" stroke-miterlimit="10" stroke-linejoin="miter" fill="none" stroke="#929292" d="M0 63.92432H209.21723"/>
<use data-text="3" xlink:href="#font_4_5" transform="matrix(9.962899,0,0,-9.962899,110.801898,63.178499)" fill="#929292"/>
<path transform="matrix(1.00003,0,0,-1.00003,8.68083,116.86511)" stroke-width=".99628" stroke-linecap="butt" stroke-miterlimit="10" stroke-linejoin="miter" fill="none" stroke="#929292" d="M209.21723 63.92432V82.76936"/>
<path transform="matrix(0,-1.00003,-1.00003,-0,217.90435,34.09326)" d="M2.8892 0-1.73352 2.31136 0 0-1.73352-2.31136" fill="#929292"/>
<use data-text="2" xlink:href="#font_4_4" transform="matrix(9.962899,0,0,-9.962899,209.10387,45.28196)" fill="#929292"/>
</g>
<path transform="matrix(1.00003,0,0,-1.00003,8.68083,116.86511)" d="M1.99255 25.56972C1.99255 26.6702 1.10046 27.56227 0 27.56227-1.10046 27.56227-1.99255 26.6702-1.99255 25.56972-1.99255 24.46925-1.10046 23.57716 0 23.57716 1.10046 23.57716 1.99255 24.46925 1.99255 25.56972ZM0 25.56972" fill="#9e0c0f"/>
<path transform="matrix(1.00003,0,0,-1.00003,8.68083,116.86511)" stroke-width=".3985" stroke-linecap="butt" stroke-miterlimit="10" stroke-linejoin="miter" fill="none" stroke="#9e0c0f" d="M1.99255 25.56972C1.99255 26.6702 1.10046 27.56227 0 27.56227-1.10046 27.56227-1.99255 26.6702-1.99255 25.56972-1.99255 24.46925-1.10046 23.57716 0 23.57716 1.10046 23.57716 1.99255 24.46925 1.99255 25.56972ZM0 25.56972"/>
<path transform="matrix(1.00003,0,0,-1.00003,8.68083,116.86511)" stroke-width=".3985" stroke-linecap="butt" stroke-miterlimit="10" stroke-linejoin="miter" fill="none" stroke="#9e0c0f" d=""/>
<path transform="matrix(1.00003,0,0,-1.00003,8.68083,116.86511)" d="M211.20978 51.13945C211.20978 52.23991 210.31769 53.132 209.21723 53.132 208.11675 53.132 207.22467 52.23991 207.22467 51.13945 207.22467 50.03897 208.11675 49.1469 209.21723 49.1469 210.31769 49.1469 211.20978 50.03897 211.20978 51.13945ZM209.21723 51.13945" fill="#9e0c0f"/>
<path transform="matrix(1.00003,0,0,-1.00003,8.68083,116.86511)" stroke-width=".3985" stroke-linecap="butt" stroke-miterlimit="10" stroke-linejoin="miter" fill="none" stroke="#9e0c0f" d="M211.20978 51.13945C211.20978 52.23991 210.31769 53.132 209.21723 53.132 208.11675 53.132 207.22467 52.23991 207.22467 51.13945 207.22467 50.03897 208.11675 49.1469 209.21723 49.1469 210.31769 49.1469 211.20978 50.03897 211.20978 51.13945ZM209.21723 51.13945"/>
<path transform="matrix(1.00003,0,0,-1.00003,8.68083,116.86511)" stroke-width=".3985" stroke-linecap="butt" stroke-miterlimit="10" stroke-linejoin="miter" fill="none" stroke="#9e0c0f" d=""/>
<path transform="matrix(1.00003,0,0,-1.00003,8.68083,116.86511)" d="M1.99255 63.92432C1.99255 65.02478 1.10046 65.91687 0 65.91687-1.10046 65.91687-1.99255 65.02478-1.99255 63.92432-1.99255 62.82384-1.10046 61.93176 0 61.93176 1.10046 61.93176 1.99255 62.82384 1.99255 63.92432ZM0 63.92432" fill="#9e0c0f"/>
<path transform="matrix(1.00003,0,0,-1.00003,8.68083,116.86511)" stroke-width=".3985" stroke-linecap="butt" stroke-miterlimit="10" stroke-linejoin="miter" fill="none" stroke="#9e0c0f" d="M1.99255 63.92432C1.99255 65.02478 1.10046 65.91687 0 65.91687-1.10046 65.91687-1.99255 65.02478-1.99255 63.92432-1.99255 62.82384-1.10046 61.93176 0 61.93176 1.10046 61.93176 1.99255 62.82384 1.99255 63.92432ZM0 63.92432"/>
<path transform="matrix(1.00003,0,0,-1.00003,8.68083,116.86511)" stroke-width=".3985" stroke-linecap="butt" stroke-miterlimit="10" stroke-linejoin="miter" fill="none" stroke="#9e0c0f" d=""/>
<path transform="matrix(1.00003,0,0,-1.00003,8.68083,116.86511)" d="M211.20978 89.49403C211.20978 90.59451 210.31769 91.48659 209.21723 91.48659 208.11675 91.48659 207.22467 90.59451 207.22467 89.49403 207.22467 88.39357 208.11675 87.50148 209.21723 87.50148 210.31769 87.50148 211.20978 88.39357 211.20978 89.49403ZM209.21723 89.49403" fill="#9e0c0f"/>
<path transform="matrix(1.00003,0,0,-1.00003,8.68083,116.86511)" stroke-width=".3985" stroke-linecap="butt" stroke-miterlimit="10" stroke-linejoin="miter" fill="none" stroke="#9e0c0f" d="M211.20978 89.49403C211.20978 90.59451 210.31769 91.48659 209.21723 91.48659 208.11675 91.48659 207.22467 90.59451 207.22467 89.49403 207.22467 88.39357 208.11675 87.50148 209.21723 87.50148 210.31769 87.50148 211.20978 88.39357 211.20978 89.49403ZM209.21723 89.49403"/>
<path transform="matrix(1.00003,0,0,-1.00003,8.68083,116.86511)" stroke-width=".3985" stroke-linecap="butt" stroke-miterlimit="10" stroke-linejoin="miter" fill="none" stroke="#9e0c0f" d=""/>
<use data-text="x" xlink:href="#font_5_2" transform="matrix(9.962899,0,0,-9.962899,288.32423,111.30295)"/>
<use data-text="t" xlink:href="#font_3_105" transform="matrix(9.962899,0,0,-9.962899,297.33653,111.30295)"/>
<use data-text="i" xlink:href="#font_3_66" transform="matrix(9.962899,0,0,-9.962899,301.21208,111.30295)"/>
<use data-text="m" xlink:href="#font_3_75" transform="matrix(9.962899,0,0,-9.962899,303.98176,111.30295)"/>
<use data-text="e" xlink:href="#font_3_50" transform="matrix(9.962899,0,0,-9.962899,312.28086,111.30295)"/>
<use data-text="i" xlink:href="#font_3_66" transform="matrix(9.962899,0,0,-9.962899,320.0121,111.30295)"/>
<use data-text="n" xlink:href="#font_3_77" transform="matrix(9.962899,0,0,-9.962899,322.78175,111.30295)"/>
<use data-text="y" xlink:href="#font_3_118" transform="matrix(9.962899,0,0,-9.962899,331.63877,111.30295)"/>
<use data-text="e" xlink:href="#font_3_50" transform="matrix(9.962899,0,0,-9.962899,336.6302,111.30295)"/>
<use data-text="a" xlink:href="#font_3_28" transform="matrix(9.962899,0,0,-9.962899,341.0537,111.30295)"/>
<use data-text="r" xlink:href="#font_3_96" transform="matrix(9.962899,0,0,-9.962899,346.03517,111.30295)"/>
<use data-text="s" xlink:href="#font_3_98" transform="matrix(9.962899,0,0,-9.962899,349.9406,111.30295)"/>
<use data-text="y" xlink:href="#font_5_3" transform="matrix(9.962899,0,0,-9.962899,12.200935,12.341972)"/>
<use data-text="h" xlink:href="#font_3_63" transform="matrix(9.962899,0,0,-9.962899,20.761197,12.341972)"/>
<use data-text="e" xlink:href="#font_3_50" transform="matrix(9.962899,0,0,-9.962899,26.300568,12.341972)"/>
<use data-text="i" xlink:href="#font_3_66" transform="matrix(9.962899,0,0,-9.962899,30.724095,12.341972)"/>
<use data-text="g" xlink:href="#font_3_59" transform="matrix(9.962899,0,0,-9.962899,33.493783,12.341972)"/>
<use data-text="h" xlink:href="#font_3_63" transform="matrix(9.962899,0,0,-9.962899,38.47523,12.341972)"/>
<use data-text="t" xlink:href="#font_3_105" transform="matrix(9.962899,0,0,-9.962899,43.73564,12.341972)"/>
<use data-text="i" xlink:href="#font_3_66" transform="matrix(9.962899,0,0,-9.962899,50.9189,12.341972)"/>
<use data-text="n" xlink:href="#font_3_77" transform="matrix(9.962899,0,0,-9.962899,53.688577,12.341972)"/>
<use data-text="f" xlink:href="#font_3_55" transform="matrix(9.962899,0,0,-9.962899,62.545595,12.341972)"/>
<use data-text="e" xlink:href="#font_3_50" transform="matrix(9.962899,0,0,-9.962899,65.59424,12.341972)"/>
<use data-text="e" xlink:href="#font_3_50" transform="matrix(9.962899,0,0,-9.962899,70.01777,12.341972)"/>
<use data-text="t" xlink:href="#font_3_105" transform="matrix(9.962899,0,0,-9.962899,74.44129,12.341972)"/>
</svg>
