<svg xmlns="http://www.w3.org/2000/svg" xmlns:xlink="http://www.w3.org/1999/xlink" version="1.1" width="178" height="158" viewBox="0 0 178 158">
<defs>
<path id="font_1_3" d="M.28199769 .20405579C.2979889 .21907044 .33999635 .2520752 .35598756 .26608277 .41799928 .32312013 .47698976 .3781433 .47698976 .46917726 .47698976 .588089 .3769989 .66503909 .2519989 .66503909 .13198853 .66503909 .052993776 .57411196 .052993776 .48516847 .052993776 .4361725 .09199524 .4291687 .10598755 .4291687 .1269989 .4291687 .1579895 .4441681 .1579895 .48217774 .1579895 .5341797 .10798645 .5341797 .09599304 .5341797 .125 .6070709 .19198609 .6320343 .24099732 .6320343 .33399964 .6320343 .38198854 .55314639 .38198854 .46917726 .38198854 .36514283 .30899049 .28910829 .19099427 .16804505L.06498718 .037994386C.052993776 .026992798 .052993776 .024993897 .052993776 0H.44799806L.47698976 .17904663H.44599916C.44299317 .1590271 .43499757 .10900879 .4229889 .08999634 .4169922 .08198547 .34098817 .08198547 .32499696 .08198547H.14698792L.28199769 .20405579Z"/>
<path id="font_1_5" d="M.3939972 .6468048C.3939972 .6667938 .3939972 .6748047 .37298585 .6748047 .3600006 .6748047 .35899354 .6737976 .34899903 .65979006L.02999878 .197052V.1640625H.31199647V.08100891C.31199647 .04399109 .30899049 .032989503 .23199463 .032989503H.20899964V0C.2939911 .0029907227 .29599 .0029907227 .35299684 .0029907227 .4099884 .0029907227 .4119873 .0029907227 .49699403 0V.032989503H.47399903C.39698792 .032989503 .3939972 .04399109 .3939972 .08100891V.1640625H.5V.197052H.3939972V.6468048M.31900025 .5658417V.197052H.06498718L.31900025 .5658417Z"/>
<path id="font_1_6" d="M.13798523 .33073426C.13798523 .41377259 .14498902 .4868164 .18099976 .54782107 .21099854 .5978241 .2619934 .6390381 .32499696 .6390381 .34498597 .6390381 .3909912 .63601687 .4139862 .60084536 .36898805 .5988312 .36499024 .5648346 .36499024 .553833 .36499024 .5238342 .3880005 .50683596 .4119873 .50683596 .42999269 .50683596 .45899964 .51782229 .45899964 .5558319 .45899964 .615921 .4139862 .66503909 .32398988 .66503909 .18499756 .66503909 .04399109 .53282168 .04399109 .31672669 .04399109 .045532228 .16999817-.021484375 .2669983-.021484375 .31498719-.021484375 .36698915-.0084991459 .4119873 .03453064 .45199586 .07354736 .48599244 .11558533 .48599244 .20263672 .48599244 .33372499 .3869934 .42578126 .27598573 .42578126 .20399475 .42578126 .16099549 .37976075 .13798523 .33073426M.2669983 .008514404C.21398926 .008514404 .18099976 .045532228 .1659851 .07354736 .14299011 .11859131 .14099121 .18663025 .14099121 .22465515 .14099121 .32373048 .19499207 .3977661 .27198792 .3977661 .32199098 .3977661 .35198976 .37176515 .37098695 .33673097 .3919983 .29971314 .3919983 .25468446 .3919983 .2036438 .3919983 .15260315 .3919983 .10858154 .37199403 .07255554 .34599305 .026519776 .31098939 .008514404 .2669983 .008514404Z"/>
<path id="font_1_7" d="M.33198548 .36080934C.3880005 .38783265 .45599366 .4378662 .45599366 .5159302 .45599366 .6110077 .35899354 .66503909 .2659912 .66503909 .1599884 .66503909 .07398987 .59199526 .07398987 .49790956 .07398987 .46089173 .08699036 .42686463 .11199951 .39782716 .1289978 .3768158 .1329956 .3748169 .19499207 .3357849 .070999149 .2807312 .04399109 .20767212 .04399109 .15162659 .04399109 .041534425 .15499878-.021484375 .2639923-.021484375 .3869934-.021484375 .48599244 .061553956 .48599244 .16764832 .48599244 .23069763 .45199586 .2727356 .43598939 .28974916 .4189911 .30575563 .41799928 .3067627 .33198548 .36080934M.1769867 .45487977C.147995 .4718933 .12399292 .5009155 .12399292 .5359497 .12399292 .598999 .19299317 .6390381 .2639923 .6390381 .34199525 .6390381 .4059906 .5859833 .4059906 .5159302 .4059906 .45788575 .36099244 .408844 .3019867 .37982179L.1769867 .45487977M.22599793 .31776429C.22999573 .31576539 .34399415 .24571228 .36099244 .23469544 .3769989 .22569275 .42900086 .19366455 .42900086 .13360596 .42900086 .056549074 .34799195 .008514404 .2659912 .008514404 .1769867 .008514404 .100997928 .06956482 .100997928 .15162659 .100997928 .22668457 .15699768 .28573609 .22599793 .31776429Z"/>
<path id="font_1_2" d="M.31399537 .63708499C.31399537 .664032 .31199647 .66503909 .2849884 .66503909 .24398804 .6251831 .19099427 .6013489 .09599304 .6013489V.5683594C.12298584 .5683594 .1769867 .5683594 .23498535 .5953522V.08203125C.23498535 .04499817 .23199463 .032989503 .13699341 .032989503H.101989749V0C.14299011 .0029907227 .22898865 .0029907227 .27398683 .0029907227 .31900025 .0029907227 .4059906 .0029907227 .44699098 0V.032989503H.4119873C.31698609 .032989503 .31399537 .04499817 .31399537 .08203125V.63708499Z"/>
<path id="font_1_1" d="M.4889984 .31877137C.4889984 .42585755 .47799684 .49090577 .44499208 .55496218 .40098573 .6430359 .31999208 .66503909 .2649994 .66503909 .13899231 .66503909 .09298706 .5709839 .07899475 .5429535 .042999269 .4698944 .040985109 .3708191 .040985109 .31877137 .040985109 .25271607 .04399109 .15162659 .09199524 .07156372 .13798523-.0024871827 .21199036-.021484375 .2649994-.021484375 .31298829-.021484375 .39898683-.0064849855 .44898988 .09257507 .48599244 .16464234 .4889984 .2537079 .4889984 .31877137M.2649994 .006515503C.23098755 .006515503 .1619873 .022521973 .14099121 .12760926 .12998963 .18466187 .12998963 .2787323 .12998963 .33078004 .12998963 .3998413 .12998963 .4698944 .14099121 .5249481 .1619873 .6270294 .23999024 .6370239 .2649994 .6370239 .29899598 .6370239 .36799623 .62002566 .3880005 .5289459 .3999939 .4738922 .3999939 .39883424 .3999939 .33078004 .3999939 .27172853 .3999939 .18165589 .3880005 .12561035 .36698915 .020523072 .2979889 .006515503 .2649994 .006515503Z"/>
<path id="font_1_4" d="M.25299073 .33370973C.33198548 .33370973 .38198854 .27557374 .38198854 .17037964 .38198854 .045440675 .31098939 .008514404 .2579956 .008514404 .20298767 .008514404 .12799073 .0284729 .09298706 .08137512 .1289978 .08137512 .1539917 .10437012 .1539917 .13737488 .1539917 .16937256 .1309967 .19238281 .09899902 .19238281 .07199097 .19238281 .04399109 .17536927 .04399109 .13537598 .04399109 .04045105 .1459961-.021484375 .2599945-.021484375 .3929901-.021484375 .48599244 .070388797 .48599244 .17037964 .48599244 .25352479 .41999818 .32969667 .31799317 .3517456 .39698792 .37982179 .45599366 .4479828 .45599366 .52804568 .45599366 .6080475 .3659973 .66503909 .2619934 .66503909 .15499878 .66503909 .07398987 .6070404 .07398987 .53105166 .07398987 .49404908 .09899902 .4780426 .125 .4780426 .1559906 .4780426 .17599488 .5000458 .17599488 .52905276 .17599488 .56604006 .14399719 .5800476 .12199402 .5810547 .1639862 .6360321 .24099732 .6390381 .25898744 .6390381 .2849884 .6390381 .36099244 .6310272 .36099244 .52804568 .36099244 .45799256 .33198548 .41589356 .31799317 .39985658 .28799439 .36878968 .2649994 .36679078 .20399475 .3627777 .18499756 .36177064 .1769867 .36076356 .1769867 .3477478 .1769867 .33370973 .18598938 .33370973 .20298767 .33370973H.25299073Z"/>
<path id="font_2_1" d="M.33099366-.2400055C.33099366-.23701477 .33099366-.23500061 .31399537-.21800232 .18899536-.0920105 .15699768 .09700012 .15699768 .25 .15699768 .42399598 .19499207 .59799197 .31799317 .72299197 .33099366 .73498538 .33099366 .7369995 .33099366 .73999026 .33099366 .746994 .32699586 .75 .32099916 .75 .31098939 .75 .22099304 .6819916 .1619873 .5549927 .11099243 .44499208 .09899902 .33399964 .09899902 .25 .09899902 .17199707 .10998535 .050994874 .16499329-.06201172 .22499085-.18501282 .31098939-.25 .32099916-.25 .32699586-.25 .33099366-.24700928 .33099366-.2400055Z"/>
<path id="font_3_2" d="M.33399964 .30233766C.33999635 .32835389 .36299134 .42037965 .43299867 .42037965 .43798829 .42037965 .46199037 .42037965 .48298646 .40734864 .45498658 .402359 .43499757 .37734986 .43499757 .35334779 .43499757 .33735658 .44599916 .31835938 .47299195 .31835938 .49499513 .31835938 .5269928 .3363495 .5269928 .37635804 .5269928 .42837525 .46798707 .4423828 .43399049 .4423828 .37599183 .4423828 .34098817 .38935853 .32899476 .36634828 .3039856 .43237306 .25 .4423828 .22099304 .4423828 .116989139 .4423828 .05999756 .3133545 .05999756 .28834535 .05999756 .27833558 .069992069 .27833558 .07199097 .27833558 .07998657 .27833558 .08299255 .28033448 .084991458 .28933717 .11898804 .39535523 .18499756 .42037965 .21899414 .42037965 .23799134 .42037965 .272995 .4113617 .272995 .35334779 .272995 .32235719 .2559967 .25532533 .21899414 .11528015 .20298767 .053268434 .16799927 .011245728 .12399292 .011245728 .117996219 .011245728 .09498596 .011245728 .07398987 .024276734 .09899902 .029266358 .12098694 .05027771 .12098694 .07827759 .12098694 .105270389 .09899902 .11328125 .083999637 .11328125 .053985597 .11328125 .0289917 .08728027 .0289917 .055267335 .0289917 .009246826 .07899475-.0107421879 .12298584-.0107421879 .18899536-.0107421879 .22499085 .059280397 .22799683 .0652771 .23999024 .028274537 .27598573-.0107421879 .33599855-.0107421879 .43899537-.0107421879 .49598695 .118270877 .49598695 .14328003 .49598695 .1532898 .4869995 .1532898 .48399354 .1532898 .47499085 .1532898 .47299195 .14929199 .47099305 .14228821 .43798829 .03527832 .36999513 .011245728 .33799745 .011245728 .29899598 .011245728 .2829895 .043273927 .2829895 .07727051 .2829895 .09927368 .2889862 .121276859 .2999878 .16529846L.33399964 .30233766Z"/>
<path id="font_4_1" d="M.33499146 .63612368C.33499146 .6630554 .33299256 .6640625 .30499269 .6640625 .24099732 .6014404 .1499939 .6004486 .10899353 .6004486V.5644531C.1329956 .5644531 .19898987 .5644531 .2539978 .592453V.08203125C.2539978 .04899597 .2539978 .035995485 .1539917 .035995485H.115997318V0C.13398743 .0009918213 .25698854 .0039978029 .2939911 .0039978029 .32499696 .0039978029 .45098878 .0009918213 .47299195 0V.035995485H.43499757C.33499146 .035995485 .33499146 .04899597 .33499146 .08203125V.63612368Z"/>
<path id="font_3_1" d="M.20298767 .0009918213C.20298767 .066986087 .17799378 .10598755 .13899231 .10598755 .10598755 .10598755 .085998538 .08099365 .085998538 .052993776 .085998538 .025985718 .10598755 0 .13899231 0 .15098572 0 .1639862 .0039978029 .17399597 .0129852299 .1769867 .01499939 .17799378 .015991211 .1789856 .015991211 .17999268 .015991211 .18099976 .01499939 .18099976 .0009918213 .18099976-.07316589 .1459961-.13328552 .11299133-.16635132 .101989749-.17736817 .101989749-.17936707 .101989749-.18237305 .101989749-.18936157 .10699463-.19335938 .11199951-.19335938 .12298584-.19335938 .20298767-.116256717 .20298767 .0009918213Z"/>
<path id="font_3_3" d="M.48599244 .38136292C.48999024 .39537049 .48999024 .39736939 .48999024 .40437318 .48999024 .42237855 .47599793 .43138124 .46099855 .43138124 .45098878 .43138124 .43499757 .42536927 .42599488 .41036988 .42399598 .405365 .41600038 .37435914 .4119873 .35635377 .40499879 .33035279 .397995 .30334474 .3919983 .27633668L.34700013 .09628296C.34298707 .08126831 .2999878 .011245728 .23399353 .011245728 .18299866 .011245728 .17199707 .055267335 .17199707 .0922699 .17199707 .1382904 .18899536 .20030213 .22299195 .28833009 .23899842 .3293457 .24299622 .3403473 .24299622 .36035157 .24299622 .405365 .21099854 .4423828 .16099549 .4423828 .06599426 .4423828 .0289917 .29733277 .0289917 .28833009 .0289917 .27833558 .038986207 .27833558 .040985109 .27833558 .050994874 .27833558 .051986696 .28033448 .056991579 .29634095 .083999637 .3903656 .12399292 .42037965 .1579895 .42037965 .1659851 .42037965 .18299866 .42037965 .18299866 .3883667 .18299866 .36335755 .17298889 .3373413 .1659851 .31834413 .12599182 .21231079 .10798645 .1552887 .10798645 .10827637 .10798645 .019256592 .17098999-.0107421879 .22999573-.0107421879 .2689972-.0107421879 .30299378 .0062561037 .33099366 .03425598 .31799317-.017745972 .30599977-.06674194 .2659912-.11973572 .23999024-.15385437 .20199585-.18309021 .1559906-.18309021 .14199829-.18309021 .09700012-.18005371 .07998657-.14074707 .09599304-.14074707 .10899353-.14074707 .12298584-.1287384 .1329956-.11973572 .14299011-.10673523 .14299011-.08773804 .14299011-.056747438 .115997318-.052734376 .10598755-.052734376 .08299255-.052734376 .049987794-.068740848 .049987794-.11773682 .049987794-.16796875 .09399414-.20507813 .1559906-.20507813 .25898744-.20507813 .3619995-.11373901 .3899994-.00074768069L.48599244 .38136292Z"/>
<path id="font_2_2" d="M.2889862 .25C.2889862 .32798768 .27799989 .44898988 .22299195 .56199648 .16299439 .68499758 .07699585 .75 .066986087 .75 .06098938 .75 .056991579 .74598696 .056991579 .73999026 .056991579 .7369995 .056991579 .73498538 .07598877 .71699526 .17399597 .6179962 .23098755 .45899964 .23098755 .25 .23098755 .07899475 .19400025-.09700012 .069992069-.2230072 .056991579-.23500061 .056991579-.23701477 .056991579-.2400055 .056991579-.2460022 .06098938-.25 .066986087-.25 .07699585-.25 .16699219-.18200684 .22599793-.055007936 .2769928 .054992677 .2889862 .16600037 .2889862 .25Z"/>
<path id="font_4_2" d="M.5049896 .18203736H.47099305C.46798707 .16001892 .45799256 .100997928 .44499208 .09098816 .43699647 .084991458 .3600006 .084991458 .34599305 .084991458H.1619873C.2669983 .17803955 .3019867 .20603943 .3619995 .25306703 .43598939 .312088 .5049896 .374115 .5049896 .46914674 .5049896 .5900879 .39898683 .6640625 .2709961 .6640625 .14698792 .6640625 .06298828 .57710269 .06298828 .4851532 .06298828 .43414308 .10598755 .42915345 .115997318 .42915345 .13999939 .42915345 .16899109 .44615174 .16899109 .48214723 .16899109 .5001526 .1619873 .53515627 .10998535 .53515627 .14099121 .6060791 .20899964 .62805178 .2559967 .62805178 .35598756 .62805178 .4079895 .5501404 .4079895 .46914674 .4079895 .38212586 .34599305 .3130951 .31399537 .27708436L.07299805 .038986207C.06298828 .02999878 .06298828 .027999878 .06298828 0H.47499085L.5049896 .18203736Z"/>
<path id="font_5_1" d="M.6589966 .23046875C.6759949 .23046875 .69400027 .23046875 .69400027 .25045777 .69400027 .27046205 .6759949 .27046205 .6589966 .27046205H.117996219C.100997928 .27046205 .08299255 .27046205 .08299255 .25045777 .08299255 .23046875 .100997928 .23046875 .117996219 .23046875H.6589966Z"/>
</defs>
<path transform="matrix(1.00005,0,0,-1,12.915596,145.948)" d="M0 0H163.88036V141.35103H0Z" fill="#fffac2"/>
<path transform="matrix(1.00005,0,0,-1,12.915596,145.948)" stroke-width=".3985" stroke-linecap="butt" stroke-miterlimit="10" stroke-linejoin="miter" fill="none" stroke="#d5d6d5" d="M36.41785 0V141.35103M72.83571 0V141.35103M109.25357 0V141.35103M145.67144 0V141.35103"/>
<path transform="matrix(1.00005,0,0,-1,12.915596,145.948)" stroke-width=".3985" stroke-linecap="butt" stroke-miterlimit="10" stroke-linejoin="miter" fill="none" stroke="#d5d6d5" d="M0 47.117H163.88036M0 94.23401H163.88036M0 141.35103H163.88036"/>
<path transform="matrix(1.00005,0,0,-1,12.915596,145.948)" stroke-width=".19925" stroke-linecap="butt" stroke-miterlimit="10" stroke-linejoin="miter" fill="none" stroke="#929292" d="M36.41785-2.12582V2.12582M72.83571-2.12582V2.12582M109.25357-2.12582V2.12582M145.67144-2.12582V2.12582"/>
<path transform="matrix(1.00005,0,0,-1,12.915596,145.948)" stroke-width=".19925" stroke-linecap="butt" stroke-miterlimit="10" stroke-linejoin="miter" fill="none" stroke="#929292" d="M-2.12589 47.117H2.12589M-2.12589 94.23401H2.12589M-2.12589 141.35103H2.12589"/>
<path transform="matrix(1.00005,0,0,-1,12.915596,145.948)" stroke-width=".3985" stroke-linecap="butt" stroke-miterlimit="10" stroke-linejoin="miter" fill="none" stroke="#000000" d="M0 0H161.88784"/>
<path transform="matrix(1.00005,0,0,-1,174.81153,145.948)" d="M1.99252 0-1.19551 1.59401 0 0-1.19551-1.59401"/>
<path transform="matrix(1.00005,0,0,-1,12.915596,145.948)" stroke-width=".3985" stroke-linecap="butt" stroke-miterlimit="10" stroke-linejoin="miter" fill="none" stroke="#000000" d="M0 0V139.3585"/>
<path transform="matrix(0,-1,-1.00005,-0,12.915596,6.589493)" d="M1.99252 0-1.19551 1.59401 0 0-1.19551-1.59401"/>
<use data-text="2" xlink:href="#font_1_3" transform="matrix(7.970498,0,0,-7.9701,47.218309,156.73)"/>
<use data-text="4" xlink:href="#font_1_5" transform="matrix(7.970498,0,0,-7.9701,83.63813,156.73)"/>
<use data-text="6" xlink:href="#font_1_6" transform="matrix(7.970498,0,0,-7.9701,120.056949,156.73)"/>
<use data-text="8" xlink:href="#font_1_7" transform="matrix(7.970498,0,0,-7.9701,156.47678,156.73)"/>
<use data-text="1" xlink:href="#font_1_2" transform="matrix(7.970498,0,0,-7.9701,.6919861,101.399)"/>
<use data-text="0" xlink:href="#font_1_1" transform="matrix(7.970498,0,0,-7.9701,4.92432,101.399)"/>
<use data-text="2" xlink:href="#font_1_3" transform="matrix(7.970498,0,0,-7.9701,.6919861,54.281999)"/>
<use data-text="0" xlink:href="#font_1_1" transform="matrix(7.970498,0,0,-7.9701,4.92432,54.281999)"/>
<use data-text="3" xlink:href="#font_1_4" transform="matrix(7.970498,0,0,-7.9701,.6919861,7.1649935)"/>
<use data-text="0" xlink:href="#font_1_1" transform="matrix(7.970498,0,0,-7.9701,4.92432,7.1649935)"/>
<path transform="matrix(1.00005,0,0,-1,12.915596,145.948)" stroke-width=".99628" stroke-linecap="butt" stroke-miterlimit="10" stroke-linejoin="miter" fill="none" stroke="#9e0c0f" d="M23.94957 38.92363 22.38177 37.30093 26.55464 41.61996 30.72751 45.93904 34.90038 50.25809 39.07324 54.57712 43.24611 58.89616 47.41898 63.2152 51.59184 67.53429 55.76471 71.85332 59.93758 76.17235 64.11044 80.4914 68.28331 84.81042 72.45618 89.1295 76.62904 93.44855 80.80191 97.76758 84.97478 102.08662 89.14764 106.40565 93.32051 110.72473 97.49338 115.04378 101.66624 119.36281 105.83911 123.68185 110.01198 128.0009 114.18484 132.31996 112.61707 130.69728"/>
<path transform="matrix(-.6948547,.71916,.71919599,.69482,37.355878,106.51773)" d="M7.39124 0 2.37614 1.6717 .70447 0 2.37614-1.6717Z" fill="#9e0c0f"/>
<path transform="matrix(-.6948547,.71916,.71919599,.69482,37.355878,106.51773)" stroke-width=".99628" stroke-linecap="butt" stroke-miterlimit="10" stroke-linejoin="miter" fill="none" stroke="#9e0c0f" d="M7.39124 0 2.37614 1.6717 .70447 0 2.37614-1.6717Z"/>
<path transform="matrix(.6948547,-.71916,-.71919599,-.69482,125.048778,15.757355)" d="M7.39124 0 2.37614 1.6717 .70447 0 2.37614-1.6717Z" fill="#9e0c0f"/>
<path transform="matrix(.6948547,-.71916,-.71919599,-.69482,125.048778,15.757355)" stroke-width=".99628" stroke-linecap="butt" stroke-miterlimit="10" stroke-linejoin="miter" fill="none" stroke="#9e0c0f" d="M7.39124 0 2.37614 1.6717 .70447 0 2.37614-1.6717Z"/>
<path transform="matrix(1.00005,0,0,-1,12.915596,145.948)" stroke-width=".3985" stroke-linecap="butt" stroke-miterlimit="10" stroke-linejoin="miter" fill="none" stroke="#9e0c0f" d=""/>
<use data-text="(" xlink:href="#font_2_1" transform="matrix(9.963098,0,0,-9.9626,32.329568,69.262)" fill="#9e0c0f"/>
<use data-text="x" xlink:href="#font_3_2" transform="matrix(9.963098,0,0,-9.9626,36.20376,69.262)" fill="#9e0c0f"/>
<use data-text="1" xlink:href="#font_4_1" transform="matrix(6.9741489,0,0,-6.9738,41.89804,70.756008)" fill="#9e0c0f"/>
<use data-text="," xlink:href="#font_3_1" transform="matrix(9.963098,0,0,-9.9626,46.367265,69.262)" fill="#9e0c0f"/>
<use data-text="y" xlink:href="#font_3_3" transform="matrix(9.963098,0,0,-9.9626,50.780916,69.262)" fill="#9e0c0f"/>
<use data-text="1" xlink:href="#font_4_1" transform="matrix(6.9741489,0,0,-6.9738,55.680727,70.756008)" fill="#9e0c0f"/>
<use data-text=")" xlink:href="#font_2_2" transform="matrix(9.963098,0,0,-9.9626,60.14995,69.262)" fill="#9e0c0f"/>
<path transform="matrix(1.00005,0,0,-1,12.915596,145.948)" stroke-width=".3985" stroke-linecap="butt" stroke-miterlimit="10" stroke-linejoin="miter" fill="none" stroke="#9e0c0f" d=""/>
<use data-text="(" xlink:href="#font_2_1" transform="matrix(9.963098,0,0,-9.9626,86.9593,12.722)" fill="#9e0c0f"/>
<use data-text="x" xlink:href="#font_3_2" transform="matrix(9.963098,0,0,-9.9626,90.83349,12.722)" fill="#9e0c0f"/>
<use data-text="2" xlink:href="#font_4_2" transform="matrix(6.9741489,0,0,-6.9738,96.52777,14.216003)" fill="#9e0c0f"/>
<use data-text="," xlink:href="#font_3_1" transform="matrix(9.963098,0,0,-9.9626,100.996997,12.722)" fill="#9e0c0f"/>
<use data-text="y" xlink:href="#font_3_3" transform="matrix(9.963098,0,0,-9.9626,105.410648,12.722)" fill="#9e0c0f"/>
<use data-text="2" xlink:href="#font_4_2" transform="matrix(6.9741489,0,0,-6.9738,110.310459,14.216003)" fill="#9e0c0f"/>
<use data-text=")" xlink:href="#font_2_2" transform="matrix(9.963098,0,0,-9.9626,114.77968,12.722)" fill="#9e0c0f"/>
<path transform="matrix(1.00005,0,0,-1,12.915596,145.948)" stroke-width=".99628" stroke-linecap="butt" stroke-miterlimit="10" stroke-linejoin="miter" fill="none" stroke="#929292" d="M54.62679 70.6755H109.25357"/>
<use data-text="x" xlink:href="#font_3_2" transform="matrix(9.963098,0,0,-9.9626,78.60688,84.903)" fill="#929292"/>
<use data-text="2" xlink:href="#font_4_2" transform="matrix(6.9741489,0,0,-6.9738,84.30116,86.397)" fill="#929292"/>
<use data-text="&#x2212;" xlink:href="#font_5_1" transform="matrix(9.963098,0,0,-9.9626,90.9845,84.903)" fill="#929292"/>
<use data-text="x" xlink:href="#font_3_2" transform="matrix(9.963098,0,0,-9.9626,100.948,84.903)" fill="#929292"/>
<use data-text="1" xlink:href="#font_4_1" transform="matrix(6.9741489,0,0,-6.9738,106.64227,86.397)" fill="#929292"/>
<path transform="matrix(1.00005,0,0,-1,12.915596,145.948)" stroke-width=".99628" stroke-linecap="butt" stroke-miterlimit="10" stroke-linejoin="miter" fill="none" stroke="#929292" d="M109.25357 70.6755V124.3267"/>
<path transform="matrix(0,-1,-1.00005,-0,122.17462,21.6213)" d="M2.8892 0-1.73352 2.31136 0 0-1.73352-2.31136" fill="#929292"/>
<use data-text="y" xlink:href="#font_3_3" transform="matrix(0,-9.9626,-9.963098,-0,131.80553,62.443994)" fill="#929292"/>
<use data-text="2" xlink:href="#font_4_2" transform="matrix(0,-6.9738,-6.9741489,-0,133.2996,57.559995)" fill="#929292"/>
<use data-text="&#x2212;" xlink:href="#font_5_1" transform="matrix(0,-9.9626,-9.963098,-0,131.80553,50.87599)" fill="#929292"/>
<use data-text="y" xlink:href="#font_3_3" transform="matrix(0,-9.9626,-9.963098,-0,131.80553,40.913995)" fill="#929292"/>
<use data-text="1" xlink:href="#font_4_1" transform="matrix(0,-6.9738,-6.9741489,-0,133.2996,36.02899)" fill="#929292"/>
<path transform="matrix(1.00005,0,0,-1,12.915596,145.948)" d="M56.61934 70.6755C56.61934 71.77599 55.72725 72.66806 54.62679 72.66806 53.5263 72.66806 52.63423 71.77599 52.63423 70.6755 52.63423 69.57504 53.5263 68.68295 54.62679 68.68295 55.72725 68.68295 56.61934 69.57504 56.61934 70.6755ZM54.62679 70.6755" fill="#9e0c0f"/>
<path transform="matrix(1.00005,0,0,-1,12.915596,145.948)" stroke-width=".3985" stroke-linecap="butt" stroke-miterlimit="10" stroke-linejoin="miter" fill="none" stroke="#9e0c0f" d="M56.61934 70.6755C56.61934 71.77599 55.72725 72.66806 54.62679 72.66806 53.5263 72.66806 52.63423 71.77599 52.63423 70.6755 52.63423 69.57504 53.5263 68.68295 54.62679 68.68295 55.72725 68.68295 56.61934 69.57504 56.61934 70.6755ZM54.62679 70.6755"/>
<path transform="matrix(1.00005,0,0,-1,12.915596,145.948)" stroke-width=".3985" stroke-linecap="butt" stroke-miterlimit="10" stroke-linejoin="miter" fill="none" stroke="#9e0c0f" d=""/>
<path transform="matrix(1.00005,0,0,-1,12.915596,145.948)" d="M111.24612 127.21593C111.24612 128.31639 110.35403 129.20848 109.25357 129.20848 108.1531 129.20848 107.26102 128.31639 107.26102 127.21593 107.26102 126.11545 108.1531 125.22337 109.25357 125.22337 110.35403 125.22337 111.24612 126.11545 111.24612 127.21593ZM109.25357 127.21593" fill="#9e0c0f"/>
<path transform="matrix(1.00005,0,0,-1,12.915596,145.948)" stroke-width=".3985" stroke-linecap="butt" stroke-miterlimit="10" stroke-linejoin="miter" fill="none" stroke="#9e0c0f" d="M111.24612 127.21593C111.24612 128.31639 110.35403 129.20848 109.25357 129.20848 108.1531 129.20848 107.26102 128.31639 107.26102 127.21593 107.26102 126.11545 108.1531 125.22337 109.25357 125.22337 110.35403 125.22337 111.24612 126.11545 111.24612 127.21593ZM109.25357 127.21593"/>
<path transform="matrix(1.00005,0,0,-1,12.915596,145.948)" stroke-width=".3985" stroke-linecap="butt" stroke-miterlimit="10" stroke-linejoin="miter" fill="none" stroke="#9e0c0f" d=""/>
<use data-text="x" xlink:href="#font_3_2" transform="matrix(9.963098,0,0,-9.9626,167.59033,142.428)"/>
<use data-text="y" xlink:href="#font_3_3" transform="matrix(9.963098,0,0,-9.9626,16.435772,12.405991)"/>
</svg>
