<svg xmlns="http://www.w3.org/2000/svg" xmlns:xlink="http://www.w3.org/1999/xlink" version="1.1" width="183" height="156" viewBox="0 0 183 156">
<defs>
<path id="font_1_3" d="M.28199769 .20405579C.2979889 .21907044 .33999635 .2520752 .35598756 .26608277 .41799928 .32312013 .47698976 .3781433 .47698976 .46917726 .47698976 .588089 .3769989 .66503909 .2519989 .66503909 .13198853 .66503909 .052993776 .57411196 .052993776 .48516847 .052993776 .4361725 .09199524 .4291687 .10598755 .4291687 .1269989 .4291687 .1579895 .4441681 .1579895 .48217774 .1579895 .5341797 .10798645 .5341797 .09599304 .5341797 .125 .6070709 .19198609 .6320343 .24099732 .6320343 .33399964 .6320343 .38198854 .55314639 .38198854 .46917726 .38198854 .36514283 .30899049 .28910829 .19099427 .16804505L.06498718 .037994386C.052993776 .026992798 .052993776 .024993897 .052993776 0H.44799806L.47698976 .17904663H.44599916C.44299317 .1590271 .43499757 .10900879 .4229889 .08999634 .4169922 .08198547 .34098817 .08198547 .32499696 .08198547H.14698792L.28199769 .20405579Z"/>
<path id="font_1_5" d="M.3939972 .6468048C.3939972 .6667938 .3939972 .6748047 .37298585 .6748047 .3600006 .6748047 .35899354 .6737976 .34899903 .65979006L.02999878 .197052V.1640625H.31199647V.08100891C.31199647 .04399109 .30899049 .032989503 .23199463 .032989503H.20899964V0C.2939911 .0029907227 .29599 .0029907227 .35299684 .0029907227 .4099884 .0029907227 .4119873 .0029907227 .49699403 0V.032989503H.47399903C.39698792 .032989503 .3939972 .04399109 .3939972 .08100891V.1640625H.5V.197052H.3939972V.6468048M.31900025 .5658417V.197052H.06498718L.31900025 .5658417Z"/>
<path id="font_1_6" d="M.13798523 .33073426C.13798523 .41377259 .14498902 .4868164 .18099976 .54782107 .21099854 .5978241 .2619934 .6390381 .32499696 .6390381 .34498597 .6390381 .3909912 .63601687 .4139862 .60084536 .36898805 .5988312 .36499024 .5648346 .36499024 .553833 .36499024 .5238342 .3880005 .50683596 .4119873 .50683596 .42999269 .50683596 .45899964 .51782229 .45899964 .5558319 .45899964 .615921 .4139862 .66503909 .32398988 .66503909 .18499756 .66503909 .04399109 .53282168 .04399109 .31672669 .04399109 .045532228 .16999817-.021484375 .2669983-.021484375 .31498719-.021484375 .36698915-.0084991459 .4119873 .03453064 .45199586 .07354736 .48599244 .11558533 .48599244 .20263672 .48599244 .33372499 .3869934 .42578126 .27598573 .42578126 .20399475 .42578126 .16099549 .37976075 .13798523 .33073426M.2669983 .008514404C.21398926 .008514404 .18099976 .045532228 .1659851 .07354736 .14299011 .11859131 .14099121 .18663025 .14099121 .22465515 .14099121 .32373048 .19499207 .3977661 .27198792 .3977661 .32199098 .3977661 .35198976 .37176515 .37098695 .33673097 .3919983 .29971314 .3919983 .25468446 .3919983 .2036438 .3919983 .15260315 .3919983 .10858154 .37199403 .07255554 .34599305 .026519776 .31098939 .008514404 .2669983 .008514404Z"/>
<path id="font_1_7" d="M.33198548 .36080934C.3880005 .38783265 .45599366 .4378662 .45599366 .5159302 .45599366 .6110077 .35899354 .66503909 .2659912 .66503909 .1599884 .66503909 .07398987 .59199526 .07398987 .49790956 .07398987 .46089173 .08699036 .42686463 .11199951 .39782716 .1289978 .3768158 .1329956 .3748169 .19499207 .3357849 .070999149 .2807312 .04399109 .20767212 .04399109 .15162659 .04399109 .041534425 .15499878-.021484375 .2639923-.021484375 .3869934-.021484375 .48599244 .061553956 .48599244 .16764832 .48599244 .23069763 .45199586 .2727356 .43598939 .28974916 .4189911 .30575563 .41799928 .3067627 .33198548 .36080934M.1769867 .45487977C.147995 .4718933 .12399292 .5009155 .12399292 .5359497 .12399292 .598999 .19299317 .6390381 .2639923 .6390381 .34199525 .6390381 .4059906 .5859833 .4059906 .5159302 .4059906 .45788575 .36099244 .408844 .3019867 .37982179L.1769867 .45487977M.22599793 .31776429C.22999573 .31576539 .34399415 .24571228 .36099244 .23469544 .3769989 .22569275 .42900086 .19366455 .42900086 .13360596 .42900086 .056549074 .34799195 .008514404 .2659912 .008514404 .1769867 .008514404 .100997928 .06956482 .100997928 .15162659 .100997928 .22668457 .15699768 .28573609 .22599793 .31776429Z"/>
<path id="font_1_2" d="M.31399537 .63708499C.31399537 .664032 .31199647 .66503909 .2849884 .66503909 .24398804 .6251831 .19099427 .6013489 .09599304 .6013489V.5683594C.12298584 .5683594 .1769867 .5683594 .23498535 .5953522V.08203125C.23498535 .04499817 .23199463 .032989503 .13699341 .032989503H.101989749V0C.14299011 .0029907227 .22898865 .0029907227 .27398683 .0029907227 .31900025 .0029907227 .4059906 .0029907227 .44699098 0V.032989503H.4119873C.31698609 .032989503 .31399537 .04499817 .31399537 .08203125V.63708499Z"/>
<path id="font_1_1" d="M.4889984 .31877137C.4889984 .42585755 .47799684 .49090577 .44499208 .55496218 .40098573 .6430359 .31999208 .66503909 .2649994 .66503909 .13899231 .66503909 .09298706 .5709839 .07899475 .5429535 .042999269 .4698944 .040985109 .3708191 .040985109 .31877137 .040985109 .25271607 .04399109 .15162659 .09199524 .07156372 .13798523-.0024871827 .21199036-.021484375 .2649994-.021484375 .31298829-.021484375 .39898683-.0064849855 .44898988 .09257507 .48599244 .16464234 .4889984 .2537079 .4889984 .31877137M.2649994 .006515503C.23098755 .006515503 .1619873 .022521973 .14099121 .12760926 .12998963 .18466187 .12998963 .2787323 .12998963 .33078004 .12998963 .3998413 .12998963 .4698944 .14099121 .5249481 .1619873 .6270294 .23999024 .6370239 .2649994 .6370239 .29899598 .6370239 .36799623 .62002566 .3880005 .5289459 .3999939 .4738922 .3999939 .39883424 .3999939 .33078004 .3999939 .27172853 .3999939 .18165589 .3880005 .12561035 .36698915 .020523072 .2979889 .006515503 .2649994 .006515503Z"/>
<path id="font_1_4" d="M.25299073 .33370973C.33198548 .33370973 .38198854 .27557374 .38198854 .17037964 .38198854 .045440675 .31098939 .008514404 .2579956 .008514404 .20298767 .008514404 .12799073 .0284729 .09298706 .08137512 .1289978 .08137512 .1539917 .10437012 .1539917 .13737488 .1539917 .16937256 .1309967 .19238281 .09899902 .19238281 .07199097 .19238281 .04399109 .17536927 .04399109 .13537598 .04399109 .04045105 .1459961-.021484375 .2599945-.021484375 .3929901-.021484375 .48599244 .070388797 .48599244 .17037964 .48599244 .25352479 .41999818 .32969667 .31799317 .3517456 .39698792 .37982179 .45599366 .4479828 .45599366 .52804568 .45599366 .6080475 .3659973 .66503909 .2619934 .66503909 .15499878 .66503909 .07398987 .6070404 .07398987 .53105166 .07398987 .49404908 .09899902 .4780426 .125 .4780426 .1559906 .4780426 .17599488 .5000458 .17599488 .52905276 .17599488 .56604006 .14399719 .5800476 .12199402 .5810547 .1639862 .6360321 .24099732 .6390381 .25898744 .6390381 .2849884 .6390381 .36099244 .6310272 .36099244 .52804568 .36099244 .45799256 .33198548 .41589356 .31799317 .39985658 .28799439 .36878968 .2649994 .36679078 .20399475 .3627777 .18499756 .36177064 .1769867 .36076356 .1769867 .3477478 .1769867 .33370973 .18598938 .33370973 .20298767 .33370973H.25299073Z"/>
<clipPath id="clip_2">
<path transform="matrix(1.00008,0,0,-1,17.150895,143.15)" d="M0 0H163.8872V141.35164H0Z"/>
</clipPath>
<path id="font_3_4" d="M.44898988 .20022583C.44898988 .3193512 .36698915 .41944886 .25898744 .41944886 .21099854 .41944886 .16799927 .40345765 .13198853 .36842347V.5637665C.1519928 .5577698 .18499756 .55078127 .21699524 .55078127 .33999635 .55078127 .4099884 .6417694 .4099884 .6547699 .4099884 .6607666 .40699769 .6657715 .3999939 .6657715 .39898683 .6657715 .39698792 .6657715 .3919983 .66278079 .37199403 .6537781 .32299806 .6337738 .2559967 .6337738 .21598816 .6337738 .16999817 .6407776 .12298584 .6617737 .114990238 .66477969 .11299133 .66477969 .11099243 .66477969 .100997928 .66477969 .100997928 .6567688 .100997928 .6407776V.34439088C.100997928 .32637025 .100997928 .31835938 .114990238 .31835938 .12199402 .31835938 .12399292 .32136537 .12799073 .32736207 .13899231 .3433838 .17599488 .39746095 .25698854 .39746095 .30899049 .39746095 .33399964 .35139466 .34199525 .33337403 .35798646 .29632569 .3600006 .25727845 .3600006 .20722962 .3600006 .17222595 .3600006 .11222839 .33599855 .07035828 .31199647 .031463624 .2749939 .0055389406 .22898865 .0055389406 .1559906 .0055389406 .09899902 .058380128 .08198547 .11723328 .084991458 .1162262 .08799744 .115234378 .09899902 .115234378 .13198853 .115234378 .14898682 .14022827 .14898682 .16423035 .14898682 .18823242 .13198853 .21322632 .09899902 .21322632 .084991458 .21322632 .049987794 .20622254 .049987794 .16023255 .049987794 .07434082 .11898804-.022460938 .23098755-.022460938 .34700013-.022460938 .44898988 .073349 .44898988 .20022583Z"/>
<path id="font_4_114" d="M.7029877 .3996582V.43066407C.68099978 .4286499 .6519928 .42765809 .6299896 .42765809L.5369873 .43066407V.3996582C.57299807 .39866639 .59498599 .38075257 .59498599 .35176087 .59498599 .34576417 .59498599 .34376527 .58999636 .33078004L.49899293 .07513428 .3999939 .35375978C.3959961 .36575318 .394989 .36775209 .394989 .37275697 .394989 .3996582 .43399049 .3996582 .45399476 .3996582V.43066407L.34999085 .42765809C.31999208 .42765809 .29100038 .4286499 .26098634 .43066407V.3996582C.2979889 .3996582 .31399537 .39767457 .32398988 .38476563 .32899476 .37875367 .33999635 .34877015 .34700013 .3297882L.26098634 .08811951 .1659851 .3547516C.16099549 .36676026 .16099549 .36875917 .16099549 .37275697 .16099549 .3996582 .19999695 .3996582 .21998596 .3996582V.43066407L.11099243 .42765809 .017990113 .43066407V.3996582C.067993167 .3996582 .07998657 .39668275 .09199524 .36476136L.21798706 .01121521C.22299195-.0027618409 .22599793-.0107421879 .23899842-.0107421879 .2519989-.0107421879 .2539978-.004760742 .25898744 .009216309L.3600006 .2918396 .46199037 .008224487C.46598817-.0027618409 .46899415-.0107421879 .48199464-.0107421879 .49499513-.0107421879 .49798585-.0017547608 .5019989 .008224487L.61898806 .3357849C.6369934 .38575746 .66799929 .39866639 .7029877 .3996582Z"/>
<path id="font_4_50" d="M.4149933 .11933899C.4149933 .12934876 .40699769 .13134766 .4019928 .13134766 .3929901 .13134766 .3909912 .12535095 .3889923 .11734009 .35398866 .014251709 .2639923 .014251709 .2539978 .014251709 .20399475 .014251709 .1639862 .044281007 .14099121 .08131409 .11099243 .12934876 .11099243 .19540406 .11099243 .23144531H.3899994C.4119873 .23144531 .4149933 .23144531 .4149933 .2524414 .4149933 .35131837 .36099244 .4482422 .23599243 .4482422 .11999512 .4482422 .027999878 .34532167 .027999878 .22042847 .027999878 .08631897 .1329956-.0107421879 .24798584-.0107421879 .36999513-.0107421879 .4149933 .10032654 .4149933 .11933899M.34899903 .2524414H.11199951C.117996219 .40126039 .20199585 .426239 .23599243 .426239 .33898927 .426239 .34899903 .2913971 .34899903 .2524414Z"/>
<path id="font_4_70" d="M.5109863 0V.0309906C.47399903 .0309906 .45199586 .0309906 .4139862 .0839386L.2869873 .26278688C.28599549 .26478578 .2809906 .2707672 .2809906 .2737732 .2809906 .277771 .35198976 .33770753 .3619995 .34570313 .4249878 .39666749 .46699525 .39865113 .48799134 .3996582V.43066407C.45899964 .42765809 .44599916 .42765809 .41799928 .42765809 .38198854 .42765809 .31999208 .42965699 .30599977 .43066407V.3996582C.32499696 .39865113 .33499146 .3876648 .33499146 .37467958 .33499146 .3547058 .32099916 .3427124 .31298829 .33570863L.17199707 .21382141V.69433596L.027999878 .6826172V.6516113C.09799194 .6516113 .10598755 .64460757 .10598755 .5956421V.07595825C.10598755 .0309906 .09498596 .0309906 .027999878 .0309906V0L.13699341 .0029907227 .24699402 0V.0309906C.17999268 .0309906 .16899109 .0309906 .16899109 .07595825V.17889405L.23298645 .23387146C.30999757 .12792969 .35198976 .07196045 .35198976 .053985597 .35198976 .034988405 .33499146 .0309906 .31599427 .0309906V0L.42399598 .0029907227C.45298768 .0029907227 .48199464 .0019989014 .5109863 0Z"/>
<path id="font_4_98" d="M.3600006 .12823487C.3600006 .18122864 .32998658 .21122742 .31799317 .22323609 .2849884 .25523377 .24598694 .26322938 .20399475 .27124024 .147995 .28224183 .08099365 .29522706 .08099365 .35324098 .08099365 .38822938 .10699463 .42922975 .19299317 .42922975 .30299378 .42922975 .30799867 .3392334 .30999757 .30822755 .31098939 .2992401 .32199098 .2992401 .32199098 .2992401 .33499146 .2992401 .33499146 .30422975 .33499146 .32322694V.4242401C.33499146 .4412384 .33499146 .4482422 .32398988 .4482422 .31900025 .4482422 .31698609 .4482422 .3039856 .43623353 .30099488 .43223573 .29100038 .42323304 .2869873 .42022706 .24899292 .4482422 .20799256 .4482422 .19299317 .4482422 .070999149 .4482422 .032989503 .38124085 .032989503 .3252411 .032989503 .29023744 .04899597 .26223756 .07598877 .24023438 .10798645 .2142334 .13598633 .2082367 .20799256 .19422913 .22999573 .19021607 .31199647 .17422486 .31199647 .10221863 .31199647 .051223756 .2769928 .011245728 .19898987 .011245728 .114990238 .011245728 .07899475 .068222049 .05999756 .1532135 .056991579 .16621399 .055999757 .17021179 .04598999 .17021179 .032989503 .17021179 .032989503 .16322327 .032989503 .1452179V.013214111C.032989503-.003753662 .032989503-.0107421879 .04399109-.0107421879 .04899597-.0107421879 .049987794-.009750366 .068984989 .009246826 .070999149 .011245728 .070999149 .013214111 .08898926 .032226564 .1329956-.009750366 .17799378-.0107421879 .19898987-.0107421879 .31399537-.0107421879 .3600006 .05621338 .3600006 .1282196V.12823487Z"/>
<path id="font_3_1" d="M.2649994 .31141664C.3849945 .286438 .3919983 .18948365 .3919983 .16548157 .3919983 .09840393 .34399415 .03125 .2649994 .021224976V.31141664M.23399353 .31941224V.021224976C.1459961 .026245118 .09899902 .0773468 .085998538 .13948059 .08999634 .13848877 .09799194 .13748169 .101989749 .13748169 .1289978 .13748169 .147995 .15647888 .147995 .18348694 .147995 .21148682 .1269989 .22949219 .101989749 .22949219 .09599304 .22949219 .055999757 .22747803 .055999757 .17848206 .055999757 .08937073 .10899353-.0027770997 .23399353-.010772705V-.055664064H.2649994V-.009765625C.36999513-.00077819827 .44299317 .09239197 .44299317 .19548035 .44299317 .27844239 .397995 .32940675 .3889923 .33839417 .34899903 .38235475 .31298829 .39135743 .2649994 .40333558V.67311099C.34999085 .6691284 .397995 .62519839 .41299439 .5692749 .40899659 .570282 .40699769 .57128909 .39698792 .57128909 .37098695 .57128909 .35099793 .5532837 .35099793 .5252838 .35099793 .49427796 .37599183 .47927857 .39698792 .47927857 .3999939 .47927857 .44299317 .48028565 .44299317 .5292816 .44299317 .6261902 .3769989 .69911196 .2649994 .70510867V.75H.23399353V.7041168C.12298584 .6941223 .055999757 .6042328 .055999757 .51327517 .055999757 .44430543 .09298706 .39634706 .11099243 .379364 .14898682 .34039308 .18299866 .33239747 .23399353 .31941224M.23399353 .41133119C.11099243 .4373169 .10699463 .5232849 .10699463 .5432739 .10699463 .6032257 .1539917 .6651306 .23399353 .67311099V.41133119Z"/>
<path id="font_3_3" d="M.2939911 .64004519C.2939911 .66400149 .2939911 .6660156 .2709961 .6660156 .20899964 .60227969 .12098694 .60227969 .08898926 .60227969V.57128909C.10899353 .57128909 .16799927 .57128909 .21998596 .5972748V.07902527C.21998596 .042999269 .21699524 .0309906 .1269989 .0309906H.09498596V0C.12998963 .0029907227 .21699524 .0029907227 .25698854 .0029907227 .29699708 .0029907227 .38398744 .0029907227 .4189911 0V.0309906H.3869934C.29699708 .0309906 .2939911 .041992189 .2939911 .07902527V.64004519Z"/>
<path id="font_3_2" d="M.45999146 .31976319C.45999146 .39982606 .45498658 .47988893 .41999818 .5539398 .37399293 .65000918 .2919922 .6660156 .25 .6660156 .18998719 .6660156 .116989139 .64001467 .07598877 .54693606 .04399109 .47789 .038986207 .39982606 .038986207 .31976319 .038986207 .24472046 .042999269 .15464783 .083999637 .07859802 .1269989-.0024719239 .19999695-.022460938 .24899292-.022460938 .30299378-.022460938 .3789978-.0014648438 .4229889 .09359741 .45498658 .16265869 .45999146 .2407074 .45999146 .31976319M.24899292-.00047302247C.20999146-.00047302247 .15098572 .024551392 .1329956 .12062073 .12199402 .18066406 .12199402 .2727356 .12199402 .3317871 .12199402 .39582826 .12199402 .46188355 .12998963 .5159149 .14898682 .63500979 .22399903 .64401248 .24899292 .64401248 .28199769 .64401248 .34799195 .6259918 .36698915 .52693179 .3769989 .47088624 .3769989 .39482118 .3769989 .3317871 .3769989 .25672914 .3769989 .18867493 .3659973 .12461853 .35099793 .029556275 .2939911-.00047302247 .24899292-.00047302247Z"/>
<path id="font_4_28" d="M.48298646 .08912659V.14511109H.45799256V.08912659C.45799256 .03112793 .43299867 .025131226 .42199708 .025131226 .3889923 .025131226 .3849945 .070129398 .3849945 .07511902V.27508546C.3849945 .31707765 .3849945 .3560791 .34899903 .39312745 .30999757 .43223573 .2599945 .4482422 .21199036 .4482422 .12998963 .4482422 .06098938 .40115357 .06098938 .335083 .06098938 .30508424 .08099365 .28808595 .10699463 .28808595 .1349945 .28808595 .15299988 .30807496 .15299988 .33407594 .15299988 .3460846 .147995 .37908937 .101989749 .38008119 .1289978 .41519166 .17799378 .426239 .20999146 .426239 .25898744 .426239 .31599427 .38710023 .31599427 .29808045V.26107789C.2649994 .25808717 .19499207 .25508119 .13198853 .22509766 .056991579 .19110108 .03199768 .13911438 .03199768 .09512329 .03199768 .014251709 .1289978-.0107421879 .19198609-.0107421879 .2579956-.0107421879 .3039856 .029251099 .32299806 .07624817 .32699586 .036132814 .35398866-.005859375 .40098573-.005859375 .42199708-.005859375 .48298646 .008132935 .48298646 .08912659M.31599427 .14013672C.31599427 .04525757 .24398804 .011245728 .19898987 .011245728 .1499939 .011245728 .10899353 .04624939 .10899353 .09625244 .10899353 .15124512 .15098572 .23425293 .31599427 .24024964V.14013672Z"/>
<path id="font_4_112" d="M.5079956 .3996582V.43066407C.4850006 .4286499 .45599366 .42765809 .43299867 .42765809L.34599305 .43066407V.3996582C.3829956 .39865113 .3939972 .37568666 .3939972 .35671998 .3939972 .34773255 .3919983 .34373475 .3880005 .3327484L.28599549 .078125 .17399597 .35671998C.16799927 .3697052 .16799927 .37368775 .16799927 .37368775 .16799927 .3996582 .20698548 .3996582 .22499085 .3996582V.43066407L.115997318 .42765809C.08898926 .42765809 .04899597 .4286499 .018997193 .43066407V.3996582C.08198547 .3996582 .085998538 .3936615 .09899902 .36271668L.24299622 .008224487C.24899292-.0057525637 .25099183-.0107421879 .2639923-.0107421879 .2769928-.0107421879 .2809906-.0017700195 .2849884 .008224487L.41600038 .3327484C.4249878 .3557129 .44198609 .39865113 .5079956 .3996582Z"/>
<path id="font_4_66" d="M.24699402 0V.0309906C.18099976 .0309906 .1769867 .035995485 .1769867 .075042728V.4423828L.036987306 .43066407V.3996582C.101989749 .3996582 .11099243 .3936615 .11099243 .3447113V.07595825C.11099243 .0309906 .099990848 .0309906 .032989503 .0309906V0L.14299011 .0029907227C.17799378 .0029907227 .21299744 .0009918213 .24699402 0M.19198609 .603775C.19198609 .6307678 .16899109 .6567688 .13899231 .6567688 .10499573 .6567688 .084991458 .6287689 .084991458 .603775 .084991458 .57676699 .10798645 .55078127 .13798523 .55078127 .17199707 .55078127 .19198609 .5787811 .19198609 .603775Z"/>
<path id="font_4_77" d="M.5349884 0V.0309906C.48298646 .0309906 .45799256 .0309906 .45700074 .061019899V.25221253C.45700074 .3383026 .45700074 .36932374 .42599488 .405365 .4119873 .42237855 .3789978 .4423828 .32099916 .4423828 .24798584 .4423828 .20098877 .39935304 .17298889 .33729554V.4423828L.03199768 .43066407V.3996582C.101989749 .3996582 .10998535 .39266969 .10998535 .34370423V.07595825C.10998535 .0309906 .09899902 .0309906 .03199768 .0309906V0L.14498902 .0029907227 .25698854 0V.0309906C.18998719 .0309906 .1789856 .0309906 .1789856 .07595825V.25978089C.1789856 .36431886 .25 .42037965 .31399537 .42037965 .3769989 .42037965 .3880005 .36631776 .3880005 .30926515V.076034549C.3880005 .0309906 .3769989 .0309906 .30999757 .0309906V0L.4229889 .0029907227 .5349884 0Z"/>
<path id="font_4_59" d="M.4850006 .40411378C.4850006 .42111207 .47299195 .453125 .43399049 .453125 .4139862 .453125 .36999513 .44711305 .32798768 .40611268 .28599549 .43937684 .24398804 .4423828 .22200012 .4423828 .1289978 .4423828 .05999756 .37338258 .05999756 .29638673 .05999756 .25239564 .08198547 .21440125 .10699463 .19340515 .09399414 .17840576 .07598877 .14538574 .07598877 .11035156 .07598877 .07899475 .08898926 .04083252 .11999512 .020828248 .05999756 .003829956 .027999878-.039138795 .027999878-.07911682 .027999878-.15107727 .1269989-.20605469 .24899292-.20605469 .36698915-.20605469 .47099305-.15507508 .47099305-.07711792 .47099305-.042144777 .45700074 .008834839 .4059906 .036834718 .35299684 .064834598 .29499818 .064834598 .23399353 .064834598 .20899964 .064834598 .1659851 .064834598 .15899658 .065841678 .1269989 .069885257 .10598755 .101242069 .10598755 .13334656 .10598755 .13735962 .10598755 .16040039 .12298584 .18040467 .1619873 .15240479 .20298767 .14941406 .22200012 .14941406 .31498719 .14941406 .38398744 .21839905 .38398744 .2953949 .38398744 .3323822 .36799623 .36938478 .34298707 .39237977 .3789978 .42637635 .4149933 .43138124 .43299867 .43138124 .43299867 .43112184 .43998719 .43112184 .44299317 .43011476 .43199159 .42611695 .4269867 .41513063 .4269867 .40315248 .4269867 .38616944 .43998719 .37417604 .45599366 .37417604 .46598817 .37417604 .4850006 .3811798 .4850006 .4041443V.40411378M.30899049 .29626466C.30899049 .26930238 .30799867 .2373352 .29299928 .21235657 .2849884 .20037842 .2619934 .17240906 .22200012 .17240906 .1349945 .17240906 .1349945 .2722931 .1349945 .29527284 .1349945 .3222351 .13598633 .35420228 .15098572 .3791809 .15899658 .3913269 .18199158 .41937257 .22200012 .41937257 .30899049 .41937257 .30899049 .31922914 .30899049 .29618836V.29626466M.4189911-.07911682C.4189911-.13308716 .34799195-.18305969 .25-.18305969 .14898682-.18305969 .07998657-.13209534 .07998657-.07911682 .07998657-.03314209 .117996219 .003829956 .1619873 .0068359377H.22099304C.30699159 .0068359377 .4189911 .0068359377 .4189911-.07911682Z"/>
<path id="font_4_85" d="M.33099366-.2400055C.33099366-.23701477 .33099366-.23500061 .31399537-.21800232 .18899536-.0920105 .15699768 .09700012 .15699768 .25 .15699768 .42399598 .19499207 .59799197 .31799317 .72299197 .33099366 .7350006 .33099366 .7369995 .33099366 .73999026 .33099366 .746994 .32699586 .75 .32099916 .75 .31098939 .75 .22099304 .6819916 .1619873 .5549927 .11099243 .44499208 .09899902 .33399964 .09899902 .25 .09899902 .17199707 .10998535 .050994874 .16499329-.06201172 .22499085-.18501282 .31098939-.25 .32099916-.25 .32699586-.25 .33099366-.24700928 .33099366-.2400055Z"/>
<path id="font_4_47" d="M.5269928 0V.0309906C.45700074 .0309906 .44898988 .038009645 .44898988 .0871582V.69433596L.30499269 .6826172V.6516113C.375 .6516113 .3829956 .64463809 .3829956 .59580996V.38035584C.35398866 .41636659 .31098939 .4423828 .25698854 .4423828 .13899231 .4423828 .033996583 .3443451 .033996583 .21531677 .033996583 .088272098 .13198853-.0107421879 .24598694-.0107421879 .30999757-.0107421879 .35499574 .023254395 .37998963 .055267335V-.0107421879L.5269928 0M.37998963 .117996219C.37998963 .099990848 .37998963 .09799194 .36898805 .08099365 .33898927 .033218385 .2939911 .011245728 .25099183 .011245728 .20599365 .011245728 .16999817 .037216188 .1459961 .075164798 .11999512 .1161499 .116989139 .17320252 .116989139 .21421814 .116989139 .25125123 .11898804 .31129457 .147995 .35632325 .16899109 .38734437 .20698548 .42037965 .26098634 .42037965 .29599 .42037965 .33799745 .405365 .36898805 .3603363 .37998963 .34332276 .37998963 .34132386 .37998963 .32330323V.117996219Z"/>
<path id="font_4_81" d="M.47099305 .21424866C.47099305 .34223939 .37098695 .4482422 .25 .4482422 .125 .4482422 .027999878 .3392334 .027999878 .21424866 .027999878 .085250858 .13198853-.0107421879 .24899292-.0107421879 .36999513-.0107421879 .47099305 .087249759 .47099305 .21424866M.3880005 .22224427C.3880005 .18624878 .3880005 .13224793 .3659973 .08824158 .34399415 .04324341 .2999878 .014251709 .25 .014251709 .20698548 .014251709 .16299439 .035247804 .13598633 .08125305 .11099243 .12524414 .11099243 .18624878 .11099243 .22224427 .11099243 .26124574 .11099243 .31523133 .1349945 .35923768 .1619873 .40522767 .20899964 .426239 .24899292 .426239 .29299928 .426239 .33599855 .40423585 .3619995 .36123658 .3880005 .3182373 .3880005 .26023866 .3880005 .22224427Z"/>
<path id="font_4_72" d="M.25498963 0V.0309906C.18798828 .0309906 .1769867 .0309906 .1769867 .07601929V.69433596L.032989503 .6826172V.6516113C.102996829 .6516113 .11099243 .64460757 .11099243 .5956421V.07595825C.11099243 .0309906 .099990848 .0309906 .032989503 .0309906V0L.14399719 .0029907227 .25498963 0Z"/>
<path id="font_4_96" d="M.3639984 .38137818C.3639984 .41337586 .33299256 .4423828 .2899933 .4423828 .21699524 .4423828 .18099976 .37538148 .16699219 .3323822V.4423828L.027999878 .43066407V.3996582C.09799194 .3996582 .10598755 .39266969 .10598755 .34370423V.07595825C.10598755 .0309906 .09498596 .0309906 .027999878 .0309906V0L.14199829 .0029907227C.18199158 .0029907227 .22898865 .0029907227 .2689972 0V.0309906H.24798584C.17399597 .0309906 .17199707 .04197693 .17199707 .07795715V.23181153C.17199707 .33137513 .21398926 .42037965 .2899933 .42037965 .29699708 .42037965 .29899598 .42037965 .30099488 .41937257 .2979889 .41838075 .27799989 .40637208 .27799989 .3803711 .27799989 .35237123 .29899598 .33737184 .32099916 .33737184 .33898927 .33737184 .3639984 .3493805 .3639984 .38137818Z"/>
<path id="font_4_86" d="M.2889862 .25C.2889862 .32798768 .27799989 .44898988 .22299195 .56199648 .16299439 .68499758 .07699585 .75 .066986087 .75 .06098938 .75 .056991579 .74598696 .056991579 .73999026 .056991579 .7369995 .056991579 .7350006 .07598877 .71699526 .17399597 .6179962 .23098755 .45899964 .23098755 .25 .23098755 .07899475 .19400025-.09700012 .069992069-.2230072 .056991579-.23500061 .056991579-.23701477 .056991579-.2400055 .056991579-.2460022 .06098938-.25 .066986087-.25 .07699585-.25 .16699219-.18200684 .22599793-.055007936 .2769928 .054992677 .2889862 .16600037 .2889862 .25Z"/>
</defs>
<path transform="matrix(1.00008,0,0,-1,17.150895,143.15)" d="M0 0H163.8872V141.35164H0Z" fill="#fffac2"/>
<path transform="matrix(1.00008,0,0,-1,17.150895,143.15)" stroke-width=".3985" stroke-linecap="butt" stroke-miterlimit="10" stroke-linejoin="miter" fill="none" stroke="#d5d6d5" d="M10.92581 0V141.35164M21.85162 0V141.35164M32.77744 0V141.35164M43.70325 0V141.35164M54.62906 0V141.35164M65.55487 0V141.35164M76.48068 0V141.35164M87.40651 0V141.35164M98.33232 0V141.35164M109.25813 0V141.35164M120.18394 0V141.35164M131.10976 0V141.35164M142.03557 0V141.35164M152.96138 0V141.35164M163.8872 0V141.35164"/>
<path transform="matrix(1.00008,0,0,-1,17.150895,143.15)" stroke-width=".3985" stroke-linecap="butt" stroke-miterlimit="10" stroke-linejoin="miter" fill="none" stroke="#d5d6d5" d="M21.85162 0V141.35164M43.70325 0V141.35164M65.55487 0V141.35164M87.40651 0V141.35164M109.25813 0V141.35164M131.10976 0V141.35164M152.96138 0V141.35164"/>
<path transform="matrix(1.00008,0,0,-1,17.150895,143.15)" stroke-width=".3985" stroke-linecap="butt" stroke-miterlimit="10" stroke-linejoin="miter" fill="none" stroke="#d5d6d5" d="M0 8.83447H163.8872M0 17.66895H163.8872M0 26.50342H163.8872M0 35.3379H163.8872M0 44.17238H163.8872M0 53.00685H163.8872M0 61.84134H163.8872M0 70.67581H163.8872M0 79.51028H163.8872M0 88.34477H163.8872M0 97.17924H163.8872M0 106.01372H163.8872M0 114.8482H163.8872M0 123.68268H163.8872M0 132.51715H163.8872M0 141.35164H163.8872"/>
<path transform="matrix(1.00008,0,0,-1,17.150895,143.15)" stroke-width=".3985" stroke-linecap="butt" stroke-miterlimit="10" stroke-linejoin="miter" fill="none" stroke="#d5d6d5" d="M0 44.17238H163.8872M0 88.34477H163.8872M0 132.51715H163.8872"/>
<path transform="matrix(1.00008,0,0,-1,17.150895,143.15)" stroke-width=".19925" stroke-linecap="butt" stroke-miterlimit="10" stroke-linejoin="miter" fill="none" stroke="#929292" d="M10.92581-1.41737V1.41739M21.85162-1.41737V1.41739M32.77744-1.41737V1.41739M43.70325-1.41737V1.41739M54.62906-1.41737V1.41739M65.55487-1.41737V1.41739M76.48068-1.41737V1.41739M87.40651-1.41737V1.41739M98.33232-1.41737V1.41739M109.25813-1.41737V1.41739M120.18394-1.41737V1.41739M131.10976-1.41737V1.41739M142.03557-1.41737V1.41739M152.96138-1.41737V1.41739M163.8872-1.41737V1.41739"/>
<path transform="matrix(1.00008,0,0,-1,17.150895,143.15)" stroke-width=".19925" stroke-linecap="butt" stroke-miterlimit="10" stroke-linejoin="miter" fill="none" stroke="#929292" d="M21.85162-2.12589V2.12589M43.70325-2.12589V2.12589M65.55487-2.12589V2.12589M87.40651-2.12589V2.12589M109.25813-2.12589V2.12589M131.10976-2.12589V2.12589M152.96138-2.12589V2.12589"/>
<path transform="matrix(1.00008,0,0,-1,17.150895,143.15)" stroke-width=".19925" stroke-linecap="butt" stroke-miterlimit="10" stroke-linejoin="miter" fill="none" stroke="#929292" d="M-1.4173 8.83447H1.41733M-1.4173 17.66895H1.41733M-1.4173 26.50342H1.41733M-1.4173 35.3379H1.41733M-1.4173 44.17238H1.41733M-1.4173 53.00685H1.41733M-1.4173 61.84134H1.41733M-1.4173 70.67581H1.41733M-1.4173 79.51028H1.41733M-1.4173 88.34477H1.41733M-1.4173 97.17924H1.41733M-1.4173 106.01372H1.41733M-1.4173 114.8482H1.41733M-1.4173 123.68268H1.41733M-1.4173 132.51715H1.41733M-1.4173 141.35164H1.41733"/>
<path transform="matrix(1.00008,0,0,-1,17.150895,143.15)" stroke-width=".19925" stroke-linecap="butt" stroke-miterlimit="10" stroke-linejoin="miter" fill="none" stroke="#929292" d="M-2.12578 44.17238H2.12578M-2.12578 88.34477H2.12578M-2.12578 132.51715H2.12578"/>
<path transform="matrix(1.00008,0,0,-1,17.150895,143.15)" stroke-width=".3985" stroke-linecap="butt" stroke-miterlimit="10" stroke-linejoin="miter" fill="none" stroke="#000000" d="M0 0H161.89469"/>
<path transform="matrix(1.00008,0,0,-1,179.05854,143.15)" d="M1.99252 0-1.19551 1.59401 0 0-1.19551-1.59401"/>
<path transform="matrix(1.00008,0,0,-1,17.150895,143.15)" stroke-width=".3985" stroke-linecap="butt" stroke-miterlimit="10" stroke-linejoin="miter" fill="none" stroke="#000000" d="M0 0V139.35912"/>
<path transform="matrix(0,-1,-1.00008,-0,17.150895,3.7908784)" d="M1.99252 0-1.19551 1.59401 0 0-1.19551-1.59401"/>
<use data-text="2" xlink:href="#font_1_3" transform="matrix(7.9707376,0,0,-7.9701,36.887475,153.93199)"/>
<use data-text="4" xlink:href="#font_1_5" transform="matrix(7.9707376,0,0,-7.9701,58.74022,153.93199)"/>
<use data-text="6" xlink:href="#font_1_6" transform="matrix(7.9707376,0,0,-7.9701,80.59396,153.93199)"/>
<use data-text="8" xlink:href="#font_1_7" transform="matrix(7.9707376,0,0,-7.9701,102.44672,153.93199)"/>
<use data-text="1" xlink:href="#font_1_2" transform="matrix(7.9707376,0,0,-7.9701,122.1833,153.93199)"/>
<use data-text="0" xlink:href="#font_1_1" transform="matrix(7.9707376,0,0,-7.9701,126.41576,153.93199)"/>
<use data-text="1" xlink:href="#font_1_2" transform="matrix(7.9707376,0,0,-7.9701,144.03705,153.93199)"/>
<use data-text="2" xlink:href="#font_1_3" transform="matrix(7.9707376,0,0,-7.9701,148.2695,153.93199)"/>
<use data-text="1" xlink:href="#font_1_2" transform="matrix(7.9707376,0,0,-7.9701,165.8898,153.93199)"/>
<use data-text="4" xlink:href="#font_1_5" transform="matrix(7.9707376,0,0,-7.9701,170.12227,153.93199)"/>
<use data-text="1" xlink:href="#font_1_2" transform="matrix(7.9707376,0,0,-7.9701,.6915779,101.54599)"/>
<use data-text="0" xlink:href="#font_1_1" transform="matrix(7.9707376,0,0,-7.9701,4.9240419,101.54599)"/>
<use data-text="0" xlink:href="#font_1_1" transform="matrix(7.9707376,0,0,-7.9701,9.156506,101.54599)"/>
<use data-text="2" xlink:href="#font_1_3" transform="matrix(7.9707376,0,0,-7.9701,.6915779,57.372995)"/>
<use data-text="0" xlink:href="#font_1_1" transform="matrix(7.9707376,0,0,-7.9701,4.9240419,57.372995)"/>
<use data-text="0" xlink:href="#font_1_1" transform="matrix(7.9707376,0,0,-7.9701,9.156506,57.372995)"/>
<use data-text="3" xlink:href="#font_1_4" transform="matrix(7.9707376,0,0,-7.9701,.6915779,13.200989)"/>
<use data-text="0" xlink:href="#font_1_1" transform="matrix(7.9707376,0,0,-7.9701,4.9240419,13.200989)"/>
<use data-text="0" xlink:href="#font_1_1" transform="matrix(7.9707376,0,0,-7.9701,9.156506,13.200989)"/>
<g clip-path="url(#clip_2)">
<path transform="matrix(1.00008,0,0,-1,17.150895,143.15)" stroke-width=".99628" stroke-linecap="butt" stroke-miterlimit="10" stroke-linejoin="miter" fill="none" stroke="#9e0c0f" d="M0 22.08618 5.91806 26.87146 11.83615 31.65674 17.75421 36.44202 23.67229 41.22731 29.59036 46.01259 35.50844 50.79787 41.42653 55.58316 47.34459 60.36845 53.26268 65.15373 59.18074 69.93901 65.09882 74.72429 71.0169 79.50958 76.93498 84.29486 82.85306 89.08014 88.77112 93.86542 94.68921 98.65071 100.60728 103.43599 106.52534 108.22127 112.44345 113.00652 118.36151 117.7919 124.27959 122.57715 130.19768 127.3624 136.11574 132.14766 139.78725 135.11646"/>
<path transform="matrix(.7776322,-.62875,-.62880036,-.77757,156.94931,8.033554)" d="M2.8892 0-1.73352 2.31136 0 0-1.73352-2.31136" fill="#9e0c0f"/>
<path transform="matrix(1.00008,0,0,-1,17.150895,143.15)" stroke-width=".99628" stroke-linecap="butt" stroke-miterlimit="10" stroke-linejoin="miter" fill="none" stroke="#929292" d="M0 22.08618H10.92581V25.82283"/>
<path transform="matrix(0,-1,-1.00008,-0,28.077578,117.32716)" d="M2.8892 0-1.73352 2.31136 0 0-1.73352-2.31136" fill="#929292"/>
<path transform="matrix(1.00008,0,0,-1,17.150895,143.15)" stroke-width=".99628" stroke-linecap="butt" stroke-miterlimit="10" stroke-linejoin="miter" fill="none" stroke="#929292" d="M10.92581 30.92067H21.85162V34.65732"/>
<path transform="matrix(0,-1,-1.00008,-0,39.00426,108.492679)" d="M2.8892 0-1.73352 2.31136 0 0-1.73352-2.31136" fill="#929292"/>
<path transform="matrix(1.00008,0,0,-1,17.150895,143.15)" stroke-width=".99628" stroke-linecap="butt" stroke-miterlimit="10" stroke-linejoin="miter" fill="none" stroke="#929292" d="M21.85162 39.75514H43.70325V52.32626"/>
<path transform="matrix(0,-1,-1.00008,-0,60.85764,90.82373)" d="M2.8892 0-1.73352 2.31136 0 0-1.73352-2.31136" fill="#929292"/>
<path transform="matrix(1.00008,0,0,-1,17.150895,143.15)" stroke-width=".99628" stroke-linecap="butt" stroke-miterlimit="10" stroke-linejoin="miter" fill="none" stroke="#929292" d="M43.70325 57.4241H76.48068V78.8297"/>
<path transform="matrix(0,-1,-1.00008,-0,93.637699,64.3203)" d="M2.8892 0-1.73352 2.31136 0 0-1.73352-2.31136" fill="#929292"/>
<path transform="matrix(1.00008,0,0,-1,17.150895,143.15)" stroke-width=".99628" stroke-linecap="butt" stroke-miterlimit="10" stroke-linejoin="miter" fill="none" stroke="#929292" d="M76.48068 83.92754H131.10976"/>
<use data-text="5" xlink:href="#font_3_4" transform="matrix(9.963397,0,0,-9.9626,104.329868,69.954998)" fill="#929292"/>
<use data-text="w" xlink:href="#font_4_114" transform="matrix(9.963397,0,0,-9.9626,112.62953,69.954998)" fill="#929292"/>
<use data-text="e" xlink:href="#font_4_50" transform="matrix(9.963397,0,0,-9.9626,119.54413,69.954998)" fill="#929292"/>
<use data-text="e" xlink:href="#font_4_50" transform="matrix(9.963397,0,0,-9.9626,123.96787,69.954998)" fill="#929292"/>
<use data-text="k" xlink:href="#font_4_70" transform="matrix(9.963397,0,0,-9.9626,128.39163,69.954998)" fill="#929292"/>
<use data-text="s" xlink:href="#font_4_98" transform="matrix(9.963397,0,0,-9.9626,133.6523,69.954998)" fill="#929292"/>
<path transform="matrix(1.00008,0,0,-1,17.150895,143.15)" stroke-width=".99628" stroke-linecap="butt" stroke-miterlimit="10" stroke-linejoin="miter" fill="none" stroke="#929292" d="M131.10976 83.92754V123.00209"/>
<path transform="matrix(0,-1,-1.00008,-0,148.27114,20.147904)" d="M2.8892 0-1.73352 2.31136 0 0-1.73352-2.31136" fill="#929292"/>
<use data-text="$" xlink:href="#font_3_1" transform="matrix(0,-9.9626,-9.963397,-0,159.56328,48.203)" fill="#929292"/>
<use data-text="1" xlink:href="#font_3_3" transform="matrix(0,-9.9626,-9.963397,-0,159.56328,43.2217)" fill="#929292"/>
<use data-text="0" xlink:href="#font_3_2" transform="matrix(0,-9.9626,-9.963397,-0,159.56328,38.2404)" fill="#929292"/>
<use data-text="0" xlink:href="#font_3_2" transform="matrix(0,-9.9626,-9.963397,-0,159.56328,33.2591)" fill="#929292"/>
</g>
<path transform="matrix(1.00008,0,0,-1,17.150895,143.15)" d="M1.99255 22.08618C1.99255 23.18666 1.10046 24.07874 0 24.07874-1.10046 24.07874-1.99255 23.18666-1.99255 22.08618-1.99255 20.98572-1.10046 20.09363 0 20.09363 1.10046 20.09363 1.99255 20.98572 1.99255 22.08618ZM0 22.08618" fill="#9e0c0f"/>
<path transform="matrix(1.00008,0,0,-1,17.150895,143.15)" stroke-width=".3985" stroke-linecap="butt" stroke-miterlimit="10" stroke-linejoin="miter" fill="none" stroke="#9e0c0f" d="M1.99255 22.08618C1.99255 23.18666 1.10046 24.07874 0 24.07874-1.10046 24.07874-1.99255 23.18666-1.99255 22.08618-1.99255 20.98572-1.10046 20.09363 0 20.09363 1.10046 20.09363 1.99255 20.98572 1.99255 22.08618ZM0 22.08618"/>
<path transform="matrix(1.00008,0,0,-1,17.150895,143.15)" d="M12.91837 30.92067C12.91837 32.02113 12.02628 32.91322 10.92581 32.91322 9.82533 32.91322 8.93326 32.02113 8.93326 30.92067 8.93326 29.82019 9.82533 28.92812 10.92581 28.92812 12.02628 28.92812 12.91837 29.82019 12.91837 30.92067ZM10.92581 30.92067" fill="#9e0c0f"/>
<path transform="matrix(1.00008,0,0,-1,17.150895,143.15)" stroke-width=".3985" stroke-linecap="butt" stroke-miterlimit="10" stroke-linejoin="miter" fill="none" stroke="#9e0c0f" d="M12.91837 30.92067C12.91837 32.02113 12.02628 32.91322 10.92581 32.91322 9.82533 32.91322 8.93326 32.02113 8.93326 30.92067 8.93326 29.82019 9.82533 28.92812 10.92581 28.92812 12.02628 28.92812 12.91837 29.82019 12.91837 30.92067ZM10.92581 30.92067"/>
<path transform="matrix(1.00008,0,0,-1,17.150895,143.15)" d="M23.84418 39.75514C23.84418 40.8556 22.95209 41.7477 21.85162 41.7477 20.75114 41.7477 19.85907 40.8556 19.85907 39.75514 19.85907 38.65468 20.75114 37.76259 21.85162 37.76259 22.95209 37.76259 23.84418 38.65468 23.84418 39.75514ZM21.85162 39.75514" fill="#9e0c0f"/>
<path transform="matrix(1.00008,0,0,-1,17.150895,143.15)" stroke-width=".3985" stroke-linecap="butt" stroke-miterlimit="10" stroke-linejoin="miter" fill="none" stroke="#9e0c0f" d="M23.84418 39.75514C23.84418 40.8556 22.95209 41.7477 21.85162 41.7477 20.75114 41.7477 19.85907 40.8556 19.85907 39.75514 19.85907 38.65468 20.75114 37.76259 21.85162 37.76259 22.95209 37.76259 23.84418 38.65468 23.84418 39.75514ZM21.85162 39.75514"/>
<path transform="matrix(1.00008,0,0,-1,17.150895,143.15)" d="M45.6958 57.4241C45.6958 58.52457 44.80373 59.41666 43.70325 59.41666 42.60278 59.41666 41.7107 58.52457 41.7107 57.4241 41.7107 56.32362 42.60278 55.43155 43.70325 55.43155 44.80373 55.43155 45.6958 56.32362 45.6958 57.4241ZM43.70325 57.4241" fill="#9e0c0f"/>
<path transform="matrix(1.00008,0,0,-1,17.150895,143.15)" stroke-width=".3985" stroke-linecap="butt" stroke-miterlimit="10" stroke-linejoin="miter" fill="none" stroke="#9e0c0f" d="M45.6958 57.4241C45.6958 58.52457 44.80373 59.41666 43.70325 59.41666 42.60278 59.41666 41.7107 58.52457 41.7107 57.4241 41.7107 56.32362 42.60278 55.43155 43.70325 55.43155 44.80373 55.43155 45.6958 56.32362 45.6958 57.4241ZM43.70325 57.4241"/>
<path transform="matrix(1.00008,0,0,-1,17.150895,143.15)" d="M78.47324 83.92754C78.47324 85.028 77.58116 85.92009 76.48068 85.92009 75.38022 85.92009 74.48813 85.028 74.48813 83.92754 74.48813 82.82706 75.38022 81.93498 76.48068 81.93498 77.58116 81.93498 78.47324 82.82706 78.47324 83.92754ZM76.48068 83.92754" fill="#9e0c0f"/>
<path transform="matrix(1.00008,0,0,-1,17.150895,143.15)" stroke-width=".3985" stroke-linecap="butt" stroke-miterlimit="10" stroke-linejoin="miter" fill="none" stroke="#9e0c0f" d="M78.47324 83.92754C78.47324 85.028 77.58116 85.92009 76.48068 85.92009 75.38022 85.92009 74.48813 85.028 74.48813 83.92754 74.48813 82.82706 75.38022 81.93498 76.48068 81.93498 77.58116 81.93498 78.47324 82.82706 78.47324 83.92754ZM76.48068 83.92754"/>
<path transform="matrix(1.00008,0,0,-1,17.150895,143.15)" d="M133.10231 128.09992C133.10231 129.2004 132.21024 130.09247 131.10976 130.09247 130.0093 130.09247 129.1172 129.2004 129.1172 128.09992 129.1172 126.99945 130.0093 126.10736 131.10976 126.10736 132.21024 126.10736 133.10231 126.99945 133.10231 128.09992ZM131.10976 128.09992" fill="#9e0c0f"/>
<path transform="matrix(1.00008,0,0,-1,17.150895,143.15)" stroke-width=".3985" stroke-linecap="butt" stroke-miterlimit="10" stroke-linejoin="miter" fill="none" stroke="#9e0c0f" d="M133.10231 128.09992C133.10231 129.2004 132.21024 130.09247 131.10976 130.09247 130.0093 130.09247 129.1172 129.2004 129.1172 128.09992 129.1172 126.99945 130.0093 126.10736 131.10976 126.10736 132.21024 126.10736 133.10231 126.99945 133.10231 128.09992ZM131.10976 128.09992"/>
<path transform="matrix(1.00008,0,0,-1,17.150895,143.15)" stroke-width=".3985" stroke-linecap="butt" stroke-miterlimit="10" stroke-linejoin="miter" fill="none" stroke="#9e0c0f" d=""/>
<use data-text="w" xlink:href="#font_4_114" transform="matrix(9.963397,0,0,-9.9626,152.58274,139.521)"/>
<use data-text="e" xlink:href="#font_4_50" transform="matrix(9.963397,0,0,-9.9626,159.49733,139.521)"/>
<use data-text="e" xlink:href="#font_4_50" transform="matrix(9.963397,0,0,-9.9626,163.92108,139.521)"/>
<use data-text="k" xlink:href="#font_4_70" transform="matrix(9.963397,0,0,-9.9626,168.34482,139.521)"/>
<use data-text="s" xlink:href="#font_4_98" transform="matrix(9.963397,0,0,-9.9626,173.6055,139.521)"/>
<use data-text="s" xlink:href="#font_4_98" transform="matrix(9.963397,0,0,-9.9626,20.671177,12.789993)"/>
<use data-text="a" xlink:href="#font_4_28" transform="matrix(9.963397,0,0,-9.9626,24.596756,12.789993)"/>
<use data-text="v" xlink:href="#font_4_112" transform="matrix(9.963397,0,0,-9.9626,29.29948,12.789993)"/>
<use data-text="i" xlink:href="#font_4_66" transform="matrix(9.963397,0,0,-9.9626,34.560155,12.789993)"/>
<use data-text="n" xlink:href="#font_4_77" transform="matrix(9.963397,0,0,-9.9626,37.329977,12.789993)"/>
<use data-text="g" xlink:href="#font_4_59" transform="matrix(9.963397,0,0,-9.9626,42.869626,12.789993)"/>
<use data-text="s" xlink:href="#font_4_98" transform="matrix(9.963397,0,0,-9.9626,47.851324,12.789993)"/>
<use data-text="(" xlink:href="#font_4_85" transform="matrix(9.963397,0,0,-9.9626,55.094709,12.789993)"/>
<use data-text="i" xlink:href="#font_4_66" transform="matrix(9.963397,0,0,-9.9626,58.97047,12.789993)"/>
<use data-text="n" xlink:href="#font_4_77" transform="matrix(9.963397,0,0,-9.9626,61.74029,12.789993)"/>
<use data-text="d" xlink:href="#font_4_47" transform="matrix(9.963397,0,0,-9.9626,70.59775,12.789993)"/>
<use data-text="o" xlink:href="#font_4_81" transform="matrix(9.963397,0,0,-9.9626,76.137409,12.789993)"/>
<use data-text="l" xlink:href="#font_4_72" transform="matrix(9.963397,0,0,-9.9626,81.119098,12.789993)"/>
<use data-text="l" xlink:href="#font_4_72" transform="matrix(9.963397,0,0,-9.9626,83.888919,12.789993)"/>
<use data-text="a" xlink:href="#font_4_28" transform="matrix(9.963397,0,0,-9.9626,86.65874,12.789993)"/>
<use data-text="r" xlink:href="#font_4_96" transform="matrix(9.963397,0,0,-9.9626,91.64044,12.789993)"/>
<use data-text="s" xlink:href="#font_4_98" transform="matrix(9.963397,0,0,-9.9626,95.5461,12.789993)"/>
<use data-text=")" xlink:href="#font_4_86" transform="matrix(9.963397,0,0,-9.9626,99.471668,12.789993)"/>
</svg>
